  0
SECTION
  2
HEADER
  9
$ACADVER
  1
AC1009
  9
$INSBASE
 10
0.0
 20
0.0
 30
0.0
  9
$EXTMIN
 10
0.0
 20
0.0
 30
0.0
  9
$EXTMAX
 10
0.0
 20
0.0
 30
0.0
  0
ENDSEC
  0
SECTION
  2
TABLES
  0
TABLE
  2
VPORT
 70
0
  0
ENDTAB
  0
TABLE
  2
LTYPE
 70
1
  0
LTYPE
  2
CONTINUOUS
 70
0
  3
Solid line
 72
65
 73
0
 40
0.0
  0
ENDTAB
  0
TABLE
  2
LAYER
 70
1
  0
LAYER
  2
0
 70
64
 62
7
  6
continuous
  0
ENDTAB
  0
TABLE
  2
STYLE
 70
1
  0
STYLE
  2
STANDARD
 70
0
 40
0
 41
1.0
 50
0.0
 71
0
 42
1
 3
ARIAL.TTF
 4

  0
ENDTAB
  0
TABLE
  2
VIEW
 70
0
  0
ENDTAB
  0
ENDSEC
  0
SECTION
  2
BLOCKS
  0
BLOCK
  8
0
  2
SKETCH071
 70
0
 10
0.0
 20
0.0
 30
0.0
  3
SKETCH071
  0
LINE
  8
0
 62
7
 10
6.321853905946064e-22
 20
0.0
 30
0.0
 11
6.321853905946064e-22
 21
-350.0
 31
0.0
  0
LINE
  8
0
 62
7
 10
6.321853905946064e-22
 20
-350.0
 30
0.0
 11
-249.99999999999906
 21
-350.0
 31
0.0
  0
LINE
  8
0
 62
7
 10
-249.99999999999906
 20
-350.0
 30
0.0
 11
-249.99999999999906
 21
0.0
 31
0.0
  0
LINE
  8
0
 62
7
 10
-249.99999999999906
 20
0.0
 30
0.0
 11
0.0
 21
0.0
 31
0.0
  0
ELLIPSE
  8
0
 62
7
 10
-137.72499999999948
 20
-10.0
 30
0.0
 11
0.0
 21
2.0
 31
0.0
 210
0.0
 220
0.0
 230
-1.0
 40
0.9999999999999962
 41
3.141592653589793
 42
9.42477796076938
  0
ELLIPSE
  8
0
 62
7
 10
-137.72499999999948
 20
-35.449999999999996
 30
0.0
 11
0.0
 21
2.0
 31
0.0
 210
0.0
 220
0.0
 230
-1.0
 40
0.9999999999999962
 41
3.141592653589793
 42
9.42477796076938
  0
ELLIPSE
  8
0
 62
7
 10
-112.27499999999958
 20
-10.0
 30
0.0
 11
0.0
 21
2.0
 31
0.0
 210
0.0
 220
0.0
 230
-1.0
 40
0.9999999999999962
 41
3.141592653589793
 42
9.42477796076938
  0
ELLIPSE
  8
0
 62
7
 10
-112.27499999999958
 20
-35.449999999999996
 30
0.0
 11
0.0
 21
2.0
 31
0.0
 210
0.0
 220
0.0
 230
-1.0
 40
0.9999999999999962
 41
3.141592653589793
 42
9.42477796076938
  0
ELLIPSE
  8
0
 62
7
 10
-138.97499999999948
 20
-152.75
 30
0.0
 11
0.0
 21
2.0
 31
0.0
 210
0.0
 220
0.0
 230
-1.0
 40
0.9999999999999962
 41
3.141592653589793
 42
9.42477796076938
  0
ELLIPSE
  8
0
 62
7
 10
-138.97499999999948
 20
-197.25
 30
0.0
 11
0.0
 21
2.0
 31
0.0
 210
0.0
 220
0.0
 230
-1.0
 40
0.9999999999999962
 41
3.141592653589793
 42
9.42477796076938
  0
ELLIPSE
  8
0
 62
7
 10
-112.27499999999958
 20
-152.75
 30
0.0
 11
0.0
 21
2.0
 31
0.0
 210
0.0
 220
0.0
 230
-1.0
 40
0.9999999999999962
 41
3.141592653589793
 42
9.42477796076938
  0
ELLIPSE
  8
0
 62
7
 10
-112.27499999999958
 20
-197.25
 30
0.0
 11
0.0
 21
2.0
 31
0.0
 210
0.0
 220
0.0
 230
-1.0
 40
0.9999999999999962
 41
3.141592653589793
 42
9.42477796076938
  0
ELLIPSE
  8
0
 62
7
 10
-137.72499999999948
 20
-314.55
 30
0.0
 11
0.0
 21
2.0
 31
0.0
 210
0.0
 220
0.0
 230
-1.0
 40
0.9999999999999962
 41
3.141592653589793
 42
9.42477796076938
  0
ELLIPSE
  8
0
 62
7
 10
-137.72499999999948
 20
-340.0
 30
0.0
 11
0.0
 21
2.0
 31
0.0
 210
0.0
 220
0.0
 230
-1.0
 40
0.9999999999999962
 41
3.141592653589793
 42
9.42477796076938
  0
ELLIPSE
  8
0
 62
7
 10
-112.27499999999958
 20
-314.55
 30
0.0
 11
0.0
 21
2.0
 31
0.0
 210
0.0
 220
0.0
 230
-1.0
 40
0.9999999999999962
 41
3.141592653589793
 42
9.42477796076938
  0
ELLIPSE
  8
0
 62
7
 10
-112.27499999999958
 20
-340.0
 30
0.0
 11
0.0
 21
2.0
 31
0.0
 210
0.0
 220
0.0
 230
-1.0
 40
0.9999999999999962
 41
3.141592653589793
 42
9.42477796076938
  0
ELLIPSE
  8
0
 62
7
 10
-137.72499999999923
 20
-301.825
 30
0.0
 11
0.0
 21
2.0
 31
0.0
 210
0.0
 220
0.0
 230
-1.0
 40
0.9999999999999962
 41
3.141592653589793
 42
9.42477796076938
  0
ELLIPSE
  8
0
 62
7
 10
-137.72499999999923
 20
-327.275
 30
0.0
 11
0.0
 21
2.0
 31
0.0
 210
0.0
 220
0.0
 230
-1.0
 40
0.9999999999999962
 41
3.141592653589793
 42
9.42477796076938
  0
ELLIPSE
  8
0
 62
7
 10
-112.27499999999932
 20
-301.825
 30
0.0
 11
0.0
 21
2.0
 31
0.0
 210
0.0
 220
0.0
 230
-1.0
 40
0.9999999999999962
 41
3.141592653589793
 42
9.42477796076938
  0
ELLIPSE
  8
0
 62
7
 10
-112.27499999999932
 20
-327.275
 30
0.0
 11
0.0
 21
2.0
 31
0.0
 210
0.0
 220
0.0
 230
-1.0
 40
0.9999999999999962
 41
3.141592653589793
 42
9.42477796076938
  0
ELLIPSE
  8
0
 62
7
 10
-137.7249999999995
 20
-263.6499999999961
 30
0.0
 11
0.0
 21
2.0
 31
0.0
 210
0.0
 220
0.0
 230
-1.0
 40
0.9999999999999962
 41
3.141592653589793
 42
9.42477796076938
  0
ELLIPSE
  8
0
 62
7
 10
-137.7249999999995
 20
-289.0999999999961
 30
0.0
 11
0.0
 21
2.0
 31
0.0
 210
0.0
 220
0.0
 230
-1.0
 40
0.9999999999999962
 41
3.141592653589793
 42
9.42477796076938
  0
ELLIPSE
  8
0
 62
7
 10
-112.2749999999996
 20
-263.6499999999961
 30
0.0
 11
0.0
 21
2.0
 31
0.0
 210
0.0
 220
0.0
 230
-1.0
 40
0.9999999999999962
 41
3.141592653589793
 42
9.42477796076938
  0
ELLIPSE
  8
0
 62
7
 10
-112.2749999999996
 20
-289.0999999999961
 30
0.0
 11
0.0
 21
2.0
 31
0.0
 210
0.0
 220
0.0
 230
-1.0
 40
0.9999999999999962
 41
3.141592653589793
 42
9.42477796076938
  0
ELLIPSE
  8
0
 62
7
 10
-137.72499999999948
 20
-250.9249999999958
 30
0.0
 11
0.0
 21
2.0
 31
0.0
 210
0.0
 220
0.0
 230
-1.0
 40
0.9999999999999962
 41
3.141592653589793
 42
9.42477796076938
  0
ELLIPSE
  8
0
 62
7
 10
-137.72499999999948
 20
-276.3749999999958
 30
0.0
 11
0.0
 21
2.0
 31
0.0
 210
0.0
 220
0.0
 230
-1.0
 40
0.9999999999999962
 41
3.141592653589793
 42
9.42477796076938
  0
ELLIPSE
  8
0
 62
7
 10
-112.27499999999957
 20
-250.9249999999958
 30
0.0
 11
0.0
 21
2.0
 31
0.0
 210
0.0
 220
0.0
 230
-1.0
 40
0.9999999999999962
 41
3.141592653589793
 42
9.42477796076938
  0
ELLIPSE
  8
0
 62
7
 10
-112.27499999999957
 20
-276.3749999999958
 30
0.0
 11
0.0
 21
2.0
 31
0.0
 210
0.0
 220
0.0
 230
-1.0
 40
0.9999999999999962
 41
3.141592653589793
 42
9.42477796076938
  0
ELLIPSE
  8
0
 62
7
 10
-137.72499999999948
 20
-212.74999999999554
 30
0.0
 11
0.0
 21
2.0
 31
0.0
 210
0.0
 220
0.0
 230
-1.0
 40
0.9999999999999962
 41
3.141592653589793
 42
9.42477796076938
  0
ELLIPSE
  8
0
 62
7
 10
-137.72499999999948
 20
-238.19999999999558
 30
0.0
 11
0.0
 21
2.0
 31
0.0
 210
0.0
 220
0.0
 230
-1.0
 40
0.9999999999999962
 41
3.141592653589793
 42
9.42477796076938
  0
ELLIPSE
  8
0
 62
7
 10
-112.27499999999954
 20
-212.74999999999554
 30
0.0
 11
0.0
 21
2.0
 31
0.0
 210
0.0
 220
0.0
 230
-1.0
 40
0.9999999999999962
 41
3.141592653589793
 42
9.42477796076938
  0
ELLIPSE
  8
0
 62
7
 10
-112.27499999999954
 20
-238.19999999999558
 30
0.0
 11
0.0
 21
2.0
 31
0.0
 210
0.0
 220
0.0
 230
-1.0
 40
0.9999999999999962
 41
3.141592653589793
 42
9.42477796076938
  0
ELLIPSE
  8
0
 62
7
 10
-137.72499999999945
 20
-225.47499999999556
 30
0.0
 11
0.0
 21
2.0
 31
0.0
 210
0.0
 220
0.0
 230
-1.0
 40
0.9999999999999962
 41
3.141592653589793
 42
9.42477796076938
  0
ELLIPSE
  8
0
 62
7
 10
-112.27499999999954
 20
-225.47499999999533
 30
0.0
 11
0.0
 21
2.0
 31
0.0
 210
0.0
 220
0.0
 230
-1.0
 40
0.9999999999999962
 41
3.141592653589793
 42
9.42477796076938
  0
ELLIPSE
  8
0
 62
7
 10
-137.7249999999995
 20
-22.724999999999998
 30
0.0
 11
0.0
 21
2.0
 31
0.0
 210
0.0
 220
0.0
 230
-1.0
 40
0.9999999999999962
 41
3.141592653589793
 42
9.42477796076938
  0
ELLIPSE
  8
0
 62
7
 10
-137.7249999999995
 20
-48.175
 30
0.0
 11
0.0
 21
2.0
 31
0.0
 210
0.0
 220
0.0
 230
-1.0
 40
0.9999999999999962
 41
3.141592653589793
 42
9.42477796076938
  0
ELLIPSE
  8
0
 62
7
 10
-112.27499999999958
 20
-22.724999999999998
 30
0.0
 11
0.0
 21
2.0
 31
0.0
 210
0.0
 220
0.0
 230
-1.0
 40
0.9999999999999962
 41
3.141592653589793
 42
9.42477796076938
  0
ELLIPSE
  8
0
 62
7
 10
-112.27499999999958
 20
-48.175
 30
0.0
 11
0.0
 21
2.0
 31
0.0
 210
0.0
 220
0.0
 230
-1.0
 40
0.9999999999999962
 41
3.141592653589793
 42
9.42477796076938
  0
ELLIPSE
  8
0
 62
7
 10
-137.72499999999948
 20
-60.9
 30
0.0
 11
0.0
 21
2.0
 31
0.0
 210
0.0
 220
0.0
 230
-1.0
 40
0.9999999999999962
 41
3.141592653589793
 42
9.42477796076938
  0
ELLIPSE
  8
0
 62
7
 10
-137.72499999999948
 20
-86.35
 30
0.0
 11
0.0
 21
2.0
 31
0.0
 210
0.0
 220
0.0
 230
-1.0
 40
0.9999999999999962
 41
3.141592653589793
 42
9.42477796076938
  0
ELLIPSE
  8
0
 62
7
 10
-112.27499999999957
 20
-60.9
 30
0.0
 11
0.0
 21
2.0
 31
0.0
 210
0.0
 220
0.0
 230
-1.0
 40
0.9999999999999962
 41
3.141592653589793
 42
9.42477796076938
  0
ELLIPSE
  8
0
 62
7
 10
-112.27499999999957
 20
-86.35
 30
0.0
 11
0.0
 21
2.0
 31
0.0
 210
0.0
 220
0.0
 230
-1.0
 40
0.9999999999999962
 41
3.141592653589793
 42
9.42477796076938
  0
ELLIPSE
  8
0
 62
7
 10
-137.72499999999948
 20
-73.625
 30
0.0
 11
0.0
 21
2.0
 31
0.0
 210
0.0
 220
0.0
 230
-1.0
 40
0.9999999999999962
 41
3.141592653589793
 42
9.42477796076938
  0
ELLIPSE
  8
0
 62
7
 10
-137.72499999999948
 20
-99.075
 30
0.0
 11
0.0
 21
2.0
 31
0.0
 210
0.0
 220
0.0
 230
-1.0
 40
0.9999999999999962
 41
3.141592653589793
 42
9.42477796076938
  0
ELLIPSE
  8
0
 62
7
 10
-112.27499999999957
 20
-73.625
 30
0.0
 11
0.0
 21
2.0
 31
0.0
 210
0.0
 220
0.0
 230
-1.0
 40
0.9999999999999962
 41
3.141592653589793
 42
9.42477796076938
  0
ELLIPSE
  8
0
 62
7
 10
-112.27499999999957
 20
-99.075
 30
0.0
 11
0.0
 21
2.0
 31
0.0
 210
0.0
 220
0.0
 230
-1.0
 40
0.9999999999999962
 41
3.141592653589793
 42
9.42477796076938
  0
ELLIPSE
  8
0
 62
7
 10
-137.72499999999948
 20
-111.8
 30
0.0
 11
0.0
 21
2.0
 31
0.0
 210
0.0
 220
0.0
 230
-1.0
 40
0.9999999999999962
 41
3.141592653589793
 42
9.42477796076938
  0
ELLIPSE
  8
0
 62
7
 10
-137.72499999999948
 20
-137.25
 30
0.0
 11
0.0
 21
2.0
 31
0.0
 210
0.0
 220
0.0
 230
-1.0
 40
0.9999999999999962
 41
3.141592653589793
 42
9.42477796076938
  0
ELLIPSE
  8
0
 62
7
 10
-112.27499999999957
 20
-111.8
 30
0.0
 11
0.0
 21
2.0
 31
0.0
 210
0.0
 220
0.0
 230
-1.0
 40
0.9999999999999962
 41
3.141592653589793
 42
9.42477796076938
  0
ELLIPSE
  8
0
 62
7
 10
-112.27499999999957
 20
-137.25
 30
0.0
 11
0.0
 21
2.0
 31
0.0
 210
0.0
 220
0.0
 230
-1.0
 40
0.9999999999999962
 41
3.141592653589793
 42
9.42477796076938
  0
ELLIPSE
  8
0
 62
7
 10
-137.7249999999994
 20
-124.52499999999999
 30
0.0
 11
0.0
 21
2.0
 31
0.0
 210
0.0
 220
0.0
 230
-1.0
 40
0.9999999999999962
 41
3.141592653589793
 42
9.42477796076938
  0
ELLIPSE
  8
0
 62
7
 10
-112.27499999999957
 20
-124.52499999999999
 30
0.0
 11
0.0
 21
2.0
 31
0.0
 210
0.0
 220
0.0
 230
-1.0
 40
0.9999999999999962
 41
3.141592653589793
 42
9.42477796076938
  0
ELLIPSE
  8
0
 62
7
 10
-35.44999999999987
 20
-162.275
 30
0.0
 11
0.0
 21
2.0
 31
0.0
 210
0.0
 220
0.0
 230
-1.0
 40
0.9999999999999962
 41
3.141592653589793
 42
9.42477796076938
  0
ELLIPSE
  8
0
 62
7
 10
-35.44999999999987
 20
-187.725
 30
0.0
 11
0.0
 21
2.0
 31
0.0
 210
0.0
 220
0.0
 230
-1.0
 40
0.9999999999999962
 41
3.141592653589793
 42
9.42477796076938
  0
ELLIPSE
  8
0
 62
7
 10
-9.999999999999963
 20
-162.275
 30
0.0
 11
0.0
 21
2.0
 31
0.0
 210
0.0
 220
0.0
 230
-1.0
 40
0.9999999999999962
 41
3.141592653589793
 42
9.42477796076938
  0
ELLIPSE
  8
0
 62
7
 10
-9.999999999999963
 20
-187.725
 30
0.0
 11
0.0
 21
2.0
 31
0.0
 210
0.0
 220
0.0
 230
-1.0
 40
0.9999999999999962
 41
3.141592653589793
 42
9.42477796076938
  0
ELLIPSE
  8
0
 62
7
 10
-137.72499999999957
 20
-162.2749999999978
 30
0.0
 11
0.0
 21
2.0
 31
0.0
 210
0.0
 220
0.0
 230
-1.0
 40
0.9999999999999962
 41
3.141592653589793
 42
9.42477796076938
  0
ELLIPSE
  8
0
 62
7
 10
-137.72499999999957
 20
-187.72499999999783
 30
0.0
 11
0.0
 21
2.0
 31
0.0
 210
0.0
 220
0.0
 230
-1.0
 40
0.9999999999999962
 41
3.141592653589793
 42
9.42477796076938
  0
ELLIPSE
  8
0
 62
7
 10
-112.27499999999961
 20
-162.2749999999978
 30
0.0
 11
0.0
 21
2.0
 31
0.0
 210
0.0
 220
0.0
 230
-1.0
 40
0.9999999999999962
 41
3.141592653589793
 42
9.42477796076938
  0
ELLIPSE
  8
0
 62
7
 10
-112.27499999999961
 20
-187.72499999999783
 30
0.0
 11
0.0
 21
2.0
 31
0.0
 210
0.0
 220
0.0
 230
-1.0
 40
0.9999999999999962
 41
3.141592653589793
 42
9.42477796076938
  0
ELLIPSE
  8
0
 62
7
 10
-48.17499999999981
 20
-162.27499999999972
 30
0.0
 11
0.0
 21
2.0
 31
0.0
 210
0.0
 220
0.0
 230
-1.0
 40
0.9999999999999962
 41
3.141592653589793
 42
9.42477796076938
  0
ELLIPSE
  8
0
 62
7
 10
-48.17499999999981
 20
-187.7249999999997
 30
0.0
 11
0.0
 21
2.0
 31
0.0
 210
0.0
 220
0.0
 230
-1.0
 40
0.9999999999999962
 41
3.141592653589793
 42
9.42477796076938
  0
ELLIPSE
  8
0
 62
7
 10
-22.724999999999916
 20
-162.27499999999972
 30
0.0
 11
0.0
 21
2.0
 31
0.0
 210
0.0
 220
0.0
 230
-1.0
 40
0.9999999999999962
 41
3.141592653589793
 42
9.42477796076938
  0
ELLIPSE
  8
0
 62
7
 10
-22.724999999999916
 20
-187.7249999999997
 30
0.0
 11
0.0
 21
2.0
 31
0.0
 210
0.0
 220
0.0
 230
-1.0
 40
0.9999999999999962
 41
3.141592653589793
 42
9.42477796076938
  0
ELLIPSE
  8
0
 62
7
 10
-86.34999999999967
 20
-162.27499999999887
 30
0.0
 11
0.0
 21
2.0
 31
0.0
 210
0.0
 220
0.0
 230
-1.0
 40
0.9999999999999962
 41
3.141592653589793
 42
9.42477796076938
  0
ELLIPSE
  8
0
 62
7
 10
-86.34999999999967
 20
-187.7249999999989
 30
0.0
 11
0.0
 21
2.0
 31
0.0
 210
0.0
 220
0.0
 230
-1.0
 40
0.9999999999999962
 41
3.141592653589793
 42
9.42477796076938
  0
ELLIPSE
  8
0
 62
7
 10
-60.89999999999977
 20
-162.27499999999887
 30
0.0
 11
0.0
 21
2.0
 31
0.0
 210
0.0
 220
0.0
 230
-1.0
 40
0.9999999999999962
 41
3.141592653589793
 42
9.42477796076938
  0
ELLIPSE
  8
0
 62
7
 10
-60.89999999999977
 20
-187.7249999999989
 30
0.0
 11
0.0
 21
2.0
 31
0.0
 210
0.0
 220
0.0
 230
-1.0
 40
0.9999999999999962
 41
3.141592653589793
 42
9.42477796076938
  0
ELLIPSE
  8
0
 62
7
 10
-99.07499999999963
 20
-162.27499999999864
 30
0.0
 11
0.0
 21
2.0
 31
0.0
 210
0.0
 220
0.0
 230
-1.0
 40
0.9999999999999962
 41
3.141592653589793
 42
9.42477796076938
  0
ELLIPSE
  8
0
 62
7
 10
-99.07499999999963
 20
-187.72499999999863
 30
0.0
 11
0.0
 21
2.0
 31
0.0
 210
0.0
 220
0.0
 230
-1.0
 40
0.9999999999999962
 41
3.141592653589793
 42
9.42477796076938
  0
ELLIPSE
  8
0
 62
7
 10
-73.62499999999972
 20
-162.27499999999864
 30
0.0
 11
0.0
 21
2.0
 31
0.0
 210
0.0
 220
0.0
 230
-1.0
 40
0.9999999999999962
 41
3.141592653589793
 42
9.42477796076938
  0
ELLIPSE
  8
0
 62
7
 10
-73.62499999999972
 20
-187.72499999999863
 30
0.0
 11
0.0
 21
2.0
 31
0.0
 210
0.0
 220
0.0
 230
-1.0
 40
0.9999999999999962
 41
3.141592653589793
 42
9.42477796076938
  0
ELLIPSE
  8
0
 62
7
 10
-244.99999999999906
 20
-162.2749999999978
 30
0.0
 11
0.0
 21
2.0
 31
0.0
 210
0.0
 220
0.0
 230
-1.0
 40
0.9999999999999962
 41
3.141592653589793
 42
9.42477796076938
  0
ELLIPSE
  8
0
 62
7
 10
-244.99999999999906
 20
-187.72499991411587
 30
0.0
 11
0.0
 21
2.0
 31
0.0
 210
0.0
 220
0.0
 230
-1.0
 40
0.9999999999999962
 41
3.141592653589793
 42
9.42477796076938
  0
ELLIPSE
  8
0
 62
7
 10
-219.5500000858811
 20
-162.2749999999978
 30
0.0
 11
0.0
 21
2.0
 31
0.0
 210
0.0
 220
0.0
 230
-1.0
 40
0.9999999999999962
 41
3.141592653589793
 42
9.42477796076938
  0
ELLIPSE
  8
0
 62
7
 10
-219.5500000858811
 20
-187.72499991411587
 30
0.0
 11
0.0
 21
2.0
 31
0.0
 210
0.0
 220
0.0
 230
-1.0
 40
0.9999999999999962
 41
3.141592653589793
 42
9.42477796076938
  0
LINE
  8
0
 62
7
 10
-142.9749999999994
 20
-142.74999999999997
 30
0.0
 11
-142.9749999999994
 21
-207.25
 31
0.0
  0
LINE
  8
0
 62
7
 10
-142.9749999999994
 20
-207.25
 30
0.0
 11
-213.9749999999991
 21
-207.25
 31
0.0
  0
LINE
  8
0
 62
7
 10
-213.97499999999914
 20
-207.25
 30
0.0
 11
-213.97499999999914
 21
-142.74999999999997
 31
0.0
  0
LINE
  8
0
 62
7
 10
-213.97499999999914
 20
-142.74999999999997
 30
0.0
 11
-142.9749999999994
 21
-142.74999999999997
 31
0.0
  0
ELLIPSE
  8
0
 62
7
 10
-86.34999999999967
 20
-212.74999999999554
 30
0.0
 11
0.0
 21
2.0
 31
0.0
 210
0.0
 220
0.0
 230
-1.0
 40
0.9999999999999962
 41
3.141592653589793
 42
9.42477796076938
  0
ELLIPSE
  8
0
 62
7
 10
-86.34999999999967
 20
-238.19999999999553
 30
0.0
 11
0.0
 21
2.0
 31
0.0
 210
0.0
 220
0.0
 230
-1.0
 40
0.9999999999999962
 41
3.141592653589793
 42
9.42477796076938
  0
ELLIPSE
  8
0
 62
7
 10
-60.89999999999977
 20
-212.74999999999554
 30
0.0
 11
0.0
 21
2.0
 31
0.0
 210
0.0
 220
0.0
 230
-1.0
 40
0.9999999999999962
 41
3.141592653589793
 42
9.42477796076938
  0
ELLIPSE
  8
0
 62
7
 10
-60.89999999999977
 20
-238.19999999999553
 30
0.0
 11
0.0
 21
2.0
 31
0.0
 210
0.0
 220
0.0
 230
-1.0
 40
0.9999999999999962
 41
3.141592653589793
 42
9.42477796076938
  0
ELLIPSE
  8
0
 62
7
 10
-86.34999999999967
 20
-111.8
 30
0.0
 11
0.0
 21
2.0
 31
0.0
 210
0.0
 220
0.0
 230
-1.0
 40
0.9999999999999962
 41
3.141592653589793
 42
9.42477796076938
  0
ELLIPSE
  8
0
 62
7
 10
-86.34999999999967
 20
-137.25
 30
0.0
 11
0.0
 21
2.0
 31
0.0
 210
0.0
 220
0.0
 230
-1.0
 40
0.9999999999999962
 41
3.141592653589793
 42
9.42477796076938
  0
ELLIPSE
  8
0
 62
7
 10
-60.89999999999977
 20
-111.8
 30
0.0
 11
0.0
 21
2.0
 31
0.0
 210
0.0
 220
0.0
 230
-1.0
 40
0.9999999999999962
 41
3.141592653589793
 42
9.42477796076938
  0
ELLIPSE
  8
0
 62
7
 10
-60.89999999999977
 20
-137.25
 30
0.0
 11
0.0
 21
2.0
 31
0.0
 210
0.0
 220
0.0
 230
-1.0
 40
0.9999999999999962
 41
3.141592653589793
 42
9.42477796076938
  0
ELLIPSE
  8
0
 62
7
 10
-73.62499999999972
 20
-225.47499999999533
 30
0.0
 11
0.0
 21
2.0
 31
0.0
 210
0.0
 220
0.0
 230
-1.0
 40
0.9999999999999962
 41
3.141592653589793
 42
9.42477796076938
  0
ELLIPSE
  8
0
 62
7
 10
-73.62499999999972
 20
-250.92499999999532
 30
0.0
 11
0.0
 21
2.0
 31
0.0
 210
0.0
 220
0.0
 230
-1.0
 40
0.9999999999999962
 41
3.141592653589793
 42
9.42477796076938
  0
ELLIPSE
  8
0
 62
7
 10
-48.17499999999981
 20
-225.47499999999533
 30
0.0
 11
0.0
 21
2.0
 31
0.0
 210
0.0
 220
0.0
 230
-1.0
 40
0.9999999999999962
 41
3.141592653589793
 42
9.42477796076938
  0
ELLIPSE
  8
0
 62
7
 10
-48.17499999999981
 20
-250.92499999999532
 30
0.0
 11
0.0
 21
2.0
 31
0.0
 210
0.0
 220
0.0
 230
-1.0
 40
0.9999999999999962
 41
3.141592653589793
 42
9.42477796076938
  0
ELLIPSE
  8
0
 62
7
 10
-73.62499999999972
 20
-99.075
 30
0.0
 11
0.0
 21
2.0
 31
0.0
 210
0.0
 220
0.0
 230
-1.0
 40
0.9999999999999962
 41
3.141592653589793
 42
9.42477796076938
  0
ELLIPSE
  8
0
 62
7
 10
-73.62499999999972
 20
-124.52499999999999
 30
0.0
 11
0.0
 21
2.0
 31
0.0
 210
0.0
 220
0.0
 230
-1.0
 40
0.9999999999999962
 41
3.141592653589793
 42
9.42477796076938
  0
ELLIPSE
  8
0
 62
7
 10
-48.17499999999982
 20
-99.075
 30
0.0
 11
0.0
 21
2.0
 31
0.0
 210
0.0
 220
0.0
 230
-1.0
 40
0.9999999999999962
 41
3.141592653589793
 42
9.42477796076938
  0
ELLIPSE
  8
0
 62
7
 10
-48.17499999999982
 20
-124.52499999999999
 30
0.0
 11
0.0
 21
2.0
 31
0.0
 210
0.0
 220
0.0
 230
-1.0
 40
0.9999999999999962
 41
3.141592653589793
 42
9.42477796076938
  0
ELLIPSE
  8
0
 62
7
 10
-189.09999999999934
 20
-212.74999999999554
 30
0.0
 11
0.0
 21
2.0
 31
0.0
 210
0.0
 220
0.0
 230
-1.0
 40
0.9999999999999962
 41
3.141592653589793
 42
9.42477796076938
  0
ELLIPSE
  8
0
 62
7
 10
-189.09999999999934
 20
-238.19999999999558
 30
0.0
 11
0.0
 21
2.0
 31
0.0
 210
0.0
 220
0.0
 230
-1.0
 40
0.9999999999999962
 41
3.141592653589793
 42
9.42477796076938
  0
ELLIPSE
  8
0
 62
7
 10
-163.64999999999938
 20
-212.74999999999554
 30
0.0
 11
0.0
 21
2.0
 31
0.0
 210
0.0
 220
0.0
 230
-1.0
 40
0.9999999999999962
 41
3.141592653589793
 42
9.42477796076938
  0
ELLIPSE
  8
0
 62
7
 10
-163.64999999999938
 20
-238.19999999999558
 30
0.0
 11
0.0
 21
2.0
 31
0.0
 210
0.0
 220
0.0
 230
-1.0
 40
0.9999999999999962
 41
3.141592653589793
 42
9.42477796076938
  0
ELLIPSE
  8
0
 62
7
 10
-201.8249999999994
 20
-225.47499999999556
 30
0.0
 11
0.0
 21
2.0
 31
0.0
 210
0.0
 220
0.0
 230
-1.0
 40
0.9999999999999962
 41
3.141592653589793
 42
9.42477796076938
  0
ELLIPSE
  8
0
 62
7
 10
-201.8249999999994
 20
-250.92499999999563
 30
0.0
 11
0.0
 21
2.0
 31
0.0
 210
0.0
 220
0.0
 230
-1.0
 40
0.9999999999999962
 41
3.141592653589793
 42
9.42477796076938
  0
ELLIPSE
  8
0
 62
7
 10
-176.37499999999946
 20
-225.47499999999556
 30
0.0
 11
0.0
 21
2.0
 31
0.0
 210
0.0
 220
0.0
 230
-1.0
 40
0.9999999999999962
 41
3.141592653589793
 42
9.42477796076938
  0
ELLIPSE
  8
0
 62
7
 10
-176.37499999999946
 20
-250.92499999999563
 30
0.0
 11
0.0
 21
2.0
 31
0.0
 210
0.0
 220
0.0
 230
-1.0
 40
0.9999999999999962
 41
3.141592653589793
 42
9.42477796076938
  0
ELLIPSE
  8
0
 62
7
 10
-189.0999999999993
 20
-111.79999999999998
 30
0.0
 11
0.0
 21
2.0
 31
0.0
 210
0.0
 220
0.0
 230
-1.0
 40
0.9999999999999962
 41
3.141592653589793
 42
9.42477796076938
  0
ELLIPSE
  8
0
 62
7
 10
-189.0999999999993
 20
-137.25
 30
0.0
 11
0.0
 21
2.0
 31
0.0
 210
0.0
 220
0.0
 230
-1.0
 40
0.9999999999999962
 41
3.141592653589793
 42
9.42477796076938
  0
ELLIPSE
  8
0
 62
7
 10
-163.64999999999938
 20
-111.79999999999998
 30
0.0
 11
0.0
 21
2.0
 31
0.0
 210
0.0
 220
0.0
 230
-1.0
 40
0.9999999999999962
 41
3.141592653589793
 42
9.42477796076938
  0
ELLIPSE
  8
0
 62
7
 10
-163.64999999999938
 20
-137.25
 30
0.0
 11
0.0
 21
2.0
 31
0.0
 210
0.0
 220
0.0
 230
-1.0
 40
0.9999999999999962
 41
3.141592653589793
 42
9.42477796076938
  0
ELLIPSE
  8
0
 62
7
 10
-201.82499999999933
 20
-99.07499999999999
 30
0.0
 11
0.0
 21
2.0
 31
0.0
 210
0.0
 220
0.0
 230
-1.0
 40
0.9999999999999962
 41
3.141592653589793
 42
9.42477796076938
  0
ELLIPSE
  8
0
 62
7
 10
-201.82499999999933
 20
-124.52499999999999
 30
0.0
 11
0.0
 21
2.0
 31
0.0
 210
0.0
 220
0.0
 230
-1.0
 40
0.9999999999999962
 41
3.141592653589793
 42
9.42477796076938
  0
ELLIPSE
  8
0
 62
7
 10
-176.37499999999946
 20
-99.07499999999999
 30
0.0
 11
0.0
 21
2.0
 31
0.0
 210
0.0
 220
0.0
 230
-1.0
 40
0.9999999999999962
 41
3.141592653589793
 42
9.42477796076938
  0
ELLIPSE
  8
0
 62
7
 10
-176.37499999999946
 20
-124.52499999999999
 30
0.0
 11
0.0
 21
2.0
 31
0.0
 210
0.0
 220
0.0
 230
-1.0
 40
0.9999999999999962
 41
3.141592653589793
 42
9.42477796076938
  0
ELLIPSE
  8
0
 62
7
 10
-214.54999999999933
 20
-238.19999999999558
 30
0.0
 11
0.0
 21
2.0
 31
0.0
 210
0.0
 220
0.0
 230
-1.0
 40
0.9999999999999962
 41
3.141592653589793
 42
9.42477796076938
  0
ELLIPSE
  8
0
 62
7
 10
-214.54999999999933
 20
-263.64999999999566
 30
0.0
 11
0.0
 21
2.0
 31
0.0
 210
0.0
 220
0.0
 230
-1.0
 40
0.9999999999999962
 41
3.141592653589793
 42
9.42477796076938
  0
ELLIPSE
  8
0
 62
7
 10
-189.09999999999934
 20
-263.64999999999566
 30
0.0
 11
0.0
 21
2.0
 31
0.0
 210
0.0
 220
0.0
 230
-1.0
 40
0.9999999999999962
 41
3.141592653589793
 42
9.42477796076938
  0
ELLIPSE
  8
0
 62
7
 10
-60.89999999999977
 20
-263.64999999999554
 30
0.0
 11
0.0
 21
2.0
 31
0.0
 210
0.0
 220
0.0
 230
-1.0
 40
0.9999999999999962
 41
3.141592653589793
 42
9.42477796076938
  0
ELLIPSE
  8
0
 62
7
 10
-35.44999999999987
 20
-238.19999999999553
 30
0.0
 11
0.0
 21
2.0
 31
0.0
 210
0.0
 220
0.0
 230
-1.0
 40
0.9999999999999962
 41
3.141592653589793
 42
9.42477796076938
  0
ELLIPSE
  8
0
 62
7
 10
-35.44999999999987
 20
-263.64999999999554
 30
0.0
 11
0.0
 21
2.0
 31
0.0
 210
0.0
 220
0.0
 230
-1.0
 40
0.9999999999999962
 41
3.141592653589793
 42
9.42477796076938
  0
ELLIPSE
  8
0
 62
7
 10
-60.89999999999977
 20
-86.35
 30
0.0
 11
0.0
 21
2.0
 31
0.0
 210
0.0
 220
0.0
 230
-1.0
 40
0.9999999999999962
 41
3.141592653589793
 42
9.42477796076938
  0
ELLIPSE
  8
0
 62
7
 10
-35.44999999999986
 20
-86.35
 30
0.0
 11
0.0
 21
2.0
 31
0.0
 210
0.0
 220
0.0
 230
-1.0
 40
0.9999999999999962
 41
3.141592653589793
 42
9.42477796076938
  0
ELLIPSE
  8
0
 62
7
 10
-35.44999999999986
 20
-111.8
 30
0.0
 11
0.0
 21
2.0
 31
0.0
 210
0.0
 220
0.0
 230
-1.0
 40
0.9999999999999962
 41
3.141592653589793
 42
9.42477796076938
  0
ELLIPSE
  8
0
 62
7
 10
-214.54999999999922
 20
-86.34999999999998
 30
0.0
 11
0.0
 21
2.0
 31
0.0
 210
0.0
 220
0.0
 230
-1.0
 40
0.9999999999999962
 41
3.141592653589793
 42
9.42477796076938
  0
ELLIPSE
  8
0
 62
7
 10
-214.54999999999922
 20
-111.79999999999998
 30
0.0
 11
0.0
 21
2.0
 31
0.0
 210
0.0
 220
0.0
 230
-1.0
 40
0.9999999999999962
 41
3.141592653589793
 42
9.42477796076938
  0
ELLIPSE
  8
0
 62
7
 10
-189.0999999999993
 20
-86.34999999999998
 30
0.0
 11
0.0
 21
2.0
 31
0.0
 210
0.0
 220
0.0
 230
-1.0
 40
0.9999999999999962
 41
3.141592653589793
 42
9.42477796076938
  0
ENDBLK
  0
BLOCK
  8
0
  2
SKETCH072
 70
0
 10
0.0
 20
0.0
 30
0.0
  3
SKETCH072
  0
ELLIPSE
  8
0
 62
7
 10
-229.99999999999912
 20
-20.0
 30
0.0
 11
0.0
 21
2.0
 31
0.0
 210
0.0
 220
0.0
 230
-1.0
 40
0.9999999999999962
 41
3.141592653589793
 42
9.42477796076938
  0
ELLIPSE
  8
0
 62
7
 10
-229.99999999999912
 20
-330.0
 30
0.0
 11
0.0
 21
2.0
 31
0.0
 210
0.0
 220
0.0
 230
-1.0
 40
0.9999999999999962
 41
3.141592653589793
 42
9.42477796076938
  0
ELLIPSE
  8
0
 62
7
 10
-19.999999999999925
 20
-330.0
 30
0.0
 11
0.0
 21
2.0
 31
0.0
 210
0.0
 220
0.0
 230
-1.0
 40
0.9999999999999962
 41
3.141592653589793
 42
9.42477796076938
  0
ELLIPSE
  8
0
 62
7
 10
-19.999999999999925
 20
-20.0
 30
0.0
 11
0.0
 21
2.0
 31
0.0
 210
0.0
 220
0.0
 230
-1.0
 40
0.9999999999999962
 41
3.141592653589793
 42
9.42477796076938
  0
ELLIPSE
  8
0
 62
7
 10
-149.9999999999994
 20
-124.99999999999635
 30
0.0
 11
0.0
 21
2.0
 31
0.0
 210
0.0
 220
0.0
 230
-1.0
 40
0.9999999999999962
 41
3.141592653589793
 42
9.42477796076938
  0
ELLIPSE
  8
0
 62
7
 10
-149.9999999999994
 20
-224.99999999999633
 30
0.0
 11
0.0
 21
2.0
 31
0.0
 210
0.0
 220
0.0
 230
-1.0
 40
0.9999999999999962
 41
3.141592653589793
 42
9.42477796076938
  0
ELLIPSE
  8
0
 62
7
 10
-99.99999999999959
 20
-224.99999999999633
 30
0.0
 11
0.0
 21
2.0
 31
0.0
 210
0.0
 220
0.0
 230
-1.0
 40
0.9999999999999962
 41
3.141592653589793
 42
9.42477796076938
  0
ELLIPSE
  8
0
 62
7
 10
-99.99999999999959
 20
-124.99999999999635
 30
0.0
 11
0.0
 21
2.0
 31
0.0
 210
0.0
 220
0.0
 230
-1.0
 40
0.9999999999999962
 41
3.141592653589793
 42
9.42477796076938
  0
ENDBLK
  0
ENDSEC
  0
SECTION
  2
ENTITIES
  0
INSERT
  2
SKETCH071
  8
0
 62
7
 10
0.0
 20
0.0
 30
0.0
  0
INSERT
  2
SKETCH072
  8
0
 62
7
 10
0.0
 20
0.0
 30
0.0
  0
ENDSEC
  0
EOF
