  0
SECTION
  2
HEADER
  9
$ACADVER
  1
AC1009
  9
$INSBASE
 10
0.0
 20
0.0
 30
0.0
  9
$EXTMIN
 10
0.0
 20
0.0
 30
0.0
  9
$EXTMAX
 10
0.0
 20
0.0
 30
0.0
  0
ENDSEC
  0
SECTION
  2
TABLES
  0
TABLE
  2
VPORT
 70
0
  0
ENDTAB
  0
TABLE
  2
LTYPE
 70
1
  0
LTYPE
  2
CONTINUOUS
 70
0
  3
Solid line
 72
65
 73
0
 40
0.0
  0
ENDTAB
  0
TABLE
  2
LAYER
 70
1
  0
LAYER
  2
0
 70
64
 62
7
  6
continuous
  0
ENDTAB
  0
TABLE
  2
STYLE
 70
1
  0
STYLE
  2
STANDARD
 70
0
 40
0
 41
1.0
 50
0.0
 71
0
 42
1
 3
ARIAL.TTF
 4

  0
ENDTAB
  0
TABLE
  2
VIEW
 70
0
  0
ENDTAB
  0
ENDSEC
  0
SECTION
  2
BLOCKS
  0
BLOCK
  8
0
  2
SKETCH071
 70
0
 10
0.0
 20
0.0
 30
0.0
  3
SKETCH071
  0
POLYLINE
  8
0
 62
7
 70
1
 66
1
 10
0.0
 20
0.0
 30
0.0
  0
VERTEX
  8
0
 10
0.0
 20
0.0
 30
0.0
  0
VERTEX
  8
0
 10
350.0
 20
0.0
 30
0.0
  0
VERTEX
  8
0
 10
350.0
 20
250.0
 30
0.0
  0
VERTEX
  8
0
 10
0.0
 20
250.0
 30
0.0
  0
SEQEND
  8
0
  0
CIRCLE
  8
0
 62
7
 10
10.0
 20
137.725
 30
0.0
 40
2.0
  0
CIRCLE
  8
0
 62
7
 10
35.449999999999996
 20
137.725
 30
0.0
 40
2.0
  0
CIRCLE
  8
0
 62
7
 10
10.0
 20
112.275
 30
0.0
 40
2.0
  0
CIRCLE
  8
0
 62
7
 10
35.449999999999996
 20
112.275
 30
0.0
 40
2.0
  0
CIRCLE
  8
0
 62
7
 10
152.75
 20
138.975
 30
0.0
 40
2.0
  0
CIRCLE
  8
0
 62
7
 10
197.25
 20
138.975
 30
0.0
 40
2.0
  0
CIRCLE
  8
0
 62
7
 10
152.75
 20
112.275
 30
0.0
 40
2.0
  0
CIRCLE
  8
0
 62
7
 10
197.25
 20
112.275
 30
0.0
 40
2.0
  0
CIRCLE
  8
0
 62
7
 10
314.55
 20
137.725
 30
0.0
 40
2.0
  0
CIRCLE
  8
0
 62
7
 10
340.0
 20
137.725
 30
0.0
 40
2.0
  0
CIRCLE
  8
0
 62
7
 10
314.55
 20
112.275
 30
0.0
 40
2.0
  0
CIRCLE
  8
0
 62
7
 10
340.0
 20
112.275
 30
0.0
 40
2.0
  0
CIRCLE
  8
0
 62
7
 10
301.825
 20
137.72499999999974
 30
0.0
 40
2.0
  0
CIRCLE
  8
0
 62
7
 10
327.275
 20
137.72499999999974
 30
0.0
 40
2.0
  0
CIRCLE
  8
0
 62
7
 10
301.825
 20
112.27499999999975
 30
0.0
 40
2.0
  0
CIRCLE
  8
0
 62
7
 10
327.275
 20
112.27499999999975
 30
0.0
 40
2.0
  0
CIRCLE
  8
0
 62
7
 10
263.6499999999961
 20
137.72500000000002
 30
0.0
 40
2.0
  0
CIRCLE
  8
0
 62
7
 10
289.0999999999961
 20
137.72500000000002
 30
0.0
 40
2.0
  0
CIRCLE
  8
0
 62
7
 10
263.6499999999961
 20
112.27500000000002
 30
0.0
 40
2.0
  0
CIRCLE
  8
0
 62
7
 10
289.0999999999961
 20
112.27500000000002
 30
0.0
 40
2.0
  0
CIRCLE
  8
0
 62
7
 10
250.9249999999958
 20
137.725
 30
0.0
 40
2.0
  0
CIRCLE
  8
0
 62
7
 10
276.3749999999958
 20
137.725
 30
0.0
 40
2.0
  0
CIRCLE
  8
0
 62
7
 10
250.9249999999958
 20
112.27499999999999
 30
0.0
 40
2.0
  0
CIRCLE
  8
0
 62
7
 10
276.3749999999958
 20
112.27499999999999
 30
0.0
 40
2.0
  0
CIRCLE
  8
0
 62
7
 10
212.74999999999554
 20
137.725
 30
0.0
 40
2.0
  0
CIRCLE
  8
0
 62
7
 10
238.19999999999558
 20
137.725
 30
0.0
 40
2.0
  0
CIRCLE
  8
0
 62
7
 10
212.74999999999554
 20
112.27499999999996
 30
0.0
 40
2.0
  0
CIRCLE
  8
0
 62
7
 10
238.19999999999558
 20
112.27499999999996
 30
0.0
 40
2.0
  0
CIRCLE
  8
0
 62
7
 10
225.47499999999556
 20
137.72499999999997
 30
0.0
 40
2.0
  0
CIRCLE
  8
0
 62
7
 10
225.47499999999533
 20
112.27499999999996
 30
0.0
 40
2.0
  0
CIRCLE
  8
0
 62
7
 10
22.724999999999998
 20
137.72500000000002
 30
0.0
 40
2.0
  0
CIRCLE
  8
0
 62
7
 10
48.175
 20
137.72500000000002
 30
0.0
 40
2.0
  0
CIRCLE
  8
0
 62
7
 10
22.724999999999998
 20
112.275
 30
0.0
 40
2.0
  0
CIRCLE
  8
0
 62
7
 10
48.175
 20
112.275
 30
0.0
 40
2.0
  0
CIRCLE
  8
0
 62
7
 10
60.9
 20
137.725
 30
0.0
 40
2.0
  0
CIRCLE
  8
0
 62
7
 10
86.35
 20
137.725
 30
0.0
 40
2.0
  0
CIRCLE
  8
0
 62
7
 10
60.9
 20
112.27499999999999
 30
0.0
 40
2.0
  0
CIRCLE
  8
0
 62
7
 10
86.35
 20
112.27499999999999
 30
0.0
 40
2.0
  0
CIRCLE
  8
0
 62
7
 10
73.625
 20
137.725
 30
0.0
 40
2.0
  0
CIRCLE
  8
0
 62
7
 10
99.075
 20
137.725
 30
0.0
 40
2.0
  0
CIRCLE
  8
0
 62
7
 10
73.625
 20
112.27499999999999
 30
0.0
 40
2.0
  0
CIRCLE
  8
0
 62
7
 10
99.075
 20
112.27499999999999
 30
0.0
 40
2.0
  0
CIRCLE
  8
0
 62
7
 10
111.8
 20
137.725
 30
0.0
 40
2.0
  0
CIRCLE
  8
0
 62
7
 10
137.25
 20
137.725
 30
0.0
 40
2.0
  0
CIRCLE
  8
0
 62
7
 10
111.8
 20
112.27499999999999
 30
0.0
 40
2.0
  0
CIRCLE
  8
0
 62
7
 10
137.25
 20
112.27499999999999
 30
0.0
 40
2.0
  0
CIRCLE
  8
0
 62
7
 10
124.52499999999999
 20
137.7249999999999
 30
0.0
 40
2.0
  0
CIRCLE
  8
0
 62
7
 10
124.52499999999999
 20
112.27499999999999
 30
0.0
 40
2.0
  0
CIRCLE
  8
0
 62
7
 10
162.275
 20
35.45
 30
0.0
 40
2.0
  0
CIRCLE
  8
0
 62
7
 10
187.725
 20
35.45
 30
0.0
 40
2.0
  0
CIRCLE
  8
0
 62
7
 10
162.275
 20
10.0
 30
0.0
 40
2.0
  0
CIRCLE
  8
0
 62
7
 10
187.725
 20
10.0
 30
0.0
 40
2.0
  0
CIRCLE
  8
0
 62
7
 10
162.2749999999978
 20
137.72500000000008
 30
0.0
 40
2.0
  0
CIRCLE
  8
0
 62
7
 10
187.72499999999783
 20
137.72500000000008
 30
0.0
 40
2.0
  0
CIRCLE
  8
0
 62
7
 10
162.2749999999978
 20
112.27500000000003
 30
0.0
 40
2.0
  0
CIRCLE
  8
0
 62
7
 10
187.72499999999783
 20
112.27500000000003
 30
0.0
 40
2.0
  0
CIRCLE
  8
0
 62
7
 10
162.27499999999972
 20
48.175
 30
0.0
 40
2.0
  0
CIRCLE
  8
0
 62
7
 10
187.7249999999997
 20
48.175
 30
0.0
 40
2.0
  0
CIRCLE
  8
0
 62
7
 10
162.27499999999972
 20
22.725
 30
0.0
 40
2.0
  0
CIRCLE
  8
0
 62
7
 10
187.7249999999997
 20
22.725
 30
0.0
 40
2.0
  0
CIRCLE
  8
0
 62
7
 10
162.27499999999887
 20
86.35
 30
0.0
 40
2.0
  0
CIRCLE
  8
0
 62
7
 10
187.7249999999989
 20
86.35
 30
0.0
 40
2.0
  0
CIRCLE
  8
0
 62
7
 10
162.27499999999887
 20
60.9
 30
0.0
 40
2.0
  0
CIRCLE
  8
0
 62
7
 10
187.7249999999989
 20
60.9
 30
0.0
 40
2.0
  0
CIRCLE
  8
0
 62
7
 10
162.27499999999864
 20
99.075
 30
0.0
 40
2.0
  0
CIRCLE
  8
0
 62
7
 10
187.72499999999863
 20
99.075
 30
0.0
 40
2.0
  0
CIRCLE
  8
0
 62
7
 10
162.27499999999864
 20
73.625
 30
0.0
 40
2.0
  0
CIRCLE
  8
0
 62
7
 10
187.72499999999863
 20
73.625
 30
0.0
 40
2.0
  0
CIRCLE
  8
0
 62
7
 10
162.2749999999978
 20
245.0
 30
0.0
 40
2.0
  0
CIRCLE
  8
0
 62
7
 10
187.72499991411587
 20
245.0
 30
0.0
 40
2.0
  0
CIRCLE
  8
0
 62
7
 10
162.2749999999978
 20
219.55000008588192
 30
0.0
 40
2.0
  0
CIRCLE
  8
0
 62
7
 10
187.72499991411587
 20
219.55000008588192
 30
0.0
 40
2.0
  0
POLYLINE
  8
0
 62
7
 70
1
 66
1
 10
0.0
 20
0.0
 30
0.0
  0
VERTEX
  8
0
 10
142.74999999999997
 20
142.97499999999994
 30
0.0
  0
VERTEX
  8
0
 10
207.25
 20
142.97499999999994
 30
0.0
  0
VERTEX
  8
0
 10
207.25
 20
213.97499999999994
 30
0.0
  0
VERTEX
  8
0
 10
142.74999999999997
 20
213.97499999999994
 30
0.0
  0
SEQEND
  8
0
  0
CIRCLE
  8
0
 62
7
 10
212.74999999999554
 20
86.35
 30
0.0
 40
2.0
  0
CIRCLE
  8
0
 62
7
 10
238.19999999999553
 20
86.35
 30
0.0
 40
2.0
  0
CIRCLE
  8
0
 62
7
 10
212.74999999999554
 20
60.9
 30
0.0
 40
2.0
  0
CIRCLE
  8
0
 62
7
 10
238.19999999999553
 20
60.9
 30
0.0
 40
2.0
  0
CIRCLE
  8
0
 62
7
 10
111.8
 20
86.35
 30
0.0
 40
2.0
  0
CIRCLE
  8
0
 62
7
 10
137.25
 20
86.35
 30
0.0
 40
2.0
  0
CIRCLE
  8
0
 62
7
 10
111.8
 20
60.9
 30
0.0
 40
2.0
  0
CIRCLE
  8
0
 62
7
 10
137.25
 20
60.9
 30
0.0
 40
2.0
  0
CIRCLE
  8
0
 62
7
 10
225.47499999999533
 20
73.625
 30
0.0
 40
2.0
  0
CIRCLE
  8
0
 62
7
 10
250.92499999999532
 20
73.625
 30
0.0
 40
2.0
  0
CIRCLE
  8
0
 62
7
 10
225.47499999999533
 20
48.175
 30
0.0
 40
2.0
  0
CIRCLE
  8
0
 62
7
 10
250.92499999999532
 20
48.175
 30
0.0
 40
2.0
  0
CIRCLE
  8
0
 62
7
 10
99.075
 20
73.625
 30
0.0
 40
2.0
  0
CIRCLE
  8
0
 62
7
 10
124.52499999999999
 20
73.625
 30
0.0
 40
2.0
  0
CIRCLE
  8
0
 62
7
 10
99.075
 20
48.175000000000004
 30
0.0
 40
2.0
  0
CIRCLE
  8
0
 62
7
 10
124.52499999999999
 20
48.175000000000004
 30
0.0
 40
2.0
  0
CIRCLE
  8
0
 62
7
 10
212.74999999999554
 20
189.10000000000005
 30
0.0
 40
2.0
  0
CIRCLE
  8
0
 62
7
 10
238.19999999999558
 20
189.10000000000005
 30
0.0
 40
2.0
  0
CIRCLE
  8
0
 62
7
 10
212.74999999999554
 20
163.65
 30
0.0
 40
2.0
  0
CIRCLE
  8
0
 62
7
 10
238.19999999999558
 20
163.65
 30
0.0
 40
2.0
  0
CIRCLE
  8
0
 62
7
 10
225.47499999999556
 20
201.82500000000016
 30
0.0
 40
2.0
  0
CIRCLE
  8
0
 62
7
 10
250.92499999999563
 20
201.82500000000016
 30
0.0
 40
2.0
  0
CIRCLE
  8
0
 62
7
 10
225.47499999999556
 20
176.3750000000001
 30
0.0
 40
2.0
  0
CIRCLE
  8
0
 62
7
 10
250.92499999999563
 20
176.3750000000001
 30
0.0
 40
2.0
  0
CIRCLE
  8
0
 62
7
 10
111.79999999999998
 20
189.10000000000002
 30
0.0
 40
2.0
  0
CIRCLE
  8
0
 62
7
 10
137.25
 20
189.10000000000002
 30
0.0
 40
2.0
  0
CIRCLE
  8
0
 62
7
 10
111.79999999999998
 20
163.65
 30
0.0
 40
2.0
  0
CIRCLE
  8
0
 62
7
 10
137.25
 20
163.65
 30
0.0
 40
2.0
  0
CIRCLE
  8
0
 62
7
 10
99.07499999999999
 20
201.8250000000001
 30
0.0
 40
2.0
  0
CIRCLE
  8
0
 62
7
 10
124.52499999999999
 20
201.8250000000001
 30
0.0
 40
2.0
  0
CIRCLE
  8
0
 62
7
 10
99.07499999999999
 20
176.3750000000001
 30
0.0
 40
2.0
  0
CIRCLE
  8
0
 62
7
 10
124.52499999999999
 20
176.3750000000001
 30
0.0
 40
2.0
  0
CIRCLE
  8
0
 62
7
 10
238.19999999999558
 20
214.55000000000013
 30
0.0
 40
2.0
  0
CIRCLE
  8
0
 62
7
 10
263.64999999999566
 20
214.55000000000013
 30
0.0
 40
2.0
  0
CIRCLE
  8
0
 62
7
 10
263.64999999999566
 20
189.10000000000005
 30
0.0
 40
2.0
  0
CIRCLE
  8
0
 62
7
 10
263.64999999999554
 20
60.9
 30
0.0
 40
2.0
  0
CIRCLE
  8
0
 62
7
 10
238.19999999999553
 20
35.45
 30
0.0
 40
2.0
  0
CIRCLE
  8
0
 62
7
 10
263.64999999999554
 20
35.45
 30
0.0
 40
2.0
  0
CIRCLE
  8
0
 62
7
 10
86.35
 20
60.9
 30
0.0
 40
2.0
  0
CIRCLE
  8
0
 62
7
 10
86.35
 20
35.449999999999996
 30
0.0
 40
2.0
  0
CIRCLE
  8
0
 62
7
 10
111.8
 20
35.449999999999996
 30
0.0
 40
2.0
  0
CIRCLE
  8
0
 62
7
 10
86.34999999999998
 20
214.55
 30
0.0
 40
2.0
  0
CIRCLE
  8
0
 62
7
 10
111.79999999999998
 20
214.55
 30
0.0
 40
2.0
  0
CIRCLE
  8
0
 62
7
 10
86.34999999999998
 20
189.10000000000002
 30
0.0
 40
2.0
  0
ENDBLK
  0
BLOCK
  8
0
  2
SKETCH072
 70
0
 10
0.0
 20
0.0
 30
0.0
  3
SKETCH072
  0
CIRCLE
  8
0
 62
7
 10
20.0
 20
230.0
 30
0.0
 40
2.0
  0
CIRCLE
  8
0
 62
7
 10
330.0
 20
230.0
 30
0.0
 40
2.0
  0
CIRCLE
  8
0
 62
7
 10
330.0
 20
20.0
 30
0.0
 40
2.0
  0
CIRCLE
  8
0
 62
7
 10
20.0
 20
20.0
 30
0.0
 40
2.0
  0
CIRCLE
  8
0
 62
7
 10
124.99999999999635
 20
149.99999999999997
 30
0.0
 40
2.0
  0
CIRCLE
  8
0
 62
7
 10
224.99999999999633
 20
149.99999999999997
 30
0.0
 40
2.0
  0
CIRCLE
  8
0
 62
7
 10
224.99999999999633
 20
99.99999999999997
 30
0.0
 40
2.0
  0
CIRCLE
  8
0
 62
7
 10
124.99999999999635
 20
99.99999999999997
 30
0.0
 40
2.0
  0
ENDBLK
  0
ENDSEC
  0
SECTION
  2
ENTITIES
  0
INSERT
  2
SKETCH071
  8
0
 62
7
 10
0.0
 20
0.0
 30
0.0
  0
INSERT
  2
SKETCH072
  8
0
 62
7
 10
0.0
 20
0.0
 30
0.0
  0
ENDSEC
  0
EOF
