  0
SECTION
  2
HEADER
  9
$ACADVER
  1
AC1009
  9
$INSBASE
 10
0.0
 20
0.0
 30
0.0
  9
$EXTMIN
 10
0.0
 20
0.0
 30
0.0
  9
$EXTMAX
 10
0.0
 20
0.0
 30
0.0
  0
ENDSEC
  0
SECTION
  2
TABLES
  0
TABLE
  2
VPORT
 70
0
  0
ENDTAB
  0
TABLE
  2
LTYPE
 70
1
  0
LTYPE
  2
CONTINUOUS
 70
0
  3
Solid line
 72
65
 73
0
 40
0.0
  0
ENDTAB
  0
TABLE
  2
LAYER
 70
1
  0
LAYER
  2
0
 70
64
 62
7
  6
continuous
  0
ENDTAB
  0
TABLE
  2
STYLE
 70
1
  0
STYLE
  2
STANDARD
 70
0
 40
0
 41
1.0
 50
0.0
 71
0
 42
1
 3
ARIAL.TTF
 4

  0
ENDTAB
  0
TABLE
  2
VIEW
 70
0
  0
ENDTAB
  0
ENDSEC
  0
SECTION
  2
BLOCKS
  0
BLOCK
  8
0
  2
SKETCH
 70
0
 10
0.0
 20
0.0
 30
0.0
  3
SKETCH
  0
POLYLINE
  8
0
 62
7
 70
1
 66
1
 10
0.0
 20
0.0
 30
0.0
  0
VERTEX
  8
0
 10
0.0
 20
1.1604660152521105e-30
 30
0.0
  0
VERTEX
  8
0
 10
150.9
 20
1.1604660152521105e-30
 30
0.0
  0
VERTEX
  8
0
 10
150.9
 20
105.99999999999997
 30
0.0
  0
VERTEX
  8
0
 10
107.9
 20
105.99999999999997
 30
0.0
  0
VERTEX
  8
0
 10
107.9
 20
100.99999999999997
 30
0.0
  0
VERTEX
  8
0
 10
43.0
 20
100.99999999999997
 30
0.0
  0
VERTEX
  8
0
 10
43.0
 20
106.0
 30
0.0
  0
VERTEX
  8
0
 10
0.0
 20
106.0
 30
0.0
  0
SEQEND
  8
0
  0
CIRCLE
  8
0
 62
7
 10
10.0
 20
35.449999999999996
 30
0.0
 40
2.0
  0
CIRCLE
  8
0
 62
7
 10
35.449999999999996
 20
35.449999999999996
 30
0.0
 40
2.0
  0
CIRCLE
  8
0
 62
7
 10
35.449999999999996
 20
10.0
 30
0.0
 40
2.0
  0
CIRCLE
  8
0
 62
7
 10
10.0
 20
10.0
 30
0.0
 40
2.0
  0
CIRCLE
  8
0
 62
7
 10
115.45
 20
35.449999999999996
 30
0.0
 40
2.0
  0
CIRCLE
  8
0
 62
7
 10
140.9
 20
35.449999999999996
 30
0.0
 40
2.0
  0
CIRCLE
  8
0
 62
7
 10
140.9
 20
10.0
 30
0.0
 40
2.0
  0
CIRCLE
  8
0
 62
7
 10
115.45
 20
10.0
 30
0.0
 40
2.0
  0
CIRCLE
  8
0
 62
7
 10
62.72500000000001
 20
96.52499999999999
 30
0.0
 40
2.0
  0
CIRCLE
  8
0
 62
7
 10
88.17500000000001
 20
96.52499999999999
 30
0.0
 40
2.0
  0
CIRCLE
  8
0
 62
7
 10
88.17500000000001
 20
71.07499999999999
 30
0.0
 40
2.0
  0
CIRCLE
  8
0
 62
7
 10
62.72500000000001
 20
71.07499999999999
 30
0.0
 40
2.0
  0
CIRCLE
  8
0
 62
7
 10
53.199999999999996
 20
97.14999999999999
 30
0.0
 40
2.0
  0
CIRCLE
  8
0
 62
7
 10
97.7
 20
97.14999999999999
 30
0.0
 40
2.0
  0
CIRCLE
  8
0
 62
7
 10
97.7
 20
70.45
 30
0.0
 40
2.0
  0
CIRCLE
  8
0
 62
7
 10
53.199999999999996
 20
70.45
 30
0.0
 40
2.0
  0
CIRCLE
  8
0
 62
7
 10
75.45
 20
10.0
 30
0.0
 40
2.0
  0
CIRCLE
  8
0
 62
7
 10
140.9
 20
95.99999999999997
 30
0.0
 40
2.0
  0
CIRCLE
  8
0
 62
7
 10
10.0
 20
96.0
 30
0.0
 40
2.0
  0
CIRCLE
  8
0
 62
7
 10
75.45
 20
40.0
 30
0.0
 40
2.0
  0
CIRCLE
  8
0
 62
7
 10
10.0
 20
49.99999999999999
 30
0.0
 40
2.0
  0
CIRCLE
  8
0
 62
7
 10
140.9
 20
50.0
 30
0.0
 40
2.0
  0
ENDBLK
  0
ENDSEC
  0
SECTION
  2
ENTITIES
  0
INSERT
  2
SKETCH
  8
0
 62
7
 10
0.0
 20
0.0
 30
0.0
  0
ENDSEC
  0
EOF
