<?xml version="1.0" standalone="no"?>
 <!DOCTYPE svg PUBLIC "-//W3C//DTD SVG 1.1//EN" 
 "http://www.w3.org/Graphics/SVG/1.1/DTD/svg11.dtd"> 
<svg
  xmlns:svg="http://www.w3.org/2000/svg"
  xmlns="http://www.w3.org/2000/svg"
  xmlns:xlink="http://www.w3.org/1999/xlink"
  version="1.1"
  width="29.700220cm" height="21.000720cm" viewBox="0 0 116930 82680">
<title>SVG Picture created as VL53L3CX_RIGHT-VL53L3CX right.svg date 2022/02/21 15:02:56 </title>
  <desc>Picture generated by Eeschema-SVG </desc>
<g style="fill:#000000; fill-opacity:1;stroke:#000000; stroke-opacity:1;
stroke-linecap:round; stroke-linejoin:round;"
 transform="translate(0 0) scale(1 1)">
</g>
<g style="fill:#000000; fill-opacity:0.0; 
stroke:#000000; stroke-width:0; stroke-opacity:1; 
stroke-linecap:round; stroke-linejoin:round;">
<g >
</g>
<g style="fill:#000000; fill-opacity:0.0; 
stroke:#000000; stroke-width:50; stroke-opacity:1; 
stroke-linecap:round; stroke-linejoin:round;">
<path style="fill:#000000; fill-opacity:0.0; 
stroke:#000000; stroke-width:50; stroke-opacity:1; 
stroke-linecap:round; stroke-linejoin:round;fill:none"
d="M 41500,35000
41500,44000
" /> 
<path style="fill:#000000; fill-opacity:0.0; 
stroke:#000000; stroke-width:50; stroke-opacity:1; 
stroke-linecap:round; stroke-linejoin:round;fill:none"
d="M 41500,44000
55500,44000
" /> 
<path style="fill:#000000; fill-opacity:0.0; 
stroke:#000000; stroke-width:50; stroke-opacity:1; 
stroke-linecap:round; stroke-linejoin:round;fill:none"
d="M 55500,44000
55500,35000
" /> 
<path style="fill:#000000; fill-opacity:0.0; 
stroke:#000000; stroke-width:50; stroke-opacity:1; 
stroke-linecap:round; stroke-linejoin:round;fill:none"
d="M 55500,35000
41500,35000
" /> 
</g>
<g style="fill:#000000; fill-opacity:0.0; 
stroke:#000000; stroke-width:60; stroke-opacity:1; 
stroke-linecap:round; stroke-linejoin:round;">
<path d="M41500 37000
L38500 37000
" />
<text x="41600" y="37290"
textLength="4920" font-size="780" lengthAdjust="spacingAndGlyphs"
text-anchor="start" opacity="0">AVDDVCSEL</text>
<path d="M41740 37090
L42020 37090
" />
<path d="M41680 37260
L41880 36670
L42070 37260
" />
<path d="M42190 36670
L42380 37260
L42580 36670
" />
<path d="M42780 37260
L42780 36670
L42920 36670
L43000 36700
L43060 36760
L43090 36810
L43110 36920
L43110 37010
L43090 37120
L43060 37180
L43000 37230
L42920 37260
L42780 37260
" />
<path d="M43370 37260
L43370 36670
L43510 36670
L43590 36700
L43650 36760
L43680 36810
L43700 36920
L43700 37010
L43680 37120
L43650 37180
L43590 37230
L43510 37260
L43370 37260
" />
<path d="M43870 36670
L44070 37260
L44270 36670
" />
<path d="M44800 37210
L44770 37230
L44690 37260
L44630 37260
L44550 37230
L44490 37180
L44460 37120
L44430 37010
L44430 36920
L44460 36810
L44490 36760
L44550 36700
L44630 36670
L44690 36670
L44770 36700
L44800 36730
" />
<path d="M45020 37230
L45110 37260
L45250 37260
L45310 37230
L45330 37210
L45360 37150
L45360 37090
L45330 37040
L45310 37010
L45250 36980
L45140 36950
L45080 36920
L45050 36900
L45020 36840
L45020 36780
L45050 36730
L45080 36700
L45140 36670
L45280 36670
L45360 36700
" />
<path d="M45610 36950
L45810 36950
" />
<path d="M45900 37260
L45610 37260
L45610 36670
L45900 36670
" />
<path d="M46430 37260
L46150 37260
L46150 36670
" />
<text x="40000" y="36900"
textLength="620" font-size="780" lengthAdjust="spacingAndGlyphs"
text-anchor="middle" opacity="0">1</text>
<path d="M40160 36870
L39830 36870
" />
<path d="M40000 36870
L40000 36280
L39940 36360
L39880 36420
L39830 36450
" />
<path d="M41500 38000
L38500 38000
" />
<text x="41600" y="38290"
textLength="4860" font-size="780" lengthAdjust="spacingAndGlyphs"
text-anchor="start" opacity="0">AVSSVCSEL</text>
<path d="M41740 38090
L42020 38090
" />
<path d="M41680 38260
L41880 37670
L42070 38260
" />
<path d="M42190 37670
L42380 38260
L42580 37670
" />
<path d="M42750 38230
L42830 38260
L42970 38260
L43030 38230
L43060 38210
L43090 38150
L43090 38090
L43060 38040
L43030 38010
L42970 37980
L42860 37950
L42810 37920
L42780 37900
L42750 37840
L42750 37780
L42780 37730
L42810 37700
L42860 37670
L43000 37670
L43090 37700
" />
<path d="M43310 38230
L43400 38260
L43540 38260
L43590 38230
L43620 38210
L43650 38150
L43650 38090
L43620 38040
L43590 38010
L43540 37980
L43420 37950
L43370 37920
L43340 37900
L43310 37840
L43310 37780
L43340 37730
L43370 37700
L43420 37670
L43560 37670
L43650 37700
" />
<path d="M43820 37670
L44010 38260
L44210 37670
" />
<path d="M44740 38210
L44720 38230
L44630 38260
L44580 38260
L44490 38230
L44430 38180
L44410 38120
L44380 38010
L44380 37920
L44410 37810
L44430 37760
L44490 37700
L44580 37670
L44630 37670
L44720 37700
L44740 37730
" />
<path d="M44970 38230
L45050 38260
L45190 38260
L45250 38230
L45280 38210
L45310 38150
L45310 38090
L45280 38040
L45250 38010
L45190 37980
L45080 37950
L45020 37920
L45000 37900
L44970 37840
L44970 37780
L45000 37730
L45020 37700
L45080 37670
L45220 37670
L45310 37700
" />
<path d="M45560 37950
L45760 37950
" />
<path d="M45840 38260
L45560 38260
L45560 37670
L45840 37670
" />
<path d="M46370 38260
L46090 38260
L46090 37670
" />
<text x="40000" y="37900"
textLength="620" font-size="780" lengthAdjust="spacingAndGlyphs"
text-anchor="middle" opacity="0">2</text>
<path d="M39830 37330
L39850 37310
L39910 37280
L40050 37280
L40110 37310
L40140 37330
L40160 37390
L40160 37450
L40140 37530
L39800 37870
L40160 37870
" />
<path d="M41500 39000
L38500 39000
" />
<text x="41600" y="39290"
textLength="1860" font-size="780" lengthAdjust="spacingAndGlyphs"
text-anchor="start" opacity="0">GND</text>
<path d="M42070 38700
L42020 38670
L41930 38670
L41850 38700
L41790 38760
L41770 38810
L41740 38920
L41740 39010
L41770 39120
L41790 39180
L41850 39230
L41930 39260
L41990 39260
L42070 39230
L42100 39210
L42100 39010
L41990 39010
" />
<path d="M42360 39260
L42360 38670
L42690 39260
L42690 38670
" />
<path d="M42970 39260
L42970 38670
L43110 38670
L43200 38700
L43250 38760
L43280 38810
L43310 38920
L43310 39010
L43280 39120
L43250 39180
L43200 39230
L43110 39260
L42970 39260
" />
<text x="40000" y="38900"
textLength="620" font-size="780" lengthAdjust="spacingAndGlyphs"
text-anchor="middle" opacity="0">3</text>
<path d="M39800 38280
L40160 38280
L39970 38500
L40050 38500
L40110 38530
L40140 38560
L40160 38610
L40160 38750
L40140 38810
L40110 38840
L40050 38870
L39880 38870
L39830 38840
L39800 38810
" />
<path d="M41500 40000
L38500 40000
" />
<text x="41600" y="40290"
textLength="2420" font-size="780" lengthAdjust="spacingAndGlyphs"
text-anchor="start" opacity="0">GND2</text>
<path d="M42070 39700
L42020 39670
L41930 39670
L41850 39700
L41790 39760
L41770 39810
L41740 39920
L41740 40010
L41770 40120
L41790 40180
L41850 40230
L41930 40260
L41990 40260
L42070 40230
L42100 40210
L42100 40010
L41990 40010
" />
<path d="M42360 40260
L42360 39670
L42690 40260
L42690 39670
" />
<path d="M42970 40260
L42970 39670
L43110 39670
L43200 39700
L43250 39760
L43280 39810
L43310 39920
L43310 40010
L43280 40120
L43250 40180
L43200 40230
L43110 40260
L42970 40260
" />
<path d="M43540 39730
L43560 39700
L43620 39670
L43760 39670
L43820 39700
L43840 39730
L43870 39780
L43870 39840
L43840 39920
L43510 40260
L43870 40260
" />
<text x="40000" y="39900"
textLength="620" font-size="780" lengthAdjust="spacingAndGlyphs"
text-anchor="middle" opacity="0">4</text>
<path d="M40110 39470
L40110 39870
" />
<path d="M39970 39250
L39830 39670
L40190 39670
" />
<path d="M41500 41000
L38500 41000
" />
<text x="41600" y="41290"
textLength="2870" font-size="780" lengthAdjust="spacingAndGlyphs"
text-anchor="start" opacity="0">XSHUT</text>
<path d="M41710 40670
L42100 41260
" />
<path d="M42100 40670
L41710 41260
" />
<path d="M42300 41230
L42380 41260
L42520 41260
L42580 41230
L42610 41210
L42640 41150
L42640 41090
L42610 41040
L42580 41010
L42520 40980
L42410 40950
L42360 40920
L42330 40900
L42300 40840
L42300 40780
L42330 40730
L42360 40700
L42410 40670
L42550 40670
L42640 40700
" />
<path d="M42890 41260
L42890 40670
" />
<path d="M42890 40950
L43230 40950
" />
<path d="M43230 41260
L43230 40670
" />
<path d="M43510 40670
L43510 41150
L43540 41210
L43560 41230
L43620 41260
L43730 41260
L43790 41230
L43820 41210
L43840 41150
L43840 40670
" />
<path d="M44040 40670
L44380 40670
" />
<path d="M44210 41260
L44210 40670
" />
<text x="40000" y="40900"
textLength="620" font-size="780" lengthAdjust="spacingAndGlyphs"
text-anchor="middle" opacity="0">5</text>
<path d="M40140 40280
L39850 40280
L39830 40560
L39850 40530
L39910 40500
L40050 40500
L40110 40530
L40140 40560
L40160 40610
L40160 40750
L40140 40810
L40110 40840
L40050 40870
L39910 40870
L39850 40840
L39830 40810
" />
<path d="M41500 42000
L38500 42000
" />
<text x="41600" y="42290"
textLength="2420" font-size="780" lengthAdjust="spacingAndGlyphs"
text-anchor="start" opacity="0">GND3</text>
<path d="M42070 41700
L42020 41670
L41930 41670
L41850 41700
L41790 41760
L41770 41810
L41740 41920
L41740 42010
L41770 42120
L41790 42180
L41850 42230
L41930 42260
L41990 42260
L42070 42230
L42100 42210
L42100 42010
L41990 42010
" />
<path d="M42360 42260
L42360 41670
L42690 42260
L42690 41670
" />
<path d="M42970 42260
L42970 41670
L43110 41670
L43200 41700
L43250 41760
L43280 41810
L43310 41920
L43310 42010
L43280 42120
L43250 42180
L43200 42230
L43110 42260
L42970 42260
" />
<path d="M43510 41670
L43870 41670
L43680 41900
L43760 41900
L43820 41920
L43840 41950
L43870 42010
L43870 42150
L43840 42210
L43820 42230
L43760 42260
L43590 42260
L43540 42230
L43510 42210
" />
<text x="40000" y="41900"
textLength="620" font-size="780" lengthAdjust="spacingAndGlyphs"
text-anchor="middle" opacity="0">6</text>
<path d="M40110 41280
L40000 41280
L39940 41310
L39910 41330
L39850 41420
L39830 41530
L39830 41750
L39850 41810
L39880 41840
L39940 41870
L40050 41870
L40110 41840
L40140 41810
L40160 41750
L40160 41610
L40140 41560
L40110 41530
L40050 41500
L39940 41500
L39880 41530
L39850 41560
L39830 41610
" />
<path d="M55500 42000
L58500 42000
" />
<text x="55400" y="42290"
textLength="2700" font-size="780" lengthAdjust="spacingAndGlyphs"
text-anchor="end" opacity="0">GPIO1</text>
<path d="M53170 41700
L53120 41670
L53030 41670
L52950 41700
L52890 41760
L52860 41810
L52840 41920
L52840 42010
L52860 42120
L52890 42180
L52950 42230
L53030 42260
L53090 42260
L53170 42230
L53200 42210
L53200 42010
L53090 42010
" />
<path d="M53450 42260
L53450 41670
L53680 41670
L53740 41700
L53760 41730
L53790 41780
L53790 41870
L53760 41920
L53740 41950
L53680 41980
L53450 41980
" />
<path d="M54040 42260
L54040 41670
" />
<path d="M54440 41670
L54550 41670
L54610 41700
L54660 41760
L54690 41870
L54690 42070
L54660 42180
L54610 42230
L54550 42260
L54440 42260
L54380 42230
L54330 42180
L54300 42070
L54300 41870
L54330 41760
L54380 41700
L54440 41670
" />
<path d="M55250 42260
L54920 42260
" />
<path d="M55080 42260
L55080 41670
L55030 41760
L54970 41810
L54920 41840
" />
<text x="57000" y="41900"
textLength="620" font-size="780" lengthAdjust="spacingAndGlyphs"
text-anchor="middle" opacity="0">7</text>
<path d="M56800 41280
L57190 41280
L56940 41870
" />
<path d="M55500 41000
L58500 41000
" />
<path d="M58350 40850
L58650 41150
" />
<path d="M58650 40850
L58350 41150
" />
<text x="55400" y="41290"
textLength="1860" font-size="780" lengthAdjust="spacingAndGlyphs"
text-anchor="end" opacity="0">DNC</text>
<path d="M53710 41260
L53710 40670
L53850 40670
L53930 40700
L53990 40760
L54020 40810
L54040 40920
L54040 41010
L54020 41120
L53990 41180
L53930 41230
L53850 41260
L53710 41260
" />
<path d="M54300 41260
L54300 40670
L54630 41260
L54630 40670
" />
<path d="M55250 41210
L55220 41230
L55140 41260
L55080 41260
L55000 41230
L54940 41180
L54920 41120
L54890 41010
L54890 40920
L54920 40810
L54940 40760
L55000 40700
L55080 40670
L55140 40670
L55220 40700
L55250 40730
" />
<text x="57000" y="40900"
textLength="620" font-size="780" lengthAdjust="spacingAndGlyphs"
text-anchor="middle" opacity="0">8</text>
<path d="M56940 40530
L56880 40500
L56850 40470
L56830 40420
L56830 40390
L56850 40330
L56880 40310
L56940 40280
L57050 40280
L57110 40310
L57140 40330
L57160 40390
L57160 40420
L57140 40470
L57110 40500
L57050 40530
L56940 40530
L56880 40560
L56850 40590
L56830 40640
L56830 40750
L56850 40810
L56880 40840
L56940 40870
L57050 40870
L57110 40840
L57140 40810
L57160 40750
L57160 40640
L57140 40590
L57110 40560
L57050 40530
" />
<path d="M55500 40000
L58500 40000
" />
<text x="55400" y="40290"
textLength="1720" font-size="780" lengthAdjust="spacingAndGlyphs"
text-anchor="end" opacity="0">SDA</text>
<path d="M53820 40230
L53900 40260
L54040 40260
L54100 40230
L54130 40210
L54160 40150
L54160 40090
L54130 40040
L54100 40010
L54040 39980
L53930 39950
L53880 39920
L53850 39900
L53820 39840
L53820 39780
L53850 39730
L53880 39700
L53930 39670
L54070 39670
L54160 39700
" />
<path d="M54410 40260
L54410 39670
L54550 39670
L54630 39700
L54690 39760
L54720 39810
L54750 39920
L54750 40010
L54720 40120
L54690 40180
L54630 40230
L54550 40260
L54410 40260
" />
<path d="M54970 40090
L55250 40090
" />
<path d="M54920 40260
L55110 39670
L55310 40260
" />
<text x="57000" y="39900"
textLength="620" font-size="780" lengthAdjust="spacingAndGlyphs"
text-anchor="middle" opacity="0">9</text>
<path d="M56880 39870
L57000 39870
L57050 39840
L57080 39810
L57140 39730
L57160 39610
L57160 39390
L57140 39330
L57110 39310
L57050 39280
L56940 39280
L56880 39310
L56850 39330
L56830 39390
L56830 39530
L56850 39590
L56880 39610
L56940 39640
L57050 39640
L57110 39610
L57140 39590
L57160 39530
" />
<path d="M55500 39000
L58500 39000
" />
<text x="55400" y="39290"
textLength="1690" font-size="780" lengthAdjust="spacingAndGlyphs"
text-anchor="end" opacity="0">SCL</text>
<path d="M53850 39230
L53930 39260
L54070 39260
L54130 39230
L54160 39210
L54190 39150
L54190 39090
L54160 39040
L54130 39010
L54070 38980
L53960 38950
L53900 38920
L53880 38900
L53850 38840
L53850 38780
L53880 38730
L53900 38700
L53960 38670
L54100 38670
L54190 38700
" />
<path d="M54780 39210
L54750 39230
L54660 39260
L54610 39260
L54520 39230
L54470 39180
L54440 39120
L54410 39010
L54410 38920
L54440 38810
L54470 38760
L54520 38700
L54610 38670
L54660 38670
L54750 38700
L54780 38730
" />
<path d="M55310 39260
L55030 39260
L55030 38670
" />
<text x="57000" y="38900"
textLength="1180" font-size="780" lengthAdjust="spacingAndGlyphs"
text-anchor="middle" opacity="0">10</text>
<path d="M56880 38870
L56550 38870
" />
<path d="M56710 38870
L56710 38280
L56660 38360
L56600 38420
L56550 38450
" />
<path d="M57250 38280
L57300 38280
L57360 38310
L57390 38330
L57420 38390
L57440 38500
L57440 38640
L57420 38750
L57390 38810
L57360 38840
L57300 38870
L57250 38870
L57190 38840
L57160 38810
L57140 38750
L57110 38640
L57110 38500
L57140 38390
L57160 38330
L57190 38310
L57250 38280
" />
<path d="M55500 38000
L58500 38000
" />
<text x="55400" y="38290"
textLength="2250" font-size="780" lengthAdjust="spacingAndGlyphs"
text-anchor="end" opacity="0">AVDD</text>
<path d="M53290 38090
L53570 38090
" />
<path d="M53230 38260
L53430 37670
L53620 38260
" />
<path d="M53740 37670
L53930 38260
L54130 37670
" />
<path d="M54330 38260
L54330 37670
L54470 37670
L54550 37700
L54610 37760
L54630 37810
L54660 37920
L54660 38010
L54630 38120
L54610 38180
L54550 38230
L54470 38260
L54330 38260
" />
<path d="M54920 38260
L54920 37670
L55060 37670
L55140 37700
L55200 37760
L55220 37810
L55250 37920
L55250 38010
L55220 38120
L55200 38180
L55140 38230
L55060 38260
L54920 38260
" />
<text x="57000" y="37900"
textLength="1180" font-size="780" lengthAdjust="spacingAndGlyphs"
text-anchor="middle" opacity="0">11</text>
<path d="M56880 37870
L56550 37870
" />
<path d="M56710 37870
L56710 37280
L56660 37360
L56600 37420
L56550 37450
" />
<path d="M57440 37870
L57110 37870
" />
<path d="M57280 37870
L57280 37280
L57220 37360
L57160 37420
L57110 37450
" />
<path d="M55500 37000
L58500 37000
" />
<text x="55400" y="37290"
textLength="2420" font-size="780" lengthAdjust="spacingAndGlyphs"
text-anchor="end" opacity="0">GND4</text>
<path d="M53450 36700
L53400 36670
L53310 36670
L53230 36700
L53170 36760
L53150 36810
L53120 36920
L53120 37010
L53150 37120
L53170 37180
L53230 37230
L53310 37260
L53370 37260
L53450 37230
L53480 37210
L53480 37010
L53370 37010
" />
<path d="M53740 37260
L53740 36670
L54070 37260
L54070 36670
" />
<path d="M54350 37260
L54350 36670
L54490 36670
L54580 36700
L54630 36760
L54660 36810
L54690 36920
L54690 37010
L54660 37120
L54630 37180
L54580 37230
L54490 37260
L54350 37260
" />
<path d="M55200 36870
L55200 37260
" />
<path d="M55060 36640
L54920 37070
L55280 37070
" />
<text x="57000" y="36900"
textLength="1180" font-size="780" lengthAdjust="spacingAndGlyphs"
text-anchor="middle" opacity="0">12</text>
<path d="M56880 36870
L56550 36870
" />
<path d="M56710 36870
L56710 36280
L56660 36360
L56600 36420
L56550 36450
" />
<path d="M57110 36330
L57140 36310
L57190 36280
L57330 36280
L57390 36310
L57420 36330
L57440 36390
L57440 36450
L57420 36530
L57080 36870
L57440 36870
" />
<text x="48500" y="33460"
textLength="1260" font-size="800" lengthAdjust="spacingAndGlyphs"
text-anchor="middle" opacity="0">U4</text>
<path d="M48040 32830
L48040 33310
L48070 33370
L48100 33400
L48150 33430
L48270 33430
L48320 33400
L48350 33370
L48380 33310
L48380 32830
" />
<path d="M48920 33030
L48920 33430
" />
<path d="M48780 32800
L48640 33230
L49010 33230
" />
<text x="48500" y="34520"
textLength="9770" font-size="800" lengthAdjust="spacingAndGlyphs"
text-anchor="middle" opacity="0">VL53L3CXV0DH_RIGHT</text>
<path d="M43700 33890
L43900 34490
L44100 33890
" />
<path d="M44580 34490
L44300 34490
L44300 33890
" />
<path d="M45070 33890
L44780 33890
L44750 34170
L44780 34140
L44840 34120
L44980 34120
L45040 34140
L45070 34170
L45100 34230
L45100 34370
L45070 34430
L45040 34460
L44980 34490
L44840 34490
L44780 34460
L44750 34430
" />
<path d="M45300 33890
L45670 33890
L45470 34120
L45550 34120
L45610 34140
L45640 34170
L45670 34230
L45670 34370
L45640 34430
L45610 34460
L45550 34490
L45380 34490
L45320 34460
L45300 34430
" />
<path d="M46210 34490
L45920 34490
L45920 33890
" />
<path d="M46350 33890
L46720 33890
L46520 34120
L46610 34120
L46670 34140
L46700 34170
L46720 34230
L46720 34370
L46700 34430
L46670 34460
L46610 34490
L46440 34490
L46380 34460
L46350 34430
" />
<path d="M47320 34430
L47300 34460
L47210 34490
L47150 34490
L47070 34460
L47010 34400
L46980 34340
L46950 34230
L46950 34140
L46980 34030
L47010 33970
L47070 33920
L47150 33890
L47210 33890
L47300 33920
L47320 33940
" />
<path d="M47520 33890
L47920 34490
" />
<path d="M47920 33890
L47520 34490
" />
<path d="M48070 33890
L48270 34490
L48470 33890
" />
<path d="M48780 33890
L48840 33890
L48900 33920
L48920 33940
L48950 34000
L48980 34120
L48980 34260
L48950 34370
L48920 34430
L48900 34460
L48840 34490
L48780 34490
L48720 34460
L48700 34430
L48670 34370
L48640 34260
L48640 34120
L48670 34000
L48700 33940
L48720 33920
L48780 33890
" />
<path d="M49240 34490
L49240 33890
L49380 33890
L49470 33920
L49520 33970
L49550 34030
L49580 34140
L49580 34230
L49550 34340
L49520 34400
L49470 34460
L49380 34490
L49240 34490
" />
<path d="M49840 34490
L49840 33890
" />
<path d="M49840 34170
L50180 34170
" />
<path d="M50180 34490
L50180 33890
" />
<path d="M50320 34540
L50780 34540
" />
<path d="M51270 34490
L51070 34200
" />
<path d="M50920 34490
L50920 33890
L51150 33890
L51210 33920
L51240 33940
L51270 34000
L51270 34090
L51240 34140
L51210 34170
L51150 34200
L50920 34200
" />
<path d="M51520 34490
L51520 33890
" />
<path d="M52120 33920
L52070 33890
L51980 33890
L51900 33920
L51840 33970
L51810 34030
L51780 34140
L51780 34230
L51810 34340
L51840 34400
L51900 34460
L51980 34490
L52040 34490
L52120 34460
L52150 34430
L52150 34230
L52040 34230
" />
<path d="M52410 34490
L52410 33890
" />
<path d="M52410 34170
L52750 34170
" />
<path d="M52750 34490
L52750 33890
" />
<path d="M52950 33890
L53300 33890
" />
<path d="M53120 34490
L53120 33890
" />
</g>
</g>
<g style="fill:#000000; fill-opacity:0.0; 
stroke:#000000; stroke-width:0; stroke-opacity:1; 
stroke-linecap:round; stroke-linejoin:round;">
<g >
</g>
<g style="fill:#000000; fill-opacity:0.0; 
stroke:#000000; stroke-width:100; stroke-opacity:1; 
stroke-linecap:round; stroke-linejoin:round;">
<rect x="79000" y="35600" width="2000" height="800" rx="0" />
</g>
<g style="fill:#000000; fill-opacity:0.0; 
stroke:#000000; stroke-width:60; stroke-opacity:1; 
stroke-linecap:round; stroke-linejoin:round;">
<path d="M81000 36000
L81500 36000
" />
<path d="M79000 36000
L78500 36000
" />
<text x="80000" y="34200"
textLength="1510" font-size="660" lengthAdjust="spacingAndGlyphs"
text-anchor="middle" opacity="0">R12</text>
<path d="M79670 34170
L79510 33930
" />
<path d="M79390 34170
L79390 33670
L79580 33670
L79630 33700
L79650 33720
L79670 33770
L79670 33840
L79650 33890
L79630 33910
L79580 33930
L79390 33930
" />
<path d="M80150 34170
L79860 34170
" />
<path d="M80010 34170
L80010 33670
L79960 33740
L79910 33790
L79860 33810
" />
<path d="M80340 33720
L80360 33700
L80410 33670
L80530 33670
L80580 33700
L80600 33720
L80630 33770
L80630 33810
L80600 33890
L80320 34170
L80630 34170
" />
<text x="80000" y="35110"
textLength="1420" font-size="660" lengthAdjust="spacingAndGlyphs"
text-anchor="middle" opacity="0">10k</text>
<path d="M79700 35080
L79410 35080
" />
<path d="M79550 35080
L79550 34580
L79510 34650
L79460 34700
L79410 34720
" />
<path d="M80010 34580
L80050 34580
L80100 34610
L80130 34630
L80150 34680
L80170 34770
L80170 34890
L80150 34990
L80130 35030
L80100 35060
L80050 35080
L80010 35080
L79960 35060
L79940 35030
L79910 34990
L79890 34890
L79890 34770
L79910 34680
L79940 34630
L79960 34610
L80010 34580
" />
<path d="M80390 35080
L80390 34580
" />
<path d="M80440 34890
L80580 35080
" />
<path d="M80580 34750
L80390 34940
" />
</g>
</g>
<g style="fill:#000000; fill-opacity:0.0; 
stroke:#000000; stroke-width:0; stroke-opacity:1; 
stroke-linecap:round; stroke-linejoin:round;">
<g >
</g>
<g style="fill:#000000; fill-opacity:0.0; 
stroke:#000000; stroke-width:100; stroke-opacity:1; 
stroke-linecap:round; stroke-linejoin:round;">
<rect x="79000" y="38600" width="2000" height="800" rx="0" />
</g>
<g style="fill:#000000; fill-opacity:0.0; 
stroke:#000000; stroke-width:60; stroke-opacity:1; 
stroke-linecap:round; stroke-linejoin:round;">
<path d="M81000 39000
L81500 39000
" />
<path d="M79000 39000
L78500 39000
" />
<text x="80000" y="37200"
textLength="1510" font-size="660" lengthAdjust="spacingAndGlyphs"
text-anchor="middle" opacity="0">R13</text>
<path d="M79670 37170
L79510 36930
" />
<path d="M79390 37170
L79390 36670
L79580 36670
L79630 36700
L79650 36720
L79670 36770
L79670 36840
L79650 36890
L79630 36910
L79580 36930
L79390 36930
" />
<path d="M80150 37170
L79860 37170
" />
<path d="M80010 37170
L80010 36670
L79960 36740
L79910 36790
L79860 36810
" />
<path d="M80320 36670
L80630 36670
L80460 36860
L80530 36860
L80580 36890
L80600 36910
L80630 36960
L80630 37080
L80600 37120
L80580 37150
L80530 37170
L80390 37170
L80340 37150
L80320 37120
" />
<text x="80000" y="38110"
textLength="1420" font-size="660" lengthAdjust="spacingAndGlyphs"
text-anchor="middle" opacity="0">10k</text>
<path d="M79700 38080
L79410 38080
" />
<path d="M79550 38080
L79550 37580
L79510 37650
L79460 37700
L79410 37720
" />
<path d="M80010 37580
L80050 37580
L80100 37610
L80130 37630
L80150 37680
L80170 37770
L80170 37890
L80150 37990
L80130 38030
L80100 38060
L80050 38080
L80010 38080
L79960 38060
L79940 38030
L79910 37990
L79890 37890
L79890 37770
L79910 37680
L79940 37630
L79960 37610
L80010 37580
" />
<path d="M80390 38080
L80390 37580
" />
<path d="M80440 37890
L80580 38080
" />
<path d="M80580 37750
L80390 37940
" />
</g>
</g>
<g style="fill:#000000; fill-opacity:0.0; 
stroke:#000000; stroke-width:0; stroke-opacity:1; 
stroke-linecap:round; stroke-linejoin:round;">
<g >
</g>
<g style="fill:#000000; fill-opacity:0.0; 
stroke:#000000; stroke-width:60; stroke-opacity:1; 
stroke-linecap:round; stroke-linejoin:round;">
<path style="fill:#000000; fill-opacity:0.0; 
stroke:#000000; stroke-width:60; stroke-opacity:1; 
stroke-linecap:round; stroke-linejoin:round;fill:none"
d="M 70000,40500
70000,41000
70500,41000
70000,41500
69500,41000
70000,41000
" /> 
<text x="70050" y="42500"
textLength="1580" font-size="660" lengthAdjust="spacingAndGlyphs"
text-anchor="middle" opacity="0">GND</text>
<path d="M69660 42000
L69620 41970
L69550 41970
L69470 42000
L69430 42040
L69400 42090
L69380 42190
L69380 42260
L69400 42350
L69430 42400
L69470 42450
L69550 42470
L69590 42470
L69660 42450
L69690 42420
L69690 42260
L69590 42260
" />
<path d="M69900 42470
L69900 41970
L70190 42470
L70190 41970
" />
<path d="M70430 42470
L70430 41970
L70550 41970
L70620 42000
L70660 42040
L70690 42090
L70710 42190
L70710 42260
L70690 42350
L70660 42400
L70620 42450
L70550 42470
L70430 42470
" />
</g>
</g>
<g style="fill:#000000; fill-opacity:0.0; 
stroke:#000000; stroke-width:0; stroke-opacity:1; 
stroke-linecap:round; stroke-linejoin:round;">
<g >
</g>
<g style="fill:#000000; fill-opacity:0.0; 
stroke:#000000; stroke-width:60; stroke-opacity:1; 
stroke-linecap:round; stroke-linejoin:round;">
<path style="fill:#000000; fill-opacity:0.0; 
stroke:#000000; stroke-width:60; stroke-opacity:1; 
stroke-linecap:round; stroke-linejoin:round;fill:none"
d="M 65500,40500
65500,41000
66000,41000
65500,41500
65000,41000
65500,41000
" /> 
<text x="65550" y="42500"
textLength="1580" font-size="660" lengthAdjust="spacingAndGlyphs"
text-anchor="middle" opacity="0">GND</text>
<path d="M65160 42000
L65120 41970
L65050 41970
L64970 42000
L64930 42040
L64900 42090
L64880 42190
L64880 42260
L64900 42350
L64930 42400
L64970 42450
L65050 42470
L65090 42470
L65160 42450
L65190 42420
L65190 42260
L65090 42260
" />
<path d="M65400 42470
L65400 41970
L65690 42470
L65690 41970
" />
<path d="M65930 42470
L65930 41970
L66050 41970
L66120 42000
L66160 42040
L66190 42090
L66210 42190
L66210 42260
L66190 42350
L66160 42400
L66120 42450
L66050 42470
L65930 42470
" />
</g>
</g>
<g style="fill:#000000; fill-opacity:0.0; 
stroke:#000000; stroke-width:0; stroke-opacity:1; 
stroke-linecap:round; stroke-linejoin:round;">
<g >
</g>
<g style="fill:#000000; fill-opacity:0.0; 
stroke:#000000; stroke-width:60; stroke-opacity:1; 
stroke-linecap:round; stroke-linejoin:round;">
<path style="fill:#000000; fill-opacity:0.0; 
stroke:#000000; stroke-width:60; stroke-opacity:1; 
stroke-linecap:round; stroke-linejoin:round;fill:none"
d="M 69700,36000
70000,35500
" /> 
<path style="fill:#000000; fill-opacity:0.0; 
stroke:#000000; stroke-width:60; stroke-opacity:1; 
stroke-linecap:round; stroke-linejoin:round;fill:none"
d="M 70000,36500
70000,35500
" /> 
<path style="fill:#000000; fill-opacity:0.0; 
stroke:#000000; stroke-width:60; stroke-opacity:1; 
stroke-linecap:round; stroke-linejoin:round;fill:none"
d="M 70000,35500
70300,36000
" /> 
<text x="70150" y="35040"
textLength="2300" font-size="660" lengthAdjust="spacingAndGlyphs"
text-anchor="middle" opacity="0">+3.3V</text>
<path d="M69150 34820
L69530 34820
" />
<path d="M69340 35010
L69340 34630
" />
<path d="M69720 34510
L70030 34510
L69860 34700
L69930 34700
L69980 34730
L70000 34750
L70030 34800
L70030 34920
L70000 34960
L69980 34990
L69930 35010
L69790 35010
L69740 34990
L69720 34960
" />
<path d="M70240 34960
L70260 34990
L70240 35010
L70220 34990
L70240 34960
L70240 35010
" />
<path d="M70430 34510
L70740 34510
L70570 34700
L70650 34700
L70690 34730
L70720 34750
L70740 34800
L70740 34920
L70720 34960
L70690 34990
L70650 35010
L70500 35010
L70450 34990
L70430 34960
" />
<path d="M70880 34510
L71050 35010
L71220 34510
" />
</g>
</g>
<g style="fill:#000000; fill-opacity:0.0; 
stroke:#000000; stroke-width:0; stroke-opacity:1; 
stroke-linecap:round; stroke-linejoin:round;">
<g >
</g>
<g style="fill:#000000; fill-opacity:0.0; 
stroke:#000000; stroke-width:60; stroke-opacity:1; 
stroke-linecap:round; stroke-linejoin:round;">
<path style="fill:#000000; fill-opacity:0.0; 
stroke:#000000; stroke-width:60; stroke-opacity:1; 
stroke-linecap:round; stroke-linejoin:round;fill:none"
d="M 65200,36000
65500,35500
" /> 
<path style="fill:#000000; fill-opacity:0.0; 
stroke:#000000; stroke-width:60; stroke-opacity:1; 
stroke-linecap:round; stroke-linejoin:round;fill:none"
d="M 65500,36500
65500,35500
" /> 
<path style="fill:#000000; fill-opacity:0.0; 
stroke:#000000; stroke-width:60; stroke-opacity:1; 
stroke-linecap:round; stroke-linejoin:round;fill:none"
d="M 65500,35500
65800,36000
" /> 
<text x="65650" y="35040"
textLength="2300" font-size="660" lengthAdjust="spacingAndGlyphs"
text-anchor="middle" opacity="0">+3.3V</text>
<path d="M64650 34820
L65030 34820
" />
<path d="M64840 35010
L64840 34630
" />
<path d="M65220 34510
L65530 34510
L65360 34700
L65430 34700
L65480 34730
L65500 34750
L65530 34800
L65530 34920
L65500 34960
L65480 34990
L65430 35010
L65290 35010
L65240 34990
L65220 34960
" />
<path d="M65740 34960
L65760 34990
L65740 35010
L65720 34990
L65740 34960
L65740 35010
" />
<path d="M65930 34510
L66240 34510
L66070 34700
L66150 34700
L66190 34730
L66220 34750
L66240 34800
L66240 34920
L66220 34960
L66190 34990
L66150 35010
L66000 35010
L65950 34990
L65930 34960
" />
<path d="M66380 34510
L66550 35010
L66720 34510
" />
</g>
</g>
<g style="fill:#000000; fill-opacity:0.0; 
stroke:#000000; stroke-width:0; stroke-opacity:1; 
stroke-linecap:round; stroke-linejoin:round;">
<g >
</g>
<g style="fill:#000000; fill-opacity:0.0; 
stroke:#000000; stroke-width:200; stroke-opacity:1; 
stroke-linecap:round; stroke-linejoin:round;">
<path style="fill:#000000; fill-opacity:0.0; 
stroke:#000000; stroke-width:200; stroke-opacity:1; 
stroke-linecap:round; stroke-linejoin:round;fill:none"
d="M 69200,38800
70800,38800
" /> 
<path style="fill:#000000; fill-opacity:0.0; 
stroke:#000000; stroke-width:200; stroke-opacity:1; 
stroke-linecap:round; stroke-linejoin:round;fill:none"
d="M 69200,38200
70800,38200
" /> 
</g>
<g style="fill:#000000; fill-opacity:0.0; 
stroke:#000000; stroke-width:60; stroke-opacity:1; 
stroke-linecap:round; stroke-linejoin:round;">
<path d="M70000 38100
L70000 37000
" />
<path d="M70000 38900
L70000 40000
" />
<text x="71900" y="38310"
textLength="1510" font-size="660" lengthAdjust="spacingAndGlyphs"
text-anchor="middle" opacity="0">C11</text>
<path d="M71570 38230
L71550 38260
L71480 38280
L71430 38280
L71360 38260
L71310 38210
L71290 38160
L71260 38070
L71260 38000
L71290 37900
L71310 37850
L71360 37810
L71430 37780
L71480 37780
L71550 37810
L71570 37830
" />
<path d="M72050 38280
L71760 38280
" />
<path d="M71910 38280
L71910 37780
L71860 37850
L71810 37900
L71760 37920
" />
<path d="M72530 38280
L72240 38280
" />
<path d="M72380 38280
L72380 37780
L72340 37850
L72290 37900
L72240 37920
" />
<text x="72030" y="39220"
textLength="1770" font-size="660" lengthAdjust="spacingAndGlyphs"
text-anchor="middle" opacity="0">4.7µ</text>
<path d="M71500 38860
L71500 39190
" />
<path d="M71380 38670
L71260 39020
L71570 39020
" />
<path d="M71760 39140
L71790 39170
L71760 39190
L71740 39170
L71760 39140
L71760 39190
" />
<path d="M71950 38690
L72290 38690
L72070 39190
" />
<path d="M72480 38860
L72480 39360
" />
<path d="M72720 39120
L72740 39170
L72790 39190
" />
<path d="M72480 39120
L72500 39170
L72550 39190
L72640 39190
L72690 39170
L72720 39120
L72720 38860
" />
</g>
</g>
<g style="fill:#000000; fill-opacity:0.0; 
stroke:#000000; stroke-width:0; stroke-opacity:1; 
stroke-linecap:round; stroke-linejoin:round;">
<g >
</g>
<g style="fill:#000000; fill-opacity:0.0; 
stroke:#000000; stroke-width:200; stroke-opacity:1; 
stroke-linecap:round; stroke-linejoin:round;">
<path style="fill:#000000; fill-opacity:0.0; 
stroke:#000000; stroke-width:200; stroke-opacity:1; 
stroke-linecap:round; stroke-linejoin:round;fill:none"
d="M 64700,38800
66300,38800
" /> 
<path style="fill:#000000; fill-opacity:0.0; 
stroke:#000000; stroke-width:200; stroke-opacity:1; 
stroke-linecap:round; stroke-linejoin:round;fill:none"
d="M 64700,38200
66300,38200
" /> 
</g>
<g style="fill:#000000; fill-opacity:0.0; 
stroke:#000000; stroke-width:60; stroke-opacity:1; 
stroke-linecap:round; stroke-linejoin:round;">
<path d="M65500 38100
L65500 37000
" />
<path d="M65500 38900
L65500 40000
" />
<text x="67400" y="38310"
textLength="1510" font-size="660" lengthAdjust="spacingAndGlyphs"
text-anchor="middle" opacity="0">C10</text>
<path d="M67070 38230
L67050 38260
L66980 38280
L66930 38280
L66860 38260
L66810 38210
L66790 38160
L66760 38070
L66760 38000
L66790 37900
L66810 37850
L66860 37810
L66930 37780
L66980 37780
L67050 37810
L67070 37830
" />
<path d="M67550 38280
L67260 38280
" />
<path d="M67410 38280
L67410 37780
L67360 37850
L67310 37900
L67260 37920
" />
<path d="M67860 37780
L67910 37780
L67950 37810
L67980 37830
L68000 37880
L68030 37970
L68030 38090
L68000 38190
L67980 38230
L67950 38260
L67910 38280
L67860 38280
L67810 38260
L67790 38230
L67760 38190
L67740 38090
L67740 37970
L67760 37880
L67790 37830
L67810 37810
L67860 37780
" />
<text x="67620" y="39220"
textLength="1940" font-size="660" lengthAdjust="spacingAndGlyphs"
text-anchor="middle" opacity="0">100n</text>
<path d="M67060 39190
L66770 39190
" />
<path d="M66910 39190
L66910 38690
L66870 38760
L66820 38810
L66770 38830
" />
<path d="M67370 38690
L67410 38690
L67460 38720
L67480 38740
L67510 38790
L67530 38880
L67530 39000
L67510 39100
L67480 39140
L67460 39170
L67410 39190
L67370 39190
L67320 39170
L67290 39140
L67270 39100
L67250 39000
L67250 38880
L67270 38790
L67290 38740
L67320 38720
L67370 38690
" />
<path d="M67840 38690
L67890 38690
L67940 38720
L67960 38740
L67980 38790
L68010 38880
L68010 39000
L67980 39100
L67960 39140
L67940 39170
L67890 39190
L67840 39190
L67790 39170
L67770 39140
L67750 39100
L67720 39000
L67720 38880
L67750 38790
L67770 38740
L67790 38720
L67840 38690
" />
<path d="M68220 38860
L68220 39190
" />
<path d="M68220 38910
L68250 38880
L68290 38860
L68370 38860
L68410 38880
L68440 38930
L68440 39190
" />
</g>
</g>
<g style="fill:#000000; fill-opacity:0.0; 
stroke:#000000; stroke-width:0; stroke-opacity:1; 
stroke-linecap:round; stroke-linejoin:round;">
<g >
</g>
<g style="fill:#000000; fill-opacity:0.0; 
stroke:#000000; stroke-width:60; stroke-opacity:1; 
stroke-linecap:round; stroke-linejoin:round;">
<path style="fill:#000000; fill-opacity:0.0; 
stroke:#000000; stroke-width:60; stroke-opacity:1; 
stroke-linecap:round; stroke-linejoin:round;fill:none"
d="M 82500,35700
83000,36000
" /> 
<path style="fill:#000000; fill-opacity:0.0; 
stroke:#000000; stroke-width:60; stroke-opacity:1; 
stroke-linecap:round; stroke-linejoin:round;fill:none"
d="M 82000,36000
83000,36000
" /> 
<path style="fill:#000000; fill-opacity:0.0; 
stroke:#000000; stroke-width:60; stroke-opacity:1; 
stroke-linecap:round; stroke-linejoin:round;fill:none"
d="M 83000,36000
82500,36300
" /> 
<text x="84430" y="36420"
textLength="2300" font-size="660" lengthAdjust="spacingAndGlyphs"
text-anchor="middle" opacity="0">+3.3V</text>
<path d="M83430 36200
L83810 36200
" />
<path d="M83620 36390
L83620 36010
" />
<path d="M84000 35890
L84310 35890
L84140 36080
L84210 36080
L84260 36110
L84280 36130
L84310 36180
L84310 36300
L84280 36340
L84260 36370
L84210 36390
L84070 36390
L84020 36370
L84000 36340
" />
<path d="M84520 36340
L84540 36370
L84520 36390
L84500 36370
L84520 36340
L84520 36390
" />
<path d="M84710 35890
L85020 35890
L84850 36080
L84930 36080
L84970 36110
L85000 36130
L85020 36180
L85020 36300
L85000 36340
L84970 36370
L84930 36390
L84780 36390
L84730 36370
L84710 36340
" />
<path d="M85160 35890
L85330 36390
L85500 35890
" />
</g>
</g>
<g style="fill:#000000; fill-opacity:0.0; 
stroke:#000000; stroke-width:0; stroke-opacity:1; 
stroke-linecap:round; stroke-linejoin:round;">
<g >
</g>
<g style="fill:#000000; fill-opacity:0.0; 
stroke:#000000; stroke-width:60; stroke-opacity:1; 
stroke-linecap:round; stroke-linejoin:round;">
<path style="fill:#000000; fill-opacity:0.0; 
stroke:#000000; stroke-width:60; stroke-opacity:1; 
stroke-linecap:round; stroke-linejoin:round;fill:none"
d="M 82500,38700
83000,39000
" /> 
<path style="fill:#000000; fill-opacity:0.0; 
stroke:#000000; stroke-width:60; stroke-opacity:1; 
stroke-linecap:round; stroke-linejoin:round;fill:none"
d="M 82000,39000
83000,39000
" /> 
<path style="fill:#000000; fill-opacity:0.0; 
stroke:#000000; stroke-width:60; stroke-opacity:1; 
stroke-linecap:round; stroke-linejoin:round;fill:none"
d="M 83000,39000
82500,39300
" /> 
<text x="84430" y="39420"
textLength="2300" font-size="660" lengthAdjust="spacingAndGlyphs"
text-anchor="middle" opacity="0">+3.3V</text>
<path d="M83430 39200
L83810 39200
" />
<path d="M83620 39390
L83620 39010
" />
<path d="M84000 38890
L84310 38890
L84140 39080
L84210 39080
L84260 39110
L84280 39130
L84310 39180
L84310 39300
L84280 39340
L84260 39370
L84210 39390
L84070 39390
L84020 39370
L84000 39340
" />
<path d="M84520 39340
L84540 39370
L84520 39390
L84500 39370
L84520 39340
L84520 39390
" />
<path d="M84710 38890
L85020 38890
L84850 39080
L84930 39080
L84970 39110
L85000 39130
L85020 39180
L85020 39300
L85000 39340
L84970 39370
L84930 39390
L84780 39390
L84730 39370
L84710 39340
" />
<path d="M85160 38890
L85330 39390
L85500 38890
" />
</g>
</g>
<g style="fill:#000000; fill-opacity:0.0; 
stroke:#000000; stroke-width:0; stroke-opacity:1; 
stroke-linecap:round; stroke-linejoin:round;">
<g >
</g>
<g style="fill:#000000; fill-opacity:0.0; 
stroke:#000000; stroke-width:200; stroke-opacity:1; 
stroke-linecap:round; stroke-linejoin:round;">
<path style="fill:#000000; fill-opacity:0.0; 
stroke:#000000; stroke-width:200; stroke-opacity:1; 
stroke-linecap:round; stroke-linejoin:round;fill:none"
d="M 30200,38800
31800,38800
" /> 
<path style="fill:#000000; fill-opacity:0.0; 
stroke:#000000; stroke-width:200; stroke-opacity:1; 
stroke-linecap:round; stroke-linejoin:round;fill:none"
d="M 30200,38200
31800,38200
" /> 
</g>
<g style="fill:#000000; fill-opacity:0.0; 
stroke:#000000; stroke-width:60; stroke-opacity:1; 
stroke-linecap:round; stroke-linejoin:round;">
<path d="M31000 38100
L31000 37000
" />
<path d="M31000 38900
L31000 40000
" />
<text x="32670" y="38310"
textLength="1040" font-size="660" lengthAdjust="spacingAndGlyphs"
text-anchor="middle" opacity="0">C9</text>
<path d="M32580 38230
L32560 38260
L32490 38280
L32440 38280
L32370 38260
L32320 38210
L32300 38160
L32270 38070
L32270 38000
L32300 37900
L32320 37850
L32370 37810
L32440 37780
L32490 37780
L32560 37810
L32580 37830
" />
<path d="M32820 38280
L32920 38280
L32960 38260
L32990 38230
L33030 38160
L33060 38070
L33060 37880
L33030 37830
L33010 37810
L32960 37780
L32870 37780
L32820 37810
L32800 37830
L32770 37880
L32770 38000
L32800 38040
L32820 38070
L32870 38090
L32960 38090
L33010 38070
L33030 38040
L33060 38000
" />
<text x="33120" y="39220"
textLength="1940" font-size="660" lengthAdjust="spacingAndGlyphs"
text-anchor="middle" opacity="0">100n</text>
<path d="M32560 39190
L32270 39190
" />
<path d="M32410 39190
L32410 38690
L32370 38760
L32320 38810
L32270 38830
" />
<path d="M32870 38690
L32910 38690
L32960 38720
L32980 38740
L33010 38790
L33030 38880
L33030 39000
L33010 39100
L32980 39140
L32960 39170
L32910 39190
L32870 39190
L32820 39170
L32790 39140
L32770 39100
L32750 39000
L32750 38880
L32770 38790
L32790 38740
L32820 38720
L32870 38690
" />
<path d="M33340 38690
L33390 38690
L33440 38720
L33460 38740
L33480 38790
L33510 38880
L33510 39000
L33480 39100
L33460 39140
L33440 39170
L33390 39190
L33340 39190
L33290 39170
L33270 39140
L33250 39100
L33220 39000
L33220 38880
L33250 38790
L33270 38740
L33290 38720
L33340 38690
" />
<path d="M33720 38860
L33720 39190
" />
<path d="M33720 38910
L33750 38880
L33790 38860
L33860 38860
L33910 38880
L33940 38930
L33940 39190
" />
</g>
</g>
<g style="fill:#000000; fill-opacity:0.0; 
stroke:#000000; stroke-width:0; stroke-opacity:1; 
stroke-linecap:round; stroke-linejoin:round;">
<g >
</g>
<g style="fill:#000000; fill-opacity:0.0; 
stroke:#000000; stroke-width:60; stroke-opacity:1; 
stroke-linecap:round; stroke-linejoin:round;">
<path style="fill:#000000; fill-opacity:0.0; 
stroke:#000000; stroke-width:60; stroke-opacity:1; 
stroke-linecap:round; stroke-linejoin:round;fill:none"
d="M 38000,38000
37500,38000
37500,38500
37000,38000
37500,37500
37500,38000
" /> 
<text x="35930" y="38320"
textLength="1580" font-size="660" lengthAdjust="spacingAndGlyphs"
text-anchor="middle" opacity="0">GND</text>
<path d="M35540 37820
L35500 37790
L35430 37790
L35350 37820
L35310 37860
L35280 37910
L35260 38010
L35260 38080
L35280 38170
L35310 38220
L35350 38270
L35430 38290
L35470 38290
L35540 38270
L35570 38240
L35570 38080
L35470 38080
" />
<path d="M35780 38290
L35780 37790
L36070 38290
L36070 37790
" />
<path d="M36310 38290
L36310 37790
L36430 37790
L36500 37820
L36540 37860
L36570 37910
L36590 38010
L36590 38080
L36570 38170
L36540 38220
L36500 38270
L36430 38290
L36310 38290
" />
</g>
</g>
<g style="fill:#000000; fill-opacity:0.0; 
stroke:#000000; stroke-width:0; stroke-opacity:1; 
stroke-linecap:round; stroke-linejoin:round;">
<g >
</g>
<g style="fill:#000000; fill-opacity:0.0; 
stroke:#000000; stroke-width:60; stroke-opacity:1; 
stroke-linecap:round; stroke-linejoin:round;">
<path style="fill:#000000; fill-opacity:0.0; 
stroke:#000000; stroke-width:60; stroke-opacity:1; 
stroke-linecap:round; stroke-linejoin:round;fill:none"
d="M 59500,37700
60000,38000
" /> 
<path style="fill:#000000; fill-opacity:0.0; 
stroke:#000000; stroke-width:60; stroke-opacity:1; 
stroke-linecap:round; stroke-linejoin:round;fill:none"
d="M 59000,38000
60000,38000
" /> 
<path style="fill:#000000; fill-opacity:0.0; 
stroke:#000000; stroke-width:60; stroke-opacity:1; 
stroke-linecap:round; stroke-linejoin:round;fill:none"
d="M 60000,38000
59500,38300
" /> 
<text x="61430" y="38420"
textLength="2300" font-size="660" lengthAdjust="spacingAndGlyphs"
text-anchor="middle" opacity="0">+3.3V</text>
<path d="M60430 38200
L60810 38200
" />
<path d="M60620 38390
L60620 38010
" />
<path d="M61000 37890
L61310 37890
L61140 38080
L61210 38080
L61260 38110
L61280 38130
L61310 38180
L61310 38300
L61280 38340
L61260 38370
L61210 38390
L61070 38390
L61020 38370
L61000 38340
" />
<path d="M61520 38340
L61540 38370
L61520 38390
L61500 38370
L61520 38340
L61520 38390
" />
<path d="M61710 37890
L62020 37890
L61850 38080
L61930 38080
L61970 38110
L62000 38130
L62020 38180
L62020 38300
L62000 38340
L61970 38370
L61930 38390
L61780 38390
L61730 38370
L61710 38340
" />
<path d="M62160 37890
L62330 38390
L62500 37890
" />
</g>
</g>
<g style="fill:#000000; fill-opacity:0.0; 
stroke:#000000; stroke-width:0; stroke-opacity:1; 
stroke-linecap:round; stroke-linejoin:round;">
<g >
</g>
<g style="fill:#000000; fill-opacity:0.0; 
stroke:#000000; stroke-width:60; stroke-opacity:1; 
stroke-linecap:round; stroke-linejoin:round;">
<path style="fill:#000000; fill-opacity:0.0; 
stroke:#000000; stroke-width:60; stroke-opacity:1; 
stroke-linecap:round; stroke-linejoin:round;fill:none"
d="M 59000,37000
59500,37000
59500,36500
60000,37000
59500,37500
59500,37000
" /> 
<text x="61070" y="37170"
textLength="1580" font-size="660" lengthAdjust="spacingAndGlyphs"
text-anchor="middle" opacity="0">GND</text>
<path d="M60680 36670
L60640 36640
L60570 36640
L60490 36670
L60450 36710
L60420 36760
L60400 36860
L60400 36930
L60420 37020
L60450 37070
L60490 37120
L60570 37140
L60610 37140
L60680 37120
L60710 37090
L60710 36930
L60610 36930
" />
<path d="M60920 37140
L60920 36640
L61210 37140
L61210 36640
" />
<path d="M61450 37140
L61450 36640
L61570 36640
L61640 36670
L61680 36710
L61710 36760
L61730 36860
L61730 36930
L61710 37020
L61680 37070
L61640 37120
L61570 37140
L61450 37140
" />
</g>
</g>
<g style="fill:#000000; fill-opacity:0.0; 
stroke:#000000; stroke-width:0; stroke-opacity:1; 
stroke-linecap:round; stroke-linejoin:round;">
<g >
</g>
<g style="fill:#000000; fill-opacity:0.0; 
stroke:#000000; stroke-width:60; stroke-opacity:1; 
stroke-linecap:round; stroke-linejoin:round;">
<path style="fill:#000000; fill-opacity:0.0; 
stroke:#000000; stroke-width:60; stroke-opacity:1; 
stroke-linecap:round; stroke-linejoin:round;fill:none"
d="M 31000,40500
31000,41000
31500,41000
31000,41500
30500,41000
31000,41000
" /> 
<text x="31050" y="42500"
textLength="1580" font-size="660" lengthAdjust="spacingAndGlyphs"
text-anchor="middle" opacity="0">GND</text>
<path d="M30660 42000
L30620 41970
L30550 41970
L30470 42000
L30430 42040
L30400 42090
L30380 42190
L30380 42260
L30400 42350
L30430 42400
L30470 42450
L30550 42470
L30590 42470
L30660 42450
L30690 42420
L30690 42260
L30590 42260
" />
<path d="M30900 42470
L30900 41970
L31190 42470
L31190 41970
" />
<path d="M31430 42470
L31430 41970
L31550 41970
L31620 42000
L31660 42040
L31690 42090
L31710 42190
L31710 42260
L31690 42350
L31660 42400
L31620 42450
L31550 42470
L31430 42470
" />
</g>
</g>
<g style="fill:#000000; fill-opacity:0.0; 
stroke:#000000; stroke-width:0; stroke-opacity:1; 
stroke-linecap:round; stroke-linejoin:round;">
<g >
</g>
<g style="fill:#000000; fill-opacity:0.0; 
stroke:#000000; stroke-width:60; stroke-opacity:1; 
stroke-linecap:round; stroke-linejoin:round;">
<path style="fill:#000000; fill-opacity:0.0; 
stroke:#000000; stroke-width:60; stroke-opacity:1; 
stroke-linecap:round; stroke-linejoin:round;fill:none"
d="M 37500,37300
37000,37000
" /> 
<path style="fill:#000000; fill-opacity:0.0; 
stroke:#000000; stroke-width:60; stroke-opacity:1; 
stroke-linecap:round; stroke-linejoin:round;fill:none"
d="M 38000,37000
37000,37000
" /> 
<path style="fill:#000000; fill-opacity:0.0; 
stroke:#000000; stroke-width:60; stroke-opacity:1; 
stroke-linecap:round; stroke-linejoin:round;fill:none"
d="M 37000,37000
37500,36700
" /> 
<text x="35570" y="37070"
textLength="2300" font-size="660" lengthAdjust="spacingAndGlyphs"
text-anchor="middle" opacity="0">+3.3V</text>
<path d="M34570 36850
L34950 36850
" />
<path d="M34760 37040
L34760 36660
" />
<path d="M35140 36540
L35450 36540
L35280 36730
L35350 36730
L35400 36760
L35420 36780
L35450 36830
L35450 36950
L35420 36990
L35400 37020
L35350 37040
L35210 37040
L35160 37020
L35140 36990
" />
<path d="M35660 36990
L35680 37020
L35660 37040
L35640 37020
L35660 36990
L35660 37040
" />
<path d="M35850 36540
L36160 36540
L35990 36730
L36070 36730
L36110 36760
L36140 36780
L36160 36830
L36160 36950
L36140 36990
L36110 37020
L36070 37040
L35920 37040
L35870 37020
L35850 36990
" />
<path d="M36300 36540
L36470 37040
L36640 36540
" />
</g>
</g>
<g style="fill:#000000; fill-opacity:0.0; 
stroke:#000000; stroke-width:0; stroke-opacity:1; 
stroke-linecap:round; stroke-linejoin:round;">
<g >
</g>
<g style="fill:#000000; fill-opacity:0.0; 
stroke:#000000; stroke-width:60; stroke-opacity:1; 
stroke-linecap:round; stroke-linejoin:round;">
<path style="fill:#000000; fill-opacity:0.0; 
stroke:#000000; stroke-width:60; stroke-opacity:1; 
stroke-linecap:round; stroke-linejoin:round;fill:none"
d="M 38000,39000
37500,39000
37500,39500
37000,39000
37500,38500
37500,39000
" /> 
<text x="35930" y="39320"
textLength="1580" font-size="660" lengthAdjust="spacingAndGlyphs"
text-anchor="middle" opacity="0">GND</text>
<path d="M35540 38820
L35500 38790
L35430 38790
L35350 38820
L35310 38860
L35280 38910
L35260 39010
L35260 39080
L35280 39170
L35310 39220
L35350 39270
L35430 39290
L35470 39290
L35540 39270
L35570 39240
L35570 39080
L35470 39080
" />
<path d="M35780 39290
L35780 38790
L36070 39290
L36070 38790
" />
<path d="M36310 39290
L36310 38790
L36430 38790
L36500 38820
L36540 38860
L36570 38910
L36590 39010
L36590 39080
L36570 39170
L36540 39220
L36500 39270
L36430 39290
L36310 39290
" />
</g>
</g>
<g style="fill:#000000; fill-opacity:0.0; 
stroke:#000000; stroke-width:0; stroke-opacity:1; 
stroke-linecap:round; stroke-linejoin:round;">
<g >
</g>
<g style="fill:#000000; fill-opacity:0.0; 
stroke:#000000; stroke-width:60; stroke-opacity:1; 
stroke-linecap:round; stroke-linejoin:round;">
<path style="fill:#000000; fill-opacity:0.0; 
stroke:#000000; stroke-width:60; stroke-opacity:1; 
stroke-linecap:round; stroke-linejoin:round;fill:none"
d="M 38000,40000
37500,40000
37500,40500
37000,40000
37500,39500
37500,40000
" /> 
<text x="35930" y="40320"
textLength="1580" font-size="660" lengthAdjust="spacingAndGlyphs"
text-anchor="middle" opacity="0">GND</text>
<path d="M35540 39820
L35500 39790
L35430 39790
L35350 39820
L35310 39860
L35280 39910
L35260 40010
L35260 40080
L35280 40170
L35310 40220
L35350 40270
L35430 40290
L35470 40290
L35540 40270
L35570 40240
L35570 40080
L35470 40080
" />
<path d="M35780 40290
L35780 39790
L36070 40290
L36070 39790
" />
<path d="M36310 40290
L36310 39790
L36430 39790
L36500 39820
L36540 39860
L36570 39910
L36590 40010
L36590 40080
L36570 40170
L36540 40220
L36500 40270
L36430 40290
L36310 40290
" />
</g>
</g>
<g style="fill:#000000; fill-opacity:0.0; 
stroke:#000000; stroke-width:0; stroke-opacity:1; 
stroke-linecap:round; stroke-linejoin:round;">
<g >
</g>
<g style="fill:#000000; fill-opacity:0.0; 
stroke:#000000; stroke-width:60; stroke-opacity:1; 
stroke-linecap:round; stroke-linejoin:round;">
<path style="fill:#000000; fill-opacity:0.0; 
stroke:#000000; stroke-width:60; stroke-opacity:1; 
stroke-linecap:round; stroke-linejoin:round;fill:none"
d="M 30700,36000
31000,35500
" /> 
<path style="fill:#000000; fill-opacity:0.0; 
stroke:#000000; stroke-width:60; stroke-opacity:1; 
stroke-linecap:round; stroke-linejoin:round;fill:none"
d="M 31000,36500
31000,35500
" /> 
<path style="fill:#000000; fill-opacity:0.0; 
stroke:#000000; stroke-width:60; stroke-opacity:1; 
stroke-linecap:round; stroke-linejoin:round;fill:none"
d="M 31000,35500
31300,36000
" /> 
<text x="31150" y="35040"
textLength="2300" font-size="660" lengthAdjust="spacingAndGlyphs"
text-anchor="middle" opacity="0">+3.3V</text>
<path d="M30150 34820
L30530 34820
" />
<path d="M30340 35010
L30340 34630
" />
<path d="M30720 34510
L31030 34510
L30860 34700
L30930 34700
L30980 34730
L31000 34750
L31030 34800
L31030 34920
L31000 34960
L30980 34990
L30930 35010
L30790 35010
L30740 34990
L30720 34960
" />
<path d="M31240 34960
L31260 34990
L31240 35010
L31220 34990
L31240 34960
L31240 35010
" />
<path d="M31430 34510
L31740 34510
L31570 34700
L31650 34700
L31690 34730
L31720 34750
L31740 34800
L31740 34920
L31720 34960
L31690 34990
L31650 35010
L31500 35010
L31450 34990
L31430 34960
" />
<path d="M31880 34510
L32050 35010
L32220 34510
" />
</g>
</g>
<g style="fill:#000000; fill-opacity:0.0; 
stroke:#000000; stroke-width:0; stroke-opacity:1; 
stroke-linecap:round; stroke-linejoin:round;">
<g >
</g>
<g style="fill:#000000; fill-opacity:0.0; 
stroke:#000000; stroke-width:60; stroke-opacity:1; 
stroke-linecap:round; stroke-linejoin:round;">
<path style="fill:#000000; fill-opacity:0.0; 
stroke:#000000; stroke-width:60; stroke-opacity:1; 
stroke-linecap:round; stroke-linejoin:round;fill:none"
d="M 38000,42000
37500,42000
37500,42500
37000,42000
37500,41500
37500,42000
" /> 
<text x="35930" y="42320"
textLength="1580" font-size="660" lengthAdjust="spacingAndGlyphs"
text-anchor="middle" opacity="0">GND</text>
<path d="M35540 41820
L35500 41790
L35430 41790
L35350 41820
L35310 41860
L35280 41910
L35260 42010
L35260 42080
L35280 42170
L35310 42220
L35350 42270
L35430 42290
L35470 42290
L35540 42270
L35570 42240
L35570 42080
L35470 42080
" />
<path d="M35780 42290
L35780 41790
L36070 42290
L36070 41790
" />
<path d="M36310 42290
L36310 41790
L36430 41790
L36500 41820
L36540 41860
L36570 41910
L36590 42010
L36590 42080
L36570 42170
L36540 42220
L36500 42270
L36430 42290
L36310 42290
" />
</g>
</g>
<g style="fill:#000000; fill-opacity:0.0; 
stroke:#000000; stroke-width:60; stroke-opacity:1; 
stroke-linecap:round; stroke-linejoin:round;">
<path d="M31000 37000
L31000 36500
" />
<path d="M31000 40500
L31000 40000
" />
<path d="M65500 40500
L65500 40000
" />
<path d="M65500 37000
L65500 36500
" />
<path d="M70000 36500
L70000 37000
" />
<path d="M70000 40000
L70000 40500
" />
<path d="M78000 36000
L78500 36000
" />
<path d="M78500 39000
L78000 39000
" />
<path d="M81500 36000
L82000 36000
" />
<path d="M82000 39000
L81500 39000
" />
<path d="M38500 42000
L38000 42000
" />
<path d="M38000 41000
L38500 41000
" />
<path d="M38500 40000
L38000 40000
" />
<path d="M38000 39000
L38500 39000
" />
<path d="M38500 38000
L38000 38000
" />
<path d="M38000 37000
L38500 37000
" />
<path d="M59000 37000
L58500 37000
" />
<path d="M58500 38000
L59000 38000
" />
<path d="M59000 39000
L58500 39000
" />
<path d="M58500 40000
L59000 40000
" />
<path d="M59000 42000
L58500 42000
" />
<text x="59310" y="42250"
textLength="2920" font-size="660" lengthAdjust="spacingAndGlyphs"
text-anchor="start" opacity="0">GPIOI_2</text>
<path d="M59720 41750
L59670 41720
L59600 41720
L59530 41750
L59480 41790
L59450 41840
L59430 41940
L59430 42010
L59450 42100
L59480 42150
L59530 42200
L59600 42220
L59640 42220
L59720 42200
L59740 42170
L59740 42010
L59640 42010
" />
<path d="M59950 42220
L59950 41720
L60140 41720
L60190 41750
L60220 41770
L60240 41820
L60240 41890
L60220 41940
L60190 41960
L60140 41980
L59950 41980
" />
<path d="M60450 42220
L60450 41720
" />
<path d="M60790 41720
L60880 41720
L60930 41750
L60980 41790
L61000 41890
L61000 42050
L60980 42150
L60930 42200
L60880 42220
L60790 42220
L60740 42200
L60690 42150
L60670 42050
L60670 41890
L60690 41790
L60740 41750
L60790 41720
" />
<path d="M61220 42220
L61220 41720
" />
<path d="M61340 42270
L61720 42270
" />
<path d="M61810 41770
L61840 41750
L61880 41720
L62000 41720
L62050 41750
L62070 41770
L62100 41820
L62100 41860
L62070 41940
L61790 42220
L62100 42220
" />
</g>
<g style="fill:#000000; fill-opacity:0.0; 
stroke:#000000; stroke-width:100; stroke-opacity:1; 
stroke-linecap:round; stroke-linejoin:round;">
<path style="fill:#000000; fill-opacity:0.0; 
stroke:#000000; stroke-width:100; stroke-opacity:1; 
stroke-linecap:round; stroke-linejoin:round;fill:none"
d="M 59000,42000
59250,42440
62340,42440
62340,42000
62340,41560
59250,41560
Z" /> 
</g>
<g style="fill:#000000; fill-opacity:0.0; 
stroke:#000000; stroke-width:60; stroke-opacity:1; 
stroke-linecap:round; stroke-linejoin:round;">
<text x="77690" y="36250"
textLength="2920" font-size="660" lengthAdjust="spacingAndGlyphs"
text-anchor="end" opacity="0">GPIOI_2</text>
<path d="M75180 35750
L75130 35720
L75060 35720
L74990 35750
L74940 35790
L74920 35840
L74890 35940
L74890 36010
L74920 36100
L74940 36150
L74990 36200
L75060 36220
L75110 36220
L75180 36200
L75200 36170
L75200 36010
L75110 36010
" />
<path d="M75420 36220
L75420 35720
L75610 35720
L75660 35750
L75680 35770
L75700 35820
L75700 35890
L75680 35940
L75660 35960
L75610 35980
L75420 35980
" />
<path d="M75920 36220
L75920 35720
" />
<path d="M76250 35720
L76350 35720
L76390 35750
L76440 35790
L76460 35890
L76460 36050
L76440 36150
L76390 36200
L76350 36220
L76250 36220
L76200 36200
L76160 36150
L76130 36050
L76130 35890
L76160 35790
L76200 35750
L76250 35720
" />
<path d="M76680 36220
L76680 35720
" />
<path d="M76800 36270
L77180 36270
" />
<path d="M77270 35770
L77300 35750
L77350 35720
L77460 35720
L77510 35750
L77540 35770
L77560 35820
L77560 35860
L77540 35940
L77250 36220
L77560 36220
" />
</g>
<g style="fill:#000000; fill-opacity:0.0; 
stroke:#000000; stroke-width:100; stroke-opacity:1; 
stroke-linecap:round; stroke-linejoin:round;">
<path style="fill:#000000; fill-opacity:0.0; 
stroke:#000000; stroke-width:100; stroke-opacity:1; 
stroke-linecap:round; stroke-linejoin:round;fill:none"
d="M 78000,36000
77750,35560
74660,35560
74660,36000
74660,36440
77750,36440
Z" /> 
</g>
<g style="fill:#000000; fill-opacity:0.0; 
stroke:#000000; stroke-width:60; stroke-opacity:1; 
stroke-linecap:round; stroke-linejoin:round;">
<text x="59310" y="39250"
textLength="1440" font-size="660" lengthAdjust="spacingAndGlyphs"
text-anchor="start" opacity="0">SCL</text>
<path d="M59430 39200
L59500 39220
L59620 39220
L59670 39200
L59690 39170
L59720 39130
L59720 39080
L59690 39030
L59670 39010
L59620 38980
L59530 38960
L59480 38940
L59450 38910
L59430 38860
L59430 38820
L59450 38770
L59480 38750
L59530 38720
L59640 38720
L59720 38750
" />
<path d="M60220 39170
L60190 39200
L60120 39220
L60070 39220
L60000 39200
L59950 39150
L59930 39100
L59910 39010
L59910 38940
L59930 38840
L59950 38790
L60000 38750
L60070 38720
L60120 38720
L60190 38750
L60220 38770
" />
<path d="M60670 39220
L60430 39220
L60430 38720
" />
</g>
<g style="fill:#000000; fill-opacity:0.0; 
stroke:#000000; stroke-width:100; stroke-opacity:1; 
stroke-linecap:round; stroke-linejoin:round;">
<path style="fill:#000000; fill-opacity:0.0; 
stroke:#000000; stroke-width:100; stroke-opacity:1; 
stroke-linecap:round; stroke-linejoin:round;fill:none"
d="M 59000,39000
59250,39440
60860,39440
60860,39000
60860,38560
59250,38560
Z" /> 
</g>
<g style="fill:#000000; fill-opacity:0.0; 
stroke:#000000; stroke-width:60; stroke-opacity:1; 
stroke-linecap:round; stroke-linejoin:round;">
<text x="59310" y="40250"
textLength="1460" font-size="660" lengthAdjust="spacingAndGlyphs"
text-anchor="start" opacity="0">SDA</text>
<path d="M59430 40200
L59500 40220
L59620 40220
L59670 40200
L59690 40170
L59720 40130
L59720 40080
L59690 40030
L59670 40010
L59620 39980
L59530 39960
L59480 39940
L59450 39910
L59430 39860
L59430 39820
L59450 39770
L59480 39750
L59530 39720
L59640 39720
L59720 39750
" />
<path d="M59930 40220
L59930 39720
L60050 39720
L60120 39750
L60170 39790
L60190 39840
L60220 39940
L60220 40010
L60190 40100
L60170 40150
L60120 40200
L60050 40220
L59930 40220
" />
<path d="M60410 40080
L60640 40080
" />
<path d="M60360 40220
L60530 39720
L60690 40220
" />
</g>
<g style="fill:#000000; fill-opacity:0.0; 
stroke:#000000; stroke-width:100; stroke-opacity:1; 
stroke-linecap:round; stroke-linejoin:round;">
<path style="fill:#000000; fill-opacity:0.0; 
stroke:#000000; stroke-width:100; stroke-opacity:1; 
stroke-linecap:round; stroke-linejoin:round;fill:none"
d="M 59000,40000
59250,40440
60880,40440
60880,40000
60880,39560
59250,39560
Z" /> 
</g>
<g style="fill:#000000; fill-opacity:0.0; 
stroke:#000000; stroke-width:60; stroke-opacity:1; 
stroke-linecap:round; stroke-linejoin:round;">
<text x="37690" y="41250"
textLength="3300" font-size="660" lengthAdjust="spacingAndGlyphs"
text-anchor="end" opacity="0">XSHUT_2</text>
<path d="M34490 40720
L34820 41220
" />
<path d="M34820 40720
L34490 41220
" />
<path d="M34990 41200
L35060 41220
L35180 41220
L35230 41200
L35250 41170
L35270 41130
L35270 41080
L35250 41030
L35230 41010
L35180 40980
L35080 40960
L35040 40940
L35010 40910
L34990 40860
L34990 40820
L35010 40770
L35040 40750
L35080 40720
L35200 40720
L35270 40750
" />
<path d="M35490 41220
L35490 40720
" />
<path d="M35490 40960
L35770 40960
" />
<path d="M35770 41220
L35770 40720
" />
<path d="M36010 40720
L36010 41130
L36040 41170
L36060 41200
L36110 41220
L36200 41220
L36250 41200
L36270 41170
L36300 41130
L36300 40720
" />
<path d="M36460 40720
L36750 40720
" />
<path d="M36610 41220
L36610 40720
" />
<path d="M36800 41270
L37180 41270
" />
<path d="M37270 40770
L37300 40750
L37350 40720
L37460 40720
L37510 40750
L37540 40770
L37560 40820
L37560 40860
L37540 40940
L37250 41220
L37560 41220
" />
</g>
<g style="fill:#000000; fill-opacity:0.0; 
stroke:#000000; stroke-width:100; stroke-opacity:1; 
stroke-linecap:round; stroke-linejoin:round;">
<path style="fill:#000000; fill-opacity:0.0; 
stroke:#000000; stroke-width:100; stroke-opacity:1; 
stroke-linecap:round; stroke-linejoin:round;fill:none"
d="M 38000,41000
37750,40560
34280,40560
34280,41000
34280,41440
37750,41440
Z" /> 
</g>
<g style="fill:#000000; fill-opacity:0.0; 
stroke:#000000; stroke-width:60; stroke-opacity:1; 
stroke-linecap:round; stroke-linejoin:round;">
<text x="77690" y="39250"
textLength="3300" font-size="660" lengthAdjust="spacingAndGlyphs"
text-anchor="end" opacity="0">XSHUT_2</text>
<path d="M74490 38720
L74820 39220
" />
<path d="M74820 38720
L74490 39220
" />
<path d="M74990 39200
L75060 39220
L75180 39220
L75230 39200
L75250 39170
L75270 39130
L75270 39080
L75250 39030
L75230 39010
L75180 38980
L75080 38960
L75040 38940
L75010 38910
L74990 38860
L74990 38820
L75010 38770
L75040 38750
L75080 38720
L75200 38720
L75270 38750
" />
<path d="M75490 39220
L75490 38720
" />
<path d="M75490 38960
L75770 38960
" />
<path d="M75770 39220
L75770 38720
" />
<path d="M76010 38720
L76010 39130
L76040 39170
L76060 39200
L76110 39220
L76200 39220
L76250 39200
L76270 39170
L76300 39130
L76300 38720
" />
<path d="M76460 38720
L76750 38720
" />
<path d="M76610 39220
L76610 38720
" />
<path d="M76800 39270
L77180 39270
" />
<path d="M77270 38770
L77300 38750
L77350 38720
L77460 38720
L77510 38750
L77540 38770
L77560 38820
L77560 38860
L77540 38940
L77250 39220
L77560 39220
" />
</g>
<g style="fill:#000000; fill-opacity:0.0; 
stroke:#000000; stroke-width:100; stroke-opacity:1; 
stroke-linecap:round; stroke-linejoin:round;">
<path style="fill:#000000; fill-opacity:0.0; 
stroke:#000000; stroke-width:100; stroke-opacity:1; 
stroke-linecap:round; stroke-linejoin:round;fill:none"
d="M 78000,39000
77750,38560
74280,38560
74280,39000
74280,39440
77750,39440
Z" /> 
</g> 
</svg>
