<?xml version="1.0" standalone="no"?>
 <!DOCTYPE svg PUBLIC "-//W3C//DTD SVG 1.1//EN" 
 "http://www.w3.org/Graphics/SVG/1.1/DTD/svg11.dtd"> 
<svg
  xmlns:svg="http://www.w3.org/2000/svg"
  xmlns="http://www.w3.org/2000/svg"
  xmlns:xlink="http://www.w3.org/1999/xlink"
  version="1.1"
  width="29.700220cm" height="21.000720cm" viewBox="0 0 116930 82680">
<title>SVG Picture created as VL53L3CX_LEFT-VL53L3CX left.svg date 2022/02/21 15:02:43 </title>
  <desc>Picture generated by Eeschema-SVG </desc>
<g style="fill:#000000; fill-opacity:1;stroke:#000000; stroke-opacity:1;
stroke-linecap:round; stroke-linejoin:round;"
 transform="translate(0 0) scale(1 1)">
</g>
<g style="fill:#000000; fill-opacity:0.0; 
stroke:#000000; stroke-width:0; stroke-opacity:1; 
stroke-linecap:round; stroke-linejoin:round;">
<g >
</g>
<g style="fill:#000000; fill-opacity:0.0; 
stroke:#000000; stroke-width:50; stroke-opacity:1; 
stroke-linecap:round; stroke-linejoin:round;">
<path style="fill:#000000; fill-opacity:0.0; 
stroke:#000000; stroke-width:50; stroke-opacity:1; 
stroke-linecap:round; stroke-linejoin:round;fill:none"
d="M 44000,34000
44000,43000
" /> 
<path style="fill:#000000; fill-opacity:0.0; 
stroke:#000000; stroke-width:50; stroke-opacity:1; 
stroke-linecap:round; stroke-linejoin:round;fill:none"
d="M 44000,43000
58000,43000
" /> 
<path style="fill:#000000; fill-opacity:0.0; 
stroke:#000000; stroke-width:50; stroke-opacity:1; 
stroke-linecap:round; stroke-linejoin:round;fill:none"
d="M 58000,43000
58000,34000
" /> 
<path style="fill:#000000; fill-opacity:0.0; 
stroke:#000000; stroke-width:50; stroke-opacity:1; 
stroke-linecap:round; stroke-linejoin:round;fill:none"
d="M 58000,34000
44000,34000
" /> 
</g>
<g style="fill:#000000; fill-opacity:0.0; 
stroke:#000000; stroke-width:60; stroke-opacity:1; 
stroke-linecap:round; stroke-linejoin:round;">
<path d="M44000 36000
L41000 36000
" />
<text x="44100" y="36290"
textLength="4920" font-size="780" lengthAdjust="spacingAndGlyphs"
text-anchor="start" opacity="0">AVDDVCSEL</text>
<path d="M44240 36090
L44520 36090
" />
<path d="M44180 36260
L44380 35670
L44570 36260
" />
<path d="M44690 35670
L44880 36260
L45080 35670
" />
<path d="M45280 36260
L45280 35670
L45420 35670
L45500 35700
L45560 35760
L45590 35810
L45610 35920
L45610 36010
L45590 36120
L45560 36180
L45500 36230
L45420 36260
L45280 36260
" />
<path d="M45870 36260
L45870 35670
L46010 35670
L46090 35700
L46150 35760
L46180 35810
L46200 35920
L46200 36010
L46180 36120
L46150 36180
L46090 36230
L46010 36260
L45870 36260
" />
<path d="M46370 35670
L46570 36260
L46770 35670
" />
<path d="M47300 36210
L47270 36230
L47190 36260
L47130 36260
L47050 36230
L46990 36180
L46960 36120
L46930 36010
L46930 35920
L46960 35810
L46990 35760
L47050 35700
L47130 35670
L47190 35670
L47270 35700
L47300 35730
" />
<path d="M47520 36230
L47610 36260
L47750 36260
L47810 36230
L47830 36210
L47860 36150
L47860 36090
L47830 36040
L47810 36010
L47750 35980
L47640 35950
L47580 35920
L47550 35900
L47520 35840
L47520 35780
L47550 35730
L47580 35700
L47640 35670
L47780 35670
L47860 35700
" />
<path d="M48110 35950
L48310 35950
" />
<path d="M48400 36260
L48110 36260
L48110 35670
L48400 35670
" />
<path d="M48930 36260
L48650 36260
L48650 35670
" />
<text x="42500" y="35900"
textLength="620" font-size="780" lengthAdjust="spacingAndGlyphs"
text-anchor="middle" opacity="0">1</text>
<path d="M42660 35870
L42330 35870
" />
<path d="M42500 35870
L42500 35280
L42440 35360
L42380 35420
L42330 35450
" />
<path d="M44000 37000
L41000 37000
" />
<text x="44100" y="37290"
textLength="4860" font-size="780" lengthAdjust="spacingAndGlyphs"
text-anchor="start" opacity="0">AVSSVCSEL</text>
<path d="M44240 37090
L44520 37090
" />
<path d="M44180 37260
L44380 36670
L44570 37260
" />
<path d="M44690 36670
L44880 37260
L45080 36670
" />
<path d="M45250 37230
L45330 37260
L45470 37260
L45530 37230
L45560 37210
L45590 37150
L45590 37090
L45560 37040
L45530 37010
L45470 36980
L45360 36950
L45310 36920
L45280 36900
L45250 36840
L45250 36780
L45280 36730
L45310 36700
L45360 36670
L45500 36670
L45590 36700
" />
<path d="M45810 37230
L45900 37260
L46040 37260
L46090 37230
L46120 37210
L46150 37150
L46150 37090
L46120 37040
L46090 37010
L46040 36980
L45920 36950
L45870 36920
L45840 36900
L45810 36840
L45810 36780
L45840 36730
L45870 36700
L45920 36670
L46060 36670
L46150 36700
" />
<path d="M46320 36670
L46510 37260
L46710 36670
" />
<path d="M47240 37210
L47220 37230
L47130 37260
L47080 37260
L46990 37230
L46930 37180
L46910 37120
L46880 37010
L46880 36920
L46910 36810
L46930 36760
L46990 36700
L47080 36670
L47130 36670
L47220 36700
L47240 36730
" />
<path d="M47470 37230
L47550 37260
L47690 37260
L47750 37230
L47780 37210
L47810 37150
L47810 37090
L47780 37040
L47750 37010
L47690 36980
L47580 36950
L47520 36920
L47500 36900
L47470 36840
L47470 36780
L47500 36730
L47520 36700
L47580 36670
L47720 36670
L47810 36700
" />
<path d="M48060 36950
L48260 36950
" />
<path d="M48340 37260
L48060 37260
L48060 36670
L48340 36670
" />
<path d="M48870 37260
L48590 37260
L48590 36670
" />
<text x="42500" y="36900"
textLength="620" font-size="780" lengthAdjust="spacingAndGlyphs"
text-anchor="middle" opacity="0">2</text>
<path d="M42330 36330
L42350 36310
L42410 36280
L42550 36280
L42610 36310
L42640 36330
L42660 36390
L42660 36450
L42640 36530
L42300 36870
L42660 36870
" />
<path d="M44000 38000
L41000 38000
" />
<text x="44100" y="38290"
textLength="1860" font-size="780" lengthAdjust="spacingAndGlyphs"
text-anchor="start" opacity="0">GND</text>
<path d="M44570 37700
L44520 37670
L44430 37670
L44350 37700
L44290 37760
L44270 37810
L44240 37920
L44240 38010
L44270 38120
L44290 38180
L44350 38230
L44430 38260
L44490 38260
L44570 38230
L44600 38210
L44600 38010
L44490 38010
" />
<path d="M44860 38260
L44860 37670
L45190 38260
L45190 37670
" />
<path d="M45470 38260
L45470 37670
L45610 37670
L45700 37700
L45750 37760
L45780 37810
L45810 37920
L45810 38010
L45780 38120
L45750 38180
L45700 38230
L45610 38260
L45470 38260
" />
<text x="42500" y="37900"
textLength="620" font-size="780" lengthAdjust="spacingAndGlyphs"
text-anchor="middle" opacity="0">3</text>
<path d="M42300 37280
L42660 37280
L42470 37500
L42550 37500
L42610 37530
L42640 37560
L42660 37610
L42660 37750
L42640 37810
L42610 37840
L42550 37870
L42380 37870
L42330 37840
L42300 37810
" />
<path d="M44000 39000
L41000 39000
" />
<text x="44100" y="39290"
textLength="2420" font-size="780" lengthAdjust="spacingAndGlyphs"
text-anchor="start" opacity="0">GND2</text>
<path d="M44570 38700
L44520 38670
L44430 38670
L44350 38700
L44290 38760
L44270 38810
L44240 38920
L44240 39010
L44270 39120
L44290 39180
L44350 39230
L44430 39260
L44490 39260
L44570 39230
L44600 39210
L44600 39010
L44490 39010
" />
<path d="M44860 39260
L44860 38670
L45190 39260
L45190 38670
" />
<path d="M45470 39260
L45470 38670
L45610 38670
L45700 38700
L45750 38760
L45780 38810
L45810 38920
L45810 39010
L45780 39120
L45750 39180
L45700 39230
L45610 39260
L45470 39260
" />
<path d="M46040 38730
L46060 38700
L46120 38670
L46260 38670
L46320 38700
L46340 38730
L46370 38780
L46370 38840
L46340 38920
L46010 39260
L46370 39260
" />
<text x="42500" y="38900"
textLength="620" font-size="780" lengthAdjust="spacingAndGlyphs"
text-anchor="middle" opacity="0">4</text>
<path d="M42610 38470
L42610 38870
" />
<path d="M42470 38250
L42330 38670
L42690 38670
" />
<path d="M44000 40000
L41000 40000
" />
<text x="44100" y="40290"
textLength="2870" font-size="780" lengthAdjust="spacingAndGlyphs"
text-anchor="start" opacity="0">XSHUT</text>
<path d="M44210 39670
L44600 40260
" />
<path d="M44600 39670
L44210 40260
" />
<path d="M44800 40230
L44880 40260
L45020 40260
L45080 40230
L45110 40210
L45140 40150
L45140 40090
L45110 40040
L45080 40010
L45020 39980
L44910 39950
L44860 39920
L44830 39900
L44800 39840
L44800 39780
L44830 39730
L44860 39700
L44910 39670
L45050 39670
L45140 39700
" />
<path d="M45390 40260
L45390 39670
" />
<path d="M45390 39950
L45730 39950
" />
<path d="M45730 40260
L45730 39670
" />
<path d="M46010 39670
L46010 40150
L46040 40210
L46060 40230
L46120 40260
L46230 40260
L46290 40230
L46320 40210
L46340 40150
L46340 39670
" />
<path d="M46540 39670
L46880 39670
" />
<path d="M46710 40260
L46710 39670
" />
<text x="42500" y="39900"
textLength="620" font-size="780" lengthAdjust="spacingAndGlyphs"
text-anchor="middle" opacity="0">5</text>
<path d="M42640 39280
L42350 39280
L42330 39560
L42350 39530
L42410 39500
L42550 39500
L42610 39530
L42640 39560
L42660 39610
L42660 39750
L42640 39810
L42610 39840
L42550 39870
L42410 39870
L42350 39840
L42330 39810
" />
<path d="M44000 41000
L41000 41000
" />
<text x="44100" y="41290"
textLength="2420" font-size="780" lengthAdjust="spacingAndGlyphs"
text-anchor="start" opacity="0">GND3</text>
<path d="M44570 40700
L44520 40670
L44430 40670
L44350 40700
L44290 40760
L44270 40810
L44240 40920
L44240 41010
L44270 41120
L44290 41180
L44350 41230
L44430 41260
L44490 41260
L44570 41230
L44600 41210
L44600 41010
L44490 41010
" />
<path d="M44860 41260
L44860 40670
L45190 41260
L45190 40670
" />
<path d="M45470 41260
L45470 40670
L45610 40670
L45700 40700
L45750 40760
L45780 40810
L45810 40920
L45810 41010
L45780 41120
L45750 41180
L45700 41230
L45610 41260
L45470 41260
" />
<path d="M46010 40670
L46370 40670
L46180 40900
L46260 40900
L46320 40920
L46340 40950
L46370 41010
L46370 41150
L46340 41210
L46320 41230
L46260 41260
L46090 41260
L46040 41230
L46010 41210
" />
<text x="42500" y="40900"
textLength="620" font-size="780" lengthAdjust="spacingAndGlyphs"
text-anchor="middle" opacity="0">6</text>
<path d="M42610 40280
L42500 40280
L42440 40310
L42410 40330
L42350 40420
L42330 40530
L42330 40750
L42350 40810
L42380 40840
L42440 40870
L42550 40870
L42610 40840
L42640 40810
L42660 40750
L42660 40610
L42640 40560
L42610 40530
L42550 40500
L42440 40500
L42380 40530
L42350 40560
L42330 40610
" />
<path d="M58000 41000
L61000 41000
" />
<text x="57900" y="41290"
textLength="2700" font-size="780" lengthAdjust="spacingAndGlyphs"
text-anchor="end" opacity="0">GPIO1</text>
<path d="M55670 40700
L55620 40670
L55530 40670
L55450 40700
L55390 40760
L55360 40810
L55340 40920
L55340 41010
L55360 41120
L55390 41180
L55450 41230
L55530 41260
L55590 41260
L55670 41230
L55700 41210
L55700 41010
L55590 41010
" />
<path d="M55950 41260
L55950 40670
L56180 40670
L56240 40700
L56260 40730
L56290 40780
L56290 40870
L56260 40920
L56240 40950
L56180 40980
L55950 40980
" />
<path d="M56540 41260
L56540 40670
" />
<path d="M56940 40670
L57050 40670
L57110 40700
L57160 40760
L57190 40870
L57190 41070
L57160 41180
L57110 41230
L57050 41260
L56940 41260
L56880 41230
L56830 41180
L56800 41070
L56800 40870
L56830 40760
L56880 40700
L56940 40670
" />
<path d="M57750 41260
L57420 41260
" />
<path d="M57580 41260
L57580 40670
L57530 40760
L57470 40810
L57420 40840
" />
<text x="59500" y="40900"
textLength="620" font-size="780" lengthAdjust="spacingAndGlyphs"
text-anchor="middle" opacity="0">7</text>
<path d="M59300 40280
L59690 40280
L59440 40870
" />
<path d="M58000 40000
L61000 40000
" />
<path d="M60850 39850
L61150 40150
" />
<path d="M61150 39850
L60850 40150
" />
<text x="57900" y="40290"
textLength="1860" font-size="780" lengthAdjust="spacingAndGlyphs"
text-anchor="end" opacity="0">DNC</text>
<path d="M56210 40260
L56210 39670
L56350 39670
L56430 39700
L56490 39760
L56520 39810
L56540 39920
L56540 40010
L56520 40120
L56490 40180
L56430 40230
L56350 40260
L56210 40260
" />
<path d="M56800 40260
L56800 39670
L57130 40260
L57130 39670
" />
<path d="M57750 40210
L57720 40230
L57640 40260
L57580 40260
L57500 40230
L57440 40180
L57420 40120
L57390 40010
L57390 39920
L57420 39810
L57440 39760
L57500 39700
L57580 39670
L57640 39670
L57720 39700
L57750 39730
" />
<text x="59500" y="39900"
textLength="620" font-size="780" lengthAdjust="spacingAndGlyphs"
text-anchor="middle" opacity="0">8</text>
<path d="M59440 39530
L59380 39500
L59350 39470
L59330 39420
L59330 39390
L59350 39330
L59380 39310
L59440 39280
L59550 39280
L59610 39310
L59640 39330
L59660 39390
L59660 39420
L59640 39470
L59610 39500
L59550 39530
L59440 39530
L59380 39560
L59350 39590
L59330 39640
L59330 39750
L59350 39810
L59380 39840
L59440 39870
L59550 39870
L59610 39840
L59640 39810
L59660 39750
L59660 39640
L59640 39590
L59610 39560
L59550 39530
" />
<path d="M58000 39000
L61000 39000
" />
<text x="57900" y="39290"
textLength="1720" font-size="780" lengthAdjust="spacingAndGlyphs"
text-anchor="end" opacity="0">SDA</text>
<path d="M56320 39230
L56400 39260
L56540 39260
L56600 39230
L56630 39210
L56660 39150
L56660 39090
L56630 39040
L56600 39010
L56540 38980
L56430 38950
L56380 38920
L56350 38900
L56320 38840
L56320 38780
L56350 38730
L56380 38700
L56430 38670
L56570 38670
L56660 38700
" />
<path d="M56910 39260
L56910 38670
L57050 38670
L57130 38700
L57190 38760
L57220 38810
L57250 38920
L57250 39010
L57220 39120
L57190 39180
L57130 39230
L57050 39260
L56910 39260
" />
<path d="M57470 39090
L57750 39090
" />
<path d="M57420 39260
L57610 38670
L57810 39260
" />
<text x="59500" y="38900"
textLength="620" font-size="780" lengthAdjust="spacingAndGlyphs"
text-anchor="middle" opacity="0">9</text>
<path d="M59380 38870
L59500 38870
L59550 38840
L59580 38810
L59640 38730
L59660 38610
L59660 38390
L59640 38330
L59610 38310
L59550 38280
L59440 38280
L59380 38310
L59350 38330
L59330 38390
L59330 38530
L59350 38590
L59380 38610
L59440 38640
L59550 38640
L59610 38610
L59640 38590
L59660 38530
" />
<path d="M58000 38000
L61000 38000
" />
<text x="57900" y="38290"
textLength="1690" font-size="780" lengthAdjust="spacingAndGlyphs"
text-anchor="end" opacity="0">SCL</text>
<path d="M56350 38230
L56430 38260
L56570 38260
L56630 38230
L56660 38210
L56690 38150
L56690 38090
L56660 38040
L56630 38010
L56570 37980
L56460 37950
L56400 37920
L56380 37900
L56350 37840
L56350 37780
L56380 37730
L56400 37700
L56460 37670
L56600 37670
L56690 37700
" />
<path d="M57280 38210
L57250 38230
L57160 38260
L57110 38260
L57020 38230
L56970 38180
L56940 38120
L56910 38010
L56910 37920
L56940 37810
L56970 37760
L57020 37700
L57110 37670
L57160 37670
L57250 37700
L57280 37730
" />
<path d="M57810 38260
L57530 38260
L57530 37670
" />
<text x="59500" y="37900"
textLength="1180" font-size="780" lengthAdjust="spacingAndGlyphs"
text-anchor="middle" opacity="0">10</text>
<path d="M59380 37870
L59050 37870
" />
<path d="M59210 37870
L59210 37280
L59160 37360
L59100 37420
L59050 37450
" />
<path d="M59750 37280
L59800 37280
L59860 37310
L59890 37330
L59920 37390
L59940 37500
L59940 37640
L59920 37750
L59890 37810
L59860 37840
L59800 37870
L59750 37870
L59690 37840
L59660 37810
L59640 37750
L59610 37640
L59610 37500
L59640 37390
L59660 37330
L59690 37310
L59750 37280
" />
<path d="M58000 37000
L61000 37000
" />
<text x="57900" y="37290"
textLength="2250" font-size="780" lengthAdjust="spacingAndGlyphs"
text-anchor="end" opacity="0">AVDD</text>
<path d="M55790 37090
L56070 37090
" />
<path d="M55730 37260
L55930 36670
L56120 37260
" />
<path d="M56240 36670
L56430 37260
L56630 36670
" />
<path d="M56830 37260
L56830 36670
L56970 36670
L57050 36700
L57110 36760
L57130 36810
L57160 36920
L57160 37010
L57130 37120
L57110 37180
L57050 37230
L56970 37260
L56830 37260
" />
<path d="M57420 37260
L57420 36670
L57560 36670
L57640 36700
L57700 36760
L57720 36810
L57750 36920
L57750 37010
L57720 37120
L57700 37180
L57640 37230
L57560 37260
L57420 37260
" />
<text x="59500" y="36900"
textLength="1180" font-size="780" lengthAdjust="spacingAndGlyphs"
text-anchor="middle" opacity="0">11</text>
<path d="M59380 36870
L59050 36870
" />
<path d="M59210 36870
L59210 36280
L59160 36360
L59100 36420
L59050 36450
" />
<path d="M59940 36870
L59610 36870
" />
<path d="M59780 36870
L59780 36280
L59720 36360
L59660 36420
L59610 36450
" />
<path d="M58000 36000
L61000 36000
" />
<text x="57900" y="36290"
textLength="2420" font-size="780" lengthAdjust="spacingAndGlyphs"
text-anchor="end" opacity="0">GND4</text>
<path d="M55950 35700
L55900 35670
L55810 35670
L55730 35700
L55670 35760
L55650 35810
L55620 35920
L55620 36010
L55650 36120
L55670 36180
L55730 36230
L55810 36260
L55870 36260
L55950 36230
L55980 36210
L55980 36010
L55870 36010
" />
<path d="M56240 36260
L56240 35670
L56570 36260
L56570 35670
" />
<path d="M56850 36260
L56850 35670
L56990 35670
L57080 35700
L57130 35760
L57160 35810
L57190 35920
L57190 36010
L57160 36120
L57130 36180
L57080 36230
L56990 36260
L56850 36260
" />
<path d="M57700 35870
L57700 36260
" />
<path d="M57560 35640
L57420 36070
L57780 36070
" />
<text x="59500" y="35900"
textLength="1180" font-size="780" lengthAdjust="spacingAndGlyphs"
text-anchor="middle" opacity="0">12</text>
<path d="M59380 35870
L59050 35870
" />
<path d="M59210 35870
L59210 35280
L59160 35360
L59100 35420
L59050 35450
" />
<path d="M59610 35330
L59640 35310
L59690 35280
L59830 35280
L59890 35310
L59920 35330
L59940 35390
L59940 35450
L59920 35530
L59580 35870
L59940 35870
" />
<text x="51000" y="32460"
textLength="1260" font-size="800" lengthAdjust="spacingAndGlyphs"
text-anchor="middle" opacity="0">U5</text>
<path d="M50540 31830
L50540 32310
L50570 32370
L50600 32400
L50650 32430
L50770 32430
L50820 32400
L50850 32370
L50880 32310
L50880 31830
" />
<path d="M51450 31830
L51170 31830
L51140 32110
L51170 32080
L51220 32060
L51370 32060
L51420 32080
L51450 32110
L51480 32170
L51480 32310
L51450 32370
L51420 32400
L51370 32430
L51220 32430
L51170 32400
L51140 32370
" />
<text x="51000" y="33520"
textLength="9200" font-size="800" lengthAdjust="spacingAndGlyphs"
text-anchor="middle" opacity="0">VL53L3CXV0DH_LEFT</text>
<path d="M46480 32890
L46680 33490
L46880 32890
" />
<path d="M47370 33490
L47080 33490
L47080 32890
" />
<path d="M47850 32890
L47570 32890
L47540 33170
L47570 33140
L47620 33120
L47770 33120
L47820 33140
L47850 33170
L47880 33230
L47880 33370
L47850 33430
L47820 33460
L47770 33490
L47620 33490
L47570 33460
L47540 33430
" />
<path d="M48080 32890
L48450 32890
L48250 33120
L48340 33120
L48400 33140
L48420 33170
L48450 33230
L48450 33370
L48420 33430
L48400 33460
L48340 33490
L48170 33490
L48110 33460
L48080 33430
" />
<path d="M49000 33490
L48710 33490
L48710 32890
" />
<path d="M49140 32890
L49510 32890
L49310 33120
L49400 33120
L49450 33140
L49480 33170
L49510 33230
L49510 33370
L49480 33430
L49450 33460
L49400 33490
L49220 33490
L49170 33460
L49140 33430
" />
<path d="M50110 33430
L50080 33460
L50000 33490
L49940 33490
L49850 33460
L49800 33400
L49770 33340
L49740 33230
L49740 33140
L49770 33030
L49800 32970
L49850 32920
L49940 32890
L50000 32890
L50080 32920
L50110 32940
" />
<path d="M50310 32890
L50710 33490
" />
<path d="M50710 32890
L50310 33490
" />
<path d="M50850 32890
L51050 33490
L51250 32890
" />
<path d="M51570 32890
L51620 32890
L51680 32920
L51710 32940
L51740 33000
L51770 33120
L51770 33260
L51740 33370
L51710 33430
L51680 33460
L51620 33490
L51570 33490
L51510 33460
L51480 33430
L51450 33370
L51420 33260
L51420 33120
L51450 33000
L51480 32940
L51510 32920
L51570 32890
" />
<path d="M52020 33490
L52020 32890
L52170 32890
L52250 32920
L52310 32970
L52340 33030
L52370 33140
L52370 33230
L52340 33340
L52310 33400
L52250 33460
L52170 33490
L52020 33490
" />
<path d="M52620 33490
L52620 32890
" />
<path d="M52620 33170
L52970 33170
" />
<path d="M52970 33490
L52970 32890
" />
<path d="M53110 33540
L53570 33540
" />
<path d="M54000 33490
L53710 33490
L53710 32890
" />
<path d="M54200 33170
L54400 33170
" />
<path d="M54480 33490
L54200 33490
L54200 32890
L54480 32890
" />
<path d="M54940 33170
L54740 33170
" />
<path d="M54740 33490
L54740 32890
L55020 32890
" />
<path d="M55170 32890
L55510 32890
" />
<path d="M55340 33490
L55340 32890
" />
</g>
</g>
<g style="fill:#000000; fill-opacity:0.0; 
stroke:#000000; stroke-width:0; stroke-opacity:1; 
stroke-linecap:round; stroke-linejoin:round;">
<g >
</g>
<g style="fill:#000000; fill-opacity:0.0; 
stroke:#000000; stroke-width:100; stroke-opacity:1; 
stroke-linecap:round; stroke-linejoin:round;">
<rect x="81500" y="34600" width="2000" height="800" rx="0" />
</g>
<g style="fill:#000000; fill-opacity:0.0; 
stroke:#000000; stroke-width:60; stroke-opacity:1; 
stroke-linecap:round; stroke-linejoin:round;">
<path d="M83500 35000
L84000 35000
" />
<path d="M81500 35000
L81000 35000
" />
<text x="82500" y="33200"
textLength="1510" font-size="660" lengthAdjust="spacingAndGlyphs"
text-anchor="middle" opacity="0">R14</text>
<path d="M82170 33170
L82010 32930
" />
<path d="M81890 33170
L81890 32670
L82080 32670
L82130 32700
L82150 32720
L82170 32770
L82170 32840
L82150 32890
L82130 32910
L82080 32930
L81890 32930
" />
<path d="M82650 33170
L82360 33170
" />
<path d="M82510 33170
L82510 32670
L82460 32740
L82410 32790
L82360 32810
" />
<path d="M83080 32840
L83080 33170
" />
<path d="M82960 32650
L82840 33000
L83150 33000
" />
<text x="82500" y="34110"
textLength="1420" font-size="660" lengthAdjust="spacingAndGlyphs"
text-anchor="middle" opacity="0">10k</text>
<path d="M82200 34080
L81910 34080
" />
<path d="M82050 34080
L82050 33580
L82010 33650
L81960 33700
L81910 33720
" />
<path d="M82510 33580
L82550 33580
L82600 33610
L82630 33630
L82650 33680
L82670 33770
L82670 33890
L82650 33990
L82630 34030
L82600 34060
L82550 34080
L82510 34080
L82460 34060
L82440 34030
L82410 33990
L82390 33890
L82390 33770
L82410 33680
L82440 33630
L82460 33610
L82510 33580
" />
<path d="M82890 34080
L82890 33580
" />
<path d="M82940 33890
L83080 34080
" />
<path d="M83080 33750
L82890 33940
" />
</g>
</g>
<g style="fill:#000000; fill-opacity:0.0; 
stroke:#000000; stroke-width:0; stroke-opacity:1; 
stroke-linecap:round; stroke-linejoin:round;">
<g >
</g>
<g style="fill:#000000; fill-opacity:0.0; 
stroke:#000000; stroke-width:100; stroke-opacity:1; 
stroke-linecap:round; stroke-linejoin:round;">
<rect x="81500" y="37600" width="2000" height="800" rx="0" />
</g>
<g style="fill:#000000; fill-opacity:0.0; 
stroke:#000000; stroke-width:60; stroke-opacity:1; 
stroke-linecap:round; stroke-linejoin:round;">
<path d="M83500 38000
L84000 38000
" />
<path d="M81500 38000
L81000 38000
" />
<text x="82500" y="36200"
textLength="1510" font-size="660" lengthAdjust="spacingAndGlyphs"
text-anchor="middle" opacity="0">R15</text>
<path d="M82170 36170
L82010 35930
" />
<path d="M81890 36170
L81890 35670
L82080 35670
L82130 35700
L82150 35720
L82170 35770
L82170 35840
L82150 35890
L82130 35910
L82080 35930
L81890 35930
" />
<path d="M82650 36170
L82360 36170
" />
<path d="M82510 36170
L82510 35670
L82460 35740
L82410 35790
L82360 35810
" />
<path d="M83100 35670
L82860 35670
L82840 35910
L82860 35890
L82910 35860
L83030 35860
L83080 35890
L83100 35910
L83130 35960
L83130 36080
L83100 36120
L83080 36150
L83030 36170
L82910 36170
L82860 36150
L82840 36120
" />
<text x="82500" y="37110"
textLength="1420" font-size="660" lengthAdjust="spacingAndGlyphs"
text-anchor="middle" opacity="0">10k</text>
<path d="M82200 37080
L81910 37080
" />
<path d="M82050 37080
L82050 36580
L82010 36650
L81960 36700
L81910 36720
" />
<path d="M82510 36580
L82550 36580
L82600 36610
L82630 36630
L82650 36680
L82670 36770
L82670 36890
L82650 36990
L82630 37030
L82600 37060
L82550 37080
L82510 37080
L82460 37060
L82440 37030
L82410 36990
L82390 36890
L82390 36770
L82410 36680
L82440 36630
L82460 36610
L82510 36580
" />
<path d="M82890 37080
L82890 36580
" />
<path d="M82940 36890
L83080 37080
" />
<path d="M83080 36750
L82890 36940
" />
</g>
</g>
<g style="fill:#000000; fill-opacity:0.0; 
stroke:#000000; stroke-width:0; stroke-opacity:1; 
stroke-linecap:round; stroke-linejoin:round;">
<g >
</g>
<g style="fill:#000000; fill-opacity:0.0; 
stroke:#000000; stroke-width:60; stroke-opacity:1; 
stroke-linecap:round; stroke-linejoin:round;">
<path style="fill:#000000; fill-opacity:0.0; 
stroke:#000000; stroke-width:60; stroke-opacity:1; 
stroke-linecap:round; stroke-linejoin:round;fill:none"
d="M 72500,39500
72500,40000
73000,40000
72500,40500
72000,40000
72500,40000
" /> 
<text x="72550" y="41500"
textLength="1580" font-size="660" lengthAdjust="spacingAndGlyphs"
text-anchor="middle" opacity="0">GND</text>
<path d="M72160 41000
L72120 40970
L72050 40970
L71970 41000
L71930 41040
L71900 41090
L71880 41190
L71880 41260
L71900 41350
L71930 41400
L71970 41450
L72050 41470
L72090 41470
L72160 41450
L72190 41420
L72190 41260
L72090 41260
" />
<path d="M72400 41470
L72400 40970
L72690 41470
L72690 40970
" />
<path d="M72930 41470
L72930 40970
L73050 40970
L73120 41000
L73160 41040
L73190 41090
L73210 41190
L73210 41260
L73190 41350
L73160 41400
L73120 41450
L73050 41470
L72930 41470
" />
</g>
</g>
<g style="fill:#000000; fill-opacity:0.0; 
stroke:#000000; stroke-width:0; stroke-opacity:1; 
stroke-linecap:round; stroke-linejoin:round;">
<g >
</g>
<g style="fill:#000000; fill-opacity:0.0; 
stroke:#000000; stroke-width:60; stroke-opacity:1; 
stroke-linecap:round; stroke-linejoin:round;">
<path style="fill:#000000; fill-opacity:0.0; 
stroke:#000000; stroke-width:60; stroke-opacity:1; 
stroke-linecap:round; stroke-linejoin:round;fill:none"
d="M 68000,39500
68000,40000
68500,40000
68000,40500
67500,40000
68000,40000
" /> 
<text x="68050" y="41500"
textLength="1580" font-size="660" lengthAdjust="spacingAndGlyphs"
text-anchor="middle" opacity="0">GND</text>
<path d="M67660 41000
L67620 40970
L67550 40970
L67470 41000
L67430 41040
L67400 41090
L67380 41190
L67380 41260
L67400 41350
L67430 41400
L67470 41450
L67550 41470
L67590 41470
L67660 41450
L67690 41420
L67690 41260
L67590 41260
" />
<path d="M67900 41470
L67900 40970
L68190 41470
L68190 40970
" />
<path d="M68430 41470
L68430 40970
L68550 40970
L68620 41000
L68660 41040
L68690 41090
L68710 41190
L68710 41260
L68690 41350
L68660 41400
L68620 41450
L68550 41470
L68430 41470
" />
</g>
</g>
<g style="fill:#000000; fill-opacity:0.0; 
stroke:#000000; stroke-width:0; stroke-opacity:1; 
stroke-linecap:round; stroke-linejoin:round;">
<g >
</g>
<g style="fill:#000000; fill-opacity:0.0; 
stroke:#000000; stroke-width:60; stroke-opacity:1; 
stroke-linecap:round; stroke-linejoin:round;">
<path style="fill:#000000; fill-opacity:0.0; 
stroke:#000000; stroke-width:60; stroke-opacity:1; 
stroke-linecap:round; stroke-linejoin:round;fill:none"
d="M 72200,35000
72500,34500
" /> 
<path style="fill:#000000; fill-opacity:0.0; 
stroke:#000000; stroke-width:60; stroke-opacity:1; 
stroke-linecap:round; stroke-linejoin:round;fill:none"
d="M 72500,35500
72500,34500
" /> 
<path style="fill:#000000; fill-opacity:0.0; 
stroke:#000000; stroke-width:60; stroke-opacity:1; 
stroke-linecap:round; stroke-linejoin:round;fill:none"
d="M 72500,34500
72800,35000
" /> 
<text x="72650" y="34040"
textLength="2300" font-size="660" lengthAdjust="spacingAndGlyphs"
text-anchor="middle" opacity="0">+3.3V</text>
<path d="M71650 33820
L72030 33820
" />
<path d="M71840 34010
L71840 33630
" />
<path d="M72220 33510
L72530 33510
L72360 33700
L72430 33700
L72480 33730
L72500 33750
L72530 33800
L72530 33920
L72500 33960
L72480 33990
L72430 34010
L72290 34010
L72240 33990
L72220 33960
" />
<path d="M72740 33960
L72760 33990
L72740 34010
L72720 33990
L72740 33960
L72740 34010
" />
<path d="M72930 33510
L73240 33510
L73070 33700
L73150 33700
L73190 33730
L73220 33750
L73240 33800
L73240 33920
L73220 33960
L73190 33990
L73150 34010
L73000 34010
L72950 33990
L72930 33960
" />
<path d="M73380 33510
L73550 34010
L73720 33510
" />
</g>
</g>
<g style="fill:#000000; fill-opacity:0.0; 
stroke:#000000; stroke-width:0; stroke-opacity:1; 
stroke-linecap:round; stroke-linejoin:round;">
<g >
</g>
<g style="fill:#000000; fill-opacity:0.0; 
stroke:#000000; stroke-width:60; stroke-opacity:1; 
stroke-linecap:round; stroke-linejoin:round;">
<path style="fill:#000000; fill-opacity:0.0; 
stroke:#000000; stroke-width:60; stroke-opacity:1; 
stroke-linecap:round; stroke-linejoin:round;fill:none"
d="M 67700,35000
68000,34500
" /> 
<path style="fill:#000000; fill-opacity:0.0; 
stroke:#000000; stroke-width:60; stroke-opacity:1; 
stroke-linecap:round; stroke-linejoin:round;fill:none"
d="M 68000,35500
68000,34500
" /> 
<path style="fill:#000000; fill-opacity:0.0; 
stroke:#000000; stroke-width:60; stroke-opacity:1; 
stroke-linecap:round; stroke-linejoin:round;fill:none"
d="M 68000,34500
68300,35000
" /> 
<text x="68150" y="34040"
textLength="2300" font-size="660" lengthAdjust="spacingAndGlyphs"
text-anchor="middle" opacity="0">+3.3V</text>
<path d="M67150 33820
L67530 33820
" />
<path d="M67340 34010
L67340 33630
" />
<path d="M67720 33510
L68030 33510
L67860 33700
L67930 33700
L67980 33730
L68000 33750
L68030 33800
L68030 33920
L68000 33960
L67980 33990
L67930 34010
L67790 34010
L67740 33990
L67720 33960
" />
<path d="M68240 33960
L68260 33990
L68240 34010
L68220 33990
L68240 33960
L68240 34010
" />
<path d="M68430 33510
L68740 33510
L68570 33700
L68650 33700
L68690 33730
L68720 33750
L68740 33800
L68740 33920
L68720 33960
L68690 33990
L68650 34010
L68500 34010
L68450 33990
L68430 33960
" />
<path d="M68880 33510
L69050 34010
L69220 33510
" />
</g>
</g>
<g style="fill:#000000; fill-opacity:0.0; 
stroke:#000000; stroke-width:0; stroke-opacity:1; 
stroke-linecap:round; stroke-linejoin:round;">
<g >
</g>
<g style="fill:#000000; fill-opacity:0.0; 
stroke:#000000; stroke-width:200; stroke-opacity:1; 
stroke-linecap:round; stroke-linejoin:round;">
<path style="fill:#000000; fill-opacity:0.0; 
stroke:#000000; stroke-width:200; stroke-opacity:1; 
stroke-linecap:round; stroke-linejoin:round;fill:none"
d="M 71700,37800
73300,37800
" /> 
<path style="fill:#000000; fill-opacity:0.0; 
stroke:#000000; stroke-width:200; stroke-opacity:1; 
stroke-linecap:round; stroke-linejoin:round;fill:none"
d="M 71700,37200
73300,37200
" /> 
</g>
<g style="fill:#000000; fill-opacity:0.0; 
stroke:#000000; stroke-width:60; stroke-opacity:1; 
stroke-linecap:round; stroke-linejoin:round;">
<path d="M72500 37100
L72500 36000
" />
<path d="M72500 37900
L72500 39000
" />
<text x="74400" y="37310"
textLength="1510" font-size="660" lengthAdjust="spacingAndGlyphs"
text-anchor="middle" opacity="0">C14</text>
<path d="M74070 37230
L74050 37260
L73980 37280
L73930 37280
L73860 37260
L73810 37210
L73790 37160
L73760 37070
L73760 37000
L73790 36900
L73810 36850
L73860 36810
L73930 36780
L73980 36780
L74050 36810
L74070 36830
" />
<path d="M74550 37280
L74260 37280
" />
<path d="M74410 37280
L74410 36780
L74360 36850
L74310 36900
L74260 36920
" />
<path d="M74980 36950
L74980 37280
" />
<path d="M74860 36760
L74740 37110
L75050 37110
" />
<text x="74530" y="38220"
textLength="1770" font-size="660" lengthAdjust="spacingAndGlyphs"
text-anchor="middle" opacity="0">4.7µ</text>
<path d="M74000 37860
L74000 38190
" />
<path d="M73880 37670
L73760 38020
L74070 38020
" />
<path d="M74260 38140
L74290 38170
L74260 38190
L74240 38170
L74260 38140
L74260 38190
" />
<path d="M74450 37690
L74790 37690
L74570 38190
" />
<path d="M74980 37860
L74980 38360
" />
<path d="M75220 38120
L75240 38170
L75290 38190
" />
<path d="M74980 38120
L75000 38170
L75050 38190
L75140 38190
L75190 38170
L75220 38120
L75220 37860
" />
</g>
</g>
<g style="fill:#000000; fill-opacity:0.0; 
stroke:#000000; stroke-width:0; stroke-opacity:1; 
stroke-linecap:round; stroke-linejoin:round;">
<g >
</g>
<g style="fill:#000000; fill-opacity:0.0; 
stroke:#000000; stroke-width:200; stroke-opacity:1; 
stroke-linecap:round; stroke-linejoin:round;">
<path style="fill:#000000; fill-opacity:0.0; 
stroke:#000000; stroke-width:200; stroke-opacity:1; 
stroke-linecap:round; stroke-linejoin:round;fill:none"
d="M 67200,37800
68800,37800
" /> 
<path style="fill:#000000; fill-opacity:0.0; 
stroke:#000000; stroke-width:200; stroke-opacity:1; 
stroke-linecap:round; stroke-linejoin:round;fill:none"
d="M 67200,37200
68800,37200
" /> 
</g>
<g style="fill:#000000; fill-opacity:0.0; 
stroke:#000000; stroke-width:60; stroke-opacity:1; 
stroke-linecap:round; stroke-linejoin:round;">
<path d="M68000 37100
L68000 36000
" />
<path d="M68000 37900
L68000 39000
" />
<text x="69900" y="37310"
textLength="1510" font-size="660" lengthAdjust="spacingAndGlyphs"
text-anchor="middle" opacity="0">C13</text>
<path d="M69570 37230
L69550 37260
L69480 37280
L69430 37280
L69360 37260
L69310 37210
L69290 37160
L69260 37070
L69260 37000
L69290 36900
L69310 36850
L69360 36810
L69430 36780
L69480 36780
L69550 36810
L69570 36830
" />
<path d="M70050 37280
L69760 37280
" />
<path d="M69910 37280
L69910 36780
L69860 36850
L69810 36900
L69760 36920
" />
<path d="M70220 36780
L70530 36780
L70360 36970
L70430 36970
L70480 37000
L70500 37020
L70530 37070
L70530 37190
L70500 37230
L70480 37260
L70430 37280
L70290 37280
L70240 37260
L70220 37230
" />
<text x="70120" y="38220"
textLength="1940" font-size="660" lengthAdjust="spacingAndGlyphs"
text-anchor="middle" opacity="0">100n</text>
<path d="M69560 38190
L69270 38190
" />
<path d="M69410 38190
L69410 37690
L69370 37760
L69320 37810
L69270 37830
" />
<path d="M69870 37690
L69910 37690
L69960 37720
L69980 37740
L70010 37790
L70030 37880
L70030 38000
L70010 38100
L69980 38140
L69960 38170
L69910 38190
L69870 38190
L69820 38170
L69790 38140
L69770 38100
L69750 38000
L69750 37880
L69770 37790
L69790 37740
L69820 37720
L69870 37690
" />
<path d="M70340 37690
L70390 37690
L70440 37720
L70460 37740
L70480 37790
L70510 37880
L70510 38000
L70480 38100
L70460 38140
L70440 38170
L70390 38190
L70340 38190
L70290 38170
L70270 38140
L70250 38100
L70220 38000
L70220 37880
L70250 37790
L70270 37740
L70290 37720
L70340 37690
" />
<path d="M70720 37860
L70720 38190
" />
<path d="M70720 37910
L70750 37880
L70790 37860
L70870 37860
L70910 37880
L70940 37930
L70940 38190
" />
</g>
</g>
<g style="fill:#000000; fill-opacity:0.0; 
stroke:#000000; stroke-width:0; stroke-opacity:1; 
stroke-linecap:round; stroke-linejoin:round;">
<g >
</g>
<g style="fill:#000000; fill-opacity:0.0; 
stroke:#000000; stroke-width:60; stroke-opacity:1; 
stroke-linecap:round; stroke-linejoin:round;">
<path style="fill:#000000; fill-opacity:0.0; 
stroke:#000000; stroke-width:60; stroke-opacity:1; 
stroke-linecap:round; stroke-linejoin:round;fill:none"
d="M 85000,34700
85500,35000
" /> 
<path style="fill:#000000; fill-opacity:0.0; 
stroke:#000000; stroke-width:60; stroke-opacity:1; 
stroke-linecap:round; stroke-linejoin:round;fill:none"
d="M 84500,35000
85500,35000
" /> 
<path style="fill:#000000; fill-opacity:0.0; 
stroke:#000000; stroke-width:60; stroke-opacity:1; 
stroke-linecap:round; stroke-linejoin:round;fill:none"
d="M 85500,35000
85000,35300
" /> 
<text x="86930" y="35420"
textLength="2300" font-size="660" lengthAdjust="spacingAndGlyphs"
text-anchor="middle" opacity="0">+3.3V</text>
<path d="M85930 35200
L86310 35200
" />
<path d="M86120 35390
L86120 35010
" />
<path d="M86500 34890
L86810 34890
L86640 35080
L86710 35080
L86760 35110
L86780 35130
L86810 35180
L86810 35300
L86780 35340
L86760 35370
L86710 35390
L86570 35390
L86520 35370
L86500 35340
" />
<path d="M87020 35340
L87040 35370
L87020 35390
L87000 35370
L87020 35340
L87020 35390
" />
<path d="M87210 34890
L87520 34890
L87350 35080
L87430 35080
L87470 35110
L87500 35130
L87520 35180
L87520 35300
L87500 35340
L87470 35370
L87430 35390
L87280 35390
L87230 35370
L87210 35340
" />
<path d="M87660 34890
L87830 35390
L88000 34890
" />
</g>
</g>
<g style="fill:#000000; fill-opacity:0.0; 
stroke:#000000; stroke-width:0; stroke-opacity:1; 
stroke-linecap:round; stroke-linejoin:round;">
<g >
</g>
<g style="fill:#000000; fill-opacity:0.0; 
stroke:#000000; stroke-width:60; stroke-opacity:1; 
stroke-linecap:round; stroke-linejoin:round;">
<path style="fill:#000000; fill-opacity:0.0; 
stroke:#000000; stroke-width:60; stroke-opacity:1; 
stroke-linecap:round; stroke-linejoin:round;fill:none"
d="M 85000,37700
85500,38000
" /> 
<path style="fill:#000000; fill-opacity:0.0; 
stroke:#000000; stroke-width:60; stroke-opacity:1; 
stroke-linecap:round; stroke-linejoin:round;fill:none"
d="M 84500,38000
85500,38000
" /> 
<path style="fill:#000000; fill-opacity:0.0; 
stroke:#000000; stroke-width:60; stroke-opacity:1; 
stroke-linecap:round; stroke-linejoin:round;fill:none"
d="M 85500,38000
85000,38300
" /> 
<text x="86930" y="38420"
textLength="2300" font-size="660" lengthAdjust="spacingAndGlyphs"
text-anchor="middle" opacity="0">+3.3V</text>
<path d="M85930 38200
L86310 38200
" />
<path d="M86120 38390
L86120 38010
" />
<path d="M86500 37890
L86810 37890
L86640 38080
L86710 38080
L86760 38110
L86780 38130
L86810 38180
L86810 38300
L86780 38340
L86760 38370
L86710 38390
L86570 38390
L86520 38370
L86500 38340
" />
<path d="M87020 38340
L87040 38370
L87020 38390
L87000 38370
L87020 38340
L87020 38390
" />
<path d="M87210 37890
L87520 37890
L87350 38080
L87430 38080
L87470 38110
L87500 38130
L87520 38180
L87520 38300
L87500 38340
L87470 38370
L87430 38390
L87280 38390
L87230 38370
L87210 38340
" />
<path d="M87660 37890
L87830 38390
L88000 37890
" />
</g>
</g>
<g style="fill:#000000; fill-opacity:0.0; 
stroke:#000000; stroke-width:0; stroke-opacity:1; 
stroke-linecap:round; stroke-linejoin:round;">
<g >
</g>
<g style="fill:#000000; fill-opacity:0.0; 
stroke:#000000; stroke-width:200; stroke-opacity:1; 
stroke-linecap:round; stroke-linejoin:round;">
<path style="fill:#000000; fill-opacity:0.0; 
stroke:#000000; stroke-width:200; stroke-opacity:1; 
stroke-linecap:round; stroke-linejoin:round;fill:none"
d="M 32700,37800
34300,37800
" /> 
<path style="fill:#000000; fill-opacity:0.0; 
stroke:#000000; stroke-width:200; stroke-opacity:1; 
stroke-linecap:round; stroke-linejoin:round;fill:none"
d="M 32700,37200
34300,37200
" /> 
</g>
<g style="fill:#000000; fill-opacity:0.0; 
stroke:#000000; stroke-width:60; stroke-opacity:1; 
stroke-linecap:round; stroke-linejoin:round;">
<path d="M33500 37100
L33500 36000
" />
<path d="M33500 37900
L33500 39000
" />
<text x="35400" y="37310"
textLength="1510" font-size="660" lengthAdjust="spacingAndGlyphs"
text-anchor="middle" opacity="0">C12</text>
<path d="M35070 37230
L35050 37260
L34980 37280
L34930 37280
L34860 37260
L34810 37210
L34790 37160
L34760 37070
L34760 37000
L34790 36900
L34810 36850
L34860 36810
L34930 36780
L34980 36780
L35050 36810
L35070 36830
" />
<path d="M35550 37280
L35260 37280
" />
<path d="M35410 37280
L35410 36780
L35360 36850
L35310 36900
L35260 36920
" />
<path d="M35740 36830
L35760 36810
L35810 36780
L35930 36780
L35980 36810
L36000 36830
L36030 36880
L36030 36920
L36000 37000
L35720 37280
L36030 37280
" />
<text x="35620" y="38220"
textLength="1940" font-size="660" lengthAdjust="spacingAndGlyphs"
text-anchor="middle" opacity="0">100n</text>
<path d="M35060 38190
L34770 38190
" />
<path d="M34910 38190
L34910 37690
L34870 37760
L34820 37810
L34770 37830
" />
<path d="M35370 37690
L35410 37690
L35460 37720
L35480 37740
L35510 37790
L35530 37880
L35530 38000
L35510 38100
L35480 38140
L35460 38170
L35410 38190
L35370 38190
L35320 38170
L35290 38140
L35270 38100
L35250 38000
L35250 37880
L35270 37790
L35290 37740
L35320 37720
L35370 37690
" />
<path d="M35840 37690
L35890 37690
L35940 37720
L35960 37740
L35980 37790
L36010 37880
L36010 38000
L35980 38100
L35960 38140
L35940 38170
L35890 38190
L35840 38190
L35790 38170
L35770 38140
L35750 38100
L35720 38000
L35720 37880
L35750 37790
L35770 37740
L35790 37720
L35840 37690
" />
<path d="M36220 37860
L36220 38190
" />
<path d="M36220 37910
L36250 37880
L36290 37860
L36360 37860
L36410 37880
L36440 37930
L36440 38190
" />
</g>
</g>
<g style="fill:#000000; fill-opacity:0.0; 
stroke:#000000; stroke-width:0; stroke-opacity:1; 
stroke-linecap:round; stroke-linejoin:round;">
<g >
</g>
<g style="fill:#000000; fill-opacity:0.0; 
stroke:#000000; stroke-width:60; stroke-opacity:1; 
stroke-linecap:round; stroke-linejoin:round;">
<path style="fill:#000000; fill-opacity:0.0; 
stroke:#000000; stroke-width:60; stroke-opacity:1; 
stroke-linecap:round; stroke-linejoin:round;fill:none"
d="M 40500,37000
40000,37000
40000,37500
39500,37000
40000,36500
40000,37000
" /> 
<text x="38430" y="37320"
textLength="1580" font-size="660" lengthAdjust="spacingAndGlyphs"
text-anchor="middle" opacity="0">GND</text>
<path d="M38040 36820
L38000 36790
L37930 36790
L37850 36820
L37810 36860
L37780 36910
L37760 37010
L37760 37080
L37780 37170
L37810 37220
L37850 37270
L37930 37290
L37970 37290
L38040 37270
L38070 37240
L38070 37080
L37970 37080
" />
<path d="M38280 37290
L38280 36790
L38570 37290
L38570 36790
" />
<path d="M38810 37290
L38810 36790
L38930 36790
L39000 36820
L39040 36860
L39070 36910
L39090 37010
L39090 37080
L39070 37170
L39040 37220
L39000 37270
L38930 37290
L38810 37290
" />
</g>
</g>
<g style="fill:#000000; fill-opacity:0.0; 
stroke:#000000; stroke-width:0; stroke-opacity:1; 
stroke-linecap:round; stroke-linejoin:round;">
<g >
</g>
<g style="fill:#000000; fill-opacity:0.0; 
stroke:#000000; stroke-width:60; stroke-opacity:1; 
stroke-linecap:round; stroke-linejoin:round;">
<path style="fill:#000000; fill-opacity:0.0; 
stroke:#000000; stroke-width:60; stroke-opacity:1; 
stroke-linecap:round; stroke-linejoin:round;fill:none"
d="M 62000,36700
62500,37000
" /> 
<path style="fill:#000000; fill-opacity:0.0; 
stroke:#000000; stroke-width:60; stroke-opacity:1; 
stroke-linecap:round; stroke-linejoin:round;fill:none"
d="M 61500,37000
62500,37000
" /> 
<path style="fill:#000000; fill-opacity:0.0; 
stroke:#000000; stroke-width:60; stroke-opacity:1; 
stroke-linecap:round; stroke-linejoin:round;fill:none"
d="M 62500,37000
62000,37300
" /> 
<text x="63930" y="37420"
textLength="2300" font-size="660" lengthAdjust="spacingAndGlyphs"
text-anchor="middle" opacity="0">+3.3V</text>
<path d="M62930 37200
L63310 37200
" />
<path d="M63120 37390
L63120 37010
" />
<path d="M63500 36890
L63810 36890
L63640 37080
L63710 37080
L63760 37110
L63780 37130
L63810 37180
L63810 37300
L63780 37340
L63760 37370
L63710 37390
L63570 37390
L63520 37370
L63500 37340
" />
<path d="M64020 37340
L64040 37370
L64020 37390
L64000 37370
L64020 37340
L64020 37390
" />
<path d="M64210 36890
L64520 36890
L64350 37080
L64430 37080
L64470 37110
L64500 37130
L64520 37180
L64520 37300
L64500 37340
L64470 37370
L64430 37390
L64280 37390
L64230 37370
L64210 37340
" />
<path d="M64660 36890
L64830 37390
L65000 36890
" />
</g>
</g>
<g style="fill:#000000; fill-opacity:0.0; 
stroke:#000000; stroke-width:0; stroke-opacity:1; 
stroke-linecap:round; stroke-linejoin:round;">
<g >
</g>
<g style="fill:#000000; fill-opacity:0.0; 
stroke:#000000; stroke-width:60; stroke-opacity:1; 
stroke-linecap:round; stroke-linejoin:round;">
<path style="fill:#000000; fill-opacity:0.0; 
stroke:#000000; stroke-width:60; stroke-opacity:1; 
stroke-linecap:round; stroke-linejoin:round;fill:none"
d="M 61500,36000
62000,36000
62000,35500
62500,36000
62000,36500
62000,36000
" /> 
<text x="63570" y="36170"
textLength="1580" font-size="660" lengthAdjust="spacingAndGlyphs"
text-anchor="middle" opacity="0">GND</text>
<path d="M63180 35670
L63140 35640
L63070 35640
L62990 35670
L62950 35710
L62920 35760
L62900 35860
L62900 35930
L62920 36020
L62950 36070
L62990 36120
L63070 36140
L63110 36140
L63180 36120
L63210 36090
L63210 35930
L63110 35930
" />
<path d="M63420 36140
L63420 35640
L63710 36140
L63710 35640
" />
<path d="M63950 36140
L63950 35640
L64070 35640
L64140 35670
L64180 35710
L64210 35760
L64230 35860
L64230 35930
L64210 36020
L64180 36070
L64140 36120
L64070 36140
L63950 36140
" />
</g>
</g>
<g style="fill:#000000; fill-opacity:0.0; 
stroke:#000000; stroke-width:0; stroke-opacity:1; 
stroke-linecap:round; stroke-linejoin:round;">
<g >
</g>
<g style="fill:#000000; fill-opacity:0.0; 
stroke:#000000; stroke-width:60; stroke-opacity:1; 
stroke-linecap:round; stroke-linejoin:round;">
<path style="fill:#000000; fill-opacity:0.0; 
stroke:#000000; stroke-width:60; stroke-opacity:1; 
stroke-linecap:round; stroke-linejoin:round;fill:none"
d="M 33500,39500
33500,40000
34000,40000
33500,40500
33000,40000
33500,40000
" /> 
<text x="33550" y="41500"
textLength="1580" font-size="660" lengthAdjust="spacingAndGlyphs"
text-anchor="middle" opacity="0">GND</text>
<path d="M33160 41000
L33120 40970
L33050 40970
L32970 41000
L32930 41040
L32900 41090
L32880 41190
L32880 41260
L32900 41350
L32930 41400
L32970 41450
L33050 41470
L33090 41470
L33160 41450
L33190 41420
L33190 41260
L33090 41260
" />
<path d="M33400 41470
L33400 40970
L33690 41470
L33690 40970
" />
<path d="M33930 41470
L33930 40970
L34050 40970
L34120 41000
L34160 41040
L34190 41090
L34210 41190
L34210 41260
L34190 41350
L34160 41400
L34120 41450
L34050 41470
L33930 41470
" />
</g>
</g>
<g style="fill:#000000; fill-opacity:0.0; 
stroke:#000000; stroke-width:0; stroke-opacity:1; 
stroke-linecap:round; stroke-linejoin:round;">
<g >
</g>
<g style="fill:#000000; fill-opacity:0.0; 
stroke:#000000; stroke-width:60; stroke-opacity:1; 
stroke-linecap:round; stroke-linejoin:round;">
<path style="fill:#000000; fill-opacity:0.0; 
stroke:#000000; stroke-width:60; stroke-opacity:1; 
stroke-linecap:round; stroke-linejoin:round;fill:none"
d="M 40000,36300
39500,36000
" /> 
<path style="fill:#000000; fill-opacity:0.0; 
stroke:#000000; stroke-width:60; stroke-opacity:1; 
stroke-linecap:round; stroke-linejoin:round;fill:none"
d="M 40500,36000
39500,36000
" /> 
<path style="fill:#000000; fill-opacity:0.0; 
stroke:#000000; stroke-width:60; stroke-opacity:1; 
stroke-linecap:round; stroke-linejoin:round;fill:none"
d="M 39500,36000
40000,35700
" /> 
<text x="38070" y="36070"
textLength="2300" font-size="660" lengthAdjust="spacingAndGlyphs"
text-anchor="middle" opacity="0">+3.3V</text>
<path d="M37070 35850
L37450 35850
" />
<path d="M37260 36040
L37260 35660
" />
<path d="M37640 35540
L37950 35540
L37780 35730
L37850 35730
L37900 35760
L37920 35780
L37950 35830
L37950 35950
L37920 35990
L37900 36020
L37850 36040
L37710 36040
L37660 36020
L37640 35990
" />
<path d="M38160 35990
L38180 36020
L38160 36040
L38140 36020
L38160 35990
L38160 36040
" />
<path d="M38350 35540
L38660 35540
L38490 35730
L38570 35730
L38610 35760
L38640 35780
L38660 35830
L38660 35950
L38640 35990
L38610 36020
L38570 36040
L38420 36040
L38370 36020
L38350 35990
" />
<path d="M38800 35540
L38970 36040
L39140 35540
" />
</g>
</g>
<g style="fill:#000000; fill-opacity:0.0; 
stroke:#000000; stroke-width:0; stroke-opacity:1; 
stroke-linecap:round; stroke-linejoin:round;">
<g >
</g>
<g style="fill:#000000; fill-opacity:0.0; 
stroke:#000000; stroke-width:60; stroke-opacity:1; 
stroke-linecap:round; stroke-linejoin:round;">
<path style="fill:#000000; fill-opacity:0.0; 
stroke:#000000; stroke-width:60; stroke-opacity:1; 
stroke-linecap:round; stroke-linejoin:round;fill:none"
d="M 40500,38000
40000,38000
40000,38500
39500,38000
40000,37500
40000,38000
" /> 
<text x="38430" y="38320"
textLength="1580" font-size="660" lengthAdjust="spacingAndGlyphs"
text-anchor="middle" opacity="0">GND</text>
<path d="M38040 37820
L38000 37790
L37930 37790
L37850 37820
L37810 37860
L37780 37910
L37760 38010
L37760 38080
L37780 38170
L37810 38220
L37850 38270
L37930 38290
L37970 38290
L38040 38270
L38070 38240
L38070 38080
L37970 38080
" />
<path d="M38280 38290
L38280 37790
L38570 38290
L38570 37790
" />
<path d="M38810 38290
L38810 37790
L38930 37790
L39000 37820
L39040 37860
L39070 37910
L39090 38010
L39090 38080
L39070 38170
L39040 38220
L39000 38270
L38930 38290
L38810 38290
" />
</g>
</g>
<g style="fill:#000000; fill-opacity:0.0; 
stroke:#000000; stroke-width:0; stroke-opacity:1; 
stroke-linecap:round; stroke-linejoin:round;">
<g >
</g>
<g style="fill:#000000; fill-opacity:0.0; 
stroke:#000000; stroke-width:60; stroke-opacity:1; 
stroke-linecap:round; stroke-linejoin:round;">
<path style="fill:#000000; fill-opacity:0.0; 
stroke:#000000; stroke-width:60; stroke-opacity:1; 
stroke-linecap:round; stroke-linejoin:round;fill:none"
d="M 40500,39000
40000,39000
40000,39500
39500,39000
40000,38500
40000,39000
" /> 
<text x="38430" y="39320"
textLength="1580" font-size="660" lengthAdjust="spacingAndGlyphs"
text-anchor="middle" opacity="0">GND</text>
<path d="M38040 38820
L38000 38790
L37930 38790
L37850 38820
L37810 38860
L37780 38910
L37760 39010
L37760 39080
L37780 39170
L37810 39220
L37850 39270
L37930 39290
L37970 39290
L38040 39270
L38070 39240
L38070 39080
L37970 39080
" />
<path d="M38280 39290
L38280 38790
L38570 39290
L38570 38790
" />
<path d="M38810 39290
L38810 38790
L38930 38790
L39000 38820
L39040 38860
L39070 38910
L39090 39010
L39090 39080
L39070 39170
L39040 39220
L39000 39270
L38930 39290
L38810 39290
" />
</g>
</g>
<g style="fill:#000000; fill-opacity:0.0; 
stroke:#000000; stroke-width:0; stroke-opacity:1; 
stroke-linecap:round; stroke-linejoin:round;">
<g >
</g>
<g style="fill:#000000; fill-opacity:0.0; 
stroke:#000000; stroke-width:60; stroke-opacity:1; 
stroke-linecap:round; stroke-linejoin:round;">
<path style="fill:#000000; fill-opacity:0.0; 
stroke:#000000; stroke-width:60; stroke-opacity:1; 
stroke-linecap:round; stroke-linejoin:round;fill:none"
d="M 33200,35000
33500,34500
" /> 
<path style="fill:#000000; fill-opacity:0.0; 
stroke:#000000; stroke-width:60; stroke-opacity:1; 
stroke-linecap:round; stroke-linejoin:round;fill:none"
d="M 33500,35500
33500,34500
" /> 
<path style="fill:#000000; fill-opacity:0.0; 
stroke:#000000; stroke-width:60; stroke-opacity:1; 
stroke-linecap:round; stroke-linejoin:round;fill:none"
d="M 33500,34500
33800,35000
" /> 
<text x="33650" y="34040"
textLength="2300" font-size="660" lengthAdjust="spacingAndGlyphs"
text-anchor="middle" opacity="0">+3.3V</text>
<path d="M32650 33820
L33030 33820
" />
<path d="M32840 34010
L32840 33630
" />
<path d="M33220 33510
L33530 33510
L33360 33700
L33430 33700
L33480 33730
L33500 33750
L33530 33800
L33530 33920
L33500 33960
L33480 33990
L33430 34010
L33290 34010
L33240 33990
L33220 33960
" />
<path d="M33740 33960
L33760 33990
L33740 34010
L33720 33990
L33740 33960
L33740 34010
" />
<path d="M33930 33510
L34240 33510
L34070 33700
L34150 33700
L34190 33730
L34220 33750
L34240 33800
L34240 33920
L34220 33960
L34190 33990
L34150 34010
L34000 34010
L33950 33990
L33930 33960
" />
<path d="M34380 33510
L34550 34010
L34720 33510
" />
</g>
</g>
<g style="fill:#000000; fill-opacity:0.0; 
stroke:#000000; stroke-width:0; stroke-opacity:1; 
stroke-linecap:round; stroke-linejoin:round;">
<g >
</g>
<g style="fill:#000000; fill-opacity:0.0; 
stroke:#000000; stroke-width:60; stroke-opacity:1; 
stroke-linecap:round; stroke-linejoin:round;">
<path style="fill:#000000; fill-opacity:0.0; 
stroke:#000000; stroke-width:60; stroke-opacity:1; 
stroke-linecap:round; stroke-linejoin:round;fill:none"
d="M 40500,41000
40000,41000
40000,41500
39500,41000
40000,40500
40000,41000
" /> 
<text x="38430" y="41320"
textLength="1580" font-size="660" lengthAdjust="spacingAndGlyphs"
text-anchor="middle" opacity="0">GND</text>
<path d="M38040 40820
L38000 40790
L37930 40790
L37850 40820
L37810 40860
L37780 40910
L37760 41010
L37760 41080
L37780 41170
L37810 41220
L37850 41270
L37930 41290
L37970 41290
L38040 41270
L38070 41240
L38070 41080
L37970 41080
" />
<path d="M38280 41290
L38280 40790
L38570 41290
L38570 40790
" />
<path d="M38810 41290
L38810 40790
L38930 40790
L39000 40820
L39040 40860
L39070 40910
L39090 41010
L39090 41080
L39070 41170
L39040 41220
L39000 41270
L38930 41290
L38810 41290
" />
</g>
</g>
<g style="fill:#000000; fill-opacity:0.0; 
stroke:#000000; stroke-width:60; stroke-opacity:1; 
stroke-linecap:round; stroke-linejoin:round;">
<path d="M33500 36000
L33500 35500
" />
<path d="M33500 39500
L33500 39000
" />
<path d="M68000 39500
L68000 39000
" />
<path d="M68000 36000
L68000 35500
" />
<path d="M72500 35500
L72500 36000
" />
<path d="M72500 39000
L72500 39500
" />
<path d="M80500 35000
L81000 35000
" />
<path d="M81000 38000
L80500 38000
" />
<path d="M84000 35000
L84500 35000
" />
<path d="M84500 38000
L84000 38000
" />
<path d="M41000 41000
L40500 41000
" />
<path d="M40500 40000
L41000 40000
" />
<path d="M41000 39000
L40500 39000
" />
<path d="M40500 38000
L41000 38000
" />
<path d="M41000 37000
L40500 37000
" />
<path d="M40500 36000
L41000 36000
" />
<path d="M61500 36000
L61000 36000
" />
<path d="M61000 37000
L61500 37000
" />
<path d="M61500 38000
L61000 38000
" />
<path d="M61000 39000
L61500 39000
" />
<path d="M61500 41000
L61000 41000
" />
<text x="61810" y="41250"
textLength="2920" font-size="660" lengthAdjust="spacingAndGlyphs"
text-anchor="start" opacity="0">GPIOI_0</text>
<path d="M62220 40750
L62170 40720
L62100 40720
L62030 40750
L61980 40790
L61950 40840
L61930 40940
L61930 41010
L61950 41100
L61980 41150
L62030 41200
L62100 41220
L62140 41220
L62220 41200
L62240 41170
L62240 41010
L62140 41010
" />
<path d="M62450 41220
L62450 40720
L62640 40720
L62690 40750
L62720 40770
L62740 40820
L62740 40890
L62720 40940
L62690 40960
L62640 40980
L62450 40980
" />
<path d="M62950 41220
L62950 40720
" />
<path d="M63290 40720
L63380 40720
L63430 40750
L63480 40790
L63500 40890
L63500 41050
L63480 41150
L63430 41200
L63380 41220
L63290 41220
L63240 41200
L63190 41150
L63170 41050
L63170 40890
L63190 40790
L63240 40750
L63290 40720
" />
<path d="M63720 41220
L63720 40720
" />
<path d="M63840 41270
L64220 41270
" />
<path d="M64430 40720
L64480 40720
L64530 40750
L64550 40770
L64570 40820
L64600 40910
L64600 41030
L64570 41130
L64550 41170
L64530 41200
L64480 41220
L64430 41220
L64380 41200
L64360 41170
L64340 41130
L64310 41030
L64310 40910
L64340 40820
L64360 40770
L64380 40750
L64430 40720
" />
</g>
<g style="fill:#000000; fill-opacity:0.0; 
stroke:#000000; stroke-width:100; stroke-opacity:1; 
stroke-linecap:round; stroke-linejoin:round;">
<path style="fill:#000000; fill-opacity:0.0; 
stroke:#000000; stroke-width:100; stroke-opacity:1; 
stroke-linecap:round; stroke-linejoin:round;fill:none"
d="M 61500,41000
61750,41440
64840,41440
64840,41000
64840,40560
61750,40560
Z" /> 
</g>
<g style="fill:#000000; fill-opacity:0.0; 
stroke:#000000; stroke-width:60; stroke-opacity:1; 
stroke-linecap:round; stroke-linejoin:round;">
<text x="80190" y="35250"
textLength="2920" font-size="660" lengthAdjust="spacingAndGlyphs"
text-anchor="end" opacity="0">GPIOI_0</text>
<path d="M77680 34750
L77630 34720
L77560 34720
L77490 34750
L77440 34790
L77420 34840
L77390 34940
L77390 35010
L77420 35100
L77440 35150
L77490 35200
L77560 35220
L77610 35220
L77680 35200
L77700 35170
L77700 35010
L77610 35010
" />
<path d="M77920 35220
L77920 34720
L78110 34720
L78160 34750
L78180 34770
L78200 34820
L78200 34890
L78180 34940
L78160 34960
L78110 34980
L77920 34980
" />
<path d="M78420 35220
L78420 34720
" />
<path d="M78750 34720
L78850 34720
L78890 34750
L78940 34790
L78960 34890
L78960 35050
L78940 35150
L78890 35200
L78850 35220
L78750 35220
L78700 35200
L78660 35150
L78630 35050
L78630 34890
L78660 34790
L78700 34750
L78750 34720
" />
<path d="M79180 35220
L79180 34720
" />
<path d="M79300 35270
L79680 35270
" />
<path d="M79890 34720
L79940 34720
L79990 34750
L80010 34770
L80040 34820
L80060 34910
L80060 35030
L80040 35130
L80010 35170
L79990 35200
L79940 35220
L79890 35220
L79850 35200
L79820 35170
L79800 35130
L79770 35030
L79770 34910
L79800 34820
L79820 34770
L79850 34750
L79890 34720
" />
</g>
<g style="fill:#000000; fill-opacity:0.0; 
stroke:#000000; stroke-width:100; stroke-opacity:1; 
stroke-linecap:round; stroke-linejoin:round;">
<path style="fill:#000000; fill-opacity:0.0; 
stroke:#000000; stroke-width:100; stroke-opacity:1; 
stroke-linecap:round; stroke-linejoin:round;fill:none"
d="M 80500,35000
80250,34560
77160,34560
77160,35000
77160,35440
80250,35440
Z" /> 
</g>
<g style="fill:#000000; fill-opacity:0.0; 
stroke:#000000; stroke-width:60; stroke-opacity:1; 
stroke-linecap:round; stroke-linejoin:round;">
<text x="61810" y="38250"
textLength="1440" font-size="660" lengthAdjust="spacingAndGlyphs"
text-anchor="start" opacity="0">SCL</text>
<path d="M61930 38200
L62000 38220
L62120 38220
L62170 38200
L62190 38170
L62220 38130
L62220 38080
L62190 38030
L62170 38010
L62120 37980
L62030 37960
L61980 37940
L61950 37910
L61930 37860
L61930 37820
L61950 37770
L61980 37750
L62030 37720
L62140 37720
L62220 37750
" />
<path d="M62720 38170
L62690 38200
L62620 38220
L62570 38220
L62500 38200
L62450 38150
L62430 38100
L62410 38010
L62410 37940
L62430 37840
L62450 37790
L62500 37750
L62570 37720
L62620 37720
L62690 37750
L62720 37770
" />
<path d="M63170 38220
L62930 38220
L62930 37720
" />
</g>
<g style="fill:#000000; fill-opacity:0.0; 
stroke:#000000; stroke-width:100; stroke-opacity:1; 
stroke-linecap:round; stroke-linejoin:round;">
<path style="fill:#000000; fill-opacity:0.0; 
stroke:#000000; stroke-width:100; stroke-opacity:1; 
stroke-linecap:round; stroke-linejoin:round;fill:none"
d="M 61500,38000
61750,38440
63360,38440
63360,38000
63360,37560
61750,37560
Z" /> 
</g>
<g style="fill:#000000; fill-opacity:0.0; 
stroke:#000000; stroke-width:60; stroke-opacity:1; 
stroke-linecap:round; stroke-linejoin:round;">
<text x="61810" y="39250"
textLength="1460" font-size="660" lengthAdjust="spacingAndGlyphs"
text-anchor="start" opacity="0">SDA</text>
<path d="M61930 39200
L62000 39220
L62120 39220
L62170 39200
L62190 39170
L62220 39130
L62220 39080
L62190 39030
L62170 39010
L62120 38980
L62030 38960
L61980 38940
L61950 38910
L61930 38860
L61930 38820
L61950 38770
L61980 38750
L62030 38720
L62140 38720
L62220 38750
" />
<path d="M62430 39220
L62430 38720
L62550 38720
L62620 38750
L62670 38790
L62690 38840
L62720 38940
L62720 39010
L62690 39100
L62670 39150
L62620 39200
L62550 39220
L62430 39220
" />
<path d="M62910 39080
L63140 39080
" />
<path d="M62860 39220
L63030 38720
L63190 39220
" />
</g>
<g style="fill:#000000; fill-opacity:0.0; 
stroke:#000000; stroke-width:100; stroke-opacity:1; 
stroke-linecap:round; stroke-linejoin:round;">
<path style="fill:#000000; fill-opacity:0.0; 
stroke:#000000; stroke-width:100; stroke-opacity:1; 
stroke-linecap:round; stroke-linejoin:round;fill:none"
d="M 61500,39000
61750,39440
63380,39440
63380,39000
63380,38560
61750,38560
Z" /> 
</g>
<g style="fill:#000000; fill-opacity:0.0; 
stroke:#000000; stroke-width:60; stroke-opacity:1; 
stroke-linecap:round; stroke-linejoin:round;">
<text x="40190" y="40250"
textLength="3300" font-size="660" lengthAdjust="spacingAndGlyphs"
text-anchor="end" opacity="0">XSHUT_0</text>
<path d="M36990 39720
L37320 40220
" />
<path d="M37320 39720
L36990 40220
" />
<path d="M37490 40200
L37560 40220
L37680 40220
L37730 40200
L37750 40170
L37770 40130
L37770 40080
L37750 40030
L37730 40010
L37680 39980
L37580 39960
L37540 39940
L37510 39910
L37490 39860
L37490 39820
L37510 39770
L37540 39750
L37580 39720
L37700 39720
L37770 39750
" />
<path d="M37990 40220
L37990 39720
" />
<path d="M37990 39960
L38270 39960
" />
<path d="M38270 40220
L38270 39720
" />
<path d="M38510 39720
L38510 40130
L38540 40170
L38560 40200
L38610 40220
L38700 40220
L38750 40200
L38770 40170
L38800 40130
L38800 39720
" />
<path d="M38960 39720
L39250 39720
" />
<path d="M39110 40220
L39110 39720
" />
<path d="M39300 40270
L39680 40270
" />
<path d="M39890 39720
L39940 39720
L39990 39750
L40010 39770
L40040 39820
L40060 39910
L40060 40030
L40040 40130
L40010 40170
L39990 40200
L39940 40220
L39890 40220
L39850 40200
L39820 40170
L39800 40130
L39770 40030
L39770 39910
L39800 39820
L39820 39770
L39850 39750
L39890 39720
" />
</g>
<g style="fill:#000000; fill-opacity:0.0; 
stroke:#000000; stroke-width:100; stroke-opacity:1; 
stroke-linecap:round; stroke-linejoin:round;">
<path style="fill:#000000; fill-opacity:0.0; 
stroke:#000000; stroke-width:100; stroke-opacity:1; 
stroke-linecap:round; stroke-linejoin:round;fill:none"
d="M 40500,40000
40250,39560
36780,39560
36780,40000
36780,40440
40250,40440
Z" /> 
</g>
<g style="fill:#000000; fill-opacity:0.0; 
stroke:#000000; stroke-width:60; stroke-opacity:1; 
stroke-linecap:round; stroke-linejoin:round;">
<text x="80190" y="38250"
textLength="3300" font-size="660" lengthAdjust="spacingAndGlyphs"
text-anchor="end" opacity="0">XSHUT_0</text>
<path d="M76990 37720
L77320 38220
" />
<path d="M77320 37720
L76990 38220
" />
<path d="M77490 38200
L77560 38220
L77680 38220
L77730 38200
L77750 38170
L77770 38130
L77770 38080
L77750 38030
L77730 38010
L77680 37980
L77580 37960
L77540 37940
L77510 37910
L77490 37860
L77490 37820
L77510 37770
L77540 37750
L77580 37720
L77700 37720
L77770 37750
" />
<path d="M77990 38220
L77990 37720
" />
<path d="M77990 37960
L78270 37960
" />
<path d="M78270 38220
L78270 37720
" />
<path d="M78510 37720
L78510 38130
L78540 38170
L78560 38200
L78610 38220
L78700 38220
L78750 38200
L78770 38170
L78800 38130
L78800 37720
" />
<path d="M78960 37720
L79250 37720
" />
<path d="M79110 38220
L79110 37720
" />
<path d="M79300 38270
L79680 38270
" />
<path d="M79890 37720
L79940 37720
L79990 37750
L80010 37770
L80040 37820
L80060 37910
L80060 38030
L80040 38130
L80010 38170
L79990 38200
L79940 38220
L79890 38220
L79850 38200
L79820 38170
L79800 38130
L79770 38030
L79770 37910
L79800 37820
L79820 37770
L79850 37750
L79890 37720
" />
</g>
<g style="fill:#000000; fill-opacity:0.0; 
stroke:#000000; stroke-width:100; stroke-opacity:1; 
stroke-linecap:round; stroke-linejoin:round;">
<path style="fill:#000000; fill-opacity:0.0; 
stroke:#000000; stroke-width:100; stroke-opacity:1; 
stroke-linecap:round; stroke-linejoin:round;fill:none"
d="M 80500,38000
80250,37560
76780,37560
76780,38000
76780,38440
80250,38440
Z" /> 
</g> 
</svg>
