<?xml version="1.0" standalone="no"?>
 <!DOCTYPE svg PUBLIC "-//W3C//DTD SVG 1.1//EN" 
 "http://www.w3.org/Graphics/SVG/1.1/DTD/svg11.dtd"> 
<svg
  xmlns:svg="http://www.w3.org/2000/svg"
  xmlns="http://www.w3.org/2000/svg"
  xmlns:xlink="http://www.w3.org/1999/xlink"
  version="1.1"
  width="29.700220cm" height="21.000720cm" viewBox="0 0 116930 82680">
<title>SVG Picture created as VL53L3CX_CENTER-VL53L3CX center.svg date 2022/02/21 15:03:05 </title>
  <desc>Picture generated by Eeschema-SVG </desc>
<g style="fill:#000000; fill-opacity:1;stroke:#000000; stroke-opacity:1;
stroke-linecap:round; stroke-linejoin:round;"
 transform="translate(0 0) scale(1 1)">
</g>
<g style="fill:#000000; fill-opacity:0.0; 
stroke:#000000; stroke-width:0; stroke-opacity:1; 
stroke-linecap:round; stroke-linejoin:round;">
<g >
</g>
<g style="fill:#000000; fill-opacity:0.0; 
stroke:#000000; stroke-width:50; stroke-opacity:1; 
stroke-linecap:round; stroke-linejoin:round;">
<path style="fill:#000000; fill-opacity:0.0; 
stroke:#000000; stroke-width:50; stroke-opacity:1; 
stroke-linecap:round; stroke-linejoin:round;fill:none"
d="M 45500,34000
45500,43000
" /> 
<path style="fill:#000000; fill-opacity:0.0; 
stroke:#000000; stroke-width:50; stroke-opacity:1; 
stroke-linecap:round; stroke-linejoin:round;fill:none"
d="M 45500,43000
59500,43000
" /> 
<path style="fill:#000000; fill-opacity:0.0; 
stroke:#000000; stroke-width:50; stroke-opacity:1; 
stroke-linecap:round; stroke-linejoin:round;fill:none"
d="M 59500,43000
59500,34000
" /> 
<path style="fill:#000000; fill-opacity:0.0; 
stroke:#000000; stroke-width:50; stroke-opacity:1; 
stroke-linecap:round; stroke-linejoin:round;fill:none"
d="M 59500,34000
45500,34000
" /> 
</g>
<g style="fill:#000000; fill-opacity:0.0; 
stroke:#000000; stroke-width:60; stroke-opacity:1; 
stroke-linecap:round; stroke-linejoin:round;">
<path d="M45500 36000
L42500 36000
" />
<text x="45600" y="36290"
textLength="4920" font-size="780" lengthAdjust="spacingAndGlyphs"
text-anchor="start" opacity="0">AVDDVCSEL</text>
<path d="M45740 36090
L46020 36090
" />
<path d="M45680 36260
L45880 35670
L46070 36260
" />
<path d="M46190 35670
L46380 36260
L46580 35670
" />
<path d="M46780 36260
L46780 35670
L46920 35670
L47000 35700
L47060 35760
L47090 35810
L47110 35920
L47110 36010
L47090 36120
L47060 36180
L47000 36230
L46920 36260
L46780 36260
" />
<path d="M47370 36260
L47370 35670
L47510 35670
L47590 35700
L47650 35760
L47680 35810
L47700 35920
L47700 36010
L47680 36120
L47650 36180
L47590 36230
L47510 36260
L47370 36260
" />
<path d="M47870 35670
L48070 36260
L48270 35670
" />
<path d="M48800 36210
L48770 36230
L48690 36260
L48630 36260
L48550 36230
L48490 36180
L48460 36120
L48430 36010
L48430 35920
L48460 35810
L48490 35760
L48550 35700
L48630 35670
L48690 35670
L48770 35700
L48800 35730
" />
<path d="M49020 36230
L49110 36260
L49250 36260
L49310 36230
L49330 36210
L49360 36150
L49360 36090
L49330 36040
L49310 36010
L49250 35980
L49140 35950
L49080 35920
L49050 35900
L49020 35840
L49020 35780
L49050 35730
L49080 35700
L49140 35670
L49280 35670
L49360 35700
" />
<path d="M49610 35950
L49810 35950
" />
<path d="M49900 36260
L49610 36260
L49610 35670
L49900 35670
" />
<path d="M50430 36260
L50150 36260
L50150 35670
" />
<text x="44000" y="35900"
textLength="620" font-size="780" lengthAdjust="spacingAndGlyphs"
text-anchor="middle" opacity="0">1</text>
<path d="M44160 35870
L43830 35870
" />
<path d="M44000 35870
L44000 35280
L43940 35360
L43880 35420
L43830 35450
" />
<path d="M45500 37000
L42500 37000
" />
<text x="45600" y="37290"
textLength="4860" font-size="780" lengthAdjust="spacingAndGlyphs"
text-anchor="start" opacity="0">AVSSVCSEL</text>
<path d="M45740 37090
L46020 37090
" />
<path d="M45680 37260
L45880 36670
L46070 37260
" />
<path d="M46190 36670
L46380 37260
L46580 36670
" />
<path d="M46750 37230
L46830 37260
L46970 37260
L47030 37230
L47060 37210
L47090 37150
L47090 37090
L47060 37040
L47030 37010
L46970 36980
L46860 36950
L46810 36920
L46780 36900
L46750 36840
L46750 36780
L46780 36730
L46810 36700
L46860 36670
L47000 36670
L47090 36700
" />
<path d="M47310 37230
L47400 37260
L47540 37260
L47590 37230
L47620 37210
L47650 37150
L47650 37090
L47620 37040
L47590 37010
L47540 36980
L47420 36950
L47370 36920
L47340 36900
L47310 36840
L47310 36780
L47340 36730
L47370 36700
L47420 36670
L47560 36670
L47650 36700
" />
<path d="M47820 36670
L48010 37260
L48210 36670
" />
<path d="M48740 37210
L48720 37230
L48630 37260
L48580 37260
L48490 37230
L48430 37180
L48410 37120
L48380 37010
L48380 36920
L48410 36810
L48430 36760
L48490 36700
L48580 36670
L48630 36670
L48720 36700
L48740 36730
" />
<path d="M48970 37230
L49050 37260
L49190 37260
L49250 37230
L49280 37210
L49310 37150
L49310 37090
L49280 37040
L49250 37010
L49190 36980
L49080 36950
L49020 36920
L49000 36900
L48970 36840
L48970 36780
L49000 36730
L49020 36700
L49080 36670
L49220 36670
L49310 36700
" />
<path d="M49560 36950
L49760 36950
" />
<path d="M49840 37260
L49560 37260
L49560 36670
L49840 36670
" />
<path d="M50370 37260
L50090 37260
L50090 36670
" />
<text x="44000" y="36900"
textLength="620" font-size="780" lengthAdjust="spacingAndGlyphs"
text-anchor="middle" opacity="0">2</text>
<path d="M43830 36330
L43850 36310
L43910 36280
L44050 36280
L44110 36310
L44140 36330
L44160 36390
L44160 36450
L44140 36530
L43800 36870
L44160 36870
" />
<path d="M45500 38000
L42500 38000
" />
<text x="45600" y="38290"
textLength="1860" font-size="780" lengthAdjust="spacingAndGlyphs"
text-anchor="start" opacity="0">GND</text>
<path d="M46070 37700
L46020 37670
L45930 37670
L45850 37700
L45790 37760
L45770 37810
L45740 37920
L45740 38010
L45770 38120
L45790 38180
L45850 38230
L45930 38260
L45990 38260
L46070 38230
L46100 38210
L46100 38010
L45990 38010
" />
<path d="M46360 38260
L46360 37670
L46690 38260
L46690 37670
" />
<path d="M46970 38260
L46970 37670
L47110 37670
L47200 37700
L47250 37760
L47280 37810
L47310 37920
L47310 38010
L47280 38120
L47250 38180
L47200 38230
L47110 38260
L46970 38260
" />
<text x="44000" y="37900"
textLength="620" font-size="780" lengthAdjust="spacingAndGlyphs"
text-anchor="middle" opacity="0">3</text>
<path d="M43800 37280
L44160 37280
L43970 37500
L44050 37500
L44110 37530
L44140 37560
L44160 37610
L44160 37750
L44140 37810
L44110 37840
L44050 37870
L43880 37870
L43830 37840
L43800 37810
" />
<path d="M45500 39000
L42500 39000
" />
<text x="45600" y="39290"
textLength="2420" font-size="780" lengthAdjust="spacingAndGlyphs"
text-anchor="start" opacity="0">GND2</text>
<path d="M46070 38700
L46020 38670
L45930 38670
L45850 38700
L45790 38760
L45770 38810
L45740 38920
L45740 39010
L45770 39120
L45790 39180
L45850 39230
L45930 39260
L45990 39260
L46070 39230
L46100 39210
L46100 39010
L45990 39010
" />
<path d="M46360 39260
L46360 38670
L46690 39260
L46690 38670
" />
<path d="M46970 39260
L46970 38670
L47110 38670
L47200 38700
L47250 38760
L47280 38810
L47310 38920
L47310 39010
L47280 39120
L47250 39180
L47200 39230
L47110 39260
L46970 39260
" />
<path d="M47540 38730
L47560 38700
L47620 38670
L47760 38670
L47820 38700
L47840 38730
L47870 38780
L47870 38840
L47840 38920
L47510 39260
L47870 39260
" />
<text x="44000" y="38900"
textLength="620" font-size="780" lengthAdjust="spacingAndGlyphs"
text-anchor="middle" opacity="0">4</text>
<path d="M44110 38470
L44110 38870
" />
<path d="M43970 38250
L43830 38670
L44190 38670
" />
<path d="M45500 40000
L42500 40000
" />
<text x="45600" y="40290"
textLength="2870" font-size="780" lengthAdjust="spacingAndGlyphs"
text-anchor="start" opacity="0">XSHUT</text>
<path d="M45710 39670
L46100 40260
" />
<path d="M46100 39670
L45710 40260
" />
<path d="M46300 40230
L46380 40260
L46520 40260
L46580 40230
L46610 40210
L46640 40150
L46640 40090
L46610 40040
L46580 40010
L46520 39980
L46410 39950
L46360 39920
L46330 39900
L46300 39840
L46300 39780
L46330 39730
L46360 39700
L46410 39670
L46550 39670
L46640 39700
" />
<path d="M46890 40260
L46890 39670
" />
<path d="M46890 39950
L47230 39950
" />
<path d="M47230 40260
L47230 39670
" />
<path d="M47510 39670
L47510 40150
L47540 40210
L47560 40230
L47620 40260
L47730 40260
L47790 40230
L47820 40210
L47840 40150
L47840 39670
" />
<path d="M48040 39670
L48380 39670
" />
<path d="M48210 40260
L48210 39670
" />
<text x="44000" y="39900"
textLength="620" font-size="780" lengthAdjust="spacingAndGlyphs"
text-anchor="middle" opacity="0">5</text>
<path d="M44140 39280
L43850 39280
L43830 39560
L43850 39530
L43910 39500
L44050 39500
L44110 39530
L44140 39560
L44160 39610
L44160 39750
L44140 39810
L44110 39840
L44050 39870
L43910 39870
L43850 39840
L43830 39810
" />
<path d="M45500 41000
L42500 41000
" />
<text x="45600" y="41290"
textLength="2420" font-size="780" lengthAdjust="spacingAndGlyphs"
text-anchor="start" opacity="0">GND3</text>
<path d="M46070 40700
L46020 40670
L45930 40670
L45850 40700
L45790 40760
L45770 40810
L45740 40920
L45740 41010
L45770 41120
L45790 41180
L45850 41230
L45930 41260
L45990 41260
L46070 41230
L46100 41210
L46100 41010
L45990 41010
" />
<path d="M46360 41260
L46360 40670
L46690 41260
L46690 40670
" />
<path d="M46970 41260
L46970 40670
L47110 40670
L47200 40700
L47250 40760
L47280 40810
L47310 40920
L47310 41010
L47280 41120
L47250 41180
L47200 41230
L47110 41260
L46970 41260
" />
<path d="M47510 40670
L47870 40670
L47680 40900
L47760 40900
L47820 40920
L47840 40950
L47870 41010
L47870 41150
L47840 41210
L47820 41230
L47760 41260
L47590 41260
L47540 41230
L47510 41210
" />
<text x="44000" y="40900"
textLength="620" font-size="780" lengthAdjust="spacingAndGlyphs"
text-anchor="middle" opacity="0">6</text>
<path d="M44110 40280
L44000 40280
L43940 40310
L43910 40330
L43850 40420
L43830 40530
L43830 40750
L43850 40810
L43880 40840
L43940 40870
L44050 40870
L44110 40840
L44140 40810
L44160 40750
L44160 40610
L44140 40560
L44110 40530
L44050 40500
L43940 40500
L43880 40530
L43850 40560
L43830 40610
" />
<path d="M59500 41000
L62500 41000
" />
<text x="59400" y="41290"
textLength="2700" font-size="780" lengthAdjust="spacingAndGlyphs"
text-anchor="end" opacity="0">GPIO1</text>
<path d="M57170 40700
L57120 40670
L57030 40670
L56950 40700
L56890 40760
L56860 40810
L56840 40920
L56840 41010
L56860 41120
L56890 41180
L56950 41230
L57030 41260
L57090 41260
L57170 41230
L57200 41210
L57200 41010
L57090 41010
" />
<path d="M57450 41260
L57450 40670
L57680 40670
L57740 40700
L57760 40730
L57790 40780
L57790 40870
L57760 40920
L57740 40950
L57680 40980
L57450 40980
" />
<path d="M58040 41260
L58040 40670
" />
<path d="M58440 40670
L58550 40670
L58610 40700
L58660 40760
L58690 40870
L58690 41070
L58660 41180
L58610 41230
L58550 41260
L58440 41260
L58380 41230
L58330 41180
L58300 41070
L58300 40870
L58330 40760
L58380 40700
L58440 40670
" />
<path d="M59250 41260
L58920 41260
" />
<path d="M59080 41260
L59080 40670
L59030 40760
L58970 40810
L58920 40840
" />
<text x="61000" y="40900"
textLength="620" font-size="780" lengthAdjust="spacingAndGlyphs"
text-anchor="middle" opacity="0">7</text>
<path d="M60800 40280
L61190 40280
L60940 40870
" />
<path d="M59500 40000
L62500 40000
" />
<path d="M62350 39850
L62650 40150
" />
<path d="M62650 39850
L62350 40150
" />
<text x="59400" y="40290"
textLength="1860" font-size="780" lengthAdjust="spacingAndGlyphs"
text-anchor="end" opacity="0">DNC</text>
<path d="M57710 40260
L57710 39670
L57850 39670
L57930 39700
L57990 39760
L58020 39810
L58040 39920
L58040 40010
L58020 40120
L57990 40180
L57930 40230
L57850 40260
L57710 40260
" />
<path d="M58300 40260
L58300 39670
L58630 40260
L58630 39670
" />
<path d="M59250 40210
L59220 40230
L59140 40260
L59080 40260
L59000 40230
L58940 40180
L58920 40120
L58890 40010
L58890 39920
L58920 39810
L58940 39760
L59000 39700
L59080 39670
L59140 39670
L59220 39700
L59250 39730
" />
<text x="61000" y="39900"
textLength="620" font-size="780" lengthAdjust="spacingAndGlyphs"
text-anchor="middle" opacity="0">8</text>
<path d="M60940 39530
L60880 39500
L60850 39470
L60830 39420
L60830 39390
L60850 39330
L60880 39310
L60940 39280
L61050 39280
L61110 39310
L61140 39330
L61160 39390
L61160 39420
L61140 39470
L61110 39500
L61050 39530
L60940 39530
L60880 39560
L60850 39590
L60830 39640
L60830 39750
L60850 39810
L60880 39840
L60940 39870
L61050 39870
L61110 39840
L61140 39810
L61160 39750
L61160 39640
L61140 39590
L61110 39560
L61050 39530
" />
<path d="M59500 39000
L62500 39000
" />
<text x="59400" y="39290"
textLength="1720" font-size="780" lengthAdjust="spacingAndGlyphs"
text-anchor="end" opacity="0">SDA</text>
<path d="M57820 39230
L57900 39260
L58040 39260
L58100 39230
L58130 39210
L58160 39150
L58160 39090
L58130 39040
L58100 39010
L58040 38980
L57930 38950
L57880 38920
L57850 38900
L57820 38840
L57820 38780
L57850 38730
L57880 38700
L57930 38670
L58070 38670
L58160 38700
" />
<path d="M58410 39260
L58410 38670
L58550 38670
L58630 38700
L58690 38760
L58720 38810
L58750 38920
L58750 39010
L58720 39120
L58690 39180
L58630 39230
L58550 39260
L58410 39260
" />
<path d="M58970 39090
L59250 39090
" />
<path d="M58920 39260
L59110 38670
L59310 39260
" />
<text x="61000" y="38900"
textLength="620" font-size="780" lengthAdjust="spacingAndGlyphs"
text-anchor="middle" opacity="0">9</text>
<path d="M60880 38870
L61000 38870
L61050 38840
L61080 38810
L61140 38730
L61160 38610
L61160 38390
L61140 38330
L61110 38310
L61050 38280
L60940 38280
L60880 38310
L60850 38330
L60830 38390
L60830 38530
L60850 38590
L60880 38610
L60940 38640
L61050 38640
L61110 38610
L61140 38590
L61160 38530
" />
<path d="M59500 38000
L62500 38000
" />
<text x="59400" y="38290"
textLength="1690" font-size="780" lengthAdjust="spacingAndGlyphs"
text-anchor="end" opacity="0">SCL</text>
<path d="M57850 38230
L57930 38260
L58070 38260
L58130 38230
L58160 38210
L58190 38150
L58190 38090
L58160 38040
L58130 38010
L58070 37980
L57960 37950
L57900 37920
L57880 37900
L57850 37840
L57850 37780
L57880 37730
L57900 37700
L57960 37670
L58100 37670
L58190 37700
" />
<path d="M58780 38210
L58750 38230
L58660 38260
L58610 38260
L58520 38230
L58470 38180
L58440 38120
L58410 38010
L58410 37920
L58440 37810
L58470 37760
L58520 37700
L58610 37670
L58660 37670
L58750 37700
L58780 37730
" />
<path d="M59310 38260
L59030 38260
L59030 37670
" />
<text x="61000" y="37900"
textLength="1180" font-size="780" lengthAdjust="spacingAndGlyphs"
text-anchor="middle" opacity="0">10</text>
<path d="M60880 37870
L60550 37870
" />
<path d="M60710 37870
L60710 37280
L60660 37360
L60600 37420
L60550 37450
" />
<path d="M61250 37280
L61300 37280
L61360 37310
L61390 37330
L61420 37390
L61440 37500
L61440 37640
L61420 37750
L61390 37810
L61360 37840
L61300 37870
L61250 37870
L61190 37840
L61160 37810
L61140 37750
L61110 37640
L61110 37500
L61140 37390
L61160 37330
L61190 37310
L61250 37280
" />
<path d="M59500 37000
L62500 37000
" />
<text x="59400" y="37290"
textLength="2250" font-size="780" lengthAdjust="spacingAndGlyphs"
text-anchor="end" opacity="0">AVDD</text>
<path d="M57290 37090
L57570 37090
" />
<path d="M57230 37260
L57430 36670
L57620 37260
" />
<path d="M57740 36670
L57930 37260
L58130 36670
" />
<path d="M58330 37260
L58330 36670
L58470 36670
L58550 36700
L58610 36760
L58630 36810
L58660 36920
L58660 37010
L58630 37120
L58610 37180
L58550 37230
L58470 37260
L58330 37260
" />
<path d="M58920 37260
L58920 36670
L59060 36670
L59140 36700
L59200 36760
L59220 36810
L59250 36920
L59250 37010
L59220 37120
L59200 37180
L59140 37230
L59060 37260
L58920 37260
" />
<text x="61000" y="36900"
textLength="1180" font-size="780" lengthAdjust="spacingAndGlyphs"
text-anchor="middle" opacity="0">11</text>
<path d="M60880 36870
L60550 36870
" />
<path d="M60710 36870
L60710 36280
L60660 36360
L60600 36420
L60550 36450
" />
<path d="M61440 36870
L61110 36870
" />
<path d="M61280 36870
L61280 36280
L61220 36360
L61160 36420
L61110 36450
" />
<path d="M59500 36000
L62500 36000
" />
<text x="59400" y="36290"
textLength="2420" font-size="780" lengthAdjust="spacingAndGlyphs"
text-anchor="end" opacity="0">GND4</text>
<path d="M57450 35700
L57400 35670
L57310 35670
L57230 35700
L57170 35760
L57150 35810
L57120 35920
L57120 36010
L57150 36120
L57170 36180
L57230 36230
L57310 36260
L57370 36260
L57450 36230
L57480 36210
L57480 36010
L57370 36010
" />
<path d="M57740 36260
L57740 35670
L58070 36260
L58070 35670
" />
<path d="M58350 36260
L58350 35670
L58490 35670
L58580 35700
L58630 35760
L58660 35810
L58690 35920
L58690 36010
L58660 36120
L58630 36180
L58580 36230
L58490 36260
L58350 36260
" />
<path d="M59200 35870
L59200 36260
" />
<path d="M59060 35640
L58920 36070
L59280 36070
" />
<text x="61000" y="35900"
textLength="1180" font-size="780" lengthAdjust="spacingAndGlyphs"
text-anchor="middle" opacity="0">12</text>
<path d="M60880 35870
L60550 35870
" />
<path d="M60710 35870
L60710 35280
L60660 35360
L60600 35420
L60550 35450
" />
<path d="M61110 35330
L61140 35310
L61190 35280
L61330 35280
L61390 35310
L61420 35330
L61440 35390
L61440 35450
L61420 35530
L61080 35870
L61440 35870
" />
<text x="52500" y="32460"
textLength="1260" font-size="800" lengthAdjust="spacingAndGlyphs"
text-anchor="middle" opacity="0">U3</text>
<path d="M52040 31830
L52040 32310
L52070 32370
L52100 32400
L52150 32430
L52270 32430
L52320 32400
L52350 32370
L52380 32310
L52380 31830
" />
<path d="M52610 31830
L52980 31830
L52780 32060
L52870 32060
L52920 32080
L52950 32110
L52980 32170
L52980 32310
L52950 32370
L52920 32400
L52870 32430
L52700 32430
L52640 32400
L52610 32370
" />
<text x="52500" y="33520"
textLength="10570" font-size="800" lengthAdjust="spacingAndGlyphs"
text-anchor="middle" opacity="0">VL53L3CXV0DH_CENTER</text>
<path d="M47290 32890
L47490 33490
L47690 32890
" />
<path d="M48180 33490
L47890 33490
L47890 32890
" />
<path d="M48670 32890
L48380 32890
L48350 33170
L48380 33140
L48440 33120
L48580 33120
L48640 33140
L48670 33170
L48690 33230
L48690 33370
L48670 33430
L48640 33460
L48580 33490
L48440 33490
L48380 33460
L48350 33430
" />
<path d="M48890 32890
L49270 32890
L49070 33120
L49150 33120
L49210 33140
L49240 33170
L49270 33230
L49270 33370
L49240 33430
L49210 33460
L49150 33490
L48980 33490
L48920 33460
L48890 33430
" />
<path d="M49810 33490
L49520 33490
L49520 32890
" />
<path d="M49950 32890
L50320 32890
L50120 33120
L50210 33120
L50270 33140
L50290 33170
L50320 33230
L50320 33370
L50290 33430
L50270 33460
L50210 33490
L50040 33490
L49980 33460
L49950 33430
" />
<path d="M50920 33430
L50890 33460
L50810 33490
L50750 33490
L50670 33460
L50610 33400
L50580 33340
L50550 33230
L50550 33140
L50580 33030
L50610 32970
L50670 32920
L50750 32890
L50810 32890
L50890 32920
L50920 32940
" />
<path d="M51120 32890
L51520 33490
" />
<path d="M51520 32890
L51120 33490
" />
<path d="M51670 32890
L51870 33490
L52070 32890
" />
<path d="M52380 32890
L52440 32890
L52490 32920
L52520 32940
L52550 33000
L52580 33120
L52580 33260
L52550 33370
L52520 33430
L52490 33460
L52440 33490
L52380 33490
L52320 33460
L52290 33430
L52270 33370
L52240 33260
L52240 33120
L52270 33000
L52290 32940
L52320 32920
L52380 32890
" />
<path d="M52840 33490
L52840 32890
L52980 32890
L53070 32920
L53120 32970
L53150 33030
L53180 33140
L53180 33230
L53150 33340
L53120 33400
L53070 33460
L52980 33490
L52840 33490
" />
<path d="M53440 33490
L53440 32890
" />
<path d="M53440 33170
L53780 33170
" />
<path d="M53780 33490
L53780 32890
" />
<path d="M53920 33540
L54380 33540
" />
<path d="M54870 33430
L54840 33460
L54750 33490
L54690 33490
L54610 33460
L54550 33400
L54520 33340
L54490 33230
L54490 33140
L54520 33030
L54550 32970
L54610 32920
L54690 32890
L54750 32890
L54840 32920
L54870 32940
" />
<path d="M55120 33170
L55320 33170
" />
<path d="M55410 33490
L55120 33490
L55120 32890
L55410 32890
" />
<path d="M55670 33490
L55670 32890
L56010 33490
L56010 32890
" />
<path d="M56210 32890
L56550 32890
" />
<path d="M56380 33490
L56380 32890
" />
<path d="M56750 33170
L56950 33170
" />
<path d="M57040 33490
L56750 33490
L56750 32890
L57040 32890
" />
<path d="M57640 33490
L57440 33200
" />
<path d="M57290 33490
L57290 32890
L57520 32890
L57580 32920
L57610 32940
L57640 33000
L57640 33090
L57610 33140
L57580 33170
L57520 33200
L57290 33200
" />
</g>
</g>
<g style="fill:#000000; fill-opacity:0.0; 
stroke:#000000; stroke-width:0; stroke-opacity:1; 
stroke-linecap:round; stroke-linejoin:round;">
<g >
</g>
<g style="fill:#000000; fill-opacity:0.0; 
stroke:#000000; stroke-width:100; stroke-opacity:1; 
stroke-linecap:round; stroke-linejoin:round;">
<rect x="83000" y="34600" width="2000" height="800" rx="0" />
</g>
<g style="fill:#000000; fill-opacity:0.0; 
stroke:#000000; stroke-width:60; stroke-opacity:1; 
stroke-linecap:round; stroke-linejoin:round;">
<path d="M85000 35000
L85500 35000
" />
<path d="M83000 35000
L82500 35000
" />
<text x="84000" y="33200"
textLength="1510" font-size="660" lengthAdjust="spacingAndGlyphs"
text-anchor="middle" opacity="0">R10</text>
<path d="M83670 33170
L83510 32930
" />
<path d="M83390 33170
L83390 32670
L83580 32670
L83630 32700
L83650 32720
L83670 32770
L83670 32840
L83650 32890
L83630 32910
L83580 32930
L83390 32930
" />
<path d="M84150 33170
L83860 33170
" />
<path d="M84010 33170
L84010 32670
L83960 32740
L83910 32790
L83860 32810
" />
<path d="M84460 32670
L84510 32670
L84550 32700
L84580 32720
L84600 32770
L84630 32860
L84630 32980
L84600 33080
L84580 33120
L84550 33150
L84510 33170
L84460 33170
L84410 33150
L84390 33120
L84360 33080
L84340 32980
L84340 32860
L84360 32770
L84390 32720
L84410 32700
L84460 32670
" />
<text x="84000" y="34110"
textLength="1420" font-size="660" lengthAdjust="spacingAndGlyphs"
text-anchor="middle" opacity="0">10k</text>
<path d="M83700 34080
L83410 34080
" />
<path d="M83550 34080
L83550 33580
L83510 33650
L83460 33700
L83410 33720
" />
<path d="M84010 33580
L84050 33580
L84100 33610
L84130 33630
L84150 33680
L84170 33770
L84170 33890
L84150 33990
L84130 34030
L84100 34060
L84050 34080
L84010 34080
L83960 34060
L83940 34030
L83910 33990
L83890 33890
L83890 33770
L83910 33680
L83940 33630
L83960 33610
L84010 33580
" />
<path d="M84390 34080
L84390 33580
" />
<path d="M84440 33890
L84580 34080
" />
<path d="M84580 33750
L84390 33940
" />
</g>
</g>
<g style="fill:#000000; fill-opacity:0.0; 
stroke:#000000; stroke-width:0; stroke-opacity:1; 
stroke-linecap:round; stroke-linejoin:round;">
<g >
</g>
<g style="fill:#000000; fill-opacity:0.0; 
stroke:#000000; stroke-width:100; stroke-opacity:1; 
stroke-linecap:round; stroke-linejoin:round;">
<rect x="83000" y="37600" width="2000" height="800" rx="0" />
</g>
<g style="fill:#000000; fill-opacity:0.0; 
stroke:#000000; stroke-width:60; stroke-opacity:1; 
stroke-linecap:round; stroke-linejoin:round;">
<path d="M85000 38000
L85500 38000
" />
<path d="M83000 38000
L82500 38000
" />
<text x="84000" y="36200"
textLength="1510" font-size="660" lengthAdjust="spacingAndGlyphs"
text-anchor="middle" opacity="0">R11</text>
<path d="M83670 36170
L83510 35930
" />
<path d="M83390 36170
L83390 35670
L83580 35670
L83630 35700
L83650 35720
L83670 35770
L83670 35840
L83650 35890
L83630 35910
L83580 35930
L83390 35930
" />
<path d="M84150 36170
L83860 36170
" />
<path d="M84010 36170
L84010 35670
L83960 35740
L83910 35790
L83860 35810
" />
<path d="M84630 36170
L84340 36170
" />
<path d="M84480 36170
L84480 35670
L84440 35740
L84390 35790
L84340 35810
" />
<text x="84000" y="37110"
textLength="1420" font-size="660" lengthAdjust="spacingAndGlyphs"
text-anchor="middle" opacity="0">10k</text>
<path d="M83700 37080
L83410 37080
" />
<path d="M83550 37080
L83550 36580
L83510 36650
L83460 36700
L83410 36720
" />
<path d="M84010 36580
L84050 36580
L84100 36610
L84130 36630
L84150 36680
L84170 36770
L84170 36890
L84150 36990
L84130 37030
L84100 37060
L84050 37080
L84010 37080
L83960 37060
L83940 37030
L83910 36990
L83890 36890
L83890 36770
L83910 36680
L83940 36630
L83960 36610
L84010 36580
" />
<path d="M84390 37080
L84390 36580
" />
<path d="M84440 36890
L84580 37080
" />
<path d="M84580 36750
L84390 36940
" />
</g>
</g>
<g style="fill:#000000; fill-opacity:0.0; 
stroke:#000000; stroke-width:0; stroke-opacity:1; 
stroke-linecap:round; stroke-linejoin:round;">
<g >
</g>
<g style="fill:#000000; fill-opacity:0.0; 
stroke:#000000; stroke-width:60; stroke-opacity:1; 
stroke-linecap:round; stroke-linejoin:round;">
<path style="fill:#000000; fill-opacity:0.0; 
stroke:#000000; stroke-width:60; stroke-opacity:1; 
stroke-linecap:round; stroke-linejoin:round;fill:none"
d="M 74000,39500
74000,40000
74500,40000
74000,40500
73500,40000
74000,40000
" /> 
<text x="74050" y="41500"
textLength="1580" font-size="660" lengthAdjust="spacingAndGlyphs"
text-anchor="middle" opacity="0">GND</text>
<path d="M73660 41000
L73620 40970
L73550 40970
L73470 41000
L73430 41040
L73400 41090
L73380 41190
L73380 41260
L73400 41350
L73430 41400
L73470 41450
L73550 41470
L73590 41470
L73660 41450
L73690 41420
L73690 41260
L73590 41260
" />
<path d="M73900 41470
L73900 40970
L74190 41470
L74190 40970
" />
<path d="M74430 41470
L74430 40970
L74550 40970
L74620 41000
L74660 41040
L74690 41090
L74710 41190
L74710 41260
L74690 41350
L74660 41400
L74620 41450
L74550 41470
L74430 41470
" />
</g>
</g>
<g style="fill:#000000; fill-opacity:0.0; 
stroke:#000000; stroke-width:0; stroke-opacity:1; 
stroke-linecap:round; stroke-linejoin:round;">
<g >
</g>
<g style="fill:#000000; fill-opacity:0.0; 
stroke:#000000; stroke-width:60; stroke-opacity:1; 
stroke-linecap:round; stroke-linejoin:round;">
<path style="fill:#000000; fill-opacity:0.0; 
stroke:#000000; stroke-width:60; stroke-opacity:1; 
stroke-linecap:round; stroke-linejoin:round;fill:none"
d="M 69500,39500
69500,40000
70000,40000
69500,40500
69000,40000
69500,40000
" /> 
<text x="69550" y="41500"
textLength="1580" font-size="660" lengthAdjust="spacingAndGlyphs"
text-anchor="middle" opacity="0">GND</text>
<path d="M69160 41000
L69120 40970
L69050 40970
L68970 41000
L68930 41040
L68900 41090
L68880 41190
L68880 41260
L68900 41350
L68930 41400
L68970 41450
L69050 41470
L69090 41470
L69160 41450
L69190 41420
L69190 41260
L69090 41260
" />
<path d="M69400 41470
L69400 40970
L69690 41470
L69690 40970
" />
<path d="M69930 41470
L69930 40970
L70050 40970
L70120 41000
L70160 41040
L70190 41090
L70210 41190
L70210 41260
L70190 41350
L70160 41400
L70120 41450
L70050 41470
L69930 41470
" />
</g>
</g>
<g style="fill:#000000; fill-opacity:0.0; 
stroke:#000000; stroke-width:0; stroke-opacity:1; 
stroke-linecap:round; stroke-linejoin:round;">
<g >
</g>
<g style="fill:#000000; fill-opacity:0.0; 
stroke:#000000; stroke-width:60; stroke-opacity:1; 
stroke-linecap:round; stroke-linejoin:round;">
<path style="fill:#000000; fill-opacity:0.0; 
stroke:#000000; stroke-width:60; stroke-opacity:1; 
stroke-linecap:round; stroke-linejoin:round;fill:none"
d="M 73700,35000
74000,34500
" /> 
<path style="fill:#000000; fill-opacity:0.0; 
stroke:#000000; stroke-width:60; stroke-opacity:1; 
stroke-linecap:round; stroke-linejoin:round;fill:none"
d="M 74000,35500
74000,34500
" /> 
<path style="fill:#000000; fill-opacity:0.0; 
stroke:#000000; stroke-width:60; stroke-opacity:1; 
stroke-linecap:round; stroke-linejoin:round;fill:none"
d="M 74000,34500
74300,35000
" /> 
<text x="74150" y="34040"
textLength="2300" font-size="660" lengthAdjust="spacingAndGlyphs"
text-anchor="middle" opacity="0">+3.3V</text>
<path d="M73150 33820
L73530 33820
" />
<path d="M73340 34010
L73340 33630
" />
<path d="M73720 33510
L74030 33510
L73860 33700
L73930 33700
L73980 33730
L74000 33750
L74030 33800
L74030 33920
L74000 33960
L73980 33990
L73930 34010
L73790 34010
L73740 33990
L73720 33960
" />
<path d="M74240 33960
L74260 33990
L74240 34010
L74220 33990
L74240 33960
L74240 34010
" />
<path d="M74430 33510
L74740 33510
L74570 33700
L74650 33700
L74690 33730
L74720 33750
L74740 33800
L74740 33920
L74720 33960
L74690 33990
L74650 34010
L74500 34010
L74450 33990
L74430 33960
" />
<path d="M74880 33510
L75050 34010
L75220 33510
" />
</g>
</g>
<g style="fill:#000000; fill-opacity:0.0; 
stroke:#000000; stroke-width:0; stroke-opacity:1; 
stroke-linecap:round; stroke-linejoin:round;">
<g >
</g>
<g style="fill:#000000; fill-opacity:0.0; 
stroke:#000000; stroke-width:60; stroke-opacity:1; 
stroke-linecap:round; stroke-linejoin:round;">
<path style="fill:#000000; fill-opacity:0.0; 
stroke:#000000; stroke-width:60; stroke-opacity:1; 
stroke-linecap:round; stroke-linejoin:round;fill:none"
d="M 69200,35000
69500,34500
" /> 
<path style="fill:#000000; fill-opacity:0.0; 
stroke:#000000; stroke-width:60; stroke-opacity:1; 
stroke-linecap:round; stroke-linejoin:round;fill:none"
d="M 69500,35500
69500,34500
" /> 
<path style="fill:#000000; fill-opacity:0.0; 
stroke:#000000; stroke-width:60; stroke-opacity:1; 
stroke-linecap:round; stroke-linejoin:round;fill:none"
d="M 69500,34500
69800,35000
" /> 
<text x="69650" y="34040"
textLength="2300" font-size="660" lengthAdjust="spacingAndGlyphs"
text-anchor="middle" opacity="0">+3.3V</text>
<path d="M68650 33820
L69030 33820
" />
<path d="M68840 34010
L68840 33630
" />
<path d="M69220 33510
L69530 33510
L69360 33700
L69430 33700
L69480 33730
L69500 33750
L69530 33800
L69530 33920
L69500 33960
L69480 33990
L69430 34010
L69290 34010
L69240 33990
L69220 33960
" />
<path d="M69740 33960
L69760 33990
L69740 34010
L69720 33990
L69740 33960
L69740 34010
" />
<path d="M69930 33510
L70240 33510
L70070 33700
L70150 33700
L70190 33730
L70220 33750
L70240 33800
L70240 33920
L70220 33960
L70190 33990
L70150 34010
L70000 34010
L69950 33990
L69930 33960
" />
<path d="M70380 33510
L70550 34010
L70720 33510
" />
</g>
</g>
<g style="fill:#000000; fill-opacity:0.0; 
stroke:#000000; stroke-width:0; stroke-opacity:1; 
stroke-linecap:round; stroke-linejoin:round;">
<g >
</g>
<g style="fill:#000000; fill-opacity:0.0; 
stroke:#000000; stroke-width:200; stroke-opacity:1; 
stroke-linecap:round; stroke-linejoin:round;">
<path style="fill:#000000; fill-opacity:0.0; 
stroke:#000000; stroke-width:200; stroke-opacity:1; 
stroke-linecap:round; stroke-linejoin:round;fill:none"
d="M 73200,37800
74800,37800
" /> 
<path style="fill:#000000; fill-opacity:0.0; 
stroke:#000000; stroke-width:200; stroke-opacity:1; 
stroke-linecap:round; stroke-linejoin:round;fill:none"
d="M 73200,37200
74800,37200
" /> 
</g>
<g style="fill:#000000; fill-opacity:0.0; 
stroke:#000000; stroke-width:60; stroke-opacity:1; 
stroke-linecap:round; stroke-linejoin:round;">
<path d="M74000 37100
L74000 36000
" />
<path d="M74000 37900
L74000 39000
" />
<text x="75670" y="37310"
textLength="1040" font-size="660" lengthAdjust="spacingAndGlyphs"
text-anchor="middle" opacity="0">C8</text>
<path d="M75580 37230
L75560 37260
L75490 37280
L75440 37280
L75370 37260
L75320 37210
L75300 37160
L75270 37070
L75270 37000
L75300 36900
L75320 36850
L75370 36810
L75440 36780
L75490 36780
L75560 36810
L75580 36830
" />
<path d="M75870 37000
L75820 36970
L75800 36950
L75770 36900
L75770 36880
L75800 36830
L75820 36810
L75870 36780
L75960 36780
L76010 36810
L76030 36830
L76060 36880
L76060 36900
L76030 36950
L76010 36970
L75960 37000
L75870 37000
L75820 37020
L75800 37040
L75770 37090
L75770 37190
L75800 37230
L75820 37260
L75870 37280
L75960 37280
L76010 37260
L76030 37230
L76060 37190
L76060 37090
L76030 37040
L76010 37020
L75960 37000
" />
<text x="76030" y="38220"
textLength="1770" font-size="660" lengthAdjust="spacingAndGlyphs"
text-anchor="middle" opacity="0">4.7µ</text>
<path d="M75500 37860
L75500 38190
" />
<path d="M75380 37670
L75260 38020
L75570 38020
" />
<path d="M75760 38140
L75790 38170
L75760 38190
L75740 38170
L75760 38140
L75760 38190
" />
<path d="M75950 37690
L76290 37690
L76070 38190
" />
<path d="M76480 37860
L76480 38360
" />
<path d="M76720 38120
L76740 38170
L76790 38190
" />
<path d="M76480 38120
L76500 38170
L76550 38190
L76640 38190
L76690 38170
L76720 38120
L76720 37860
" />
</g>
</g>
<g style="fill:#000000; fill-opacity:0.0; 
stroke:#000000; stroke-width:0; stroke-opacity:1; 
stroke-linecap:round; stroke-linejoin:round;">
<g >
</g>
<g style="fill:#000000; fill-opacity:0.0; 
stroke:#000000; stroke-width:200; stroke-opacity:1; 
stroke-linecap:round; stroke-linejoin:round;">
<path style="fill:#000000; fill-opacity:0.0; 
stroke:#000000; stroke-width:200; stroke-opacity:1; 
stroke-linecap:round; stroke-linejoin:round;fill:none"
d="M 68700,37800
70300,37800
" /> 
<path style="fill:#000000; fill-opacity:0.0; 
stroke:#000000; stroke-width:200; stroke-opacity:1; 
stroke-linecap:round; stroke-linejoin:round;fill:none"
d="M 68700,37200
70300,37200
" /> 
</g>
<g style="fill:#000000; fill-opacity:0.0; 
stroke:#000000; stroke-width:60; stroke-opacity:1; 
stroke-linecap:round; stroke-linejoin:round;">
<path d="M69500 37100
L69500 36000
" />
<path d="M69500 37900
L69500 39000
" />
<text x="71170" y="37310"
textLength="1040" font-size="660" lengthAdjust="spacingAndGlyphs"
text-anchor="middle" opacity="0">C7</text>
<path d="M71080 37230
L71060 37260
L70990 37280
L70940 37280
L70870 37260
L70820 37210
L70800 37160
L70770 37070
L70770 37000
L70800 36900
L70820 36850
L70870 36810
L70940 36780
L70990 36780
L71060 36810
L71080 36830
" />
<path d="M71250 36780
L71580 36780
L71370 37280
" />
<text x="71620" y="38220"
textLength="1940" font-size="660" lengthAdjust="spacingAndGlyphs"
text-anchor="middle" opacity="0">100n</text>
<path d="M71060 38190
L70770 38190
" />
<path d="M70910 38190
L70910 37690
L70870 37760
L70820 37810
L70770 37830
" />
<path d="M71370 37690
L71410 37690
L71460 37720
L71480 37740
L71510 37790
L71530 37880
L71530 38000
L71510 38100
L71480 38140
L71460 38170
L71410 38190
L71370 38190
L71320 38170
L71290 38140
L71270 38100
L71250 38000
L71250 37880
L71270 37790
L71290 37740
L71320 37720
L71370 37690
" />
<path d="M71840 37690
L71890 37690
L71940 37720
L71960 37740
L71980 37790
L72010 37880
L72010 38000
L71980 38100
L71960 38140
L71940 38170
L71890 38190
L71840 38190
L71790 38170
L71770 38140
L71750 38100
L71720 38000
L71720 37880
L71750 37790
L71770 37740
L71790 37720
L71840 37690
" />
<path d="M72220 37860
L72220 38190
" />
<path d="M72220 37910
L72250 37880
L72290 37860
L72370 37860
L72410 37880
L72440 37930
L72440 38190
" />
</g>
</g>
<g style="fill:#000000; fill-opacity:0.0; 
stroke:#000000; stroke-width:0; stroke-opacity:1; 
stroke-linecap:round; stroke-linejoin:round;">
<g >
</g>
<g style="fill:#000000; fill-opacity:0.0; 
stroke:#000000; stroke-width:60; stroke-opacity:1; 
stroke-linecap:round; stroke-linejoin:round;">
<path style="fill:#000000; fill-opacity:0.0; 
stroke:#000000; stroke-width:60; stroke-opacity:1; 
stroke-linecap:round; stroke-linejoin:round;fill:none"
d="M 86500,34700
87000,35000
" /> 
<path style="fill:#000000; fill-opacity:0.0; 
stroke:#000000; stroke-width:60; stroke-opacity:1; 
stroke-linecap:round; stroke-linejoin:round;fill:none"
d="M 86000,35000
87000,35000
" /> 
<path style="fill:#000000; fill-opacity:0.0; 
stroke:#000000; stroke-width:60; stroke-opacity:1; 
stroke-linecap:round; stroke-linejoin:round;fill:none"
d="M 87000,35000
86500,35300
" /> 
<text x="88430" y="35420"
textLength="2300" font-size="660" lengthAdjust="spacingAndGlyphs"
text-anchor="middle" opacity="0">+3.3V</text>
<path d="M87430 35200
L87810 35200
" />
<path d="M87620 35390
L87620 35010
" />
<path d="M88000 34890
L88310 34890
L88140 35080
L88210 35080
L88260 35110
L88280 35130
L88310 35180
L88310 35300
L88280 35340
L88260 35370
L88210 35390
L88070 35390
L88020 35370
L88000 35340
" />
<path d="M88520 35340
L88540 35370
L88520 35390
L88500 35370
L88520 35340
L88520 35390
" />
<path d="M88710 34890
L89020 34890
L88850 35080
L88930 35080
L88970 35110
L89000 35130
L89020 35180
L89020 35300
L89000 35340
L88970 35370
L88930 35390
L88780 35390
L88730 35370
L88710 35340
" />
<path d="M89160 34890
L89330 35390
L89500 34890
" />
</g>
</g>
<g style="fill:#000000; fill-opacity:0.0; 
stroke:#000000; stroke-width:0; stroke-opacity:1; 
stroke-linecap:round; stroke-linejoin:round;">
<g >
</g>
<g style="fill:#000000; fill-opacity:0.0; 
stroke:#000000; stroke-width:60; stroke-opacity:1; 
stroke-linecap:round; stroke-linejoin:round;">
<path style="fill:#000000; fill-opacity:0.0; 
stroke:#000000; stroke-width:60; stroke-opacity:1; 
stroke-linecap:round; stroke-linejoin:round;fill:none"
d="M 86500,37700
87000,38000
" /> 
<path style="fill:#000000; fill-opacity:0.0; 
stroke:#000000; stroke-width:60; stroke-opacity:1; 
stroke-linecap:round; stroke-linejoin:round;fill:none"
d="M 86000,38000
87000,38000
" /> 
<path style="fill:#000000; fill-opacity:0.0; 
stroke:#000000; stroke-width:60; stroke-opacity:1; 
stroke-linecap:round; stroke-linejoin:round;fill:none"
d="M 87000,38000
86500,38300
" /> 
<text x="88430" y="38420"
textLength="2300" font-size="660" lengthAdjust="spacingAndGlyphs"
text-anchor="middle" opacity="0">+3.3V</text>
<path d="M87430 38200
L87810 38200
" />
<path d="M87620 38390
L87620 38010
" />
<path d="M88000 37890
L88310 37890
L88140 38080
L88210 38080
L88260 38110
L88280 38130
L88310 38180
L88310 38300
L88280 38340
L88260 38370
L88210 38390
L88070 38390
L88020 38370
L88000 38340
" />
<path d="M88520 38340
L88540 38370
L88520 38390
L88500 38370
L88520 38340
L88520 38390
" />
<path d="M88710 37890
L89020 37890
L88850 38080
L88930 38080
L88970 38110
L89000 38130
L89020 38180
L89020 38300
L89000 38340
L88970 38370
L88930 38390
L88780 38390
L88730 38370
L88710 38340
" />
<path d="M89160 37890
L89330 38390
L89500 37890
" />
</g>
</g>
<g style="fill:#000000; fill-opacity:0.0; 
stroke:#000000; stroke-width:0; stroke-opacity:1; 
stroke-linecap:round; stroke-linejoin:round;">
<g >
</g>
<g style="fill:#000000; fill-opacity:0.0; 
stroke:#000000; stroke-width:200; stroke-opacity:1; 
stroke-linecap:round; stroke-linejoin:round;">
<path style="fill:#000000; fill-opacity:0.0; 
stroke:#000000; stroke-width:200; stroke-opacity:1; 
stroke-linecap:round; stroke-linejoin:round;fill:none"
d="M 34200,37800
35800,37800
" /> 
<path style="fill:#000000; fill-opacity:0.0; 
stroke:#000000; stroke-width:200; stroke-opacity:1; 
stroke-linecap:round; stroke-linejoin:round;fill:none"
d="M 34200,37200
35800,37200
" /> 
</g>
<g style="fill:#000000; fill-opacity:0.0; 
stroke:#000000; stroke-width:60; stroke-opacity:1; 
stroke-linecap:round; stroke-linejoin:round;">
<path d="M35000 37100
L35000 36000
" />
<path d="M35000 37900
L35000 39000
" />
<text x="36670" y="37310"
textLength="1040" font-size="660" lengthAdjust="spacingAndGlyphs"
text-anchor="middle" opacity="0">C6</text>
<path d="M36580 37230
L36560 37260
L36490 37280
L36440 37280
L36370 37260
L36320 37210
L36300 37160
L36270 37070
L36270 37000
L36300 36900
L36320 36850
L36370 36810
L36440 36780
L36490 36780
L36560 36810
L36580 36830
" />
<path d="M37010 36780
L36920 36780
L36870 36810
L36840 36830
L36800 36900
L36770 37000
L36770 37190
L36800 37230
L36820 37260
L36870 37280
L36960 37280
L37010 37260
L37030 37230
L37060 37190
L37060 37070
L37030 37020
L37010 37000
L36960 36970
L36870 36970
L36820 37000
L36800 37020
L36770 37070
" />
<text x="37120" y="38220"
textLength="1940" font-size="660" lengthAdjust="spacingAndGlyphs"
text-anchor="middle" opacity="0">100n</text>
<path d="M36560 38190
L36270 38190
" />
<path d="M36410 38190
L36410 37690
L36370 37760
L36320 37810
L36270 37830
" />
<path d="M36870 37690
L36910 37690
L36960 37720
L36980 37740
L37010 37790
L37030 37880
L37030 38000
L37010 38100
L36980 38140
L36960 38170
L36910 38190
L36870 38190
L36820 38170
L36790 38140
L36770 38100
L36750 38000
L36750 37880
L36770 37790
L36790 37740
L36820 37720
L36870 37690
" />
<path d="M37340 37690
L37390 37690
L37440 37720
L37460 37740
L37480 37790
L37510 37880
L37510 38000
L37480 38100
L37460 38140
L37440 38170
L37390 38190
L37340 38190
L37290 38170
L37270 38140
L37250 38100
L37220 38000
L37220 37880
L37250 37790
L37270 37740
L37290 37720
L37340 37690
" />
<path d="M37720 37860
L37720 38190
" />
<path d="M37720 37910
L37750 37880
L37790 37860
L37860 37860
L37910 37880
L37940 37930
L37940 38190
" />
</g>
</g>
<g style="fill:#000000; fill-opacity:0.0; 
stroke:#000000; stroke-width:0; stroke-opacity:1; 
stroke-linecap:round; stroke-linejoin:round;">
<g >
</g>
<g style="fill:#000000; fill-opacity:0.0; 
stroke:#000000; stroke-width:60; stroke-opacity:1; 
stroke-linecap:round; stroke-linejoin:round;">
<path style="fill:#000000; fill-opacity:0.0; 
stroke:#000000; stroke-width:60; stroke-opacity:1; 
stroke-linecap:round; stroke-linejoin:round;fill:none"
d="M 42000,37000
41500,37000
41500,37500
41000,37000
41500,36500
41500,37000
" /> 
<text x="39930" y="37320"
textLength="1580" font-size="660" lengthAdjust="spacingAndGlyphs"
text-anchor="middle" opacity="0">GND</text>
<path d="M39540 36820
L39500 36790
L39430 36790
L39350 36820
L39310 36860
L39280 36910
L39260 37010
L39260 37080
L39280 37170
L39310 37220
L39350 37270
L39430 37290
L39470 37290
L39540 37270
L39570 37240
L39570 37080
L39470 37080
" />
<path d="M39780 37290
L39780 36790
L40070 37290
L40070 36790
" />
<path d="M40310 37290
L40310 36790
L40430 36790
L40500 36820
L40540 36860
L40570 36910
L40590 37010
L40590 37080
L40570 37170
L40540 37220
L40500 37270
L40430 37290
L40310 37290
" />
</g>
</g>
<g style="fill:#000000; fill-opacity:0.0; 
stroke:#000000; stroke-width:0; stroke-opacity:1; 
stroke-linecap:round; stroke-linejoin:round;">
<g >
</g>
<g style="fill:#000000; fill-opacity:0.0; 
stroke:#000000; stroke-width:60; stroke-opacity:1; 
stroke-linecap:round; stroke-linejoin:round;">
<path style="fill:#000000; fill-opacity:0.0; 
stroke:#000000; stroke-width:60; stroke-opacity:1; 
stroke-linecap:round; stroke-linejoin:round;fill:none"
d="M 63500,36700
64000,37000
" /> 
<path style="fill:#000000; fill-opacity:0.0; 
stroke:#000000; stroke-width:60; stroke-opacity:1; 
stroke-linecap:round; stroke-linejoin:round;fill:none"
d="M 63000,37000
64000,37000
" /> 
<path style="fill:#000000; fill-opacity:0.0; 
stroke:#000000; stroke-width:60; stroke-opacity:1; 
stroke-linecap:round; stroke-linejoin:round;fill:none"
d="M 64000,37000
63500,37300
" /> 
<text x="65430" y="37420"
textLength="2300" font-size="660" lengthAdjust="spacingAndGlyphs"
text-anchor="middle" opacity="0">+3.3V</text>
<path d="M64430 37200
L64810 37200
" />
<path d="M64620 37390
L64620 37010
" />
<path d="M65000 36890
L65310 36890
L65140 37080
L65210 37080
L65260 37110
L65280 37130
L65310 37180
L65310 37300
L65280 37340
L65260 37370
L65210 37390
L65070 37390
L65020 37370
L65000 37340
" />
<path d="M65520 37340
L65540 37370
L65520 37390
L65500 37370
L65520 37340
L65520 37390
" />
<path d="M65710 36890
L66020 36890
L65850 37080
L65930 37080
L65970 37110
L66000 37130
L66020 37180
L66020 37300
L66000 37340
L65970 37370
L65930 37390
L65780 37390
L65730 37370
L65710 37340
" />
<path d="M66160 36890
L66330 37390
L66500 36890
" />
</g>
</g>
<g style="fill:#000000; fill-opacity:0.0; 
stroke:#000000; stroke-width:0; stroke-opacity:1; 
stroke-linecap:round; stroke-linejoin:round;">
<g >
</g>
<g style="fill:#000000; fill-opacity:0.0; 
stroke:#000000; stroke-width:60; stroke-opacity:1; 
stroke-linecap:round; stroke-linejoin:round;">
<path style="fill:#000000; fill-opacity:0.0; 
stroke:#000000; stroke-width:60; stroke-opacity:1; 
stroke-linecap:round; stroke-linejoin:round;fill:none"
d="M 63000,36000
63500,36000
63500,35500
64000,36000
63500,36500
63500,36000
" /> 
<text x="65070" y="36170"
textLength="1580" font-size="660" lengthAdjust="spacingAndGlyphs"
text-anchor="middle" opacity="0">GND</text>
<path d="M64680 35670
L64640 35640
L64570 35640
L64490 35670
L64450 35710
L64420 35760
L64400 35860
L64400 35930
L64420 36020
L64450 36070
L64490 36120
L64570 36140
L64610 36140
L64680 36120
L64710 36090
L64710 35930
L64610 35930
" />
<path d="M64920 36140
L64920 35640
L65210 36140
L65210 35640
" />
<path d="M65450 36140
L65450 35640
L65570 35640
L65640 35670
L65680 35710
L65710 35760
L65730 35860
L65730 35930
L65710 36020
L65680 36070
L65640 36120
L65570 36140
L65450 36140
" />
</g>
</g>
<g style="fill:#000000; fill-opacity:0.0; 
stroke:#000000; stroke-width:0; stroke-opacity:1; 
stroke-linecap:round; stroke-linejoin:round;">
<g >
</g>
<g style="fill:#000000; fill-opacity:0.0; 
stroke:#000000; stroke-width:60; stroke-opacity:1; 
stroke-linecap:round; stroke-linejoin:round;">
<path style="fill:#000000; fill-opacity:0.0; 
stroke:#000000; stroke-width:60; stroke-opacity:1; 
stroke-linecap:round; stroke-linejoin:round;fill:none"
d="M 35000,39500
35000,40000
35500,40000
35000,40500
34500,40000
35000,40000
" /> 
<text x="35050" y="41500"
textLength="1580" font-size="660" lengthAdjust="spacingAndGlyphs"
text-anchor="middle" opacity="0">GND</text>
<path d="M34660 41000
L34620 40970
L34550 40970
L34470 41000
L34430 41040
L34400 41090
L34380 41190
L34380 41260
L34400 41350
L34430 41400
L34470 41450
L34550 41470
L34590 41470
L34660 41450
L34690 41420
L34690 41260
L34590 41260
" />
<path d="M34900 41470
L34900 40970
L35190 41470
L35190 40970
" />
<path d="M35430 41470
L35430 40970
L35550 40970
L35620 41000
L35660 41040
L35690 41090
L35710 41190
L35710 41260
L35690 41350
L35660 41400
L35620 41450
L35550 41470
L35430 41470
" />
</g>
</g>
<g style="fill:#000000; fill-opacity:0.0; 
stroke:#000000; stroke-width:0; stroke-opacity:1; 
stroke-linecap:round; stroke-linejoin:round;">
<g >
</g>
<g style="fill:#000000; fill-opacity:0.0; 
stroke:#000000; stroke-width:60; stroke-opacity:1; 
stroke-linecap:round; stroke-linejoin:round;">
<path style="fill:#000000; fill-opacity:0.0; 
stroke:#000000; stroke-width:60; stroke-opacity:1; 
stroke-linecap:round; stroke-linejoin:round;fill:none"
d="M 41500,36300
41000,36000
" /> 
<path style="fill:#000000; fill-opacity:0.0; 
stroke:#000000; stroke-width:60; stroke-opacity:1; 
stroke-linecap:round; stroke-linejoin:round;fill:none"
d="M 42000,36000
41000,36000
" /> 
<path style="fill:#000000; fill-opacity:0.0; 
stroke:#000000; stroke-width:60; stroke-opacity:1; 
stroke-linecap:round; stroke-linejoin:round;fill:none"
d="M 41000,36000
41500,35700
" /> 
<text x="39570" y="36070"
textLength="2300" font-size="660" lengthAdjust="spacingAndGlyphs"
text-anchor="middle" opacity="0">+3.3V</text>
<path d="M38570 35850
L38950 35850
" />
<path d="M38760 36040
L38760 35660
" />
<path d="M39140 35540
L39450 35540
L39280 35730
L39350 35730
L39400 35760
L39420 35780
L39450 35830
L39450 35950
L39420 35990
L39400 36020
L39350 36040
L39210 36040
L39160 36020
L39140 35990
" />
<path d="M39660 35990
L39680 36020
L39660 36040
L39640 36020
L39660 35990
L39660 36040
" />
<path d="M39850 35540
L40160 35540
L39990 35730
L40070 35730
L40110 35760
L40140 35780
L40160 35830
L40160 35950
L40140 35990
L40110 36020
L40070 36040
L39920 36040
L39870 36020
L39850 35990
" />
<path d="M40300 35540
L40470 36040
L40640 35540
" />
</g>
</g>
<g style="fill:#000000; fill-opacity:0.0; 
stroke:#000000; stroke-width:0; stroke-opacity:1; 
stroke-linecap:round; stroke-linejoin:round;">
<g >
</g>
<g style="fill:#000000; fill-opacity:0.0; 
stroke:#000000; stroke-width:60; stroke-opacity:1; 
stroke-linecap:round; stroke-linejoin:round;">
<path style="fill:#000000; fill-opacity:0.0; 
stroke:#000000; stroke-width:60; stroke-opacity:1; 
stroke-linecap:round; stroke-linejoin:round;fill:none"
d="M 42000,38000
41500,38000
41500,38500
41000,38000
41500,37500
41500,38000
" /> 
<text x="39930" y="38320"
textLength="1580" font-size="660" lengthAdjust="spacingAndGlyphs"
text-anchor="middle" opacity="0">GND</text>
<path d="M39540 37820
L39500 37790
L39430 37790
L39350 37820
L39310 37860
L39280 37910
L39260 38010
L39260 38080
L39280 38170
L39310 38220
L39350 38270
L39430 38290
L39470 38290
L39540 38270
L39570 38240
L39570 38080
L39470 38080
" />
<path d="M39780 38290
L39780 37790
L40070 38290
L40070 37790
" />
<path d="M40310 38290
L40310 37790
L40430 37790
L40500 37820
L40540 37860
L40570 37910
L40590 38010
L40590 38080
L40570 38170
L40540 38220
L40500 38270
L40430 38290
L40310 38290
" />
</g>
</g>
<g style="fill:#000000; fill-opacity:0.0; 
stroke:#000000; stroke-width:0; stroke-opacity:1; 
stroke-linecap:round; stroke-linejoin:round;">
<g >
</g>
<g style="fill:#000000; fill-opacity:0.0; 
stroke:#000000; stroke-width:60; stroke-opacity:1; 
stroke-linecap:round; stroke-linejoin:round;">
<path style="fill:#000000; fill-opacity:0.0; 
stroke:#000000; stroke-width:60; stroke-opacity:1; 
stroke-linecap:round; stroke-linejoin:round;fill:none"
d="M 42000,39000
41500,39000
41500,39500
41000,39000
41500,38500
41500,39000
" /> 
<text x="39930" y="39320"
textLength="1580" font-size="660" lengthAdjust="spacingAndGlyphs"
text-anchor="middle" opacity="0">GND</text>
<path d="M39540 38820
L39500 38790
L39430 38790
L39350 38820
L39310 38860
L39280 38910
L39260 39010
L39260 39080
L39280 39170
L39310 39220
L39350 39270
L39430 39290
L39470 39290
L39540 39270
L39570 39240
L39570 39080
L39470 39080
" />
<path d="M39780 39290
L39780 38790
L40070 39290
L40070 38790
" />
<path d="M40310 39290
L40310 38790
L40430 38790
L40500 38820
L40540 38860
L40570 38910
L40590 39010
L40590 39080
L40570 39170
L40540 39220
L40500 39270
L40430 39290
L40310 39290
" />
</g>
</g>
<g style="fill:#000000; fill-opacity:0.0; 
stroke:#000000; stroke-width:0; stroke-opacity:1; 
stroke-linecap:round; stroke-linejoin:round;">
<g >
</g>
<g style="fill:#000000; fill-opacity:0.0; 
stroke:#000000; stroke-width:60; stroke-opacity:1; 
stroke-linecap:round; stroke-linejoin:round;">
<path style="fill:#000000; fill-opacity:0.0; 
stroke:#000000; stroke-width:60; stroke-opacity:1; 
stroke-linecap:round; stroke-linejoin:round;fill:none"
d="M 34700,35000
35000,34500
" /> 
<path style="fill:#000000; fill-opacity:0.0; 
stroke:#000000; stroke-width:60; stroke-opacity:1; 
stroke-linecap:round; stroke-linejoin:round;fill:none"
d="M 35000,35500
35000,34500
" /> 
<path style="fill:#000000; fill-opacity:0.0; 
stroke:#000000; stroke-width:60; stroke-opacity:1; 
stroke-linecap:round; stroke-linejoin:round;fill:none"
d="M 35000,34500
35300,35000
" /> 
<text x="35150" y="34040"
textLength="2300" font-size="660" lengthAdjust="spacingAndGlyphs"
text-anchor="middle" opacity="0">+3.3V</text>
<path d="M34150 33820
L34530 33820
" />
<path d="M34340 34010
L34340 33630
" />
<path d="M34720 33510
L35030 33510
L34860 33700
L34930 33700
L34980 33730
L35000 33750
L35030 33800
L35030 33920
L35000 33960
L34980 33990
L34930 34010
L34790 34010
L34740 33990
L34720 33960
" />
<path d="M35240 33960
L35260 33990
L35240 34010
L35220 33990
L35240 33960
L35240 34010
" />
<path d="M35430 33510
L35740 33510
L35570 33700
L35650 33700
L35690 33730
L35720 33750
L35740 33800
L35740 33920
L35720 33960
L35690 33990
L35650 34010
L35500 34010
L35450 33990
L35430 33960
" />
<path d="M35880 33510
L36050 34010
L36220 33510
" />
</g>
</g>
<g style="fill:#000000; fill-opacity:0.0; 
stroke:#000000; stroke-width:0; stroke-opacity:1; 
stroke-linecap:round; stroke-linejoin:round;">
<g >
</g>
<g style="fill:#000000; fill-opacity:0.0; 
stroke:#000000; stroke-width:60; stroke-opacity:1; 
stroke-linecap:round; stroke-linejoin:round;">
<path style="fill:#000000; fill-opacity:0.0; 
stroke:#000000; stroke-width:60; stroke-opacity:1; 
stroke-linecap:round; stroke-linejoin:round;fill:none"
d="M 42000,41000
41500,41000
41500,41500
41000,41000
41500,40500
41500,41000
" /> 
<text x="39930" y="41320"
textLength="1580" font-size="660" lengthAdjust="spacingAndGlyphs"
text-anchor="middle" opacity="0">GND</text>
<path d="M39540 40820
L39500 40790
L39430 40790
L39350 40820
L39310 40860
L39280 40910
L39260 41010
L39260 41080
L39280 41170
L39310 41220
L39350 41270
L39430 41290
L39470 41290
L39540 41270
L39570 41240
L39570 41080
L39470 41080
" />
<path d="M39780 41290
L39780 40790
L40070 41290
L40070 40790
" />
<path d="M40310 41290
L40310 40790
L40430 40790
L40500 40820
L40540 40860
L40570 40910
L40590 41010
L40590 41080
L40570 41170
L40540 41220
L40500 41270
L40430 41290
L40310 41290
" />
</g>
</g>
<g style="fill:#000000; fill-opacity:0.0; 
stroke:#000000; stroke-width:60; stroke-opacity:1; 
stroke-linecap:round; stroke-linejoin:round;">
<path d="M35000 36000
L35000 35500
" />
<path d="M35000 39500
L35000 39000
" />
<path d="M69500 39500
L69500 39000
" />
<path d="M69500 36000
L69500 35500
" />
<path d="M74000 35500
L74000 36000
" />
<path d="M74000 39000
L74000 39500
" />
<path d="M82000 35000
L82500 35000
" />
<path d="M82500 38000
L82000 38000
" />
<path d="M85500 35000
L86000 35000
" />
<path d="M86000 38000
L85500 38000
" />
<path d="M42500 41000
L42000 41000
" />
<path d="M42000 40000
L42500 40000
" />
<path d="M42500 39000
L42000 39000
" />
<path d="M42000 38000
L42500 38000
" />
<path d="M42500 37000
L42000 37000
" />
<path d="M42000 36000
L42500 36000
" />
<path d="M63000 36000
L62500 36000
" />
<path d="M62500 37000
L63000 37000
" />
<path d="M63000 38000
L62500 38000
" />
<path d="M62500 39000
L63000 39000
" />
<path d="M63000 41000
L62500 41000
" />
<text x="63310" y="41250"
textLength="2920" font-size="660" lengthAdjust="spacingAndGlyphs"
text-anchor="start" opacity="0">GPIOI_1</text>
<path d="M63720 40750
L63670 40720
L63600 40720
L63530 40750
L63480 40790
L63450 40840
L63430 40940
L63430 41010
L63450 41100
L63480 41150
L63530 41200
L63600 41220
L63640 41220
L63720 41200
L63740 41170
L63740 41010
L63640 41010
" />
<path d="M63950 41220
L63950 40720
L64140 40720
L64190 40750
L64220 40770
L64240 40820
L64240 40890
L64220 40940
L64190 40960
L64140 40980
L63950 40980
" />
<path d="M64450 41220
L64450 40720
" />
<path d="M64790 40720
L64880 40720
L64930 40750
L64980 40790
L65000 40890
L65000 41050
L64980 41150
L64930 41200
L64880 41220
L64790 41220
L64740 41200
L64690 41150
L64670 41050
L64670 40890
L64690 40790
L64740 40750
L64790 40720
" />
<path d="M65220 41220
L65220 40720
" />
<path d="M65340 41270
L65720 41270
" />
<path d="M66100 41220
L65810 41220
" />
<path d="M65950 41220
L65950 40720
L65910 40790
L65860 40840
L65810 40860
" />
</g>
<g style="fill:#000000; fill-opacity:0.0; 
stroke:#000000; stroke-width:100; stroke-opacity:1; 
stroke-linecap:round; stroke-linejoin:round;">
<path style="fill:#000000; fill-opacity:0.0; 
stroke:#000000; stroke-width:100; stroke-opacity:1; 
stroke-linecap:round; stroke-linejoin:round;fill:none"
d="M 63000,41000
63250,41440
66340,41440
66340,41000
66340,40560
63250,40560
Z" /> 
</g>
<g style="fill:#000000; fill-opacity:0.0; 
stroke:#000000; stroke-width:60; stroke-opacity:1; 
stroke-linecap:round; stroke-linejoin:round;">
<text x="81690" y="35250"
textLength="2920" font-size="660" lengthAdjust="spacingAndGlyphs"
text-anchor="end" opacity="0">GPIOI_1</text>
<path d="M79180 34750
L79130 34720
L79060 34720
L78990 34750
L78940 34790
L78920 34840
L78890 34940
L78890 35010
L78920 35100
L78940 35150
L78990 35200
L79060 35220
L79110 35220
L79180 35200
L79200 35170
L79200 35010
L79110 35010
" />
<path d="M79420 35220
L79420 34720
L79610 34720
L79660 34750
L79680 34770
L79700 34820
L79700 34890
L79680 34940
L79660 34960
L79610 34980
L79420 34980
" />
<path d="M79920 35220
L79920 34720
" />
<path d="M80250 34720
L80350 34720
L80390 34750
L80440 34790
L80460 34890
L80460 35050
L80440 35150
L80390 35200
L80350 35220
L80250 35220
L80200 35200
L80160 35150
L80130 35050
L80130 34890
L80160 34790
L80200 34750
L80250 34720
" />
<path d="M80680 35220
L80680 34720
" />
<path d="M80800 35270
L81180 35270
" />
<path d="M81560 35220
L81270 35220
" />
<path d="M81420 35220
L81420 34720
L81370 34790
L81320 34840
L81270 34860
" />
</g>
<g style="fill:#000000; fill-opacity:0.0; 
stroke:#000000; stroke-width:100; stroke-opacity:1; 
stroke-linecap:round; stroke-linejoin:round;">
<path style="fill:#000000; fill-opacity:0.0; 
stroke:#000000; stroke-width:100; stroke-opacity:1; 
stroke-linecap:round; stroke-linejoin:round;fill:none"
d="M 82000,35000
81750,34560
78660,34560
78660,35000
78660,35440
81750,35440
Z" /> 
</g>
<g style="fill:#000000; fill-opacity:0.0; 
stroke:#000000; stroke-width:60; stroke-opacity:1; 
stroke-linecap:round; stroke-linejoin:round;">
<text x="63310" y="38250"
textLength="1440" font-size="660" lengthAdjust="spacingAndGlyphs"
text-anchor="start" opacity="0">SCL</text>
<path d="M63430 38200
L63500 38220
L63620 38220
L63670 38200
L63690 38170
L63720 38130
L63720 38080
L63690 38030
L63670 38010
L63620 37980
L63530 37960
L63480 37940
L63450 37910
L63430 37860
L63430 37820
L63450 37770
L63480 37750
L63530 37720
L63640 37720
L63720 37750
" />
<path d="M64220 38170
L64190 38200
L64120 38220
L64070 38220
L64000 38200
L63950 38150
L63930 38100
L63910 38010
L63910 37940
L63930 37840
L63950 37790
L64000 37750
L64070 37720
L64120 37720
L64190 37750
L64220 37770
" />
<path d="M64670 38220
L64430 38220
L64430 37720
" />
</g>
<g style="fill:#000000; fill-opacity:0.0; 
stroke:#000000; stroke-width:100; stroke-opacity:1; 
stroke-linecap:round; stroke-linejoin:round;">
<path style="fill:#000000; fill-opacity:0.0; 
stroke:#000000; stroke-width:100; stroke-opacity:1; 
stroke-linecap:round; stroke-linejoin:round;fill:none"
d="M 63000,38000
63250,38440
64860,38440
64860,38000
64860,37560
63250,37560
Z" /> 
</g>
<g style="fill:#000000; fill-opacity:0.0; 
stroke:#000000; stroke-width:60; stroke-opacity:1; 
stroke-linecap:round; stroke-linejoin:round;">
<text x="63310" y="39250"
textLength="1460" font-size="660" lengthAdjust="spacingAndGlyphs"
text-anchor="start" opacity="0">SDA</text>
<path d="M63430 39200
L63500 39220
L63620 39220
L63670 39200
L63690 39170
L63720 39130
L63720 39080
L63690 39030
L63670 39010
L63620 38980
L63530 38960
L63480 38940
L63450 38910
L63430 38860
L63430 38820
L63450 38770
L63480 38750
L63530 38720
L63640 38720
L63720 38750
" />
<path d="M63930 39220
L63930 38720
L64050 38720
L64120 38750
L64170 38790
L64190 38840
L64220 38940
L64220 39010
L64190 39100
L64170 39150
L64120 39200
L64050 39220
L63930 39220
" />
<path d="M64410 39080
L64640 39080
" />
<path d="M64360 39220
L64530 38720
L64690 39220
" />
</g>
<g style="fill:#000000; fill-opacity:0.0; 
stroke:#000000; stroke-width:100; stroke-opacity:1; 
stroke-linecap:round; stroke-linejoin:round;">
<path style="fill:#000000; fill-opacity:0.0; 
stroke:#000000; stroke-width:100; stroke-opacity:1; 
stroke-linecap:round; stroke-linejoin:round;fill:none"
d="M 63000,39000
63250,39440
64880,39440
64880,39000
64880,38560
63250,38560
Z" /> 
</g>
<g style="fill:#000000; fill-opacity:0.0; 
stroke:#000000; stroke-width:60; stroke-opacity:1; 
stroke-linecap:round; stroke-linejoin:round;">
<text x="41690" y="40250"
textLength="3300" font-size="660" lengthAdjust="spacingAndGlyphs"
text-anchor="end" opacity="0">XSHUT_1</text>
<path d="M38490 39720
L38820 40220
" />
<path d="M38820 39720
L38490 40220
" />
<path d="M38990 40200
L39060 40220
L39180 40220
L39230 40200
L39250 40170
L39270 40130
L39270 40080
L39250 40030
L39230 40010
L39180 39980
L39080 39960
L39040 39940
L39010 39910
L38990 39860
L38990 39820
L39010 39770
L39040 39750
L39080 39720
L39200 39720
L39270 39750
" />
<path d="M39490 40220
L39490 39720
" />
<path d="M39490 39960
L39770 39960
" />
<path d="M39770 40220
L39770 39720
" />
<path d="M40010 39720
L40010 40130
L40040 40170
L40060 40200
L40110 40220
L40200 40220
L40250 40200
L40270 40170
L40300 40130
L40300 39720
" />
<path d="M40460 39720
L40750 39720
" />
<path d="M40610 40220
L40610 39720
" />
<path d="M40800 40270
L41180 40270
" />
<path d="M41560 40220
L41270 40220
" />
<path d="M41420 40220
L41420 39720
L41370 39790
L41320 39840
L41270 39860
" />
</g>
<g style="fill:#000000; fill-opacity:0.0; 
stroke:#000000; stroke-width:100; stroke-opacity:1; 
stroke-linecap:round; stroke-linejoin:round;">
<path style="fill:#000000; fill-opacity:0.0; 
stroke:#000000; stroke-width:100; stroke-opacity:1; 
stroke-linecap:round; stroke-linejoin:round;fill:none"
d="M 42000,40000
41750,39560
38280,39560
38280,40000
38280,40440
41750,40440
Z" /> 
</g>
<g style="fill:#000000; fill-opacity:0.0; 
stroke:#000000; stroke-width:60; stroke-opacity:1; 
stroke-linecap:round; stroke-linejoin:round;">
<text x="81690" y="38250"
textLength="3300" font-size="660" lengthAdjust="spacingAndGlyphs"
text-anchor="end" opacity="0">XSHUT_1</text>
<path d="M78490 37720
L78820 38220
" />
<path d="M78820 37720
L78490 38220
" />
<path d="M78990 38200
L79060 38220
L79180 38220
L79230 38200
L79250 38170
L79270 38130
L79270 38080
L79250 38030
L79230 38010
L79180 37980
L79080 37960
L79040 37940
L79010 37910
L78990 37860
L78990 37820
L79010 37770
L79040 37750
L79080 37720
L79200 37720
L79270 37750
" />
<path d="M79490 38220
L79490 37720
" />
<path d="M79490 37960
L79770 37960
" />
<path d="M79770 38220
L79770 37720
" />
<path d="M80010 37720
L80010 38130
L80040 38170
L80060 38200
L80110 38220
L80200 38220
L80250 38200
L80270 38170
L80300 38130
L80300 37720
" />
<path d="M80460 37720
L80750 37720
" />
<path d="M80610 38220
L80610 37720
" />
<path d="M80800 38270
L81180 38270
" />
<path d="M81560 38220
L81270 38220
" />
<path d="M81420 38220
L81420 37720
L81370 37790
L81320 37840
L81270 37860
" />
</g>
<g style="fill:#000000; fill-opacity:0.0; 
stroke:#000000; stroke-width:100; stroke-opacity:1; 
stroke-linecap:round; stroke-linejoin:round;">
<path style="fill:#000000; fill-opacity:0.0; 
stroke:#000000; stroke-width:100; stroke-opacity:1; 
stroke-linecap:round; stroke-linejoin:round;fill:none"
d="M 82000,38000
81750,37560
78280,37560
78280,38000
78280,38440
81750,38440
Z" /> 
</g> 
</svg>
