%TF.GenerationSoftware,KiCad,Pcbnew,(5.1.10)-1*%
%TF.CreationDate,2022-02-24T08:52:08+01:00*%
%TF.ProjectId,GestureControl,47657374-7572-4654-936f-6e74726f6c2e,V0.1*%
%TF.SameCoordinates,Original*%
%TF.FileFunction,Copper,L4,Bot*%
%TF.FilePolarity,Positive*%
%FSLAX46Y46*%
G04 Gerber Fmt 4.6, Leading zero omitted, Abs format (unit mm)*
G04 Created by KiCad (PCBNEW (5.1.10)-1) date 2022-02-24 08:52:08*
%MOMM*%
%LPD*%
G01*
G04 APERTURE LIST*
%TA.AperFunction,SMDPad,CuDef*%
%ADD10R,1.500000X1.500000*%
%TD*%
%TA.AperFunction,ComponentPad*%
%ADD11O,1.700000X1.700000*%
%TD*%
%TA.AperFunction,ComponentPad*%
%ADD12R,1.700000X1.700000*%
%TD*%
%TA.AperFunction,SMDPad,CuDef*%
%ADD13R,3.500000X1.800000*%
%TD*%
%TA.AperFunction,SMDPad,CuDef*%
%ADD14R,1.500000X1.000000*%
%TD*%
%TA.AperFunction,SMDPad,CuDef*%
%ADD15C,0.100000*%
%TD*%
%TA.AperFunction,SMDPad,CuDef*%
%ADD16R,1.500000X2.000000*%
%TD*%
%TA.AperFunction,SMDPad,CuDef*%
%ADD17R,3.800000X2.000000*%
%TD*%
%TA.AperFunction,SMDPad,CuDef*%
%ADD18R,1.000000X1.000000*%
%TD*%
%TA.AperFunction,ComponentPad*%
%ADD19O,1.800000X3.600000*%
%TD*%
%TA.AperFunction,ViaPad*%
%ADD20C,0.800000*%
%TD*%
%TA.AperFunction,Conductor*%
%ADD21C,0.500000*%
%TD*%
%TA.AperFunction,Conductor*%
%ADD22C,0.250000*%
%TD*%
G04 APERTURE END LIST*
D10*
%TO.P,J19,1*%
%TO.N,/STM32L151RET6TR/PA10*%
X135636000Y-71374000D03*
%TD*%
%TO.P,J18,1*%
%TO.N,/STM32L151RET6TR/PA9*%
X135636000Y-68834000D03*
%TD*%
%TO.P,J17,1*%
%TO.N,/STM32L151RET6TR/PC8*%
X135636000Y-66294000D03*
%TD*%
%TO.P,J16,1*%
%TO.N,/STM32L151RET6TR/PC7*%
X135636000Y-63754000D03*
%TD*%
%TO.P,J15,1*%
%TO.N,/STM32L151RET6TR/PC6*%
X135636000Y-61214000D03*
%TD*%
%TO.P,J14,1*%
%TO.N,/STM32L151RET6TR/PB15*%
X138176000Y-68834000D03*
%TD*%
%TO.P,J13,1*%
%TO.N,/STM32L151RET6TR/PB14*%
X138176000Y-66294000D03*
%TD*%
%TO.P,J12,1*%
%TO.N,/STM32L151RET6TR/PB13*%
X138176000Y-63754000D03*
%TD*%
%TO.P,J11,1*%
%TO.N,/STM32L151RET6TR/PB12*%
X138176000Y-61214000D03*
%TD*%
D11*
%TO.P,J7,6*%
%TO.N,/STM32L151RET6TR/FTDI_RTS*%
X115316000Y-98806000D03*
%TO.P,J7,5*%
%TO.N,/STM32L151RET6TR/FTDI_RXD*%
X112776000Y-98806000D03*
%TO.P,J7,4*%
%TO.N,/STM32L151RET6TR/FTDI_TXD*%
X110236000Y-98806000D03*
%TO.P,J7,3*%
%TO.N,+5V*%
X107696000Y-98806000D03*
%TO.P,J7,2*%
%TO.N,/STM32L151RET6TR/FTDI_CTS*%
X105156000Y-98806000D03*
D12*
%TO.P,J7,1*%
%TO.N,GND*%
X102616000Y-98806000D03*
%TD*%
%TO.P,R8,2*%
%TO.N,Net-(C1-Pad1)*%
%TA.AperFunction,SMDPad,CuDef*%
G36*
G01*
X159642000Y-91636001D02*
X159642000Y-90735999D01*
G75*
G02*
X159891999Y-90486000I249999J0D01*
G01*
X160592001Y-90486000D01*
G75*
G02*
X160842000Y-90735999I0J-249999D01*
G01*
X160842000Y-91636001D01*
G75*
G02*
X160592001Y-91886000I-249999J0D01*
G01*
X159891999Y-91886000D01*
G75*
G02*
X159642000Y-91636001I0J249999D01*
G01*
G37*
%TD.AperFunction*%
%TO.P,R8,1*%
%TO.N,+3V3*%
%TA.AperFunction,SMDPad,CuDef*%
G36*
G01*
X157642000Y-91636001D02*
X157642000Y-90735999D01*
G75*
G02*
X157891999Y-90486000I249999J0D01*
G01*
X158592001Y-90486000D01*
G75*
G02*
X158842000Y-90735999I0J-249999D01*
G01*
X158842000Y-91636001D01*
G75*
G02*
X158592001Y-91886000I-249999J0D01*
G01*
X157891999Y-91886000D01*
G75*
G02*
X157642000Y-91636001I0J249999D01*
G01*
G37*
%TD.AperFunction*%
%TD*%
%TO.P,R4,2*%
%TO.N,LED_4*%
%TA.AperFunction,SMDPad,CuDef*%
G36*
G01*
X127162000Y-88334001D02*
X127162000Y-87433999D01*
G75*
G02*
X127411999Y-87184000I249999J0D01*
G01*
X128112001Y-87184000D01*
G75*
G02*
X128362000Y-87433999I0J-249999D01*
G01*
X128362000Y-88334001D01*
G75*
G02*
X128112001Y-88584000I-249999J0D01*
G01*
X127411999Y-88584000D01*
G75*
G02*
X127162000Y-88334001I0J249999D01*
G01*
G37*
%TD.AperFunction*%
%TO.P,R4,1*%
%TO.N,Net-(D4-Pad2)*%
%TA.AperFunction,SMDPad,CuDef*%
G36*
G01*
X125162000Y-88334001D02*
X125162000Y-87433999D01*
G75*
G02*
X125411999Y-87184000I249999J0D01*
G01*
X126112001Y-87184000D01*
G75*
G02*
X126362000Y-87433999I0J-249999D01*
G01*
X126362000Y-88334001D01*
G75*
G02*
X126112001Y-88584000I-249999J0D01*
G01*
X125411999Y-88584000D01*
G75*
G02*
X125162000Y-88334001I0J249999D01*
G01*
G37*
%TD.AperFunction*%
%TD*%
%TO.P,C2,2*%
%TO.N,SW_2*%
%TA.AperFunction,SMDPad,CuDef*%
G36*
G01*
X134082500Y-93455500D02*
X134082500Y-92980500D01*
G75*
G02*
X134320000Y-92743000I237500J0D01*
G01*
X134920000Y-92743000D01*
G75*
G02*
X135157500Y-92980500I0J-237500D01*
G01*
X135157500Y-93455500D01*
G75*
G02*
X134920000Y-93693000I-237500J0D01*
G01*
X134320000Y-93693000D01*
G75*
G02*
X134082500Y-93455500I0J237500D01*
G01*
G37*
%TD.AperFunction*%
%TO.P,C2,1*%
%TO.N,Net-(C2-Pad1)*%
%TA.AperFunction,SMDPad,CuDef*%
G36*
G01*
X132357500Y-93455500D02*
X132357500Y-92980500D01*
G75*
G02*
X132595000Y-92743000I237500J0D01*
G01*
X133195000Y-92743000D01*
G75*
G02*
X133432500Y-92980500I0J-237500D01*
G01*
X133432500Y-93455500D01*
G75*
G02*
X133195000Y-93693000I-237500J0D01*
G01*
X132595000Y-93693000D01*
G75*
G02*
X132357500Y-93455500I0J237500D01*
G01*
G37*
%TD.AperFunction*%
%TD*%
D11*
%TO.P,J1,4*%
%TO.N,SCL1*%
X166116000Y-75438000D03*
%TO.P,J1,3*%
%TO.N,SDA1*%
X166116000Y-72898000D03*
%TO.P,J1,2*%
%TO.N,+5V*%
X166116000Y-70358000D03*
D12*
%TO.P,J1,1*%
%TO.N,GND*%
X166116000Y-67818000D03*
%TD*%
%TO.P,R5,2*%
%TO.N,LED_5*%
%TA.AperFunction,SMDPad,CuDef*%
G36*
G01*
X127162000Y-86048001D02*
X127162000Y-85147999D01*
G75*
G02*
X127411999Y-84898000I249999J0D01*
G01*
X128112001Y-84898000D01*
G75*
G02*
X128362000Y-85147999I0J-249999D01*
G01*
X128362000Y-86048001D01*
G75*
G02*
X128112001Y-86298000I-249999J0D01*
G01*
X127411999Y-86298000D01*
G75*
G02*
X127162000Y-86048001I0J249999D01*
G01*
G37*
%TD.AperFunction*%
%TO.P,R5,1*%
%TO.N,Net-(D5-Pad2)*%
%TA.AperFunction,SMDPad,CuDef*%
G36*
G01*
X125162000Y-86048001D02*
X125162000Y-85147999D01*
G75*
G02*
X125411999Y-84898000I249999J0D01*
G01*
X126112001Y-84898000D01*
G75*
G02*
X126362000Y-85147999I0J-249999D01*
G01*
X126362000Y-86048001D01*
G75*
G02*
X126112001Y-86298000I-249999J0D01*
G01*
X125411999Y-86298000D01*
G75*
G02*
X125162000Y-86048001I0J249999D01*
G01*
G37*
%TD.AperFunction*%
%TD*%
%TO.P,R1,2*%
%TO.N,LED_1*%
%TA.AperFunction,SMDPad,CuDef*%
G36*
G01*
X127162000Y-95192001D02*
X127162000Y-94291999D01*
G75*
G02*
X127411999Y-94042000I249999J0D01*
G01*
X128112001Y-94042000D01*
G75*
G02*
X128362000Y-94291999I0J-249999D01*
G01*
X128362000Y-95192001D01*
G75*
G02*
X128112001Y-95442000I-249999J0D01*
G01*
X127411999Y-95442000D01*
G75*
G02*
X127162000Y-95192001I0J249999D01*
G01*
G37*
%TD.AperFunction*%
%TO.P,R1,1*%
%TO.N,Net-(D1-Pad2)*%
%TA.AperFunction,SMDPad,CuDef*%
G36*
G01*
X125162000Y-95192001D02*
X125162000Y-94291999D01*
G75*
G02*
X125411999Y-94042000I249999J0D01*
G01*
X126112001Y-94042000D01*
G75*
G02*
X126362000Y-94291999I0J-249999D01*
G01*
X126362000Y-95192001D01*
G75*
G02*
X126112001Y-95442000I-249999J0D01*
G01*
X125411999Y-95442000D01*
G75*
G02*
X125162000Y-95192001I0J249999D01*
G01*
G37*
%TD.AperFunction*%
%TD*%
%TO.P,C18,2*%
%TO.N,GND*%
%TA.AperFunction,SMDPad,CuDef*%
G36*
G01*
X148880500Y-88933000D02*
X148880500Y-89883000D01*
G75*
G02*
X148630500Y-90133000I-250000J0D01*
G01*
X147955500Y-90133000D01*
G75*
G02*
X147705500Y-89883000I0J250000D01*
G01*
X147705500Y-88933000D01*
G75*
G02*
X147955500Y-88683000I250000J0D01*
G01*
X148630500Y-88683000D01*
G75*
G02*
X148880500Y-88933000I0J-250000D01*
G01*
G37*
%TD.AperFunction*%
%TO.P,C18,1*%
%TO.N,/STM32L151RET6TR/OSM_OUT*%
%TA.AperFunction,SMDPad,CuDef*%
G36*
G01*
X150955500Y-88933000D02*
X150955500Y-89883000D01*
G75*
G02*
X150705500Y-90133000I-250000J0D01*
G01*
X150030500Y-90133000D01*
G75*
G02*
X149780500Y-89883000I0J250000D01*
G01*
X149780500Y-88933000D01*
G75*
G02*
X150030500Y-88683000I250000J0D01*
G01*
X150705500Y-88683000D01*
G75*
G02*
X150955500Y-88933000I0J-250000D01*
G01*
G37*
%TD.AperFunction*%
%TD*%
%TO.P,C22,2*%
%TO.N,/STM32L151RET6TR/OS32_IN*%
%TA.AperFunction,SMDPad,CuDef*%
G36*
G01*
X142731500Y-92231500D02*
X142256500Y-92231500D01*
G75*
G02*
X142019000Y-91994000I0J237500D01*
G01*
X142019000Y-91394000D01*
G75*
G02*
X142256500Y-91156500I237500J0D01*
G01*
X142731500Y-91156500D01*
G75*
G02*
X142969000Y-91394000I0J-237500D01*
G01*
X142969000Y-91994000D01*
G75*
G02*
X142731500Y-92231500I-237500J0D01*
G01*
G37*
%TD.AperFunction*%
%TO.P,C22,1*%
%TO.N,GND*%
%TA.AperFunction,SMDPad,CuDef*%
G36*
G01*
X142731500Y-93956500D02*
X142256500Y-93956500D01*
G75*
G02*
X142019000Y-93719000I0J237500D01*
G01*
X142019000Y-93119000D01*
G75*
G02*
X142256500Y-92881500I237500J0D01*
G01*
X142731500Y-92881500D01*
G75*
G02*
X142969000Y-93119000I0J-237500D01*
G01*
X142969000Y-93719000D01*
G75*
G02*
X142731500Y-93956500I-237500J0D01*
G01*
G37*
%TD.AperFunction*%
%TD*%
%TO.P,C21,2*%
%TO.N,GND*%
%TA.AperFunction,SMDPad,CuDef*%
G36*
G01*
X159241500Y-61905000D02*
X158766500Y-61905000D01*
G75*
G02*
X158529000Y-61667500I0J237500D01*
G01*
X158529000Y-61067500D01*
G75*
G02*
X158766500Y-60830000I237500J0D01*
G01*
X159241500Y-60830000D01*
G75*
G02*
X159479000Y-61067500I0J-237500D01*
G01*
X159479000Y-61667500D01*
G75*
G02*
X159241500Y-61905000I-237500J0D01*
G01*
G37*
%TD.AperFunction*%
%TO.P,C21,1*%
%TO.N,/STM32L151RET6TR/RST*%
%TA.AperFunction,SMDPad,CuDef*%
G36*
G01*
X159241500Y-63630000D02*
X158766500Y-63630000D01*
G75*
G02*
X158529000Y-63392500I0J237500D01*
G01*
X158529000Y-62792500D01*
G75*
G02*
X158766500Y-62555000I237500J0D01*
G01*
X159241500Y-62555000D01*
G75*
G02*
X159479000Y-62792500I0J-237500D01*
G01*
X159479000Y-63392500D01*
G75*
G02*
X159241500Y-63630000I-237500J0D01*
G01*
G37*
%TD.AperFunction*%
%TD*%
%TO.P,C33,2*%
%TO.N,GND*%
%TA.AperFunction,SMDPad,CuDef*%
G36*
G01*
X141511000Y-72353500D02*
X142461000Y-72353500D01*
G75*
G02*
X142711000Y-72603500I0J-250000D01*
G01*
X142711000Y-73278500D01*
G75*
G02*
X142461000Y-73528500I-250000J0D01*
G01*
X141511000Y-73528500D01*
G75*
G02*
X141261000Y-73278500I0J250000D01*
G01*
X141261000Y-72603500D01*
G75*
G02*
X141511000Y-72353500I250000J0D01*
G01*
G37*
%TD.AperFunction*%
%TO.P,C33,1*%
%TO.N,+3V3*%
%TA.AperFunction,SMDPad,CuDef*%
G36*
G01*
X141511000Y-70278500D02*
X142461000Y-70278500D01*
G75*
G02*
X142711000Y-70528500I0J-250000D01*
G01*
X142711000Y-71203500D01*
G75*
G02*
X142461000Y-71453500I-250000J0D01*
G01*
X141511000Y-71453500D01*
G75*
G02*
X141261000Y-71203500I0J250000D01*
G01*
X141261000Y-70528500D01*
G75*
G02*
X141511000Y-70278500I250000J0D01*
G01*
G37*
%TD.AperFunction*%
%TD*%
%TO.P,R21,2*%
%TO.N,SDA2*%
%TA.AperFunction,SMDPad,CuDef*%
G36*
G01*
X166786000Y-48964001D02*
X166786000Y-48063999D01*
G75*
G02*
X167035999Y-47814000I249999J0D01*
G01*
X167736001Y-47814000D01*
G75*
G02*
X167986000Y-48063999I0J-249999D01*
G01*
X167986000Y-48964001D01*
G75*
G02*
X167736001Y-49214000I-249999J0D01*
G01*
X167035999Y-49214000D01*
G75*
G02*
X166786000Y-48964001I0J249999D01*
G01*
G37*
%TD.AperFunction*%
%TO.P,R21,1*%
%TO.N,+3V3*%
%TA.AperFunction,SMDPad,CuDef*%
G36*
G01*
X164786000Y-48964001D02*
X164786000Y-48063999D01*
G75*
G02*
X165035999Y-47814000I249999J0D01*
G01*
X165736001Y-47814000D01*
G75*
G02*
X165986000Y-48063999I0J-249999D01*
G01*
X165986000Y-48964001D01*
G75*
G02*
X165736001Y-49214000I-249999J0D01*
G01*
X165035999Y-49214000D01*
G75*
G02*
X164786000Y-48964001I0J249999D01*
G01*
G37*
%TD.AperFunction*%
%TD*%
%TO.P,R22,2*%
%TO.N,SCL2*%
%TA.AperFunction,SMDPad,CuDef*%
G36*
G01*
X166786000Y-46424001D02*
X166786000Y-45523999D01*
G75*
G02*
X167035999Y-45274000I249999J0D01*
G01*
X167736001Y-45274000D01*
G75*
G02*
X167986000Y-45523999I0J-249999D01*
G01*
X167986000Y-46424001D01*
G75*
G02*
X167736001Y-46674000I-249999J0D01*
G01*
X167035999Y-46674000D01*
G75*
G02*
X166786000Y-46424001I0J249999D01*
G01*
G37*
%TD.AperFunction*%
%TO.P,R22,1*%
%TO.N,+3V3*%
%TA.AperFunction,SMDPad,CuDef*%
G36*
G01*
X164786000Y-46424001D02*
X164786000Y-45523999D01*
G75*
G02*
X165035999Y-45274000I249999J0D01*
G01*
X165736001Y-45274000D01*
G75*
G02*
X165986000Y-45523999I0J-249999D01*
G01*
X165986000Y-46424001D01*
G75*
G02*
X165736001Y-46674000I-249999J0D01*
G01*
X165035999Y-46674000D01*
G75*
G02*
X164786000Y-46424001I0J249999D01*
G01*
G37*
%TD.AperFunction*%
%TD*%
D13*
%TO.P,D6,2*%
%TO.N,Net-(D6-Pad2)*%
X122976000Y-44450000D03*
%TO.P,D6,1*%
%TO.N,VCC*%
X127976000Y-44450000D03*
%TD*%
D14*
%TO.P,JP2,2*%
%TO.N,SCL2*%
X148082000Y-72390000D03*
%TA.AperFunction,SMDPad,CuDef*%
D15*
%TO.P,JP2,3*%
%TO.N,/STM32L151RET6TR/PIN41*%
G36*
X148831398Y-73690000D02*
G01*
X148831398Y-73714534D01*
X148826588Y-73763365D01*
X148817016Y-73811490D01*
X148802772Y-73858445D01*
X148783995Y-73903778D01*
X148760864Y-73947051D01*
X148733604Y-73987850D01*
X148702476Y-74025779D01*
X148667779Y-74060476D01*
X148629850Y-74091604D01*
X148589051Y-74118864D01*
X148545778Y-74141995D01*
X148500445Y-74160772D01*
X148453490Y-74175016D01*
X148405365Y-74184588D01*
X148356534Y-74189398D01*
X148332000Y-74189398D01*
X148332000Y-74190000D01*
X147832000Y-74190000D01*
X147832000Y-74189398D01*
X147807466Y-74189398D01*
X147758635Y-74184588D01*
X147710510Y-74175016D01*
X147663555Y-74160772D01*
X147618222Y-74141995D01*
X147574949Y-74118864D01*
X147534150Y-74091604D01*
X147496221Y-74060476D01*
X147461524Y-74025779D01*
X147430396Y-73987850D01*
X147403136Y-73947051D01*
X147380005Y-73903778D01*
X147361228Y-73858445D01*
X147346984Y-73811490D01*
X147337412Y-73763365D01*
X147332602Y-73714534D01*
X147332602Y-73690000D01*
X147332000Y-73690000D01*
X147332000Y-73140000D01*
X148832000Y-73140000D01*
X148832000Y-73690000D01*
X148831398Y-73690000D01*
G37*
%TD.AperFunction*%
%TA.AperFunction,SMDPad,CuDef*%
%TO.P,JP2,1*%
%TO.N,/STM32L151RET6TR/PIN29*%
G36*
X147332000Y-71640000D02*
G01*
X147332000Y-71090000D01*
X147332602Y-71090000D01*
X147332602Y-71065466D01*
X147337412Y-71016635D01*
X147346984Y-70968510D01*
X147361228Y-70921555D01*
X147380005Y-70876222D01*
X147403136Y-70832949D01*
X147430396Y-70792150D01*
X147461524Y-70754221D01*
X147496221Y-70719524D01*
X147534150Y-70688396D01*
X147574949Y-70661136D01*
X147618222Y-70638005D01*
X147663555Y-70619228D01*
X147710510Y-70604984D01*
X147758635Y-70595412D01*
X147807466Y-70590602D01*
X147832000Y-70590602D01*
X147832000Y-70590000D01*
X148332000Y-70590000D01*
X148332000Y-70590602D01*
X148356534Y-70590602D01*
X148405365Y-70595412D01*
X148453490Y-70604984D01*
X148500445Y-70619228D01*
X148545778Y-70638005D01*
X148589051Y-70661136D01*
X148629850Y-70688396D01*
X148667779Y-70719524D01*
X148702476Y-70754221D01*
X148733604Y-70792150D01*
X148760864Y-70832949D01*
X148783995Y-70876222D01*
X148802772Y-70921555D01*
X148817016Y-70968510D01*
X148826588Y-71016635D01*
X148831398Y-71065466D01*
X148831398Y-71090000D01*
X148832000Y-71090000D01*
X148832000Y-71640000D01*
X147332000Y-71640000D01*
G37*
%TD.AperFunction*%
%TD*%
D11*
%TO.P,J8,5*%
%TO.N,/STM32L151RET6TR/SW0*%
X190246000Y-98806000D03*
%TO.P,J8,4*%
%TO.N,/STM32L151RET6TR/SWCLK*%
X187706000Y-98806000D03*
%TO.P,J8,3*%
%TO.N,/STM32L151RET6TR/SWDAT*%
X185166000Y-98806000D03*
%TO.P,J8,2*%
%TO.N,+3V3*%
X182626000Y-98806000D03*
D12*
%TO.P,J8,1*%
%TO.N,GND*%
X180086000Y-98806000D03*
%TD*%
%TO.P,R20,2*%
%TO.N,GND*%
%TA.AperFunction,SMDPad,CuDef*%
G36*
G01*
X165296001Y-54702000D02*
X164395999Y-54702000D01*
G75*
G02*
X164146000Y-54452001I0J249999D01*
G01*
X164146000Y-53751999D01*
G75*
G02*
X164395999Y-53502000I249999J0D01*
G01*
X165296001Y-53502000D01*
G75*
G02*
X165546000Y-53751999I0J-249999D01*
G01*
X165546000Y-54452001D01*
G75*
G02*
X165296001Y-54702000I-249999J0D01*
G01*
G37*
%TD.AperFunction*%
%TO.P,R20,1*%
%TO.N,/STM32L151RET6TR/BOOT*%
%TA.AperFunction,SMDPad,CuDef*%
G36*
G01*
X165296001Y-56702000D02*
X164395999Y-56702000D01*
G75*
G02*
X164146000Y-56452001I0J249999D01*
G01*
X164146000Y-55751999D01*
G75*
G02*
X164395999Y-55502000I249999J0D01*
G01*
X165296001Y-55502000D01*
G75*
G02*
X165546000Y-55751999I0J-249999D01*
G01*
X165546000Y-56452001D01*
G75*
G02*
X165296001Y-56702000I-249999J0D01*
G01*
G37*
%TD.AperFunction*%
%TD*%
%TO.P,C20,2*%
%TO.N,+3V3*%
%TA.AperFunction,SMDPad,CuDef*%
G36*
G01*
X157209500Y-54893500D02*
X156734500Y-54893500D01*
G75*
G02*
X156497000Y-54656000I0J237500D01*
G01*
X156497000Y-54056000D01*
G75*
G02*
X156734500Y-53818500I237500J0D01*
G01*
X157209500Y-53818500D01*
G75*
G02*
X157447000Y-54056000I0J-237500D01*
G01*
X157447000Y-54656000D01*
G75*
G02*
X157209500Y-54893500I-237500J0D01*
G01*
G37*
%TD.AperFunction*%
%TO.P,C20,1*%
%TO.N,/STM32L151RET6TR/BOOT*%
%TA.AperFunction,SMDPad,CuDef*%
G36*
G01*
X157209500Y-56618500D02*
X156734500Y-56618500D01*
G75*
G02*
X156497000Y-56381000I0J237500D01*
G01*
X156497000Y-55781000D01*
G75*
G02*
X156734500Y-55543500I237500J0D01*
G01*
X157209500Y-55543500D01*
G75*
G02*
X157447000Y-55781000I0J-237500D01*
G01*
X157447000Y-56381000D01*
G75*
G02*
X157209500Y-56618500I-237500J0D01*
G01*
G37*
%TD.AperFunction*%
%TD*%
D16*
%TO.P,U2,1*%
%TO.N,GND*%
X126986000Y-60350000D03*
%TO.P,U2,3*%
%TO.N,VCC*%
X131586000Y-60350000D03*
%TO.P,U2,2*%
%TO.N,Net-(C6-Pad1)*%
X129286000Y-60350000D03*
D17*
X129286000Y-66650000D03*
%TD*%
%TO.P,C1,2*%
%TO.N,SW_1*%
%TA.AperFunction,SMDPad,CuDef*%
G36*
G01*
X159482500Y-93455500D02*
X159482500Y-92980500D01*
G75*
G02*
X159720000Y-92743000I237500J0D01*
G01*
X160320000Y-92743000D01*
G75*
G02*
X160557500Y-92980500I0J-237500D01*
G01*
X160557500Y-93455500D01*
G75*
G02*
X160320000Y-93693000I-237500J0D01*
G01*
X159720000Y-93693000D01*
G75*
G02*
X159482500Y-93455500I0J237500D01*
G01*
G37*
%TD.AperFunction*%
%TO.P,C1,1*%
%TO.N,Net-(C1-Pad1)*%
%TA.AperFunction,SMDPad,CuDef*%
G36*
G01*
X157757500Y-93455500D02*
X157757500Y-92980500D01*
G75*
G02*
X157995000Y-92743000I237500J0D01*
G01*
X158595000Y-92743000D01*
G75*
G02*
X158832500Y-92980500I0J-237500D01*
G01*
X158832500Y-93455500D01*
G75*
G02*
X158595000Y-93693000I-237500J0D01*
G01*
X157995000Y-93693000D01*
G75*
G02*
X157757500Y-93455500I0J237500D01*
G01*
G37*
%TD.AperFunction*%
%TD*%
%TO.P,R2,2*%
%TO.N,LED_2*%
%TA.AperFunction,SMDPad,CuDef*%
G36*
G01*
X127162000Y-92906001D02*
X127162000Y-92005999D01*
G75*
G02*
X127411999Y-91756000I249999J0D01*
G01*
X128112001Y-91756000D01*
G75*
G02*
X128362000Y-92005999I0J-249999D01*
G01*
X128362000Y-92906001D01*
G75*
G02*
X128112001Y-93156000I-249999J0D01*
G01*
X127411999Y-93156000D01*
G75*
G02*
X127162000Y-92906001I0J249999D01*
G01*
G37*
%TD.AperFunction*%
%TO.P,R2,1*%
%TO.N,Net-(D2-Pad2)*%
%TA.AperFunction,SMDPad,CuDef*%
G36*
G01*
X125162000Y-92906001D02*
X125162000Y-92005999D01*
G75*
G02*
X125411999Y-91756000I249999J0D01*
G01*
X126112001Y-91756000D01*
G75*
G02*
X126362000Y-92005999I0J-249999D01*
G01*
X126362000Y-92906001D01*
G75*
G02*
X126112001Y-93156000I-249999J0D01*
G01*
X125411999Y-93156000D01*
G75*
G02*
X125162000Y-92906001I0J249999D01*
G01*
G37*
%TD.AperFunction*%
%TD*%
%TO.P,R7,2*%
%TO.N,GND*%
%TA.AperFunction,SMDPad,CuDef*%
G36*
G01*
X133474000Y-94799999D02*
X133474000Y-95700001D01*
G75*
G02*
X133224001Y-95950000I-249999J0D01*
G01*
X132523999Y-95950000D01*
G75*
G02*
X132274000Y-95700001I0J249999D01*
G01*
X132274000Y-94799999D01*
G75*
G02*
X132523999Y-94550000I249999J0D01*
G01*
X133224001Y-94550000D01*
G75*
G02*
X133474000Y-94799999I0J-249999D01*
G01*
G37*
%TD.AperFunction*%
%TO.P,R7,1*%
%TO.N,SW_2*%
%TA.AperFunction,SMDPad,CuDef*%
G36*
G01*
X135474000Y-94799999D02*
X135474000Y-95700001D01*
G75*
G02*
X135224001Y-95950000I-249999J0D01*
G01*
X134523999Y-95950000D01*
G75*
G02*
X134274000Y-95700001I0J249999D01*
G01*
X134274000Y-94799999D01*
G75*
G02*
X134523999Y-94550000I249999J0D01*
G01*
X135224001Y-94550000D01*
G75*
G02*
X135474000Y-94799999I0J-249999D01*
G01*
G37*
%TD.AperFunction*%
%TD*%
D16*
%TO.P,U1,1*%
%TO.N,GND*%
X126986000Y-70510000D03*
%TO.P,U1,3*%
%TO.N,+5V*%
X131586000Y-70510000D03*
%TO.P,U1,2*%
%TO.N,+3V3*%
X129286000Y-70510000D03*
D17*
X129286000Y-76810000D03*
%TD*%
%TO.P,R3,2*%
%TO.N,LED_3*%
%TA.AperFunction,SMDPad,CuDef*%
G36*
G01*
X127162000Y-90620001D02*
X127162000Y-89719999D01*
G75*
G02*
X127411999Y-89470000I249999J0D01*
G01*
X128112001Y-89470000D01*
G75*
G02*
X128362000Y-89719999I0J-249999D01*
G01*
X128362000Y-90620001D01*
G75*
G02*
X128112001Y-90870000I-249999J0D01*
G01*
X127411999Y-90870000D01*
G75*
G02*
X127162000Y-90620001I0J249999D01*
G01*
G37*
%TD.AperFunction*%
%TO.P,R3,1*%
%TO.N,Net-(D3-Pad2)*%
%TA.AperFunction,SMDPad,CuDef*%
G36*
G01*
X125162000Y-90620001D02*
X125162000Y-89719999D01*
G75*
G02*
X125411999Y-89470000I249999J0D01*
G01*
X126112001Y-89470000D01*
G75*
G02*
X126362000Y-89719999I0J-249999D01*
G01*
X126362000Y-90620001D01*
G75*
G02*
X126112001Y-90870000I-249999J0D01*
G01*
X125411999Y-90870000D01*
G75*
G02*
X125162000Y-90620001I0J249999D01*
G01*
G37*
%TD.AperFunction*%
%TD*%
%TO.P,R6,2*%
%TO.N,SW_1*%
%TA.AperFunction,SMDPad,CuDef*%
G36*
G01*
X159674000Y-95700001D02*
X159674000Y-94799999D01*
G75*
G02*
X159923999Y-94550000I249999J0D01*
G01*
X160624001Y-94550000D01*
G75*
G02*
X160874000Y-94799999I0J-249999D01*
G01*
X160874000Y-95700001D01*
G75*
G02*
X160624001Y-95950000I-249999J0D01*
G01*
X159923999Y-95950000D01*
G75*
G02*
X159674000Y-95700001I0J249999D01*
G01*
G37*
%TD.AperFunction*%
%TO.P,R6,1*%
%TO.N,GND*%
%TA.AperFunction,SMDPad,CuDef*%
G36*
G01*
X157674000Y-95700001D02*
X157674000Y-94799999D01*
G75*
G02*
X157923999Y-94550000I249999J0D01*
G01*
X158624001Y-94550000D01*
G75*
G02*
X158874000Y-94799999I0J-249999D01*
G01*
X158874000Y-95700001D01*
G75*
G02*
X158624001Y-95950000I-249999J0D01*
G01*
X157923999Y-95950000D01*
G75*
G02*
X157674000Y-95700001I0J249999D01*
G01*
G37*
%TD.AperFunction*%
%TD*%
D11*
%TO.P,J9,4*%
%TO.N,/STM32L151RET6TR/UART_RX*%
X166116000Y-87122000D03*
%TO.P,J9,3*%
%TO.N,/STM32L151RET6TR/UART_TX*%
X166116000Y-84582000D03*
%TO.P,J9,2*%
%TO.N,+3V3*%
X166116000Y-82042000D03*
D12*
%TO.P,J9,1*%
%TO.N,GND*%
X166116000Y-79502000D03*
%TD*%
%TO.P,R9,2*%
%TO.N,Net-(C2-Pad1)*%
%TA.AperFunction,SMDPad,CuDef*%
G36*
G01*
X134274000Y-91636001D02*
X134274000Y-90735999D01*
G75*
G02*
X134523999Y-90486000I249999J0D01*
G01*
X135224001Y-90486000D01*
G75*
G02*
X135474000Y-90735999I0J-249999D01*
G01*
X135474000Y-91636001D01*
G75*
G02*
X135224001Y-91886000I-249999J0D01*
G01*
X134523999Y-91886000D01*
G75*
G02*
X134274000Y-91636001I0J249999D01*
G01*
G37*
%TD.AperFunction*%
%TO.P,R9,1*%
%TO.N,+3V3*%
%TA.AperFunction,SMDPad,CuDef*%
G36*
G01*
X132274000Y-91636001D02*
X132274000Y-90735999D01*
G75*
G02*
X132523999Y-90486000I249999J0D01*
G01*
X133224001Y-90486000D01*
G75*
G02*
X133474000Y-90735999I0J-249999D01*
G01*
X133474000Y-91636001D01*
G75*
G02*
X133224001Y-91886000I-249999J0D01*
G01*
X132523999Y-91886000D01*
G75*
G02*
X132274000Y-91636001I0J249999D01*
G01*
G37*
%TD.AperFunction*%
%TD*%
%TO.P,C19,2*%
%TO.N,/STM32L151RET6TR/OS32_OUT*%
%TA.AperFunction,SMDPad,CuDef*%
G36*
G01*
X145779500Y-92231500D02*
X145304500Y-92231500D01*
G75*
G02*
X145067000Y-91994000I0J237500D01*
G01*
X145067000Y-91394000D01*
G75*
G02*
X145304500Y-91156500I237500J0D01*
G01*
X145779500Y-91156500D01*
G75*
G02*
X146017000Y-91394000I0J-237500D01*
G01*
X146017000Y-91994000D01*
G75*
G02*
X145779500Y-92231500I-237500J0D01*
G01*
G37*
%TD.AperFunction*%
%TO.P,C19,1*%
%TO.N,GND*%
%TA.AperFunction,SMDPad,CuDef*%
G36*
G01*
X145779500Y-93956500D02*
X145304500Y-93956500D01*
G75*
G02*
X145067000Y-93719000I0J237500D01*
G01*
X145067000Y-93119000D01*
G75*
G02*
X145304500Y-92881500I237500J0D01*
G01*
X145779500Y-92881500D01*
G75*
G02*
X146017000Y-93119000I0J-237500D01*
G01*
X146017000Y-93719000D01*
G75*
G02*
X145779500Y-93956500I-237500J0D01*
G01*
G37*
%TD.AperFunction*%
%TD*%
%TO.P,C17,2*%
%TO.N,GND*%
%TA.AperFunction,SMDPad,CuDef*%
G36*
G01*
X148923500Y-97315000D02*
X148923500Y-98265000D01*
G75*
G02*
X148673500Y-98515000I-250000J0D01*
G01*
X147998500Y-98515000D01*
G75*
G02*
X147748500Y-98265000I0J250000D01*
G01*
X147748500Y-97315000D01*
G75*
G02*
X147998500Y-97065000I250000J0D01*
G01*
X148673500Y-97065000D01*
G75*
G02*
X148923500Y-97315000I0J-250000D01*
G01*
G37*
%TD.AperFunction*%
%TO.P,C17,1*%
%TO.N,/STM32L151RET6TR/MCO*%
%TA.AperFunction,SMDPad,CuDef*%
G36*
G01*
X150998500Y-97315000D02*
X150998500Y-98265000D01*
G75*
G02*
X150748500Y-98515000I-250000J0D01*
G01*
X150073500Y-98515000D01*
G75*
G02*
X149823500Y-98265000I0J250000D01*
G01*
X149823500Y-97315000D01*
G75*
G02*
X150073500Y-97065000I250000J0D01*
G01*
X150748500Y-97065000D01*
G75*
G02*
X150998500Y-97315000I0J-250000D01*
G01*
G37*
%TD.AperFunction*%
%TD*%
D14*
%TO.P,JP3,2*%
%TO.N,/STM32L151RET6TR/PIN30*%
X144526000Y-72390000D03*
%TA.AperFunction,SMDPad,CuDef*%
D15*
%TO.P,JP3,3*%
%TO.N,SDA2*%
G36*
X145275398Y-73690000D02*
G01*
X145275398Y-73714534D01*
X145270588Y-73763365D01*
X145261016Y-73811490D01*
X145246772Y-73858445D01*
X145227995Y-73903778D01*
X145204864Y-73947051D01*
X145177604Y-73987850D01*
X145146476Y-74025779D01*
X145111779Y-74060476D01*
X145073850Y-74091604D01*
X145033051Y-74118864D01*
X144989778Y-74141995D01*
X144944445Y-74160772D01*
X144897490Y-74175016D01*
X144849365Y-74184588D01*
X144800534Y-74189398D01*
X144776000Y-74189398D01*
X144776000Y-74190000D01*
X144276000Y-74190000D01*
X144276000Y-74189398D01*
X144251466Y-74189398D01*
X144202635Y-74184588D01*
X144154510Y-74175016D01*
X144107555Y-74160772D01*
X144062222Y-74141995D01*
X144018949Y-74118864D01*
X143978150Y-74091604D01*
X143940221Y-74060476D01*
X143905524Y-74025779D01*
X143874396Y-73987850D01*
X143847136Y-73947051D01*
X143824005Y-73903778D01*
X143805228Y-73858445D01*
X143790984Y-73811490D01*
X143781412Y-73763365D01*
X143776602Y-73714534D01*
X143776602Y-73690000D01*
X143776000Y-73690000D01*
X143776000Y-73140000D01*
X145276000Y-73140000D01*
X145276000Y-73690000D01*
X145275398Y-73690000D01*
G37*
%TD.AperFunction*%
%TA.AperFunction,SMDPad,CuDef*%
%TO.P,JP3,1*%
%TO.N,+3V3*%
G36*
X143776000Y-71640000D02*
G01*
X143776000Y-71090000D01*
X143776602Y-71090000D01*
X143776602Y-71065466D01*
X143781412Y-71016635D01*
X143790984Y-70968510D01*
X143805228Y-70921555D01*
X143824005Y-70876222D01*
X143847136Y-70832949D01*
X143874396Y-70792150D01*
X143905524Y-70754221D01*
X143940221Y-70719524D01*
X143978150Y-70688396D01*
X144018949Y-70661136D01*
X144062222Y-70638005D01*
X144107555Y-70619228D01*
X144154510Y-70604984D01*
X144202635Y-70595412D01*
X144251466Y-70590602D01*
X144276000Y-70590602D01*
X144276000Y-70590000D01*
X144776000Y-70590000D01*
X144776000Y-70590602D01*
X144800534Y-70590602D01*
X144849365Y-70595412D01*
X144897490Y-70604984D01*
X144944445Y-70619228D01*
X144989778Y-70638005D01*
X145033051Y-70661136D01*
X145073850Y-70688396D01*
X145111779Y-70719524D01*
X145146476Y-70754221D01*
X145177604Y-70792150D01*
X145204864Y-70832949D01*
X145227995Y-70876222D01*
X145246772Y-70921555D01*
X145261016Y-70968510D01*
X145270588Y-71016635D01*
X145275398Y-71065466D01*
X145275398Y-71090000D01*
X145276000Y-71090000D01*
X145276000Y-71640000D01*
X143776000Y-71640000D01*
G37*
%TD.AperFunction*%
%TD*%
D18*
%TO.P,TP2,1*%
%TO.N,SCL2*%
X170180000Y-39878000D03*
%TD*%
%TO.P,TP1,1*%
%TO.N,SDA2*%
X167640000Y-39878000D03*
%TD*%
D11*
%TO.P,J10,4*%
%TO.N,SCL2*%
X171958000Y-42672000D03*
%TO.P,J10,3*%
%TO.N,SDA2*%
X169418000Y-42672000D03*
%TO.P,J10,2*%
%TO.N,+3V3*%
X166878000Y-42672000D03*
D12*
%TO.P,J10,1*%
%TO.N,GND*%
X164338000Y-42672000D03*
%TD*%
D19*
%TO.P,J2,2*%
%TO.N,Net-(D6-Pad2)*%
X123246000Y-49530000D03*
%TO.P,J2,1*%
%TO.N,GND*%
%TA.AperFunction,ComponentPad*%
G36*
G01*
X127646000Y-47980000D02*
X127646000Y-51080000D01*
G75*
G02*
X127396000Y-51330000I-250000J0D01*
G01*
X126096000Y-51330000D01*
G75*
G02*
X125846000Y-51080000I0J250000D01*
G01*
X125846000Y-47980000D01*
G75*
G02*
X126096000Y-47730000I250000J0D01*
G01*
X127396000Y-47730000D01*
G75*
G02*
X127646000Y-47980000I0J-250000D01*
G01*
G37*
%TD.AperFunction*%
%TD*%
D11*
%TO.P,J6,8*%
%TO.N,XSHUT_1*%
X170180000Y-72898000D03*
%TO.P,J6,7*%
%TO.N,LED_2*%
X170180000Y-75438000D03*
%TO.P,J6,6*%
%TO.N,LED_3*%
X170180000Y-77978000D03*
%TO.P,J6,5*%
%TO.N,XSHUT_2*%
X170180000Y-80518000D03*
%TO.P,J6,4*%
%TO.N,LED_4*%
X170180000Y-83058000D03*
%TO.P,J6,3*%
%TO.N,LED_5*%
X170180000Y-85598000D03*
%TO.P,J6,2*%
%TO.N,N/C*%
X170180000Y-88138000D03*
D12*
%TO.P,J6,1*%
X170180000Y-90678000D03*
%TD*%
D11*
%TO.P,J5,10*%
%TO.N,SCL1*%
X170180000Y-45974000D03*
%TO.P,J5,9*%
%TO.N,SDA1*%
X170180000Y-48514000D03*
%TO.P,J5,8*%
%TO.N,+3V3*%
X170180000Y-51054000D03*
%TO.P,J5,7*%
%TO.N,GND*%
X170180000Y-53594000D03*
%TO.P,J5,6*%
%TO.N,N/C*%
X170180000Y-56134000D03*
%TO.P,J5,5*%
X170180000Y-58674000D03*
%TO.P,J5,4*%
X170180000Y-61214000D03*
%TO.P,J5,3*%
X170180000Y-63754000D03*
%TO.P,J5,2*%
%TO.N,LED_1*%
X170180000Y-66294000D03*
D12*
%TO.P,J5,1*%
%TO.N,XSHUT_0*%
X170180000Y-68834000D03*
%TD*%
D11*
%TO.P,J4,6*%
%TO.N,N/C*%
X121920000Y-90678000D03*
%TO.P,J4,5*%
X121920000Y-88138000D03*
%TO.P,J4,4*%
X121920000Y-85598000D03*
%TO.P,J4,3*%
%TO.N,GPIOI_2*%
X121920000Y-83058000D03*
%TO.P,J4,2*%
%TO.N,GPIOI_1*%
X121920000Y-80518000D03*
D12*
%TO.P,J4,1*%
%TO.N,GPIOI_0*%
X121920000Y-77978000D03*
%TD*%
D11*
%TO.P,J3,8*%
%TO.N,N/C*%
X121920000Y-72898000D03*
%TO.P,J3,7*%
%TO.N,GND*%
X121920000Y-70358000D03*
%TO.P,J3,6*%
X121920000Y-67818000D03*
%TO.P,J3,5*%
%TO.N,+5V*%
X121920000Y-65278000D03*
%TO.P,J3,4*%
%TO.N,+3V3*%
X121920000Y-62738000D03*
%TO.P,J3,3*%
%TO.N,N/C*%
X121920000Y-60198000D03*
%TO.P,J3,2*%
X121920000Y-57658000D03*
D12*
%TO.P,J3,1*%
X121920000Y-55118000D03*
%TD*%
D20*
%TO.N,GND*%
X179832000Y-122428000D03*
X150114000Y-122428000D03*
X113284000Y-122428000D03*
%TO.N,+3V3*%
X108966000Y-108204000D03*
%TO.N,GND*%
X109474000Y-122428000D03*
X157734000Y-71982500D03*
X145542000Y-93472000D03*
X142494000Y-95250000D03*
X140716000Y-52578000D03*
X144272000Y-115570000D03*
X126492000Y-73660000D03*
X148336000Y-53848000D03*
X127000000Y-70612000D03*
X181864000Y-122428000D03*
X132842000Y-95250000D03*
X148336000Y-97790000D03*
X145542000Y-95250000D03*
X155956000Y-75692000D03*
X150114000Y-63754000D03*
X156972000Y-59944000D03*
X133096000Y-52578000D03*
X148082000Y-122428000D03*
X142494000Y-93472000D03*
X164846000Y-54102000D03*
X140716000Y-53848000D03*
X142494000Y-72898000D03*
X146304000Y-122428000D03*
X134620000Y-76607500D03*
X148833250Y-84571250D03*
X158242000Y-95250000D03*
X126492000Y-66040000D03*
X165100000Y-59944000D03*
X148336000Y-52578000D03*
X111252000Y-122428000D03*
X133096000Y-53848000D03*
X179832000Y-115570000D03*
X107442000Y-115570000D03*
X148336000Y-89408000D03*
X183642000Y-122428000D03*
X166878000Y-91694000D03*
X163830000Y-91694000D03*
X155448000Y-65278000D03*
X152908000Y-62484000D03*
X157480000Y-57912000D03*
X154686000Y-58928000D03*
X145077000Y-62949000D03*
%TO.N,VCC*%
X140716000Y-58680000D03*
X133096000Y-58674000D03*
X131572000Y-60452000D03*
X127254000Y-44450000D03*
%TO.N,+3V3*%
X148082000Y-108204000D03*
X148145500Y-120777000D03*
X183642000Y-120803500D03*
X144526000Y-71090000D03*
X111252000Y-120803500D03*
X129286000Y-70612000D03*
X156972000Y-91186000D03*
X165100000Y-51562000D03*
X131572000Y-91186000D03*
X129286000Y-76962000D03*
X131572000Y-99314000D03*
X156972000Y-99314000D03*
X181864000Y-120803500D03*
X132842000Y-91186000D03*
X165354000Y-45974000D03*
X181864000Y-120803500D03*
X156972000Y-51562000D03*
X155879250Y-77393250D03*
X132080000Y-73660000D03*
X143002000Y-63500000D03*
X157734000Y-70257500D03*
X165354000Y-48514000D03*
X183642000Y-108204000D03*
X134620000Y-78332500D03*
X181356000Y-108204000D03*
X146304000Y-120803500D03*
X156972000Y-54356000D03*
X109474000Y-120830000D03*
X150919000Y-84539000D03*
X158242000Y-91186000D03*
X145796000Y-108204000D03*
X148389000Y-63754000D03*
X111252000Y-108204000D03*
X113284000Y-120353000D03*
X150114000Y-120353000D03*
X179832000Y-120353000D03*
%TO.N,XSHUT_1*%
X170688000Y-95250000D03*
%TO.N,GPIOI_1*%
X140208000Y-107188000D03*
X141478000Y-81280000D03*
X147320000Y-65278000D03*
X147066000Y-111760000D03*
%TO.N,XSHUT_2*%
X171450000Y-84328000D03*
%TO.N,GPIOI_2*%
X164084000Y-99314000D03*
X139446000Y-81280000D03*
X173506238Y-99797762D03*
X146304000Y-65024000D03*
X140970000Y-87376000D03*
X135132653Y-82554653D03*
%TO.N,XSHUT_0*%
X168910000Y-95758000D03*
%TO.N,GPIOI_0*%
X113030000Y-110236000D03*
X113538000Y-106934000D03*
%TO.N,LED_3*%
X147574000Y-66294000D03*
X159258000Y-68580000D03*
X155194000Y-67019000D03*
%TO.N,LED_4*%
X142489347Y-75950653D03*
X155702000Y-84836000D03*
X155702000Y-87223020D03*
%TO.N,LED_5*%
X144272000Y-66802000D03*
X156718000Y-87376000D03*
X156972000Y-84836000D03*
%TO.N,LED_1*%
X150114000Y-71628000D03*
X152654000Y-67818000D03*
%TO.N,LED_2*%
X150132285Y-70584410D03*
X156718000Y-67855000D03*
X154178000Y-67564000D03*
X145049316Y-75605327D03*
%TO.N,SW_1*%
X160020000Y-93218000D03*
%TO.N,SW_2*%
X134620000Y-93218000D03*
%TO.N,Net-(D1-Pad2)*%
X125730000Y-94742000D03*
%TO.N,Net-(D2-Pad2)*%
X125730000Y-92456000D03*
%TO.N,Net-(D3-Pad2)*%
X125730000Y-90170000D03*
%TO.N,Net-(D4-Pad2)*%
X125730000Y-87884000D03*
%TO.N,Net-(D5-Pad2)*%
X125730000Y-85598000D03*
%TO.N,+5V*%
X124460000Y-63246000D03*
X148336000Y-59182000D03*
X148336000Y-57912000D03*
X153670000Y-60198000D03*
X131572000Y-70612000D03*
X150368000Y-59182000D03*
X126746000Y-54864000D03*
%TO.N,Net-(D6-Pad2)*%
X122976000Y-44450000D03*
%TO.N,Net-(C6-Pad1)*%
X126746000Y-58749998D03*
X129286000Y-66548000D03*
X132086000Y-66040000D03*
X129286000Y-60452000D03*
%TO.N,/STM32L151RET6TR/MCO*%
X150114000Y-97976000D03*
%TO.N,/STM32L151RET6TR/OSM_OUT*%
X150148000Y-89442000D03*
%TO.N,/STM32L151RET6TR/OS32_OUT*%
X145618000Y-89706000D03*
%TO.N,/STM32L151RET6TR/BOOT*%
X156972000Y-56134000D03*
X165100000Y-56134000D03*
X151384000Y-64516000D03*
X145542000Y-77978000D03*
%TO.N,/STM32L151RET6TR/RST*%
X159004000Y-63092500D03*
X153670000Y-74930000D03*
%TO.N,/STM32L151RET6TR/OS32_IN*%
X142418000Y-89706000D03*
%TO.N,SCL1*%
X112771347Y-116590653D03*
X150114000Y-116595306D03*
X185424653Y-116590653D03*
X148336000Y-77724000D03*
%TO.N,SDA1*%
X150114000Y-115570000D03*
X112776000Y-115570000D03*
X185420000Y-115570000D03*
X149352000Y-77216000D03*
%TO.N,/STM32L151RET6TR/FTDI_RTS*%
X125222000Y-79248000D03*
%TO.N,/STM32L151RET6TR/FTDI_RXD*%
X139193192Y-84075499D03*
X121915347Y-95245347D03*
X146304000Y-83820000D03*
%TO.N,/STM32L151RET6TR/FTDI_TXD*%
X123952000Y-92964000D03*
X146812000Y-81788000D03*
X139192000Y-83058000D03*
%TO.N,/STM32L151RET6TR/SW0*%
X145542000Y-85090000D03*
%TO.N,/STM32L151RET6TR/SWCLK*%
X144272000Y-85090000D03*
%TO.N,/STM32L151RET6TR/SWDAT*%
X130556000Y-81280000D03*
X132334000Y-79248000D03*
X136906000Y-81788000D03*
%TO.N,/STM32L151RET6TR/UART_RX*%
X160782000Y-72390000D03*
X161290000Y-74930000D03*
%TO.N,/STM32L151RET6TR/UART_TX*%
X154178000Y-70612000D03*
X160274000Y-74930000D03*
%TO.N,SCL2*%
X148082000Y-72390000D03*
%TO.N,SDA2*%
X144526000Y-73690000D03*
%TO.N,/STM32L151RET6TR/PIN41*%
X148082000Y-73690000D03*
%TO.N,/STM32L151RET6TR/PIN29*%
X148082000Y-71090000D03*
%TO.N,/STM32L151RET6TR/PIN30*%
X144526000Y-72390000D03*
%TO.N,/STM32L151RET6TR/PB12*%
X138176000Y-60198000D03*
%TO.N,/STM32L151RET6TR/PB13*%
X138182031Y-63754000D03*
%TO.N,/STM32L151RET6TR/PB14*%
X138182031Y-66294000D03*
%TO.N,/STM32L151RET6TR/PB15*%
X138182031Y-68834000D03*
%TO.N,/STM32L151RET6TR/PC6*%
X135636000Y-60198000D03*
%TO.N,/STM32L151RET6TR/PC7*%
X135636000Y-63754000D03*
%TO.N,/STM32L151RET6TR/PC8*%
X135636000Y-66294000D03*
%TO.N,/STM32L151RET6TR/PA9*%
X135636000Y-68834000D03*
%TO.N,/STM32L151RET6TR/PA10*%
X135382000Y-71374000D03*
%TD*%
D21*
%TO.N,GND*%
X126986000Y-60350000D02*
X126492000Y-60844000D01*
X126492000Y-60844000D02*
X126492000Y-66040000D01*
D22*
X157580500Y-59944000D02*
X159004000Y-61367500D01*
X156972000Y-59944000D02*
X157580500Y-59944000D01*
%TO.N,+3V3*%
X141986000Y-70866000D02*
X144302000Y-70866000D01*
X144526000Y-71090000D02*
X144526000Y-71090000D01*
X144302000Y-70866000D02*
X144526000Y-71090000D01*
%TO.N,XSHUT_1*%
X172175001Y-91984999D02*
X172175001Y-91911001D01*
X172175001Y-91911001D02*
X172175001Y-74893001D01*
X170688000Y-95250000D02*
X172175001Y-93762999D01*
X172175001Y-74893001D02*
X170180000Y-72898000D01*
X172175001Y-93762999D02*
X172175001Y-91911001D01*
%TO.N,GPIOI_1*%
X146558000Y-69342000D02*
X146558000Y-67564000D01*
X143567002Y-107188000D02*
X140208000Y-107188000D01*
X147066000Y-111760000D02*
X147066000Y-110686998D01*
X147066000Y-110686998D02*
X143567002Y-107188000D01*
X146558000Y-69342000D02*
X146558000Y-66040000D01*
X146685000Y-65913000D02*
X147320000Y-65278000D01*
X146558000Y-66040000D02*
X146685000Y-65913000D01*
X141478000Y-80886055D02*
X141478000Y-81280000D01*
X146557999Y-75806056D02*
X141478000Y-80886055D01*
X146558000Y-69342000D02*
X146557999Y-75806056D01*
%TO.N,XSHUT_2*%
X171450000Y-81788000D02*
X170180000Y-80518000D01*
X171450000Y-84328000D02*
X171450000Y-81788000D01*
%TO.N,GPIOI_2*%
X172768476Y-99060000D02*
X164338000Y-99060000D01*
X164338000Y-99060000D02*
X164084000Y-99314000D01*
X139954000Y-87376000D02*
X135132653Y-82554653D01*
X173506238Y-99797762D02*
X172768476Y-99060000D01*
X140970000Y-87376000D02*
X139954000Y-87376000D01*
X145904001Y-65423999D02*
X146304000Y-65024000D01*
X145904001Y-65894001D02*
X145904001Y-65423999D01*
X146107990Y-66097990D02*
X145904001Y-65894001D01*
X146107990Y-75619655D02*
X146107990Y-66097990D01*
X143749645Y-77978000D02*
X146107990Y-75619655D01*
X142748000Y-77978000D02*
X143749645Y-77978000D01*
X139446000Y-81280000D02*
X142748000Y-77978000D01*
%TO.N,XSHUT_0*%
X171036001Y-95975001D02*
X172625010Y-94385992D01*
X168910000Y-95758000D02*
X169127001Y-95975001D01*
X169127001Y-95975001D02*
X171036001Y-95975001D01*
X172625010Y-71279010D02*
X170180000Y-68834000D01*
X172625010Y-94385992D02*
X172625010Y-71279010D01*
%TO.N,GPIOI_0*%
X113030000Y-107442000D02*
X113030000Y-110236000D01*
X113538000Y-106934000D02*
X113030000Y-107442000D01*
%TO.N,LED_3*%
X164940999Y-74262999D02*
X159258000Y-68580000D01*
X166680001Y-74262999D02*
X164940999Y-74262999D01*
X170180000Y-77762998D02*
X166680001Y-74262999D01*
X170180000Y-77978000D02*
X170180000Y-77762998D01*
X149114001Y-64753999D02*
X147574000Y-66294000D01*
X149114001Y-63680997D02*
X149114001Y-64753999D01*
X149765999Y-63028999D02*
X149114001Y-63680997D01*
X151203999Y-63028999D02*
X149765999Y-63028999D01*
X155194000Y-67019000D02*
X151203999Y-63028999D01*
X145453991Y-64801007D02*
X145955999Y-64298999D01*
X148045001Y-64929999D02*
X148045001Y-65822999D01*
X145657980Y-66284390D02*
X145453991Y-66080401D01*
X147414001Y-64298999D02*
X148045001Y-64929999D01*
X142953684Y-76675654D02*
X145657980Y-73971358D01*
X138208346Y-76675654D02*
X142953684Y-76675654D01*
X145657980Y-73971358D02*
X145657980Y-66284390D01*
X129482010Y-85401990D02*
X138208346Y-76675654D01*
X148045001Y-65822999D02*
X147574000Y-66294000D01*
X145955999Y-64298999D02*
X147414001Y-64298999D01*
X145453991Y-66080401D02*
X145453991Y-64801007D01*
X129482010Y-88449990D02*
X129482010Y-85401990D01*
X127762000Y-90170000D02*
X129482010Y-88449990D01*
%TO.N,LED_4*%
X138045757Y-75950653D02*
X129032000Y-84964410D01*
X142489347Y-75950653D02*
X138045757Y-75950653D01*
X129032000Y-84964410D02*
X129032000Y-86614000D01*
X129032000Y-86614000D02*
X127762000Y-87884000D01*
X157320999Y-83217001D02*
X155702000Y-84836000D01*
X170020999Y-83217001D02*
X157320999Y-83217001D01*
X170180000Y-83058000D02*
X170020999Y-83217001D01*
X126746000Y-88900000D02*
X127762000Y-87884000D01*
X126746000Y-96266000D02*
X126746000Y-88900000D01*
X137188501Y-93226087D02*
X137188501Y-94770501D01*
X134931002Y-97028000D02*
X127508000Y-97028000D01*
X143191568Y-87223020D02*
X137188501Y-93226087D01*
X127508000Y-97028000D02*
X126746000Y-96266000D01*
X137188501Y-94770501D02*
X134931002Y-97028000D01*
X155702000Y-87223020D02*
X143191568Y-87223020D01*
%TO.N,LED_5*%
X127762000Y-85598000D02*
X133894999Y-79465001D01*
X143352498Y-66802000D02*
X143050249Y-67104249D01*
X144272000Y-66802000D02*
X143352498Y-66802000D01*
X133894999Y-79465001D02*
X133894999Y-76259499D01*
X133894999Y-76259499D02*
X143050249Y-67104249D01*
X169831001Y-85946999D02*
X170180000Y-85598000D01*
X162529409Y-85946999D02*
X169831001Y-85946999D01*
X161418410Y-84836000D02*
X162529409Y-85946999D01*
X156972000Y-84836000D02*
X161418410Y-84836000D01*
X156145979Y-87948021D02*
X156718000Y-87376000D01*
X143102977Y-87948021D02*
X156145979Y-87948021D01*
X137922000Y-93128998D02*
X143102977Y-87948021D01*
X137922000Y-94996000D02*
X137922000Y-93128998D01*
X135439991Y-97478009D02*
X137922000Y-94996000D01*
X126884819Y-97478009D02*
X135439991Y-97478009D01*
X124836990Y-87195820D02*
X124836990Y-95430180D01*
X125173820Y-86858990D02*
X124836990Y-87195820D01*
X126501010Y-86858990D02*
X125173820Y-86858990D01*
X124836990Y-95430180D02*
X126884819Y-97478009D01*
X127762000Y-85598000D02*
X126501010Y-86858990D01*
%TO.N,LED_1*%
X152654000Y-67818000D02*
X151892000Y-68580000D01*
X151892000Y-69850000D02*
X150114000Y-71628000D01*
X151892000Y-68580000D02*
X151892000Y-69850000D01*
X150114000Y-74479002D02*
X150114000Y-73152000D01*
X145853002Y-78740000D02*
X150114000Y-74479002D01*
X150114000Y-73152000D02*
X150114000Y-71628000D01*
X145091002Y-78740000D02*
X145853002Y-78740000D01*
X141789002Y-82042000D02*
X145091002Y-78740000D01*
X135636000Y-81026000D02*
X138118998Y-81026000D01*
X138118998Y-81026000D02*
X139134998Y-82042000D01*
X130810000Y-85852000D02*
X135636000Y-81026000D01*
X139134998Y-82042000D02*
X141789002Y-82042000D01*
X130810000Y-91694000D02*
X130810000Y-85852000D01*
X127762000Y-94742000D02*
X130810000Y-91694000D01*
%TO.N,LED_2*%
X130336600Y-89881400D02*
X130336600Y-85563400D01*
X130336600Y-85563400D02*
X138774336Y-77125664D01*
X127762000Y-92456000D02*
X130336600Y-89881400D01*
X150132285Y-69266713D02*
X150132285Y-70584410D01*
X152305999Y-67092999D02*
X150132285Y-69266713D01*
X153706999Y-67092999D02*
X152305999Y-67092999D01*
X154178000Y-67564000D02*
X153706999Y-67092999D01*
X170180000Y-75222998D02*
X166585002Y-71628000D01*
X170180000Y-75438000D02*
X170180000Y-75222998D01*
X166585002Y-71628000D02*
X164338000Y-71628000D01*
X160565000Y-67855000D02*
X158713000Y-67855000D01*
X164338000Y-71628000D02*
X160565000Y-67855000D01*
X156718000Y-67855000D02*
X158713000Y-67855000D01*
X143528979Y-77125664D02*
X145049316Y-75605327D01*
X143092336Y-77125664D02*
X143528979Y-77125664D01*
X138774336Y-77125664D02*
X143092336Y-77125664D01*
%TO.N,SW_1*%
X160274000Y-95250000D02*
X160274000Y-93472000D01*
X160274000Y-93472000D02*
X160020000Y-93218000D01*
%TO.N,SW_2*%
X134874000Y-93472000D02*
X134620000Y-93218000D01*
X134874000Y-95250000D02*
X134874000Y-93472000D01*
%TO.N,Net-(C1-Pad1)*%
X158295000Y-93218000D02*
X158295000Y-93133000D01*
X158295000Y-93133000D02*
X160242000Y-91186000D01*
%TO.N,Net-(C2-Pad1)*%
X134874000Y-91239000D02*
X132895000Y-93218000D01*
X134874000Y-91186000D02*
X134874000Y-91239000D01*
%TO.N,/STM32L151RET6TR/OS32_OUT*%
X145542000Y-91694000D02*
X145542000Y-89782000D01*
X145542000Y-89782000D02*
X145618000Y-89706000D01*
%TO.N,/STM32L151RET6TR/BOOT*%
X151384000Y-64516000D02*
X150114000Y-64516000D01*
X150114000Y-64516000D02*
X149606000Y-65024000D01*
X149388999Y-65241001D02*
X149606000Y-65024000D01*
X149388999Y-74131001D02*
X149388999Y-73442999D01*
X145542000Y-77978000D02*
X149388999Y-74131001D01*
X149388999Y-73442999D02*
X149388999Y-65241001D01*
%TO.N,/STM32L151RET6TR/RST*%
X153452999Y-74712999D02*
X153670000Y-74930000D01*
X153452999Y-70067001D02*
X153452999Y-74712999D01*
X159004000Y-64516000D02*
X153452999Y-70067001D01*
X159004000Y-63092500D02*
X159004000Y-64516000D01*
%TO.N,/STM32L151RET6TR/OS32_IN*%
X142494000Y-89782000D02*
X142418000Y-89706000D01*
X142494000Y-91694000D02*
X142494000Y-89782000D01*
%TO.N,SCL1*%
X149718654Y-116990652D02*
X150114000Y-116595306D01*
X150513999Y-116995305D02*
X185020001Y-116995305D01*
X113171346Y-116990652D02*
X149718654Y-116990652D01*
X150114000Y-116595306D02*
X150513999Y-116995305D01*
X112771347Y-116590653D02*
X113171346Y-116990652D01*
X185020001Y-116995305D02*
X185424653Y-116590653D01*
%TO.N,SDA1*%
X150876000Y-116332000D02*
X184658000Y-116332000D01*
X149388999Y-116295001D02*
X150114000Y-115570000D01*
X112776000Y-115570000D02*
X113501001Y-116295001D01*
X113501001Y-116295001D02*
X149388999Y-116295001D01*
X150114000Y-115570000D02*
X150876000Y-116332000D01*
X184658000Y-116332000D02*
X185420000Y-115570000D01*
%TO.N,/STM32L151RET6TR/FTDI_RTS*%
X125222000Y-79248000D02*
X123226999Y-81243001D01*
X123226999Y-92097082D02*
X116518081Y-98806000D01*
X123226999Y-81243001D02*
X123226999Y-92097082D01*
X116518081Y-98806000D02*
X115316000Y-98806000D01*
%TO.N,/STM32L151RET6TR/FTDI_RXD*%
X145930314Y-84075499D02*
X146048501Y-84075499D01*
X113951001Y-99981001D02*
X117179693Y-99981001D01*
X146048501Y-84075499D02*
X146304000Y-83820000D01*
X119883347Y-97277347D02*
X121915347Y-95245347D01*
X112776000Y-98806000D02*
X113951001Y-99981001D01*
X117179693Y-99981001D02*
X119883347Y-97277347D01*
X139193192Y-84075499D02*
X145930314Y-84075499D01*
%TO.N,/STM32L151RET6TR/FTDI_TXD*%
X119888000Y-98298000D02*
X119499104Y-98298000D01*
X145542000Y-83058000D02*
X146812000Y-81788000D01*
X123952000Y-92964000D02*
X123952000Y-94234000D01*
X111861011Y-100431011D02*
X110236000Y-98806000D01*
X117366093Y-100431011D02*
X111861011Y-100431011D01*
X123952000Y-94234000D02*
X119888000Y-98298000D01*
X119499104Y-98298000D02*
X117366093Y-100431011D01*
X139192000Y-83058000D02*
X145542000Y-83058000D01*
%TO.N,/STM32L151RET6TR/SW0*%
X174498000Y-97028000D02*
X188976000Y-97028000D01*
X165862000Y-93783002D02*
X168561999Y-96483001D01*
X168561999Y-96483001D02*
X173953001Y-96483001D01*
X149606000Y-85598000D02*
X148590000Y-85598000D01*
X173953001Y-96483001D02*
X174498000Y-97028000D01*
X190246000Y-98298000D02*
X190246000Y-98806000D01*
X165862000Y-89916000D02*
X165862000Y-93783002D01*
X149606000Y-85598000D02*
X146050000Y-85598000D01*
X149606000Y-85598000D02*
X161544000Y-85598000D01*
X188976000Y-97028000D02*
X190246000Y-98298000D01*
X161544000Y-85598000D02*
X165862000Y-89916000D01*
X146050000Y-85598000D02*
X145542000Y-85090000D01*
%TO.N,/STM32L151RET6TR/SWCLK*%
X187706000Y-98806000D02*
X186530999Y-97630999D01*
X165354000Y-93911412D02*
X165354000Y-90170000D01*
X168375598Y-96933010D02*
X165354000Y-93911412D01*
X165354000Y-90170000D02*
X161232010Y-86048010D01*
X173641011Y-96933011D02*
X168375598Y-96933010D01*
X161232010Y-86048010D02*
X145230010Y-86048010D01*
X174338999Y-97630999D02*
X173641011Y-96933011D01*
X186530999Y-97630999D02*
X174338999Y-97630999D01*
X145230010Y-86048010D02*
X144272000Y-85090000D01*
%TO.N,/STM32L151RET6TR/SWDAT*%
X132334000Y-79248000D02*
X130556000Y-81026000D01*
X173454610Y-97383020D02*
X168189197Y-97383019D01*
X136906000Y-82861309D02*
X136906000Y-81788000D01*
X140542711Y-86498020D02*
X136906000Y-82861309D01*
X164903990Y-90356400D02*
X161045610Y-86498020D01*
X168189197Y-97383019D02*
X165167600Y-94361422D01*
X130556000Y-81026000D02*
X130556000Y-81280000D01*
X183990999Y-99981001D02*
X176052591Y-99981001D01*
X161045610Y-86498020D02*
X145043610Y-86498020D01*
X164903990Y-94097812D02*
X164903990Y-90356400D01*
X145043610Y-86498020D02*
X140542711Y-86498020D01*
X185166000Y-98806000D02*
X183990999Y-99981001D01*
X165167600Y-94361422D02*
X164903990Y-94097812D01*
X176052591Y-99981001D02*
X173454610Y-97383020D01*
%TO.N,/STM32L151RET6TR/UART_RX*%
X161290000Y-74930000D02*
X161290000Y-72898000D01*
X161290000Y-72898000D02*
X160782000Y-72390000D01*
%TO.N,/STM32L151RET6TR/UART_TX*%
X159766000Y-72136000D02*
X159766000Y-74422000D01*
X154577999Y-71011999D02*
X158641999Y-71011999D01*
X158641999Y-71011999D02*
X159766000Y-72136000D01*
X154178000Y-70612000D02*
X154577999Y-71011999D01*
X159766000Y-74422000D02*
X160274000Y-74930000D01*
%TO.N,SCL2*%
X171288000Y-42672000D02*
X171958000Y-42672000D01*
X167986000Y-45974000D02*
X171288000Y-42672000D01*
X167386000Y-45974000D02*
X167986000Y-45974000D01*
X170180000Y-40894000D02*
X171958000Y-42672000D01*
X170180000Y-39878000D02*
X170180000Y-40894000D01*
%TO.N,SDA2*%
X169074810Y-42672000D02*
X169418000Y-42672000D01*
X166460990Y-45285820D02*
X169074810Y-42672000D01*
X166460990Y-47588990D02*
X166460990Y-45285820D01*
X167386000Y-48514000D02*
X166460990Y-47588990D01*
X167640000Y-40894000D02*
X169418000Y-42672000D01*
X167640000Y-39878000D02*
X167640000Y-40894000D01*
%TO.N,/STM32L151RET6TR/PB12*%
X138176000Y-60198000D02*
X138176000Y-61214000D01*
%TO.N,/STM32L151RET6TR/PB13*%
X138182031Y-63754000D02*
X138176000Y-63754000D01*
%TO.N,/STM32L151RET6TR/PB14*%
X138182031Y-66294000D02*
X138176000Y-66294000D01*
%TO.N,/STM32L151RET6TR/PB15*%
X138182031Y-68834000D02*
X138176000Y-68834000D01*
%TO.N,/STM32L151RET6TR/PC6*%
X135636000Y-61214000D02*
X135636000Y-60198000D01*
%TO.N,/STM32L151RET6TR/PA10*%
X135382000Y-71374000D02*
X135636000Y-71374000D01*
%TD*%
M02*
