%TF.GenerationSoftware,KiCad,Pcbnew,(6.0.2)*%
%TF.CreationDate,2022-03-17T10:44:44+01:00*%
%TF.ProjectId,GestureControl,47657374-7572-4654-936f-6e74726f6c2e,V0.1*%
%TF.SameCoordinates,Original*%
%TF.FileFunction,Copper,L3,Inr*%
%TF.FilePolarity,Positive*%
%FSLAX46Y46*%
G04 Gerber Fmt 4.6, Leading zero omitted, Abs format (unit mm)*
G04 Created by KiCad (PCBNEW (6.0.2)) date 2022-03-17 10:44:44*
%MOMM*%
%LPD*%
G01*
G04 APERTURE LIST*
G04 Aperture macros list*
%AMRoundRect*
0 Rectangle with rounded corners*
0 $1 Rounding radius*
0 $2 $3 $4 $5 $6 $7 $8 $9 X,Y pos of 4 corners*
0 Add a 4 corners polygon primitive as box body*
4,1,4,$2,$3,$4,$5,$6,$7,$8,$9,$2,$3,0*
0 Add four circle primitives for the rounded corners*
1,1,$1+$1,$2,$3*
1,1,$1+$1,$4,$5*
1,1,$1+$1,$6,$7*
1,1,$1+$1,$8,$9*
0 Add four rect primitives between the rounded corners*
20,1,$1+$1,$2,$3,$4,$5,0*
20,1,$1+$1,$4,$5,$6,$7,0*
20,1,$1+$1,$6,$7,$8,$9,0*
20,1,$1+$1,$8,$9,$2,$3,0*%
G04 Aperture macros list end*
%TA.AperFunction,ComponentPad*%
%ADD10R,1.700000X1.700000*%
%TD*%
%TA.AperFunction,ComponentPad*%
%ADD11O,1.700000X1.700000*%
%TD*%
%TA.AperFunction,ComponentPad*%
%ADD12RoundRect,0.250000X-1.550000X0.650000X-1.550000X-0.650000X1.550000X-0.650000X1.550000X0.650000X0*%
%TD*%
%TA.AperFunction,ComponentPad*%
%ADD13O,3.600000X1.800000*%
%TD*%
%TA.AperFunction,ViaPad*%
%ADD14C,0.800000*%
%TD*%
%TA.AperFunction,Conductor*%
%ADD15C,1.200000*%
%TD*%
%TA.AperFunction,Conductor*%
%ADD16C,1.000000*%
%TD*%
%TA.AperFunction,Conductor*%
%ADD17C,0.500000*%
%TD*%
%TA.AperFunction,Conductor*%
%ADD18C,0.200000*%
%TD*%
%TA.AperFunction,Conductor*%
%ADD19C,2.000000*%
%TD*%
%TA.AperFunction,Conductor*%
%ADD20C,0.250000*%
%TD*%
G04 APERTURE END LIST*
D10*
%TO.N,unconnected-(J3-Pad1)*%
%TO.C,J3*%
X45974000Y-123952000D03*
D11*
%TO.N,unconnected-(J3-Pad2)*%
X48514000Y-123952000D03*
%TO.N,unconnected-(J3-Pad3)*%
X51054000Y-123952000D03*
%TO.N,+3V3*%
X53594000Y-123952000D03*
%TO.N,+5V*%
X56134000Y-123952000D03*
%TO.N,GND*%
X58674000Y-123952000D03*
X61214000Y-123952000D03*
%TO.N,XSHUT_0*%
X63754000Y-123952000D03*
%TD*%
D10*
%TO.N,XSHUT_1*%
%TO.C,J4*%
X68834000Y-123952000D03*
D11*
%TO.N,XSHUT_2*%
X71374000Y-123952000D03*
%TO.N,XSHUT_3*%
X73914000Y-123952000D03*
%TO.N,XSHUT_4*%
X76454000Y-123952000D03*
%TO.N,SW_1*%
X78994000Y-123952000D03*
%TO.N,SW_2*%
X81534000Y-123952000D03*
%TD*%
D10*
%TO.N,unconnected-(J5-Pad1)*%
%TO.C,J5*%
X59690000Y-75692000D03*
D11*
%TO.N,GPIOI_0*%
X57150000Y-75692000D03*
%TO.N,GPIOI_1*%
X54610000Y-75692000D03*
%TO.N,GPIOI_2*%
X52070000Y-75692000D03*
%TO.N,GPIOI_3*%
X49530000Y-75692000D03*
%TO.N,GPIOI_4*%
X46990000Y-75692000D03*
%TO.N,GND*%
X44450000Y-75692000D03*
%TO.N,+3V3*%
X41910000Y-75692000D03*
%TO.N,SDA1*%
X39370000Y-75692000D03*
%TO.N,SCL1*%
X36830000Y-75692000D03*
%TD*%
D10*
%TO.N,GND*%
%TO.C,J1*%
X50165000Y-96514490D03*
D11*
%TO.N,+5V*%
X47625000Y-96514490D03*
%TO.N,SDA1*%
X45085000Y-96514490D03*
%TO.N,SCL1*%
X42545000Y-96514490D03*
%TD*%
D12*
%TO.N,GND*%
%TO.C,J2*%
X28448000Y-97282000D03*
D13*
%TO.N,Net-(D6-Pad2)*%
X28448000Y-100782000D03*
%TD*%
D10*
%TO.N,GND*%
%TO.C,J7*%
X55245000Y-88894490D03*
D11*
%TO.N,/STM32L151RET6TR/FTDI_CTS*%
X52705000Y-88894490D03*
%TO.N,+5V*%
X50165000Y-88894490D03*
%TO.N,/STM32L151RET6TR/FTDI_TXD*%
X47625000Y-88894490D03*
%TO.N,/STM32L151RET6TR/FTDI_RXD*%
X45085000Y-88894490D03*
%TO.N,/STM32L151RET6TR/FTDI_RTS*%
X42545000Y-88894490D03*
%TD*%
D10*
%TO.N,GND*%
%TO.C,J10*%
X57277000Y-79248000D03*
D11*
%TO.N,+3V3*%
X54737000Y-79248000D03*
%TO.N,SDA2*%
X52197000Y-79248000D03*
%TO.N,SCL2*%
X49657000Y-79248000D03*
%TD*%
D10*
%TO.N,GND*%
%TO.C,J9*%
X76321490Y-106674490D03*
D11*
%TO.N,+3V3*%
X76321490Y-104134490D03*
%TO.N,/STM32L151RET6TR/UART_TX*%
X76321490Y-101594490D03*
%TO.N,/STM32L151RET6TR/UART_RX*%
X76321490Y-99054490D03*
%TD*%
D10*
%TO.N,unconnected-(J6-Pad1)*%
%TO.C,J6*%
X81534000Y-75692000D03*
D11*
%TO.N,unconnected-(J6-Pad2)*%
X78994000Y-75692000D03*
%TO.N,LED_5*%
X76454000Y-75692000D03*
%TO.N,LED_4*%
X73914000Y-75692000D03*
%TO.N,LED_3*%
X71374000Y-75692000D03*
%TO.N,LED_2*%
X68834000Y-75692000D03*
%TO.N,LED_1*%
X66294000Y-75692000D03*
%TO.N,unconnected-(J6-Pad8)*%
X63754000Y-75692000D03*
%TD*%
D10*
%TO.N,+3V3*%
%TO.C,J8*%
X55239490Y-92704490D03*
D11*
%TO.N,/STM32L151RET6TR/SWCLK*%
X52699490Y-92704490D03*
%TO.N,GND*%
X50159490Y-92704490D03*
%TO.N,/STM32L151RET6TR/SWDAT*%
X47619490Y-92704490D03*
%TO.N,/STM32L151RET6TR/RST*%
X45079490Y-92704490D03*
%TO.N,/STM32L151RET6TR/SW0*%
X42539490Y-92704490D03*
%TD*%
D10*
%TO.N,GND*%
%TO.C,J11*%
X42539490Y-104134490D03*
D11*
%TO.N,/STM32L151RET6TR/RST*%
X45079490Y-104134490D03*
%TD*%
D10*
%TO.N,+3V3*%
%TO.C,J12*%
X42539490Y-100324490D03*
D11*
%TO.N,/STM32L151RET6TR/BOOT*%
X45079490Y-100324490D03*
%TD*%
D14*
%TO.N,GND*%
X49784000Y-106934000D03*
X47778000Y-103759000D03*
X131699000Y-100203000D03*
X130810000Y-97282000D03*
X133350000Y-99695000D03*
X134874000Y-98171000D03*
%TO.N,+3V3*%
X128270000Y-93726000D03*
X129540000Y-93726000D03*
%TO.N,GND*%
X234188000Y-96520000D03*
X234188000Y-98552000D03*
X234188000Y-100838000D03*
X234188000Y-103124000D03*
X234188000Y-105918000D03*
X238760000Y-105918000D03*
X239522000Y-103124000D03*
X239014000Y-100838000D03*
X239014000Y-98552000D03*
X239014000Y-96520000D03*
X239268000Y-90932000D03*
X234188000Y-90932000D03*
X124968000Y-106172000D03*
X120396000Y-102108000D03*
X124968000Y-102108000D03*
X158242000Y-99568000D03*
X158242000Y-106172000D03*
X162814000Y-106172000D03*
X162814000Y-104140000D03*
X158242000Y-104140000D03*
X158242000Y-101854000D03*
X162814000Y-101854000D03*
X162814000Y-99568000D03*
X162814000Y-97028000D03*
X158242000Y-97028000D03*
X158242000Y-94742000D03*
X162814000Y-94742000D03*
X162814000Y-92710000D03*
X158242000Y-92710000D03*
X158242000Y-90678000D03*
X162814000Y-90678000D03*
X195834000Y-104140000D03*
X195834000Y-102108000D03*
X195834000Y-100076000D03*
X195834000Y-97790000D03*
X200914000Y-97790000D03*
X200914000Y-100076000D03*
X200914000Y-102108000D03*
X200914000Y-104140000D03*
X200914000Y-106172000D03*
X197104000Y-106172000D03*
X199898000Y-92710000D03*
X197104000Y-92710000D03*
X197104000Y-94742000D03*
X200152000Y-94742000D03*
X195834000Y-91440000D03*
X196342000Y-90424000D03*
X201422000Y-91440000D03*
X200914000Y-90424000D03*
X70358000Y-81280000D03*
X181447000Y-102906000D03*
X259334000Y-98425000D03*
X221234000Y-98425000D03*
X219547000Y-102906000D03*
X22200000Y-111600000D03*
X143347000Y-102906000D03*
X104648000Y-117348000D03*
X107188000Y-117348000D03*
X39005000Y-85788500D03*
X109728000Y-117348000D03*
X98298000Y-91186000D03*
X105882000Y-79157000D03*
X23800000Y-113100000D03*
X124900000Y-92700000D03*
X27051000Y-85725000D03*
X178907000Y-102906000D03*
X257647000Y-102906000D03*
X170180000Y-99822000D03*
X117856000Y-90297000D03*
X24638000Y-72898000D03*
X102108000Y-117348000D03*
X138609750Y-97982652D03*
X103342000Y-79157000D03*
X20800000Y-111600000D03*
X108422000Y-104466000D03*
X35957000Y-84772500D03*
X98298000Y-117348000D03*
X171704000Y-98806000D03*
X73500000Y-93800000D03*
X124900000Y-90500000D03*
X98044000Y-106462000D03*
X91000000Y-83200000D03*
X22200000Y-113100000D03*
X119700000Y-98800000D03*
X61785500Y-116903500D03*
X29337000Y-90424000D03*
X105882000Y-104466000D03*
X108422000Y-79157000D03*
X203835000Y-99060000D03*
X205486000Y-100457000D03*
X140843000Y-102870000D03*
X52197000Y-99568000D03*
X107475506Y-91025494D03*
X215392000Y-97331000D03*
X104775000Y-101981000D03*
X124900000Y-98800000D03*
X217007000Y-102906000D03*
X116332000Y-91694000D03*
X167640000Y-100330000D03*
X211963000Y-109728000D03*
X253492000Y-97331000D03*
X135763000Y-109601000D03*
X26924000Y-89281000D03*
X183388000Y-98298000D03*
X183987000Y-102906000D03*
X252222000Y-98425000D03*
X28117800Y-90424000D03*
X20800000Y-116200000D03*
X28117800Y-89306400D03*
X173736000Y-109982000D03*
X63436500Y-116903500D03*
X23800000Y-116200000D03*
X222087000Y-102906000D03*
X48381490Y-110738490D03*
X39005000Y-86804500D03*
X142113000Y-100076000D03*
X31115000Y-74041000D03*
X250063000Y-109728000D03*
X97155000Y-96647000D03*
X20800000Y-114600000D03*
X103378000Y-101981000D03*
X245999000Y-99822000D03*
X124900000Y-96800000D03*
X51435000Y-112268000D03*
X119700000Y-94700000D03*
X217678000Y-96647000D03*
X28083000Y-85725000D03*
X33700000Y-114400000D03*
X142113000Y-96774000D03*
X62605490Y-117342490D03*
X31115000Y-73025000D03*
X74000000Y-91868540D03*
X124900000Y-94700000D03*
X37000000Y-114400000D03*
X86778500Y-96065789D03*
X247396000Y-98552000D03*
X209296000Y-98552000D03*
X179670688Y-96427312D03*
X21500000Y-118600000D03*
X97790000Y-81026000D03*
X119700000Y-90500000D03*
X25654000Y-72898000D03*
X22200000Y-116200000D03*
X35957000Y-86804500D03*
X23800000Y-111600000D03*
X145415000Y-98298000D03*
X35957000Y-85788500D03*
X255778000Y-96647000D03*
X23800000Y-114600000D03*
X26924000Y-90424000D03*
X175768000Y-98298000D03*
X119700000Y-96800000D03*
X258064000Y-97282000D03*
X243586000Y-100457000D03*
X214122000Y-98425000D03*
X165608000Y-98806000D03*
X29146500Y-85725000D03*
X39005000Y-84772500D03*
X219964000Y-97282000D03*
X103342000Y-104466000D03*
X32131000Y-74041000D03*
X30099000Y-73025000D03*
X20800000Y-113100000D03*
X22200000Y-114600000D03*
X109728000Y-91059000D03*
X70612299Y-96087701D03*
X260187000Y-102906000D03*
X119700000Y-92700000D03*
X100917502Y-88773000D03*
X104561752Y-90819168D03*
X255107000Y-102906000D03*
X30099000Y-74041000D03*
X26670000Y-72898000D03*
X207899000Y-99822000D03*
X241935000Y-99060000D03*
X104140000Y-96647000D03*
X49874000Y-109384000D03*
X32131000Y-73025000D03*
X20800000Y-117500000D03*
X145887000Y-102906000D03*
X142096743Y-98806956D03*
X29337000Y-89281000D03*
%TO.N,+3V3*%
X221234000Y-100584000D03*
X97790000Y-79629000D03*
X24600000Y-122800000D03*
X242189000Y-93726000D03*
X183134000Y-100203000D03*
X21700000Y-124800000D03*
X145923000Y-100965000D03*
X72500000Y-101100000D03*
X259334000Y-100584000D03*
X138811000Y-100330000D03*
X23100000Y-122800000D03*
X106370700Y-101045298D03*
X57912000Y-90678000D03*
X90818000Y-87018000D03*
X97790000Y-88138000D03*
X202438000Y-93726000D03*
X80033000Y-87033000D03*
X252222000Y-100203000D03*
X70600000Y-90400000D03*
X60452000Y-101727000D03*
X176149000Y-100203000D03*
X97536000Y-116078000D03*
X240538000Y-93726000D03*
X58800000Y-106000000D03*
X97790000Y-89408000D03*
X50673000Y-83312000D03*
X97790000Y-78486000D03*
X101600000Y-101092000D03*
X23100000Y-123800000D03*
X65659000Y-100457000D03*
X114554000Y-93091000D03*
X115316000Y-93853000D03*
X98044000Y-104938000D03*
X166878000Y-93726000D03*
X45720000Y-110490000D03*
X21700000Y-121700000D03*
X24600000Y-124800000D03*
X42800000Y-111000000D03*
X65913000Y-102616000D03*
X165354000Y-93726000D03*
X23100000Y-124800000D03*
X21700000Y-122800000D03*
X54737000Y-82581990D03*
X57800000Y-106000000D03*
X70500000Y-88299488D03*
X21700000Y-120700000D03*
X204089000Y-93726000D03*
X21700000Y-123800000D03*
X24600000Y-123800000D03*
X64897000Y-97663000D03*
X214122000Y-100203000D03*
X98044000Y-103922000D03*
X97536000Y-114554000D03*
%TO.N,XSHUT_1*%
X140843000Y-105156000D03*
X103378000Y-85979000D03*
X139700000Y-96393000D03*
X67448327Y-117230437D03*
X67437000Y-120396000D03*
%TO.N,GPIOI_1*%
X137144951Y-98567049D03*
X100838000Y-85979000D03*
X138176000Y-105156000D03*
X62738000Y-77851000D03*
X141097000Y-96393000D03*
%TO.N,XSHUT_2*%
X68195141Y-116566152D03*
X68199000Y-119741501D03*
X103378000Y-91059000D03*
X176911000Y-95123000D03*
X178943000Y-105156000D03*
%TO.N,GPIOI_2*%
X100838000Y-91059000D03*
X94900000Y-86500000D03*
X176403000Y-105156000D03*
X62098134Y-78618839D03*
X180721000Y-96520000D03*
%TO.N,XSHUT_0*%
X91821000Y-103632000D03*
X107188000Y-96139000D03*
X66675000Y-119741501D03*
X66680435Y-116590634D03*
%TO.N,GPIOI_0*%
X81407000Y-102362000D03*
X109474000Y-96139000D03*
%TO.N,LED_3*%
X77845490Y-96008501D03*
%TO.N,LED_4*%
X78089042Y-93809500D03*
%TO.N,LED_1*%
X78220501Y-100578490D03*
%TO.N,LED_2*%
X77852679Y-97007978D03*
%TO.N,SW_1*%
X87600000Y-88800000D03*
X85581503Y-119888000D03*
X85648800Y-115214400D03*
%TO.N,SW_2*%
X84582000Y-115214400D03*
X72500000Y-88200000D03*
X84582000Y-119888000D03*
%TO.N,+5V*%
X39000000Y-97200000D03*
X22860000Y-75184000D03*
X39000000Y-96000000D03*
X22860000Y-76073000D03*
X39000000Y-98400000D03*
X31920572Y-86054631D03*
X22860000Y-74295000D03*
%TO.N,SCL1*%
X105918000Y-123444000D03*
X47619490Y-101594490D03*
X181483000Y-105156000D03*
X257683000Y-105156000D03*
X105918000Y-106716000D03*
X219583000Y-105156000D03*
X143383000Y-105156000D03*
%TO.N,SDA1*%
X260223000Y-105156000D03*
X184023000Y-105029000D03*
X145923000Y-105156000D03*
X108458000Y-122047000D03*
X109728000Y-107097000D03*
X47624143Y-102615143D03*
X222123000Y-105029000D03*
%TO.N,/STM32L151RET6TR/FTDI_RXD*%
X46355000Y-95250000D03*
%TO.N,/STM32L151RET6TR/FTDI_TXD*%
X48888299Y-95243387D03*
%TO.N,SCL2*%
X46857490Y-83306490D03*
%TO.N,SDA2*%
X49397490Y-83306490D03*
%TO.N,/STM32L151RET6TR/PC8*%
X51937490Y-83306490D03*
%TO.N,/STM32L151RET6TR/PA9*%
X44317490Y-83306490D03*
%TO.N,/STM32L151RET6TR/PA10*%
X41777490Y-83052490D03*
%TO.N,BUCK_5_EN*%
X40550500Y-84785200D03*
X31852210Y-81809930D03*
X51435000Y-86868000D03*
%TO.N,XSHUT_3*%
X69020803Y-120310399D03*
X103378000Y-111288000D03*
X214757000Y-95123000D03*
X68961000Y-117221000D03*
X217043000Y-105156000D03*
%TO.N,GPIOI_3*%
X82065801Y-103113656D03*
X214503000Y-105626500D03*
X90995500Y-104457500D03*
X100838000Y-111288000D03*
X62759776Y-79367996D03*
X218795600Y-96520000D03*
%TO.N,XSHUT_4*%
X255143000Y-105410000D03*
X252730000Y-95123000D03*
X69977000Y-119741501D03*
X69981299Y-116590299D03*
X103378000Y-117475000D03*
%TO.N,GPIOI_4*%
X256895600Y-96672400D03*
X252603000Y-105283000D03*
X100838000Y-117475000D03*
X89800000Y-104300000D03*
X62045029Y-80092496D03*
%TO.N,LED_5*%
X78099490Y-91434490D03*
%TD*%
D15*
%TO.N,+3V3*%
X44450000Y-114808000D02*
X43307000Y-114808000D01*
D16*
X128270000Y-93726000D02*
X129540000Y-93726000D01*
X127254000Y-93726000D02*
X128270000Y-93726000D01*
X129540000Y-93726000D02*
X155702000Y-93726000D01*
D15*
X94742000Y-93091000D02*
X93218000Y-94615000D01*
X94869000Y-93091000D02*
X94742000Y-93091000D01*
X93218000Y-94615000D02*
X93218000Y-93091000D01*
X93218000Y-98379634D02*
X93218000Y-94615000D01*
X93345000Y-91567000D02*
X93218000Y-91567000D01*
X94869000Y-93091000D02*
X93345000Y-91567000D01*
X93218000Y-91567000D02*
X93218000Y-88818000D01*
X93218000Y-93091000D02*
X93218000Y-91567000D01*
X94869000Y-93091000D02*
X114554000Y-93091000D01*
X93218000Y-93091000D02*
X94869000Y-93091000D01*
X94517000Y-105000000D02*
X94459000Y-105000000D01*
X93218000Y-105000000D02*
X93218000Y-103759000D01*
X93218000Y-103759000D02*
X93218000Y-98379634D01*
X94459000Y-105000000D02*
X93218000Y-103759000D01*
X94517000Y-105000000D02*
X93218000Y-106299000D01*
X93218000Y-106299000D02*
X93218000Y-113284000D01*
X93218000Y-105000000D02*
X93218000Y-106299000D01*
X94517000Y-105000000D02*
X96494000Y-105000000D01*
X93218000Y-105000000D02*
X94517000Y-105000000D01*
X94788000Y-114600000D02*
X94534000Y-114600000D01*
X94788000Y-114600000D02*
X97490000Y-114600000D01*
X91775000Y-114600000D02*
X94788000Y-114600000D01*
X94534000Y-114600000D02*
X93218000Y-113284000D01*
X93218000Y-113284000D02*
X91902000Y-114600000D01*
X91902000Y-114600000D02*
X91775000Y-114600000D01*
X93218000Y-113284000D02*
X93218000Y-114600000D01*
X90378000Y-114600000D02*
X91775000Y-114600000D01*
D16*
X167894000Y-93726000D02*
X194818000Y-93726000D01*
D17*
X157734000Y-95758000D02*
X155702000Y-93726000D01*
X159258000Y-95758000D02*
X157734000Y-95758000D01*
X163322000Y-95758000D02*
X159258000Y-95758000D01*
D16*
X165862000Y-93726000D02*
X165354000Y-93726000D01*
D17*
X165862000Y-93726000D02*
X155702000Y-93726000D01*
D16*
X167894000Y-93726000D02*
X165862000Y-93726000D01*
D17*
X165354000Y-93726000D02*
X163322000Y-95758000D01*
X157734000Y-91694000D02*
X155702000Y-93726000D01*
X163322000Y-91694000D02*
X157734000Y-91694000D01*
X165354000Y-93726000D02*
X163322000Y-91694000D01*
X234950000Y-91694000D02*
X232918000Y-93726000D01*
X127254000Y-93726000D02*
X125222000Y-91694000D01*
D16*
X93218000Y-87018000D02*
X92082000Y-87018000D01*
X76321490Y-104134490D02*
X71633510Y-104134490D01*
D17*
X200152000Y-91694000D02*
X201930000Y-93472000D01*
D16*
X54737000Y-79248000D02*
X54737000Y-87249000D01*
D15*
X95948500Y-79438500D02*
X96901000Y-78486000D01*
D16*
X93462000Y-88138000D02*
X93218000Y-88382000D01*
X93898000Y-88138000D02*
X93218000Y-88818000D01*
D17*
X115316000Y-93980000D02*
X115697000Y-94361000D01*
D16*
X97790000Y-89408000D02*
X97790000Y-88138000D01*
D15*
X49403000Y-112776000D02*
X55169001Y-118542001D01*
D17*
X194818000Y-93726000D02*
X196850000Y-95758000D01*
D16*
X97790000Y-79629000D02*
X97599500Y-79438500D01*
X43916489Y-77698489D02*
X53187489Y-77698489D01*
X204089000Y-93726000D02*
X232918000Y-93726000D01*
X96538000Y-88138000D02*
X94238000Y-88138000D01*
D17*
X196850000Y-91694000D02*
X200152000Y-91694000D01*
X194818000Y-93726000D02*
X196850000Y-91694000D01*
D16*
X93218000Y-87018000D02*
X93218000Y-87118000D01*
D18*
X42539490Y-100324490D02*
X41389979Y-101474001D01*
D15*
X115316000Y-93853000D02*
X114554000Y-93091000D01*
D16*
X97790000Y-89408000D02*
X97790000Y-89390000D01*
X202184000Y-93726000D02*
X204089000Y-93726000D01*
X166878000Y-93726000D02*
X167894000Y-93726000D01*
D18*
X41389979Y-101474001D02*
X41389979Y-109842979D01*
D16*
X92082000Y-87018000D02*
X90818000Y-87018000D01*
X80048000Y-87018000D02*
X80033000Y-87033000D01*
D17*
X196850000Y-95758000D02*
X200406000Y-95758000D01*
X115316000Y-93853000D02*
X115316000Y-93980000D01*
X115697000Y-94361000D02*
X117094000Y-95758000D01*
D16*
X53187489Y-77698489D02*
X54737000Y-79248000D01*
X93082000Y-86018000D02*
X92082000Y-87018000D01*
D15*
X93218000Y-87018000D02*
X93218000Y-86018000D01*
D17*
X200406000Y-95758000D02*
X202184000Y-93980000D01*
D15*
X43307000Y-112776000D02*
X49403000Y-112776000D01*
D16*
X93218000Y-87118000D02*
X94238000Y-88138000D01*
X98044000Y-103922000D02*
X98044000Y-104938000D01*
D17*
X118364000Y-91694000D02*
X116205000Y-93853000D01*
X125222000Y-95758000D02*
X127254000Y-93726000D01*
X234950000Y-91694000D02*
X238252000Y-91694000D01*
D16*
X97790000Y-88138000D02*
X96538000Y-88138000D01*
D15*
X96494000Y-105000000D02*
X96556000Y-104938000D01*
X97490000Y-114600000D02*
X97536000Y-114554000D01*
D18*
X41389979Y-109842979D02*
X42291000Y-110744000D01*
D16*
X98044000Y-103922000D02*
X97572000Y-103922000D01*
D15*
X93218000Y-82169000D02*
X95460511Y-79926489D01*
D16*
X240284000Y-93726000D02*
X240538000Y-93726000D01*
D17*
X194818000Y-93726000D02*
X202184000Y-93726000D01*
D16*
X93218000Y-86018000D02*
X93082000Y-86018000D01*
D17*
X127254000Y-93726000D02*
X115189000Y-93726000D01*
X115189000Y-93726000D02*
X114554000Y-93091000D01*
D15*
X93218000Y-86018000D02*
X93218000Y-84818000D01*
X55169001Y-118542001D02*
X86435999Y-118542001D01*
D19*
X54826021Y-101181021D02*
X52869979Y-101181021D01*
D20*
X44577000Y-111760000D02*
X45720000Y-110617000D01*
D16*
X97572000Y-103922000D02*
X96556000Y-104938000D01*
X94238000Y-88138000D02*
X93898000Y-88138000D01*
D15*
X93218000Y-88818000D02*
X93218000Y-88382000D01*
D17*
X232918000Y-93726000D02*
X240284000Y-93726000D01*
X234950000Y-95758000D02*
X238506000Y-95758000D01*
D16*
X97536000Y-114554000D02*
X97536000Y-116078000D01*
X90818000Y-87018000D02*
X80048000Y-87018000D01*
D15*
X95460511Y-79926489D02*
X95948500Y-79438500D01*
D16*
X98044000Y-104938000D02*
X96556000Y-104938000D01*
D17*
X115697000Y-94361000D02*
X116205000Y-93853000D01*
D20*
X43307000Y-111760000D02*
X44577000Y-111760000D01*
D15*
X97790000Y-78486000D02*
X96901000Y-78486000D01*
D16*
X92082000Y-87246000D02*
X93218000Y-88382000D01*
X97790000Y-89390000D02*
X96538000Y-88138000D01*
D19*
X52869979Y-101181021D02*
X43307000Y-110744000D01*
D17*
X117094000Y-95758000D02*
X125222000Y-95758000D01*
D15*
X93218000Y-84818000D02*
X93218000Y-82169000D01*
D16*
X240284000Y-93726000D02*
X242189000Y-93726000D01*
D15*
X53594000Y-123952000D02*
X44450000Y-114808000D01*
D16*
X41910000Y-75692000D02*
X43916489Y-77698489D01*
D15*
X97599500Y-79438500D02*
X95948500Y-79438500D01*
D20*
X45720000Y-110617000D02*
X45720000Y-110490000D01*
D15*
X86435999Y-118542001D02*
X90378000Y-114600000D01*
D17*
X125222000Y-91694000D02*
X118364000Y-91694000D01*
X234950000Y-95758000D02*
X232918000Y-93726000D01*
D16*
X94238000Y-88138000D02*
X93462000Y-88138000D01*
D17*
X238252000Y-91694000D02*
X240030000Y-93472000D01*
D16*
X202184000Y-93726000D02*
X202438000Y-93726000D01*
X92082000Y-87018000D02*
X92082000Y-87246000D01*
D15*
X93218000Y-88382000D02*
X93218000Y-87018000D01*
D17*
X238506000Y-95758000D02*
X240284000Y-93980000D01*
D16*
%TO.N,+5V*%
X47625000Y-96514490D02*
X45714490Y-98425000D01*
X34417000Y-88138000D02*
X36723001Y-90444001D01*
X49382999Y-90444001D02*
X50165000Y-89662000D01*
X22860000Y-76073000D02*
X22860000Y-76581000D01*
X38955999Y-90444001D02*
X49382999Y-90444001D01*
X50165000Y-89662000D02*
X50165000Y-88894490D01*
X39000000Y-96000000D02*
X39000000Y-90488002D01*
X22860000Y-76581000D02*
X34417000Y-88138000D01*
X36723001Y-90444001D02*
X38955999Y-90444001D01*
X39000000Y-98400000D02*
X39000000Y-97200000D01*
X39025000Y-98425000D02*
X39000000Y-98400000D01*
X45714490Y-98425000D02*
X39025000Y-98425000D01*
X39000000Y-97200000D02*
X39000000Y-96000000D01*
X22860000Y-74295000D02*
X22860000Y-76073000D01*
D20*
%TO.N,SCL1*%
X145415000Y-107188000D02*
X179451000Y-107188000D01*
X115702020Y-111246980D02*
X119761000Y-107188000D01*
X255651000Y-107188000D02*
X221615000Y-107188000D01*
X115702020Y-116961980D02*
X115702020Y-111246980D01*
X143383000Y-105156000D02*
X145415000Y-107188000D01*
X105918000Y-123444000D02*
X109220000Y-123444000D01*
X221615000Y-107188000D02*
X219583000Y-105156000D01*
X181483000Y-105156000D02*
X183515000Y-107188000D01*
X257683000Y-105156000D02*
X255651000Y-107188000D01*
X183515000Y-107188000D02*
X217551000Y-107188000D01*
X217551000Y-107188000D02*
X219583000Y-105156000D01*
X119761000Y-107188000D02*
X141351000Y-107188000D01*
X109220000Y-123444000D02*
X115702020Y-116961980D01*
X141351000Y-107188000D02*
X143383000Y-105156000D01*
X179451000Y-107188000D02*
X181483000Y-105156000D01*
%TO.N,SDA1*%
X183261000Y-104267000D02*
X184023000Y-105029000D01*
X259080000Y-104013000D02*
X260223000Y-105156000D01*
X137913386Y-104394000D02*
X145161000Y-104394000D01*
X184023000Y-105029000D02*
X213106000Y-105029000D01*
X145161000Y-104394000D02*
X145923000Y-105156000D01*
X214122000Y-104013000D02*
X221107000Y-104013000D01*
X222123000Y-105029000D02*
X249428000Y-105029000D01*
X115189000Y-115316000D02*
X115189000Y-111124282D01*
X115189000Y-111124282D02*
X121157282Y-105156000D01*
X221107000Y-104013000D02*
X222123000Y-105029000D01*
X176267386Y-104267000D02*
X183261000Y-104267000D01*
X121157282Y-105156000D02*
X137151386Y-105156000D01*
X108458000Y-122047000D02*
X115189000Y-115316000D01*
X145923000Y-105156000D02*
X175378386Y-105156000D01*
X175378386Y-105156000D02*
X176267386Y-104267000D01*
X249428000Y-105029000D02*
X250444000Y-104013000D01*
X137151386Y-105156000D02*
X137913386Y-104394000D01*
X250444000Y-104013000D02*
X259080000Y-104013000D01*
X213106000Y-105029000D02*
X214122000Y-104013000D01*
%TD*%
%TA.AperFunction,Conductor*%
%TO.N,+3V3*%
G36*
X73088611Y-86882492D02*
G01*
X73135104Y-86936148D01*
X73146490Y-86988490D01*
X73146490Y-87687259D01*
X73126488Y-87755380D01*
X73072832Y-87801873D01*
X73002558Y-87811977D01*
X72937978Y-87782483D01*
X72932951Y-87777802D01*
X72928282Y-87771718D01*
X72917020Y-87763076D01*
X72891248Y-87743301D01*
X72802841Y-87675464D01*
X72656762Y-87614956D01*
X72500000Y-87594318D01*
X72343238Y-87614956D01*
X72197159Y-87675464D01*
X72108752Y-87743301D01*
X72082981Y-87763076D01*
X72071718Y-87771718D01*
X71975464Y-87897159D01*
X71914956Y-88043238D01*
X71894318Y-88200000D01*
X71914956Y-88356762D01*
X71918116Y-88364391D01*
X71920468Y-88370068D01*
X71975464Y-88502841D01*
X72071718Y-88628282D01*
X72197159Y-88724536D01*
X72343238Y-88785044D01*
X72500000Y-88805682D01*
X72508188Y-88804604D01*
X72648574Y-88786122D01*
X72656762Y-88785044D01*
X72802841Y-88724536D01*
X72928282Y-88628282D01*
X72932160Y-88623228D01*
X72993707Y-88589620D01*
X73064522Y-88594685D01*
X73121358Y-88637232D01*
X73146169Y-88703752D01*
X73146490Y-88712741D01*
X73146490Y-89974134D01*
X73126488Y-90042255D01*
X73072832Y-90088748D01*
X73002558Y-90098852D01*
X72937978Y-90069358D01*
X72925037Y-90056381D01*
X72918340Y-90048608D01*
X72918334Y-90048603D01*
X72912475Y-90041803D01*
X72799382Y-89968499D01*
X72790785Y-89965928D01*
X72790783Y-89965927D01*
X72704268Y-89940054D01*
X72670259Y-89929883D01*
X72661283Y-89929828D01*
X72661282Y-89929828D01*
X72603847Y-89929477D01*
X72535489Y-89929060D01*
X72526858Y-89931527D01*
X72526856Y-89931527D01*
X72414536Y-89963628D01*
X72414534Y-89963629D01*
X72405905Y-89966095D01*
X72291924Y-90038012D01*
X72285981Y-90044741D01*
X72285980Y-90044742D01*
X72238192Y-90098852D01*
X72202709Y-90139029D01*
X72145432Y-90261025D01*
X72144052Y-90269890D01*
X72144051Y-90269892D01*
X72136079Y-90321095D01*
X72124697Y-90394193D01*
X72125861Y-90403095D01*
X72125861Y-90403098D01*
X72128918Y-90426474D01*
X72142172Y-90527828D01*
X72196451Y-90651187D01*
X72202228Y-90658060D01*
X72202229Y-90658061D01*
X72274425Y-90743947D01*
X72283172Y-90754353D01*
X72395362Y-90829033D01*
X72524002Y-90869223D01*
X72532972Y-90869387D01*
X72532976Y-90869388D01*
X72594742Y-90870520D01*
X72658752Y-90871693D01*
X72667812Y-90869223D01*
X72780117Y-90838606D01*
X72780120Y-90838605D01*
X72788779Y-90836244D01*
X72796429Y-90831547D01*
X72796431Y-90831546D01*
X72895979Y-90770424D01*
X72895982Y-90770421D01*
X72903631Y-90765725D01*
X72927075Y-90739824D01*
X72987617Y-90702743D01*
X73058597Y-90704280D01*
X73117478Y-90743947D01*
X73145566Y-90809151D01*
X73146490Y-90824379D01*
X73146490Y-93252208D01*
X73126488Y-93320329D01*
X73097195Y-93352169D01*
X73071718Y-93371718D01*
X72975464Y-93497159D01*
X72914956Y-93643238D01*
X72913878Y-93651426D01*
X72909015Y-93688366D01*
X72894318Y-93800000D01*
X72914956Y-93956762D01*
X72975464Y-94102841D01*
X73071718Y-94228282D01*
X73097193Y-94247830D01*
X73139061Y-94305166D01*
X73146490Y-94347792D01*
X73146490Y-102601891D01*
X73126488Y-102670012D01*
X73072832Y-102716505D01*
X73002558Y-102726609D01*
X72937978Y-102697115D01*
X72905789Y-102654042D01*
X72893448Y-102626899D01*
X72862586Y-102559022D01*
X72774611Y-102456923D01*
X72661518Y-102383619D01*
X72652921Y-102381048D01*
X72652919Y-102381047D01*
X72574664Y-102357644D01*
X72532395Y-102345003D01*
X72523419Y-102344948D01*
X72523418Y-102344948D01*
X72465983Y-102344597D01*
X72397625Y-102344180D01*
X72388994Y-102346647D01*
X72388992Y-102346647D01*
X72276672Y-102378748D01*
X72276670Y-102378749D01*
X72268041Y-102381215D01*
X72154060Y-102453132D01*
X72148117Y-102459861D01*
X72148116Y-102459862D01*
X72093165Y-102522083D01*
X72064845Y-102554149D01*
X72007568Y-102676145D01*
X72006188Y-102685010D01*
X72006187Y-102685012D01*
X71989711Y-102790832D01*
X71986833Y-102809313D01*
X71987997Y-102818215D01*
X71987997Y-102818218D01*
X72002145Y-102926408D01*
X72004308Y-102942948D01*
X72058587Y-103066307D01*
X72064364Y-103073180D01*
X72064365Y-103073181D01*
X72138928Y-103161883D01*
X72145308Y-103169473D01*
X72230056Y-103225886D01*
X72236061Y-103229883D01*
X72257498Y-103244153D01*
X72386138Y-103284343D01*
X72395108Y-103284507D01*
X72395112Y-103284508D01*
X72456878Y-103285640D01*
X72520888Y-103286813D01*
X72529948Y-103284343D01*
X72642253Y-103253726D01*
X72642256Y-103253725D01*
X72650915Y-103251364D01*
X72658565Y-103246667D01*
X72658567Y-103246666D01*
X72758115Y-103185544D01*
X72758118Y-103185541D01*
X72765767Y-103180845D01*
X72776061Y-103169473D01*
X72850181Y-103087586D01*
X72850182Y-103087585D01*
X72856209Y-103080926D01*
X72867274Y-103058089D01*
X72907098Y-102975890D01*
X72954800Y-102923307D01*
X73023358Y-102904861D01*
X73091006Y-102926408D01*
X73136265Y-102981108D01*
X73146490Y-103030828D01*
X73146490Y-107564490D01*
X73126488Y-107632611D01*
X73072832Y-107679104D01*
X73020490Y-107690490D01*
X55111490Y-107690490D01*
X55043369Y-107670488D01*
X54996876Y-107616832D01*
X54985490Y-107564490D01*
X54985490Y-106922683D01*
X62638187Y-106922683D01*
X62639351Y-106931585D01*
X62639351Y-106931588D01*
X62639829Y-106935243D01*
X62655662Y-107056318D01*
X62709941Y-107179677D01*
X62715718Y-107186550D01*
X62715719Y-107186551D01*
X62722230Y-107194296D01*
X62796662Y-107282843D01*
X62908852Y-107357523D01*
X63037492Y-107397713D01*
X63046462Y-107397877D01*
X63046466Y-107397878D01*
X63108232Y-107399010D01*
X63172242Y-107400183D01*
X63181302Y-107397713D01*
X63293607Y-107367096D01*
X63293610Y-107367095D01*
X63302269Y-107364734D01*
X63309919Y-107360037D01*
X63309921Y-107360036D01*
X63409469Y-107298914D01*
X63409472Y-107298911D01*
X63417121Y-107294215D01*
X63427415Y-107282843D01*
X63501535Y-107200956D01*
X63501536Y-107200955D01*
X63507563Y-107194296D01*
X63518628Y-107171459D01*
X63562411Y-107081089D01*
X63562411Y-107081088D01*
X63566326Y-107073008D01*
X63588686Y-106940104D01*
X63588828Y-106928490D01*
X63569722Y-106795078D01*
X63563500Y-106781392D01*
X63517656Y-106680566D01*
X63513940Y-106672392D01*
X63425965Y-106570293D01*
X63312872Y-106496989D01*
X63304275Y-106494418D01*
X63304273Y-106494417D01*
X63220029Y-106469223D01*
X63183749Y-106458373D01*
X63174773Y-106458318D01*
X63174772Y-106458318D01*
X63117337Y-106457967D01*
X63048979Y-106457550D01*
X63040348Y-106460017D01*
X63040346Y-106460017D01*
X62928026Y-106492118D01*
X62928024Y-106492119D01*
X62919395Y-106494585D01*
X62805414Y-106566502D01*
X62799471Y-106573231D01*
X62799470Y-106573232D01*
X62732804Y-106648718D01*
X62716199Y-106667519D01*
X62658922Y-106789515D01*
X62638187Y-106922683D01*
X54985490Y-106922683D01*
X54985490Y-105994193D01*
X56024697Y-105994193D01*
X56025861Y-106003095D01*
X56025861Y-106003098D01*
X56026339Y-106006753D01*
X56042172Y-106127828D01*
X56096451Y-106251187D01*
X56102228Y-106258060D01*
X56102229Y-106258061D01*
X56108740Y-106265806D01*
X56183172Y-106354353D01*
X56295362Y-106429033D01*
X56424002Y-106469223D01*
X56432972Y-106469387D01*
X56432976Y-106469388D01*
X56494742Y-106470520D01*
X56558752Y-106471693D01*
X56567812Y-106469223D01*
X56680117Y-106438606D01*
X56680120Y-106438605D01*
X56688779Y-106436244D01*
X56696429Y-106431547D01*
X56696431Y-106431546D01*
X56795979Y-106370424D01*
X56795982Y-106370421D01*
X56803631Y-106365725D01*
X56813925Y-106354353D01*
X56888045Y-106272466D01*
X56888046Y-106272465D01*
X56894073Y-106265806D01*
X56905138Y-106242969D01*
X56948921Y-106152599D01*
X56948921Y-106152598D01*
X56952836Y-106144518D01*
X56975196Y-106011614D01*
X56975338Y-106000000D01*
X56956232Y-105866588D01*
X56950010Y-105852902D01*
X56904166Y-105752076D01*
X56900450Y-105743902D01*
X56812475Y-105641803D01*
X56699382Y-105568499D01*
X56690785Y-105565928D01*
X56690783Y-105565927D01*
X56613140Y-105542707D01*
X56570259Y-105529883D01*
X56561283Y-105529828D01*
X56561282Y-105529828D01*
X56503847Y-105529477D01*
X56435489Y-105529060D01*
X56426858Y-105531527D01*
X56426856Y-105531527D01*
X56314536Y-105563628D01*
X56314534Y-105563629D01*
X56305905Y-105566095D01*
X56191924Y-105638012D01*
X56185981Y-105644741D01*
X56185980Y-105644742D01*
X56119314Y-105720228D01*
X56102709Y-105739029D01*
X56045432Y-105861025D01*
X56024697Y-105994193D01*
X54985490Y-105994193D01*
X54985490Y-104392693D01*
X69882697Y-104392693D01*
X69883861Y-104401595D01*
X69883861Y-104401598D01*
X69884339Y-104405253D01*
X69900172Y-104526328D01*
X69954451Y-104649687D01*
X69960228Y-104656560D01*
X69960229Y-104656561D01*
X69966740Y-104664306D01*
X70041172Y-104752853D01*
X70153362Y-104827533D01*
X70282002Y-104867723D01*
X70290972Y-104867887D01*
X70290976Y-104867888D01*
X70352742Y-104869020D01*
X70416752Y-104870193D01*
X70425812Y-104867723D01*
X70538117Y-104837106D01*
X70538120Y-104837105D01*
X70546779Y-104834744D01*
X70554429Y-104830047D01*
X70554431Y-104830046D01*
X70653979Y-104768924D01*
X70653982Y-104768921D01*
X70661631Y-104764225D01*
X70671925Y-104752853D01*
X70746045Y-104670966D01*
X70746046Y-104670965D01*
X70752073Y-104664306D01*
X70763138Y-104641469D01*
X70806921Y-104551099D01*
X70806921Y-104551098D01*
X70810836Y-104543018D01*
X70833196Y-104410114D01*
X70833338Y-104398500D01*
X70814232Y-104265088D01*
X70808010Y-104251402D01*
X70795530Y-104223955D01*
X70758450Y-104142402D01*
X70670475Y-104040303D01*
X70557382Y-103966999D01*
X70548785Y-103964428D01*
X70548783Y-103964427D01*
X70471140Y-103941207D01*
X70428259Y-103928383D01*
X70419283Y-103928328D01*
X70419282Y-103928328D01*
X70361847Y-103927977D01*
X70293489Y-103927560D01*
X70284858Y-103930027D01*
X70284856Y-103930027D01*
X70172536Y-103962128D01*
X70172534Y-103962129D01*
X70163905Y-103964595D01*
X70049924Y-104036512D01*
X70043981Y-104043241D01*
X70043980Y-104043242D01*
X69992773Y-104101223D01*
X69960709Y-104137529D01*
X69956895Y-104145652D01*
X69956894Y-104145654D01*
X69944669Y-104171693D01*
X69903432Y-104259525D01*
X69882697Y-104392693D01*
X54985490Y-104392693D01*
X54985490Y-103694193D01*
X56039697Y-103694193D01*
X56040861Y-103703095D01*
X56040861Y-103703098D01*
X56049354Y-103768043D01*
X56057172Y-103827828D01*
X56111451Y-103951187D01*
X56117228Y-103958060D01*
X56117229Y-103958061D01*
X56186362Y-104040303D01*
X56198172Y-104054353D01*
X56310362Y-104129033D01*
X56439002Y-104169223D01*
X56447972Y-104169387D01*
X56447976Y-104169388D01*
X56509742Y-104170520D01*
X56573752Y-104171693D01*
X56582812Y-104169223D01*
X56695117Y-104138606D01*
X56695120Y-104138605D01*
X56703779Y-104136244D01*
X56711429Y-104131547D01*
X56711431Y-104131546D01*
X56810979Y-104070424D01*
X56810982Y-104070421D01*
X56818631Y-104065725D01*
X56827382Y-104056058D01*
X56903045Y-103972466D01*
X56903046Y-103972465D01*
X56909073Y-103965806D01*
X56920138Y-103942969D01*
X56963921Y-103852599D01*
X56963921Y-103852598D01*
X56967836Y-103844518D01*
X56990196Y-103711614D01*
X56990338Y-103700000D01*
X56979768Y-103626193D01*
X68231697Y-103626193D01*
X68232861Y-103635095D01*
X68232861Y-103635098D01*
X68242867Y-103711614D01*
X68249172Y-103759828D01*
X68303451Y-103883187D01*
X68309228Y-103890060D01*
X68309229Y-103890061D01*
X68378499Y-103972466D01*
X68390172Y-103986353D01*
X68502362Y-104061033D01*
X68631002Y-104101223D01*
X68639972Y-104101387D01*
X68639976Y-104101388D01*
X68701742Y-104102520D01*
X68765752Y-104103693D01*
X68774812Y-104101223D01*
X68887117Y-104070606D01*
X68887120Y-104070605D01*
X68895779Y-104068244D01*
X68903429Y-104063547D01*
X68903431Y-104063546D01*
X69002979Y-104002424D01*
X69002982Y-104002421D01*
X69010631Y-103997725D01*
X69020925Y-103986353D01*
X69095045Y-103904466D01*
X69095046Y-103904465D01*
X69101073Y-103897806D01*
X69112138Y-103874969D01*
X69155921Y-103784599D01*
X69155921Y-103784598D01*
X69159836Y-103776518D01*
X69182196Y-103643614D01*
X69182338Y-103632000D01*
X69174243Y-103575474D01*
X69164505Y-103507474D01*
X69164504Y-103507471D01*
X69163232Y-103498588D01*
X69157010Y-103484902D01*
X69111166Y-103384076D01*
X69107450Y-103375902D01*
X69019475Y-103273803D01*
X68906382Y-103200499D01*
X68897785Y-103197928D01*
X68897783Y-103197927D01*
X68802638Y-103169473D01*
X68777259Y-103161883D01*
X68768283Y-103161828D01*
X68768282Y-103161828D01*
X68710847Y-103161477D01*
X68642489Y-103161060D01*
X68633858Y-103163527D01*
X68633856Y-103163527D01*
X68521536Y-103195628D01*
X68521534Y-103195629D01*
X68512905Y-103198095D01*
X68398924Y-103270012D01*
X68392981Y-103276741D01*
X68392980Y-103276742D01*
X68384086Y-103286813D01*
X68309709Y-103371029D01*
X68252432Y-103493025D01*
X68251052Y-103501890D01*
X68251051Y-103501892D01*
X68240978Y-103566588D01*
X68231697Y-103626193D01*
X56979768Y-103626193D01*
X56972505Y-103575474D01*
X56972504Y-103575471D01*
X56971232Y-103566588D01*
X56965010Y-103552902D01*
X56936600Y-103490419D01*
X56915450Y-103443902D01*
X56902367Y-103428718D01*
X56839997Y-103356335D01*
X56827475Y-103341803D01*
X56714382Y-103268499D01*
X56705785Y-103265928D01*
X56705783Y-103265927D01*
X56616339Y-103239178D01*
X56585259Y-103229883D01*
X56576283Y-103229828D01*
X56576282Y-103229828D01*
X56518847Y-103229477D01*
X56450489Y-103229060D01*
X56441858Y-103231527D01*
X56441856Y-103231527D01*
X56329536Y-103263628D01*
X56329534Y-103263629D01*
X56320905Y-103266095D01*
X56206924Y-103338012D01*
X56200981Y-103344741D01*
X56200980Y-103344742D01*
X56185091Y-103362733D01*
X56117709Y-103439029D01*
X56113895Y-103447152D01*
X56113894Y-103447154D01*
X56104887Y-103466339D01*
X56060432Y-103561025D01*
X56059052Y-103569890D01*
X56059051Y-103569892D01*
X56046826Y-103648409D01*
X56039697Y-103694193D01*
X54985490Y-103694193D01*
X54985490Y-102991201D01*
X58706689Y-102991201D01*
X58707853Y-103000103D01*
X58707853Y-103000106D01*
X58718586Y-103082183D01*
X58724164Y-103124836D01*
X58778443Y-103248195D01*
X58784220Y-103255068D01*
X58784221Y-103255069D01*
X58857130Y-103341803D01*
X58865164Y-103351361D01*
X58977354Y-103426041D01*
X59105994Y-103466231D01*
X59114964Y-103466395D01*
X59114968Y-103466396D01*
X59176734Y-103467528D01*
X59240744Y-103468701D01*
X59249804Y-103466231D01*
X59362109Y-103435614D01*
X59362112Y-103435613D01*
X59370771Y-103433252D01*
X59378421Y-103428555D01*
X59378423Y-103428554D01*
X59477971Y-103367432D01*
X59477974Y-103367429D01*
X59485623Y-103362733D01*
X59495917Y-103351361D01*
X59570037Y-103269474D01*
X59570038Y-103269473D01*
X59576065Y-103262814D01*
X59581613Y-103251364D01*
X59630913Y-103149607D01*
X59630913Y-103149606D01*
X59634828Y-103141526D01*
X59657188Y-103008622D01*
X59657330Y-102997008D01*
X59640997Y-102882956D01*
X59639497Y-102872482D01*
X59639496Y-102872479D01*
X59638224Y-102863596D01*
X59632002Y-102849910D01*
X59586158Y-102749084D01*
X59582442Y-102740910D01*
X59494467Y-102638811D01*
X59441815Y-102604683D01*
X64162187Y-102604683D01*
X64163351Y-102613585D01*
X64163351Y-102613588D01*
X64178131Y-102726609D01*
X64179662Y-102738318D01*
X64233941Y-102861677D01*
X64239718Y-102868550D01*
X64239719Y-102868551D01*
X64309163Y-102951163D01*
X64320662Y-102964843D01*
X64432852Y-103039523D01*
X64561492Y-103079713D01*
X64570462Y-103079877D01*
X64570466Y-103079878D01*
X64632232Y-103081010D01*
X64696242Y-103082183D01*
X64705302Y-103079713D01*
X64817607Y-103049096D01*
X64817610Y-103049095D01*
X64826269Y-103046734D01*
X64833919Y-103042037D01*
X64833921Y-103042036D01*
X64933469Y-102980914D01*
X64933472Y-102980911D01*
X64941121Y-102976215D01*
X64951415Y-102964843D01*
X65025535Y-102882956D01*
X65025536Y-102882955D01*
X65031563Y-102876296D01*
X65036116Y-102866900D01*
X65086411Y-102763089D01*
X65086411Y-102763088D01*
X65090326Y-102755008D01*
X65112686Y-102622104D01*
X65112828Y-102610490D01*
X65093722Y-102477078D01*
X65087500Y-102463392D01*
X65052826Y-102387133D01*
X65037940Y-102354392D01*
X64949965Y-102252293D01*
X64836872Y-102178989D01*
X64828275Y-102176418D01*
X64828273Y-102176417D01*
X64750630Y-102153197D01*
X64707749Y-102140373D01*
X64698773Y-102140318D01*
X64698772Y-102140318D01*
X64641337Y-102139967D01*
X64572979Y-102139550D01*
X64564348Y-102142017D01*
X64564346Y-102142017D01*
X64452026Y-102174118D01*
X64452024Y-102174119D01*
X64443395Y-102176585D01*
X64329414Y-102248502D01*
X64323471Y-102255231D01*
X64323470Y-102255232D01*
X64301564Y-102280036D01*
X64240199Y-102349519D01*
X64236385Y-102357642D01*
X64236384Y-102357644D01*
X64225318Y-102381215D01*
X64182922Y-102471515D01*
X64181542Y-102480380D01*
X64181541Y-102480382D01*
X64167916Y-102567891D01*
X64162187Y-102604683D01*
X59441815Y-102604683D01*
X59381374Y-102565507D01*
X59365515Y-102560764D01*
X59305981Y-102522083D01*
X59276811Y-102457356D01*
X59287265Y-102387133D01*
X59334025Y-102333710D01*
X59368474Y-102318484D01*
X59483607Y-102287096D01*
X59483610Y-102287095D01*
X59492269Y-102284734D01*
X59499919Y-102280037D01*
X59499921Y-102280036D01*
X59599469Y-102218914D01*
X59599472Y-102218911D01*
X59607121Y-102214215D01*
X59617415Y-102202843D01*
X59691535Y-102120956D01*
X59691536Y-102120955D01*
X59697563Y-102114296D01*
X59708628Y-102091459D01*
X59752411Y-102001089D01*
X59752411Y-102001088D01*
X59756326Y-101993008D01*
X59778686Y-101860104D01*
X59778828Y-101848490D01*
X59759722Y-101715078D01*
X59753500Y-101701392D01*
X59707656Y-101600566D01*
X59703940Y-101592392D01*
X59615965Y-101490293D01*
X59502872Y-101416989D01*
X59494275Y-101414418D01*
X59494273Y-101414417D01*
X59416630Y-101391197D01*
X59373749Y-101378373D01*
X59364773Y-101378318D01*
X59364772Y-101378318D01*
X59307337Y-101377967D01*
X59238979Y-101377550D01*
X59230348Y-101380017D01*
X59230346Y-101380017D01*
X59118026Y-101412118D01*
X59118024Y-101412119D01*
X59109395Y-101414585D01*
X58995414Y-101486502D01*
X58989471Y-101493231D01*
X58989470Y-101493232D01*
X58922804Y-101568718D01*
X58906199Y-101587519D01*
X58848922Y-101709515D01*
X58828187Y-101842683D01*
X58829351Y-101851585D01*
X58829351Y-101851588D01*
X58829829Y-101855243D01*
X58845662Y-101976318D01*
X58899941Y-102099677D01*
X58905718Y-102106550D01*
X58905719Y-102106551D01*
X58964590Y-102176585D01*
X58986662Y-102202843D01*
X59098852Y-102277523D01*
X59107422Y-102280200D01*
X59107421Y-102280200D01*
X59121293Y-102284534D01*
X59180349Y-102323940D01*
X59208727Y-102389019D01*
X59197415Y-102459108D01*
X59150005Y-102511956D01*
X59116853Y-102523871D01*
X59117481Y-102526068D01*
X58996528Y-102560636D01*
X58996526Y-102560637D01*
X58987897Y-102563103D01*
X58980309Y-102567891D01*
X58894387Y-102622104D01*
X58873916Y-102635020D01*
X58867973Y-102641749D01*
X58867972Y-102641750D01*
X58857116Y-102654042D01*
X58784701Y-102736037D01*
X58727424Y-102858033D01*
X58726044Y-102866898D01*
X58726043Y-102866900D01*
X58708261Y-102981108D01*
X58706689Y-102991201D01*
X54985490Y-102991201D01*
X54985490Y-102864490D01*
X53460490Y-102864490D01*
X53392369Y-102844488D01*
X53345876Y-102790832D01*
X53334490Y-102738490D01*
X53334490Y-100832193D01*
X64167697Y-100832193D01*
X64168861Y-100841095D01*
X64168861Y-100841098D01*
X64169339Y-100844753D01*
X64185172Y-100965828D01*
X64239451Y-101089187D01*
X64245228Y-101096060D01*
X64245229Y-101096061D01*
X64251740Y-101103806D01*
X64326172Y-101192353D01*
X64438362Y-101267033D01*
X64567002Y-101307223D01*
X64575972Y-101307387D01*
X64575976Y-101307388D01*
X64637742Y-101308520D01*
X64701752Y-101309693D01*
X64710812Y-101307223D01*
X64823117Y-101276606D01*
X64823120Y-101276605D01*
X64831779Y-101274244D01*
X64839429Y-101269547D01*
X64839431Y-101269546D01*
X64938979Y-101208424D01*
X64938982Y-101208421D01*
X64946631Y-101203725D01*
X64956925Y-101192353D01*
X65031045Y-101110466D01*
X65031046Y-101110465D01*
X65037073Y-101103806D01*
X65048138Y-101080969D01*
X65091921Y-100990599D01*
X65091921Y-100990598D01*
X65095836Y-100982518D01*
X65118196Y-100849614D01*
X65118338Y-100838000D01*
X65107273Y-100760734D01*
X65100505Y-100713474D01*
X65100504Y-100713471D01*
X65099232Y-100704588D01*
X65094834Y-100694914D01*
X65080530Y-100663455D01*
X65043450Y-100581902D01*
X64955475Y-100479803D01*
X64842382Y-100406499D01*
X64833785Y-100403928D01*
X64833783Y-100403927D01*
X64756140Y-100380707D01*
X64713259Y-100367883D01*
X64704283Y-100367828D01*
X64704282Y-100367828D01*
X64646847Y-100367477D01*
X64578489Y-100367060D01*
X64569858Y-100369527D01*
X64569856Y-100369527D01*
X64457536Y-100401628D01*
X64457534Y-100401629D01*
X64448905Y-100404095D01*
X64441317Y-100408883D01*
X64346025Y-100469008D01*
X64334924Y-100476012D01*
X64328981Y-100482741D01*
X64328980Y-100482742D01*
X64262314Y-100558228D01*
X64245709Y-100577029D01*
X64188432Y-100699025D01*
X64187052Y-100707890D01*
X64187051Y-100707892D01*
X64173330Y-100796018D01*
X64167697Y-100832193D01*
X53334490Y-100832193D01*
X53334490Y-100318683D01*
X59590187Y-100318683D01*
X59591351Y-100327585D01*
X59591351Y-100327588D01*
X59606498Y-100443419D01*
X59607662Y-100452318D01*
X59661941Y-100575677D01*
X59667718Y-100582550D01*
X59667719Y-100582551D01*
X59674230Y-100590296D01*
X59748662Y-100678843D01*
X59860852Y-100753523D01*
X59989492Y-100793713D01*
X59998462Y-100793877D01*
X59998466Y-100793878D01*
X60060232Y-100795010D01*
X60124242Y-100796183D01*
X60133302Y-100793713D01*
X60245607Y-100763096D01*
X60245610Y-100763095D01*
X60254269Y-100760734D01*
X60261919Y-100756037D01*
X60261921Y-100756036D01*
X60361469Y-100694914D01*
X60361472Y-100694911D01*
X60369121Y-100690215D01*
X60379415Y-100678843D01*
X60453535Y-100596956D01*
X60453536Y-100596955D01*
X60459563Y-100590296D01*
X60466926Y-100575100D01*
X60514411Y-100477089D01*
X60514411Y-100477088D01*
X60518326Y-100469008D01*
X60540686Y-100336104D01*
X60540828Y-100324490D01*
X60521722Y-100191078D01*
X60515500Y-100177392D01*
X60494517Y-100131244D01*
X60465940Y-100068392D01*
X60377965Y-99966293D01*
X60264872Y-99892989D01*
X60256275Y-99890418D01*
X60256273Y-99890417D01*
X60178630Y-99867197D01*
X60135749Y-99854373D01*
X60126773Y-99854318D01*
X60126772Y-99854318D01*
X60069337Y-99853967D01*
X60000979Y-99853550D01*
X59992348Y-99856017D01*
X59992346Y-99856017D01*
X59880026Y-99888118D01*
X59880024Y-99888119D01*
X59871395Y-99890585D01*
X59863807Y-99895373D01*
X59783272Y-99946187D01*
X59757414Y-99962502D01*
X59751471Y-99969231D01*
X59751470Y-99969232D01*
X59686779Y-100042481D01*
X59668199Y-100063519D01*
X59610922Y-100185515D01*
X59590187Y-100318683D01*
X53334490Y-100318683D01*
X53334490Y-99689193D01*
X61246697Y-99689193D01*
X61247861Y-99698095D01*
X61247861Y-99698098D01*
X61248339Y-99701753D01*
X61264172Y-99822828D01*
X61318451Y-99946187D01*
X61324228Y-99953060D01*
X61324229Y-99953061D01*
X61341070Y-99973095D01*
X61405172Y-100049353D01*
X61517362Y-100124033D01*
X61646002Y-100164223D01*
X61654972Y-100164387D01*
X61654976Y-100164388D01*
X61716742Y-100165520D01*
X61780752Y-100166693D01*
X61789812Y-100164223D01*
X61902117Y-100133606D01*
X61902120Y-100133605D01*
X61910779Y-100131244D01*
X61918429Y-100126547D01*
X61918431Y-100126546D01*
X62017979Y-100065424D01*
X62017982Y-100065421D01*
X62025631Y-100060725D01*
X62035925Y-100049353D01*
X62110045Y-99967466D01*
X62110046Y-99967465D01*
X62116073Y-99960806D01*
X62127138Y-99937969D01*
X62170921Y-99847599D01*
X62170921Y-99847598D01*
X62174836Y-99839518D01*
X62197196Y-99706614D01*
X62197338Y-99695000D01*
X62178232Y-99561588D01*
X62172010Y-99547902D01*
X62126166Y-99447076D01*
X62122450Y-99438902D01*
X62034475Y-99336803D01*
X61921382Y-99263499D01*
X61912785Y-99260928D01*
X61912783Y-99260927D01*
X61807774Y-99229523D01*
X61792259Y-99224883D01*
X61783283Y-99224828D01*
X61783282Y-99224828D01*
X61725847Y-99224477D01*
X61657489Y-99224060D01*
X61648858Y-99226527D01*
X61648856Y-99226527D01*
X61536536Y-99258628D01*
X61536534Y-99258629D01*
X61527905Y-99261095D01*
X61413924Y-99333012D01*
X61407981Y-99339741D01*
X61407980Y-99339742D01*
X61341314Y-99415228D01*
X61324709Y-99434029D01*
X61267432Y-99556025D01*
X61246697Y-99689193D01*
X53334490Y-99689193D01*
X53334490Y-98794683D01*
X66702187Y-98794683D01*
X66703351Y-98803585D01*
X66703351Y-98803588D01*
X66703829Y-98807243D01*
X66719662Y-98928318D01*
X66773941Y-99051677D01*
X66779718Y-99058550D01*
X66779719Y-99058551D01*
X66786230Y-99066296D01*
X66860662Y-99154843D01*
X66972852Y-99229523D01*
X67065954Y-99258610D01*
X67073908Y-99261095D01*
X67101492Y-99269713D01*
X67110462Y-99269877D01*
X67110466Y-99269878D01*
X67172232Y-99271010D01*
X67236242Y-99272183D01*
X67245302Y-99269713D01*
X67357607Y-99239096D01*
X67357610Y-99239095D01*
X67366269Y-99236734D01*
X67373919Y-99232037D01*
X67373921Y-99232036D01*
X67473469Y-99170914D01*
X67473472Y-99170911D01*
X67481121Y-99166215D01*
X67491415Y-99154843D01*
X67565535Y-99072956D01*
X67565536Y-99072955D01*
X67571563Y-99066296D01*
X67582628Y-99043459D01*
X67626411Y-98953089D01*
X67626411Y-98953088D01*
X67630326Y-98945008D01*
X67652686Y-98812104D01*
X67652828Y-98800490D01*
X67633722Y-98667078D01*
X67627500Y-98653392D01*
X67581656Y-98552566D01*
X67577940Y-98544392D01*
X67489965Y-98442293D01*
X67376872Y-98368989D01*
X67368275Y-98366418D01*
X67368273Y-98366417D01*
X67290630Y-98343197D01*
X67247749Y-98330373D01*
X67238773Y-98330318D01*
X67238772Y-98330318D01*
X67181337Y-98329967D01*
X67112979Y-98329550D01*
X67104348Y-98332017D01*
X67104346Y-98332017D01*
X66992026Y-98364118D01*
X66992024Y-98364119D01*
X66983395Y-98366585D01*
X66869414Y-98438502D01*
X66863471Y-98445231D01*
X66863470Y-98445232D01*
X66796804Y-98520718D01*
X66780199Y-98539519D01*
X66722922Y-98661515D01*
X66702187Y-98794683D01*
X53334490Y-98794683D01*
X53334490Y-96641193D01*
X64421697Y-96641193D01*
X64422861Y-96650095D01*
X64422861Y-96650098D01*
X64438008Y-96765929D01*
X64439172Y-96774828D01*
X64493451Y-96898187D01*
X64499228Y-96905060D01*
X64499229Y-96905061D01*
X64505740Y-96912806D01*
X64580172Y-97001353D01*
X64692362Y-97076033D01*
X64821002Y-97116223D01*
X64829972Y-97116387D01*
X64829976Y-97116388D01*
X64891742Y-97117520D01*
X64955752Y-97118693D01*
X64964812Y-97116223D01*
X65077117Y-97085606D01*
X65077120Y-97085605D01*
X65085779Y-97083244D01*
X65093429Y-97078547D01*
X65093431Y-97078546D01*
X65192979Y-97017424D01*
X65192982Y-97017421D01*
X65200631Y-97012725D01*
X65210925Y-97001353D01*
X65285045Y-96919466D01*
X65285046Y-96919465D01*
X65291073Y-96912806D01*
X65302138Y-96889969D01*
X65345921Y-96799599D01*
X65345921Y-96799598D01*
X65349836Y-96791518D01*
X65372196Y-96658614D01*
X65372338Y-96647000D01*
X65353232Y-96513588D01*
X65347010Y-96499902D01*
X65301166Y-96399076D01*
X65297450Y-96390902D01*
X65209475Y-96288803D01*
X65096382Y-96215499D01*
X65087785Y-96212928D01*
X65087783Y-96212927D01*
X65010140Y-96189707D01*
X64967259Y-96176883D01*
X64958283Y-96176828D01*
X64958282Y-96176828D01*
X64900847Y-96176477D01*
X64832489Y-96176060D01*
X64823858Y-96178527D01*
X64823856Y-96178527D01*
X64711536Y-96210628D01*
X64711534Y-96210629D01*
X64702905Y-96213095D01*
X64588924Y-96285012D01*
X64582981Y-96291741D01*
X64582980Y-96291742D01*
X64516314Y-96367228D01*
X64499709Y-96386029D01*
X64442432Y-96508025D01*
X64441052Y-96516890D01*
X64441051Y-96516892D01*
X64425714Y-96615397D01*
X64421697Y-96641193D01*
X53334490Y-96641193D01*
X53334490Y-96087701D01*
X70006617Y-96087701D01*
X70027255Y-96244463D01*
X70087763Y-96390542D01*
X70184017Y-96515983D01*
X70309458Y-96612237D01*
X70455537Y-96672745D01*
X70612299Y-96693383D01*
X70620487Y-96692305D01*
X70760873Y-96673823D01*
X70769061Y-96672745D01*
X70915140Y-96612237D01*
X71040581Y-96515983D01*
X71136835Y-96390542D01*
X71197343Y-96244463D01*
X71217981Y-96087701D01*
X71203213Y-95975528D01*
X71198421Y-95939127D01*
X71197343Y-95930939D01*
X71136835Y-95784860D01*
X71040581Y-95659419D01*
X70915140Y-95563165D01*
X70769061Y-95502657D01*
X70735154Y-95498193D01*
X70667763Y-95489321D01*
X70612299Y-95482019D01*
X70556835Y-95489321D01*
X70489445Y-95498193D01*
X70455537Y-95502657D01*
X70309458Y-95563165D01*
X70184017Y-95659419D01*
X70087763Y-95784860D01*
X70027255Y-95930939D01*
X70026177Y-95939127D01*
X70021385Y-95975528D01*
X70006617Y-96087701D01*
X53334490Y-96087701D01*
X53334490Y-95498193D01*
X67088697Y-95498193D01*
X67089861Y-95507095D01*
X67089861Y-95507098D01*
X67105008Y-95622929D01*
X67106172Y-95631828D01*
X67160451Y-95755187D01*
X67166228Y-95762060D01*
X67166229Y-95762061D01*
X67191808Y-95792490D01*
X67247172Y-95858353D01*
X67359362Y-95933033D01*
X67488002Y-95973223D01*
X67496972Y-95973387D01*
X67496976Y-95973388D01*
X67558742Y-95974520D01*
X67622752Y-95975693D01*
X67631812Y-95973223D01*
X67744117Y-95942606D01*
X67744120Y-95942605D01*
X67752779Y-95940244D01*
X67760429Y-95935547D01*
X67760431Y-95935546D01*
X67859979Y-95874424D01*
X67859982Y-95874421D01*
X67867631Y-95869725D01*
X67877925Y-95858353D01*
X67952045Y-95776466D01*
X67952046Y-95776465D01*
X67958073Y-95769806D01*
X67969138Y-95746969D01*
X68012921Y-95656599D01*
X68012921Y-95656598D01*
X68016836Y-95648518D01*
X68039196Y-95515614D01*
X68039338Y-95504000D01*
X68020232Y-95370588D01*
X68014010Y-95356902D01*
X67976814Y-95275095D01*
X67964450Y-95247902D01*
X67876475Y-95145803D01*
X67763382Y-95072499D01*
X67754785Y-95069928D01*
X67754783Y-95069927D01*
X67677140Y-95046707D01*
X67634259Y-95033883D01*
X67625283Y-95033828D01*
X67625282Y-95033828D01*
X67567847Y-95033477D01*
X67499489Y-95033060D01*
X67490858Y-95035527D01*
X67490856Y-95035527D01*
X67378536Y-95067628D01*
X67378534Y-95067629D01*
X67369905Y-95070095D01*
X67255924Y-95142012D01*
X67249981Y-95148741D01*
X67249980Y-95148742D01*
X67238667Y-95161552D01*
X67166709Y-95243029D01*
X67162895Y-95251152D01*
X67162894Y-95251154D01*
X67154881Y-95268221D01*
X67109432Y-95365025D01*
X67108052Y-95373890D01*
X67108051Y-95373892D01*
X67090171Y-95488727D01*
X67088697Y-95498193D01*
X53334490Y-95498193D01*
X53334490Y-95011227D01*
X71824697Y-95011227D01*
X71825861Y-95020129D01*
X71825861Y-95020132D01*
X71841008Y-95135963D01*
X71842172Y-95144862D01*
X71896451Y-95268221D01*
X71902228Y-95275094D01*
X71902229Y-95275095D01*
X71975634Y-95362419D01*
X71983172Y-95371387D01*
X72095362Y-95446067D01*
X72224002Y-95486257D01*
X72232972Y-95486421D01*
X72232976Y-95486422D01*
X72294742Y-95487554D01*
X72358752Y-95488727D01*
X72367812Y-95486257D01*
X72480117Y-95455640D01*
X72480120Y-95455639D01*
X72488779Y-95453278D01*
X72496429Y-95448581D01*
X72496431Y-95448580D01*
X72595979Y-95387458D01*
X72595982Y-95387455D01*
X72603631Y-95382759D01*
X72613925Y-95371387D01*
X72688045Y-95289500D01*
X72688046Y-95289499D01*
X72694073Y-95282840D01*
X72705138Y-95260003D01*
X72748921Y-95169633D01*
X72748921Y-95169632D01*
X72752836Y-95161552D01*
X72775196Y-95028648D01*
X72775338Y-95017034D01*
X72756232Y-94883622D01*
X72750010Y-94869936D01*
X72704166Y-94769110D01*
X72700450Y-94760936D01*
X72612475Y-94658837D01*
X72499382Y-94585533D01*
X72490785Y-94582962D01*
X72490783Y-94582961D01*
X72413140Y-94559741D01*
X72370259Y-94546917D01*
X72361283Y-94546862D01*
X72361282Y-94546862D01*
X72303847Y-94546511D01*
X72235489Y-94546094D01*
X72226858Y-94548561D01*
X72226856Y-94548561D01*
X72114536Y-94580662D01*
X72114534Y-94580663D01*
X72105905Y-94583129D01*
X71991924Y-94655046D01*
X71985981Y-94661775D01*
X71985980Y-94661776D01*
X71981073Y-94667332D01*
X71902709Y-94756063D01*
X71845432Y-94878059D01*
X71824697Y-95011227D01*
X53334490Y-95011227D01*
X53334490Y-93602990D01*
X53344764Y-93568001D01*
X54189490Y-93568001D01*
X54190697Y-93580256D01*
X54198673Y-93620354D01*
X54207989Y-93642845D01*
X54238405Y-93688366D01*
X54255614Y-93705575D01*
X54301135Y-93735991D01*
X54323626Y-93745307D01*
X54363724Y-93753283D01*
X54375979Y-93754490D01*
X54967375Y-93754490D01*
X54982614Y-93750015D01*
X54983819Y-93748625D01*
X54985490Y-93740942D01*
X54985490Y-93736375D01*
X55493490Y-93736375D01*
X55497965Y-93751614D01*
X55499355Y-93752819D01*
X55507038Y-93754490D01*
X56103001Y-93754490D01*
X56115256Y-93753283D01*
X56155354Y-93745307D01*
X56177845Y-93735991D01*
X56223366Y-93705575D01*
X56240575Y-93688366D01*
X56270991Y-93642845D01*
X56280307Y-93620354D01*
X56288283Y-93580256D01*
X56289490Y-93568001D01*
X56289490Y-93206683D01*
X67591187Y-93206683D01*
X67592351Y-93215585D01*
X67592351Y-93215588D01*
X67605694Y-93317624D01*
X67608662Y-93340318D01*
X67662941Y-93463677D01*
X67668718Y-93470550D01*
X67668719Y-93470551D01*
X67722785Y-93534869D01*
X67749662Y-93566843D01*
X67803965Y-93602990D01*
X67831363Y-93621228D01*
X67876986Y-93675625D01*
X67885957Y-93746053D01*
X67855427Y-93810150D01*
X67828780Y-93832676D01*
X67767222Y-93871516D01*
X67767215Y-93871522D01*
X67759625Y-93876311D01*
X67753682Y-93883040D01*
X67753681Y-93883041D01*
X67695805Y-93948574D01*
X67670410Y-93977328D01*
X67613133Y-94099324D01*
X67611753Y-94108189D01*
X67611752Y-94108191D01*
X67594074Y-94221731D01*
X67592398Y-94232492D01*
X67593562Y-94241394D01*
X67593562Y-94241397D01*
X67594040Y-94245052D01*
X67609873Y-94366127D01*
X67664152Y-94489486D01*
X67669929Y-94496359D01*
X67669930Y-94496360D01*
X67744889Y-94585533D01*
X67750873Y-94592652D01*
X67863063Y-94667332D01*
X67991703Y-94707522D01*
X68000673Y-94707686D01*
X68000677Y-94707687D01*
X68062443Y-94708819D01*
X68126453Y-94709992D01*
X68135513Y-94707522D01*
X68247818Y-94676905D01*
X68247821Y-94676904D01*
X68256480Y-94674543D01*
X68264130Y-94669846D01*
X68264132Y-94669845D01*
X68363680Y-94608723D01*
X68363683Y-94608720D01*
X68371332Y-94604024D01*
X68381626Y-94592652D01*
X68455746Y-94510765D01*
X68455747Y-94510764D01*
X68461774Y-94504105D01*
X68472839Y-94481268D01*
X68516622Y-94390898D01*
X68516622Y-94390897D01*
X68520537Y-94382817D01*
X68542897Y-94249913D01*
X68543039Y-94238299D01*
X68523933Y-94104887D01*
X68517711Y-94091201D01*
X68471867Y-93990375D01*
X68468151Y-93982201D01*
X68380176Y-93880102D01*
X68303678Y-93830518D01*
X68257395Y-93776682D01*
X68247564Y-93706369D01*
X68277308Y-93641904D01*
X68306277Y-93617415D01*
X68370121Y-93578215D01*
X68376398Y-93571281D01*
X68454535Y-93484956D01*
X68454536Y-93484955D01*
X68460563Y-93478296D01*
X68465109Y-93468914D01*
X68515411Y-93365089D01*
X68515411Y-93365088D01*
X68519326Y-93357008D01*
X68541686Y-93224104D01*
X68541828Y-93212490D01*
X68530564Y-93133834D01*
X68523995Y-93087964D01*
X68523994Y-93087961D01*
X68522722Y-93079078D01*
X68516500Y-93065392D01*
X68476130Y-92976605D01*
X68466940Y-92956392D01*
X68378965Y-92854293D01*
X68265872Y-92780989D01*
X68257275Y-92778418D01*
X68257273Y-92778417D01*
X68179630Y-92755197D01*
X68136749Y-92742373D01*
X68127773Y-92742318D01*
X68127772Y-92742318D01*
X68070337Y-92741967D01*
X68001979Y-92741550D01*
X67993348Y-92744017D01*
X67993346Y-92744017D01*
X67881026Y-92776118D01*
X67881024Y-92776119D01*
X67872395Y-92778585D01*
X67758414Y-92850502D01*
X67752471Y-92857231D01*
X67752470Y-92857232D01*
X67719077Y-92895043D01*
X67669199Y-92951519D01*
X67665385Y-92959642D01*
X67665384Y-92959644D01*
X67663073Y-92964566D01*
X67611922Y-93073515D01*
X67591187Y-93206683D01*
X56289490Y-93206683D01*
X56289490Y-92976605D01*
X56285015Y-92961366D01*
X56283625Y-92960161D01*
X56275942Y-92958490D01*
X55511605Y-92958490D01*
X55496366Y-92962965D01*
X55495161Y-92964355D01*
X55493490Y-92972038D01*
X55493490Y-93736375D01*
X54985490Y-93736375D01*
X54985490Y-92976605D01*
X54981015Y-92961366D01*
X54979625Y-92960161D01*
X54971942Y-92958490D01*
X54207605Y-92958490D01*
X54192366Y-92962965D01*
X54191161Y-92964355D01*
X54189490Y-92972038D01*
X54189490Y-93568001D01*
X53344764Y-93568001D01*
X53354492Y-93534869D01*
X53382917Y-93503701D01*
X53422585Y-93472709D01*
X53422591Y-93472703D01*
X53427441Y-93468914D01*
X53431962Y-93463677D01*
X53558030Y-93317624D01*
X53558030Y-93317623D01*
X53562054Y-93312962D01*
X53582877Y-93276308D01*
X53660766Y-93139197D01*
X53663813Y-93133834D01*
X53728841Y-92938353D01*
X53754661Y-92733964D01*
X53755073Y-92704490D01*
X53734970Y-92499460D01*
X53714716Y-92432375D01*
X54189490Y-92432375D01*
X54193965Y-92447614D01*
X54195355Y-92448819D01*
X54203038Y-92450490D01*
X54967375Y-92450490D01*
X54982614Y-92446015D01*
X54983819Y-92444625D01*
X54985490Y-92436942D01*
X54985490Y-92432375D01*
X55493490Y-92432375D01*
X55497965Y-92447614D01*
X55499355Y-92448819D01*
X55507038Y-92450490D01*
X56271375Y-92450490D01*
X56286614Y-92446015D01*
X56287819Y-92444625D01*
X56289490Y-92436942D01*
X56289490Y-91936683D01*
X67464187Y-91936683D01*
X67465351Y-91945585D01*
X67465351Y-91945588D01*
X67480498Y-92061419D01*
X67481662Y-92070318D01*
X67535941Y-92193677D01*
X67541718Y-92200550D01*
X67541719Y-92200551D01*
X67615777Y-92288652D01*
X67622662Y-92296843D01*
X67734852Y-92371523D01*
X67863492Y-92411713D01*
X67872462Y-92411877D01*
X67872466Y-92411878D01*
X67934232Y-92413010D01*
X67998242Y-92414183D01*
X68007302Y-92411713D01*
X68119607Y-92381096D01*
X68119610Y-92381095D01*
X68128269Y-92378734D01*
X68135919Y-92374037D01*
X68135921Y-92374036D01*
X68235469Y-92312914D01*
X68235472Y-92312911D01*
X68243121Y-92308215D01*
X68253415Y-92296843D01*
X68327535Y-92214956D01*
X68327536Y-92214955D01*
X68333563Y-92208296D01*
X68344628Y-92185459D01*
X68388411Y-92095089D01*
X68388411Y-92095088D01*
X68392326Y-92087008D01*
X68393815Y-92078156D01*
X68396545Y-92069603D01*
X68399085Y-92070414D01*
X68424047Y-92019046D01*
X68484675Y-91982102D01*
X68555651Y-91983801D01*
X68587087Y-91998925D01*
X68686150Y-92064867D01*
X68814790Y-92105057D01*
X68823760Y-92105221D01*
X68823764Y-92105222D01*
X68885530Y-92106354D01*
X68949540Y-92107527D01*
X68958600Y-92105057D01*
X69070905Y-92074440D01*
X69070908Y-92074439D01*
X69079567Y-92072078D01*
X69087217Y-92067381D01*
X69087219Y-92067380D01*
X69186767Y-92006258D01*
X69186770Y-92006255D01*
X69194419Y-92001559D01*
X69204713Y-91990187D01*
X69278833Y-91908300D01*
X69278834Y-91908299D01*
X69284861Y-91901640D01*
X69329707Y-91809078D01*
X69339709Y-91788433D01*
X69339709Y-91788432D01*
X69343624Y-91780352D01*
X69365984Y-91647448D01*
X69366126Y-91635834D01*
X69356665Y-91569769D01*
X69348293Y-91511308D01*
X69348292Y-91511305D01*
X69347020Y-91502422D01*
X69291238Y-91379736D01*
X69252862Y-91335199D01*
X69223548Y-91270537D01*
X69233847Y-91200291D01*
X69280488Y-91146765D01*
X69315174Y-91131388D01*
X69389605Y-91111096D01*
X69398269Y-91108734D01*
X69405919Y-91104037D01*
X69405921Y-91104036D01*
X69505469Y-91042914D01*
X69505472Y-91042911D01*
X69513121Y-91038215D01*
X69523415Y-91026843D01*
X69597535Y-90944956D01*
X69597536Y-90944955D01*
X69603563Y-90938296D01*
X69611738Y-90921424D01*
X69658411Y-90825089D01*
X69658411Y-90825088D01*
X69662326Y-90817008D01*
X69684686Y-90684104D01*
X69684828Y-90672490D01*
X69677132Y-90618749D01*
X69666995Y-90547964D01*
X69666994Y-90547961D01*
X69665722Y-90539078D01*
X69659500Y-90525392D01*
X69613656Y-90424566D01*
X69609940Y-90416392D01*
X69521965Y-90314293D01*
X69408872Y-90240989D01*
X69400275Y-90238418D01*
X69400273Y-90238417D01*
X69322630Y-90215197D01*
X69279749Y-90202373D01*
X69270773Y-90202318D01*
X69270772Y-90202318D01*
X69213337Y-90201967D01*
X69144979Y-90201550D01*
X69136348Y-90204017D01*
X69136346Y-90204017D01*
X69024026Y-90236118D01*
X69024024Y-90236119D01*
X69015395Y-90238585D01*
X68901414Y-90310502D01*
X68895471Y-90317231D01*
X68895470Y-90317232D01*
X68835336Y-90385321D01*
X68812199Y-90411519D01*
X68808385Y-90419642D01*
X68808384Y-90419644D01*
X68780950Y-90478077D01*
X68754922Y-90533515D01*
X68753542Y-90542380D01*
X68753541Y-90542382D01*
X68736600Y-90651187D01*
X68734187Y-90666683D01*
X68735351Y-90675585D01*
X68735351Y-90675588D01*
X68747138Y-90765725D01*
X68751662Y-90800318D01*
X68805941Y-90923677D01*
X68848284Y-90974049D01*
X68876806Y-91039064D01*
X68865651Y-91109179D01*
X68818359Y-91162132D01*
X68786459Y-91176274D01*
X68696693Y-91201929D01*
X68582712Y-91273846D01*
X68576769Y-91280575D01*
X68576768Y-91280576D01*
X68528527Y-91335199D01*
X68493497Y-91374863D01*
X68489683Y-91382986D01*
X68489682Y-91382988D01*
X68447742Y-91472318D01*
X68436220Y-91496859D01*
X68434839Y-91505726D01*
X68433388Y-91510473D01*
X68394343Y-91569769D01*
X68329438Y-91598542D01*
X68259281Y-91587658D01*
X68244369Y-91579369D01*
X68138872Y-91510989D01*
X68130275Y-91508418D01*
X68130273Y-91508417D01*
X68052630Y-91485197D01*
X68009749Y-91472373D01*
X68000773Y-91472318D01*
X68000772Y-91472318D01*
X67943337Y-91471967D01*
X67874979Y-91471550D01*
X67866348Y-91474017D01*
X67866346Y-91474017D01*
X67754026Y-91506118D01*
X67754024Y-91506119D01*
X67745395Y-91508585D01*
X67737807Y-91513373D01*
X67657272Y-91564187D01*
X67631414Y-91580502D01*
X67625471Y-91587231D01*
X67625470Y-91587232D01*
X67572289Y-91647448D01*
X67542199Y-91681519D01*
X67538385Y-91689642D01*
X67538384Y-91689644D01*
X67523844Y-91720614D01*
X67484922Y-91803515D01*
X67483542Y-91812380D01*
X67483541Y-91812382D01*
X67471920Y-91887021D01*
X67464187Y-91936683D01*
X56289490Y-91936683D01*
X56289490Y-91840979D01*
X56288283Y-91828724D01*
X56280307Y-91788626D01*
X56270991Y-91766135D01*
X56240575Y-91720614D01*
X56223366Y-91703405D01*
X56177845Y-91672989D01*
X56155354Y-91663673D01*
X56115256Y-91655697D01*
X56103001Y-91654490D01*
X55511605Y-91654490D01*
X55496366Y-91658965D01*
X55495161Y-91660355D01*
X55493490Y-91668038D01*
X55493490Y-92432375D01*
X54985490Y-92432375D01*
X54985490Y-91672605D01*
X54981015Y-91657366D01*
X54979625Y-91656161D01*
X54971942Y-91654490D01*
X54375979Y-91654490D01*
X54363724Y-91655697D01*
X54323626Y-91663673D01*
X54301135Y-91672989D01*
X54255614Y-91703405D01*
X54238405Y-91720614D01*
X54207989Y-91766135D01*
X54198673Y-91788626D01*
X54190697Y-91828724D01*
X54189490Y-91840979D01*
X54189490Y-92432375D01*
X53714716Y-92432375D01*
X53675425Y-92302239D01*
X53578708Y-92120339D01*
X53496095Y-92019046D01*
X53452396Y-91965465D01*
X53452393Y-91965462D01*
X53448501Y-91960690D01*
X53380175Y-91904165D01*
X53340436Y-91845332D01*
X53334490Y-91807081D01*
X53334490Y-91307193D01*
X59781197Y-91307193D01*
X59782361Y-91316095D01*
X59782361Y-91316098D01*
X59790046Y-91374863D01*
X59798672Y-91440828D01*
X59852951Y-91564187D01*
X59858728Y-91571060D01*
X59858729Y-91571061D01*
X59933790Y-91660355D01*
X59939672Y-91667353D01*
X60051862Y-91742033D01*
X60180502Y-91782223D01*
X60189472Y-91782387D01*
X60189476Y-91782388D01*
X60251242Y-91783520D01*
X60315252Y-91784693D01*
X60331175Y-91780352D01*
X60436617Y-91751606D01*
X60436620Y-91751605D01*
X60445279Y-91749244D01*
X60452929Y-91744547D01*
X60452931Y-91744546D01*
X60552479Y-91683424D01*
X60552482Y-91683421D01*
X60560131Y-91678725D01*
X60569805Y-91668038D01*
X60644545Y-91585466D01*
X60644546Y-91585465D01*
X60650573Y-91578806D01*
X60654952Y-91569769D01*
X60705421Y-91465599D01*
X60705421Y-91465598D01*
X60709336Y-91457518D01*
X60731696Y-91324614D01*
X60731838Y-91313000D01*
X60716276Y-91204333D01*
X60714005Y-91188474D01*
X60714004Y-91188471D01*
X60712732Y-91179588D01*
X60706510Y-91165902D01*
X60690817Y-91131388D01*
X60656950Y-91056902D01*
X60568975Y-90954803D01*
X60455882Y-90881499D01*
X60447285Y-90878928D01*
X60447283Y-90878927D01*
X60369640Y-90855707D01*
X60326759Y-90842883D01*
X60317783Y-90842828D01*
X60317782Y-90842828D01*
X60260347Y-90842477D01*
X60191989Y-90842060D01*
X60183358Y-90844527D01*
X60183356Y-90844527D01*
X60071036Y-90876628D01*
X60071034Y-90876629D01*
X60062405Y-90879095D01*
X60020789Y-90905353D01*
X59968578Y-90938296D01*
X59948424Y-90951012D01*
X59942481Y-90957741D01*
X59942480Y-90957742D01*
X59920574Y-90982546D01*
X59859209Y-91052029D01*
X59801932Y-91174025D01*
X59800552Y-91182890D01*
X59800551Y-91182892D01*
X59786905Y-91270537D01*
X59781197Y-91307193D01*
X53334490Y-91307193D01*
X53334490Y-90545193D01*
X62417687Y-90545193D01*
X62418851Y-90554095D01*
X62418851Y-90554098D01*
X62432446Y-90658061D01*
X62435162Y-90678828D01*
X62489441Y-90802187D01*
X62495218Y-90809060D01*
X62495219Y-90809061D01*
X62554090Y-90879095D01*
X62576162Y-90905353D01*
X62688352Y-90980033D01*
X62816992Y-91020223D01*
X62825962Y-91020387D01*
X62825966Y-91020388D01*
X62887732Y-91021520D01*
X62951742Y-91022693D01*
X62960802Y-91020223D01*
X63073107Y-90989606D01*
X63073110Y-90989605D01*
X63081769Y-90987244D01*
X63089419Y-90982547D01*
X63089421Y-90982546D01*
X63188969Y-90921424D01*
X63188972Y-90921421D01*
X63196621Y-90916725D01*
X63206915Y-90905353D01*
X63281035Y-90823466D01*
X63281036Y-90823465D01*
X63287063Y-90816806D01*
X63291072Y-90808533D01*
X63341911Y-90703599D01*
X63341911Y-90703598D01*
X63345826Y-90695518D01*
X63368186Y-90562614D01*
X63368328Y-90551000D01*
X63349222Y-90417588D01*
X63343000Y-90403902D01*
X63305349Y-90321095D01*
X63293440Y-90294902D01*
X63205465Y-90192803D01*
X63092372Y-90119499D01*
X63083775Y-90116928D01*
X63083773Y-90116927D01*
X63006130Y-90093707D01*
X62963249Y-90080883D01*
X62954273Y-90080828D01*
X62954272Y-90080828D01*
X62896837Y-90080477D01*
X62828479Y-90080060D01*
X62819848Y-90082527D01*
X62819846Y-90082527D01*
X62707526Y-90114628D01*
X62707524Y-90114629D01*
X62698895Y-90117095D01*
X62584914Y-90189012D01*
X62578971Y-90195741D01*
X62578970Y-90195742D01*
X62536904Y-90243373D01*
X62495699Y-90290029D01*
X62491885Y-90298152D01*
X62491884Y-90298154D01*
X62464450Y-90356587D01*
X62438422Y-90412025D01*
X62437042Y-90420890D01*
X62437041Y-90420892D01*
X62419112Y-90536043D01*
X62417687Y-90545193D01*
X53334490Y-90545193D01*
X53334490Y-89797294D01*
X53344196Y-89764238D01*
X54194500Y-89764238D01*
X54206133Y-89822721D01*
X54250448Y-89889042D01*
X54316769Y-89933357D01*
X54328938Y-89935778D01*
X54328939Y-89935778D01*
X54350437Y-89940054D01*
X54375252Y-89944990D01*
X56114748Y-89944990D01*
X56139563Y-89940054D01*
X56161061Y-89935778D01*
X56161062Y-89935778D01*
X56173231Y-89933357D01*
X56239552Y-89889042D01*
X56283867Y-89822721D01*
X56295500Y-89764238D01*
X56295500Y-89402193D01*
X57436697Y-89402193D01*
X57437861Y-89411095D01*
X57437861Y-89411098D01*
X57449874Y-89502962D01*
X57454172Y-89535828D01*
X57508451Y-89659187D01*
X57514228Y-89666060D01*
X57514229Y-89666061D01*
X57587052Y-89752693D01*
X57595172Y-89762353D01*
X57707362Y-89837033D01*
X57836002Y-89877223D01*
X57844972Y-89877387D01*
X57844976Y-89877388D01*
X57906742Y-89878520D01*
X57970752Y-89879693D01*
X57979812Y-89877223D01*
X58092117Y-89846606D01*
X58092120Y-89846605D01*
X58100779Y-89844244D01*
X58108429Y-89839547D01*
X58108431Y-89839546D01*
X58207979Y-89778424D01*
X58207982Y-89778421D01*
X58215631Y-89773725D01*
X58224219Y-89764238D01*
X58300045Y-89680466D01*
X58300046Y-89680465D01*
X58306073Y-89673806D01*
X58311451Y-89662707D01*
X58360921Y-89560599D01*
X58360921Y-89560598D01*
X58364836Y-89552518D01*
X58387196Y-89419614D01*
X58387338Y-89408000D01*
X58386506Y-89402193D01*
X59976697Y-89402193D01*
X59977861Y-89411095D01*
X59977861Y-89411098D01*
X59989874Y-89502962D01*
X59994172Y-89535828D01*
X60048451Y-89659187D01*
X60054228Y-89666060D01*
X60054229Y-89666061D01*
X60127052Y-89752693D01*
X60135172Y-89762353D01*
X60247362Y-89837033D01*
X60376002Y-89877223D01*
X60384972Y-89877387D01*
X60384976Y-89877388D01*
X60446742Y-89878520D01*
X60510752Y-89879693D01*
X60519812Y-89877223D01*
X60632117Y-89846606D01*
X60632120Y-89846605D01*
X60640779Y-89844244D01*
X60648429Y-89839547D01*
X60648431Y-89839546D01*
X60747979Y-89778424D01*
X60747982Y-89778421D01*
X60755631Y-89773725D01*
X60764219Y-89764238D01*
X60840045Y-89680466D01*
X60840046Y-89680465D01*
X60846073Y-89673806D01*
X60851451Y-89662707D01*
X60900921Y-89560599D01*
X60900921Y-89560598D01*
X60904836Y-89552518D01*
X60927196Y-89419614D01*
X60927338Y-89408000D01*
X60918087Y-89343400D01*
X60909505Y-89283474D01*
X60909504Y-89283471D01*
X60908319Y-89275193D01*
X62389686Y-89275193D01*
X62390850Y-89284095D01*
X62390850Y-89284098D01*
X62398173Y-89340096D01*
X62407161Y-89408828D01*
X62461440Y-89532187D01*
X62467217Y-89539060D01*
X62467218Y-89539061D01*
X62540389Y-89626107D01*
X62548161Y-89635353D01*
X62660351Y-89710033D01*
X62753453Y-89739120D01*
X62775391Y-89745974D01*
X62788991Y-89750223D01*
X62797961Y-89750387D01*
X62797965Y-89750388D01*
X62859731Y-89751520D01*
X62923741Y-89752693D01*
X62932801Y-89750223D01*
X63045106Y-89719606D01*
X63045109Y-89719605D01*
X63053768Y-89717244D01*
X63061418Y-89712547D01*
X63061420Y-89712546D01*
X63160968Y-89651424D01*
X63160971Y-89651421D01*
X63168620Y-89646725D01*
X63178914Y-89635353D01*
X63253034Y-89553466D01*
X63253035Y-89553465D01*
X63259062Y-89546806D01*
X63268693Y-89526929D01*
X63313910Y-89433599D01*
X63313910Y-89433598D01*
X63317825Y-89425518D01*
X63340185Y-89292614D01*
X63340327Y-89281000D01*
X63329559Y-89205809D01*
X63322494Y-89156474D01*
X63322493Y-89156471D01*
X63321221Y-89147588D01*
X63314999Y-89133902D01*
X63278097Y-89052742D01*
X63265439Y-89024902D01*
X63177464Y-88922803D01*
X63064371Y-88849499D01*
X63055774Y-88846928D01*
X63055772Y-88846927D01*
X62963693Y-88819390D01*
X62935248Y-88810883D01*
X62926272Y-88810828D01*
X62926271Y-88810828D01*
X62868836Y-88810477D01*
X62800478Y-88810060D01*
X62791847Y-88812527D01*
X62791845Y-88812527D01*
X62679525Y-88844628D01*
X62679523Y-88844629D01*
X62670894Y-88847095D01*
X62556913Y-88919012D01*
X62550970Y-88925741D01*
X62550969Y-88925742D01*
X62490318Y-88994417D01*
X62467698Y-89020029D01*
X62463884Y-89028152D01*
X62463883Y-89028154D01*
X62437174Y-89085043D01*
X62410421Y-89142025D01*
X62409041Y-89150890D01*
X62409040Y-89150892D01*
X62398177Y-89220662D01*
X62389686Y-89275193D01*
X60908319Y-89275193D01*
X60908232Y-89274588D01*
X60902010Y-89260902D01*
X60856166Y-89160076D01*
X60852450Y-89151902D01*
X60816713Y-89110427D01*
X60770336Y-89056605D01*
X60764475Y-89049803D01*
X60651382Y-88976499D01*
X60642785Y-88973928D01*
X60642783Y-88973927D01*
X60565140Y-88950707D01*
X60522259Y-88937883D01*
X60513283Y-88937828D01*
X60513282Y-88937828D01*
X60455847Y-88937477D01*
X60387489Y-88937060D01*
X60378858Y-88939527D01*
X60378856Y-88939527D01*
X60266536Y-88971628D01*
X60266534Y-88971629D01*
X60257905Y-88974095D01*
X60250317Y-88978883D01*
X60154082Y-89039603D01*
X60143924Y-89046012D01*
X60137981Y-89052741D01*
X60137980Y-89052742D01*
X60109453Y-89085043D01*
X60054709Y-89147029D01*
X60050895Y-89155152D01*
X60050894Y-89155154D01*
X60048583Y-89160076D01*
X59997432Y-89269025D01*
X59996052Y-89277890D01*
X59996051Y-89277892D01*
X59986366Y-89340096D01*
X59976697Y-89402193D01*
X58386506Y-89402193D01*
X58378087Y-89343400D01*
X58369505Y-89283474D01*
X58369504Y-89283471D01*
X58368232Y-89274588D01*
X58362010Y-89260902D01*
X58316166Y-89160076D01*
X58312450Y-89151902D01*
X58276713Y-89110427D01*
X58230336Y-89056605D01*
X58224475Y-89049803D01*
X58111382Y-88976499D01*
X58102785Y-88973928D01*
X58102783Y-88973927D01*
X58025140Y-88950707D01*
X57982259Y-88937883D01*
X57973283Y-88937828D01*
X57973282Y-88937828D01*
X57915847Y-88937477D01*
X57847489Y-88937060D01*
X57838858Y-88939527D01*
X57838856Y-88939527D01*
X57726536Y-88971628D01*
X57726534Y-88971629D01*
X57717905Y-88974095D01*
X57710317Y-88978883D01*
X57614082Y-89039603D01*
X57603924Y-89046012D01*
X57597981Y-89052741D01*
X57597980Y-89052742D01*
X57569453Y-89085043D01*
X57514709Y-89147029D01*
X57510895Y-89155152D01*
X57510894Y-89155154D01*
X57508583Y-89160076D01*
X57457432Y-89269025D01*
X57456052Y-89277890D01*
X57456051Y-89277892D01*
X57446366Y-89340096D01*
X57436697Y-89402193D01*
X56295500Y-89402193D01*
X56295500Y-88024742D01*
X56291809Y-88006184D01*
X56291612Y-88005193D01*
X62389697Y-88005193D01*
X62390861Y-88014095D01*
X62390861Y-88014098D01*
X62406008Y-88129929D01*
X62407172Y-88138828D01*
X62461451Y-88262187D01*
X62467228Y-88269060D01*
X62467229Y-88269061D01*
X62534068Y-88348574D01*
X62548172Y-88365353D01*
X62660362Y-88440033D01*
X62789002Y-88480223D01*
X62797972Y-88480387D01*
X62797976Y-88480388D01*
X62859742Y-88481520D01*
X62923752Y-88482693D01*
X62932812Y-88480223D01*
X63045117Y-88449606D01*
X63045120Y-88449605D01*
X63053779Y-88447244D01*
X63061429Y-88442547D01*
X63061431Y-88442546D01*
X63134993Y-88397379D01*
X68887186Y-88397379D01*
X68888350Y-88406281D01*
X68888350Y-88406284D01*
X68903497Y-88522115D01*
X68904661Y-88531014D01*
X68958940Y-88654373D01*
X68964717Y-88661246D01*
X68964718Y-88661247D01*
X69017919Y-88724536D01*
X69045661Y-88757539D01*
X69157851Y-88832219D01*
X69166416Y-88834895D01*
X69168871Y-88836066D01*
X69221745Y-88883447D01*
X69240608Y-88951891D01*
X69219474Y-89019669D01*
X69181861Y-89056353D01*
X69102022Y-89106727D01*
X69102018Y-89106730D01*
X69094427Y-89111520D01*
X69088484Y-89118249D01*
X69088483Y-89118250D01*
X69062573Y-89147588D01*
X69005212Y-89212537D01*
X68947935Y-89334533D01*
X68946555Y-89343398D01*
X68946554Y-89343400D01*
X68932510Y-89433599D01*
X68927200Y-89467701D01*
X68928364Y-89476603D01*
X68928364Y-89476606D01*
X68937183Y-89544043D01*
X68944675Y-89601336D01*
X68998954Y-89724695D01*
X69004731Y-89731568D01*
X69004732Y-89731569D01*
X69034573Y-89767068D01*
X69085675Y-89827861D01*
X69197865Y-89902541D01*
X69326505Y-89942731D01*
X69335475Y-89942895D01*
X69335479Y-89942896D01*
X69397245Y-89944028D01*
X69461255Y-89945201D01*
X69470315Y-89942731D01*
X69582620Y-89912114D01*
X69582623Y-89912113D01*
X69591282Y-89909752D01*
X69598932Y-89905055D01*
X69598934Y-89905054D01*
X69698482Y-89843932D01*
X69698485Y-89843929D01*
X69706134Y-89839233D01*
X69712629Y-89832058D01*
X69790548Y-89745974D01*
X69790549Y-89745973D01*
X69796576Y-89739314D01*
X69801490Y-89729173D01*
X69851424Y-89626107D01*
X69851424Y-89626106D01*
X69855339Y-89618026D01*
X69877699Y-89485122D01*
X69877841Y-89473508D01*
X69867304Y-89399929D01*
X69860008Y-89348982D01*
X69860007Y-89348979D01*
X69858735Y-89340096D01*
X69852513Y-89326410D01*
X69833274Y-89284098D01*
X69802953Y-89217410D01*
X69714978Y-89115311D01*
X69601885Y-89042007D01*
X69595937Y-89040228D01*
X69543537Y-88994417D01*
X69523836Y-88926209D01*
X69544139Y-88858177D01*
X69583906Y-88819390D01*
X69666120Y-88768911D01*
X69676414Y-88757539D01*
X69750534Y-88675652D01*
X69750535Y-88675651D01*
X69756562Y-88668992D01*
X69767627Y-88646155D01*
X69811410Y-88555785D01*
X69811410Y-88555784D01*
X69815325Y-88547704D01*
X69837685Y-88414800D01*
X69837827Y-88403186D01*
X69825310Y-88315780D01*
X69819994Y-88278660D01*
X69819993Y-88278657D01*
X69818721Y-88269774D01*
X69812499Y-88256088D01*
X69800019Y-88228641D01*
X69762939Y-88147088D01*
X69674964Y-88044989D01*
X69561871Y-87971685D01*
X69553274Y-87969114D01*
X69553272Y-87969113D01*
X69475629Y-87945893D01*
X69432748Y-87933069D01*
X69423772Y-87933014D01*
X69423771Y-87933014D01*
X69366336Y-87932663D01*
X69297978Y-87932246D01*
X69289347Y-87934713D01*
X69289345Y-87934713D01*
X69177025Y-87966814D01*
X69177023Y-87966815D01*
X69168394Y-87969281D01*
X69054413Y-88041198D01*
X69048470Y-88047927D01*
X69048469Y-88047928D01*
X69011659Y-88089608D01*
X68965198Y-88142215D01*
X68907921Y-88264211D01*
X68906541Y-88273076D01*
X68906540Y-88273078D01*
X68892173Y-88365353D01*
X68887186Y-88397379D01*
X63134993Y-88397379D01*
X63160979Y-88381424D01*
X63160982Y-88381421D01*
X63168631Y-88376725D01*
X63178925Y-88365353D01*
X63253045Y-88283466D01*
X63253046Y-88283465D01*
X63259073Y-88276806D01*
X63265176Y-88264211D01*
X63313921Y-88163599D01*
X63313921Y-88163598D01*
X63317836Y-88155518D01*
X63340196Y-88022614D01*
X63340338Y-88011000D01*
X63329413Y-87934713D01*
X63322505Y-87886474D01*
X63322504Y-87886471D01*
X63321232Y-87877588D01*
X63315010Y-87863902D01*
X63276072Y-87778264D01*
X63265450Y-87754902D01*
X63177475Y-87652803D01*
X63064382Y-87579499D01*
X63055785Y-87576928D01*
X63055783Y-87576927D01*
X62978140Y-87553707D01*
X62935259Y-87540883D01*
X62926283Y-87540828D01*
X62926282Y-87540828D01*
X62868847Y-87540477D01*
X62800489Y-87540060D01*
X62791858Y-87542527D01*
X62791856Y-87542527D01*
X62679536Y-87574628D01*
X62679534Y-87574629D01*
X62670905Y-87577095D01*
X62556924Y-87649012D01*
X62550981Y-87655741D01*
X62550980Y-87655742D01*
X62536353Y-87672304D01*
X62467709Y-87750029D01*
X62463895Y-87758152D01*
X62463894Y-87758154D01*
X62452472Y-87782483D01*
X62410432Y-87872025D01*
X62409052Y-87880890D01*
X62409051Y-87880892D01*
X62391670Y-87992523D01*
X62389697Y-88005193D01*
X56291612Y-88005193D01*
X56286288Y-87978429D01*
X56286288Y-87978428D01*
X56283867Y-87966259D01*
X56239552Y-87899938D01*
X56173231Y-87855623D01*
X56161062Y-87853202D01*
X56161061Y-87853202D01*
X56120816Y-87845197D01*
X56114748Y-87843990D01*
X54375252Y-87843990D01*
X54369184Y-87845197D01*
X54328939Y-87853202D01*
X54328938Y-87853202D01*
X54316769Y-87855623D01*
X54250448Y-87899938D01*
X54206133Y-87966259D01*
X54203712Y-87978428D01*
X54203712Y-87978429D01*
X54198191Y-88006184D01*
X54194500Y-88024742D01*
X54194500Y-89764238D01*
X53344196Y-89764238D01*
X53354492Y-89729173D01*
X53382915Y-89698006D01*
X53432951Y-89658914D01*
X53567564Y-89502962D01*
X53588387Y-89466308D01*
X53663245Y-89334533D01*
X53669323Y-89323834D01*
X53734351Y-89128353D01*
X53760171Y-88923964D01*
X53760583Y-88894490D01*
X53740480Y-88689460D01*
X53680935Y-88492239D01*
X53584218Y-88310339D01*
X53500905Y-88208188D01*
X53457906Y-88155465D01*
X53457903Y-88155462D01*
X53454011Y-88150690D01*
X53443767Y-88142215D01*
X53425221Y-88126873D01*
X53380174Y-88089607D01*
X53340437Y-88030774D01*
X53334490Y-87992523D01*
X53334490Y-86988490D01*
X53354492Y-86920369D01*
X53408148Y-86873876D01*
X53460490Y-86862490D01*
X73020490Y-86862490D01*
X73088611Y-86882492D01*
G37*
%TD.AperFunction*%
%TD*%
%TA.AperFunction,Conductor*%
%TO.N,+3V3*%
G36*
X44536191Y-110254907D02*
G01*
X44572155Y-110304407D01*
X44577000Y-110335000D01*
X44577000Y-112776000D01*
X41402000Y-112776000D01*
X41402000Y-110335000D01*
X41420907Y-110276809D01*
X41470407Y-110240845D01*
X41501000Y-110236000D01*
X44478000Y-110236000D01*
X44536191Y-110254907D01*
G37*
%TD.AperFunction*%
%TD*%
%TA.AperFunction,Conductor*%
%TO.N,+3V3*%
G36*
X44599901Y-121163247D02*
G01*
X44581150Y-121221488D01*
X44576091Y-121227914D01*
X43486537Y-122500000D01*
X41345262Y-125000000D01*
X40629573Y-125835587D01*
X40577359Y-125867483D01*
X40554541Y-125870186D01*
X21744551Y-125899930D01*
X21686331Y-125881115D01*
X21670405Y-125866706D01*
X20925006Y-125028132D01*
X20900478Y-124972078D01*
X20900000Y-124962360D01*
X20899984Y-121284320D01*
X20899978Y-119999084D01*
X20918885Y-119940895D01*
X20968385Y-119904931D01*
X20998976Y-119900085D01*
X23022442Y-119900044D01*
X25100998Y-119900002D01*
X25159189Y-119918908D01*
X25195154Y-119968407D01*
X25200000Y-119999002D01*
X25200000Y-121300000D01*
X26400000Y-122500000D01*
X39200000Y-122500000D01*
X41398768Y-119865763D01*
X41402000Y-112649000D01*
X44577000Y-112649000D01*
X44599901Y-121163247D01*
G37*
%TD.AperFunction*%
%TD*%
M02*
