%TF.GenerationSoftware,KiCad,Pcbnew,(5.1.10)-1*%
%TF.CreationDate,2022-02-24T08:52:08+01:00*%
%TF.ProjectId,GestureControl,47657374-7572-4654-936f-6e74726f6c2e,V0.1*%
%TF.SameCoordinates,Original*%
%TF.FileFunction,Copper,L3,Inr*%
%TF.FilePolarity,Positive*%
%FSLAX46Y46*%
G04 Gerber Fmt 4.6, Leading zero omitted, Abs format (unit mm)*
G04 Created by KiCad (PCBNEW (5.1.10)-1) date 2022-02-24 08:52:08*
%MOMM*%
%LPD*%
G01*
G04 APERTURE LIST*
%TA.AperFunction,ComponentPad*%
%ADD10O,1.700000X1.700000*%
%TD*%
%TA.AperFunction,ComponentPad*%
%ADD11R,1.700000X1.700000*%
%TD*%
%TA.AperFunction,ComponentPad*%
%ADD12O,1.800000X3.600000*%
%TD*%
%TA.AperFunction,ViaPad*%
%ADD13C,0.800000*%
%TD*%
%TA.AperFunction,Conductor*%
%ADD14C,0.500000*%
%TD*%
%TA.AperFunction,Conductor*%
%ADD15C,0.250000*%
%TD*%
G04 APERTURE END LIST*
D10*
%TO.N,/STM32L151RET6TR/FTDI_RTS*%
%TO.C,J7*%
X115316000Y-98806000D03*
%TO.N,/STM32L151RET6TR/FTDI_RXD*%
X112776000Y-98806000D03*
%TO.N,/STM32L151RET6TR/FTDI_TXD*%
X110236000Y-98806000D03*
%TO.N,+5V*%
X107696000Y-98806000D03*
%TO.N,/STM32L151RET6TR/FTDI_CTS*%
X105156000Y-98806000D03*
D11*
%TO.N,GND*%
X102616000Y-98806000D03*
%TD*%
D10*
%TO.N,SCL1*%
%TO.C,J1*%
X166116000Y-75438000D03*
%TO.N,SDA1*%
X166116000Y-72898000D03*
%TO.N,+5V*%
X166116000Y-70358000D03*
D11*
%TO.N,GND*%
X166116000Y-67818000D03*
%TD*%
D10*
%TO.N,/STM32L151RET6TR/SW0*%
%TO.C,J8*%
X190246000Y-98806000D03*
%TO.N,/STM32L151RET6TR/SWCLK*%
X187706000Y-98806000D03*
%TO.N,/STM32L151RET6TR/SWDAT*%
X185166000Y-98806000D03*
%TO.N,+3V3*%
X182626000Y-98806000D03*
D11*
%TO.N,GND*%
X180086000Y-98806000D03*
%TD*%
D10*
%TO.N,/STM32L151RET6TR/UART_RX*%
%TO.C,J9*%
X166116000Y-87122000D03*
%TO.N,/STM32L151RET6TR/UART_TX*%
X166116000Y-84582000D03*
%TO.N,+3V3*%
X166116000Y-82042000D03*
D11*
%TO.N,GND*%
X166116000Y-79502000D03*
%TD*%
D10*
%TO.N,SCL2*%
%TO.C,J10*%
X171958000Y-42672000D03*
%TO.N,SDA2*%
X169418000Y-42672000D03*
%TO.N,+3V3*%
X166878000Y-42672000D03*
D11*
%TO.N,GND*%
X164338000Y-42672000D03*
%TD*%
D12*
%TO.N,Net-(D6-Pad2)*%
%TO.C,J2*%
X123246000Y-49530000D03*
%TO.N,GND*%
%TA.AperFunction,ComponentPad*%
G36*
G01*
X127646000Y-47980000D02*
X127646000Y-51080000D01*
G75*
G02*
X127396000Y-51330000I-250000J0D01*
G01*
X126096000Y-51330000D01*
G75*
G02*
X125846000Y-51080000I0J250000D01*
G01*
X125846000Y-47980000D01*
G75*
G02*
X126096000Y-47730000I250000J0D01*
G01*
X127396000Y-47730000D01*
G75*
G02*
X127646000Y-47980000I0J-250000D01*
G01*
G37*
%TD.AperFunction*%
%TD*%
D10*
%TO.N,XSHUT_1*%
%TO.C,J6*%
X170180000Y-72898000D03*
%TO.N,LED_2*%
X170180000Y-75438000D03*
%TO.N,LED_3*%
X170180000Y-77978000D03*
%TO.N,XSHUT_2*%
X170180000Y-80518000D03*
%TO.N,LED_4*%
X170180000Y-83058000D03*
%TO.N,LED_5*%
X170180000Y-85598000D03*
%TO.N,N/C*%
X170180000Y-88138000D03*
D11*
X170180000Y-90678000D03*
%TD*%
D10*
%TO.N,SCL1*%
%TO.C,J5*%
X170180000Y-45974000D03*
%TO.N,SDA1*%
X170180000Y-48514000D03*
%TO.N,+3V3*%
X170180000Y-51054000D03*
%TO.N,GND*%
X170180000Y-53594000D03*
%TO.N,N/C*%
X170180000Y-56134000D03*
X170180000Y-58674000D03*
X170180000Y-61214000D03*
X170180000Y-63754000D03*
%TO.N,LED_1*%
X170180000Y-66294000D03*
D11*
%TO.N,XSHUT_0*%
X170180000Y-68834000D03*
%TD*%
D10*
%TO.N,N/C*%
%TO.C,J4*%
X121920000Y-90678000D03*
X121920000Y-88138000D03*
X121920000Y-85598000D03*
%TO.N,GPIOI_2*%
X121920000Y-83058000D03*
%TO.N,GPIOI_1*%
X121920000Y-80518000D03*
D11*
%TO.N,GPIOI_0*%
X121920000Y-77978000D03*
%TD*%
D10*
%TO.N,N/C*%
%TO.C,J3*%
X121920000Y-72898000D03*
%TO.N,GND*%
X121920000Y-70358000D03*
X121920000Y-67818000D03*
%TO.N,+5V*%
X121920000Y-65278000D03*
%TO.N,+3V3*%
X121920000Y-62738000D03*
%TO.N,N/C*%
X121920000Y-60198000D03*
X121920000Y-57658000D03*
D11*
X121920000Y-55118000D03*
%TD*%
D13*
%TO.N,GND*%
X179832000Y-122428000D03*
X150114000Y-122428000D03*
X113284000Y-122428000D03*
%TO.N,+3V3*%
X108966000Y-108204000D03*
%TO.N,GND*%
X109474000Y-122428000D03*
X157734000Y-71982500D03*
X145542000Y-93472000D03*
X142494000Y-95250000D03*
X140716000Y-52578000D03*
X144272000Y-115570000D03*
X126492000Y-73660000D03*
X148336000Y-53848000D03*
X127000000Y-70612000D03*
X181864000Y-122428000D03*
X132842000Y-95250000D03*
X148336000Y-97790000D03*
X145542000Y-95250000D03*
X155956000Y-75692000D03*
X150114000Y-63754000D03*
X156972000Y-59944000D03*
X133096000Y-52578000D03*
X148082000Y-122428000D03*
X142494000Y-93472000D03*
X164846000Y-54102000D03*
X140716000Y-53848000D03*
X142494000Y-72898000D03*
X146304000Y-122428000D03*
X134620000Y-76607500D03*
X148833250Y-84571250D03*
X158242000Y-95250000D03*
X126492000Y-66040000D03*
X165100000Y-59944000D03*
X148336000Y-52578000D03*
X111252000Y-122428000D03*
X133096000Y-53848000D03*
X179832000Y-115570000D03*
X107442000Y-115570000D03*
X148336000Y-89408000D03*
X183642000Y-122428000D03*
X166878000Y-91694000D03*
X163830000Y-91694000D03*
X155448000Y-65278000D03*
X152908000Y-62484000D03*
X157480000Y-57912000D03*
X154686000Y-58928000D03*
X145077000Y-62949000D03*
%TO.N,VCC*%
X140716000Y-58680000D03*
X133096000Y-58674000D03*
X131572000Y-60452000D03*
X127254000Y-44450000D03*
%TO.N,+3V3*%
X148082000Y-108204000D03*
X148145500Y-120777000D03*
X183642000Y-120803500D03*
X144526000Y-71090000D03*
X111252000Y-120803500D03*
X129286000Y-70612000D03*
X156972000Y-91186000D03*
X165100000Y-51562000D03*
X131572000Y-91186000D03*
X129286000Y-76962000D03*
X131572000Y-99314000D03*
X156972000Y-99314000D03*
X181864000Y-120803500D03*
X132842000Y-91186000D03*
X165354000Y-45974000D03*
X181864000Y-120803500D03*
X156972000Y-51562000D03*
X155879250Y-77393250D03*
X132080000Y-73660000D03*
X143002000Y-63500000D03*
X157734000Y-70257500D03*
X165354000Y-48514000D03*
X183642000Y-108204000D03*
X134620000Y-78332500D03*
X181356000Y-108204000D03*
X146304000Y-120803500D03*
X156972000Y-54356000D03*
X109474000Y-120830000D03*
X150919000Y-84539000D03*
X158242000Y-91186000D03*
X145796000Y-108204000D03*
X148389000Y-63754000D03*
X111252000Y-108204000D03*
X113284000Y-120353000D03*
X150114000Y-120353000D03*
X179832000Y-120353000D03*
%TO.N,XSHUT_1*%
X170688000Y-95250000D03*
%TO.N,GPIOI_1*%
X140208000Y-107188000D03*
X141478000Y-81280000D03*
X147320000Y-65278000D03*
X147066000Y-111760000D03*
%TO.N,XSHUT_2*%
X171450000Y-84328000D03*
%TO.N,GPIOI_2*%
X164084000Y-99314000D03*
X139446000Y-81280000D03*
X173506238Y-99797762D03*
X146304000Y-65024000D03*
X140970000Y-87376000D03*
X135132653Y-82554653D03*
%TO.N,XSHUT_0*%
X168910000Y-95758000D03*
%TO.N,GPIOI_0*%
X113030000Y-110236000D03*
X113538000Y-106934000D03*
%TO.N,LED_3*%
X147574000Y-66294000D03*
X159258000Y-68580000D03*
X155194000Y-67019000D03*
%TO.N,LED_4*%
X142489347Y-75950653D03*
X155702000Y-84836000D03*
X155702000Y-87223020D03*
%TO.N,LED_5*%
X144272000Y-66802000D03*
X156718000Y-87376000D03*
X156972000Y-84836000D03*
%TO.N,LED_1*%
X150114000Y-71628000D03*
X152654000Y-67818000D03*
%TO.N,LED_2*%
X150132285Y-70584410D03*
X156718000Y-67855000D03*
X154178000Y-67564000D03*
X145049316Y-75605327D03*
%TO.N,SW_1*%
X160020000Y-93218000D03*
%TO.N,SW_2*%
X134620000Y-93218000D03*
%TO.N,Net-(D1-Pad2)*%
X125730000Y-94742000D03*
%TO.N,Net-(D2-Pad2)*%
X125730000Y-92456000D03*
%TO.N,Net-(D3-Pad2)*%
X125730000Y-90170000D03*
%TO.N,Net-(D4-Pad2)*%
X125730000Y-87884000D03*
%TO.N,Net-(D5-Pad2)*%
X125730000Y-85598000D03*
%TO.N,+5V*%
X124460000Y-63246000D03*
X148336000Y-59182000D03*
X148336000Y-57912000D03*
X153670000Y-60198000D03*
X131572000Y-70612000D03*
X150368000Y-59182000D03*
X126746000Y-54864000D03*
%TO.N,Net-(D6-Pad2)*%
X122976000Y-44450000D03*
%TO.N,Net-(C6-Pad1)*%
X126746000Y-58749998D03*
X129286000Y-66548000D03*
X132086000Y-66040000D03*
X129286000Y-60452000D03*
%TO.N,/STM32L151RET6TR/MCO*%
X150114000Y-97976000D03*
%TO.N,/STM32L151RET6TR/OSM_OUT*%
X150148000Y-89442000D03*
%TO.N,/STM32L151RET6TR/OS32_OUT*%
X145618000Y-89706000D03*
%TO.N,/STM32L151RET6TR/BOOT*%
X156972000Y-56134000D03*
X165100000Y-56134000D03*
X151384000Y-64516000D03*
X145542000Y-77978000D03*
%TO.N,/STM32L151RET6TR/RST*%
X159004000Y-63092500D03*
X153670000Y-74930000D03*
%TO.N,/STM32L151RET6TR/OS32_IN*%
X142418000Y-89706000D03*
%TO.N,SCL1*%
X112771347Y-116590653D03*
X150114000Y-116595306D03*
X185424653Y-116590653D03*
X148336000Y-77724000D03*
%TO.N,SDA1*%
X150114000Y-115570000D03*
X112776000Y-115570000D03*
X185420000Y-115570000D03*
X149352000Y-77216000D03*
%TO.N,/STM32L151RET6TR/FTDI_RTS*%
X125222000Y-79248000D03*
%TO.N,/STM32L151RET6TR/FTDI_RXD*%
X139193192Y-84075499D03*
X121915347Y-95245347D03*
X146304000Y-83820000D03*
%TO.N,/STM32L151RET6TR/FTDI_TXD*%
X123952000Y-92964000D03*
X146812000Y-81788000D03*
X139192000Y-83058000D03*
%TO.N,/STM32L151RET6TR/SW0*%
X145542000Y-85090000D03*
%TO.N,/STM32L151RET6TR/SWCLK*%
X144272000Y-85090000D03*
%TO.N,/STM32L151RET6TR/SWDAT*%
X130556000Y-81280000D03*
X132334000Y-79248000D03*
X136906000Y-81788000D03*
%TO.N,/STM32L151RET6TR/UART_RX*%
X160782000Y-72390000D03*
X161290000Y-74930000D03*
%TO.N,/STM32L151RET6TR/UART_TX*%
X154178000Y-70612000D03*
X160274000Y-74930000D03*
%TO.N,SCL2*%
X148082000Y-72390000D03*
%TO.N,SDA2*%
X144526000Y-73690000D03*
%TO.N,/STM32L151RET6TR/PIN41*%
X148082000Y-73690000D03*
%TO.N,/STM32L151RET6TR/PIN29*%
X148082000Y-71090000D03*
%TO.N,/STM32L151RET6TR/PIN30*%
X144526000Y-72390000D03*
%TO.N,/STM32L151RET6TR/PB12*%
X138176000Y-60198000D03*
%TO.N,/STM32L151RET6TR/PB13*%
X138182031Y-63754000D03*
%TO.N,/STM32L151RET6TR/PB14*%
X138182031Y-66294000D03*
%TO.N,/STM32L151RET6TR/PB15*%
X138182031Y-68834000D03*
%TO.N,/STM32L151RET6TR/PC6*%
X135636000Y-60198000D03*
%TO.N,/STM32L151RET6TR/PC7*%
X135636000Y-63754000D03*
%TO.N,/STM32L151RET6TR/PC8*%
X135636000Y-66294000D03*
%TO.N,/STM32L151RET6TR/PA9*%
X135636000Y-68834000D03*
%TO.N,/STM32L151RET6TR/PA10*%
X135382000Y-71374000D03*
%TD*%
D14*
%TO.N,VCC*%
X127254000Y-44450000D02*
X128778000Y-45974000D01*
X133096000Y-58674000D02*
X133096000Y-58928000D01*
X133096000Y-58928000D02*
X131572000Y-60452000D01*
X133096000Y-58674000D02*
X140710000Y-58674000D01*
X128778000Y-54356000D02*
X133096000Y-58674000D01*
X140710000Y-58674000D02*
X140716000Y-58680000D01*
X128778000Y-45974000D02*
X128778000Y-54356000D01*
%TO.N,+3V3*%
X134620000Y-80760002D02*
X139799999Y-85940001D01*
X131572000Y-103886000D02*
X135890000Y-108204000D01*
D15*
X157734000Y-91186000D02*
X158242000Y-91186000D01*
D14*
X155879250Y-77393250D02*
X161467250Y-77393250D01*
X146330500Y-120777000D02*
X146304000Y-120803500D01*
X145034000Y-64516000D02*
X144272000Y-64516000D01*
X144272000Y-64516000D02*
X144145000Y-64643000D01*
X143344001Y-72271999D02*
X144526000Y-71090000D01*
X146930001Y-69731999D02*
X157208499Y-69731999D01*
X156972000Y-51562000D02*
X165100000Y-51562000D01*
X142590003Y-74059999D02*
X143344001Y-73306001D01*
X148082000Y-120713500D02*
X148145500Y-120777000D01*
X144018000Y-64516000D02*
X143891000Y-64389000D01*
X111252000Y-120803500D02*
X109500500Y-120803500D01*
X130136001Y-69761999D02*
X129286000Y-70612000D01*
X148389000Y-63279000D02*
X156972000Y-54696000D01*
X156972000Y-90592000D02*
X150919000Y-84539000D01*
X148389000Y-63754000D02*
X148389000Y-63279000D01*
X179070000Y-108204000D02*
X181356000Y-108204000D01*
D15*
X156972000Y-91186000D02*
X157734000Y-91186000D01*
D14*
X131572000Y-91186000D02*
X131572000Y-99314000D01*
X132479999Y-73260001D02*
X132479999Y-70261997D01*
X169672000Y-51562000D02*
X170180000Y-51054000D01*
X144526000Y-71090000D02*
X145376001Y-70239999D01*
X182626000Y-98806000D02*
X182626000Y-106934000D01*
X145796000Y-63754000D02*
X148389000Y-63754000D01*
X132080000Y-73660000D02*
X132080000Y-75325502D01*
X183642000Y-108204000D02*
X183642000Y-120803500D01*
X156972000Y-51562000D02*
X156972000Y-54356000D01*
X144018000Y-65532000D02*
X143256000Y-66294000D01*
X129286000Y-70104000D02*
X129286000Y-70612000D01*
X145034000Y-64516000D02*
X145796000Y-63754000D01*
X148082000Y-108204000D02*
X148082000Y-120713500D01*
X165354000Y-48514000D02*
X165354000Y-45974000D01*
X165100000Y-51562000D02*
X169672000Y-51562000D01*
X132479999Y-70261997D02*
X131980001Y-69761999D01*
X165100000Y-51562000D02*
X165100000Y-48768000D01*
X156972000Y-91186000D02*
X156972000Y-99314000D01*
X132080000Y-73660000D02*
X132080000Y-74168000D01*
X148145500Y-120777000D02*
X146330500Y-120777000D01*
X146930001Y-69731999D02*
X145884001Y-69731999D01*
X143891000Y-64389000D02*
X143002000Y-63500000D01*
X145884001Y-69731999D02*
X145376001Y-70239999D01*
X144018000Y-65532000D02*
X144018000Y-64516000D01*
X129286000Y-76962000D02*
X129286000Y-88900000D01*
X144526000Y-65024000D02*
X145034000Y-64516000D01*
X148082000Y-108204000D02*
X145796000Y-108204000D01*
X132842000Y-91186000D02*
X131572000Y-91186000D01*
X157208499Y-69731999D02*
X157734000Y-70257500D01*
X131572000Y-99314000D02*
X131572000Y-103886000D01*
X144526000Y-65024000D02*
X144018000Y-65532000D01*
X150919000Y-82353500D02*
X155879250Y-77393250D01*
X129286000Y-88900000D02*
X131572000Y-91186000D01*
X144526000Y-65024000D02*
X144145000Y-64643000D01*
X143344001Y-73306001D02*
X143344001Y-72271999D01*
X143256000Y-66294000D02*
X143256000Y-69820000D01*
X165354000Y-45974000D02*
X165354000Y-44196000D01*
X156972000Y-54696000D02*
X156972000Y-54356000D01*
X143256000Y-69820000D02*
X144526000Y-71090000D01*
X111252000Y-108204000D02*
X111252000Y-108204000D01*
X144145000Y-64643000D02*
X143891000Y-64389000D01*
X143510000Y-108204000D02*
X145796000Y-108204000D01*
X165100000Y-48768000D02*
X165354000Y-48514000D01*
X109500500Y-120803500D02*
X109474000Y-120830000D01*
X131572000Y-103886000D02*
X127254000Y-108204000D01*
X150919000Y-84539000D02*
X150919000Y-82353500D01*
X139799999Y-85940001D02*
X149517999Y-85940001D01*
X134620000Y-78332500D02*
X134620000Y-80760002D01*
X165354000Y-44196000D02*
X166878000Y-42672000D01*
X161467250Y-77393250D02*
X166116000Y-82042000D01*
X148082000Y-108204000D02*
X179070000Y-108204000D01*
D15*
X157734000Y-91186000D02*
X157988000Y-91186000D01*
D14*
X131980001Y-69761999D02*
X130136001Y-69761999D01*
X156972000Y-91186000D02*
X156972000Y-90592000D01*
X127254000Y-108204000D02*
X111252000Y-108204000D01*
X182626000Y-106934000D02*
X181356000Y-108204000D01*
X132080000Y-75325502D02*
X134620000Y-77865502D01*
X134620000Y-77865502D02*
X134620000Y-78332500D01*
X132080000Y-73660000D02*
X132479999Y-73260001D01*
X183642000Y-120803500D02*
X181864000Y-120803500D01*
X121920000Y-62738000D02*
X129286000Y-70104000D01*
X132479999Y-74059999D02*
X142590003Y-74059999D01*
X149517999Y-85940001D02*
X150919000Y-84539000D01*
X135890000Y-108204000D02*
X143510000Y-108204000D01*
X181356000Y-108204000D02*
X183642000Y-108204000D01*
X132080000Y-74168000D02*
X129286000Y-76962000D01*
X132080000Y-73660000D02*
X132479999Y-74059999D01*
X111252000Y-108204000D02*
X111252000Y-120803500D01*
X111252000Y-108204000D02*
X108966000Y-108204000D01*
X112833500Y-120803500D02*
X113284000Y-120353000D01*
X111252000Y-120803500D02*
X112833500Y-120803500D01*
X149690000Y-120777000D02*
X150114000Y-120353000D01*
X148145500Y-120777000D02*
X149690000Y-120777000D01*
X180282500Y-120803500D02*
X179832000Y-120353000D01*
X181864000Y-120803500D02*
X180282500Y-120803500D01*
%TO.N,+5V*%
X126149999Y-69507999D02*
X126149999Y-71020001D01*
X148336000Y-59182000D02*
X150368000Y-59182000D01*
X117602000Y-97028000D02*
X124079000Y-90551000D01*
X144945999Y-61302001D02*
X148336000Y-57912000D01*
X163830000Y-70358000D02*
X166116000Y-70358000D01*
X153670000Y-60198000D02*
X163830000Y-70358000D01*
X130136001Y-60274003D02*
X131163999Y-61302001D01*
X126591999Y-71462001D02*
X130721999Y-71462001D01*
X126149999Y-71020001D02*
X126591999Y-71462001D01*
X107696000Y-98806000D02*
X109474000Y-97028000D01*
X124079000Y-67437000D02*
X126149999Y-69507999D01*
X131163999Y-61302001D02*
X144945999Y-61302001D01*
X126746000Y-54864000D02*
X130136001Y-58254001D01*
X124079000Y-90551000D02*
X124079000Y-90297000D01*
X109474000Y-97028000D02*
X117602000Y-97028000D01*
X130136001Y-58254001D02*
X130136001Y-60274003D01*
X126746000Y-54864000D02*
X125895999Y-55714001D01*
X124079000Y-67437000D02*
X124079000Y-90297000D01*
X124460000Y-57150000D02*
X124460000Y-63246000D01*
X130721999Y-71462001D02*
X131572000Y-70612000D01*
X121920000Y-65278000D02*
X124079000Y-67437000D01*
X125895999Y-55714001D02*
X124460000Y-57150000D01*
%TO.N,Net-(D6-Pad2)*%
X123246000Y-49530000D02*
X123246000Y-44720000D01*
X123246000Y-44720000D02*
X122976000Y-44450000D01*
%TO.N,Net-(C6-Pad1)*%
X128448002Y-60452000D02*
X126746000Y-58749998D01*
X131578000Y-66548000D02*
X132086000Y-66040000D01*
X129286000Y-60452000D02*
X129286000Y-66548000D01*
X129286000Y-60452000D02*
X128448002Y-60452000D01*
X129286000Y-66548000D02*
X131578000Y-66548000D01*
%TD*%
M02*
