%TF.GenerationSoftware,KiCad,Pcbnew,5.1.12-84ad8e8a86~92~ubuntu20.04.1*%
%TF.CreationDate,2022-02-24T18:35:21+01:00*%
%TF.ProjectId,GestureControl,47657374-7572-4654-936f-6e74726f6c2e,V0.1*%
%TF.SameCoordinates,Original*%
%TF.FileFunction,Legend,Bot*%
%TF.FilePolarity,Positive*%
%FSLAX46Y46*%
G04 Gerber Fmt 4.6, Leading zero omitted, Abs format (unit mm)*
G04 Created by KiCad (PCBNEW 5.1.12-84ad8e8a86~92~ubuntu20.04.1) date 2022-02-24 18:35:21*
%MOMM*%
%LPD*%
G01*
G04 APERTURE LIST*
%ADD10C,0.150000*%
%ADD11C,0.120000*%
%ADD12C,0.200000*%
G04 APERTURE END LIST*
D10*
X132506404Y-96083428D02*
X131744500Y-96083428D01*
X132125452Y-96464380D02*
X132125452Y-95702476D01*
X130792119Y-95464380D02*
X131268309Y-95464380D01*
X131315928Y-95940571D01*
X131268309Y-95892952D01*
X131173071Y-95845333D01*
X130934976Y-95845333D01*
X130839738Y-95892952D01*
X130792119Y-95940571D01*
X130744500Y-96035809D01*
X130744500Y-96273904D01*
X130792119Y-96369142D01*
X130839738Y-96416761D01*
X130934976Y-96464380D01*
X131173071Y-96464380D01*
X131268309Y-96416761D01*
X131315928Y-96369142D01*
X142920404Y-96083428D02*
X142158500Y-96083428D01*
X142539452Y-96464380D02*
X142539452Y-95702476D01*
X141777547Y-95464380D02*
X141158500Y-95464380D01*
X141491833Y-95845333D01*
X141348976Y-95845333D01*
X141253738Y-95892952D01*
X141206119Y-95940571D01*
X141158500Y-96035809D01*
X141158500Y-96273904D01*
X141206119Y-96369142D01*
X141253738Y-96416761D01*
X141348976Y-96464380D01*
X141634690Y-96464380D01*
X141729928Y-96416761D01*
X141777547Y-96369142D01*
X140729928Y-96369142D02*
X140682309Y-96416761D01*
X140729928Y-96464380D01*
X140777547Y-96416761D01*
X140729928Y-96369142D01*
X140729928Y-96464380D01*
X140348976Y-95464380D02*
X139729928Y-95464380D01*
X140063261Y-95845333D01*
X139920404Y-95845333D01*
X139825166Y-95892952D01*
X139777547Y-95940571D01*
X139729928Y-96035809D01*
X139729928Y-96273904D01*
X139777547Y-96369142D01*
X139825166Y-96416761D01*
X139920404Y-96464380D01*
X140206119Y-96464380D01*
X140301357Y-96416761D01*
X140348976Y-96369142D01*
X125886595Y-82558000D02*
X125981833Y-82510380D01*
X126124690Y-82510380D01*
X126267547Y-82558000D01*
X126362785Y-82653238D01*
X126410404Y-82748476D01*
X126458023Y-82938952D01*
X126458023Y-83081809D01*
X126410404Y-83272285D01*
X126362785Y-83367523D01*
X126267547Y-83462761D01*
X126124690Y-83510380D01*
X126029452Y-83510380D01*
X125886595Y-83462761D01*
X125838976Y-83415142D01*
X125838976Y-83081809D01*
X126029452Y-83081809D01*
X125410404Y-83510380D02*
X125410404Y-82510380D01*
X125029452Y-82510380D01*
X124934214Y-82558000D01*
X124886595Y-82605619D01*
X124838976Y-82700857D01*
X124838976Y-82843714D01*
X124886595Y-82938952D01*
X124934214Y-82986571D01*
X125029452Y-83034190D01*
X125410404Y-83034190D01*
X124458023Y-82605619D02*
X124410404Y-82558000D01*
X124315166Y-82510380D01*
X124077071Y-82510380D01*
X123981833Y-82558000D01*
X123934214Y-82605619D01*
X123886595Y-82700857D01*
X123886595Y-82796095D01*
X123934214Y-82938952D01*
X124505642Y-83510380D01*
X123886595Y-83510380D01*
X125886595Y-80018000D02*
X125981833Y-79970380D01*
X126124690Y-79970380D01*
X126267547Y-80018000D01*
X126362785Y-80113238D01*
X126410404Y-80208476D01*
X126458023Y-80398952D01*
X126458023Y-80541809D01*
X126410404Y-80732285D01*
X126362785Y-80827523D01*
X126267547Y-80922761D01*
X126124690Y-80970380D01*
X126029452Y-80970380D01*
X125886595Y-80922761D01*
X125838976Y-80875142D01*
X125838976Y-80541809D01*
X126029452Y-80541809D01*
X125410404Y-80970380D02*
X125410404Y-79970380D01*
X125029452Y-79970380D01*
X124934214Y-80018000D01*
X124886595Y-80065619D01*
X124838976Y-80160857D01*
X124838976Y-80303714D01*
X124886595Y-80398952D01*
X124934214Y-80446571D01*
X125029452Y-80494190D01*
X125410404Y-80494190D01*
X123886595Y-80970380D02*
X124458023Y-80970380D01*
X124172309Y-80970380D02*
X124172309Y-79970380D01*
X124267547Y-80113238D01*
X124362785Y-80208476D01*
X124458023Y-80256095D01*
X125886595Y-77732000D02*
X125981833Y-77684380D01*
X126124690Y-77684380D01*
X126267547Y-77732000D01*
X126362785Y-77827238D01*
X126410404Y-77922476D01*
X126458023Y-78112952D01*
X126458023Y-78255809D01*
X126410404Y-78446285D01*
X126362785Y-78541523D01*
X126267547Y-78636761D01*
X126124690Y-78684380D01*
X126029452Y-78684380D01*
X125886595Y-78636761D01*
X125838976Y-78589142D01*
X125838976Y-78255809D01*
X126029452Y-78255809D01*
X125410404Y-78684380D02*
X125410404Y-77684380D01*
X125029452Y-77684380D01*
X124934214Y-77732000D01*
X124886595Y-77779619D01*
X124838976Y-77874857D01*
X124838976Y-78017714D01*
X124886595Y-78112952D01*
X124934214Y-78160571D01*
X125029452Y-78208190D01*
X125410404Y-78208190D01*
X124219928Y-77684380D02*
X124124690Y-77684380D01*
X124029452Y-77732000D01*
X123981833Y-77779619D01*
X123934214Y-77874857D01*
X123886595Y-78065333D01*
X123886595Y-78303428D01*
X123934214Y-78493904D01*
X123981833Y-78589142D01*
X124029452Y-78636761D01*
X124124690Y-78684380D01*
X124219928Y-78684380D01*
X124315166Y-78636761D01*
X124362785Y-78589142D01*
X124410404Y-78493904D01*
X124458023Y-78303428D01*
X124458023Y-78065333D01*
X124410404Y-77874857D01*
X124362785Y-77779619D01*
X124315166Y-77732000D01*
X124219928Y-77684380D01*
X125886595Y-69858000D02*
X125981833Y-69810380D01*
X126124690Y-69810380D01*
X126267547Y-69858000D01*
X126362785Y-69953238D01*
X126410404Y-70048476D01*
X126458023Y-70238952D01*
X126458023Y-70381809D01*
X126410404Y-70572285D01*
X126362785Y-70667523D01*
X126267547Y-70762761D01*
X126124690Y-70810380D01*
X126029452Y-70810380D01*
X125886595Y-70762761D01*
X125838976Y-70715142D01*
X125838976Y-70381809D01*
X126029452Y-70381809D01*
X125410404Y-70810380D02*
X125410404Y-69810380D01*
X124838976Y-70810380D01*
X124838976Y-69810380D01*
X124362785Y-70810380D02*
X124362785Y-69810380D01*
X124124690Y-69810380D01*
X123981833Y-69858000D01*
X123886595Y-69953238D01*
X123838976Y-70048476D01*
X123791357Y-70238952D01*
X123791357Y-70381809D01*
X123838976Y-70572285D01*
X123886595Y-70667523D01*
X123981833Y-70762761D01*
X124124690Y-70810380D01*
X124362785Y-70810380D01*
X125886595Y-67318000D02*
X125981833Y-67270380D01*
X126124690Y-67270380D01*
X126267547Y-67318000D01*
X126362785Y-67413238D01*
X126410404Y-67508476D01*
X126458023Y-67698952D01*
X126458023Y-67841809D01*
X126410404Y-68032285D01*
X126362785Y-68127523D01*
X126267547Y-68222761D01*
X126124690Y-68270380D01*
X126029452Y-68270380D01*
X125886595Y-68222761D01*
X125838976Y-68175142D01*
X125838976Y-67841809D01*
X126029452Y-67841809D01*
X125410404Y-68270380D02*
X125410404Y-67270380D01*
X124838976Y-68270380D01*
X124838976Y-67270380D01*
X124362785Y-68270380D02*
X124362785Y-67270380D01*
X124124690Y-67270380D01*
X123981833Y-67318000D01*
X123886595Y-67413238D01*
X123838976Y-67508476D01*
X123791357Y-67698952D01*
X123791357Y-67841809D01*
X123838976Y-68032285D01*
X123886595Y-68127523D01*
X123981833Y-68222761D01*
X124124690Y-68270380D01*
X124362785Y-68270380D01*
X126410404Y-65349428D02*
X125648500Y-65349428D01*
X126029452Y-65730380D02*
X126029452Y-64968476D01*
X124696119Y-64730380D02*
X125172309Y-64730380D01*
X125219928Y-65206571D01*
X125172309Y-65158952D01*
X125077071Y-65111333D01*
X124838976Y-65111333D01*
X124743738Y-65158952D01*
X124696119Y-65206571D01*
X124648500Y-65301809D01*
X124648500Y-65539904D01*
X124696119Y-65635142D01*
X124743738Y-65682761D01*
X124838976Y-65730380D01*
X125077071Y-65730380D01*
X125172309Y-65682761D01*
X125219928Y-65635142D01*
X126410404Y-62809428D02*
X125648500Y-62809428D01*
X126029452Y-63190380D02*
X126029452Y-62428476D01*
X125267547Y-62190380D02*
X124648500Y-62190380D01*
X124981833Y-62571333D01*
X124838976Y-62571333D01*
X124743738Y-62618952D01*
X124696119Y-62666571D01*
X124648500Y-62761809D01*
X124648500Y-62999904D01*
X124696119Y-63095142D01*
X124743738Y-63142761D01*
X124838976Y-63190380D01*
X125124690Y-63190380D01*
X125219928Y-63142761D01*
X125267547Y-63095142D01*
D11*
X147066000Y-57658000D02*
X146812000Y-58166000D01*
X147066000Y-57658000D02*
X146558000Y-57404000D01*
X141732000Y-58928000D02*
X147066000Y-57658000D01*
X131826000Y-64262000D02*
X135128000Y-64262000D01*
X131826000Y-58928000D02*
X131826000Y-64262000D01*
X135128000Y-58928000D02*
X131826000Y-58928000D01*
X135128000Y-65532000D02*
X138430000Y-65532000D01*
X135128000Y-58928000D02*
X135128000Y-65532000D01*
X138430000Y-58928000D02*
X135128000Y-58928000D01*
X138430000Y-58928000D02*
X141732000Y-58928000D01*
X138430000Y-66802000D02*
X138430000Y-58928000D01*
X141732000Y-66802000D02*
X138430000Y-66802000D01*
X141732000Y-58928000D02*
X141732000Y-66802000D01*
D10*
X134220976Y-60047142D02*
X134268595Y-60094761D01*
X134411452Y-60142380D01*
X134506690Y-60142380D01*
X134649547Y-60094761D01*
X134744785Y-59999523D01*
X134792404Y-59904285D01*
X134840023Y-59713809D01*
X134840023Y-59570952D01*
X134792404Y-59380476D01*
X134744785Y-59285238D01*
X134649547Y-59190000D01*
X134506690Y-59142380D01*
X134411452Y-59142380D01*
X134268595Y-59190000D01*
X134220976Y-59237619D01*
X133316214Y-60142380D02*
X133792404Y-60142380D01*
X133792404Y-59142380D01*
X132459071Y-60142380D02*
X133030500Y-60142380D01*
X132744785Y-60142380D02*
X132744785Y-59142380D01*
X132840023Y-59285238D01*
X132935261Y-59380476D01*
X133030500Y-59428095D01*
X134792404Y-61412380D02*
X134792404Y-60412380D01*
X134554309Y-60412380D01*
X134411452Y-60460000D01*
X134316214Y-60555238D01*
X134268595Y-60650476D01*
X134220976Y-60840952D01*
X134220976Y-60983809D01*
X134268595Y-61174285D01*
X134316214Y-61269523D01*
X134411452Y-61364761D01*
X134554309Y-61412380D01*
X134792404Y-61412380D01*
X133840023Y-61126666D02*
X133363833Y-61126666D01*
X133935261Y-61412380D02*
X133601928Y-60412380D01*
X133268595Y-61412380D01*
X132411452Y-61412380D02*
X132982880Y-61412380D01*
X132697166Y-61412380D02*
X132697166Y-60412380D01*
X132792404Y-60555238D01*
X132887642Y-60650476D01*
X132982880Y-60698095D01*
X134792404Y-62301428D02*
X134030500Y-62301428D01*
X134411452Y-62682380D02*
X134411452Y-61920476D01*
X133078119Y-61682380D02*
X133554309Y-61682380D01*
X133601928Y-62158571D01*
X133554309Y-62110952D01*
X133459071Y-62063333D01*
X133220976Y-62063333D01*
X133125738Y-62110952D01*
X133078119Y-62158571D01*
X133030500Y-62253809D01*
X133030500Y-62491904D01*
X133078119Y-62587142D01*
X133125738Y-62634761D01*
X133220976Y-62682380D01*
X133459071Y-62682380D01*
X133554309Y-62634761D01*
X133601928Y-62587142D01*
X134268595Y-63000000D02*
X134363833Y-62952380D01*
X134506690Y-62952380D01*
X134649547Y-63000000D01*
X134744785Y-63095238D01*
X134792404Y-63190476D01*
X134840023Y-63380952D01*
X134840023Y-63523809D01*
X134792404Y-63714285D01*
X134744785Y-63809523D01*
X134649547Y-63904761D01*
X134506690Y-63952380D01*
X134411452Y-63952380D01*
X134268595Y-63904761D01*
X134220976Y-63857142D01*
X134220976Y-63523809D01*
X134411452Y-63523809D01*
X133792404Y-63952380D02*
X133792404Y-62952380D01*
X133220976Y-63952380D01*
X133220976Y-62952380D01*
X132744785Y-63952380D02*
X132744785Y-62952380D01*
X132506690Y-62952380D01*
X132363833Y-63000000D01*
X132268595Y-63095238D01*
X132220976Y-63190476D01*
X132173357Y-63380952D01*
X132173357Y-63523809D01*
X132220976Y-63714285D01*
X132268595Y-63809523D01*
X132363833Y-63904761D01*
X132506690Y-63952380D01*
X132744785Y-63952380D01*
X138142023Y-60094761D02*
X137999166Y-60142380D01*
X137761071Y-60142380D01*
X137665833Y-60094761D01*
X137618214Y-60047142D01*
X137570595Y-59951904D01*
X137570595Y-59856666D01*
X137618214Y-59761428D01*
X137665833Y-59713809D01*
X137761071Y-59666190D01*
X137951547Y-59618571D01*
X138046785Y-59570952D01*
X138094404Y-59523333D01*
X138142023Y-59428095D01*
X138142023Y-59332857D01*
X138094404Y-59237619D01*
X138046785Y-59190000D01*
X137951547Y-59142380D01*
X137713452Y-59142380D01*
X137570595Y-59190000D01*
X137237261Y-59142380D02*
X136999166Y-60142380D01*
X136808690Y-59428095D01*
X136618214Y-60142380D01*
X136380119Y-59142380D01*
X135808690Y-59142380D02*
X135713452Y-59142380D01*
X135618214Y-59190000D01*
X135570595Y-59237619D01*
X135522976Y-59332857D01*
X135475357Y-59523333D01*
X135475357Y-59761428D01*
X135522976Y-59951904D01*
X135570595Y-60047142D01*
X135618214Y-60094761D01*
X135713452Y-60142380D01*
X135808690Y-60142380D01*
X135903928Y-60094761D01*
X135951547Y-60047142D01*
X135999166Y-59951904D01*
X136046785Y-59761428D01*
X136046785Y-59523333D01*
X135999166Y-59332857D01*
X135951547Y-59237619D01*
X135903928Y-59190000D01*
X135808690Y-59142380D01*
X137522976Y-61317142D02*
X137570595Y-61364761D01*
X137713452Y-61412380D01*
X137808690Y-61412380D01*
X137951547Y-61364761D01*
X138046785Y-61269523D01*
X138094404Y-61174285D01*
X138142023Y-60983809D01*
X138142023Y-60840952D01*
X138094404Y-60650476D01*
X138046785Y-60555238D01*
X137951547Y-60460000D01*
X137808690Y-60412380D01*
X137713452Y-60412380D01*
X137570595Y-60460000D01*
X137522976Y-60507619D01*
X136618214Y-61412380D02*
X137094404Y-61412380D01*
X137094404Y-60412380D01*
X136284880Y-61412380D02*
X136284880Y-60412380D01*
X135713452Y-61412380D02*
X136142023Y-60840952D01*
X135713452Y-60412380D02*
X136284880Y-60983809D01*
X138094404Y-62682380D02*
X138094404Y-61682380D01*
X137856309Y-61682380D01*
X137713452Y-61730000D01*
X137618214Y-61825238D01*
X137570595Y-61920476D01*
X137522976Y-62110952D01*
X137522976Y-62253809D01*
X137570595Y-62444285D01*
X137618214Y-62539523D01*
X137713452Y-62634761D01*
X137856309Y-62682380D01*
X138094404Y-62682380D01*
X137142023Y-62396666D02*
X136665833Y-62396666D01*
X137237261Y-62682380D02*
X136903928Y-61682380D01*
X136570595Y-62682380D01*
X136380119Y-61682380D02*
X135808690Y-61682380D01*
X136094404Y-62682380D02*
X136094404Y-61682380D01*
X138094404Y-63571428D02*
X137332500Y-63571428D01*
X137713452Y-63952380D02*
X137713452Y-63190476D01*
X136951547Y-62952380D02*
X136332500Y-62952380D01*
X136665833Y-63333333D01*
X136522976Y-63333333D01*
X136427738Y-63380952D01*
X136380119Y-63428571D01*
X136332500Y-63523809D01*
X136332500Y-63761904D01*
X136380119Y-63857142D01*
X136427738Y-63904761D01*
X136522976Y-63952380D01*
X136808690Y-63952380D01*
X136903928Y-63904761D01*
X136951547Y-63857142D01*
X137570595Y-64270000D02*
X137665833Y-64222380D01*
X137808690Y-64222380D01*
X137951547Y-64270000D01*
X138046785Y-64365238D01*
X138094404Y-64460476D01*
X138142023Y-64650952D01*
X138142023Y-64793809D01*
X138094404Y-64984285D01*
X138046785Y-65079523D01*
X137951547Y-65174761D01*
X137808690Y-65222380D01*
X137713452Y-65222380D01*
X137570595Y-65174761D01*
X137522976Y-65127142D01*
X137522976Y-64793809D01*
X137713452Y-64793809D01*
X137094404Y-65222380D02*
X137094404Y-64222380D01*
X136522976Y-65222380D01*
X136522976Y-64222380D01*
X136046785Y-65222380D02*
X136046785Y-64222380D01*
X135808690Y-64222380D01*
X135665833Y-64270000D01*
X135570595Y-64365238D01*
X135522976Y-64460476D01*
X135475357Y-64650952D01*
X135475357Y-64793809D01*
X135522976Y-64984285D01*
X135570595Y-65079523D01*
X135665833Y-65174761D01*
X135808690Y-65222380D01*
X136046785Y-65222380D01*
X140872595Y-65540000D02*
X140967833Y-65492380D01*
X141110690Y-65492380D01*
X141253547Y-65540000D01*
X141348785Y-65635238D01*
X141396404Y-65730476D01*
X141444023Y-65920952D01*
X141444023Y-66063809D01*
X141396404Y-66254285D01*
X141348785Y-66349523D01*
X141253547Y-66444761D01*
X141110690Y-66492380D01*
X141015452Y-66492380D01*
X140872595Y-66444761D01*
X140824976Y-66397142D01*
X140824976Y-66063809D01*
X141015452Y-66063809D01*
X140396404Y-66492380D02*
X140396404Y-65492380D01*
X139824976Y-66492380D01*
X139824976Y-65492380D01*
X139348785Y-66492380D02*
X139348785Y-65492380D01*
X139110690Y-65492380D01*
X138967833Y-65540000D01*
X138872595Y-65635238D01*
X138824976Y-65730476D01*
X138777357Y-65920952D01*
X138777357Y-66063809D01*
X138824976Y-66254285D01*
X138872595Y-66349523D01*
X138967833Y-66444761D01*
X139110690Y-66492380D01*
X139348785Y-66492380D01*
X140824976Y-65127142D02*
X140872595Y-65174761D01*
X141015452Y-65222380D01*
X141110690Y-65222380D01*
X141253547Y-65174761D01*
X141348785Y-65079523D01*
X141396404Y-64984285D01*
X141444023Y-64793809D01*
X141444023Y-64650952D01*
X141396404Y-64460476D01*
X141348785Y-64365238D01*
X141253547Y-64270000D01*
X141110690Y-64222380D01*
X141015452Y-64222380D01*
X140872595Y-64270000D01*
X140824976Y-64317619D01*
X140539261Y-64222380D02*
X139967833Y-64222380D01*
X140253547Y-65222380D02*
X140253547Y-64222380D01*
X139682119Y-65174761D02*
X139539261Y-65222380D01*
X139301166Y-65222380D01*
X139205928Y-65174761D01*
X139158309Y-65127142D01*
X139110690Y-65031904D01*
X139110690Y-64936666D01*
X139158309Y-64841428D01*
X139205928Y-64793809D01*
X139301166Y-64746190D01*
X139491642Y-64698571D01*
X139586880Y-64650952D01*
X139634500Y-64603333D01*
X139682119Y-64508095D01*
X139682119Y-64412857D01*
X139634500Y-64317619D01*
X139586880Y-64270000D01*
X139491642Y-64222380D01*
X139253547Y-64222380D01*
X139110690Y-64270000D01*
X141396404Y-63571428D02*
X140634500Y-63571428D01*
X141015452Y-63952380D02*
X141015452Y-63190476D01*
X139682119Y-62952380D02*
X140158309Y-62952380D01*
X140205928Y-63428571D01*
X140158309Y-63380952D01*
X140063071Y-63333333D01*
X139824976Y-63333333D01*
X139729738Y-63380952D01*
X139682119Y-63428571D01*
X139634500Y-63523809D01*
X139634500Y-63761904D01*
X139682119Y-63857142D01*
X139729738Y-63904761D01*
X139824976Y-63952380D01*
X140063071Y-63952380D01*
X140158309Y-63904761D01*
X140205928Y-63857142D01*
X141539261Y-61682380D02*
X140967833Y-61682380D01*
X141253547Y-62682380D02*
X141253547Y-61682380D01*
X140729738Y-61682380D02*
X140063071Y-62682380D01*
X140063071Y-61682380D02*
X140729738Y-62682380D01*
X140824976Y-61412380D02*
X141158309Y-60936190D01*
X141396404Y-61412380D02*
X141396404Y-60412380D01*
X141015452Y-60412380D01*
X140920214Y-60460000D01*
X140872595Y-60507619D01*
X140824976Y-60602857D01*
X140824976Y-60745714D01*
X140872595Y-60840952D01*
X140920214Y-60888571D01*
X141015452Y-60936190D01*
X141396404Y-60936190D01*
X140491642Y-60412380D02*
X139824976Y-61412380D01*
X139824976Y-60412380D02*
X140491642Y-61412380D01*
X140824976Y-60142380D02*
X141158309Y-59666190D01*
X141396404Y-60142380D02*
X141396404Y-59142380D01*
X141015452Y-59142380D01*
X140920214Y-59190000D01*
X140872595Y-59237619D01*
X140824976Y-59332857D01*
X140824976Y-59475714D01*
X140872595Y-59570952D01*
X140920214Y-59618571D01*
X141015452Y-59666190D01*
X141396404Y-59666190D01*
X140539261Y-59142380D02*
X139967833Y-59142380D01*
X140253547Y-60142380D02*
X140253547Y-59142380D01*
X139682119Y-60094761D02*
X139539261Y-60142380D01*
X139301166Y-60142380D01*
X139205928Y-60094761D01*
X139158309Y-60047142D01*
X139110690Y-59951904D01*
X139110690Y-59856666D01*
X139158309Y-59761428D01*
X139205928Y-59713809D01*
X139301166Y-59666190D01*
X139491642Y-59618571D01*
X139586880Y-59570952D01*
X139634500Y-59523333D01*
X139682119Y-59428095D01*
X139682119Y-59332857D01*
X139634500Y-59237619D01*
X139586880Y-59190000D01*
X139491642Y-59142380D01*
X139253547Y-59142380D01*
X139110690Y-59190000D01*
X172592952Y-53665428D02*
X171831047Y-53665428D01*
X173323142Y-51125428D02*
X172561238Y-51125428D01*
X172942190Y-51506380D02*
X172942190Y-50744476D01*
X172180285Y-50506380D02*
X171561238Y-50506380D01*
X171894571Y-50887333D01*
X171751714Y-50887333D01*
X171656476Y-50934952D01*
X171608857Y-50982571D01*
X171561238Y-51077809D01*
X171561238Y-51315904D01*
X171608857Y-51411142D01*
X171656476Y-51458761D01*
X171751714Y-51506380D01*
X172037428Y-51506380D01*
X172132666Y-51458761D01*
X172180285Y-51411142D01*
X168806666Y-48966380D02*
X168806666Y-47966380D01*
X168568571Y-47966380D01*
X168425714Y-48014000D01*
X168330476Y-48109238D01*
X168282857Y-48204476D01*
X168235238Y-48394952D01*
X168235238Y-48537809D01*
X168282857Y-48728285D01*
X168330476Y-48823523D01*
X168425714Y-48918761D01*
X168568571Y-48966380D01*
X168806666Y-48966380D01*
X167854285Y-48680666D02*
X167378095Y-48680666D01*
X167949523Y-48966380D02*
X167616190Y-47966380D01*
X167282857Y-48966380D01*
X166425714Y-48966380D02*
X166997142Y-48966380D01*
X166711428Y-48966380D02*
X166711428Y-47966380D01*
X166806666Y-48109238D01*
X166901904Y-48204476D01*
X166997142Y-48252095D01*
X168211428Y-46331142D02*
X168259047Y-46378761D01*
X168401904Y-46426380D01*
X168497142Y-46426380D01*
X168640000Y-46378761D01*
X168735238Y-46283523D01*
X168782857Y-46188285D01*
X168830476Y-45997809D01*
X168830476Y-45854952D01*
X168782857Y-45664476D01*
X168735238Y-45569238D01*
X168640000Y-45474000D01*
X168497142Y-45426380D01*
X168401904Y-45426380D01*
X168259047Y-45474000D01*
X168211428Y-45521619D01*
X167306666Y-46426380D02*
X167782857Y-46426380D01*
X167782857Y-45426380D01*
X166449523Y-46426380D02*
X167020952Y-46426380D01*
X166735238Y-46426380D02*
X166735238Y-45426380D01*
X166830476Y-45569238D01*
X166925714Y-45664476D01*
X167020952Y-45712095D01*
X168632095Y-86050380D02*
X168632095Y-85050380D01*
X168394000Y-85050380D01*
X168251142Y-85098000D01*
X168155904Y-85193238D01*
X168108285Y-85288476D01*
X168060666Y-85478952D01*
X168060666Y-85621809D01*
X168108285Y-85812285D01*
X168155904Y-85907523D01*
X168251142Y-86002761D01*
X168394000Y-86050380D01*
X168632095Y-86050380D01*
X167155904Y-85050380D02*
X167632095Y-85050380D01*
X167679714Y-85526571D01*
X167632095Y-85478952D01*
X167536857Y-85431333D01*
X167298761Y-85431333D01*
X167203523Y-85478952D01*
X167155904Y-85526571D01*
X167108285Y-85621809D01*
X167108285Y-85859904D01*
X167155904Y-85955142D01*
X167203523Y-86002761D01*
X167298761Y-86050380D01*
X167536857Y-86050380D01*
X167632095Y-86002761D01*
X167679714Y-85955142D01*
X168632095Y-83510380D02*
X168632095Y-82510380D01*
X168394000Y-82510380D01*
X168251142Y-82558000D01*
X168155904Y-82653238D01*
X168108285Y-82748476D01*
X168060666Y-82938952D01*
X168060666Y-83081809D01*
X168108285Y-83272285D01*
X168155904Y-83367523D01*
X168251142Y-83462761D01*
X168394000Y-83510380D01*
X168632095Y-83510380D01*
X167203523Y-82843714D02*
X167203523Y-83510380D01*
X167441619Y-82462761D02*
X167679714Y-83177047D01*
X167060666Y-83177047D01*
X168632095Y-78430380D02*
X168632095Y-77430380D01*
X168394000Y-77430380D01*
X168251142Y-77478000D01*
X168155904Y-77573238D01*
X168108285Y-77668476D01*
X168060666Y-77858952D01*
X168060666Y-78001809D01*
X168108285Y-78192285D01*
X168155904Y-78287523D01*
X168251142Y-78382761D01*
X168394000Y-78430380D01*
X168632095Y-78430380D01*
X167727333Y-77430380D02*
X167108285Y-77430380D01*
X167441619Y-77811333D01*
X167298761Y-77811333D01*
X167203523Y-77858952D01*
X167155904Y-77906571D01*
X167108285Y-78001809D01*
X167108285Y-78239904D01*
X167155904Y-78335142D01*
X167203523Y-78382761D01*
X167298761Y-78430380D01*
X167584476Y-78430380D01*
X167679714Y-78382761D01*
X167727333Y-78335142D01*
X168632095Y-75890380D02*
X168632095Y-74890380D01*
X168394000Y-74890380D01*
X168251142Y-74938000D01*
X168155904Y-75033238D01*
X168108285Y-75128476D01*
X168060666Y-75318952D01*
X168060666Y-75461809D01*
X168108285Y-75652285D01*
X168155904Y-75747523D01*
X168251142Y-75842761D01*
X168394000Y-75890380D01*
X168632095Y-75890380D01*
X167679714Y-74985619D02*
X167632095Y-74938000D01*
X167536857Y-74890380D01*
X167298761Y-74890380D01*
X167203523Y-74938000D01*
X167155904Y-74985619D01*
X167108285Y-75080857D01*
X167108285Y-75176095D01*
X167155904Y-75318952D01*
X167727333Y-75890380D01*
X167108285Y-75890380D01*
X168632095Y-66746380D02*
X168632095Y-65746380D01*
X168394000Y-65746380D01*
X168251142Y-65794000D01*
X168155904Y-65889238D01*
X168108285Y-65984476D01*
X168060666Y-66174952D01*
X168060666Y-66317809D01*
X168108285Y-66508285D01*
X168155904Y-66603523D01*
X168251142Y-66698761D01*
X168394000Y-66746380D01*
X168632095Y-66746380D01*
X167108285Y-66746380D02*
X167679714Y-66746380D01*
X167394000Y-66746380D02*
X167394000Y-65746380D01*
X167489238Y-65889238D01*
X167584476Y-65984476D01*
X167679714Y-66032095D01*
X168671714Y-79970380D02*
X168005047Y-80970380D01*
X168005047Y-79970380D02*
X168671714Y-80970380D01*
X167671714Y-80922761D02*
X167528857Y-80970380D01*
X167290761Y-80970380D01*
X167195523Y-80922761D01*
X167147904Y-80875142D01*
X167100285Y-80779904D01*
X167100285Y-80684666D01*
X167147904Y-80589428D01*
X167195523Y-80541809D01*
X167290761Y-80494190D01*
X167481238Y-80446571D01*
X167576476Y-80398952D01*
X167624095Y-80351333D01*
X167671714Y-80256095D01*
X167671714Y-80160857D01*
X167624095Y-80065619D01*
X167576476Y-80018000D01*
X167481238Y-79970380D01*
X167243142Y-79970380D01*
X167100285Y-80018000D01*
X166719333Y-80065619D02*
X166671714Y-80018000D01*
X166576476Y-79970380D01*
X166338380Y-79970380D01*
X166243142Y-80018000D01*
X166195523Y-80065619D01*
X166147904Y-80160857D01*
X166147904Y-80256095D01*
X166195523Y-80398952D01*
X166766952Y-80970380D01*
X166147904Y-80970380D01*
X168671714Y-72350380D02*
X168005047Y-73350380D01*
X168005047Y-72350380D02*
X168671714Y-73350380D01*
X167671714Y-73302761D02*
X167528857Y-73350380D01*
X167290761Y-73350380D01*
X167195523Y-73302761D01*
X167147904Y-73255142D01*
X167100285Y-73159904D01*
X167100285Y-73064666D01*
X167147904Y-72969428D01*
X167195523Y-72921809D01*
X167290761Y-72874190D01*
X167481238Y-72826571D01*
X167576476Y-72778952D01*
X167624095Y-72731333D01*
X167671714Y-72636095D01*
X167671714Y-72540857D01*
X167624095Y-72445619D01*
X167576476Y-72398000D01*
X167481238Y-72350380D01*
X167243142Y-72350380D01*
X167100285Y-72398000D01*
X166147904Y-73350380D02*
X166719333Y-73350380D01*
X166433619Y-73350380D02*
X166433619Y-72350380D01*
X166528857Y-72493238D01*
X166624095Y-72588476D01*
X166719333Y-72636095D01*
X168671714Y-68286380D02*
X168005047Y-69286380D01*
X168005047Y-68286380D02*
X168671714Y-69286380D01*
X167671714Y-69238761D02*
X167528857Y-69286380D01*
X167290761Y-69286380D01*
X167195523Y-69238761D01*
X167147904Y-69191142D01*
X167100285Y-69095904D01*
X167100285Y-69000666D01*
X167147904Y-68905428D01*
X167195523Y-68857809D01*
X167290761Y-68810190D01*
X167481238Y-68762571D01*
X167576476Y-68714952D01*
X167624095Y-68667333D01*
X167671714Y-68572095D01*
X167671714Y-68476857D01*
X167624095Y-68381619D01*
X167576476Y-68334000D01*
X167481238Y-68286380D01*
X167243142Y-68286380D01*
X167100285Y-68334000D01*
X166481238Y-68286380D02*
X166386000Y-68286380D01*
X166290761Y-68334000D01*
X166243142Y-68381619D01*
X166195523Y-68476857D01*
X166147904Y-68667333D01*
X166147904Y-68905428D01*
X166195523Y-69095904D01*
X166243142Y-69191142D01*
X166290761Y-69238761D01*
X166386000Y-69286380D01*
X166481238Y-69286380D01*
X166576476Y-69238761D01*
X166624095Y-69191142D01*
X166671714Y-69095904D01*
X166719333Y-68905428D01*
X166719333Y-68667333D01*
X166671714Y-68476857D01*
X166624095Y-68381619D01*
X166576476Y-68334000D01*
X166481238Y-68286380D01*
D11*
X165608000Y-75946000D02*
X165100000Y-75184000D01*
X165100000Y-75184000D02*
X165608000Y-75946000D01*
X164592000Y-75946000D02*
X165100000Y-75184000D01*
X165100000Y-75184000D02*
X164592000Y-75946000D01*
X165100000Y-89154000D02*
X165100000Y-75184000D01*
X161544000Y-89154000D02*
X165862000Y-89154000D01*
X161544000Y-107950000D02*
X161544000Y-89154000D01*
X165862000Y-107950000D02*
X161544000Y-107950000D01*
X165862000Y-89154000D02*
X165862000Y-107950000D01*
D12*
X165493904Y-90504380D02*
X165493904Y-89504380D01*
X165112952Y-89504380D01*
X165017714Y-89552000D01*
X164970095Y-89599619D01*
X164922476Y-89694857D01*
X164922476Y-89837714D01*
X164970095Y-89932952D01*
X165017714Y-89980571D01*
X165112952Y-90028190D01*
X165493904Y-90028190D01*
X164541523Y-90218666D02*
X164065333Y-90218666D01*
X164636761Y-90504380D02*
X164303428Y-89504380D01*
X163970095Y-90504380D01*
X163112952Y-90504380D02*
X163684380Y-90504380D01*
X163398666Y-90504380D02*
X163398666Y-89504380D01*
X163493904Y-89647238D01*
X163589142Y-89742476D01*
X163684380Y-89790095D01*
X162493904Y-89504380D02*
X162398666Y-89504380D01*
X162303428Y-89552000D01*
X162255809Y-89599619D01*
X162208190Y-89694857D01*
X162160571Y-89885333D01*
X162160571Y-90123428D01*
X162208190Y-90313904D01*
X162255809Y-90409142D01*
X162303428Y-90456761D01*
X162398666Y-90504380D01*
X162493904Y-90504380D01*
X162589142Y-90456761D01*
X162636761Y-90409142D01*
X162684380Y-90313904D01*
X162732000Y-90123428D01*
X162732000Y-89885333D01*
X162684380Y-89694857D01*
X162636761Y-89599619D01*
X162589142Y-89552000D01*
X162493904Y-89504380D01*
X165493904Y-92204380D02*
X165493904Y-91204380D01*
X165112952Y-91204380D01*
X165017714Y-91252000D01*
X164970095Y-91299619D01*
X164922476Y-91394857D01*
X164922476Y-91537714D01*
X164970095Y-91632952D01*
X165017714Y-91680571D01*
X165112952Y-91728190D01*
X165493904Y-91728190D01*
X164541523Y-91918666D02*
X164065333Y-91918666D01*
X164636761Y-92204380D02*
X164303428Y-91204380D01*
X163970095Y-92204380D01*
X163589142Y-92204380D02*
X163398666Y-92204380D01*
X163303428Y-92156761D01*
X163255809Y-92109142D01*
X163160571Y-91966285D01*
X163112952Y-91775809D01*
X163112952Y-91394857D01*
X163160571Y-91299619D01*
X163208190Y-91252000D01*
X163303428Y-91204380D01*
X163493904Y-91204380D01*
X163589142Y-91252000D01*
X163636761Y-91299619D01*
X163684380Y-91394857D01*
X163684380Y-91632952D01*
X163636761Y-91728190D01*
X163589142Y-91775809D01*
X163493904Y-91823428D01*
X163303428Y-91823428D01*
X163208190Y-91775809D01*
X163160571Y-91728190D01*
X163112952Y-91632952D01*
X165541523Y-93856761D02*
X165398666Y-93904380D01*
X165160571Y-93904380D01*
X165065333Y-93856761D01*
X165017714Y-93809142D01*
X164970095Y-93713904D01*
X164970095Y-93618666D01*
X165017714Y-93523428D01*
X165065333Y-93475809D01*
X165160571Y-93428190D01*
X165351047Y-93380571D01*
X165446285Y-93332952D01*
X165493904Y-93285333D01*
X165541523Y-93190095D01*
X165541523Y-93094857D01*
X165493904Y-92999619D01*
X165446285Y-92952000D01*
X165351047Y-92904380D01*
X165112952Y-92904380D01*
X164970095Y-92952000D01*
X163970095Y-93809142D02*
X164017714Y-93856761D01*
X164160571Y-93904380D01*
X164255809Y-93904380D01*
X164398666Y-93856761D01*
X164493904Y-93761523D01*
X164541523Y-93666285D01*
X164589142Y-93475809D01*
X164589142Y-93332952D01*
X164541523Y-93142476D01*
X164493904Y-93047238D01*
X164398666Y-92952000D01*
X164255809Y-92904380D01*
X164160571Y-92904380D01*
X164017714Y-92952000D01*
X163970095Y-92999619D01*
X163065333Y-93904380D02*
X163541523Y-93904380D01*
X163541523Y-92904380D01*
X162779619Y-92999619D02*
X162732000Y-92952000D01*
X162636761Y-92904380D01*
X162398666Y-92904380D01*
X162303428Y-92952000D01*
X162255809Y-92999619D01*
X162208190Y-93094857D01*
X162208190Y-93190095D01*
X162255809Y-93332952D01*
X162827238Y-93904380D01*
X162208190Y-93904380D01*
X165541523Y-95556761D02*
X165398666Y-95604380D01*
X165160571Y-95604380D01*
X165065333Y-95556761D01*
X165017714Y-95509142D01*
X164970095Y-95413904D01*
X164970095Y-95318666D01*
X165017714Y-95223428D01*
X165065333Y-95175809D01*
X165160571Y-95128190D01*
X165351047Y-95080571D01*
X165446285Y-95032952D01*
X165493904Y-94985333D01*
X165541523Y-94890095D01*
X165541523Y-94794857D01*
X165493904Y-94699619D01*
X165446285Y-94652000D01*
X165351047Y-94604380D01*
X165112952Y-94604380D01*
X164970095Y-94652000D01*
X164541523Y-95604380D02*
X164541523Y-94604380D01*
X164303428Y-94604380D01*
X164160571Y-94652000D01*
X164065333Y-94747238D01*
X164017714Y-94842476D01*
X163970095Y-95032952D01*
X163970095Y-95175809D01*
X164017714Y-95366285D01*
X164065333Y-95461523D01*
X164160571Y-95556761D01*
X164303428Y-95604380D01*
X164541523Y-95604380D01*
X163589142Y-95318666D02*
X163112952Y-95318666D01*
X163684380Y-95604380D02*
X163351047Y-94604380D01*
X163017714Y-95604380D01*
X162732000Y-94699619D02*
X162684380Y-94652000D01*
X162589142Y-94604380D01*
X162351047Y-94604380D01*
X162255809Y-94652000D01*
X162208190Y-94699619D01*
X162160571Y-94794857D01*
X162160571Y-94890095D01*
X162208190Y-95032952D01*
X162779619Y-95604380D01*
X162160571Y-95604380D01*
X165493904Y-97304380D02*
X165493904Y-96304380D01*
X165112952Y-96304380D01*
X165017714Y-96352000D01*
X164970095Y-96399619D01*
X164922476Y-96494857D01*
X164922476Y-96637714D01*
X164970095Y-96732952D01*
X165017714Y-96780571D01*
X165112952Y-96828190D01*
X165493904Y-96828190D01*
X163922476Y-97209142D02*
X163970095Y-97256761D01*
X164112952Y-97304380D01*
X164208190Y-97304380D01*
X164351047Y-97256761D01*
X164446285Y-97161523D01*
X164493904Y-97066285D01*
X164541523Y-96875809D01*
X164541523Y-96732952D01*
X164493904Y-96542476D01*
X164446285Y-96447238D01*
X164351047Y-96352000D01*
X164208190Y-96304380D01*
X164112952Y-96304380D01*
X163970095Y-96352000D01*
X163922476Y-96399619D01*
X163351047Y-96732952D02*
X163446285Y-96685333D01*
X163493904Y-96637714D01*
X163541523Y-96542476D01*
X163541523Y-96494857D01*
X163493904Y-96399619D01*
X163446285Y-96352000D01*
X163351047Y-96304380D01*
X163160571Y-96304380D01*
X163065333Y-96352000D01*
X163017714Y-96399619D01*
X162970095Y-96494857D01*
X162970095Y-96542476D01*
X163017714Y-96637714D01*
X163065333Y-96685333D01*
X163160571Y-96732952D01*
X163351047Y-96732952D01*
X163446285Y-96780571D01*
X163493904Y-96828190D01*
X163541523Y-96923428D01*
X163541523Y-97113904D01*
X163493904Y-97209142D01*
X163446285Y-97256761D01*
X163351047Y-97304380D01*
X163160571Y-97304380D01*
X163065333Y-97256761D01*
X163017714Y-97209142D01*
X162970095Y-97113904D01*
X162970095Y-96923428D01*
X163017714Y-96828190D01*
X163065333Y-96780571D01*
X163160571Y-96732952D01*
X165493904Y-99004380D02*
X165493904Y-98004380D01*
X165112952Y-98004380D01*
X165017714Y-98052000D01*
X164970095Y-98099619D01*
X164922476Y-98194857D01*
X164922476Y-98337714D01*
X164970095Y-98432952D01*
X165017714Y-98480571D01*
X165112952Y-98528190D01*
X165493904Y-98528190D01*
X163922476Y-98909142D02*
X163970095Y-98956761D01*
X164112952Y-99004380D01*
X164208190Y-99004380D01*
X164351047Y-98956761D01*
X164446285Y-98861523D01*
X164493904Y-98766285D01*
X164541523Y-98575809D01*
X164541523Y-98432952D01*
X164493904Y-98242476D01*
X164446285Y-98147238D01*
X164351047Y-98052000D01*
X164208190Y-98004380D01*
X164112952Y-98004380D01*
X163970095Y-98052000D01*
X163922476Y-98099619D01*
X163589142Y-98004380D02*
X162922476Y-98004380D01*
X163351047Y-99004380D01*
X165493904Y-100704380D02*
X165493904Y-99704380D01*
X165112952Y-99704380D01*
X165017714Y-99752000D01*
X164970095Y-99799619D01*
X164922476Y-99894857D01*
X164922476Y-100037714D01*
X164970095Y-100132952D01*
X165017714Y-100180571D01*
X165112952Y-100228190D01*
X165493904Y-100228190D01*
X163922476Y-100609142D02*
X163970095Y-100656761D01*
X164112952Y-100704380D01*
X164208190Y-100704380D01*
X164351047Y-100656761D01*
X164446285Y-100561523D01*
X164493904Y-100466285D01*
X164541523Y-100275809D01*
X164541523Y-100132952D01*
X164493904Y-99942476D01*
X164446285Y-99847238D01*
X164351047Y-99752000D01*
X164208190Y-99704380D01*
X164112952Y-99704380D01*
X163970095Y-99752000D01*
X163922476Y-99799619D01*
X163065333Y-99704380D02*
X163255809Y-99704380D01*
X163351047Y-99752000D01*
X163398666Y-99799619D01*
X163493904Y-99942476D01*
X163541523Y-100132952D01*
X163541523Y-100513904D01*
X163493904Y-100609142D01*
X163446285Y-100656761D01*
X163351047Y-100704380D01*
X163160571Y-100704380D01*
X163065333Y-100656761D01*
X163017714Y-100609142D01*
X162970095Y-100513904D01*
X162970095Y-100275809D01*
X163017714Y-100180571D01*
X163065333Y-100132952D01*
X163160571Y-100085333D01*
X163351047Y-100085333D01*
X163446285Y-100132952D01*
X163493904Y-100180571D01*
X163541523Y-100275809D01*
X165493904Y-102404380D02*
X165493904Y-101404380D01*
X165112952Y-101404380D01*
X165017714Y-101452000D01*
X164970095Y-101499619D01*
X164922476Y-101594857D01*
X164922476Y-101737714D01*
X164970095Y-101832952D01*
X165017714Y-101880571D01*
X165112952Y-101928190D01*
X165493904Y-101928190D01*
X164160571Y-101880571D02*
X164017714Y-101928190D01*
X163970095Y-101975809D01*
X163922476Y-102071047D01*
X163922476Y-102213904D01*
X163970095Y-102309142D01*
X164017714Y-102356761D01*
X164112952Y-102404380D01*
X164493904Y-102404380D01*
X164493904Y-101404380D01*
X164160571Y-101404380D01*
X164065333Y-101452000D01*
X164017714Y-101499619D01*
X163970095Y-101594857D01*
X163970095Y-101690095D01*
X164017714Y-101785333D01*
X164065333Y-101832952D01*
X164160571Y-101880571D01*
X164493904Y-101880571D01*
X162970095Y-102404380D02*
X163541523Y-102404380D01*
X163255809Y-102404380D02*
X163255809Y-101404380D01*
X163351047Y-101547238D01*
X163446285Y-101642476D01*
X163541523Y-101690095D01*
X162065333Y-101404380D02*
X162541523Y-101404380D01*
X162589142Y-101880571D01*
X162541523Y-101832952D01*
X162446285Y-101785333D01*
X162208190Y-101785333D01*
X162112952Y-101832952D01*
X162065333Y-101880571D01*
X162017714Y-101975809D01*
X162017714Y-102213904D01*
X162065333Y-102309142D01*
X162112952Y-102356761D01*
X162208190Y-102404380D01*
X162446285Y-102404380D01*
X162541523Y-102356761D01*
X162589142Y-102309142D01*
X165493904Y-104104380D02*
X165493904Y-103104380D01*
X165112952Y-103104380D01*
X165017714Y-103152000D01*
X164970095Y-103199619D01*
X164922476Y-103294857D01*
X164922476Y-103437714D01*
X164970095Y-103532952D01*
X165017714Y-103580571D01*
X165112952Y-103628190D01*
X165493904Y-103628190D01*
X164160571Y-103580571D02*
X164017714Y-103628190D01*
X163970095Y-103675809D01*
X163922476Y-103771047D01*
X163922476Y-103913904D01*
X163970095Y-104009142D01*
X164017714Y-104056761D01*
X164112952Y-104104380D01*
X164493904Y-104104380D01*
X164493904Y-103104380D01*
X164160571Y-103104380D01*
X164065333Y-103152000D01*
X164017714Y-103199619D01*
X163970095Y-103294857D01*
X163970095Y-103390095D01*
X164017714Y-103485333D01*
X164065333Y-103532952D01*
X164160571Y-103580571D01*
X164493904Y-103580571D01*
X162970095Y-104104380D02*
X163541523Y-104104380D01*
X163255809Y-104104380D02*
X163255809Y-103104380D01*
X163351047Y-103247238D01*
X163446285Y-103342476D01*
X163541523Y-103390095D01*
X162112952Y-103437714D02*
X162112952Y-104104380D01*
X162351047Y-103056761D02*
X162589142Y-103771047D01*
X161970095Y-103771047D01*
X165493904Y-105804380D02*
X165493904Y-104804380D01*
X165112952Y-104804380D01*
X165017714Y-104852000D01*
X164970095Y-104899619D01*
X164922476Y-104994857D01*
X164922476Y-105137714D01*
X164970095Y-105232952D01*
X165017714Y-105280571D01*
X165112952Y-105328190D01*
X165493904Y-105328190D01*
X164160571Y-105280571D02*
X164017714Y-105328190D01*
X163970095Y-105375809D01*
X163922476Y-105471047D01*
X163922476Y-105613904D01*
X163970095Y-105709142D01*
X164017714Y-105756761D01*
X164112952Y-105804380D01*
X164493904Y-105804380D01*
X164493904Y-104804380D01*
X164160571Y-104804380D01*
X164065333Y-104852000D01*
X164017714Y-104899619D01*
X163970095Y-104994857D01*
X163970095Y-105090095D01*
X164017714Y-105185333D01*
X164065333Y-105232952D01*
X164160571Y-105280571D01*
X164493904Y-105280571D01*
X162970095Y-105804380D02*
X163541523Y-105804380D01*
X163255809Y-105804380D02*
X163255809Y-104804380D01*
X163351047Y-104947238D01*
X163446285Y-105042476D01*
X163541523Y-105090095D01*
X162636761Y-104804380D02*
X162017714Y-104804380D01*
X162351047Y-105185333D01*
X162208190Y-105185333D01*
X162112952Y-105232952D01*
X162065333Y-105280571D01*
X162017714Y-105375809D01*
X162017714Y-105613904D01*
X162065333Y-105709142D01*
X162112952Y-105756761D01*
X162208190Y-105804380D01*
X162493904Y-105804380D01*
X162589142Y-105756761D01*
X162636761Y-105709142D01*
X165493904Y-107504380D02*
X165493904Y-106504380D01*
X165112952Y-106504380D01*
X165017714Y-106552000D01*
X164970095Y-106599619D01*
X164922476Y-106694857D01*
X164922476Y-106837714D01*
X164970095Y-106932952D01*
X165017714Y-106980571D01*
X165112952Y-107028190D01*
X165493904Y-107028190D01*
X164160571Y-106980571D02*
X164017714Y-107028190D01*
X163970095Y-107075809D01*
X163922476Y-107171047D01*
X163922476Y-107313904D01*
X163970095Y-107409142D01*
X164017714Y-107456761D01*
X164112952Y-107504380D01*
X164493904Y-107504380D01*
X164493904Y-106504380D01*
X164160571Y-106504380D01*
X164065333Y-106552000D01*
X164017714Y-106599619D01*
X163970095Y-106694857D01*
X163970095Y-106790095D01*
X164017714Y-106885333D01*
X164065333Y-106932952D01*
X164160571Y-106980571D01*
X164493904Y-106980571D01*
X162970095Y-107504380D02*
X163541523Y-107504380D01*
X163255809Y-107504380D02*
X163255809Y-106504380D01*
X163351047Y-106647238D01*
X163446285Y-106742476D01*
X163541523Y-106790095D01*
X162589142Y-106599619D02*
X162541523Y-106552000D01*
X162446285Y-106504380D01*
X162208190Y-106504380D01*
X162112952Y-106552000D01*
X162065333Y-106599619D01*
X162017714Y-106694857D01*
X162017714Y-106790095D01*
X162065333Y-106932952D01*
X162636761Y-107504380D01*
X162017714Y-107504380D01*
D11*
X152908000Y-73660000D02*
X152146000Y-73406000D01*
X151892000Y-74168000D02*
X152146000Y-73406000D01*
X152146000Y-73406000D02*
X151892000Y-74168000D01*
X155702000Y-79248000D02*
X152146000Y-73406000D01*
X157480000Y-85090000D02*
X145288000Y-85090000D01*
X157480000Y-79248000D02*
X157480000Y-79502000D01*
X145288000Y-79248000D02*
X157480000Y-79248000D01*
X145288000Y-79502000D02*
X145288000Y-79248000D01*
X145288000Y-90678000D02*
X145288000Y-79502000D01*
X157480000Y-90678000D02*
X145288000Y-90678000D01*
X157480000Y-79502000D02*
X157480000Y-90678000D01*
D12*
X156381714Y-86636380D02*
X156857904Y-86636380D01*
X156857904Y-85636380D01*
X155524571Y-86636380D02*
X156096000Y-86636380D01*
X155810285Y-86636380D02*
X155810285Y-85636380D01*
X155905523Y-85779238D01*
X156000761Y-85874476D01*
X156096000Y-85922095D01*
X154619809Y-85636380D02*
X155096000Y-85636380D01*
X155143619Y-86112571D01*
X155096000Y-86064952D01*
X155000761Y-86017333D01*
X154762666Y-86017333D01*
X154667428Y-86064952D01*
X154619809Y-86112571D01*
X154572190Y-86207809D01*
X154572190Y-86445904D01*
X154619809Y-86541142D01*
X154667428Y-86588761D01*
X154762666Y-86636380D01*
X155000761Y-86636380D01*
X155096000Y-86588761D01*
X155143619Y-86541142D01*
X153619809Y-86636380D02*
X154191238Y-86636380D01*
X153905523Y-86636380D02*
X153905523Y-85636380D01*
X154000761Y-85779238D01*
X154096000Y-85874476D01*
X154191238Y-85922095D01*
X152619809Y-86636380D02*
X152953142Y-86160190D01*
X153191238Y-86636380D02*
X153191238Y-85636380D01*
X152810285Y-85636380D01*
X152715047Y-85684000D01*
X152667428Y-85731619D01*
X152619809Y-85826857D01*
X152619809Y-85969714D01*
X152667428Y-86064952D01*
X152715047Y-86112571D01*
X152810285Y-86160190D01*
X153191238Y-86160190D01*
X152191238Y-86112571D02*
X151857904Y-86112571D01*
X151715047Y-86636380D02*
X152191238Y-86636380D01*
X152191238Y-85636380D01*
X151715047Y-85636380D01*
X151429333Y-85636380D02*
X150857904Y-85636380D01*
X151143619Y-86636380D02*
X151143619Y-85636380D01*
X150619809Y-86636380D02*
X150096000Y-85969714D01*
X150619809Y-85969714D02*
X150096000Y-86636380D01*
X148667428Y-87017333D02*
X148715047Y-86969714D01*
X148810285Y-86826857D01*
X148857904Y-86731619D01*
X148905523Y-86588761D01*
X148953142Y-86350666D01*
X148953142Y-86160190D01*
X148905523Y-85922095D01*
X148857904Y-85779238D01*
X148810285Y-85684000D01*
X148715047Y-85541142D01*
X148667428Y-85493523D01*
X148286476Y-85636380D02*
X148286476Y-86445904D01*
X148238857Y-86541142D01*
X148191238Y-86588761D01*
X148096000Y-86636380D01*
X147905523Y-86636380D01*
X147810285Y-86588761D01*
X147762666Y-86541142D01*
X147715047Y-86445904D01*
X147715047Y-85636380D01*
X146810285Y-85636380D02*
X147000761Y-85636380D01*
X147096000Y-85684000D01*
X147143619Y-85731619D01*
X147238857Y-85874476D01*
X147286476Y-86064952D01*
X147286476Y-86445904D01*
X147238857Y-86541142D01*
X147191238Y-86588761D01*
X147096000Y-86636380D01*
X146905523Y-86636380D01*
X146810285Y-86588761D01*
X146762666Y-86541142D01*
X146715047Y-86445904D01*
X146715047Y-86207809D01*
X146762666Y-86112571D01*
X146810285Y-86064952D01*
X146905523Y-86017333D01*
X147096000Y-86017333D01*
X147191238Y-86064952D01*
X147238857Y-86112571D01*
X147286476Y-86207809D01*
X146381714Y-87017333D02*
X146334095Y-86969714D01*
X146238857Y-86826857D01*
X146191238Y-86731619D01*
X146143619Y-86588761D01*
X146096000Y-86350666D01*
X146096000Y-86160190D01*
X146143619Y-85922095D01*
X146191238Y-85779238D01*
X146238857Y-85684000D01*
X146334095Y-85541142D01*
X146381714Y-85493523D01*
X145619809Y-86541142D02*
X145572190Y-86588761D01*
X145619809Y-86636380D01*
X145667428Y-86588761D01*
X145619809Y-86541142D01*
X145619809Y-86636380D01*
X145619809Y-86017333D02*
X145572190Y-86064952D01*
X145619809Y-86112571D01*
X145667428Y-86064952D01*
X145619809Y-86017333D01*
X145619809Y-86112571D01*
X156572190Y-87336380D02*
X156572190Y-88050666D01*
X156619809Y-88193523D01*
X156715047Y-88288761D01*
X156857904Y-88336380D01*
X156953142Y-88336380D01*
X156096000Y-88336380D02*
X156096000Y-87336380D01*
X155715047Y-87336380D01*
X155619809Y-87384000D01*
X155572190Y-87431619D01*
X155524571Y-87526857D01*
X155524571Y-87669714D01*
X155572190Y-87764952D01*
X155619809Y-87812571D01*
X155715047Y-87860190D01*
X156096000Y-87860190D01*
X155191238Y-87336380D02*
X154572190Y-87336380D01*
X154905523Y-87717333D01*
X154762666Y-87717333D01*
X154667428Y-87764952D01*
X154619809Y-87812571D01*
X154572190Y-87907809D01*
X154572190Y-88145904D01*
X154619809Y-88241142D01*
X154667428Y-88288761D01*
X154762666Y-88336380D01*
X155048380Y-88336380D01*
X155143619Y-88288761D01*
X155191238Y-88241142D01*
X153381714Y-87955428D02*
X152619809Y-87955428D01*
X152143619Y-87669714D02*
X151381714Y-87955428D01*
X152143619Y-88241142D01*
X150191238Y-87431619D02*
X150143619Y-87384000D01*
X150048380Y-87336380D01*
X149810285Y-87336380D01*
X149715047Y-87384000D01*
X149667428Y-87431619D01*
X149619809Y-87526857D01*
X149619809Y-87622095D01*
X149667428Y-87764952D01*
X150238857Y-88336380D01*
X149619809Y-88336380D01*
X149191238Y-87955428D02*
X148429333Y-87955428D01*
X148048380Y-87336380D02*
X147429333Y-87336380D01*
X147762666Y-87717333D01*
X147619809Y-87717333D01*
X147524571Y-87764952D01*
X147476952Y-87812571D01*
X147429333Y-87907809D01*
X147429333Y-88145904D01*
X147476952Y-88241142D01*
X147524571Y-88288761D01*
X147619809Y-88336380D01*
X147905523Y-88336380D01*
X148000761Y-88288761D01*
X148048380Y-88241142D01*
X146953142Y-88288761D02*
X146953142Y-88336380D01*
X147000761Y-88431619D01*
X147048380Y-88479238D01*
X156572190Y-89036380D02*
X156572190Y-89750666D01*
X156619809Y-89893523D01*
X156715047Y-89988761D01*
X156857904Y-90036380D01*
X156953142Y-90036380D01*
X156096000Y-90036380D02*
X156096000Y-89036380D01*
X155715047Y-89036380D01*
X155619809Y-89084000D01*
X155572190Y-89131619D01*
X155524571Y-89226857D01*
X155524571Y-89369714D01*
X155572190Y-89464952D01*
X155619809Y-89512571D01*
X155715047Y-89560190D01*
X156096000Y-89560190D01*
X155143619Y-89131619D02*
X155096000Y-89084000D01*
X155000761Y-89036380D01*
X154762666Y-89036380D01*
X154667428Y-89084000D01*
X154619809Y-89131619D01*
X154572190Y-89226857D01*
X154572190Y-89322095D01*
X154619809Y-89464952D01*
X155191238Y-90036380D01*
X154572190Y-90036380D01*
X153381714Y-89655428D02*
X152619809Y-89655428D01*
X152143619Y-89369714D02*
X151381714Y-89655428D01*
X152143619Y-89941142D01*
X149619809Y-90036380D02*
X150191238Y-90036380D01*
X149905523Y-90036380D02*
X149905523Y-89036380D01*
X150000761Y-89179238D01*
X150096000Y-89274476D01*
X150191238Y-89322095D01*
X149191238Y-89655428D02*
X148429333Y-89655428D01*
X148000761Y-89131619D02*
X147953142Y-89084000D01*
X147857904Y-89036380D01*
X147619809Y-89036380D01*
X147524571Y-89084000D01*
X147476952Y-89131619D01*
X147429333Y-89226857D01*
X147429333Y-89322095D01*
X147476952Y-89464952D01*
X148048380Y-90036380D01*
X147429333Y-90036380D01*
X156524571Y-80270571D02*
X156857904Y-80270571D01*
X156857904Y-80794380D02*
X156857904Y-79794380D01*
X156381714Y-79794380D01*
X155572190Y-80127714D02*
X155572190Y-80794380D01*
X155810285Y-79746761D02*
X156048380Y-80461047D01*
X155429333Y-80461047D01*
X154857904Y-79794380D02*
X154762666Y-79794380D01*
X154667428Y-79842000D01*
X154619809Y-79889619D01*
X154572190Y-79984857D01*
X154524571Y-80175333D01*
X154524571Y-80413428D01*
X154572190Y-80603904D01*
X154619809Y-80699142D01*
X154667428Y-80746761D01*
X154762666Y-80794380D01*
X154857904Y-80794380D01*
X154953142Y-80746761D01*
X155000761Y-80699142D01*
X155048380Y-80603904D01*
X155096000Y-80413428D01*
X155096000Y-80175333D01*
X155048380Y-79984857D01*
X155000761Y-79889619D01*
X154953142Y-79842000D01*
X154857904Y-79794380D01*
X153572190Y-80794380D02*
X154143619Y-80794380D01*
X153857904Y-80794380D02*
X153857904Y-79794380D01*
X153953142Y-79937238D01*
X154048380Y-80032476D01*
X154143619Y-80080095D01*
X152572190Y-80794380D02*
X152905523Y-80318190D01*
X153143619Y-80794380D02*
X153143619Y-79794380D01*
X152762666Y-79794380D01*
X152667428Y-79842000D01*
X152619809Y-79889619D01*
X152572190Y-79984857D01*
X152572190Y-80127714D01*
X152619809Y-80222952D01*
X152667428Y-80270571D01*
X152762666Y-80318190D01*
X153143619Y-80318190D01*
X152143619Y-80270571D02*
X151810285Y-80270571D01*
X151667428Y-80794380D02*
X152143619Y-80794380D01*
X152143619Y-79794380D01*
X151667428Y-79794380D01*
X151381714Y-79794380D02*
X150810285Y-79794380D01*
X151096000Y-80794380D02*
X151096000Y-79794380D01*
X150572190Y-80794380D02*
X150048380Y-80127714D01*
X150572190Y-80127714D02*
X150048380Y-80794380D01*
X148619809Y-81175333D02*
X148667428Y-81127714D01*
X148762666Y-80984857D01*
X148810285Y-80889619D01*
X148857904Y-80746761D01*
X148905523Y-80508666D01*
X148905523Y-80318190D01*
X148857904Y-80080095D01*
X148810285Y-79937238D01*
X148762666Y-79842000D01*
X148667428Y-79699142D01*
X148619809Y-79651523D01*
X148238857Y-79794380D02*
X148238857Y-80603904D01*
X148191238Y-80699142D01*
X148143619Y-80746761D01*
X148048380Y-80794380D01*
X147857904Y-80794380D01*
X147762666Y-80746761D01*
X147715047Y-80699142D01*
X147667428Y-80603904D01*
X147667428Y-79794380D01*
X147286476Y-79794380D02*
X146619809Y-79794380D01*
X147048380Y-80794380D01*
X146334095Y-81175333D02*
X146286476Y-81127714D01*
X146191238Y-80984857D01*
X146143619Y-80889619D01*
X146096000Y-80746761D01*
X146048380Y-80508666D01*
X146048380Y-80318190D01*
X146096000Y-80080095D01*
X146143619Y-79937238D01*
X146191238Y-79842000D01*
X146286476Y-79699142D01*
X146334095Y-79651523D01*
X145572190Y-80699142D02*
X145524571Y-80746761D01*
X145572190Y-80794380D01*
X145619809Y-80746761D01*
X145572190Y-80699142D01*
X145572190Y-80794380D01*
X145572190Y-80175333D02*
X145524571Y-80222952D01*
X145572190Y-80270571D01*
X145619809Y-80222952D01*
X145572190Y-80175333D01*
X145572190Y-80270571D01*
X156572190Y-81494380D02*
X156572190Y-82208666D01*
X156619809Y-82351523D01*
X156715047Y-82446761D01*
X156857904Y-82494380D01*
X156953142Y-82494380D01*
X156096000Y-82494380D02*
X156096000Y-81494380D01*
X155715047Y-81494380D01*
X155619809Y-81542000D01*
X155572190Y-81589619D01*
X155524571Y-81684857D01*
X155524571Y-81827714D01*
X155572190Y-81922952D01*
X155619809Y-81970571D01*
X155715047Y-82018190D01*
X156096000Y-82018190D01*
X155191238Y-81494380D02*
X154572190Y-81494380D01*
X154905523Y-81875333D01*
X154762666Y-81875333D01*
X154667428Y-81922952D01*
X154619809Y-81970571D01*
X154572190Y-82065809D01*
X154572190Y-82303904D01*
X154619809Y-82399142D01*
X154667428Y-82446761D01*
X154762666Y-82494380D01*
X155048380Y-82494380D01*
X155143619Y-82446761D01*
X155191238Y-82399142D01*
X153381714Y-82113428D02*
X152619809Y-82113428D01*
X152143619Y-81827714D02*
X151381714Y-82113428D01*
X152143619Y-82399142D01*
X149619809Y-82494380D02*
X150191238Y-82494380D01*
X149905523Y-82494380D02*
X149905523Y-81494380D01*
X150000761Y-81637238D01*
X150096000Y-81732476D01*
X150191238Y-81780095D01*
X149191238Y-82113428D02*
X148429333Y-82113428D01*
X148000761Y-81589619D02*
X147953142Y-81542000D01*
X147857904Y-81494380D01*
X147619809Y-81494380D01*
X147524571Y-81542000D01*
X147476952Y-81589619D01*
X147429333Y-81684857D01*
X147429333Y-81780095D01*
X147476952Y-81922952D01*
X148048380Y-82494380D01*
X147429333Y-82494380D01*
X146953142Y-82446761D02*
X146953142Y-82494380D01*
X147000761Y-82589619D01*
X147048380Y-82637238D01*
X156572190Y-83194380D02*
X156572190Y-83908666D01*
X156619809Y-84051523D01*
X156715047Y-84146761D01*
X156857904Y-84194380D01*
X156953142Y-84194380D01*
X156096000Y-84194380D02*
X156096000Y-83194380D01*
X155715047Y-83194380D01*
X155619809Y-83242000D01*
X155572190Y-83289619D01*
X155524571Y-83384857D01*
X155524571Y-83527714D01*
X155572190Y-83622952D01*
X155619809Y-83670571D01*
X155715047Y-83718190D01*
X156096000Y-83718190D01*
X155143619Y-83289619D02*
X155096000Y-83242000D01*
X155000761Y-83194380D01*
X154762666Y-83194380D01*
X154667428Y-83242000D01*
X154619809Y-83289619D01*
X154572190Y-83384857D01*
X154572190Y-83480095D01*
X154619809Y-83622952D01*
X155191238Y-84194380D01*
X154572190Y-84194380D01*
X153381714Y-83813428D02*
X152619809Y-83813428D01*
X152143619Y-83527714D02*
X151381714Y-83813428D01*
X152143619Y-84099142D01*
X150191238Y-83289619D02*
X150143619Y-83242000D01*
X150048380Y-83194380D01*
X149810285Y-83194380D01*
X149715047Y-83242000D01*
X149667428Y-83289619D01*
X149619809Y-83384857D01*
X149619809Y-83480095D01*
X149667428Y-83622952D01*
X150238857Y-84194380D01*
X149619809Y-84194380D01*
X149191238Y-83813428D02*
X148429333Y-83813428D01*
X148048380Y-83194380D02*
X147429333Y-83194380D01*
X147762666Y-83575333D01*
X147619809Y-83575333D01*
X147524571Y-83622952D01*
X147476952Y-83670571D01*
X147429333Y-83765809D01*
X147429333Y-84003904D01*
X147476952Y-84099142D01*
X147524571Y-84146761D01*
X147619809Y-84194380D01*
X147905523Y-84194380D01*
X148000761Y-84146761D01*
X148048380Y-84099142D01*
D11*
%TO.C,U2*%
X132442000Y-93762000D02*
X132442000Y-87752000D01*
X125622000Y-91512000D02*
X125622000Y-87752000D01*
X132442000Y-87752000D02*
X131182000Y-87752000D01*
X125622000Y-87752000D02*
X126882000Y-87752000D01*
%TO.C,U1*%
X142856000Y-93762000D02*
X142856000Y-87752000D01*
X136036000Y-91512000D02*
X136036000Y-87752000D01*
X142856000Y-87752000D02*
X141596000Y-87752000D01*
X136036000Y-87752000D02*
X137296000Y-87752000D01*
%TO.C,TP2*%
X165038000Y-53532000D02*
X165038000Y-52132000D01*
X163638000Y-53532000D02*
X165038000Y-53532000D01*
X163638000Y-52132000D02*
X163638000Y-53532000D01*
X165038000Y-52132000D02*
X163638000Y-52132000D01*
%TO.C,TP1*%
X165038000Y-56072000D02*
X165038000Y-54672000D01*
X163638000Y-56072000D02*
X165038000Y-56072000D01*
X163638000Y-54672000D02*
X163638000Y-56072000D01*
X165038000Y-54672000D02*
X163638000Y-54672000D01*
%TO.C,R22*%
X161517000Y-51604936D02*
X161517000Y-52059064D01*
X160047000Y-51604936D02*
X160047000Y-52059064D01*
%TO.C,R21*%
X160047000Y-56599064D02*
X160047000Y-56144936D01*
X161517000Y-56599064D02*
X161517000Y-56144936D01*
%TO.C,R20*%
X141689064Y-51535000D02*
X141234936Y-51535000D01*
X141689064Y-50065000D02*
X141234936Y-50065000D01*
%TO.C,R11*%
X141266936Y-54129000D02*
X141721064Y-54129000D01*
X141266936Y-55599000D02*
X141721064Y-55599000D01*
%TO.C,R10*%
X141266936Y-56415000D02*
X141721064Y-56415000D01*
X141266936Y-57885000D02*
X141721064Y-57885000D01*
%TO.C,R9*%
X159554936Y-75211000D02*
X160009064Y-75211000D01*
X159554936Y-76681000D02*
X160009064Y-76681000D01*
%TO.C,R8*%
X159554936Y-82069000D02*
X160009064Y-82069000D01*
X159554936Y-83539000D02*
X160009064Y-83539000D01*
%TO.C,JP3*%
X147668000Y-68310000D02*
X150468000Y-68310000D01*
X151118000Y-67610000D02*
X151118000Y-67010000D01*
X150468000Y-66310000D02*
X147668000Y-66310000D01*
X147018000Y-67010000D02*
X147018000Y-67610000D01*
X147018000Y-67610000D02*
G75*
G03*
X147718000Y-68310000I700000J0D01*
G01*
X147718000Y-66310000D02*
G75*
G03*
X147018000Y-67010000I0J-700000D01*
G01*
X151118000Y-67010000D02*
G75*
G03*
X150418000Y-66310000I-700000J0D01*
G01*
X150418000Y-68310000D02*
G75*
G03*
X151118000Y-67610000I0J700000D01*
G01*
%TO.C,JP2*%
X150098000Y-72520000D02*
X150098000Y-69720000D01*
X149398000Y-69070000D02*
X148798000Y-69070000D01*
X148098000Y-69720000D02*
X148098000Y-72520000D01*
X148798000Y-73170000D02*
X149398000Y-73170000D01*
X149398000Y-73170000D02*
G75*
G03*
X150098000Y-72470000I0J700000D01*
G01*
X148098000Y-72470000D02*
G75*
G03*
X148798000Y-73170000I700000J0D01*
G01*
X148798000Y-69070000D02*
G75*
G03*
X148098000Y-69770000I0J-700000D01*
G01*
X150098000Y-69770000D02*
G75*
G03*
X149398000Y-69070000I-700000J0D01*
G01*
%TO.C,J19*%
X165288000Y-48702000D02*
X165288000Y-46802000D01*
X163388000Y-48702000D02*
X165288000Y-48702000D01*
X163388000Y-46802000D02*
X163388000Y-48702000D01*
X165288000Y-46802000D02*
X163388000Y-46802000D01*
%TO.C,J18*%
X165288000Y-51242000D02*
X165288000Y-49342000D01*
X163388000Y-51242000D02*
X165288000Y-51242000D01*
X163388000Y-49342000D02*
X163388000Y-51242000D01*
X165288000Y-49342000D02*
X163388000Y-49342000D01*
%TO.C,J17*%
X163388000Y-56962000D02*
X163388000Y-58862000D01*
X165288000Y-56962000D02*
X163388000Y-56962000D01*
X165288000Y-58862000D02*
X165288000Y-56962000D01*
X163388000Y-58862000D02*
X165288000Y-58862000D01*
%TO.C,J16*%
X165288000Y-61402000D02*
X165288000Y-59502000D01*
X163388000Y-61402000D02*
X165288000Y-61402000D01*
X163388000Y-59502000D02*
X163388000Y-61402000D01*
X165288000Y-59502000D02*
X163388000Y-59502000D01*
%TO.C,J15*%
X165288000Y-63942000D02*
X165288000Y-62042000D01*
X163388000Y-63942000D02*
X165288000Y-63942000D01*
X163388000Y-62042000D02*
X163388000Y-63942000D01*
X165288000Y-62042000D02*
X163388000Y-62042000D01*
%TO.C,J14*%
X165288000Y-66482000D02*
X165288000Y-64582000D01*
X163388000Y-66482000D02*
X165288000Y-66482000D01*
X163388000Y-64582000D02*
X163388000Y-66482000D01*
X165288000Y-64582000D02*
X163388000Y-64582000D01*
%TO.C,J13*%
X165288000Y-69022000D02*
X165288000Y-67122000D01*
X163388000Y-69022000D02*
X165288000Y-69022000D01*
X163388000Y-67122000D02*
X163388000Y-69022000D01*
X165288000Y-67122000D02*
X163388000Y-67122000D01*
%TO.C,J12*%
X165288000Y-71562000D02*
X165288000Y-69662000D01*
X163388000Y-71562000D02*
X165288000Y-71562000D01*
X163388000Y-69662000D02*
X163388000Y-71562000D01*
X165288000Y-69662000D02*
X163388000Y-69662000D01*
%TO.C,J11*%
X165288000Y-74102000D02*
X165288000Y-72202000D01*
X163388000Y-74102000D02*
X165288000Y-74102000D01*
X163388000Y-72202000D02*
X163388000Y-74102000D01*
X165288000Y-72202000D02*
X163388000Y-72202000D01*
%TO.C,D7*%
X138298000Y-99188000D02*
X131398000Y-99188000D01*
X138298000Y-102488000D02*
X131398000Y-102488000D01*
X138298000Y-99188000D02*
X138298000Y-102488000D01*
%TO.C,D6*%
X129328000Y-44578000D02*
X122428000Y-44578000D01*
X129328000Y-47878000D02*
X122428000Y-47878000D01*
X129328000Y-44578000D02*
X129328000Y-47878000D01*
%TO.C,C33*%
X148815248Y-64035000D02*
X149337752Y-64035000D01*
X148815248Y-65505000D02*
X149337752Y-65505000D01*
%TO.C,C31*%
X145544000Y-68280233D02*
X145544000Y-68572767D01*
X144524000Y-68280233D02*
X144524000Y-68572767D01*
%TO.C,C30*%
X146023000Y-73674248D02*
X146023000Y-74196752D01*
X144553000Y-73674248D02*
X144553000Y-74196752D01*
%TO.C,C29*%
X156970000Y-67048767D02*
X156970000Y-66756233D01*
X157990000Y-67048767D02*
X157990000Y-66756233D01*
%TO.C,C28*%
X143766000Y-73667233D02*
X143766000Y-73959767D01*
X142746000Y-73667233D02*
X142746000Y-73959767D01*
%TO.C,C23*%
X143766000Y-68280233D02*
X143766000Y-68572767D01*
X142746000Y-68280233D02*
X142746000Y-68572767D01*
%TO.C,C22*%
X133457733Y-66546000D02*
X133750267Y-66546000D01*
X133457733Y-67566000D02*
X133750267Y-67566000D01*
%TO.C,C21*%
X135374767Y-53342000D02*
X135082233Y-53342000D01*
X135374767Y-52322000D02*
X135082233Y-52322000D01*
%TO.C,C20*%
X141777767Y-53342000D02*
X141485233Y-53342000D01*
X141777767Y-52322000D02*
X141485233Y-52322000D01*
%TO.C,C19*%
X133457733Y-70356000D02*
X133750267Y-70356000D01*
X133457733Y-71376000D02*
X133750267Y-71376000D01*
%TO.C,C18*%
X132053000Y-80235248D02*
X132053000Y-80757752D01*
X130583000Y-80235248D02*
X130583000Y-80757752D01*
%TO.C,C17*%
X130583000Y-76482752D02*
X130583000Y-75960248D01*
X132053000Y-76482752D02*
X132053000Y-75960248D01*
%TO.C,C2*%
X159758767Y-78488000D02*
X159466233Y-78488000D01*
X159758767Y-77468000D02*
X159466233Y-77468000D01*
%TO.C,C1*%
X159758767Y-85346000D02*
X159466233Y-85346000D01*
X159758767Y-84326000D02*
X159466233Y-84326000D01*
%TO.C,U2*%
D10*
X132984380Y-88900095D02*
X133793904Y-88900095D01*
X133889142Y-88947714D01*
X133936761Y-88995333D01*
X133984380Y-89090571D01*
X133984380Y-89281047D01*
X133936761Y-89376285D01*
X133889142Y-89423904D01*
X133793904Y-89471523D01*
X132984380Y-89471523D01*
X133079619Y-89900095D02*
X133032000Y-89947714D01*
X132984380Y-90042952D01*
X132984380Y-90281047D01*
X133032000Y-90376285D01*
X133079619Y-90423904D01*
X133174857Y-90471523D01*
X133270095Y-90471523D01*
X133412952Y-90423904D01*
X133984380Y-89852476D01*
X133984380Y-90471523D01*
%TO.C,U1*%
X143398380Y-88900095D02*
X144207904Y-88900095D01*
X144303142Y-88947714D01*
X144350761Y-88995333D01*
X144398380Y-89090571D01*
X144398380Y-89281047D01*
X144350761Y-89376285D01*
X144303142Y-89423904D01*
X144207904Y-89471523D01*
X143398380Y-89471523D01*
X144398380Y-90471523D02*
X144398380Y-89900095D01*
X144398380Y-90185809D02*
X143398380Y-90185809D01*
X143541238Y-90090571D01*
X143636476Y-89995333D01*
X143684095Y-89900095D01*
%TO.C,TP2*%
X161789904Y-63206380D02*
X161218476Y-63206380D01*
X161504190Y-64206380D02*
X161504190Y-63206380D01*
X160885142Y-64206380D02*
X160885142Y-63206380D01*
X160504190Y-63206380D01*
X160408952Y-63254000D01*
X160361333Y-63301619D01*
X160313714Y-63396857D01*
X160313714Y-63539714D01*
X160361333Y-63634952D01*
X160408952Y-63682571D01*
X160504190Y-63730190D01*
X160885142Y-63730190D01*
X159932761Y-63301619D02*
X159885142Y-63254000D01*
X159789904Y-63206380D01*
X159551809Y-63206380D01*
X159456571Y-63254000D01*
X159408952Y-63301619D01*
X159361333Y-63396857D01*
X159361333Y-63492095D01*
X159408952Y-63634952D01*
X159980380Y-64206380D01*
X159361333Y-64206380D01*
%TO.C,TP1*%
X161789904Y-64476380D02*
X161218476Y-64476380D01*
X161504190Y-65476380D02*
X161504190Y-64476380D01*
X160885142Y-65476380D02*
X160885142Y-64476380D01*
X160504190Y-64476380D01*
X160408952Y-64524000D01*
X160361333Y-64571619D01*
X160313714Y-64666857D01*
X160313714Y-64809714D01*
X160361333Y-64904952D01*
X160408952Y-64952571D01*
X160504190Y-65000190D01*
X160885142Y-65000190D01*
X159361333Y-65476380D02*
X159932761Y-65476380D01*
X159647047Y-65476380D02*
X159647047Y-64476380D01*
X159742285Y-64619238D01*
X159837523Y-64714476D01*
X159932761Y-64762095D01*
%TO.C,R22*%
X159710380Y-51189142D02*
X159234190Y-50855809D01*
X159710380Y-50617714D02*
X158710380Y-50617714D01*
X158710380Y-50998666D01*
X158758000Y-51093904D01*
X158805619Y-51141523D01*
X158900857Y-51189142D01*
X159043714Y-51189142D01*
X159138952Y-51141523D01*
X159186571Y-51093904D01*
X159234190Y-50998666D01*
X159234190Y-50617714D01*
X158805619Y-51570095D02*
X158758000Y-51617714D01*
X158710380Y-51712952D01*
X158710380Y-51951047D01*
X158758000Y-52046285D01*
X158805619Y-52093904D01*
X158900857Y-52141523D01*
X158996095Y-52141523D01*
X159138952Y-52093904D01*
X159710380Y-51522476D01*
X159710380Y-52141523D01*
X158805619Y-52522476D02*
X158758000Y-52570095D01*
X158710380Y-52665333D01*
X158710380Y-52903428D01*
X158758000Y-52998666D01*
X158805619Y-53046285D01*
X158900857Y-53093904D01*
X158996095Y-53093904D01*
X159138952Y-53046285D01*
X159710380Y-52474857D01*
X159710380Y-53093904D01*
%TO.C,R21*%
X159710380Y-55729142D02*
X159234190Y-55395809D01*
X159710380Y-55157714D02*
X158710380Y-55157714D01*
X158710380Y-55538666D01*
X158758000Y-55633904D01*
X158805619Y-55681523D01*
X158900857Y-55729142D01*
X159043714Y-55729142D01*
X159138952Y-55681523D01*
X159186571Y-55633904D01*
X159234190Y-55538666D01*
X159234190Y-55157714D01*
X158805619Y-56110095D02*
X158758000Y-56157714D01*
X158710380Y-56252952D01*
X158710380Y-56491047D01*
X158758000Y-56586285D01*
X158805619Y-56633904D01*
X158900857Y-56681523D01*
X158996095Y-56681523D01*
X159138952Y-56633904D01*
X159710380Y-56062476D01*
X159710380Y-56681523D01*
X159710380Y-57633904D02*
X159710380Y-57062476D01*
X159710380Y-57348190D02*
X158710380Y-57348190D01*
X158853238Y-57252952D01*
X158948476Y-57157714D01*
X158996095Y-57062476D01*
%TO.C,R20*%
X147200857Y-51506380D02*
X147534190Y-51030190D01*
X147772285Y-51506380D02*
X147772285Y-50506380D01*
X147391333Y-50506380D01*
X147296095Y-50554000D01*
X147248476Y-50601619D01*
X147200857Y-50696857D01*
X147200857Y-50839714D01*
X147248476Y-50934952D01*
X147296095Y-50982571D01*
X147391333Y-51030190D01*
X147772285Y-51030190D01*
X146819904Y-50601619D02*
X146772285Y-50554000D01*
X146677047Y-50506380D01*
X146438952Y-50506380D01*
X146343714Y-50554000D01*
X146296095Y-50601619D01*
X146248476Y-50696857D01*
X146248476Y-50792095D01*
X146296095Y-50934952D01*
X146867523Y-51506380D01*
X146248476Y-51506380D01*
X145629428Y-50506380D02*
X145534190Y-50506380D01*
X145438952Y-50554000D01*
X145391333Y-50601619D01*
X145343714Y-50696857D01*
X145296095Y-50887333D01*
X145296095Y-51125428D01*
X145343714Y-51315904D01*
X145391333Y-51411142D01*
X145438952Y-51458761D01*
X145534190Y-51506380D01*
X145629428Y-51506380D01*
X145724666Y-51458761D01*
X145772285Y-51411142D01*
X145819904Y-51315904D01*
X145867523Y-51125428D01*
X145867523Y-50887333D01*
X145819904Y-50696857D01*
X145772285Y-50601619D01*
X145724666Y-50554000D01*
X145629428Y-50506380D01*
%TO.C,R11*%
X147200857Y-54046380D02*
X147534190Y-53570190D01*
X147772285Y-54046380D02*
X147772285Y-53046380D01*
X147391333Y-53046380D01*
X147296095Y-53094000D01*
X147248476Y-53141619D01*
X147200857Y-53236857D01*
X147200857Y-53379714D01*
X147248476Y-53474952D01*
X147296095Y-53522571D01*
X147391333Y-53570190D01*
X147772285Y-53570190D01*
X146248476Y-54046380D02*
X146819904Y-54046380D01*
X146534190Y-54046380D02*
X146534190Y-53046380D01*
X146629428Y-53189238D01*
X146724666Y-53284476D01*
X146819904Y-53332095D01*
X145296095Y-54046380D02*
X145867523Y-54046380D01*
X145581809Y-54046380D02*
X145581809Y-53046380D01*
X145677047Y-53189238D01*
X145772285Y-53284476D01*
X145867523Y-53332095D01*
%TO.C,R10*%
X147200857Y-55316380D02*
X147534190Y-54840190D01*
X147772285Y-55316380D02*
X147772285Y-54316380D01*
X147391333Y-54316380D01*
X147296095Y-54364000D01*
X147248476Y-54411619D01*
X147200857Y-54506857D01*
X147200857Y-54649714D01*
X147248476Y-54744952D01*
X147296095Y-54792571D01*
X147391333Y-54840190D01*
X147772285Y-54840190D01*
X146248476Y-55316380D02*
X146819904Y-55316380D01*
X146534190Y-55316380D02*
X146534190Y-54316380D01*
X146629428Y-54459238D01*
X146724666Y-54554476D01*
X146819904Y-54602095D01*
X145629428Y-54316380D02*
X145534190Y-54316380D01*
X145438952Y-54364000D01*
X145391333Y-54411619D01*
X145343714Y-54506857D01*
X145296095Y-54697333D01*
X145296095Y-54935428D01*
X145343714Y-55125904D01*
X145391333Y-55221142D01*
X145438952Y-55268761D01*
X145534190Y-55316380D01*
X145629428Y-55316380D01*
X145724666Y-55268761D01*
X145772285Y-55221142D01*
X145819904Y-55125904D01*
X145867523Y-54935428D01*
X145867523Y-54697333D01*
X145819904Y-54506857D01*
X145772285Y-54411619D01*
X145724666Y-54364000D01*
X145629428Y-54316380D01*
%TO.C,R9*%
X163234666Y-76398380D02*
X163568000Y-75922190D01*
X163806095Y-76398380D02*
X163806095Y-75398380D01*
X163425142Y-75398380D01*
X163329904Y-75446000D01*
X163282285Y-75493619D01*
X163234666Y-75588857D01*
X163234666Y-75731714D01*
X163282285Y-75826952D01*
X163329904Y-75874571D01*
X163425142Y-75922190D01*
X163806095Y-75922190D01*
X162758476Y-76398380D02*
X162568000Y-76398380D01*
X162472761Y-76350761D01*
X162425142Y-76303142D01*
X162329904Y-76160285D01*
X162282285Y-75969809D01*
X162282285Y-75588857D01*
X162329904Y-75493619D01*
X162377523Y-75446000D01*
X162472761Y-75398380D01*
X162663238Y-75398380D01*
X162758476Y-75446000D01*
X162806095Y-75493619D01*
X162853714Y-75588857D01*
X162853714Y-75826952D01*
X162806095Y-75922190D01*
X162758476Y-75969809D01*
X162663238Y-76017428D01*
X162472761Y-76017428D01*
X162377523Y-75969809D01*
X162329904Y-75922190D01*
X162282285Y-75826952D01*
%TO.C,R8*%
X163234666Y-83256380D02*
X163568000Y-82780190D01*
X163806095Y-83256380D02*
X163806095Y-82256380D01*
X163425142Y-82256380D01*
X163329904Y-82304000D01*
X163282285Y-82351619D01*
X163234666Y-82446857D01*
X163234666Y-82589714D01*
X163282285Y-82684952D01*
X163329904Y-82732571D01*
X163425142Y-82780190D01*
X163806095Y-82780190D01*
X162663238Y-82684952D02*
X162758476Y-82637333D01*
X162806095Y-82589714D01*
X162853714Y-82494476D01*
X162853714Y-82446857D01*
X162806095Y-82351619D01*
X162758476Y-82304000D01*
X162663238Y-82256380D01*
X162472761Y-82256380D01*
X162377523Y-82304000D01*
X162329904Y-82351619D01*
X162282285Y-82446857D01*
X162282285Y-82494476D01*
X162329904Y-82589714D01*
X162377523Y-82637333D01*
X162472761Y-82684952D01*
X162663238Y-82684952D01*
X162758476Y-82732571D01*
X162806095Y-82780190D01*
X162853714Y-82875428D01*
X162853714Y-83065904D01*
X162806095Y-83161142D01*
X162758476Y-83208761D01*
X162663238Y-83256380D01*
X162472761Y-83256380D01*
X162377523Y-83208761D01*
X162329904Y-83161142D01*
X162282285Y-83065904D01*
X162282285Y-82875428D01*
X162329904Y-82780190D01*
X162377523Y-82732571D01*
X162472761Y-82684952D01*
%TO.C,JP3*%
X153741333Y-65492380D02*
X153741333Y-66206666D01*
X153788952Y-66349523D01*
X153884190Y-66444761D01*
X154027047Y-66492380D01*
X154122285Y-66492380D01*
X153265142Y-66492380D02*
X153265142Y-65492380D01*
X152884190Y-65492380D01*
X152788952Y-65540000D01*
X152741333Y-65587619D01*
X152693714Y-65682857D01*
X152693714Y-65825714D01*
X152741333Y-65920952D01*
X152788952Y-65968571D01*
X152884190Y-66016190D01*
X153265142Y-66016190D01*
X152360380Y-65492380D02*
X151741333Y-65492380D01*
X152074666Y-65873333D01*
X151931809Y-65873333D01*
X151836571Y-65920952D01*
X151788952Y-65968571D01*
X151741333Y-66063809D01*
X151741333Y-66301904D01*
X151788952Y-66397142D01*
X151836571Y-66444761D01*
X151931809Y-66492380D01*
X152217523Y-66492380D01*
X152312761Y-66444761D01*
X152360380Y-66397142D01*
X146182285Y-67762380D02*
X146753714Y-67762380D01*
X146468000Y-67762380D02*
X146468000Y-66762380D01*
X146563238Y-66905238D01*
X146658476Y-67000476D01*
X146753714Y-67048095D01*
X152001333Y-66762380D02*
X151382285Y-66762380D01*
X151715619Y-67143333D01*
X151572761Y-67143333D01*
X151477523Y-67190952D01*
X151429904Y-67238571D01*
X151382285Y-67333809D01*
X151382285Y-67571904D01*
X151429904Y-67667142D01*
X151477523Y-67714761D01*
X151572761Y-67762380D01*
X151858476Y-67762380D01*
X151953714Y-67714761D01*
X152001333Y-67667142D01*
%TO.C,JP2*%
X150350380Y-70286666D02*
X151064666Y-70286666D01*
X151207523Y-70239047D01*
X151302761Y-70143809D01*
X151350380Y-70000952D01*
X151350380Y-69905714D01*
X151350380Y-70762857D02*
X150350380Y-70762857D01*
X150350380Y-71143809D01*
X150398000Y-71239047D01*
X150445619Y-71286666D01*
X150540857Y-71334285D01*
X150683714Y-71334285D01*
X150778952Y-71286666D01*
X150826571Y-71239047D01*
X150874190Y-71143809D01*
X150874190Y-70762857D01*
X150445619Y-71715238D02*
X150398000Y-71762857D01*
X150350380Y-71858095D01*
X150350380Y-72096190D01*
X150398000Y-72191428D01*
X150445619Y-72239047D01*
X150540857Y-72286666D01*
X150636095Y-72286666D01*
X150778952Y-72239047D01*
X151350380Y-71667619D01*
X151350380Y-72286666D01*
X149550380Y-74005714D02*
X149550380Y-73434285D01*
X149550380Y-73720000D02*
X148550380Y-73720000D01*
X148693238Y-73624761D01*
X148788476Y-73529523D01*
X148836095Y-73434285D01*
X148550380Y-68186666D02*
X148550380Y-68805714D01*
X148931333Y-68472380D01*
X148931333Y-68615238D01*
X148978952Y-68710476D01*
X149026571Y-68758095D01*
X149121809Y-68805714D01*
X149359904Y-68805714D01*
X149455142Y-68758095D01*
X149502761Y-68710476D01*
X149550380Y-68615238D01*
X149550380Y-68329523D01*
X149502761Y-68234285D01*
X149455142Y-68186666D01*
%TO.C,J19*%
X161337523Y-60412380D02*
X161337523Y-61126666D01*
X161385142Y-61269523D01*
X161480380Y-61364761D01*
X161623238Y-61412380D01*
X161718476Y-61412380D01*
X160337523Y-61412380D02*
X160908952Y-61412380D01*
X160623238Y-61412380D02*
X160623238Y-60412380D01*
X160718476Y-60555238D01*
X160813714Y-60650476D01*
X160908952Y-60698095D01*
X159861333Y-61412380D02*
X159670857Y-61412380D01*
X159575619Y-61364761D01*
X159528000Y-61317142D01*
X159432761Y-61174285D01*
X159385142Y-60983809D01*
X159385142Y-60602857D01*
X159432761Y-60507619D01*
X159480380Y-60460000D01*
X159575619Y-60412380D01*
X159766095Y-60412380D01*
X159861333Y-60460000D01*
X159908952Y-60507619D01*
X159956571Y-60602857D01*
X159956571Y-60840952D01*
X159908952Y-60936190D01*
X159861333Y-60983809D01*
X159766095Y-61031428D01*
X159575619Y-61031428D01*
X159480380Y-60983809D01*
X159432761Y-60936190D01*
X159385142Y-60840952D01*
%TO.C,J18*%
X161337523Y-61682380D02*
X161337523Y-62396666D01*
X161385142Y-62539523D01*
X161480380Y-62634761D01*
X161623238Y-62682380D01*
X161718476Y-62682380D01*
X160337523Y-62682380D02*
X160908952Y-62682380D01*
X160623238Y-62682380D02*
X160623238Y-61682380D01*
X160718476Y-61825238D01*
X160813714Y-61920476D01*
X160908952Y-61968095D01*
X159766095Y-62110952D02*
X159861333Y-62063333D01*
X159908952Y-62015714D01*
X159956571Y-61920476D01*
X159956571Y-61872857D01*
X159908952Y-61777619D01*
X159861333Y-61730000D01*
X159766095Y-61682380D01*
X159575619Y-61682380D01*
X159480380Y-61730000D01*
X159432761Y-61777619D01*
X159385142Y-61872857D01*
X159385142Y-61920476D01*
X159432761Y-62015714D01*
X159480380Y-62063333D01*
X159575619Y-62110952D01*
X159766095Y-62110952D01*
X159861333Y-62158571D01*
X159908952Y-62206190D01*
X159956571Y-62301428D01*
X159956571Y-62491904D01*
X159908952Y-62587142D01*
X159861333Y-62634761D01*
X159766095Y-62682380D01*
X159575619Y-62682380D01*
X159480380Y-62634761D01*
X159432761Y-62587142D01*
X159385142Y-62491904D01*
X159385142Y-62301428D01*
X159432761Y-62206190D01*
X159480380Y-62158571D01*
X159575619Y-62110952D01*
%TO.C,J17*%
X161337523Y-67016380D02*
X161337523Y-67730666D01*
X161385142Y-67873523D01*
X161480380Y-67968761D01*
X161623238Y-68016380D01*
X161718476Y-68016380D01*
X160337523Y-68016380D02*
X160908952Y-68016380D01*
X160623238Y-68016380D02*
X160623238Y-67016380D01*
X160718476Y-67159238D01*
X160813714Y-67254476D01*
X160908952Y-67302095D01*
X160004190Y-67016380D02*
X159337523Y-67016380D01*
X159766095Y-68016380D01*
%TO.C,J16*%
X161337523Y-65746380D02*
X161337523Y-66460666D01*
X161385142Y-66603523D01*
X161480380Y-66698761D01*
X161623238Y-66746380D01*
X161718476Y-66746380D01*
X160337523Y-66746380D02*
X160908952Y-66746380D01*
X160623238Y-66746380D02*
X160623238Y-65746380D01*
X160718476Y-65889238D01*
X160813714Y-65984476D01*
X160908952Y-66032095D01*
X159480380Y-65746380D02*
X159670857Y-65746380D01*
X159766095Y-65794000D01*
X159813714Y-65841619D01*
X159908952Y-65984476D01*
X159956571Y-66174952D01*
X159956571Y-66555904D01*
X159908952Y-66651142D01*
X159861333Y-66698761D01*
X159766095Y-66746380D01*
X159575619Y-66746380D01*
X159480380Y-66698761D01*
X159432761Y-66651142D01*
X159385142Y-66555904D01*
X159385142Y-66317809D01*
X159432761Y-66222571D01*
X159480380Y-66174952D01*
X159575619Y-66127333D01*
X159766095Y-66127333D01*
X159861333Y-66174952D01*
X159908952Y-66222571D01*
X159956571Y-66317809D01*
%TO.C,J15*%
X161337523Y-68286380D02*
X161337523Y-69000666D01*
X161385142Y-69143523D01*
X161480380Y-69238761D01*
X161623238Y-69286380D01*
X161718476Y-69286380D01*
X160337523Y-69286380D02*
X160908952Y-69286380D01*
X160623238Y-69286380D02*
X160623238Y-68286380D01*
X160718476Y-68429238D01*
X160813714Y-68524476D01*
X160908952Y-68572095D01*
X159432761Y-68286380D02*
X159908952Y-68286380D01*
X159956571Y-68762571D01*
X159908952Y-68714952D01*
X159813714Y-68667333D01*
X159575619Y-68667333D01*
X159480380Y-68714952D01*
X159432761Y-68762571D01*
X159385142Y-68857809D01*
X159385142Y-69095904D01*
X159432761Y-69191142D01*
X159480380Y-69238761D01*
X159575619Y-69286380D01*
X159813714Y-69286380D01*
X159908952Y-69238761D01*
X159956571Y-69191142D01*
%TO.C,J14*%
X161337523Y-69556380D02*
X161337523Y-70270666D01*
X161385142Y-70413523D01*
X161480380Y-70508761D01*
X161623238Y-70556380D01*
X161718476Y-70556380D01*
X160337523Y-70556380D02*
X160908952Y-70556380D01*
X160623238Y-70556380D02*
X160623238Y-69556380D01*
X160718476Y-69699238D01*
X160813714Y-69794476D01*
X160908952Y-69842095D01*
X159480380Y-69889714D02*
X159480380Y-70556380D01*
X159718476Y-69508761D02*
X159956571Y-70223047D01*
X159337523Y-70223047D01*
%TO.C,J13*%
X161337523Y-70826380D02*
X161337523Y-71540666D01*
X161385142Y-71683523D01*
X161480380Y-71778761D01*
X161623238Y-71826380D01*
X161718476Y-71826380D01*
X160337523Y-71826380D02*
X160908952Y-71826380D01*
X160623238Y-71826380D02*
X160623238Y-70826380D01*
X160718476Y-70969238D01*
X160813714Y-71064476D01*
X160908952Y-71112095D01*
X160004190Y-70826380D02*
X159385142Y-70826380D01*
X159718476Y-71207333D01*
X159575619Y-71207333D01*
X159480380Y-71254952D01*
X159432761Y-71302571D01*
X159385142Y-71397809D01*
X159385142Y-71635904D01*
X159432761Y-71731142D01*
X159480380Y-71778761D01*
X159575619Y-71826380D01*
X159861333Y-71826380D01*
X159956571Y-71778761D01*
X160004190Y-71731142D01*
%TO.C,J12*%
X161337523Y-72096380D02*
X161337523Y-72810666D01*
X161385142Y-72953523D01*
X161480380Y-73048761D01*
X161623238Y-73096380D01*
X161718476Y-73096380D01*
X160337523Y-73096380D02*
X160908952Y-73096380D01*
X160623238Y-73096380D02*
X160623238Y-72096380D01*
X160718476Y-72239238D01*
X160813714Y-72334476D01*
X160908952Y-72382095D01*
X159956571Y-72191619D02*
X159908952Y-72144000D01*
X159813714Y-72096380D01*
X159575619Y-72096380D01*
X159480380Y-72144000D01*
X159432761Y-72191619D01*
X159385142Y-72286857D01*
X159385142Y-72382095D01*
X159432761Y-72524952D01*
X160004190Y-73096380D01*
X159385142Y-73096380D01*
%TO.C,J11*%
X161337523Y-73366380D02*
X161337523Y-74080666D01*
X161385142Y-74223523D01*
X161480380Y-74318761D01*
X161623238Y-74366380D01*
X161718476Y-74366380D01*
X160337523Y-74366380D02*
X160908952Y-74366380D01*
X160623238Y-74366380D02*
X160623238Y-73366380D01*
X160718476Y-73509238D01*
X160813714Y-73604476D01*
X160908952Y-73652095D01*
X159385142Y-74366380D02*
X159956571Y-74366380D01*
X159670857Y-74366380D02*
X159670857Y-73366380D01*
X159766095Y-73509238D01*
X159861333Y-73604476D01*
X159956571Y-73652095D01*
%TO.C,D7*%
X134636095Y-98790380D02*
X134636095Y-97790380D01*
X134398000Y-97790380D01*
X134255142Y-97838000D01*
X134159904Y-97933238D01*
X134112285Y-98028476D01*
X134064666Y-98218952D01*
X134064666Y-98361809D01*
X134112285Y-98552285D01*
X134159904Y-98647523D01*
X134255142Y-98742761D01*
X134398000Y-98790380D01*
X134636095Y-98790380D01*
X133731333Y-97790380D02*
X133064666Y-97790380D01*
X133493238Y-98790380D01*
%TO.C,D6*%
X125666095Y-44180380D02*
X125666095Y-43180380D01*
X125428000Y-43180380D01*
X125285142Y-43228000D01*
X125189904Y-43323238D01*
X125142285Y-43418476D01*
X125094666Y-43608952D01*
X125094666Y-43751809D01*
X125142285Y-43942285D01*
X125189904Y-44037523D01*
X125285142Y-44132761D01*
X125428000Y-44180380D01*
X125666095Y-44180380D01*
X124237523Y-43180380D02*
X124428000Y-43180380D01*
X124523238Y-43228000D01*
X124570857Y-43275619D01*
X124666095Y-43418476D01*
X124713714Y-43608952D01*
X124713714Y-43989904D01*
X124666095Y-44085142D01*
X124618476Y-44132761D01*
X124523238Y-44180380D01*
X124332761Y-44180380D01*
X124237523Y-44132761D01*
X124189904Y-44085142D01*
X124142285Y-43989904D01*
X124142285Y-43751809D01*
X124189904Y-43656571D01*
X124237523Y-43608952D01*
X124332761Y-43561333D01*
X124523238Y-43561333D01*
X124618476Y-43608952D01*
X124666095Y-43656571D01*
X124713714Y-43751809D01*
%TO.C,C33*%
X149740857Y-63349142D02*
X149788476Y-63396761D01*
X149931333Y-63444380D01*
X150026571Y-63444380D01*
X150169428Y-63396761D01*
X150264666Y-63301523D01*
X150312285Y-63206285D01*
X150359904Y-63015809D01*
X150359904Y-62872952D01*
X150312285Y-62682476D01*
X150264666Y-62587238D01*
X150169428Y-62492000D01*
X150026571Y-62444380D01*
X149931333Y-62444380D01*
X149788476Y-62492000D01*
X149740857Y-62539619D01*
X149407523Y-62444380D02*
X148788476Y-62444380D01*
X149121809Y-62825333D01*
X148978952Y-62825333D01*
X148883714Y-62872952D01*
X148836095Y-62920571D01*
X148788476Y-63015809D01*
X148788476Y-63253904D01*
X148836095Y-63349142D01*
X148883714Y-63396761D01*
X148978952Y-63444380D01*
X149264666Y-63444380D01*
X149359904Y-63396761D01*
X149407523Y-63349142D01*
X148455142Y-62444380D02*
X147836095Y-62444380D01*
X148169428Y-62825333D01*
X148026571Y-62825333D01*
X147931333Y-62872952D01*
X147883714Y-62920571D01*
X147836095Y-63015809D01*
X147836095Y-63253904D01*
X147883714Y-63349142D01*
X147931333Y-63396761D01*
X148026571Y-63444380D01*
X148312285Y-63444380D01*
X148407523Y-63396761D01*
X148455142Y-63349142D01*
%TO.C,C31*%
X144883142Y-64381142D02*
X144930761Y-64333523D01*
X144978380Y-64190666D01*
X144978380Y-64095428D01*
X144930761Y-63952571D01*
X144835523Y-63857333D01*
X144740285Y-63809714D01*
X144549809Y-63762095D01*
X144406952Y-63762095D01*
X144216476Y-63809714D01*
X144121238Y-63857333D01*
X144026000Y-63952571D01*
X143978380Y-64095428D01*
X143978380Y-64190666D01*
X144026000Y-64333523D01*
X144073619Y-64381142D01*
X143978380Y-64714476D02*
X143978380Y-65333523D01*
X144359333Y-65000190D01*
X144359333Y-65143047D01*
X144406952Y-65238285D01*
X144454571Y-65285904D01*
X144549809Y-65333523D01*
X144787904Y-65333523D01*
X144883142Y-65285904D01*
X144930761Y-65238285D01*
X144978380Y-65143047D01*
X144978380Y-64857333D01*
X144930761Y-64762095D01*
X144883142Y-64714476D01*
X144978380Y-66285904D02*
X144978380Y-65714476D01*
X144978380Y-66000190D02*
X143978380Y-66000190D01*
X144121238Y-65904952D01*
X144216476Y-65809714D01*
X144264095Y-65714476D01*
%TO.C,C30*%
X145645142Y-76573142D02*
X145692761Y-76525523D01*
X145740380Y-76382666D01*
X145740380Y-76287428D01*
X145692761Y-76144571D01*
X145597523Y-76049333D01*
X145502285Y-76001714D01*
X145311809Y-75954095D01*
X145168952Y-75954095D01*
X144978476Y-76001714D01*
X144883238Y-76049333D01*
X144788000Y-76144571D01*
X144740380Y-76287428D01*
X144740380Y-76382666D01*
X144788000Y-76525523D01*
X144835619Y-76573142D01*
X144740380Y-76906476D02*
X144740380Y-77525523D01*
X145121333Y-77192190D01*
X145121333Y-77335047D01*
X145168952Y-77430285D01*
X145216571Y-77477904D01*
X145311809Y-77525523D01*
X145549904Y-77525523D01*
X145645142Y-77477904D01*
X145692761Y-77430285D01*
X145740380Y-77335047D01*
X145740380Y-77049333D01*
X145692761Y-76954095D01*
X145645142Y-76906476D01*
X144740380Y-78144571D02*
X144740380Y-78239809D01*
X144788000Y-78335047D01*
X144835619Y-78382666D01*
X144930857Y-78430285D01*
X145121333Y-78477904D01*
X145359428Y-78477904D01*
X145549904Y-78430285D01*
X145645142Y-78382666D01*
X145692761Y-78335047D01*
X145740380Y-78239809D01*
X145740380Y-78144571D01*
X145692761Y-78049333D01*
X145645142Y-78001714D01*
X145549904Y-77954095D01*
X145359428Y-77906476D01*
X145121333Y-77906476D01*
X144930857Y-77954095D01*
X144835619Y-78001714D01*
X144788000Y-78049333D01*
X144740380Y-78144571D01*
%TO.C,C29*%
X156313142Y-66259642D02*
X156360761Y-66212023D01*
X156408380Y-66069166D01*
X156408380Y-65973928D01*
X156360761Y-65831071D01*
X156265523Y-65735833D01*
X156170285Y-65688214D01*
X155979809Y-65640595D01*
X155836952Y-65640595D01*
X155646476Y-65688214D01*
X155551238Y-65735833D01*
X155456000Y-65831071D01*
X155408380Y-65973928D01*
X155408380Y-66069166D01*
X155456000Y-66212023D01*
X155503619Y-66259642D01*
X155503619Y-66640595D02*
X155456000Y-66688214D01*
X155408380Y-66783452D01*
X155408380Y-67021547D01*
X155456000Y-67116785D01*
X155503619Y-67164404D01*
X155598857Y-67212023D01*
X155694095Y-67212023D01*
X155836952Y-67164404D01*
X156408380Y-66592976D01*
X156408380Y-67212023D01*
X156408380Y-67688214D02*
X156408380Y-67878690D01*
X156360761Y-67973928D01*
X156313142Y-68021547D01*
X156170285Y-68116785D01*
X155979809Y-68164404D01*
X155598857Y-68164404D01*
X155503619Y-68116785D01*
X155456000Y-68069166D01*
X155408380Y-67973928D01*
X155408380Y-67783452D01*
X155456000Y-67688214D01*
X155503619Y-67640595D01*
X155598857Y-67592976D01*
X155836952Y-67592976D01*
X155932190Y-67640595D01*
X155979809Y-67688214D01*
X156027428Y-67783452D01*
X156027428Y-67973928D01*
X155979809Y-68069166D01*
X155932190Y-68116785D01*
X155836952Y-68164404D01*
%TO.C,C28*%
X143613142Y-76573142D02*
X143660761Y-76525523D01*
X143708380Y-76382666D01*
X143708380Y-76287428D01*
X143660761Y-76144571D01*
X143565523Y-76049333D01*
X143470285Y-76001714D01*
X143279809Y-75954095D01*
X143136952Y-75954095D01*
X142946476Y-76001714D01*
X142851238Y-76049333D01*
X142756000Y-76144571D01*
X142708380Y-76287428D01*
X142708380Y-76382666D01*
X142756000Y-76525523D01*
X142803619Y-76573142D01*
X142803619Y-76954095D02*
X142756000Y-77001714D01*
X142708380Y-77096952D01*
X142708380Y-77335047D01*
X142756000Y-77430285D01*
X142803619Y-77477904D01*
X142898857Y-77525523D01*
X142994095Y-77525523D01*
X143136952Y-77477904D01*
X143708380Y-76906476D01*
X143708380Y-77525523D01*
X143136952Y-78096952D02*
X143089333Y-78001714D01*
X143041714Y-77954095D01*
X142946476Y-77906476D01*
X142898857Y-77906476D01*
X142803619Y-77954095D01*
X142756000Y-78001714D01*
X142708380Y-78096952D01*
X142708380Y-78287428D01*
X142756000Y-78382666D01*
X142803619Y-78430285D01*
X142898857Y-78477904D01*
X142946476Y-78477904D01*
X143041714Y-78430285D01*
X143089333Y-78382666D01*
X143136952Y-78287428D01*
X143136952Y-78096952D01*
X143184571Y-78001714D01*
X143232190Y-77954095D01*
X143327428Y-77906476D01*
X143517904Y-77906476D01*
X143613142Y-77954095D01*
X143660761Y-78001714D01*
X143708380Y-78096952D01*
X143708380Y-78287428D01*
X143660761Y-78382666D01*
X143613142Y-78430285D01*
X143517904Y-78477904D01*
X143327428Y-78477904D01*
X143232190Y-78430285D01*
X143184571Y-78382666D01*
X143136952Y-78287428D01*
%TO.C,C23*%
X143613142Y-64381142D02*
X143660761Y-64333523D01*
X143708380Y-64190666D01*
X143708380Y-64095428D01*
X143660761Y-63952571D01*
X143565523Y-63857333D01*
X143470285Y-63809714D01*
X143279809Y-63762095D01*
X143136952Y-63762095D01*
X142946476Y-63809714D01*
X142851238Y-63857333D01*
X142756000Y-63952571D01*
X142708380Y-64095428D01*
X142708380Y-64190666D01*
X142756000Y-64333523D01*
X142803619Y-64381142D01*
X142803619Y-64762095D02*
X142756000Y-64809714D01*
X142708380Y-64904952D01*
X142708380Y-65143047D01*
X142756000Y-65238285D01*
X142803619Y-65285904D01*
X142898857Y-65333523D01*
X142994095Y-65333523D01*
X143136952Y-65285904D01*
X143708380Y-64714476D01*
X143708380Y-65333523D01*
X142708380Y-65666857D02*
X142708380Y-66285904D01*
X143089333Y-65952571D01*
X143089333Y-66095428D01*
X143136952Y-66190666D01*
X143184571Y-66238285D01*
X143279809Y-66285904D01*
X143517904Y-66285904D01*
X143613142Y-66238285D01*
X143660761Y-66190666D01*
X143708380Y-66095428D01*
X143708380Y-65809714D01*
X143660761Y-65714476D01*
X143613142Y-65666857D01*
%TO.C,C22*%
X134246857Y-68843142D02*
X134294476Y-68890761D01*
X134437333Y-68938380D01*
X134532571Y-68938380D01*
X134675428Y-68890761D01*
X134770666Y-68795523D01*
X134818285Y-68700285D01*
X134865904Y-68509809D01*
X134865904Y-68366952D01*
X134818285Y-68176476D01*
X134770666Y-68081238D01*
X134675428Y-67986000D01*
X134532571Y-67938380D01*
X134437333Y-67938380D01*
X134294476Y-67986000D01*
X134246857Y-68033619D01*
X133865904Y-68033619D02*
X133818285Y-67986000D01*
X133723047Y-67938380D01*
X133484952Y-67938380D01*
X133389714Y-67986000D01*
X133342095Y-68033619D01*
X133294476Y-68128857D01*
X133294476Y-68224095D01*
X133342095Y-68366952D01*
X133913523Y-68938380D01*
X133294476Y-68938380D01*
X132913523Y-68033619D02*
X132865904Y-67986000D01*
X132770666Y-67938380D01*
X132532571Y-67938380D01*
X132437333Y-67986000D01*
X132389714Y-68033619D01*
X132342095Y-68128857D01*
X132342095Y-68224095D01*
X132389714Y-68366952D01*
X132961142Y-68938380D01*
X132342095Y-68938380D01*
%TO.C,C21*%
X135871357Y-51759142D02*
X135918976Y-51806761D01*
X136061833Y-51854380D01*
X136157071Y-51854380D01*
X136299928Y-51806761D01*
X136395166Y-51711523D01*
X136442785Y-51616285D01*
X136490404Y-51425809D01*
X136490404Y-51282952D01*
X136442785Y-51092476D01*
X136395166Y-50997238D01*
X136299928Y-50902000D01*
X136157071Y-50854380D01*
X136061833Y-50854380D01*
X135918976Y-50902000D01*
X135871357Y-50949619D01*
X135490404Y-50949619D02*
X135442785Y-50902000D01*
X135347547Y-50854380D01*
X135109452Y-50854380D01*
X135014214Y-50902000D01*
X134966595Y-50949619D01*
X134918976Y-51044857D01*
X134918976Y-51140095D01*
X134966595Y-51282952D01*
X135538023Y-51854380D01*
X134918976Y-51854380D01*
X133966595Y-51854380D02*
X134538023Y-51854380D01*
X134252309Y-51854380D02*
X134252309Y-50854380D01*
X134347547Y-50997238D01*
X134442785Y-51092476D01*
X134538023Y-51140095D01*
%TO.C,C20*%
X147200857Y-52681142D02*
X147248476Y-52728761D01*
X147391333Y-52776380D01*
X147486571Y-52776380D01*
X147629428Y-52728761D01*
X147724666Y-52633523D01*
X147772285Y-52538285D01*
X147819904Y-52347809D01*
X147819904Y-52204952D01*
X147772285Y-52014476D01*
X147724666Y-51919238D01*
X147629428Y-51824000D01*
X147486571Y-51776380D01*
X147391333Y-51776380D01*
X147248476Y-51824000D01*
X147200857Y-51871619D01*
X146819904Y-51871619D02*
X146772285Y-51824000D01*
X146677047Y-51776380D01*
X146438952Y-51776380D01*
X146343714Y-51824000D01*
X146296095Y-51871619D01*
X146248476Y-51966857D01*
X146248476Y-52062095D01*
X146296095Y-52204952D01*
X146867523Y-52776380D01*
X146248476Y-52776380D01*
X145629428Y-51776380D02*
X145534190Y-51776380D01*
X145438952Y-51824000D01*
X145391333Y-51871619D01*
X145343714Y-51966857D01*
X145296095Y-52157333D01*
X145296095Y-52395428D01*
X145343714Y-52585904D01*
X145391333Y-52681142D01*
X145438952Y-52728761D01*
X145534190Y-52776380D01*
X145629428Y-52776380D01*
X145724666Y-52728761D01*
X145772285Y-52681142D01*
X145819904Y-52585904D01*
X145867523Y-52395428D01*
X145867523Y-52157333D01*
X145819904Y-51966857D01*
X145772285Y-51871619D01*
X145724666Y-51824000D01*
X145629428Y-51776380D01*
%TO.C,C19*%
X134246857Y-72653142D02*
X134294476Y-72700761D01*
X134437333Y-72748380D01*
X134532571Y-72748380D01*
X134675428Y-72700761D01*
X134770666Y-72605523D01*
X134818285Y-72510285D01*
X134865904Y-72319809D01*
X134865904Y-72176952D01*
X134818285Y-71986476D01*
X134770666Y-71891238D01*
X134675428Y-71796000D01*
X134532571Y-71748380D01*
X134437333Y-71748380D01*
X134294476Y-71796000D01*
X134246857Y-71843619D01*
X133294476Y-72748380D02*
X133865904Y-72748380D01*
X133580190Y-72748380D02*
X133580190Y-71748380D01*
X133675428Y-71891238D01*
X133770666Y-71986476D01*
X133865904Y-72034095D01*
X132818285Y-72748380D02*
X132627809Y-72748380D01*
X132532571Y-72700761D01*
X132484952Y-72653142D01*
X132389714Y-72510285D01*
X132342095Y-72319809D01*
X132342095Y-71938857D01*
X132389714Y-71843619D01*
X132437333Y-71796000D01*
X132532571Y-71748380D01*
X132723047Y-71748380D01*
X132818285Y-71796000D01*
X132865904Y-71843619D01*
X132913523Y-71938857D01*
X132913523Y-72176952D01*
X132865904Y-72272190D01*
X132818285Y-72319809D01*
X132723047Y-72367428D01*
X132532571Y-72367428D01*
X132437333Y-72319809D01*
X132389714Y-72272190D01*
X132342095Y-72176952D01*
%TO.C,C18*%
X129995142Y-79853642D02*
X130042761Y-79806023D01*
X130090380Y-79663166D01*
X130090380Y-79567928D01*
X130042761Y-79425071D01*
X129947523Y-79329833D01*
X129852285Y-79282214D01*
X129661809Y-79234595D01*
X129518952Y-79234595D01*
X129328476Y-79282214D01*
X129233238Y-79329833D01*
X129138000Y-79425071D01*
X129090380Y-79567928D01*
X129090380Y-79663166D01*
X129138000Y-79806023D01*
X129185619Y-79853642D01*
X130090380Y-80806023D02*
X130090380Y-80234595D01*
X130090380Y-80520309D02*
X129090380Y-80520309D01*
X129233238Y-80425071D01*
X129328476Y-80329833D01*
X129376095Y-80234595D01*
X129518952Y-81377452D02*
X129471333Y-81282214D01*
X129423714Y-81234595D01*
X129328476Y-81186976D01*
X129280857Y-81186976D01*
X129185619Y-81234595D01*
X129138000Y-81282214D01*
X129090380Y-81377452D01*
X129090380Y-81567928D01*
X129138000Y-81663166D01*
X129185619Y-81710785D01*
X129280857Y-81758404D01*
X129328476Y-81758404D01*
X129423714Y-81710785D01*
X129471333Y-81663166D01*
X129518952Y-81567928D01*
X129518952Y-81377452D01*
X129566571Y-81282214D01*
X129614190Y-81234595D01*
X129709428Y-81186976D01*
X129899904Y-81186976D01*
X129995142Y-81234595D01*
X130042761Y-81282214D01*
X130090380Y-81377452D01*
X130090380Y-81567928D01*
X130042761Y-81663166D01*
X129995142Y-81710785D01*
X129899904Y-81758404D01*
X129709428Y-81758404D01*
X129614190Y-81710785D01*
X129566571Y-81663166D01*
X129518952Y-81567928D01*
%TO.C,C17*%
X129897142Y-75557142D02*
X129944761Y-75509523D01*
X129992380Y-75366666D01*
X129992380Y-75271428D01*
X129944761Y-75128571D01*
X129849523Y-75033333D01*
X129754285Y-74985714D01*
X129563809Y-74938095D01*
X129420952Y-74938095D01*
X129230476Y-74985714D01*
X129135238Y-75033333D01*
X129040000Y-75128571D01*
X128992380Y-75271428D01*
X128992380Y-75366666D01*
X129040000Y-75509523D01*
X129087619Y-75557142D01*
X129992380Y-76509523D02*
X129992380Y-75938095D01*
X129992380Y-76223809D02*
X128992380Y-76223809D01*
X129135238Y-76128571D01*
X129230476Y-76033333D01*
X129278095Y-75938095D01*
X128992380Y-76842857D02*
X128992380Y-77509523D01*
X129992380Y-77080952D01*
%TO.C,C2*%
X163234666Y-78335142D02*
X163282285Y-78382761D01*
X163425142Y-78430380D01*
X163520380Y-78430380D01*
X163663238Y-78382761D01*
X163758476Y-78287523D01*
X163806095Y-78192285D01*
X163853714Y-78001809D01*
X163853714Y-77858952D01*
X163806095Y-77668476D01*
X163758476Y-77573238D01*
X163663238Y-77478000D01*
X163520380Y-77430380D01*
X163425142Y-77430380D01*
X163282285Y-77478000D01*
X163234666Y-77525619D01*
X162853714Y-77525619D02*
X162806095Y-77478000D01*
X162710857Y-77430380D01*
X162472761Y-77430380D01*
X162377523Y-77478000D01*
X162329904Y-77525619D01*
X162282285Y-77620857D01*
X162282285Y-77716095D01*
X162329904Y-77858952D01*
X162901333Y-78430380D01*
X162282285Y-78430380D01*
%TO.C,C1*%
X163234666Y-85193142D02*
X163282285Y-85240761D01*
X163425142Y-85288380D01*
X163520380Y-85288380D01*
X163663238Y-85240761D01*
X163758476Y-85145523D01*
X163806095Y-85050285D01*
X163853714Y-84859809D01*
X163853714Y-84716952D01*
X163806095Y-84526476D01*
X163758476Y-84431238D01*
X163663238Y-84336000D01*
X163520380Y-84288380D01*
X163425142Y-84288380D01*
X163282285Y-84336000D01*
X163234666Y-84383619D01*
X162282285Y-85288380D02*
X162853714Y-85288380D01*
X162568000Y-85288380D02*
X162568000Y-84288380D01*
X162663238Y-84431238D01*
X162758476Y-84526476D01*
X162853714Y-84574095D01*
%TD*%
M02*
