M48
; DRILL file {KiCad (5.1.10)-1} date 02/25/22 11:21:24
; FORMAT={-:-/ absolute / inch / decimal}
; #@! TF.CreationDate,2022-02-25T11:21:24+01:00
; #@! TF.GenerationSoftware,Kicad,Pcbnew,(5.1.10)-1
; #@! TF.FileFunction,Plated,1,4,PTH
FMAT,2
INCH
T1C0.0157
T2C0.0394
T3C0.0472
%
G90
G05
T1
X4.25Y-4.225
X4.3Y-4.275
X4.3Y-4.375
X4.45Y-4.2
X4.45Y-4.4
X4.45Y-4.5
X4.45Y-4.55
X4.45Y-4.75
X4.45Y-4.9
X4.45Y-5.1
X4.7Y-4.2
X4.7Y-4.875
X4.725Y-4.075
X4.75Y-4.2
X4.75Y-4.875
X4.8Y-4.15
X4.8Y-4.3
X4.8Y-4.5
X4.8Y-4.55
X4.8Y-4.6
X4.8Y-4.65
X4.8Y-5.0
X4.9037Y-2.39
X4.9387Y-2.54
X4.945Y-2.185
X4.945Y-2.235
X4.98Y-3.26
X4.98Y-3.33
X5.0213Y-3.03
X5.0213Y-3.17
X5.08Y-1.94
X5.08Y-2.0
X5.08Y-3.82
X5.09Y-2.39
X5.13Y-2.85
X5.14Y-2.39
X5.18Y-3.27
X5.19Y-3.47
X5.1902Y-3.7198
X5.23Y-2.08
X5.32Y-3.7
X5.32Y-3.9
X5.4Y-3.7265
X5.4086Y-2.1586
X5.42Y-2.5
X5.425Y-4.05
X5.45Y-2.79
X5.4563Y-2.7103
X5.46Y-2.08
X5.46Y-2.16
X5.4698Y-2.3398
X5.47Y-2.38
X5.48Y-2.42
X5.4828Y-2.8118
X5.49Y-3.83
X5.49Y-4.05
X5.52Y-3.02
X5.54Y-2.53
X5.55Y-3.14
X5.57Y-2.91
X5.59Y-2.96
X5.6Y-3.33
X5.6Y-4.2
X5.6Y-4.4
X5.6Y-4.5
X5.6Y-4.55
X5.6Y-4.75
X5.6Y-4.9
X5.6Y-5.1
X5.6002Y-3.7398
X5.6002Y-3.9502
X5.625Y-3.975
X5.64Y-2.82
X5.64Y-3.36
X5.64Y-3.41
X5.64Y-3.47
X5.65Y-3.11
X5.66Y-3.65
X5.67Y-2.17
X5.6986Y-2.0714
X5.7Y-3.11
X5.71Y-3.36
X5.72Y-3.54
X5.73Y-2.6
X5.77Y-2.59
X5.77Y-3.36
X5.79Y-2.8
X5.79Y-2.84
X5.79Y-2.88
X5.81Y-3.16
X5.83Y-2.06
X5.83Y-2.9
X5.83Y-3.36
X5.85Y-3.19
X5.875Y-4.2
X5.875Y-4.875
X5.877Y-3.073
X5.89Y-3.36
X5.9144Y-4.875
X5.925Y-4.075
X5.925Y-4.2
X5.95Y-2.72
X5.95Y-4.3
X5.95Y-4.5
X5.95Y-4.55
X5.95Y-4.6
X5.95Y-4.65
X5.95Y-4.95
X5.96Y-2.1
X5.96Y-2.32
X5.96Y-3.05
X6.0232Y-3.3568
X6.025Y-4.15
X6.05Y-2.53
X6.08Y-3.87
X6.11Y-2.71
X6.12Y-3.3
X6.13Y-2.63
X6.13Y-3.03
X6.17Y-3.0
X6.17Y-3.27
X6.19Y-2.74
X6.23Y-2.26
X6.27Y-1.98
X6.3Y-3.8
X6.33Y-3.39
X6.4Y-1.98
X6.4Y-2.08
X6.4Y-2.18
X6.4Y-2.28
X6.4Y-2.38
X6.4Y-2.48
X6.4Y-2.58
X6.4Y-2.68
X6.4Y-2.78
X6.4Y-2.88
X6.41Y-1.88
X6.51Y-3.21
X6.59Y-2.94
X6.85Y-4.2
X6.85Y-4.4
X6.85Y-4.5
X6.85Y-4.55
X6.85Y-4.75
X6.85Y-4.9
X6.85Y-5.1
X7.05Y-4.075
X7.1Y-4.2
X7.1Y-4.875
X7.15Y-4.2
X7.15Y-4.875
X7.2Y-4.3
X7.2Y-4.5
X7.2Y-4.55
X7.2Y-4.6
X7.2Y-4.65
X7.2Y-4.95
T2
X4.8Y-2.17
X4.8Y-2.27
X4.8Y-2.37
X4.8Y-2.47
X4.8Y-2.57
X4.8Y-2.67
X4.8Y-2.77
X4.8Y-2.87
X4.8Y-3.07
X4.8Y-3.17
X4.8Y-3.27
X4.8Y-3.37
X4.8Y-3.47
X4.8Y-3.57
X5.45Y-3.01
X5.45Y-3.11
X5.45Y-3.21
X5.45Y-3.31
X5.88Y-2.01
X5.88Y-2.11
X5.88Y-2.21
X5.88Y-2.31
X6.03Y-1.91
X6.03Y-2.01
X6.03Y-2.11
X6.03Y-2.21
X6.03Y-2.31
X6.03Y-2.41
X6.18Y-2.01
X6.18Y-2.11
X6.18Y-2.21
X6.18Y-2.31
X6.18Y-2.41
X6.18Y-2.51
X6.56Y-2.02
X6.56Y-2.12
X6.56Y-2.22
X6.56Y-2.32
X6.7Y-1.81
X6.7Y-1.91
X6.7Y-2.01
X6.7Y-2.11
X6.7Y-2.21
X6.7Y-2.31
X6.7Y-2.41
X6.7Y-2.51
X6.7Y-2.61
X6.7Y-2.71
X6.7Y-2.87
X6.7Y-2.97
X6.7Y-3.07
X6.7Y-3.17
X6.7Y-3.27
X6.7Y-3.37
X6.7Y-3.47
X6.7Y-3.57
T3
X4.8522Y-1.99
X4.99Y-1.99
T0
M30
