%TF.GenerationSoftware,KiCad,Pcbnew,(6.0.2)*%
%TF.CreationDate,2022-03-11T12:30:30+01:00*%
%TF.ProjectId,GestureControl,47657374-7572-4654-936f-6e74726f6c2e,V0.1*%
%TF.SameCoordinates,Original*%
%TF.FileFunction,Copper,L1,Top*%
%TF.FilePolarity,Positive*%
%FSLAX46Y46*%
G04 Gerber Fmt 4.6, Leading zero omitted, Abs format (unit mm)*
G04 Created by KiCad (PCBNEW (6.0.2)) date 2022-03-11 12:30:30*
%MOMM*%
%LPD*%
G01*
G04 APERTURE LIST*
G04 Aperture macros list*
%AMRoundRect*
0 Rectangle with rounded corners*
0 $1 Rounding radius*
0 $2 $3 $4 $5 $6 $7 $8 $9 X,Y pos of 4 corners*
0 Add a 4 corners polygon primitive as box body*
4,1,4,$2,$3,$4,$5,$6,$7,$8,$9,$2,$3,0*
0 Add four circle primitives for the rounded corners*
1,1,$1+$1,$2,$3*
1,1,$1+$1,$4,$5*
1,1,$1+$1,$6,$7*
1,1,$1+$1,$8,$9*
0 Add four rect primitives between the rounded corners*
20,1,$1+$1,$2,$3,$4,$5,0*
20,1,$1+$1,$4,$5,$6,$7,0*
20,1,$1+$1,$6,$7,$8,$9,0*
20,1,$1+$1,$8,$9,$2,$3,0*%
G04 Aperture macros list end*
%TA.AperFunction,ComponentPad*%
%ADD10R,1.700000X1.700000*%
%TD*%
%TA.AperFunction,ComponentPad*%
%ADD11O,1.700000X1.700000*%
%TD*%
%TA.AperFunction,SMDPad,CuDef*%
%ADD12RoundRect,0.250000X-1.500000X-0.550000X1.500000X-0.550000X1.500000X0.550000X-1.500000X0.550000X0*%
%TD*%
%TA.AperFunction,SMDPad,CuDef*%
%ADD13RoundRect,0.250000X-0.337500X-0.475000X0.337500X-0.475000X0.337500X0.475000X-0.337500X0.475000X0*%
%TD*%
%TA.AperFunction,SMDPad,CuDef*%
%ADD14RoundRect,0.250000X0.337500X0.475000X-0.337500X0.475000X-0.337500X-0.475000X0.337500X-0.475000X0*%
%TD*%
%TA.AperFunction,SMDPad,CuDef*%
%ADD15RoundRect,0.237500X-0.300000X-0.237500X0.300000X-0.237500X0.300000X0.237500X-0.300000X0.237500X0*%
%TD*%
%TA.AperFunction,SMDPad,CuDef*%
%ADD16RoundRect,0.237500X0.300000X0.237500X-0.300000X0.237500X-0.300000X-0.237500X0.300000X-0.237500X0*%
%TD*%
%TA.AperFunction,SMDPad,CuDef*%
%ADD17RoundRect,0.237500X-0.237500X0.300000X-0.237500X-0.300000X0.237500X-0.300000X0.237500X0.300000X0*%
%TD*%
%TA.AperFunction,SMDPad,CuDef*%
%ADD18RoundRect,0.250000X-0.475000X0.337500X-0.475000X-0.337500X0.475000X-0.337500X0.475000X0.337500X0*%
%TD*%
%TA.AperFunction,SMDPad,CuDef*%
%ADD19RoundRect,0.249999X0.325001X0.450001X-0.325001X0.450001X-0.325001X-0.450001X0.325001X-0.450001X0*%
%TD*%
%TA.AperFunction,SMDPad,CuDef*%
%ADD20R,1.800000X3.500000*%
%TD*%
%TA.AperFunction,ComponentPad*%
%ADD21RoundRect,0.250000X-1.550000X0.650000X-1.550000X-0.650000X1.550000X-0.650000X1.550000X0.650000X0*%
%TD*%
%TA.AperFunction,ComponentPad*%
%ADD22O,3.600000X1.800000*%
%TD*%
%TA.AperFunction,SMDPad,CuDef*%
%ADD23RoundRect,0.249999X0.350001X0.450001X-0.350001X0.450001X-0.350001X-0.450001X0.350001X-0.450001X0*%
%TD*%
%TA.AperFunction,SMDPad,CuDef*%
%ADD24RoundRect,0.249999X-0.350001X-0.450001X0.350001X-0.450001X0.350001X0.450001X-0.350001X0.450001X0*%
%TD*%
%TA.AperFunction,SMDPad,CuDef*%
%ADD25RoundRect,0.249999X0.450001X-0.350001X0.450001X0.350001X-0.450001X0.350001X-0.450001X-0.350001X0*%
%TD*%
%TA.AperFunction,SMDPad,CuDef*%
%ADD26R,1.300000X1.550000*%
%TD*%
%TA.AperFunction,SMDPad,CuDef*%
%ADD27RoundRect,0.075000X0.075000X-0.700000X0.075000X0.700000X-0.075000X0.700000X-0.075000X-0.700000X0*%
%TD*%
%TA.AperFunction,SMDPad,CuDef*%
%ADD28RoundRect,0.075000X0.700000X-0.075000X0.700000X0.075000X-0.700000X0.075000X-0.700000X-0.075000X0*%
%TD*%
%TA.AperFunction,SMDPad,CuDef*%
%ADD29R,1.300000X1.900000*%
%TD*%
%TA.AperFunction,SMDPad,CuDef*%
%ADD30R,4.500000X2.000000*%
%TD*%
%TA.AperFunction,SMDPad,CuDef*%
%ADD31RoundRect,0.249999X-0.412501X-0.650001X0.412501X-0.650001X0.412501X0.650001X-0.412501X0.650001X0*%
%TD*%
%TA.AperFunction,SMDPad,CuDef*%
%ADD32RoundRect,0.249999X0.650001X-0.412501X0.650001X0.412501X-0.650001X0.412501X-0.650001X-0.412501X0*%
%TD*%
%TA.AperFunction,SMDPad,CuDef*%
%ADD33RoundRect,0.249999X0.412501X0.650001X-0.412501X0.650001X-0.412501X-0.650001X0.412501X-0.650001X0*%
%TD*%
%TA.AperFunction,SMDPad,CuDef*%
%ADD34R,3.500000X1.800000*%
%TD*%
%TA.AperFunction,SMDPad,CuDef*%
%ADD35R,2.400000X4.200000*%
%TD*%
%TA.AperFunction,SMDPad,CuDef*%
%ADD36R,4.200000X2.400000*%
%TD*%
%TA.AperFunction,SMDPad,CuDef*%
%ADD37RoundRect,0.249999X-0.450001X0.350001X-0.450001X-0.350001X0.450001X-0.350001X0.450001X0.350001X0*%
%TD*%
%TA.AperFunction,SMDPad,CuDef*%
%ADD38R,2.000000X0.650000*%
%TD*%
%TA.AperFunction,SMDPad,CuDef*%
%ADD39R,0.650000X2.000000*%
%TD*%
%TA.AperFunction,SMDPad,CuDef*%
%ADD40R,0.807999X0.458000*%
%TD*%
%TA.AperFunction,SMDPad,CuDef*%
%ADD41R,0.508000X0.508000*%
%TD*%
%TA.AperFunction,SMDPad,CuDef*%
%ADD42RoundRect,0.250000X-0.550000X1.500000X-0.550000X-1.500000X0.550000X-1.500000X0.550000X1.500000X0*%
%TD*%
%TA.AperFunction,ViaPad*%
%ADD43C,0.800000*%
%TD*%
%TA.AperFunction,Conductor*%
%ADD44C,0.250000*%
%TD*%
%TA.AperFunction,Conductor*%
%ADD45C,0.500000*%
%TD*%
%TA.AperFunction,Conductor*%
%ADD46C,1.000000*%
%TD*%
%TA.AperFunction,Conductor*%
%ADD47C,0.200000*%
%TD*%
G04 APERTURE END LIST*
D10*
%TO.P,J3,1,Pin_1*%
%TO.N,unconnected-(J3-Pad1)*%
X45974000Y-123952000D03*
D11*
%TO.P,J3,2,Pin_2*%
%TO.N,unconnected-(J3-Pad2)*%
X48514000Y-123952000D03*
%TO.P,J3,3,Pin_3*%
%TO.N,unconnected-(J3-Pad3)*%
X51054000Y-123952000D03*
%TO.P,J3,4,Pin_4*%
%TO.N,+3V3*%
X53594000Y-123952000D03*
%TO.P,J3,5,Pin_5*%
%TO.N,+5V*%
X56134000Y-123952000D03*
%TO.P,J3,6,Pin_6*%
%TO.N,GND*%
X58674000Y-123952000D03*
%TO.P,J3,7,Pin_7*%
X61214000Y-123952000D03*
%TO.P,J3,8,Pin_8*%
%TO.N,XSHUT_0*%
X63754000Y-123952000D03*
%TD*%
D10*
%TO.P,J4,1,Pin_1*%
%TO.N,XSHUT_1*%
X68834000Y-123952000D03*
D11*
%TO.P,J4,2,Pin_2*%
%TO.N,XSHUT_2*%
X71374000Y-123952000D03*
%TO.P,J4,3,Pin_3*%
%TO.N,XSHUT_3*%
X73914000Y-123952000D03*
%TO.P,J4,4,Pin_4*%
%TO.N,XSHUT_4*%
X76454000Y-123952000D03*
%TO.P,J4,5,Pin_5*%
%TO.N,SW_1*%
X78994000Y-123952000D03*
%TO.P,J4,6,Pin_6*%
%TO.N,SW_2*%
X81534000Y-123952000D03*
%TD*%
D10*
%TO.P,J5,1,Pin_1*%
%TO.N,unconnected-(J5-Pad1)*%
X59690000Y-75692000D03*
D11*
%TO.P,J5,2,Pin_2*%
%TO.N,GPIOI_0*%
X57150000Y-75692000D03*
%TO.P,J5,3,Pin_3*%
%TO.N,GPIOI_1*%
X54610000Y-75692000D03*
%TO.P,J5,4,Pin_4*%
%TO.N,GPIOI_2*%
X52070000Y-75692000D03*
%TO.P,J5,5,Pin_5*%
%TO.N,GPIOI_3*%
X49530000Y-75692000D03*
%TO.P,J5,6,Pin_6*%
%TO.N,GPIOI_4*%
X46990000Y-75692000D03*
%TO.P,J5,7,Pin_7*%
%TO.N,GND*%
X44450000Y-75692000D03*
%TO.P,J5,8,Pin_8*%
%TO.N,+3V3*%
X41910000Y-75692000D03*
%TO.P,J5,9,Pin_9*%
%TO.N,SDA1*%
X39370000Y-75692000D03*
%TO.P,J5,10,Pin_10*%
%TO.N,SCL1*%
X36830000Y-75692000D03*
%TD*%
D12*
%TO.P,C7,1*%
%TO.N,VCC*%
X33776000Y-122682000D03*
%TO.P,C7,2*%
%TO.N,GND*%
X39376000Y-122682000D03*
%TD*%
D13*
%TO.P,C17,1*%
%TO.N,/STM32L151RET6TR/MCO*%
X59514490Y-115564490D03*
%TO.P,C17,2*%
%TO.N,GND*%
X61589490Y-115564490D03*
%TD*%
D14*
%TO.P,C18,1*%
%TO.N,/STM32L151RET6TR/OSM_OUT*%
X65696490Y-115564490D03*
%TO.P,C18,2*%
%TO.N,GND*%
X63621490Y-115564490D03*
%TD*%
D15*
%TO.P,C19,1*%
%TO.N,GND*%
X51482490Y-110992490D03*
%TO.P,C19,2*%
%TO.N,/STM32L151RET6TR/OS32_OUT*%
X53207490Y-110992490D03*
%TD*%
%TO.P,C22,1*%
%TO.N,GND*%
X51328990Y-103372490D03*
%TO.P,C22,2*%
%TO.N,/STM32L151RET6TR/OS32_IN*%
X53053990Y-103372490D03*
%TD*%
D16*
%TO.P,C24,1*%
%TO.N,+3V3*%
X58234490Y-105150490D03*
%TO.P,C24,2*%
%TO.N,GND*%
X56509490Y-105150490D03*
%TD*%
%TO.P,C25,1*%
%TO.N,+3V3*%
X58234490Y-106928490D03*
%TO.P,C25,2*%
%TO.N,GND*%
X56509490Y-106928490D03*
%TD*%
D17*
%TO.P,C26,1*%
%TO.N,+3V3*%
X71241490Y-101086490D03*
%TO.P,C26,2*%
%TO.N,GND*%
X71241490Y-102811490D03*
%TD*%
%TO.P,C27,1*%
%TO.N,+3V3*%
X70479490Y-91688490D03*
%TO.P,C27,2*%
%TO.N,GND*%
X70479490Y-93413490D03*
%TD*%
D18*
%TO.P,C32,1*%
%TO.N,+3V3*%
X72511490Y-91137490D03*
%TO.P,C32,2*%
%TO.N,GND*%
X72511490Y-93212490D03*
%TD*%
D19*
%TO.P,D1,1,K*%
%TO.N,GND*%
X85449490Y-100578490D03*
%TO.P,D1,2,A*%
%TO.N,Net-(D1-Pad2)*%
X83399490Y-100578490D03*
%TD*%
%TO.P,D2,1,K*%
%TO.N,GND*%
X85467490Y-98292490D03*
%TO.P,D2,2,A*%
%TO.N,Net-(D2-Pad2)*%
X83417490Y-98292490D03*
%TD*%
%TO.P,D3,1,K*%
%TO.N,GND*%
X85467490Y-96006490D03*
%TO.P,D3,2,A*%
%TO.N,Net-(D3-Pad2)*%
X83417490Y-96006490D03*
%TD*%
%TO.P,D5,1,K*%
%TO.N,GND*%
X85458490Y-91434490D03*
%TO.P,D5,2,A*%
%TO.N,Net-(D5-Pad2)*%
X83408490Y-91434490D03*
%TD*%
D20*
%TO.P,D6,1,K*%
%TO.N,VCC*%
X33020000Y-96477000D03*
%TO.P,D6,2,A*%
%TO.N,Net-(D6-Pad2)*%
X33020000Y-101477000D03*
%TD*%
D10*
%TO.P,J1,1,Pin_1*%
%TO.N,GND*%
X52699490Y-96514490D03*
D11*
%TO.P,J1,2,Pin_2*%
%TO.N,+5V*%
X50159490Y-96514490D03*
%TO.P,J1,3,Pin_3*%
%TO.N,SDA1*%
X47619490Y-96514490D03*
%TO.P,J1,4,Pin_4*%
%TO.N,SCL1*%
X45079490Y-96514490D03*
%TD*%
D21*
%TO.P,J2,1,Pin_1*%
%TO.N,GND*%
X28448000Y-97282000D03*
D22*
%TO.P,J2,2,Pin_2*%
%TO.N,Net-(D6-Pad2)*%
X28448000Y-100782000D03*
%TD*%
D10*
%TO.P,J7,1,Pin_1*%
%TO.N,GND*%
X57779490Y-88894490D03*
D11*
%TO.P,J7,2,Pin_2*%
%TO.N,/STM32L151RET6TR/FTDI_CTS*%
X55239490Y-88894490D03*
%TO.P,J7,3,Pin_3*%
%TO.N,+5V*%
X52699490Y-88894490D03*
%TO.P,J7,4,Pin_4*%
%TO.N,/STM32L151RET6TR/FTDI_TXD*%
X50159490Y-88894490D03*
%TO.P,J7,5,Pin_5*%
%TO.N,/STM32L151RET6TR/FTDI_RXD*%
X47619490Y-88894490D03*
%TO.P,J7,6,Pin_6*%
%TO.N,/STM32L151RET6TR/FTDI_RTS*%
X45079490Y-88894490D03*
%TD*%
D10*
%TO.P,J10,1,Pin_1*%
%TO.N,GND*%
X57277000Y-79248000D03*
D11*
%TO.P,J10,2,Pin_2*%
%TO.N,+3V3*%
X54737000Y-79248000D03*
%TO.P,J10,3,Pin_3*%
%TO.N,SDA2*%
X52197000Y-79248000D03*
%TO.P,J10,4,Pin_4*%
%TO.N,SCL2*%
X49657000Y-79248000D03*
%TD*%
D23*
%TO.P,R1,1*%
%TO.N,Net-(D1-Pad2)*%
X81385490Y-100578490D03*
%TO.P,R1,2*%
%TO.N,LED_1*%
X79385490Y-100578490D03*
%TD*%
%TO.P,R2,1*%
%TO.N,Net-(D2-Pad2)*%
X81353490Y-98292490D03*
%TO.P,R2,2*%
%TO.N,LED_2*%
X79353490Y-98292490D03*
%TD*%
%TO.P,R3,1*%
%TO.N,Net-(D3-Pad2)*%
X81353490Y-96006490D03*
%TO.P,R3,2*%
%TO.N,LED_3*%
X79353490Y-96006490D03*
%TD*%
%TO.P,R4,1*%
%TO.N,Net-(D4-Pad2)*%
X81353490Y-93720490D03*
%TO.P,R4,2*%
%TO.N,LED_4*%
X79353490Y-93720490D03*
%TD*%
%TO.P,R5,1*%
%TO.N,Net-(D5-Pad2)*%
X81369490Y-91434490D03*
%TO.P,R5,2*%
%TO.N,LED_5*%
X79369490Y-91434490D03*
%TD*%
D24*
%TO.P,R6,1*%
%TO.N,GND*%
X79401490Y-89148490D03*
%TO.P,R6,2*%
%TO.N,SW_1*%
X81401490Y-89148490D03*
%TD*%
D23*
%TO.P,R7,1*%
%TO.N,SW_2*%
X74511490Y-89148490D03*
%TO.P,R7,2*%
%TO.N,GND*%
X72511490Y-89148490D03*
%TD*%
D25*
%TO.P,R10,1*%
%TO.N,+3V3*%
X45333490Y-109182490D03*
%TO.P,R10,2*%
%TO.N,SDA1*%
X45333490Y-107182490D03*
%TD*%
%TO.P,R11,1*%
%TO.N,+3V3*%
X43047490Y-109182490D03*
%TO.P,R11,2*%
%TO.N,SCL1*%
X43047490Y-107182490D03*
%TD*%
D26*
%TO.P,SW1,1,1*%
%TO.N,SW_1*%
X85689000Y-87033000D03*
X85689000Y-79083000D03*
%TO.P,SW1,2,2*%
%TO.N,+3V3*%
X81189000Y-87033000D03*
X81189000Y-79083000D03*
%TD*%
%TO.P,SW2,1,1*%
%TO.N,SW_2*%
X78831000Y-79083000D03*
X78831000Y-87033000D03*
%TO.P,SW2,2,2*%
%TO.N,+3V3*%
X74331000Y-79083000D03*
X74331000Y-87033000D03*
%TD*%
D27*
%TO.P,U6,1,VLCD*%
%TO.N,+3V3*%
X59617490Y-104475490D03*
%TO.P,U6,2,PC13*%
%TO.N,BUCK_5_EN*%
X60117490Y-104475490D03*
%TO.P,U6,3,PC14*%
%TO.N,/STM32L151RET6TR/OS32_IN*%
X60617490Y-104475490D03*
%TO.P,U6,4,PC15*%
%TO.N,/STM32L151RET6TR/OS32_OUT*%
X61117490Y-104475490D03*
%TO.P,U6,5,PH0*%
%TO.N,/STM32L151RET6TR/MCO*%
X61617490Y-104475490D03*
%TO.P,U6,6,PH1*%
%TO.N,/STM32L151RET6TR/OSM_OUT*%
X62117490Y-104475490D03*
%TO.P,U6,7,NRST*%
%TO.N,/STM32L151RET6TR/RST*%
X62617490Y-104475490D03*
%TO.P,U6,8,PC0*%
%TO.N,XSHUT_0*%
X63117490Y-104475490D03*
%TO.P,U6,9,PC1*%
%TO.N,XSHUT_1*%
X63617490Y-104475490D03*
%TO.P,U6,10,PC2*%
%TO.N,XSHUT_2*%
X64117490Y-104475490D03*
%TO.P,U6,11,PC3*%
%TO.N,XSHUT_3*%
X64617490Y-104475490D03*
%TO.P,U6,12,VSSA*%
%TO.N,GND*%
X65117490Y-104475490D03*
%TO.P,U6,13,VDDA*%
%TO.N,+3V3*%
X65617490Y-104475490D03*
%TO.P,U6,14,PA0*%
%TO.N,LED_1*%
X66117490Y-104475490D03*
%TO.P,U6,15,PA1*%
%TO.N,LED_2*%
X66617490Y-104475490D03*
%TO.P,U6,16,PA2*%
%TO.N,/STM32L151RET6TR/UART_TX*%
X67117490Y-104475490D03*
D28*
%TO.P,U6,17,PA3*%
%TO.N,/STM32L151RET6TR/UART_RX*%
X69042490Y-102550490D03*
%TO.P,U6,18,VSS*%
%TO.N,GND*%
X69042490Y-102050490D03*
%TO.P,U6,19,VDD*%
%TO.N,+3V3*%
X69042490Y-101550490D03*
%TO.P,U6,20,PA4*%
%TO.N,unconnected-(U6-Pad20)*%
X69042490Y-101050490D03*
%TO.P,U6,21,PA5*%
%TO.N,unconnected-(U6-Pad21)*%
X69042490Y-100550490D03*
%TO.P,U6,22,PA6*%
%TO.N,LED_3*%
X69042490Y-100050490D03*
%TO.P,U6,23,PA7*%
%TO.N,LED_4*%
X69042490Y-99550490D03*
%TO.P,U6,24,PC4*%
%TO.N,XSHUT_4*%
X69042490Y-99050490D03*
%TO.P,U6,25,PC5*%
%TO.N,unconnected-(U6-Pad25)*%
X69042490Y-98550490D03*
%TO.P,U6,26,PB0*%
%TO.N,LED_5*%
X69042490Y-98050490D03*
%TO.P,U6,27,PB1*%
%TO.N,SW_1*%
X69042490Y-97550490D03*
%TO.P,U6,28,PB2*%
%TO.N,SW_2*%
X69042490Y-97050490D03*
%TO.P,U6,29,PB10*%
%TO.N,/STM32L151RET6TR/PIN29*%
X69042490Y-96550490D03*
%TO.P,U6,30,PB11*%
%TO.N,/STM32L151RET6TR/PIN30*%
X69042490Y-96050490D03*
%TO.P,U6,31,VSS*%
%TO.N,GND*%
X69042490Y-95550490D03*
%TO.P,U6,32,VDD*%
%TO.N,+3V3*%
X69042490Y-95050490D03*
D27*
%TO.P,U6,33,PB12*%
%TO.N,GPIOI_0*%
X67117490Y-93125490D03*
%TO.P,U6,34,PB13*%
%TO.N,GPIOI_1*%
X66617490Y-93125490D03*
%TO.P,U6,35,PB14*%
%TO.N,GPIOI_2*%
X66117490Y-93125490D03*
%TO.P,U6,36,PB15*%
%TO.N,GPIOI_3*%
X65617490Y-93125490D03*
%TO.P,U6,37,PC6*%
%TO.N,GPIOI_4*%
X65117490Y-93125490D03*
%TO.P,U6,38,PC7*%
%TO.N,unconnected-(U6-Pad38)*%
X64617490Y-93125490D03*
%TO.P,U6,39,PC8*%
%TO.N,/STM32L151RET6TR/PC8*%
X64117490Y-93125490D03*
%TO.P,U6,40,PC9*%
%TO.N,SDA2*%
X63617490Y-93125490D03*
%TO.P,U6,41,PA8*%
%TO.N,/STM32L151RET6TR/PIN41*%
X63117490Y-93125490D03*
%TO.P,U6,42,PA9*%
%TO.N,/STM32L151RET6TR/PA9*%
X62617490Y-93125490D03*
%TO.P,U6,43,PA10*%
%TO.N,/STM32L151RET6TR/PA10*%
X62117490Y-93125490D03*
%TO.P,U6,44,PA11*%
%TO.N,/STM32L151RET6TR/FTDI_CTS*%
X61617490Y-93125490D03*
%TO.P,U6,45,PA12*%
%TO.N,/STM32L151RET6TR/FTDI_RTS*%
X61117490Y-93125490D03*
%TO.P,U6,46,PA13*%
%TO.N,/STM32L151RET6TR/SWDAT*%
X60617490Y-93125490D03*
%TO.P,U6,47,VSS*%
%TO.N,GND*%
X60117490Y-93125490D03*
%TO.P,U6,48,VDD*%
%TO.N,+3V3*%
X59617490Y-93125490D03*
D28*
%TO.P,U6,49,PA14*%
%TO.N,/STM32L151RET6TR/SWCLK*%
X57692490Y-95050490D03*
%TO.P,U6,50,PA15*%
%TO.N,unconnected-(U6-Pad50)*%
X57692490Y-95550490D03*
%TO.P,U6,51,PC10*%
%TO.N,unconnected-(U6-Pad51)*%
X57692490Y-96050490D03*
%TO.P,U6,52,PC11*%
%TO.N,unconnected-(U6-Pad52)*%
X57692490Y-96550490D03*
%TO.P,U6,53,PC12*%
%TO.N,unconnected-(U6-Pad53)*%
X57692490Y-97050490D03*
%TO.P,U6,54,PD2*%
%TO.N,unconnected-(U6-Pad54)*%
X57692490Y-97550490D03*
%TO.P,U6,55,PB3*%
%TO.N,/STM32L151RET6TR/SW0*%
X57692490Y-98050490D03*
%TO.P,U6,56,PB4*%
%TO.N,unconnected-(U6-Pad56)*%
X57692490Y-98550490D03*
%TO.P,U6,57,PB5*%
%TO.N,unconnected-(U6-Pad57)*%
X57692490Y-99050490D03*
%TO.P,U6,58,PB6*%
%TO.N,/STM32L151RET6TR/FTDI_TXD*%
X57692490Y-99550490D03*
%TO.P,U6,59,PB7*%
%TO.N,/STM32L151RET6TR/FTDI_RXD*%
X57692490Y-100050490D03*
%TO.P,U6,60,BOOT0*%
%TO.N,/STM32L151RET6TR/BOOT*%
X57692490Y-100550490D03*
%TO.P,U6,61,PB8*%
%TO.N,SCL1*%
X57692490Y-101050490D03*
%TO.P,U6,62,PB9*%
%TO.N,SDA1*%
X57692490Y-101550490D03*
%TO.P,U6,63,VSS*%
%TO.N,GND*%
X57692490Y-102050490D03*
%TO.P,U6,64,VDD*%
%TO.N,+3V3*%
X57692490Y-102550490D03*
%TD*%
D29*
%TO.P,Y2,1,1*%
%TO.N,/STM32L151RET6TR/OS32_IN*%
X53925490Y-105582490D03*
%TO.P,Y2,2,2*%
%TO.N,GND*%
X48425490Y-105582490D03*
%TO.P,Y2,3,3*%
X48425490Y-108782490D03*
%TO.P,Y2,4,4*%
%TO.N,/STM32L151RET6TR/OS32_OUT*%
X53925490Y-108782490D03*
%TD*%
D19*
%TO.P,D4,1,K*%
%TO.N,GND*%
X85467490Y-93720490D03*
%TO.P,D4,2,A*%
%TO.N,Net-(D4-Pad2)*%
X83417490Y-93720490D03*
%TD*%
D10*
%TO.P,J9,1,Pin_1*%
%TO.N,GND*%
X76321490Y-106674490D03*
D11*
%TO.P,J9,2,Pin_2*%
%TO.N,+3V3*%
X76321490Y-104134490D03*
%TO.P,J9,3,Pin_3*%
%TO.N,/STM32L151RET6TR/UART_TX*%
X76321490Y-101594490D03*
%TO.P,J9,4,Pin_4*%
%TO.N,/STM32L151RET6TR/UART_RX*%
X76321490Y-99054490D03*
%TD*%
D10*
%TO.P,J6,1,Pin_1*%
%TO.N,unconnected-(J6-Pad1)*%
X81534000Y-75692000D03*
D11*
%TO.P,J6,2,Pin_2*%
%TO.N,unconnected-(J6-Pad2)*%
X78994000Y-75692000D03*
%TO.P,J6,3,Pin_3*%
%TO.N,LED_5*%
X76454000Y-75692000D03*
%TO.P,J6,4,Pin_4*%
%TO.N,LED_4*%
X73914000Y-75692000D03*
%TO.P,J6,5,Pin_5*%
%TO.N,LED_3*%
X71374000Y-75692000D03*
%TO.P,J6,6,Pin_6*%
%TO.N,LED_2*%
X68834000Y-75692000D03*
%TO.P,J6,7,Pin_7*%
%TO.N,LED_1*%
X66294000Y-75692000D03*
%TO.P,J6,8,Pin_8*%
%TO.N,unconnected-(J6-Pad8)*%
X63754000Y-75692000D03*
%TD*%
D10*
%TO.P,J8,1,Pin_1*%
%TO.N,+3V3*%
X55239490Y-92704490D03*
D11*
%TO.P,J8,2,Pin_2*%
%TO.N,/STM32L151RET6TR/SWCLK*%
X52699490Y-92704490D03*
%TO.P,J8,3,Pin_3*%
%TO.N,GND*%
X50159490Y-92704490D03*
%TO.P,J8,4,Pin_4*%
%TO.N,/STM32L151RET6TR/SWDAT*%
X47619490Y-92704490D03*
%TO.P,J8,5,Pin_5*%
%TO.N,/STM32L151RET6TR/RST*%
X45079490Y-92704490D03*
%TO.P,J8,6,Pin_6*%
%TO.N,/STM32L151RET6TR/SW0*%
X42539490Y-92704490D03*
%TD*%
D30*
%TO.P,Y1,1,1*%
%TO.N,/STM32L151RET6TR/MCO*%
X58355490Y-111500490D03*
%TO.P,Y1,2,2*%
%TO.N,/STM32L151RET6TR/OSM_OUT*%
X66855490Y-111500490D03*
%TD*%
D31*
%TO.P,C3,1*%
%TO.N,VCC*%
X32727500Y-117856000D03*
%TO.P,C3,2*%
%TO.N,GND*%
X35852500Y-117856000D03*
%TD*%
D32*
%TO.P,C4,1*%
%TO.N,VCC*%
X27940000Y-80175500D03*
%TO.P,C4,2*%
%TO.N,GND*%
X27940000Y-77050500D03*
%TD*%
D16*
%TO.P,C5,1*%
%TO.N,Net-(C5-Pad1)*%
X26516500Y-115062000D03*
%TO.P,C5,2*%
%TO.N,Net-(C5-Pad2)*%
X24791500Y-115062000D03*
%TD*%
D17*
%TO.P,C6,1*%
%TO.N,Net-(C6-Pad1)*%
X25162000Y-86487000D03*
%TO.P,C6,2*%
%TO.N,Net-(C6-Pad2)*%
X25162000Y-88212000D03*
%TD*%
D33*
%TO.P,C13,1*%
%TO.N,+3V3*%
X40971000Y-117856000D03*
%TO.P,C13,2*%
%TO.N,GND*%
X37846000Y-117856000D03*
%TD*%
D31*
%TO.P,C34,1*%
%TO.N,+5V*%
X27790500Y-74587500D03*
%TO.P,C34,2*%
%TO.N,GND*%
X30915500Y-74587500D03*
%TD*%
D34*
%TO.P,D7,1,K*%
%TO.N,/OUT3.3*%
X29424000Y-112014000D03*
%TO.P,D7,2,A*%
%TO.N,GND*%
X24424000Y-112014000D03*
%TD*%
D20*
%TO.P,D8,1,K*%
%TO.N,/OUT5.0*%
X22114000Y-83479000D03*
%TO.P,D8,2,A*%
%TO.N,GND*%
X22114000Y-88479000D03*
%TD*%
D35*
%TO.P,L1,1,1*%
%TO.N,/OUT3.3*%
X33310000Y-113792000D03*
%TO.P,L1,2,2*%
%TO.N,+3V3*%
X37810000Y-113792000D03*
%TD*%
D36*
%TO.P,L2,1,1*%
%TO.N,/OUT5.0*%
X23622000Y-79557000D03*
%TO.P,L2,2,2*%
%TO.N,+5V*%
X23622000Y-75057000D03*
%TD*%
D25*
%TO.P,R14,1*%
%TO.N,VCC*%
X30480000Y-122904000D03*
%TO.P,R14,2*%
%TO.N,BUCK_33_EN*%
X30480000Y-120904000D03*
%TD*%
D37*
%TO.P,R15,1*%
%TO.N,VCC*%
X30353000Y-78248000D03*
%TO.P,R15,2*%
%TO.N,BUCK_5_EN*%
X30353000Y-80248000D03*
%TD*%
D25*
%TO.P,R18,1*%
%TO.N,Net-(R18-Pad1)*%
X28448000Y-122920000D03*
%TO.P,R18,2*%
%TO.N,GND*%
X28448000Y-120920000D03*
%TD*%
D23*
%TO.P,R19,1*%
%TO.N,Net-(R19-Pad1)*%
X33004000Y-82550000D03*
%TO.P,R19,2*%
%TO.N,GND*%
X31004000Y-82550000D03*
%TD*%
%TO.P,R23,1*%
%TO.N,/OUT3.3*%
X30448000Y-115062000D03*
%TO.P,R23,2*%
%TO.N,Net-(C5-Pad1)*%
X28448000Y-115062000D03*
%TD*%
D37*
%TO.P,R24,1*%
%TO.N,/OUT5.0*%
X25162000Y-82439000D03*
%TO.P,R24,2*%
%TO.N,Net-(C6-Pad1)*%
X25162000Y-84439000D03*
%TD*%
%TO.P,R25,1*%
%TO.N,Net-(R25-Pad1)*%
X26416000Y-120920000D03*
%TO.P,R25,2*%
%TO.N,Net-(R18-Pad1)*%
X26416000Y-122920000D03*
%TD*%
D24*
%TO.P,R26,1*%
%TO.N,Net-(R26-Pad1)*%
X31004000Y-84709000D03*
%TO.P,R26,2*%
%TO.N,Net-(R19-Pad1)*%
X33004000Y-84709000D03*
%TD*%
D37*
%TO.P,R27,1*%
%TO.N,Net-(R25-Pad1)*%
X24384000Y-120920000D03*
%TO.P,R27,2*%
%TO.N,+3V3*%
X24384000Y-122920000D03*
%TD*%
D24*
%TO.P,R28,1*%
%TO.N,Net-(R26-Pad1)*%
X31004000Y-86868000D03*
%TO.P,R28,2*%
%TO.N,+5V*%
X33004000Y-86868000D03*
%TD*%
D38*
%TO.P,U1,1,BST*%
%TO.N,Net-(C5-Pad2)*%
X26738000Y-117160000D03*
%TO.P,U1,2,GND*%
%TO.N,GND*%
X26738000Y-118110000D03*
%TO.P,U1,3,FB*%
%TO.N,Net-(R25-Pad1)*%
X26738000Y-119060000D03*
%TO.P,U1,4,EN*%
%TO.N,BUCK_33_EN*%
X30158000Y-119060000D03*
%TO.P,U1,5,IN*%
%TO.N,VCC*%
X30158000Y-118110000D03*
%TO.P,U1,6,OUT*%
%TO.N,/OUT3.3*%
X30158000Y-117160000D03*
%TD*%
D39*
%TO.P,U2,1,BST*%
%TO.N,Net-(C6-Pad2)*%
X27260000Y-86165000D03*
%TO.P,U2,2,GND*%
%TO.N,GND*%
X28210000Y-86165000D03*
%TO.P,U2,3,FB*%
%TO.N,Net-(R26-Pad1)*%
X29160000Y-86165000D03*
%TO.P,U2,4,EN*%
%TO.N,BUCK_5_EN*%
X29160000Y-82745000D03*
%TO.P,U2,5,IN*%
%TO.N,VCC*%
X28210000Y-82745000D03*
%TO.P,U2,6,OUT*%
%TO.N,/OUT5.0*%
X27260000Y-82745000D03*
%TD*%
D40*
%TO.P,U3,1,AVDDVCSEL*%
%TO.N,+3V3*%
X102897800Y-101040999D03*
%TO.P,U3,2,AVSSVCSEL*%
%TO.N,GND*%
X102897800Y-100241001D03*
%TO.P,U3,3,GND*%
X102897800Y-99441000D03*
%TO.P,U3,4,GND2*%
X102897800Y-98640999D03*
%TO.P,U3,5,XSHUT*%
%TO.N,XSHUT_0*%
X102897800Y-97841001D03*
D41*
%TO.P,U3,6,GND3*%
%TO.N,GND*%
X104013000Y-97840800D03*
D40*
%TO.P,U3,7,GPIO1*%
%TO.N,GPIOI_0*%
X105128200Y-97841001D03*
%TO.P,U3,8,DNC*%
%TO.N,unconnected-(U3-Pad8)*%
X105128200Y-98640999D03*
%TO.P,U3,9,SDA*%
%TO.N,SDA1*%
X105128200Y-99441000D03*
%TO.P,U3,10,SCL*%
%TO.N,SCL1*%
X105128200Y-100241001D03*
%TO.P,U3,11,AVDD*%
%TO.N,+3V3*%
X105128200Y-101040999D03*
D41*
%TO.P,U3,12,GND4*%
%TO.N,GND*%
X104013000Y-101041200D03*
%TD*%
D40*
%TO.P,U4,1,AVDDVCSEL*%
%TO.N,+3V3*%
X140997800Y-101040999D03*
%TO.P,U4,2,AVSSVCSEL*%
%TO.N,GND*%
X140997800Y-100241001D03*
%TO.P,U4,3,GND*%
X140997800Y-99441000D03*
%TO.P,U4,4,GND2*%
X140997800Y-98640999D03*
%TO.P,U4,5,XSHUT*%
%TO.N,XSHUT_1*%
X140997800Y-97841001D03*
D41*
%TO.P,U4,6,GND3*%
%TO.N,GND*%
X142113000Y-97840800D03*
D40*
%TO.P,U4,7,GPIO1*%
%TO.N,GPIOI_1*%
X143228200Y-97841001D03*
%TO.P,U4,8,DNC*%
%TO.N,unconnected-(U4-Pad8)*%
X143228200Y-98640999D03*
%TO.P,U4,9,SDA*%
%TO.N,SDA1*%
X143228200Y-99441000D03*
%TO.P,U4,10,SCL*%
%TO.N,SCL1*%
X143228200Y-100241001D03*
%TO.P,U4,11,AVDD*%
%TO.N,+3V3*%
X143228200Y-101040999D03*
D41*
%TO.P,U4,12,GND4*%
%TO.N,GND*%
X142113000Y-101041200D03*
%TD*%
D40*
%TO.P,U5,1,AVDDVCSEL*%
%TO.N,+3V3*%
X178462800Y-101040999D03*
%TO.P,U5,2,AVSSVCSEL*%
%TO.N,GND*%
X178462800Y-100241001D03*
%TO.P,U5,3,GND*%
X178462800Y-99441000D03*
%TO.P,U5,4,GND2*%
X178462800Y-98640999D03*
%TO.P,U5,5,XSHUT*%
%TO.N,XSHUT_2*%
X178462800Y-97841001D03*
D41*
%TO.P,U5,6,GND3*%
%TO.N,GND*%
X179578000Y-97840800D03*
D40*
%TO.P,U5,7,GPIO1*%
%TO.N,GPIOI_2*%
X180693200Y-97841001D03*
%TO.P,U5,8,DNC*%
%TO.N,unconnected-(U5-Pad8)*%
X180693200Y-98640999D03*
%TO.P,U5,9,SDA*%
%TO.N,SDA1*%
X180693200Y-99441000D03*
%TO.P,U5,10,SCL*%
%TO.N,SCL1*%
X180693200Y-100241001D03*
%TO.P,U5,11,AVDD*%
%TO.N,+3V3*%
X180693200Y-101040999D03*
D41*
%TO.P,U5,12,GND4*%
%TO.N,GND*%
X179578000Y-101041200D03*
%TD*%
D40*
%TO.P,U8,1,AVDDVCSEL*%
%TO.N,+3V3*%
X216562800Y-101040999D03*
%TO.P,U8,2,AVSSVCSEL*%
%TO.N,GND*%
X216562800Y-100241001D03*
%TO.P,U8,3,GND*%
X216562800Y-99441000D03*
%TO.P,U8,4,GND2*%
X216562800Y-98640999D03*
%TO.P,U8,5,XSHUT*%
%TO.N,XSHUT_3*%
X216562800Y-97841001D03*
D41*
%TO.P,U8,6,GND3*%
%TO.N,GND*%
X217678000Y-97840800D03*
D40*
%TO.P,U8,7,GPIO1*%
%TO.N,GPIOI_3*%
X218793200Y-97841001D03*
%TO.P,U8,8,DNC*%
%TO.N,unconnected-(U8-Pad8)*%
X218793200Y-98640999D03*
%TO.P,U8,9,SDA*%
%TO.N,SDA1*%
X218793200Y-99441000D03*
%TO.P,U8,10,SCL*%
%TO.N,SCL1*%
X218793200Y-100241001D03*
%TO.P,U8,11,AVDD*%
%TO.N,+3V3*%
X218793200Y-101040999D03*
D41*
%TO.P,U8,12,GND4*%
%TO.N,GND*%
X217678000Y-101041200D03*
%TD*%
D10*
%TO.P,J11,1,Pin_1*%
%TO.N,GND*%
X42539490Y-104134490D03*
D11*
%TO.P,J11,2,Pin_2*%
%TO.N,/STM32L151RET6TR/RST*%
X45079490Y-104134490D03*
%TD*%
D10*
%TO.P,J12,1,Pin_1*%
%TO.N,+3V3*%
X42539490Y-100324490D03*
D11*
%TO.P,J12,2,Pin_2*%
%TO.N,/STM32L151RET6TR/BOOT*%
X45079490Y-100324490D03*
%TD*%
D27*
%TO.P,U7,1,VBAT*%
%TO.N,+3V3*%
X59617490Y-104475490D03*
%TO.P,U7,2,PC13*%
%TO.N,BUCK_5_EN*%
X60117490Y-104475490D03*
%TO.P,U7,3,PC14*%
%TO.N,/STM32L151RET6TR/OS32_IN*%
X60617490Y-104475490D03*
%TO.P,U7,4,PC15*%
%TO.N,/STM32L151RET6TR/OS32_OUT*%
X61117490Y-104475490D03*
%TO.P,U7,5,PH0*%
%TO.N,/STM32L151RET6TR/MCO*%
X61617490Y-104475490D03*
%TO.P,U7,6,PH1*%
%TO.N,/STM32L151RET6TR/OSM_OUT*%
X62117490Y-104475490D03*
%TO.P,U7,7,NRST*%
%TO.N,/STM32L151RET6TR/RST*%
X62617490Y-104475490D03*
%TO.P,U7,8,PC0*%
%TO.N,XSHUT_0*%
X63117490Y-104475490D03*
%TO.P,U7,9,PC1*%
%TO.N,XSHUT_1*%
X63617490Y-104475490D03*
%TO.P,U7,10,PC2*%
%TO.N,XSHUT_2*%
X64117490Y-104475490D03*
%TO.P,U7,11,PC3*%
%TO.N,XSHUT_3*%
X64617490Y-104475490D03*
%TO.P,U7,12,VSSA*%
%TO.N,GND*%
X65117490Y-104475490D03*
%TO.P,U7,13,VREF+*%
%TO.N,+3V3*%
X65617490Y-104475490D03*
%TO.P,U7,14,PA0*%
%TO.N,LED_1*%
X66117490Y-104475490D03*
%TO.P,U7,15,PA1*%
%TO.N,LED_2*%
X66617490Y-104475490D03*
%TO.P,U7,16,PA2*%
%TO.N,/STM32L151RET6TR/UART_TX*%
X67117490Y-104475490D03*
D28*
%TO.P,U7,17,PA3*%
%TO.N,/STM32L151RET6TR/UART_RX*%
X69042490Y-102550490D03*
%TO.P,U7,18,VSS*%
%TO.N,GND*%
X69042490Y-102050490D03*
%TO.P,U7,19,VDD*%
%TO.N,+3V3*%
X69042490Y-101550490D03*
%TO.P,U7,20,PA4*%
%TO.N,unconnected-(U7-Pad20)*%
X69042490Y-101050490D03*
%TO.P,U7,21,PA5*%
%TO.N,unconnected-(U7-Pad21)*%
X69042490Y-100550490D03*
%TO.P,U7,22,PA6*%
%TO.N,LED_3*%
X69042490Y-100050490D03*
%TO.P,U7,23,PA7*%
%TO.N,LED_4*%
X69042490Y-99550490D03*
%TO.P,U7,24,PC4*%
%TO.N,XSHUT_4*%
X69042490Y-99050490D03*
%TO.P,U7,25,PC5*%
%TO.N,unconnected-(U7-Pad25)*%
X69042490Y-98550490D03*
%TO.P,U7,26,PB0*%
%TO.N,LED_5*%
X69042490Y-98050490D03*
%TO.P,U7,27,PB1*%
%TO.N,SW_1*%
X69042490Y-97550490D03*
%TO.P,U7,28,PB2*%
%TO.N,SW_2*%
X69042490Y-97050490D03*
%TO.P,U7,29,PB10*%
%TO.N,/STM32L151RET6TR/PIN29*%
X69042490Y-96550490D03*
%TO.P,U7,30,VCAP1*%
%TO.N,/STM32L151RET6TR/PIN30*%
X69042490Y-96050490D03*
%TO.P,U7,31,VSS*%
%TO.N,GND*%
X69042490Y-95550490D03*
%TO.P,U7,32,VDD*%
%TO.N,+3V3*%
X69042490Y-95050490D03*
D27*
%TO.P,U7,33,PB12*%
%TO.N,GPIOI_0*%
X67117490Y-93125490D03*
%TO.P,U7,34,PB13*%
%TO.N,GPIOI_1*%
X66617490Y-93125490D03*
%TO.P,U7,35,PB14*%
%TO.N,GPIOI_2*%
X66117490Y-93125490D03*
%TO.P,U7,36,PB15*%
%TO.N,GPIOI_3*%
X65617490Y-93125490D03*
%TO.P,U7,37,PC6*%
%TO.N,GPIOI_4*%
X65117490Y-93125490D03*
%TO.P,U7,38,PC7*%
%TO.N,unconnected-(U7-Pad38)*%
X64617490Y-93125490D03*
%TO.P,U7,39,PC8*%
%TO.N,/STM32L151RET6TR/PC8*%
X64117490Y-93125490D03*
%TO.P,U7,40,PC9*%
%TO.N,SDA2*%
X63617490Y-93125490D03*
%TO.P,U7,41,PA8*%
%TO.N,/STM32L151RET6TR/PIN41*%
X63117490Y-93125490D03*
%TO.P,U7,42,PA9*%
%TO.N,/STM32L151RET6TR/PA9*%
X62617490Y-93125490D03*
%TO.P,U7,43,PA10*%
%TO.N,/STM32L151RET6TR/PA10*%
X62117490Y-93125490D03*
%TO.P,U7,44,PA11*%
%TO.N,/STM32L151RET6TR/FTDI_CTS*%
X61617490Y-93125490D03*
%TO.P,U7,45,PA12*%
%TO.N,/STM32L151RET6TR/FTDI_RTS*%
X61117490Y-93125490D03*
%TO.P,U7,46,PA13*%
%TO.N,/STM32L151RET6TR/SWDAT*%
X60617490Y-93125490D03*
%TO.P,U7,47,VSS*%
%TO.N,GND*%
X60117490Y-93125490D03*
%TO.P,U7,48,VDD*%
%TO.N,+3V3*%
X59617490Y-93125490D03*
D28*
%TO.P,U7,49,PA14*%
%TO.N,/STM32L151RET6TR/SWCLK*%
X57692490Y-95050490D03*
%TO.P,U7,50,PA15*%
%TO.N,unconnected-(U7-Pad50)*%
X57692490Y-95550490D03*
%TO.P,U7,51,PC10*%
%TO.N,unconnected-(U7-Pad51)*%
X57692490Y-96050490D03*
%TO.P,U7,52,PC11*%
%TO.N,unconnected-(U7-Pad52)*%
X57692490Y-96550490D03*
%TO.P,U7,53,PC12*%
%TO.N,unconnected-(U7-Pad53)*%
X57692490Y-97050490D03*
%TO.P,U7,54,PD2*%
%TO.N,unconnected-(U7-Pad54)*%
X57692490Y-97550490D03*
%TO.P,U7,55,PB3*%
%TO.N,/STM32L151RET6TR/SW0*%
X57692490Y-98050490D03*
%TO.P,U7,56,PB4*%
%TO.N,unconnected-(U7-Pad56)*%
X57692490Y-98550490D03*
%TO.P,U7,57,PB5*%
%TO.N,unconnected-(U7-Pad57)*%
X57692490Y-99050490D03*
%TO.P,U7,58,PB6*%
%TO.N,/STM32L151RET6TR/FTDI_TXD*%
X57692490Y-99550490D03*
%TO.P,U7,59,PB7*%
%TO.N,/STM32L151RET6TR/FTDI_RXD*%
X57692490Y-100050490D03*
%TO.P,U7,60,BOOT0*%
%TO.N,/STM32L151RET6TR/BOOT*%
X57692490Y-100550490D03*
%TO.P,U7,61,PB8*%
%TO.N,SCL1*%
X57692490Y-101050490D03*
%TO.P,U7,62,PB9*%
%TO.N,SDA1*%
X57692490Y-101550490D03*
%TO.P,U7,63,VSS*%
%TO.N,GND*%
X57692490Y-102050490D03*
%TO.P,U7,64,VDD*%
%TO.N,+3V3*%
X57692490Y-102550490D03*
%TD*%
D40*
%TO.P,U9,1,AVDDVCSEL*%
%TO.N,+3V3*%
X254662800Y-101040999D03*
%TO.P,U9,2,AVSSVCSEL*%
%TO.N,GND*%
X254662800Y-100241001D03*
%TO.P,U9,3,GND*%
X254662800Y-99441000D03*
%TO.P,U9,4,GND2*%
X254662800Y-98640999D03*
%TO.P,U9,5,XSHUT*%
%TO.N,XSHUT_4*%
X254662800Y-97841001D03*
D41*
%TO.P,U9,6,GND3*%
%TO.N,GND*%
X255778000Y-97840800D03*
D40*
%TO.P,U9,7,GPIO1*%
%TO.N,GPIOI_4*%
X256893200Y-97841001D03*
%TO.P,U9,8,DNC*%
%TO.N,unconnected-(U9-Pad8)*%
X256893200Y-98640999D03*
%TO.P,U9,9,SDA*%
%TO.N,SDA1*%
X256893200Y-99441000D03*
%TO.P,U9,10,SCL*%
%TO.N,SCL1*%
X256893200Y-100241001D03*
%TO.P,U9,11,AVDD*%
%TO.N,+3V3*%
X256893200Y-101040999D03*
D41*
%TO.P,U9,12,GND4*%
%TO.N,GND*%
X255778000Y-101041200D03*
%TD*%
D42*
%TO.P,C43,1*%
%TO.N,VCC*%
X37592000Y-79750000D03*
%TO.P,C43,2*%
%TO.N,GND*%
X37592000Y-85350000D03*
%TD*%
D43*
%TO.N,GND*%
X71495490Y-94482490D03*
X181447000Y-102906000D03*
X259334000Y-98425000D03*
X221234000Y-98425000D03*
X78099490Y-89148490D03*
X219547000Y-102906000D03*
X143347000Y-102906000D03*
X104648000Y-117348000D03*
X107188000Y-117348000D03*
X28194000Y-87884000D03*
X39116000Y-85344000D03*
X34925000Y-120904000D03*
X109728000Y-117348000D03*
X98298000Y-91186000D03*
X105882000Y-79157000D03*
X70358000Y-104398500D03*
X60573490Y-91561490D03*
X29972000Y-76327000D03*
X178907000Y-102906000D03*
X36703000Y-122047000D03*
X257647000Y-102906000D03*
X38481000Y-120904000D03*
X170180000Y-99822000D03*
X117856000Y-90297000D03*
X102108000Y-117348000D03*
X138609750Y-97982652D03*
X103342000Y-79157000D03*
X132588000Y-93726000D03*
X108422000Y-104466000D03*
X29464000Y-73787000D03*
X36068000Y-84328000D03*
X98298000Y-117348000D03*
X171704000Y-98806000D03*
X98044000Y-106462000D03*
X24003000Y-118110000D03*
X55493490Y-104134490D03*
X23876000Y-86614000D03*
X135128000Y-91694000D03*
X61785500Y-116903500D03*
X57271490Y-103626490D03*
X24003000Y-116713000D03*
X105882000Y-104466000D03*
X108422000Y-79157000D03*
X23368000Y-91186000D03*
X203835000Y-99060000D03*
X36703000Y-120904000D03*
X23876000Y-88646000D03*
X28448000Y-119634000D03*
X205486000Y-100457000D03*
X140843000Y-102870000D03*
X132588000Y-90932000D03*
X107475506Y-91025494D03*
X215392000Y-97331000D03*
X104775000Y-101981000D03*
X25527000Y-110236000D03*
X217007000Y-102906000D03*
X116332000Y-91694000D03*
X34925000Y-119761000D03*
X167640000Y-100330000D03*
X25019000Y-118110000D03*
X211963000Y-109728000D03*
X23876000Y-87630000D03*
X36703000Y-123190000D03*
X253492000Y-97331000D03*
X135763000Y-109601000D03*
X28448000Y-118618000D03*
X22987000Y-110236000D03*
X183388000Y-98298000D03*
X28194000Y-88900000D03*
X183987000Y-102906000D03*
X29591000Y-88900000D03*
X252222000Y-98425000D03*
X24257000Y-110236000D03*
X173736000Y-109982000D03*
X63436500Y-116903500D03*
X222087000Y-102906000D03*
X48381490Y-110738490D03*
X39116000Y-86360000D03*
X142113000Y-100076000D03*
X21336000Y-91186000D03*
X250063000Y-109728000D03*
X97155000Y-96647000D03*
X103378000Y-101981000D03*
X245999000Y-99822000D03*
X51435000Y-112268000D03*
X38481000Y-119761000D03*
X217678000Y-96647000D03*
X64637490Y-102610490D03*
X28194000Y-84455000D03*
X142113000Y-96774000D03*
X62605490Y-117342490D03*
X86778500Y-96065789D03*
X247396000Y-98552000D03*
X209296000Y-98552000D03*
X179670688Y-96427312D03*
X97790000Y-81026000D03*
X119507000Y-90424000D03*
X25019000Y-119507000D03*
X36068000Y-86360000D03*
X24003000Y-119507000D03*
X145415000Y-98298000D03*
X36068000Y-85344000D03*
X255778000Y-96647000D03*
X59303490Y-101848490D03*
X175768000Y-98298000D03*
X258064000Y-97282000D03*
X29591000Y-87884000D03*
X243586000Y-100457000D03*
X214122000Y-98425000D03*
X29464000Y-74930000D03*
X32004000Y-81280000D03*
X165608000Y-98806000D03*
X67177490Y-98800490D03*
X39116000Y-84328000D03*
X219964000Y-97282000D03*
X103342000Y-104466000D03*
X26797000Y-87884000D03*
X25527000Y-113792000D03*
X109728000Y-91059000D03*
X22987000Y-113792000D03*
X36703000Y-119761000D03*
X260187000Y-102906000D03*
X100917502Y-88773000D03*
X104561752Y-90819168D03*
X255107000Y-102906000D03*
X22352000Y-91186000D03*
X72390000Y-102743000D03*
X24257000Y-113792000D03*
X26797000Y-88900000D03*
X68707000Y-103632000D03*
X207899000Y-99822000D03*
X241935000Y-99060000D03*
X104140000Y-96647000D03*
X49874000Y-109384000D03*
X57779490Y-94101490D03*
X145887000Y-102906000D03*
X30988000Y-76327000D03*
X142096743Y-98806956D03*
X25019000Y-116713000D03*
X48381490Y-103626490D03*
X59557490Y-86735490D03*
%TO.N,VCC*%
X33401000Y-120523000D03*
X33401000Y-119507000D03*
X32385000Y-120523000D03*
X35433000Y-98342000D03*
X35433000Y-96310000D03*
X35433000Y-97326000D03*
X32385000Y-119507000D03*
X35433000Y-95294000D03*
%TO.N,+3V3*%
X221234000Y-100584000D03*
X51689000Y-87630000D03*
X97790000Y-79629000D03*
X41656000Y-115316000D03*
X82550000Y-87846500D03*
X40132000Y-111506000D03*
X65653490Y-102610490D03*
X40132000Y-114046000D03*
X242189000Y-93726000D03*
X183134000Y-100203000D03*
X40132000Y-112776000D03*
X145923000Y-100965000D03*
X40132000Y-115316000D03*
X129794000Y-94488000D03*
X72390000Y-101727000D03*
X259334000Y-100584000D03*
X69042490Y-94061490D03*
X138811000Y-100330000D03*
X106370700Y-101045298D03*
X59985488Y-96768490D03*
X97790000Y-88138000D03*
X62097490Y-99562490D03*
X202438000Y-93726000D03*
X41656000Y-114046000D03*
X252222000Y-100203000D03*
X176149000Y-100203000D03*
X97536000Y-116078000D03*
X240538000Y-93726000D03*
X97790000Y-89408000D03*
X41656000Y-111506000D03*
X97790000Y-78486000D03*
X101600000Y-101092000D03*
X114554000Y-93091000D03*
X115316000Y-93853000D03*
X41656000Y-112776000D03*
X98044000Y-104938000D03*
X75438000Y-87122000D03*
X166878000Y-93726000D03*
X45720000Y-110490000D03*
X165354000Y-93726000D03*
X60827490Y-89656490D03*
X59176490Y-102991490D03*
X70739000Y-88392000D03*
X204089000Y-93726000D03*
X214122000Y-100203000D03*
X98044000Y-103922000D03*
X130810000Y-95504000D03*
X97536000Y-114554000D03*
%TO.N,XSHUT_1*%
X140843000Y-105156000D03*
X103378000Y-85979000D03*
X139700000Y-96393000D03*
X67448327Y-117230437D03*
X67437000Y-120396000D03*
%TO.N,GPIOI_1*%
X137144951Y-98567049D03*
X100838000Y-85979000D03*
X91567000Y-83566000D03*
X138176000Y-105156000D03*
X62738000Y-77851000D03*
X141097000Y-96393000D03*
%TO.N,XSHUT_2*%
X68195141Y-116566152D03*
X68199000Y-119741501D03*
X103378000Y-91059000D03*
X176911000Y-95123000D03*
X178943000Y-105156000D03*
%TO.N,GPIOI_2*%
X100838000Y-91059000D03*
X90799161Y-84205866D03*
X176403000Y-105156000D03*
X62098134Y-78618839D03*
X180721000Y-96520000D03*
%TO.N,XSHUT_0*%
X91821000Y-103632000D03*
X107188000Y-96139000D03*
X66675000Y-119741501D03*
X66680435Y-116590634D03*
%TO.N,GPIOI_0*%
X81407000Y-102362000D03*
X109474000Y-96139000D03*
X68066490Y-93212490D03*
%TO.N,LED_3*%
X77845490Y-96008501D03*
X69209490Y-90672490D03*
%TO.N,LED_4*%
X69402503Y-89473508D03*
X78089042Y-93809500D03*
%TO.N,LED_5*%
X69362489Y-88403186D03*
X78099490Y-91434490D03*
%TO.N,LED_1*%
X67939490Y-91942490D03*
X78220501Y-100578490D03*
%TO.N,LED_2*%
X69209490Y-91942490D03*
X77852679Y-97007978D03*
%TO.N,SW_1*%
X84455000Y-87122000D03*
X85581503Y-119888000D03*
X85648800Y-115214400D03*
%TO.N,SW_2*%
X84582000Y-115214400D03*
X75824510Y-89148490D03*
X84582000Y-119888000D03*
%TO.N,+5V*%
X34417000Y-86868000D03*
X24130000Y-77089000D03*
X22098000Y-77089000D03*
X25146000Y-77089000D03*
X23114000Y-77089000D03*
%TO.N,/STM32L151RET6TR/BOOT*%
X53715490Y-100832490D03*
%TO.N,/STM32L151RET6TR/RST*%
X63113490Y-106928490D03*
%TO.N,SCL1*%
X105918000Y-123444000D03*
X47619490Y-101594490D03*
X181483000Y-105156000D03*
X257683000Y-105156000D03*
X105918000Y-106716000D03*
X219583000Y-105156000D03*
X143383000Y-105156000D03*
%TO.N,SDA1*%
X260223000Y-105156000D03*
X48381490Y-99054490D03*
X184023000Y-105029000D03*
X145923000Y-105156000D03*
X108458000Y-122047000D03*
X109728000Y-107097000D03*
X47624143Y-102615143D03*
X222123000Y-105029000D03*
%TO.N,/STM32L151RET6TR/FTDI_RTS*%
X59811490Y-99308490D03*
X58287490Y-92196490D03*
%TO.N,/STM32L151RET6TR/FTDI_CTS*%
X60065490Y-100324490D03*
%TO.N,/STM32L151RET6TR/SW0*%
X47365490Y-94482490D03*
X52953490Y-94482490D03*
%TO.N,SCL2*%
X46857490Y-83306490D03*
X62859490Y-90672490D03*
%TO.N,SDA2*%
X63342510Y-88753408D03*
X49397490Y-83306490D03*
%TO.N,/STM32L151RET6TR/PIN41*%
X63113490Y-94736490D03*
%TO.N,/STM32L151RET6TR/PIN29*%
X66161490Y-98800490D03*
%TO.N,/STM32L151RET6TR/PIN30*%
X65145490Y-98800490D03*
%TO.N,/STM32L151RET6TR/PC8*%
X51937490Y-83306490D03*
%TO.N,/STM32L151RET6TR/PA9*%
X44317490Y-83306490D03*
%TO.N,/STM32L151RET6TR/PA10*%
X41777490Y-83052490D03*
%TO.N,BUCK_5_EN*%
X60319490Y-102864490D03*
X53467000Y-81915000D03*
X32004000Y-80264000D03*
X39624000Y-79756000D03*
%TO.N,XSHUT_3*%
X69020803Y-120310399D03*
X103378000Y-111288000D03*
X214757000Y-95123000D03*
X68961000Y-117221000D03*
X217043000Y-105156000D03*
%TO.N,GPIOI_3*%
X90043000Y-83530674D03*
X82065801Y-103113656D03*
X65869990Y-95250000D03*
X214503000Y-105626500D03*
X90932000Y-101600000D03*
X90995500Y-104457500D03*
X100838000Y-111288000D03*
X62759776Y-79367996D03*
X218795600Y-96520000D03*
%TO.N,XSHUT_4*%
X255143000Y-105410000D03*
X252730000Y-95123000D03*
X69977000Y-119741501D03*
X69981299Y-116590299D03*
X103378000Y-117475000D03*
%TO.N,GPIOI_4*%
X89408000Y-101600000D03*
X256895600Y-96672400D03*
X252603000Y-105283000D03*
X100838000Y-117475000D03*
X89408000Y-104521000D03*
X62045029Y-80092496D03*
X89229187Y-84110944D03*
%TD*%
D44*
%TO.N,/STM32L151RET6TR/OS32_IN*%
X60617490Y-104475490D02*
X60617490Y-105878500D01*
%TO.N,GND*%
X104013000Y-96774000D02*
X104140000Y-96647000D01*
X104013000Y-97840800D02*
X104013000Y-96774000D01*
%TO.N,/STM32L151RET6TR/MCO*%
X60965510Y-111500490D02*
X58355490Y-111500490D01*
X61642480Y-110823520D02*
X60965510Y-111500490D01*
X61642480Y-104500480D02*
X61642480Y-110823520D01*
X61617490Y-104475490D02*
X61642480Y-104500480D01*
%TO.N,/STM32L151RET6TR/OSM_OUT*%
X65696490Y-114210490D02*
X65696490Y-115564490D01*
X66855490Y-113051490D02*
X65696490Y-114210490D01*
X66855490Y-111500490D02*
X66855490Y-113051490D01*
X62117490Y-110631490D02*
X62117490Y-104475490D01*
X62986490Y-111500490D02*
X62117490Y-110631490D01*
X66855490Y-111500490D02*
X62986490Y-111500490D01*
D45*
%TO.N,GND*%
X217678000Y-101041200D02*
X217678000Y-102235000D01*
D44*
X102897800Y-98640999D02*
X103593999Y-98640999D01*
X65117490Y-103147492D02*
X64637490Y-102667492D01*
X254662800Y-100241001D02*
X255358999Y-100241001D01*
X61595000Y-116713000D02*
X61785500Y-116903500D01*
D45*
X179578000Y-102235000D02*
X178907000Y-102906000D01*
D44*
X48425490Y-108782490D02*
X48425490Y-110694490D01*
X102897800Y-100241001D02*
X103593999Y-100241001D01*
X178462800Y-98640999D02*
X179235001Y-98640999D01*
X61589490Y-115564490D02*
X61595000Y-115570000D01*
X69883192Y-95550490D02*
X70479490Y-94954192D01*
X104013000Y-101346000D02*
X103378000Y-101981000D01*
X69665490Y-102050490D02*
X69690480Y-102075480D01*
X70479490Y-93413490D02*
X72310490Y-93413490D01*
D45*
X85449490Y-100578490D02*
X85449490Y-98310490D01*
X255778000Y-98171000D02*
X255778000Y-98679000D01*
D44*
X60117490Y-93125490D02*
X60117490Y-92017490D01*
X142113000Y-101041200D02*
X142113000Y-100556200D01*
X61595000Y-115570000D02*
X61595000Y-116713000D01*
X56509490Y-105150490D02*
X56509490Y-104388490D01*
X104013000Y-101041200D02*
X104013000Y-100584000D01*
D45*
X255778000Y-97840800D02*
X255778000Y-98171000D01*
D44*
X142113000Y-97840800D02*
X142113000Y-98325800D01*
X179451000Y-100457000D02*
X179578000Y-100457000D01*
D45*
X255778000Y-100711000D02*
X255778000Y-101041200D01*
X28210000Y-86165000D02*
X28210000Y-84471000D01*
D44*
X104013000Y-99441000D02*
X104013000Y-99060000D01*
D45*
X85467490Y-93720490D02*
X85467490Y-91443490D01*
X217678000Y-99822000D02*
X217678000Y-100203000D01*
X255778000Y-99568000D02*
X255778000Y-99822000D01*
D44*
X63621490Y-116718510D02*
X63436500Y-116903500D01*
D45*
X31004000Y-82550000D02*
X31004000Y-81645000D01*
D44*
X103593999Y-100241001D02*
X104013000Y-99822000D01*
X142113000Y-98790699D02*
X142096743Y-98806956D01*
X179235001Y-98640999D02*
X179285999Y-98640999D01*
X51328990Y-103372490D02*
X50635490Y-103372490D01*
D45*
X217678000Y-100203000D02*
X217678000Y-100711000D01*
X217678000Y-98679000D02*
X217678000Y-99060000D01*
X217678000Y-100711000D02*
X217678000Y-101041200D01*
D44*
X69042490Y-102050490D02*
X69665490Y-102050490D01*
X140997800Y-99441000D02*
X141859000Y-99441000D01*
D45*
X217678000Y-98171000D02*
X217678000Y-98679000D01*
X255778000Y-102235000D02*
X255107000Y-102906000D01*
X28448000Y-120920000D02*
X28448000Y-119634000D01*
X178462800Y-98640999D02*
X179489001Y-98640999D01*
D44*
X179235001Y-100241001D02*
X179451000Y-100457000D01*
D45*
X217678000Y-97840800D02*
X217678000Y-96647000D01*
D44*
X254662800Y-98640999D02*
X255435001Y-98640999D01*
X217335001Y-98640999D02*
X217639999Y-98640999D01*
X216562800Y-98640999D02*
X217335001Y-98640999D01*
D45*
X179578000Y-98552000D02*
X179578000Y-98298000D01*
X179578000Y-100457000D02*
X179578000Y-99822000D01*
D44*
X103632000Y-99441000D02*
X104013000Y-99822000D01*
X217551000Y-99441000D02*
X217678000Y-99568000D01*
X103924001Y-98640999D02*
X104013000Y-98552000D01*
D45*
X142113000Y-101600000D02*
X140843000Y-102870000D01*
D44*
X103632000Y-99441000D02*
X104013000Y-99060000D01*
X104013000Y-98552000D02*
X104013000Y-98298000D01*
D45*
X31004000Y-81645000D02*
X31369000Y-81280000D01*
D44*
X72321510Y-102811490D02*
X72390000Y-102743000D01*
D45*
X255778000Y-100203000D02*
X255778000Y-100711000D01*
D44*
X51482490Y-110992490D02*
X51482490Y-112220510D01*
D45*
X255778000Y-98679000D02*
X255778000Y-99060000D01*
D44*
X140997800Y-100241001D02*
X141947999Y-100241001D01*
D45*
X179578000Y-99822000D02*
X179578000Y-99568000D01*
D44*
X51482490Y-112220510D02*
X51435000Y-112268000D01*
X70479490Y-93466490D02*
X71495490Y-94482490D01*
X79401490Y-89148490D02*
X78099490Y-89148490D01*
X255435001Y-98640999D02*
X255778000Y-98298000D01*
X216562800Y-99441000D02*
X217551000Y-99441000D01*
D45*
X142113000Y-98823213D02*
X142113000Y-97840800D01*
D44*
X63621490Y-115564490D02*
X63621490Y-116718510D01*
X217208001Y-100241001D02*
X217678000Y-100711000D01*
X102897800Y-99441000D02*
X104013000Y-99441000D01*
X142113000Y-100076000D02*
X142113000Y-99695000D01*
D45*
X255778000Y-101041200D02*
X255778000Y-102235000D01*
D44*
X255397000Y-100203000D02*
X255358999Y-100241001D01*
X255308001Y-100241001D02*
X255778000Y-100711000D01*
X255435001Y-98640999D02*
X255435001Y-98717001D01*
X254662800Y-100241001D02*
X255308001Y-100241001D01*
D45*
X176110999Y-98640999D02*
X175768000Y-98298000D01*
D44*
X104013000Y-100584000D02*
X104013000Y-100330000D01*
D45*
X86719201Y-96006490D02*
X86778500Y-96065789D01*
D44*
X103670001Y-98640999D02*
X104013000Y-98298000D01*
D45*
X27940000Y-118110000D02*
X26738000Y-118110000D01*
X255778000Y-99822000D02*
X255778000Y-100203000D01*
X85467490Y-98292490D02*
X85467490Y-96006490D01*
D44*
X217678000Y-98298000D02*
X217678000Y-98171000D01*
X179235001Y-100241001D02*
X179578000Y-99898002D01*
X72511490Y-89148490D02*
X73787000Y-90424000D01*
D45*
X142113000Y-101041200D02*
X142113000Y-101672000D01*
X179578000Y-99568000D02*
X179578000Y-98933000D01*
D44*
X69042490Y-95550490D02*
X69883192Y-95550490D01*
X62997510Y-117342490D02*
X62605490Y-117342490D01*
D45*
X179578000Y-101041200D02*
X179578000Y-100457000D01*
D44*
X48425490Y-108782490D02*
X49272490Y-108782490D01*
D45*
X28210000Y-84471000D02*
X28194000Y-84455000D01*
X85467490Y-96006490D02*
X86719201Y-96006490D01*
D44*
X178462800Y-100241001D02*
X179235001Y-100241001D01*
X103593999Y-98640999D02*
X104013000Y-99060000D01*
X217335001Y-98640999D02*
X217335001Y-98717001D01*
X141859000Y-99441000D02*
X142113000Y-99187000D01*
D45*
X142113000Y-100076000D02*
X142113000Y-101600000D01*
X85467490Y-91443490D02*
X85458490Y-91434490D01*
X255778000Y-99060000D02*
X255778000Y-99568000D01*
D44*
X48425490Y-105582490D02*
X48425490Y-103670490D01*
D45*
X142113000Y-101672000D02*
X143347000Y-102906000D01*
D44*
X71241490Y-102811490D02*
X72321510Y-102811490D01*
X102897800Y-100241001D02*
X103670001Y-100241001D01*
X64637490Y-102667492D02*
X64637490Y-102610490D01*
X141930786Y-98640999D02*
X142096743Y-98806956D01*
X61589490Y-115564490D02*
X63621490Y-115564490D01*
X216562800Y-100241001D02*
X217258999Y-100241001D01*
X49272490Y-108782490D02*
X49874000Y-109384000D01*
X142113000Y-99187000D02*
X142113000Y-98823213D01*
X61785500Y-116903500D02*
X62224490Y-117342490D01*
D45*
X28448000Y-118618000D02*
X27940000Y-118110000D01*
D44*
X72310490Y-93413490D02*
X72511490Y-93212490D01*
X255435001Y-98717001D02*
X255778000Y-99060000D01*
D45*
X179578000Y-97840800D02*
X179578000Y-96520000D01*
D44*
X50635490Y-103372490D02*
X48425490Y-105582490D01*
X254662800Y-99441000D02*
X255651000Y-99441000D01*
X104013000Y-100330000D02*
X104013000Y-99822000D01*
X70479490Y-94954192D02*
X70479490Y-93413490D01*
D45*
X142113000Y-98823213D02*
X142096743Y-98806956D01*
D44*
X179197000Y-99441000D02*
X179451000Y-99187000D01*
X179235001Y-98640999D02*
X179489001Y-98640999D01*
X217335001Y-98717001D02*
X217678000Y-99060000D01*
X141859000Y-99441000D02*
X142113000Y-99695000D01*
X179197000Y-99441000D02*
X179578000Y-99822000D01*
D45*
X217678000Y-99060000D02*
X217678000Y-99568000D01*
D44*
X179235001Y-98640999D02*
X179578000Y-98298000D01*
X179285999Y-98640999D02*
X179578000Y-98933000D01*
X70505480Y-102075480D02*
X71241490Y-102811490D01*
X179451000Y-99187000D02*
X179451000Y-99060000D01*
D45*
X28448000Y-119634000D02*
X28448000Y-118618000D01*
D44*
X102897800Y-98640999D02*
X103670001Y-98640999D01*
X73787000Y-91936980D02*
X72511490Y-93212490D01*
X142113000Y-101041200D02*
X142113000Y-101600000D01*
X102897800Y-98640999D02*
X103924001Y-98640999D01*
X60117490Y-92017490D02*
X60573490Y-91561490D01*
X104013000Y-101219000D02*
X104775000Y-101981000D01*
X49874000Y-109384000D02*
X51482490Y-110992490D01*
D45*
X255778000Y-97840800D02*
X255778000Y-96647000D01*
D44*
X255651000Y-99441000D02*
X255778000Y-99568000D01*
X142113000Y-99695000D02*
X142113000Y-99187000D01*
X102897800Y-99441000D02*
X103632000Y-99441000D01*
D45*
X142113000Y-97840800D02*
X142113000Y-96774000D01*
D44*
X216562800Y-100241001D02*
X217208001Y-100241001D01*
X104013000Y-98298000D02*
X104013000Y-97840800D01*
X217297000Y-100203000D02*
X217258999Y-100241001D01*
X57692490Y-102050490D02*
X59101490Y-102050490D01*
X73787000Y-90424000D02*
X73787000Y-91936980D01*
X48425490Y-103670490D02*
X48381490Y-103626490D01*
X217258999Y-100241001D02*
X217678000Y-99822000D01*
X48425490Y-110694490D02*
X48381490Y-110738490D01*
X56509490Y-104388490D02*
X57271490Y-103626490D01*
X102897800Y-100241001D02*
X103924001Y-100241001D01*
X217678000Y-100203000D02*
X217297000Y-100203000D01*
X217639999Y-98640999D02*
X217678000Y-98679000D01*
X178462800Y-99441000D02*
X179197000Y-99441000D01*
X69690480Y-102075480D02*
X70505480Y-102075480D01*
X255358999Y-100241001D02*
X255778000Y-99822000D01*
D45*
X85467490Y-96006490D02*
X85467490Y-93720490D01*
D44*
X217335001Y-98640999D02*
X217678000Y-98298000D01*
D45*
X179578000Y-96520000D02*
X179670688Y-96427312D01*
D44*
X59101490Y-102050490D02*
X59303490Y-101848490D01*
X142113000Y-97840800D02*
X142113000Y-98790699D01*
X103924001Y-100241001D02*
X104013000Y-100330000D01*
X62224490Y-117342490D02*
X62605490Y-117342490D01*
D45*
X142113000Y-101041200D02*
X142113000Y-100076000D01*
D44*
X255739999Y-98640999D02*
X255778000Y-98679000D01*
X141947999Y-100241001D02*
X142113000Y-100076000D01*
D45*
X178462800Y-98640999D02*
X176110999Y-98640999D01*
D44*
X104013000Y-101041200D02*
X104013000Y-101346000D01*
X70479490Y-93413490D02*
X70479490Y-93466490D01*
D45*
X217678000Y-102235000D02*
X217007000Y-102906000D01*
D44*
X103670001Y-100241001D02*
X104013000Y-100584000D01*
D45*
X217678000Y-97840800D02*
X217678000Y-98171000D01*
X179578000Y-98298000D02*
X179578000Y-97840800D01*
X85449490Y-98310490D02*
X85467490Y-98292490D01*
D44*
X255435001Y-98640999D02*
X255739999Y-98640999D01*
X63436500Y-116903500D02*
X62997510Y-117342490D01*
X104013000Y-99822000D02*
X104013000Y-99441000D01*
X104013000Y-101041200D02*
X104013000Y-101219000D01*
X255778000Y-98298000D02*
X255778000Y-98171000D01*
X179578000Y-99898002D02*
X179578000Y-99822000D01*
D45*
X179578000Y-98933000D02*
X179578000Y-98552000D01*
D44*
X179451000Y-99060000D02*
X179578000Y-98933000D01*
D45*
X31369000Y-81280000D02*
X32004000Y-81280000D01*
D44*
X140997800Y-98640999D02*
X141930786Y-98640999D01*
D45*
X179489001Y-98640999D02*
X179578000Y-98552000D01*
D44*
X56509490Y-106928490D02*
X56509490Y-105150490D01*
D45*
X179578000Y-101041200D02*
X179578000Y-102235000D01*
D44*
X104013000Y-99060000D02*
X104013000Y-98552000D01*
X255778000Y-100203000D02*
X255397000Y-100203000D01*
X65117490Y-104475490D02*
X65117490Y-103147492D01*
D45*
X142113000Y-100076000D02*
X142113000Y-98823213D01*
X217678000Y-99568000D02*
X217678000Y-99822000D01*
D46*
%TO.N,VCC*%
X40315511Y-82473511D02*
X37592000Y-79750000D01*
X35433000Y-97326000D02*
X35433000Y-96310000D01*
X36090000Y-78248000D02*
X30353000Y-78248000D01*
X40315511Y-90411489D02*
X40315511Y-82473511D01*
X35433000Y-95294000D02*
X40315511Y-90411489D01*
X35433000Y-98342000D02*
X35433000Y-97326000D01*
X37592000Y-79750000D02*
X36090000Y-78248000D01*
X35433000Y-95294000D02*
X35433000Y-96310000D01*
D44*
%TO.N,+3V3*%
X69042490Y-94061490D02*
X69042490Y-93517480D01*
X59176490Y-102991490D02*
X58735490Y-102550490D01*
X59617490Y-105545490D02*
X59617490Y-104475490D01*
D45*
X41021000Y-124968000D02*
X42164000Y-123825000D01*
D44*
X81189000Y-83022000D02*
X81189000Y-87033000D01*
D45*
X105128200Y-101040999D02*
X106366401Y-101040999D01*
D44*
X82550000Y-87376000D02*
X82550000Y-87846500D01*
X43047490Y-110114510D02*
X41656000Y-111506000D01*
X75438000Y-87122000D02*
X74420000Y-87122000D01*
X69042490Y-101550490D02*
X70777490Y-101550490D01*
X70479490Y-91688490D02*
X70485000Y-91694000D01*
X59617490Y-90866490D02*
X60827490Y-89656490D01*
X71749490Y-101086490D02*
X72390000Y-101727000D01*
D45*
X106366401Y-101040999D02*
X106370700Y-101045298D01*
D44*
X74331000Y-87033000D02*
X72098000Y-87033000D01*
X65617490Y-102646490D02*
X65653490Y-102610490D01*
X70485000Y-91694000D02*
X71120000Y-91694000D01*
X69042490Y-93517480D02*
X70479490Y-92080480D01*
X70777490Y-101550490D02*
X71241490Y-101086490D01*
X59617490Y-93125490D02*
X59617490Y-90866490D01*
X45333490Y-110103490D02*
X45720000Y-110490000D01*
D45*
X139521999Y-101040999D02*
X140997800Y-101040999D01*
D44*
X58909490Y-104475490D02*
X58234490Y-105150490D01*
D45*
X253059999Y-101040999D02*
X254662800Y-101040999D01*
X25273000Y-124968000D02*
X41021000Y-124968000D01*
D44*
X72098000Y-87033000D02*
X70739000Y-88392000D01*
X81189000Y-87033000D02*
X82207000Y-87033000D01*
X45333490Y-109182490D02*
X45333490Y-110103490D01*
D45*
X180693200Y-101040999D02*
X182296001Y-101040999D01*
X42164000Y-120396000D02*
X40971000Y-119203000D01*
D44*
X71120000Y-91694000D02*
X71676510Y-91137490D01*
X58234490Y-106928490D02*
X59617490Y-105545490D01*
X65617490Y-104475490D02*
X65617490Y-102646490D01*
D45*
X178462800Y-101040999D02*
X176986999Y-101040999D01*
D44*
X82207000Y-87033000D02*
X82550000Y-87376000D01*
X74331000Y-79083000D02*
X74331000Y-87033000D01*
D45*
X24384000Y-124079000D02*
X25273000Y-124968000D01*
D44*
X81189000Y-79083000D02*
X81189000Y-83022000D01*
D45*
X258877001Y-101040999D02*
X256893200Y-101040999D01*
X145847001Y-101040999D02*
X145923000Y-100965000D01*
X214959999Y-101040999D02*
X216562800Y-101040999D01*
X214122000Y-100203000D02*
X214959999Y-101040999D01*
X182296001Y-101040999D02*
X183134000Y-100203000D01*
X143228200Y-101040999D02*
X145847001Y-101040999D01*
X101651001Y-101040999D02*
X101600000Y-101092000D01*
D44*
X59617490Y-103432490D02*
X59176490Y-102991490D01*
X69042490Y-95050490D02*
X69042490Y-94061490D01*
X71241490Y-101086490D02*
X71749490Y-101086490D01*
D45*
X138811000Y-100330000D02*
X139521999Y-101040999D01*
X252222000Y-100203000D02*
X253059999Y-101040999D01*
X42164000Y-123825000D02*
X42164000Y-120396000D01*
D44*
X59617490Y-104475490D02*
X59617490Y-103432490D01*
D45*
X102897800Y-101040999D02*
X101651001Y-101040999D01*
D44*
X59617490Y-104475490D02*
X58909490Y-104475490D01*
X70479490Y-92080480D02*
X70479490Y-91688490D01*
D45*
X259334000Y-100584000D02*
X258877001Y-101040999D01*
X221234000Y-100584000D02*
X220777001Y-101040999D01*
D44*
X43047490Y-109182490D02*
X43047490Y-110114510D01*
D45*
X176986999Y-101040999D02*
X176149000Y-100203000D01*
D44*
X74511490Y-87031490D02*
X74507490Y-87027490D01*
D45*
X40971000Y-119203000D02*
X40971000Y-117856000D01*
X24384000Y-122920000D02*
X24384000Y-124079000D01*
D44*
X58735490Y-102550490D02*
X57692490Y-102550490D01*
X72511490Y-91137490D02*
X71676510Y-91137490D01*
D45*
X220777001Y-101040999D02*
X218793200Y-101040999D01*
D44*
%TO.N,XSHUT_1*%
X136779000Y-103759000D02*
X137287000Y-103759000D01*
X137287000Y-103505000D02*
X137287000Y-103759000D01*
X140843000Y-105156000D02*
X140081000Y-104394000D01*
X136779000Y-103759000D02*
X133604000Y-103759000D01*
X137668000Y-104394000D02*
X137287000Y-104013000D01*
X133604000Y-103759000D02*
X127381000Y-97536000D01*
X65228851Y-107383520D02*
X69157238Y-107383520D01*
X69157238Y-107383520D02*
X70299520Y-108525803D01*
X68834000Y-123952000D02*
X67437000Y-122555000D01*
X139775999Y-97841001D02*
X139636500Y-97980500D01*
X67448327Y-115304673D02*
X67448327Y-117230437D01*
X67437000Y-122555000D02*
X67437000Y-120396000D01*
X139700000Y-96393000D02*
X139700000Y-97917000D01*
X67690282Y-115062718D02*
X67448327Y-115304673D01*
X137287000Y-103759000D02*
X137287000Y-104013000D01*
X139700000Y-97917000D02*
X139636500Y-97980500D01*
X70299520Y-108525803D02*
X70299520Y-113851198D01*
X136779000Y-103759000D02*
X137033000Y-103759000D01*
X69088000Y-115062718D02*
X67690282Y-115062718D01*
X127381000Y-97536000D02*
X117348000Y-97536000D01*
X105791000Y-85979000D02*
X103378000Y-85979000D01*
X139636500Y-97980500D02*
X137287000Y-100330000D01*
X63617490Y-105772158D02*
X65228851Y-107383520D01*
X137033000Y-103759000D02*
X137287000Y-104013000D01*
X63617490Y-104475490D02*
X63617490Y-105772158D01*
X137033000Y-103759000D02*
X137287000Y-103505000D01*
X70299520Y-113851198D02*
X69088000Y-115062718D01*
X137287000Y-100330000D02*
X137287000Y-103505000D01*
X140081000Y-104394000D02*
X137668000Y-104394000D01*
X140997800Y-97841001D02*
X139775999Y-97841001D01*
X117348000Y-97536000D02*
X105791000Y-85979000D01*
%TO.N,GPIOI_1*%
X139399897Y-95668489D02*
X140372489Y-95668489D01*
X141440511Y-96049489D02*
X141097000Y-96393000D01*
X133417802Y-104208520D02*
X127761641Y-98552359D01*
X127194802Y-97985520D02*
X121412000Y-97985520D01*
X133799520Y-104208520D02*
X136466520Y-104208520D01*
X59088080Y-77528480D02*
X56446480Y-77528480D01*
X56446480Y-77528480D02*
X54610000Y-75692000D01*
X137144951Y-97923435D02*
X139399897Y-95668489D01*
X99949000Y-85090000D02*
X100838000Y-85979000D01*
X91567000Y-83566000D02*
X93091000Y-85090000D01*
X121412000Y-97985520D02*
X118178520Y-97985520D01*
X127761641Y-98552359D02*
X127194802Y-97985520D01*
X143228200Y-97841001D02*
X143228200Y-96864586D01*
X136466520Y-104208520D02*
X137414000Y-105156000D01*
X93091000Y-85090000D02*
X99949000Y-85090000D01*
X104639386Y-86995000D02*
X104512386Y-86868000D01*
X118178520Y-97985520D02*
X115629906Y-97985520D01*
X143228200Y-96864586D02*
X142413103Y-96049489D01*
X100838000Y-86233000D02*
X100838000Y-85979000D01*
X66390378Y-80994660D02*
X63246718Y-77851000D01*
X62738000Y-77851000D02*
X59410600Y-77851000D01*
X101473000Y-86868000D02*
X100838000Y-86233000D01*
X142413103Y-96049489D02*
X141440511Y-96049489D01*
X133799520Y-104208520D02*
X133417802Y-104208520D01*
X115629906Y-97985520D02*
X104893386Y-87249000D01*
X137414000Y-105156000D02*
X138176000Y-105156000D01*
X137144951Y-98567049D02*
X137144951Y-97923435D01*
X104893386Y-87249000D02*
X104639386Y-86995000D01*
X66617490Y-93125490D02*
X66617490Y-91257644D01*
X66617490Y-91257644D02*
X66390378Y-91030532D01*
X66390378Y-91030532D02*
X66390378Y-80994660D01*
X140372489Y-95668489D02*
X141097000Y-96393000D01*
X63246718Y-77851000D02*
X62738000Y-77851000D01*
X104512386Y-86868000D02*
X101473000Y-86868000D01*
X59410600Y-77851000D02*
X59088080Y-77528480D01*
%TO.N,XSHUT_2*%
X134112000Y-105918000D02*
X131186338Y-102992339D01*
X174244000Y-102870000D02*
X174498000Y-102870000D01*
X70749040Y-114037395D02*
X69274197Y-115512238D01*
X154178000Y-105918000D02*
X134112000Y-105918000D01*
X174244000Y-98679000D02*
X174244000Y-102489000D01*
X68199000Y-120777000D02*
X71374000Y-123952000D01*
X178462800Y-97841001D02*
X178195288Y-97573489D01*
X68637762Y-115512238D02*
X68195141Y-115954859D01*
X69274197Y-115512238D02*
X68637762Y-115512238D01*
X174244000Y-102489000D02*
X174498000Y-102743000D01*
X157226000Y-102870000D02*
X154178000Y-105918000D01*
X174244000Y-102489000D02*
X174625000Y-102870000D01*
X176911000Y-97282000D02*
X177202489Y-97573489D01*
X176911000Y-97282000D02*
X176619511Y-97573489D01*
X176619511Y-97573489D02*
X175349511Y-97573489D01*
X64117490Y-104475490D02*
X64117490Y-105636441D01*
X173863000Y-102870000D02*
X157226000Y-102870000D01*
X173863000Y-102870000D02*
X174244000Y-102870000D01*
X65415048Y-106934000D02*
X69343436Y-106934000D01*
X176911000Y-95123000D02*
X176911000Y-97282000D01*
X70749039Y-108339604D02*
X70749040Y-114037395D01*
X120001007Y-102992339D02*
X109591668Y-92583000D01*
X175349511Y-97573489D02*
X174244000Y-98679000D01*
X104902000Y-92583000D02*
X103378000Y-91059000D01*
X174625000Y-102870000D02*
X176657000Y-102870000D01*
X174498000Y-102870000D02*
X174625000Y-102870000D01*
X109591668Y-92583000D02*
X104902000Y-92583000D01*
X64117490Y-105636441D02*
X65415048Y-106934000D01*
X174244000Y-102489000D02*
X173863000Y-102870000D01*
X69343436Y-106934000D02*
X70749039Y-108339604D01*
X178195288Y-97573489D02*
X177202489Y-97573489D01*
X174498000Y-102743000D02*
X174498000Y-102870000D01*
X176657000Y-102870000D02*
X178943000Y-105156000D01*
X68199000Y-119741501D02*
X68199000Y-120777000D01*
X68195141Y-115954859D02*
X68195141Y-116566152D01*
X131186338Y-102992339D02*
X120001007Y-102992339D01*
X177202489Y-97573489D02*
X176619511Y-97573489D01*
X174244000Y-102489000D02*
X174244000Y-102870000D01*
%TO.N,GPIOI_2*%
X90927134Y-84323134D02*
X90809866Y-84205866D01*
X176403000Y-105156000D02*
X177800000Y-105156000D01*
X100838000Y-91059000D02*
X102811520Y-93032520D01*
X180721000Y-96520000D02*
X180721000Y-97813201D01*
X100838000Y-91059000D02*
X100838000Y-90161386D01*
X177800000Y-105156000D02*
X178625500Y-105981500D01*
X185420000Y-105410000D02*
X185420000Y-98933000D01*
X109405470Y-93032520D02*
X119814809Y-103441859D01*
X100838000Y-90161386D02*
X96909614Y-86233000D01*
X62098134Y-78618839D02*
X59314839Y-78618839D01*
X96393000Y-86233000D02*
X92826295Y-86233000D01*
X131000141Y-103441859D02*
X133925803Y-106367520D01*
X178625500Y-105981500D02*
X184848500Y-105981500D01*
X54356000Y-77978000D02*
X52070000Y-75692000D01*
X58674000Y-77978000D02*
X54356000Y-77978000D01*
X90927134Y-84333839D02*
X90927134Y-84323134D01*
X157412198Y-103319520D02*
X174566520Y-103319520D01*
X96909614Y-86233000D02*
X96393000Y-86233000D01*
X154364198Y-106367520D02*
X157412198Y-103319520D01*
X102811520Y-93032520D02*
X109405470Y-93032520D01*
X63378839Y-78618839D02*
X65940858Y-81180858D01*
X174566520Y-103319520D02*
X176403000Y-105156000D01*
X59314839Y-78618839D02*
X58674000Y-77978000D01*
X180721000Y-97813201D02*
X180693200Y-97841001D01*
X119814809Y-103441859D02*
X131000141Y-103441859D01*
X65940858Y-81180858D02*
X65940858Y-91216730D01*
X183007000Y-96520000D02*
X180721000Y-96520000D01*
X184848500Y-105981500D02*
X185420000Y-105410000D01*
X185420000Y-98933000D02*
X183007000Y-96520000D01*
X133925803Y-106367520D02*
X154364198Y-106367520D01*
X65940858Y-91216730D02*
X66117490Y-91393362D01*
X90809866Y-84205866D02*
X90799161Y-84205866D01*
X62098134Y-78618839D02*
X63378839Y-78618839D01*
X66117490Y-91393362D02*
X66117490Y-93125490D01*
X92826295Y-86233000D02*
X90927134Y-84333839D01*
%TO.N,XSHUT_0*%
X102897800Y-96435198D02*
X103791999Y-95540999D01*
X63117490Y-104475490D02*
X63117490Y-105907876D01*
X101802999Y-97841001D02*
X102897800Y-97841001D01*
X67437000Y-114554000D02*
X66675000Y-115316000D01*
X65042654Y-107833040D02*
X68971040Y-107833040D01*
X91821000Y-103632000D02*
X96012000Y-103632000D01*
X66675000Y-115316000D02*
X66675000Y-116585199D01*
X68961000Y-114554000D02*
X67437000Y-114554000D01*
X63117490Y-105907876D02*
X65042654Y-107833040D01*
X102897800Y-97841001D02*
X102897800Y-96435198D01*
X66675000Y-116585199D02*
X66680435Y-116590634D01*
X103791999Y-95540999D02*
X106970999Y-95540999D01*
X96012000Y-103632000D02*
X101802999Y-97841001D01*
X69850000Y-113665000D02*
X68961000Y-114554000D01*
X69850000Y-108712000D02*
X69850000Y-113665000D01*
X68971040Y-107833040D02*
X69850000Y-108712000D01*
X66675000Y-121031000D02*
X63754000Y-123952000D01*
X106970999Y-95540999D02*
X107188000Y-95758000D01*
X66675000Y-119741501D02*
X66675000Y-121031000D01*
%TO.N,GPIOI_0*%
X63870960Y-77078960D02*
X57774960Y-77078960D01*
X66839898Y-80047898D02*
X63870960Y-77078960D01*
X67117490Y-93125490D02*
X67117490Y-91121926D01*
X96589280Y-102362000D02*
X81407000Y-102362000D01*
X109474000Y-95758000D02*
X108585000Y-94869000D01*
X105128200Y-97841001D02*
X107390999Y-97841001D01*
X67117490Y-93125490D02*
X67979490Y-93125490D01*
X57774960Y-77078960D02*
X57150000Y-76454000D01*
X97316640Y-101634640D02*
X96589280Y-102362000D01*
X97316640Y-101634640D02*
X102362000Y-96589280D01*
X102362000Y-96589280D02*
X102362000Y-95377000D01*
X67979490Y-93125490D02*
X68066490Y-93212490D01*
X57150000Y-76454000D02*
X57150000Y-75692000D01*
X66839898Y-90844334D02*
X66839898Y-80047898D01*
X108585000Y-94869000D02*
X102870000Y-94869000D01*
X67117490Y-91121926D02*
X66839898Y-90844334D01*
X102870000Y-94869000D02*
X102362000Y-95377000D01*
X107390999Y-97841001D02*
X109474000Y-95758000D01*
%TO.N,LED_3*%
X68188458Y-89651458D02*
X68188458Y-78877542D01*
X77847501Y-96006490D02*
X77845490Y-96008501D01*
X69042490Y-100050490D02*
X71908946Y-100050490D01*
X69209490Y-90672490D02*
X68188458Y-89651458D01*
X71908946Y-100050490D02*
X75950935Y-96008501D01*
X68188458Y-78877542D02*
X71374000Y-75692000D01*
X79353490Y-96006490D02*
X77847501Y-96006490D01*
X75950935Y-96008501D02*
X77845490Y-96008501D01*
%TO.N,LED_4*%
X77514218Y-93809500D02*
X78089042Y-93809500D01*
X68637978Y-80968022D02*
X73914000Y-75692000D01*
X69042490Y-99550490D02*
X71773228Y-99550490D01*
X71773228Y-99550490D02*
X77514218Y-93809500D01*
X79353490Y-93720490D02*
X78178052Y-93720490D01*
X78178052Y-93720490D02*
X78089042Y-93809500D01*
X69402503Y-89473508D02*
X68637978Y-88708983D01*
X68637978Y-88708983D02*
X68637978Y-80968022D01*
%TO.N,LED_5*%
X75575010Y-75692000D02*
X76454000Y-75692000D01*
X77222228Y-91434490D02*
X78099490Y-91434490D01*
X70606228Y-98050490D02*
X77222228Y-91434490D01*
X69042490Y-98050490D02*
X70606228Y-98050490D01*
X78099490Y-91434490D02*
X79369490Y-91434490D01*
X69362489Y-88403186D02*
X69362489Y-81904521D01*
X69362489Y-81904521D02*
X75575010Y-75692000D01*
%TO.N,LED_1*%
X79385490Y-100578490D02*
X79385490Y-103102490D01*
X74101059Y-105309001D02*
X73385530Y-106024530D01*
X77178979Y-105309001D02*
X74101059Y-105309001D01*
X66142490Y-103610484D02*
X66117490Y-103635484D01*
X66117490Y-103635484D02*
X66117490Y-104475490D01*
X67939490Y-91308208D02*
X67289418Y-90658136D01*
X79385490Y-103102490D02*
X77178979Y-105309001D01*
X73385530Y-106024530D02*
X66690806Y-106024530D01*
X66690806Y-106024530D02*
X66142490Y-105476214D01*
X66142490Y-105476214D02*
X66142490Y-103610484D01*
X67939490Y-91942490D02*
X67939490Y-91308208D01*
X67289418Y-90658136D02*
X67289418Y-76687418D01*
X78220501Y-100578490D02*
X79385490Y-100578490D01*
X67289418Y-76687418D02*
X66294000Y-75692000D01*
%TO.N,LED_2*%
X66877004Y-105575010D02*
X66592010Y-105290016D01*
X67738938Y-76787062D02*
X68834000Y-75692000D01*
X67738938Y-90471938D02*
X67738938Y-76787062D01*
X79353490Y-98292490D02*
X78068978Y-97007978D01*
X72976687Y-105575010D02*
X66877004Y-105575010D01*
X78068978Y-97007978D02*
X77852679Y-97007978D01*
X77496001Y-100149979D02*
X77496001Y-102080989D01*
X66592010Y-105290016D02*
X66592010Y-104500970D01*
X79353490Y-98292490D02*
X77496001Y-100149979D01*
X76617011Y-102959979D02*
X75591719Y-102959979D01*
X75591719Y-102959979D02*
X72976687Y-105575010D01*
X69209490Y-91942490D02*
X67738938Y-90471938D01*
X66592010Y-104500970D02*
X66617490Y-104475490D01*
X77496001Y-102080989D02*
X76617011Y-102959979D01*
%TO.N,SW_1*%
X81401490Y-89794510D02*
X81401490Y-89148490D01*
X82428510Y-89148490D02*
X84455000Y-87122000D01*
X85600000Y-87122000D02*
X85689000Y-87033000D01*
X70470510Y-97550490D02*
X77847990Y-90173010D01*
X81401490Y-89148490D02*
X82428510Y-89148490D01*
X81022990Y-90173010D02*
X81401490Y-89794510D01*
X77847990Y-90173010D02*
X81022990Y-90173010D01*
X69042490Y-97550490D02*
X70470510Y-97550490D01*
X85581503Y-119888000D02*
X85648800Y-119820703D01*
X85689000Y-87033000D02*
X85689000Y-79083000D01*
X84455000Y-87122000D02*
X85600000Y-87122000D01*
X85648800Y-119820703D02*
X85648800Y-115214400D01*
%TO.N,SW_2*%
X74511490Y-89148490D02*
X75824510Y-89148490D01*
X77432000Y-87033000D02*
X78831000Y-87033000D01*
X75824510Y-89148490D02*
X76835000Y-88138000D01*
X78831000Y-79083000D02*
X78831000Y-87033000D01*
X76835000Y-88138000D02*
X76835000Y-87630000D01*
X70298483Y-97050490D02*
X74511490Y-92837483D01*
X76835000Y-87630000D02*
X77432000Y-87033000D01*
X74511490Y-92837483D02*
X74511490Y-89148490D01*
X69042490Y-97050490D02*
X70298483Y-97050490D01*
X84582000Y-119888000D02*
X84582000Y-115214400D01*
%TO.N,Net-(D1-Pad2)*%
X81385490Y-100578490D02*
X83399490Y-100578490D01*
%TO.N,Net-(D2-Pad2)*%
X81353490Y-98292490D02*
X83417490Y-98292490D01*
%TO.N,Net-(D3-Pad2)*%
X81353490Y-96006490D02*
X83417490Y-96006490D01*
%TO.N,Net-(D4-Pad2)*%
X81353490Y-93720490D02*
X83417490Y-93720490D01*
%TO.N,Net-(D5-Pad2)*%
X81369490Y-91434490D02*
X83408490Y-91434490D01*
D46*
%TO.N,+5V*%
X33004000Y-86868000D02*
X34417000Y-86868000D01*
%TO.N,Net-(D6-Pad2)*%
X29143000Y-101477000D02*
X28448000Y-100782000D01*
X33020000Y-101477000D02*
X29143000Y-101477000D01*
D45*
%TO.N,Net-(C6-Pad1)*%
X25162000Y-86487000D02*
X25162000Y-84439000D01*
D44*
%TO.N,/STM32L151RET6TR/MCO*%
X59514490Y-115564490D02*
X59514490Y-113997490D01*
X58355490Y-112838490D02*
X59514490Y-113997490D01*
X58355490Y-111500490D02*
X58355490Y-112838490D01*
%TO.N,/STM32L151RET6TR/OS32_OUT*%
X53925490Y-108782490D02*
X53925490Y-110274490D01*
X61117490Y-106014910D02*
X61117490Y-104475490D01*
X53925490Y-108782490D02*
X58349910Y-108782490D01*
X53925490Y-110274490D02*
X53207490Y-110992490D01*
X58349910Y-108782490D02*
X61117490Y-106014910D01*
%TO.N,/STM32L151RET6TR/BOOT*%
X54810082Y-100550490D02*
X57692490Y-100550490D01*
X45079490Y-100324490D02*
X45587490Y-100832490D01*
X54528082Y-100832490D02*
X54810082Y-100550490D01*
X53715490Y-100832490D02*
X54528082Y-100832490D01*
X45587490Y-100832490D02*
X53715490Y-100832490D01*
%TO.N,/STM32L151RET6TR/RST*%
X62617490Y-106432490D02*
X63113490Y-106928490D01*
X41364489Y-92140489D02*
X41975489Y-91529489D01*
X41975489Y-91529489D02*
X43904489Y-91529489D01*
X43904489Y-91529489D02*
X45079490Y-92704490D01*
X43872990Y-95776992D02*
X41364489Y-93268491D01*
X62617490Y-104475490D02*
X62617490Y-106432490D01*
X41364489Y-93268491D02*
X41364489Y-92140489D01*
X45079490Y-102483490D02*
X43872990Y-101276990D01*
X43872990Y-101276990D02*
X43872990Y-95776992D01*
X45079490Y-104134490D02*
X45079490Y-102483490D01*
%TO.N,/STM32L151RET6TR/OS32_IN*%
X53925490Y-105582490D02*
X53925490Y-106757490D01*
X55365000Y-107322000D02*
X55771500Y-107728500D01*
X53925490Y-105582490D02*
X53925490Y-104243990D01*
X53925490Y-104243990D02*
X53053990Y-103372490D01*
X55771500Y-107728500D02*
X58767490Y-107728500D01*
X54490000Y-107322000D02*
X55365000Y-107322000D01*
X58767490Y-107728500D02*
X60617490Y-105878500D01*
X53925490Y-106757490D02*
X54490000Y-107322000D01*
%TO.N,SCL1*%
X106591017Y-100241001D02*
X107095211Y-100745195D01*
X143228200Y-100241001D02*
X143393201Y-100076000D01*
X43936490Y-107182490D02*
X44230999Y-107476999D01*
X259596614Y-99822000D02*
X260096000Y-100321386D01*
X107095211Y-105538789D02*
X105918000Y-106716000D01*
X44230999Y-110455001D02*
X45119999Y-111344001D01*
D47*
X183515000Y-99459520D02*
X183603514Y-99459520D01*
D44*
X144780000Y-105156000D02*
X143383000Y-105156000D01*
X43439510Y-105912490D02*
X44952490Y-105912490D01*
X143393201Y-100076000D02*
X146058614Y-100076000D01*
X258652385Y-100241001D02*
X259071386Y-99822000D01*
X256893200Y-100241001D02*
X258652385Y-100241001D01*
D47*
X184209109Y-101540891D02*
X181483000Y-104267000D01*
D44*
X46603490Y-102610490D02*
X47619490Y-101594490D01*
X220059969Y-99599031D02*
X221518313Y-99599031D01*
X103436490Y-125925510D02*
X105918000Y-123444000D01*
X54254522Y-118516521D02*
X78764817Y-118516521D01*
X44952490Y-105912490D02*
X45040492Y-105912490D01*
X43047490Y-107182490D02*
X43047490Y-106304510D01*
X44230999Y-107476999D02*
X44230999Y-110455001D01*
X43047490Y-106304510D02*
X43439510Y-105912490D01*
D47*
X183603514Y-99459520D02*
X184209109Y-100065115D01*
D44*
X146058614Y-100076000D02*
X146685000Y-100702386D01*
X105128200Y-100241001D02*
X106591017Y-100241001D01*
X257683000Y-104267000D02*
X257683000Y-105156000D01*
X54946492Y-101050490D02*
X54402492Y-101594490D01*
X43047490Y-107182490D02*
X43936490Y-107182490D01*
X219583000Y-104267000D02*
X219583000Y-105156000D01*
D47*
X184209109Y-100065115D02*
X184209109Y-101540891D01*
D44*
X218793200Y-100241001D02*
X219449030Y-100241001D01*
X107095211Y-100745195D02*
X107095211Y-105538789D01*
X47082001Y-111344001D02*
X54254522Y-118516521D01*
X57692490Y-101050490D02*
X54946492Y-101050490D01*
X45119999Y-111344001D02*
X47082001Y-111344001D01*
X78764817Y-118516521D02*
X86173806Y-125925510D01*
D47*
X180693200Y-100241001D02*
X181248005Y-100241001D01*
D44*
X146685000Y-103251000D02*
X144780000Y-105156000D01*
D47*
X182029486Y-99459520D02*
X183515000Y-99459520D01*
D44*
X221518313Y-99599031D02*
X222361991Y-100442709D01*
X45040492Y-105912490D02*
X46603490Y-104349492D01*
X86173806Y-125925510D02*
X103436490Y-125925510D01*
X260096000Y-100321386D02*
X260096000Y-101854000D01*
X146685000Y-100702386D02*
X146685000Y-103251000D01*
X219449030Y-100241001D02*
X219449030Y-100209970D01*
X46603490Y-104349492D02*
X46603490Y-102610490D01*
D47*
X181483000Y-104267000D02*
X181483000Y-105156000D01*
D44*
X219449030Y-100209970D02*
X220059969Y-99599031D01*
X222361991Y-101488009D02*
X219583000Y-104267000D01*
X222361991Y-100442709D02*
X222361991Y-101488009D01*
X260096000Y-101854000D02*
X257683000Y-104267000D01*
X54402492Y-101594490D02*
X47619490Y-101594490D01*
D47*
X181248005Y-100241001D02*
X182029486Y-99459520D01*
D44*
X259071386Y-99822000D02*
X259596614Y-99822000D01*
%TO.N,SDA1*%
X47624143Y-102615143D02*
X47053500Y-103185786D01*
X45339000Y-107188000D02*
X46482000Y-107188000D01*
X256893200Y-99441000D02*
X256961720Y-99372480D01*
X219582282Y-99441000D02*
X219873772Y-99149511D01*
X78951015Y-118067001D02*
X86360007Y-125475993D01*
X102743007Y-125475993D02*
X106172000Y-122047000D01*
X86360007Y-125475993D02*
X102743007Y-125475993D01*
X184912000Y-104140000D02*
X184023000Y-105029000D01*
X55703490Y-101550490D02*
X55089206Y-101550490D01*
X55703490Y-101550490D02*
X55082902Y-101550490D01*
X47117000Y-110743282D02*
X54440719Y-118067001D01*
X45333490Y-107182490D02*
X45339000Y-107188000D01*
X260911511Y-100501179D02*
X260911511Y-104467489D01*
X45339000Y-106249700D02*
X45339000Y-107176980D01*
X105128200Y-99441000D02*
X106426734Y-99441000D01*
X181447644Y-99441000D02*
X181866133Y-99022511D01*
X47053500Y-103185786D02*
X47053500Y-104535200D01*
X184912000Y-100167644D02*
X184912000Y-104140000D01*
X54440719Y-118067001D02*
X78951015Y-118067001D01*
X48381490Y-99054490D02*
X48381490Y-97276490D01*
X106426734Y-99441000D02*
X109728000Y-102742266D01*
X256961720Y-99372480D02*
X259782812Y-99372480D01*
X54418248Y-102215144D02*
X48024142Y-102215144D01*
X181866133Y-99022511D02*
X183766867Y-99022511D01*
X147320000Y-103759000D02*
X145923000Y-105156000D01*
X48024142Y-102215144D02*
X47624143Y-102615143D01*
X219873772Y-99149511D02*
X221704511Y-99149511D01*
X45339000Y-107176980D02*
X45333490Y-107182490D01*
X143228200Y-99441000D02*
X146059331Y-99441000D01*
X223139000Y-104013000D02*
X222123000Y-105029000D01*
X180693200Y-99441000D02*
X181447644Y-99441000D01*
X48381490Y-97276490D02*
X47619490Y-96514490D01*
X109728000Y-102742266D02*
X109728000Y-107097000D01*
X46482000Y-107188000D02*
X47117000Y-107823000D01*
X223139000Y-100584000D02*
X223139000Y-104013000D01*
X106172000Y-122047000D02*
X108458000Y-122047000D01*
X57692490Y-101550490D02*
X55703490Y-101550490D01*
X218793200Y-99441000D02*
X219582282Y-99441000D01*
X260911511Y-104467489D02*
X260223000Y-105156000D01*
X221704511Y-99149511D02*
X223139000Y-100584000D01*
X55082902Y-101550490D02*
X54418248Y-102215144D01*
X47117000Y-107823000D02*
X47117000Y-110743282D01*
X146059331Y-99441000D02*
X147320000Y-100701669D01*
X183766867Y-99022511D02*
X184912000Y-100167644D01*
X259782812Y-99372480D02*
X260911511Y-100501179D01*
X147320000Y-100701669D02*
X147320000Y-103759000D01*
X47053500Y-104535200D02*
X45339000Y-106249700D01*
%TO.N,/STM32L151RET6TR/FTDI_RTS*%
X45079490Y-88894490D02*
X47097500Y-86876480D01*
X56604489Y-88520487D02*
X56604489Y-90513489D01*
X61117490Y-93125490D02*
X61117490Y-98002490D01*
X61117490Y-98002490D02*
X59811490Y-99308490D01*
X54960482Y-86876480D02*
X56604489Y-88520487D01*
X47097500Y-86876480D02*
X54960482Y-86876480D01*
X56604489Y-90513489D02*
X58287490Y-92196490D01*
%TO.N,/STM32L151RET6TR/FTDI_RXD*%
X51976488Y-100070490D02*
X56831788Y-100070490D01*
X56851788Y-100050490D02*
X57692490Y-100050490D01*
X48908989Y-92088989D02*
X48908989Y-97002991D01*
X47619490Y-90799490D02*
X48908989Y-92088989D01*
X47619490Y-88894490D02*
X47619490Y-90799490D01*
X56831788Y-100070490D02*
X56851788Y-100050490D01*
X48908989Y-97002991D02*
X51976488Y-100070490D01*
%TO.N,/STM32L151RET6TR/FTDI_TXD*%
X51429490Y-97529492D02*
X51429490Y-91561490D01*
X57692490Y-99550490D02*
X53450488Y-99550490D01*
X53450488Y-99550490D02*
X51429490Y-97529492D01*
X50159490Y-88894490D02*
X50159490Y-90291490D01*
X50159490Y-90291490D02*
X51429490Y-91561490D01*
%TO.N,/STM32L151RET6TR/FTDI_CTS*%
X61617490Y-93125490D02*
X61617490Y-98321492D01*
X61617490Y-98321492D02*
X61617490Y-98772490D01*
X61617490Y-98772490D02*
X60065490Y-100324490D01*
%TO.N,/STM32L151RET6TR/SW0*%
X47365490Y-94482490D02*
X44317490Y-94482490D01*
X52953490Y-94483488D02*
X52953490Y-94482490D01*
X57692490Y-98050490D02*
X56520492Y-98050490D01*
X44317490Y-94482490D02*
X42539490Y-92704490D01*
X56520492Y-98050490D02*
X52953490Y-94483488D01*
%TO.N,/STM32L151RET6TR/SWCLK*%
X52954488Y-92704490D02*
X52699490Y-92704490D01*
X57692490Y-95050490D02*
X55300488Y-95050490D01*
X55300488Y-95050490D02*
X52954488Y-92704490D01*
%TO.N,/STM32L151RET6TR/SWDAT*%
X50330491Y-87326489D02*
X51429490Y-88425488D01*
X51429490Y-88425488D02*
X51429490Y-89363492D01*
X57651991Y-92836031D02*
X59491470Y-94675510D01*
X52782489Y-90716491D02*
X55536493Y-90716491D01*
X60044582Y-94675510D02*
X60617490Y-94102602D01*
X60617490Y-94102602D02*
X60617490Y-93125490D01*
X47448489Y-87326489D02*
X50330491Y-87326489D01*
X55536493Y-90716491D02*
X57651991Y-92831989D01*
X57651991Y-92831989D02*
X57651991Y-92836031D01*
X59491470Y-94675510D02*
X60044582Y-94675510D01*
X46444489Y-91529489D02*
X46444489Y-88330489D01*
X51429490Y-89363492D02*
X52782489Y-90716491D01*
X47619490Y-92704490D02*
X46444489Y-91529489D01*
X46444489Y-88330489D02*
X47448489Y-87326489D01*
%TO.N,/STM32L151RET6TR/UART_RX*%
X72627855Y-103674000D02*
X73536008Y-102765847D01*
X69542500Y-103050500D02*
X70166000Y-103674000D01*
X69268500Y-103050500D02*
X69088000Y-102870000D01*
X70166000Y-103674000D02*
X72627855Y-103674000D01*
X69088000Y-102596000D02*
X69088000Y-102870000D01*
X69542500Y-103050500D02*
X69268500Y-103050500D01*
X69042490Y-102550490D02*
X69088000Y-102596000D01*
X73536008Y-102765847D02*
X73536008Y-101839972D01*
X73536008Y-101839972D02*
X76321490Y-99054490D01*
%TO.N,/STM32L151RET6TR/UART_TX*%
X72790490Y-105125490D02*
X76321490Y-101594490D01*
X67645490Y-104475490D02*
X68295490Y-105125490D01*
X68295490Y-105125490D02*
X72790490Y-105125490D01*
X67117490Y-104475490D02*
X67645490Y-104475490D01*
%TO.N,SCL2*%
X61277500Y-84645500D02*
X62618009Y-85986009D01*
X48196500Y-84645500D02*
X61277500Y-84645500D01*
X62618009Y-85986009D02*
X62618009Y-90431009D01*
X46857490Y-83306490D02*
X48196500Y-84645500D01*
X62618009Y-90431009D02*
X62859490Y-90672490D01*
%TO.N,SDA2*%
X63617490Y-84953490D02*
X62420010Y-83756010D01*
X63617490Y-88382490D02*
X63617490Y-89144490D01*
X63617490Y-88382490D02*
X63617490Y-84953490D01*
X63617490Y-88382490D02*
X63617490Y-88478428D01*
X63617490Y-89144490D02*
X63617490Y-93125490D01*
X63617490Y-89144490D02*
X63342510Y-88869510D01*
X63342510Y-88753408D02*
X63342510Y-88869510D01*
X52884970Y-83756010D02*
X52445490Y-84195490D01*
X52445490Y-84195490D02*
X50286490Y-84195490D01*
X50286490Y-84195490D02*
X49397490Y-83306490D01*
X62420010Y-83756010D02*
X52884970Y-83756010D01*
X63617490Y-88478428D02*
X63342510Y-88753408D01*
%TO.N,/STM32L151RET6TR/PIN41*%
X63117490Y-93125490D02*
X63117490Y-94732490D01*
X63117490Y-94732490D02*
X63113490Y-94736490D01*
%TO.N,/STM32L151RET6TR/PIN29*%
X67845805Y-96550490D02*
X69042490Y-96550490D01*
X66161490Y-98234805D02*
X67845805Y-96550490D01*
X66161490Y-98800490D02*
X66161490Y-98234805D01*
%TO.N,/STM32L151RET6TR/PIN30*%
X65145490Y-98234805D02*
X67329805Y-96050490D01*
X67329805Y-96050490D02*
X69042490Y-96050490D01*
X65145490Y-98800490D02*
X65145490Y-98234805D01*
%TO.N,/STM32L151RET6TR/PC8*%
X62732490Y-83306490D02*
X51937490Y-83306490D01*
X64117490Y-93125490D02*
X64117490Y-84691490D01*
X64117490Y-84691490D02*
X62732490Y-83306490D01*
%TO.N,/STM32L151RET6TR/PA9*%
X62617490Y-91503492D02*
X62617490Y-93125490D01*
X62097490Y-90983492D02*
X62617490Y-91503492D01*
X46106510Y-85095510D02*
X61091792Y-85095510D01*
X44317490Y-83306490D02*
X46106510Y-85095510D01*
X61091792Y-85095510D02*
X62097490Y-86101208D01*
X62097490Y-86101208D02*
X62097490Y-90983492D01*
%TO.N,/STM32L151RET6TR/PA10*%
X61647480Y-91169892D02*
X62117490Y-91639902D01*
X62117490Y-91639902D02*
X62117490Y-93125490D01*
X60906084Y-85545520D02*
X61647480Y-86286916D01*
X41777490Y-83052490D02*
X44270520Y-85545520D01*
X44270520Y-85545520D02*
X60906084Y-85545520D01*
X61647480Y-86286916D02*
X61647480Y-91169892D01*
D45*
%TO.N,Net-(C5-Pad2)*%
X26738000Y-117160000D02*
X26670000Y-117092000D01*
X24791500Y-115213500D02*
X25655000Y-116077000D01*
X26670000Y-117092000D02*
X26670000Y-116332000D01*
X26670000Y-116332000D02*
X26415000Y-116077000D01*
X24791500Y-115062000D02*
X24791500Y-115213500D01*
X26415000Y-116077000D02*
X25655000Y-116077000D01*
%TO.N,Net-(C5-Pad1)*%
X26516500Y-115062000D02*
X28464000Y-115062000D01*
%TO.N,Net-(C6-Pad2)*%
X25162000Y-88212000D02*
X25213000Y-88212000D01*
X25213000Y-88212000D02*
X27260000Y-86165000D01*
%TO.N,BUCK_33_EN*%
X30480000Y-120904000D02*
X30480000Y-119382000D01*
X30480000Y-119382000D02*
X30158000Y-119060000D01*
D44*
%TO.N,BUCK_5_EN*%
X32004000Y-80264000D02*
X30369000Y-80264000D01*
X60319490Y-102864490D02*
X60117490Y-103066490D01*
X53467000Y-81915000D02*
X41783000Y-81915000D01*
D45*
X29654500Y-81216500D02*
X30289500Y-81216500D01*
D44*
X30369000Y-80264000D02*
X30353000Y-80248000D01*
D45*
X29160000Y-82745000D02*
X29160000Y-81711000D01*
X30480000Y-80375000D02*
X30353000Y-80248000D01*
D44*
X60117490Y-103066490D02*
X60117490Y-104475490D01*
X41783000Y-81915000D02*
X39624000Y-79756000D01*
D45*
X30289500Y-81216500D02*
X30480000Y-81026000D01*
X29160000Y-81711000D02*
X29654500Y-81216500D01*
X30480000Y-81026000D02*
X30480000Y-80375000D01*
D44*
%TO.N,XSHUT_3*%
X213360011Y-98162375D02*
X214689193Y-96833193D01*
X213740989Y-104901989D02*
X213360011Y-104901989D01*
X68961000Y-117221000D02*
X68961000Y-116332000D01*
X174879000Y-104902000D02*
X176408020Y-106431020D01*
X216562800Y-97436800D02*
X216562800Y-97841001D01*
X194812980Y-106431020D02*
X196342011Y-104901989D01*
X217043000Y-105156000D02*
X215519000Y-105156000D01*
X133739606Y-106817040D02*
X155691960Y-106817040D01*
X215732489Y-96606489D02*
X216562800Y-97436800D01*
X103378000Y-111288000D02*
X106561614Y-111288000D01*
X196342011Y-104901989D02*
X212978989Y-104901989D01*
X65776044Y-106474050D02*
X64617490Y-105315496D01*
X157607000Y-104902000D02*
X174879000Y-104902000D01*
X215519000Y-105156000D02*
X215264989Y-104901989D01*
X213360011Y-104394011D02*
X213360011Y-104521011D01*
X214757000Y-96447592D02*
X214915897Y-96606489D01*
X176408020Y-106431020D02*
X194812980Y-106431020D01*
X214915897Y-96606489D02*
X215732489Y-96606489D01*
X131883046Y-104960480D02*
X133739606Y-106817040D01*
X213360011Y-104394011D02*
X213360011Y-98162375D01*
X214757000Y-96765386D02*
X214689193Y-96833193D01*
X69020803Y-120310399D02*
X71328904Y-122618500D01*
X106561614Y-111288000D02*
X112889135Y-104960480D01*
X69215000Y-116078000D02*
X69469000Y-116078000D01*
X215264989Y-104901989D02*
X213740989Y-104901989D01*
X69519203Y-106474050D02*
X65776044Y-106474050D01*
X69469000Y-116078000D02*
X71198560Y-114348440D01*
X112889135Y-104960480D02*
X131883046Y-104960480D01*
X214757000Y-95123000D02*
X214757000Y-96266000D01*
X72580500Y-122618500D02*
X73914000Y-123952000D01*
X213360011Y-104520967D02*
X212978989Y-104901989D01*
X214689193Y-96833193D02*
X214915897Y-96606489D01*
X213360011Y-104901989D02*
X212978989Y-104901989D01*
X213360011Y-104394011D02*
X213360011Y-104520967D01*
X214757000Y-96266000D02*
X214757000Y-96447592D01*
X71328904Y-122618500D02*
X72580500Y-122618500D01*
X213360011Y-104901989D02*
X213360011Y-104394011D01*
X71198560Y-114348440D02*
X71198559Y-108153407D01*
X68961000Y-116332000D02*
X69215000Y-116078000D01*
X64617490Y-105315496D02*
X64617490Y-104475490D01*
X213360011Y-104521011D02*
X213740989Y-104901989D01*
X71198559Y-108153407D02*
X69519203Y-106474050D01*
X155691960Y-106817040D02*
X157607000Y-104902000D01*
X214757000Y-96266000D02*
X214757000Y-96765386D01*
D45*
%TO.N,Net-(R18-Pad1)*%
X26416000Y-122920000D02*
X28448000Y-122920000D01*
%TO.N,Net-(R19-Pad1)*%
X33004000Y-82550000D02*
X33004000Y-84709000D01*
%TO.N,Net-(R25-Pad1)*%
X24384000Y-120920000D02*
X26416000Y-120920000D01*
X26416000Y-120920000D02*
X26416000Y-119382000D01*
X26416000Y-119382000D02*
X26738000Y-119060000D01*
%TO.N,Net-(R26-Pad1)*%
X31004000Y-86868000D02*
X31004000Y-84709000D01*
X29160000Y-86165000D02*
X29863000Y-86868000D01*
X29863000Y-86868000D02*
X31004000Y-86868000D01*
D44*
%TO.N,GPIOI_3*%
X58771405Y-80740969D02*
X51403969Y-80740969D01*
X223621600Y-99110800D02*
X220878400Y-96367600D01*
X65491338Y-91402928D02*
X65491338Y-82509338D01*
X176221823Y-106880540D02*
X174692802Y-105351520D01*
X113075332Y-105410000D02*
X106471332Y-112014000D01*
X214503000Y-105626500D02*
X216014900Y-105626500D01*
X65617490Y-94997500D02*
X65617490Y-93125490D01*
X195124742Y-106880540D02*
X176221823Y-106880540D01*
X155878158Y-107266560D02*
X133553409Y-107266560D01*
X90995500Y-104457500D02*
X97826000Y-111288000D01*
X50927000Y-77089000D02*
X49530000Y-75692000D01*
X62759776Y-79367996D02*
X60144378Y-79367996D01*
X82065801Y-103113656D02*
X82076145Y-103124000D01*
X62759776Y-79777776D02*
X62759776Y-79367996D01*
X60144378Y-79367996D02*
X58771405Y-80740969D01*
X218793200Y-97841001D02*
X218793200Y-96522400D01*
X51403969Y-80740969D02*
X50927000Y-80264000D01*
X220878400Y-96367600D02*
X218948000Y-96367600D01*
X106471332Y-112014000D02*
X101564000Y-112014000D01*
X65617490Y-91529080D02*
X65491338Y-91402928D01*
X65491338Y-82509338D02*
X62759776Y-79777776D01*
X82076145Y-103124000D02*
X89662000Y-103124000D01*
X174692802Y-105351520D02*
X157793198Y-105351520D01*
X216560400Y-106172000D02*
X222004614Y-106172000D01*
X131696848Y-105410000D02*
X113075332Y-105410000D01*
X101564000Y-112014000D02*
X100838000Y-111288000D01*
X214286500Y-105410000D02*
X196595282Y-105410000D01*
X214503000Y-105626500D02*
X214286500Y-105410000D01*
X222004614Y-106172000D02*
X223621600Y-104555014D01*
X97826000Y-111288000D02*
X100838000Y-111288000D01*
X157793198Y-105351520D02*
X155878158Y-107266560D01*
X65869990Y-95250000D02*
X65617490Y-94997500D01*
X90932000Y-101600000D02*
X90043000Y-100711000D01*
X218948000Y-96367600D02*
X218795600Y-96520000D01*
X196595282Y-105410000D02*
X195124742Y-106880540D01*
X216014900Y-105626500D02*
X216560400Y-106172000D01*
X50927000Y-80264000D02*
X50927000Y-77089000D01*
X133553409Y-107266560D02*
X131696848Y-105410000D01*
X90043000Y-100711000D02*
X90043000Y-83530674D01*
X89662000Y-103124000D02*
X90995500Y-104457500D01*
X65617490Y-93125490D02*
X65617490Y-91529080D01*
X218793200Y-96522400D02*
X218795600Y-96520000D01*
X223621600Y-104555014D02*
X223621600Y-99110800D01*
%TO.N,XSHUT_4*%
X77724000Y-92583000D02*
X79828494Y-92583000D01*
X251079000Y-103124000D02*
X251079000Y-103632000D01*
X156064356Y-107716080D02*
X133367211Y-107716080D01*
X253015897Y-96606489D02*
X252789193Y-96833193D01*
X195310940Y-107330060D02*
X163845060Y-107330060D01*
X252829704Y-96420296D02*
X252789193Y-96460807D01*
X255143000Y-105410000D02*
X253365000Y-103632000D01*
X77724000Y-108204000D02*
X80391000Y-105537000D01*
X114875803Y-106992480D02*
X106171282Y-115697000D01*
X80391000Y-105537000D02*
X80391000Y-102362000D01*
X251079000Y-102997000D02*
X251079000Y-103251000D01*
X106171282Y-115697000D02*
X105283718Y-115697000D01*
X69981299Y-116590299D02*
X71755000Y-114816598D01*
X253792103Y-96606489D02*
X253015897Y-96606489D01*
X252789193Y-96833193D02*
X251079000Y-98543386D01*
X242443000Y-103632000D02*
X239141000Y-106934000D01*
X251079000Y-103251000D02*
X250698000Y-103632000D01*
X105219859Y-115633141D02*
X103378000Y-117475000D01*
X252789193Y-96460807D02*
X252789193Y-96833193D01*
X69977000Y-120269000D02*
X71628000Y-121920000D01*
X251079000Y-103124000D02*
X251079000Y-103251000D01*
X239141000Y-106934000D02*
X195707000Y-106934000D01*
X252730000Y-96320592D02*
X252829704Y-96420296D01*
X76454000Y-123952000D02*
X74422000Y-121920000D01*
X250698000Y-103632000D02*
X242443000Y-103632000D01*
X79828494Y-92583000D02*
X80391000Y-93145506D01*
X156845718Y-106934718D02*
X156064356Y-107716080D01*
X71755000Y-109347000D02*
X72898000Y-108204000D01*
X69977000Y-119741501D02*
X69977000Y-120269000D01*
X72898000Y-108204000D02*
X77724000Y-108204000D01*
X133367211Y-107716080D02*
X132643611Y-106992480D01*
X251079000Y-98543386D02*
X251079000Y-102997000D01*
X163449718Y-106934718D02*
X156845718Y-106934718D01*
X254662800Y-97477186D02*
X253792103Y-96606489D01*
X251460000Y-103632000D02*
X250698000Y-103632000D01*
X252730000Y-95123000D02*
X252730000Y-96320592D01*
X163845060Y-107330060D02*
X163449718Y-106934718D01*
X132643611Y-106992480D02*
X114875803Y-106992480D01*
X251079000Y-103251000D02*
X251460000Y-103632000D01*
X71256510Y-99050490D02*
X77597000Y-92710000D01*
X254662800Y-97841001D02*
X254662800Y-97477186D01*
X71755000Y-114816598D02*
X71755000Y-109347000D01*
X252829704Y-96420296D02*
X253015897Y-96606489D01*
X69042490Y-99050490D02*
X71256510Y-99050490D01*
X195707000Y-106934000D02*
X195310940Y-107330060D01*
X74422000Y-121920000D02*
X71628000Y-121920000D01*
X80391000Y-93145506D02*
X80391000Y-102362000D01*
X105283718Y-115697000D02*
X105219859Y-115633141D01*
X253365000Y-103632000D02*
X251460000Y-103632000D01*
X77597000Y-92710000D02*
X77724000Y-92583000D01*
X251079000Y-102997000D02*
X251079000Y-103124000D01*
%TO.N,GPIOI_4*%
X65117490Y-91787490D02*
X65024000Y-91694000D01*
X256893200Y-96674800D02*
X256895600Y-96672400D01*
X49938479Y-81190489D02*
X59017511Y-81190489D01*
X62160516Y-80092496D02*
X65024000Y-82955980D01*
X106235500Y-116268500D02*
X106235500Y-117538500D01*
X89408000Y-104521000D02*
X90233859Y-105346859D01*
X89593480Y-101414520D02*
X89408000Y-101600000D01*
X261518400Y-98907600D02*
X261518400Y-105359200D01*
X241427718Y-105283000D02*
X239327198Y-107383520D01*
X89593480Y-84475237D02*
X89593480Y-101414520D01*
X157031916Y-107384238D02*
X156250553Y-108165600D01*
X163658862Y-107779580D02*
X163263520Y-107384238D01*
X257010511Y-96557489D02*
X259168289Y-96557489D01*
X91249141Y-105346859D02*
X100838000Y-114935718D01*
X46990000Y-78242010D02*
X49938479Y-81190489D01*
X195893198Y-107383520D02*
X195497138Y-107779580D01*
X259168289Y-96557489D02*
X261518400Y-98907600D01*
X60115504Y-80092496D02*
X59017511Y-81190489D01*
X132457413Y-107442000D02*
X115062000Y-107442000D01*
X65024000Y-82955980D02*
X65024000Y-91694000D01*
X115062000Y-107442000D02*
X106235500Y-116268500D01*
X163263520Y-107384238D02*
X157031916Y-107384238D01*
X101727000Y-118364000D02*
X100838000Y-117475000D01*
X195497138Y-107779580D02*
X163658862Y-107779580D01*
X89229187Y-84110944D02*
X89593480Y-84475237D01*
X253593600Y-106273600D02*
X252603000Y-105283000D01*
X256893200Y-97841001D02*
X256893200Y-96674800D01*
X256895600Y-96672400D02*
X257010511Y-96557489D01*
X65117490Y-93125490D02*
X65117490Y-91787490D01*
X239327198Y-107383520D02*
X195893198Y-107383520D01*
X100838000Y-114935718D02*
X100838000Y-117475000D01*
X46990000Y-75692000D02*
X46990000Y-78242010D01*
X261518400Y-105359200D02*
X260604000Y-106273600D01*
X156250553Y-108165600D02*
X133181013Y-108165600D01*
X106235500Y-117538500D02*
X105410000Y-118364000D01*
X252603000Y-105283000D02*
X241427718Y-105283000D01*
X133181013Y-108165600D02*
X132457413Y-107442000D01*
X260604000Y-106273600D02*
X253593600Y-106273600D01*
X90233859Y-105346859D02*
X91249141Y-105346859D01*
X62045029Y-80092496D02*
X60115504Y-80092496D01*
X105410000Y-118364000D02*
X101727000Y-118364000D01*
X62045029Y-80092496D02*
X62160516Y-80092496D01*
%TD*%
%TA.AperFunction,Conductor*%
%TO.N,VCC*%
G36*
X36137121Y-94254002D02*
G01*
X36183614Y-94307658D01*
X36195000Y-94360000D01*
X36195000Y-98931990D01*
X36174998Y-99000111D01*
X36121342Y-99046604D01*
X36068057Y-99054265D01*
X36068059Y-99057758D01*
X31622062Y-99059938D01*
X31553931Y-99039969D01*
X31507412Y-98986336D01*
X31496000Y-98933938D01*
X31496000Y-98230654D01*
X32020001Y-98230654D01*
X32021209Y-98242923D01*
X32023381Y-98253843D01*
X32032698Y-98276339D01*
X32041011Y-98288780D01*
X32058220Y-98305989D01*
X32070663Y-98314303D01*
X32093154Y-98323619D01*
X32104083Y-98325793D01*
X32116338Y-98327000D01*
X32751885Y-98327000D01*
X32767124Y-98322525D01*
X32768329Y-98321135D01*
X32770000Y-98313452D01*
X32770000Y-98308884D01*
X33270000Y-98308884D01*
X33274475Y-98324123D01*
X33275865Y-98325328D01*
X33283548Y-98326999D01*
X33923654Y-98326999D01*
X33935923Y-98325791D01*
X33946843Y-98323619D01*
X33969339Y-98314302D01*
X33981780Y-98305989D01*
X33998989Y-98288780D01*
X34007303Y-98276337D01*
X34016619Y-98253846D01*
X34018793Y-98242917D01*
X34020000Y-98230662D01*
X34020000Y-96745115D01*
X34015525Y-96729876D01*
X34014135Y-96728671D01*
X34006452Y-96727000D01*
X33288115Y-96727000D01*
X33272876Y-96731475D01*
X33271671Y-96732865D01*
X33270000Y-96740548D01*
X33270000Y-98308884D01*
X32770000Y-98308884D01*
X32770000Y-96745115D01*
X32765525Y-96729876D01*
X32764135Y-96728671D01*
X32756452Y-96727000D01*
X32038116Y-96727000D01*
X32022877Y-96731475D01*
X32021672Y-96732865D01*
X32020001Y-96740548D01*
X32020001Y-98230654D01*
X31496000Y-98230654D01*
X31496000Y-96208885D01*
X32020000Y-96208885D01*
X32024475Y-96224124D01*
X32025865Y-96225329D01*
X32033548Y-96227000D01*
X32751885Y-96227000D01*
X32767124Y-96222525D01*
X32768329Y-96221135D01*
X32770000Y-96213452D01*
X32770000Y-96208885D01*
X33270000Y-96208885D01*
X33274475Y-96224124D01*
X33275865Y-96225329D01*
X33283548Y-96227000D01*
X34001884Y-96227000D01*
X34017123Y-96222525D01*
X34018328Y-96221135D01*
X34019999Y-96213452D01*
X34019999Y-94723346D01*
X34018791Y-94711077D01*
X34016619Y-94700157D01*
X34007302Y-94677661D01*
X33998989Y-94665220D01*
X33981780Y-94648011D01*
X33969337Y-94639697D01*
X33946846Y-94630381D01*
X33935917Y-94628207D01*
X33923662Y-94627000D01*
X33288115Y-94627000D01*
X33272876Y-94631475D01*
X33271671Y-94632865D01*
X33270000Y-94640548D01*
X33270000Y-96208885D01*
X32770000Y-96208885D01*
X32770000Y-94645116D01*
X32765525Y-94629877D01*
X32764135Y-94628672D01*
X32756452Y-94627001D01*
X32116346Y-94627001D01*
X32104077Y-94628209D01*
X32093157Y-94630381D01*
X32070661Y-94639698D01*
X32058220Y-94648011D01*
X32041011Y-94665220D01*
X32032697Y-94677663D01*
X32023381Y-94700154D01*
X32021207Y-94711083D01*
X32020000Y-94723338D01*
X32020000Y-96208885D01*
X31496000Y-96208885D01*
X31496000Y-94360000D01*
X31516002Y-94291879D01*
X31569658Y-94245386D01*
X31622000Y-94234000D01*
X36069000Y-94234000D01*
X36137121Y-94254002D01*
G37*
%TD.AperFunction*%
%TD*%
%TA.AperFunction,Conductor*%
%TO.N,GND*%
G36*
X24343191Y-86124907D02*
G01*
X24379155Y-86174407D01*
X24384000Y-86205000D01*
X24384000Y-91595000D01*
X24365093Y-91653191D01*
X24315593Y-91689155D01*
X24285000Y-91694000D01*
X20927000Y-91694000D01*
X20868809Y-91675093D01*
X20832845Y-91625593D01*
X20828000Y-91595000D01*
X20828000Y-90233984D01*
X21114001Y-90233984D01*
X21114949Y-90243616D01*
X21117900Y-90258455D01*
X21125219Y-90276126D01*
X21136485Y-90292986D01*
X21150014Y-90306515D01*
X21166876Y-90317781D01*
X21184544Y-90325100D01*
X21199387Y-90328052D01*
X21209009Y-90329000D01*
X21848320Y-90329000D01*
X21861005Y-90324878D01*
X21864000Y-90320757D01*
X21864000Y-90313319D01*
X22364000Y-90313319D01*
X22368122Y-90326004D01*
X22372243Y-90328999D01*
X23018984Y-90328999D01*
X23028616Y-90328051D01*
X23043455Y-90325100D01*
X23061126Y-90317781D01*
X23077986Y-90306515D01*
X23091515Y-90292986D01*
X23102781Y-90276124D01*
X23110100Y-90258456D01*
X23113052Y-90243613D01*
X23114000Y-90233991D01*
X23114000Y-88744680D01*
X23109878Y-88731995D01*
X23105757Y-88729000D01*
X22379680Y-88729000D01*
X22366995Y-88733122D01*
X22364000Y-88737243D01*
X22364000Y-90313319D01*
X21864000Y-90313319D01*
X21864000Y-88744680D01*
X21859878Y-88731995D01*
X21855757Y-88729000D01*
X21129681Y-88729000D01*
X21116996Y-88733122D01*
X21114001Y-88737243D01*
X21114001Y-90233984D01*
X20828000Y-90233984D01*
X20828000Y-88213320D01*
X21114000Y-88213320D01*
X21118122Y-88226005D01*
X21122243Y-88229000D01*
X21848320Y-88229000D01*
X21861005Y-88224878D01*
X21864000Y-88220757D01*
X21864000Y-88213320D01*
X22364000Y-88213320D01*
X22368122Y-88226005D01*
X22372243Y-88229000D01*
X23098319Y-88229000D01*
X23111004Y-88224878D01*
X23113999Y-88220757D01*
X23113999Y-86724016D01*
X23113051Y-86714384D01*
X23110100Y-86699545D01*
X23102781Y-86681874D01*
X23091515Y-86665014D01*
X23077986Y-86651485D01*
X23061124Y-86640219D01*
X23043456Y-86632900D01*
X23028613Y-86629948D01*
X23018991Y-86629000D01*
X22379680Y-86629000D01*
X22366995Y-86633122D01*
X22364000Y-86637243D01*
X22364000Y-88213320D01*
X21864000Y-88213320D01*
X21864000Y-86644681D01*
X21859878Y-86631996D01*
X21855757Y-86629001D01*
X21209016Y-86629001D01*
X21199384Y-86629949D01*
X21184545Y-86632900D01*
X21166874Y-86640219D01*
X21150014Y-86651485D01*
X21136485Y-86665014D01*
X21125219Y-86681876D01*
X21117900Y-86699544D01*
X21114948Y-86714387D01*
X21114000Y-86724009D01*
X21114000Y-88213320D01*
X20828000Y-88213320D01*
X20828000Y-86205000D01*
X20846907Y-86146809D01*
X20896407Y-86110845D01*
X20927000Y-86106000D01*
X24285000Y-86106000D01*
X24343191Y-86124907D01*
G37*
%TD.AperFunction*%
%TD*%
%TA.AperFunction,Conductor*%
%TO.N,+5V*%
G36*
X28026191Y-73043907D02*
G01*
X28062155Y-73093407D01*
X28067000Y-73124000D01*
X28067000Y-73527102D01*
X28048092Y-73585293D01*
X28040500Y-73595742D01*
X28040500Y-75571819D01*
X28051662Y-75606173D01*
X28062156Y-75620617D01*
X28067000Y-75651207D01*
X28067000Y-75720000D01*
X28048093Y-75778191D01*
X27998593Y-75814155D01*
X27968000Y-75819000D01*
X26289000Y-75819000D01*
X26289000Y-77625000D01*
X26270093Y-77683191D01*
X26220593Y-77719155D01*
X26190000Y-77724000D01*
X20927000Y-77724000D01*
X20868809Y-77705093D01*
X20832845Y-77655593D01*
X20828000Y-77625000D01*
X20828000Y-76261984D01*
X21422001Y-76261984D01*
X21422949Y-76271616D01*
X21425900Y-76286455D01*
X21433219Y-76304126D01*
X21444485Y-76320986D01*
X21458014Y-76334515D01*
X21474876Y-76345781D01*
X21492544Y-76353100D01*
X21507387Y-76356052D01*
X21517009Y-76357000D01*
X23356320Y-76357000D01*
X23369005Y-76352878D01*
X23372000Y-76348757D01*
X23372000Y-76341319D01*
X23872000Y-76341319D01*
X23876122Y-76354004D01*
X23880243Y-76356999D01*
X25726984Y-76356999D01*
X25736616Y-76356051D01*
X25751455Y-76353100D01*
X25769126Y-76345781D01*
X25785986Y-76334515D01*
X25799515Y-76320986D01*
X25810781Y-76304124D01*
X25818100Y-76286456D01*
X25821052Y-76271613D01*
X25822000Y-76261991D01*
X25822000Y-75322680D01*
X25817878Y-75309995D01*
X25813757Y-75307000D01*
X23887680Y-75307000D01*
X23874995Y-75311122D01*
X23872000Y-75315243D01*
X23872000Y-76341319D01*
X23372000Y-76341319D01*
X23372000Y-75322680D01*
X23367878Y-75309995D01*
X23363757Y-75307000D01*
X21437681Y-75307000D01*
X21424996Y-75311122D01*
X21422001Y-75315243D01*
X21422001Y-76261984D01*
X20828000Y-76261984D01*
X20828000Y-75267057D01*
X27028001Y-75267057D01*
X27028528Y-75274255D01*
X27037006Y-75331859D01*
X27041515Y-75346371D01*
X27085873Y-75436716D01*
X27095271Y-75449843D01*
X27166152Y-75520601D01*
X27179294Y-75529974D01*
X27269722Y-75574176D01*
X27284231Y-75578661D01*
X27341278Y-75586983D01*
X27348405Y-75587500D01*
X27524820Y-75587500D01*
X27537505Y-75583378D01*
X27540500Y-75579257D01*
X27540500Y-74853180D01*
X27536378Y-74840495D01*
X27532257Y-74837500D01*
X27043681Y-74837500D01*
X27030996Y-74841622D01*
X27028001Y-74845743D01*
X27028001Y-75267057D01*
X20828000Y-75267057D01*
X20828000Y-74791320D01*
X21422000Y-74791320D01*
X21426122Y-74804005D01*
X21430243Y-74807000D01*
X23356320Y-74807000D01*
X23369005Y-74802878D01*
X23372000Y-74798757D01*
X23372000Y-74791320D01*
X23872000Y-74791320D01*
X23876122Y-74804005D01*
X23880243Y-74807000D01*
X25806319Y-74807000D01*
X25819004Y-74802878D01*
X25821999Y-74798757D01*
X25821999Y-74321820D01*
X27028000Y-74321820D01*
X27032122Y-74334505D01*
X27036243Y-74337500D01*
X27524820Y-74337500D01*
X27537505Y-74333378D01*
X27540500Y-74329257D01*
X27540500Y-73603181D01*
X27536378Y-73590496D01*
X27532257Y-73587501D01*
X27348443Y-73587501D01*
X27341245Y-73588028D01*
X27283641Y-73596506D01*
X27269129Y-73601015D01*
X27178784Y-73645373D01*
X27165657Y-73654771D01*
X27094899Y-73725652D01*
X27085526Y-73738794D01*
X27041324Y-73829222D01*
X27036839Y-73843731D01*
X27028517Y-73900778D01*
X27028000Y-73907905D01*
X27028000Y-74321820D01*
X25821999Y-74321820D01*
X25821999Y-73852016D01*
X25821051Y-73842384D01*
X25818100Y-73827545D01*
X25810781Y-73809874D01*
X25799515Y-73793014D01*
X25785986Y-73779485D01*
X25769124Y-73768219D01*
X25751456Y-73760900D01*
X25736613Y-73757948D01*
X25726991Y-73757000D01*
X23887680Y-73757000D01*
X23874995Y-73761122D01*
X23872000Y-73765243D01*
X23872000Y-74791320D01*
X23372000Y-74791320D01*
X23372000Y-73772681D01*
X23367878Y-73759996D01*
X23363757Y-73757001D01*
X21517016Y-73757001D01*
X21507384Y-73757949D01*
X21492545Y-73760900D01*
X21474874Y-73768219D01*
X21458014Y-73779485D01*
X21444485Y-73793014D01*
X21433219Y-73809876D01*
X21425900Y-73827544D01*
X21422948Y-73842387D01*
X21422000Y-73852009D01*
X21422000Y-74791320D01*
X20828000Y-74791320D01*
X20828000Y-73706419D01*
X20846907Y-73648228D01*
X20853635Y-73639947D01*
X21009794Y-73467653D01*
X21016658Y-73460789D01*
X21264682Y-73235993D01*
X21272181Y-73229839D01*
X21522106Y-73044482D01*
X21581080Y-73025000D01*
X27968000Y-73025000D01*
X28026191Y-73043907D01*
G37*
%TD.AperFunction*%
%TD*%
%TA.AperFunction,Conductor*%
%TO.N,/OUT3.3*%
G36*
X34884191Y-110508907D02*
G01*
X34920155Y-110558407D01*
X34925000Y-110589000D01*
X34925000Y-116233000D01*
X34906093Y-116291191D01*
X34856593Y-116327155D01*
X34826000Y-116332000D01*
X31623000Y-116332000D01*
X31623000Y-117249000D01*
X31604093Y-117307191D01*
X31554593Y-117343155D01*
X31524000Y-117348000D01*
X29917500Y-117348000D01*
X29912845Y-117341593D01*
X29908000Y-117311000D01*
X29908000Y-116894320D01*
X30408000Y-116894320D01*
X30412122Y-116907005D01*
X30416243Y-116910000D01*
X31242319Y-116910000D01*
X31255004Y-116905878D01*
X31257999Y-116901757D01*
X31257999Y-116830016D01*
X31257051Y-116820384D01*
X31254100Y-116805545D01*
X31246781Y-116787874D01*
X31235515Y-116771014D01*
X31221986Y-116757485D01*
X31205124Y-116746219D01*
X31187456Y-116738900D01*
X31172613Y-116735948D01*
X31162991Y-116735000D01*
X30423680Y-116735000D01*
X30410995Y-116739122D01*
X30408000Y-116743243D01*
X30408000Y-116894320D01*
X29908000Y-116894320D01*
X29908000Y-116750681D01*
X29903878Y-116737996D01*
X29899757Y-116735001D01*
X29309000Y-116735001D01*
X29250809Y-116716094D01*
X29214845Y-116666594D01*
X29210000Y-116636001D01*
X29210000Y-116304000D01*
X29228907Y-116245809D01*
X29278407Y-116209845D01*
X29309000Y-116205000D01*
X29464000Y-116205000D01*
X29464000Y-115896984D01*
X32010001Y-115896984D01*
X32010949Y-115906616D01*
X32013900Y-115921455D01*
X32021219Y-115939126D01*
X32032485Y-115955986D01*
X32046014Y-115969515D01*
X32062876Y-115980781D01*
X32080544Y-115988100D01*
X32095387Y-115991052D01*
X32105009Y-115992000D01*
X33044320Y-115992000D01*
X33057005Y-115987878D01*
X33060000Y-115983757D01*
X33060000Y-115976319D01*
X33560000Y-115976319D01*
X33564122Y-115989004D01*
X33568243Y-115991999D01*
X34514984Y-115991999D01*
X34524616Y-115991051D01*
X34539455Y-115988100D01*
X34557126Y-115980781D01*
X34573986Y-115969515D01*
X34587515Y-115955986D01*
X34598781Y-115939124D01*
X34606100Y-115921456D01*
X34609052Y-115906613D01*
X34610000Y-115896991D01*
X34610000Y-114057680D01*
X34605878Y-114044995D01*
X34601757Y-114042000D01*
X33575680Y-114042000D01*
X33562995Y-114046122D01*
X33560000Y-114050243D01*
X33560000Y-115976319D01*
X33060000Y-115976319D01*
X33060000Y-114057680D01*
X33055878Y-114044995D01*
X33051757Y-114042000D01*
X32025681Y-114042000D01*
X32012996Y-114046122D01*
X32010001Y-114050243D01*
X32010001Y-115896984D01*
X29464000Y-115896984D01*
X29464000Y-115541557D01*
X29748001Y-115541557D01*
X29748528Y-115548755D01*
X29757006Y-115606359D01*
X29761515Y-115620871D01*
X29805873Y-115711216D01*
X29815271Y-115724343D01*
X29886152Y-115795101D01*
X29899294Y-115804474D01*
X29989722Y-115848676D01*
X30004231Y-115853161D01*
X30061278Y-115861483D01*
X30068405Y-115862000D01*
X30182320Y-115862000D01*
X30195005Y-115857878D01*
X30198000Y-115853757D01*
X30198000Y-115846319D01*
X30698000Y-115846319D01*
X30702122Y-115859004D01*
X30706243Y-115861999D01*
X30827557Y-115861999D01*
X30834755Y-115861472D01*
X30892359Y-115852994D01*
X30906871Y-115848485D01*
X30997216Y-115804127D01*
X31010343Y-115794729D01*
X31081101Y-115723848D01*
X31090474Y-115710706D01*
X31134676Y-115620278D01*
X31139161Y-115605769D01*
X31147483Y-115548722D01*
X31148000Y-115541595D01*
X31148000Y-115327680D01*
X31143878Y-115314995D01*
X31139757Y-115312000D01*
X30713680Y-115312000D01*
X30700995Y-115316122D01*
X30698000Y-115320243D01*
X30698000Y-115846319D01*
X30198000Y-115846319D01*
X30198000Y-115327680D01*
X30193878Y-115314995D01*
X30189757Y-115312000D01*
X29763681Y-115312000D01*
X29750996Y-115316122D01*
X29748001Y-115320243D01*
X29748001Y-115541557D01*
X29464000Y-115541557D01*
X29464000Y-114796320D01*
X29748000Y-114796320D01*
X29752122Y-114809005D01*
X29756243Y-114812000D01*
X30182320Y-114812000D01*
X30195005Y-114807878D01*
X30198000Y-114803757D01*
X30198000Y-114796320D01*
X30698000Y-114796320D01*
X30702122Y-114809005D01*
X30706243Y-114812000D01*
X31132319Y-114812000D01*
X31145004Y-114807878D01*
X31147999Y-114803757D01*
X31147999Y-114582443D01*
X31147472Y-114575245D01*
X31138994Y-114517641D01*
X31134485Y-114503129D01*
X31090127Y-114412784D01*
X31080729Y-114399657D01*
X31009848Y-114328899D01*
X30996706Y-114319526D01*
X30906278Y-114275324D01*
X30891769Y-114270839D01*
X30834722Y-114262517D01*
X30827595Y-114262000D01*
X30713680Y-114262000D01*
X30700995Y-114266122D01*
X30698000Y-114270243D01*
X30698000Y-114796320D01*
X30198000Y-114796320D01*
X30198000Y-114277681D01*
X30193878Y-114264996D01*
X30189757Y-114262001D01*
X30068443Y-114262001D01*
X30061245Y-114262528D01*
X30003641Y-114271006D01*
X29989129Y-114275515D01*
X29898784Y-114319873D01*
X29885657Y-114329271D01*
X29814899Y-114400152D01*
X29805526Y-114413294D01*
X29761324Y-114503722D01*
X29756839Y-114518231D01*
X29748517Y-114575278D01*
X29748000Y-114582405D01*
X29748000Y-114796320D01*
X29464000Y-114796320D01*
X29464000Y-113792000D01*
X27404000Y-113792000D01*
X27345809Y-113773093D01*
X27309845Y-113723593D01*
X27305000Y-113693000D01*
X27305000Y-113526320D01*
X32010000Y-113526320D01*
X32014122Y-113539005D01*
X32018243Y-113542000D01*
X33044320Y-113542000D01*
X33057005Y-113537878D01*
X33060000Y-113533757D01*
X33060000Y-113526320D01*
X33560000Y-113526320D01*
X33564122Y-113539005D01*
X33568243Y-113542000D01*
X34594319Y-113542000D01*
X34607004Y-113537878D01*
X34609999Y-113533757D01*
X34609999Y-111687016D01*
X34609051Y-111677384D01*
X34606100Y-111662545D01*
X34598781Y-111644874D01*
X34587515Y-111628014D01*
X34573986Y-111614485D01*
X34557124Y-111603219D01*
X34539456Y-111595900D01*
X34524613Y-111592948D01*
X34514991Y-111592000D01*
X33575680Y-111592000D01*
X33562995Y-111596122D01*
X33560000Y-111600243D01*
X33560000Y-113526320D01*
X33060000Y-113526320D01*
X33060000Y-111607681D01*
X33055878Y-111594996D01*
X33051757Y-111592001D01*
X32105016Y-111592001D01*
X32095384Y-111592949D01*
X32080545Y-111595900D01*
X32062874Y-111603219D01*
X32046014Y-111614485D01*
X32032485Y-111628014D01*
X32021219Y-111644876D01*
X32013900Y-111662544D01*
X32010948Y-111677387D01*
X32010000Y-111687009D01*
X32010000Y-113526320D01*
X27305000Y-113526320D01*
X27305000Y-112918984D01*
X27574001Y-112918984D01*
X27574949Y-112928616D01*
X27577900Y-112943455D01*
X27585219Y-112961126D01*
X27596485Y-112977986D01*
X27610014Y-112991515D01*
X27626876Y-113002781D01*
X27644544Y-113010100D01*
X27659387Y-113013052D01*
X27669009Y-113014000D01*
X29158320Y-113014000D01*
X29171005Y-113009878D01*
X29174000Y-113005757D01*
X29174000Y-112998319D01*
X29674000Y-112998319D01*
X29678122Y-113011004D01*
X29682243Y-113013999D01*
X31178984Y-113013999D01*
X31188616Y-113013051D01*
X31203455Y-113010100D01*
X31221126Y-113002781D01*
X31237986Y-112991515D01*
X31251515Y-112977986D01*
X31262781Y-112961124D01*
X31270100Y-112943456D01*
X31273052Y-112928613D01*
X31274000Y-112918991D01*
X31274000Y-112279680D01*
X31269878Y-112266995D01*
X31265757Y-112264000D01*
X29689680Y-112264000D01*
X29676995Y-112268122D01*
X29674000Y-112272243D01*
X29674000Y-112998319D01*
X29174000Y-112998319D01*
X29174000Y-112279680D01*
X29169878Y-112266995D01*
X29165757Y-112264000D01*
X27589681Y-112264000D01*
X27576996Y-112268122D01*
X27574001Y-112272243D01*
X27574001Y-112918984D01*
X27305000Y-112918984D01*
X27305000Y-111748320D01*
X27574000Y-111748320D01*
X27578122Y-111761005D01*
X27582243Y-111764000D01*
X29158320Y-111764000D01*
X29171005Y-111759878D01*
X29174000Y-111755757D01*
X29174000Y-111748320D01*
X29674000Y-111748320D01*
X29678122Y-111761005D01*
X29682243Y-111764000D01*
X31258319Y-111764000D01*
X31271004Y-111759878D01*
X31273999Y-111755757D01*
X31273999Y-111109016D01*
X31273051Y-111099384D01*
X31270100Y-111084545D01*
X31262781Y-111066874D01*
X31251515Y-111050014D01*
X31237986Y-111036485D01*
X31221124Y-111025219D01*
X31203456Y-111017900D01*
X31188613Y-111014948D01*
X31178991Y-111014000D01*
X29689680Y-111014000D01*
X29676995Y-111018122D01*
X29674000Y-111022243D01*
X29674000Y-111748320D01*
X29174000Y-111748320D01*
X29174000Y-111029681D01*
X29169878Y-111016996D01*
X29165757Y-111014001D01*
X27669016Y-111014001D01*
X27659384Y-111014949D01*
X27644545Y-111017900D01*
X27626874Y-111025219D01*
X27610014Y-111036485D01*
X27596485Y-111050014D01*
X27585219Y-111066876D01*
X27577900Y-111084544D01*
X27574948Y-111099387D01*
X27574000Y-111109009D01*
X27574000Y-111748320D01*
X27305000Y-111748320D01*
X27305000Y-110589000D01*
X27323907Y-110530809D01*
X27373407Y-110494845D01*
X27404000Y-110490000D01*
X34826000Y-110490000D01*
X34884191Y-110508907D01*
G37*
%TD.AperFunction*%
%TD*%
%TA.AperFunction,Conductor*%
%TO.N,GND*%
G36*
X32090191Y-73043907D02*
G01*
X32126155Y-73093407D01*
X32131000Y-73124000D01*
X32131000Y-77117000D01*
X32112093Y-77175191D01*
X32062593Y-77211155D01*
X32032000Y-77216000D01*
X29337000Y-77216000D01*
X29337000Y-77244000D01*
X29318093Y-77302191D01*
X29268593Y-77338155D01*
X29238000Y-77343000D01*
X29020642Y-77343000D01*
X28962451Y-77324093D01*
X28960464Y-77321357D01*
X28931757Y-77300500D01*
X27789000Y-77300500D01*
X27730809Y-77281593D01*
X27694845Y-77232093D01*
X27690000Y-77201500D01*
X27690000Y-76899500D01*
X27708907Y-76841309D01*
X27758407Y-76805345D01*
X27789000Y-76800500D01*
X28924319Y-76800500D01*
X28937004Y-76796378D01*
X28940091Y-76792129D01*
X28940189Y-76791513D01*
X28967967Y-76736996D01*
X29022483Y-76709219D01*
X29037970Y-76708000D01*
X29083000Y-76708000D01*
X29083000Y-75267057D01*
X30153001Y-75267057D01*
X30153528Y-75274255D01*
X30162006Y-75331859D01*
X30166515Y-75346371D01*
X30210873Y-75436716D01*
X30220271Y-75449843D01*
X30291152Y-75520601D01*
X30304294Y-75529974D01*
X30394722Y-75574176D01*
X30409231Y-75578661D01*
X30466278Y-75586983D01*
X30473405Y-75587500D01*
X30649820Y-75587500D01*
X30662505Y-75583378D01*
X30665500Y-75579257D01*
X30665500Y-75571819D01*
X31165500Y-75571819D01*
X31169622Y-75584504D01*
X31173743Y-75587499D01*
X31357557Y-75587499D01*
X31364755Y-75586972D01*
X31422359Y-75578494D01*
X31436871Y-75573985D01*
X31527216Y-75529627D01*
X31540343Y-75520229D01*
X31611101Y-75449348D01*
X31620474Y-75436206D01*
X31664676Y-75345778D01*
X31669161Y-75331269D01*
X31677483Y-75274222D01*
X31678000Y-75267095D01*
X31678000Y-74853180D01*
X31673878Y-74840495D01*
X31669757Y-74837500D01*
X31181180Y-74837500D01*
X31168495Y-74841622D01*
X31165500Y-74845743D01*
X31165500Y-75571819D01*
X30665500Y-75571819D01*
X30665500Y-74853180D01*
X30661378Y-74840495D01*
X30657257Y-74837500D01*
X30168681Y-74837500D01*
X30155996Y-74841622D01*
X30153001Y-74845743D01*
X30153001Y-75267057D01*
X29083000Y-75267057D01*
X29083000Y-74321820D01*
X30153000Y-74321820D01*
X30157122Y-74334505D01*
X30161243Y-74337500D01*
X30649820Y-74337500D01*
X30662505Y-74333378D01*
X30665500Y-74329257D01*
X30665500Y-74321820D01*
X31165500Y-74321820D01*
X31169622Y-74334505D01*
X31173743Y-74337500D01*
X31662319Y-74337500D01*
X31675004Y-74333378D01*
X31677999Y-74329257D01*
X31677999Y-73907943D01*
X31677472Y-73900745D01*
X31668994Y-73843141D01*
X31664485Y-73828629D01*
X31620127Y-73738284D01*
X31610729Y-73725157D01*
X31539848Y-73654399D01*
X31526706Y-73645026D01*
X31436278Y-73600824D01*
X31421769Y-73596339D01*
X31364722Y-73588017D01*
X31357595Y-73587500D01*
X31181180Y-73587500D01*
X31168495Y-73591622D01*
X31165500Y-73595743D01*
X31165500Y-74321820D01*
X30665500Y-74321820D01*
X30665500Y-73603181D01*
X30661378Y-73590496D01*
X30657257Y-73587501D01*
X30473443Y-73587501D01*
X30466245Y-73588028D01*
X30408641Y-73596506D01*
X30394129Y-73601015D01*
X30303784Y-73645373D01*
X30290657Y-73654771D01*
X30219899Y-73725652D01*
X30210526Y-73738794D01*
X30166324Y-73829222D01*
X30161839Y-73843731D01*
X30153517Y-73900778D01*
X30153000Y-73907905D01*
X30153000Y-74321820D01*
X29083000Y-74321820D01*
X29083000Y-73124000D01*
X29101907Y-73065809D01*
X29151407Y-73029845D01*
X29182000Y-73025000D01*
X32032000Y-73025000D01*
X32090191Y-73043907D01*
G37*
%TD.AperFunction*%
%TD*%
%TA.AperFunction,Conductor*%
%TO.N,GND*%
G36*
X26629191Y-109746907D02*
G01*
X26665155Y-109796407D01*
X26670000Y-109827000D01*
X26670000Y-114074000D01*
X26651093Y-114132191D01*
X26601593Y-114168155D01*
X26571000Y-114173000D01*
X22324000Y-114173000D01*
X22265809Y-114154093D01*
X22229845Y-114104593D01*
X22225000Y-114074000D01*
X22225000Y-112918984D01*
X22574001Y-112918984D01*
X22574949Y-112928616D01*
X22577900Y-112943455D01*
X22585219Y-112961126D01*
X22596485Y-112977986D01*
X22610014Y-112991515D01*
X22626876Y-113002781D01*
X22644544Y-113010100D01*
X22659387Y-113013052D01*
X22669009Y-113014000D01*
X24158320Y-113014000D01*
X24171005Y-113009878D01*
X24174000Y-113005757D01*
X24174000Y-112998319D01*
X24674000Y-112998319D01*
X24678122Y-113011004D01*
X24682243Y-113013999D01*
X26178984Y-113013999D01*
X26188616Y-113013051D01*
X26203455Y-113010100D01*
X26221126Y-113002781D01*
X26237986Y-112991515D01*
X26251515Y-112977986D01*
X26262781Y-112961124D01*
X26270100Y-112943456D01*
X26273052Y-112928613D01*
X26274000Y-112918991D01*
X26274000Y-112279680D01*
X26269878Y-112266995D01*
X26265757Y-112264000D01*
X24689680Y-112264000D01*
X24676995Y-112268122D01*
X24674000Y-112272243D01*
X24674000Y-112998319D01*
X24174000Y-112998319D01*
X24174000Y-112279680D01*
X24169878Y-112266995D01*
X24165757Y-112264000D01*
X22589681Y-112264000D01*
X22576996Y-112268122D01*
X22574001Y-112272243D01*
X22574001Y-112918984D01*
X22225000Y-112918984D01*
X22225000Y-111748320D01*
X22574000Y-111748320D01*
X22578122Y-111761005D01*
X22582243Y-111764000D01*
X24158320Y-111764000D01*
X24171005Y-111759878D01*
X24174000Y-111755757D01*
X24174000Y-111748320D01*
X24674000Y-111748320D01*
X24678122Y-111761005D01*
X24682243Y-111764000D01*
X26258319Y-111764000D01*
X26271004Y-111759878D01*
X26273999Y-111755757D01*
X26273999Y-111109016D01*
X26273051Y-111099384D01*
X26270100Y-111084545D01*
X26262781Y-111066874D01*
X26251515Y-111050014D01*
X26237986Y-111036485D01*
X26221124Y-111025219D01*
X26203456Y-111017900D01*
X26188613Y-111014948D01*
X26178991Y-111014000D01*
X24689680Y-111014000D01*
X24676995Y-111018122D01*
X24674000Y-111022243D01*
X24674000Y-111748320D01*
X24174000Y-111748320D01*
X24174000Y-111029681D01*
X24169878Y-111016996D01*
X24165757Y-111014001D01*
X22669016Y-111014001D01*
X22659384Y-111014949D01*
X22644545Y-111017900D01*
X22626874Y-111025219D01*
X22610014Y-111036485D01*
X22596485Y-111050014D01*
X22585219Y-111066876D01*
X22577900Y-111084544D01*
X22574948Y-111099387D01*
X22574000Y-111109009D01*
X22574000Y-111748320D01*
X22225000Y-111748320D01*
X22225000Y-109827000D01*
X22243907Y-109768809D01*
X22293407Y-109732845D01*
X22324000Y-109728000D01*
X26571000Y-109728000D01*
X26629191Y-109746907D01*
G37*
%TD.AperFunction*%
%TD*%
%TA.AperFunction,Conductor*%
%TO.N,GND*%
G36*
X39474202Y-83076907D02*
G01*
X39510166Y-83126407D01*
X39515011Y-83157000D01*
X39515011Y-87531000D01*
X39496104Y-87589191D01*
X39446604Y-87625155D01*
X39416011Y-87630000D01*
X35659000Y-87630000D01*
X35600809Y-87611093D01*
X35564845Y-87561593D01*
X35560000Y-87531000D01*
X35560000Y-86879557D01*
X36692001Y-86879557D01*
X36692528Y-86886754D01*
X36701006Y-86944355D01*
X36705517Y-86958873D01*
X36749873Y-87049216D01*
X36759270Y-87062342D01*
X36830152Y-87133101D01*
X36843294Y-87142474D01*
X36933722Y-87186676D01*
X36948231Y-87191161D01*
X37005278Y-87199483D01*
X37012405Y-87200000D01*
X37326320Y-87200000D01*
X37339005Y-87195878D01*
X37342000Y-87191757D01*
X37342000Y-87184319D01*
X37842000Y-87184319D01*
X37846122Y-87197004D01*
X37850243Y-87199999D01*
X38171557Y-87199999D01*
X38178754Y-87199472D01*
X38236355Y-87190994D01*
X38250873Y-87186483D01*
X38341216Y-87142127D01*
X38354342Y-87132730D01*
X38425101Y-87061848D01*
X38434474Y-87048706D01*
X38478676Y-86958278D01*
X38483161Y-86943769D01*
X38491483Y-86886722D01*
X38492000Y-86879595D01*
X38492000Y-85615680D01*
X38487878Y-85602995D01*
X38483757Y-85600000D01*
X37857680Y-85600000D01*
X37844995Y-85604122D01*
X37842000Y-85608243D01*
X37842000Y-87184319D01*
X37342000Y-87184319D01*
X37342000Y-85615680D01*
X37337878Y-85602995D01*
X37333757Y-85600000D01*
X36707681Y-85600000D01*
X36694996Y-85604122D01*
X36692001Y-85608243D01*
X36692001Y-86879557D01*
X35560000Y-86879557D01*
X35560000Y-85084320D01*
X36692000Y-85084320D01*
X36696122Y-85097005D01*
X36700243Y-85100000D01*
X37326320Y-85100000D01*
X37339005Y-85095878D01*
X37342000Y-85091757D01*
X37342000Y-85084320D01*
X37842000Y-85084320D01*
X37846122Y-85097005D01*
X37850243Y-85100000D01*
X38476319Y-85100000D01*
X38489004Y-85095878D01*
X38491999Y-85091757D01*
X38491999Y-83820443D01*
X38491472Y-83813246D01*
X38482994Y-83755645D01*
X38478483Y-83741127D01*
X38434127Y-83650784D01*
X38424730Y-83637658D01*
X38353848Y-83566899D01*
X38340706Y-83557526D01*
X38250278Y-83513324D01*
X38235769Y-83508839D01*
X38178722Y-83500517D01*
X38171595Y-83500000D01*
X37857680Y-83500000D01*
X37844995Y-83504122D01*
X37842000Y-83508243D01*
X37842000Y-85084320D01*
X37342000Y-85084320D01*
X37342000Y-83515681D01*
X37337878Y-83502996D01*
X37333757Y-83500001D01*
X37012443Y-83500001D01*
X37005246Y-83500528D01*
X36947645Y-83509006D01*
X36933127Y-83513517D01*
X36842784Y-83557873D01*
X36829658Y-83567270D01*
X36758899Y-83638152D01*
X36749526Y-83651294D01*
X36705324Y-83741722D01*
X36700839Y-83756231D01*
X36692517Y-83813278D01*
X36692000Y-83820405D01*
X36692000Y-85084320D01*
X35560000Y-85084320D01*
X35560000Y-83157000D01*
X35578907Y-83098809D01*
X35628407Y-83062845D01*
X35659000Y-83058000D01*
X39416011Y-83058000D01*
X39474202Y-83076907D01*
G37*
%TD.AperFunction*%
%TD*%
%TA.AperFunction,Conductor*%
%TO.N,GND*%
G36*
X25148658Y-116350907D02*
G01*
X25160471Y-116360996D01*
X25255536Y-116456061D01*
X25258406Y-116459054D01*
X25300799Y-116505156D01*
X25306536Y-116508713D01*
X25338857Y-116528753D01*
X25346541Y-116534033D01*
X25360855Y-116544898D01*
X25395774Y-116595139D01*
X25400000Y-116623755D01*
X25400000Y-117729000D01*
X25525739Y-117729000D01*
X25565768Y-117737454D01*
X25667673Y-117782506D01*
X25675067Y-117783368D01*
X25690378Y-117785153D01*
X25693354Y-117785500D01*
X27782646Y-117785500D01*
X27808846Y-117782382D01*
X27815064Y-117779620D01*
X27875884Y-117782416D01*
X27923680Y-117820614D01*
X27940000Y-117875066D01*
X27940000Y-118344942D01*
X27921093Y-118403133D01*
X27871593Y-118439097D01*
X27815023Y-118440455D01*
X27808327Y-118437494D01*
X27800936Y-118436632D01*
X27800935Y-118436632D01*
X27785494Y-118434832D01*
X27785493Y-118434832D01*
X27782646Y-118434500D01*
X25693354Y-118434500D01*
X25676951Y-118436452D01*
X25674531Y-118436740D01*
X25674530Y-118436740D01*
X25667154Y-118437618D01*
X25568520Y-118481430D01*
X25566164Y-118482476D01*
X25525976Y-118491000D01*
X25400000Y-118491000D01*
X25400000Y-119789000D01*
X25381093Y-119847191D01*
X25331593Y-119883155D01*
X25301000Y-119888000D01*
X23721000Y-119888000D01*
X23662809Y-119869093D01*
X23626845Y-119819593D01*
X23622000Y-119789000D01*
X23622000Y-116431000D01*
X23640907Y-116372809D01*
X23690407Y-116336845D01*
X23721000Y-116332000D01*
X25090467Y-116332000D01*
X25148658Y-116350907D01*
G37*
%TD.AperFunction*%
%TD*%
%TA.AperFunction,Conductor*%
%TO.N,VCC*%
G36*
X27112787Y-77984952D02*
G01*
X27157452Y-78002636D01*
X27247227Y-78013500D01*
X27939884Y-78013500D01*
X28632772Y-78013499D01*
X28635737Y-78013140D01*
X28635741Y-78013140D01*
X28716235Y-78003400D01*
X28716236Y-78003400D01*
X28722548Y-78002636D01*
X28767213Y-77984952D01*
X28803657Y-77978000D01*
X29501548Y-77978000D01*
X29559739Y-77996907D01*
X29561243Y-77998000D01*
X31137319Y-77998000D01*
X31179306Y-77984358D01*
X31181385Y-77982847D01*
X31211984Y-77978000D01*
X32032000Y-77978000D01*
X32090191Y-77996907D01*
X32126155Y-78046407D01*
X32131000Y-78077000D01*
X32131000Y-79276000D01*
X32112093Y-79334191D01*
X32062593Y-79370155D01*
X32032000Y-79375000D01*
X30996451Y-79375000D01*
X30960007Y-79368048D01*
X30935548Y-79358364D01*
X30845773Y-79347500D01*
X30353083Y-79347500D01*
X29860228Y-79347501D01*
X29857263Y-79347860D01*
X29857259Y-79347860D01*
X29776765Y-79357600D01*
X29776764Y-79357600D01*
X29770452Y-79358364D01*
X29745993Y-79368048D01*
X29709549Y-79375000D01*
X29210000Y-79375000D01*
X29210000Y-80841468D01*
X29191093Y-80899659D01*
X29181004Y-80911471D01*
X29066476Y-81026000D01*
X28968473Y-81124003D01*
X28913956Y-81151781D01*
X28898469Y-81153000D01*
X28702000Y-81153000D01*
X28702000Y-81370499D01*
X28683043Y-81426824D01*
X28683283Y-81426959D01*
X28682574Y-81428217D01*
X28681854Y-81430357D01*
X28675888Y-81438217D01*
X28669467Y-81454434D01*
X28661560Y-81470155D01*
X28655922Y-81479248D01*
X28655920Y-81479253D01*
X28652365Y-81484986D01*
X28650483Y-81491463D01*
X28647736Y-81497633D01*
X28645568Y-81496668D01*
X28627238Y-81527730D01*
X28582759Y-81572287D01*
X28579064Y-81580645D01*
X28576682Y-81586032D01*
X28535860Y-81631607D01*
X28486137Y-81645000D01*
X28475680Y-81645000D01*
X28462995Y-81649122D01*
X28460000Y-81653243D01*
X28460000Y-82896000D01*
X28441093Y-82954191D01*
X28391593Y-82990155D01*
X28361000Y-82995000D01*
X28059000Y-82995000D01*
X28000809Y-82976093D01*
X27964845Y-82926593D01*
X27960000Y-82896000D01*
X27960000Y-81660681D01*
X27955878Y-81647996D01*
X27951757Y-81645001D01*
X27933785Y-81645001D01*
X27875594Y-81626094D01*
X27843308Y-81586186D01*
X27840650Y-81580202D01*
X27836939Y-81571847D01*
X27830469Y-81565388D01*
X27830411Y-81565304D01*
X27813000Y-81509230D01*
X27813000Y-81026000D01*
X27789000Y-81026000D01*
X27730809Y-81007093D01*
X27694845Y-80957593D01*
X27690000Y-80927000D01*
X27690000Y-80922319D01*
X28190000Y-80922319D01*
X28194122Y-80935004D01*
X28198243Y-80937999D01*
X28619557Y-80937999D01*
X28626755Y-80937472D01*
X28684359Y-80928994D01*
X28698871Y-80924485D01*
X28789216Y-80880127D01*
X28802343Y-80870729D01*
X28873101Y-80799848D01*
X28882474Y-80786706D01*
X28926676Y-80696278D01*
X28931161Y-80681769D01*
X28939483Y-80624722D01*
X28940000Y-80617595D01*
X28940000Y-80441180D01*
X28935878Y-80428495D01*
X28931757Y-80425500D01*
X28205680Y-80425500D01*
X28192995Y-80429622D01*
X28190000Y-80433743D01*
X28190000Y-80922319D01*
X27690000Y-80922319D01*
X27690000Y-80441180D01*
X27685878Y-80428495D01*
X27681757Y-80425500D01*
X26955681Y-80425500D01*
X26942996Y-80429622D01*
X26940001Y-80433743D01*
X26940001Y-80617557D01*
X26940528Y-80624755D01*
X26949006Y-80682359D01*
X26953515Y-80696871D01*
X26997873Y-80787216D01*
X27007271Y-80800343D01*
X27063962Y-80856935D01*
X27091788Y-80911428D01*
X27082269Y-80971868D01*
X27039042Y-81015170D01*
X26994020Y-81026000D01*
X26642000Y-81026000D01*
X26583809Y-81007093D01*
X26547845Y-80957593D01*
X26543000Y-80927000D01*
X26543000Y-79909820D01*
X26940000Y-79909820D01*
X26944122Y-79922505D01*
X26948243Y-79925500D01*
X27674320Y-79925500D01*
X27687005Y-79921378D01*
X27690000Y-79917257D01*
X27690000Y-79909820D01*
X28190000Y-79909820D01*
X28194122Y-79922505D01*
X28198243Y-79925500D01*
X28924319Y-79925500D01*
X28937004Y-79921378D01*
X28939999Y-79917257D01*
X28939999Y-79733443D01*
X28939472Y-79726245D01*
X28930994Y-79668641D01*
X28926485Y-79654129D01*
X28882127Y-79563784D01*
X28872729Y-79550657D01*
X28801848Y-79479899D01*
X28788706Y-79470526D01*
X28698278Y-79426324D01*
X28683769Y-79421839D01*
X28626722Y-79413517D01*
X28619595Y-79413000D01*
X28205680Y-79413000D01*
X28192995Y-79417122D01*
X28190000Y-79421243D01*
X28190000Y-79909820D01*
X27690000Y-79909820D01*
X27690000Y-79428681D01*
X27685878Y-79415996D01*
X27681757Y-79413001D01*
X27260443Y-79413001D01*
X27253245Y-79413528D01*
X27195641Y-79422006D01*
X27181129Y-79426515D01*
X27090784Y-79470873D01*
X27077657Y-79480271D01*
X27006899Y-79551152D01*
X26997526Y-79564294D01*
X26953324Y-79654722D01*
X26948839Y-79669231D01*
X26940517Y-79726278D01*
X26940000Y-79733405D01*
X26940000Y-79909820D01*
X26543000Y-79909820D01*
X26543000Y-78627557D01*
X29553001Y-78627557D01*
X29553528Y-78634755D01*
X29562006Y-78692359D01*
X29566515Y-78706871D01*
X29610873Y-78797216D01*
X29620271Y-78810343D01*
X29691152Y-78881101D01*
X29704294Y-78890474D01*
X29794722Y-78934676D01*
X29809231Y-78939161D01*
X29866278Y-78947483D01*
X29873405Y-78948000D01*
X30087320Y-78948000D01*
X30100005Y-78943878D01*
X30103000Y-78939757D01*
X30103000Y-78932319D01*
X30603000Y-78932319D01*
X30607122Y-78945004D01*
X30611243Y-78947999D01*
X30832557Y-78947999D01*
X30839755Y-78947472D01*
X30897359Y-78938994D01*
X30911871Y-78934485D01*
X31002216Y-78890127D01*
X31015343Y-78880729D01*
X31086101Y-78809848D01*
X31095474Y-78796706D01*
X31139676Y-78706278D01*
X31144161Y-78691769D01*
X31152483Y-78634722D01*
X31153000Y-78627595D01*
X31153000Y-78513680D01*
X31148878Y-78500995D01*
X31144757Y-78498000D01*
X30618680Y-78498000D01*
X30605995Y-78502122D01*
X30603000Y-78506243D01*
X30603000Y-78932319D01*
X30103000Y-78932319D01*
X30103000Y-78513680D01*
X30098878Y-78500995D01*
X30094757Y-78498000D01*
X29568681Y-78498000D01*
X29555996Y-78502122D01*
X29553001Y-78506243D01*
X29553001Y-78627557D01*
X26543000Y-78627557D01*
X26543000Y-78077000D01*
X26561907Y-78018809D01*
X26611407Y-77982845D01*
X26642000Y-77978000D01*
X27076343Y-77978000D01*
X27112787Y-77984952D01*
G37*
%TD.AperFunction*%
%TD*%
%TA.AperFunction,Conductor*%
%TO.N,GND*%
G36*
X35080229Y-117603219D02*
G01*
X35097789Y-117606000D01*
X36602053Y-117606000D01*
X36627310Y-117602000D01*
X37058243Y-117602000D01*
X37073729Y-117603219D01*
X37091289Y-117606000D01*
X38595553Y-117606000D01*
X38620810Y-117602000D01*
X38763000Y-117602000D01*
X38821191Y-117620907D01*
X38857155Y-117670407D01*
X38862000Y-117701000D01*
X38862000Y-121412000D01*
X39525000Y-121412000D01*
X39583191Y-121430907D01*
X39619155Y-121480407D01*
X39624000Y-121511000D01*
X39624000Y-124107000D01*
X39605093Y-124165191D01*
X39555593Y-124201155D01*
X39525000Y-124206000D01*
X34516000Y-124206000D01*
X34457809Y-124187093D01*
X34421845Y-124137593D01*
X34417000Y-124107000D01*
X34417000Y-123881500D01*
X34435907Y-123823309D01*
X34485407Y-123787345D01*
X34516000Y-123782500D01*
X35318772Y-123782500D01*
X35408547Y-123771636D01*
X35548783Y-123716113D01*
X35554158Y-123712033D01*
X35554160Y-123712032D01*
X35663543Y-123629005D01*
X35668922Y-123624922D01*
X35701894Y-123581483D01*
X35756032Y-123510160D01*
X35756033Y-123510158D01*
X35760113Y-123504783D01*
X35815636Y-123364547D01*
X35826500Y-123274772D01*
X35826500Y-123261557D01*
X37526001Y-123261557D01*
X37526528Y-123268754D01*
X37535006Y-123326355D01*
X37539517Y-123340873D01*
X37583873Y-123431216D01*
X37593270Y-123444342D01*
X37664152Y-123515101D01*
X37677294Y-123524474D01*
X37767722Y-123568676D01*
X37782231Y-123573161D01*
X37839278Y-123581483D01*
X37846405Y-123582000D01*
X39110320Y-123581999D01*
X39123005Y-123577877D01*
X39126000Y-123573756D01*
X39126000Y-122947680D01*
X39121878Y-122934995D01*
X39117757Y-122932000D01*
X37541681Y-122932000D01*
X37528996Y-122936122D01*
X37526001Y-122940243D01*
X37526001Y-123261557D01*
X35826500Y-123261557D01*
X35826500Y-122416320D01*
X37526000Y-122416320D01*
X37530122Y-122429005D01*
X37534243Y-122432000D01*
X39110320Y-122432000D01*
X39123005Y-122427878D01*
X39126000Y-122423757D01*
X39126000Y-121797680D01*
X39121878Y-121784995D01*
X39117757Y-121782000D01*
X37846443Y-121782001D01*
X37839246Y-121782528D01*
X37781645Y-121791006D01*
X37767127Y-121795517D01*
X37676784Y-121839873D01*
X37663658Y-121849270D01*
X37592899Y-121920152D01*
X37583526Y-121933294D01*
X37539324Y-122023722D01*
X37534839Y-122038231D01*
X37526517Y-122095278D01*
X37526000Y-122102405D01*
X37526000Y-122416320D01*
X35826500Y-122416320D01*
X35826500Y-122089228D01*
X35815636Y-121999453D01*
X35760113Y-121859217D01*
X35668922Y-121739078D01*
X35663543Y-121734995D01*
X35554160Y-121651968D01*
X35554158Y-121651967D01*
X35548783Y-121647887D01*
X35408547Y-121592364D01*
X35318772Y-121581500D01*
X34516000Y-121581500D01*
X34457809Y-121562593D01*
X34421845Y-121513093D01*
X34417000Y-121482500D01*
X34417000Y-118535557D01*
X35090001Y-118535557D01*
X35090528Y-118542755D01*
X35099006Y-118600359D01*
X35103515Y-118614871D01*
X35147873Y-118705216D01*
X35157271Y-118718343D01*
X35228152Y-118789101D01*
X35241294Y-118798474D01*
X35331722Y-118842676D01*
X35346231Y-118847161D01*
X35403278Y-118855483D01*
X35410405Y-118856000D01*
X35586820Y-118856000D01*
X35599505Y-118851878D01*
X35602500Y-118847757D01*
X35602500Y-118840319D01*
X36102500Y-118840319D01*
X36106622Y-118853004D01*
X36110743Y-118855999D01*
X36294557Y-118855999D01*
X36301755Y-118855472D01*
X36359359Y-118846994D01*
X36373871Y-118842485D01*
X36464216Y-118798127D01*
X36477343Y-118788729D01*
X36548101Y-118717848D01*
X36557474Y-118704706D01*
X36601676Y-118614278D01*
X36606161Y-118599769D01*
X36614483Y-118542722D01*
X36615000Y-118535595D01*
X36615000Y-118535557D01*
X37083501Y-118535557D01*
X37084028Y-118542755D01*
X37092506Y-118600359D01*
X37097015Y-118614871D01*
X37141373Y-118705216D01*
X37150771Y-118718343D01*
X37221652Y-118789101D01*
X37234794Y-118798474D01*
X37325222Y-118842676D01*
X37339731Y-118847161D01*
X37396778Y-118855483D01*
X37403905Y-118856000D01*
X37580320Y-118856000D01*
X37593005Y-118851878D01*
X37596000Y-118847757D01*
X37596000Y-118840319D01*
X38096000Y-118840319D01*
X38100122Y-118853004D01*
X38104243Y-118855999D01*
X38288057Y-118855999D01*
X38295255Y-118855472D01*
X38352859Y-118846994D01*
X38367371Y-118842485D01*
X38457716Y-118798127D01*
X38470843Y-118788729D01*
X38541601Y-118717848D01*
X38550974Y-118704706D01*
X38595176Y-118614278D01*
X38599661Y-118599769D01*
X38607983Y-118542722D01*
X38608500Y-118535595D01*
X38608500Y-118121680D01*
X38604378Y-118108995D01*
X38600257Y-118106000D01*
X38111680Y-118106000D01*
X38098995Y-118110122D01*
X38096000Y-118114243D01*
X38096000Y-118840319D01*
X37596000Y-118840319D01*
X37596000Y-118121680D01*
X37591878Y-118108995D01*
X37587757Y-118106000D01*
X37099181Y-118106000D01*
X37086496Y-118110122D01*
X37083501Y-118114243D01*
X37083501Y-118535557D01*
X36615000Y-118535557D01*
X36615000Y-118121680D01*
X36610878Y-118108995D01*
X36606757Y-118106000D01*
X36118180Y-118106000D01*
X36105495Y-118110122D01*
X36102500Y-118114243D01*
X36102500Y-118840319D01*
X35602500Y-118840319D01*
X35602500Y-118121680D01*
X35598378Y-118108995D01*
X35594257Y-118106000D01*
X35105681Y-118106000D01*
X35092996Y-118110122D01*
X35090001Y-118114243D01*
X35090001Y-118535557D01*
X34417000Y-118535557D01*
X34417000Y-117701000D01*
X34435907Y-117642809D01*
X34485407Y-117606845D01*
X34516000Y-117602000D01*
X35064743Y-117602000D01*
X35080229Y-117603219D01*
G37*
%TD.AperFunction*%
%TD*%
%TA.AperFunction,Conductor*%
%TO.N,GND*%
G36*
X28503133Y-84981907D02*
G01*
X28539097Y-85031407D01*
X28540455Y-85087977D01*
X28537494Y-85094673D01*
X28534500Y-85120354D01*
X28534500Y-87209646D01*
X28537618Y-87235846D01*
X28540634Y-87242635D01*
X28566476Y-87300815D01*
X28575000Y-87341003D01*
X28575000Y-87503000D01*
X29873000Y-87503000D01*
X29931191Y-87521907D01*
X29967155Y-87571407D01*
X29972000Y-87602000D01*
X29972000Y-89182000D01*
X29953093Y-89240191D01*
X29903593Y-89276155D01*
X29873000Y-89281000D01*
X26515000Y-89281000D01*
X26456809Y-89262093D01*
X26420845Y-89212593D01*
X26416000Y-89182000D01*
X26416000Y-87828533D01*
X26434907Y-87770342D01*
X26444996Y-87758529D01*
X26671529Y-87531996D01*
X26726046Y-87504219D01*
X26741533Y-87503000D01*
X27813000Y-87503000D01*
X27813000Y-87400799D01*
X27830314Y-87344867D01*
X27830782Y-87344183D01*
X27837241Y-87337713D01*
X27882506Y-87235327D01*
X27885500Y-87209646D01*
X27885500Y-85120354D01*
X27882382Y-85094154D01*
X27879620Y-85087936D01*
X27882416Y-85027116D01*
X27920614Y-84979320D01*
X27975066Y-84963000D01*
X28444942Y-84963000D01*
X28503133Y-84981907D01*
G37*
%TD.AperFunction*%
%TD*%
%TA.AperFunction,Conductor*%
%TO.N,+3V3*%
G36*
X42123191Y-110889907D02*
G01*
X42159155Y-110939407D01*
X42164000Y-110970000D01*
X42164000Y-119154000D01*
X42145093Y-119212191D01*
X42095593Y-119248155D01*
X42065000Y-119253000D01*
X39469000Y-119253000D01*
X39410809Y-119234093D01*
X39374845Y-119184593D01*
X39370000Y-119154000D01*
X39370000Y-118535557D01*
X40208501Y-118535557D01*
X40209028Y-118542755D01*
X40217506Y-118600359D01*
X40222015Y-118614871D01*
X40266373Y-118705216D01*
X40275771Y-118718343D01*
X40346652Y-118789101D01*
X40359794Y-118798474D01*
X40450222Y-118842676D01*
X40464731Y-118847161D01*
X40521778Y-118855483D01*
X40528905Y-118856000D01*
X40705320Y-118856000D01*
X40718005Y-118851878D01*
X40721000Y-118847757D01*
X40721000Y-118840319D01*
X41221000Y-118840319D01*
X41225122Y-118853004D01*
X41229243Y-118855999D01*
X41413057Y-118855999D01*
X41420255Y-118855472D01*
X41477859Y-118846994D01*
X41492371Y-118842485D01*
X41582716Y-118798127D01*
X41595843Y-118788729D01*
X41666601Y-118717848D01*
X41675974Y-118704706D01*
X41720176Y-118614278D01*
X41724661Y-118599769D01*
X41732983Y-118542722D01*
X41733500Y-118535595D01*
X41733500Y-118121680D01*
X41729378Y-118108995D01*
X41725257Y-118106000D01*
X41236680Y-118106000D01*
X41223995Y-118110122D01*
X41221000Y-118114243D01*
X41221000Y-118840319D01*
X40721000Y-118840319D01*
X40721000Y-118121680D01*
X40716878Y-118108995D01*
X40712757Y-118106000D01*
X40224181Y-118106000D01*
X40211496Y-118110122D01*
X40208501Y-118114243D01*
X40208501Y-118535557D01*
X39370000Y-118535557D01*
X39370000Y-117590320D01*
X40208500Y-117590320D01*
X40212622Y-117603005D01*
X40216743Y-117606000D01*
X40705320Y-117606000D01*
X40718005Y-117601878D01*
X40721000Y-117597757D01*
X40721000Y-117590320D01*
X41221000Y-117590320D01*
X41225122Y-117603005D01*
X41229243Y-117606000D01*
X41717819Y-117606000D01*
X41730504Y-117601878D01*
X41733499Y-117597757D01*
X41733499Y-117176443D01*
X41732972Y-117169245D01*
X41724494Y-117111641D01*
X41719985Y-117097129D01*
X41675627Y-117006784D01*
X41666229Y-116993657D01*
X41595348Y-116922899D01*
X41582206Y-116913526D01*
X41491778Y-116869324D01*
X41477269Y-116864839D01*
X41420222Y-116856517D01*
X41413095Y-116856000D01*
X41236680Y-116856000D01*
X41223995Y-116860122D01*
X41221000Y-116864243D01*
X41221000Y-117590320D01*
X40721000Y-117590320D01*
X40721000Y-116871681D01*
X40716878Y-116858996D01*
X40712757Y-116856001D01*
X40528943Y-116856001D01*
X40521745Y-116856528D01*
X40464141Y-116865006D01*
X40449629Y-116869515D01*
X40359284Y-116913873D01*
X40346157Y-116923271D01*
X40275399Y-116994152D01*
X40266026Y-117007294D01*
X40221824Y-117097722D01*
X40217339Y-117112231D01*
X40209017Y-117169278D01*
X40208500Y-117176405D01*
X40208500Y-117590320D01*
X39370000Y-117590320D01*
X39370000Y-116332000D01*
X36294000Y-116332000D01*
X36235809Y-116313093D01*
X36199845Y-116263593D01*
X36195000Y-116233000D01*
X36195000Y-115896984D01*
X36510001Y-115896984D01*
X36510949Y-115906616D01*
X36513900Y-115921455D01*
X36521219Y-115939126D01*
X36532485Y-115955986D01*
X36546014Y-115969515D01*
X36562876Y-115980781D01*
X36580544Y-115988100D01*
X36595387Y-115991052D01*
X36605009Y-115992000D01*
X37544320Y-115992000D01*
X37557005Y-115987878D01*
X37560000Y-115983757D01*
X37560000Y-115976319D01*
X38060000Y-115976319D01*
X38064122Y-115989004D01*
X38068243Y-115991999D01*
X39014984Y-115991999D01*
X39024616Y-115991051D01*
X39039455Y-115988100D01*
X39057126Y-115980781D01*
X39073986Y-115969515D01*
X39087515Y-115955986D01*
X39098781Y-115939124D01*
X39106100Y-115921456D01*
X39109052Y-115906613D01*
X39110000Y-115896991D01*
X39110000Y-114057680D01*
X39105878Y-114044995D01*
X39101757Y-114042000D01*
X38075680Y-114042000D01*
X38062995Y-114046122D01*
X38060000Y-114050243D01*
X38060000Y-115976319D01*
X37560000Y-115976319D01*
X37560000Y-114057680D01*
X37555878Y-114044995D01*
X37551757Y-114042000D01*
X36525681Y-114042000D01*
X36512996Y-114046122D01*
X36510001Y-114050243D01*
X36510001Y-115896984D01*
X36195000Y-115896984D01*
X36195000Y-113526320D01*
X36510000Y-113526320D01*
X36514122Y-113539005D01*
X36518243Y-113542000D01*
X37544320Y-113542000D01*
X37557005Y-113537878D01*
X37560000Y-113533757D01*
X37560000Y-113526320D01*
X38060000Y-113526320D01*
X38064122Y-113539005D01*
X38068243Y-113542000D01*
X39094319Y-113542000D01*
X39107004Y-113537878D01*
X39109999Y-113533757D01*
X39109999Y-111687016D01*
X39109051Y-111677384D01*
X39106100Y-111662545D01*
X39098781Y-111644874D01*
X39087515Y-111628014D01*
X39073986Y-111614485D01*
X39057124Y-111603219D01*
X39039456Y-111595900D01*
X39024613Y-111592948D01*
X39014991Y-111592000D01*
X38075680Y-111592000D01*
X38062995Y-111596122D01*
X38060000Y-111600243D01*
X38060000Y-113526320D01*
X37560000Y-113526320D01*
X37560000Y-111607681D01*
X37555878Y-111594996D01*
X37551757Y-111592001D01*
X36605016Y-111592001D01*
X36595384Y-111592949D01*
X36580545Y-111595900D01*
X36562874Y-111603219D01*
X36546014Y-111614485D01*
X36532485Y-111628014D01*
X36521219Y-111644876D01*
X36513900Y-111662544D01*
X36510948Y-111677387D01*
X36510000Y-111687009D01*
X36510000Y-113526320D01*
X36195000Y-113526320D01*
X36195000Y-110970000D01*
X36213907Y-110911809D01*
X36263407Y-110875845D01*
X36294000Y-110871000D01*
X42065000Y-110871000D01*
X42123191Y-110889907D01*
G37*
%TD.AperFunction*%
%TD*%
%TA.AperFunction,Conductor*%
%TO.N,/OUT5.0*%
G36*
X25994191Y-79393907D02*
G01*
X26030155Y-79443407D01*
X26035000Y-79474000D01*
X26035000Y-81407000D01*
X27333000Y-81407000D01*
X27391191Y-81425907D01*
X27427155Y-81475407D01*
X27432000Y-81506000D01*
X27432000Y-84356000D01*
X27413093Y-84414191D01*
X27363593Y-84450155D01*
X27333000Y-84455000D01*
X26261500Y-84455000D01*
X26203309Y-84436093D01*
X26167345Y-84386593D01*
X26162500Y-84356000D01*
X26162499Y-84049217D01*
X26162499Y-84046228D01*
X26162166Y-84043476D01*
X26162000Y-84037952D01*
X26162000Y-83749984D01*
X26835001Y-83749984D01*
X26835949Y-83759616D01*
X26838900Y-83774455D01*
X26846219Y-83792126D01*
X26857485Y-83808986D01*
X26871014Y-83822515D01*
X26887876Y-83833781D01*
X26905544Y-83841100D01*
X26920387Y-83844052D01*
X26930009Y-83845000D01*
X26994320Y-83845000D01*
X27007005Y-83840878D01*
X27010000Y-83836757D01*
X27010000Y-83010680D01*
X27005878Y-82997995D01*
X27001757Y-82995000D01*
X26850681Y-82995000D01*
X26837996Y-82999122D01*
X26835001Y-83003243D01*
X26835001Y-83749984D01*
X26162000Y-83749984D01*
X26162000Y-83439000D01*
X24003000Y-83439000D01*
X24003000Y-83594000D01*
X23984093Y-83652191D01*
X23934593Y-83688155D01*
X23904000Y-83693000D01*
X20673000Y-83693000D01*
X20614809Y-83674093D01*
X20578845Y-83624593D01*
X20574000Y-83594000D01*
X20574000Y-81724009D01*
X21114000Y-81724009D01*
X21114001Y-83213320D01*
X21118123Y-83226005D01*
X21122244Y-83229000D01*
X21848320Y-83229000D01*
X21861005Y-83224878D01*
X21864000Y-83220757D01*
X21864000Y-83213320D01*
X22364000Y-83213320D01*
X22368122Y-83226005D01*
X22372243Y-83229000D01*
X23098320Y-83229000D01*
X23111005Y-83224878D01*
X23114000Y-83220757D01*
X23114000Y-82818557D01*
X24362001Y-82818557D01*
X24362528Y-82825755D01*
X24371006Y-82883359D01*
X24375515Y-82897871D01*
X24419873Y-82988216D01*
X24429271Y-83001343D01*
X24500152Y-83072101D01*
X24513294Y-83081474D01*
X24603722Y-83125676D01*
X24618231Y-83130161D01*
X24675278Y-83138483D01*
X24682405Y-83139000D01*
X24896320Y-83139000D01*
X24909005Y-83134878D01*
X24912000Y-83130757D01*
X24912000Y-83123319D01*
X25412000Y-83123319D01*
X25416122Y-83136004D01*
X25420243Y-83138999D01*
X25641557Y-83138999D01*
X25648755Y-83138472D01*
X25706359Y-83129994D01*
X25720871Y-83125485D01*
X25811216Y-83081127D01*
X25824343Y-83071729D01*
X25895101Y-83000848D01*
X25904474Y-82987706D01*
X25948676Y-82897278D01*
X25953161Y-82882769D01*
X25961483Y-82825722D01*
X25962000Y-82818595D01*
X25962000Y-82704680D01*
X25957878Y-82691995D01*
X25953757Y-82689000D01*
X25427680Y-82689000D01*
X25414995Y-82693122D01*
X25412000Y-82697243D01*
X25412000Y-83123319D01*
X24912000Y-83123319D01*
X24912000Y-82704680D01*
X24907878Y-82691995D01*
X24903757Y-82689000D01*
X24377681Y-82689000D01*
X24364996Y-82693122D01*
X24362001Y-82697243D01*
X24362001Y-82818557D01*
X23114000Y-82818557D01*
X23113999Y-82479320D01*
X26835000Y-82479320D01*
X26839122Y-82492005D01*
X26843243Y-82495000D01*
X26994320Y-82495000D01*
X27007005Y-82490878D01*
X27010000Y-82486757D01*
X27010000Y-81660681D01*
X27005878Y-81647996D01*
X27001757Y-81645001D01*
X26930016Y-81645001D01*
X26920384Y-81645949D01*
X26905545Y-81648900D01*
X26887874Y-81656219D01*
X26871014Y-81667485D01*
X26857485Y-81681014D01*
X26846219Y-81697876D01*
X26838900Y-81715544D01*
X26835948Y-81730387D01*
X26835000Y-81740009D01*
X26835000Y-82479320D01*
X23113999Y-82479320D01*
X23113999Y-82173320D01*
X24362000Y-82173320D01*
X24366122Y-82186005D01*
X24370243Y-82189000D01*
X24896320Y-82189000D01*
X24909005Y-82184878D01*
X24912000Y-82180757D01*
X24912000Y-82173320D01*
X25412000Y-82173320D01*
X25416122Y-82186005D01*
X25420243Y-82189000D01*
X25946319Y-82189000D01*
X25959004Y-82184878D01*
X25961999Y-82180757D01*
X25961999Y-82059443D01*
X25961472Y-82052245D01*
X25952994Y-81994641D01*
X25948485Y-81980129D01*
X25904127Y-81889784D01*
X25894729Y-81876657D01*
X25823848Y-81805899D01*
X25810706Y-81796526D01*
X25720278Y-81752324D01*
X25705769Y-81747839D01*
X25648722Y-81739517D01*
X25641595Y-81739000D01*
X25427680Y-81739000D01*
X25414995Y-81743122D01*
X25412000Y-81747243D01*
X25412000Y-82173320D01*
X24912000Y-82173320D01*
X24912000Y-81754681D01*
X24907878Y-81741996D01*
X24903757Y-81739001D01*
X24682443Y-81739001D01*
X24675245Y-81739528D01*
X24617641Y-81748006D01*
X24603129Y-81752515D01*
X24512784Y-81796873D01*
X24499657Y-81806271D01*
X24428899Y-81877152D01*
X24419526Y-81890294D01*
X24375324Y-81980722D01*
X24370839Y-81995231D01*
X24362517Y-82052278D01*
X24362000Y-82059405D01*
X24362000Y-82173320D01*
X23113999Y-82173320D01*
X23113999Y-81724016D01*
X23113051Y-81714384D01*
X23110100Y-81699545D01*
X23102781Y-81681874D01*
X23091515Y-81665014D01*
X23077986Y-81651485D01*
X23061124Y-81640219D01*
X23043456Y-81632900D01*
X23028613Y-81629948D01*
X23018991Y-81629000D01*
X22379680Y-81629000D01*
X22366995Y-81633122D01*
X22364000Y-81637243D01*
X22364000Y-83213320D01*
X21864000Y-83213320D01*
X21864000Y-81644681D01*
X21859878Y-81631996D01*
X21855757Y-81629001D01*
X21209016Y-81629001D01*
X21199384Y-81629949D01*
X21184545Y-81632900D01*
X21166874Y-81640219D01*
X21150014Y-81651485D01*
X21136485Y-81665014D01*
X21125219Y-81681876D01*
X21117900Y-81699544D01*
X21114948Y-81714387D01*
X21114000Y-81724009D01*
X20574000Y-81724009D01*
X20574000Y-79815243D01*
X21422000Y-79815243D01*
X21422001Y-80761984D01*
X21422949Y-80771616D01*
X21425900Y-80786455D01*
X21433219Y-80804126D01*
X21444485Y-80820986D01*
X21458014Y-80834515D01*
X21474876Y-80845781D01*
X21492544Y-80853100D01*
X21507387Y-80856052D01*
X21517009Y-80857000D01*
X23356320Y-80857000D01*
X23369005Y-80852878D01*
X23372000Y-80848757D01*
X23372000Y-80841319D01*
X23872000Y-80841319D01*
X23876122Y-80854004D01*
X23880243Y-80856999D01*
X25726984Y-80856999D01*
X25736616Y-80856051D01*
X25751455Y-80853100D01*
X25769126Y-80845781D01*
X25785986Y-80834515D01*
X25799515Y-80820986D01*
X25810781Y-80804124D01*
X25818100Y-80786456D01*
X25821052Y-80771613D01*
X25822000Y-80761991D01*
X25821999Y-79822680D01*
X25817877Y-79809995D01*
X25813756Y-79807000D01*
X23887680Y-79807000D01*
X23874995Y-79811122D01*
X23872000Y-79815243D01*
X23872000Y-80841319D01*
X23372000Y-80841319D01*
X23372000Y-79822680D01*
X23367878Y-79809995D01*
X23363757Y-79807000D01*
X21437680Y-79807000D01*
X21424995Y-79811122D01*
X21422000Y-79815243D01*
X20574000Y-79815243D01*
X20574000Y-79474000D01*
X20592907Y-79415809D01*
X20642407Y-79379845D01*
X20673000Y-79375000D01*
X25936000Y-79375000D01*
X25994191Y-79393907D01*
G37*
%TD.AperFunction*%
%TD*%
%TA.AperFunction,Conductor*%
%TO.N,VCC*%
G36*
X33995191Y-117620907D02*
G01*
X34031155Y-117670407D01*
X34036000Y-117701000D01*
X34036000Y-121744312D01*
X34028710Y-121766748D01*
X34029626Y-121766893D01*
X34026000Y-121789789D01*
X34026000Y-123566317D01*
X34031155Y-123582183D01*
X34036000Y-123612776D01*
X34036000Y-124107000D01*
X34017093Y-124165191D01*
X33967593Y-124201155D01*
X33937000Y-124206000D01*
X30325000Y-124206000D01*
X30266809Y-124187093D01*
X30230845Y-124137593D01*
X30226000Y-124107000D01*
X30226000Y-123629257D01*
X30227219Y-123613771D01*
X30230000Y-123596211D01*
X30230000Y-123588319D01*
X30730000Y-123588319D01*
X30734122Y-123601004D01*
X30738243Y-123603999D01*
X30959557Y-123603999D01*
X30966755Y-123603472D01*
X31024359Y-123594994D01*
X31038871Y-123590485D01*
X31129216Y-123546127D01*
X31142343Y-123536729D01*
X31213101Y-123465848D01*
X31222474Y-123452706D01*
X31266676Y-123362278D01*
X31271161Y-123347769D01*
X31279483Y-123290722D01*
X31280000Y-123283595D01*
X31280000Y-123261557D01*
X31926001Y-123261557D01*
X31926528Y-123268754D01*
X31935006Y-123326355D01*
X31939517Y-123340873D01*
X31983873Y-123431216D01*
X31993270Y-123444342D01*
X32064152Y-123515101D01*
X32077294Y-123524474D01*
X32167722Y-123568676D01*
X32182231Y-123573161D01*
X32239278Y-123581483D01*
X32246405Y-123582000D01*
X33510320Y-123581999D01*
X33523005Y-123577877D01*
X33526000Y-123573756D01*
X33526000Y-122947680D01*
X33521878Y-122934995D01*
X33517757Y-122932000D01*
X31941681Y-122932000D01*
X31928996Y-122936122D01*
X31926001Y-122940243D01*
X31926001Y-123261557D01*
X31280000Y-123261557D01*
X31280000Y-123169680D01*
X31275878Y-123156995D01*
X31271757Y-123154000D01*
X30745680Y-123154000D01*
X30732995Y-123158122D01*
X30730000Y-123162243D01*
X30730000Y-123588319D01*
X30230000Y-123588319D01*
X30230000Y-122638320D01*
X30730000Y-122638320D01*
X30734122Y-122651005D01*
X30738243Y-122654000D01*
X31264319Y-122654000D01*
X31277004Y-122649878D01*
X31279999Y-122645757D01*
X31279999Y-122524443D01*
X31279472Y-122517245D01*
X31270994Y-122459641D01*
X31266485Y-122445129D01*
X31252340Y-122416320D01*
X31926000Y-122416320D01*
X31930122Y-122429005D01*
X31934243Y-122432000D01*
X33510320Y-122432000D01*
X33523005Y-122427878D01*
X33526000Y-122423757D01*
X33526000Y-121797680D01*
X33521878Y-121784995D01*
X33517757Y-121782000D01*
X32246443Y-121782001D01*
X32239246Y-121782528D01*
X32181645Y-121791006D01*
X32167127Y-121795517D01*
X32076784Y-121839873D01*
X32063658Y-121849270D01*
X31992899Y-121920152D01*
X31983526Y-121933294D01*
X31939324Y-122023722D01*
X31934839Y-122038231D01*
X31926517Y-122095278D01*
X31926000Y-122102405D01*
X31926000Y-122416320D01*
X31252340Y-122416320D01*
X31222127Y-122354784D01*
X31212729Y-122341657D01*
X31141848Y-122270899D01*
X31128706Y-122261526D01*
X31038278Y-122217324D01*
X31023769Y-122212839D01*
X30966722Y-122204517D01*
X30959595Y-122204000D01*
X30745680Y-122204000D01*
X30732995Y-122208122D01*
X30730000Y-122212243D01*
X30730000Y-122638320D01*
X30230000Y-122638320D01*
X30230000Y-122216947D01*
X30226000Y-122191690D01*
X30226000Y-122017873D01*
X30244907Y-121959682D01*
X30294407Y-121923718D01*
X30323865Y-121918879D01*
X30622843Y-121915455D01*
X31607321Y-121904180D01*
X31607322Y-121904180D01*
X31623000Y-121904000D01*
X31623000Y-118535557D01*
X31965001Y-118535557D01*
X31965528Y-118542755D01*
X31974006Y-118600359D01*
X31978515Y-118614871D01*
X32022873Y-118705216D01*
X32032271Y-118718343D01*
X32103152Y-118789101D01*
X32116294Y-118798474D01*
X32206722Y-118842676D01*
X32221231Y-118847161D01*
X32278278Y-118855483D01*
X32285405Y-118856000D01*
X32461820Y-118856000D01*
X32474505Y-118851878D01*
X32477500Y-118847757D01*
X32477500Y-118840319D01*
X32977500Y-118840319D01*
X32981622Y-118853004D01*
X32985743Y-118855999D01*
X33169557Y-118855999D01*
X33176755Y-118855472D01*
X33234359Y-118846994D01*
X33248871Y-118842485D01*
X33339216Y-118798127D01*
X33352343Y-118788729D01*
X33423101Y-118717848D01*
X33432474Y-118704706D01*
X33476676Y-118614278D01*
X33481161Y-118599769D01*
X33489483Y-118542722D01*
X33490000Y-118535595D01*
X33490000Y-118121680D01*
X33485878Y-118108995D01*
X33481757Y-118106000D01*
X32993180Y-118106000D01*
X32980495Y-118110122D01*
X32977500Y-118114243D01*
X32977500Y-118840319D01*
X32477500Y-118840319D01*
X32477500Y-118121680D01*
X32473378Y-118108995D01*
X32469257Y-118106000D01*
X31980681Y-118106000D01*
X31967996Y-118110122D01*
X31965001Y-118114243D01*
X31965001Y-118535557D01*
X31623000Y-118535557D01*
X31623000Y-118491000D01*
X31370261Y-118491000D01*
X31330229Y-118482545D01*
X31316968Y-118476682D01*
X31271392Y-118435859D01*
X31258000Y-118386137D01*
X31258000Y-118375680D01*
X31253878Y-118362995D01*
X31249757Y-118360000D01*
X30007000Y-118360000D01*
X29948809Y-118341093D01*
X29912845Y-118291593D01*
X29908000Y-118261000D01*
X29908000Y-117959000D01*
X29926907Y-117900809D01*
X29976407Y-117864845D01*
X30007000Y-117860000D01*
X31242319Y-117860000D01*
X31255004Y-117855878D01*
X31257999Y-117851757D01*
X31257999Y-117833785D01*
X31276906Y-117775594D01*
X31316814Y-117743308D01*
X31329839Y-117737523D01*
X31370024Y-117729000D01*
X31877000Y-117729000D01*
X31877000Y-117705000D01*
X31895907Y-117646809D01*
X31945407Y-117610845D01*
X31976000Y-117606000D01*
X33477053Y-117606000D01*
X33502310Y-117602000D01*
X33937000Y-117602000D01*
X33995191Y-117620907D01*
G37*
%TD.AperFunction*%
%TD*%
M02*
