%TF.GenerationSoftware,KiCad,Pcbnew,(5.1.10)-1*%
%TF.CreationDate,2022-03-04T09:48:17+01:00*%
%TF.ProjectId,GestureControl,47657374-7572-4654-936f-6e74726f6c2e,V0.1*%
%TF.SameCoordinates,Original*%
%TF.FileFunction,Copper,L4,Bot*%
%TF.FilePolarity,Positive*%
%FSLAX46Y46*%
G04 Gerber Fmt 4.6, Leading zero omitted, Abs format (unit mm)*
G04 Created by KiCad (PCBNEW (5.1.10)-1) date 2022-03-04 09:48:17*
%MOMM*%
%LPD*%
G01*
G04 APERTURE LIST*
%TA.AperFunction,SMDPad,CuDef*%
%ADD10C,2.000000*%
%TD*%
%TA.AperFunction,SMDPad,CuDef*%
%ADD11R,1.500000X3.000000*%
%TD*%
%TA.AperFunction,ComponentPad*%
%ADD12O,1.700000X1.700000*%
%TD*%
%TA.AperFunction,ComponentPad*%
%ADD13R,1.700000X1.700000*%
%TD*%
%TA.AperFunction,SMDPad,CuDef*%
%ADD14R,2.000000X0.650000*%
%TD*%
%TA.AperFunction,SMDPad,CuDef*%
%ADD15R,2.400000X4.200000*%
%TD*%
%TA.AperFunction,SMDPad,CuDef*%
%ADD16R,1.000000X1.500000*%
%TD*%
%TA.AperFunction,SMDPad,CuDef*%
%ADD17R,1.800000X3.500000*%
%TD*%
%TA.AperFunction,SMDPad,CuDef*%
%ADD18R,1.000000X1.000000*%
%TD*%
%TA.AperFunction,SMDPad,CuDef*%
%ADD19R,1.500000X1.000000*%
%TD*%
%TA.AperFunction,SMDPad,CuDef*%
%ADD20C,0.100000*%
%TD*%
%TA.AperFunction,SMDPad,CuDef*%
%ADD21R,1.500000X1.500000*%
%TD*%
%TA.AperFunction,ComponentPad*%
%ADD22O,3.600000X1.800000*%
%TD*%
%TA.AperFunction,ViaPad*%
%ADD23C,0.800000*%
%TD*%
%TA.AperFunction,Conductor*%
%ADD24C,0.250000*%
%TD*%
%TA.AperFunction,Conductor*%
%ADD25C,0.500000*%
%TD*%
%TA.AperFunction,Conductor*%
%ADD26C,1.000000*%
%TD*%
G04 APERTURE END LIST*
D10*
%TO.P,TP20,1*%
%TO.N,+3V3*%
X241300000Y-118872000D03*
%TD*%
%TO.P,TP19,1*%
%TO.N,GND*%
X241300000Y-115570000D03*
%TD*%
%TO.P,TP18,1*%
%TO.N,GPIOI_3*%
X238252000Y-118872000D03*
%TD*%
%TO.P,TP17,1*%
%TO.N,XSHUT_3*%
X235204000Y-118872000D03*
%TD*%
%TO.P,TP16,1*%
%TO.N,SDA1*%
X238252000Y-115570000D03*
%TD*%
%TO.P,TP15,1*%
%TO.N,SCL1*%
X235204000Y-115570000D03*
%TD*%
%TO.P,TP14,1*%
%TO.N,+3V3*%
X203200000Y-118872000D03*
%TD*%
%TO.P,TP13,1*%
%TO.N,GND*%
X203200000Y-115570000D03*
%TD*%
%TO.P,TP12,1*%
%TO.N,GPIOI_2*%
X200152000Y-118872000D03*
%TD*%
%TO.P,TP11,1*%
%TO.N,XSHUT_2*%
X197104000Y-118872000D03*
%TD*%
%TO.P,TP10,1*%
%TO.N,SDA1*%
X200152000Y-115570000D03*
%TD*%
%TO.P,TP9,1*%
%TO.N,SCL1*%
X197104000Y-115570000D03*
%TD*%
%TO.P,TP8,1*%
%TO.N,+3V3*%
X165227000Y-118872000D03*
%TD*%
%TO.P,TP7,1*%
%TO.N,GND*%
X165227000Y-115570000D03*
%TD*%
%TO.P,TP6,1*%
%TO.N,GPIOI_1*%
X162052000Y-118872000D03*
%TD*%
%TO.P,TP5,1*%
%TO.N,XSHUT_1*%
X158877000Y-118872000D03*
%TD*%
%TO.P,TP4,1*%
%TO.N,SDA1*%
X162052000Y-115570000D03*
%TD*%
%TO.P,TP3,1*%
%TO.N,SCL1*%
X158877000Y-115570000D03*
%TD*%
D11*
%TO.P,J21,9*%
%TO.N,+3V3*%
X120396000Y-135164000D03*
%TO.P,J21,7*%
%TO.N,GND*%
X122936000Y-135164000D03*
%TO.P,J21,1*%
X130556000Y-135164000D03*
%TO.P,J21,3*%
X128016000Y-135164000D03*
%TO.P,J21,5*%
X125476000Y-135164000D03*
%TO.P,J21,10*%
X119126000Y-139664000D03*
%TO.P,J21,8*%
%TO.N,GPIOI_3*%
X121666000Y-139664000D03*
%TO.P,J21,2*%
%TO.N,SCL1*%
X129286000Y-139664000D03*
%TO.P,J21,4*%
%TO.N,SDA1*%
X126746000Y-139664000D03*
%TO.P,J21,6*%
%TO.N,XSHUT_3*%
X124206000Y-139664000D03*
%TD*%
%TO.P,J20,9*%
%TO.N,+3V3*%
X120396000Y-110399000D03*
%TO.P,J20,7*%
%TO.N,GND*%
X122936000Y-110399000D03*
%TO.P,J20,1*%
X130556000Y-110399000D03*
%TO.P,J20,3*%
X128016000Y-110399000D03*
%TO.P,J20,5*%
X125476000Y-110399000D03*
%TO.P,J20,10*%
X119126000Y-114899000D03*
%TO.P,J20,8*%
%TO.N,GPIOI_2*%
X121666000Y-114899000D03*
%TO.P,J20,2*%
%TO.N,SCL1*%
X129286000Y-114899000D03*
%TO.P,J20,4*%
%TO.N,SDA1*%
X126746000Y-114899000D03*
%TO.P,J20,6*%
%TO.N,XSHUT_2*%
X124206000Y-114899000D03*
%TD*%
%TO.P,J16,9*%
%TO.N,+3V3*%
X120396000Y-146467000D03*
%TO.P,J16,7*%
%TO.N,GND*%
X122936000Y-146467000D03*
%TO.P,J16,1*%
X130556000Y-146467000D03*
%TO.P,J16,3*%
X128016000Y-146467000D03*
%TO.P,J16,5*%
X125476000Y-146467000D03*
%TO.P,J16,10*%
X119126000Y-150967000D03*
%TO.P,J16,8*%
%TO.N,GPIOI_1*%
X121666000Y-150967000D03*
%TO.P,J16,2*%
%TO.N,SCL1*%
X129286000Y-150967000D03*
%TO.P,J16,4*%
%TO.N,SDA1*%
X126746000Y-150967000D03*
%TO.P,J16,6*%
%TO.N,XSHUT_1*%
X124206000Y-150967000D03*
%TD*%
%TO.P,J15,9*%
%TO.N,+3V3*%
X234061000Y-134148000D03*
%TO.P,J15,7*%
%TO.N,GND*%
X236601000Y-134148000D03*
%TO.P,J15,1*%
X244221000Y-134148000D03*
%TO.P,J15,3*%
X241681000Y-134148000D03*
%TO.P,J15,5*%
X239141000Y-134148000D03*
%TO.P,J15,10*%
X232791000Y-138648000D03*
%TO.P,J15,8*%
%TO.N,GPIOI_3*%
X235331000Y-138648000D03*
%TO.P,J15,2*%
%TO.N,SCL1*%
X242951000Y-138648000D03*
%TO.P,J15,4*%
%TO.N,SDA1*%
X240411000Y-138648000D03*
%TO.P,J15,6*%
%TO.N,XSHUT_3*%
X237871000Y-138648000D03*
%TD*%
%TO.P,J14,9*%
%TO.N,+3V3*%
X195961000Y-134148000D03*
%TO.P,J14,7*%
%TO.N,GND*%
X198501000Y-134148000D03*
%TO.P,J14,1*%
X206121000Y-134148000D03*
%TO.P,J14,3*%
X203581000Y-134148000D03*
%TO.P,J14,5*%
X201041000Y-134148000D03*
%TO.P,J14,10*%
X194691000Y-138648000D03*
%TO.P,J14,8*%
%TO.N,GPIOI_2*%
X197231000Y-138648000D03*
%TO.P,J14,2*%
%TO.N,SCL1*%
X204851000Y-138648000D03*
%TO.P,J14,4*%
%TO.N,SDA1*%
X202311000Y-138648000D03*
%TO.P,J14,6*%
%TO.N,XSHUT_2*%
X199771000Y-138648000D03*
%TD*%
%TO.P,J13,9*%
%TO.N,+3V3*%
X157861000Y-134148000D03*
%TO.P,J13,7*%
%TO.N,GND*%
X160401000Y-134148000D03*
%TO.P,J13,1*%
X168021000Y-134148000D03*
%TO.P,J13,3*%
X165481000Y-134148000D03*
%TO.P,J13,5*%
X162941000Y-134148000D03*
%TO.P,J13,10*%
X156591000Y-138648000D03*
%TO.P,J13,8*%
%TO.N,GPIOI_1*%
X159131000Y-138648000D03*
%TO.P,J13,2*%
%TO.N,SCL1*%
X166751000Y-138648000D03*
%TO.P,J13,4*%
%TO.N,SDA1*%
X164211000Y-138648000D03*
%TO.P,J13,6*%
%TO.N,XSHUT_1*%
X161671000Y-138648000D03*
%TD*%
%TO.P,R29,2*%
%TO.N,XSHUT_1*%
%TA.AperFunction,SMDPad,CuDef*%
G36*
G01*
X161994001Y-142840000D02*
X161093999Y-142840000D01*
G75*
G02*
X160844000Y-142590001I0J249999D01*
G01*
X160844000Y-141889999D01*
G75*
G02*
X161093999Y-141640000I249999J0D01*
G01*
X161994001Y-141640000D01*
G75*
G02*
X162244000Y-141889999I0J-249999D01*
G01*
X162244000Y-142590001D01*
G75*
G02*
X161994001Y-142840000I-249999J0D01*
G01*
G37*
%TD.AperFunction*%
%TO.P,R29,1*%
%TO.N,+3V3*%
%TA.AperFunction,SMDPad,CuDef*%
G36*
G01*
X161994001Y-144840000D02*
X161093999Y-144840000D01*
G75*
G02*
X160844000Y-144590001I0J249999D01*
G01*
X160844000Y-143889999D01*
G75*
G02*
X161093999Y-143640000I249999J0D01*
G01*
X161994001Y-143640000D01*
G75*
G02*
X162244000Y-143889999I0J-249999D01*
G01*
X162244000Y-144590001D01*
G75*
G02*
X161994001Y-144840000I-249999J0D01*
G01*
G37*
%TD.AperFunction*%
%TD*%
%TO.P,R12,2*%
%TO.N,GPIOI_1*%
%TA.AperFunction,SMDPad,CuDef*%
G36*
G01*
X159708001Y-142856000D02*
X158807999Y-142856000D01*
G75*
G02*
X158558000Y-142606001I0J249999D01*
G01*
X158558000Y-141905999D01*
G75*
G02*
X158807999Y-141656000I249999J0D01*
G01*
X159708001Y-141656000D01*
G75*
G02*
X159958000Y-141905999I0J-249999D01*
G01*
X159958000Y-142606001D01*
G75*
G02*
X159708001Y-142856000I-249999J0D01*
G01*
G37*
%TD.AperFunction*%
%TO.P,R12,1*%
%TO.N,+3V3*%
%TA.AperFunction,SMDPad,CuDef*%
G36*
G01*
X159708001Y-144856000D02*
X158807999Y-144856000D01*
G75*
G02*
X158558000Y-144606001I0J249999D01*
G01*
X158558000Y-143905999D01*
G75*
G02*
X158807999Y-143656000I249999J0D01*
G01*
X159708001Y-143656000D01*
G75*
G02*
X159958000Y-143905999I0J-249999D01*
G01*
X159958000Y-144606001D01*
G75*
G02*
X159708001Y-144856000I-249999J0D01*
G01*
G37*
%TD.AperFunction*%
%TD*%
%TO.P,C12,2*%
%TO.N,GND*%
%TA.AperFunction,SMDPad,CuDef*%
G36*
G01*
X139159000Y-124539500D02*
X138209000Y-124539500D01*
G75*
G02*
X137959000Y-124289500I0J250000D01*
G01*
X137959000Y-123614500D01*
G75*
G02*
X138209000Y-123364500I250000J0D01*
G01*
X139159000Y-123364500D01*
G75*
G02*
X139409000Y-123614500I0J-250000D01*
G01*
X139409000Y-124289500D01*
G75*
G02*
X139159000Y-124539500I-250000J0D01*
G01*
G37*
%TD.AperFunction*%
%TO.P,C12,1*%
%TO.N,+3V3*%
%TA.AperFunction,SMDPad,CuDef*%
G36*
G01*
X139159000Y-126614500D02*
X138209000Y-126614500D01*
G75*
G02*
X137959000Y-126364500I0J250000D01*
G01*
X137959000Y-125689500D01*
G75*
G02*
X138209000Y-125439500I250000J0D01*
G01*
X139159000Y-125439500D01*
G75*
G02*
X139409000Y-125689500I0J-250000D01*
G01*
X139409000Y-126364500D01*
G75*
G02*
X139159000Y-126614500I-250000J0D01*
G01*
G37*
%TD.AperFunction*%
%TD*%
%TO.P,C10,2*%
%TO.N,GND*%
%TA.AperFunction,SMDPad,CuDef*%
G36*
G01*
X156431000Y-125280000D02*
X155481000Y-125280000D01*
G75*
G02*
X155231000Y-125030000I0J250000D01*
G01*
X155231000Y-124355000D01*
G75*
G02*
X155481000Y-124105000I250000J0D01*
G01*
X156431000Y-124105000D01*
G75*
G02*
X156681000Y-124355000I0J-250000D01*
G01*
X156681000Y-125030000D01*
G75*
G02*
X156431000Y-125280000I-250000J0D01*
G01*
G37*
%TD.AperFunction*%
%TO.P,C10,1*%
%TO.N,+3V3*%
%TA.AperFunction,SMDPad,CuDef*%
G36*
G01*
X156431000Y-127355000D02*
X155481000Y-127355000D01*
G75*
G02*
X155231000Y-127105000I0J250000D01*
G01*
X155231000Y-126430000D01*
G75*
G02*
X155481000Y-126180000I250000J0D01*
G01*
X156431000Y-126180000D01*
G75*
G02*
X156681000Y-126430000I0J-250000D01*
G01*
X156681000Y-127105000D01*
G75*
G02*
X156431000Y-127355000I-250000J0D01*
G01*
G37*
%TD.AperFunction*%
%TD*%
%TO.P,C9,2*%
%TO.N,GND*%
%TA.AperFunction,SMDPad,CuDef*%
G36*
G01*
X162543500Y-129315500D02*
X162068500Y-129315500D01*
G75*
G02*
X161831000Y-129078000I0J237500D01*
G01*
X161831000Y-128478000D01*
G75*
G02*
X162068500Y-128240500I237500J0D01*
G01*
X162543500Y-128240500D01*
G75*
G02*
X162781000Y-128478000I0J-237500D01*
G01*
X162781000Y-129078000D01*
G75*
G02*
X162543500Y-129315500I-237500J0D01*
G01*
G37*
%TD.AperFunction*%
%TO.P,C9,1*%
%TO.N,+3V3*%
%TA.AperFunction,SMDPad,CuDef*%
G36*
G01*
X162543500Y-131040500D02*
X162068500Y-131040500D01*
G75*
G02*
X161831000Y-130803000I0J237500D01*
G01*
X161831000Y-130203000D01*
G75*
G02*
X162068500Y-129965500I237500J0D01*
G01*
X162543500Y-129965500D01*
G75*
G02*
X162781000Y-130203000I0J-237500D01*
G01*
X162781000Y-130803000D01*
G75*
G02*
X162543500Y-131040500I-237500J0D01*
G01*
G37*
%TD.AperFunction*%
%TD*%
%TO.P,C8,2*%
%TO.N,GND*%
%TA.AperFunction,SMDPad,CuDef*%
G36*
G01*
X164321500Y-129342000D02*
X163846500Y-129342000D01*
G75*
G02*
X163609000Y-129104500I0J237500D01*
G01*
X163609000Y-128504500D01*
G75*
G02*
X163846500Y-128267000I237500J0D01*
G01*
X164321500Y-128267000D01*
G75*
G02*
X164559000Y-128504500I0J-237500D01*
G01*
X164559000Y-129104500D01*
G75*
G02*
X164321500Y-129342000I-237500J0D01*
G01*
G37*
%TD.AperFunction*%
%TO.P,C8,1*%
%TO.N,+3V3*%
%TA.AperFunction,SMDPad,CuDef*%
G36*
G01*
X164321500Y-131067000D02*
X163846500Y-131067000D01*
G75*
G02*
X163609000Y-130829500I0J237500D01*
G01*
X163609000Y-130229500D01*
G75*
G02*
X163846500Y-129992000I237500J0D01*
G01*
X164321500Y-129992000D01*
G75*
G02*
X164559000Y-130229500I0J-237500D01*
G01*
X164559000Y-130829500D01*
G75*
G02*
X164321500Y-131067000I-237500J0D01*
G01*
G37*
%TD.AperFunction*%
%TD*%
%TO.P,R32,2*%
%TO.N,XSHUT_0*%
%TA.AperFunction,SMDPad,CuDef*%
G36*
G01*
X128466001Y-129140000D02*
X127565999Y-129140000D01*
G75*
G02*
X127316000Y-128890001I0J249999D01*
G01*
X127316000Y-128189999D01*
G75*
G02*
X127565999Y-127940000I249999J0D01*
G01*
X128466001Y-127940000D01*
G75*
G02*
X128716000Y-128189999I0J-249999D01*
G01*
X128716000Y-128890001D01*
G75*
G02*
X128466001Y-129140000I-249999J0D01*
G01*
G37*
%TD.AperFunction*%
%TO.P,R32,1*%
%TO.N,+3V3*%
%TA.AperFunction,SMDPad,CuDef*%
G36*
G01*
X128466001Y-131140000D02*
X127565999Y-131140000D01*
G75*
G02*
X127316000Y-130890001I0J249999D01*
G01*
X127316000Y-130189999D01*
G75*
G02*
X127565999Y-129940000I249999J0D01*
G01*
X128466001Y-129940000D01*
G75*
G02*
X128716000Y-130189999I0J-249999D01*
G01*
X128716000Y-130890001D01*
G75*
G02*
X128466001Y-131140000I-249999J0D01*
G01*
G37*
%TD.AperFunction*%
%TD*%
%TO.P,R31,2*%
%TO.N,GPIOI_0*%
%TA.AperFunction,SMDPad,CuDef*%
G36*
G01*
X130752001Y-129156000D02*
X129851999Y-129156000D01*
G75*
G02*
X129602000Y-128906001I0J249999D01*
G01*
X129602000Y-128205999D01*
G75*
G02*
X129851999Y-127956000I249999J0D01*
G01*
X130752001Y-127956000D01*
G75*
G02*
X131002000Y-128205999I0J-249999D01*
G01*
X131002000Y-128906001D01*
G75*
G02*
X130752001Y-129156000I-249999J0D01*
G01*
G37*
%TD.AperFunction*%
%TO.P,R31,1*%
%TO.N,+3V3*%
%TA.AperFunction,SMDPad,CuDef*%
G36*
G01*
X130752001Y-131156000D02*
X129851999Y-131156000D01*
G75*
G02*
X129602000Y-130906001I0J249999D01*
G01*
X129602000Y-130205999D01*
G75*
G02*
X129851999Y-129956000I249999J0D01*
G01*
X130752001Y-129956000D01*
G75*
G02*
X131002000Y-130205999I0J-249999D01*
G01*
X131002000Y-130906001D01*
G75*
G02*
X130752001Y-131156000I-249999J0D01*
G01*
G37*
%TD.AperFunction*%
%TD*%
%TO.P,R30,2*%
%TO.N,XSHUT_3*%
%TA.AperFunction,SMDPad,CuDef*%
G36*
G01*
X238321001Y-142840000D02*
X237420999Y-142840000D01*
G75*
G02*
X237171000Y-142590001I0J249999D01*
G01*
X237171000Y-141889999D01*
G75*
G02*
X237420999Y-141640000I249999J0D01*
G01*
X238321001Y-141640000D01*
G75*
G02*
X238571000Y-141889999I0J-249999D01*
G01*
X238571000Y-142590001D01*
G75*
G02*
X238321001Y-142840000I-249999J0D01*
G01*
G37*
%TD.AperFunction*%
%TO.P,R30,1*%
%TO.N,+3V3*%
%TA.AperFunction,SMDPad,CuDef*%
G36*
G01*
X238321001Y-144840000D02*
X237420999Y-144840000D01*
G75*
G02*
X237171000Y-144590001I0J249999D01*
G01*
X237171000Y-143889999D01*
G75*
G02*
X237420999Y-143640000I249999J0D01*
G01*
X238321001Y-143640000D01*
G75*
G02*
X238571000Y-143889999I0J-249999D01*
G01*
X238571000Y-144590001D01*
G75*
G02*
X238321001Y-144840000I-249999J0D01*
G01*
G37*
%TD.AperFunction*%
%TD*%
%TO.P,R17,2*%
%TO.N,GPIOI_3*%
%TA.AperFunction,SMDPad,CuDef*%
G36*
G01*
X236162001Y-142872000D02*
X235261999Y-142872000D01*
G75*
G02*
X235012000Y-142622001I0J249999D01*
G01*
X235012000Y-141921999D01*
G75*
G02*
X235261999Y-141672000I249999J0D01*
G01*
X236162001Y-141672000D01*
G75*
G02*
X236412000Y-141921999I0J-249999D01*
G01*
X236412000Y-142622001D01*
G75*
G02*
X236162001Y-142872000I-249999J0D01*
G01*
G37*
%TD.AperFunction*%
%TO.P,R17,1*%
%TO.N,+3V3*%
%TA.AperFunction,SMDPad,CuDef*%
G36*
G01*
X236162001Y-144872000D02*
X235261999Y-144872000D01*
G75*
G02*
X235012000Y-144622001I0J249999D01*
G01*
X235012000Y-143921999D01*
G75*
G02*
X235261999Y-143672000I249999J0D01*
G01*
X236162001Y-143672000D01*
G75*
G02*
X236412000Y-143921999I0J-249999D01*
G01*
X236412000Y-144622001D01*
G75*
G02*
X236162001Y-144872000I-249999J0D01*
G01*
G37*
%TD.AperFunction*%
%TD*%
%TO.P,R16,2*%
%TO.N,XSHUT_2*%
%TA.AperFunction,SMDPad,CuDef*%
G36*
G01*
X200094001Y-142840000D02*
X199193999Y-142840000D01*
G75*
G02*
X198944000Y-142590001I0J249999D01*
G01*
X198944000Y-141889999D01*
G75*
G02*
X199193999Y-141640000I249999J0D01*
G01*
X200094001Y-141640000D01*
G75*
G02*
X200344000Y-141889999I0J-249999D01*
G01*
X200344000Y-142590001D01*
G75*
G02*
X200094001Y-142840000I-249999J0D01*
G01*
G37*
%TD.AperFunction*%
%TO.P,R16,1*%
%TO.N,+3V3*%
%TA.AperFunction,SMDPad,CuDef*%
G36*
G01*
X200094001Y-144840000D02*
X199193999Y-144840000D01*
G75*
G02*
X198944000Y-144590001I0J249999D01*
G01*
X198944000Y-143889999D01*
G75*
G02*
X199193999Y-143640000I249999J0D01*
G01*
X200094001Y-143640000D01*
G75*
G02*
X200344000Y-143889999I0J-249999D01*
G01*
X200344000Y-144590001D01*
G75*
G02*
X200094001Y-144840000I-249999J0D01*
G01*
G37*
%TD.AperFunction*%
%TD*%
%TO.P,R13,2*%
%TO.N,GPIOI_2*%
%TA.AperFunction,SMDPad,CuDef*%
G36*
G01*
X197808001Y-142840000D02*
X196907999Y-142840000D01*
G75*
G02*
X196658000Y-142590001I0J249999D01*
G01*
X196658000Y-141889999D01*
G75*
G02*
X196907999Y-141640000I249999J0D01*
G01*
X197808001Y-141640000D01*
G75*
G02*
X198058000Y-141889999I0J-249999D01*
G01*
X198058000Y-142590001D01*
G75*
G02*
X197808001Y-142840000I-249999J0D01*
G01*
G37*
%TD.AperFunction*%
%TO.P,R13,1*%
%TO.N,+3V3*%
%TA.AperFunction,SMDPad,CuDef*%
G36*
G01*
X197808001Y-144840000D02*
X196907999Y-144840000D01*
G75*
G02*
X196658000Y-144590001I0J249999D01*
G01*
X196658000Y-143889999D01*
G75*
G02*
X196907999Y-143640000I249999J0D01*
G01*
X197808001Y-143640000D01*
G75*
G02*
X198058000Y-143889999I0J-249999D01*
G01*
X198058000Y-144590001D01*
G75*
G02*
X197808001Y-144840000I-249999J0D01*
G01*
G37*
%TD.AperFunction*%
%TD*%
%TO.P,C42,2*%
%TO.N,GND*%
%TA.AperFunction,SMDPad,CuDef*%
G36*
G01*
X230266001Y-124537500D02*
X228965999Y-124537500D01*
G75*
G02*
X228716000Y-124287501I0J249999D01*
G01*
X228716000Y-123462499D01*
G75*
G02*
X228965999Y-123212500I249999J0D01*
G01*
X230266001Y-123212500D01*
G75*
G02*
X230516000Y-123462499I0J-249999D01*
G01*
X230516000Y-124287501D01*
G75*
G02*
X230266001Y-124537500I-249999J0D01*
G01*
G37*
%TD.AperFunction*%
%TO.P,C42,1*%
%TO.N,+3V3*%
%TA.AperFunction,SMDPad,CuDef*%
G36*
G01*
X230266001Y-127662500D02*
X228965999Y-127662500D01*
G75*
G02*
X228716000Y-127412501I0J249999D01*
G01*
X228716000Y-126587499D01*
G75*
G02*
X228965999Y-126337500I249999J0D01*
G01*
X230266001Y-126337500D01*
G75*
G02*
X230516000Y-126587499I0J-249999D01*
G01*
X230516000Y-127412501D01*
G75*
G02*
X230266001Y-127662500I-249999J0D01*
G01*
G37*
%TD.AperFunction*%
%TD*%
%TO.P,C41,2*%
%TO.N,GND*%
%TA.AperFunction,SMDPad,CuDef*%
G36*
G01*
X192166001Y-124360500D02*
X190865999Y-124360500D01*
G75*
G02*
X190616000Y-124110501I0J249999D01*
G01*
X190616000Y-123285499D01*
G75*
G02*
X190865999Y-123035500I249999J0D01*
G01*
X192166001Y-123035500D01*
G75*
G02*
X192416000Y-123285499I0J-249999D01*
G01*
X192416000Y-124110501D01*
G75*
G02*
X192166001Y-124360500I-249999J0D01*
G01*
G37*
%TD.AperFunction*%
%TO.P,C41,1*%
%TO.N,+3V3*%
%TA.AperFunction,SMDPad,CuDef*%
G36*
G01*
X192166001Y-127485500D02*
X190865999Y-127485500D01*
G75*
G02*
X190616000Y-127235501I0J249999D01*
G01*
X190616000Y-126410499D01*
G75*
G02*
X190865999Y-126160500I249999J0D01*
G01*
X192166001Y-126160500D01*
G75*
G02*
X192416000Y-126410499I0J-249999D01*
G01*
X192416000Y-127235501D01*
G75*
G02*
X192166001Y-127485500I-249999J0D01*
G01*
G37*
%TD.AperFunction*%
%TD*%
%TO.P,C40,2*%
%TO.N,GND*%
%TA.AperFunction,SMDPad,CuDef*%
G36*
G01*
X154066001Y-124283500D02*
X152765999Y-124283500D01*
G75*
G02*
X152516000Y-124033501I0J249999D01*
G01*
X152516000Y-123208499D01*
G75*
G02*
X152765999Y-122958500I249999J0D01*
G01*
X154066001Y-122958500D01*
G75*
G02*
X154316000Y-123208499I0J-249999D01*
G01*
X154316000Y-124033501D01*
G75*
G02*
X154066001Y-124283500I-249999J0D01*
G01*
G37*
%TD.AperFunction*%
%TO.P,C40,1*%
%TO.N,+3V3*%
%TA.AperFunction,SMDPad,CuDef*%
G36*
G01*
X154066001Y-127408500D02*
X152765999Y-127408500D01*
G75*
G02*
X152516000Y-127158501I0J249999D01*
G01*
X152516000Y-126333499D01*
G75*
G02*
X152765999Y-126083500I249999J0D01*
G01*
X154066001Y-126083500D01*
G75*
G02*
X154316000Y-126333499I0J-249999D01*
G01*
X154316000Y-127158501D01*
G75*
G02*
X154066001Y-127408500I-249999J0D01*
G01*
G37*
%TD.AperFunction*%
%TD*%
%TO.P,C39,2*%
%TO.N,GND*%
%TA.AperFunction,SMDPad,CuDef*%
G36*
G01*
X120284001Y-128170500D02*
X118983999Y-128170500D01*
G75*
G02*
X118734000Y-127920501I0J249999D01*
G01*
X118734000Y-127095499D01*
G75*
G02*
X118983999Y-126845500I249999J0D01*
G01*
X120284001Y-126845500D01*
G75*
G02*
X120534000Y-127095499I0J-249999D01*
G01*
X120534000Y-127920501D01*
G75*
G02*
X120284001Y-128170500I-249999J0D01*
G01*
G37*
%TD.AperFunction*%
%TO.P,C39,1*%
%TO.N,+3V3*%
%TA.AperFunction,SMDPad,CuDef*%
G36*
G01*
X120284001Y-131295500D02*
X118983999Y-131295500D01*
G75*
G02*
X118734000Y-131045501I0J249999D01*
G01*
X118734000Y-130220499D01*
G75*
G02*
X118983999Y-129970500I249999J0D01*
G01*
X120284001Y-129970500D01*
G75*
G02*
X120534000Y-130220499I0J-249999D01*
G01*
X120534000Y-131045501D01*
G75*
G02*
X120284001Y-131295500I-249999J0D01*
G01*
G37*
%TD.AperFunction*%
%TD*%
%TO.P,C38,2*%
%TO.N,GND*%
%TA.AperFunction,SMDPad,CuDef*%
G36*
G01*
X122649000Y-129111500D02*
X121699000Y-129111500D01*
G75*
G02*
X121449000Y-128861500I0J250000D01*
G01*
X121449000Y-128186500D01*
G75*
G02*
X121699000Y-127936500I250000J0D01*
G01*
X122649000Y-127936500D01*
G75*
G02*
X122899000Y-128186500I0J-250000D01*
G01*
X122899000Y-128861500D01*
G75*
G02*
X122649000Y-129111500I-250000J0D01*
G01*
G37*
%TD.AperFunction*%
%TO.P,C38,1*%
%TO.N,+3V3*%
%TA.AperFunction,SMDPad,CuDef*%
G36*
G01*
X122649000Y-131186500D02*
X121699000Y-131186500D01*
G75*
G02*
X121449000Y-130936500I0J250000D01*
G01*
X121449000Y-130261500D01*
G75*
G02*
X121699000Y-130011500I250000J0D01*
G01*
X122649000Y-130011500D01*
G75*
G02*
X122899000Y-130261500I0J-250000D01*
G01*
X122899000Y-130936500D01*
G75*
G02*
X122649000Y-131186500I-250000J0D01*
G01*
G37*
%TD.AperFunction*%
%TD*%
%TO.P,C37,2*%
%TO.N,GND*%
%TA.AperFunction,SMDPad,CuDef*%
G36*
G01*
X232631000Y-125512500D02*
X231681000Y-125512500D01*
G75*
G02*
X231431000Y-125262500I0J250000D01*
G01*
X231431000Y-124587500D01*
G75*
G02*
X231681000Y-124337500I250000J0D01*
G01*
X232631000Y-124337500D01*
G75*
G02*
X232881000Y-124587500I0J-250000D01*
G01*
X232881000Y-125262500D01*
G75*
G02*
X232631000Y-125512500I-250000J0D01*
G01*
G37*
%TD.AperFunction*%
%TO.P,C37,1*%
%TO.N,+3V3*%
%TA.AperFunction,SMDPad,CuDef*%
G36*
G01*
X232631000Y-127587500D02*
X231681000Y-127587500D01*
G75*
G02*
X231431000Y-127337500I0J250000D01*
G01*
X231431000Y-126662500D01*
G75*
G02*
X231681000Y-126412500I250000J0D01*
G01*
X232631000Y-126412500D01*
G75*
G02*
X232881000Y-126662500I0J-250000D01*
G01*
X232881000Y-127337500D01*
G75*
G02*
X232631000Y-127587500I-250000J0D01*
G01*
G37*
%TD.AperFunction*%
%TD*%
%TO.P,C36,2*%
%TO.N,GND*%
%TA.AperFunction,SMDPad,CuDef*%
G36*
G01*
X194531000Y-125301500D02*
X193581000Y-125301500D01*
G75*
G02*
X193331000Y-125051500I0J250000D01*
G01*
X193331000Y-124376500D01*
G75*
G02*
X193581000Y-124126500I250000J0D01*
G01*
X194531000Y-124126500D01*
G75*
G02*
X194781000Y-124376500I0J-250000D01*
G01*
X194781000Y-125051500D01*
G75*
G02*
X194531000Y-125301500I-250000J0D01*
G01*
G37*
%TD.AperFunction*%
%TO.P,C36,1*%
%TO.N,+3V3*%
%TA.AperFunction,SMDPad,CuDef*%
G36*
G01*
X194531000Y-127376500D02*
X193581000Y-127376500D01*
G75*
G02*
X193331000Y-127126500I0J250000D01*
G01*
X193331000Y-126451500D01*
G75*
G02*
X193581000Y-126201500I250000J0D01*
G01*
X194531000Y-126201500D01*
G75*
G02*
X194781000Y-126451500I0J-250000D01*
G01*
X194781000Y-127126500D01*
G75*
G02*
X194531000Y-127376500I-250000J0D01*
G01*
G37*
%TD.AperFunction*%
%TD*%
%TO.P,C35,2*%
%TO.N,GND*%
%TA.AperFunction,SMDPad,CuDef*%
G36*
G01*
X126221500Y-129368500D02*
X125746500Y-129368500D01*
G75*
G02*
X125509000Y-129131000I0J237500D01*
G01*
X125509000Y-128531000D01*
G75*
G02*
X125746500Y-128293500I237500J0D01*
G01*
X126221500Y-128293500D01*
G75*
G02*
X126459000Y-128531000I0J-237500D01*
G01*
X126459000Y-129131000D01*
G75*
G02*
X126221500Y-129368500I-237500J0D01*
G01*
G37*
%TD.AperFunction*%
%TO.P,C35,1*%
%TO.N,+3V3*%
%TA.AperFunction,SMDPad,CuDef*%
G36*
G01*
X126221500Y-131093500D02*
X125746500Y-131093500D01*
G75*
G02*
X125509000Y-130856000I0J237500D01*
G01*
X125509000Y-130256000D01*
G75*
G02*
X125746500Y-130018500I237500J0D01*
G01*
X126221500Y-130018500D01*
G75*
G02*
X126459000Y-130256000I0J-237500D01*
G01*
X126459000Y-130856000D01*
G75*
G02*
X126221500Y-131093500I-237500J0D01*
G01*
G37*
%TD.AperFunction*%
%TD*%
%TO.P,C21,2*%
%TO.N,GND*%
%TA.AperFunction,SMDPad,CuDef*%
G36*
G01*
X239759500Y-129315500D02*
X239284500Y-129315500D01*
G75*
G02*
X239047000Y-129078000I0J237500D01*
G01*
X239047000Y-128478000D01*
G75*
G02*
X239284500Y-128240500I237500J0D01*
G01*
X239759500Y-128240500D01*
G75*
G02*
X239997000Y-128478000I0J-237500D01*
G01*
X239997000Y-129078000D01*
G75*
G02*
X239759500Y-129315500I-237500J0D01*
G01*
G37*
%TD.AperFunction*%
%TO.P,C21,1*%
%TO.N,+3V3*%
%TA.AperFunction,SMDPad,CuDef*%
G36*
G01*
X239759500Y-131040500D02*
X239284500Y-131040500D01*
G75*
G02*
X239047000Y-130803000I0J237500D01*
G01*
X239047000Y-130203000D01*
G75*
G02*
X239284500Y-129965500I237500J0D01*
G01*
X239759500Y-129965500D01*
G75*
G02*
X239997000Y-130203000I0J-237500D01*
G01*
X239997000Y-130803000D01*
G75*
G02*
X239759500Y-131040500I-237500J0D01*
G01*
G37*
%TD.AperFunction*%
%TD*%
%TO.P,C20,2*%
%TO.N,GND*%
%TA.AperFunction,SMDPad,CuDef*%
G36*
G01*
X201659500Y-129315500D02*
X201184500Y-129315500D01*
G75*
G02*
X200947000Y-129078000I0J237500D01*
G01*
X200947000Y-128478000D01*
G75*
G02*
X201184500Y-128240500I237500J0D01*
G01*
X201659500Y-128240500D01*
G75*
G02*
X201897000Y-128478000I0J-237500D01*
G01*
X201897000Y-129078000D01*
G75*
G02*
X201659500Y-129315500I-237500J0D01*
G01*
G37*
%TD.AperFunction*%
%TO.P,C20,1*%
%TO.N,+3V3*%
%TA.AperFunction,SMDPad,CuDef*%
G36*
G01*
X201659500Y-131040500D02*
X201184500Y-131040500D01*
G75*
G02*
X200947000Y-130803000I0J237500D01*
G01*
X200947000Y-130203000D01*
G75*
G02*
X201184500Y-129965500I237500J0D01*
G01*
X201659500Y-129965500D01*
G75*
G02*
X201897000Y-130203000I0J-237500D01*
G01*
X201897000Y-130803000D01*
G75*
G02*
X201659500Y-131040500I-237500J0D01*
G01*
G37*
%TD.AperFunction*%
%TD*%
%TO.P,C16,2*%
%TO.N,GND*%
%TA.AperFunction,SMDPad,CuDef*%
G36*
G01*
X124443500Y-129368500D02*
X123968500Y-129368500D01*
G75*
G02*
X123731000Y-129131000I0J237500D01*
G01*
X123731000Y-128531000D01*
G75*
G02*
X123968500Y-128293500I237500J0D01*
G01*
X124443500Y-128293500D01*
G75*
G02*
X124681000Y-128531000I0J-237500D01*
G01*
X124681000Y-129131000D01*
G75*
G02*
X124443500Y-129368500I-237500J0D01*
G01*
G37*
%TD.AperFunction*%
%TO.P,C16,1*%
%TO.N,+3V3*%
%TA.AperFunction,SMDPad,CuDef*%
G36*
G01*
X124443500Y-131093500D02*
X123968500Y-131093500D01*
G75*
G02*
X123731000Y-130856000I0J237500D01*
G01*
X123731000Y-130256000D01*
G75*
G02*
X123968500Y-130018500I237500J0D01*
G01*
X124443500Y-130018500D01*
G75*
G02*
X124681000Y-130256000I0J-237500D01*
G01*
X124681000Y-130856000D01*
G75*
G02*
X124443500Y-131093500I-237500J0D01*
G01*
G37*
%TD.AperFunction*%
%TD*%
%TO.P,C15,2*%
%TO.N,GND*%
%TA.AperFunction,SMDPad,CuDef*%
G36*
G01*
X237981500Y-129315500D02*
X237506500Y-129315500D01*
G75*
G02*
X237269000Y-129078000I0J237500D01*
G01*
X237269000Y-128478000D01*
G75*
G02*
X237506500Y-128240500I237500J0D01*
G01*
X237981500Y-128240500D01*
G75*
G02*
X238219000Y-128478000I0J-237500D01*
G01*
X238219000Y-129078000D01*
G75*
G02*
X237981500Y-129315500I-237500J0D01*
G01*
G37*
%TD.AperFunction*%
%TO.P,C15,1*%
%TO.N,+3V3*%
%TA.AperFunction,SMDPad,CuDef*%
G36*
G01*
X237981500Y-131040500D02*
X237506500Y-131040500D01*
G75*
G02*
X237269000Y-130803000I0J237500D01*
G01*
X237269000Y-130203000D01*
G75*
G02*
X237506500Y-129965500I237500J0D01*
G01*
X237981500Y-129965500D01*
G75*
G02*
X238219000Y-130203000I0J-237500D01*
G01*
X238219000Y-130803000D01*
G75*
G02*
X237981500Y-131040500I-237500J0D01*
G01*
G37*
%TD.AperFunction*%
%TD*%
%TO.P,C14,2*%
%TO.N,GND*%
%TA.AperFunction,SMDPad,CuDef*%
G36*
G01*
X199881500Y-129315500D02*
X199406500Y-129315500D01*
G75*
G02*
X199169000Y-129078000I0J237500D01*
G01*
X199169000Y-128478000D01*
G75*
G02*
X199406500Y-128240500I237500J0D01*
G01*
X199881500Y-128240500D01*
G75*
G02*
X200119000Y-128478000I0J-237500D01*
G01*
X200119000Y-129078000D01*
G75*
G02*
X199881500Y-129315500I-237500J0D01*
G01*
G37*
%TD.AperFunction*%
%TO.P,C14,1*%
%TO.N,+3V3*%
%TA.AperFunction,SMDPad,CuDef*%
G36*
G01*
X199881500Y-131040500D02*
X199406500Y-131040500D01*
G75*
G02*
X199169000Y-130803000I0J237500D01*
G01*
X199169000Y-130203000D01*
G75*
G02*
X199406500Y-129965500I237500J0D01*
G01*
X199881500Y-129965500D01*
G75*
G02*
X200119000Y-130203000I0J-237500D01*
G01*
X200119000Y-130803000D01*
G75*
G02*
X199881500Y-131040500I-237500J0D01*
G01*
G37*
%TD.AperFunction*%
%TD*%
%TO.P,C11,2*%
%TO.N,GND*%
%TA.AperFunction,SMDPad,CuDef*%
G36*
G01*
X81740500Y-134907000D02*
X81740500Y-135857000D01*
G75*
G02*
X81490500Y-136107000I-250000J0D01*
G01*
X80815500Y-136107000D01*
G75*
G02*
X80565500Y-135857000I0J250000D01*
G01*
X80565500Y-134907000D01*
G75*
G02*
X80815500Y-134657000I250000J0D01*
G01*
X81490500Y-134657000D01*
G75*
G02*
X81740500Y-134907000I0J-250000D01*
G01*
G37*
%TD.AperFunction*%
%TO.P,C11,1*%
%TO.N,+3V3*%
%TA.AperFunction,SMDPad,CuDef*%
G36*
G01*
X83815500Y-134907000D02*
X83815500Y-135857000D01*
G75*
G02*
X83565500Y-136107000I-250000J0D01*
G01*
X82890500Y-136107000D01*
G75*
G02*
X82640500Y-135857000I0J250000D01*
G01*
X82640500Y-134907000D01*
G75*
G02*
X82890500Y-134657000I250000J0D01*
G01*
X83565500Y-134657000D01*
G75*
G02*
X83815500Y-134907000I0J-250000D01*
G01*
G37*
%TD.AperFunction*%
%TD*%
D12*
%TO.P,J12,2*%
%TO.N,/STM32L151RET6TR/BOOT*%
X54737000Y-131572000D03*
D13*
%TO.P,J12,1*%
%TO.N,+3V3*%
X52197000Y-131572000D03*
%TD*%
D12*
%TO.P,J11,2*%
%TO.N,/STM32L151RET6TR/RST*%
X54737000Y-135382000D03*
D13*
%TO.P,J11,1*%
%TO.N,GND*%
X52197000Y-135382000D03*
%TD*%
D14*
%TO.P,U2,6*%
%TO.N,/OUT5.0*%
X97341000Y-140650000D03*
%TO.P,U2,5*%
%TO.N,VCC*%
X97341000Y-139700000D03*
%TO.P,U2,4*%
%TO.N,BUCK_5_EN*%
X97341000Y-138750000D03*
%TO.P,U2,3*%
%TO.N,Net-(R26-Pad1)*%
X93921000Y-138750000D03*
%TO.P,U2,2*%
%TO.N,GND*%
X93921000Y-139700000D03*
%TO.P,U2,1*%
%TO.N,Net-(C6-Pad2)*%
X93921000Y-140650000D03*
%TD*%
%TO.P,R28,2*%
%TO.N,+5V*%
%TA.AperFunction,SMDPad,CuDef*%
G36*
G01*
X93541001Y-135252000D02*
X92640999Y-135252000D01*
G75*
G02*
X92391000Y-135002001I0J249999D01*
G01*
X92391000Y-134301999D01*
G75*
G02*
X92640999Y-134052000I249999J0D01*
G01*
X93541001Y-134052000D01*
G75*
G02*
X93791000Y-134301999I0J-249999D01*
G01*
X93791000Y-135002001D01*
G75*
G02*
X93541001Y-135252000I-249999J0D01*
G01*
G37*
%TD.AperFunction*%
%TO.P,R28,1*%
%TO.N,Net-(R26-Pad1)*%
%TA.AperFunction,SMDPad,CuDef*%
G36*
G01*
X93541001Y-137252000D02*
X92640999Y-137252000D01*
G75*
G02*
X92391000Y-137002001I0J249999D01*
G01*
X92391000Y-136301999D01*
G75*
G02*
X92640999Y-136052000I249999J0D01*
G01*
X93541001Y-136052000D01*
G75*
G02*
X93791000Y-136301999I0J-249999D01*
G01*
X93791000Y-137002001D01*
G75*
G02*
X93541001Y-137252000I-249999J0D01*
G01*
G37*
%TD.AperFunction*%
%TD*%
%TO.P,R26,2*%
%TO.N,Net-(R19-Pad1)*%
%TA.AperFunction,SMDPad,CuDef*%
G36*
G01*
X95827001Y-135252000D02*
X94926999Y-135252000D01*
G75*
G02*
X94677000Y-135002001I0J249999D01*
G01*
X94677000Y-134301999D01*
G75*
G02*
X94926999Y-134052000I249999J0D01*
G01*
X95827001Y-134052000D01*
G75*
G02*
X96077000Y-134301999I0J-249999D01*
G01*
X96077000Y-135002001D01*
G75*
G02*
X95827001Y-135252000I-249999J0D01*
G01*
G37*
%TD.AperFunction*%
%TO.P,R26,1*%
%TO.N,Net-(R26-Pad1)*%
%TA.AperFunction,SMDPad,CuDef*%
G36*
G01*
X95827001Y-137252000D02*
X94926999Y-137252000D01*
G75*
G02*
X94677000Y-137002001I0J249999D01*
G01*
X94677000Y-136301999D01*
G75*
G02*
X94926999Y-136052000I249999J0D01*
G01*
X95827001Y-136052000D01*
G75*
G02*
X96077000Y-136301999I0J-249999D01*
G01*
X96077000Y-137002001D01*
G75*
G02*
X95827001Y-137252000I-249999J0D01*
G01*
G37*
%TD.AperFunction*%
%TD*%
%TO.P,R24,2*%
%TO.N,Net-(C6-Pad1)*%
%TA.AperFunction,SMDPad,CuDef*%
G36*
G01*
X96231000Y-142297999D02*
X96231000Y-143198001D01*
G75*
G02*
X95981001Y-143448000I-249999J0D01*
G01*
X95280999Y-143448000D01*
G75*
G02*
X95031000Y-143198001I0J249999D01*
G01*
X95031000Y-142297999D01*
G75*
G02*
X95280999Y-142048000I249999J0D01*
G01*
X95981001Y-142048000D01*
G75*
G02*
X96231000Y-142297999I0J-249999D01*
G01*
G37*
%TD.AperFunction*%
%TO.P,R24,1*%
%TO.N,/OUT5.0*%
%TA.AperFunction,SMDPad,CuDef*%
G36*
G01*
X98231000Y-142297999D02*
X98231000Y-143198001D01*
G75*
G02*
X97981001Y-143448000I-249999J0D01*
G01*
X97280999Y-143448000D01*
G75*
G02*
X97031000Y-143198001I0J249999D01*
G01*
X97031000Y-142297999D01*
G75*
G02*
X97280999Y-142048000I249999J0D01*
G01*
X97981001Y-142048000D01*
G75*
G02*
X98231000Y-142297999I0J-249999D01*
G01*
G37*
%TD.AperFunction*%
%TD*%
%TO.P,R19,2*%
%TO.N,GND*%
%TA.AperFunction,SMDPad,CuDef*%
G36*
G01*
X97212999Y-136052000D02*
X98113001Y-136052000D01*
G75*
G02*
X98363000Y-136301999I0J-249999D01*
G01*
X98363000Y-137002001D01*
G75*
G02*
X98113001Y-137252000I-249999J0D01*
G01*
X97212999Y-137252000D01*
G75*
G02*
X96963000Y-137002001I0J249999D01*
G01*
X96963000Y-136301999D01*
G75*
G02*
X97212999Y-136052000I249999J0D01*
G01*
G37*
%TD.AperFunction*%
%TO.P,R19,1*%
%TO.N,Net-(R19-Pad1)*%
%TA.AperFunction,SMDPad,CuDef*%
G36*
G01*
X97212999Y-134052000D02*
X98113001Y-134052000D01*
G75*
G02*
X98363000Y-134301999I0J-249999D01*
G01*
X98363000Y-135002001D01*
G75*
G02*
X98113001Y-135252000I-249999J0D01*
G01*
X97212999Y-135252000D01*
G75*
G02*
X96963000Y-135002001I0J249999D01*
G01*
X96963000Y-134301999D01*
G75*
G02*
X97212999Y-134052000I249999J0D01*
G01*
G37*
%TD.AperFunction*%
%TD*%
%TO.P,R15,2*%
%TO.N,Net-(JP4-Pad1)*%
%TA.AperFunction,SMDPad,CuDef*%
G36*
G01*
X101349000Y-140658001D02*
X101349000Y-139757999D01*
G75*
G02*
X101598999Y-139508000I249999J0D01*
G01*
X102299001Y-139508000D01*
G75*
G02*
X102549000Y-139757999I0J-249999D01*
G01*
X102549000Y-140658001D01*
G75*
G02*
X102299001Y-140908000I-249999J0D01*
G01*
X101598999Y-140908000D01*
G75*
G02*
X101349000Y-140658001I0J249999D01*
G01*
G37*
%TD.AperFunction*%
%TO.P,R15,1*%
%TO.N,VCC*%
%TA.AperFunction,SMDPad,CuDef*%
G36*
G01*
X99349000Y-140658001D02*
X99349000Y-139757999D01*
G75*
G02*
X99598999Y-139508000I249999J0D01*
G01*
X100299001Y-139508000D01*
G75*
G02*
X100549000Y-139757999I0J-249999D01*
G01*
X100549000Y-140658001D01*
G75*
G02*
X100299001Y-140908000I-249999J0D01*
G01*
X99598999Y-140908000D01*
G75*
G02*
X99349000Y-140658001I0J249999D01*
G01*
G37*
%TD.AperFunction*%
%TD*%
D15*
%TO.P,L2,2*%
%TO.N,+5V*%
X92583000Y-146812000D03*
%TO.P,L2,1*%
%TO.N,/OUT5.0*%
X97083000Y-146812000D03*
%TD*%
D16*
%TO.P,JP4,1*%
%TO.N,Net-(JP4-Pad1)*%
X101249000Y-137668000D03*
%TO.P,JP4,2*%
%TO.N,BUCK_5_EN*%
X99949000Y-137668000D03*
%TD*%
D17*
%TO.P,D8,2*%
%TO.N,GND*%
X100711000Y-151384000D03*
%TO.P,D8,1*%
%TO.N,/OUT5.0*%
X100711000Y-146384000D03*
%TD*%
%TO.P,C34,2*%
%TO.N,GND*%
%TA.AperFunction,SMDPad,CuDef*%
G36*
G01*
X95984500Y-152288001D02*
X95984500Y-150987999D01*
G75*
G02*
X96234499Y-150738000I249999J0D01*
G01*
X97059501Y-150738000D01*
G75*
G02*
X97309500Y-150987999I0J-249999D01*
G01*
X97309500Y-152288001D01*
G75*
G02*
X97059501Y-152538000I-249999J0D01*
G01*
X96234499Y-152538000D01*
G75*
G02*
X95984500Y-152288001I0J249999D01*
G01*
G37*
%TD.AperFunction*%
%TO.P,C34,1*%
%TO.N,+5V*%
%TA.AperFunction,SMDPad,CuDef*%
G36*
G01*
X92859500Y-152288001D02*
X92859500Y-150987999D01*
G75*
G02*
X93109499Y-150738000I249999J0D01*
G01*
X93934501Y-150738000D01*
G75*
G02*
X94184500Y-150987999I0J-249999D01*
G01*
X94184500Y-152288001D01*
G75*
G02*
X93934501Y-152538000I-249999J0D01*
G01*
X93109499Y-152538000D01*
G75*
G02*
X92859500Y-152288001I0J249999D01*
G01*
G37*
%TD.AperFunction*%
%TD*%
%TO.P,C6,2*%
%TO.N,Net-(C6-Pad2)*%
%TA.AperFunction,SMDPad,CuDef*%
G36*
G01*
X92358500Y-142510500D02*
X92358500Y-142985500D01*
G75*
G02*
X92121000Y-143223000I-237500J0D01*
G01*
X91521000Y-143223000D01*
G75*
G02*
X91283500Y-142985500I0J237500D01*
G01*
X91283500Y-142510500D01*
G75*
G02*
X91521000Y-142273000I237500J0D01*
G01*
X92121000Y-142273000D01*
G75*
G02*
X92358500Y-142510500I0J-237500D01*
G01*
G37*
%TD.AperFunction*%
%TO.P,C6,1*%
%TO.N,Net-(C6-Pad1)*%
%TA.AperFunction,SMDPad,CuDef*%
G36*
G01*
X94083500Y-142510500D02*
X94083500Y-142985500D01*
G75*
G02*
X93846000Y-143223000I-237500J0D01*
G01*
X93246000Y-143223000D01*
G75*
G02*
X93008500Y-142985500I0J237500D01*
G01*
X93008500Y-142510500D01*
G75*
G02*
X93246000Y-142273000I237500J0D01*
G01*
X93846000Y-142273000D01*
G75*
G02*
X94083500Y-142510500I0J-237500D01*
G01*
G37*
%TD.AperFunction*%
%TD*%
%TO.P,C4,2*%
%TO.N,GND*%
%TA.AperFunction,SMDPad,CuDef*%
G36*
G01*
X102588500Y-143398001D02*
X102588500Y-142097999D01*
G75*
G02*
X102838499Y-141848000I249999J0D01*
G01*
X103663501Y-141848000D01*
G75*
G02*
X103913500Y-142097999I0J-249999D01*
G01*
X103913500Y-143398001D01*
G75*
G02*
X103663501Y-143648000I-249999J0D01*
G01*
X102838499Y-143648000D01*
G75*
G02*
X102588500Y-143398001I0J249999D01*
G01*
G37*
%TD.AperFunction*%
%TO.P,C4,1*%
%TO.N,VCC*%
%TA.AperFunction,SMDPad,CuDef*%
G36*
G01*
X99463500Y-143398001D02*
X99463500Y-142097999D01*
G75*
G02*
X99713499Y-141848000I249999J0D01*
G01*
X100538501Y-141848000D01*
G75*
G02*
X100788500Y-142097999I0J-249999D01*
G01*
X100788500Y-143398001D01*
G75*
G02*
X100538501Y-143648000I-249999J0D01*
G01*
X99713499Y-143648000D01*
G75*
G02*
X99463500Y-143398001I0J249999D01*
G01*
G37*
%TD.AperFunction*%
%TD*%
D12*
%TO.P,J8,6*%
%TO.N,/STM32L151RET6TR/SW0*%
X52197000Y-123952000D03*
%TO.P,J8,5*%
%TO.N,/STM32L151RET6TR/RST*%
X54737000Y-123952000D03*
%TO.P,J8,4*%
%TO.N,/STM32L151RET6TR/SWDAT*%
X57277000Y-123952000D03*
%TO.P,J8,3*%
%TO.N,GND*%
X59817000Y-123952000D03*
%TO.P,J8,2*%
%TO.N,/STM32L151RET6TR/SWCLK*%
X62357000Y-123952000D03*
D13*
%TO.P,J8,1*%
%TO.N,+3V3*%
X64897000Y-123952000D03*
%TD*%
D12*
%TO.P,J10,4*%
%TO.N,SCL2*%
X54991000Y-110490000D03*
%TO.P,J10,3*%
%TO.N,SDA2*%
X57531000Y-110490000D03*
%TO.P,J10,2*%
%TO.N,+3V3*%
X60071000Y-110490000D03*
D13*
%TO.P,J10,1*%
%TO.N,GND*%
X62611000Y-110490000D03*
%TD*%
D12*
%TO.P,J7,6*%
%TO.N,/STM32L151RET6TR/FTDI_RTS*%
X54737000Y-120142000D03*
%TO.P,J7,5*%
%TO.N,/STM32L151RET6TR/FTDI_RXD*%
X57277000Y-120142000D03*
%TO.P,J7,4*%
%TO.N,/STM32L151RET6TR/FTDI_TXD*%
X59817000Y-120142000D03*
%TO.P,J7,3*%
%TO.N,+5V*%
X62357000Y-120142000D03*
%TO.P,J7,2*%
%TO.N,/STM32L151RET6TR/FTDI_CTS*%
X64897000Y-120142000D03*
D13*
%TO.P,J7,1*%
%TO.N,GND*%
X67437000Y-120142000D03*
%TD*%
D18*
%TO.P,TP2,1*%
%TO.N,SCL2*%
X56515000Y-112776000D03*
%TD*%
%TO.P,TP1,1*%
%TO.N,SDA2*%
X59055000Y-112776000D03*
%TD*%
%TO.P,R22,2*%
%TO.N,SCL2*%
%TA.AperFunction,SMDPad,CuDef*%
G36*
G01*
X55915000Y-116782001D02*
X55915000Y-115881999D01*
G75*
G02*
X56164999Y-115632000I249999J0D01*
G01*
X56865001Y-115632000D01*
G75*
G02*
X57115000Y-115881999I0J-249999D01*
G01*
X57115000Y-116782001D01*
G75*
G02*
X56865001Y-117032000I-249999J0D01*
G01*
X56164999Y-117032000D01*
G75*
G02*
X55915000Y-116782001I0J249999D01*
G01*
G37*
%TD.AperFunction*%
%TO.P,R22,1*%
%TO.N,+3V3*%
%TA.AperFunction,SMDPad,CuDef*%
G36*
G01*
X53915000Y-116782001D02*
X53915000Y-115881999D01*
G75*
G02*
X54164999Y-115632000I249999J0D01*
G01*
X54865001Y-115632000D01*
G75*
G02*
X55115000Y-115881999I0J-249999D01*
G01*
X55115000Y-116782001D01*
G75*
G02*
X54865001Y-117032000I-249999J0D01*
G01*
X54164999Y-117032000D01*
G75*
G02*
X53915000Y-116782001I0J249999D01*
G01*
G37*
%TD.AperFunction*%
%TD*%
%TO.P,R21,2*%
%TO.N,SDA2*%
%TA.AperFunction,SMDPad,CuDef*%
G36*
G01*
X59655000Y-115881999D02*
X59655000Y-116782001D01*
G75*
G02*
X59405001Y-117032000I-249999J0D01*
G01*
X58704999Y-117032000D01*
G75*
G02*
X58455000Y-116782001I0J249999D01*
G01*
X58455000Y-115881999D01*
G75*
G02*
X58704999Y-115632000I249999J0D01*
G01*
X59405001Y-115632000D01*
G75*
G02*
X59655000Y-115881999I0J-249999D01*
G01*
G37*
%TD.AperFunction*%
%TO.P,R21,1*%
%TO.N,+3V3*%
%TA.AperFunction,SMDPad,CuDef*%
G36*
G01*
X61655000Y-115881999D02*
X61655000Y-116782001D01*
G75*
G02*
X61405001Y-117032000I-249999J0D01*
G01*
X60704999Y-117032000D01*
G75*
G02*
X60455000Y-116782001I0J249999D01*
G01*
X60455000Y-115881999D01*
G75*
G02*
X60704999Y-115632000I249999J0D01*
G01*
X61405001Y-115632000D01*
G75*
G02*
X61655000Y-115881999I0J-249999D01*
G01*
G37*
%TD.AperFunction*%
%TD*%
%TO.P,R20,2*%
%TO.N,GND*%
%TA.AperFunction,SMDPad,CuDef*%
G36*
G01*
X64700999Y-133480000D02*
X65601001Y-133480000D01*
G75*
G02*
X65851000Y-133729999I0J-249999D01*
G01*
X65851000Y-134430001D01*
G75*
G02*
X65601001Y-134680000I-249999J0D01*
G01*
X64700999Y-134680000D01*
G75*
G02*
X64451000Y-134430001I0J249999D01*
G01*
X64451000Y-133729999D01*
G75*
G02*
X64700999Y-133480000I249999J0D01*
G01*
G37*
%TD.AperFunction*%
%TO.P,R20,1*%
%TO.N,/STM32L151RET6TR/BOOT*%
%TA.AperFunction,SMDPad,CuDef*%
G36*
G01*
X64700999Y-131480000D02*
X65601001Y-131480000D01*
G75*
G02*
X65851000Y-131729999I0J-249999D01*
G01*
X65851000Y-132430001D01*
G75*
G02*
X65601001Y-132680000I-249999J0D01*
G01*
X64700999Y-132680000D01*
G75*
G02*
X64451000Y-132430001I0J249999D01*
G01*
X64451000Y-131729999D01*
G75*
G02*
X64700999Y-131480000I249999J0D01*
G01*
G37*
%TD.AperFunction*%
%TD*%
%TO.P,R9,2*%
%TO.N,Net-(C2-Pad1)*%
%TA.AperFunction,SMDPad,CuDef*%
G36*
G01*
X80079001Y-116932000D02*
X79178999Y-116932000D01*
G75*
G02*
X78929000Y-116682001I0J249999D01*
G01*
X78929000Y-115981999D01*
G75*
G02*
X79178999Y-115732000I249999J0D01*
G01*
X80079001Y-115732000D01*
G75*
G02*
X80329000Y-115981999I0J-249999D01*
G01*
X80329000Y-116682001D01*
G75*
G02*
X80079001Y-116932000I-249999J0D01*
G01*
G37*
%TD.AperFunction*%
%TO.P,R9,1*%
%TO.N,+3V3*%
%TA.AperFunction,SMDPad,CuDef*%
G36*
G01*
X80079001Y-118932000D02*
X79178999Y-118932000D01*
G75*
G02*
X78929000Y-118682001I0J249999D01*
G01*
X78929000Y-117981999D01*
G75*
G02*
X79178999Y-117732000I249999J0D01*
G01*
X80079001Y-117732000D01*
G75*
G02*
X80329000Y-117981999I0J-249999D01*
G01*
X80329000Y-118682001D01*
G75*
G02*
X80079001Y-118932000I-249999J0D01*
G01*
G37*
%TD.AperFunction*%
%TD*%
%TO.P,R8,2*%
%TO.N,Net-(C1-Pad1)*%
%TA.AperFunction,SMDPad,CuDef*%
G36*
G01*
X86937001Y-116932000D02*
X86036999Y-116932000D01*
G75*
G02*
X85787000Y-116682001I0J249999D01*
G01*
X85787000Y-115981999D01*
G75*
G02*
X86036999Y-115732000I249999J0D01*
G01*
X86937001Y-115732000D01*
G75*
G02*
X87187000Y-115981999I0J-249999D01*
G01*
X87187000Y-116682001D01*
G75*
G02*
X86937001Y-116932000I-249999J0D01*
G01*
G37*
%TD.AperFunction*%
%TO.P,R8,1*%
%TO.N,+3V3*%
%TA.AperFunction,SMDPad,CuDef*%
G36*
G01*
X86937001Y-118932000D02*
X86036999Y-118932000D01*
G75*
G02*
X85787000Y-118682001I0J249999D01*
G01*
X85787000Y-117981999D01*
G75*
G02*
X86036999Y-117732000I249999J0D01*
G01*
X86937001Y-117732000D01*
G75*
G02*
X87187000Y-117981999I0J-249999D01*
G01*
X87187000Y-118682001D01*
G75*
G02*
X86937001Y-118932000I-249999J0D01*
G01*
G37*
%TD.AperFunction*%
%TD*%
D19*
%TO.P,JP3,2*%
%TO.N,/STM32L151RET6TR/PIN30*%
X70993000Y-128046000D03*
%TA.AperFunction,SMDPad,CuDef*%
D20*
%TO.P,JP3,3*%
%TO.N,SDA2*%
G36*
X70243602Y-126746000D02*
G01*
X70243602Y-126721466D01*
X70248412Y-126672635D01*
X70257984Y-126624510D01*
X70272228Y-126577555D01*
X70291005Y-126532222D01*
X70314136Y-126488949D01*
X70341396Y-126448150D01*
X70372524Y-126410221D01*
X70407221Y-126375524D01*
X70445150Y-126344396D01*
X70485949Y-126317136D01*
X70529222Y-126294005D01*
X70574555Y-126275228D01*
X70621510Y-126260984D01*
X70669635Y-126251412D01*
X70718466Y-126246602D01*
X70743000Y-126246602D01*
X70743000Y-126246000D01*
X71243000Y-126246000D01*
X71243000Y-126246602D01*
X71267534Y-126246602D01*
X71316365Y-126251412D01*
X71364490Y-126260984D01*
X71411445Y-126275228D01*
X71456778Y-126294005D01*
X71500051Y-126317136D01*
X71540850Y-126344396D01*
X71578779Y-126375524D01*
X71613476Y-126410221D01*
X71644604Y-126448150D01*
X71671864Y-126488949D01*
X71694995Y-126532222D01*
X71713772Y-126577555D01*
X71728016Y-126624510D01*
X71737588Y-126672635D01*
X71742398Y-126721466D01*
X71742398Y-126746000D01*
X71743000Y-126746000D01*
X71743000Y-127296000D01*
X70243000Y-127296000D01*
X70243000Y-126746000D01*
X70243602Y-126746000D01*
G37*
%TD.AperFunction*%
%TA.AperFunction,SMDPad,CuDef*%
%TO.P,JP3,1*%
%TO.N,+3V3*%
G36*
X71743000Y-128796000D02*
G01*
X71743000Y-129346000D01*
X71742398Y-129346000D01*
X71742398Y-129370534D01*
X71737588Y-129419365D01*
X71728016Y-129467490D01*
X71713772Y-129514445D01*
X71694995Y-129559778D01*
X71671864Y-129603051D01*
X71644604Y-129643850D01*
X71613476Y-129681779D01*
X71578779Y-129716476D01*
X71540850Y-129747604D01*
X71500051Y-129774864D01*
X71456778Y-129797995D01*
X71411445Y-129816772D01*
X71364490Y-129831016D01*
X71316365Y-129840588D01*
X71267534Y-129845398D01*
X71243000Y-129845398D01*
X71243000Y-129846000D01*
X70743000Y-129846000D01*
X70743000Y-129845398D01*
X70718466Y-129845398D01*
X70669635Y-129840588D01*
X70621510Y-129831016D01*
X70574555Y-129816772D01*
X70529222Y-129797995D01*
X70485949Y-129774864D01*
X70445150Y-129747604D01*
X70407221Y-129716476D01*
X70372524Y-129681779D01*
X70341396Y-129643850D01*
X70314136Y-129603051D01*
X70291005Y-129559778D01*
X70272228Y-129514445D01*
X70257984Y-129467490D01*
X70248412Y-129419365D01*
X70243602Y-129370534D01*
X70243602Y-129346000D01*
X70243000Y-129346000D01*
X70243000Y-128796000D01*
X71743000Y-128796000D01*
G37*
%TD.AperFunction*%
%TD*%
D16*
%TO.P,JP2,2*%
%TO.N,SCL2*%
X74803000Y-128016000D03*
%TA.AperFunction,SMDPad,CuDef*%
D20*
%TO.P,JP2,3*%
%TO.N,/STM32L151RET6TR/PIN41*%
G36*
X73503000Y-128765398D02*
G01*
X73478466Y-128765398D01*
X73429635Y-128760588D01*
X73381510Y-128751016D01*
X73334555Y-128736772D01*
X73289222Y-128717995D01*
X73245949Y-128694864D01*
X73205150Y-128667604D01*
X73167221Y-128636476D01*
X73132524Y-128601779D01*
X73101396Y-128563850D01*
X73074136Y-128523051D01*
X73051005Y-128479778D01*
X73032228Y-128434445D01*
X73017984Y-128387490D01*
X73008412Y-128339365D01*
X73003602Y-128290534D01*
X73003602Y-128266000D01*
X73003000Y-128266000D01*
X73003000Y-127766000D01*
X73003602Y-127766000D01*
X73003602Y-127741466D01*
X73008412Y-127692635D01*
X73017984Y-127644510D01*
X73032228Y-127597555D01*
X73051005Y-127552222D01*
X73074136Y-127508949D01*
X73101396Y-127468150D01*
X73132524Y-127430221D01*
X73167221Y-127395524D01*
X73205150Y-127364396D01*
X73245949Y-127337136D01*
X73289222Y-127314005D01*
X73334555Y-127295228D01*
X73381510Y-127280984D01*
X73429635Y-127271412D01*
X73478466Y-127266602D01*
X73503000Y-127266602D01*
X73503000Y-127266000D01*
X74053000Y-127266000D01*
X74053000Y-128766000D01*
X73503000Y-128766000D01*
X73503000Y-128765398D01*
G37*
%TD.AperFunction*%
%TA.AperFunction,SMDPad,CuDef*%
%TO.P,JP2,1*%
%TO.N,/STM32L151RET6TR/PIN29*%
G36*
X75553000Y-127266000D02*
G01*
X76103000Y-127266000D01*
X76103000Y-127266602D01*
X76127534Y-127266602D01*
X76176365Y-127271412D01*
X76224490Y-127280984D01*
X76271445Y-127295228D01*
X76316778Y-127314005D01*
X76360051Y-127337136D01*
X76400850Y-127364396D01*
X76438779Y-127395524D01*
X76473476Y-127430221D01*
X76504604Y-127468150D01*
X76531864Y-127508949D01*
X76554995Y-127552222D01*
X76573772Y-127597555D01*
X76588016Y-127644510D01*
X76597588Y-127692635D01*
X76602398Y-127741466D01*
X76602398Y-127766000D01*
X76603000Y-127766000D01*
X76603000Y-128266000D01*
X76602398Y-128266000D01*
X76602398Y-128290534D01*
X76597588Y-128339365D01*
X76588016Y-128387490D01*
X76573772Y-128434445D01*
X76554995Y-128479778D01*
X76531864Y-128523051D01*
X76504604Y-128563850D01*
X76473476Y-128601779D01*
X76438779Y-128636476D01*
X76400850Y-128667604D01*
X76360051Y-128694864D01*
X76316778Y-128717995D01*
X76271445Y-128736772D01*
X76224490Y-128751016D01*
X76176365Y-128760588D01*
X76127534Y-128765398D01*
X76103000Y-128765398D01*
X76103000Y-128766000D01*
X75553000Y-128766000D01*
X75553000Y-127266000D01*
G37*
%TD.AperFunction*%
%TD*%
D21*
%TO.P,J19,1*%
%TO.N,/STM32L151RET6TR/PA10*%
X51435000Y-112776000D03*
%TD*%
%TO.P,J18,1*%
%TO.N,/STM32L151RET6TR/PA9*%
X53975000Y-112776000D03*
%TD*%
%TO.P,J17,1*%
%TO.N,/STM32L151RET6TR/PC8*%
X61595000Y-112776000D03*
%TD*%
D12*
%TO.P,J9,4*%
%TO.N,/STM32L151RET6TR/UART_RX*%
X85979000Y-130302000D03*
%TO.P,J9,3*%
%TO.N,/STM32L151RET6TR/UART_TX*%
X85979000Y-132842000D03*
%TO.P,J9,2*%
%TO.N,+3V3*%
X85979000Y-135382000D03*
D13*
%TO.P,J9,1*%
%TO.N,GND*%
X85979000Y-137922000D03*
%TD*%
D22*
%TO.P,J2,2*%
%TO.N,Net-(D6-Pad2)*%
X54229000Y-153868000D03*
%TO.P,J2,1*%
%TO.N,GND*%
%TA.AperFunction,ComponentPad*%
G36*
G01*
X52679000Y-149468000D02*
X55779000Y-149468000D01*
G75*
G02*
X56029000Y-149718000I0J-250000D01*
G01*
X56029000Y-151018000D01*
G75*
G02*
X55779000Y-151268000I-250000J0D01*
G01*
X52679000Y-151268000D01*
G75*
G02*
X52429000Y-151018000I0J250000D01*
G01*
X52429000Y-149718000D01*
G75*
G02*
X52679000Y-149468000I250000J0D01*
G01*
G37*
%TD.AperFunction*%
%TD*%
D12*
%TO.P,J1,4*%
%TO.N,SCL1*%
X54737000Y-127762000D03*
%TO.P,J1,3*%
%TO.N,SDA1*%
X57277000Y-127762000D03*
%TO.P,J1,2*%
%TO.N,+5V*%
X59817000Y-127762000D03*
D13*
%TO.P,J1,1*%
%TO.N,GND*%
X62357000Y-127762000D03*
%TD*%
D17*
%TO.P,D6,2*%
%TO.N,Net-(D6-Pad2)*%
X49911000Y-154686000D03*
%TO.P,D6,1*%
%TO.N,VCC*%
X49911000Y-149686000D03*
%TD*%
%TO.P,C33,2*%
%TO.N,GND*%
%TA.AperFunction,SMDPad,CuDef*%
G36*
G01*
X68928000Y-127587500D02*
X67978000Y-127587500D01*
G75*
G02*
X67728000Y-127337500I0J250000D01*
G01*
X67728000Y-126662500D01*
G75*
G02*
X67978000Y-126412500I250000J0D01*
G01*
X68928000Y-126412500D01*
G75*
G02*
X69178000Y-126662500I0J-250000D01*
G01*
X69178000Y-127337500D01*
G75*
G02*
X68928000Y-127587500I-250000J0D01*
G01*
G37*
%TD.AperFunction*%
%TO.P,C33,1*%
%TO.N,+3V3*%
%TA.AperFunction,SMDPad,CuDef*%
G36*
G01*
X68928000Y-129662500D02*
X67978000Y-129662500D01*
G75*
G02*
X67728000Y-129412500I0J250000D01*
G01*
X67728000Y-128737500D01*
G75*
G02*
X67978000Y-128487500I250000J0D01*
G01*
X68928000Y-128487500D01*
G75*
G02*
X69178000Y-128737500I0J-250000D01*
G01*
X69178000Y-129412500D01*
G75*
G02*
X68928000Y-129662500I-250000J0D01*
G01*
G37*
%TD.AperFunction*%
%TD*%
%TO.P,C31,2*%
%TO.N,GND*%
%TA.AperFunction,SMDPad,CuDef*%
G36*
G01*
X72434500Y-132317500D02*
X72434500Y-131842500D01*
G75*
G02*
X72672000Y-131605000I237500J0D01*
G01*
X73272000Y-131605000D01*
G75*
G02*
X73509500Y-131842500I0J-237500D01*
G01*
X73509500Y-132317500D01*
G75*
G02*
X73272000Y-132555000I-237500J0D01*
G01*
X72672000Y-132555000D01*
G75*
G02*
X72434500Y-132317500I0J237500D01*
G01*
G37*
%TD.AperFunction*%
%TO.P,C31,1*%
%TO.N,+3V3*%
%TA.AperFunction,SMDPad,CuDef*%
G36*
G01*
X70709500Y-132317500D02*
X70709500Y-131842500D01*
G75*
G02*
X70947000Y-131605000I237500J0D01*
G01*
X71547000Y-131605000D01*
G75*
G02*
X71784500Y-131842500I0J-237500D01*
G01*
X71784500Y-132317500D01*
G75*
G02*
X71547000Y-132555000I-237500J0D01*
G01*
X70947000Y-132555000D01*
G75*
G02*
X70709500Y-132317500I0J237500D01*
G01*
G37*
%TD.AperFunction*%
%TD*%
%TO.P,C30,2*%
%TO.N,GND*%
%TA.AperFunction,SMDPad,CuDef*%
G36*
G01*
X78068500Y-132301000D02*
X78068500Y-131351000D01*
G75*
G02*
X78318500Y-131101000I250000J0D01*
G01*
X78993500Y-131101000D01*
G75*
G02*
X79243500Y-131351000I0J-250000D01*
G01*
X79243500Y-132301000D01*
G75*
G02*
X78993500Y-132551000I-250000J0D01*
G01*
X78318500Y-132551000D01*
G75*
G02*
X78068500Y-132301000I0J250000D01*
G01*
G37*
%TD.AperFunction*%
%TO.P,C30,1*%
%TO.N,+3V3*%
%TA.AperFunction,SMDPad,CuDef*%
G36*
G01*
X75993500Y-132301000D02*
X75993500Y-131351000D01*
G75*
G02*
X76243500Y-131101000I250000J0D01*
G01*
X76918500Y-131101000D01*
G75*
G02*
X77168500Y-131351000I0J-250000D01*
G01*
X77168500Y-132301000D01*
G75*
G02*
X76918500Y-132551000I-250000J0D01*
G01*
X76243500Y-132551000D01*
G75*
G02*
X75993500Y-132301000I0J250000D01*
G01*
G37*
%TD.AperFunction*%
%TD*%
%TO.P,C29,2*%
%TO.N,GND*%
%TA.AperFunction,SMDPad,CuDef*%
G36*
G01*
X70260500Y-119396500D02*
X70260500Y-119871500D01*
G75*
G02*
X70023000Y-120109000I-237500J0D01*
G01*
X69423000Y-120109000D01*
G75*
G02*
X69185500Y-119871500I0J237500D01*
G01*
X69185500Y-119396500D01*
G75*
G02*
X69423000Y-119159000I237500J0D01*
G01*
X70023000Y-119159000D01*
G75*
G02*
X70260500Y-119396500I0J-237500D01*
G01*
G37*
%TD.AperFunction*%
%TO.P,C29,1*%
%TO.N,+3V3*%
%TA.AperFunction,SMDPad,CuDef*%
G36*
G01*
X71985500Y-119396500D02*
X71985500Y-119871500D01*
G75*
G02*
X71748000Y-120109000I-237500J0D01*
G01*
X71148000Y-120109000D01*
G75*
G02*
X70910500Y-119871500I0J237500D01*
G01*
X70910500Y-119396500D01*
G75*
G02*
X71148000Y-119159000I237500J0D01*
G01*
X71748000Y-119159000D01*
G75*
G02*
X71985500Y-119396500I0J-237500D01*
G01*
G37*
%TD.AperFunction*%
%TD*%
%TO.P,C28,2*%
%TO.N,GND*%
%TA.AperFunction,SMDPad,CuDef*%
G36*
G01*
X77821500Y-134095500D02*
X77821500Y-133620500D01*
G75*
G02*
X78059000Y-133383000I237500J0D01*
G01*
X78659000Y-133383000D01*
G75*
G02*
X78896500Y-133620500I0J-237500D01*
G01*
X78896500Y-134095500D01*
G75*
G02*
X78659000Y-134333000I-237500J0D01*
G01*
X78059000Y-134333000D01*
G75*
G02*
X77821500Y-134095500I0J237500D01*
G01*
G37*
%TD.AperFunction*%
%TO.P,C28,1*%
%TO.N,+3V3*%
%TA.AperFunction,SMDPad,CuDef*%
G36*
G01*
X76096500Y-134095500D02*
X76096500Y-133620500D01*
G75*
G02*
X76334000Y-133383000I237500J0D01*
G01*
X76934000Y-133383000D01*
G75*
G02*
X77171500Y-133620500I0J-237500D01*
G01*
X77171500Y-134095500D01*
G75*
G02*
X76934000Y-134333000I-237500J0D01*
G01*
X76334000Y-134333000D01*
G75*
G02*
X76096500Y-134095500I0J237500D01*
G01*
G37*
%TD.AperFunction*%
%TD*%
%TO.P,C23,2*%
%TO.N,GND*%
%TA.AperFunction,SMDPad,CuDef*%
G36*
G01*
X72434500Y-134095500D02*
X72434500Y-133620500D01*
G75*
G02*
X72672000Y-133383000I237500J0D01*
G01*
X73272000Y-133383000D01*
G75*
G02*
X73509500Y-133620500I0J-237500D01*
G01*
X73509500Y-134095500D01*
G75*
G02*
X73272000Y-134333000I-237500J0D01*
G01*
X72672000Y-134333000D01*
G75*
G02*
X72434500Y-134095500I0J237500D01*
G01*
G37*
%TD.AperFunction*%
%TO.P,C23,1*%
%TO.N,+3V3*%
%TA.AperFunction,SMDPad,CuDef*%
G36*
G01*
X70709500Y-134095500D02*
X70709500Y-133620500D01*
G75*
G02*
X70947000Y-133383000I237500J0D01*
G01*
X71547000Y-133383000D01*
G75*
G02*
X71784500Y-133620500I0J-237500D01*
G01*
X71784500Y-134095500D01*
G75*
G02*
X71547000Y-134333000I-237500J0D01*
G01*
X70947000Y-134333000D01*
G75*
G02*
X70709500Y-134095500I0J237500D01*
G01*
G37*
%TD.AperFunction*%
%TD*%
%TO.P,C2,2*%
%TO.N,SW_2*%
%TA.AperFunction,SMDPad,CuDef*%
G36*
G01*
X81423500Y-117826500D02*
X81898500Y-117826500D01*
G75*
G02*
X82136000Y-118064000I0J-237500D01*
G01*
X82136000Y-118664000D01*
G75*
G02*
X81898500Y-118901500I-237500J0D01*
G01*
X81423500Y-118901500D01*
G75*
G02*
X81186000Y-118664000I0J237500D01*
G01*
X81186000Y-118064000D01*
G75*
G02*
X81423500Y-117826500I237500J0D01*
G01*
G37*
%TD.AperFunction*%
%TO.P,C2,1*%
%TO.N,Net-(C2-Pad1)*%
%TA.AperFunction,SMDPad,CuDef*%
G36*
G01*
X81423500Y-116101500D02*
X81898500Y-116101500D01*
G75*
G02*
X82136000Y-116339000I0J-237500D01*
G01*
X82136000Y-116939000D01*
G75*
G02*
X81898500Y-117176500I-237500J0D01*
G01*
X81423500Y-117176500D01*
G75*
G02*
X81186000Y-116939000I0J237500D01*
G01*
X81186000Y-116339000D01*
G75*
G02*
X81423500Y-116101500I237500J0D01*
G01*
G37*
%TD.AperFunction*%
%TD*%
%TO.P,C1,2*%
%TO.N,SW_1*%
%TA.AperFunction,SMDPad,CuDef*%
G36*
G01*
X88281500Y-117826500D02*
X88756500Y-117826500D01*
G75*
G02*
X88994000Y-118064000I0J-237500D01*
G01*
X88994000Y-118664000D01*
G75*
G02*
X88756500Y-118901500I-237500J0D01*
G01*
X88281500Y-118901500D01*
G75*
G02*
X88044000Y-118664000I0J237500D01*
G01*
X88044000Y-118064000D01*
G75*
G02*
X88281500Y-117826500I237500J0D01*
G01*
G37*
%TD.AperFunction*%
%TO.P,C1,1*%
%TO.N,Net-(C1-Pad1)*%
%TA.AperFunction,SMDPad,CuDef*%
G36*
G01*
X88281500Y-116101500D02*
X88756500Y-116101500D01*
G75*
G02*
X88994000Y-116339000I0J-237500D01*
G01*
X88994000Y-116939000D01*
G75*
G02*
X88756500Y-117176500I-237500J0D01*
G01*
X88281500Y-117176500D01*
G75*
G02*
X88044000Y-116939000I0J237500D01*
G01*
X88044000Y-116339000D01*
G75*
G02*
X88281500Y-116101500I237500J0D01*
G01*
G37*
%TD.AperFunction*%
%TD*%
D12*
%TO.P,J6,8*%
%TO.N,N/C*%
X76581000Y-106934000D03*
%TO.P,J6,7*%
%TO.N,LED_1*%
X79121000Y-106934000D03*
%TO.P,J6,6*%
%TO.N,LED_2*%
X81661000Y-106934000D03*
%TO.P,J6,5*%
%TO.N,LED_3*%
X84201000Y-106934000D03*
%TO.P,J6,4*%
%TO.N,LED_4*%
X86741000Y-106934000D03*
%TO.P,J6,3*%
%TO.N,LED_5*%
X89281000Y-106934000D03*
%TO.P,J6,2*%
%TO.N,N/C*%
X91821000Y-106934000D03*
D13*
%TO.P,J6,1*%
X94361000Y-106934000D03*
%TD*%
D12*
%TO.P,J5,10*%
%TO.N,SCL1*%
X49657000Y-106934000D03*
%TO.P,J5,9*%
%TO.N,SDA1*%
X52197000Y-106934000D03*
%TO.P,J5,8*%
%TO.N,+3V3*%
X54737000Y-106934000D03*
%TO.P,J5,7*%
%TO.N,GND*%
X57277000Y-106934000D03*
%TO.P,J5,6*%
%TO.N,GPIOI_3*%
X59817000Y-106934000D03*
%TO.P,J5,5*%
%TO.N,GPIOI_2*%
X62357000Y-106934000D03*
%TO.P,J5,4*%
%TO.N,GPIOI_1*%
X64897000Y-106934000D03*
%TO.P,J5,3*%
%TO.N,GPIOI_0*%
X67437000Y-106934000D03*
%TO.P,J5,2*%
%TO.N,N/C*%
X69977000Y-106934000D03*
D13*
%TO.P,J5,1*%
X72517000Y-106934000D03*
%TD*%
D12*
%TO.P,J4,6*%
%TO.N,SW_2*%
X94361000Y-155194000D03*
%TO.P,J4,5*%
%TO.N,SW_1*%
X91821000Y-155194000D03*
%TO.P,J4,4*%
%TO.N,XSHUT_3*%
X89281000Y-155194000D03*
%TO.P,J4,3*%
%TO.N,XSHUT_2*%
X86741000Y-155194000D03*
%TO.P,J4,2*%
%TO.N,XSHUT_1*%
X84201000Y-155194000D03*
D13*
%TO.P,J4,1*%
%TO.N,XSHUT_0*%
X81661000Y-155194000D03*
%TD*%
D12*
%TO.P,J3,8*%
%TO.N,N/C*%
X76581000Y-155194000D03*
%TO.P,J3,7*%
%TO.N,GND*%
X74041000Y-155194000D03*
%TO.P,J3,6*%
X71501000Y-155194000D03*
%TO.P,J3,5*%
%TO.N,+5V*%
X68961000Y-155194000D03*
%TO.P,J3,4*%
%TO.N,+3V3*%
X66421000Y-155194000D03*
%TO.P,J3,3*%
%TO.N,N/C*%
X63881000Y-155194000D03*
%TO.P,J3,2*%
X61341000Y-155194000D03*
D13*
%TO.P,J3,1*%
X58801000Y-155194000D03*
%TD*%
D23*
%TO.N,GND*%
X76835000Y-130048000D03*
X81153000Y-125730000D03*
X87503000Y-121666000D03*
X101473000Y-124968000D03*
X74295000Y-133858000D03*
X81915000Y-133096000D03*
X66929000Y-134874000D03*
X68961000Y-133096000D03*
X65151000Y-135382000D03*
X64643000Y-151384000D03*
X62103000Y-149606000D03*
X64643000Y-147828000D03*
X58039000Y-134874000D03*
X58039000Y-141986000D03*
X72263000Y-148590000D03*
X99187000Y-135890000D03*
X92837000Y-143764000D03*
X104775000Y-134874000D03*
X101981000Y-134874000D03*
X103251000Y-134874000D03*
X91694000Y-138049000D03*
X91694000Y-138938000D03*
X67437000Y-125349000D03*
X70231000Y-122809000D03*
X69215000Y-117983000D03*
X103505000Y-152400000D03*
X95123000Y-151638000D03*
X244094000Y-131826000D03*
X236078347Y-130668347D03*
X238506000Y-127254000D03*
X155956000Y-123190000D03*
X163322000Y-127254000D03*
X160269347Y-130551347D03*
X208026000Y-134112000D03*
X169926000Y-134112000D03*
X156210000Y-136144000D03*
X200660000Y-127254000D03*
X197607347Y-130551347D03*
X194564000Y-136144000D03*
X191516000Y-121920000D03*
X194056000Y-123190000D03*
X153416000Y-121920000D03*
X138684000Y-122174000D03*
X229616000Y-122174000D03*
X232156000Y-123444000D03*
X232830000Y-136144000D03*
X239014000Y-136398000D03*
X200914000Y-136398000D03*
X163068000Y-136398000D03*
X124968000Y-127508000D03*
X119634000Y-125730000D03*
X125476000Y-137414000D03*
X121412000Y-132334000D03*
X128778000Y-132334000D03*
X118872000Y-137160000D03*
X123190000Y-107696000D03*
X130048000Y-107696000D03*
X128016000Y-107696000D03*
X125476000Y-107696000D03*
X118618000Y-112268000D03*
X128016000Y-148590000D03*
X130556000Y-148590000D03*
X125476000Y-148590000D03*
X122936000Y-148590000D03*
X119126000Y-148590000D03*
X102489000Y-146812000D03*
X167386000Y-115570000D03*
X205740000Y-115570000D03*
X243586000Y-115570000D03*
X99060000Y-152400000D03*
X221996000Y-124333000D03*
X216916000Y-124333000D03*
X178816000Y-124333000D03*
X183896000Y-124333000D03*
X145796000Y-124333000D03*
X140716000Y-124333000D03*
%TO.N,VCC*%
X53975000Y-148082000D03*
X98983002Y-146558000D03*
X103234896Y-145318348D03*
%TO.N,+3V3*%
X78700000Y-125309000D03*
X79665000Y-120432000D03*
X75311000Y-133858000D03*
X69642998Y-128016000D03*
X86487000Y-119888000D03*
X85979000Y-111760000D03*
X80899000Y-110490000D03*
X82169000Y-132080000D03*
X71755000Y-130810000D03*
X68834000Y-134239000D03*
X104775000Y-143256000D03*
X104775000Y-140716000D03*
X55245000Y-141986000D03*
X52705000Y-141986000D03*
X90716509Y-149771509D03*
X69212808Y-122807215D03*
X70485000Y-120904000D03*
X106045000Y-141986000D03*
X241300000Y-131826000D03*
X155956000Y-128270000D03*
X153416000Y-128270000D03*
X160274000Y-131572000D03*
X165608000Y-131572000D03*
X197612000Y-131572000D03*
X203200000Y-131572000D03*
X194056000Y-128270000D03*
X235956000Y-131816000D03*
X232156000Y-128524000D03*
X191516000Y-128270000D03*
X229616000Y-128524000D03*
X232156000Y-134112000D03*
X194056000Y-134112000D03*
X155956000Y-134112000D03*
X157480000Y-144272000D03*
X195580000Y-144272000D03*
X233680000Y-144272000D03*
X120396000Y-132334000D03*
X130302000Y-132334000D03*
X127254000Y-132334000D03*
X122428000Y-132334000D03*
X120396000Y-148590000D03*
X120396000Y-107696000D03*
X106045000Y-140716000D03*
X141224000Y-126238000D03*
X167386000Y-118872000D03*
X167386000Y-118872000D03*
X205740000Y-118872000D03*
X243586000Y-118872000D03*
%TO.N,XSHUT_1*%
X163322000Y-141478000D03*
X124206000Y-148590000D03*
X137922000Y-135636000D03*
X137922000Y-138938000D03*
X82550000Y-150876000D03*
X156332347Y-130932347D03*
X158877000Y-122301000D03*
%TO.N,GPIOI_1*%
X157734000Y-141478000D03*
X121666000Y-148590000D03*
X164338000Y-127254000D03*
X136906000Y-136100972D03*
X136906000Y-138938000D03*
X76325716Y-125767000D03*
X107696000Y-133350000D03*
X162052000Y-122262000D03*
X164338000Y-125222000D03*
%TO.N,XSHUT_2*%
X201422000Y-141478000D03*
X124206000Y-117348000D03*
X83570653Y-150871347D03*
X107691347Y-135640653D03*
X109220000Y-134874000D03*
X123698000Y-120396000D03*
X197104000Y-121158000D03*
X194524783Y-130262783D03*
X108018858Y-150944858D03*
%TO.N,GPIOI_2*%
X195580000Y-141478000D03*
X201676000Y-126746000D03*
X121666000Y-117348000D03*
X200152000Y-121158000D03*
X201676000Y-124714000D03*
%TO.N,XSHUT_0*%
X128016000Y-127000000D03*
X81534000Y-150876000D03*
X117348000Y-142494000D03*
%TO.N,GPIOI_0*%
X130302000Y-127000000D03*
X77724000Y-124460000D03*
%TO.N,LED_3*%
X92265500Y-125793500D03*
%TO.N,LED_4*%
X92265500Y-124269500D03*
%TO.N,LED_5*%
X92672190Y-120396000D03*
%TO.N,LED_1*%
X91567000Y-129540000D03*
%TO.N,LED_2*%
X92329000Y-127254000D03*
%TO.N,SW_1*%
X92583000Y-118364000D03*
X89789000Y-118364000D03*
X92583000Y-110490000D03*
X84836000Y-142494000D03*
X80772000Y-144272000D03*
X71628000Y-150622000D03*
X79248000Y-154743999D03*
%TO.N,SW_2*%
X80645000Y-121412000D03*
X84201000Y-116586000D03*
X84963000Y-111760000D03*
X68829347Y-151642653D03*
X70769346Y-149702654D03*
X80809000Y-143002000D03*
X84128892Y-141786892D03*
%TO.N,+5V*%
X92075000Y-150114000D03*
X92373000Y-146912936D03*
%TO.N,/STM32L151RET6TR/BOOT*%
X63373000Y-132080000D03*
%TO.N,/STM32L151RET6TR/RST*%
X72771000Y-138176000D03*
%TO.N,SCL1*%
X57277000Y-132842000D03*
X242824000Y-140970000D03*
X204724000Y-141478000D03*
X166878000Y-141478000D03*
X129286000Y-142240000D03*
X129286000Y-153416000D03*
X166624000Y-132080000D03*
X139954000Y-138938000D03*
X139954000Y-134403000D03*
X206756000Y-131318000D03*
X204498501Y-131797499D03*
X243332000Y-130302000D03*
X242344501Y-131797499D03*
X168275000Y-131445000D03*
X160202001Y-122262000D03*
X198628000Y-121158000D03*
X236474000Y-121158000D03*
%TO.N,SDA1*%
X57281653Y-133862653D03*
X58039000Y-130302000D03*
X240538000Y-141224000D03*
X202438000Y-141478000D03*
X164338000Y-141478000D03*
X126746000Y-142240000D03*
X126746000Y-153416000D03*
X138938000Y-138938000D03*
X138938000Y-135128000D03*
X167640000Y-129540000D03*
X165608000Y-130048000D03*
X163576000Y-122262000D03*
X203708000Y-128778000D03*
X241554000Y-128524000D03*
%TO.N,/STM32L151RET6TR/FTDI_RTS*%
X67945000Y-123444000D03*
X69469000Y-130556000D03*
%TO.N,/STM32L151RET6TR/FTDI_CTS*%
X69723000Y-131572000D03*
%TO.N,/STM32L151RET6TR/SW0*%
X62611000Y-125730000D03*
X57023000Y-125730000D03*
%TO.N,SCL2*%
X72517000Y-121920000D03*
X56515000Y-114554000D03*
%TO.N,SDA2*%
X59055000Y-114554000D03*
X73279000Y-119888000D03*
%TO.N,/STM32L151RET6TR/PIN41*%
X72771000Y-125984000D03*
%TO.N,/STM32L151RET6TR/PIN29*%
X75819000Y-130048000D03*
%TO.N,/STM32L151RET6TR/PIN30*%
X74803000Y-130048000D03*
%TO.N,/STM32L151RET6TR/PC8*%
X61595000Y-114554000D03*
%TO.N,/STM32L151RET6TR/PA9*%
X53975000Y-114554000D03*
%TO.N,/STM32L151RET6TR/PA10*%
X51435000Y-114300000D03*
%TO.N,BUCK_5_EN*%
X69977000Y-134112000D03*
%TO.N,XSHUT_3*%
X239522000Y-141224000D03*
X124206000Y-141986000D03*
X84591306Y-150866694D03*
X235204000Y-121158000D03*
X235204000Y-127508000D03*
%TO.N,GPIOI_3*%
X233934000Y-141224000D03*
X239776000Y-126238000D03*
X121666000Y-141986000D03*
X75528000Y-126492000D03*
%TD*%
D24*
%TO.N,GND*%
X73226000Y-132334000D02*
X72972000Y-132080000D01*
X72972000Y-133858000D02*
X73025000Y-133858000D01*
X78656000Y-133561000D02*
X78359000Y-133858000D01*
X78656000Y-131826000D02*
X78656000Y-133561000D01*
X78613000Y-131826000D02*
X76835000Y-130048000D01*
X78656000Y-131826000D02*
X78613000Y-131826000D01*
X67945000Y-119634000D02*
X67437000Y-120142000D01*
X69723000Y-119634000D02*
X67945000Y-119634000D01*
X72972000Y-132080000D02*
X72972000Y-133858000D01*
D25*
X96901000Y-151384000D02*
X96647000Y-151638000D01*
D24*
X72972000Y-133858000D02*
X74295000Y-133858000D01*
X65151000Y-134080000D02*
X65151000Y-135382000D01*
D25*
X97166966Y-136652000D02*
X97663000Y-136652000D01*
X95890999Y-137927967D02*
X97166966Y-136652000D01*
X95890999Y-138915003D02*
X95890999Y-137927967D01*
X95106002Y-139700000D02*
X95890999Y-138915003D01*
X93921000Y-139700000D02*
X95106002Y-139700000D01*
X100457000Y-151638000D02*
X100711000Y-151384000D01*
X96647000Y-151638000D02*
X98679000Y-151638000D01*
X81153000Y-133858000D02*
X81915000Y-133096000D01*
X81153000Y-135382000D02*
X81153000Y-133858000D01*
D26*
X98425000Y-136652000D02*
X97663000Y-136652000D01*
X99187000Y-135890000D02*
X98425000Y-136652000D01*
D25*
X92456000Y-139700000D02*
X93921000Y-139700000D01*
X91694000Y-138938000D02*
X92456000Y-139700000D01*
X103251000Y-142748000D02*
X103251000Y-143129000D01*
D24*
X68453000Y-126365000D02*
X67437000Y-125349000D01*
X68453000Y-127000000D02*
X68453000Y-126365000D01*
X69723000Y-118491000D02*
X69215000Y-117983000D01*
X69723000Y-119634000D02*
X69723000Y-118491000D01*
D25*
X91694000Y-138938000D02*
X91694000Y-138049000D01*
X102489000Y-151384000D02*
X103505000Y-152400000D01*
X100711000Y-151384000D02*
X102489000Y-151384000D01*
X96647000Y-151638000D02*
X95123000Y-151638000D01*
X96647000Y-151638000D02*
X96774000Y-151638000D01*
D24*
X236601000Y-134148000D02*
X239141000Y-134148000D01*
X239141000Y-134148000D02*
X241681000Y-134148000D01*
X241681000Y-134148000D02*
X244221000Y-134148000D01*
X244221000Y-131953000D02*
X244094000Y-131826000D01*
X244221000Y-134148000D02*
X244221000Y-131953000D01*
X238506000Y-127762000D02*
X239522000Y-128778000D01*
X238506000Y-127254000D02*
X238506000Y-127762000D01*
X238506000Y-128016000D02*
X237744000Y-128778000D01*
X238506000Y-127254000D02*
X238506000Y-128016000D01*
X155956000Y-124692500D02*
X155956000Y-123190000D01*
X163322000Y-128042500D02*
X164084000Y-128804500D01*
X163322000Y-127254000D02*
X163322000Y-128042500D01*
X162306000Y-128270000D02*
X163322000Y-127254000D01*
X162306000Y-128778000D02*
X162306000Y-128270000D01*
X159548999Y-131271695D02*
X160269347Y-130551347D01*
X159548999Y-133295999D02*
X159548999Y-131271695D01*
X160401000Y-134148000D02*
X159548999Y-133295999D01*
X160401000Y-134148000D02*
X162941000Y-134148000D01*
X162941000Y-134148000D02*
X165481000Y-134148000D01*
X168021000Y-134148000D02*
X165481000Y-134148000D01*
X207990000Y-134148000D02*
X208026000Y-134112000D01*
X206121000Y-134148000D02*
X207990000Y-134148000D01*
X169890000Y-134148000D02*
X169926000Y-134112000D01*
X168021000Y-134148000D02*
X169890000Y-134148000D01*
X156591000Y-136525000D02*
X156210000Y-136144000D01*
X156591000Y-138648000D02*
X156591000Y-136525000D01*
X200660000Y-128016000D02*
X201422000Y-128778000D01*
X200660000Y-127254000D02*
X200660000Y-128016000D01*
X199644000Y-128270000D02*
X200660000Y-127254000D01*
X199644000Y-128778000D02*
X199644000Y-128270000D01*
X198501000Y-134148000D02*
X201041000Y-134148000D01*
X201041000Y-134148000D02*
X203581000Y-134148000D01*
X203581000Y-134148000D02*
X206121000Y-134148000D01*
X194691000Y-136271000D02*
X194564000Y-136144000D01*
X194691000Y-138648000D02*
X194691000Y-136271000D01*
X191516000Y-123698000D02*
X191516000Y-121920000D01*
X194056000Y-124714000D02*
X194056000Y-123190000D01*
X153416000Y-123621000D02*
X153416000Y-121920000D01*
X138684000Y-123952000D02*
X138684000Y-122174000D01*
X229616000Y-123875000D02*
X229616000Y-122174000D01*
X232156000Y-124925000D02*
X232156000Y-123444000D01*
X232791000Y-136183000D02*
X232830000Y-136144000D01*
X232791000Y-138648000D02*
X232791000Y-136183000D01*
X239014000Y-134275000D02*
X239141000Y-134148000D01*
X239014000Y-136398000D02*
X239014000Y-134275000D01*
X200914000Y-134275000D02*
X201041000Y-134148000D01*
X200914000Y-136398000D02*
X200914000Y-134275000D01*
X163068000Y-134275000D02*
X162941000Y-134148000D01*
X163068000Y-136398000D02*
X163068000Y-134275000D01*
X124968000Y-127815000D02*
X125984000Y-128831000D01*
X124968000Y-127508000D02*
X124968000Y-127815000D01*
X124968000Y-128069000D02*
X124206000Y-128831000D01*
X124968000Y-127508000D02*
X124968000Y-128069000D01*
X123899000Y-128524000D02*
X124206000Y-128831000D01*
X122174000Y-128524000D02*
X123899000Y-128524000D01*
X121158000Y-127508000D02*
X122174000Y-128524000D01*
X119634000Y-127508000D02*
X121158000Y-127508000D01*
X119634000Y-127508000D02*
X119634000Y-125730000D01*
X125476000Y-137414000D02*
X125476000Y-135164000D01*
X122936000Y-135164000D02*
X125476000Y-135164000D01*
X128016000Y-135164000D02*
X125476000Y-135164000D01*
X130556000Y-135164000D02*
X128016000Y-135164000D01*
X121412000Y-132890000D02*
X121412000Y-132334000D01*
X122936000Y-134414000D02*
X121412000Y-132890000D01*
X122936000Y-135164000D02*
X122936000Y-134414000D01*
X130556000Y-134112000D02*
X128778000Y-132334000D01*
X130556000Y-135164000D02*
X130556000Y-134112000D01*
X119126000Y-137414000D02*
X118872000Y-137160000D01*
X119126000Y-139664000D02*
X119126000Y-137414000D01*
X130556000Y-110399000D02*
X128016000Y-110399000D01*
X125476000Y-110399000D02*
X128016000Y-110399000D01*
X122936000Y-110399000D02*
X125476000Y-110399000D01*
X122936000Y-107950000D02*
X123190000Y-107696000D01*
X122936000Y-110399000D02*
X122936000Y-107950000D01*
X130556000Y-108204000D02*
X130048000Y-107696000D01*
X130556000Y-110399000D02*
X130556000Y-108204000D01*
X128016000Y-110399000D02*
X128016000Y-107696000D01*
X125476000Y-110399000D02*
X125476000Y-107696000D01*
X119126000Y-112776000D02*
X118618000Y-112268000D01*
X119126000Y-114899000D02*
X119126000Y-112776000D01*
X122936000Y-146467000D02*
X125476000Y-146467000D01*
X128016000Y-146467000D02*
X128016000Y-148590000D01*
X130556000Y-146467000D02*
X130556000Y-148590000D01*
X125476000Y-146467000D02*
X125476000Y-148590000D01*
X122936000Y-146467000D02*
X122936000Y-148590000D01*
X119126000Y-150967000D02*
X119126000Y-148590000D01*
D26*
X104434897Y-144742347D02*
X104434897Y-145894349D01*
X104434897Y-145894349D02*
X103517246Y-146812000D01*
X103251000Y-143558450D02*
X104434897Y-144742347D01*
X103517246Y-146812000D02*
X102489000Y-146812000D01*
X103251000Y-142748000D02*
X103251000Y-143558450D01*
D24*
X165227000Y-115570000D02*
X167386000Y-115570000D01*
X203200000Y-115570000D02*
X205740000Y-115570000D01*
X241300000Y-115570000D02*
X243586000Y-115570000D01*
D25*
X99695000Y-152400000D02*
X100711000Y-151384000D01*
X99060000Y-152400000D02*
X99695000Y-152400000D01*
X99060000Y-151638000D02*
X99060000Y-152400000D01*
X98679000Y-151638000D02*
X99060000Y-151638000D01*
X99060000Y-151638000D02*
X100457000Y-151638000D01*
%TO.N,VCC*%
X51515000Y-148082000D02*
X49911000Y-149686000D01*
X53975000Y-148082000D02*
X51515000Y-148082000D01*
X99441000Y-139700000D02*
X99949000Y-140208000D01*
X97341000Y-139700000D02*
X99441000Y-139700000D01*
X100664548Y-142748000D02*
X103234896Y-145318348D01*
X100126000Y-142748000D02*
X100664548Y-142748000D01*
X99949000Y-142571000D02*
X100126000Y-142748000D01*
X99949000Y-140208000D02*
X99949000Y-142571000D01*
D24*
%TO.N,+3V3*%
X76634000Y-131879000D02*
X76581000Y-131826000D01*
X76634000Y-133858000D02*
X76634000Y-131879000D01*
X75311000Y-133858000D02*
X76634000Y-133858000D01*
X68583998Y-129075000D02*
X69642998Y-128016000D01*
X68453000Y-129075000D02*
X68583998Y-129075000D01*
X71247000Y-132080000D02*
X71247000Y-133858000D01*
X79629000Y-120396000D02*
X79665000Y-120432000D01*
X79629000Y-118332000D02*
X79629000Y-120396000D01*
X71247000Y-131318000D02*
X71755000Y-130810000D01*
X71247000Y-132080000D02*
X71247000Y-131318000D01*
X60029990Y-117357010D02*
X61055000Y-116332000D01*
X55540010Y-117357010D02*
X60029990Y-117357010D01*
X54515000Y-116332000D02*
X55540010Y-117357010D01*
X60071000Y-115348000D02*
X60071000Y-110490000D01*
X61055000Y-116332000D02*
X60071000Y-115348000D01*
X86487000Y-119126000D02*
X86487000Y-118332000D01*
X86487000Y-119126000D02*
X86487000Y-119888000D01*
D25*
X83228000Y-135382000D02*
X85979000Y-135382000D01*
D24*
X71448000Y-119941000D02*
X70485000Y-120904000D01*
X71448000Y-119634000D02*
X71448000Y-119941000D01*
X70993000Y-130048000D02*
X71755000Y-130810000D01*
X70993000Y-129346000D02*
X70993000Y-130048000D01*
X240845000Y-131826000D02*
X239522000Y-130503000D01*
X241300000Y-131826000D02*
X240845000Y-131826000D01*
X237744000Y-130503000D02*
X239522000Y-130503000D01*
X237744000Y-130503000D02*
X237269000Y-130503000D01*
X229616000Y-127000000D02*
X232156000Y-127000000D01*
X155956000Y-126767500D02*
X155956000Y-128270000D01*
X153416000Y-126746000D02*
X153416000Y-128270000D01*
X162332500Y-130529500D02*
X162306000Y-130503000D01*
X164084000Y-130529500D02*
X162332500Y-130529500D01*
X164565500Y-130529500D02*
X165608000Y-131572000D01*
X164084000Y-130529500D02*
X164565500Y-130529500D01*
X161343000Y-130503000D02*
X160274000Y-131572000D01*
X162306000Y-130503000D02*
X161343000Y-130503000D01*
X198681000Y-130503000D02*
X197612000Y-131572000D01*
X199644000Y-130503000D02*
X198681000Y-130503000D01*
X201422000Y-130503000D02*
X199644000Y-130503000D01*
X202131000Y-130503000D02*
X203200000Y-131572000D01*
X201422000Y-130503000D02*
X202131000Y-130503000D01*
X194022000Y-126823000D02*
X194056000Y-126789000D01*
X191516000Y-126823000D02*
X194022000Y-126823000D01*
X194056000Y-126789000D02*
X194056000Y-128270000D01*
X237269000Y-130503000D02*
X235956000Y-131816000D01*
X232156000Y-127000000D02*
X232156000Y-128524000D01*
X191516000Y-126823000D02*
X191516000Y-128270000D01*
X229616000Y-127000000D02*
X229616000Y-128524000D01*
D25*
X232192000Y-134148000D02*
X232156000Y-134112000D01*
X234061000Y-134148000D02*
X232192000Y-134148000D01*
X194092000Y-134148000D02*
X194056000Y-134112000D01*
X195961000Y-134148000D02*
X194092000Y-134148000D01*
X157825000Y-134112000D02*
X157861000Y-134148000D01*
X155956000Y-134112000D02*
X157825000Y-134112000D01*
D24*
X159274000Y-144240000D02*
X159258000Y-144256000D01*
X161544000Y-144240000D02*
X159274000Y-144240000D01*
X157496000Y-144256000D02*
X157480000Y-144272000D01*
X159258000Y-144256000D02*
X157496000Y-144256000D01*
X199644000Y-144240000D02*
X197358000Y-144240000D01*
X195612000Y-144240000D02*
X195580000Y-144272000D01*
X197358000Y-144240000D02*
X195612000Y-144240000D01*
X235744000Y-144240000D02*
X235712000Y-144272000D01*
X237871000Y-144240000D02*
X235744000Y-144240000D01*
X235712000Y-144272000D02*
X233680000Y-144272000D01*
X130286000Y-130540000D02*
X130302000Y-130556000D01*
X128016000Y-130540000D02*
X130286000Y-130540000D01*
X126000000Y-130540000D02*
X125984000Y-130556000D01*
X128016000Y-130540000D02*
X126000000Y-130540000D01*
X124206000Y-130556000D02*
X125984000Y-130556000D01*
X124163000Y-130599000D02*
X124206000Y-130556000D01*
X122174000Y-130599000D02*
X124163000Y-130599000D01*
X122140000Y-130633000D02*
X122174000Y-130599000D01*
X119634000Y-130633000D02*
X122140000Y-130633000D01*
X119634000Y-131572000D02*
X120396000Y-132334000D01*
X119634000Y-130633000D02*
X119634000Y-131572000D01*
X120396000Y-135164000D02*
X120396000Y-132334000D01*
X130302000Y-130556000D02*
X130302000Y-132334000D01*
X122174000Y-132080000D02*
X122428000Y-132334000D01*
X122174000Y-130599000D02*
X122174000Y-132080000D01*
X128016000Y-131572000D02*
X127254000Y-132334000D01*
X128016000Y-130540000D02*
X128016000Y-131572000D01*
X125984000Y-131064000D02*
X127254000Y-132334000D01*
X125984000Y-130556000D02*
X125984000Y-131064000D01*
X124206000Y-130556000D02*
X122428000Y-132334000D01*
X120396000Y-146467000D02*
X120396000Y-148590000D01*
X120396000Y-110399000D02*
X120396000Y-107696000D01*
D25*
X141013000Y-126027000D02*
X141224000Y-126238000D01*
X138684000Y-126027000D02*
X141013000Y-126027000D01*
D24*
X165227000Y-118872000D02*
X167386000Y-118872000D01*
X203200000Y-118872000D02*
X205740000Y-118872000D01*
X241300000Y-118872000D02*
X243586000Y-118872000D01*
%TO.N,XSHUT_1*%
X162306000Y-141478000D02*
X161544000Y-142240000D01*
X163322000Y-141478000D02*
X162306000Y-141478000D01*
X161671000Y-142113000D02*
X161544000Y-142240000D01*
X161671000Y-138648000D02*
X161671000Y-142113000D01*
X124206000Y-150967000D02*
X124206000Y-148590000D01*
X137922000Y-135636000D02*
X137922000Y-138938000D01*
X84201000Y-152527000D02*
X82550000Y-150876000D01*
X84201000Y-155194000D02*
X84201000Y-152527000D01*
X160602990Y-143181010D02*
X161544000Y-142240000D01*
X158289008Y-143181010D02*
X160602990Y-143181010D01*
X155230999Y-140123001D02*
X158289008Y-143181010D01*
X155230999Y-132033695D02*
X155230999Y-140123001D01*
X156332347Y-130932347D02*
X155230999Y-132033695D01*
X158877000Y-118872000D02*
X158877000Y-122301000D01*
X124206000Y-151262002D02*
X124206000Y-148590000D01*
X98129379Y-155999031D02*
X119468971Y-155999031D01*
X97309400Y-156819010D02*
X98129379Y-155999031D01*
X85826011Y-156819011D02*
X97309400Y-156819010D01*
X119468971Y-155999031D02*
X124206000Y-151262002D01*
X84201000Y-155194000D02*
X85826011Y-156819011D01*
%TO.N,GPIOI_1*%
X158480000Y-141478000D02*
X159258000Y-142256000D01*
X157734000Y-141478000D02*
X158480000Y-141478000D01*
X159258000Y-138775000D02*
X159131000Y-138648000D01*
X159258000Y-142256000D02*
X159258000Y-138775000D01*
X121666000Y-148590000D02*
X121666000Y-150967000D01*
X163670001Y-126528999D02*
X164338000Y-127196998D01*
X164338000Y-127196998D02*
X164338000Y-127254000D01*
X162973999Y-126528999D02*
X163670001Y-126528999D01*
X159098989Y-130404009D02*
X162973999Y-126528999D01*
X159098989Y-138615989D02*
X159098989Y-130404009D01*
X159131000Y-138648000D02*
X159098989Y-138615989D01*
X136906000Y-136100972D02*
X136906000Y-138938000D01*
X77565412Y-125767000D02*
X76325716Y-125767000D01*
X87789001Y-131666999D02*
X83465411Y-131666999D01*
X83465411Y-131666999D02*
X77565412Y-125767000D01*
X88825983Y-132703981D02*
X87789001Y-131666999D01*
X107049981Y-132703981D02*
X88825983Y-132703981D01*
X107696000Y-133350000D02*
X107049981Y-132703981D01*
X162052000Y-118872000D02*
X162052000Y-122262000D01*
X164338000Y-125222000D02*
X164338000Y-127254000D01*
%TO.N,XSHUT_2*%
X200406000Y-141478000D02*
X199644000Y-142240000D01*
X201422000Y-141478000D02*
X200406000Y-141478000D01*
X199771000Y-142113000D02*
X199644000Y-142240000D01*
X199771000Y-138648000D02*
X199771000Y-142113000D01*
X124206000Y-114899000D02*
X124206000Y-117348000D01*
X86741000Y-154041694D02*
X86741000Y-155194000D01*
X83570653Y-150871347D02*
X86741000Y-154041694D01*
X108453347Y-135640653D02*
X109220000Y-134874000D01*
X107691347Y-135640653D02*
X108453347Y-135640653D01*
X124206000Y-119888000D02*
X124206000Y-117348000D01*
X123698000Y-120396000D02*
X124206000Y-119888000D01*
X197104000Y-118872000D02*
X197104000Y-121158000D01*
X198718990Y-143165010D02*
X199644000Y-142240000D01*
X196194008Y-143165010D02*
X198718990Y-143165010D01*
X193330999Y-140302001D02*
X196194008Y-143165010D01*
X193330999Y-131456567D02*
X193330999Y-140302001D01*
X194524783Y-130262783D02*
X193330999Y-131456567D01*
X97122999Y-156369001D02*
X97942979Y-155549021D01*
X87916001Y-156369001D02*
X97122999Y-156369001D01*
X86741000Y-155194000D02*
X87916001Y-156369001D01*
X103414695Y-155549021D02*
X108018858Y-150944858D01*
X97942979Y-155549021D02*
X103414695Y-155549021D01*
%TO.N,GPIOI_2*%
X197358000Y-138775000D02*
X197231000Y-138648000D01*
X197358000Y-142240000D02*
X197358000Y-138775000D01*
X196342000Y-142240000D02*
X195580000Y-141478000D01*
X197358000Y-142240000D02*
X196342000Y-142240000D01*
X201458999Y-126528999D02*
X201676000Y-126746000D01*
X196882346Y-129958652D02*
X200311999Y-126528999D01*
X196882346Y-131915348D02*
X196882346Y-129958652D01*
X197231000Y-132264002D02*
X196882346Y-131915348D01*
X200311999Y-126528999D02*
X201458999Y-126528999D01*
X197231000Y-138648000D02*
X197231000Y-132264002D01*
X121666000Y-117348000D02*
X121666000Y-114899000D01*
X200152000Y-118872000D02*
X200152000Y-121158000D01*
X201676000Y-124714000D02*
X201676000Y-126746000D01*
%TO.N,XSHUT_0*%
X128016000Y-127000000D02*
X128016000Y-128540000D01*
X81534000Y-155067000D02*
X81661000Y-155194000D01*
X81534000Y-150876000D02*
X81534000Y-155067000D01*
X102652999Y-154649001D02*
X114808000Y-142494000D01*
X98643411Y-154649001D02*
X102652999Y-154649001D01*
X114808000Y-142494000D02*
X117348000Y-142494000D01*
X89306989Y-153568989D02*
X97563399Y-153568989D01*
X97563399Y-153568989D02*
X98643411Y-154649001D01*
X85857510Y-150119510D02*
X89306989Y-153568989D01*
X81793510Y-150119510D02*
X85857510Y-150119510D01*
X81534000Y-150379020D02*
X81793510Y-150119510D01*
X81534000Y-150876000D02*
X81534000Y-150379020D01*
%TO.N,GPIOI_0*%
X130302000Y-127000000D02*
X130302000Y-128556000D01*
X87681003Y-130265001D02*
X114025997Y-130265001D01*
X81876002Y-124460000D02*
X87681003Y-130265001D01*
X77724000Y-124460000D02*
X81876002Y-124460000D01*
X128241499Y-124939499D02*
X119351499Y-124939499D01*
X130302000Y-127000000D02*
X128241499Y-124939499D01*
X114025997Y-130265001D02*
X119351499Y-124939499D01*
%TO.N,LED_3*%
X84201000Y-108136081D02*
X84201000Y-106934000D01*
X83361030Y-108976051D02*
X84201000Y-108136081D01*
X83361030Y-119233442D02*
X83361030Y-108976051D01*
X89921088Y-125793500D02*
X83361030Y-119233442D01*
X92265500Y-125793500D02*
X89921088Y-125793500D01*
%TO.N,LED_4*%
X86741000Y-112649000D02*
X86741000Y-106934000D01*
X84926001Y-114463999D02*
X86741000Y-112649000D01*
X84926001Y-120162003D02*
X84926001Y-114463999D01*
X89033498Y-124269500D02*
X84926001Y-120162003D01*
X92265500Y-124269500D02*
X89033498Y-124269500D01*
%TO.N,LED_5*%
X92272191Y-120795999D02*
X92672190Y-120396000D01*
X86251999Y-120795999D02*
X92272191Y-120795999D01*
X85461990Y-120005990D02*
X86251999Y-120795999D01*
X85461990Y-114659226D02*
X85461990Y-120005990D01*
X87191010Y-112930206D02*
X85461990Y-114659226D01*
X87191010Y-109023990D02*
X87191010Y-112930206D01*
X89281000Y-106934000D02*
X87191010Y-109023990D01*
%TO.N,LED_1*%
X82461010Y-110274010D02*
X79121000Y-106934000D01*
X82461010Y-119606242D02*
X82461010Y-110274010D01*
X91567000Y-128712232D02*
X82461010Y-119606242D01*
X91567000Y-129540000D02*
X91567000Y-128712232D01*
%TO.N,LED_2*%
X82911020Y-108184020D02*
X81661000Y-106934000D01*
X82911020Y-119419842D02*
X82911020Y-108184020D01*
X90745178Y-127254000D02*
X82911020Y-119419842D01*
X92329000Y-127254000D02*
X90745178Y-127254000D01*
%TO.N,SW_1*%
X92329000Y-118364000D02*
X92583000Y-118364000D01*
X88519000Y-118364000D02*
X89789000Y-118364000D01*
X92583000Y-110490000D02*
X92583000Y-118364000D01*
X75830011Y-151326010D02*
X79248000Y-154743999D01*
X72332010Y-151326010D02*
X75830011Y-151326010D01*
X71628000Y-150622000D02*
X72332010Y-151326010D01*
X82150001Y-142893999D02*
X81851500Y-143192500D01*
X84436001Y-142893999D02*
X82150001Y-142893999D01*
X84836000Y-142494000D02*
X84436001Y-142893999D01*
X80772000Y-144272000D02*
X81851500Y-143192500D01*
%TO.N,SW_2*%
X80645000Y-119380000D02*
X81661000Y-118364000D01*
X80645000Y-121412000D02*
X80645000Y-119380000D01*
X84201000Y-112522000D02*
X84201000Y-116586000D01*
X84963000Y-111760000D02*
X84201000Y-112522000D01*
X68829347Y-151642653D02*
X70769346Y-149702654D01*
X82024108Y-141786892D02*
X80809000Y-143002000D01*
X84128892Y-141786892D02*
X82024108Y-141786892D01*
D25*
%TO.N,+5V*%
X93123000Y-134652000D02*
X93091000Y-134620000D01*
X93522000Y-147751000D02*
X92583000Y-146812000D01*
X93522000Y-151638000D02*
X93522000Y-147751000D01*
X92583000Y-149606000D02*
X92075000Y-150114000D01*
X92583000Y-146812000D02*
X92583000Y-149606000D01*
D24*
X90958490Y-145187490D02*
X92583000Y-146812000D01*
X90958490Y-136784510D02*
X90958490Y-145187490D01*
X93091000Y-134652000D02*
X90958490Y-136784510D01*
D25*
%TO.N,Net-(D6-Pad2)*%
X50729000Y-153868000D02*
X49911000Y-154686000D01*
X54229000Y-153868000D02*
X50729000Y-153868000D01*
D24*
%TO.N,Net-(C1-Pad1)*%
X86794000Y-116639000D02*
X86487000Y-116332000D01*
X88519000Y-116639000D02*
X86794000Y-116639000D01*
%TO.N,Net-(C2-Pad1)*%
X81354000Y-116332000D02*
X81661000Y-116639000D01*
X79629000Y-116332000D02*
X81354000Y-116332000D01*
D25*
%TO.N,Net-(C6-Pad1)*%
X93546000Y-142748000D02*
X95631000Y-142748000D01*
D24*
%TO.N,/STM32L151RET6TR/BOOT*%
X65151000Y-132080000D02*
X63373000Y-132080000D01*
%TO.N,/STM32L151RET6TR/RST*%
X54737000Y-125858410D02*
X54737000Y-123952000D01*
X56007000Y-128231002D02*
X56007000Y-127128410D01*
X57296499Y-129520501D02*
X56007000Y-128231002D01*
X66176010Y-131491820D02*
X64204691Y-129520501D01*
X66176010Y-132654012D02*
X66176010Y-131491820D01*
X71697998Y-138176000D02*
X66176010Y-132654012D01*
X56007000Y-127128410D02*
X54737000Y-125858410D01*
X64204691Y-129520501D02*
X57296499Y-129520501D01*
X72771000Y-138176000D02*
X71697998Y-138176000D01*
%TO.N,SCL1*%
X54901588Y-127762000D02*
X54737000Y-127762000D01*
X57277000Y-130137412D02*
X54901588Y-127762000D01*
X57277000Y-132842000D02*
X57277000Y-130137412D01*
X242951000Y-140843000D02*
X242824000Y-140970000D01*
X242951000Y-138648000D02*
X242951000Y-140843000D01*
X204724000Y-138775000D02*
X204851000Y-138648000D01*
X204724000Y-141478000D02*
X204724000Y-138775000D01*
X166878000Y-138775000D02*
X166751000Y-138648000D01*
X166878000Y-141478000D02*
X166878000Y-138775000D01*
X129286000Y-142240000D02*
X129286000Y-139664000D01*
X129286000Y-150967000D02*
X129286000Y-142240000D01*
X129286000Y-150967000D02*
X129286000Y-153416000D01*
X129286000Y-142240000D02*
X131572000Y-142240000D01*
X131572000Y-142240000D02*
X133604000Y-140208000D01*
X133604000Y-119217000D02*
X129286000Y-114899000D01*
X133604000Y-140208000D02*
X133604000Y-119217000D01*
X167640000Y-132080000D02*
X166624000Y-132080000D01*
X139954000Y-138938000D02*
X139954000Y-134403000D01*
X204978000Y-131318000D02*
X204498501Y-131797499D01*
X206756000Y-131318000D02*
X204978000Y-131318000D01*
X243332000Y-130810000D02*
X242344501Y-131797499D01*
X243332000Y-130302000D02*
X243332000Y-130810000D01*
X168275000Y-131445000D02*
X167640000Y-132080000D01*
X160202001Y-116895001D02*
X160202001Y-122262000D01*
X158877000Y-115570000D02*
X160202001Y-116895001D01*
X198628000Y-117094000D02*
X198628000Y-121158000D01*
X197104000Y-115570000D02*
X198628000Y-117094000D01*
X236529001Y-121102999D02*
X236474000Y-121158000D01*
X236529001Y-116895001D02*
X236529001Y-121102999D01*
X235204000Y-115570000D02*
X236529001Y-116895001D01*
X49657000Y-113030000D02*
X49657000Y-106934000D01*
X49657000Y-114046000D02*
X49657000Y-113030000D01*
X53467000Y-117856000D02*
X49657000Y-114046000D01*
X53467000Y-126492000D02*
X53467000Y-117856000D01*
X54737000Y-127762000D02*
X53467000Y-126492000D01*
%TO.N,SDA1*%
X56101999Y-126586999D02*
X57277000Y-127762000D01*
X56101999Y-119767997D02*
X56101999Y-126586999D01*
X52510001Y-116175999D02*
X56101999Y-119767997D01*
X52510001Y-107247001D02*
X52510001Y-116175999D01*
X52197000Y-106934000D02*
X52510001Y-107247001D01*
X58039000Y-133105306D02*
X58039000Y-130302000D01*
X57281653Y-133862653D02*
X58039000Y-133105306D01*
X240538000Y-138775000D02*
X240411000Y-138648000D01*
X240538000Y-141224000D02*
X240538000Y-138775000D01*
X202438000Y-138775000D02*
X202311000Y-138648000D01*
X202438000Y-141478000D02*
X202438000Y-138775000D01*
X164338000Y-138775000D02*
X164211000Y-138648000D01*
X164338000Y-141478000D02*
X164338000Y-138775000D01*
X126746000Y-142240000D02*
X126746000Y-139664000D01*
X126746000Y-150967000D02*
X126746000Y-142240000D01*
X126746000Y-153416000D02*
X126746000Y-150967000D01*
X126746000Y-116649000D02*
X126746000Y-114899000D01*
X127191000Y-117094000D02*
X126746000Y-116649000D01*
X130844590Y-117094000D02*
X127191000Y-117094000D01*
X133153990Y-119403400D02*
X130844590Y-117094000D01*
X133153990Y-136848010D02*
X133153990Y-119403400D01*
X132588000Y-137414000D02*
X133153990Y-136848010D01*
X128016000Y-137414000D02*
X132588000Y-137414000D01*
X126746000Y-138684000D02*
X128016000Y-137414000D01*
X126746000Y-139664000D02*
X126746000Y-138684000D01*
X138938000Y-138938000D02*
X138938000Y-135128000D01*
X166116000Y-129540000D02*
X165608000Y-130048000D01*
X167640000Y-129540000D02*
X166116000Y-129540000D01*
X163377001Y-122063001D02*
X163576000Y-122262000D01*
X163377001Y-116895001D02*
X163377001Y-122063001D01*
X162052000Y-115570000D02*
X163377001Y-116895001D01*
X201676000Y-117094000D02*
X201676000Y-121158000D01*
X200152000Y-115570000D02*
X201676000Y-117094000D01*
X203708000Y-123190000D02*
X203708000Y-128778000D01*
X201676000Y-121158000D02*
X203708000Y-123190000D01*
X241554000Y-121485000D02*
X241554000Y-128524000D01*
X239577001Y-119508001D02*
X241554000Y-121485000D01*
X239577001Y-116895001D02*
X239577001Y-119508001D01*
X238252000Y-115570000D02*
X239577001Y-116895001D01*
%TO.N,/STM32L151RET6TR/FTDI_RTS*%
X67402990Y-129817674D02*
X67662158Y-130076842D01*
X67662158Y-130076842D02*
X67402990Y-129817675D01*
X67945000Y-123444000D02*
X66675000Y-124714000D01*
X66675000Y-129089684D02*
X67402990Y-129817674D01*
X66675000Y-124714000D02*
X66675000Y-129089684D01*
X68141316Y-130556000D02*
X67662158Y-130076842D01*
X69469000Y-130556000D02*
X68141316Y-130556000D01*
%TO.N,/STM32L151RET6TR/FTDI_CTS*%
X64897000Y-121666998D02*
X64897000Y-120142000D01*
X66167000Y-129286000D02*
X66167000Y-122936998D01*
X66167000Y-122936998D02*
X64897000Y-121666998D01*
X68453000Y-131572000D02*
X66167000Y-129286000D01*
X69723000Y-131572000D02*
X68453000Y-131572000D01*
%TO.N,/STM32L151RET6TR/SW0*%
X62611000Y-125730000D02*
X59563000Y-125730000D01*
X59563000Y-125730000D02*
X57023000Y-125730000D01*
%TO.N,SCL2*%
X56515000Y-114554000D02*
X56515000Y-112776000D01*
X56515000Y-112014000D02*
X56515000Y-112776000D01*
X54991000Y-110490000D02*
X56515000Y-112014000D01*
X56515000Y-116332000D02*
X56515000Y-114554000D01*
X74803000Y-124206000D02*
X72517000Y-121920000D01*
X74803000Y-128016000D02*
X74803000Y-124206000D01*
%TO.N,SDA2*%
X59055000Y-114554000D02*
X59055000Y-112776000D01*
X73279000Y-120084998D02*
X73279000Y-119888000D01*
X70993000Y-122370998D02*
X73279000Y-120084998D01*
X70993000Y-126746000D02*
X70993000Y-122370998D01*
X59055000Y-112014000D02*
X59055000Y-112776000D01*
X57531000Y-110490000D02*
X59055000Y-112014000D01*
X59055000Y-116332000D02*
X59055000Y-114554000D01*
%TO.N,/STM32L151RET6TR/PIN41*%
X72771000Y-127284000D02*
X73503000Y-128016000D01*
X72771000Y-125984000D02*
X72771000Y-127284000D01*
%TO.N,/STM32L151RET6TR/PIN29*%
X76103000Y-129764000D02*
X75819000Y-130048000D01*
X76103000Y-128016000D02*
X76103000Y-129764000D01*
%TO.N,/STM32L151RET6TR/PIN30*%
X71785000Y-128046000D02*
X70993000Y-128046000D01*
X70993000Y-128046000D02*
X71993000Y-128046000D01*
X74121662Y-130048000D02*
X74803000Y-130048000D01*
X72119662Y-128046000D02*
X74121662Y-130048000D01*
X70993000Y-128046000D02*
X72119662Y-128046000D01*
%TO.N,/STM32L151RET6TR/PC8*%
X61595000Y-114554000D02*
X61595000Y-112776000D01*
%TO.N,/STM32L151RET6TR/PA9*%
X53975000Y-114554000D02*
X53975000Y-112776000D01*
%TO.N,/STM32L151RET6TR/PA10*%
X51435000Y-114300000D02*
X51435000Y-112776000D01*
D25*
%TO.N,Net-(C6-Pad2)*%
X91823000Y-142748000D02*
X93921000Y-140650000D01*
X91821000Y-142748000D02*
X91823000Y-142748000D01*
%TO.N,Net-(JP4-Pad1)*%
X101249000Y-139508000D02*
X101949000Y-140208000D01*
X101249000Y-137668000D02*
X101249000Y-139508000D01*
D24*
%TO.N,BUCK_5_EN*%
X98867000Y-138750000D02*
X99949000Y-137668000D01*
X97341000Y-138750000D02*
X98867000Y-138750000D01*
X99949000Y-137132998D02*
X99949000Y-137668000D01*
X100457000Y-136624998D02*
X99949000Y-137132998D01*
X100457000Y-135128000D02*
X100457000Y-136624998D01*
X98933000Y-133604000D02*
X100457000Y-135128000D01*
X89458476Y-136671334D02*
X92525810Y-133604000D01*
X72536334Y-136671334D02*
X89458476Y-136671334D01*
X92525810Y-133604000D02*
X98933000Y-133604000D01*
X69977000Y-134112000D02*
X72536334Y-136671334D01*
%TO.N,XSHUT_3*%
X237871000Y-138648000D02*
X237871000Y-142240000D01*
X238887000Y-141224000D02*
X237871000Y-142240000D01*
X239522000Y-141224000D02*
X238887000Y-141224000D01*
X124206000Y-141986000D02*
X124206000Y-139664000D01*
X84953694Y-150866694D02*
X84591306Y-150866694D01*
X89281000Y-155194000D02*
X84953694Y-150866694D01*
X235204000Y-118872000D02*
X235204000Y-121158000D01*
X236913990Y-143197010D02*
X237871000Y-142240000D01*
X231430999Y-140123001D02*
X234505008Y-143197010D01*
X231430999Y-131281001D02*
X231430999Y-140123001D01*
X234505008Y-143197010D02*
X236913990Y-143197010D01*
X235204000Y-127508000D02*
X231430999Y-131281001D01*
X97376999Y-154018999D02*
X90456001Y-154018999D01*
X114455911Y-143482499D02*
X102839399Y-155099011D01*
X118082499Y-143482499D02*
X114455911Y-143482499D01*
X98457011Y-155099011D02*
X97376999Y-154018999D01*
X118853997Y-142711001D02*
X118082499Y-143482499D01*
X90456001Y-154018999D02*
X89281000Y-155194000D01*
X123480999Y-142711001D02*
X118853997Y-142711001D01*
X102839399Y-155099011D02*
X98457011Y-155099011D01*
X124206000Y-141986000D02*
X123480999Y-142711001D01*
D25*
%TO.N,Net-(R19-Pad1)*%
X97663000Y-134652000D02*
X95377000Y-134652000D01*
%TO.N,Net-(R26-Pad1)*%
X95377000Y-136652000D02*
X93091000Y-136652000D01*
X93921000Y-137482000D02*
X93091000Y-136652000D01*
X93921000Y-138750000D02*
X93921000Y-137482000D01*
D26*
%TO.N,/OUT5.0*%
X97631000Y-141115001D02*
X97341000Y-140825001D01*
X97631000Y-142748000D02*
X97631000Y-141115001D01*
X97631000Y-146264000D02*
X97083000Y-146812000D01*
X97631000Y-142748000D02*
X97631000Y-146264000D01*
X98029001Y-147758001D02*
X99559003Y-147758001D01*
X97083000Y-146812000D02*
X98029001Y-147758001D01*
X100711000Y-146606004D02*
X100711000Y-146384000D01*
X99559003Y-147758001D02*
X100711000Y-146606004D01*
X100711000Y-146384000D02*
X99488000Y-145161000D01*
X99488000Y-145161000D02*
X98425000Y-145161000D01*
D24*
%TO.N,GPIOI_3*%
X235331000Y-141891000D02*
X235712000Y-142272000D01*
X235331000Y-138648000D02*
X235331000Y-141891000D01*
X234982000Y-142272000D02*
X233934000Y-141224000D01*
X235712000Y-142272000D02*
X234982000Y-142272000D01*
X238448998Y-126238000D02*
X239776000Y-126238000D01*
X235230999Y-129455999D02*
X238448998Y-126238000D01*
X235230999Y-138547999D02*
X235230999Y-129455999D01*
X235331000Y-138648000D02*
X235230999Y-138547999D01*
X121666000Y-141986000D02*
X121666000Y-139664000D01*
X85274002Y-134112000D02*
X77654002Y-126492000D01*
X87376000Y-134112000D02*
X85274002Y-134112000D01*
X88334010Y-133153990D02*
X87376000Y-134112000D01*
X100641990Y-133153990D02*
X88334010Y-133153990D01*
X101602501Y-134114501D02*
X100641990Y-133153990D01*
X110741499Y-134114501D02*
X101602501Y-134114501D01*
X77654002Y-126492000D02*
X75528000Y-126492000D01*
X118612998Y-141986000D02*
X110741499Y-134114501D01*
X121666000Y-141986000D02*
X118612998Y-141986000D01*
X238252000Y-124714000D02*
X239776000Y-126238000D01*
X238252000Y-118872000D02*
X238252000Y-124714000D01*
%TD*%
M02*
