%TF.GenerationSoftware,KiCad,Pcbnew,(6.0.2)*%
%TF.CreationDate,2022-03-10T15:52:04+01:00*%
%TF.ProjectId,GestureControl,47657374-7572-4654-936f-6e74726f6c2e,V0.1*%
%TF.SameCoordinates,Original*%
%TF.FileFunction,Legend,Bot*%
%TF.FilePolarity,Positive*%
%FSLAX46Y46*%
G04 Gerber Fmt 4.6, Leading zero omitted, Abs format (unit mm)*
G04 Created by KiCad (PCBNEW (6.0.2)) date 2022-03-10 15:52:04*
%MOMM*%
%LPD*%
G01*
G04 APERTURE LIST*
%ADD10C,0.150000*%
%ADD11C,0.120000*%
%ADD12C,0.200000*%
G04 APERTURE END LIST*
D10*
X231846428Y-145750595D02*
X231846428Y-146512500D01*
X240752380Y-145528357D02*
X241752380Y-146195023D01*
X240752380Y-146195023D02*
X241752380Y-145528357D01*
X241704761Y-146528357D02*
X241752380Y-146671214D01*
X241752380Y-146909309D01*
X241704761Y-147004547D01*
X241657142Y-147052166D01*
X241561904Y-147099785D01*
X241466666Y-147099785D01*
X241371428Y-147052166D01*
X241323809Y-147004547D01*
X241276190Y-146909309D01*
X241228571Y-146718833D01*
X241180952Y-146623595D01*
X241133333Y-146575976D01*
X241038095Y-146528357D01*
X240942857Y-146528357D01*
X240847619Y-146575976D01*
X240800000Y-146623595D01*
X240752380Y-146718833D01*
X240752380Y-146956928D01*
X240800000Y-147099785D01*
X241752380Y-148052166D02*
X241752380Y-147480738D01*
X241752380Y-147766452D02*
X240752380Y-147766452D01*
X240895238Y-147671214D01*
X240990476Y-147575976D01*
X241038095Y-147480738D01*
X248102380Y-145623595D02*
X247102380Y-145623595D01*
X247102380Y-145861690D01*
X247150000Y-146004547D01*
X247245238Y-146099785D01*
X247340476Y-146147404D01*
X247530952Y-146195023D01*
X247673809Y-146195023D01*
X247864285Y-146147404D01*
X247959523Y-146099785D01*
X248054761Y-146004547D01*
X248102380Y-145861690D01*
X248102380Y-145623595D01*
X247816666Y-146575976D02*
X247816666Y-147052166D01*
X248102380Y-146480738D02*
X247102380Y-146814071D01*
X248102380Y-147147404D01*
X248102380Y-148004547D02*
X248102380Y-147433119D01*
X248102380Y-147718833D02*
X247102380Y-147718833D01*
X247245238Y-147623595D01*
X247340476Y-147528357D01*
X247388095Y-147433119D01*
X237625000Y-146147404D02*
X237577380Y-146052166D01*
X237577380Y-145909309D01*
X237625000Y-145766452D01*
X237720238Y-145671214D01*
X237815476Y-145623595D01*
X238005952Y-145575976D01*
X238148809Y-145575976D01*
X238339285Y-145623595D01*
X238434523Y-145671214D01*
X238529761Y-145766452D01*
X238577380Y-145909309D01*
X238577380Y-146004547D01*
X238529761Y-146147404D01*
X238482142Y-146195023D01*
X238148809Y-146195023D01*
X238148809Y-146004547D01*
X238577380Y-147147404D02*
X238577380Y-146575976D01*
X238577380Y-146861690D02*
X237577380Y-146861690D01*
X237720238Y-146766452D01*
X237815476Y-146671214D01*
X237863095Y-146575976D01*
X234402380Y-145528357D02*
X234402380Y-146147404D01*
X234783333Y-145814071D01*
X234783333Y-145956928D01*
X234830952Y-146052166D01*
X234878571Y-146099785D01*
X234973809Y-146147404D01*
X235211904Y-146147404D01*
X235307142Y-146099785D01*
X235354761Y-146052166D01*
X235402380Y-145956928D01*
X235402380Y-145671214D01*
X235354761Y-145575976D01*
X235307142Y-145528357D01*
X234402380Y-146433119D02*
X235402380Y-146766452D01*
X234402380Y-147099785D01*
X234402380Y-147337880D02*
X234402380Y-147956928D01*
X234783333Y-147623595D01*
X234783333Y-147766452D01*
X234830952Y-147861690D01*
X234878571Y-147909309D01*
X234973809Y-147956928D01*
X235211904Y-147956928D01*
X235307142Y-147909309D01*
X235354761Y-147861690D01*
X235402380Y-147766452D01*
X235402380Y-147480738D01*
X235354761Y-147385500D01*
X235307142Y-147337880D01*
X244832142Y-146195023D02*
X244879761Y-146147404D01*
X244927380Y-146004547D01*
X244927380Y-145909309D01*
X244879761Y-145766452D01*
X244784523Y-145671214D01*
X244689285Y-145623595D01*
X244498809Y-145575976D01*
X244355952Y-145575976D01*
X244165476Y-145623595D01*
X244070238Y-145671214D01*
X243975000Y-145766452D01*
X243927380Y-145909309D01*
X243927380Y-146004547D01*
X243975000Y-146147404D01*
X244022619Y-146195023D01*
X244927380Y-147099785D02*
X244927380Y-146623595D01*
X243927380Y-146623595D01*
X244927380Y-147956928D02*
X244927380Y-147385500D01*
X244927380Y-147671214D02*
X243927380Y-147671214D01*
X244070238Y-147575976D01*
X244165476Y-147480738D01*
X244213095Y-147385500D01*
X193619428Y-145623595D02*
X193619428Y-146385500D01*
X202525380Y-145401357D02*
X203525380Y-146068023D01*
X202525380Y-146068023D02*
X203525380Y-145401357D01*
X203477761Y-146401357D02*
X203525380Y-146544214D01*
X203525380Y-146782309D01*
X203477761Y-146877547D01*
X203430142Y-146925166D01*
X203334904Y-146972785D01*
X203239666Y-146972785D01*
X203144428Y-146925166D01*
X203096809Y-146877547D01*
X203049190Y-146782309D01*
X203001571Y-146591833D01*
X202953952Y-146496595D01*
X202906333Y-146448976D01*
X202811095Y-146401357D01*
X202715857Y-146401357D01*
X202620619Y-146448976D01*
X202573000Y-146496595D01*
X202525380Y-146591833D01*
X202525380Y-146829928D01*
X202573000Y-146972785D01*
X203525380Y-147925166D02*
X203525380Y-147353738D01*
X203525380Y-147639452D02*
X202525380Y-147639452D01*
X202668238Y-147544214D01*
X202763476Y-147448976D01*
X202811095Y-147353738D01*
X209875380Y-145496595D02*
X208875380Y-145496595D01*
X208875380Y-145734690D01*
X208923000Y-145877547D01*
X209018238Y-145972785D01*
X209113476Y-146020404D01*
X209303952Y-146068023D01*
X209446809Y-146068023D01*
X209637285Y-146020404D01*
X209732523Y-145972785D01*
X209827761Y-145877547D01*
X209875380Y-145734690D01*
X209875380Y-145496595D01*
X209589666Y-146448976D02*
X209589666Y-146925166D01*
X209875380Y-146353738D02*
X208875380Y-146687071D01*
X209875380Y-147020404D01*
X209875380Y-147877547D02*
X209875380Y-147306119D01*
X209875380Y-147591833D02*
X208875380Y-147591833D01*
X209018238Y-147496595D01*
X209113476Y-147401357D01*
X209161095Y-147306119D01*
X199398000Y-146020404D02*
X199350380Y-145925166D01*
X199350380Y-145782309D01*
X199398000Y-145639452D01*
X199493238Y-145544214D01*
X199588476Y-145496595D01*
X199778952Y-145448976D01*
X199921809Y-145448976D01*
X200112285Y-145496595D01*
X200207523Y-145544214D01*
X200302761Y-145639452D01*
X200350380Y-145782309D01*
X200350380Y-145877547D01*
X200302761Y-146020404D01*
X200255142Y-146068023D01*
X199921809Y-146068023D01*
X199921809Y-145877547D01*
X200350380Y-147020404D02*
X200350380Y-146448976D01*
X200350380Y-146734690D02*
X199350380Y-146734690D01*
X199493238Y-146639452D01*
X199588476Y-146544214D01*
X199636095Y-146448976D01*
X196175380Y-145401357D02*
X196175380Y-146020404D01*
X196556333Y-145687071D01*
X196556333Y-145829928D01*
X196603952Y-145925166D01*
X196651571Y-145972785D01*
X196746809Y-146020404D01*
X196984904Y-146020404D01*
X197080142Y-145972785D01*
X197127761Y-145925166D01*
X197175380Y-145829928D01*
X197175380Y-145544214D01*
X197127761Y-145448976D01*
X197080142Y-145401357D01*
X196175380Y-146306119D02*
X197175380Y-146639452D01*
X196175380Y-146972785D01*
X196175380Y-147210880D02*
X196175380Y-147829928D01*
X196556333Y-147496595D01*
X196556333Y-147639452D01*
X196603952Y-147734690D01*
X196651571Y-147782309D01*
X196746809Y-147829928D01*
X196984904Y-147829928D01*
X197080142Y-147782309D01*
X197127761Y-147734690D01*
X197175380Y-147639452D01*
X197175380Y-147353738D01*
X197127761Y-147258500D01*
X197080142Y-147210880D01*
X206605142Y-146068023D02*
X206652761Y-146020404D01*
X206700380Y-145877547D01*
X206700380Y-145782309D01*
X206652761Y-145639452D01*
X206557523Y-145544214D01*
X206462285Y-145496595D01*
X206271809Y-145448976D01*
X206128952Y-145448976D01*
X205938476Y-145496595D01*
X205843238Y-145544214D01*
X205748000Y-145639452D01*
X205700380Y-145782309D01*
X205700380Y-145877547D01*
X205748000Y-146020404D01*
X205795619Y-146068023D01*
X206700380Y-146972785D02*
X206700380Y-146496595D01*
X205700380Y-146496595D01*
X206700380Y-147829928D02*
X206700380Y-147258500D01*
X206700380Y-147544214D02*
X205700380Y-147544214D01*
X205843238Y-147448976D01*
X205938476Y-147353738D01*
X205986095Y-147258500D01*
X171775380Y-145496595D02*
X170775380Y-145496595D01*
X170775380Y-145734690D01*
X170823000Y-145877547D01*
X170918238Y-145972785D01*
X171013476Y-146020404D01*
X171203952Y-146068023D01*
X171346809Y-146068023D01*
X171537285Y-146020404D01*
X171632523Y-145972785D01*
X171727761Y-145877547D01*
X171775380Y-145734690D01*
X171775380Y-145496595D01*
X171489666Y-146448976D02*
X171489666Y-146925166D01*
X171775380Y-146353738D02*
X170775380Y-146687071D01*
X171775380Y-147020404D01*
X171775380Y-147877547D02*
X171775380Y-147306119D01*
X171775380Y-147591833D02*
X170775380Y-147591833D01*
X170918238Y-147496595D01*
X171013476Y-147401357D01*
X171061095Y-147306119D01*
X168505142Y-146068023D02*
X168552761Y-146020404D01*
X168600380Y-145877547D01*
X168600380Y-145782309D01*
X168552761Y-145639452D01*
X168457523Y-145544214D01*
X168362285Y-145496595D01*
X168171809Y-145448976D01*
X168028952Y-145448976D01*
X167838476Y-145496595D01*
X167743238Y-145544214D01*
X167648000Y-145639452D01*
X167600380Y-145782309D01*
X167600380Y-145877547D01*
X167648000Y-146020404D01*
X167695619Y-146068023D01*
X168600380Y-146972785D02*
X168600380Y-146496595D01*
X167600380Y-146496595D01*
X168600380Y-147829928D02*
X168600380Y-147258500D01*
X168600380Y-147544214D02*
X167600380Y-147544214D01*
X167743238Y-147448976D01*
X167838476Y-147353738D01*
X167886095Y-147258500D01*
X164425380Y-145401357D02*
X165425380Y-146068023D01*
X164425380Y-146068023D02*
X165425380Y-145401357D01*
X165377761Y-146401357D02*
X165425380Y-146544214D01*
X165425380Y-146782309D01*
X165377761Y-146877547D01*
X165330142Y-146925166D01*
X165234904Y-146972785D01*
X165139666Y-146972785D01*
X165044428Y-146925166D01*
X164996809Y-146877547D01*
X164949190Y-146782309D01*
X164901571Y-146591833D01*
X164853952Y-146496595D01*
X164806333Y-146448976D01*
X164711095Y-146401357D01*
X164615857Y-146401357D01*
X164520619Y-146448976D01*
X164473000Y-146496595D01*
X164425380Y-146591833D01*
X164425380Y-146829928D01*
X164473000Y-146972785D01*
X165425380Y-147925166D02*
X165425380Y-147353738D01*
X165425380Y-147639452D02*
X164425380Y-147639452D01*
X164568238Y-147544214D01*
X164663476Y-147448976D01*
X164711095Y-147353738D01*
X161298000Y-146020404D02*
X161250380Y-145925166D01*
X161250380Y-145782309D01*
X161298000Y-145639452D01*
X161393238Y-145544214D01*
X161488476Y-145496595D01*
X161678952Y-145448976D01*
X161821809Y-145448976D01*
X162012285Y-145496595D01*
X162107523Y-145544214D01*
X162202761Y-145639452D01*
X162250380Y-145782309D01*
X162250380Y-145877547D01*
X162202761Y-146020404D01*
X162155142Y-146068023D01*
X161821809Y-146068023D01*
X161821809Y-145877547D01*
X162250380Y-147020404D02*
X162250380Y-146448976D01*
X162250380Y-146734690D02*
X161250380Y-146734690D01*
X161393238Y-146639452D01*
X161488476Y-146544214D01*
X161536095Y-146448976D01*
X158075380Y-145401357D02*
X158075380Y-146020404D01*
X158456333Y-145687071D01*
X158456333Y-145829928D01*
X158503952Y-145925166D01*
X158551571Y-145972785D01*
X158646809Y-146020404D01*
X158884904Y-146020404D01*
X158980142Y-145972785D01*
X159027761Y-145925166D01*
X159075380Y-145829928D01*
X159075380Y-145544214D01*
X159027761Y-145448976D01*
X158980142Y-145401357D01*
X158075380Y-146306119D02*
X159075380Y-146639452D01*
X158075380Y-146972785D01*
X158075380Y-147210880D02*
X158075380Y-147829928D01*
X158456333Y-147496595D01*
X158456333Y-147639452D01*
X158503952Y-147734690D01*
X158551571Y-147782309D01*
X158646809Y-147829928D01*
X158884904Y-147829928D01*
X158980142Y-147782309D01*
X159027761Y-147734690D01*
X159075380Y-147639452D01*
X159075380Y-147353738D01*
X159027761Y-147258500D01*
X158980142Y-147210880D01*
X155519428Y-145623595D02*
X155519428Y-146385500D01*
X68334000Y-104491404D02*
X68286380Y-104396166D01*
X68286380Y-104253309D01*
X68334000Y-104110452D01*
X68429238Y-104015214D01*
X68524476Y-103967595D01*
X68714952Y-103919976D01*
X68857809Y-103919976D01*
X69048285Y-103967595D01*
X69143523Y-104015214D01*
X69238761Y-104110452D01*
X69286380Y-104253309D01*
X69286380Y-104348547D01*
X69238761Y-104491404D01*
X69191142Y-104539023D01*
X68857809Y-104539023D01*
X68857809Y-104348547D01*
X68286380Y-104872357D02*
X68286380Y-105491404D01*
X68667333Y-105158071D01*
X68667333Y-105300928D01*
X68714952Y-105396166D01*
X68762571Y-105443785D01*
X68857809Y-105491404D01*
X69095904Y-105491404D01*
X69191142Y-105443785D01*
X69238761Y-105396166D01*
X69286380Y-105300928D01*
X69286380Y-105015214D01*
X69238761Y-104919976D01*
X69191142Y-104872357D01*
X70874000Y-104491404D02*
X70826380Y-104396166D01*
X70826380Y-104253309D01*
X70874000Y-104110452D01*
X70969238Y-104015214D01*
X71064476Y-103967595D01*
X71254952Y-103919976D01*
X71397809Y-103919976D01*
X71588285Y-103967595D01*
X71683523Y-104015214D01*
X71778761Y-104110452D01*
X71826380Y-104253309D01*
X71826380Y-104348547D01*
X71778761Y-104491404D01*
X71731142Y-104539023D01*
X71397809Y-104539023D01*
X71397809Y-104348547D01*
X70921619Y-104919976D02*
X70874000Y-104967595D01*
X70826380Y-105062833D01*
X70826380Y-105300928D01*
X70874000Y-105396166D01*
X70921619Y-105443785D01*
X71016857Y-105491404D01*
X71112095Y-105491404D01*
X71254952Y-105443785D01*
X71826380Y-104872357D01*
X71826380Y-105491404D01*
X73414000Y-104491404D02*
X73366380Y-104396166D01*
X73366380Y-104253309D01*
X73414000Y-104110452D01*
X73509238Y-104015214D01*
X73604476Y-103967595D01*
X73794952Y-103919976D01*
X73937809Y-103919976D01*
X74128285Y-103967595D01*
X74223523Y-104015214D01*
X74318761Y-104110452D01*
X74366380Y-104253309D01*
X74366380Y-104348547D01*
X74318761Y-104491404D01*
X74271142Y-104539023D01*
X73937809Y-104539023D01*
X73937809Y-104348547D01*
X74366380Y-105491404D02*
X74366380Y-104919976D01*
X74366380Y-105205690D02*
X73366380Y-105205690D01*
X73509238Y-105110452D01*
X73604476Y-105015214D01*
X73652095Y-104919976D01*
X75954000Y-104491404D02*
X75906380Y-104396166D01*
X75906380Y-104253309D01*
X75954000Y-104110452D01*
X76049238Y-104015214D01*
X76144476Y-103967595D01*
X76334952Y-103919976D01*
X76477809Y-103919976D01*
X76668285Y-103967595D01*
X76763523Y-104015214D01*
X76858761Y-104110452D01*
X76906380Y-104253309D01*
X76906380Y-104348547D01*
X76858761Y-104491404D01*
X76811142Y-104539023D01*
X76477809Y-104539023D01*
X76477809Y-104348547D01*
X75906380Y-105158071D02*
X75906380Y-105253309D01*
X75954000Y-105348547D01*
X76001619Y-105396166D01*
X76096857Y-105443785D01*
X76287333Y-105491404D01*
X76525428Y-105491404D01*
X76715904Y-105443785D01*
X76811142Y-105396166D01*
X76858761Y-105348547D01*
X76906380Y-105253309D01*
X76906380Y-105158071D01*
X76858761Y-105062833D01*
X76811142Y-105015214D01*
X76715904Y-104967595D01*
X76525428Y-104919976D01*
X76287333Y-104919976D01*
X76096857Y-104967595D01*
X76001619Y-105015214D01*
X75954000Y-105062833D01*
X75906380Y-105158071D01*
X88590380Y-109015785D02*
X88590380Y-108539595D01*
X87590380Y-108539595D01*
X88066571Y-109349119D02*
X88066571Y-109682452D01*
X88590380Y-109825309D02*
X88590380Y-109349119D01*
X87590380Y-109349119D01*
X87590380Y-109825309D01*
X88590380Y-110253880D02*
X87590380Y-110253880D01*
X87590380Y-110491976D01*
X87638000Y-110634833D01*
X87733238Y-110730071D01*
X87828476Y-110777690D01*
X88018952Y-110825309D01*
X88161809Y-110825309D01*
X88352285Y-110777690D01*
X88447523Y-110730071D01*
X88542761Y-110634833D01*
X88590380Y-110491976D01*
X88590380Y-110253880D01*
X88590380Y-111777690D02*
X88590380Y-111206261D01*
X88590380Y-111491976D02*
X87590380Y-111491976D01*
X87733238Y-111396738D01*
X87828476Y-111301500D01*
X87876095Y-111206261D01*
X91130380Y-109015785D02*
X91130380Y-108539595D01*
X90130380Y-108539595D01*
X90606571Y-109349119D02*
X90606571Y-109682452D01*
X91130380Y-109825309D02*
X91130380Y-109349119D01*
X90130380Y-109349119D01*
X90130380Y-109825309D01*
X91130380Y-110253880D02*
X90130380Y-110253880D01*
X90130380Y-110491976D01*
X90178000Y-110634833D01*
X90273238Y-110730071D01*
X90368476Y-110777690D01*
X90558952Y-110825309D01*
X90701809Y-110825309D01*
X90892285Y-110777690D01*
X90987523Y-110730071D01*
X91082761Y-110634833D01*
X91130380Y-110491976D01*
X91130380Y-110253880D01*
X90225619Y-111206261D02*
X90178000Y-111253880D01*
X90130380Y-111349119D01*
X90130380Y-111587214D01*
X90178000Y-111682452D01*
X90225619Y-111730071D01*
X90320857Y-111777690D01*
X90416095Y-111777690D01*
X90558952Y-111730071D01*
X91130380Y-111158642D01*
X91130380Y-111777690D01*
X93670380Y-109015785D02*
X93670380Y-108539595D01*
X92670380Y-108539595D01*
X93146571Y-109349119D02*
X93146571Y-109682452D01*
X93670380Y-109825309D02*
X93670380Y-109349119D01*
X92670380Y-109349119D01*
X92670380Y-109825309D01*
X93670380Y-110253880D02*
X92670380Y-110253880D01*
X92670380Y-110491976D01*
X92718000Y-110634833D01*
X92813238Y-110730071D01*
X92908476Y-110777690D01*
X93098952Y-110825309D01*
X93241809Y-110825309D01*
X93432285Y-110777690D01*
X93527523Y-110730071D01*
X93622761Y-110634833D01*
X93670380Y-110491976D01*
X93670380Y-110253880D01*
X92670380Y-111158642D02*
X92670380Y-111777690D01*
X93051333Y-111444357D01*
X93051333Y-111587214D01*
X93098952Y-111682452D01*
X93146571Y-111730071D01*
X93241809Y-111777690D01*
X93479904Y-111777690D01*
X93575142Y-111730071D01*
X93622761Y-111682452D01*
X93670380Y-111587214D01*
X93670380Y-111301500D01*
X93622761Y-111206261D01*
X93575142Y-111158642D01*
X96210380Y-109015785D02*
X96210380Y-108539595D01*
X95210380Y-108539595D01*
X95686571Y-109349119D02*
X95686571Y-109682452D01*
X96210380Y-109825309D02*
X96210380Y-109349119D01*
X95210380Y-109349119D01*
X95210380Y-109825309D01*
X96210380Y-110253880D02*
X95210380Y-110253880D01*
X95210380Y-110491976D01*
X95258000Y-110634833D01*
X95353238Y-110730071D01*
X95448476Y-110777690D01*
X95638952Y-110825309D01*
X95781809Y-110825309D01*
X95972285Y-110777690D01*
X96067523Y-110730071D01*
X96162761Y-110634833D01*
X96210380Y-110491976D01*
X96210380Y-110253880D01*
X95543714Y-111682452D02*
X96210380Y-111682452D01*
X95162761Y-111444357D02*
X95877047Y-111206261D01*
X95877047Y-111825309D01*
X98750380Y-109015785D02*
X98750380Y-108539595D01*
X97750380Y-108539595D01*
X98226571Y-109349119D02*
X98226571Y-109682452D01*
X98750380Y-109825309D02*
X98750380Y-109349119D01*
X97750380Y-109349119D01*
X97750380Y-109825309D01*
X98750380Y-110253880D02*
X97750380Y-110253880D01*
X97750380Y-110491976D01*
X97798000Y-110634833D01*
X97893238Y-110730071D01*
X97988476Y-110777690D01*
X98178952Y-110825309D01*
X98321809Y-110825309D01*
X98512285Y-110777690D01*
X98607523Y-110730071D01*
X98702761Y-110634833D01*
X98750380Y-110491976D01*
X98750380Y-110253880D01*
X97750380Y-111730071D02*
X97750380Y-111253880D01*
X98226571Y-111206261D01*
X98178952Y-111253880D01*
X98131333Y-111349119D01*
X98131333Y-111587214D01*
X98178952Y-111682452D01*
X98226571Y-111730071D01*
X98321809Y-111777690D01*
X98559904Y-111777690D01*
X98655142Y-111730071D01*
X98702761Y-111682452D01*
X98750380Y-111587214D01*
X98750380Y-111349119D01*
X98702761Y-111253880D01*
X98655142Y-111206261D01*
X90130380Y-150608357D02*
X91130380Y-151275023D01*
X90130380Y-151275023D02*
X91130380Y-150608357D01*
X91082761Y-151608357D02*
X91130380Y-151751214D01*
X91130380Y-151989309D01*
X91082761Y-152084547D01*
X91035142Y-152132166D01*
X90939904Y-152179785D01*
X90844666Y-152179785D01*
X90749428Y-152132166D01*
X90701809Y-152084547D01*
X90654190Y-151989309D01*
X90606571Y-151798833D01*
X90558952Y-151703595D01*
X90511333Y-151655976D01*
X90416095Y-151608357D01*
X90320857Y-151608357D01*
X90225619Y-151655976D01*
X90178000Y-151703595D01*
X90130380Y-151798833D01*
X90130380Y-152036928D01*
X90178000Y-152179785D01*
X90130380Y-152798833D02*
X90130380Y-152894071D01*
X90178000Y-152989309D01*
X90225619Y-153036928D01*
X90320857Y-153084547D01*
X90511333Y-153132166D01*
X90749428Y-153132166D01*
X90939904Y-153084547D01*
X91035142Y-153036928D01*
X91082761Y-152989309D01*
X91130380Y-152894071D01*
X91130380Y-152798833D01*
X91082761Y-152703595D01*
X91035142Y-152655976D01*
X90939904Y-152608357D01*
X90749428Y-152560738D01*
X90511333Y-152560738D01*
X90320857Y-152608357D01*
X90225619Y-152655976D01*
X90178000Y-152703595D01*
X90130380Y-152798833D01*
X92670380Y-150608357D02*
X93670380Y-151275023D01*
X92670380Y-151275023D02*
X93670380Y-150608357D01*
X93622761Y-151608357D02*
X93670380Y-151751214D01*
X93670380Y-151989309D01*
X93622761Y-152084547D01*
X93575142Y-152132166D01*
X93479904Y-152179785D01*
X93384666Y-152179785D01*
X93289428Y-152132166D01*
X93241809Y-152084547D01*
X93194190Y-151989309D01*
X93146571Y-151798833D01*
X93098952Y-151703595D01*
X93051333Y-151655976D01*
X92956095Y-151608357D01*
X92860857Y-151608357D01*
X92765619Y-151655976D01*
X92718000Y-151703595D01*
X92670380Y-151798833D01*
X92670380Y-152036928D01*
X92718000Y-152179785D01*
X93670380Y-153132166D02*
X93670380Y-152560738D01*
X93670380Y-152846452D02*
X92670380Y-152846452D01*
X92813238Y-152751214D01*
X92908476Y-152655976D01*
X92956095Y-152560738D01*
X95210380Y-150608357D02*
X96210380Y-151275023D01*
X95210380Y-151275023D02*
X96210380Y-150608357D01*
X96162761Y-151608357D02*
X96210380Y-151751214D01*
X96210380Y-151989309D01*
X96162761Y-152084547D01*
X96115142Y-152132166D01*
X96019904Y-152179785D01*
X95924666Y-152179785D01*
X95829428Y-152132166D01*
X95781809Y-152084547D01*
X95734190Y-151989309D01*
X95686571Y-151798833D01*
X95638952Y-151703595D01*
X95591333Y-151655976D01*
X95496095Y-151608357D01*
X95400857Y-151608357D01*
X95305619Y-151655976D01*
X95258000Y-151703595D01*
X95210380Y-151798833D01*
X95210380Y-152036928D01*
X95258000Y-152179785D01*
X95305619Y-152560738D02*
X95258000Y-152608357D01*
X95210380Y-152703595D01*
X95210380Y-152941690D01*
X95258000Y-153036928D01*
X95305619Y-153084547D01*
X95400857Y-153132166D01*
X95496095Y-153132166D01*
X95638952Y-153084547D01*
X96210380Y-152513119D01*
X96210380Y-153132166D01*
D11*
X99441000Y-119634000D02*
X99695000Y-119634000D01*
X94361000Y-125222000D02*
X93599000Y-124968000D01*
X93853000Y-124206000D02*
X93599000Y-124968000D01*
X80518000Y-117221000D02*
X80518000Y-112903000D01*
X77724000Y-114173000D02*
X76962000Y-113665000D01*
X77724000Y-113157000D02*
X76962000Y-113665000D01*
X79121000Y-138684000D02*
X79121000Y-135382000D01*
X85725000Y-141986000D02*
X86995000Y-141986000D01*
X93599000Y-124968000D02*
X94361000Y-125222000D01*
X79121000Y-145288000D02*
X84455000Y-145288000D01*
X89408000Y-117221000D02*
X80518000Y-117221000D01*
X84455000Y-145288000D02*
X84455000Y-141986000D01*
X86995000Y-141986000D02*
X86995000Y-138684000D01*
X105283000Y-119634000D02*
X105283000Y-131826000D01*
X79121000Y-141986000D02*
X79121000Y-145288000D01*
X99441000Y-131826000D02*
X99441000Y-119634000D01*
X99441000Y-121412000D02*
X93599000Y-124968000D01*
X80518000Y-112903000D02*
X89408000Y-112903000D01*
X86995000Y-135382000D02*
X86995000Y-138684000D01*
X99695000Y-119634000D02*
X110871000Y-119634000D01*
X77851000Y-130048000D02*
X78359000Y-130302000D01*
X80518000Y-113665000D02*
X76962000Y-113665000D01*
X76962000Y-113665000D02*
X77724000Y-113157000D01*
X86995000Y-138684000D02*
X79121000Y-138684000D01*
X110871000Y-119634000D02*
X110871000Y-131826000D01*
X99695000Y-131826000D02*
X99441000Y-131826000D01*
X79121000Y-141986000D02*
X85725000Y-141986000D01*
X79121000Y-135382000D02*
X86995000Y-135382000D01*
X110871000Y-131826000D02*
X99695000Y-131826000D01*
X89408000Y-112903000D02*
X89408000Y-117221000D01*
X79121000Y-138684000D02*
X79121000Y-141986000D01*
X76962000Y-113665000D02*
X77724000Y-114173000D01*
X79121000Y-135382000D02*
X77851000Y-130048000D01*
X77851000Y-130048000D02*
X77597000Y-130556000D01*
D12*
X82068380Y-113271095D02*
X81068380Y-113271095D01*
X81068380Y-113652047D01*
X81116000Y-113747285D01*
X81163619Y-113794904D01*
X81258857Y-113842523D01*
X81401714Y-113842523D01*
X81496952Y-113794904D01*
X81544571Y-113747285D01*
X81592190Y-113652047D01*
X81592190Y-113271095D01*
X81782666Y-114223476D02*
X81782666Y-114699666D01*
X82068380Y-114128238D02*
X81068380Y-114461571D01*
X82068380Y-114794904D01*
X82068380Y-115652047D02*
X82068380Y-115080619D01*
X82068380Y-115366333D02*
X81068380Y-115366333D01*
X81211238Y-115271095D01*
X81306476Y-115175857D01*
X81354095Y-115080619D01*
X81068380Y-116271095D02*
X81068380Y-116366333D01*
X81116000Y-116461571D01*
X81163619Y-116509190D01*
X81258857Y-116556809D01*
X81449333Y-116604428D01*
X81687428Y-116604428D01*
X81877904Y-116556809D01*
X81973142Y-116509190D01*
X82020761Y-116461571D01*
X82068380Y-116366333D01*
X82068380Y-116271095D01*
X82020761Y-116175857D01*
X81973142Y-116128238D01*
X81877904Y-116080619D01*
X81687428Y-116033000D01*
X81449333Y-116033000D01*
X81258857Y-116080619D01*
X81163619Y-116128238D01*
X81116000Y-116175857D01*
X81068380Y-116271095D01*
X83678380Y-113271095D02*
X82678380Y-113271095D01*
X82678380Y-113652047D01*
X82726000Y-113747285D01*
X82773619Y-113794904D01*
X82868857Y-113842523D01*
X83011714Y-113842523D01*
X83106952Y-113794904D01*
X83154571Y-113747285D01*
X83202190Y-113652047D01*
X83202190Y-113271095D01*
X83392666Y-114223476D02*
X83392666Y-114699666D01*
X83678380Y-114128238D02*
X82678380Y-114461571D01*
X83678380Y-114794904D01*
X83678380Y-115175857D02*
X83678380Y-115366333D01*
X83630761Y-115461571D01*
X83583142Y-115509190D01*
X83440285Y-115604428D01*
X83249809Y-115652047D01*
X82868857Y-115652047D01*
X82773619Y-115604428D01*
X82726000Y-115556809D01*
X82678380Y-115461571D01*
X82678380Y-115271095D01*
X82726000Y-115175857D01*
X82773619Y-115128238D01*
X82868857Y-115080619D01*
X83106952Y-115080619D01*
X83202190Y-115128238D01*
X83249809Y-115175857D01*
X83297428Y-115271095D01*
X83297428Y-115461571D01*
X83249809Y-115556809D01*
X83202190Y-115604428D01*
X83106952Y-115652047D01*
X85240761Y-113223476D02*
X85288380Y-113366333D01*
X85288380Y-113604428D01*
X85240761Y-113699666D01*
X85193142Y-113747285D01*
X85097904Y-113794904D01*
X85002666Y-113794904D01*
X84907428Y-113747285D01*
X84859809Y-113699666D01*
X84812190Y-113604428D01*
X84764571Y-113413952D01*
X84716952Y-113318714D01*
X84669333Y-113271095D01*
X84574095Y-113223476D01*
X84478857Y-113223476D01*
X84383619Y-113271095D01*
X84336000Y-113318714D01*
X84288380Y-113413952D01*
X84288380Y-113652047D01*
X84336000Y-113794904D01*
X85193142Y-114794904D02*
X85240761Y-114747285D01*
X85288380Y-114604428D01*
X85288380Y-114509190D01*
X85240761Y-114366333D01*
X85145523Y-114271095D01*
X85050285Y-114223476D01*
X84859809Y-114175857D01*
X84716952Y-114175857D01*
X84526476Y-114223476D01*
X84431238Y-114271095D01*
X84336000Y-114366333D01*
X84288380Y-114509190D01*
X84288380Y-114604428D01*
X84336000Y-114747285D01*
X84383619Y-114794904D01*
X85288380Y-115699666D02*
X85288380Y-115223476D01*
X84288380Y-115223476D01*
X84383619Y-115985380D02*
X84336000Y-116033000D01*
X84288380Y-116128238D01*
X84288380Y-116366333D01*
X84336000Y-116461571D01*
X84383619Y-116509190D01*
X84478857Y-116556809D01*
X84574095Y-116556809D01*
X84716952Y-116509190D01*
X85288380Y-115937761D01*
X85288380Y-116556809D01*
X86850761Y-113223476D02*
X86898380Y-113366333D01*
X86898380Y-113604428D01*
X86850761Y-113699666D01*
X86803142Y-113747285D01*
X86707904Y-113794904D01*
X86612666Y-113794904D01*
X86517428Y-113747285D01*
X86469809Y-113699666D01*
X86422190Y-113604428D01*
X86374571Y-113413952D01*
X86326952Y-113318714D01*
X86279333Y-113271095D01*
X86184095Y-113223476D01*
X86088857Y-113223476D01*
X85993619Y-113271095D01*
X85946000Y-113318714D01*
X85898380Y-113413952D01*
X85898380Y-113652047D01*
X85946000Y-113794904D01*
X86898380Y-114223476D02*
X85898380Y-114223476D01*
X85898380Y-114461571D01*
X85946000Y-114604428D01*
X86041238Y-114699666D01*
X86136476Y-114747285D01*
X86326952Y-114794904D01*
X86469809Y-114794904D01*
X86660285Y-114747285D01*
X86755523Y-114699666D01*
X86850761Y-114604428D01*
X86898380Y-114461571D01*
X86898380Y-114223476D01*
X86612666Y-115175857D02*
X86612666Y-115652047D01*
X86898380Y-115080619D02*
X85898380Y-115413952D01*
X86898380Y-115747285D01*
X85993619Y-116033000D02*
X85946000Y-116080619D01*
X85898380Y-116175857D01*
X85898380Y-116413952D01*
X85946000Y-116509190D01*
X85993619Y-116556809D01*
X86088857Y-116604428D01*
X86184095Y-116604428D01*
X86326952Y-116556809D01*
X86898380Y-115985380D01*
X86898380Y-116604428D01*
X88508380Y-113271095D02*
X87508380Y-113271095D01*
X87508380Y-113652047D01*
X87556000Y-113747285D01*
X87603619Y-113794904D01*
X87698857Y-113842523D01*
X87841714Y-113842523D01*
X87936952Y-113794904D01*
X87984571Y-113747285D01*
X88032190Y-113652047D01*
X88032190Y-113271095D01*
X88413142Y-114842523D02*
X88460761Y-114794904D01*
X88508380Y-114652047D01*
X88508380Y-114556809D01*
X88460761Y-114413952D01*
X88365523Y-114318714D01*
X88270285Y-114271095D01*
X88079809Y-114223476D01*
X87936952Y-114223476D01*
X87746476Y-114271095D01*
X87651238Y-114318714D01*
X87556000Y-114413952D01*
X87508380Y-114556809D01*
X87508380Y-114652047D01*
X87556000Y-114794904D01*
X87603619Y-114842523D01*
X87936952Y-115413952D02*
X87889333Y-115318714D01*
X87841714Y-115271095D01*
X87746476Y-115223476D01*
X87698857Y-115223476D01*
X87603619Y-115271095D01*
X87556000Y-115318714D01*
X87508380Y-115413952D01*
X87508380Y-115604428D01*
X87556000Y-115699666D01*
X87603619Y-115747285D01*
X87698857Y-115794904D01*
X87746476Y-115794904D01*
X87841714Y-115747285D01*
X87889333Y-115699666D01*
X87936952Y-115604428D01*
X87936952Y-115413952D01*
X87984571Y-115318714D01*
X88032190Y-115271095D01*
X88127428Y-115223476D01*
X88317904Y-115223476D01*
X88413142Y-115271095D01*
X88460761Y-115318714D01*
X88508380Y-115413952D01*
X88508380Y-115604428D01*
X88460761Y-115699666D01*
X88413142Y-115747285D01*
X88317904Y-115794904D01*
X88127428Y-115794904D01*
X88032190Y-115747285D01*
X87984571Y-115699666D01*
X87936952Y-115604428D01*
D10*
X85733000Y-136241404D02*
X85685380Y-136146166D01*
X85685380Y-136003309D01*
X85733000Y-135860452D01*
X85828238Y-135765214D01*
X85923476Y-135717595D01*
X86113952Y-135669976D01*
X86256809Y-135669976D01*
X86447285Y-135717595D01*
X86542523Y-135765214D01*
X86637761Y-135860452D01*
X86685380Y-136003309D01*
X86685380Y-136098547D01*
X86637761Y-136241404D01*
X86590142Y-136289023D01*
X86256809Y-136289023D01*
X86256809Y-136098547D01*
X86685380Y-136717595D02*
X85685380Y-136717595D01*
X86685380Y-137289023D01*
X85685380Y-137289023D01*
X86685380Y-137765214D02*
X85685380Y-137765214D01*
X85685380Y-138003309D01*
X85733000Y-138146166D01*
X85828238Y-138241404D01*
X85923476Y-138289023D01*
X86113952Y-138336642D01*
X86256809Y-138336642D01*
X86447285Y-138289023D01*
X86542523Y-138241404D01*
X86637761Y-138146166D01*
X86685380Y-138003309D01*
X86685380Y-137765214D01*
X61793380Y-108180333D02*
X60793380Y-108180333D01*
X60793380Y-108418428D01*
X60841000Y-108561285D01*
X60936238Y-108656523D01*
X61031476Y-108704142D01*
X61221952Y-108751761D01*
X61364809Y-108751761D01*
X61555285Y-108704142D01*
X61650523Y-108656523D01*
X61745761Y-108561285D01*
X61793380Y-108418428D01*
X61793380Y-108180333D01*
X61507666Y-109132714D02*
X61507666Y-109608904D01*
X61793380Y-109037476D02*
X60793380Y-109370809D01*
X61793380Y-109704142D01*
X61793380Y-110561285D02*
X61793380Y-109989857D01*
X61793380Y-110275571D02*
X60793380Y-110275571D01*
X60936238Y-110180333D01*
X61031476Y-110085095D01*
X61079095Y-109989857D01*
X103655761Y-150655976D02*
X103703380Y-150798833D01*
X103703380Y-151036928D01*
X103655761Y-151132166D01*
X103608142Y-151179785D01*
X103512904Y-151227404D01*
X103417666Y-151227404D01*
X103322428Y-151179785D01*
X103274809Y-151132166D01*
X103227190Y-151036928D01*
X103179571Y-150846452D01*
X103131952Y-150751214D01*
X103084333Y-150703595D01*
X102989095Y-150655976D01*
X102893857Y-150655976D01*
X102798619Y-150703595D01*
X102751000Y-150751214D01*
X102703380Y-150846452D01*
X102703380Y-151084547D01*
X102751000Y-151227404D01*
X102703380Y-151560738D02*
X103703380Y-151798833D01*
X102989095Y-151989309D01*
X103703380Y-152179785D01*
X102703380Y-152417880D01*
X102798619Y-152751214D02*
X102751000Y-152798833D01*
X102703380Y-152894071D01*
X102703380Y-153132166D01*
X102751000Y-153227404D01*
X102798619Y-153275023D01*
X102893857Y-153322642D01*
X102989095Y-153322642D01*
X103131952Y-153275023D01*
X103703380Y-152703595D01*
X103703380Y-153322642D01*
X86304428Y-139019595D02*
X86304428Y-139781500D01*
X86685380Y-139400547D02*
X85923476Y-139400547D01*
X85685380Y-140162452D02*
X85685380Y-140781500D01*
X86066333Y-140448166D01*
X86066333Y-140591023D01*
X86113952Y-140686261D01*
X86161571Y-140733880D01*
X86256809Y-140781500D01*
X86494904Y-140781500D01*
X86590142Y-140733880D01*
X86637761Y-140686261D01*
X86685380Y-140591023D01*
X86685380Y-140305309D01*
X86637761Y-140210071D01*
X86590142Y-140162452D01*
X85320142Y-139591023D02*
X85367761Y-139543404D01*
X85415380Y-139400547D01*
X85415380Y-139305309D01*
X85367761Y-139162452D01*
X85272523Y-139067214D01*
X85177285Y-139019595D01*
X84986809Y-138971976D01*
X84843952Y-138971976D01*
X84653476Y-139019595D01*
X84558238Y-139067214D01*
X84463000Y-139162452D01*
X84415380Y-139305309D01*
X84415380Y-139400547D01*
X84463000Y-139543404D01*
X84510619Y-139591023D01*
X85415380Y-140495785D02*
X85415380Y-140019595D01*
X84415380Y-140019595D01*
X85415380Y-140829119D02*
X84415380Y-140829119D01*
X85415380Y-141400547D02*
X84843952Y-140971976D01*
X84415380Y-141400547D02*
X84986809Y-140829119D01*
X75509428Y-150703595D02*
X75509428Y-151465500D01*
X75890380Y-151084547D02*
X75128476Y-151084547D01*
X74890380Y-151846452D02*
X74890380Y-152465500D01*
X75271333Y-152132166D01*
X75271333Y-152275023D01*
X75318952Y-152370261D01*
X75366571Y-152417880D01*
X75461809Y-152465500D01*
X75699904Y-152465500D01*
X75795142Y-152417880D01*
X75842761Y-152370261D01*
X75890380Y-152275023D01*
X75890380Y-151989309D01*
X75842761Y-151894071D01*
X75795142Y-151846452D01*
D12*
X106919380Y-120732285D02*
X106919380Y-120256095D01*
X105919380Y-120256095D01*
X106919380Y-121589428D02*
X106919380Y-121018000D01*
X106919380Y-121303714D02*
X105919380Y-121303714D01*
X106062238Y-121208476D01*
X106157476Y-121113238D01*
X106205095Y-121018000D01*
X105919380Y-122494190D02*
X105919380Y-122018000D01*
X106395571Y-121970380D01*
X106347952Y-122018000D01*
X106300333Y-122113238D01*
X106300333Y-122351333D01*
X106347952Y-122446571D01*
X106395571Y-122494190D01*
X106490809Y-122541809D01*
X106728904Y-122541809D01*
X106824142Y-122494190D01*
X106871761Y-122446571D01*
X106919380Y-122351333D01*
X106919380Y-122113238D01*
X106871761Y-122018000D01*
X106824142Y-121970380D01*
X106919380Y-123494190D02*
X106919380Y-122922761D01*
X106919380Y-123208476D02*
X105919380Y-123208476D01*
X106062238Y-123113238D01*
X106157476Y-123018000D01*
X106205095Y-122922761D01*
X106919380Y-124494190D02*
X106443190Y-124160857D01*
X106919380Y-123922761D02*
X105919380Y-123922761D01*
X105919380Y-124303714D01*
X105967000Y-124398952D01*
X106014619Y-124446571D01*
X106109857Y-124494190D01*
X106252714Y-124494190D01*
X106347952Y-124446571D01*
X106395571Y-124398952D01*
X106443190Y-124303714D01*
X106443190Y-123922761D01*
X106395571Y-124922761D02*
X106395571Y-125256095D01*
X106919380Y-125398952D02*
X106919380Y-124922761D01*
X105919380Y-124922761D01*
X105919380Y-125398952D01*
X105919380Y-125684666D02*
X105919380Y-126256095D01*
X106919380Y-125970380D02*
X105919380Y-125970380D01*
X106919380Y-126494190D02*
X106252714Y-127018000D01*
X106252714Y-126494190D02*
X106919380Y-127018000D01*
X107300333Y-128446571D02*
X107252714Y-128398952D01*
X107109857Y-128303714D01*
X107014619Y-128256095D01*
X106871761Y-128208476D01*
X106633666Y-128160857D01*
X106443190Y-128160857D01*
X106205095Y-128208476D01*
X106062238Y-128256095D01*
X105967000Y-128303714D01*
X105824142Y-128398952D01*
X105776523Y-128446571D01*
X105919380Y-128827523D02*
X106728904Y-128827523D01*
X106824142Y-128875142D01*
X106871761Y-128922761D01*
X106919380Y-129018000D01*
X106919380Y-129208476D01*
X106871761Y-129303714D01*
X106824142Y-129351333D01*
X106728904Y-129398952D01*
X105919380Y-129398952D01*
X105919380Y-130303714D02*
X105919380Y-130113238D01*
X105967000Y-130018000D01*
X106014619Y-129970380D01*
X106157476Y-129875142D01*
X106347952Y-129827523D01*
X106728904Y-129827523D01*
X106824142Y-129875142D01*
X106871761Y-129922761D01*
X106919380Y-130018000D01*
X106919380Y-130208476D01*
X106871761Y-130303714D01*
X106824142Y-130351333D01*
X106728904Y-130398952D01*
X106490809Y-130398952D01*
X106395571Y-130351333D01*
X106347952Y-130303714D01*
X106300333Y-130208476D01*
X106300333Y-130018000D01*
X106347952Y-129922761D01*
X106395571Y-129875142D01*
X106490809Y-129827523D01*
X107300333Y-130732285D02*
X107252714Y-130779904D01*
X107109857Y-130875142D01*
X107014619Y-130922761D01*
X106871761Y-130970380D01*
X106633666Y-131018000D01*
X106443190Y-131018000D01*
X106205095Y-130970380D01*
X106062238Y-130922761D01*
X105967000Y-130875142D01*
X105824142Y-130779904D01*
X105776523Y-130732285D01*
X106824142Y-131494190D02*
X106871761Y-131541809D01*
X106919380Y-131494190D01*
X106871761Y-131446571D01*
X106824142Y-131494190D01*
X106919380Y-131494190D01*
X106300333Y-131494190D02*
X106347952Y-131541809D01*
X106395571Y-131494190D01*
X106347952Y-131446571D01*
X106300333Y-131494190D01*
X106395571Y-131494190D01*
X107529380Y-120541809D02*
X108243666Y-120541809D01*
X108386523Y-120494190D01*
X108481761Y-120398952D01*
X108529380Y-120256095D01*
X108529380Y-120160857D01*
X108529380Y-121018000D02*
X107529380Y-121018000D01*
X107529380Y-121398952D01*
X107577000Y-121494190D01*
X107624619Y-121541809D01*
X107719857Y-121589428D01*
X107862714Y-121589428D01*
X107957952Y-121541809D01*
X108005571Y-121494190D01*
X108053190Y-121398952D01*
X108053190Y-121018000D01*
X107529380Y-121922761D02*
X107529380Y-122541809D01*
X107910333Y-122208476D01*
X107910333Y-122351333D01*
X107957952Y-122446571D01*
X108005571Y-122494190D01*
X108100809Y-122541809D01*
X108338904Y-122541809D01*
X108434142Y-122494190D01*
X108481761Y-122446571D01*
X108529380Y-122351333D01*
X108529380Y-122065619D01*
X108481761Y-121970380D01*
X108434142Y-121922761D01*
X108148428Y-123732285D02*
X108148428Y-124494190D01*
X107862714Y-124970380D02*
X108148428Y-125732285D01*
X108434142Y-124970380D01*
X107624619Y-126922761D02*
X107577000Y-126970380D01*
X107529380Y-127065619D01*
X107529380Y-127303714D01*
X107577000Y-127398952D01*
X107624619Y-127446571D01*
X107719857Y-127494190D01*
X107815095Y-127494190D01*
X107957952Y-127446571D01*
X108529380Y-126875142D01*
X108529380Y-127494190D01*
X108148428Y-127922761D02*
X108148428Y-128684666D01*
X107529380Y-129065619D02*
X107529380Y-129684666D01*
X107910333Y-129351333D01*
X107910333Y-129494190D01*
X107957952Y-129589428D01*
X108005571Y-129637047D01*
X108100809Y-129684666D01*
X108338904Y-129684666D01*
X108434142Y-129637047D01*
X108481761Y-129589428D01*
X108529380Y-129494190D01*
X108529380Y-129208476D01*
X108481761Y-129113238D01*
X108434142Y-129065619D01*
X108481761Y-130160857D02*
X108529380Y-130160857D01*
X108624619Y-130113238D01*
X108672238Y-130065619D01*
X109139380Y-120541809D02*
X109853666Y-120541809D01*
X109996523Y-120494190D01*
X110091761Y-120398952D01*
X110139380Y-120256095D01*
X110139380Y-120160857D01*
X110139380Y-121018000D02*
X109139380Y-121018000D01*
X109139380Y-121398952D01*
X109187000Y-121494190D01*
X109234619Y-121541809D01*
X109329857Y-121589428D01*
X109472714Y-121589428D01*
X109567952Y-121541809D01*
X109615571Y-121494190D01*
X109663190Y-121398952D01*
X109663190Y-121018000D01*
X109234619Y-121970380D02*
X109187000Y-122018000D01*
X109139380Y-122113238D01*
X109139380Y-122351333D01*
X109187000Y-122446571D01*
X109234619Y-122494190D01*
X109329857Y-122541809D01*
X109425095Y-122541809D01*
X109567952Y-122494190D01*
X110139380Y-121922761D01*
X110139380Y-122541809D01*
X109758428Y-123732285D02*
X109758428Y-124494190D01*
X109472714Y-124970380D02*
X109758428Y-125732285D01*
X110044142Y-124970380D01*
X110139380Y-127494190D02*
X110139380Y-126922761D01*
X110139380Y-127208476D02*
X109139380Y-127208476D01*
X109282238Y-127113238D01*
X109377476Y-127018000D01*
X109425095Y-126922761D01*
X109758428Y-127922761D02*
X109758428Y-128684666D01*
X109234619Y-129113238D02*
X109187000Y-129160857D01*
X109139380Y-129256095D01*
X109139380Y-129494190D01*
X109187000Y-129589428D01*
X109234619Y-129637047D01*
X109329857Y-129684666D01*
X109425095Y-129684666D01*
X109567952Y-129637047D01*
X110139380Y-129065619D01*
X110139380Y-129684666D01*
D10*
X80287761Y-138971976D02*
X80335380Y-139114833D01*
X80335380Y-139352928D01*
X80287761Y-139448166D01*
X80240142Y-139495785D01*
X80144904Y-139543404D01*
X80049666Y-139543404D01*
X79954428Y-139495785D01*
X79906809Y-139448166D01*
X79859190Y-139352928D01*
X79811571Y-139162452D01*
X79763952Y-139067214D01*
X79716333Y-139019595D01*
X79621095Y-138971976D01*
X79525857Y-138971976D01*
X79430619Y-139019595D01*
X79383000Y-139067214D01*
X79335380Y-139162452D01*
X79335380Y-139400547D01*
X79383000Y-139543404D01*
X79335380Y-139876738D02*
X80335380Y-140114833D01*
X79621095Y-140305309D01*
X80335380Y-140495785D01*
X79335380Y-140733880D01*
X79335380Y-141305309D02*
X79335380Y-141400547D01*
X79383000Y-141495785D01*
X79430619Y-141543404D01*
X79525857Y-141591023D01*
X79716333Y-141638642D01*
X79954428Y-141638642D01*
X80144904Y-141591023D01*
X80240142Y-141543404D01*
X80287761Y-141495785D01*
X80335380Y-141400547D01*
X80335380Y-141305309D01*
X80287761Y-141210071D01*
X80240142Y-141162452D01*
X80144904Y-141114833D01*
X79954428Y-141067214D01*
X79716333Y-141067214D01*
X79525857Y-141114833D01*
X79430619Y-141162452D01*
X79383000Y-141210071D01*
X79335380Y-141305309D01*
X82875380Y-139019595D02*
X81875380Y-139019595D01*
X81875380Y-139257690D01*
X81923000Y-139400547D01*
X82018238Y-139495785D01*
X82113476Y-139543404D01*
X82303952Y-139591023D01*
X82446809Y-139591023D01*
X82637285Y-139543404D01*
X82732523Y-139495785D01*
X82827761Y-139400547D01*
X82875380Y-139257690D01*
X82875380Y-139019595D01*
X82589666Y-139971976D02*
X82589666Y-140448166D01*
X82875380Y-139876738D02*
X81875380Y-140210071D01*
X82875380Y-140543404D01*
X81875380Y-140733880D02*
X81875380Y-141305309D01*
X82875380Y-141019595D02*
X81875380Y-141019595D01*
X101115761Y-150655976D02*
X101163380Y-150798833D01*
X101163380Y-151036928D01*
X101115761Y-151132166D01*
X101068142Y-151179785D01*
X100972904Y-151227404D01*
X100877666Y-151227404D01*
X100782428Y-151179785D01*
X100734809Y-151132166D01*
X100687190Y-151036928D01*
X100639571Y-150846452D01*
X100591952Y-150751214D01*
X100544333Y-150703595D01*
X100449095Y-150655976D01*
X100353857Y-150655976D01*
X100258619Y-150703595D01*
X100211000Y-150751214D01*
X100163380Y-150846452D01*
X100163380Y-151084547D01*
X100211000Y-151227404D01*
X100163380Y-151560738D02*
X101163380Y-151798833D01*
X100449095Y-151989309D01*
X101163380Y-152179785D01*
X100163380Y-152417880D01*
X101163380Y-153322642D02*
X101163380Y-152751214D01*
X101163380Y-153036928D02*
X100163380Y-153036928D01*
X100306238Y-152941690D01*
X100401476Y-152846452D01*
X100449095Y-152751214D01*
X81605380Y-139591023D02*
X81129190Y-139257690D01*
X81605380Y-139019595D02*
X80605380Y-139019595D01*
X80605380Y-139400547D01*
X80653000Y-139495785D01*
X80700619Y-139543404D01*
X80795857Y-139591023D01*
X80938714Y-139591023D01*
X81033952Y-139543404D01*
X81081571Y-139495785D01*
X81129190Y-139400547D01*
X81129190Y-139019595D01*
X81557761Y-139971976D02*
X81605380Y-140114833D01*
X81605380Y-140352928D01*
X81557761Y-140448166D01*
X81510142Y-140495785D01*
X81414904Y-140543404D01*
X81319666Y-140543404D01*
X81224428Y-140495785D01*
X81176809Y-140448166D01*
X81129190Y-140352928D01*
X81081571Y-140162452D01*
X81033952Y-140067214D01*
X80986333Y-140019595D01*
X80891095Y-139971976D01*
X80795857Y-139971976D01*
X80700619Y-140019595D01*
X80653000Y-140067214D01*
X80605380Y-140162452D01*
X80605380Y-140400547D01*
X80653000Y-140543404D01*
X80605380Y-140829119D02*
X80605380Y-141400547D01*
X81605380Y-141114833D02*
X80605380Y-141114833D01*
X78049428Y-150703595D02*
X78049428Y-151465500D01*
X78430380Y-151084547D02*
X77668476Y-151084547D01*
X77430380Y-152417880D02*
X77430380Y-151941690D01*
X77906571Y-151894071D01*
X77858952Y-151941690D01*
X77811333Y-152036928D01*
X77811333Y-152275023D01*
X77858952Y-152370261D01*
X77906571Y-152417880D01*
X78001809Y-152465500D01*
X78239904Y-152465500D01*
X78335142Y-152417880D01*
X78382761Y-152370261D01*
X78430380Y-152275023D01*
X78430380Y-152036928D01*
X78382761Y-151941690D01*
X78335142Y-151894071D01*
D12*
X100553571Y-120589428D02*
X100553571Y-120256095D01*
X101077380Y-120256095D02*
X100077380Y-120256095D01*
X100077380Y-120732285D01*
X100410714Y-121541809D02*
X101077380Y-121541809D01*
X100029761Y-121303714D02*
X100744047Y-121065619D01*
X100744047Y-121684666D01*
X100077380Y-122256095D02*
X100077380Y-122351333D01*
X100125000Y-122446571D01*
X100172619Y-122494190D01*
X100267857Y-122541809D01*
X100458333Y-122589428D01*
X100696428Y-122589428D01*
X100886904Y-122541809D01*
X100982142Y-122494190D01*
X101029761Y-122446571D01*
X101077380Y-122351333D01*
X101077380Y-122256095D01*
X101029761Y-122160857D01*
X100982142Y-122113238D01*
X100886904Y-122065619D01*
X100696428Y-122018000D01*
X100458333Y-122018000D01*
X100267857Y-122065619D01*
X100172619Y-122113238D01*
X100125000Y-122160857D01*
X100077380Y-122256095D01*
X101077380Y-123541809D02*
X101077380Y-122970380D01*
X101077380Y-123256095D02*
X100077380Y-123256095D01*
X100220238Y-123160857D01*
X100315476Y-123065619D01*
X100363095Y-122970380D01*
X101077380Y-124541809D02*
X100601190Y-124208476D01*
X101077380Y-123970380D02*
X100077380Y-123970380D01*
X100077380Y-124351333D01*
X100125000Y-124446571D01*
X100172619Y-124494190D01*
X100267857Y-124541809D01*
X100410714Y-124541809D01*
X100505952Y-124494190D01*
X100553571Y-124446571D01*
X100601190Y-124351333D01*
X100601190Y-123970380D01*
X100553571Y-124970380D02*
X100553571Y-125303714D01*
X101077380Y-125446571D02*
X101077380Y-124970380D01*
X100077380Y-124970380D01*
X100077380Y-125446571D01*
X100077380Y-125732285D02*
X100077380Y-126303714D01*
X101077380Y-126018000D02*
X100077380Y-126018000D01*
X101077380Y-126541809D02*
X100410714Y-127065619D01*
X100410714Y-126541809D02*
X101077380Y-127065619D01*
X101458333Y-128494190D02*
X101410714Y-128446571D01*
X101267857Y-128351333D01*
X101172619Y-128303714D01*
X101029761Y-128256095D01*
X100791666Y-128208476D01*
X100601190Y-128208476D01*
X100363095Y-128256095D01*
X100220238Y-128303714D01*
X100125000Y-128351333D01*
X99982142Y-128446571D01*
X99934523Y-128494190D01*
X100077380Y-128875142D02*
X100886904Y-128875142D01*
X100982142Y-128922761D01*
X101029761Y-128970380D01*
X101077380Y-129065619D01*
X101077380Y-129256095D01*
X101029761Y-129351333D01*
X100982142Y-129398952D01*
X100886904Y-129446571D01*
X100077380Y-129446571D01*
X100077380Y-129827523D02*
X100077380Y-130494190D01*
X101077380Y-130065619D01*
X101458333Y-130779904D02*
X101410714Y-130827523D01*
X101267857Y-130922761D01*
X101172619Y-130970380D01*
X101029761Y-131018000D01*
X100791666Y-131065619D01*
X100601190Y-131065619D01*
X100363095Y-131018000D01*
X100220238Y-130970380D01*
X100125000Y-130922761D01*
X99982142Y-130827523D01*
X99934523Y-130779904D01*
X100982142Y-131541809D02*
X101029761Y-131589428D01*
X101077380Y-131541809D01*
X101029761Y-131494190D01*
X100982142Y-131541809D01*
X101077380Y-131541809D01*
X100458333Y-131541809D02*
X100505952Y-131589428D01*
X100553571Y-131541809D01*
X100505952Y-131494190D01*
X100458333Y-131541809D01*
X100553571Y-131541809D01*
X101687380Y-120541809D02*
X102401666Y-120541809D01*
X102544523Y-120494190D01*
X102639761Y-120398952D01*
X102687380Y-120256095D01*
X102687380Y-120160857D01*
X102687380Y-121018000D02*
X101687380Y-121018000D01*
X101687380Y-121398952D01*
X101735000Y-121494190D01*
X101782619Y-121541809D01*
X101877857Y-121589428D01*
X102020714Y-121589428D01*
X102115952Y-121541809D01*
X102163571Y-121494190D01*
X102211190Y-121398952D01*
X102211190Y-121018000D01*
X101687380Y-121922761D02*
X101687380Y-122541809D01*
X102068333Y-122208476D01*
X102068333Y-122351333D01*
X102115952Y-122446571D01*
X102163571Y-122494190D01*
X102258809Y-122541809D01*
X102496904Y-122541809D01*
X102592142Y-122494190D01*
X102639761Y-122446571D01*
X102687380Y-122351333D01*
X102687380Y-122065619D01*
X102639761Y-121970380D01*
X102592142Y-121922761D01*
X102306428Y-123732285D02*
X102306428Y-124494190D01*
X102020714Y-124970380D02*
X102306428Y-125732285D01*
X102592142Y-124970380D01*
X102687380Y-127494190D02*
X102687380Y-126922761D01*
X102687380Y-127208476D02*
X101687380Y-127208476D01*
X101830238Y-127113238D01*
X101925476Y-127018000D01*
X101973095Y-126922761D01*
X102306428Y-127922761D02*
X102306428Y-128684666D01*
X101782619Y-129113238D02*
X101735000Y-129160857D01*
X101687380Y-129256095D01*
X101687380Y-129494190D01*
X101735000Y-129589428D01*
X101782619Y-129637047D01*
X101877857Y-129684666D01*
X101973095Y-129684666D01*
X102115952Y-129637047D01*
X102687380Y-129065619D01*
X102687380Y-129684666D01*
X102639761Y-130160857D02*
X102687380Y-130160857D01*
X102782619Y-130113238D01*
X102830238Y-130065619D01*
X103297380Y-120541809D02*
X104011666Y-120541809D01*
X104154523Y-120494190D01*
X104249761Y-120398952D01*
X104297380Y-120256095D01*
X104297380Y-120160857D01*
X104297380Y-121018000D02*
X103297380Y-121018000D01*
X103297380Y-121398952D01*
X103345000Y-121494190D01*
X103392619Y-121541809D01*
X103487857Y-121589428D01*
X103630714Y-121589428D01*
X103725952Y-121541809D01*
X103773571Y-121494190D01*
X103821190Y-121398952D01*
X103821190Y-121018000D01*
X103392619Y-121970380D02*
X103345000Y-122018000D01*
X103297380Y-122113238D01*
X103297380Y-122351333D01*
X103345000Y-122446571D01*
X103392619Y-122494190D01*
X103487857Y-122541809D01*
X103583095Y-122541809D01*
X103725952Y-122494190D01*
X104297380Y-121922761D01*
X104297380Y-122541809D01*
X103916428Y-123732285D02*
X103916428Y-124494190D01*
X103630714Y-124970380D02*
X103916428Y-125732285D01*
X104202142Y-124970380D01*
X103392619Y-126922761D02*
X103345000Y-126970380D01*
X103297380Y-127065619D01*
X103297380Y-127303714D01*
X103345000Y-127398952D01*
X103392619Y-127446571D01*
X103487857Y-127494190D01*
X103583095Y-127494190D01*
X103725952Y-127446571D01*
X104297380Y-126875142D01*
X104297380Y-127494190D01*
X103916428Y-127922761D02*
X103916428Y-128684666D01*
X103297380Y-129065619D02*
X103297380Y-129684666D01*
X103678333Y-129351333D01*
X103678333Y-129494190D01*
X103725952Y-129589428D01*
X103773571Y-129637047D01*
X103868809Y-129684666D01*
X104106904Y-129684666D01*
X104202142Y-129637047D01*
X104249761Y-129589428D01*
X104297380Y-129494190D01*
X104297380Y-129208476D01*
X104249761Y-129113238D01*
X104202142Y-129065619D01*
D10*
X83193000Y-139543404D02*
X83145380Y-139448166D01*
X83145380Y-139305309D01*
X83193000Y-139162452D01*
X83288238Y-139067214D01*
X83383476Y-139019595D01*
X83573952Y-138971976D01*
X83716809Y-138971976D01*
X83907285Y-139019595D01*
X84002523Y-139067214D01*
X84097761Y-139162452D01*
X84145380Y-139305309D01*
X84145380Y-139400547D01*
X84097761Y-139543404D01*
X84050142Y-139591023D01*
X83716809Y-139591023D01*
X83716809Y-139400547D01*
X84145380Y-140019595D02*
X83145380Y-140019595D01*
X84145380Y-140591023D01*
X83145380Y-140591023D01*
X84145380Y-141067214D02*
X83145380Y-141067214D01*
X83145380Y-141305309D01*
X83193000Y-141448166D01*
X83288238Y-141543404D01*
X83383476Y-141591023D01*
X83573952Y-141638642D01*
X83716809Y-141638642D01*
X83907285Y-141591023D01*
X84002523Y-141543404D01*
X84097761Y-141448166D01*
X84145380Y-141305309D01*
X84145380Y-141067214D01*
X81605380Y-136289023D02*
X81129190Y-135955690D01*
X81605380Y-135717595D02*
X80605380Y-135717595D01*
X80605380Y-136098547D01*
X80653000Y-136193785D01*
X80700619Y-136241404D01*
X80795857Y-136289023D01*
X80938714Y-136289023D01*
X81033952Y-136241404D01*
X81081571Y-136193785D01*
X81129190Y-136098547D01*
X81129190Y-135717595D01*
X80605380Y-136622357D02*
X81605380Y-137289023D01*
X80605380Y-137289023D02*
X81605380Y-136622357D01*
X66365428Y-104521047D02*
X66365428Y-105282952D01*
X80018000Y-151227404D02*
X79970380Y-151132166D01*
X79970380Y-150989309D01*
X80018000Y-150846452D01*
X80113238Y-150751214D01*
X80208476Y-150703595D01*
X80398952Y-150655976D01*
X80541809Y-150655976D01*
X80732285Y-150703595D01*
X80827523Y-150751214D01*
X80922761Y-150846452D01*
X80970380Y-150989309D01*
X80970380Y-151084547D01*
X80922761Y-151227404D01*
X80875142Y-151275023D01*
X80541809Y-151275023D01*
X80541809Y-151084547D01*
X80970380Y-151703595D02*
X79970380Y-151703595D01*
X80970380Y-152275023D01*
X79970380Y-152275023D01*
X80970380Y-152751214D02*
X79970380Y-152751214D01*
X79970380Y-152989309D01*
X80018000Y-153132166D01*
X80113238Y-153227404D01*
X80208476Y-153275023D01*
X80398952Y-153322642D01*
X80541809Y-153322642D01*
X80732285Y-153275023D01*
X80827523Y-153227404D01*
X80922761Y-153132166D01*
X80970380Y-152989309D01*
X80970380Y-152751214D01*
X81875380Y-135574738D02*
X81875380Y-136146166D01*
X82875380Y-135860452D02*
X81875380Y-135860452D01*
X81875380Y-136384261D02*
X82875380Y-137050928D01*
X81875380Y-137050928D02*
X82875380Y-136384261D01*
X63825428Y-103790857D02*
X63825428Y-104552761D01*
X64206380Y-104171809D02*
X63444476Y-104171809D01*
X63206380Y-104933714D02*
X63206380Y-105552761D01*
X63587333Y-105219428D01*
X63587333Y-105362285D01*
X63634952Y-105457523D01*
X63682571Y-105505142D01*
X63777809Y-105552761D01*
X64015904Y-105552761D01*
X64111142Y-105505142D01*
X64158761Y-105457523D01*
X64206380Y-105362285D01*
X64206380Y-105076571D01*
X64158761Y-104981333D01*
X64111142Y-104933714D01*
X59031142Y-108775571D02*
X59078761Y-108727952D01*
X59126380Y-108585095D01*
X59126380Y-108489857D01*
X59078761Y-108347000D01*
X58983523Y-108251761D01*
X58888285Y-108204142D01*
X58697809Y-108156523D01*
X58554952Y-108156523D01*
X58364476Y-108204142D01*
X58269238Y-108251761D01*
X58174000Y-108347000D01*
X58126380Y-108489857D01*
X58126380Y-108585095D01*
X58174000Y-108727952D01*
X58221619Y-108775571D01*
X59126380Y-109680333D02*
X59126380Y-109204142D01*
X58126380Y-109204142D01*
X59126380Y-110537476D02*
X59126380Y-109966047D01*
X59126380Y-110251761D02*
X58126380Y-110251761D01*
X58269238Y-110156523D01*
X58364476Y-110061285D01*
X58412095Y-109966047D01*
X97877380Y-150608357D02*
X98877380Y-151275023D01*
X97877380Y-151275023D02*
X98877380Y-150608357D01*
X98829761Y-151608357D02*
X98877380Y-151751214D01*
X98877380Y-151989309D01*
X98829761Y-152084547D01*
X98782142Y-152132166D01*
X98686904Y-152179785D01*
X98591666Y-152179785D01*
X98496428Y-152132166D01*
X98448809Y-152084547D01*
X98401190Y-151989309D01*
X98353571Y-151798833D01*
X98305952Y-151703595D01*
X98258333Y-151655976D01*
X98163095Y-151608357D01*
X98067857Y-151608357D01*
X97972619Y-151655976D01*
X97925000Y-151703595D01*
X97877380Y-151798833D01*
X97877380Y-152036928D01*
X97925000Y-152179785D01*
X97877380Y-152513119D02*
X97877380Y-153132166D01*
X98258333Y-152798833D01*
X98258333Y-152941690D01*
X98305952Y-153036928D01*
X98353571Y-153084547D01*
X98448809Y-153132166D01*
X98686904Y-153132166D01*
X98782142Y-153084547D01*
X98829761Y-153036928D01*
X98877380Y-152941690D01*
X98877380Y-152655976D01*
X98829761Y-152560738D01*
X98782142Y-152513119D01*
X81605380Y-142321595D02*
X80605380Y-142321595D01*
X80605380Y-142559690D01*
X80653000Y-142702547D01*
X80748238Y-142797785D01*
X80843476Y-142845404D01*
X81033952Y-142893023D01*
X81176809Y-142893023D01*
X81367285Y-142845404D01*
X81462523Y-142797785D01*
X81557761Y-142702547D01*
X81605380Y-142559690D01*
X81605380Y-142321595D01*
X81319666Y-143273976D02*
X81319666Y-143750166D01*
X81605380Y-143178738D02*
X80605380Y-143512071D01*
X81605380Y-143845404D01*
X81605380Y-144702547D02*
X81605380Y-144131119D01*
X81605380Y-144416833D02*
X80605380Y-144416833D01*
X80748238Y-144321595D01*
X80843476Y-144226357D01*
X80891095Y-144131119D01*
X83764428Y-135717595D02*
X83764428Y-136479500D01*
X84145380Y-136098547D02*
X83383476Y-136098547D01*
X83145380Y-137431880D02*
X83145380Y-136955690D01*
X83621571Y-136908071D01*
X83573952Y-136955690D01*
X83526333Y-137050928D01*
X83526333Y-137289023D01*
X83573952Y-137384261D01*
X83621571Y-137431880D01*
X83716809Y-137479500D01*
X83954904Y-137479500D01*
X84050142Y-137431880D01*
X84097761Y-137384261D01*
X84145380Y-137289023D01*
X84145380Y-137050928D01*
X84097761Y-136955690D01*
X84050142Y-136908071D01*
X80335380Y-136289023D02*
X79859190Y-135955690D01*
X80335380Y-135717595D02*
X79335380Y-135717595D01*
X79335380Y-136098547D01*
X79383000Y-136193785D01*
X79430619Y-136241404D01*
X79525857Y-136289023D01*
X79668714Y-136289023D01*
X79763952Y-136241404D01*
X79811571Y-136193785D01*
X79859190Y-136098547D01*
X79859190Y-135717595D01*
X79335380Y-136574738D02*
X79335380Y-137146166D01*
X80335380Y-136860452D02*
X79335380Y-136860452D01*
X80287761Y-137431880D02*
X80335380Y-137574738D01*
X80335380Y-137812833D01*
X80287761Y-137908071D01*
X80240142Y-137955690D01*
X80144904Y-138003309D01*
X80049666Y-138003309D01*
X79954428Y-137955690D01*
X79906809Y-137908071D01*
X79859190Y-137812833D01*
X79811571Y-137622357D01*
X79763952Y-137527119D01*
X79716333Y-137479500D01*
X79621095Y-137431880D01*
X79525857Y-137431880D01*
X79430619Y-137479500D01*
X79383000Y-137527119D01*
X79335380Y-137622357D01*
X79335380Y-137860452D01*
X79383000Y-138003309D01*
X82494428Y-142321595D02*
X82494428Y-143083500D01*
X82875380Y-142702547D02*
X82113476Y-142702547D01*
X81875380Y-144035880D02*
X81875380Y-143559690D01*
X82351571Y-143512071D01*
X82303952Y-143559690D01*
X82256333Y-143654928D01*
X82256333Y-143893023D01*
X82303952Y-143988261D01*
X82351571Y-144035880D01*
X82446809Y-144083500D01*
X82684904Y-144083500D01*
X82780142Y-144035880D01*
X82827761Y-143988261D01*
X82875380Y-143893023D01*
X82875380Y-143654928D01*
X82827761Y-143559690D01*
X82780142Y-143512071D01*
X85320142Y-136289023D02*
X85367761Y-136241404D01*
X85415380Y-136098547D01*
X85415380Y-136003309D01*
X85367761Y-135860452D01*
X85272523Y-135765214D01*
X85177285Y-135717595D01*
X84986809Y-135669976D01*
X84843952Y-135669976D01*
X84653476Y-135717595D01*
X84558238Y-135765214D01*
X84463000Y-135860452D01*
X84415380Y-136003309D01*
X84415380Y-136098547D01*
X84463000Y-136241404D01*
X84510619Y-136289023D01*
X84415380Y-136574738D02*
X84415380Y-137146166D01*
X85415380Y-136860452D02*
X84415380Y-136860452D01*
X85367761Y-137431880D02*
X85415380Y-137574738D01*
X85415380Y-137812833D01*
X85367761Y-137908071D01*
X85320142Y-137955690D01*
X85224904Y-138003309D01*
X85129666Y-138003309D01*
X85034428Y-137955690D01*
X84986809Y-137908071D01*
X84939190Y-137812833D01*
X84891571Y-137622357D01*
X84843952Y-137527119D01*
X84796333Y-137479500D01*
X84701095Y-137431880D01*
X84605857Y-137431880D01*
X84510619Y-137479500D01*
X84463000Y-137527119D01*
X84415380Y-137622357D01*
X84415380Y-137860452D01*
X84463000Y-138003309D01*
X80240142Y-142893023D02*
X80287761Y-142845404D01*
X80335380Y-142702547D01*
X80335380Y-142607309D01*
X80287761Y-142464452D01*
X80192523Y-142369214D01*
X80097285Y-142321595D01*
X79906809Y-142273976D01*
X79763952Y-142273976D01*
X79573476Y-142321595D01*
X79478238Y-142369214D01*
X79383000Y-142464452D01*
X79335380Y-142607309D01*
X79335380Y-142702547D01*
X79383000Y-142845404D01*
X79430619Y-142893023D01*
X80335380Y-143797785D02*
X80335380Y-143321595D01*
X79335380Y-143321595D01*
X80335380Y-144654928D02*
X80335380Y-144083500D01*
X80335380Y-144369214D02*
X79335380Y-144369214D01*
X79478238Y-144273976D01*
X79573476Y-144178738D01*
X79621095Y-144083500D01*
X82558000Y-151227404D02*
X82510380Y-151132166D01*
X82510380Y-150989309D01*
X82558000Y-150846452D01*
X82653238Y-150751214D01*
X82748476Y-150703595D01*
X82938952Y-150655976D01*
X83081809Y-150655976D01*
X83272285Y-150703595D01*
X83367523Y-150751214D01*
X83462761Y-150846452D01*
X83510380Y-150989309D01*
X83510380Y-151084547D01*
X83462761Y-151227404D01*
X83415142Y-151275023D01*
X83081809Y-151275023D01*
X83081809Y-151084547D01*
X83510380Y-151703595D02*
X82510380Y-151703595D01*
X83510380Y-152275023D01*
X82510380Y-152275023D01*
X83510380Y-152751214D02*
X82510380Y-152751214D01*
X82510380Y-152989309D01*
X82558000Y-153132166D01*
X82653238Y-153227404D01*
X82748476Y-153275023D01*
X82938952Y-153322642D01*
X83081809Y-153322642D01*
X83272285Y-153275023D01*
X83367523Y-153227404D01*
X83462761Y-153132166D01*
X83510380Y-152989309D01*
X83510380Y-152751214D01*
X83193000Y-142845404D02*
X83145380Y-142750166D01*
X83145380Y-142607309D01*
X83193000Y-142464452D01*
X83288238Y-142369214D01*
X83383476Y-142321595D01*
X83573952Y-142273976D01*
X83716809Y-142273976D01*
X83907285Y-142321595D01*
X84002523Y-142369214D01*
X84097761Y-142464452D01*
X84145380Y-142607309D01*
X84145380Y-142702547D01*
X84097761Y-142845404D01*
X84050142Y-142893023D01*
X83716809Y-142893023D01*
X83716809Y-142702547D01*
X84145380Y-143321595D02*
X83145380Y-143321595D01*
X84145380Y-143893023D01*
X83145380Y-143893023D01*
X84145380Y-144369214D02*
X83145380Y-144369214D01*
X83145380Y-144607309D01*
X83193000Y-144750166D01*
X83288238Y-144845404D01*
X83383476Y-144893023D01*
X83573952Y-144940642D01*
X83716809Y-144940642D01*
X83907285Y-144893023D01*
X84002523Y-144845404D01*
X84097761Y-144750166D01*
X84145380Y-144607309D01*
X84145380Y-144369214D01*
%TO.C,C42*%
X227687142Y-124032642D02*
X227734761Y-123985023D01*
X227782380Y-123842166D01*
X227782380Y-123746928D01*
X227734761Y-123604071D01*
X227639523Y-123508833D01*
X227544285Y-123461214D01*
X227353809Y-123413595D01*
X227210952Y-123413595D01*
X227020476Y-123461214D01*
X226925238Y-123508833D01*
X226830000Y-123604071D01*
X226782380Y-123746928D01*
X226782380Y-123842166D01*
X226830000Y-123985023D01*
X226877619Y-124032642D01*
X227115714Y-124889785D02*
X227782380Y-124889785D01*
X226734761Y-124651690D02*
X227449047Y-124413595D01*
X227449047Y-125032642D01*
X226877619Y-125365976D02*
X226830000Y-125413595D01*
X226782380Y-125508833D01*
X226782380Y-125746928D01*
X226830000Y-125842166D01*
X226877619Y-125889785D01*
X226972857Y-125937404D01*
X227068095Y-125937404D01*
X227210952Y-125889785D01*
X227782380Y-125318357D01*
X227782380Y-125937404D01*
%TO.C,J14*%
X212356619Y-139261904D02*
X212356619Y-139833333D01*
X212394714Y-139947619D01*
X212470904Y-140023809D01*
X212585190Y-140061904D01*
X212661380Y-140061904D01*
X211556619Y-140061904D02*
X212013761Y-140061904D01*
X211785190Y-140061904D02*
X211785190Y-139261904D01*
X211861380Y-139376190D01*
X211937571Y-139452380D01*
X212013761Y-139490476D01*
X210870904Y-139528571D02*
X210870904Y-140061904D01*
X211061380Y-139223809D02*
X211251857Y-139795238D01*
X210756619Y-139795238D01*
%TO.C,C2*%
X94210142Y-114006333D02*
X94257761Y-113958714D01*
X94305380Y-113815857D01*
X94305380Y-113720619D01*
X94257761Y-113577761D01*
X94162523Y-113482523D01*
X94067285Y-113434904D01*
X93876809Y-113387285D01*
X93733952Y-113387285D01*
X93543476Y-113434904D01*
X93448238Y-113482523D01*
X93353000Y-113577761D01*
X93305380Y-113720619D01*
X93305380Y-113815857D01*
X93353000Y-113958714D01*
X93400619Y-114006333D01*
X93400619Y-114387285D02*
X93353000Y-114434904D01*
X93305380Y-114530142D01*
X93305380Y-114768238D01*
X93353000Y-114863476D01*
X93400619Y-114911095D01*
X93495857Y-114958714D01*
X93591095Y-114958714D01*
X93733952Y-114911095D01*
X94305380Y-114339666D01*
X94305380Y-114958714D01*
%TO.C,C28*%
X93728347Y-134209632D02*
X93775966Y-134257251D01*
X93918823Y-134304870D01*
X94014061Y-134304870D01*
X94156918Y-134257251D01*
X94252156Y-134162013D01*
X94299775Y-134066775D01*
X94347394Y-133876299D01*
X94347394Y-133733442D01*
X94299775Y-133542966D01*
X94252156Y-133447728D01*
X94156918Y-133352490D01*
X94014061Y-133304870D01*
X93918823Y-133304870D01*
X93775966Y-133352490D01*
X93728347Y-133400109D01*
X93347394Y-133400109D02*
X93299775Y-133352490D01*
X93204537Y-133304870D01*
X92966442Y-133304870D01*
X92871204Y-133352490D01*
X92823585Y-133400109D01*
X92775966Y-133495347D01*
X92775966Y-133590585D01*
X92823585Y-133733442D01*
X93395013Y-134304870D01*
X92775966Y-134304870D01*
X92204537Y-133733442D02*
X92299775Y-133685823D01*
X92347394Y-133638204D01*
X92395013Y-133542966D01*
X92395013Y-133495347D01*
X92347394Y-133400109D01*
X92299775Y-133352490D01*
X92204537Y-133304870D01*
X92014061Y-133304870D01*
X91918823Y-133352490D01*
X91871204Y-133400109D01*
X91823585Y-133495347D01*
X91823585Y-133542966D01*
X91871204Y-133638204D01*
X91918823Y-133685823D01*
X92014061Y-133733442D01*
X92204537Y-133733442D01*
X92299775Y-133781061D01*
X92347394Y-133828680D01*
X92395013Y-133923918D01*
X92395013Y-134114394D01*
X92347394Y-134209632D01*
X92299775Y-134257251D01*
X92204537Y-134304870D01*
X92014061Y-134304870D01*
X91918823Y-134257251D01*
X91871204Y-134209632D01*
X91823585Y-134114394D01*
X91823585Y-133923918D01*
X91871204Y-133828680D01*
X91918823Y-133781061D01*
X92014061Y-133733442D01*
%TO.C,C29*%
X83414847Y-121509632D02*
X83462466Y-121557251D01*
X83605323Y-121604870D01*
X83700561Y-121604870D01*
X83843418Y-121557251D01*
X83938656Y-121462013D01*
X83986275Y-121366775D01*
X84033894Y-121176299D01*
X84033894Y-121033442D01*
X83986275Y-120842966D01*
X83938656Y-120747728D01*
X83843418Y-120652490D01*
X83700561Y-120604870D01*
X83605323Y-120604870D01*
X83462466Y-120652490D01*
X83414847Y-120700109D01*
X83033894Y-120700109D02*
X82986275Y-120652490D01*
X82891037Y-120604870D01*
X82652942Y-120604870D01*
X82557704Y-120652490D01*
X82510085Y-120700109D01*
X82462466Y-120795347D01*
X82462466Y-120890585D01*
X82510085Y-121033442D01*
X83081513Y-121604870D01*
X82462466Y-121604870D01*
X81986275Y-121604870D02*
X81795799Y-121604870D01*
X81700561Y-121557251D01*
X81652942Y-121509632D01*
X81557704Y-121366775D01*
X81510085Y-121176299D01*
X81510085Y-120795347D01*
X81557704Y-120700109D01*
X81605323Y-120652490D01*
X81700561Y-120604870D01*
X81891037Y-120604870D01*
X81986275Y-120652490D01*
X82033894Y-120700109D01*
X82081513Y-120795347D01*
X82081513Y-121033442D01*
X82033894Y-121128680D01*
X81986275Y-121176299D01*
X81891037Y-121223918D01*
X81700561Y-121223918D01*
X81605323Y-121176299D01*
X81557704Y-121128680D01*
X81510085Y-121033442D01*
%TO.C,C30*%
X93728347Y-132177632D02*
X93775966Y-132225251D01*
X93918823Y-132272870D01*
X94014061Y-132272870D01*
X94156918Y-132225251D01*
X94252156Y-132130013D01*
X94299775Y-132034775D01*
X94347394Y-131844299D01*
X94347394Y-131701442D01*
X94299775Y-131510966D01*
X94252156Y-131415728D01*
X94156918Y-131320490D01*
X94014061Y-131272870D01*
X93918823Y-131272870D01*
X93775966Y-131320490D01*
X93728347Y-131368109D01*
X93395013Y-131272870D02*
X92775966Y-131272870D01*
X93109299Y-131653823D01*
X92966442Y-131653823D01*
X92871204Y-131701442D01*
X92823585Y-131749061D01*
X92775966Y-131844299D01*
X92775966Y-132082394D01*
X92823585Y-132177632D01*
X92871204Y-132225251D01*
X92966442Y-132272870D01*
X93252156Y-132272870D01*
X93347394Y-132225251D01*
X93395013Y-132177632D01*
X92156918Y-131272870D02*
X92061680Y-131272870D01*
X91966442Y-131320490D01*
X91918823Y-131368109D01*
X91871204Y-131463347D01*
X91823585Y-131653823D01*
X91823585Y-131891918D01*
X91871204Y-132082394D01*
X91918823Y-132177632D01*
X91966442Y-132225251D01*
X92061680Y-132272870D01*
X92156918Y-132272870D01*
X92252156Y-132225251D01*
X92299775Y-132177632D01*
X92347394Y-132082394D01*
X92395013Y-131891918D01*
X92395013Y-131653823D01*
X92347394Y-131463347D01*
X92299775Y-131368109D01*
X92252156Y-131320490D01*
X92156918Y-131272870D01*
%TO.C,C31*%
X81536347Y-132939632D02*
X81583966Y-132987251D01*
X81726823Y-133034870D01*
X81822061Y-133034870D01*
X81964918Y-132987251D01*
X82060156Y-132892013D01*
X82107775Y-132796775D01*
X82155394Y-132606299D01*
X82155394Y-132463442D01*
X82107775Y-132272966D01*
X82060156Y-132177728D01*
X81964918Y-132082490D01*
X81822061Y-132034870D01*
X81726823Y-132034870D01*
X81583966Y-132082490D01*
X81536347Y-132130109D01*
X81203013Y-132034870D02*
X80583966Y-132034870D01*
X80917299Y-132415823D01*
X80774442Y-132415823D01*
X80679204Y-132463442D01*
X80631585Y-132511061D01*
X80583966Y-132606299D01*
X80583966Y-132844394D01*
X80631585Y-132939632D01*
X80679204Y-132987251D01*
X80774442Y-133034870D01*
X81060156Y-133034870D01*
X81155394Y-132987251D01*
X81203013Y-132939632D01*
X79631585Y-133034870D02*
X80203013Y-133034870D01*
X79917299Y-133034870D02*
X79917299Y-132034870D01*
X80012537Y-132177728D01*
X80107775Y-132272966D01*
X80203013Y-132320585D01*
%TO.C,C33*%
X79218632Y-127367632D02*
X79266251Y-127320013D01*
X79313870Y-127177156D01*
X79313870Y-127081918D01*
X79266251Y-126939061D01*
X79171013Y-126843823D01*
X79075775Y-126796204D01*
X78885299Y-126748585D01*
X78742442Y-126748585D01*
X78551966Y-126796204D01*
X78456728Y-126843823D01*
X78361490Y-126939061D01*
X78313870Y-127081918D01*
X78313870Y-127177156D01*
X78361490Y-127320013D01*
X78409109Y-127367632D01*
X78313870Y-127700966D02*
X78313870Y-128320013D01*
X78694823Y-127986680D01*
X78694823Y-128129537D01*
X78742442Y-128224775D01*
X78790061Y-128272394D01*
X78885299Y-128320013D01*
X79123394Y-128320013D01*
X79218632Y-128272394D01*
X79266251Y-128224775D01*
X79313870Y-128129537D01*
X79313870Y-127843823D01*
X79266251Y-127748585D01*
X79218632Y-127700966D01*
X78313870Y-128653347D02*
X78313870Y-129272394D01*
X78694823Y-128939061D01*
X78694823Y-129081918D01*
X78742442Y-129177156D01*
X78790061Y-129224775D01*
X78885299Y-129272394D01*
X79123394Y-129272394D01*
X79218632Y-129224775D01*
X79266251Y-129177156D01*
X79313870Y-129081918D01*
X79313870Y-128796204D01*
X79266251Y-128700966D01*
X79218632Y-128653347D01*
%TO.C,J17*%
X60533870Y-111706966D02*
X61248156Y-111706966D01*
X61391013Y-111659347D01*
X61486251Y-111564109D01*
X61533870Y-111421251D01*
X61533870Y-111326013D01*
X61533870Y-112706966D02*
X61533870Y-112135537D01*
X61533870Y-112421251D02*
X60533870Y-112421251D01*
X60676728Y-112326013D01*
X60771966Y-112230775D01*
X60819585Y-112135537D01*
X60533870Y-113040299D02*
X60533870Y-113706966D01*
X61533870Y-113278394D01*
%TO.C,J18*%
X56723870Y-111706966D02*
X57438156Y-111706966D01*
X57581013Y-111659347D01*
X57676251Y-111564109D01*
X57723870Y-111421251D01*
X57723870Y-111326013D01*
X57723870Y-112706966D02*
X57723870Y-112135537D01*
X57723870Y-112421251D02*
X56723870Y-112421251D01*
X56866728Y-112326013D01*
X56961966Y-112230775D01*
X57009585Y-112135537D01*
X57152442Y-113278394D02*
X57104823Y-113183156D01*
X57057204Y-113135537D01*
X56961966Y-113087918D01*
X56914347Y-113087918D01*
X56819109Y-113135537D01*
X56771490Y-113183156D01*
X56723870Y-113278394D01*
X56723870Y-113468870D01*
X56771490Y-113564109D01*
X56819109Y-113611728D01*
X56914347Y-113659347D01*
X56961966Y-113659347D01*
X57057204Y-113611728D01*
X57104823Y-113564109D01*
X57152442Y-113468870D01*
X57152442Y-113278394D01*
X57200061Y-113183156D01*
X57247680Y-113135537D01*
X57342918Y-113087918D01*
X57533394Y-113087918D01*
X57628632Y-113135537D01*
X57676251Y-113183156D01*
X57723870Y-113278394D01*
X57723870Y-113468870D01*
X57676251Y-113564109D01*
X57628632Y-113611728D01*
X57533394Y-113659347D01*
X57342918Y-113659347D01*
X57247680Y-113611728D01*
X57200061Y-113564109D01*
X57152442Y-113468870D01*
%TO.C,J19*%
X55453870Y-111706966D02*
X56168156Y-111706966D01*
X56311013Y-111659347D01*
X56406251Y-111564109D01*
X56453870Y-111421251D01*
X56453870Y-111326013D01*
X56453870Y-112706966D02*
X56453870Y-112135537D01*
X56453870Y-112421251D02*
X55453870Y-112421251D01*
X55596728Y-112326013D01*
X55691966Y-112230775D01*
X55739585Y-112135537D01*
X56453870Y-113183156D02*
X56453870Y-113373632D01*
X56406251Y-113468870D01*
X56358632Y-113516490D01*
X56215775Y-113611728D01*
X56025299Y-113659347D01*
X55644347Y-113659347D01*
X55549109Y-113611728D01*
X55501490Y-113564109D01*
X55453870Y-113468870D01*
X55453870Y-113278394D01*
X55501490Y-113183156D01*
X55549109Y-113135537D01*
X55644347Y-113087918D01*
X55882442Y-113087918D01*
X55977680Y-113135537D01*
X56025299Y-113183156D01*
X56072918Y-113278394D01*
X56072918Y-113468870D01*
X56025299Y-113564109D01*
X55977680Y-113611728D01*
X55882442Y-113659347D01*
%TO.C,JP3*%
X81361870Y-123367156D02*
X82076156Y-123367156D01*
X82219013Y-123319537D01*
X82314251Y-123224299D01*
X82361870Y-123081442D01*
X82361870Y-122986204D01*
X82361870Y-123843347D02*
X81361870Y-123843347D01*
X81361870Y-124224299D01*
X81409490Y-124319537D01*
X81457109Y-124367156D01*
X81552347Y-124414775D01*
X81695204Y-124414775D01*
X81790442Y-124367156D01*
X81838061Y-124319537D01*
X81885680Y-124224299D01*
X81885680Y-123843347D01*
X81361870Y-124748109D02*
X81361870Y-125367156D01*
X81742823Y-125033823D01*
X81742823Y-125176680D01*
X81790442Y-125271918D01*
X81838061Y-125319537D01*
X81933299Y-125367156D01*
X82171394Y-125367156D01*
X82266632Y-125319537D01*
X82314251Y-125271918D01*
X82361870Y-125176680D01*
X82361870Y-124890966D01*
X82314251Y-124795728D01*
X82266632Y-124748109D01*
X83631870Y-130926204D02*
X83631870Y-130354775D01*
X83631870Y-130640490D02*
X82631870Y-130640490D01*
X82774728Y-130545251D01*
X82869966Y-130450013D01*
X82917585Y-130354775D01*
X82631870Y-125107156D02*
X82631870Y-125726204D01*
X83012823Y-125392870D01*
X83012823Y-125535728D01*
X83060442Y-125630966D01*
X83108061Y-125678585D01*
X83203299Y-125726204D01*
X83441394Y-125726204D01*
X83536632Y-125678585D01*
X83584251Y-125630966D01*
X83631870Y-125535728D01*
X83631870Y-125250013D01*
X83584251Y-125154775D01*
X83536632Y-125107156D01*
%TO.C,R8*%
X99125870Y-113873823D02*
X98649680Y-113540490D01*
X99125870Y-113302394D02*
X98125870Y-113302394D01*
X98125870Y-113683347D01*
X98173490Y-113778585D01*
X98221109Y-113826204D01*
X98316347Y-113873823D01*
X98459204Y-113873823D01*
X98554442Y-113826204D01*
X98602061Y-113778585D01*
X98649680Y-113683347D01*
X98649680Y-113302394D01*
X98554442Y-114445251D02*
X98506823Y-114350013D01*
X98459204Y-114302394D01*
X98363966Y-114254775D01*
X98316347Y-114254775D01*
X98221109Y-114302394D01*
X98173490Y-114350013D01*
X98125870Y-114445251D01*
X98125870Y-114635728D01*
X98173490Y-114730966D01*
X98221109Y-114778585D01*
X98316347Y-114826204D01*
X98363966Y-114826204D01*
X98459204Y-114778585D01*
X98506823Y-114730966D01*
X98554442Y-114635728D01*
X98554442Y-114445251D01*
X98602061Y-114350013D01*
X98649680Y-114302394D01*
X98744918Y-114254775D01*
X98935394Y-114254775D01*
X99030632Y-114302394D01*
X99078251Y-114350013D01*
X99125870Y-114445251D01*
X99125870Y-114635728D01*
X99078251Y-114730966D01*
X99030632Y-114778585D01*
X98935394Y-114826204D01*
X98744918Y-114826204D01*
X98649680Y-114778585D01*
X98602061Y-114730966D01*
X98554442Y-114635728D01*
%TO.C,R9*%
X92273380Y-114006333D02*
X91797190Y-113673000D01*
X92273380Y-113434904D02*
X91273380Y-113434904D01*
X91273380Y-113815857D01*
X91321000Y-113911095D01*
X91368619Y-113958714D01*
X91463857Y-114006333D01*
X91606714Y-114006333D01*
X91701952Y-113958714D01*
X91749571Y-113911095D01*
X91797190Y-113815857D01*
X91797190Y-113434904D01*
X92273380Y-114482523D02*
X92273380Y-114673000D01*
X92225761Y-114768238D01*
X92178142Y-114815857D01*
X92035285Y-114911095D01*
X91844809Y-114958714D01*
X91463857Y-114958714D01*
X91368619Y-114911095D01*
X91321000Y-114863476D01*
X91273380Y-114768238D01*
X91273380Y-114577761D01*
X91321000Y-114482523D01*
X91368619Y-114434904D01*
X91463857Y-114387285D01*
X91701952Y-114387285D01*
X91797190Y-114434904D01*
X91844809Y-114482523D01*
X91892428Y-114577761D01*
X91892428Y-114768238D01*
X91844809Y-114863476D01*
X91797190Y-114911095D01*
X91701952Y-114958714D01*
%TO.C,R20*%
X76265870Y-132447632D02*
X75789680Y-132114299D01*
X76265870Y-131876204D02*
X75265870Y-131876204D01*
X75265870Y-132257156D01*
X75313490Y-132352394D01*
X75361109Y-132400013D01*
X75456347Y-132447632D01*
X75599204Y-132447632D01*
X75694442Y-132400013D01*
X75742061Y-132352394D01*
X75789680Y-132257156D01*
X75789680Y-131876204D01*
X75361109Y-132828585D02*
X75313490Y-132876204D01*
X75265870Y-132971442D01*
X75265870Y-133209537D01*
X75313490Y-133304775D01*
X75361109Y-133352394D01*
X75456347Y-133400013D01*
X75551585Y-133400013D01*
X75694442Y-133352394D01*
X76265870Y-132780966D01*
X76265870Y-133400013D01*
X75265870Y-134019061D02*
X75265870Y-134114299D01*
X75313490Y-134209537D01*
X75361109Y-134257156D01*
X75456347Y-134304775D01*
X75646823Y-134352394D01*
X75884918Y-134352394D01*
X76075394Y-134304775D01*
X76170632Y-134257156D01*
X76218251Y-134209537D01*
X76265870Y-134114299D01*
X76265870Y-134019061D01*
X76218251Y-133923823D01*
X76170632Y-133876204D01*
X76075394Y-133828585D01*
X75884918Y-133780966D01*
X75646823Y-133780966D01*
X75456347Y-133828585D01*
X75361109Y-133876204D01*
X75313490Y-133923823D01*
X75265870Y-134019061D01*
%TO.C,R21*%
X72884347Y-118302870D02*
X73217680Y-117826680D01*
X73455775Y-118302870D02*
X73455775Y-117302870D01*
X73074823Y-117302870D01*
X72979585Y-117350490D01*
X72931966Y-117398109D01*
X72884347Y-117493347D01*
X72884347Y-117636204D01*
X72931966Y-117731442D01*
X72979585Y-117779061D01*
X73074823Y-117826680D01*
X73455775Y-117826680D01*
X72503394Y-117398109D02*
X72455775Y-117350490D01*
X72360537Y-117302870D01*
X72122442Y-117302870D01*
X72027204Y-117350490D01*
X71979585Y-117398109D01*
X71931966Y-117493347D01*
X71931966Y-117588585D01*
X71979585Y-117731442D01*
X72551013Y-118302870D01*
X71931966Y-118302870D01*
X70979585Y-118302870D02*
X71551013Y-118302870D01*
X71265299Y-118302870D02*
X71265299Y-117302870D01*
X71360537Y-117445728D01*
X71455775Y-117540966D01*
X71551013Y-117588585D01*
%TO.C,R22*%
X68344347Y-118302870D02*
X68677680Y-117826680D01*
X68915775Y-118302870D02*
X68915775Y-117302870D01*
X68534823Y-117302870D01*
X68439585Y-117350490D01*
X68391966Y-117398109D01*
X68344347Y-117493347D01*
X68344347Y-117636204D01*
X68391966Y-117731442D01*
X68439585Y-117779061D01*
X68534823Y-117826680D01*
X68915775Y-117826680D01*
X67963394Y-117398109D02*
X67915775Y-117350490D01*
X67820537Y-117302870D01*
X67582442Y-117302870D01*
X67487204Y-117350490D01*
X67439585Y-117398109D01*
X67391966Y-117493347D01*
X67391966Y-117588585D01*
X67439585Y-117731442D01*
X68011013Y-118302870D01*
X67391966Y-118302870D01*
X67011013Y-117398109D02*
X66963394Y-117350490D01*
X66868156Y-117302870D01*
X66630061Y-117302870D01*
X66534823Y-117350490D01*
X66487204Y-117398109D01*
X66439585Y-117493347D01*
X66439585Y-117588585D01*
X66487204Y-117731442D01*
X67058632Y-118302870D01*
X66439585Y-118302870D01*
%TO.C,TP1*%
X59263870Y-111254585D02*
X59263870Y-111826013D01*
X60263870Y-111540299D02*
X59263870Y-111540299D01*
X60263870Y-112159347D02*
X59263870Y-112159347D01*
X59263870Y-112540299D01*
X59311490Y-112635537D01*
X59359109Y-112683156D01*
X59454347Y-112730775D01*
X59597204Y-112730775D01*
X59692442Y-112683156D01*
X59740061Y-112635537D01*
X59787680Y-112540299D01*
X59787680Y-112159347D01*
X60263870Y-113683156D02*
X60263870Y-113111728D01*
X60263870Y-113397442D02*
X59263870Y-113397442D01*
X59406728Y-113302204D01*
X59501966Y-113206966D01*
X59549585Y-113111728D01*
%TO.C,TP2*%
X57993870Y-111254585D02*
X57993870Y-111826013D01*
X58993870Y-111540299D02*
X57993870Y-111540299D01*
X58993870Y-112159347D02*
X57993870Y-112159347D01*
X57993870Y-112540299D01*
X58041490Y-112635537D01*
X58089109Y-112683156D01*
X58184347Y-112730775D01*
X58327204Y-112730775D01*
X58422442Y-112683156D01*
X58470061Y-112635537D01*
X58517680Y-112540299D01*
X58517680Y-112159347D01*
X58089109Y-113111728D02*
X58041490Y-113159347D01*
X57993870Y-113254585D01*
X57993870Y-113492680D01*
X58041490Y-113587918D01*
X58089109Y-113635537D01*
X58184347Y-113683156D01*
X58279585Y-113683156D01*
X58422442Y-113635537D01*
X58993870Y-113064109D01*
X58993870Y-113683156D01*
%TO.C,JP2*%
X87822823Y-125662870D02*
X87822823Y-126377156D01*
X87870442Y-126520013D01*
X87965680Y-126615251D01*
X88108537Y-126662870D01*
X88203775Y-126662870D01*
X87346632Y-126662870D02*
X87346632Y-125662870D01*
X86965680Y-125662870D01*
X86870442Y-125710490D01*
X86822823Y-125758109D01*
X86775204Y-125853347D01*
X86775204Y-125996204D01*
X86822823Y-126091442D01*
X86870442Y-126139061D01*
X86965680Y-126186680D01*
X87346632Y-126186680D01*
X86394251Y-125758109D02*
X86346632Y-125710490D01*
X86251394Y-125662870D01*
X86013299Y-125662870D01*
X85918061Y-125710490D01*
X85870442Y-125758109D01*
X85822823Y-125853347D01*
X85822823Y-125948585D01*
X85870442Y-126091442D01*
X86441870Y-126662870D01*
X85822823Y-126662870D01*
X84722823Y-127462870D02*
X84103775Y-127462870D01*
X84437109Y-127843823D01*
X84294251Y-127843823D01*
X84199013Y-127891442D01*
X84151394Y-127939061D01*
X84103775Y-128034299D01*
X84103775Y-128272394D01*
X84151394Y-128367632D01*
X84199013Y-128415251D01*
X84294251Y-128462870D01*
X84579966Y-128462870D01*
X84675204Y-128415251D01*
X84722823Y-128367632D01*
X89303775Y-128462870D02*
X89875204Y-128462870D01*
X89589490Y-128462870D02*
X89589490Y-127462870D01*
X89684728Y-127605728D01*
X89779966Y-127700966D01*
X89875204Y-127748585D01*
%TO.C,C1*%
X101062632Y-113873823D02*
X101110251Y-113826204D01*
X101157870Y-113683347D01*
X101157870Y-113588109D01*
X101110251Y-113445251D01*
X101015013Y-113350013D01*
X100919775Y-113302394D01*
X100729299Y-113254775D01*
X100586442Y-113254775D01*
X100395966Y-113302394D01*
X100300728Y-113350013D01*
X100205490Y-113445251D01*
X100157870Y-113588109D01*
X100157870Y-113683347D01*
X100205490Y-113826204D01*
X100253109Y-113873823D01*
X101157870Y-114826204D02*
X101157870Y-114254775D01*
X101157870Y-114540490D02*
X100157870Y-114540490D01*
X100300728Y-114445251D01*
X100395966Y-114350013D01*
X100443585Y-114254775D01*
%TO.C,C23*%
X81536347Y-134209632D02*
X81583966Y-134257251D01*
X81726823Y-134304870D01*
X81822061Y-134304870D01*
X81964918Y-134257251D01*
X82060156Y-134162013D01*
X82107775Y-134066775D01*
X82155394Y-133876299D01*
X82155394Y-133733442D01*
X82107775Y-133542966D01*
X82060156Y-133447728D01*
X81964918Y-133352490D01*
X81822061Y-133304870D01*
X81726823Y-133304870D01*
X81583966Y-133352490D01*
X81536347Y-133400109D01*
X81155394Y-133400109D02*
X81107775Y-133352490D01*
X81012537Y-133304870D01*
X80774442Y-133304870D01*
X80679204Y-133352490D01*
X80631585Y-133400109D01*
X80583966Y-133495347D01*
X80583966Y-133590585D01*
X80631585Y-133733442D01*
X81203013Y-134304870D01*
X80583966Y-134304870D01*
X80250632Y-133304870D02*
X79631585Y-133304870D01*
X79964918Y-133685823D01*
X79822061Y-133685823D01*
X79726823Y-133733442D01*
X79679204Y-133781061D01*
X79631585Y-133876299D01*
X79631585Y-134114394D01*
X79679204Y-134209632D01*
X79726823Y-134257251D01*
X79822061Y-134304870D01*
X80107775Y-134304870D01*
X80203013Y-134257251D01*
X80250632Y-134209632D01*
%TO.C,C11*%
X94998347Y-137511632D02*
X95045966Y-137559251D01*
X95188823Y-137606870D01*
X95284061Y-137606870D01*
X95426918Y-137559251D01*
X95522156Y-137464013D01*
X95569775Y-137368775D01*
X95617394Y-137178299D01*
X95617394Y-137035442D01*
X95569775Y-136844966D01*
X95522156Y-136749728D01*
X95426918Y-136654490D01*
X95284061Y-136606870D01*
X95188823Y-136606870D01*
X95045966Y-136654490D01*
X94998347Y-136702109D01*
X94045966Y-137606870D02*
X94617394Y-137606870D01*
X94331680Y-137606870D02*
X94331680Y-136606870D01*
X94426918Y-136749728D01*
X94522156Y-136844966D01*
X94617394Y-136892585D01*
X93093585Y-137606870D02*
X93665013Y-137606870D01*
X93379299Y-137606870D02*
X93379299Y-136606870D01*
X93474537Y-136749728D01*
X93569775Y-136844966D01*
X93665013Y-136892585D01*
%TO.C,C14*%
X201017142Y-129913142D02*
X201064761Y-129865523D01*
X201112380Y-129722666D01*
X201112380Y-129627428D01*
X201064761Y-129484571D01*
X200969523Y-129389333D01*
X200874285Y-129341714D01*
X200683809Y-129294095D01*
X200540952Y-129294095D01*
X200350476Y-129341714D01*
X200255238Y-129389333D01*
X200160000Y-129484571D01*
X200112380Y-129627428D01*
X200112380Y-129722666D01*
X200160000Y-129865523D01*
X200207619Y-129913142D01*
X201112380Y-130865523D02*
X201112380Y-130294095D01*
X201112380Y-130579809D02*
X200112380Y-130579809D01*
X200255238Y-130484571D01*
X200350476Y-130389333D01*
X200398095Y-130294095D01*
X200445714Y-131722666D02*
X201112380Y-131722666D01*
X200064761Y-131484571D02*
X200779047Y-131246476D01*
X200779047Y-131865523D01*
%TO.C,C15*%
X239117142Y-129913142D02*
X239164761Y-129865523D01*
X239212380Y-129722666D01*
X239212380Y-129627428D01*
X239164761Y-129484571D01*
X239069523Y-129389333D01*
X238974285Y-129341714D01*
X238783809Y-129294095D01*
X238640952Y-129294095D01*
X238450476Y-129341714D01*
X238355238Y-129389333D01*
X238260000Y-129484571D01*
X238212380Y-129627428D01*
X238212380Y-129722666D01*
X238260000Y-129865523D01*
X238307619Y-129913142D01*
X239212380Y-130865523D02*
X239212380Y-130294095D01*
X239212380Y-130579809D02*
X238212380Y-130579809D01*
X238355238Y-130484571D01*
X238450476Y-130389333D01*
X238498095Y-130294095D01*
X238212380Y-131770285D02*
X238212380Y-131294095D01*
X238688571Y-131246476D01*
X238640952Y-131294095D01*
X238593333Y-131389333D01*
X238593333Y-131627428D01*
X238640952Y-131722666D01*
X238688571Y-131770285D01*
X238783809Y-131817904D01*
X239021904Y-131817904D01*
X239117142Y-131770285D01*
X239164761Y-131722666D01*
X239212380Y-131627428D01*
X239212380Y-131389333D01*
X239164761Y-131294095D01*
X239117142Y-131246476D01*
%TO.C,C16*%
X125579142Y-124325142D02*
X125626761Y-124277523D01*
X125674380Y-124134666D01*
X125674380Y-124039428D01*
X125626761Y-123896571D01*
X125531523Y-123801333D01*
X125436285Y-123753714D01*
X125245809Y-123706095D01*
X125102952Y-123706095D01*
X124912476Y-123753714D01*
X124817238Y-123801333D01*
X124722000Y-123896571D01*
X124674380Y-124039428D01*
X124674380Y-124134666D01*
X124722000Y-124277523D01*
X124769619Y-124325142D01*
X125674380Y-125277523D02*
X125674380Y-124706095D01*
X125674380Y-124991809D02*
X124674380Y-124991809D01*
X124817238Y-124896571D01*
X124912476Y-124801333D01*
X124960095Y-124706095D01*
X124674380Y-126134666D02*
X124674380Y-125944190D01*
X124722000Y-125848952D01*
X124769619Y-125801333D01*
X124912476Y-125706095D01*
X125102952Y-125658476D01*
X125483904Y-125658476D01*
X125579142Y-125706095D01*
X125626761Y-125753714D01*
X125674380Y-125848952D01*
X125674380Y-126039428D01*
X125626761Y-126134666D01*
X125579142Y-126182285D01*
X125483904Y-126229904D01*
X125245809Y-126229904D01*
X125150571Y-126182285D01*
X125102952Y-126134666D01*
X125055333Y-126039428D01*
X125055333Y-125848952D01*
X125102952Y-125753714D01*
X125150571Y-125706095D01*
X125245809Y-125658476D01*
%TO.C,C20*%
X202795142Y-129913142D02*
X202842761Y-129865523D01*
X202890380Y-129722666D01*
X202890380Y-129627428D01*
X202842761Y-129484571D01*
X202747523Y-129389333D01*
X202652285Y-129341714D01*
X202461809Y-129294095D01*
X202318952Y-129294095D01*
X202128476Y-129341714D01*
X202033238Y-129389333D01*
X201938000Y-129484571D01*
X201890380Y-129627428D01*
X201890380Y-129722666D01*
X201938000Y-129865523D01*
X201985619Y-129913142D01*
X201985619Y-130294095D02*
X201938000Y-130341714D01*
X201890380Y-130436952D01*
X201890380Y-130675047D01*
X201938000Y-130770285D01*
X201985619Y-130817904D01*
X202080857Y-130865523D01*
X202176095Y-130865523D01*
X202318952Y-130817904D01*
X202890380Y-130246476D01*
X202890380Y-130865523D01*
X201890380Y-131484571D02*
X201890380Y-131579809D01*
X201938000Y-131675047D01*
X201985619Y-131722666D01*
X202080857Y-131770285D01*
X202271333Y-131817904D01*
X202509428Y-131817904D01*
X202699904Y-131770285D01*
X202795142Y-131722666D01*
X202842761Y-131675047D01*
X202890380Y-131579809D01*
X202890380Y-131484571D01*
X202842761Y-131389333D01*
X202795142Y-131341714D01*
X202699904Y-131294095D01*
X202509428Y-131246476D01*
X202271333Y-131246476D01*
X202080857Y-131294095D01*
X201985619Y-131341714D01*
X201938000Y-131389333D01*
X201890380Y-131484571D01*
%TO.C,C21*%
X240768142Y-129913142D02*
X240815761Y-129865523D01*
X240863380Y-129722666D01*
X240863380Y-129627428D01*
X240815761Y-129484571D01*
X240720523Y-129389333D01*
X240625285Y-129341714D01*
X240434809Y-129294095D01*
X240291952Y-129294095D01*
X240101476Y-129341714D01*
X240006238Y-129389333D01*
X239911000Y-129484571D01*
X239863380Y-129627428D01*
X239863380Y-129722666D01*
X239911000Y-129865523D01*
X239958619Y-129913142D01*
X239958619Y-130294095D02*
X239911000Y-130341714D01*
X239863380Y-130436952D01*
X239863380Y-130675047D01*
X239911000Y-130770285D01*
X239958619Y-130817904D01*
X240053857Y-130865523D01*
X240149095Y-130865523D01*
X240291952Y-130817904D01*
X240863380Y-130246476D01*
X240863380Y-130865523D01*
X240863380Y-131817904D02*
X240863380Y-131246476D01*
X240863380Y-131532190D02*
X239863380Y-131532190D01*
X240006238Y-131436952D01*
X240101476Y-131341714D01*
X240149095Y-131246476D01*
%TO.C,C35*%
X127357142Y-124325142D02*
X127404761Y-124277523D01*
X127452380Y-124134666D01*
X127452380Y-124039428D01*
X127404761Y-123896571D01*
X127309523Y-123801333D01*
X127214285Y-123753714D01*
X127023809Y-123706095D01*
X126880952Y-123706095D01*
X126690476Y-123753714D01*
X126595238Y-123801333D01*
X126500000Y-123896571D01*
X126452380Y-124039428D01*
X126452380Y-124134666D01*
X126500000Y-124277523D01*
X126547619Y-124325142D01*
X126452380Y-124658476D02*
X126452380Y-125277523D01*
X126833333Y-124944190D01*
X126833333Y-125087047D01*
X126880952Y-125182285D01*
X126928571Y-125229904D01*
X127023809Y-125277523D01*
X127261904Y-125277523D01*
X127357142Y-125229904D01*
X127404761Y-125182285D01*
X127452380Y-125087047D01*
X127452380Y-124801333D01*
X127404761Y-124706095D01*
X127357142Y-124658476D01*
X126452380Y-126182285D02*
X126452380Y-125706095D01*
X126928571Y-125658476D01*
X126880952Y-125706095D01*
X126833333Y-125801333D01*
X126833333Y-126039428D01*
X126880952Y-126134666D01*
X126928571Y-126182285D01*
X127023809Y-126229904D01*
X127261904Y-126229904D01*
X127357142Y-126182285D01*
X127404761Y-126134666D01*
X127452380Y-126039428D01*
X127452380Y-125801333D01*
X127404761Y-125706095D01*
X127357142Y-125658476D01*
%TO.C,C36*%
X192127142Y-124495142D02*
X192174761Y-124447523D01*
X192222380Y-124304666D01*
X192222380Y-124209428D01*
X192174761Y-124066571D01*
X192079523Y-123971333D01*
X191984285Y-123923714D01*
X191793809Y-123876095D01*
X191650952Y-123876095D01*
X191460476Y-123923714D01*
X191365238Y-123971333D01*
X191270000Y-124066571D01*
X191222380Y-124209428D01*
X191222380Y-124304666D01*
X191270000Y-124447523D01*
X191317619Y-124495142D01*
X191222380Y-124828476D02*
X191222380Y-125447523D01*
X191603333Y-125114190D01*
X191603333Y-125257047D01*
X191650952Y-125352285D01*
X191698571Y-125399904D01*
X191793809Y-125447523D01*
X192031904Y-125447523D01*
X192127142Y-125399904D01*
X192174761Y-125352285D01*
X192222380Y-125257047D01*
X192222380Y-124971333D01*
X192174761Y-124876095D01*
X192127142Y-124828476D01*
X191222380Y-126304666D02*
X191222380Y-126114190D01*
X191270000Y-126018952D01*
X191317619Y-125971333D01*
X191460476Y-125876095D01*
X191650952Y-125828476D01*
X192031904Y-125828476D01*
X192127142Y-125876095D01*
X192174761Y-125923714D01*
X192222380Y-126018952D01*
X192222380Y-126209428D01*
X192174761Y-126304666D01*
X192127142Y-126352285D01*
X192031904Y-126399904D01*
X191793809Y-126399904D01*
X191698571Y-126352285D01*
X191650952Y-126304666D01*
X191603333Y-126209428D01*
X191603333Y-126018952D01*
X191650952Y-125923714D01*
X191698571Y-125876095D01*
X191793809Y-125828476D01*
%TO.C,C37*%
X230100142Y-124540642D02*
X230147761Y-124493023D01*
X230195380Y-124350166D01*
X230195380Y-124254928D01*
X230147761Y-124112071D01*
X230052523Y-124016833D01*
X229957285Y-123969214D01*
X229766809Y-123921595D01*
X229623952Y-123921595D01*
X229433476Y-123969214D01*
X229338238Y-124016833D01*
X229243000Y-124112071D01*
X229195380Y-124254928D01*
X229195380Y-124350166D01*
X229243000Y-124493023D01*
X229290619Y-124540642D01*
X229195380Y-124873976D02*
X229195380Y-125493023D01*
X229576333Y-125159690D01*
X229576333Y-125302547D01*
X229623952Y-125397785D01*
X229671571Y-125445404D01*
X229766809Y-125493023D01*
X230004904Y-125493023D01*
X230100142Y-125445404D01*
X230147761Y-125397785D01*
X230195380Y-125302547D01*
X230195380Y-125016833D01*
X230147761Y-124921595D01*
X230100142Y-124873976D01*
X229195380Y-125826357D02*
X229195380Y-126493023D01*
X230195380Y-126064452D01*
%TO.C,C38*%
X123547142Y-124325142D02*
X123594761Y-124277523D01*
X123642380Y-124134666D01*
X123642380Y-124039428D01*
X123594761Y-123896571D01*
X123499523Y-123801333D01*
X123404285Y-123753714D01*
X123213809Y-123706095D01*
X123070952Y-123706095D01*
X122880476Y-123753714D01*
X122785238Y-123801333D01*
X122690000Y-123896571D01*
X122642380Y-124039428D01*
X122642380Y-124134666D01*
X122690000Y-124277523D01*
X122737619Y-124325142D01*
X122642380Y-124658476D02*
X122642380Y-125277523D01*
X123023333Y-124944190D01*
X123023333Y-125087047D01*
X123070952Y-125182285D01*
X123118571Y-125229904D01*
X123213809Y-125277523D01*
X123451904Y-125277523D01*
X123547142Y-125229904D01*
X123594761Y-125182285D01*
X123642380Y-125087047D01*
X123642380Y-124801333D01*
X123594761Y-124706095D01*
X123547142Y-124658476D01*
X123070952Y-125848952D02*
X123023333Y-125753714D01*
X122975714Y-125706095D01*
X122880476Y-125658476D01*
X122832857Y-125658476D01*
X122737619Y-125706095D01*
X122690000Y-125753714D01*
X122642380Y-125848952D01*
X122642380Y-126039428D01*
X122690000Y-126134666D01*
X122737619Y-126182285D01*
X122832857Y-126229904D01*
X122880476Y-126229904D01*
X122975714Y-126182285D01*
X123023333Y-126134666D01*
X123070952Y-126039428D01*
X123070952Y-125848952D01*
X123118571Y-125753714D01*
X123166190Y-125706095D01*
X123261428Y-125658476D01*
X123451904Y-125658476D01*
X123547142Y-125706095D01*
X123594761Y-125753714D01*
X123642380Y-125848952D01*
X123642380Y-126039428D01*
X123594761Y-126134666D01*
X123547142Y-126182285D01*
X123451904Y-126229904D01*
X123261428Y-126229904D01*
X123166190Y-126182285D01*
X123118571Y-126134666D01*
X123070952Y-126039428D01*
%TO.C,C39*%
X121007142Y-124325142D02*
X121054761Y-124277523D01*
X121102380Y-124134666D01*
X121102380Y-124039428D01*
X121054761Y-123896571D01*
X120959523Y-123801333D01*
X120864285Y-123753714D01*
X120673809Y-123706095D01*
X120530952Y-123706095D01*
X120340476Y-123753714D01*
X120245238Y-123801333D01*
X120150000Y-123896571D01*
X120102380Y-124039428D01*
X120102380Y-124134666D01*
X120150000Y-124277523D01*
X120197619Y-124325142D01*
X120102380Y-124658476D02*
X120102380Y-125277523D01*
X120483333Y-124944190D01*
X120483333Y-125087047D01*
X120530952Y-125182285D01*
X120578571Y-125229904D01*
X120673809Y-125277523D01*
X120911904Y-125277523D01*
X121007142Y-125229904D01*
X121054761Y-125182285D01*
X121102380Y-125087047D01*
X121102380Y-124801333D01*
X121054761Y-124706095D01*
X121007142Y-124658476D01*
X121102380Y-125753714D02*
X121102380Y-125944190D01*
X121054761Y-126039428D01*
X121007142Y-126087047D01*
X120864285Y-126182285D01*
X120673809Y-126229904D01*
X120292857Y-126229904D01*
X120197619Y-126182285D01*
X120150000Y-126134666D01*
X120102380Y-126039428D01*
X120102380Y-125848952D01*
X120150000Y-125753714D01*
X120197619Y-125706095D01*
X120292857Y-125658476D01*
X120530952Y-125658476D01*
X120626190Y-125706095D01*
X120673809Y-125753714D01*
X120721428Y-125848952D01*
X120721428Y-126039428D01*
X120673809Y-126134666D01*
X120626190Y-126182285D01*
X120530952Y-126229904D01*
%TO.C,C40*%
X154789142Y-128643142D02*
X154836761Y-128595523D01*
X154884380Y-128452666D01*
X154884380Y-128357428D01*
X154836761Y-128214571D01*
X154741523Y-128119333D01*
X154646285Y-128071714D01*
X154455809Y-128024095D01*
X154312952Y-128024095D01*
X154122476Y-128071714D01*
X154027238Y-128119333D01*
X153932000Y-128214571D01*
X153884380Y-128357428D01*
X153884380Y-128452666D01*
X153932000Y-128595523D01*
X153979619Y-128643142D01*
X154217714Y-129500285D02*
X154884380Y-129500285D01*
X153836761Y-129262190D02*
X154551047Y-129024095D01*
X154551047Y-129643142D01*
X153884380Y-130214571D02*
X153884380Y-130309809D01*
X153932000Y-130405047D01*
X153979619Y-130452666D01*
X154074857Y-130500285D01*
X154265333Y-130547904D01*
X154503428Y-130547904D01*
X154693904Y-130500285D01*
X154789142Y-130452666D01*
X154836761Y-130405047D01*
X154884380Y-130309809D01*
X154884380Y-130214571D01*
X154836761Y-130119333D01*
X154789142Y-130071714D01*
X154693904Y-130024095D01*
X154503428Y-129976476D01*
X154265333Y-129976476D01*
X154074857Y-130024095D01*
X153979619Y-130071714D01*
X153932000Y-130119333D01*
X153884380Y-130214571D01*
%TO.C,C41*%
X189587142Y-123944142D02*
X189634761Y-123896523D01*
X189682380Y-123753666D01*
X189682380Y-123658428D01*
X189634761Y-123515571D01*
X189539523Y-123420333D01*
X189444285Y-123372714D01*
X189253809Y-123325095D01*
X189110952Y-123325095D01*
X188920476Y-123372714D01*
X188825238Y-123420333D01*
X188730000Y-123515571D01*
X188682380Y-123658428D01*
X188682380Y-123753666D01*
X188730000Y-123896523D01*
X188777619Y-123944142D01*
X189015714Y-124801285D02*
X189682380Y-124801285D01*
X188634761Y-124563190D02*
X189349047Y-124325095D01*
X189349047Y-124944142D01*
X189682380Y-125848904D02*
X189682380Y-125277476D01*
X189682380Y-125563190D02*
X188682380Y-125563190D01*
X188825238Y-125467952D01*
X188920476Y-125372714D01*
X188968095Y-125277476D01*
%TO.C,R13*%
X203017380Y-121388142D02*
X202541190Y-121054809D01*
X203017380Y-120816714D02*
X202017380Y-120816714D01*
X202017380Y-121197666D01*
X202065000Y-121292904D01*
X202112619Y-121340523D01*
X202207857Y-121388142D01*
X202350714Y-121388142D01*
X202445952Y-121340523D01*
X202493571Y-121292904D01*
X202541190Y-121197666D01*
X202541190Y-120816714D01*
X203017380Y-122340523D02*
X203017380Y-121769095D01*
X203017380Y-122054809D02*
X202017380Y-122054809D01*
X202160238Y-121959571D01*
X202255476Y-121864333D01*
X202303095Y-121769095D01*
X202017380Y-122673857D02*
X202017380Y-123292904D01*
X202398333Y-122959571D01*
X202398333Y-123102428D01*
X202445952Y-123197666D01*
X202493571Y-123245285D01*
X202588809Y-123292904D01*
X202826904Y-123292904D01*
X202922142Y-123245285D01*
X202969761Y-123197666D01*
X203017380Y-123102428D01*
X203017380Y-122816714D01*
X202969761Y-122721476D01*
X202922142Y-122673857D01*
%TO.C,R16*%
X200731380Y-121388142D02*
X200255190Y-121054809D01*
X200731380Y-120816714D02*
X199731380Y-120816714D01*
X199731380Y-121197666D01*
X199779000Y-121292904D01*
X199826619Y-121340523D01*
X199921857Y-121388142D01*
X200064714Y-121388142D01*
X200159952Y-121340523D01*
X200207571Y-121292904D01*
X200255190Y-121197666D01*
X200255190Y-120816714D01*
X200731380Y-122340523D02*
X200731380Y-121769095D01*
X200731380Y-122054809D02*
X199731380Y-122054809D01*
X199874238Y-121959571D01*
X199969476Y-121864333D01*
X200017095Y-121769095D01*
X199731380Y-123197666D02*
X199731380Y-123007190D01*
X199779000Y-122911952D01*
X199826619Y-122864333D01*
X199969476Y-122769095D01*
X200159952Y-122721476D01*
X200540904Y-122721476D01*
X200636142Y-122769095D01*
X200683761Y-122816714D01*
X200731380Y-122911952D01*
X200731380Y-123102428D01*
X200683761Y-123197666D01*
X200636142Y-123245285D01*
X200540904Y-123292904D01*
X200302809Y-123292904D01*
X200207571Y-123245285D01*
X200159952Y-123197666D01*
X200112333Y-123102428D01*
X200112333Y-122911952D01*
X200159952Y-122816714D01*
X200207571Y-122769095D01*
X200302809Y-122721476D01*
%TO.C,R17*%
X240863380Y-121420142D02*
X240387190Y-121086809D01*
X240863380Y-120848714D02*
X239863380Y-120848714D01*
X239863380Y-121229666D01*
X239911000Y-121324904D01*
X239958619Y-121372523D01*
X240053857Y-121420142D01*
X240196714Y-121420142D01*
X240291952Y-121372523D01*
X240339571Y-121324904D01*
X240387190Y-121229666D01*
X240387190Y-120848714D01*
X240863380Y-122372523D02*
X240863380Y-121801095D01*
X240863380Y-122086809D02*
X239863380Y-122086809D01*
X240006238Y-121991571D01*
X240101476Y-121896333D01*
X240149095Y-121801095D01*
X239863380Y-122705857D02*
X239863380Y-123372523D01*
X240863380Y-122943952D01*
%TO.C,R30*%
X238831380Y-121420142D02*
X238355190Y-121086809D01*
X238831380Y-120848714D02*
X237831380Y-120848714D01*
X237831380Y-121229666D01*
X237879000Y-121324904D01*
X237926619Y-121372523D01*
X238021857Y-121420142D01*
X238164714Y-121420142D01*
X238259952Y-121372523D01*
X238307571Y-121324904D01*
X238355190Y-121229666D01*
X238355190Y-120848714D01*
X237831380Y-121753476D02*
X237831380Y-122372523D01*
X238212333Y-122039190D01*
X238212333Y-122182047D01*
X238259952Y-122277285D01*
X238307571Y-122324904D01*
X238402809Y-122372523D01*
X238640904Y-122372523D01*
X238736142Y-122324904D01*
X238783761Y-122277285D01*
X238831380Y-122182047D01*
X238831380Y-121896333D01*
X238783761Y-121801095D01*
X238736142Y-121753476D01*
X237831380Y-122991571D02*
X237831380Y-123086809D01*
X237879000Y-123182047D01*
X237926619Y-123229666D01*
X238021857Y-123277285D01*
X238212333Y-123324904D01*
X238450428Y-123324904D01*
X238640904Y-123277285D01*
X238736142Y-123229666D01*
X238783761Y-123182047D01*
X238831380Y-123086809D01*
X238831380Y-122991571D01*
X238783761Y-122896333D01*
X238736142Y-122848714D01*
X238640904Y-122801095D01*
X238450428Y-122753476D01*
X238212333Y-122753476D01*
X238021857Y-122801095D01*
X237926619Y-122848714D01*
X237879000Y-122896333D01*
X237831380Y-122991571D01*
%TO.C,R31*%
X131770380Y-124325142D02*
X131294190Y-123991809D01*
X131770380Y-123753714D02*
X130770380Y-123753714D01*
X130770380Y-124134666D01*
X130818000Y-124229904D01*
X130865619Y-124277523D01*
X130960857Y-124325142D01*
X131103714Y-124325142D01*
X131198952Y-124277523D01*
X131246571Y-124229904D01*
X131294190Y-124134666D01*
X131294190Y-123753714D01*
X130770380Y-124658476D02*
X130770380Y-125277523D01*
X131151333Y-124944190D01*
X131151333Y-125087047D01*
X131198952Y-125182285D01*
X131246571Y-125229904D01*
X131341809Y-125277523D01*
X131579904Y-125277523D01*
X131675142Y-125229904D01*
X131722761Y-125182285D01*
X131770380Y-125087047D01*
X131770380Y-124801333D01*
X131722761Y-124706095D01*
X131675142Y-124658476D01*
X131770380Y-126229904D02*
X131770380Y-125658476D01*
X131770380Y-125944190D02*
X130770380Y-125944190D01*
X130913238Y-125848952D01*
X131008476Y-125753714D01*
X131056095Y-125658476D01*
%TO.C,R32*%
X129484380Y-124325142D02*
X129008190Y-123991809D01*
X129484380Y-123753714D02*
X128484380Y-123753714D01*
X128484380Y-124134666D01*
X128532000Y-124229904D01*
X128579619Y-124277523D01*
X128674857Y-124325142D01*
X128817714Y-124325142D01*
X128912952Y-124277523D01*
X128960571Y-124229904D01*
X129008190Y-124134666D01*
X129008190Y-123753714D01*
X128484380Y-124658476D02*
X128484380Y-125277523D01*
X128865333Y-124944190D01*
X128865333Y-125087047D01*
X128912952Y-125182285D01*
X128960571Y-125229904D01*
X129055809Y-125277523D01*
X129293904Y-125277523D01*
X129389142Y-125229904D01*
X129436761Y-125182285D01*
X129484380Y-125087047D01*
X129484380Y-124801333D01*
X129436761Y-124706095D01*
X129389142Y-124658476D01*
X128579619Y-125658476D02*
X128532000Y-125706095D01*
X128484380Y-125801333D01*
X128484380Y-126039428D01*
X128532000Y-126134666D01*
X128579619Y-126182285D01*
X128674857Y-126229904D01*
X128770095Y-126229904D01*
X128912952Y-126182285D01*
X129484380Y-125610857D01*
X129484380Y-126229904D01*
%TO.C,C8*%
X165203142Y-130389333D02*
X165250761Y-130341714D01*
X165298380Y-130198857D01*
X165298380Y-130103619D01*
X165250761Y-129960761D01*
X165155523Y-129865523D01*
X165060285Y-129817904D01*
X164869809Y-129770285D01*
X164726952Y-129770285D01*
X164536476Y-129817904D01*
X164441238Y-129865523D01*
X164346000Y-129960761D01*
X164298380Y-130103619D01*
X164298380Y-130198857D01*
X164346000Y-130341714D01*
X164393619Y-130389333D01*
X164726952Y-130960761D02*
X164679333Y-130865523D01*
X164631714Y-130817904D01*
X164536476Y-130770285D01*
X164488857Y-130770285D01*
X164393619Y-130817904D01*
X164346000Y-130865523D01*
X164298380Y-130960761D01*
X164298380Y-131151238D01*
X164346000Y-131246476D01*
X164393619Y-131294095D01*
X164488857Y-131341714D01*
X164536476Y-131341714D01*
X164631714Y-131294095D01*
X164679333Y-131246476D01*
X164726952Y-131151238D01*
X164726952Y-130960761D01*
X164774571Y-130865523D01*
X164822190Y-130817904D01*
X164917428Y-130770285D01*
X165107904Y-130770285D01*
X165203142Y-130817904D01*
X165250761Y-130865523D01*
X165298380Y-130960761D01*
X165298380Y-131151238D01*
X165250761Y-131246476D01*
X165203142Y-131294095D01*
X165107904Y-131341714D01*
X164917428Y-131341714D01*
X164822190Y-131294095D01*
X164774571Y-131246476D01*
X164726952Y-131151238D01*
%TO.C,C9*%
X163552142Y-130389333D02*
X163599761Y-130341714D01*
X163647380Y-130198857D01*
X163647380Y-130103619D01*
X163599761Y-129960761D01*
X163504523Y-129865523D01*
X163409285Y-129817904D01*
X163218809Y-129770285D01*
X163075952Y-129770285D01*
X162885476Y-129817904D01*
X162790238Y-129865523D01*
X162695000Y-129960761D01*
X162647380Y-130103619D01*
X162647380Y-130198857D01*
X162695000Y-130341714D01*
X162742619Y-130389333D01*
X163647380Y-130865523D02*
X163647380Y-131056000D01*
X163599761Y-131151238D01*
X163552142Y-131198857D01*
X163409285Y-131294095D01*
X163218809Y-131341714D01*
X162837857Y-131341714D01*
X162742619Y-131294095D01*
X162695000Y-131246476D01*
X162647380Y-131151238D01*
X162647380Y-130960761D01*
X162695000Y-130865523D01*
X162742619Y-130817904D01*
X162837857Y-130770285D01*
X163075952Y-130770285D01*
X163171190Y-130817904D01*
X163218809Y-130865523D01*
X163266428Y-130960761D01*
X163266428Y-131151238D01*
X163218809Y-131246476D01*
X163171190Y-131294095D01*
X163075952Y-131341714D01*
%TO.C,C10*%
X157329142Y-128643142D02*
X157376761Y-128595523D01*
X157424380Y-128452666D01*
X157424380Y-128357428D01*
X157376761Y-128214571D01*
X157281523Y-128119333D01*
X157186285Y-128071714D01*
X156995809Y-128024095D01*
X156852952Y-128024095D01*
X156662476Y-128071714D01*
X156567238Y-128119333D01*
X156472000Y-128214571D01*
X156424380Y-128357428D01*
X156424380Y-128452666D01*
X156472000Y-128595523D01*
X156519619Y-128643142D01*
X157424380Y-129595523D02*
X157424380Y-129024095D01*
X157424380Y-129309809D02*
X156424380Y-129309809D01*
X156567238Y-129214571D01*
X156662476Y-129119333D01*
X156710095Y-129024095D01*
X156424380Y-130214571D02*
X156424380Y-130309809D01*
X156472000Y-130405047D01*
X156519619Y-130452666D01*
X156614857Y-130500285D01*
X156805333Y-130547904D01*
X157043428Y-130547904D01*
X157233904Y-130500285D01*
X157329142Y-130452666D01*
X157376761Y-130405047D01*
X157424380Y-130309809D01*
X157424380Y-130214571D01*
X157376761Y-130119333D01*
X157329142Y-130071714D01*
X157233904Y-130024095D01*
X157043428Y-129976476D01*
X156805333Y-129976476D01*
X156614857Y-130024095D01*
X156519619Y-130071714D01*
X156472000Y-130119333D01*
X156424380Y-130214571D01*
%TO.C,C12*%
X141737142Y-123330642D02*
X141784761Y-123283023D01*
X141832380Y-123140166D01*
X141832380Y-123044928D01*
X141784761Y-122902071D01*
X141689523Y-122806833D01*
X141594285Y-122759214D01*
X141403809Y-122711595D01*
X141260952Y-122711595D01*
X141070476Y-122759214D01*
X140975238Y-122806833D01*
X140880000Y-122902071D01*
X140832380Y-123044928D01*
X140832380Y-123140166D01*
X140880000Y-123283023D01*
X140927619Y-123330642D01*
X141832380Y-124283023D02*
X141832380Y-123711595D01*
X141832380Y-123997309D02*
X140832380Y-123997309D01*
X140975238Y-123902071D01*
X141070476Y-123806833D01*
X141118095Y-123711595D01*
X140927619Y-124663976D02*
X140880000Y-124711595D01*
X140832380Y-124806833D01*
X140832380Y-125044928D01*
X140880000Y-125140166D01*
X140927619Y-125187785D01*
X141022857Y-125235404D01*
X141118095Y-125235404D01*
X141260952Y-125187785D01*
X141832380Y-124616357D01*
X141832380Y-125235404D01*
%TO.C,R12*%
X164282380Y-121404142D02*
X163806190Y-121070809D01*
X164282380Y-120832714D02*
X163282380Y-120832714D01*
X163282380Y-121213666D01*
X163330000Y-121308904D01*
X163377619Y-121356523D01*
X163472857Y-121404142D01*
X163615714Y-121404142D01*
X163710952Y-121356523D01*
X163758571Y-121308904D01*
X163806190Y-121213666D01*
X163806190Y-120832714D01*
X164282380Y-122356523D02*
X164282380Y-121785095D01*
X164282380Y-122070809D02*
X163282380Y-122070809D01*
X163425238Y-121975571D01*
X163520476Y-121880333D01*
X163568095Y-121785095D01*
X163377619Y-122737476D02*
X163330000Y-122785095D01*
X163282380Y-122880333D01*
X163282380Y-123118428D01*
X163330000Y-123213666D01*
X163377619Y-123261285D01*
X163472857Y-123308904D01*
X163568095Y-123308904D01*
X163710952Y-123261285D01*
X164282380Y-122689857D01*
X164282380Y-123308904D01*
%TO.C,R29*%
X161996380Y-121404142D02*
X161520190Y-121070809D01*
X161996380Y-120832714D02*
X160996380Y-120832714D01*
X160996380Y-121213666D01*
X161044000Y-121308904D01*
X161091619Y-121356523D01*
X161186857Y-121404142D01*
X161329714Y-121404142D01*
X161424952Y-121356523D01*
X161472571Y-121308904D01*
X161520190Y-121213666D01*
X161520190Y-120832714D01*
X161091619Y-121785095D02*
X161044000Y-121832714D01*
X160996380Y-121927952D01*
X160996380Y-122166047D01*
X161044000Y-122261285D01*
X161091619Y-122308904D01*
X161186857Y-122356523D01*
X161282095Y-122356523D01*
X161424952Y-122308904D01*
X161996380Y-121737476D01*
X161996380Y-122356523D01*
X161996380Y-122832714D02*
X161996380Y-123023190D01*
X161948761Y-123118428D01*
X161901142Y-123166047D01*
X161758285Y-123261285D01*
X161567809Y-123308904D01*
X161186857Y-123308904D01*
X161091619Y-123261285D01*
X161044000Y-123213666D01*
X160996380Y-123118428D01*
X160996380Y-122927952D01*
X161044000Y-122832714D01*
X161091619Y-122785095D01*
X161186857Y-122737476D01*
X161424952Y-122737476D01*
X161520190Y-122785095D01*
X161567809Y-122832714D01*
X161615428Y-122927952D01*
X161615428Y-123118428D01*
X161567809Y-123213666D01*
X161520190Y-123261285D01*
X161424952Y-123308904D01*
%TO.C,J15*%
X250583619Y-139388904D02*
X250583619Y-139960333D01*
X250621714Y-140074619D01*
X250697904Y-140150809D01*
X250812190Y-140188904D01*
X250888380Y-140188904D01*
X249783619Y-140188904D02*
X250240761Y-140188904D01*
X250012190Y-140188904D02*
X250012190Y-139388904D01*
X250088380Y-139503190D01*
X250164571Y-139579380D01*
X250240761Y-139617476D01*
X249059809Y-139388904D02*
X249440761Y-139388904D01*
X249478857Y-139769857D01*
X249440761Y-139731761D01*
X249364571Y-139693666D01*
X249174095Y-139693666D01*
X249097904Y-139731761D01*
X249059809Y-139769857D01*
X249021714Y-139846047D01*
X249021714Y-140036523D01*
X249059809Y-140112714D01*
X249097904Y-140150809D01*
X249174095Y-140188904D01*
X249364571Y-140188904D01*
X249440761Y-140150809D01*
X249478857Y-140112714D01*
%TO.C,J16*%
X138688619Y-149510904D02*
X138688619Y-150082333D01*
X138726714Y-150196619D01*
X138802904Y-150272809D01*
X138917190Y-150310904D01*
X138993380Y-150310904D01*
X137888619Y-150310904D02*
X138345761Y-150310904D01*
X138117190Y-150310904D02*
X138117190Y-149510904D01*
X138193380Y-149625190D01*
X138269571Y-149701380D01*
X138345761Y-149739476D01*
X137202904Y-149510904D02*
X137355285Y-149510904D01*
X137431476Y-149549000D01*
X137469571Y-149587095D01*
X137545761Y-149701380D01*
X137583857Y-149853761D01*
X137583857Y-150158523D01*
X137545761Y-150234714D01*
X137507666Y-150272809D01*
X137431476Y-150310904D01*
X137279095Y-150310904D01*
X137202904Y-150272809D01*
X137164809Y-150234714D01*
X137126714Y-150158523D01*
X137126714Y-149968047D01*
X137164809Y-149891857D01*
X137202904Y-149853761D01*
X137279095Y-149815666D01*
X137431476Y-149815666D01*
X137507666Y-149853761D01*
X137545761Y-149891857D01*
X137583857Y-149968047D01*
%TO.C,J20*%
X138688619Y-113442904D02*
X138688619Y-114014333D01*
X138726714Y-114128619D01*
X138802904Y-114204809D01*
X138917190Y-114242904D01*
X138993380Y-114242904D01*
X138345761Y-113519095D02*
X138307666Y-113481000D01*
X138231476Y-113442904D01*
X138041000Y-113442904D01*
X137964809Y-113481000D01*
X137926714Y-113519095D01*
X137888619Y-113595285D01*
X137888619Y-113671476D01*
X137926714Y-113785761D01*
X138383857Y-114242904D01*
X137888619Y-114242904D01*
X137393380Y-113442904D02*
X137317190Y-113442904D01*
X137241000Y-113481000D01*
X137202904Y-113519095D01*
X137164809Y-113595285D01*
X137126714Y-113747666D01*
X137126714Y-113938142D01*
X137164809Y-114090523D01*
X137202904Y-114166714D01*
X137241000Y-114204809D01*
X137317190Y-114242904D01*
X137393380Y-114242904D01*
X137469571Y-114204809D01*
X137507666Y-114166714D01*
X137545761Y-114090523D01*
X137583857Y-113938142D01*
X137583857Y-113747666D01*
X137545761Y-113595285D01*
X137507666Y-113519095D01*
X137469571Y-113481000D01*
X137393380Y-113442904D01*
%TO.C,J21*%
X138688619Y-138207904D02*
X138688619Y-138779333D01*
X138726714Y-138893619D01*
X138802904Y-138969809D01*
X138917190Y-139007904D01*
X138993380Y-139007904D01*
X138345761Y-138284095D02*
X138307666Y-138246000D01*
X138231476Y-138207904D01*
X138041000Y-138207904D01*
X137964809Y-138246000D01*
X137926714Y-138284095D01*
X137888619Y-138360285D01*
X137888619Y-138436476D01*
X137926714Y-138550761D01*
X138383857Y-139007904D01*
X137888619Y-139007904D01*
X137126714Y-139007904D02*
X137583857Y-139007904D01*
X137355285Y-139007904D02*
X137355285Y-138207904D01*
X137431476Y-138322190D01*
X137507666Y-138398380D01*
X137583857Y-138436476D01*
%TO.C,J13*%
X174256619Y-139261904D02*
X174256619Y-139833333D01*
X174294714Y-139947619D01*
X174370904Y-140023809D01*
X174485190Y-140061904D01*
X174561380Y-140061904D01*
X173456619Y-140061904D02*
X173913761Y-140061904D01*
X173685190Y-140061904D02*
X173685190Y-139261904D01*
X173761380Y-139376190D01*
X173837571Y-139452380D01*
X173913761Y-139490476D01*
X173189952Y-139261904D02*
X172694714Y-139261904D01*
X172961380Y-139566666D01*
X172847095Y-139566666D01*
X172770904Y-139604761D01*
X172732809Y-139642857D01*
X172694714Y-139719047D01*
X172694714Y-139909523D01*
X172732809Y-139985714D01*
X172770904Y-140023809D01*
X172847095Y-140061904D01*
X173075666Y-140061904D01*
X173151857Y-140023809D01*
X173189952Y-139985714D01*
%TO.C,TP3*%
X169409904Y-140803380D02*
X168838476Y-140803380D01*
X169124190Y-141803380D02*
X169124190Y-140803380D01*
X168505142Y-141803380D02*
X168505142Y-140803380D01*
X168124190Y-140803380D01*
X168028952Y-140851000D01*
X167981333Y-140898619D01*
X167933714Y-140993857D01*
X167933714Y-141136714D01*
X167981333Y-141231952D01*
X168028952Y-141279571D01*
X168124190Y-141327190D01*
X168505142Y-141327190D01*
X167600380Y-140803380D02*
X166981333Y-140803380D01*
X167314666Y-141184333D01*
X167171809Y-141184333D01*
X167076571Y-141231952D01*
X167028952Y-141279571D01*
X166981333Y-141374809D01*
X166981333Y-141612904D01*
X167028952Y-141708142D01*
X167076571Y-141755761D01*
X167171809Y-141803380D01*
X167457523Y-141803380D01*
X167552761Y-141755761D01*
X167600380Y-141708142D01*
%TO.C,TP4*%
X172584904Y-140803380D02*
X172013476Y-140803380D01*
X172299190Y-141803380D02*
X172299190Y-140803380D01*
X171680142Y-141803380D02*
X171680142Y-140803380D01*
X171299190Y-140803380D01*
X171203952Y-140851000D01*
X171156333Y-140898619D01*
X171108714Y-140993857D01*
X171108714Y-141136714D01*
X171156333Y-141231952D01*
X171203952Y-141279571D01*
X171299190Y-141327190D01*
X171680142Y-141327190D01*
X170251571Y-141136714D02*
X170251571Y-141803380D01*
X170489666Y-140755761D02*
X170727761Y-141470047D01*
X170108714Y-141470047D01*
%TO.C,TP5*%
X166234904Y-140803380D02*
X165663476Y-140803380D01*
X165949190Y-141803380D02*
X165949190Y-140803380D01*
X165330142Y-141803380D02*
X165330142Y-140803380D01*
X164949190Y-140803380D01*
X164853952Y-140851000D01*
X164806333Y-140898619D01*
X164758714Y-140993857D01*
X164758714Y-141136714D01*
X164806333Y-141231952D01*
X164853952Y-141279571D01*
X164949190Y-141327190D01*
X165330142Y-141327190D01*
X163853952Y-140803380D02*
X164330142Y-140803380D01*
X164377761Y-141279571D01*
X164330142Y-141231952D01*
X164234904Y-141184333D01*
X163996809Y-141184333D01*
X163901571Y-141231952D01*
X163853952Y-141279571D01*
X163806333Y-141374809D01*
X163806333Y-141612904D01*
X163853952Y-141708142D01*
X163901571Y-141755761D01*
X163996809Y-141803380D01*
X164234904Y-141803380D01*
X164330142Y-141755761D01*
X164377761Y-141708142D01*
%TO.C,TP6*%
X163059904Y-140803380D02*
X162488476Y-140803380D01*
X162774190Y-141803380D02*
X162774190Y-140803380D01*
X162155142Y-141803380D02*
X162155142Y-140803380D01*
X161774190Y-140803380D01*
X161678952Y-140851000D01*
X161631333Y-140898619D01*
X161583714Y-140993857D01*
X161583714Y-141136714D01*
X161631333Y-141231952D01*
X161678952Y-141279571D01*
X161774190Y-141327190D01*
X162155142Y-141327190D01*
X160726571Y-140803380D02*
X160917047Y-140803380D01*
X161012285Y-140851000D01*
X161059904Y-140898619D01*
X161155142Y-141041476D01*
X161202761Y-141231952D01*
X161202761Y-141612904D01*
X161155142Y-141708142D01*
X161107523Y-141755761D01*
X161012285Y-141803380D01*
X160821809Y-141803380D01*
X160726571Y-141755761D01*
X160678952Y-141708142D01*
X160631333Y-141612904D01*
X160631333Y-141374809D01*
X160678952Y-141279571D01*
X160726571Y-141231952D01*
X160821809Y-141184333D01*
X161012285Y-141184333D01*
X161107523Y-141231952D01*
X161155142Y-141279571D01*
X161202761Y-141374809D01*
%TO.C,TP7*%
X156709904Y-140803380D02*
X156138476Y-140803380D01*
X156424190Y-141803380D02*
X156424190Y-140803380D01*
X155805142Y-141803380D02*
X155805142Y-140803380D01*
X155424190Y-140803380D01*
X155328952Y-140851000D01*
X155281333Y-140898619D01*
X155233714Y-140993857D01*
X155233714Y-141136714D01*
X155281333Y-141231952D01*
X155328952Y-141279571D01*
X155424190Y-141327190D01*
X155805142Y-141327190D01*
X154900380Y-140803380D02*
X154233714Y-140803380D01*
X154662285Y-141803380D01*
%TO.C,TP8*%
X159757904Y-140803380D02*
X159186476Y-140803380D01*
X159472190Y-141803380D02*
X159472190Y-140803380D01*
X158853142Y-141803380D02*
X158853142Y-140803380D01*
X158472190Y-140803380D01*
X158376952Y-140851000D01*
X158329333Y-140898619D01*
X158281714Y-140993857D01*
X158281714Y-141136714D01*
X158329333Y-141231952D01*
X158376952Y-141279571D01*
X158472190Y-141327190D01*
X158853142Y-141327190D01*
X157710285Y-141231952D02*
X157805523Y-141184333D01*
X157853142Y-141136714D01*
X157900761Y-141041476D01*
X157900761Y-140993857D01*
X157853142Y-140898619D01*
X157805523Y-140851000D01*
X157710285Y-140803380D01*
X157519809Y-140803380D01*
X157424571Y-140851000D01*
X157376952Y-140898619D01*
X157329333Y-140993857D01*
X157329333Y-141041476D01*
X157376952Y-141136714D01*
X157424571Y-141184333D01*
X157519809Y-141231952D01*
X157710285Y-141231952D01*
X157805523Y-141279571D01*
X157853142Y-141327190D01*
X157900761Y-141422428D01*
X157900761Y-141612904D01*
X157853142Y-141708142D01*
X157805523Y-141755761D01*
X157710285Y-141803380D01*
X157519809Y-141803380D01*
X157424571Y-141755761D01*
X157376952Y-141708142D01*
X157329333Y-141612904D01*
X157329333Y-141422428D01*
X157376952Y-141327190D01*
X157424571Y-141279571D01*
X157519809Y-141231952D01*
%TO.C,TP9*%
X207890904Y-140803380D02*
X207319476Y-140803380D01*
X207605190Y-141803380D02*
X207605190Y-140803380D01*
X206986142Y-141803380D02*
X206986142Y-140803380D01*
X206605190Y-140803380D01*
X206509952Y-140851000D01*
X206462333Y-140898619D01*
X206414714Y-140993857D01*
X206414714Y-141136714D01*
X206462333Y-141231952D01*
X206509952Y-141279571D01*
X206605190Y-141327190D01*
X206986142Y-141327190D01*
X205938523Y-141803380D02*
X205748047Y-141803380D01*
X205652809Y-141755761D01*
X205605190Y-141708142D01*
X205509952Y-141565285D01*
X205462333Y-141374809D01*
X205462333Y-140993857D01*
X205509952Y-140898619D01*
X205557571Y-140851000D01*
X205652809Y-140803380D01*
X205843285Y-140803380D01*
X205938523Y-140851000D01*
X205986142Y-140898619D01*
X206033761Y-140993857D01*
X206033761Y-141231952D01*
X205986142Y-141327190D01*
X205938523Y-141374809D01*
X205843285Y-141422428D01*
X205652809Y-141422428D01*
X205557571Y-141374809D01*
X205509952Y-141327190D01*
X205462333Y-141231952D01*
%TO.C,TP10*%
X212431095Y-140803380D02*
X211859666Y-140803380D01*
X212145380Y-141803380D02*
X212145380Y-140803380D01*
X211526333Y-141803380D02*
X211526333Y-140803380D01*
X211145380Y-140803380D01*
X211050142Y-140851000D01*
X211002523Y-140898619D01*
X210954904Y-140993857D01*
X210954904Y-141136714D01*
X211002523Y-141231952D01*
X211050142Y-141279571D01*
X211145380Y-141327190D01*
X211526333Y-141327190D01*
X210002523Y-141803380D02*
X210573952Y-141803380D01*
X210288238Y-141803380D02*
X210288238Y-140803380D01*
X210383476Y-140946238D01*
X210478714Y-141041476D01*
X210573952Y-141089095D01*
X209383476Y-140803380D02*
X209288238Y-140803380D01*
X209193000Y-140851000D01*
X209145380Y-140898619D01*
X209097761Y-140993857D01*
X209050142Y-141184333D01*
X209050142Y-141422428D01*
X209097761Y-141612904D01*
X209145380Y-141708142D01*
X209193000Y-141755761D01*
X209288238Y-141803380D01*
X209383476Y-141803380D01*
X209478714Y-141755761D01*
X209526333Y-141708142D01*
X209573952Y-141612904D01*
X209621571Y-141422428D01*
X209621571Y-141184333D01*
X209573952Y-140993857D01*
X209526333Y-140898619D01*
X209478714Y-140851000D01*
X209383476Y-140803380D01*
%TO.C,TP11*%
X204938095Y-140803380D02*
X204366666Y-140803380D01*
X204652380Y-141803380D02*
X204652380Y-140803380D01*
X204033333Y-141803380D02*
X204033333Y-140803380D01*
X203652380Y-140803380D01*
X203557142Y-140851000D01*
X203509523Y-140898619D01*
X203461904Y-140993857D01*
X203461904Y-141136714D01*
X203509523Y-141231952D01*
X203557142Y-141279571D01*
X203652380Y-141327190D01*
X204033333Y-141327190D01*
X202509523Y-141803380D02*
X203080952Y-141803380D01*
X202795238Y-141803380D02*
X202795238Y-140803380D01*
X202890476Y-140946238D01*
X202985714Y-141041476D01*
X203080952Y-141089095D01*
X201557142Y-141803380D02*
X202128571Y-141803380D01*
X201842857Y-141803380D02*
X201842857Y-140803380D01*
X201938095Y-140946238D01*
X202033333Y-141041476D01*
X202128571Y-141089095D01*
%TO.C,TP12*%
X201255095Y-140803380D02*
X200683666Y-140803380D01*
X200969380Y-141803380D02*
X200969380Y-140803380D01*
X200350333Y-141803380D02*
X200350333Y-140803380D01*
X199969380Y-140803380D01*
X199874142Y-140851000D01*
X199826523Y-140898619D01*
X199778904Y-140993857D01*
X199778904Y-141136714D01*
X199826523Y-141231952D01*
X199874142Y-141279571D01*
X199969380Y-141327190D01*
X200350333Y-141327190D01*
X198826523Y-141803380D02*
X199397952Y-141803380D01*
X199112238Y-141803380D02*
X199112238Y-140803380D01*
X199207476Y-140946238D01*
X199302714Y-141041476D01*
X199397952Y-141089095D01*
X198445571Y-140898619D02*
X198397952Y-140851000D01*
X198302714Y-140803380D01*
X198064619Y-140803380D01*
X197969380Y-140851000D01*
X197921761Y-140898619D01*
X197874142Y-140993857D01*
X197874142Y-141089095D01*
X197921761Y-141231952D01*
X198493190Y-141803380D01*
X197874142Y-141803380D01*
%TO.C,TP13*%
X193508095Y-140803380D02*
X192936666Y-140803380D01*
X193222380Y-141803380D02*
X193222380Y-140803380D01*
X192603333Y-141803380D02*
X192603333Y-140803380D01*
X192222380Y-140803380D01*
X192127142Y-140851000D01*
X192079523Y-140898619D01*
X192031904Y-140993857D01*
X192031904Y-141136714D01*
X192079523Y-141231952D01*
X192127142Y-141279571D01*
X192222380Y-141327190D01*
X192603333Y-141327190D01*
X191079523Y-141803380D02*
X191650952Y-141803380D01*
X191365238Y-141803380D02*
X191365238Y-140803380D01*
X191460476Y-140946238D01*
X191555714Y-141041476D01*
X191650952Y-141089095D01*
X190746190Y-140803380D02*
X190127142Y-140803380D01*
X190460476Y-141184333D01*
X190317619Y-141184333D01*
X190222380Y-141231952D01*
X190174761Y-141279571D01*
X190127142Y-141374809D01*
X190127142Y-141612904D01*
X190174761Y-141708142D01*
X190222380Y-141755761D01*
X190317619Y-141803380D01*
X190603333Y-141803380D01*
X190698571Y-141755761D01*
X190746190Y-141708142D01*
%TO.C,TP15*%
X247102095Y-140803380D02*
X246530666Y-140803380D01*
X246816380Y-141803380D02*
X246816380Y-140803380D01*
X246197333Y-141803380D02*
X246197333Y-140803380D01*
X245816380Y-140803380D01*
X245721142Y-140851000D01*
X245673523Y-140898619D01*
X245625904Y-140993857D01*
X245625904Y-141136714D01*
X245673523Y-141231952D01*
X245721142Y-141279571D01*
X245816380Y-141327190D01*
X246197333Y-141327190D01*
X244673523Y-141803380D02*
X245244952Y-141803380D01*
X244959238Y-141803380D02*
X244959238Y-140803380D01*
X245054476Y-140946238D01*
X245149714Y-141041476D01*
X245244952Y-141089095D01*
X243768761Y-140803380D02*
X244244952Y-140803380D01*
X244292571Y-141279571D01*
X244244952Y-141231952D01*
X244149714Y-141184333D01*
X243911619Y-141184333D01*
X243816380Y-141231952D01*
X243768761Y-141279571D01*
X243721142Y-141374809D01*
X243721142Y-141612904D01*
X243768761Y-141708142D01*
X243816380Y-141755761D01*
X243911619Y-141803380D01*
X244149714Y-141803380D01*
X244244952Y-141755761D01*
X244292571Y-141708142D01*
%TO.C,TP16*%
X250785095Y-140803380D02*
X250213666Y-140803380D01*
X250499380Y-141803380D02*
X250499380Y-140803380D01*
X249880333Y-141803380D02*
X249880333Y-140803380D01*
X249499380Y-140803380D01*
X249404142Y-140851000D01*
X249356523Y-140898619D01*
X249308904Y-140993857D01*
X249308904Y-141136714D01*
X249356523Y-141231952D01*
X249404142Y-141279571D01*
X249499380Y-141327190D01*
X249880333Y-141327190D01*
X248356523Y-141803380D02*
X248927952Y-141803380D01*
X248642238Y-141803380D02*
X248642238Y-140803380D01*
X248737476Y-140946238D01*
X248832714Y-141041476D01*
X248927952Y-141089095D01*
X247499380Y-140803380D02*
X247689857Y-140803380D01*
X247785095Y-140851000D01*
X247832714Y-140898619D01*
X247927952Y-141041476D01*
X247975571Y-141231952D01*
X247975571Y-141612904D01*
X247927952Y-141708142D01*
X247880333Y-141755761D01*
X247785095Y-141803380D01*
X247594619Y-141803380D01*
X247499380Y-141755761D01*
X247451761Y-141708142D01*
X247404142Y-141612904D01*
X247404142Y-141374809D01*
X247451761Y-141279571D01*
X247499380Y-141231952D01*
X247594619Y-141184333D01*
X247785095Y-141184333D01*
X247880333Y-141231952D01*
X247927952Y-141279571D01*
X247975571Y-141374809D01*
%TO.C,TP17*%
X243419095Y-140803380D02*
X242847666Y-140803380D01*
X243133380Y-141803380D02*
X243133380Y-140803380D01*
X242514333Y-141803380D02*
X242514333Y-140803380D01*
X242133380Y-140803380D01*
X242038142Y-140851000D01*
X241990523Y-140898619D01*
X241942904Y-140993857D01*
X241942904Y-141136714D01*
X241990523Y-141231952D01*
X242038142Y-141279571D01*
X242133380Y-141327190D01*
X242514333Y-141327190D01*
X240990523Y-141803380D02*
X241561952Y-141803380D01*
X241276238Y-141803380D02*
X241276238Y-140803380D01*
X241371476Y-140946238D01*
X241466714Y-141041476D01*
X241561952Y-141089095D01*
X240657190Y-140803380D02*
X239990523Y-140803380D01*
X240419095Y-141803380D01*
%TO.C,TP18*%
X239482095Y-140803380D02*
X238910666Y-140803380D01*
X239196380Y-141803380D02*
X239196380Y-140803380D01*
X238577333Y-141803380D02*
X238577333Y-140803380D01*
X238196380Y-140803380D01*
X238101142Y-140851000D01*
X238053523Y-140898619D01*
X238005904Y-140993857D01*
X238005904Y-141136714D01*
X238053523Y-141231952D01*
X238101142Y-141279571D01*
X238196380Y-141327190D01*
X238577333Y-141327190D01*
X237053523Y-141803380D02*
X237624952Y-141803380D01*
X237339238Y-141803380D02*
X237339238Y-140803380D01*
X237434476Y-140946238D01*
X237529714Y-141041476D01*
X237624952Y-141089095D01*
X236482095Y-141231952D02*
X236577333Y-141184333D01*
X236624952Y-141136714D01*
X236672571Y-141041476D01*
X236672571Y-140993857D01*
X236624952Y-140898619D01*
X236577333Y-140851000D01*
X236482095Y-140803380D01*
X236291619Y-140803380D01*
X236196380Y-140851000D01*
X236148761Y-140898619D01*
X236101142Y-140993857D01*
X236101142Y-141041476D01*
X236148761Y-141136714D01*
X236196380Y-141184333D01*
X236291619Y-141231952D01*
X236482095Y-141231952D01*
X236577333Y-141279571D01*
X236624952Y-141327190D01*
X236672571Y-141422428D01*
X236672571Y-141612904D01*
X236624952Y-141708142D01*
X236577333Y-141755761D01*
X236482095Y-141803380D01*
X236291619Y-141803380D01*
X236196380Y-141755761D01*
X236148761Y-141708142D01*
X236101142Y-141612904D01*
X236101142Y-141422428D01*
X236148761Y-141327190D01*
X236196380Y-141279571D01*
X236291619Y-141231952D01*
%TO.C,TP19*%
X231862095Y-140803380D02*
X231290666Y-140803380D01*
X231576380Y-141803380D02*
X231576380Y-140803380D01*
X230957333Y-141803380D02*
X230957333Y-140803380D01*
X230576380Y-140803380D01*
X230481142Y-140851000D01*
X230433523Y-140898619D01*
X230385904Y-140993857D01*
X230385904Y-141136714D01*
X230433523Y-141231952D01*
X230481142Y-141279571D01*
X230576380Y-141327190D01*
X230957333Y-141327190D01*
X229433523Y-141803380D02*
X230004952Y-141803380D01*
X229719238Y-141803380D02*
X229719238Y-140803380D01*
X229814476Y-140946238D01*
X229909714Y-141041476D01*
X230004952Y-141089095D01*
X228957333Y-141803380D02*
X228766857Y-141803380D01*
X228671619Y-141755761D01*
X228624000Y-141708142D01*
X228528761Y-141565285D01*
X228481142Y-141374809D01*
X228481142Y-140993857D01*
X228528761Y-140898619D01*
X228576380Y-140851000D01*
X228671619Y-140803380D01*
X228862095Y-140803380D01*
X228957333Y-140851000D01*
X229004952Y-140898619D01*
X229052571Y-140993857D01*
X229052571Y-141231952D01*
X229004952Y-141327190D01*
X228957333Y-141374809D01*
X228862095Y-141422428D01*
X228671619Y-141422428D01*
X228576380Y-141374809D01*
X228528761Y-141327190D01*
X228481142Y-141231952D01*
%TO.C,TP20*%
X235672095Y-140803380D02*
X235100666Y-140803380D01*
X235386380Y-141803380D02*
X235386380Y-140803380D01*
X234767333Y-141803380D02*
X234767333Y-140803380D01*
X234386380Y-140803380D01*
X234291142Y-140851000D01*
X234243523Y-140898619D01*
X234195904Y-140993857D01*
X234195904Y-141136714D01*
X234243523Y-141231952D01*
X234291142Y-141279571D01*
X234386380Y-141327190D01*
X234767333Y-141327190D01*
X233814952Y-140898619D02*
X233767333Y-140851000D01*
X233672095Y-140803380D01*
X233434000Y-140803380D01*
X233338761Y-140851000D01*
X233291142Y-140898619D01*
X233243523Y-140993857D01*
X233243523Y-141089095D01*
X233291142Y-141231952D01*
X233862571Y-141803380D01*
X233243523Y-141803380D01*
X232624476Y-140803380D02*
X232529238Y-140803380D01*
X232434000Y-140851000D01*
X232386380Y-140898619D01*
X232338761Y-140993857D01*
X232291142Y-141184333D01*
X232291142Y-141422428D01*
X232338761Y-141612904D01*
X232386380Y-141708142D01*
X232434000Y-141755761D01*
X232529238Y-141803380D01*
X232624476Y-141803380D01*
X232719714Y-141755761D01*
X232767333Y-141708142D01*
X232814952Y-141612904D01*
X232862571Y-141422428D01*
X232862571Y-141184333D01*
X232814952Y-140993857D01*
X232767333Y-140898619D01*
X232719714Y-140851000D01*
X232624476Y-140803380D01*
%TO.C,TP14*%
X197318095Y-140803380D02*
X196746666Y-140803380D01*
X197032380Y-141803380D02*
X197032380Y-140803380D01*
X196413333Y-141803380D02*
X196413333Y-140803380D01*
X196032380Y-140803380D01*
X195937142Y-140851000D01*
X195889523Y-140898619D01*
X195841904Y-140993857D01*
X195841904Y-141136714D01*
X195889523Y-141231952D01*
X195937142Y-141279571D01*
X196032380Y-141327190D01*
X196413333Y-141327190D01*
X194889523Y-141803380D02*
X195460952Y-141803380D01*
X195175238Y-141803380D02*
X195175238Y-140803380D01*
X195270476Y-140946238D01*
X195365714Y-141041476D01*
X195460952Y-141089095D01*
X194032380Y-141136714D02*
X194032380Y-141803380D01*
X194270476Y-140755761D02*
X194508571Y-141470047D01*
X193889523Y-141470047D01*
D11*
%TO.C,C42*%
X226420000Y-128066748D02*
X226420000Y-129489252D01*
X228240000Y-128066748D02*
X228240000Y-129489252D01*
D12*
%TO.C,J14*%
X194582000Y-138998000D02*
X192672000Y-138998000D01*
X192672000Y-138998000D02*
X192672000Y-133798000D01*
X207062000Y-138998000D02*
X210172000Y-138998000D01*
X192672000Y-133798000D02*
X195882000Y-133798000D01*
X210172000Y-138998000D02*
X210172000Y-133798000D01*
X210172000Y-133798000D02*
X208262000Y-133798000D01*
X208562000Y-133198000D02*
G75*
G03*
X208562000Y-133198000I-100000J0D01*
G01*
D11*
%TO.C,C2*%
X94357490Y-117349723D02*
X94357490Y-117642257D01*
X93337490Y-117349723D02*
X93337490Y-117642257D01*
%TO.C,C28*%
X89536723Y-133342490D02*
X89829257Y-133342490D01*
X89536723Y-134362490D02*
X89829257Y-134362490D01*
%TO.C,C29*%
X82918257Y-119118490D02*
X82625723Y-119118490D01*
X82918257Y-120138490D02*
X82625723Y-120138490D01*
%TO.C,C30*%
X89543738Y-132555490D02*
X90066242Y-132555490D01*
X89543738Y-131085490D02*
X90066242Y-131085490D01*
%TO.C,C31*%
X84149723Y-132584490D02*
X84442257Y-132584490D01*
X84149723Y-131564490D02*
X84442257Y-131564490D01*
%TO.C,C33*%
X81374490Y-128293242D02*
X81374490Y-127770738D01*
X79904490Y-128293242D02*
X79904490Y-127770738D01*
%TO.C,J17*%
X72831490Y-111820490D02*
X72831490Y-113720490D01*
X74731490Y-113720490D02*
X74731490Y-111820490D01*
X74731490Y-111820490D02*
X72831490Y-111820490D01*
X72831490Y-113720490D02*
X74731490Y-113720490D01*
%TO.C,J18*%
X65211490Y-111820490D02*
X65211490Y-113720490D01*
X65211490Y-113720490D02*
X67111490Y-113720490D01*
X67111490Y-113720490D02*
X67111490Y-111820490D01*
X67111490Y-111820490D02*
X65211490Y-111820490D01*
%TO.C,J19*%
X62671490Y-113720490D02*
X64571490Y-113720490D01*
X64571490Y-111820490D02*
X62671490Y-111820490D01*
X64571490Y-113720490D02*
X64571490Y-111820490D01*
X62671490Y-111820490D02*
X62671490Y-113720490D01*
%TO.C,JP3*%
X84179490Y-129440490D02*
X84179490Y-126640490D01*
X82879490Y-130090490D02*
X83479490Y-130090490D01*
X83479490Y-125990490D02*
X82879490Y-125990490D01*
X82179490Y-126640490D02*
X82179490Y-129440490D01*
X82879490Y-125990490D02*
G75*
G03*
X82179490Y-126690490I-1J-699999D01*
G01*
X82179490Y-129390490D02*
G75*
G03*
X82879490Y-130090490I699999J-1D01*
G01*
X83479490Y-130090490D02*
G75*
G03*
X84179490Y-129390490I1J699999D01*
G01*
X84179490Y-126690490D02*
G75*
G03*
X83479490Y-125990490I-699999J1D01*
G01*
%TO.C,R8*%
X99408490Y-117553554D02*
X99408490Y-117099426D01*
X97938490Y-117553554D02*
X97938490Y-117099426D01*
%TO.C,R9*%
X91080490Y-117553554D02*
X91080490Y-117099426D01*
X92550490Y-117553554D02*
X92550490Y-117099426D01*
%TO.C,R20*%
X76602490Y-132847426D02*
X76602490Y-133301554D01*
X78072490Y-132847426D02*
X78072490Y-133301554D01*
%TO.C,R21*%
X72468554Y-117061490D02*
X72014426Y-117061490D01*
X72468554Y-115591490D02*
X72014426Y-115591490D01*
%TO.C,R22*%
X67474426Y-115591490D02*
X67928554Y-115591490D01*
X67474426Y-117061490D02*
X67928554Y-117061490D01*
%TO.C,TP1*%
X70541490Y-113470490D02*
X71941490Y-113470490D01*
X71941490Y-113470490D02*
X71941490Y-112070490D01*
X70541490Y-112070490D02*
X70541490Y-113470490D01*
X71941490Y-112070490D02*
X70541490Y-112070490D01*
%TO.C,TP2*%
X68001490Y-112070490D02*
X68001490Y-113470490D01*
X69401490Y-112070490D02*
X68001490Y-112070490D01*
X69401490Y-113470490D02*
X69401490Y-112070490D01*
X68001490Y-113470490D02*
X69401490Y-113470490D01*
%TO.C,JP2*%
X84939490Y-127710490D02*
X84939490Y-128310490D01*
X89039490Y-128310490D02*
X89039490Y-127710490D01*
X88389490Y-127010490D02*
X85589490Y-127010490D01*
X85589490Y-129010490D02*
X88389490Y-129010490D01*
X89039490Y-127710490D02*
G75*
G03*
X88339490Y-127010490I-699999J1D01*
G01*
X85639490Y-127010490D02*
G75*
G03*
X84939490Y-127710490I-1J-699999D01*
G01*
X88339490Y-129010490D02*
G75*
G03*
X89039490Y-128310490I1J699999D01*
G01*
X84939490Y-128310490D02*
G75*
G03*
X85639490Y-129010490I699999J-1D01*
G01*
%TO.C,C1*%
X101215490Y-117349723D02*
X101215490Y-117642257D01*
X100195490Y-117349723D02*
X100195490Y-117642257D01*
%TO.C,C23*%
X84149723Y-133342490D02*
X84442257Y-133342490D01*
X84149723Y-134362490D02*
X84442257Y-134362490D01*
%TO.C,C11*%
X94638242Y-136111490D02*
X94115738Y-136111490D01*
X94638242Y-134641490D02*
X94115738Y-134641490D01*
%TO.C,C14*%
X198626000Y-130702267D02*
X198626000Y-130409733D01*
X199646000Y-130702267D02*
X199646000Y-130409733D01*
%TO.C,C15*%
X237746000Y-130675767D02*
X237746000Y-130383233D01*
X236726000Y-130675767D02*
X236726000Y-130383233D01*
%TO.C,C16*%
X125732000Y-129839767D02*
X125732000Y-129547233D01*
X124712000Y-129839767D02*
X124712000Y-129547233D01*
%TO.C,C20*%
X204345000Y-130702267D02*
X204345000Y-130409733D01*
X203325000Y-130702267D02*
X203325000Y-130409733D01*
%TO.C,C21*%
X241298000Y-130702267D02*
X241298000Y-130409733D01*
X242318000Y-130702267D02*
X242318000Y-130409733D01*
%TO.C,C35*%
X126490000Y-129839767D02*
X126490000Y-129547233D01*
X127510000Y-129839767D02*
X127510000Y-129547233D01*
%TO.C,C36*%
X192505000Y-128411248D02*
X192505000Y-128933752D01*
X191035000Y-128411248D02*
X191035000Y-128933752D01*
%TO.C,C37*%
X229008000Y-128499748D02*
X229008000Y-129022252D01*
X230478000Y-128499748D02*
X230478000Y-129022252D01*
%TO.C,C38*%
X123925000Y-129822752D02*
X123925000Y-129300248D01*
X122455000Y-129822752D02*
X122455000Y-129300248D01*
%TO.C,C39*%
X121560000Y-129781752D02*
X121560000Y-128359248D01*
X119740000Y-129781752D02*
X119740000Y-128359248D01*
%TO.C,C40*%
X153522000Y-125894752D02*
X153522000Y-124472248D01*
X155342000Y-125894752D02*
X155342000Y-124472248D01*
%TO.C,C41*%
X188320000Y-127901248D02*
X188320000Y-129323752D01*
X190140000Y-127901248D02*
X190140000Y-129323752D01*
%TO.C,R13*%
X203300000Y-125121936D02*
X203300000Y-125576064D01*
X201830000Y-125121936D02*
X201830000Y-125576064D01*
%TO.C,R16*%
X199544000Y-125121936D02*
X199544000Y-125576064D01*
X201014000Y-125121936D02*
X201014000Y-125576064D01*
%TO.C,R17*%
X241146000Y-125121936D02*
X241146000Y-125576064D01*
X239676000Y-125121936D02*
X239676000Y-125576064D01*
%TO.C,R30*%
X237517000Y-125153936D02*
X237517000Y-125608064D01*
X238987000Y-125153936D02*
X238987000Y-125608064D01*
%TO.C,R31*%
X130583000Y-129783064D02*
X130583000Y-129328936D01*
X132053000Y-129783064D02*
X132053000Y-129328936D01*
%TO.C,R32*%
X128297000Y-129767064D02*
X128297000Y-129312936D01*
X129767000Y-129767064D02*
X129767000Y-129312936D01*
%TO.C,C8*%
X166753000Y-130702267D02*
X166753000Y-130409733D01*
X165733000Y-130702267D02*
X165733000Y-130409733D01*
%TO.C,C9*%
X162181000Y-130702267D02*
X162181000Y-130409733D01*
X161161000Y-130702267D02*
X161161000Y-130409733D01*
%TO.C,C10*%
X157707000Y-125991252D02*
X157707000Y-125468748D01*
X156237000Y-125991252D02*
X156237000Y-125468748D01*
%TO.C,C12*%
X138965000Y-124234752D02*
X138965000Y-123712248D01*
X140435000Y-124234752D02*
X140435000Y-123712248D01*
%TO.C,R12*%
X163095000Y-125121936D02*
X163095000Y-125576064D01*
X164565000Y-125121936D02*
X164565000Y-125576064D01*
%TO.C,R29*%
X160809000Y-125137936D02*
X160809000Y-125592064D01*
X162279000Y-125137936D02*
X162279000Y-125592064D01*
D12*
%TO.C,J15*%
X230772000Y-138998000D02*
X230772000Y-133798000D01*
X248272000Y-138998000D02*
X248272000Y-133798000D01*
X245162000Y-138998000D02*
X248272000Y-138998000D01*
X232682000Y-138998000D02*
X230772000Y-138998000D01*
X230772000Y-133798000D02*
X233982000Y-133798000D01*
X248272000Y-133798000D02*
X246362000Y-133798000D01*
X246662000Y-133198000D02*
G75*
G03*
X246662000Y-133198000I-100000J0D01*
G01*
%TO.C,J16*%
X117107000Y-146117000D02*
X120317000Y-146117000D01*
X134607000Y-146117000D02*
X132697000Y-146117000D01*
X117107000Y-151317000D02*
X117107000Y-146117000D01*
X131497000Y-151317000D02*
X134607000Y-151317000D01*
X119017000Y-151317000D02*
X117107000Y-151317000D01*
X134607000Y-151317000D02*
X134607000Y-146117000D01*
X132997000Y-145517000D02*
G75*
G03*
X132997000Y-145517000I-100000J0D01*
G01*
%TO.C,J20*%
X134607000Y-110049000D02*
X132697000Y-110049000D01*
X117107000Y-115249000D02*
X117107000Y-110049000D01*
X117107000Y-110049000D02*
X120317000Y-110049000D01*
X134607000Y-115249000D02*
X134607000Y-110049000D01*
X119017000Y-115249000D02*
X117107000Y-115249000D01*
X131497000Y-115249000D02*
X134607000Y-115249000D01*
X132997000Y-109449000D02*
G75*
G03*
X132997000Y-109449000I-100000J0D01*
G01*
%TO.C,J21*%
X131497000Y-140014000D02*
X134607000Y-140014000D01*
X134607000Y-140014000D02*
X134607000Y-134814000D01*
X119017000Y-140014000D02*
X117107000Y-140014000D01*
X117107000Y-140014000D02*
X117107000Y-134814000D01*
X134607000Y-134814000D02*
X132697000Y-134814000D01*
X117107000Y-134814000D02*
X120317000Y-134814000D01*
X132997000Y-134214000D02*
G75*
G03*
X132997000Y-134214000I-100000J0D01*
G01*
%TO.C,J13*%
X172072000Y-133798000D02*
X170162000Y-133798000D01*
X172072000Y-138998000D02*
X172072000Y-133798000D01*
X156482000Y-138998000D02*
X154572000Y-138998000D01*
X168962000Y-138998000D02*
X172072000Y-138998000D01*
X154572000Y-138998000D02*
X154572000Y-133798000D01*
X154572000Y-133798000D02*
X157782000Y-133798000D01*
X170462000Y-133198000D02*
G75*
G03*
X170462000Y-133198000I-100000J0D01*
G01*
D11*
%TO.C,TP3*%
X169348000Y-143510000D02*
G75*
G03*
X169348000Y-143510000I-1200000J0D01*
G01*
%TO.C,TP4*%
X172523000Y-143510000D02*
G75*
G03*
X172523000Y-143510000I-1200000J0D01*
G01*
%TO.C,TP5*%
X166173000Y-143510000D02*
G75*
G03*
X166173000Y-143510000I-1200000J0D01*
G01*
%TO.C,TP6*%
X162998000Y-143510000D02*
G75*
G03*
X162998000Y-143510000I-1200000J0D01*
G01*
%TO.C,TP7*%
X156648000Y-143510000D02*
G75*
G03*
X156648000Y-143510000I-1200000J0D01*
G01*
%TO.C,TP8*%
X159823000Y-143510000D02*
G75*
G03*
X159823000Y-143510000I-1200000J0D01*
G01*
%TO.C,TP9*%
X207448000Y-143510000D02*
G75*
G03*
X207448000Y-143510000I-1200000J0D01*
G01*
%TO.C,TP10*%
X210623000Y-143510000D02*
G75*
G03*
X210623000Y-143510000I-1200000J0D01*
G01*
%TO.C,TP11*%
X204273000Y-143510000D02*
G75*
G03*
X204273000Y-143510000I-1200000J0D01*
G01*
%TO.C,TP12*%
X201098000Y-143510000D02*
G75*
G03*
X201098000Y-143510000I-1200000J0D01*
G01*
%TO.C,TP13*%
X194748000Y-143510000D02*
G75*
G03*
X194748000Y-143510000I-1200000J0D01*
G01*
%TO.C,TP15*%
X245548000Y-143510000D02*
G75*
G03*
X245548000Y-143510000I-1200000J0D01*
G01*
%TO.C,TP16*%
X248723000Y-143510000D02*
G75*
G03*
X248723000Y-143510000I-1200000J0D01*
G01*
%TO.C,TP17*%
X242373000Y-143510000D02*
G75*
G03*
X242373000Y-143510000I-1200000J0D01*
G01*
%TO.C,TP18*%
X239198000Y-143510000D02*
G75*
G03*
X239198000Y-143510000I-1200000J0D01*
G01*
%TO.C,TP19*%
X232848000Y-143510000D02*
G75*
G03*
X232848000Y-143510000I-1200000J0D01*
G01*
%TO.C,TP20*%
X236023000Y-143510000D02*
G75*
G03*
X236023000Y-143510000I-1200000J0D01*
G01*
%TO.C,TP14*%
X197923000Y-143510000D02*
G75*
G03*
X197923000Y-143510000I-1200000J0D01*
G01*
%TD*%
M02*
