%TF.GenerationSoftware,KiCad,Pcbnew,5.1.12-84ad8e8a86~92~ubuntu20.04.1*%
%TF.CreationDate,2022-02-24T18:35:21+01:00*%
%TF.ProjectId,GestureControl,47657374-7572-4654-936f-6e74726f6c2e,V0.1*%
%TF.SameCoordinates,Original*%
%TF.FileFunction,Soldermask,Top*%
%TF.FilePolarity,Negative*%
%FSLAX46Y46*%
G04 Gerber Fmt 4.6, Leading zero omitted, Abs format (unit mm)*
G04 Created by KiCad (PCBNEW 5.1.12-84ad8e8a86~92~ubuntu20.04.1) date 2022-02-24 18:35:21*
%MOMM*%
%LPD*%
G01*
G04 APERTURE LIST*
%ADD10O,1.700000X1.700000*%
%ADD11R,1.700000X1.700000*%
%ADD12R,1.300000X1.900000*%
%ADD13R,2.000000X4.500000*%
%ADD14R,1.300000X1.550000*%
%ADD15R,1.550000X1.300000*%
%ADD16O,1.800000X3.600000*%
%ADD17C,3.200000*%
%ADD18R,0.807999X0.458000*%
%ADD19R,0.508000X0.508000*%
G04 APERTURE END LIST*
%TO.C,C10*%
G36*
G01*
X149639000Y-120570500D02*
X150589000Y-120570500D01*
G75*
G02*
X150839000Y-120820500I0J-250000D01*
G01*
X150839000Y-121495500D01*
G75*
G02*
X150589000Y-121745500I-250000J0D01*
G01*
X149639000Y-121745500D01*
G75*
G02*
X149389000Y-121495500I0J250000D01*
G01*
X149389000Y-120820500D01*
G75*
G02*
X149639000Y-120570500I250000J0D01*
G01*
G37*
G36*
G01*
X149639000Y-118495500D02*
X150589000Y-118495500D01*
G75*
G02*
X150839000Y-118745500I0J-250000D01*
G01*
X150839000Y-119420500D01*
G75*
G02*
X150589000Y-119670500I-250000J0D01*
G01*
X149639000Y-119670500D01*
G75*
G02*
X149389000Y-119420500I0J250000D01*
G01*
X149389000Y-118745500D01*
G75*
G02*
X149639000Y-118495500I250000J0D01*
G01*
G37*
%TD*%
D10*
%TO.C,J10*%
X166624000Y-51308000D03*
X166624000Y-53848000D03*
X166624000Y-56388000D03*
D11*
X166624000Y-58928000D03*
%TD*%
D10*
%TO.C,J8*%
X153162000Y-51054000D03*
X153162000Y-53594000D03*
X153162000Y-56134000D03*
X153162000Y-58674000D03*
D11*
X153162000Y-61214000D03*
%TD*%
D10*
%TO.C,J7*%
X156972000Y-51054000D03*
X156972000Y-53594000D03*
X156972000Y-56134000D03*
X156972000Y-58674000D03*
X156972000Y-61214000D03*
D11*
X156972000Y-63754000D03*
%TD*%
D12*
%TO.C,Y2*%
X136354000Y-68656000D03*
X130854000Y-68656000D03*
X130854000Y-65456000D03*
X136354000Y-65456000D03*
%TD*%
D13*
%TO.C,Y1*%
X133604000Y-82736000D03*
X133604000Y-74236000D03*
%TD*%
%TO.C,U7*%
G36*
G01*
X143166000Y-64367000D02*
X143166000Y-62967000D01*
G75*
G02*
X143241000Y-62892000I75000J0D01*
G01*
X143391000Y-62892000D01*
G75*
G02*
X143466000Y-62967000I0J-75000D01*
G01*
X143466000Y-64367000D01*
G75*
G02*
X143391000Y-64442000I-75000J0D01*
G01*
X143241000Y-64442000D01*
G75*
G02*
X143166000Y-64367000I0J75000D01*
G01*
G37*
G36*
G01*
X143666000Y-64367000D02*
X143666000Y-62967000D01*
G75*
G02*
X143741000Y-62892000I75000J0D01*
G01*
X143891000Y-62892000D01*
G75*
G02*
X143966000Y-62967000I0J-75000D01*
G01*
X143966000Y-64367000D01*
G75*
G02*
X143891000Y-64442000I-75000J0D01*
G01*
X143741000Y-64442000D01*
G75*
G02*
X143666000Y-64367000I0J75000D01*
G01*
G37*
G36*
G01*
X144166000Y-64367000D02*
X144166000Y-62967000D01*
G75*
G02*
X144241000Y-62892000I75000J0D01*
G01*
X144391000Y-62892000D01*
G75*
G02*
X144466000Y-62967000I0J-75000D01*
G01*
X144466000Y-64367000D01*
G75*
G02*
X144391000Y-64442000I-75000J0D01*
G01*
X144241000Y-64442000D01*
G75*
G02*
X144166000Y-64367000I0J75000D01*
G01*
G37*
G36*
G01*
X144666000Y-64367000D02*
X144666000Y-62967000D01*
G75*
G02*
X144741000Y-62892000I75000J0D01*
G01*
X144891000Y-62892000D01*
G75*
G02*
X144966000Y-62967000I0J-75000D01*
G01*
X144966000Y-64367000D01*
G75*
G02*
X144891000Y-64442000I-75000J0D01*
G01*
X144741000Y-64442000D01*
G75*
G02*
X144666000Y-64367000I0J75000D01*
G01*
G37*
G36*
G01*
X145166000Y-64367000D02*
X145166000Y-62967000D01*
G75*
G02*
X145241000Y-62892000I75000J0D01*
G01*
X145391000Y-62892000D01*
G75*
G02*
X145466000Y-62967000I0J-75000D01*
G01*
X145466000Y-64367000D01*
G75*
G02*
X145391000Y-64442000I-75000J0D01*
G01*
X145241000Y-64442000D01*
G75*
G02*
X145166000Y-64367000I0J75000D01*
G01*
G37*
G36*
G01*
X145666000Y-64367000D02*
X145666000Y-62967000D01*
G75*
G02*
X145741000Y-62892000I75000J0D01*
G01*
X145891000Y-62892000D01*
G75*
G02*
X145966000Y-62967000I0J-75000D01*
G01*
X145966000Y-64367000D01*
G75*
G02*
X145891000Y-64442000I-75000J0D01*
G01*
X145741000Y-64442000D01*
G75*
G02*
X145666000Y-64367000I0J75000D01*
G01*
G37*
G36*
G01*
X146166000Y-64367000D02*
X146166000Y-62967000D01*
G75*
G02*
X146241000Y-62892000I75000J0D01*
G01*
X146391000Y-62892000D01*
G75*
G02*
X146466000Y-62967000I0J-75000D01*
G01*
X146466000Y-64367000D01*
G75*
G02*
X146391000Y-64442000I-75000J0D01*
G01*
X146241000Y-64442000D01*
G75*
G02*
X146166000Y-64367000I0J75000D01*
G01*
G37*
G36*
G01*
X146666000Y-64367000D02*
X146666000Y-62967000D01*
G75*
G02*
X146741000Y-62892000I75000J0D01*
G01*
X146891000Y-62892000D01*
G75*
G02*
X146966000Y-62967000I0J-75000D01*
G01*
X146966000Y-64367000D01*
G75*
G02*
X146891000Y-64442000I-75000J0D01*
G01*
X146741000Y-64442000D01*
G75*
G02*
X146666000Y-64367000I0J75000D01*
G01*
G37*
G36*
G01*
X147166000Y-64367000D02*
X147166000Y-62967000D01*
G75*
G02*
X147241000Y-62892000I75000J0D01*
G01*
X147391000Y-62892000D01*
G75*
G02*
X147466000Y-62967000I0J-75000D01*
G01*
X147466000Y-64367000D01*
G75*
G02*
X147391000Y-64442000I-75000J0D01*
G01*
X147241000Y-64442000D01*
G75*
G02*
X147166000Y-64367000I0J75000D01*
G01*
G37*
G36*
G01*
X147666000Y-64367000D02*
X147666000Y-62967000D01*
G75*
G02*
X147741000Y-62892000I75000J0D01*
G01*
X147891000Y-62892000D01*
G75*
G02*
X147966000Y-62967000I0J-75000D01*
G01*
X147966000Y-64367000D01*
G75*
G02*
X147891000Y-64442000I-75000J0D01*
G01*
X147741000Y-64442000D01*
G75*
G02*
X147666000Y-64367000I0J75000D01*
G01*
G37*
G36*
G01*
X148166000Y-64367000D02*
X148166000Y-62967000D01*
G75*
G02*
X148241000Y-62892000I75000J0D01*
G01*
X148391000Y-62892000D01*
G75*
G02*
X148466000Y-62967000I0J-75000D01*
G01*
X148466000Y-64367000D01*
G75*
G02*
X148391000Y-64442000I-75000J0D01*
G01*
X148241000Y-64442000D01*
G75*
G02*
X148166000Y-64367000I0J75000D01*
G01*
G37*
G36*
G01*
X148666000Y-64367000D02*
X148666000Y-62967000D01*
G75*
G02*
X148741000Y-62892000I75000J0D01*
G01*
X148891000Y-62892000D01*
G75*
G02*
X148966000Y-62967000I0J-75000D01*
G01*
X148966000Y-64367000D01*
G75*
G02*
X148891000Y-64442000I-75000J0D01*
G01*
X148741000Y-64442000D01*
G75*
G02*
X148666000Y-64367000I0J75000D01*
G01*
G37*
G36*
G01*
X149166000Y-64367000D02*
X149166000Y-62967000D01*
G75*
G02*
X149241000Y-62892000I75000J0D01*
G01*
X149391000Y-62892000D01*
G75*
G02*
X149466000Y-62967000I0J-75000D01*
G01*
X149466000Y-64367000D01*
G75*
G02*
X149391000Y-64442000I-75000J0D01*
G01*
X149241000Y-64442000D01*
G75*
G02*
X149166000Y-64367000I0J75000D01*
G01*
G37*
G36*
G01*
X149666000Y-64367000D02*
X149666000Y-62967000D01*
G75*
G02*
X149741000Y-62892000I75000J0D01*
G01*
X149891000Y-62892000D01*
G75*
G02*
X149966000Y-62967000I0J-75000D01*
G01*
X149966000Y-64367000D01*
G75*
G02*
X149891000Y-64442000I-75000J0D01*
G01*
X149741000Y-64442000D01*
G75*
G02*
X149666000Y-64367000I0J75000D01*
G01*
G37*
G36*
G01*
X150166000Y-64367000D02*
X150166000Y-62967000D01*
G75*
G02*
X150241000Y-62892000I75000J0D01*
G01*
X150391000Y-62892000D01*
G75*
G02*
X150466000Y-62967000I0J-75000D01*
G01*
X150466000Y-64367000D01*
G75*
G02*
X150391000Y-64442000I-75000J0D01*
G01*
X150241000Y-64442000D01*
G75*
G02*
X150166000Y-64367000I0J75000D01*
G01*
G37*
G36*
G01*
X150666000Y-64367000D02*
X150666000Y-62967000D01*
G75*
G02*
X150741000Y-62892000I75000J0D01*
G01*
X150891000Y-62892000D01*
G75*
G02*
X150966000Y-62967000I0J-75000D01*
G01*
X150966000Y-64367000D01*
G75*
G02*
X150891000Y-64442000I-75000J0D01*
G01*
X150741000Y-64442000D01*
G75*
G02*
X150666000Y-64367000I0J75000D01*
G01*
G37*
G36*
G01*
X151966000Y-65667000D02*
X151966000Y-65517000D01*
G75*
G02*
X152041000Y-65442000I75000J0D01*
G01*
X153441000Y-65442000D01*
G75*
G02*
X153516000Y-65517000I0J-75000D01*
G01*
X153516000Y-65667000D01*
G75*
G02*
X153441000Y-65742000I-75000J0D01*
G01*
X152041000Y-65742000D01*
G75*
G02*
X151966000Y-65667000I0J75000D01*
G01*
G37*
G36*
G01*
X151966000Y-66167000D02*
X151966000Y-66017000D01*
G75*
G02*
X152041000Y-65942000I75000J0D01*
G01*
X153441000Y-65942000D01*
G75*
G02*
X153516000Y-66017000I0J-75000D01*
G01*
X153516000Y-66167000D01*
G75*
G02*
X153441000Y-66242000I-75000J0D01*
G01*
X152041000Y-66242000D01*
G75*
G02*
X151966000Y-66167000I0J75000D01*
G01*
G37*
G36*
G01*
X151966000Y-66667000D02*
X151966000Y-66517000D01*
G75*
G02*
X152041000Y-66442000I75000J0D01*
G01*
X153441000Y-66442000D01*
G75*
G02*
X153516000Y-66517000I0J-75000D01*
G01*
X153516000Y-66667000D01*
G75*
G02*
X153441000Y-66742000I-75000J0D01*
G01*
X152041000Y-66742000D01*
G75*
G02*
X151966000Y-66667000I0J75000D01*
G01*
G37*
G36*
G01*
X151966000Y-67167000D02*
X151966000Y-67017000D01*
G75*
G02*
X152041000Y-66942000I75000J0D01*
G01*
X153441000Y-66942000D01*
G75*
G02*
X153516000Y-67017000I0J-75000D01*
G01*
X153516000Y-67167000D01*
G75*
G02*
X153441000Y-67242000I-75000J0D01*
G01*
X152041000Y-67242000D01*
G75*
G02*
X151966000Y-67167000I0J75000D01*
G01*
G37*
G36*
G01*
X151966000Y-67667000D02*
X151966000Y-67517000D01*
G75*
G02*
X152041000Y-67442000I75000J0D01*
G01*
X153441000Y-67442000D01*
G75*
G02*
X153516000Y-67517000I0J-75000D01*
G01*
X153516000Y-67667000D01*
G75*
G02*
X153441000Y-67742000I-75000J0D01*
G01*
X152041000Y-67742000D01*
G75*
G02*
X151966000Y-67667000I0J75000D01*
G01*
G37*
G36*
G01*
X151966000Y-68167000D02*
X151966000Y-68017000D01*
G75*
G02*
X152041000Y-67942000I75000J0D01*
G01*
X153441000Y-67942000D01*
G75*
G02*
X153516000Y-68017000I0J-75000D01*
G01*
X153516000Y-68167000D01*
G75*
G02*
X153441000Y-68242000I-75000J0D01*
G01*
X152041000Y-68242000D01*
G75*
G02*
X151966000Y-68167000I0J75000D01*
G01*
G37*
G36*
G01*
X151966000Y-68667000D02*
X151966000Y-68517000D01*
G75*
G02*
X152041000Y-68442000I75000J0D01*
G01*
X153441000Y-68442000D01*
G75*
G02*
X153516000Y-68517000I0J-75000D01*
G01*
X153516000Y-68667000D01*
G75*
G02*
X153441000Y-68742000I-75000J0D01*
G01*
X152041000Y-68742000D01*
G75*
G02*
X151966000Y-68667000I0J75000D01*
G01*
G37*
G36*
G01*
X151966000Y-69167000D02*
X151966000Y-69017000D01*
G75*
G02*
X152041000Y-68942000I75000J0D01*
G01*
X153441000Y-68942000D01*
G75*
G02*
X153516000Y-69017000I0J-75000D01*
G01*
X153516000Y-69167000D01*
G75*
G02*
X153441000Y-69242000I-75000J0D01*
G01*
X152041000Y-69242000D01*
G75*
G02*
X151966000Y-69167000I0J75000D01*
G01*
G37*
G36*
G01*
X151966000Y-69667000D02*
X151966000Y-69517000D01*
G75*
G02*
X152041000Y-69442000I75000J0D01*
G01*
X153441000Y-69442000D01*
G75*
G02*
X153516000Y-69517000I0J-75000D01*
G01*
X153516000Y-69667000D01*
G75*
G02*
X153441000Y-69742000I-75000J0D01*
G01*
X152041000Y-69742000D01*
G75*
G02*
X151966000Y-69667000I0J75000D01*
G01*
G37*
G36*
G01*
X151966000Y-70167000D02*
X151966000Y-70017000D01*
G75*
G02*
X152041000Y-69942000I75000J0D01*
G01*
X153441000Y-69942000D01*
G75*
G02*
X153516000Y-70017000I0J-75000D01*
G01*
X153516000Y-70167000D01*
G75*
G02*
X153441000Y-70242000I-75000J0D01*
G01*
X152041000Y-70242000D01*
G75*
G02*
X151966000Y-70167000I0J75000D01*
G01*
G37*
G36*
G01*
X151966000Y-70667000D02*
X151966000Y-70517000D01*
G75*
G02*
X152041000Y-70442000I75000J0D01*
G01*
X153441000Y-70442000D01*
G75*
G02*
X153516000Y-70517000I0J-75000D01*
G01*
X153516000Y-70667000D01*
G75*
G02*
X153441000Y-70742000I-75000J0D01*
G01*
X152041000Y-70742000D01*
G75*
G02*
X151966000Y-70667000I0J75000D01*
G01*
G37*
G36*
G01*
X151966000Y-71167000D02*
X151966000Y-71017000D01*
G75*
G02*
X152041000Y-70942000I75000J0D01*
G01*
X153441000Y-70942000D01*
G75*
G02*
X153516000Y-71017000I0J-75000D01*
G01*
X153516000Y-71167000D01*
G75*
G02*
X153441000Y-71242000I-75000J0D01*
G01*
X152041000Y-71242000D01*
G75*
G02*
X151966000Y-71167000I0J75000D01*
G01*
G37*
G36*
G01*
X151966000Y-71667000D02*
X151966000Y-71517000D01*
G75*
G02*
X152041000Y-71442000I75000J0D01*
G01*
X153441000Y-71442000D01*
G75*
G02*
X153516000Y-71517000I0J-75000D01*
G01*
X153516000Y-71667000D01*
G75*
G02*
X153441000Y-71742000I-75000J0D01*
G01*
X152041000Y-71742000D01*
G75*
G02*
X151966000Y-71667000I0J75000D01*
G01*
G37*
G36*
G01*
X151966000Y-72167000D02*
X151966000Y-72017000D01*
G75*
G02*
X152041000Y-71942000I75000J0D01*
G01*
X153441000Y-71942000D01*
G75*
G02*
X153516000Y-72017000I0J-75000D01*
G01*
X153516000Y-72167000D01*
G75*
G02*
X153441000Y-72242000I-75000J0D01*
G01*
X152041000Y-72242000D01*
G75*
G02*
X151966000Y-72167000I0J75000D01*
G01*
G37*
G36*
G01*
X151966000Y-72667000D02*
X151966000Y-72517000D01*
G75*
G02*
X152041000Y-72442000I75000J0D01*
G01*
X153441000Y-72442000D01*
G75*
G02*
X153516000Y-72517000I0J-75000D01*
G01*
X153516000Y-72667000D01*
G75*
G02*
X153441000Y-72742000I-75000J0D01*
G01*
X152041000Y-72742000D01*
G75*
G02*
X151966000Y-72667000I0J75000D01*
G01*
G37*
G36*
G01*
X151966000Y-73167000D02*
X151966000Y-73017000D01*
G75*
G02*
X152041000Y-72942000I75000J0D01*
G01*
X153441000Y-72942000D01*
G75*
G02*
X153516000Y-73017000I0J-75000D01*
G01*
X153516000Y-73167000D01*
G75*
G02*
X153441000Y-73242000I-75000J0D01*
G01*
X152041000Y-73242000D01*
G75*
G02*
X151966000Y-73167000I0J75000D01*
G01*
G37*
G36*
G01*
X150666000Y-75717000D02*
X150666000Y-74317000D01*
G75*
G02*
X150741000Y-74242000I75000J0D01*
G01*
X150891000Y-74242000D01*
G75*
G02*
X150966000Y-74317000I0J-75000D01*
G01*
X150966000Y-75717000D01*
G75*
G02*
X150891000Y-75792000I-75000J0D01*
G01*
X150741000Y-75792000D01*
G75*
G02*
X150666000Y-75717000I0J75000D01*
G01*
G37*
G36*
G01*
X150166000Y-75717000D02*
X150166000Y-74317000D01*
G75*
G02*
X150241000Y-74242000I75000J0D01*
G01*
X150391000Y-74242000D01*
G75*
G02*
X150466000Y-74317000I0J-75000D01*
G01*
X150466000Y-75717000D01*
G75*
G02*
X150391000Y-75792000I-75000J0D01*
G01*
X150241000Y-75792000D01*
G75*
G02*
X150166000Y-75717000I0J75000D01*
G01*
G37*
G36*
G01*
X149666000Y-75717000D02*
X149666000Y-74317000D01*
G75*
G02*
X149741000Y-74242000I75000J0D01*
G01*
X149891000Y-74242000D01*
G75*
G02*
X149966000Y-74317000I0J-75000D01*
G01*
X149966000Y-75717000D01*
G75*
G02*
X149891000Y-75792000I-75000J0D01*
G01*
X149741000Y-75792000D01*
G75*
G02*
X149666000Y-75717000I0J75000D01*
G01*
G37*
G36*
G01*
X149166000Y-75717000D02*
X149166000Y-74317000D01*
G75*
G02*
X149241000Y-74242000I75000J0D01*
G01*
X149391000Y-74242000D01*
G75*
G02*
X149466000Y-74317000I0J-75000D01*
G01*
X149466000Y-75717000D01*
G75*
G02*
X149391000Y-75792000I-75000J0D01*
G01*
X149241000Y-75792000D01*
G75*
G02*
X149166000Y-75717000I0J75000D01*
G01*
G37*
G36*
G01*
X148666000Y-75717000D02*
X148666000Y-74317000D01*
G75*
G02*
X148741000Y-74242000I75000J0D01*
G01*
X148891000Y-74242000D01*
G75*
G02*
X148966000Y-74317000I0J-75000D01*
G01*
X148966000Y-75717000D01*
G75*
G02*
X148891000Y-75792000I-75000J0D01*
G01*
X148741000Y-75792000D01*
G75*
G02*
X148666000Y-75717000I0J75000D01*
G01*
G37*
G36*
G01*
X148166000Y-75717000D02*
X148166000Y-74317000D01*
G75*
G02*
X148241000Y-74242000I75000J0D01*
G01*
X148391000Y-74242000D01*
G75*
G02*
X148466000Y-74317000I0J-75000D01*
G01*
X148466000Y-75717000D01*
G75*
G02*
X148391000Y-75792000I-75000J0D01*
G01*
X148241000Y-75792000D01*
G75*
G02*
X148166000Y-75717000I0J75000D01*
G01*
G37*
G36*
G01*
X147666000Y-75717000D02*
X147666000Y-74317000D01*
G75*
G02*
X147741000Y-74242000I75000J0D01*
G01*
X147891000Y-74242000D01*
G75*
G02*
X147966000Y-74317000I0J-75000D01*
G01*
X147966000Y-75717000D01*
G75*
G02*
X147891000Y-75792000I-75000J0D01*
G01*
X147741000Y-75792000D01*
G75*
G02*
X147666000Y-75717000I0J75000D01*
G01*
G37*
G36*
G01*
X147166000Y-75717000D02*
X147166000Y-74317000D01*
G75*
G02*
X147241000Y-74242000I75000J0D01*
G01*
X147391000Y-74242000D01*
G75*
G02*
X147466000Y-74317000I0J-75000D01*
G01*
X147466000Y-75717000D01*
G75*
G02*
X147391000Y-75792000I-75000J0D01*
G01*
X147241000Y-75792000D01*
G75*
G02*
X147166000Y-75717000I0J75000D01*
G01*
G37*
G36*
G01*
X146666000Y-75717000D02*
X146666000Y-74317000D01*
G75*
G02*
X146741000Y-74242000I75000J0D01*
G01*
X146891000Y-74242000D01*
G75*
G02*
X146966000Y-74317000I0J-75000D01*
G01*
X146966000Y-75717000D01*
G75*
G02*
X146891000Y-75792000I-75000J0D01*
G01*
X146741000Y-75792000D01*
G75*
G02*
X146666000Y-75717000I0J75000D01*
G01*
G37*
G36*
G01*
X146166000Y-75717000D02*
X146166000Y-74317000D01*
G75*
G02*
X146241000Y-74242000I75000J0D01*
G01*
X146391000Y-74242000D01*
G75*
G02*
X146466000Y-74317000I0J-75000D01*
G01*
X146466000Y-75717000D01*
G75*
G02*
X146391000Y-75792000I-75000J0D01*
G01*
X146241000Y-75792000D01*
G75*
G02*
X146166000Y-75717000I0J75000D01*
G01*
G37*
G36*
G01*
X145666000Y-75717000D02*
X145666000Y-74317000D01*
G75*
G02*
X145741000Y-74242000I75000J0D01*
G01*
X145891000Y-74242000D01*
G75*
G02*
X145966000Y-74317000I0J-75000D01*
G01*
X145966000Y-75717000D01*
G75*
G02*
X145891000Y-75792000I-75000J0D01*
G01*
X145741000Y-75792000D01*
G75*
G02*
X145666000Y-75717000I0J75000D01*
G01*
G37*
G36*
G01*
X145166000Y-75717000D02*
X145166000Y-74317000D01*
G75*
G02*
X145241000Y-74242000I75000J0D01*
G01*
X145391000Y-74242000D01*
G75*
G02*
X145466000Y-74317000I0J-75000D01*
G01*
X145466000Y-75717000D01*
G75*
G02*
X145391000Y-75792000I-75000J0D01*
G01*
X145241000Y-75792000D01*
G75*
G02*
X145166000Y-75717000I0J75000D01*
G01*
G37*
G36*
G01*
X144666000Y-75717000D02*
X144666000Y-74317000D01*
G75*
G02*
X144741000Y-74242000I75000J0D01*
G01*
X144891000Y-74242000D01*
G75*
G02*
X144966000Y-74317000I0J-75000D01*
G01*
X144966000Y-75717000D01*
G75*
G02*
X144891000Y-75792000I-75000J0D01*
G01*
X144741000Y-75792000D01*
G75*
G02*
X144666000Y-75717000I0J75000D01*
G01*
G37*
G36*
G01*
X144166000Y-75717000D02*
X144166000Y-74317000D01*
G75*
G02*
X144241000Y-74242000I75000J0D01*
G01*
X144391000Y-74242000D01*
G75*
G02*
X144466000Y-74317000I0J-75000D01*
G01*
X144466000Y-75717000D01*
G75*
G02*
X144391000Y-75792000I-75000J0D01*
G01*
X144241000Y-75792000D01*
G75*
G02*
X144166000Y-75717000I0J75000D01*
G01*
G37*
G36*
G01*
X143666000Y-75717000D02*
X143666000Y-74317000D01*
G75*
G02*
X143741000Y-74242000I75000J0D01*
G01*
X143891000Y-74242000D01*
G75*
G02*
X143966000Y-74317000I0J-75000D01*
G01*
X143966000Y-75717000D01*
G75*
G02*
X143891000Y-75792000I-75000J0D01*
G01*
X143741000Y-75792000D01*
G75*
G02*
X143666000Y-75717000I0J75000D01*
G01*
G37*
G36*
G01*
X143166000Y-75717000D02*
X143166000Y-74317000D01*
G75*
G02*
X143241000Y-74242000I75000J0D01*
G01*
X143391000Y-74242000D01*
G75*
G02*
X143466000Y-74317000I0J-75000D01*
G01*
X143466000Y-75717000D01*
G75*
G02*
X143391000Y-75792000I-75000J0D01*
G01*
X143241000Y-75792000D01*
G75*
G02*
X143166000Y-75717000I0J75000D01*
G01*
G37*
G36*
G01*
X140616000Y-73167000D02*
X140616000Y-73017000D01*
G75*
G02*
X140691000Y-72942000I75000J0D01*
G01*
X142091000Y-72942000D01*
G75*
G02*
X142166000Y-73017000I0J-75000D01*
G01*
X142166000Y-73167000D01*
G75*
G02*
X142091000Y-73242000I-75000J0D01*
G01*
X140691000Y-73242000D01*
G75*
G02*
X140616000Y-73167000I0J75000D01*
G01*
G37*
G36*
G01*
X140616000Y-72667000D02*
X140616000Y-72517000D01*
G75*
G02*
X140691000Y-72442000I75000J0D01*
G01*
X142091000Y-72442000D01*
G75*
G02*
X142166000Y-72517000I0J-75000D01*
G01*
X142166000Y-72667000D01*
G75*
G02*
X142091000Y-72742000I-75000J0D01*
G01*
X140691000Y-72742000D01*
G75*
G02*
X140616000Y-72667000I0J75000D01*
G01*
G37*
G36*
G01*
X140616000Y-72167000D02*
X140616000Y-72017000D01*
G75*
G02*
X140691000Y-71942000I75000J0D01*
G01*
X142091000Y-71942000D01*
G75*
G02*
X142166000Y-72017000I0J-75000D01*
G01*
X142166000Y-72167000D01*
G75*
G02*
X142091000Y-72242000I-75000J0D01*
G01*
X140691000Y-72242000D01*
G75*
G02*
X140616000Y-72167000I0J75000D01*
G01*
G37*
G36*
G01*
X140616000Y-71667000D02*
X140616000Y-71517000D01*
G75*
G02*
X140691000Y-71442000I75000J0D01*
G01*
X142091000Y-71442000D01*
G75*
G02*
X142166000Y-71517000I0J-75000D01*
G01*
X142166000Y-71667000D01*
G75*
G02*
X142091000Y-71742000I-75000J0D01*
G01*
X140691000Y-71742000D01*
G75*
G02*
X140616000Y-71667000I0J75000D01*
G01*
G37*
G36*
G01*
X140616000Y-71167000D02*
X140616000Y-71017000D01*
G75*
G02*
X140691000Y-70942000I75000J0D01*
G01*
X142091000Y-70942000D01*
G75*
G02*
X142166000Y-71017000I0J-75000D01*
G01*
X142166000Y-71167000D01*
G75*
G02*
X142091000Y-71242000I-75000J0D01*
G01*
X140691000Y-71242000D01*
G75*
G02*
X140616000Y-71167000I0J75000D01*
G01*
G37*
G36*
G01*
X140616000Y-70667000D02*
X140616000Y-70517000D01*
G75*
G02*
X140691000Y-70442000I75000J0D01*
G01*
X142091000Y-70442000D01*
G75*
G02*
X142166000Y-70517000I0J-75000D01*
G01*
X142166000Y-70667000D01*
G75*
G02*
X142091000Y-70742000I-75000J0D01*
G01*
X140691000Y-70742000D01*
G75*
G02*
X140616000Y-70667000I0J75000D01*
G01*
G37*
G36*
G01*
X140616000Y-70167000D02*
X140616000Y-70017000D01*
G75*
G02*
X140691000Y-69942000I75000J0D01*
G01*
X142091000Y-69942000D01*
G75*
G02*
X142166000Y-70017000I0J-75000D01*
G01*
X142166000Y-70167000D01*
G75*
G02*
X142091000Y-70242000I-75000J0D01*
G01*
X140691000Y-70242000D01*
G75*
G02*
X140616000Y-70167000I0J75000D01*
G01*
G37*
G36*
G01*
X140616000Y-69667000D02*
X140616000Y-69517000D01*
G75*
G02*
X140691000Y-69442000I75000J0D01*
G01*
X142091000Y-69442000D01*
G75*
G02*
X142166000Y-69517000I0J-75000D01*
G01*
X142166000Y-69667000D01*
G75*
G02*
X142091000Y-69742000I-75000J0D01*
G01*
X140691000Y-69742000D01*
G75*
G02*
X140616000Y-69667000I0J75000D01*
G01*
G37*
G36*
G01*
X140616000Y-69167000D02*
X140616000Y-69017000D01*
G75*
G02*
X140691000Y-68942000I75000J0D01*
G01*
X142091000Y-68942000D01*
G75*
G02*
X142166000Y-69017000I0J-75000D01*
G01*
X142166000Y-69167000D01*
G75*
G02*
X142091000Y-69242000I-75000J0D01*
G01*
X140691000Y-69242000D01*
G75*
G02*
X140616000Y-69167000I0J75000D01*
G01*
G37*
G36*
G01*
X140616000Y-68667000D02*
X140616000Y-68517000D01*
G75*
G02*
X140691000Y-68442000I75000J0D01*
G01*
X142091000Y-68442000D01*
G75*
G02*
X142166000Y-68517000I0J-75000D01*
G01*
X142166000Y-68667000D01*
G75*
G02*
X142091000Y-68742000I-75000J0D01*
G01*
X140691000Y-68742000D01*
G75*
G02*
X140616000Y-68667000I0J75000D01*
G01*
G37*
G36*
G01*
X140616000Y-68167000D02*
X140616000Y-68017000D01*
G75*
G02*
X140691000Y-67942000I75000J0D01*
G01*
X142091000Y-67942000D01*
G75*
G02*
X142166000Y-68017000I0J-75000D01*
G01*
X142166000Y-68167000D01*
G75*
G02*
X142091000Y-68242000I-75000J0D01*
G01*
X140691000Y-68242000D01*
G75*
G02*
X140616000Y-68167000I0J75000D01*
G01*
G37*
G36*
G01*
X140616000Y-67667000D02*
X140616000Y-67517000D01*
G75*
G02*
X140691000Y-67442000I75000J0D01*
G01*
X142091000Y-67442000D01*
G75*
G02*
X142166000Y-67517000I0J-75000D01*
G01*
X142166000Y-67667000D01*
G75*
G02*
X142091000Y-67742000I-75000J0D01*
G01*
X140691000Y-67742000D01*
G75*
G02*
X140616000Y-67667000I0J75000D01*
G01*
G37*
G36*
G01*
X140616000Y-67167000D02*
X140616000Y-67017000D01*
G75*
G02*
X140691000Y-66942000I75000J0D01*
G01*
X142091000Y-66942000D01*
G75*
G02*
X142166000Y-67017000I0J-75000D01*
G01*
X142166000Y-67167000D01*
G75*
G02*
X142091000Y-67242000I-75000J0D01*
G01*
X140691000Y-67242000D01*
G75*
G02*
X140616000Y-67167000I0J75000D01*
G01*
G37*
G36*
G01*
X140616000Y-66667000D02*
X140616000Y-66517000D01*
G75*
G02*
X140691000Y-66442000I75000J0D01*
G01*
X142091000Y-66442000D01*
G75*
G02*
X142166000Y-66517000I0J-75000D01*
G01*
X142166000Y-66667000D01*
G75*
G02*
X142091000Y-66742000I-75000J0D01*
G01*
X140691000Y-66742000D01*
G75*
G02*
X140616000Y-66667000I0J75000D01*
G01*
G37*
G36*
G01*
X140616000Y-66167000D02*
X140616000Y-66017000D01*
G75*
G02*
X140691000Y-65942000I75000J0D01*
G01*
X142091000Y-65942000D01*
G75*
G02*
X142166000Y-66017000I0J-75000D01*
G01*
X142166000Y-66167000D01*
G75*
G02*
X142091000Y-66242000I-75000J0D01*
G01*
X140691000Y-66242000D01*
G75*
G02*
X140616000Y-66167000I0J75000D01*
G01*
G37*
G36*
G01*
X140616000Y-65667000D02*
X140616000Y-65517000D01*
G75*
G02*
X140691000Y-65442000I75000J0D01*
G01*
X142091000Y-65442000D01*
G75*
G02*
X142166000Y-65517000I0J-75000D01*
G01*
X142166000Y-65667000D01*
G75*
G02*
X142091000Y-65742000I-75000J0D01*
G01*
X140691000Y-65742000D01*
G75*
G02*
X140616000Y-65667000I0J75000D01*
G01*
G37*
%TD*%
%TO.C,U6*%
G36*
G01*
X143166000Y-64367000D02*
X143166000Y-62967000D01*
G75*
G02*
X143241000Y-62892000I75000J0D01*
G01*
X143391000Y-62892000D01*
G75*
G02*
X143466000Y-62967000I0J-75000D01*
G01*
X143466000Y-64367000D01*
G75*
G02*
X143391000Y-64442000I-75000J0D01*
G01*
X143241000Y-64442000D01*
G75*
G02*
X143166000Y-64367000I0J75000D01*
G01*
G37*
G36*
G01*
X143666000Y-64367000D02*
X143666000Y-62967000D01*
G75*
G02*
X143741000Y-62892000I75000J0D01*
G01*
X143891000Y-62892000D01*
G75*
G02*
X143966000Y-62967000I0J-75000D01*
G01*
X143966000Y-64367000D01*
G75*
G02*
X143891000Y-64442000I-75000J0D01*
G01*
X143741000Y-64442000D01*
G75*
G02*
X143666000Y-64367000I0J75000D01*
G01*
G37*
G36*
G01*
X144166000Y-64367000D02*
X144166000Y-62967000D01*
G75*
G02*
X144241000Y-62892000I75000J0D01*
G01*
X144391000Y-62892000D01*
G75*
G02*
X144466000Y-62967000I0J-75000D01*
G01*
X144466000Y-64367000D01*
G75*
G02*
X144391000Y-64442000I-75000J0D01*
G01*
X144241000Y-64442000D01*
G75*
G02*
X144166000Y-64367000I0J75000D01*
G01*
G37*
G36*
G01*
X144666000Y-64367000D02*
X144666000Y-62967000D01*
G75*
G02*
X144741000Y-62892000I75000J0D01*
G01*
X144891000Y-62892000D01*
G75*
G02*
X144966000Y-62967000I0J-75000D01*
G01*
X144966000Y-64367000D01*
G75*
G02*
X144891000Y-64442000I-75000J0D01*
G01*
X144741000Y-64442000D01*
G75*
G02*
X144666000Y-64367000I0J75000D01*
G01*
G37*
G36*
G01*
X145166000Y-64367000D02*
X145166000Y-62967000D01*
G75*
G02*
X145241000Y-62892000I75000J0D01*
G01*
X145391000Y-62892000D01*
G75*
G02*
X145466000Y-62967000I0J-75000D01*
G01*
X145466000Y-64367000D01*
G75*
G02*
X145391000Y-64442000I-75000J0D01*
G01*
X145241000Y-64442000D01*
G75*
G02*
X145166000Y-64367000I0J75000D01*
G01*
G37*
G36*
G01*
X145666000Y-64367000D02*
X145666000Y-62967000D01*
G75*
G02*
X145741000Y-62892000I75000J0D01*
G01*
X145891000Y-62892000D01*
G75*
G02*
X145966000Y-62967000I0J-75000D01*
G01*
X145966000Y-64367000D01*
G75*
G02*
X145891000Y-64442000I-75000J0D01*
G01*
X145741000Y-64442000D01*
G75*
G02*
X145666000Y-64367000I0J75000D01*
G01*
G37*
G36*
G01*
X146166000Y-64367000D02*
X146166000Y-62967000D01*
G75*
G02*
X146241000Y-62892000I75000J0D01*
G01*
X146391000Y-62892000D01*
G75*
G02*
X146466000Y-62967000I0J-75000D01*
G01*
X146466000Y-64367000D01*
G75*
G02*
X146391000Y-64442000I-75000J0D01*
G01*
X146241000Y-64442000D01*
G75*
G02*
X146166000Y-64367000I0J75000D01*
G01*
G37*
G36*
G01*
X146666000Y-64367000D02*
X146666000Y-62967000D01*
G75*
G02*
X146741000Y-62892000I75000J0D01*
G01*
X146891000Y-62892000D01*
G75*
G02*
X146966000Y-62967000I0J-75000D01*
G01*
X146966000Y-64367000D01*
G75*
G02*
X146891000Y-64442000I-75000J0D01*
G01*
X146741000Y-64442000D01*
G75*
G02*
X146666000Y-64367000I0J75000D01*
G01*
G37*
G36*
G01*
X147166000Y-64367000D02*
X147166000Y-62967000D01*
G75*
G02*
X147241000Y-62892000I75000J0D01*
G01*
X147391000Y-62892000D01*
G75*
G02*
X147466000Y-62967000I0J-75000D01*
G01*
X147466000Y-64367000D01*
G75*
G02*
X147391000Y-64442000I-75000J0D01*
G01*
X147241000Y-64442000D01*
G75*
G02*
X147166000Y-64367000I0J75000D01*
G01*
G37*
G36*
G01*
X147666000Y-64367000D02*
X147666000Y-62967000D01*
G75*
G02*
X147741000Y-62892000I75000J0D01*
G01*
X147891000Y-62892000D01*
G75*
G02*
X147966000Y-62967000I0J-75000D01*
G01*
X147966000Y-64367000D01*
G75*
G02*
X147891000Y-64442000I-75000J0D01*
G01*
X147741000Y-64442000D01*
G75*
G02*
X147666000Y-64367000I0J75000D01*
G01*
G37*
G36*
G01*
X148166000Y-64367000D02*
X148166000Y-62967000D01*
G75*
G02*
X148241000Y-62892000I75000J0D01*
G01*
X148391000Y-62892000D01*
G75*
G02*
X148466000Y-62967000I0J-75000D01*
G01*
X148466000Y-64367000D01*
G75*
G02*
X148391000Y-64442000I-75000J0D01*
G01*
X148241000Y-64442000D01*
G75*
G02*
X148166000Y-64367000I0J75000D01*
G01*
G37*
G36*
G01*
X148666000Y-64367000D02*
X148666000Y-62967000D01*
G75*
G02*
X148741000Y-62892000I75000J0D01*
G01*
X148891000Y-62892000D01*
G75*
G02*
X148966000Y-62967000I0J-75000D01*
G01*
X148966000Y-64367000D01*
G75*
G02*
X148891000Y-64442000I-75000J0D01*
G01*
X148741000Y-64442000D01*
G75*
G02*
X148666000Y-64367000I0J75000D01*
G01*
G37*
G36*
G01*
X149166000Y-64367000D02*
X149166000Y-62967000D01*
G75*
G02*
X149241000Y-62892000I75000J0D01*
G01*
X149391000Y-62892000D01*
G75*
G02*
X149466000Y-62967000I0J-75000D01*
G01*
X149466000Y-64367000D01*
G75*
G02*
X149391000Y-64442000I-75000J0D01*
G01*
X149241000Y-64442000D01*
G75*
G02*
X149166000Y-64367000I0J75000D01*
G01*
G37*
G36*
G01*
X149666000Y-64367000D02*
X149666000Y-62967000D01*
G75*
G02*
X149741000Y-62892000I75000J0D01*
G01*
X149891000Y-62892000D01*
G75*
G02*
X149966000Y-62967000I0J-75000D01*
G01*
X149966000Y-64367000D01*
G75*
G02*
X149891000Y-64442000I-75000J0D01*
G01*
X149741000Y-64442000D01*
G75*
G02*
X149666000Y-64367000I0J75000D01*
G01*
G37*
G36*
G01*
X150166000Y-64367000D02*
X150166000Y-62967000D01*
G75*
G02*
X150241000Y-62892000I75000J0D01*
G01*
X150391000Y-62892000D01*
G75*
G02*
X150466000Y-62967000I0J-75000D01*
G01*
X150466000Y-64367000D01*
G75*
G02*
X150391000Y-64442000I-75000J0D01*
G01*
X150241000Y-64442000D01*
G75*
G02*
X150166000Y-64367000I0J75000D01*
G01*
G37*
G36*
G01*
X150666000Y-64367000D02*
X150666000Y-62967000D01*
G75*
G02*
X150741000Y-62892000I75000J0D01*
G01*
X150891000Y-62892000D01*
G75*
G02*
X150966000Y-62967000I0J-75000D01*
G01*
X150966000Y-64367000D01*
G75*
G02*
X150891000Y-64442000I-75000J0D01*
G01*
X150741000Y-64442000D01*
G75*
G02*
X150666000Y-64367000I0J75000D01*
G01*
G37*
G36*
G01*
X151966000Y-65667000D02*
X151966000Y-65517000D01*
G75*
G02*
X152041000Y-65442000I75000J0D01*
G01*
X153441000Y-65442000D01*
G75*
G02*
X153516000Y-65517000I0J-75000D01*
G01*
X153516000Y-65667000D01*
G75*
G02*
X153441000Y-65742000I-75000J0D01*
G01*
X152041000Y-65742000D01*
G75*
G02*
X151966000Y-65667000I0J75000D01*
G01*
G37*
G36*
G01*
X151966000Y-66167000D02*
X151966000Y-66017000D01*
G75*
G02*
X152041000Y-65942000I75000J0D01*
G01*
X153441000Y-65942000D01*
G75*
G02*
X153516000Y-66017000I0J-75000D01*
G01*
X153516000Y-66167000D01*
G75*
G02*
X153441000Y-66242000I-75000J0D01*
G01*
X152041000Y-66242000D01*
G75*
G02*
X151966000Y-66167000I0J75000D01*
G01*
G37*
G36*
G01*
X151966000Y-66667000D02*
X151966000Y-66517000D01*
G75*
G02*
X152041000Y-66442000I75000J0D01*
G01*
X153441000Y-66442000D01*
G75*
G02*
X153516000Y-66517000I0J-75000D01*
G01*
X153516000Y-66667000D01*
G75*
G02*
X153441000Y-66742000I-75000J0D01*
G01*
X152041000Y-66742000D01*
G75*
G02*
X151966000Y-66667000I0J75000D01*
G01*
G37*
G36*
G01*
X151966000Y-67167000D02*
X151966000Y-67017000D01*
G75*
G02*
X152041000Y-66942000I75000J0D01*
G01*
X153441000Y-66942000D01*
G75*
G02*
X153516000Y-67017000I0J-75000D01*
G01*
X153516000Y-67167000D01*
G75*
G02*
X153441000Y-67242000I-75000J0D01*
G01*
X152041000Y-67242000D01*
G75*
G02*
X151966000Y-67167000I0J75000D01*
G01*
G37*
G36*
G01*
X151966000Y-67667000D02*
X151966000Y-67517000D01*
G75*
G02*
X152041000Y-67442000I75000J0D01*
G01*
X153441000Y-67442000D01*
G75*
G02*
X153516000Y-67517000I0J-75000D01*
G01*
X153516000Y-67667000D01*
G75*
G02*
X153441000Y-67742000I-75000J0D01*
G01*
X152041000Y-67742000D01*
G75*
G02*
X151966000Y-67667000I0J75000D01*
G01*
G37*
G36*
G01*
X151966000Y-68167000D02*
X151966000Y-68017000D01*
G75*
G02*
X152041000Y-67942000I75000J0D01*
G01*
X153441000Y-67942000D01*
G75*
G02*
X153516000Y-68017000I0J-75000D01*
G01*
X153516000Y-68167000D01*
G75*
G02*
X153441000Y-68242000I-75000J0D01*
G01*
X152041000Y-68242000D01*
G75*
G02*
X151966000Y-68167000I0J75000D01*
G01*
G37*
G36*
G01*
X151966000Y-68667000D02*
X151966000Y-68517000D01*
G75*
G02*
X152041000Y-68442000I75000J0D01*
G01*
X153441000Y-68442000D01*
G75*
G02*
X153516000Y-68517000I0J-75000D01*
G01*
X153516000Y-68667000D01*
G75*
G02*
X153441000Y-68742000I-75000J0D01*
G01*
X152041000Y-68742000D01*
G75*
G02*
X151966000Y-68667000I0J75000D01*
G01*
G37*
G36*
G01*
X151966000Y-69167000D02*
X151966000Y-69017000D01*
G75*
G02*
X152041000Y-68942000I75000J0D01*
G01*
X153441000Y-68942000D01*
G75*
G02*
X153516000Y-69017000I0J-75000D01*
G01*
X153516000Y-69167000D01*
G75*
G02*
X153441000Y-69242000I-75000J0D01*
G01*
X152041000Y-69242000D01*
G75*
G02*
X151966000Y-69167000I0J75000D01*
G01*
G37*
G36*
G01*
X151966000Y-69667000D02*
X151966000Y-69517000D01*
G75*
G02*
X152041000Y-69442000I75000J0D01*
G01*
X153441000Y-69442000D01*
G75*
G02*
X153516000Y-69517000I0J-75000D01*
G01*
X153516000Y-69667000D01*
G75*
G02*
X153441000Y-69742000I-75000J0D01*
G01*
X152041000Y-69742000D01*
G75*
G02*
X151966000Y-69667000I0J75000D01*
G01*
G37*
G36*
G01*
X151966000Y-70167000D02*
X151966000Y-70017000D01*
G75*
G02*
X152041000Y-69942000I75000J0D01*
G01*
X153441000Y-69942000D01*
G75*
G02*
X153516000Y-70017000I0J-75000D01*
G01*
X153516000Y-70167000D01*
G75*
G02*
X153441000Y-70242000I-75000J0D01*
G01*
X152041000Y-70242000D01*
G75*
G02*
X151966000Y-70167000I0J75000D01*
G01*
G37*
G36*
G01*
X151966000Y-70667000D02*
X151966000Y-70517000D01*
G75*
G02*
X152041000Y-70442000I75000J0D01*
G01*
X153441000Y-70442000D01*
G75*
G02*
X153516000Y-70517000I0J-75000D01*
G01*
X153516000Y-70667000D01*
G75*
G02*
X153441000Y-70742000I-75000J0D01*
G01*
X152041000Y-70742000D01*
G75*
G02*
X151966000Y-70667000I0J75000D01*
G01*
G37*
G36*
G01*
X151966000Y-71167000D02*
X151966000Y-71017000D01*
G75*
G02*
X152041000Y-70942000I75000J0D01*
G01*
X153441000Y-70942000D01*
G75*
G02*
X153516000Y-71017000I0J-75000D01*
G01*
X153516000Y-71167000D01*
G75*
G02*
X153441000Y-71242000I-75000J0D01*
G01*
X152041000Y-71242000D01*
G75*
G02*
X151966000Y-71167000I0J75000D01*
G01*
G37*
G36*
G01*
X151966000Y-71667000D02*
X151966000Y-71517000D01*
G75*
G02*
X152041000Y-71442000I75000J0D01*
G01*
X153441000Y-71442000D01*
G75*
G02*
X153516000Y-71517000I0J-75000D01*
G01*
X153516000Y-71667000D01*
G75*
G02*
X153441000Y-71742000I-75000J0D01*
G01*
X152041000Y-71742000D01*
G75*
G02*
X151966000Y-71667000I0J75000D01*
G01*
G37*
G36*
G01*
X151966000Y-72167000D02*
X151966000Y-72017000D01*
G75*
G02*
X152041000Y-71942000I75000J0D01*
G01*
X153441000Y-71942000D01*
G75*
G02*
X153516000Y-72017000I0J-75000D01*
G01*
X153516000Y-72167000D01*
G75*
G02*
X153441000Y-72242000I-75000J0D01*
G01*
X152041000Y-72242000D01*
G75*
G02*
X151966000Y-72167000I0J75000D01*
G01*
G37*
G36*
G01*
X151966000Y-72667000D02*
X151966000Y-72517000D01*
G75*
G02*
X152041000Y-72442000I75000J0D01*
G01*
X153441000Y-72442000D01*
G75*
G02*
X153516000Y-72517000I0J-75000D01*
G01*
X153516000Y-72667000D01*
G75*
G02*
X153441000Y-72742000I-75000J0D01*
G01*
X152041000Y-72742000D01*
G75*
G02*
X151966000Y-72667000I0J75000D01*
G01*
G37*
G36*
G01*
X151966000Y-73167000D02*
X151966000Y-73017000D01*
G75*
G02*
X152041000Y-72942000I75000J0D01*
G01*
X153441000Y-72942000D01*
G75*
G02*
X153516000Y-73017000I0J-75000D01*
G01*
X153516000Y-73167000D01*
G75*
G02*
X153441000Y-73242000I-75000J0D01*
G01*
X152041000Y-73242000D01*
G75*
G02*
X151966000Y-73167000I0J75000D01*
G01*
G37*
G36*
G01*
X150666000Y-75717000D02*
X150666000Y-74317000D01*
G75*
G02*
X150741000Y-74242000I75000J0D01*
G01*
X150891000Y-74242000D01*
G75*
G02*
X150966000Y-74317000I0J-75000D01*
G01*
X150966000Y-75717000D01*
G75*
G02*
X150891000Y-75792000I-75000J0D01*
G01*
X150741000Y-75792000D01*
G75*
G02*
X150666000Y-75717000I0J75000D01*
G01*
G37*
G36*
G01*
X150166000Y-75717000D02*
X150166000Y-74317000D01*
G75*
G02*
X150241000Y-74242000I75000J0D01*
G01*
X150391000Y-74242000D01*
G75*
G02*
X150466000Y-74317000I0J-75000D01*
G01*
X150466000Y-75717000D01*
G75*
G02*
X150391000Y-75792000I-75000J0D01*
G01*
X150241000Y-75792000D01*
G75*
G02*
X150166000Y-75717000I0J75000D01*
G01*
G37*
G36*
G01*
X149666000Y-75717000D02*
X149666000Y-74317000D01*
G75*
G02*
X149741000Y-74242000I75000J0D01*
G01*
X149891000Y-74242000D01*
G75*
G02*
X149966000Y-74317000I0J-75000D01*
G01*
X149966000Y-75717000D01*
G75*
G02*
X149891000Y-75792000I-75000J0D01*
G01*
X149741000Y-75792000D01*
G75*
G02*
X149666000Y-75717000I0J75000D01*
G01*
G37*
G36*
G01*
X149166000Y-75717000D02*
X149166000Y-74317000D01*
G75*
G02*
X149241000Y-74242000I75000J0D01*
G01*
X149391000Y-74242000D01*
G75*
G02*
X149466000Y-74317000I0J-75000D01*
G01*
X149466000Y-75717000D01*
G75*
G02*
X149391000Y-75792000I-75000J0D01*
G01*
X149241000Y-75792000D01*
G75*
G02*
X149166000Y-75717000I0J75000D01*
G01*
G37*
G36*
G01*
X148666000Y-75717000D02*
X148666000Y-74317000D01*
G75*
G02*
X148741000Y-74242000I75000J0D01*
G01*
X148891000Y-74242000D01*
G75*
G02*
X148966000Y-74317000I0J-75000D01*
G01*
X148966000Y-75717000D01*
G75*
G02*
X148891000Y-75792000I-75000J0D01*
G01*
X148741000Y-75792000D01*
G75*
G02*
X148666000Y-75717000I0J75000D01*
G01*
G37*
G36*
G01*
X148166000Y-75717000D02*
X148166000Y-74317000D01*
G75*
G02*
X148241000Y-74242000I75000J0D01*
G01*
X148391000Y-74242000D01*
G75*
G02*
X148466000Y-74317000I0J-75000D01*
G01*
X148466000Y-75717000D01*
G75*
G02*
X148391000Y-75792000I-75000J0D01*
G01*
X148241000Y-75792000D01*
G75*
G02*
X148166000Y-75717000I0J75000D01*
G01*
G37*
G36*
G01*
X147666000Y-75717000D02*
X147666000Y-74317000D01*
G75*
G02*
X147741000Y-74242000I75000J0D01*
G01*
X147891000Y-74242000D01*
G75*
G02*
X147966000Y-74317000I0J-75000D01*
G01*
X147966000Y-75717000D01*
G75*
G02*
X147891000Y-75792000I-75000J0D01*
G01*
X147741000Y-75792000D01*
G75*
G02*
X147666000Y-75717000I0J75000D01*
G01*
G37*
G36*
G01*
X147166000Y-75717000D02*
X147166000Y-74317000D01*
G75*
G02*
X147241000Y-74242000I75000J0D01*
G01*
X147391000Y-74242000D01*
G75*
G02*
X147466000Y-74317000I0J-75000D01*
G01*
X147466000Y-75717000D01*
G75*
G02*
X147391000Y-75792000I-75000J0D01*
G01*
X147241000Y-75792000D01*
G75*
G02*
X147166000Y-75717000I0J75000D01*
G01*
G37*
G36*
G01*
X146666000Y-75717000D02*
X146666000Y-74317000D01*
G75*
G02*
X146741000Y-74242000I75000J0D01*
G01*
X146891000Y-74242000D01*
G75*
G02*
X146966000Y-74317000I0J-75000D01*
G01*
X146966000Y-75717000D01*
G75*
G02*
X146891000Y-75792000I-75000J0D01*
G01*
X146741000Y-75792000D01*
G75*
G02*
X146666000Y-75717000I0J75000D01*
G01*
G37*
G36*
G01*
X146166000Y-75717000D02*
X146166000Y-74317000D01*
G75*
G02*
X146241000Y-74242000I75000J0D01*
G01*
X146391000Y-74242000D01*
G75*
G02*
X146466000Y-74317000I0J-75000D01*
G01*
X146466000Y-75717000D01*
G75*
G02*
X146391000Y-75792000I-75000J0D01*
G01*
X146241000Y-75792000D01*
G75*
G02*
X146166000Y-75717000I0J75000D01*
G01*
G37*
G36*
G01*
X145666000Y-75717000D02*
X145666000Y-74317000D01*
G75*
G02*
X145741000Y-74242000I75000J0D01*
G01*
X145891000Y-74242000D01*
G75*
G02*
X145966000Y-74317000I0J-75000D01*
G01*
X145966000Y-75717000D01*
G75*
G02*
X145891000Y-75792000I-75000J0D01*
G01*
X145741000Y-75792000D01*
G75*
G02*
X145666000Y-75717000I0J75000D01*
G01*
G37*
G36*
G01*
X145166000Y-75717000D02*
X145166000Y-74317000D01*
G75*
G02*
X145241000Y-74242000I75000J0D01*
G01*
X145391000Y-74242000D01*
G75*
G02*
X145466000Y-74317000I0J-75000D01*
G01*
X145466000Y-75717000D01*
G75*
G02*
X145391000Y-75792000I-75000J0D01*
G01*
X145241000Y-75792000D01*
G75*
G02*
X145166000Y-75717000I0J75000D01*
G01*
G37*
G36*
G01*
X144666000Y-75717000D02*
X144666000Y-74317000D01*
G75*
G02*
X144741000Y-74242000I75000J0D01*
G01*
X144891000Y-74242000D01*
G75*
G02*
X144966000Y-74317000I0J-75000D01*
G01*
X144966000Y-75717000D01*
G75*
G02*
X144891000Y-75792000I-75000J0D01*
G01*
X144741000Y-75792000D01*
G75*
G02*
X144666000Y-75717000I0J75000D01*
G01*
G37*
G36*
G01*
X144166000Y-75717000D02*
X144166000Y-74317000D01*
G75*
G02*
X144241000Y-74242000I75000J0D01*
G01*
X144391000Y-74242000D01*
G75*
G02*
X144466000Y-74317000I0J-75000D01*
G01*
X144466000Y-75717000D01*
G75*
G02*
X144391000Y-75792000I-75000J0D01*
G01*
X144241000Y-75792000D01*
G75*
G02*
X144166000Y-75717000I0J75000D01*
G01*
G37*
G36*
G01*
X143666000Y-75717000D02*
X143666000Y-74317000D01*
G75*
G02*
X143741000Y-74242000I75000J0D01*
G01*
X143891000Y-74242000D01*
G75*
G02*
X143966000Y-74317000I0J-75000D01*
G01*
X143966000Y-75717000D01*
G75*
G02*
X143891000Y-75792000I-75000J0D01*
G01*
X143741000Y-75792000D01*
G75*
G02*
X143666000Y-75717000I0J75000D01*
G01*
G37*
G36*
G01*
X143166000Y-75717000D02*
X143166000Y-74317000D01*
G75*
G02*
X143241000Y-74242000I75000J0D01*
G01*
X143391000Y-74242000D01*
G75*
G02*
X143466000Y-74317000I0J-75000D01*
G01*
X143466000Y-75717000D01*
G75*
G02*
X143391000Y-75792000I-75000J0D01*
G01*
X143241000Y-75792000D01*
G75*
G02*
X143166000Y-75717000I0J75000D01*
G01*
G37*
G36*
G01*
X140616000Y-73167000D02*
X140616000Y-73017000D01*
G75*
G02*
X140691000Y-72942000I75000J0D01*
G01*
X142091000Y-72942000D01*
G75*
G02*
X142166000Y-73017000I0J-75000D01*
G01*
X142166000Y-73167000D01*
G75*
G02*
X142091000Y-73242000I-75000J0D01*
G01*
X140691000Y-73242000D01*
G75*
G02*
X140616000Y-73167000I0J75000D01*
G01*
G37*
G36*
G01*
X140616000Y-72667000D02*
X140616000Y-72517000D01*
G75*
G02*
X140691000Y-72442000I75000J0D01*
G01*
X142091000Y-72442000D01*
G75*
G02*
X142166000Y-72517000I0J-75000D01*
G01*
X142166000Y-72667000D01*
G75*
G02*
X142091000Y-72742000I-75000J0D01*
G01*
X140691000Y-72742000D01*
G75*
G02*
X140616000Y-72667000I0J75000D01*
G01*
G37*
G36*
G01*
X140616000Y-72167000D02*
X140616000Y-72017000D01*
G75*
G02*
X140691000Y-71942000I75000J0D01*
G01*
X142091000Y-71942000D01*
G75*
G02*
X142166000Y-72017000I0J-75000D01*
G01*
X142166000Y-72167000D01*
G75*
G02*
X142091000Y-72242000I-75000J0D01*
G01*
X140691000Y-72242000D01*
G75*
G02*
X140616000Y-72167000I0J75000D01*
G01*
G37*
G36*
G01*
X140616000Y-71667000D02*
X140616000Y-71517000D01*
G75*
G02*
X140691000Y-71442000I75000J0D01*
G01*
X142091000Y-71442000D01*
G75*
G02*
X142166000Y-71517000I0J-75000D01*
G01*
X142166000Y-71667000D01*
G75*
G02*
X142091000Y-71742000I-75000J0D01*
G01*
X140691000Y-71742000D01*
G75*
G02*
X140616000Y-71667000I0J75000D01*
G01*
G37*
G36*
G01*
X140616000Y-71167000D02*
X140616000Y-71017000D01*
G75*
G02*
X140691000Y-70942000I75000J0D01*
G01*
X142091000Y-70942000D01*
G75*
G02*
X142166000Y-71017000I0J-75000D01*
G01*
X142166000Y-71167000D01*
G75*
G02*
X142091000Y-71242000I-75000J0D01*
G01*
X140691000Y-71242000D01*
G75*
G02*
X140616000Y-71167000I0J75000D01*
G01*
G37*
G36*
G01*
X140616000Y-70667000D02*
X140616000Y-70517000D01*
G75*
G02*
X140691000Y-70442000I75000J0D01*
G01*
X142091000Y-70442000D01*
G75*
G02*
X142166000Y-70517000I0J-75000D01*
G01*
X142166000Y-70667000D01*
G75*
G02*
X142091000Y-70742000I-75000J0D01*
G01*
X140691000Y-70742000D01*
G75*
G02*
X140616000Y-70667000I0J75000D01*
G01*
G37*
G36*
G01*
X140616000Y-70167000D02*
X140616000Y-70017000D01*
G75*
G02*
X140691000Y-69942000I75000J0D01*
G01*
X142091000Y-69942000D01*
G75*
G02*
X142166000Y-70017000I0J-75000D01*
G01*
X142166000Y-70167000D01*
G75*
G02*
X142091000Y-70242000I-75000J0D01*
G01*
X140691000Y-70242000D01*
G75*
G02*
X140616000Y-70167000I0J75000D01*
G01*
G37*
G36*
G01*
X140616000Y-69667000D02*
X140616000Y-69517000D01*
G75*
G02*
X140691000Y-69442000I75000J0D01*
G01*
X142091000Y-69442000D01*
G75*
G02*
X142166000Y-69517000I0J-75000D01*
G01*
X142166000Y-69667000D01*
G75*
G02*
X142091000Y-69742000I-75000J0D01*
G01*
X140691000Y-69742000D01*
G75*
G02*
X140616000Y-69667000I0J75000D01*
G01*
G37*
G36*
G01*
X140616000Y-69167000D02*
X140616000Y-69017000D01*
G75*
G02*
X140691000Y-68942000I75000J0D01*
G01*
X142091000Y-68942000D01*
G75*
G02*
X142166000Y-69017000I0J-75000D01*
G01*
X142166000Y-69167000D01*
G75*
G02*
X142091000Y-69242000I-75000J0D01*
G01*
X140691000Y-69242000D01*
G75*
G02*
X140616000Y-69167000I0J75000D01*
G01*
G37*
G36*
G01*
X140616000Y-68667000D02*
X140616000Y-68517000D01*
G75*
G02*
X140691000Y-68442000I75000J0D01*
G01*
X142091000Y-68442000D01*
G75*
G02*
X142166000Y-68517000I0J-75000D01*
G01*
X142166000Y-68667000D01*
G75*
G02*
X142091000Y-68742000I-75000J0D01*
G01*
X140691000Y-68742000D01*
G75*
G02*
X140616000Y-68667000I0J75000D01*
G01*
G37*
G36*
G01*
X140616000Y-68167000D02*
X140616000Y-68017000D01*
G75*
G02*
X140691000Y-67942000I75000J0D01*
G01*
X142091000Y-67942000D01*
G75*
G02*
X142166000Y-68017000I0J-75000D01*
G01*
X142166000Y-68167000D01*
G75*
G02*
X142091000Y-68242000I-75000J0D01*
G01*
X140691000Y-68242000D01*
G75*
G02*
X140616000Y-68167000I0J75000D01*
G01*
G37*
G36*
G01*
X140616000Y-67667000D02*
X140616000Y-67517000D01*
G75*
G02*
X140691000Y-67442000I75000J0D01*
G01*
X142091000Y-67442000D01*
G75*
G02*
X142166000Y-67517000I0J-75000D01*
G01*
X142166000Y-67667000D01*
G75*
G02*
X142091000Y-67742000I-75000J0D01*
G01*
X140691000Y-67742000D01*
G75*
G02*
X140616000Y-67667000I0J75000D01*
G01*
G37*
G36*
G01*
X140616000Y-67167000D02*
X140616000Y-67017000D01*
G75*
G02*
X140691000Y-66942000I75000J0D01*
G01*
X142091000Y-66942000D01*
G75*
G02*
X142166000Y-67017000I0J-75000D01*
G01*
X142166000Y-67167000D01*
G75*
G02*
X142091000Y-67242000I-75000J0D01*
G01*
X140691000Y-67242000D01*
G75*
G02*
X140616000Y-67167000I0J75000D01*
G01*
G37*
G36*
G01*
X140616000Y-66667000D02*
X140616000Y-66517000D01*
G75*
G02*
X140691000Y-66442000I75000J0D01*
G01*
X142091000Y-66442000D01*
G75*
G02*
X142166000Y-66517000I0J-75000D01*
G01*
X142166000Y-66667000D01*
G75*
G02*
X142091000Y-66742000I-75000J0D01*
G01*
X140691000Y-66742000D01*
G75*
G02*
X140616000Y-66667000I0J75000D01*
G01*
G37*
G36*
G01*
X140616000Y-66167000D02*
X140616000Y-66017000D01*
G75*
G02*
X140691000Y-65942000I75000J0D01*
G01*
X142091000Y-65942000D01*
G75*
G02*
X142166000Y-66017000I0J-75000D01*
G01*
X142166000Y-66167000D01*
G75*
G02*
X142091000Y-66242000I-75000J0D01*
G01*
X140691000Y-66242000D01*
G75*
G02*
X140616000Y-66167000I0J75000D01*
G01*
G37*
G36*
G01*
X140616000Y-65667000D02*
X140616000Y-65517000D01*
G75*
G02*
X140691000Y-65442000I75000J0D01*
G01*
X142091000Y-65442000D01*
G75*
G02*
X142166000Y-65517000I0J-75000D01*
G01*
X142166000Y-65667000D01*
G75*
G02*
X142091000Y-65742000I-75000J0D01*
G01*
X140691000Y-65742000D01*
G75*
G02*
X140616000Y-65667000I0J75000D01*
G01*
G37*
%TD*%
D14*
%TO.C,SW4*%
X137378000Y-50889000D03*
X132878000Y-50889000D03*
X132878000Y-58839000D03*
X137378000Y-58839000D03*
%TD*%
%TO.C,SW3*%
X144744000Y-50889000D03*
X140244000Y-50889000D03*
X140244000Y-58839000D03*
X144744000Y-58839000D03*
%TD*%
D15*
%TO.C,SW2*%
X158839000Y-75982000D03*
X158839000Y-80482000D03*
X166789000Y-80482000D03*
X166789000Y-75982000D03*
%TD*%
%TO.C,SW1*%
X158839000Y-82840000D03*
X158839000Y-87340000D03*
X166789000Y-87340000D03*
X166789000Y-82840000D03*
%TD*%
%TO.C,R7*%
G36*
G01*
X157168001Y-79086000D02*
X156267999Y-79086000D01*
G75*
G02*
X156018000Y-78836001I0J249999D01*
G01*
X156018000Y-78135999D01*
G75*
G02*
X156267999Y-77886000I249999J0D01*
G01*
X157168001Y-77886000D01*
G75*
G02*
X157418000Y-78135999I0J-249999D01*
G01*
X157418000Y-78836001D01*
G75*
G02*
X157168001Y-79086000I-249999J0D01*
G01*
G37*
G36*
G01*
X157168001Y-81086000D02*
X156267999Y-81086000D01*
G75*
G02*
X156018000Y-80836001I0J249999D01*
G01*
X156018000Y-80135999D01*
G75*
G02*
X156267999Y-79886000I249999J0D01*
G01*
X157168001Y-79886000D01*
G75*
G02*
X157418000Y-80135999I0J-249999D01*
G01*
X157418000Y-80836001D01*
G75*
G02*
X157168001Y-81086000I-249999J0D01*
G01*
G37*
%TD*%
%TO.C,R6*%
G36*
G01*
X156267999Y-86776000D02*
X157168001Y-86776000D01*
G75*
G02*
X157418000Y-87025999I0J-249999D01*
G01*
X157418000Y-87726001D01*
G75*
G02*
X157168001Y-87976000I-249999J0D01*
G01*
X156267999Y-87976000D01*
G75*
G02*
X156018000Y-87726001I0J249999D01*
G01*
X156018000Y-87025999D01*
G75*
G02*
X156267999Y-86776000I249999J0D01*
G01*
G37*
G36*
G01*
X156267999Y-84776000D02*
X157168001Y-84776000D01*
G75*
G02*
X157418000Y-85025999I0J-249999D01*
G01*
X157418000Y-85726001D01*
G75*
G02*
X157168001Y-85976000I-249999J0D01*
G01*
X156267999Y-85976000D01*
G75*
G02*
X156018000Y-85726001I0J249999D01*
G01*
X156018000Y-85025999D01*
G75*
G02*
X156267999Y-84776000I249999J0D01*
G01*
G37*
%TD*%
%TO.C,R5*%
G36*
G01*
X157168001Y-90786000D02*
X156267999Y-90786000D01*
G75*
G02*
X156018000Y-90536001I0J249999D01*
G01*
X156018000Y-89835999D01*
G75*
G02*
X156267999Y-89586000I249999J0D01*
G01*
X157168001Y-89586000D01*
G75*
G02*
X157418000Y-89835999I0J-249999D01*
G01*
X157418000Y-90536001D01*
G75*
G02*
X157168001Y-90786000I-249999J0D01*
G01*
G37*
G36*
G01*
X157168001Y-92786000D02*
X156267999Y-92786000D01*
G75*
G02*
X156018000Y-92536001I0J249999D01*
G01*
X156018000Y-91835999D01*
G75*
G02*
X156267999Y-91586000I249999J0D01*
G01*
X157168001Y-91586000D01*
G75*
G02*
X157418000Y-91835999I0J-249999D01*
G01*
X157418000Y-92536001D01*
G75*
G02*
X157168001Y-92786000I-249999J0D01*
G01*
G37*
%TD*%
%TO.C,R4*%
G36*
G01*
X154882001Y-90770000D02*
X153981999Y-90770000D01*
G75*
G02*
X153732000Y-90520001I0J249999D01*
G01*
X153732000Y-89819999D01*
G75*
G02*
X153981999Y-89570000I249999J0D01*
G01*
X154882001Y-89570000D01*
G75*
G02*
X155132000Y-89819999I0J-249999D01*
G01*
X155132000Y-90520001D01*
G75*
G02*
X154882001Y-90770000I-249999J0D01*
G01*
G37*
G36*
G01*
X154882001Y-92770000D02*
X153981999Y-92770000D01*
G75*
G02*
X153732000Y-92520001I0J249999D01*
G01*
X153732000Y-91819999D01*
G75*
G02*
X153981999Y-91570000I249999J0D01*
G01*
X154882001Y-91570000D01*
G75*
G02*
X155132000Y-91819999I0J-249999D01*
G01*
X155132000Y-92520001D01*
G75*
G02*
X154882001Y-92770000I-249999J0D01*
G01*
G37*
%TD*%
%TO.C,R3*%
G36*
G01*
X152596001Y-90770000D02*
X151695999Y-90770000D01*
G75*
G02*
X151446000Y-90520001I0J249999D01*
G01*
X151446000Y-89819999D01*
G75*
G02*
X151695999Y-89570000I249999J0D01*
G01*
X152596001Y-89570000D01*
G75*
G02*
X152846000Y-89819999I0J-249999D01*
G01*
X152846000Y-90520001D01*
G75*
G02*
X152596001Y-90770000I-249999J0D01*
G01*
G37*
G36*
G01*
X152596001Y-92770000D02*
X151695999Y-92770000D01*
G75*
G02*
X151446000Y-92520001I0J249999D01*
G01*
X151446000Y-91819999D01*
G75*
G02*
X151695999Y-91570000I249999J0D01*
G01*
X152596001Y-91570000D01*
G75*
G02*
X152846000Y-91819999I0J-249999D01*
G01*
X152846000Y-92520001D01*
G75*
G02*
X152596001Y-92770000I-249999J0D01*
G01*
G37*
%TD*%
%TO.C,R2*%
G36*
G01*
X150310001Y-90770000D02*
X149409999Y-90770000D01*
G75*
G02*
X149160000Y-90520001I0J249999D01*
G01*
X149160000Y-89819999D01*
G75*
G02*
X149409999Y-89570000I249999J0D01*
G01*
X150310001Y-89570000D01*
G75*
G02*
X150560000Y-89819999I0J-249999D01*
G01*
X150560000Y-90520001D01*
G75*
G02*
X150310001Y-90770000I-249999J0D01*
G01*
G37*
G36*
G01*
X150310001Y-92770000D02*
X149409999Y-92770000D01*
G75*
G02*
X149160000Y-92520001I0J249999D01*
G01*
X149160000Y-91819999D01*
G75*
G02*
X149409999Y-91570000I249999J0D01*
G01*
X150310001Y-91570000D01*
G75*
G02*
X150560000Y-91819999I0J-249999D01*
G01*
X150560000Y-92520001D01*
G75*
G02*
X150310001Y-92770000I-249999J0D01*
G01*
G37*
%TD*%
%TO.C,R1*%
G36*
G01*
X148024001Y-90802000D02*
X147123999Y-90802000D01*
G75*
G02*
X146874000Y-90552001I0J249999D01*
G01*
X146874000Y-89851999D01*
G75*
G02*
X147123999Y-89602000I249999J0D01*
G01*
X148024001Y-89602000D01*
G75*
G02*
X148274000Y-89851999I0J-249999D01*
G01*
X148274000Y-90552001D01*
G75*
G02*
X148024001Y-90802000I-249999J0D01*
G01*
G37*
G36*
G01*
X148024001Y-92802000D02*
X147123999Y-92802000D01*
G75*
G02*
X146874000Y-92552001I0J249999D01*
G01*
X146874000Y-91851999D01*
G75*
G02*
X147123999Y-91602000I249999J0D01*
G01*
X148024001Y-91602000D01*
G75*
G02*
X148274000Y-91851999I0J-249999D01*
G01*
X148274000Y-92552001D01*
G75*
G02*
X148024001Y-92802000I-249999J0D01*
G01*
G37*
%TD*%
D10*
%TO.C,J9*%
X138430000Y-84074000D03*
X138430000Y-81534000D03*
X138430000Y-78994000D03*
D11*
X138430000Y-76454000D03*
%TD*%
D16*
%TO.C,J2*%
X123246000Y-50546000D03*
G36*
G01*
X127646000Y-48996000D02*
X127646000Y-52096000D01*
G75*
G02*
X127396000Y-52346000I-250000J0D01*
G01*
X126096000Y-52346000D01*
G75*
G02*
X125846000Y-52096000I0J250000D01*
G01*
X125846000Y-48996000D01*
G75*
G02*
X126096000Y-48746000I250000J0D01*
G01*
X127396000Y-48746000D01*
G75*
G02*
X127646000Y-48996000I0J-250000D01*
G01*
G37*
%TD*%
D10*
%TO.C,J1*%
X149352000Y-51054000D03*
X149352000Y-53594000D03*
X149352000Y-56134000D03*
D11*
X149352000Y-58674000D03*
%TD*%
D17*
%TO.C,H4*%
X103886000Y-101600000D03*
%TD*%
%TO.C,H1*%
X189775000Y-101600000D03*
%TD*%
%TO.C,D5*%
G36*
G01*
X157168001Y-94800000D02*
X156267999Y-94800000D01*
G75*
G02*
X156018000Y-94550001I0J249999D01*
G01*
X156018000Y-93899999D01*
G75*
G02*
X156267999Y-93650000I249999J0D01*
G01*
X157168001Y-93650000D01*
G75*
G02*
X157418000Y-93899999I0J-249999D01*
G01*
X157418000Y-94550001D01*
G75*
G02*
X157168001Y-94800000I-249999J0D01*
G01*
G37*
G36*
G01*
X157168001Y-96850000D02*
X156267999Y-96850000D01*
G75*
G02*
X156018000Y-96600001I0J249999D01*
G01*
X156018000Y-95949999D01*
G75*
G02*
X156267999Y-95700000I249999J0D01*
G01*
X157168001Y-95700000D01*
G75*
G02*
X157418000Y-95949999I0J-249999D01*
G01*
X157418000Y-96600001D01*
G75*
G02*
X157168001Y-96850000I-249999J0D01*
G01*
G37*
%TD*%
%TO.C,D4*%
G36*
G01*
X154882001Y-94809000D02*
X153981999Y-94809000D01*
G75*
G02*
X153732000Y-94559001I0J249999D01*
G01*
X153732000Y-93908999D01*
G75*
G02*
X153981999Y-93659000I249999J0D01*
G01*
X154882001Y-93659000D01*
G75*
G02*
X155132000Y-93908999I0J-249999D01*
G01*
X155132000Y-94559001D01*
G75*
G02*
X154882001Y-94809000I-249999J0D01*
G01*
G37*
G36*
G01*
X154882001Y-96859000D02*
X153981999Y-96859000D01*
G75*
G02*
X153732000Y-96609001I0J249999D01*
G01*
X153732000Y-95958999D01*
G75*
G02*
X153981999Y-95709000I249999J0D01*
G01*
X154882001Y-95709000D01*
G75*
G02*
X155132000Y-95958999I0J-249999D01*
G01*
X155132000Y-96609001D01*
G75*
G02*
X154882001Y-96859000I-249999J0D01*
G01*
G37*
%TD*%
%TO.C,D3*%
G36*
G01*
X152596001Y-94809000D02*
X151695999Y-94809000D01*
G75*
G02*
X151446000Y-94559001I0J249999D01*
G01*
X151446000Y-93908999D01*
G75*
G02*
X151695999Y-93659000I249999J0D01*
G01*
X152596001Y-93659000D01*
G75*
G02*
X152846000Y-93908999I0J-249999D01*
G01*
X152846000Y-94559001D01*
G75*
G02*
X152596001Y-94809000I-249999J0D01*
G01*
G37*
G36*
G01*
X152596001Y-96859000D02*
X151695999Y-96859000D01*
G75*
G02*
X151446000Y-96609001I0J249999D01*
G01*
X151446000Y-95958999D01*
G75*
G02*
X151695999Y-95709000I249999J0D01*
G01*
X152596001Y-95709000D01*
G75*
G02*
X152846000Y-95958999I0J-249999D01*
G01*
X152846000Y-96609001D01*
G75*
G02*
X152596001Y-96859000I-249999J0D01*
G01*
G37*
%TD*%
%TO.C,D2*%
G36*
G01*
X150310001Y-94809000D02*
X149409999Y-94809000D01*
G75*
G02*
X149160000Y-94559001I0J249999D01*
G01*
X149160000Y-93908999D01*
G75*
G02*
X149409999Y-93659000I249999J0D01*
G01*
X150310001Y-93659000D01*
G75*
G02*
X150560000Y-93908999I0J-249999D01*
G01*
X150560000Y-94559001D01*
G75*
G02*
X150310001Y-94809000I-249999J0D01*
G01*
G37*
G36*
G01*
X150310001Y-96859000D02*
X149409999Y-96859000D01*
G75*
G02*
X149160000Y-96609001I0J249999D01*
G01*
X149160000Y-95958999D01*
G75*
G02*
X149409999Y-95709000I249999J0D01*
G01*
X150310001Y-95709000D01*
G75*
G02*
X150560000Y-95958999I0J-249999D01*
G01*
X150560000Y-96609001D01*
G75*
G02*
X150310001Y-96859000I-249999J0D01*
G01*
G37*
%TD*%
%TO.C,D1*%
G36*
G01*
X148024001Y-94791000D02*
X147123999Y-94791000D01*
G75*
G02*
X146874000Y-94541001I0J249999D01*
G01*
X146874000Y-93890999D01*
G75*
G02*
X147123999Y-93641000I249999J0D01*
G01*
X148024001Y-93641000D01*
G75*
G02*
X148274000Y-93890999I0J-249999D01*
G01*
X148274000Y-94541001D01*
G75*
G02*
X148024001Y-94791000I-249999J0D01*
G01*
G37*
G36*
G01*
X148024001Y-96841000D02*
X147123999Y-96841000D01*
G75*
G02*
X146874000Y-96591001I0J249999D01*
G01*
X146874000Y-95940999D01*
G75*
G02*
X147123999Y-95691000I249999J0D01*
G01*
X148024001Y-95691000D01*
G75*
G02*
X148274000Y-95940999I0J-249999D01*
G01*
X148274000Y-96591001D01*
G75*
G02*
X148024001Y-96841000I-249999J0D01*
G01*
G37*
%TD*%
%TO.C,C32*%
G36*
G01*
X153241500Y-78011000D02*
X153241500Y-78961000D01*
G75*
G02*
X152991500Y-79211000I-250000J0D01*
G01*
X152316500Y-79211000D01*
G75*
G02*
X152066500Y-78961000I0J250000D01*
G01*
X152066500Y-78011000D01*
G75*
G02*
X152316500Y-77761000I250000J0D01*
G01*
X152991500Y-77761000D01*
G75*
G02*
X153241500Y-78011000I0J-250000D01*
G01*
G37*
G36*
G01*
X155316500Y-78011000D02*
X155316500Y-78961000D01*
G75*
G02*
X155066500Y-79211000I-250000J0D01*
G01*
X154391500Y-79211000D01*
G75*
G02*
X154141500Y-78961000I0J250000D01*
G01*
X154141500Y-78011000D01*
G75*
G02*
X154391500Y-77761000I250000J0D01*
G01*
X155066500Y-77761000D01*
G75*
G02*
X155316500Y-78011000I0J-250000D01*
G01*
G37*
%TD*%
%TO.C,C27*%
G36*
G01*
X152990500Y-76216500D02*
X152990500Y-76691500D01*
G75*
G02*
X152753000Y-76929000I-237500J0D01*
G01*
X152153000Y-76929000D01*
G75*
G02*
X151915500Y-76691500I0J237500D01*
G01*
X151915500Y-76216500D01*
G75*
G02*
X152153000Y-75979000I237500J0D01*
G01*
X152753000Y-75979000D01*
G75*
G02*
X152990500Y-76216500I0J-237500D01*
G01*
G37*
G36*
G01*
X154715500Y-76216500D02*
X154715500Y-76691500D01*
G75*
G02*
X154478000Y-76929000I-237500J0D01*
G01*
X153878000Y-76929000D01*
G75*
G02*
X153640500Y-76691500I0J237500D01*
G01*
X153640500Y-76216500D01*
G75*
G02*
X153878000Y-75979000I237500J0D01*
G01*
X154478000Y-75979000D01*
G75*
G02*
X154715500Y-76216500I0J-237500D01*
G01*
G37*
%TD*%
%TO.C,C26*%
G36*
G01*
X143592500Y-76978500D02*
X143592500Y-77453500D01*
G75*
G02*
X143355000Y-77691000I-237500J0D01*
G01*
X142755000Y-77691000D01*
G75*
G02*
X142517500Y-77453500I0J237500D01*
G01*
X142517500Y-76978500D01*
G75*
G02*
X142755000Y-76741000I237500J0D01*
G01*
X143355000Y-76741000D01*
G75*
G02*
X143592500Y-76978500I0J-237500D01*
G01*
G37*
G36*
G01*
X145317500Y-76978500D02*
X145317500Y-77453500D01*
G75*
G02*
X145080000Y-77691000I-237500J0D01*
G01*
X144480000Y-77691000D01*
G75*
G02*
X144242500Y-77453500I0J237500D01*
G01*
X144242500Y-76978500D01*
G75*
G02*
X144480000Y-76741000I237500J0D01*
G01*
X145080000Y-76741000D01*
G75*
G02*
X145317500Y-76978500I0J-237500D01*
G01*
G37*
%TD*%
%TO.C,C25*%
G36*
G01*
X139429500Y-63783500D02*
X138954500Y-63783500D01*
G75*
G02*
X138717000Y-63546000I0J237500D01*
G01*
X138717000Y-62946000D01*
G75*
G02*
X138954500Y-62708500I237500J0D01*
G01*
X139429500Y-62708500D01*
G75*
G02*
X139667000Y-62946000I0J-237500D01*
G01*
X139667000Y-63546000D01*
G75*
G02*
X139429500Y-63783500I-237500J0D01*
G01*
G37*
G36*
G01*
X139429500Y-65508500D02*
X138954500Y-65508500D01*
G75*
G02*
X138717000Y-65271000I0J237500D01*
G01*
X138717000Y-64671000D01*
G75*
G02*
X138954500Y-64433500I237500J0D01*
G01*
X139429500Y-64433500D01*
G75*
G02*
X139667000Y-64671000I0J-237500D01*
G01*
X139667000Y-65271000D01*
G75*
G02*
X139429500Y-65508500I-237500J0D01*
G01*
G37*
%TD*%
%TO.C,C24*%
G36*
G01*
X140732500Y-62301000D02*
X141207500Y-62301000D01*
G75*
G02*
X141445000Y-62538500I0J-237500D01*
G01*
X141445000Y-63138500D01*
G75*
G02*
X141207500Y-63376000I-237500J0D01*
G01*
X140732500Y-63376000D01*
G75*
G02*
X140495000Y-63138500I0J237500D01*
G01*
X140495000Y-62538500D01*
G75*
G02*
X140732500Y-62301000I237500J0D01*
G01*
G37*
G36*
G01*
X140732500Y-60576000D02*
X141207500Y-60576000D01*
G75*
G02*
X141445000Y-60813500I0J-237500D01*
G01*
X141445000Y-61413500D01*
G75*
G02*
X141207500Y-61651000I-237500J0D01*
G01*
X140732500Y-61651000D01*
G75*
G02*
X140495000Y-61413500I0J237500D01*
G01*
X140495000Y-60813500D01*
G75*
G02*
X140732500Y-60576000I237500J0D01*
G01*
G37*
%TD*%
%TO.C,C7*%
G36*
G01*
X126958000Y-58962000D02*
X128058000Y-58962000D01*
G75*
G02*
X128308000Y-59212000I0J-250000D01*
G01*
X128308000Y-62212000D01*
G75*
G02*
X128058000Y-62462000I-250000J0D01*
G01*
X126958000Y-62462000D01*
G75*
G02*
X126708000Y-62212000I0J250000D01*
G01*
X126708000Y-59212000D01*
G75*
G02*
X126958000Y-58962000I250000J0D01*
G01*
G37*
G36*
G01*
X126958000Y-53362000D02*
X128058000Y-53362000D01*
G75*
G02*
X128308000Y-53612000I0J-250000D01*
G01*
X128308000Y-56612000D01*
G75*
G02*
X128058000Y-56862000I-250000J0D01*
G01*
X126958000Y-56862000D01*
G75*
G02*
X126708000Y-56612000I0J250000D01*
G01*
X126708000Y-53612000D01*
G75*
G02*
X126958000Y-53362000I250000J0D01*
G01*
G37*
%TD*%
%TO.C,C6*%
G36*
G01*
X130082000Y-97832000D02*
X130082000Y-96732000D01*
G75*
G02*
X130332000Y-96482000I250000J0D01*
G01*
X133332000Y-96482000D01*
G75*
G02*
X133582000Y-96732000I0J-250000D01*
G01*
X133582000Y-97832000D01*
G75*
G02*
X133332000Y-98082000I-250000J0D01*
G01*
X130332000Y-98082000D01*
G75*
G02*
X130082000Y-97832000I0J250000D01*
G01*
G37*
G36*
G01*
X124482000Y-97832000D02*
X124482000Y-96732000D01*
G75*
G02*
X124732000Y-96482000I250000J0D01*
G01*
X127732000Y-96482000D01*
G75*
G02*
X127982000Y-96732000I0J-250000D01*
G01*
X127982000Y-97832000D01*
G75*
G02*
X127732000Y-98082000I-250000J0D01*
G01*
X124732000Y-98082000D01*
G75*
G02*
X124482000Y-97832000I0J250000D01*
G01*
G37*
%TD*%
%TO.C,C5*%
G36*
G01*
X140496000Y-97832000D02*
X140496000Y-96732000D01*
G75*
G02*
X140746000Y-96482000I250000J0D01*
G01*
X143746000Y-96482000D01*
G75*
G02*
X143996000Y-96732000I0J-250000D01*
G01*
X143996000Y-97832000D01*
G75*
G02*
X143746000Y-98082000I-250000J0D01*
G01*
X140746000Y-98082000D01*
G75*
G02*
X140496000Y-97832000I0J250000D01*
G01*
G37*
G36*
G01*
X134896000Y-97832000D02*
X134896000Y-96732000D01*
G75*
G02*
X135146000Y-96482000I250000J0D01*
G01*
X138146000Y-96482000D01*
G75*
G02*
X138396000Y-96732000I0J-250000D01*
G01*
X138396000Y-97832000D01*
G75*
G02*
X138146000Y-98082000I-250000J0D01*
G01*
X135146000Y-98082000D01*
G75*
G02*
X134896000Y-97832000I0J250000D01*
G01*
G37*
%TD*%
%TO.C,C4*%
G36*
G01*
X130082000Y-90466000D02*
X130082000Y-89366000D01*
G75*
G02*
X130332000Y-89116000I250000J0D01*
G01*
X133332000Y-89116000D01*
G75*
G02*
X133582000Y-89366000I0J-250000D01*
G01*
X133582000Y-90466000D01*
G75*
G02*
X133332000Y-90716000I-250000J0D01*
G01*
X130332000Y-90716000D01*
G75*
G02*
X130082000Y-90466000I0J250000D01*
G01*
G37*
G36*
G01*
X124482000Y-90466000D02*
X124482000Y-89366000D01*
G75*
G02*
X124732000Y-89116000I250000J0D01*
G01*
X127732000Y-89116000D01*
G75*
G02*
X127982000Y-89366000I0J-250000D01*
G01*
X127982000Y-90466000D01*
G75*
G02*
X127732000Y-90716000I-250000J0D01*
G01*
X124732000Y-90716000D01*
G75*
G02*
X124482000Y-90466000I0J250000D01*
G01*
G37*
%TD*%
%TO.C,C3*%
G36*
G01*
X140496000Y-90466000D02*
X140496000Y-89366000D01*
G75*
G02*
X140746000Y-89116000I250000J0D01*
G01*
X143746000Y-89116000D01*
G75*
G02*
X143996000Y-89366000I0J-250000D01*
G01*
X143996000Y-90466000D01*
G75*
G02*
X143746000Y-90716000I-250000J0D01*
G01*
X140746000Y-90716000D01*
G75*
G02*
X140496000Y-90466000I0J250000D01*
G01*
G37*
G36*
G01*
X134896000Y-90466000D02*
X134896000Y-89366000D01*
G75*
G02*
X135146000Y-89116000I250000J0D01*
G01*
X138146000Y-89116000D01*
G75*
G02*
X138396000Y-89366000I0J-250000D01*
G01*
X138396000Y-90466000D01*
G75*
G02*
X138146000Y-90716000I-250000J0D01*
G01*
X135146000Y-90716000D01*
G75*
G02*
X134896000Y-90466000I0J250000D01*
G01*
G37*
%TD*%
D18*
%TO.C,U5*%
X109120800Y-117169999D03*
X109120800Y-116370001D03*
X109120800Y-115570000D03*
X109120800Y-114769999D03*
X109120800Y-113970001D03*
D19*
X110236000Y-113969800D03*
D18*
X111351200Y-113970001D03*
X111351200Y-114769999D03*
X111351200Y-115570000D03*
X111351200Y-116370001D03*
X111351200Y-117169999D03*
D19*
X110236000Y-117170200D03*
%TD*%
D18*
%TO.C,U4*%
X181510800Y-117169999D03*
X181510800Y-116370001D03*
X181510800Y-115570000D03*
X181510800Y-114769999D03*
X181510800Y-113970001D03*
D19*
X182626000Y-113969800D03*
D18*
X183741200Y-113970001D03*
X183741200Y-114769999D03*
X183741200Y-115570000D03*
X183741200Y-116370001D03*
X183741200Y-117169999D03*
D19*
X182626000Y-117170200D03*
%TD*%
D18*
%TO.C,U3*%
X145950800Y-117169999D03*
X145950800Y-116370001D03*
X145950800Y-115570000D03*
X145950800Y-114769999D03*
X145950800Y-113970001D03*
D19*
X147066000Y-113969800D03*
D18*
X148181200Y-113970001D03*
X148181200Y-114769999D03*
X148181200Y-115570000D03*
X148181200Y-116370001D03*
X148181200Y-117169999D03*
D19*
X147066000Y-117170200D03*
%TD*%
D17*
%TO.C,H3*%
X163576000Y-120650000D03*
%TD*%
%TO.C,C13*%
G36*
G01*
X179357000Y-120570500D02*
X180307000Y-120570500D01*
G75*
G02*
X180557000Y-120820500I0J-250000D01*
G01*
X180557000Y-121495500D01*
G75*
G02*
X180307000Y-121745500I-250000J0D01*
G01*
X179357000Y-121745500D01*
G75*
G02*
X179107000Y-121495500I0J250000D01*
G01*
X179107000Y-120820500D01*
G75*
G02*
X179357000Y-120570500I250000J0D01*
G01*
G37*
G36*
G01*
X179357000Y-118495500D02*
X180307000Y-118495500D01*
G75*
G02*
X180557000Y-118745500I0J-250000D01*
G01*
X180557000Y-119420500D01*
G75*
G02*
X180307000Y-119670500I-250000J0D01*
G01*
X179357000Y-119670500D01*
G75*
G02*
X179107000Y-119420500I0J250000D01*
G01*
X179107000Y-118745500D01*
G75*
G02*
X179357000Y-118495500I250000J0D01*
G01*
G37*
%TD*%
%TO.C,C11*%
G36*
G01*
X181626500Y-118996000D02*
X182101500Y-118996000D01*
G75*
G02*
X182339000Y-119233500I0J-237500D01*
G01*
X182339000Y-119833500D01*
G75*
G02*
X182101500Y-120071000I-237500J0D01*
G01*
X181626500Y-120071000D01*
G75*
G02*
X181389000Y-119833500I0J237500D01*
G01*
X181389000Y-119233500D01*
G75*
G02*
X181626500Y-118996000I237500J0D01*
G01*
G37*
G36*
G01*
X181626500Y-120721000D02*
X182101500Y-120721000D01*
G75*
G02*
X182339000Y-120958500I0J-237500D01*
G01*
X182339000Y-121558500D01*
G75*
G02*
X182101500Y-121796000I-237500J0D01*
G01*
X181626500Y-121796000D01*
G75*
G02*
X181389000Y-121558500I0J237500D01*
G01*
X181389000Y-120958500D01*
G75*
G02*
X181626500Y-120721000I237500J0D01*
G01*
G37*
%TD*%
%TO.C,R15*%
G36*
G01*
X176724000Y-114496001D02*
X176724000Y-113595999D01*
G75*
G02*
X176973999Y-113346000I249999J0D01*
G01*
X177674001Y-113346000D01*
G75*
G02*
X177924000Y-113595999I0J-249999D01*
G01*
X177924000Y-114496001D01*
G75*
G02*
X177674001Y-114746000I-249999J0D01*
G01*
X176973999Y-114746000D01*
G75*
G02*
X176724000Y-114496001I0J249999D01*
G01*
G37*
G36*
G01*
X178724000Y-114496001D02*
X178724000Y-113595999D01*
G75*
G02*
X178973999Y-113346000I249999J0D01*
G01*
X179674001Y-113346000D01*
G75*
G02*
X179924000Y-113595999I0J-249999D01*
G01*
X179924000Y-114496001D01*
G75*
G02*
X179674001Y-114746000I-249999J0D01*
G01*
X178973999Y-114746000D01*
G75*
G02*
X178724000Y-114496001I0J249999D01*
G01*
G37*
%TD*%
%TO.C,C9*%
G36*
G01*
X147908000Y-120694500D02*
X148383000Y-120694500D01*
G75*
G02*
X148620500Y-120932000I0J-237500D01*
G01*
X148620500Y-121532000D01*
G75*
G02*
X148383000Y-121769500I-237500J0D01*
G01*
X147908000Y-121769500D01*
G75*
G02*
X147670500Y-121532000I0J237500D01*
G01*
X147670500Y-120932000D01*
G75*
G02*
X147908000Y-120694500I237500J0D01*
G01*
G37*
G36*
G01*
X147908000Y-118969500D02*
X148383000Y-118969500D01*
G75*
G02*
X148620500Y-119207000I0J-237500D01*
G01*
X148620500Y-119807000D01*
G75*
G02*
X148383000Y-120044500I-237500J0D01*
G01*
X147908000Y-120044500D01*
G75*
G02*
X147670500Y-119807000I0J237500D01*
G01*
X147670500Y-119207000D01*
G75*
G02*
X147908000Y-118969500I237500J0D01*
G01*
G37*
%TD*%
%TO.C,C15*%
G36*
G01*
X109236500Y-120747500D02*
X109711500Y-120747500D01*
G75*
G02*
X109949000Y-120985000I0J-237500D01*
G01*
X109949000Y-121585000D01*
G75*
G02*
X109711500Y-121822500I-237500J0D01*
G01*
X109236500Y-121822500D01*
G75*
G02*
X108999000Y-121585000I0J237500D01*
G01*
X108999000Y-120985000D01*
G75*
G02*
X109236500Y-120747500I237500J0D01*
G01*
G37*
G36*
G01*
X109236500Y-119022500D02*
X109711500Y-119022500D01*
G75*
G02*
X109949000Y-119260000I0J-237500D01*
G01*
X109949000Y-119860000D01*
G75*
G02*
X109711500Y-120097500I-237500J0D01*
G01*
X109236500Y-120097500D01*
G75*
G02*
X108999000Y-119860000I0J237500D01*
G01*
X108999000Y-119260000D01*
G75*
G02*
X109236500Y-119022500I237500J0D01*
G01*
G37*
%TD*%
%TO.C,C16*%
G36*
G01*
X112809000Y-120570500D02*
X113759000Y-120570500D01*
G75*
G02*
X114009000Y-120820500I0J-250000D01*
G01*
X114009000Y-121495500D01*
G75*
G02*
X113759000Y-121745500I-250000J0D01*
G01*
X112809000Y-121745500D01*
G75*
G02*
X112559000Y-121495500I0J250000D01*
G01*
X112559000Y-120820500D01*
G75*
G02*
X112809000Y-120570500I250000J0D01*
G01*
G37*
G36*
G01*
X112809000Y-118495500D02*
X113759000Y-118495500D01*
G75*
G02*
X114009000Y-118745500I0J-250000D01*
G01*
X114009000Y-119420500D01*
G75*
G02*
X113759000Y-119670500I-250000J0D01*
G01*
X112809000Y-119670500D01*
G75*
G02*
X112559000Y-119420500I0J250000D01*
G01*
X112559000Y-118745500D01*
G75*
G02*
X112809000Y-118495500I250000J0D01*
G01*
G37*
%TD*%
%TO.C,R12*%
G36*
G01*
X150968000Y-113595999D02*
X150968000Y-114496001D01*
G75*
G02*
X150718001Y-114746000I-249999J0D01*
G01*
X150017999Y-114746000D01*
G75*
G02*
X149768000Y-114496001I0J249999D01*
G01*
X149768000Y-113595999D01*
G75*
G02*
X150017999Y-113346000I249999J0D01*
G01*
X150718001Y-113346000D01*
G75*
G02*
X150968000Y-113595999I0J-249999D01*
G01*
G37*
G36*
G01*
X152968000Y-113595999D02*
X152968000Y-114496001D01*
G75*
G02*
X152718001Y-114746000I-249999J0D01*
G01*
X152017999Y-114746000D01*
G75*
G02*
X151768000Y-114496001I0J249999D01*
G01*
X151768000Y-113595999D01*
G75*
G02*
X152017999Y-113346000I249999J0D01*
G01*
X152718001Y-113346000D01*
G75*
G02*
X152968000Y-113595999I0J-249999D01*
G01*
G37*
%TD*%
%TO.C,R14*%
G36*
G01*
X188528000Y-113595999D02*
X188528000Y-114496001D01*
G75*
G02*
X188278001Y-114746000I-249999J0D01*
G01*
X187577999Y-114746000D01*
G75*
G02*
X187328000Y-114496001I0J249999D01*
G01*
X187328000Y-113595999D01*
G75*
G02*
X187577999Y-113346000I249999J0D01*
G01*
X188278001Y-113346000D01*
G75*
G02*
X188528000Y-113595999I0J-249999D01*
G01*
G37*
G36*
G01*
X186528000Y-113595999D02*
X186528000Y-114496001D01*
G75*
G02*
X186278001Y-114746000I-249999J0D01*
G01*
X185577999Y-114746000D01*
G75*
G02*
X185328000Y-114496001I0J249999D01*
G01*
X185328000Y-113595999D01*
G75*
G02*
X185577999Y-113346000I249999J0D01*
G01*
X186278001Y-113346000D01*
G75*
G02*
X186528000Y-113595999I0J-249999D01*
G01*
G37*
%TD*%
%TO.C,H2*%
X103886000Y-120650000D03*
%TD*%
%TO.C,R13*%
G36*
G01*
X143164000Y-114496001D02*
X143164000Y-113595999D01*
G75*
G02*
X143413999Y-113346000I249999J0D01*
G01*
X144114001Y-113346000D01*
G75*
G02*
X144364000Y-113595999I0J-249999D01*
G01*
X144364000Y-114496001D01*
G75*
G02*
X144114001Y-114746000I-249999J0D01*
G01*
X143413999Y-114746000D01*
G75*
G02*
X143164000Y-114496001I0J249999D01*
G01*
G37*
G36*
G01*
X141164000Y-114496001D02*
X141164000Y-113595999D01*
G75*
G02*
X141413999Y-113346000I249999J0D01*
G01*
X142114001Y-113346000D01*
G75*
G02*
X142364000Y-113595999I0J-249999D01*
G01*
X142364000Y-114496001D01*
G75*
G02*
X142114001Y-114746000I-249999J0D01*
G01*
X141413999Y-114746000D01*
G75*
G02*
X141164000Y-114496001I0J249999D01*
G01*
G37*
%TD*%
%TO.C,H5*%
X189775000Y-120650000D03*
%TD*%
%TO.C,R17*%
G36*
G01*
X106334000Y-114496001D02*
X106334000Y-113595999D01*
G75*
G02*
X106583999Y-113346000I249999J0D01*
G01*
X107284001Y-113346000D01*
G75*
G02*
X107534000Y-113595999I0J-249999D01*
G01*
X107534000Y-114496001D01*
G75*
G02*
X107284001Y-114746000I-249999J0D01*
G01*
X106583999Y-114746000D01*
G75*
G02*
X106334000Y-114496001I0J249999D01*
G01*
G37*
G36*
G01*
X104334000Y-114496001D02*
X104334000Y-113595999D01*
G75*
G02*
X104583999Y-113346000I249999J0D01*
G01*
X105284001Y-113346000D01*
G75*
G02*
X105534000Y-113595999I0J-249999D01*
G01*
X105534000Y-114496001D01*
G75*
G02*
X105284001Y-114746000I-249999J0D01*
G01*
X104583999Y-114746000D01*
G75*
G02*
X104334000Y-114496001I0J249999D01*
G01*
G37*
%TD*%
%TO.C,R16*%
G36*
G01*
X114138000Y-113595999D02*
X114138000Y-114496001D01*
G75*
G02*
X113888001Y-114746000I-249999J0D01*
G01*
X113187999Y-114746000D01*
G75*
G02*
X112938000Y-114496001I0J249999D01*
G01*
X112938000Y-113595999D01*
G75*
G02*
X113187999Y-113346000I249999J0D01*
G01*
X113888001Y-113346000D01*
G75*
G02*
X114138000Y-113595999I0J-249999D01*
G01*
G37*
G36*
G01*
X116138000Y-113595999D02*
X116138000Y-114496001D01*
G75*
G02*
X115888001Y-114746000I-249999J0D01*
G01*
X115187999Y-114746000D01*
G75*
G02*
X114938000Y-114496001I0J249999D01*
G01*
X114938000Y-113595999D01*
G75*
G02*
X115187999Y-113346000I249999J0D01*
G01*
X115888001Y-113346000D01*
G75*
G02*
X116138000Y-113595999I0J-249999D01*
G01*
G37*
%TD*%
%TO.C,C14*%
G36*
G01*
X111014500Y-120721000D02*
X111489500Y-120721000D01*
G75*
G02*
X111727000Y-120958500I0J-237500D01*
G01*
X111727000Y-121558500D01*
G75*
G02*
X111489500Y-121796000I-237500J0D01*
G01*
X111014500Y-121796000D01*
G75*
G02*
X110777000Y-121558500I0J237500D01*
G01*
X110777000Y-120958500D01*
G75*
G02*
X111014500Y-120721000I237500J0D01*
G01*
G37*
G36*
G01*
X111014500Y-118996000D02*
X111489500Y-118996000D01*
G75*
G02*
X111727000Y-119233500I0J-237500D01*
G01*
X111727000Y-119833500D01*
G75*
G02*
X111489500Y-120071000I-237500J0D01*
G01*
X111014500Y-120071000D01*
G75*
G02*
X110777000Y-119833500I0J237500D01*
G01*
X110777000Y-119233500D01*
G75*
G02*
X111014500Y-118996000I237500J0D01*
G01*
G37*
%TD*%
%TO.C,C8*%
G36*
G01*
X146066500Y-120721000D02*
X146541500Y-120721000D01*
G75*
G02*
X146779000Y-120958500I0J-237500D01*
G01*
X146779000Y-121558500D01*
G75*
G02*
X146541500Y-121796000I-237500J0D01*
G01*
X146066500Y-121796000D01*
G75*
G02*
X145829000Y-121558500I0J237500D01*
G01*
X145829000Y-120958500D01*
G75*
G02*
X146066500Y-120721000I237500J0D01*
G01*
G37*
G36*
G01*
X146066500Y-118996000D02*
X146541500Y-118996000D01*
G75*
G02*
X146779000Y-119233500I0J-237500D01*
G01*
X146779000Y-119833500D01*
G75*
G02*
X146541500Y-120071000I-237500J0D01*
G01*
X146066500Y-120071000D01*
G75*
G02*
X145829000Y-119833500I0J237500D01*
G01*
X145829000Y-119233500D01*
G75*
G02*
X146066500Y-118996000I237500J0D01*
G01*
G37*
%TD*%
%TO.C,H6*%
X129286000Y-120650000D03*
%TD*%
%TO.C,C12*%
G36*
G01*
X183404500Y-120721000D02*
X183879500Y-120721000D01*
G75*
G02*
X184117000Y-120958500I0J-237500D01*
G01*
X184117000Y-121558500D01*
G75*
G02*
X183879500Y-121796000I-237500J0D01*
G01*
X183404500Y-121796000D01*
G75*
G02*
X183167000Y-121558500I0J237500D01*
G01*
X183167000Y-120958500D01*
G75*
G02*
X183404500Y-120721000I237500J0D01*
G01*
G37*
G36*
G01*
X183404500Y-118996000D02*
X183879500Y-118996000D01*
G75*
G02*
X184117000Y-119233500I0J-237500D01*
G01*
X184117000Y-119833500D01*
G75*
G02*
X183879500Y-120071000I-237500J0D01*
G01*
X183404500Y-120071000D01*
G75*
G02*
X183167000Y-119833500I0J237500D01*
G01*
X183167000Y-119233500D01*
G75*
G02*
X183404500Y-118996000I237500J0D01*
G01*
G37*
%TD*%
D10*
%TO.C,J6*%
X170180000Y-72898000D03*
X170180000Y-75438000D03*
X170180000Y-77978000D03*
X170180000Y-80518000D03*
X170180000Y-83058000D03*
X170180000Y-85598000D03*
X170180000Y-88138000D03*
D11*
X170180000Y-90678000D03*
%TD*%
D10*
%TO.C,J5*%
X170180000Y-45974000D03*
X170180000Y-48514000D03*
X170180000Y-51054000D03*
X170180000Y-53594000D03*
X170180000Y-56134000D03*
X170180000Y-58674000D03*
X170180000Y-61214000D03*
X170180000Y-63754000D03*
X170180000Y-66294000D03*
D11*
X170180000Y-68834000D03*
%TD*%
D10*
%TO.C,J4*%
X121920000Y-90678000D03*
X121920000Y-88138000D03*
X121920000Y-85598000D03*
X121920000Y-83058000D03*
X121920000Y-80518000D03*
D11*
X121920000Y-77978000D03*
%TD*%
D10*
%TO.C,J3*%
X121920000Y-72898000D03*
X121920000Y-70358000D03*
X121920000Y-67818000D03*
X121920000Y-65278000D03*
X121920000Y-62738000D03*
X121920000Y-60198000D03*
X121920000Y-57658000D03*
D11*
X121920000Y-55118000D03*
%TD*%
M02*
