%TF.GenerationSoftware,KiCad,Pcbnew,(6.0.2)*%
%TF.CreationDate,2022-03-21T08:33:36+01:00*%
%TF.ProjectId,GestureControl,47657374-7572-4654-936f-6e74726f6c2e,V0.21*%
%TF.SameCoordinates,Original*%
%TF.FileFunction,Copper,L4,Bot*%
%TF.FilePolarity,Positive*%
%FSLAX46Y46*%
G04 Gerber Fmt 4.6, Leading zero omitted, Abs format (unit mm)*
G04 Created by KiCad (PCBNEW (6.0.2)) date 2022-03-21 08:33:36*
%MOMM*%
%LPD*%
G01*
G04 APERTURE LIST*
G04 Aperture macros list*
%AMRoundRect*
0 Rectangle with rounded corners*
0 $1 Rounding radius*
0 $2 $3 $4 $5 $6 $7 $8 $9 X,Y pos of 4 corners*
0 Add a 4 corners polygon primitive as box body*
4,1,4,$2,$3,$4,$5,$6,$7,$8,$9,$2,$3,0*
0 Add four circle primitives for the rounded corners*
1,1,$1+$1,$2,$3*
1,1,$1+$1,$4,$5*
1,1,$1+$1,$6,$7*
1,1,$1+$1,$8,$9*
0 Add four rect primitives between the rounded corners*
20,1,$1+$1,$2,$3,$4,$5,0*
20,1,$1+$1,$4,$5,$6,$7,0*
20,1,$1+$1,$6,$7,$8,$9,0*
20,1,$1+$1,$8,$9,$2,$3,0*%
%AMFreePoly0*
4,1,22,0.550000,-0.750000,0.000000,-0.750000,0.000000,-0.745033,-0.079941,-0.743568,-0.215256,-0.701293,-0.333266,-0.622738,-0.424486,-0.514219,-0.481581,-0.384460,-0.499164,-0.250000,-0.500000,-0.250000,-0.500000,0.250000,-0.499164,0.250000,-0.499963,0.256109,-0.478152,0.396186,-0.417904,0.524511,-0.324060,0.630769,-0.204165,0.706417,-0.067858,0.745374,0.000000,0.744959,0.000000,0.750000,
0.550000,0.750000,0.550000,-0.750000,0.550000,-0.750000,$1*%
%AMFreePoly1*
4,1,20,0.000000,0.744959,0.073905,0.744508,0.209726,0.703889,0.328688,0.626782,0.421226,0.519385,0.479903,0.390333,0.500000,0.250000,0.500000,-0.250000,0.499851,-0.262216,0.476331,-0.402017,0.414519,-0.529596,0.319384,-0.634700,0.198574,-0.708877,0.061801,-0.746166,0.000000,-0.745033,0.000000,-0.750000,-0.550000,-0.750000,-0.550000,0.750000,0.000000,0.750000,0.000000,0.744959,
0.000000,0.744959,$1*%
G04 Aperture macros list end*
%TA.AperFunction,ComponentPad*%
%ADD10R,1.700000X1.700000*%
%TD*%
%TA.AperFunction,ComponentPad*%
%ADD11O,1.700000X1.700000*%
%TD*%
%TA.AperFunction,ComponentPad*%
%ADD12RoundRect,0.250000X-1.550000X0.650000X-1.550000X-0.650000X1.550000X-0.650000X1.550000X0.650000X0*%
%TD*%
%TA.AperFunction,ComponentPad*%
%ADD13O,3.600000X1.800000*%
%TD*%
%TA.AperFunction,SMDPad,CuDef*%
%ADD14RoundRect,0.237500X-0.300000X-0.237500X0.300000X-0.237500X0.300000X0.237500X-0.300000X0.237500X0*%
%TD*%
%TA.AperFunction,SMDPad,CuDef*%
%ADD15RoundRect,0.250000X-0.337500X-0.475000X0.337500X-0.475000X0.337500X0.475000X-0.337500X0.475000X0*%
%TD*%
%TA.AperFunction,SMDPad,CuDef*%
%ADD16RoundRect,0.250000X0.337500X0.475000X-0.337500X0.475000X-0.337500X-0.475000X0.337500X-0.475000X0*%
%TD*%
%TA.AperFunction,SMDPad,CuDef*%
%ADD17R,1.500000X1.500000*%
%TD*%
%TA.AperFunction,SMDPad,CuDef*%
%ADD18FreePoly0,90.000000*%
%TD*%
%TA.AperFunction,SMDPad,CuDef*%
%ADD19R,1.500000X1.000000*%
%TD*%
%TA.AperFunction,SMDPad,CuDef*%
%ADD20FreePoly1,90.000000*%
%TD*%
%TA.AperFunction,SMDPad,CuDef*%
%ADD21RoundRect,0.249999X0.350001X0.450001X-0.350001X0.450001X-0.350001X-0.450001X0.350001X-0.450001X0*%
%TD*%
%TA.AperFunction,SMDPad,CuDef*%
%ADD22RoundRect,0.249999X-0.350001X-0.450001X0.350001X-0.450001X0.350001X0.450001X-0.350001X0.450001X0*%
%TD*%
%TA.AperFunction,SMDPad,CuDef*%
%ADD23R,1.000000X1.000000*%
%TD*%
%TA.AperFunction,SMDPad,CuDef*%
%ADD24RoundRect,0.237500X0.237500X-0.300000X0.237500X0.300000X-0.237500X0.300000X-0.237500X-0.300000X0*%
%TD*%
%TA.AperFunction,SMDPad,CuDef*%
%ADD25RoundRect,0.250000X-0.475000X0.337500X-0.475000X-0.337500X0.475000X-0.337500X0.475000X0.337500X0*%
%TD*%
%TA.AperFunction,SMDPad,CuDef*%
%ADD26RoundRect,0.250000X0.475000X-0.337500X0.475000X0.337500X-0.475000X0.337500X-0.475000X-0.337500X0*%
%TD*%
%TA.AperFunction,SMDPad,CuDef*%
%ADD27RoundRect,0.249999X0.650001X-0.412501X0.650001X0.412501X-0.650001X0.412501X-0.650001X-0.412501X0*%
%TD*%
%TA.AperFunction,SMDPad,CuDef*%
%ADD28RoundRect,0.249999X-0.650001X0.412501X-0.650001X-0.412501X0.650001X-0.412501X0.650001X0.412501X0*%
%TD*%
%TA.AperFunction,SMDPad,CuDef*%
%ADD29RoundRect,0.249999X-0.450001X0.350001X-0.450001X-0.350001X0.450001X-0.350001X0.450001X0.350001X0*%
%TD*%
%TA.AperFunction,SMDPad,CuDef*%
%ADD30RoundRect,0.249999X0.450001X-0.350001X0.450001X0.350001X-0.450001X0.350001X-0.450001X-0.350001X0*%
%TD*%
%TA.AperFunction,SMDPad,CuDef*%
%ADD31R,1.500000X3.000000*%
%TD*%
%TA.AperFunction,SMDPad,CuDef*%
%ADD32C,2.000000*%
%TD*%
%TA.AperFunction,SMDPad,CuDef*%
%ADD33RoundRect,0.250000X-0.650000X0.412500X-0.650000X-0.412500X0.650000X-0.412500X0.650000X0.412500X0*%
%TD*%
%TA.AperFunction,SMDPad,CuDef*%
%ADD34RoundRect,0.250000X-0.450000X0.350000X-0.450000X-0.350000X0.450000X-0.350000X0.450000X0.350000X0*%
%TD*%
%TA.AperFunction,SMDPad,CuDef*%
%ADD35RoundRect,0.250000X0.450000X-0.350000X0.450000X0.350000X-0.450000X0.350000X-0.450000X-0.350000X0*%
%TD*%
%TA.AperFunction,ViaPad*%
%ADD36C,0.800000*%
%TD*%
%TA.AperFunction,Conductor*%
%ADD37C,0.250000*%
%TD*%
%TA.AperFunction,Conductor*%
%ADD38C,0.500000*%
%TD*%
%TA.AperFunction,Conductor*%
%ADD39C,1.000000*%
%TD*%
%TA.AperFunction,Conductor*%
%ADD40C,0.200000*%
%TD*%
G04 APERTURE END LIST*
D10*
%TO.P,J3,1,Pin_1*%
%TO.N,unconnected-(J3-Pad1)*%
X45974000Y-123952000D03*
D11*
%TO.P,J3,2,Pin_2*%
%TO.N,unconnected-(J3-Pad2)*%
X48514000Y-123952000D03*
%TO.P,J3,3,Pin_3*%
%TO.N,unconnected-(J3-Pad3)*%
X51054000Y-123952000D03*
%TO.P,J3,4,Pin_4*%
%TO.N,+3V3*%
X53594000Y-123952000D03*
%TO.P,J3,5,Pin_5*%
%TO.N,+5V*%
X56134000Y-123952000D03*
%TO.P,J3,6,Pin_6*%
%TO.N,GND*%
X58674000Y-123952000D03*
%TO.P,J3,7,Pin_7*%
X61214000Y-123952000D03*
%TO.P,J3,8,Pin_8*%
%TO.N,XSHUT_0*%
X63754000Y-123952000D03*
%TD*%
D10*
%TO.P,J4,1,Pin_1*%
%TO.N,XSHUT_1*%
X68834000Y-123952000D03*
D11*
%TO.P,J4,2,Pin_2*%
%TO.N,XSHUT_2*%
X71374000Y-123952000D03*
%TO.P,J4,3,Pin_3*%
%TO.N,XSHUT_3*%
X73914000Y-123952000D03*
%TO.P,J4,4,Pin_4*%
%TO.N,XSHUT_4*%
X76454000Y-123952000D03*
%TO.P,J4,5,Pin_5*%
%TO.N,SW_1*%
X78994000Y-123952000D03*
%TO.P,J4,6,Pin_6*%
%TO.N,SW_2*%
X81534000Y-123952000D03*
%TD*%
D10*
%TO.P,J5,1,Pin_1*%
%TO.N,unconnected-(J5-Pad1)*%
X59690000Y-75692000D03*
D11*
%TO.P,J5,2,Pin_2*%
%TO.N,GPIOI_0*%
X57150000Y-75692000D03*
%TO.P,J5,3,Pin_3*%
%TO.N,GPIOI_1*%
X54610000Y-75692000D03*
%TO.P,J5,4,Pin_4*%
%TO.N,GPIOI_2*%
X52070000Y-75692000D03*
%TO.P,J5,5,Pin_5*%
%TO.N,GPIOI_3*%
X49530000Y-75692000D03*
%TO.P,J5,6,Pin_6*%
%TO.N,GPIOI_4*%
X46990000Y-75692000D03*
%TO.P,J5,7,Pin_7*%
%TO.N,GND*%
X44450000Y-75692000D03*
%TO.P,J5,8,Pin_8*%
%TO.N,+3V3*%
X41910000Y-75692000D03*
%TO.P,J5,9,Pin_9*%
%TO.N,SDA1*%
X39370000Y-75692000D03*
%TO.P,J5,10,Pin_10*%
%TO.N,SCL1*%
X36830000Y-75692000D03*
%TD*%
D10*
%TO.P,J1,1,Pin_1*%
%TO.N,GND*%
X50165000Y-96514490D03*
D11*
%TO.P,J1,2,Pin_2*%
%TO.N,+5V*%
X47625000Y-96514490D03*
%TO.P,J1,3,Pin_3*%
%TO.N,SDA1*%
X45085000Y-96514490D03*
%TO.P,J1,4,Pin_4*%
%TO.N,SCL1*%
X42545000Y-96514490D03*
%TD*%
D12*
%TO.P,J2,1,Pin_1*%
%TO.N,GND*%
X28448000Y-97282000D03*
D13*
%TO.P,J2,2,Pin_2*%
%TO.N,Net-(D6-Pad2)*%
X28448000Y-100782000D03*
%TD*%
D10*
%TO.P,J7,1,Pin_1*%
%TO.N,GND*%
X55245000Y-88894490D03*
D11*
%TO.P,J7,2,Pin_2*%
%TO.N,/STM32L151RET6TR/FTDI_CTS*%
X52705000Y-88894490D03*
%TO.P,J7,3,Pin_3*%
%TO.N,+5V*%
X50165000Y-88894490D03*
%TO.P,J7,4,Pin_4*%
%TO.N,/STM32L151RET6TR/FTDI_TXD*%
X47625000Y-88894490D03*
%TO.P,J7,5,Pin_5*%
%TO.N,/STM32L151RET6TR/FTDI_RXD*%
X45085000Y-88894490D03*
%TO.P,J7,6,Pin_6*%
%TO.N,/STM32L151RET6TR/FTDI_RTS*%
X42545000Y-88894490D03*
%TD*%
D10*
%TO.P,J10,1,Pin_1*%
%TO.N,GND*%
X57277000Y-79248000D03*
D11*
%TO.P,J10,2,Pin_2*%
%TO.N,+3V3*%
X54737000Y-79248000D03*
%TO.P,J10,3,Pin_3*%
%TO.N,SDA2*%
X52197000Y-79248000D03*
%TO.P,J10,4,Pin_4*%
%TO.N,SCL2*%
X49657000Y-79248000D03*
%TD*%
D10*
%TO.P,J9,1,Pin_1*%
%TO.N,GND*%
X76321490Y-106674490D03*
D11*
%TO.P,J9,2,Pin_2*%
%TO.N,+3V3*%
X76321490Y-104134490D03*
%TO.P,J9,3,Pin_3*%
%TO.N,/STM32L151RET6TR/UART_TX*%
X76321490Y-101594490D03*
%TO.P,J9,4,Pin_4*%
%TO.N,/STM32L151RET6TR/UART_RX*%
X76321490Y-99054490D03*
%TD*%
D10*
%TO.P,J6,1,Pin_1*%
%TO.N,unconnected-(J6-Pad1)*%
X81534000Y-75692000D03*
D11*
%TO.P,J6,2,Pin_2*%
%TO.N,unconnected-(J6-Pad2)*%
X78994000Y-75692000D03*
%TO.P,J6,3,Pin_3*%
%TO.N,LED_4*%
X76454000Y-75692000D03*
%TO.P,J6,4,Pin_4*%
%TO.N,LED_3*%
X73914000Y-75692000D03*
%TO.P,J6,5,Pin_5*%
%TO.N,LED_2*%
X71374000Y-75692000D03*
%TO.P,J6,6,Pin_6*%
%TO.N,LED_1*%
X68834000Y-75692000D03*
%TO.P,J6,7,Pin_7*%
%TO.N,LED_0*%
X66294000Y-75692000D03*
%TO.P,J6,8,Pin_8*%
%TO.N,unconnected-(J6-Pad8)*%
X63754000Y-75692000D03*
%TD*%
D10*
%TO.P,J8,1,Pin_1*%
%TO.N,+3V3*%
X55239490Y-92704490D03*
D11*
%TO.P,J8,2,Pin_2*%
%TO.N,/STM32L151RET6TR/SWCLK*%
X52699490Y-92704490D03*
%TO.P,J8,3,Pin_3*%
%TO.N,GND*%
X50159490Y-92704490D03*
%TO.P,J8,4,Pin_4*%
%TO.N,/STM32L151RET6TR/SWDAT*%
X47619490Y-92704490D03*
%TO.P,J8,5,Pin_5*%
%TO.N,/STM32L151RET6TR/RST*%
X45079490Y-92704490D03*
%TO.P,J8,6,Pin_6*%
%TO.N,/STM32L151RET6TR/SW0*%
X42539490Y-92704490D03*
%TD*%
D10*
%TO.P,J11,1,Pin_1*%
%TO.N,GND*%
X42539490Y-104134490D03*
D11*
%TO.P,J11,2,Pin_2*%
%TO.N,/STM32L151RET6TR/RST*%
X45079490Y-104134490D03*
%TD*%
D10*
%TO.P,J12,1,Pin_1*%
%TO.N,+3V3*%
X42539490Y-100324490D03*
D11*
%TO.P,J12,2,Pin_2*%
%TO.N,/STM32L151RET6TR/BOOT*%
X45079490Y-100324490D03*
%TD*%
D14*
%TO.P,C28,1*%
%TO.N,+3V3*%
X66976490Y-102610490D03*
%TO.P,C28,2*%
%TO.N,GND*%
X68701490Y-102610490D03*
%TD*%
D15*
%TO.P,C30,1*%
%TO.N,+3V3*%
X66923490Y-100578490D03*
%TO.P,C30,2*%
%TO.N,GND*%
X68998490Y-100578490D03*
%TD*%
D14*
%TO.P,C31,1*%
%TO.N,+3V3*%
X61589490Y-100832490D03*
%TO.P,C31,2*%
%TO.N,GND*%
X63314490Y-100832490D03*
%TD*%
D16*
%TO.P,C33,1*%
%TO.N,+3V3*%
X65045500Y-99060000D03*
%TO.P,C33,2*%
%TO.N,GND*%
X62970500Y-99060000D03*
%TD*%
D17*
%TO.P,J17,1,Pin_1*%
%TO.N,/STM32L151RET6TR/PC8*%
X51937490Y-81528490D03*
%TD*%
%TO.P,J18,1,Pin_1*%
%TO.N,/STM32L151RET6TR/PA9*%
X44317490Y-81528490D03*
%TD*%
%TO.P,J19,1,Pin_1*%
%TO.N,/STM32L151RET6TR/PA10*%
X41777490Y-81528490D03*
%TD*%
D18*
%TO.P,JP3,1,A*%
%TO.N,+3V3*%
X66421000Y-96804000D03*
D19*
%TO.P,JP3,2,C*%
%TO.N,/STM32L151RET6TR/PIN30*%
X66421000Y-95504000D03*
D20*
%TO.P,JP3,3,B*%
%TO.N,SDA2*%
X66421000Y-94204000D03*
%TD*%
D21*
%TO.P,R21,1*%
%TO.N,+3V3*%
X51397490Y-85084490D03*
%TO.P,R21,2*%
%TO.N,SDA2*%
X49397490Y-85084490D03*
%TD*%
D22*
%TO.P,R22,1*%
%TO.N,+3V3*%
X44857490Y-85084490D03*
%TO.P,R22,2*%
%TO.N,SCL2*%
X46857490Y-85084490D03*
%TD*%
D23*
%TO.P,TP1,1,1*%
%TO.N,SDA2*%
X49397490Y-81528490D03*
%TD*%
%TO.P,TP2,1,1*%
%TO.N,SCL2*%
X46857490Y-81528490D03*
%TD*%
D18*
%TO.P,JP2,1,A*%
%TO.N,/STM32L151RET6TR/PIN29*%
X63627000Y-96804000D03*
D19*
%TO.P,JP2,2,C*%
%TO.N,SCL2*%
X63627000Y-95504000D03*
D20*
%TO.P,JP2,3,B*%
%TO.N,/STM32L151RET6TR/PIN41*%
X63627000Y-94204000D03*
%TD*%
D14*
%TO.P,C23,1*%
%TO.N,+3V3*%
X61589490Y-102610490D03*
%TO.P,C23,2*%
%TO.N,GND*%
X63314490Y-102610490D03*
%TD*%
D16*
%TO.P,C11,1*%
%TO.N,+3V3*%
X73570490Y-104134490D03*
%TO.P,C11,2*%
%TO.N,GND*%
X71495490Y-104134490D03*
%TD*%
D24*
%TO.P,C14,1*%
%TO.N,+3V3*%
X177292000Y-100176500D03*
%TO.P,C14,2*%
%TO.N,GND*%
X177292000Y-98451500D03*
%TD*%
%TO.P,C15,1*%
%TO.N,+3V3*%
X215392000Y-100150000D03*
%TO.P,C15,2*%
%TO.N,GND*%
X215392000Y-98425000D03*
%TD*%
%TO.P,C16,1*%
%TO.N,+3V3*%
X103378000Y-99695000D03*
%TO.P,C16,2*%
%TO.N,GND*%
X103378000Y-97970000D03*
%TD*%
%TO.P,C20,1*%
%TO.N,+3V3*%
X181991000Y-100176500D03*
%TO.P,C20,2*%
%TO.N,GND*%
X181991000Y-98451500D03*
%TD*%
%TO.P,C21,1*%
%TO.N,+3V3*%
X219964000Y-100176500D03*
%TO.P,C21,2*%
%TO.N,GND*%
X219964000Y-98451500D03*
%TD*%
%TO.P,C35,1*%
%TO.N,+3V3*%
X105156000Y-99695000D03*
%TO.P,C35,2*%
%TO.N,GND*%
X105156000Y-97970000D03*
%TD*%
D25*
%TO.P,C36,1*%
%TO.N,+3V3*%
X169926000Y-96393000D03*
%TO.P,C36,2*%
%TO.N,GND*%
X169926000Y-98468000D03*
%TD*%
%TO.P,C37,1*%
%TO.N,+3V3*%
X207899000Y-96481500D03*
%TO.P,C37,2*%
%TO.N,GND*%
X207899000Y-98556500D03*
%TD*%
D26*
%TO.P,C38,1*%
%TO.N,+3V3*%
X101346000Y-99738000D03*
%TO.P,C38,2*%
%TO.N,GND*%
X101346000Y-97663000D03*
%TD*%
D27*
%TO.P,C39,1*%
%TO.N,+3V3*%
X98806000Y-99772000D03*
%TO.P,C39,2*%
%TO.N,GND*%
X98806000Y-96647000D03*
%TD*%
D28*
%TO.P,C40,1*%
%TO.N,+3V3*%
X130810000Y-95592500D03*
%TO.P,C40,2*%
%TO.N,GND*%
X130810000Y-98717500D03*
%TD*%
%TO.P,C41,1*%
%TO.N,+3V3*%
X167386000Y-95808000D03*
%TO.P,C41,2*%
%TO.N,GND*%
X167386000Y-98933000D03*
%TD*%
%TO.P,C42,1*%
%TO.N,+3V3*%
X205486000Y-95973500D03*
%TO.P,C42,2*%
%TO.N,GND*%
X205486000Y-99098500D03*
%TD*%
D29*
%TO.P,R13,1*%
%TO.N,+3V3*%
X180721000Y-93107000D03*
%TO.P,R13,2*%
%TO.N,GPIOI_2*%
X180721000Y-95107000D03*
%TD*%
%TO.P,R16,1*%
%TO.N,+3V3*%
X178435000Y-93107000D03*
%TO.P,R16,2*%
%TO.N,XSHUT_2*%
X178435000Y-95107000D03*
%TD*%
%TO.P,R17,1*%
%TO.N,+3V3*%
X218567000Y-93107000D03*
%TO.P,R17,2*%
%TO.N,GPIOI_3*%
X218567000Y-95107000D03*
%TD*%
%TO.P,R30,1*%
%TO.N,+3V3*%
X216408000Y-93139000D03*
%TO.P,R30,2*%
%TO.N,XSHUT_3*%
X216408000Y-95139000D03*
%TD*%
D30*
%TO.P,R31,1*%
%TO.N,+3V3*%
X109474000Y-99695000D03*
%TO.P,R31,2*%
%TO.N,GPIOI_0*%
X109474000Y-97695000D03*
%TD*%
%TO.P,R32,1*%
%TO.N,+3V3*%
X107188000Y-99679000D03*
%TO.P,R32,2*%
%TO.N,XSHUT_0*%
X107188000Y-97679000D03*
%TD*%
D24*
%TO.P,C8,1*%
%TO.N,+3V3*%
X144399000Y-100176500D03*
%TO.P,C8,2*%
%TO.N,GND*%
X144399000Y-98451500D03*
%TD*%
%TO.P,C9,1*%
%TO.N,+3V3*%
X139827000Y-100176500D03*
%TO.P,C9,2*%
%TO.N,GND*%
X139827000Y-98451500D03*
%TD*%
D25*
%TO.P,C10,1*%
%TO.N,+3V3*%
X133223000Y-96117500D03*
%TO.P,C10,2*%
%TO.N,GND*%
X133223000Y-98192500D03*
%TD*%
D26*
%TO.P,C12,1*%
%TO.N,+3V3*%
X117856000Y-93769000D03*
%TO.P,C12,2*%
%TO.N,GND*%
X117856000Y-91694000D03*
%TD*%
D29*
%TO.P,R12,1*%
%TO.N,+3V3*%
X141986000Y-93107000D03*
%TO.P,R12,2*%
%TO.N,GPIOI_1*%
X141986000Y-95107000D03*
%TD*%
%TO.P,R29,1*%
%TO.N,+3V3*%
X139700000Y-93123000D03*
%TO.P,R29,2*%
%TO.N,XSHUT_1*%
X139700000Y-95123000D03*
%TD*%
D31*
%TO.P,J14,1*%
%TO.N,GND*%
X185293000Y-102906000D03*
%TO.P,J14,2*%
%TO.N,SDA1*%
X184023000Y-107406000D03*
%TO.P,J14,3*%
%TO.N,GND*%
X182753000Y-102906000D03*
%TO.P,J14,4*%
%TO.N,SCL1*%
X181483000Y-107406000D03*
%TO.P,J14,5*%
%TO.N,GND*%
X180213000Y-102906000D03*
%TO.P,J14,6*%
%TO.N,XSHUT_2*%
X178943000Y-107406000D03*
%TO.P,J14,7*%
%TO.N,GND*%
X177673000Y-102906000D03*
%TO.P,J14,8*%
%TO.N,GPIOI_2*%
X176403000Y-107406000D03*
%TO.P,J14,9*%
%TO.N,+3V3*%
X175133000Y-102906000D03*
%TO.P,J14,10*%
%TO.N,GND*%
X173863000Y-107406000D03*
%TD*%
%TO.P,J15,1*%
%TO.N,GND*%
X223393000Y-102906000D03*
%TO.P,J15,2*%
%TO.N,SDA1*%
X222123000Y-107406000D03*
%TO.P,J15,3*%
%TO.N,GND*%
X220853000Y-102906000D03*
%TO.P,J15,4*%
%TO.N,SCL1*%
X219583000Y-107406000D03*
%TO.P,J15,5*%
%TO.N,GND*%
X218313000Y-102906000D03*
%TO.P,J15,6*%
%TO.N,XSHUT_3*%
X217043000Y-107406000D03*
%TO.P,J15,7*%
%TO.N,GND*%
X215773000Y-102906000D03*
%TO.P,J15,8*%
%TO.N,GPIOI_3*%
X214503000Y-107406000D03*
%TO.P,J15,9*%
%TO.N,+3V3*%
X213233000Y-102906000D03*
%TO.P,J15,10*%
%TO.N,GND*%
X211963000Y-107406000D03*
%TD*%
%TO.P,J16,1*%
%TO.N,GND*%
X109728000Y-79121000D03*
%TO.P,J16,2*%
%TO.N,SDA1*%
X108458000Y-83621000D03*
%TO.P,J16,3*%
%TO.N,GND*%
X107188000Y-79121000D03*
%TO.P,J16,4*%
%TO.N,SCL1*%
X105918000Y-83621000D03*
%TO.P,J16,5*%
%TO.N,GND*%
X104648000Y-79121000D03*
%TO.P,J16,6*%
%TO.N,XSHUT_1*%
X103378000Y-83621000D03*
%TO.P,J16,7*%
%TO.N,GND*%
X102108000Y-79121000D03*
%TO.P,J16,8*%
%TO.N,GPIOI_1*%
X100838000Y-83621000D03*
%TO.P,J16,9*%
%TO.N,+3V3*%
X99568000Y-79121000D03*
%TO.P,J16,10*%
%TO.N,GND*%
X98298000Y-83621000D03*
%TD*%
%TO.P,J20,1*%
%TO.N,GND*%
X109728000Y-88773000D03*
%TO.P,J20,2*%
%TO.N,SDA1*%
X108458000Y-93273000D03*
%TO.P,J20,3*%
%TO.N,GND*%
X107188000Y-88773000D03*
%TO.P,J20,4*%
%TO.N,SCL1*%
X105918000Y-93273000D03*
%TO.P,J20,5*%
%TO.N,GND*%
X104648000Y-88773000D03*
%TO.P,J20,6*%
%TO.N,XSHUT_2*%
X103378000Y-93273000D03*
%TO.P,J20,7*%
%TO.N,GND*%
X102108000Y-88773000D03*
%TO.P,J20,8*%
%TO.N,GPIOI_2*%
X100838000Y-93273000D03*
%TO.P,J20,9*%
%TO.N,+3V3*%
X99568000Y-88773000D03*
%TO.P,J20,10*%
%TO.N,GND*%
X98298000Y-93273000D03*
%TD*%
%TO.P,J21,1*%
%TO.N,GND*%
X109728000Y-104394000D03*
%TO.P,J21,2*%
%TO.N,SDA1*%
X108458000Y-108894000D03*
%TO.P,J21,3*%
%TO.N,GND*%
X107188000Y-104394000D03*
%TO.P,J21,4*%
%TO.N,SCL1*%
X105918000Y-108894000D03*
%TO.P,J21,5*%
%TO.N,GND*%
X104648000Y-104394000D03*
%TO.P,J21,6*%
%TO.N,XSHUT_3*%
X103378000Y-108894000D03*
%TO.P,J21,7*%
%TO.N,GND*%
X102108000Y-104394000D03*
%TO.P,J21,8*%
%TO.N,GPIOI_3*%
X100838000Y-108894000D03*
%TO.P,J21,9*%
%TO.N,+3V3*%
X99568000Y-104394000D03*
%TO.P,J21,10*%
%TO.N,GND*%
X98298000Y-108894000D03*
%TD*%
%TO.P,J13,1*%
%TO.N,GND*%
X147193000Y-102906000D03*
%TO.P,J13,2*%
%TO.N,SDA1*%
X145923000Y-107406000D03*
%TO.P,J13,3*%
%TO.N,GND*%
X144653000Y-102906000D03*
%TO.P,J13,4*%
%TO.N,SCL1*%
X143383000Y-107406000D03*
%TO.P,J13,5*%
%TO.N,GND*%
X142113000Y-102906000D03*
%TO.P,J13,6*%
%TO.N,XSHUT_1*%
X140843000Y-107406000D03*
%TO.P,J13,7*%
%TO.N,GND*%
X139573000Y-102906000D03*
%TO.P,J13,8*%
%TO.N,GPIOI_1*%
X138303000Y-107406000D03*
%TO.P,J13,9*%
%TO.N,+3V3*%
X137033000Y-102906000D03*
%TO.P,J13,10*%
%TO.N,GND*%
X135763000Y-107406000D03*
%TD*%
D32*
%TO.P,TP3,1,1*%
%TO.N,SCL1*%
X146304000Y-112268000D03*
%TD*%
%TO.P,TP4,1,1*%
%TO.N,SDA1*%
X149479000Y-112268000D03*
%TD*%
%TO.P,TP5,1,1*%
%TO.N,XSHUT_1*%
X143129000Y-112268000D03*
%TD*%
%TO.P,TP6,1,1*%
%TO.N,GPIOI_1*%
X139954000Y-112268000D03*
%TD*%
%TO.P,TP7,1,1*%
%TO.N,GND*%
X133604000Y-112268000D03*
%TD*%
%TO.P,TP8,1,1*%
%TO.N,+3V3*%
X136779000Y-112268000D03*
%TD*%
%TO.P,TP9,1,1*%
%TO.N,SCL1*%
X184404000Y-112268000D03*
%TD*%
%TO.P,TP10,1,1*%
%TO.N,SDA1*%
X187579000Y-112268000D03*
%TD*%
%TO.P,TP11,1,1*%
%TO.N,XSHUT_2*%
X181229000Y-112268000D03*
%TD*%
%TO.P,TP12,1,1*%
%TO.N,GPIOI_2*%
X178054000Y-112268000D03*
%TD*%
%TO.P,TP13,1,1*%
%TO.N,GND*%
X171704000Y-112268000D03*
%TD*%
%TO.P,TP15,1,1*%
%TO.N,SCL1*%
X222504000Y-112268000D03*
%TD*%
%TO.P,TP16,1,1*%
%TO.N,SDA1*%
X225679000Y-112268000D03*
%TD*%
%TO.P,TP17,1,1*%
%TO.N,XSHUT_3*%
X219329000Y-112268000D03*
%TD*%
%TO.P,TP18,1,1*%
%TO.N,GPIOI_3*%
X216154000Y-112268000D03*
%TD*%
%TO.P,TP19,1,1*%
%TO.N,GND*%
X209804000Y-112268000D03*
%TD*%
%TO.P,TP20,1,1*%
%TO.N,+3V3*%
X212979000Y-112268000D03*
%TD*%
%TO.P,TP14,1,1*%
%TO.N,+3V3*%
X174879000Y-112268000D03*
%TD*%
%TO.P,TP22,1,1*%
%TO.N,SDA1*%
X263779000Y-112268000D03*
%TD*%
D33*
%TO.P,C45,1*%
%TO.N,+3V3*%
X243586000Y-95973500D03*
%TO.P,C45,2*%
%TO.N,GND*%
X243586000Y-99098500D03*
%TD*%
D34*
%TO.P,R34,1*%
%TO.N,+3V3*%
X254508000Y-93091000D03*
%TO.P,R34,2*%
%TO.N,XSHUT_4*%
X254508000Y-95091000D03*
%TD*%
D32*
%TO.P,TP25,1,1*%
%TO.N,GND*%
X247904000Y-112268000D03*
%TD*%
D24*
%TO.P,C44,1*%
%TO.N,+3V3*%
X253492000Y-100076000D03*
%TO.P,C44,2*%
%TO.N,GND*%
X253492000Y-98351000D03*
%TD*%
D34*
%TO.P,R33,1*%
%TO.N,+3V3*%
X256667000Y-93107000D03*
%TO.P,R33,2*%
%TO.N,GPIOI_4*%
X256667000Y-95107000D03*
%TD*%
D35*
%TO.P,R38,1*%
%TO.N,SCL2*%
X61468000Y-92456000D03*
%TO.P,R38,2*%
X61468000Y-90456000D03*
%TD*%
D34*
%TO.P,R37,1*%
%TO.N,SDA2*%
X66421000Y-90043000D03*
%TO.P,R37,2*%
X66421000Y-92043000D03*
%TD*%
D32*
%TO.P,TP26,1,1*%
%TO.N,+3V3*%
X251079000Y-112268000D03*
%TD*%
%TO.P,TP24,1,1*%
%TO.N,GPIOI_4*%
X254254000Y-112268000D03*
%TD*%
%TO.P,TP23,1,1*%
%TO.N,XSHUT_4*%
X257429000Y-112268000D03*
%TD*%
D31*
%TO.P,J22,1*%
%TO.N,GND*%
X109728000Y-115225000D03*
%TO.P,J22,2*%
%TO.N,SDA1*%
X108458000Y-119725000D03*
%TO.P,J22,3*%
%TO.N,GND*%
X107188000Y-115225000D03*
%TO.P,J22,4*%
%TO.N,SCL1*%
X105918000Y-119725000D03*
%TO.P,J22,5*%
%TO.N,GND*%
X104648000Y-115225000D03*
%TO.P,J22,6*%
%TO.N,XSHUT_4*%
X103378000Y-119725000D03*
%TO.P,J22,7*%
%TO.N,GND*%
X102108000Y-115225000D03*
%TO.P,J22,8*%
%TO.N,GPIOI_4*%
X100838000Y-119725000D03*
%TO.P,J22,9*%
%TO.N,+3V3*%
X99568000Y-115225000D03*
%TO.P,J22,10*%
%TO.N,GND*%
X98298000Y-119725000D03*
%TD*%
D25*
%TO.P,C50,1*%
%TO.N,GND*%
X66421000Y-86063000D03*
%TO.P,C50,2*%
%TO.N,SDA2*%
X66421000Y-88138000D03*
%TD*%
D15*
%TO.P,C51,1*%
%TO.N,GND*%
X59414500Y-87884000D03*
%TO.P,C51,2*%
%TO.N,SCL2*%
X61489500Y-87884000D03*
%TD*%
D32*
%TO.P,TP21,1,1*%
%TO.N,SCL1*%
X260604000Y-112268000D03*
%TD*%
D31*
%TO.P,J23,1*%
%TO.N,GND*%
X261493000Y-103033000D03*
%TO.P,J23,2*%
%TO.N,SDA1*%
X260223000Y-107533000D03*
%TO.P,J23,3*%
%TO.N,GND*%
X258953000Y-103033000D03*
%TO.P,J23,4*%
%TO.N,SCL1*%
X257683000Y-107533000D03*
%TO.P,J23,5*%
%TO.N,GND*%
X256413000Y-103033000D03*
%TO.P,J23,6*%
%TO.N,XSHUT_4*%
X255143000Y-107533000D03*
%TO.P,J23,7*%
%TO.N,GND*%
X253873000Y-103033000D03*
%TO.P,J23,8*%
%TO.N,GPIOI_4*%
X252603000Y-107533000D03*
%TO.P,J23,9*%
%TO.N,+3V3*%
X251333000Y-103033000D03*
%TO.P,J23,10*%
%TO.N,GND*%
X250063000Y-107533000D03*
%TD*%
D24*
%TO.P,C46,1*%
%TO.N,+3V3*%
X258064000Y-100176500D03*
%TO.P,C46,2*%
%TO.N,GND*%
X258064000Y-98451500D03*
%TD*%
D25*
%TO.P,C47,1*%
%TO.N,+3V3*%
X245999000Y-96498500D03*
%TO.P,C47,2*%
%TO.N,GND*%
X245999000Y-98573500D03*
%TD*%
D36*
%TO.N,GND*%
X53848000Y-119380000D03*
X181447000Y-102906000D03*
X62865000Y-89281000D03*
X259334000Y-98425000D03*
X221234000Y-98425000D03*
X201422000Y-91440000D03*
X57912000Y-89408000D03*
X84455000Y-125603000D03*
X151384000Y-109220000D03*
X219547000Y-102906000D03*
X62865000Y-119888000D03*
X22200000Y-111600000D03*
X200152000Y-94742000D03*
X143347000Y-102906000D03*
X74295000Y-120015000D03*
X187452000Y-92329000D03*
X226314000Y-95123000D03*
X120523000Y-106172000D03*
X104648000Y-117348000D03*
X107188000Y-117348000D03*
X239268000Y-90932000D03*
X197104000Y-94742000D03*
X39005000Y-85788500D03*
X197104000Y-106172000D03*
X72390000Y-116840000D03*
X109728000Y-117348000D03*
X234188000Y-103124000D03*
X98298000Y-91186000D03*
X86741000Y-121793000D03*
X137160000Y-92075000D03*
X110363000Y-120142000D03*
X148590000Y-92075000D03*
X105882000Y-79157000D03*
X162814000Y-104140000D03*
X190881000Y-92329000D03*
X112522000Y-121920000D03*
X114173000Y-120269000D03*
X23800000Y-113100000D03*
X57785000Y-117221000D03*
X174117000Y-92202000D03*
X50292000Y-115697000D03*
X124900000Y-92700000D03*
X86741000Y-124841000D03*
X95250000Y-123190000D03*
X239014000Y-98552000D03*
X70358000Y-104398500D03*
X171323000Y-92456000D03*
X190500000Y-108712000D03*
X27051000Y-85725000D03*
X178907000Y-102906000D03*
X234188000Y-90932000D03*
X148590000Y-95250000D03*
X158242000Y-94742000D03*
X257647000Y-102906000D03*
X234188000Y-105918000D03*
X204216000Y-108204000D03*
X110490000Y-123952000D03*
X170180000Y-99822000D03*
X228600000Y-104140000D03*
X117856000Y-90297000D03*
X213487000Y-92202000D03*
X24638000Y-72898000D03*
X102108000Y-117348000D03*
X57785000Y-121666000D03*
X52451000Y-120650000D03*
X200914000Y-97790000D03*
X138609750Y-97982652D03*
X211836000Y-92202000D03*
X206248000Y-106172000D03*
X103342000Y-79157000D03*
X74295000Y-116840000D03*
X20800000Y-111600000D03*
X57785000Y-119888000D03*
X196342000Y-90424000D03*
X48133000Y-83312000D03*
X108422000Y-104466000D03*
X150495000Y-92075000D03*
X57897040Y-84215960D03*
X228092000Y-95123000D03*
X175768000Y-92202000D03*
X195834000Y-91440000D03*
X230632000Y-104140000D03*
X35957000Y-84772500D03*
X162814000Y-101854000D03*
X79629000Y-122174000D03*
X98298000Y-117348000D03*
X171704000Y-98806000D03*
X73500000Y-93800000D03*
X238125000Y-92837000D03*
X124900000Y-90500000D03*
X210058000Y-92202000D03*
X98044000Y-106462000D03*
X91000000Y-83200000D03*
X190881000Y-95123000D03*
X120396000Y-102108000D03*
X22200000Y-113100000D03*
X50546000Y-119126000D03*
X130048000Y-108712000D03*
X119700000Y-98800000D03*
X162814000Y-99568000D03*
X61722000Y-99695000D03*
X108712000Y-124587000D03*
X99060000Y-123190000D03*
X72390000Y-120015000D03*
X104267000Y-123698000D03*
X206248000Y-108204000D03*
X61785500Y-116903500D03*
X234188000Y-96520000D03*
X211836000Y-95250000D03*
X168656000Y-106172000D03*
X29337000Y-90424000D03*
X124968000Y-102108000D03*
X124968000Y-108712000D03*
X105882000Y-104466000D03*
X133350000Y-92075000D03*
X187452000Y-95123000D03*
X108422000Y-79157000D03*
X245364000Y-108712000D03*
X203835000Y-99060000D03*
X162814000Y-94742000D03*
X60256500Y-91313000D03*
X226314000Y-92202000D03*
X134874000Y-98171000D03*
X106299000Y-125857000D03*
X56500000Y-106000000D03*
X205486000Y-100457000D03*
X140843000Y-102870000D03*
X46482000Y-111379000D03*
X52197000Y-99568000D03*
X229743000Y-95123000D03*
X107475506Y-91025494D03*
X215392000Y-97331000D03*
X91440000Y-125095000D03*
X104775000Y-101981000D03*
X124900000Y-98800000D03*
X172339000Y-95123000D03*
X217007000Y-102906000D03*
X158242000Y-90678000D03*
X81534000Y-120142000D03*
X62865000Y-121666000D03*
X47778000Y-103759000D03*
X116332000Y-91694000D03*
X167640000Y-100330000D03*
X211963000Y-109728000D03*
X55626000Y-119888000D03*
X226568000Y-108204000D03*
X162814000Y-92710000D03*
X45720000Y-114173000D03*
X253492000Y-97331000D03*
X204216000Y-104140000D03*
X158242000Y-101854000D03*
X228092000Y-92202000D03*
X200914000Y-104140000D03*
X135763000Y-109601000D03*
X26924000Y-89281000D03*
X234188000Y-98552000D03*
X259080000Y-105156000D03*
X77851000Y-116840000D03*
X228600000Y-108204000D03*
X239014000Y-96520000D03*
X183388000Y-98298000D03*
X158242000Y-106172000D03*
X183987000Y-102906000D03*
X72300000Y-95017034D03*
X210058000Y-95250000D03*
X79883000Y-120142000D03*
X252222000Y-98425000D03*
X28117800Y-90424000D03*
X190500000Y-104140000D03*
X20800000Y-116200000D03*
X60325000Y-86360000D03*
X208280000Y-104140000D03*
X28117800Y-89306400D03*
X60325000Y-119888000D03*
X173736000Y-109982000D03*
X158242000Y-97028000D03*
X135255000Y-95250000D03*
X63436500Y-116903500D03*
X106299000Y-124587000D03*
X127508000Y-108712000D03*
X152400000Y-92075000D03*
X76200000Y-116840000D03*
X23800000Y-116200000D03*
X99060000Y-125095000D03*
X200914000Y-90424000D03*
X52944040Y-84215960D03*
X222087000Y-102906000D03*
X48381490Y-110738490D03*
X39005000Y-86804500D03*
X142113000Y-100076000D03*
X101981000Y-123190000D03*
X31115000Y-74041000D03*
X213487000Y-95250000D03*
X250063000Y-109728000D03*
X97155000Y-96647000D03*
X49784000Y-106934000D03*
X52451000Y-117856000D03*
X130810000Y-97282000D03*
X20800000Y-114600000D03*
X63246000Y-83566000D03*
X103378000Y-101981000D03*
X245999000Y-99822000D03*
X124900000Y-96800000D03*
X168656000Y-104140000D03*
X206248000Y-104140000D03*
X200914000Y-102108000D03*
X135255000Y-92075000D03*
X51435000Y-112268000D03*
X119700000Y-94700000D03*
X217678000Y-96647000D03*
X168656000Y-108712000D03*
X60325000Y-117221000D03*
X64637490Y-102610490D03*
X131699000Y-100203000D03*
X117094000Y-108585000D03*
X28083000Y-85725000D03*
X256540000Y-105156000D03*
X199898000Y-92710000D03*
X33700000Y-114400000D03*
X56261000Y-83566000D03*
X142113000Y-96774000D03*
X62605490Y-117342490D03*
X60071000Y-83439000D03*
X230632000Y-108204000D03*
X158242000Y-104140000D03*
X31115000Y-73025000D03*
X52578000Y-113919000D03*
X74000000Y-91868540D03*
X124900000Y-94700000D03*
X235331000Y-92837000D03*
X95250000Y-125095000D03*
X37000000Y-114400000D03*
X86778500Y-96065789D03*
X127508000Y-106172000D03*
X247396000Y-98552000D03*
X209296000Y-98552000D03*
X179670688Y-96427312D03*
X63754000Y-85090000D03*
X200914000Y-106172000D03*
X21500000Y-118600000D03*
X111760000Y-112903000D03*
X189230000Y-95123000D03*
X102743000Y-125095000D03*
X45593000Y-83312000D03*
X97790000Y-81026000D03*
X119700000Y-90500000D03*
X25654000Y-72898000D03*
X195834000Y-104140000D03*
X22200000Y-116200000D03*
X35957000Y-86804500D03*
X197104000Y-92710000D03*
X23800000Y-111600000D03*
X239522000Y-103124000D03*
X229743000Y-92202000D03*
X145415000Y-98298000D03*
X35957000Y-85788500D03*
X228600000Y-106172000D03*
X162814000Y-97028000D03*
X54864000Y-121666000D03*
X255778000Y-96647000D03*
X195834000Y-100076000D03*
X195834000Y-102108000D03*
X23800000Y-114600000D03*
X130048000Y-106172000D03*
X26924000Y-90424000D03*
X59303490Y-101848490D03*
X175768000Y-98298000D03*
X238125000Y-94615000D03*
X119700000Y-96800000D03*
X152400000Y-95250000D03*
X258064000Y-97282000D03*
X226568000Y-104140000D03*
X46988900Y-115332245D03*
X243586000Y-100457000D03*
X214122000Y-98425000D03*
X238760000Y-105918000D03*
X77724000Y-122174000D03*
X234188000Y-100838000D03*
X72600000Y-90400000D03*
X175768000Y-95123000D03*
X200914000Y-100076000D03*
X165608000Y-98806000D03*
X29146500Y-85725000D03*
X67177490Y-98800490D03*
X39005000Y-84772500D03*
X219964000Y-97282000D03*
X247396000Y-108712000D03*
X60452000Y-89408000D03*
X103342000Y-104466000D03*
X119761000Y-109093000D03*
X32131000Y-74041000D03*
X114300000Y-115951000D03*
X30099000Y-73025000D03*
X162814000Y-106172000D03*
X60325000Y-121666000D03*
X189230000Y-92329000D03*
X20800000Y-113100000D03*
X124968000Y-106172000D03*
X117983000Y-110998000D03*
X158242000Y-92710000D03*
X22200000Y-114600000D03*
X109728000Y-91059000D03*
X70358000Y-81280000D03*
X84455000Y-122555000D03*
X115697000Y-109982000D03*
X174117000Y-95123000D03*
X70612299Y-96087701D03*
X260187000Y-102906000D03*
X119700000Y-92700000D03*
X100917502Y-88773000D03*
X56515000Y-103700000D03*
X109855000Y-121285000D03*
X104561752Y-90819168D03*
X255107000Y-102906000D03*
X101346000Y-96266000D03*
X72462136Y-102815120D03*
X30099000Y-74041000D03*
X111252000Y-115697000D03*
X235331000Y-94615000D03*
X116459000Y-118110000D03*
X151384000Y-103632000D03*
X26670000Y-72898000D03*
X136779000Y-95250000D03*
X55118000Y-116713000D03*
X68707000Y-103632000D03*
X243332000Y-108712000D03*
X162814000Y-90678000D03*
X207899000Y-99822000D03*
X132588000Y-108712000D03*
X239014000Y-100838000D03*
X241935000Y-99060000D03*
X104140000Y-96647000D03*
X49874000Y-109384000D03*
X32131000Y-73025000D03*
X117094000Y-115951000D03*
X150495000Y-95250000D03*
X64643000Y-100838000D03*
X62230000Y-85979000D03*
X20800000Y-117500000D03*
X145887000Y-102906000D03*
X195834000Y-97790000D03*
X142096743Y-98806956D03*
X112649000Y-118110000D03*
X158242000Y-99568000D03*
X117094000Y-112903000D03*
X29337000Y-89281000D03*
X114427000Y-112903000D03*
X208280000Y-108204000D03*
X108712000Y-125857000D03*
X133350000Y-99695000D03*
%TO.N,+3V3*%
X221234000Y-100584000D03*
X97790000Y-79629000D03*
X24600000Y-122800000D03*
X128270000Y-93726000D03*
X242189000Y-93726000D03*
X183134000Y-100203000D03*
X21700000Y-124800000D03*
X145923000Y-100965000D03*
X72500000Y-101100000D03*
X259334000Y-100584000D03*
X138811000Y-100330000D03*
X23100000Y-122800000D03*
X106370700Y-101045298D03*
X57912000Y-90678000D03*
X90818000Y-87018000D03*
X97790000Y-88138000D03*
X202438000Y-93726000D03*
X80033000Y-87033000D03*
X252222000Y-100203000D03*
X70600000Y-90400000D03*
X60452000Y-101727000D03*
X176149000Y-100203000D03*
X97536000Y-116078000D03*
X240538000Y-93726000D03*
X58800000Y-106000000D03*
X97790000Y-89408000D03*
X50673000Y-83312000D03*
X97790000Y-78486000D03*
X101600000Y-101092000D03*
X54737000Y-81915000D03*
X23100000Y-123800000D03*
X65659000Y-100457000D03*
X114554000Y-93091000D03*
X115316000Y-93853000D03*
X98044000Y-104938000D03*
X166878000Y-93726000D03*
X45720000Y-110490000D03*
X21700000Y-121700000D03*
X24600000Y-124800000D03*
X42800000Y-111000000D03*
X65913000Y-102616000D03*
X165354000Y-93726000D03*
X23100000Y-124800000D03*
X21700000Y-122800000D03*
X57800000Y-106000000D03*
X70500000Y-88299488D03*
X129540000Y-93726000D03*
X21700000Y-120700000D03*
X204089000Y-93726000D03*
X21700000Y-123800000D03*
X24600000Y-123800000D03*
X64897000Y-97663000D03*
X214122000Y-100203000D03*
X98044000Y-103922000D03*
X97536000Y-114554000D03*
%TO.N,XSHUT_1*%
X140843000Y-105156000D03*
X103378000Y-85979000D03*
X139700000Y-96393000D03*
X67448327Y-117230437D03*
X67437000Y-121685499D03*
%TO.N,GPIOI_1*%
X137144951Y-98567049D03*
X100838000Y-85979000D03*
X138176000Y-105156000D03*
X62738000Y-77851000D03*
X141097000Y-96393000D03*
%TO.N,XSHUT_2*%
X68195141Y-116566152D03*
X68199000Y-121031000D03*
X103378000Y-91059000D03*
X176911000Y-95123000D03*
X178943000Y-105156000D03*
%TO.N,GPIOI_2*%
X100838000Y-91059000D03*
X94900000Y-86500000D03*
X176403000Y-105156000D03*
X62098134Y-78618839D03*
X180721000Y-96520000D03*
%TO.N,XSHUT_0*%
X91821000Y-103632000D03*
X107188000Y-96139000D03*
X66675000Y-121031000D03*
X66680435Y-116590634D03*
%TO.N,GPIOI_0*%
X81407000Y-102362000D03*
X109474000Y-96139000D03*
X68066490Y-93212490D03*
%TO.N,LED_3*%
X69402503Y-89473508D03*
X78089042Y-93809500D03*
%TO.N,LED_4*%
X69362489Y-88403186D03*
X78099490Y-91434490D03*
%TO.N,LED_1*%
X68890788Y-91635834D03*
X77852679Y-97007978D03*
%TO.N,LED_2*%
X77845490Y-96008501D03*
X69209490Y-90672490D03*
%TO.N,SW_1*%
X87600000Y-88800000D03*
X85581503Y-119888000D03*
X85648800Y-115214400D03*
%TO.N,SW_2*%
X84582000Y-115214400D03*
X72500000Y-88200000D03*
X84582000Y-119888000D03*
%TO.N,+5V*%
X39000000Y-97200000D03*
X22860000Y-75184000D03*
X39000000Y-96000000D03*
X22860000Y-76073000D03*
X39000000Y-98400000D03*
X31920572Y-86054631D03*
X22860000Y-74295000D03*
%TO.N,/STM32L151RET6TR/RST*%
X63113490Y-106928490D03*
%TO.N,SCL1*%
X105918000Y-123444000D03*
X47619490Y-101594490D03*
X181483000Y-105156000D03*
X257683000Y-105156000D03*
X105918000Y-106716000D03*
X219583000Y-105156000D03*
X143383000Y-105156000D03*
%TO.N,SDA1*%
X260223000Y-105156000D03*
X184023000Y-105029000D03*
X145923000Y-105156000D03*
X108458000Y-122047000D03*
X109728000Y-107097000D03*
X47624143Y-102615143D03*
X222123000Y-105029000D03*
%TO.N,/STM32L151RET6TR/FTDI_RXD*%
X46355000Y-95250000D03*
%TO.N,/STM32L151RET6TR/FTDI_TXD*%
X48888299Y-95243387D03*
%TO.N,/STM32L151RET6TR/FTDI_CTS*%
X60065490Y-100324490D03*
%TO.N,SCL2*%
X46857490Y-83306490D03*
X62865000Y-88011000D03*
%TO.N,SDA2*%
X49397490Y-83306490D03*
X65023673Y-94499728D03*
%TO.N,/STM32L151RET6TR/PIN41*%
X62892990Y-90551000D03*
%TO.N,/STM32L151RET6TR/PIN29*%
X64897000Y-96647000D03*
%TO.N,/STM32L151RET6TR/PIN30*%
X67564000Y-95504000D03*
%TO.N,/STM32L151RET6TR/PC8*%
X51937490Y-83306490D03*
%TO.N,/STM32L151RET6TR/PA9*%
X44317490Y-83306490D03*
%TO.N,/STM32L151RET6TR/PA10*%
X41777490Y-83052490D03*
%TO.N,BUCK_5_EN*%
X40550500Y-84785200D03*
X51435000Y-90043000D03*
X59181992Y-102997008D03*
X31852210Y-81809930D03*
%TO.N,XSHUT_3*%
X69020803Y-121599898D03*
X103378000Y-111288000D03*
X214757000Y-95123000D03*
X68961000Y-117221000D03*
X217043000Y-105156000D03*
%TO.N,GPIOI_3*%
X82065801Y-103113656D03*
X214503000Y-105626500D03*
X90995500Y-104457500D03*
X68067701Y-94238299D03*
X100838000Y-111288000D03*
X62759776Y-79367996D03*
X218795600Y-96520000D03*
%TO.N,XSHUT_4*%
X255143000Y-105410000D03*
X252730000Y-95123000D03*
X69977000Y-121031000D03*
X69981299Y-116590299D03*
X103378000Y-117475000D03*
%TO.N,GPIOI_4*%
X256895600Y-96672400D03*
X252603000Y-105283000D03*
X100838000Y-117475000D03*
X89800000Y-104300000D03*
X62045029Y-80092496D03*
%TO.N,LED_0*%
X67939490Y-91942490D03*
X78220501Y-100578490D03*
%TD*%
D37*
%TO.N,GND*%
X107188000Y-88809000D02*
X107188000Y-90737988D01*
D38*
X134874000Y-98171000D02*
X133244500Y-98171000D01*
D37*
X105882000Y-79157000D02*
X107188000Y-79157000D01*
D38*
X203873500Y-99098500D02*
X203835000Y-99060000D01*
X241973500Y-99098500D02*
X241935000Y-99060000D01*
X144399000Y-98451500D02*
X145261500Y-98451500D01*
X253873000Y-102906000D02*
X255107000Y-102906000D01*
D37*
X98298000Y-81534000D02*
X97790000Y-81026000D01*
X68701490Y-102610490D02*
X68701490Y-103626490D01*
D38*
X167386000Y-100076000D02*
X167640000Y-100330000D01*
X181447000Y-102906000D02*
X180213000Y-102906000D01*
X217007000Y-102906000D02*
X218313000Y-102906000D01*
X258953000Y-102906000D02*
X257647000Y-102906000D01*
X223393000Y-102906000D02*
X222087000Y-102906000D01*
X142113000Y-102906000D02*
X143347000Y-102906000D01*
X173736000Y-110236000D02*
X171704000Y-112268000D01*
D37*
X102108000Y-115225000D02*
X104648000Y-115225000D01*
X215392000Y-98425000D02*
X215392000Y-97331000D01*
D38*
X177673000Y-102906000D02*
X178907000Y-102906000D01*
D37*
X62970500Y-99060000D02*
X62970500Y-100488500D01*
X70622010Y-104134490D02*
X70358000Y-104398500D01*
D38*
X169926000Y-99568000D02*
X170180000Y-99822000D01*
X183987000Y-102906000D02*
X185293000Y-102906000D01*
X169926000Y-98468000D02*
X169926000Y-99568000D01*
X183234500Y-98451500D02*
X183388000Y-98298000D01*
X105156000Y-97663000D02*
X104140000Y-96647000D01*
D37*
X59414500Y-89005500D02*
X59817000Y-89408000D01*
X68998490Y-100578490D02*
X68998490Y-102313490D01*
D38*
X167386000Y-98933000D02*
X167386000Y-100076000D01*
X97155000Y-96647000D02*
X98806000Y-96647000D01*
D37*
X66421000Y-86063000D02*
X66421000Y-84836000D01*
D39*
X117856000Y-91694000D02*
X117856000Y-90297000D01*
D38*
X145887000Y-102906000D02*
X147193000Y-102906000D01*
X215773000Y-102906000D02*
X217007000Y-102906000D01*
D37*
X71495490Y-104134490D02*
X70622010Y-104134490D01*
D38*
X257647000Y-102906000D02*
X256413000Y-102906000D01*
D37*
X102108000Y-115225000D02*
X102108000Y-117348000D01*
D38*
X144653000Y-102906000D02*
X145887000Y-102906000D01*
D37*
X59817000Y-89408000D02*
X60452000Y-89408000D01*
D38*
X245999000Y-98556500D02*
X245999000Y-99822000D01*
X133244500Y-98171000D02*
X133223000Y-98192500D01*
X250063000Y-107406000D02*
X250063000Y-109728000D01*
D37*
X62970500Y-100488500D02*
X63314490Y-100832490D01*
X66421000Y-86063000D02*
X64727000Y-86063000D01*
X109728000Y-88809000D02*
X109728000Y-91059000D01*
D38*
X101346000Y-97663000D02*
X99822000Y-97663000D01*
D37*
X259307500Y-98451500D02*
X259334000Y-98425000D01*
X64727000Y-86063000D02*
X63754000Y-85090000D01*
X98298000Y-106716000D02*
X98044000Y-106462000D01*
D38*
X173736000Y-109982000D02*
X173736000Y-110236000D01*
D37*
X104648000Y-79157000D02*
X105882000Y-79157000D01*
X98298000Y-83657000D02*
X98298000Y-81534000D01*
D38*
X175921500Y-98451500D02*
X175768000Y-98298000D01*
D37*
X258064000Y-98451500D02*
X259307500Y-98451500D01*
D38*
X178907000Y-102906000D02*
X180213000Y-102906000D01*
X182753000Y-102906000D02*
X183987000Y-102906000D01*
D37*
X57912000Y-88138000D02*
X57912000Y-89408000D01*
X98298000Y-119725000D02*
X98298000Y-117348000D01*
D38*
X130810000Y-99314000D02*
X131699000Y-100203000D01*
D37*
X109728000Y-79157000D02*
X108422000Y-79157000D01*
X68998490Y-102313490D02*
X68701490Y-102610490D01*
D38*
X209291500Y-98556500D02*
X209296000Y-98552000D01*
D39*
X117856000Y-91694000D02*
X116332000Y-91694000D01*
D38*
X130810000Y-98717500D02*
X130810000Y-99314000D01*
D37*
X104648000Y-88809000D02*
X104648000Y-90732920D01*
X65151000Y-83566000D02*
X63246000Y-83566000D01*
X68998490Y-100578490D02*
X68955490Y-100578490D01*
D39*
X118506000Y-91694000D02*
X117856000Y-91694000D01*
D37*
X107188000Y-90737988D02*
X107475506Y-91025494D01*
D38*
X165735000Y-98933000D02*
X165608000Y-98806000D01*
X250063000Y-109728000D02*
X250063000Y-110109000D01*
X222087000Y-102906000D02*
X220853000Y-102906000D01*
X177292000Y-98451500D02*
X175921500Y-98451500D01*
D37*
X258064000Y-98451500D02*
X258064000Y-97282000D01*
D38*
X182753000Y-102906000D02*
X181447000Y-102906000D01*
D37*
X63314490Y-100832490D02*
X64637490Y-100832490D01*
D38*
X171366000Y-98468000D02*
X171704000Y-98806000D01*
X211963000Y-110109000D02*
X209804000Y-112268000D01*
X243586000Y-99098500D02*
X241973500Y-99098500D01*
X139573000Y-102906000D02*
X140807000Y-102906000D01*
X103378000Y-97409000D02*
X104140000Y-96647000D01*
X105156000Y-97970000D02*
X105156000Y-97663000D01*
D37*
X62357000Y-99060000D02*
X61722000Y-99695000D01*
D38*
X135763000Y-109601000D02*
X135763000Y-110109000D01*
X173863000Y-109855000D02*
X173736000Y-109982000D01*
D37*
X105882000Y-104466000D02*
X104648000Y-104466000D01*
D38*
X135763000Y-110109000D02*
X133604000Y-112268000D01*
X205486000Y-99098500D02*
X205486000Y-100457000D01*
X139078598Y-98451500D02*
X138609750Y-97982652D01*
D37*
X68955490Y-100578490D02*
X67177490Y-98800490D01*
D38*
X140807000Y-102906000D02*
X140843000Y-102870000D01*
X142077000Y-102870000D02*
X142113000Y-102906000D01*
D37*
X104648000Y-90732920D02*
X104561752Y-90819168D01*
X102108000Y-88809000D02*
X100953502Y-88809000D01*
D38*
X243586000Y-99098500D02*
X243586000Y-100457000D01*
D37*
X103342000Y-79157000D02*
X104648000Y-79157000D01*
D38*
X145261500Y-98451500D02*
X145415000Y-98298000D01*
X245999000Y-98556500D02*
X247391500Y-98556500D01*
X205486000Y-99098500D02*
X203873500Y-99098500D01*
D37*
X109728000Y-104466000D02*
X108422000Y-104466000D01*
D38*
X139827000Y-98451500D02*
X139078598Y-98451500D01*
D37*
X98298000Y-93309000D02*
X98298000Y-91186000D01*
X215392000Y-98425000D02*
X214122000Y-98425000D01*
X253492000Y-98425000D02*
X253492000Y-97331000D01*
D38*
X255107000Y-102906000D02*
X256413000Y-102906000D01*
D37*
X63314490Y-102610490D02*
X64637490Y-102610490D01*
D39*
X119700000Y-90500000D02*
X118506000Y-91694000D01*
D37*
X221207500Y-98451500D02*
X221234000Y-98425000D01*
D38*
X103378000Y-97970000D02*
X103378000Y-97409000D01*
D37*
X59414500Y-87884000D02*
X58166000Y-87884000D01*
D38*
X173863000Y-107406000D02*
X173863000Y-109855000D01*
D37*
X59414500Y-87884000D02*
X59414500Y-89005500D01*
D38*
X207899000Y-98556500D02*
X209291500Y-98556500D01*
D37*
X107188000Y-115225000D02*
X107188000Y-117348000D01*
X68701490Y-103626490D02*
X68707000Y-103632000D01*
X253492000Y-98425000D02*
X252222000Y-98425000D01*
D38*
X99822000Y-97663000D02*
X98806000Y-96647000D01*
D37*
X98298000Y-108966000D02*
X98298000Y-106716000D01*
X102108000Y-104466000D02*
X103342000Y-104466000D01*
D38*
X211963000Y-109728000D02*
X211963000Y-110109000D01*
X133223000Y-99568000D02*
X133350000Y-99695000D01*
X181991000Y-98451500D02*
X183234500Y-98451500D01*
D37*
X219964000Y-98451500D02*
X221207500Y-98451500D01*
D38*
X207899000Y-98556500D02*
X207899000Y-99822000D01*
X250063000Y-110109000D02*
X247904000Y-112268000D01*
D37*
X64637490Y-100832490D02*
X64643000Y-100838000D01*
X63314490Y-100832490D02*
X63314490Y-102610490D01*
D38*
X211963000Y-107406000D02*
X211963000Y-109728000D01*
D37*
X108422000Y-79157000D02*
X107188000Y-79157000D01*
D38*
X140843000Y-102870000D02*
X142077000Y-102870000D01*
D37*
X58166000Y-87884000D02*
X57912000Y-88138000D01*
D38*
X169926000Y-98468000D02*
X171366000Y-98468000D01*
X247391500Y-98556500D02*
X247396000Y-98552000D01*
D37*
X62970500Y-99060000D02*
X62357000Y-99060000D01*
D38*
X219547000Y-102906000D02*
X218313000Y-102906000D01*
X130810000Y-98717500D02*
X132698000Y-98717500D01*
X167386000Y-98933000D02*
X165735000Y-98933000D01*
X101346000Y-97663000D02*
X101346000Y-96266000D01*
D37*
X103342000Y-104466000D02*
X104648000Y-104466000D01*
D38*
X261493000Y-102906000D02*
X260187000Y-102906000D01*
D37*
X219964000Y-98451500D02*
X219964000Y-97282000D01*
D38*
X135763000Y-107406000D02*
X135763000Y-109601000D01*
D37*
X100953502Y-88809000D02*
X100917502Y-88773000D01*
D38*
X132698000Y-98717500D02*
X133223000Y-98192500D01*
X133223000Y-98192500D02*
X133223000Y-99568000D01*
D37*
X109728000Y-115225000D02*
X109728000Y-117348000D01*
X66421000Y-84836000D02*
X65151000Y-83566000D01*
X102108000Y-79157000D02*
X103342000Y-79157000D01*
D38*
X260187000Y-102906000D02*
X258953000Y-102906000D01*
X143347000Y-102906000D02*
X144653000Y-102906000D01*
X220853000Y-102906000D02*
X219547000Y-102906000D01*
D37*
X104648000Y-115225000D02*
X104648000Y-117348000D01*
X108422000Y-104466000D02*
X107188000Y-104466000D01*
D38*
X130810000Y-98717500D02*
X130810000Y-97282000D01*
D37*
X107188000Y-104466000D02*
X105882000Y-104466000D01*
D39*
%TO.N,+3V3*%
X109458000Y-99679000D02*
X109474000Y-99695000D01*
D38*
X217678000Y-98806000D02*
X216334000Y-100150000D01*
X101600000Y-101092000D02*
X101981000Y-101092000D01*
D39*
X129197500Y-95592500D02*
X128397000Y-96393000D01*
D37*
X66976490Y-100631490D02*
X66923490Y-100578490D01*
D39*
X115400000Y-93769000D02*
X115316000Y-93853000D01*
X97536000Y-116078000D02*
X98715000Y-116078000D01*
D37*
X139700000Y-93123000D02*
X138525000Y-93123000D01*
D38*
X213233000Y-112014000D02*
X213233000Y-102906000D01*
X219048500Y-100176500D02*
X217678000Y-98806000D01*
X179832000Y-99314000D02*
X178969500Y-100176500D01*
X140390480Y-97464480D02*
X141097000Y-98171000D01*
D39*
X99568000Y-115225000D02*
X98207000Y-115225000D01*
D38*
X252275000Y-100150000D02*
X252222000Y-100203000D01*
D37*
X50372480Y-86109500D02*
X51397490Y-85084490D01*
D38*
X216334000Y-100150000D02*
X215392000Y-100150000D01*
D37*
X245999000Y-94869000D02*
X247729000Y-93139000D01*
D39*
X107188000Y-99679000D02*
X109458000Y-99679000D01*
X205486000Y-95973500D02*
X205486000Y-95123000D01*
D38*
X141097000Y-99568000D02*
X140589000Y-100076000D01*
D37*
X216408000Y-93139000D02*
X218535000Y-93139000D01*
D39*
X99060000Y-103922000D02*
X99568000Y-104430000D01*
D37*
X218535000Y-93139000D02*
X218567000Y-93107000D01*
D39*
X202735489Y-99611489D02*
X202735489Y-96730511D01*
X99568000Y-88809000D02*
X98461000Y-88809000D01*
X98461000Y-88809000D02*
X97790000Y-88138000D01*
D37*
X103378000Y-99695000D02*
X103378000Y-100076000D01*
D39*
X202735489Y-96730511D02*
X203492500Y-95973500D01*
D38*
X219964000Y-100176500D02*
X219048500Y-100176500D01*
D39*
X240835489Y-96730511D02*
X241592500Y-95973500D01*
X245491000Y-95973500D02*
X245999000Y-96481500D01*
D38*
X251333000Y-112014000D02*
X251333000Y-102906000D01*
D37*
X102362000Y-101092000D02*
X101600000Y-101092000D01*
X247729000Y-93139000D02*
X254508000Y-93139000D01*
D39*
X175133000Y-102906000D02*
X168153056Y-102906000D01*
X165558000Y-95808000D02*
X167386000Y-95808000D01*
X103378000Y-99695000D02*
X105156000Y-99695000D01*
D37*
X44857490Y-85084490D02*
X45882500Y-86109500D01*
D39*
X130810000Y-95592500D02*
X132698000Y-95592500D01*
D38*
X258064000Y-100176500D02*
X257148500Y-100176500D01*
D39*
X115316000Y-93853000D02*
X114173000Y-92710000D01*
D38*
X179832000Y-99314000D02*
X179832000Y-97790000D01*
D39*
X97790000Y-89408000D02*
X97790000Y-88138000D01*
X97536000Y-116078000D02*
X97536000Y-114554000D01*
D38*
X137943500Y-96117500D02*
X138223109Y-96117500D01*
D39*
X128397000Y-98709824D02*
X132593176Y-102906000D01*
D37*
X207899000Y-94869000D02*
X209629000Y-93139000D01*
D38*
X137265500Y-96117500D02*
X137943500Y-96117500D01*
D37*
X141986000Y-93107000D02*
X139716000Y-93107000D01*
D38*
X143383000Y-100203000D02*
X142629511Y-100956489D01*
X141097000Y-100076000D02*
X140462000Y-100076000D01*
D37*
X137620500Y-95794500D02*
X137943500Y-96117500D01*
D39*
X98806000Y-99772000D02*
X101312000Y-99772000D01*
X213233000Y-102906000D02*
X206030000Y-102906000D01*
D38*
X255778000Y-98806000D02*
X254434000Y-100150000D01*
D37*
X256635000Y-93139000D02*
X256667000Y-93107000D01*
D39*
X167386000Y-94234000D02*
X166878000Y-93726000D01*
D38*
X214175000Y-100150000D02*
X214122000Y-100203000D01*
D39*
X98207000Y-115225000D02*
X97536000Y-114554000D01*
X130810000Y-95592500D02*
X130810000Y-94996000D01*
D37*
X139716000Y-93107000D02*
X139700000Y-93123000D01*
X61589490Y-102610490D02*
X61335490Y-102610490D01*
X137620500Y-95762500D02*
X137265500Y-96117500D01*
D38*
X73570490Y-104134490D02*
X76321490Y-104134490D01*
X139570089Y-97464480D02*
X140390480Y-97464480D01*
D37*
X61589490Y-100832490D02*
X61346510Y-100832490D01*
D39*
X167386000Y-95808000D02*
X169341000Y-95808000D01*
D38*
X141097000Y-98171000D02*
X141097000Y-99568000D01*
D39*
X164508489Y-99261433D02*
X164508489Y-96857511D01*
D38*
X257148500Y-100176500D02*
X255778000Y-98806000D01*
D37*
X138525000Y-93123000D02*
X137620500Y-94027500D01*
D38*
X106370700Y-101045298D02*
X106370700Y-100909700D01*
D39*
X203492500Y-95973500D02*
X205486000Y-95973500D01*
D38*
X258064000Y-100176500D02*
X258926500Y-100176500D01*
X183134000Y-100203000D02*
X182017500Y-100203000D01*
D39*
X164508489Y-96857511D02*
X165558000Y-95808000D01*
D38*
X179832000Y-97790000D02*
X178198520Y-96156520D01*
X177265500Y-100203000D02*
X177292000Y-100176500D01*
D39*
X101312000Y-99772000D02*
X101346000Y-99738000D01*
X168153056Y-102906000D02*
X164508489Y-99261433D01*
X243586000Y-95973500D02*
X243586000Y-95123000D01*
D38*
X136779000Y-112268000D02*
X137033000Y-112014000D01*
X144399000Y-100176500D02*
X145134500Y-100176500D01*
D39*
X98044000Y-103922000D02*
X99060000Y-103922000D01*
D38*
X139673500Y-100330000D02*
X139827000Y-100176500D01*
X141097000Y-99568000D02*
X141097000Y-100076000D01*
D39*
X130810000Y-94996000D02*
X129540000Y-93726000D01*
X205486000Y-95123000D02*
X204089000Y-93726000D01*
D38*
X219964000Y-100176500D02*
X220826500Y-100176500D01*
D37*
X61335490Y-102610490D02*
X60452000Y-101727000D01*
X66923490Y-100578490D02*
X65780490Y-100578490D01*
D39*
X101346000Y-99738000D02*
X103335000Y-99738000D01*
X167386000Y-95808000D02*
X167386000Y-94234000D01*
D37*
X45882500Y-86109500D02*
X50372480Y-86109500D01*
D38*
X142629511Y-100956489D02*
X141792098Y-100956489D01*
D37*
X103378000Y-100076000D02*
X102362000Y-101092000D01*
D40*
X180721000Y-93107000D02*
X178435000Y-93107000D01*
D38*
X255778000Y-98171000D02*
X255778000Y-98806000D01*
D37*
X254508000Y-93139000D02*
X256635000Y-93139000D01*
X65045500Y-99843500D02*
X65659000Y-100457000D01*
D38*
X175133000Y-112014000D02*
X175133000Y-102906000D01*
X138811000Y-100330000D02*
X139673500Y-100330000D01*
X141792098Y-100956489D02*
X141097000Y-100261391D01*
X171305480Y-96156520D02*
X171069000Y-96393000D01*
X207899000Y-96481500D02*
X215988500Y-96481500D01*
D37*
X51397490Y-84036490D02*
X50673000Y-83312000D01*
X61346510Y-100832490D02*
X60452000Y-101727000D01*
X207899000Y-96481500D02*
X207899000Y-94869000D01*
D39*
X98044000Y-104938000D02*
X99060000Y-103922000D01*
D38*
X137033000Y-112014000D02*
X137033000Y-102906000D01*
D39*
X132698000Y-95592500D02*
X133223000Y-96117500D01*
D38*
X179832000Y-99314000D02*
X180694500Y-100176500D01*
D37*
X51397490Y-85084490D02*
X51397490Y-84036490D01*
D39*
X207391000Y-95973500D02*
X207899000Y-96481500D01*
X132593176Y-102906000D02*
X137033000Y-102906000D01*
D38*
X73570490Y-102170490D02*
X73570490Y-104134490D01*
D39*
X105156000Y-99695000D02*
X107172000Y-99695000D01*
X244226056Y-102906000D02*
X240835489Y-99515433D01*
X99568000Y-79157000D02*
X98461000Y-79157000D01*
D38*
X145134500Y-100176500D02*
X145923000Y-100965000D01*
X171069000Y-96393000D02*
X169926000Y-96393000D01*
D39*
X251333000Y-102906000D02*
X244226056Y-102906000D01*
D37*
X137620500Y-94948500D02*
X137620500Y-95762500D01*
D39*
X128397000Y-96393000D02*
X128397000Y-98709824D01*
D37*
X65045500Y-99060000D02*
X65045500Y-97811500D01*
D38*
X245999000Y-96481500D02*
X254088500Y-96481500D01*
D39*
X243586000Y-95123000D02*
X242189000Y-93726000D01*
D38*
X253492000Y-100150000D02*
X252275000Y-100150000D01*
D39*
X99096000Y-79629000D02*
X99568000Y-79157000D01*
X99060000Y-104938000D02*
X99568000Y-104430000D01*
D38*
X103378000Y-99695000D02*
X101981000Y-101092000D01*
X140462000Y-100076000D02*
X139927500Y-100076000D01*
X138223109Y-96117500D02*
X139570089Y-97464480D01*
X182017500Y-100203000D02*
X181991000Y-100176500D01*
D39*
X205486000Y-95973500D02*
X207391000Y-95973500D01*
X240835489Y-99515433D02*
X240835489Y-96730511D01*
D37*
X66421000Y-97684500D02*
X65045500Y-99060000D01*
X245999000Y-96481500D02*
X245999000Y-94869000D01*
D38*
X212979000Y-112268000D02*
X213233000Y-112014000D01*
D40*
X173212000Y-93107000D02*
X169926000Y-96393000D01*
D39*
X97790000Y-78486000D02*
X97790000Y-79629000D01*
D37*
X65913000Y-102616000D02*
X66970980Y-102616000D01*
D38*
X139927500Y-100076000D02*
X139827000Y-100176500D01*
D39*
X98461000Y-79157000D02*
X97790000Y-78486000D01*
D38*
X144372500Y-100203000D02*
X143383000Y-100203000D01*
X106370700Y-100909700D02*
X105156000Y-99695000D01*
D39*
X242189000Y-93726000D02*
X240538000Y-93726000D01*
D37*
X66970980Y-102616000D02*
X66976490Y-102610490D01*
D38*
X178969500Y-100176500D02*
X177292000Y-100176500D01*
D39*
X97790000Y-89408000D02*
X98969000Y-89408000D01*
X130810000Y-95592500D02*
X129197500Y-95592500D01*
X98806000Y-100965000D02*
X99568000Y-101727000D01*
D37*
X137620500Y-94027500D02*
X137620500Y-94948500D01*
D38*
X251079000Y-112268000D02*
X251333000Y-112014000D01*
D39*
X241592500Y-95973500D02*
X243586000Y-95973500D01*
D38*
X217678000Y-98171000D02*
X217678000Y-98806000D01*
D37*
X65045500Y-99060000D02*
X65045500Y-99843500D01*
D39*
X99568000Y-101727000D02*
X99568000Y-104394000D01*
X98715000Y-116078000D02*
X99568000Y-115225000D01*
D37*
X66976490Y-102610490D02*
X66976490Y-100631490D01*
X65780490Y-100578490D02*
X65659000Y-100457000D01*
X65045500Y-97811500D02*
X64897000Y-97663000D01*
X66421000Y-96804000D02*
X66421000Y-97684500D01*
D39*
X117856000Y-93769000D02*
X115400000Y-93769000D01*
X243586000Y-95973500D02*
X245491000Y-95973500D01*
X98044000Y-104938000D02*
X99060000Y-104938000D01*
X98806000Y-99772000D02*
X98806000Y-100965000D01*
D38*
X215988500Y-96481500D02*
X217678000Y-98171000D01*
D39*
X98969000Y-89408000D02*
X99568000Y-88809000D01*
X204089000Y-93726000D02*
X202438000Y-93726000D01*
X169341000Y-95808000D02*
X169926000Y-96393000D01*
X206030000Y-102906000D02*
X202735489Y-99611489D01*
D38*
X176149000Y-100203000D02*
X177265500Y-100203000D01*
D40*
X178435000Y-93107000D02*
X173212000Y-93107000D01*
D38*
X133223000Y-96117500D02*
X137265500Y-96117500D01*
X254434000Y-100150000D02*
X253492000Y-100150000D01*
X72500000Y-101100000D02*
X73570490Y-102170490D01*
X144399000Y-100176500D02*
X144372500Y-100203000D01*
X215392000Y-100150000D02*
X214175000Y-100150000D01*
D39*
X107172000Y-99695000D02*
X107188000Y-99679000D01*
D37*
X209629000Y-93139000D02*
X216408000Y-93139000D01*
D38*
X141097000Y-100261391D02*
X141097000Y-100076000D01*
D39*
X166878000Y-93726000D02*
X165354000Y-93726000D01*
D38*
X254088500Y-96481500D02*
X255778000Y-98171000D01*
X178198520Y-96156520D02*
X171305480Y-96156520D01*
D39*
X103335000Y-99738000D02*
X103378000Y-99695000D01*
X97790000Y-79629000D02*
X99096000Y-79629000D01*
D37*
X137620500Y-95762500D02*
X137620500Y-95794500D01*
D38*
X220826500Y-100176500D02*
X221234000Y-100584000D01*
D39*
X129540000Y-93726000D02*
X128270000Y-93726000D01*
D38*
X174879000Y-112268000D02*
X175133000Y-112014000D01*
X140589000Y-100076000D02*
X140462000Y-100076000D01*
X180694500Y-100176500D02*
X181991000Y-100176500D01*
X258926500Y-100176500D02*
X259334000Y-100584000D01*
D37*
%TO.N,XSHUT_1*%
X67437000Y-117241764D02*
X67437000Y-121685499D01*
X94671632Y-97470036D02*
X96520000Y-95621668D01*
X102653489Y-86703511D02*
X103378000Y-85979000D01*
X140843000Y-107406000D02*
X140843000Y-105156000D01*
X140843000Y-107406000D02*
X140843000Y-109982000D01*
X140843000Y-109982000D02*
X143129000Y-112268000D01*
X92707793Y-116456793D02*
X94671632Y-114492954D01*
X68834000Y-123952000D02*
X71252379Y-121533621D01*
X80137773Y-116456793D02*
X92707793Y-116456793D01*
X97446489Y-86703511D02*
X102653489Y-86703511D01*
X71252379Y-121533621D02*
X75060945Y-121533621D01*
X103378000Y-83621000D02*
X103378000Y-85979000D01*
X67448327Y-117230437D02*
X67437000Y-117241764D01*
X94671632Y-114492954D02*
X94671632Y-97470036D01*
X96520000Y-95621668D02*
X96520000Y-87630000D01*
X139700000Y-96393000D02*
X139700000Y-95123000D01*
X96520000Y-87630000D02*
X97446489Y-86703511D01*
X75060945Y-121533621D02*
X80137773Y-116456793D01*
%TO.N,GPIOI_1*%
X138303000Y-107406000D02*
X138303000Y-110617000D01*
X87822037Y-78169319D02*
X95631718Y-85979000D01*
X137160000Y-98582098D02*
X137144951Y-98567049D01*
X141351000Y-96139000D02*
X141732000Y-96139000D01*
X95631718Y-85979000D02*
X100838000Y-85979000D01*
X137160000Y-99822000D02*
X137160000Y-98582098D01*
X100838000Y-85979000D02*
X100838000Y-83621000D01*
X138176000Y-107279000D02*
X138303000Y-107406000D01*
X63056319Y-78169319D02*
X87822037Y-78169319D01*
X141986000Y-95885000D02*
X141986000Y-95107000D01*
X62738000Y-77851000D02*
X63056319Y-78169319D01*
X138176000Y-100838000D02*
X137160000Y-99822000D01*
X138176000Y-105156000D02*
X138176000Y-107279000D01*
X138176000Y-105156000D02*
X138176000Y-100838000D01*
X141732000Y-96139000D02*
X141986000Y-95885000D01*
X141097000Y-96393000D02*
X141351000Y-96139000D01*
X138303000Y-110617000D02*
X139954000Y-112268000D01*
%TO.N,XSHUT_2*%
X103378000Y-93273000D02*
X103378000Y-91059000D01*
X92843344Y-116956960D02*
X95121152Y-114679152D01*
X102743000Y-95504000D02*
X103378000Y-94869000D01*
X95121152Y-114679152D02*
X95121152Y-97656234D01*
X178435000Y-95107000D02*
X176927000Y-95107000D01*
X75247142Y-121983141D02*
X80273324Y-116956960D01*
X97273386Y-95504000D02*
X102743000Y-95504000D01*
X178943000Y-105156000D02*
X178943000Y-107406000D01*
X95121152Y-97656234D02*
X97273386Y-95504000D01*
X103378000Y-94869000D02*
X103378000Y-93273000D01*
X68195141Y-116566152D02*
X68195141Y-121027141D01*
X178943000Y-109982000D02*
X181229000Y-112268000D01*
X178943000Y-107406000D02*
X178943000Y-109982000D01*
X176927000Y-95107000D02*
X176911000Y-95123000D01*
X68195141Y-121027141D02*
X68199000Y-121031000D01*
X80273324Y-116956960D02*
X92843344Y-116956960D01*
X71374000Y-123952000D02*
X73342859Y-121983141D01*
X73342859Y-121983141D02*
X75247142Y-121983141D01*
%TO.N,GPIOI_2*%
X176403000Y-110617000D02*
X178054000Y-112268000D01*
X94900000Y-86500000D02*
X94900000Y-85883000D01*
X180721000Y-95107000D02*
X180721000Y-96520000D01*
X100838000Y-93273000D02*
X100838000Y-91059000D01*
X94900000Y-85883000D02*
X87635839Y-78618839D01*
X176403000Y-107406000D02*
X176403000Y-110617000D01*
X176403000Y-105156000D02*
X176403000Y-107406000D01*
X87635839Y-78618839D02*
X62098134Y-78618839D01*
%TO.N,XSHUT_0*%
X94222112Y-114306756D02*
X94222112Y-106033112D01*
X79951576Y-116007273D02*
X92521595Y-116007273D01*
X70230641Y-121919641D02*
X70230641Y-121918207D01*
X66680435Y-116590634D02*
X66680435Y-121025565D01*
X71118924Y-121029924D02*
X74928924Y-121029924D01*
X63754000Y-123952000D02*
X66294000Y-123952000D01*
X74928924Y-121029924D02*
X79951576Y-116007273D01*
X66680435Y-121025565D02*
X66675000Y-121031000D01*
X67627500Y-122618500D02*
X69531782Y-122618500D01*
X92521595Y-116007273D02*
X94222112Y-114306756D01*
X66294000Y-123952000D02*
X67627500Y-122618500D01*
X69531782Y-122618500D02*
X70230641Y-121919641D01*
X94222112Y-106033112D02*
X91821000Y-103632000D01*
X70230641Y-121918207D02*
X71118924Y-121029924D01*
X107188000Y-96139000D02*
X107188000Y-97679000D01*
%TO.N,GPIOI_0*%
X77495990Y-101107980D02*
X78750010Y-102362000D01*
X109474000Y-96139000D02*
X109474000Y-97695000D01*
X68792212Y-93938196D02*
X68792212Y-95292212D01*
X77495990Y-98452425D02*
X77495990Y-101107980D01*
X71200000Y-97700000D02*
X76743565Y-97700000D01*
X68792212Y-95292212D02*
X71200000Y-97700000D01*
X76743565Y-97700000D02*
X77495990Y-98452425D01*
X78750010Y-102362000D02*
X81407000Y-102362000D01*
X68066490Y-93212474D02*
X68792212Y-93938196D01*
X68066490Y-93212490D02*
X68066490Y-93212474D01*
%TO.N,LED_3*%
X72773508Y-89473508D02*
X69402503Y-89473508D01*
X77109500Y-93809500D02*
X72773508Y-89473508D01*
X78089042Y-93809500D02*
X77109500Y-93809500D01*
%TO.N,LED_4*%
X75434490Y-91434490D02*
X73023988Y-89023988D01*
X78099490Y-91434490D02*
X75434490Y-91434490D01*
X73023988Y-89023988D02*
X69983291Y-89023988D01*
X69983291Y-89023988D02*
X69362489Y-88403186D01*
%TO.N,LED_1*%
X69240521Y-91985567D02*
X69240521Y-93055591D01*
X68890788Y-91635834D02*
X69240521Y-91985567D01*
X77595181Y-96750480D02*
X77852679Y-97007978D01*
X72935410Y-96750480D02*
X77595181Y-96750480D01*
X69240521Y-93055591D02*
X72935410Y-96750480D01*
%TO.N,LED_2*%
X71130040Y-92593040D02*
X69209490Y-90672490D01*
X73493040Y-92593040D02*
X71130040Y-92593040D01*
X76908501Y-96008501D02*
X73493040Y-92593040D01*
X77845490Y-96008501D02*
X76908501Y-96008501D01*
%TO.N,SW_1*%
X87600000Y-88800000D02*
X87500000Y-88800000D01*
X84882103Y-119163489D02*
X85581503Y-119862889D01*
X87500000Y-88800000D02*
X85039200Y-91260800D01*
X85039200Y-91260800D02*
X85039200Y-114604800D01*
X85581503Y-119862889D02*
X85581503Y-119888000D01*
X78994000Y-123952000D02*
X83782511Y-119163489D01*
X85039200Y-114604800D02*
X85648800Y-115214400D01*
X83782511Y-119163489D02*
X84882103Y-119163489D01*
%TO.N,SW_2*%
X72500000Y-88200000D02*
X72874468Y-88574468D01*
X72874468Y-88574468D02*
X73210186Y-88574468D01*
X84582000Y-96892386D02*
X84582000Y-115214400D01*
X78089614Y-90400000D02*
X84582000Y-96892386D01*
X75035718Y-90400000D02*
X78089614Y-90400000D01*
X84582000Y-120904000D02*
X84582000Y-119888000D01*
X81534000Y-123952000D02*
X84582000Y-120904000D01*
X73210186Y-88574468D02*
X75035718Y-90400000D01*
D39*
%TO.N,+5V*%
X39000000Y-97200000D02*
X39000000Y-96000000D01*
X39000000Y-98400000D02*
X39000000Y-97200000D01*
X44475511Y-125501511D02*
X39000000Y-120026000D01*
X54584489Y-125501511D02*
X44475511Y-125501511D01*
X56134000Y-123952000D02*
X54584489Y-125501511D01*
X39000000Y-120026000D02*
X39000000Y-98400000D01*
D37*
%TO.N,/STM32L151RET6TR/RST*%
X57068356Y-101907970D02*
X51508030Y-101907970D01*
X48431510Y-104984490D02*
X45929490Y-104984490D01*
X63113490Y-106928490D02*
X62088876Y-106928490D01*
X45929490Y-104984490D02*
X45079490Y-104134490D01*
X51508030Y-101907970D02*
X48431510Y-104984490D01*
X62088876Y-106928490D02*
X57068356Y-101907970D01*
%TO.N,SCL1*%
X260604000Y-112268000D02*
X260045200Y-112268000D01*
X47619490Y-101594490D02*
X47619490Y-101203480D01*
X105918000Y-83657000D02*
X105918000Y-93309000D01*
X106261511Y-106372489D02*
X110543511Y-106372489D01*
X41275000Y-95244490D02*
X41275000Y-84074000D01*
X219583000Y-107406000D02*
X219583000Y-105156000D01*
X40513000Y-79375000D02*
X36830000Y-75692000D01*
D40*
X181483000Y-105156000D02*
X181483000Y-107406000D01*
D37*
X143383000Y-105156000D02*
X143383000Y-107406000D01*
X42545000Y-96514490D02*
X41275000Y-95244490D01*
X109892489Y-95414489D02*
X110871000Y-96393000D01*
X105918000Y-93668022D02*
X107664467Y-95414489D01*
X42545000Y-98171000D02*
X42545000Y-96514490D01*
X257683000Y-105156000D02*
X257683000Y-107533000D01*
X110543511Y-106372489D02*
X110871000Y-106045000D01*
X143383000Y-107406000D02*
X143383000Y-109347000D01*
X45476010Y-99060000D02*
X43434000Y-99060000D01*
X107664467Y-95414489D02*
X109892489Y-95414489D01*
X257683000Y-109905800D02*
X257683000Y-107533000D01*
X105918000Y-106716000D02*
X105918000Y-108966000D01*
X143383000Y-109347000D02*
X146304000Y-112268000D01*
X40513000Y-83312000D02*
X40513000Y-79375000D01*
X41275000Y-84074000D02*
X40513000Y-83312000D01*
X110871000Y-96393000D02*
X110871000Y-97790000D01*
X181483000Y-109347000D02*
X181483000Y-107406000D01*
X105918000Y-123444000D02*
X105918000Y-119725000D01*
X43434000Y-99060000D02*
X42545000Y-98171000D01*
X219583000Y-107406000D02*
X219583000Y-109347000D01*
X184404000Y-112268000D02*
X181483000Y-109347000D01*
X110871000Y-106045000D02*
X110871000Y-97790000D01*
X105918000Y-106716000D02*
X106261511Y-106372489D01*
X260045200Y-112268000D02*
X257683000Y-109905800D01*
X105918000Y-119725000D02*
X105918000Y-108930000D01*
X47619490Y-101203480D02*
X45476010Y-99060000D01*
X105918000Y-93309000D02*
X105918000Y-93668022D01*
X219583000Y-109347000D02*
X222504000Y-112268000D01*
%TO.N,SDA1*%
X263093200Y-112268000D02*
X263779000Y-112268000D01*
X224917000Y-112268000D02*
X225679000Y-112268000D01*
X43719511Y-85756511D02*
X43719511Y-95149001D01*
X47624143Y-102615143D02*
X48344001Y-101895285D01*
X260223000Y-109397800D02*
X263093200Y-112268000D01*
X222123000Y-109474000D02*
X224917000Y-112268000D01*
X45085000Y-97790000D02*
X45085000Y-96514490D01*
X43053000Y-85090000D02*
X43719511Y-85756511D01*
X145923000Y-107406000D02*
X145923000Y-105156000D01*
X110454717Y-107097000D02*
X109728000Y-107097000D01*
X43053000Y-79375000D02*
X43053000Y-85090000D01*
X108458000Y-83657000D02*
X108458000Y-93309000D01*
X260223000Y-107533000D02*
X260223000Y-109397800D01*
X111506359Y-96357359D02*
X111506359Y-106045359D01*
X111506359Y-106045359D02*
X110454717Y-107097000D01*
X148717000Y-112268000D02*
X149479000Y-112268000D01*
X222123000Y-107406000D02*
X222123000Y-105029000D01*
X108458000Y-93309000D02*
X111506359Y-96357359D01*
X222123000Y-107406000D02*
X222123000Y-109474000D01*
X48344001Y-101049001D02*
X45085000Y-97790000D01*
X108458000Y-108966000D02*
X109256000Y-108966000D01*
X39370000Y-75692000D02*
X43053000Y-79375000D01*
X260223000Y-105156000D02*
X260223000Y-107533000D01*
X186944000Y-112268000D02*
X187579000Y-112268000D01*
X109728000Y-108494000D02*
X109728000Y-107097000D01*
X108458000Y-122047000D02*
X108458000Y-119725000D01*
X184023000Y-105029000D02*
X184023000Y-107406000D01*
X145923000Y-109474000D02*
X148717000Y-112268000D01*
X48344001Y-101895285D02*
X48344001Y-101049001D01*
X145923000Y-107406000D02*
X145923000Y-109474000D01*
X109256000Y-108966000D02*
X109728000Y-108494000D01*
X184023000Y-107406000D02*
X184023000Y-109347000D01*
X43719511Y-95149001D02*
X45085000Y-96514490D01*
X184023000Y-109347000D02*
X186944000Y-112268000D01*
X108458000Y-108930000D02*
X108458000Y-119725000D01*
%TO.N,/STM32L151RET6TR/FTDI_RXD*%
X46355000Y-95250000D02*
X46355000Y-90164490D01*
X46355000Y-90164490D02*
X45085000Y-88894490D01*
%TO.N,/STM32L151RET6TR/FTDI_TXD*%
X48888299Y-90157789D02*
X47625000Y-88894490D01*
X48888299Y-95243387D02*
X48888299Y-90157789D01*
%TO.N,/STM32L151RET6TR/FTDI_CTS*%
X58795490Y-100324490D02*
X60065490Y-100324490D01*
X53975000Y-90164490D02*
X53975000Y-95504000D01*
X53975000Y-95504000D02*
X58795490Y-100324490D01*
X52705000Y-88894490D02*
X53975000Y-90164490D01*
%TO.N,SCL2*%
X46857490Y-81528490D02*
X46857490Y-80396510D01*
X61489500Y-87884000D02*
X62738000Y-87884000D01*
X46857490Y-80396510D02*
X48006000Y-79248000D01*
X63627000Y-95504000D02*
X61976000Y-95504000D01*
X46857490Y-85084490D02*
X46857490Y-83306490D01*
X61976000Y-95504000D02*
X61468000Y-94996000D01*
X48006000Y-79248000D02*
X49657000Y-79248000D01*
X62738000Y-87884000D02*
X62865000Y-88011000D01*
X61468000Y-87905500D02*
X61489500Y-87884000D01*
X61468000Y-94996000D02*
X61468000Y-92456000D01*
X61468000Y-90456000D02*
X61468000Y-87905500D01*
X46857490Y-83306490D02*
X46857490Y-81528490D01*
%TO.N,SDA2*%
X65405000Y-88138000D02*
X65023673Y-88519327D01*
X49397490Y-81528490D02*
X49916510Y-81528490D01*
X66421000Y-94204000D02*
X66421000Y-92043000D01*
X49916510Y-81528490D02*
X52197000Y-79248000D01*
X49397490Y-85084490D02*
X49397490Y-83306490D01*
X66421000Y-90043000D02*
X66421000Y-88138000D01*
X49397490Y-83306490D02*
X49397490Y-81528490D01*
X65023673Y-88519327D02*
X65023673Y-94499728D01*
X66421000Y-88138000D02*
X65405000Y-88138000D01*
%TO.N,/STM32L151RET6TR/PIN41*%
X63627000Y-91285010D02*
X62892990Y-90551000D01*
X63627000Y-94204000D02*
X63627000Y-91285010D01*
%TO.N,/STM32L151RET6TR/PIN29*%
X64897000Y-96647000D02*
X63784000Y-96647000D01*
X63784000Y-96647000D02*
X63627000Y-96804000D01*
%TO.N,/STM32L151RET6TR/PIN30*%
X67564000Y-95504000D02*
X66421000Y-95504000D01*
%TO.N,/STM32L151RET6TR/PC8*%
X51937490Y-83306490D02*
X51937490Y-81528490D01*
%TO.N,/STM32L151RET6TR/PA9*%
X44317490Y-83306490D02*
X44317490Y-81528490D01*
%TO.N,/STM32L151RET6TR/PA10*%
X41777490Y-83052490D02*
X41777490Y-81528490D01*
%TO.N,BUCK_5_EN*%
X59181992Y-102997008D02*
X51435000Y-95250016D01*
X51435000Y-90043000D02*
X51435000Y-95250016D01*
X31852210Y-81809930D02*
X37690130Y-81809930D01*
X37690130Y-81809930D02*
X37690130Y-81924830D01*
X37690130Y-81924830D02*
X40550500Y-84785200D01*
%TO.N,XSHUT_3*%
X214773000Y-95139000D02*
X214757000Y-95123000D01*
X217043000Y-105156000D02*
X217043000Y-107406000D01*
X73914000Y-123952000D02*
X80459521Y-117406480D01*
X103378000Y-111288000D02*
X103378000Y-108966000D01*
X68961000Y-121540095D02*
X69020803Y-121599898D01*
X216408000Y-95139000D02*
X214773000Y-95139000D01*
X102653489Y-112012511D02*
X103378000Y-111288000D01*
X68961000Y-117221000D02*
X68961000Y-121540095D01*
X93029542Y-117406480D02*
X98423511Y-112012511D01*
X98423511Y-112012511D02*
X102653489Y-112012511D01*
X217043000Y-107406000D02*
X217043000Y-109982000D01*
X217043000Y-109982000D02*
X219329000Y-112268000D01*
X80459521Y-117406480D02*
X93029542Y-117406480D01*
%TO.N,GPIOI_3*%
X218795600Y-96520000D02*
X218795600Y-95335600D01*
X74781000Y-101981000D02*
X74930000Y-101981000D01*
X74930000Y-101981000D02*
X75819000Y-102870000D01*
X214503000Y-107406000D02*
X214503000Y-110617000D01*
X75819000Y-102870000D02*
X80010000Y-102870000D01*
X80010000Y-102870000D02*
X80253656Y-103113656D01*
X63059413Y-79068359D02*
X87449641Y-79068359D01*
X68288511Y-94459109D02*
X68288511Y-95488511D01*
X89900000Y-103362000D02*
X90995500Y-104457500D01*
X218795600Y-95335600D02*
X218567000Y-95107000D01*
X80253656Y-103113656D02*
X82065801Y-103113656D01*
X100838000Y-111288000D02*
X100838000Y-108966000D01*
X89900000Y-81804718D02*
X89900000Y-103362000D01*
X214503000Y-110617000D02*
X216154000Y-112268000D01*
X214503000Y-105626500D02*
X214503000Y-107406000D01*
X89900000Y-81518718D02*
X89900000Y-81900000D01*
X62759776Y-79367996D02*
X63059413Y-79068359D01*
X68288511Y-95488511D02*
X74781000Y-101981000D01*
X87449641Y-79068359D02*
X89900000Y-81518718D01*
X68067701Y-94238299D02*
X68288511Y-94459109D01*
%TO.N,XSHUT_4*%
X69977000Y-116594598D02*
X69977000Y-121031000D01*
X255143000Y-105410000D02*
X255143000Y-107533000D01*
X252762000Y-95091000D02*
X252730000Y-95123000D01*
X76454000Y-122047718D02*
X80645718Y-117856000D01*
X102870000Y-122428000D02*
X103378000Y-121920000D01*
X103378000Y-121920000D02*
X103378000Y-119725000D01*
X80645718Y-117856000D02*
X92456000Y-117856000D01*
X254508000Y-95091000D02*
X252762000Y-95091000D01*
X69981299Y-116590299D02*
X69977000Y-116594598D01*
X103378000Y-119725000D02*
X103378000Y-117475000D01*
X76454000Y-123952000D02*
X76454000Y-122047718D01*
X92456000Y-117856000D02*
X97028000Y-122428000D01*
X97028000Y-122428000D02*
X102870000Y-122428000D01*
X255143000Y-107533000D02*
X255143000Y-109982000D01*
X255143000Y-109982000D02*
X257429000Y-112268000D01*
%TO.N,GPIOI_4*%
X252603000Y-107533000D02*
X252603000Y-105283000D01*
X63634507Y-79517879D02*
X63059890Y-80092496D01*
X256895600Y-95335600D02*
X256667000Y-95107000D01*
X89800000Y-104300000D02*
X89400000Y-103900000D01*
X89400000Y-81654436D02*
X87263443Y-79517879D01*
X87263443Y-79517879D02*
X63634507Y-79517879D01*
X100838000Y-119725000D02*
X100838000Y-117475000D01*
X63059890Y-80092496D02*
X62045029Y-80092496D01*
X256895600Y-96672400D02*
X256895600Y-95335600D01*
X89400000Y-103900000D02*
X89400000Y-81654436D01*
X252603000Y-107533000D02*
X252603000Y-110617000D01*
X252603000Y-110617000D02*
X254254000Y-112268000D01*
%TO.N,LED_0*%
X68791001Y-92691001D02*
X68042490Y-91942490D01*
X76879282Y-97200000D02*
X72749212Y-97200000D01*
X72749212Y-97200000D02*
X68791001Y-93241789D01*
X68791001Y-93241789D02*
X68791001Y-92691001D01*
X78220501Y-98541219D02*
X76879282Y-97200000D01*
X68042490Y-91942490D02*
X67939490Y-91942490D01*
X78220501Y-100578490D02*
X78220501Y-98541219D01*
%TD*%
%TA.AperFunction,Conductor*%
%TO.N,GND*%
G36*
X197105101Y-89936002D02*
G01*
X197151594Y-89989658D01*
X197162592Y-90032114D01*
X197171608Y-90146670D01*
X197225623Y-90371660D01*
X197227516Y-90376231D01*
X197227517Y-90376233D01*
X197270202Y-90479282D01*
X197314170Y-90585430D01*
X197435067Y-90782716D01*
X197585339Y-90958661D01*
X197761284Y-91108933D01*
X197958570Y-91229830D01*
X197963140Y-91231723D01*
X197963144Y-91231725D01*
X198167767Y-91316483D01*
X198167769Y-91316484D01*
X198172340Y-91318377D01*
X198250104Y-91337046D01*
X198392517Y-91371237D01*
X198392523Y-91371238D01*
X198397330Y-91372392D01*
X198628000Y-91390546D01*
X198858670Y-91372392D01*
X198863477Y-91371238D01*
X198863483Y-91371237D01*
X199005896Y-91337046D01*
X199083660Y-91318377D01*
X199088231Y-91316484D01*
X199088233Y-91316483D01*
X199292856Y-91231725D01*
X199292860Y-91231723D01*
X199297430Y-91229830D01*
X199494716Y-91108933D01*
X199670661Y-90958661D01*
X199820933Y-90782716D01*
X199941830Y-90585430D01*
X199985799Y-90479282D01*
X200028483Y-90376233D01*
X200028484Y-90376231D01*
X200030377Y-90371660D01*
X200084392Y-90146670D01*
X200093408Y-90032114D01*
X200118694Y-89965773D01*
X200175832Y-89923633D01*
X200219020Y-89916000D01*
X201874000Y-89916000D01*
X201942121Y-89936002D01*
X201988614Y-89989658D01*
X202000000Y-90042000D01*
X202000000Y-93116543D01*
X201979998Y-93184664D01*
X201968076Y-93200362D01*
X201863612Y-93317608D01*
X201863610Y-93317612D01*
X201858560Y-93323279D01*
X201779224Y-93473119D01*
X201737919Y-93637559D01*
X201737031Y-93807105D01*
X201776612Y-93971968D01*
X201780093Y-93978712D01*
X201780094Y-93978715D01*
X201846254Y-94106897D01*
X201854375Y-94122631D01*
X201859367Y-94128353D01*
X201859368Y-94128355D01*
X201965831Y-94250396D01*
X201964144Y-94251868D01*
X201995547Y-94302832D01*
X202000000Y-94336032D01*
X202000000Y-107990000D01*
X201979998Y-108058121D01*
X201926342Y-108104614D01*
X201874000Y-108116000D01*
X199893297Y-108116000D01*
X199825176Y-108095998D01*
X199797486Y-108071831D01*
X199673869Y-107927095D01*
X199670661Y-107923339D01*
X199494716Y-107773067D01*
X199297430Y-107652170D01*
X199292860Y-107650277D01*
X199292856Y-107650275D01*
X199088233Y-107565517D01*
X199088231Y-107565516D01*
X199083660Y-107563623D01*
X199005896Y-107544954D01*
X198863483Y-107510763D01*
X198863477Y-107510762D01*
X198858670Y-107509608D01*
X198628000Y-107491454D01*
X198397330Y-107509608D01*
X198392523Y-107510762D01*
X198392517Y-107510763D01*
X198250104Y-107544954D01*
X198172340Y-107563623D01*
X198167769Y-107565516D01*
X198167767Y-107565517D01*
X197963144Y-107650275D01*
X197963140Y-107650277D01*
X197958570Y-107652170D01*
X197761284Y-107773067D01*
X197585339Y-107923339D01*
X197582131Y-107927095D01*
X197458514Y-108071831D01*
X197399063Y-108110640D01*
X197362703Y-108116000D01*
X195525309Y-108116000D01*
X195457188Y-108095998D01*
X195410695Y-108042342D01*
X195399311Y-107990692D01*
X195399308Y-107990000D01*
X195389263Y-106161833D01*
X197899858Y-106161833D01*
X197900545Y-106168840D01*
X197900545Y-106168843D01*
X197903233Y-106196256D01*
X197915700Y-106323404D01*
X197966945Y-106477450D01*
X197970592Y-106483473D01*
X197970593Y-106483474D01*
X198047394Y-106610290D01*
X198047397Y-106610294D01*
X198051044Y-106616316D01*
X198163820Y-106733098D01*
X198299665Y-106821993D01*
X198451829Y-106878582D01*
X198458810Y-106879513D01*
X198458812Y-106879514D01*
X198502471Y-106885339D01*
X198612749Y-106900053D01*
X198619760Y-106899415D01*
X198619764Y-106899415D01*
X198767407Y-106885978D01*
X198774428Y-106885339D01*
X198781128Y-106883162D01*
X198781133Y-106883161D01*
X198922129Y-106837349D01*
X198922132Y-106837348D01*
X198928828Y-106835172D01*
X199068277Y-106752043D01*
X199185844Y-106640086D01*
X199198269Y-106621386D01*
X199271790Y-106510727D01*
X199275685Y-106504865D01*
X199333335Y-106353099D01*
X199355929Y-106192333D01*
X199356213Y-106172000D01*
X199338116Y-106010666D01*
X199335799Y-106004012D01*
X199287045Y-105864008D01*
X199287043Y-105864005D01*
X199284726Y-105857350D01*
X199198696Y-105719672D01*
X199190827Y-105711748D01*
X199089265Y-105609474D01*
X199089261Y-105609471D01*
X199084301Y-105604476D01*
X198947228Y-105517486D01*
X198940589Y-105515122D01*
X198940587Y-105515121D01*
X198800923Y-105465389D01*
X198800918Y-105465388D01*
X198794288Y-105463027D01*
X198787302Y-105462194D01*
X198787298Y-105462193D01*
X198674033Y-105448688D01*
X198633084Y-105443805D01*
X198626081Y-105444541D01*
X198626080Y-105444541D01*
X198478627Y-105460039D01*
X198478625Y-105460040D01*
X198471627Y-105460775D01*
X198391017Y-105488216D01*
X198324612Y-105510822D01*
X198324609Y-105510823D01*
X198317942Y-105513093D01*
X198179667Y-105598160D01*
X198063675Y-105711748D01*
X197975731Y-105848211D01*
X197920205Y-106000766D01*
X197899858Y-106161833D01*
X195389263Y-106161833D01*
X195378098Y-104129833D01*
X197899858Y-104129833D01*
X197900545Y-104136840D01*
X197900545Y-104136843D01*
X197903233Y-104164256D01*
X197915700Y-104291404D01*
X197966945Y-104445450D01*
X197970592Y-104451473D01*
X197970593Y-104451474D01*
X198047394Y-104578290D01*
X198047397Y-104578294D01*
X198051044Y-104584316D01*
X198163820Y-104701098D01*
X198299665Y-104789993D01*
X198451829Y-104846582D01*
X198458810Y-104847513D01*
X198458812Y-104847514D01*
X198502471Y-104853339D01*
X198612749Y-104868053D01*
X198619760Y-104867415D01*
X198619764Y-104867415D01*
X198767407Y-104853978D01*
X198774428Y-104853339D01*
X198781128Y-104851162D01*
X198781133Y-104851161D01*
X198922129Y-104805349D01*
X198922132Y-104805348D01*
X198928828Y-104803172D01*
X199068277Y-104720043D01*
X199185844Y-104608086D01*
X199198269Y-104589386D01*
X199271790Y-104478727D01*
X199275685Y-104472865D01*
X199333335Y-104321099D01*
X199355929Y-104160333D01*
X199356213Y-104140000D01*
X199338116Y-103978666D01*
X199335799Y-103972012D01*
X199287045Y-103832008D01*
X199287043Y-103832005D01*
X199284726Y-103825350D01*
X199198696Y-103687672D01*
X199190827Y-103679748D01*
X199089265Y-103577474D01*
X199089261Y-103577471D01*
X199084301Y-103572476D01*
X198947228Y-103485486D01*
X198940589Y-103483122D01*
X198940587Y-103483121D01*
X198800923Y-103433389D01*
X198800918Y-103433388D01*
X198794288Y-103431027D01*
X198787302Y-103430194D01*
X198787298Y-103430193D01*
X198674033Y-103416688D01*
X198633084Y-103411805D01*
X198626081Y-103412541D01*
X198626080Y-103412541D01*
X198478627Y-103428039D01*
X198478625Y-103428040D01*
X198471627Y-103428775D01*
X198391017Y-103456216D01*
X198324612Y-103478822D01*
X198324609Y-103478823D01*
X198317942Y-103481093D01*
X198179667Y-103566160D01*
X198063675Y-103679748D01*
X197975731Y-103816211D01*
X197920205Y-103968766D01*
X197899858Y-104129833D01*
X195378098Y-104129833D01*
X195366933Y-102097833D01*
X197899858Y-102097833D01*
X197900545Y-102104840D01*
X197900545Y-102104843D01*
X197903233Y-102132256D01*
X197915700Y-102259404D01*
X197966945Y-102413450D01*
X197970592Y-102419473D01*
X197970593Y-102419474D01*
X198047394Y-102546290D01*
X198047397Y-102546294D01*
X198051044Y-102552316D01*
X198163820Y-102669098D01*
X198299665Y-102757993D01*
X198451829Y-102814582D01*
X198458810Y-102815513D01*
X198458812Y-102815514D01*
X198502471Y-102821339D01*
X198612749Y-102836053D01*
X198619760Y-102835415D01*
X198619764Y-102835415D01*
X198767407Y-102821978D01*
X198774428Y-102821339D01*
X198781128Y-102819162D01*
X198781133Y-102819161D01*
X198922129Y-102773349D01*
X198922132Y-102773348D01*
X198928828Y-102771172D01*
X199068277Y-102688043D01*
X199185844Y-102576086D01*
X199198269Y-102557386D01*
X199271790Y-102446727D01*
X199275685Y-102440865D01*
X199333335Y-102289099D01*
X199355929Y-102128333D01*
X199356213Y-102108000D01*
X199338116Y-101946666D01*
X199335799Y-101940012D01*
X199287045Y-101800008D01*
X199287043Y-101800005D01*
X199284726Y-101793350D01*
X199198696Y-101655672D01*
X199190827Y-101647748D01*
X199089265Y-101545474D01*
X199089261Y-101545471D01*
X199084301Y-101540476D01*
X198947228Y-101453486D01*
X198940589Y-101451122D01*
X198940587Y-101451121D01*
X198800923Y-101401389D01*
X198800918Y-101401388D01*
X198794288Y-101399027D01*
X198787302Y-101398194D01*
X198787298Y-101398193D01*
X198674033Y-101384688D01*
X198633084Y-101379805D01*
X198626081Y-101380541D01*
X198626080Y-101380541D01*
X198478627Y-101396039D01*
X198478625Y-101396040D01*
X198471627Y-101396775D01*
X198391017Y-101424216D01*
X198324612Y-101446822D01*
X198324609Y-101446823D01*
X198317942Y-101449093D01*
X198179667Y-101534160D01*
X198063675Y-101647748D01*
X197975731Y-101784211D01*
X197920205Y-101936766D01*
X197899858Y-102097833D01*
X195366933Y-102097833D01*
X195347395Y-98541833D01*
X197899858Y-98541833D01*
X197900545Y-98548840D01*
X197900545Y-98548843D01*
X197903233Y-98576256D01*
X197915700Y-98703404D01*
X197966945Y-98857450D01*
X197970592Y-98863473D01*
X197970593Y-98863474D01*
X198047394Y-98990290D01*
X198047397Y-98990294D01*
X198051044Y-98996316D01*
X198163820Y-99113098D01*
X198299665Y-99201993D01*
X198451829Y-99258582D01*
X198458810Y-99259513D01*
X198458812Y-99259514D01*
X198502471Y-99265339D01*
X198612749Y-99280053D01*
X198619760Y-99279415D01*
X198619764Y-99279415D01*
X198767407Y-99265978D01*
X198774428Y-99265339D01*
X198781128Y-99263162D01*
X198781133Y-99263161D01*
X198922129Y-99217349D01*
X198922132Y-99217348D01*
X198928828Y-99215172D01*
X199068277Y-99132043D01*
X199185844Y-99020086D01*
X199198269Y-99001386D01*
X199271790Y-98890727D01*
X199275685Y-98884865D01*
X199333335Y-98733099D01*
X199355929Y-98572333D01*
X199356213Y-98552000D01*
X199338116Y-98390666D01*
X199335799Y-98384012D01*
X199287045Y-98244008D01*
X199287043Y-98244005D01*
X199284726Y-98237350D01*
X199198696Y-98099672D01*
X199190827Y-98091748D01*
X199089265Y-97989474D01*
X199089261Y-97989471D01*
X199084301Y-97984476D01*
X198947228Y-97897486D01*
X198940589Y-97895122D01*
X198940587Y-97895121D01*
X198800923Y-97845389D01*
X198800918Y-97845388D01*
X198794288Y-97843027D01*
X198787302Y-97842194D01*
X198787298Y-97842193D01*
X198674033Y-97828688D01*
X198633084Y-97823805D01*
X198626081Y-97824541D01*
X198626080Y-97824541D01*
X198478627Y-97840039D01*
X198478625Y-97840040D01*
X198471627Y-97840775D01*
X198391017Y-97868216D01*
X198324612Y-97890822D01*
X198324609Y-97890823D01*
X198317942Y-97893093D01*
X198179667Y-97978160D01*
X198063675Y-98091748D01*
X197975731Y-98228211D01*
X197920205Y-98380766D01*
X197899858Y-98541833D01*
X195347395Y-98541833D01*
X195337626Y-96763833D01*
X197899858Y-96763833D01*
X197900545Y-96770840D01*
X197900545Y-96770843D01*
X197903233Y-96798256D01*
X197915700Y-96925404D01*
X197966945Y-97079450D01*
X197970592Y-97085473D01*
X197970593Y-97085474D01*
X198047394Y-97212290D01*
X198047397Y-97212294D01*
X198051044Y-97218316D01*
X198163820Y-97335098D01*
X198299665Y-97423993D01*
X198451829Y-97480582D01*
X198458810Y-97481513D01*
X198458812Y-97481514D01*
X198502471Y-97487339D01*
X198612749Y-97502053D01*
X198619760Y-97501415D01*
X198619764Y-97501415D01*
X198767407Y-97487978D01*
X198774428Y-97487339D01*
X198781128Y-97485162D01*
X198781133Y-97485161D01*
X198922129Y-97439349D01*
X198922132Y-97439348D01*
X198928828Y-97437172D01*
X199068277Y-97354043D01*
X199185844Y-97242086D01*
X199198269Y-97223386D01*
X199271790Y-97112727D01*
X199275685Y-97106865D01*
X199333335Y-96955099D01*
X199355929Y-96794333D01*
X199356213Y-96774000D01*
X199338116Y-96612666D01*
X199335799Y-96606012D01*
X199287045Y-96466008D01*
X199287043Y-96466005D01*
X199284726Y-96459350D01*
X199198696Y-96321672D01*
X199190827Y-96313748D01*
X199089265Y-96211474D01*
X199089261Y-96211471D01*
X199084301Y-96206476D01*
X198947228Y-96119486D01*
X198940589Y-96117122D01*
X198940587Y-96117121D01*
X198800923Y-96067389D01*
X198800918Y-96067388D01*
X198794288Y-96065027D01*
X198787302Y-96064194D01*
X198787298Y-96064193D01*
X198674033Y-96050688D01*
X198633084Y-96045805D01*
X198626081Y-96046541D01*
X198626080Y-96046541D01*
X198478627Y-96062039D01*
X198478625Y-96062040D01*
X198471627Y-96062775D01*
X198391017Y-96090216D01*
X198324612Y-96112822D01*
X198324609Y-96112823D01*
X198317942Y-96115093D01*
X198179667Y-96200160D01*
X198063675Y-96313748D01*
X197975731Y-96450211D01*
X197973321Y-96456831D01*
X197973321Y-96456832D01*
X197937582Y-96555024D01*
X197920205Y-96602766D01*
X197899858Y-96763833D01*
X195337626Y-96763833D01*
X195326547Y-94747467D01*
X197899858Y-94747467D01*
X197900545Y-94754474D01*
X197900545Y-94754477D01*
X197903233Y-94781890D01*
X197915700Y-94909038D01*
X197966945Y-95063084D01*
X197970592Y-95069107D01*
X197970593Y-95069108D01*
X198047394Y-95195924D01*
X198047397Y-95195928D01*
X198051044Y-95201950D01*
X198163820Y-95318732D01*
X198299665Y-95407627D01*
X198451829Y-95464216D01*
X198458810Y-95465147D01*
X198458812Y-95465148D01*
X198502471Y-95470973D01*
X198612749Y-95485687D01*
X198619760Y-95485049D01*
X198619764Y-95485049D01*
X198767407Y-95471612D01*
X198774428Y-95470973D01*
X198781128Y-95468796D01*
X198781133Y-95468795D01*
X198922129Y-95422983D01*
X198922132Y-95422982D01*
X198928828Y-95420806D01*
X199068277Y-95337677D01*
X199185844Y-95225720D01*
X199198269Y-95207020D01*
X199271790Y-95096361D01*
X199275685Y-95090499D01*
X199333335Y-94938733D01*
X199355929Y-94777967D01*
X199356213Y-94757634D01*
X199338116Y-94596300D01*
X199335799Y-94589646D01*
X199287045Y-94449642D01*
X199287043Y-94449639D01*
X199284726Y-94442984D01*
X199198696Y-94305306D01*
X199190827Y-94297382D01*
X199089265Y-94195108D01*
X199089261Y-94195105D01*
X199084301Y-94190110D01*
X198947228Y-94103120D01*
X198940589Y-94100756D01*
X198940587Y-94100755D01*
X198800923Y-94051023D01*
X198800918Y-94051022D01*
X198794288Y-94048661D01*
X198787302Y-94047828D01*
X198787298Y-94047827D01*
X198674033Y-94034322D01*
X198633084Y-94029439D01*
X198626081Y-94030175D01*
X198626080Y-94030175D01*
X198478627Y-94045673D01*
X198478625Y-94045674D01*
X198471627Y-94046409D01*
X198391017Y-94073850D01*
X198324612Y-94096456D01*
X198324609Y-94096457D01*
X198317942Y-94098727D01*
X198179667Y-94183794D01*
X198063675Y-94297382D01*
X197975731Y-94433845D01*
X197920205Y-94586400D01*
X197899858Y-94747467D01*
X195326547Y-94747467D01*
X195315382Y-92715467D01*
X197899858Y-92715467D01*
X197900545Y-92722474D01*
X197900545Y-92722477D01*
X197903233Y-92749890D01*
X197915700Y-92877038D01*
X197966945Y-93031084D01*
X197970592Y-93037107D01*
X197970593Y-93037108D01*
X198047394Y-93163924D01*
X198047397Y-93163928D01*
X198051044Y-93169950D01*
X198163820Y-93286732D01*
X198299665Y-93375627D01*
X198451829Y-93432216D01*
X198458810Y-93433147D01*
X198458812Y-93433148D01*
X198502471Y-93438973D01*
X198612749Y-93453687D01*
X198619760Y-93453049D01*
X198619764Y-93453049D01*
X198767407Y-93439612D01*
X198774428Y-93438973D01*
X198781128Y-93436796D01*
X198781133Y-93436795D01*
X198922129Y-93390983D01*
X198922132Y-93390982D01*
X198928828Y-93388806D01*
X199068277Y-93305677D01*
X199177565Y-93201604D01*
X199180744Y-93198577D01*
X199180745Y-93198575D01*
X199185844Y-93193720D01*
X199198269Y-93175020D01*
X199245379Y-93104113D01*
X199275685Y-93058499D01*
X199333335Y-92906733D01*
X199355929Y-92745967D01*
X199356213Y-92725634D01*
X199338116Y-92564300D01*
X199335799Y-92557646D01*
X199287045Y-92417642D01*
X199287043Y-92417639D01*
X199284726Y-92410984D01*
X199198696Y-92273306D01*
X199190827Y-92265382D01*
X199089265Y-92163108D01*
X199089261Y-92163105D01*
X199084301Y-92158110D01*
X198947228Y-92071120D01*
X198940589Y-92068756D01*
X198940587Y-92068755D01*
X198800923Y-92019023D01*
X198800918Y-92019022D01*
X198794288Y-92016661D01*
X198787302Y-92015828D01*
X198787298Y-92015827D01*
X198674033Y-92002322D01*
X198633084Y-91997439D01*
X198626081Y-91998175D01*
X198626080Y-91998175D01*
X198478627Y-92013673D01*
X198478625Y-92013674D01*
X198471627Y-92014409D01*
X198391017Y-92041850D01*
X198324612Y-92064456D01*
X198324609Y-92064457D01*
X198317942Y-92066727D01*
X198179667Y-92151794D01*
X198063675Y-92265382D01*
X197975731Y-92401845D01*
X197920205Y-92554400D01*
X197899858Y-92715467D01*
X195315382Y-92715467D01*
X195300696Y-90042692D01*
X195320323Y-89974463D01*
X195373723Y-89927676D01*
X195426694Y-89916000D01*
X197036980Y-89916000D01*
X197105101Y-89936002D01*
G37*
%TD.AperFunction*%
%TD*%
%TA.AperFunction,Conductor*%
%TO.N,GND*%
G36*
X120898115Y-89820002D02*
G01*
X120944608Y-89873658D01*
X120953291Y-89913754D01*
X120952857Y-89915642D01*
X120953729Y-89919496D01*
X120971608Y-90146670D01*
X121025623Y-90371660D01*
X121027516Y-90376231D01*
X121027517Y-90376233D01*
X121070202Y-90479282D01*
X121114170Y-90585430D01*
X121235067Y-90782716D01*
X121385339Y-90958661D01*
X121561284Y-91108933D01*
X121758570Y-91229830D01*
X121763140Y-91231723D01*
X121763144Y-91231725D01*
X121967767Y-91316483D01*
X121967769Y-91316484D01*
X121972340Y-91318377D01*
X122050104Y-91337046D01*
X122192517Y-91371237D01*
X122192523Y-91371238D01*
X122197330Y-91372392D01*
X122428000Y-91390546D01*
X122658670Y-91372392D01*
X122663477Y-91371238D01*
X122663483Y-91371237D01*
X122805896Y-91337046D01*
X122883660Y-91318377D01*
X122888231Y-91316484D01*
X122888233Y-91316483D01*
X123092856Y-91231725D01*
X123092860Y-91231723D01*
X123097430Y-91229830D01*
X123294716Y-91108933D01*
X123470661Y-90958661D01*
X123620933Y-90782716D01*
X123741830Y-90585430D01*
X123785799Y-90479282D01*
X123828483Y-90376233D01*
X123828484Y-90376231D01*
X123830377Y-90371660D01*
X123884392Y-90146670D01*
X123902154Y-89920977D01*
X123902908Y-89921036D01*
X123902649Y-89918844D01*
X123903142Y-89916716D01*
X123903143Y-89916000D01*
X123902658Y-89913872D01*
X123902921Y-89911584D01*
X123930586Y-89846199D01*
X123989209Y-89806150D01*
X124028094Y-89800000D01*
X125674000Y-89800000D01*
X125742121Y-89820002D01*
X125788614Y-89873658D01*
X125800000Y-89926000D01*
X125800000Y-107874000D01*
X125779998Y-107942121D01*
X125726342Y-107988614D01*
X125674000Y-108000000D01*
X123594223Y-108000000D01*
X123526102Y-107979998D01*
X123498412Y-107955831D01*
X123473869Y-107927095D01*
X123470661Y-107923339D01*
X123294716Y-107773067D01*
X123097430Y-107652170D01*
X123092860Y-107650277D01*
X123092856Y-107650275D01*
X122888233Y-107565517D01*
X122888231Y-107565516D01*
X122883660Y-107563623D01*
X122805896Y-107544954D01*
X122663483Y-107510763D01*
X122663477Y-107510762D01*
X122658670Y-107509608D01*
X122428000Y-107491454D01*
X122197330Y-107509608D01*
X122192523Y-107510762D01*
X122192517Y-107510763D01*
X122050104Y-107544954D01*
X121972340Y-107563623D01*
X121967769Y-107565516D01*
X121967767Y-107565517D01*
X121763144Y-107650275D01*
X121763140Y-107650277D01*
X121758570Y-107652170D01*
X121561284Y-107773067D01*
X121385339Y-107923339D01*
X121382131Y-107927095D01*
X121357588Y-107955831D01*
X121298137Y-107994640D01*
X121261777Y-108000000D01*
X119325309Y-108000000D01*
X119257188Y-107979998D01*
X119210695Y-107926342D01*
X119199311Y-107874692D01*
X119199308Y-107874000D01*
X119189901Y-106161833D01*
X121699858Y-106161833D01*
X121700545Y-106168840D01*
X121700545Y-106168843D01*
X121703233Y-106196256D01*
X121715700Y-106323404D01*
X121766945Y-106477450D01*
X121770592Y-106483473D01*
X121770593Y-106483474D01*
X121847394Y-106610290D01*
X121847397Y-106610294D01*
X121851044Y-106616316D01*
X121963820Y-106733098D01*
X122099665Y-106821993D01*
X122251829Y-106878582D01*
X122258810Y-106879513D01*
X122258812Y-106879514D01*
X122302471Y-106885339D01*
X122412749Y-106900053D01*
X122419760Y-106899415D01*
X122419764Y-106899415D01*
X122567407Y-106885978D01*
X122574428Y-106885339D01*
X122581128Y-106883162D01*
X122581133Y-106883161D01*
X122722129Y-106837349D01*
X122722132Y-106837348D01*
X122728828Y-106835172D01*
X122868277Y-106752043D01*
X122985844Y-106640086D01*
X122998269Y-106621386D01*
X123071790Y-106510727D01*
X123075685Y-106504865D01*
X123133335Y-106353099D01*
X123155929Y-106192333D01*
X123156213Y-106172000D01*
X123138116Y-106010666D01*
X123135799Y-106004012D01*
X123087045Y-105864008D01*
X123087043Y-105864005D01*
X123084726Y-105857350D01*
X122998696Y-105719672D01*
X122990827Y-105711748D01*
X122889265Y-105609474D01*
X122889261Y-105609471D01*
X122884301Y-105604476D01*
X122747228Y-105517486D01*
X122740589Y-105515122D01*
X122740587Y-105515121D01*
X122600923Y-105465389D01*
X122600918Y-105465388D01*
X122594288Y-105463027D01*
X122587302Y-105462194D01*
X122587298Y-105462193D01*
X122474033Y-105448688D01*
X122433084Y-105443805D01*
X122426081Y-105444541D01*
X122426080Y-105444541D01*
X122278627Y-105460039D01*
X122278625Y-105460040D01*
X122271627Y-105460775D01*
X122191017Y-105488216D01*
X122124612Y-105510822D01*
X122124609Y-105510823D01*
X122117942Y-105513093D01*
X121979667Y-105598160D01*
X121863675Y-105711748D01*
X121775731Y-105848211D01*
X121720205Y-106000766D01*
X121699858Y-106161833D01*
X119189901Y-106161833D01*
X119178736Y-104129833D01*
X121699858Y-104129833D01*
X121700545Y-104136840D01*
X121700545Y-104136843D01*
X121703233Y-104164256D01*
X121715700Y-104291404D01*
X121766945Y-104445450D01*
X121770592Y-104451473D01*
X121770593Y-104451474D01*
X121847394Y-104578290D01*
X121847397Y-104578294D01*
X121851044Y-104584316D01*
X121963820Y-104701098D01*
X122099665Y-104789993D01*
X122251829Y-104846582D01*
X122258810Y-104847513D01*
X122258812Y-104847514D01*
X122302471Y-104853339D01*
X122412749Y-104868053D01*
X122419760Y-104867415D01*
X122419764Y-104867415D01*
X122567407Y-104853978D01*
X122574428Y-104853339D01*
X122581128Y-104851162D01*
X122581133Y-104851161D01*
X122722129Y-104805349D01*
X122722132Y-104805348D01*
X122728828Y-104803172D01*
X122868277Y-104720043D01*
X122985844Y-104608086D01*
X122998269Y-104589386D01*
X123071790Y-104478727D01*
X123075685Y-104472865D01*
X123133335Y-104321099D01*
X123155929Y-104160333D01*
X123156213Y-104140000D01*
X123138116Y-103978666D01*
X123135799Y-103972012D01*
X123087045Y-103832008D01*
X123087043Y-103832005D01*
X123084726Y-103825350D01*
X122998696Y-103687672D01*
X122990827Y-103679748D01*
X122889265Y-103577474D01*
X122889261Y-103577471D01*
X122884301Y-103572476D01*
X122747228Y-103485486D01*
X122740589Y-103483122D01*
X122740587Y-103483121D01*
X122600923Y-103433389D01*
X122600918Y-103433388D01*
X122594288Y-103431027D01*
X122587302Y-103430194D01*
X122587298Y-103430193D01*
X122474033Y-103416688D01*
X122433084Y-103411805D01*
X122426081Y-103412541D01*
X122426080Y-103412541D01*
X122278627Y-103428039D01*
X122278625Y-103428040D01*
X122271627Y-103428775D01*
X122191017Y-103456216D01*
X122124612Y-103478822D01*
X122124609Y-103478823D01*
X122117942Y-103481093D01*
X121979667Y-103566160D01*
X121863675Y-103679748D01*
X121775731Y-103816211D01*
X121720205Y-103968766D01*
X121699858Y-104129833D01*
X119178736Y-104129833D01*
X119167571Y-102097833D01*
X121699858Y-102097833D01*
X121700545Y-102104840D01*
X121700545Y-102104843D01*
X121703233Y-102132256D01*
X121715700Y-102259404D01*
X121766945Y-102413450D01*
X121770592Y-102419473D01*
X121770593Y-102419474D01*
X121847394Y-102546290D01*
X121847397Y-102546294D01*
X121851044Y-102552316D01*
X121963820Y-102669098D01*
X122099665Y-102757993D01*
X122251829Y-102814582D01*
X122258810Y-102815513D01*
X122258812Y-102815514D01*
X122302471Y-102821339D01*
X122412749Y-102836053D01*
X122419760Y-102835415D01*
X122419764Y-102835415D01*
X122567407Y-102821978D01*
X122574428Y-102821339D01*
X122581128Y-102819162D01*
X122581133Y-102819161D01*
X122722129Y-102773349D01*
X122722132Y-102773348D01*
X122728828Y-102771172D01*
X122868277Y-102688043D01*
X122985844Y-102576086D01*
X122998269Y-102557386D01*
X123071790Y-102446727D01*
X123075685Y-102440865D01*
X123133335Y-102289099D01*
X123155929Y-102128333D01*
X123156213Y-102108000D01*
X123138116Y-101946666D01*
X123135799Y-101940012D01*
X123087045Y-101800008D01*
X123087043Y-101800005D01*
X123084726Y-101793350D01*
X122998696Y-101655672D01*
X122990827Y-101647748D01*
X122889265Y-101545474D01*
X122889261Y-101545471D01*
X122884301Y-101540476D01*
X122747228Y-101453486D01*
X122740589Y-101451122D01*
X122740587Y-101451121D01*
X122600923Y-101401389D01*
X122600918Y-101401388D01*
X122594288Y-101399027D01*
X122587302Y-101398194D01*
X122587298Y-101398193D01*
X122474033Y-101384688D01*
X122433084Y-101379805D01*
X122426081Y-101380541D01*
X122426080Y-101380541D01*
X122278627Y-101396039D01*
X122278625Y-101396040D01*
X122271627Y-101396775D01*
X122191017Y-101424216D01*
X122124612Y-101446822D01*
X122124609Y-101446823D01*
X122117942Y-101449093D01*
X121979667Y-101534160D01*
X121863675Y-101647748D01*
X121775731Y-101784211D01*
X121720205Y-101936766D01*
X121699858Y-102097833D01*
X119167571Y-102097833D01*
X119149428Y-98795833D01*
X121699858Y-98795833D01*
X121700545Y-98802840D01*
X121700545Y-98802843D01*
X121703233Y-98830256D01*
X121715700Y-98957404D01*
X121766945Y-99111450D01*
X121770592Y-99117473D01*
X121770593Y-99117474D01*
X121847394Y-99244290D01*
X121847397Y-99244294D01*
X121851044Y-99250316D01*
X121963820Y-99367098D01*
X122099665Y-99455993D01*
X122251829Y-99512582D01*
X122258810Y-99513513D01*
X122258812Y-99513514D01*
X122302471Y-99519339D01*
X122412749Y-99534053D01*
X122419760Y-99533415D01*
X122419764Y-99533415D01*
X122567407Y-99519978D01*
X122574428Y-99519339D01*
X122581128Y-99517162D01*
X122581133Y-99517161D01*
X122722129Y-99471349D01*
X122722132Y-99471348D01*
X122728828Y-99469172D01*
X122868277Y-99386043D01*
X122985844Y-99274086D01*
X122998269Y-99255386D01*
X123071790Y-99144727D01*
X123075685Y-99138865D01*
X123133335Y-98987099D01*
X123155929Y-98826333D01*
X123156213Y-98806000D01*
X123138116Y-98644666D01*
X123135799Y-98638012D01*
X123087045Y-98498008D01*
X123087043Y-98498005D01*
X123084726Y-98491350D01*
X122998696Y-98353672D01*
X122990827Y-98345748D01*
X122889265Y-98243474D01*
X122889261Y-98243471D01*
X122884301Y-98238476D01*
X122747228Y-98151486D01*
X122740589Y-98149122D01*
X122740587Y-98149121D01*
X122600923Y-98099389D01*
X122600918Y-98099388D01*
X122594288Y-98097027D01*
X122587302Y-98096194D01*
X122587298Y-98096193D01*
X122474033Y-98082688D01*
X122433084Y-98077805D01*
X122426081Y-98078541D01*
X122426080Y-98078541D01*
X122278627Y-98094039D01*
X122278625Y-98094040D01*
X122271627Y-98094775D01*
X122191017Y-98122216D01*
X122124612Y-98144822D01*
X122124609Y-98144823D01*
X122117942Y-98147093D01*
X121979667Y-98232160D01*
X121863675Y-98345748D01*
X121775731Y-98482211D01*
X121720205Y-98634766D01*
X121699858Y-98795833D01*
X119149428Y-98795833D01*
X119138263Y-96763833D01*
X121699858Y-96763833D01*
X121700545Y-96770840D01*
X121700545Y-96770843D01*
X121703233Y-96798256D01*
X121715700Y-96925404D01*
X121766945Y-97079450D01*
X121770592Y-97085473D01*
X121770593Y-97085474D01*
X121847394Y-97212290D01*
X121847397Y-97212294D01*
X121851044Y-97218316D01*
X121963820Y-97335098D01*
X122099665Y-97423993D01*
X122251829Y-97480582D01*
X122258810Y-97481513D01*
X122258812Y-97481514D01*
X122302471Y-97487339D01*
X122412749Y-97502053D01*
X122419760Y-97501415D01*
X122419764Y-97501415D01*
X122567407Y-97487978D01*
X122574428Y-97487339D01*
X122581128Y-97485162D01*
X122581133Y-97485161D01*
X122722129Y-97439349D01*
X122722132Y-97439348D01*
X122728828Y-97437172D01*
X122868277Y-97354043D01*
X122985844Y-97242086D01*
X122998269Y-97223386D01*
X123071790Y-97112727D01*
X123075685Y-97106865D01*
X123133335Y-96955099D01*
X123155929Y-96794333D01*
X123156213Y-96774000D01*
X123138116Y-96612666D01*
X123135799Y-96606012D01*
X123087045Y-96466008D01*
X123087043Y-96466005D01*
X123084726Y-96459350D01*
X122998696Y-96321672D01*
X122990827Y-96313748D01*
X122889265Y-96211474D01*
X122889261Y-96211471D01*
X122884301Y-96206476D01*
X122747228Y-96119486D01*
X122740589Y-96117122D01*
X122740587Y-96117121D01*
X122600923Y-96067389D01*
X122600918Y-96067388D01*
X122594288Y-96065027D01*
X122587302Y-96064194D01*
X122587298Y-96064193D01*
X122474033Y-96050688D01*
X122433084Y-96045805D01*
X122426081Y-96046541D01*
X122426080Y-96046541D01*
X122278627Y-96062039D01*
X122278625Y-96062040D01*
X122271627Y-96062775D01*
X122191017Y-96090216D01*
X122124612Y-96112822D01*
X122124609Y-96112823D01*
X122117942Y-96115093D01*
X121979667Y-96200160D01*
X121863675Y-96313748D01*
X121775731Y-96450211D01*
X121720205Y-96602766D01*
X121699858Y-96763833D01*
X119138263Y-96763833D01*
X119127098Y-94731833D01*
X121699858Y-94731833D01*
X121700545Y-94738840D01*
X121700545Y-94738843D01*
X121703233Y-94766256D01*
X121715700Y-94893404D01*
X121766945Y-95047450D01*
X121770592Y-95053473D01*
X121770593Y-95053474D01*
X121847394Y-95180290D01*
X121847397Y-95180294D01*
X121851044Y-95186316D01*
X121963820Y-95303098D01*
X122099665Y-95391993D01*
X122251829Y-95448582D01*
X122258810Y-95449513D01*
X122258812Y-95449514D01*
X122302471Y-95455339D01*
X122412749Y-95470053D01*
X122419760Y-95469415D01*
X122419764Y-95469415D01*
X122567407Y-95455978D01*
X122574428Y-95455339D01*
X122581128Y-95453162D01*
X122581133Y-95453161D01*
X122722129Y-95407349D01*
X122722132Y-95407348D01*
X122728828Y-95405172D01*
X122868277Y-95322043D01*
X122985844Y-95210086D01*
X122998269Y-95191386D01*
X123071790Y-95080727D01*
X123075685Y-95074865D01*
X123133335Y-94923099D01*
X123155929Y-94762333D01*
X123156213Y-94742000D01*
X123138116Y-94580666D01*
X123135799Y-94574012D01*
X123087045Y-94434008D01*
X123087043Y-94434005D01*
X123084726Y-94427350D01*
X122998696Y-94289672D01*
X122990827Y-94281748D01*
X122889265Y-94179474D01*
X122889261Y-94179471D01*
X122884301Y-94174476D01*
X122747228Y-94087486D01*
X122740589Y-94085122D01*
X122740587Y-94085121D01*
X122600923Y-94035389D01*
X122600918Y-94035388D01*
X122594288Y-94033027D01*
X122587302Y-94032194D01*
X122587298Y-94032193D01*
X122474033Y-94018688D01*
X122433084Y-94013805D01*
X122426081Y-94014541D01*
X122426080Y-94014541D01*
X122278627Y-94030039D01*
X122278625Y-94030040D01*
X122271627Y-94030775D01*
X122191017Y-94058216D01*
X122124612Y-94080822D01*
X122124609Y-94080823D01*
X122117942Y-94083093D01*
X121979667Y-94168160D01*
X121863675Y-94281748D01*
X121775731Y-94418211D01*
X121720205Y-94570766D01*
X121699858Y-94731833D01*
X119127098Y-94731833D01*
X119115933Y-92699833D01*
X121699858Y-92699833D01*
X121700545Y-92706840D01*
X121700545Y-92706843D01*
X121703233Y-92734256D01*
X121715700Y-92861404D01*
X121766945Y-93015450D01*
X121770592Y-93021473D01*
X121770593Y-93021474D01*
X121847394Y-93148290D01*
X121847397Y-93148294D01*
X121851044Y-93154316D01*
X121963820Y-93271098D01*
X122099665Y-93359993D01*
X122251829Y-93416582D01*
X122258810Y-93417513D01*
X122258812Y-93417514D01*
X122302471Y-93423339D01*
X122412749Y-93438053D01*
X122419760Y-93437415D01*
X122419764Y-93437415D01*
X122567407Y-93423978D01*
X122574428Y-93423339D01*
X122581128Y-93421162D01*
X122581133Y-93421161D01*
X122722129Y-93375349D01*
X122722132Y-93375348D01*
X122728828Y-93373172D01*
X122868277Y-93290043D01*
X122985844Y-93178086D01*
X122998269Y-93159386D01*
X123071790Y-93048727D01*
X123075685Y-93042865D01*
X123133335Y-92891099D01*
X123155929Y-92730333D01*
X123156213Y-92710000D01*
X123138116Y-92548666D01*
X123135799Y-92542012D01*
X123087045Y-92402008D01*
X123087043Y-92402005D01*
X123084726Y-92395350D01*
X122998696Y-92257672D01*
X122990827Y-92249748D01*
X122889265Y-92147474D01*
X122889261Y-92147471D01*
X122884301Y-92142476D01*
X122747228Y-92055486D01*
X122740589Y-92053122D01*
X122740587Y-92053121D01*
X122600923Y-92003389D01*
X122600918Y-92003388D01*
X122594288Y-92001027D01*
X122587302Y-92000194D01*
X122587298Y-92000193D01*
X122474033Y-91986688D01*
X122433084Y-91981805D01*
X122426081Y-91982541D01*
X122426080Y-91982541D01*
X122278627Y-91998039D01*
X122278625Y-91998040D01*
X122271627Y-91998775D01*
X122191017Y-92026216D01*
X122124612Y-92048822D01*
X122124609Y-92048823D01*
X122117942Y-92051093D01*
X121979667Y-92136160D01*
X121863675Y-92249748D01*
X121775731Y-92386211D01*
X121720205Y-92538766D01*
X121699858Y-92699833D01*
X119115933Y-92699833D01*
X119100696Y-89926692D01*
X119120323Y-89858463D01*
X119173723Y-89811676D01*
X119226694Y-89800000D01*
X120829994Y-89800000D01*
X120898115Y-89820002D01*
G37*
%TD.AperFunction*%
%TD*%
%TA.AperFunction,Conductor*%
%TO.N,GND*%
G36*
X159005101Y-89936002D02*
G01*
X159051594Y-89989658D01*
X159062592Y-90032114D01*
X159071608Y-90146670D01*
X159125623Y-90371660D01*
X159127516Y-90376231D01*
X159127517Y-90376233D01*
X159170202Y-90479282D01*
X159214170Y-90585430D01*
X159335067Y-90782716D01*
X159485339Y-90958661D01*
X159661284Y-91108933D01*
X159858570Y-91229830D01*
X159863140Y-91231723D01*
X159863144Y-91231725D01*
X160067767Y-91316483D01*
X160067769Y-91316484D01*
X160072340Y-91318377D01*
X160150104Y-91337046D01*
X160292517Y-91371237D01*
X160292523Y-91371238D01*
X160297330Y-91372392D01*
X160528000Y-91390546D01*
X160758670Y-91372392D01*
X160763477Y-91371238D01*
X160763483Y-91371237D01*
X160905896Y-91337046D01*
X160983660Y-91318377D01*
X160988231Y-91316484D01*
X160988233Y-91316483D01*
X161192856Y-91231725D01*
X161192860Y-91231723D01*
X161197430Y-91229830D01*
X161394716Y-91108933D01*
X161570661Y-90958661D01*
X161720933Y-90782716D01*
X161841830Y-90585430D01*
X161885799Y-90479282D01*
X161928483Y-90376233D01*
X161928484Y-90376231D01*
X161930377Y-90371660D01*
X161984392Y-90146670D01*
X161993408Y-90032114D01*
X162018694Y-89965773D01*
X162075832Y-89923633D01*
X162119020Y-89916000D01*
X163774000Y-89916000D01*
X163842121Y-89936002D01*
X163888614Y-89989658D01*
X163900000Y-90042000D01*
X163900000Y-96469353D01*
X163886290Y-96523936D01*
X163886602Y-96524058D01*
X163883843Y-96531134D01*
X163883842Y-96531136D01*
X163863669Y-96582877D01*
X163861114Y-96588956D01*
X163835134Y-96646495D01*
X163833749Y-96653966D01*
X163832725Y-96657234D01*
X163828612Y-96671675D01*
X163827772Y-96674948D01*
X163825013Y-96682024D01*
X163824022Y-96689554D01*
X163816773Y-96744617D01*
X163815741Y-96751134D01*
X163804237Y-96813203D01*
X163804674Y-96820783D01*
X163804674Y-96820784D01*
X163807780Y-96874655D01*
X163807989Y-96881907D01*
X163807989Y-99232792D01*
X163807697Y-99241362D01*
X163807087Y-99250316D01*
X163803811Y-99298363D01*
X163805116Y-99305839D01*
X163805116Y-99305842D01*
X163814667Y-99360565D01*
X163815630Y-99367091D01*
X163823213Y-99429753D01*
X163825898Y-99436860D01*
X163826707Y-99440153D01*
X163830666Y-99454624D01*
X163831655Y-99457900D01*
X163832962Y-99465387D01*
X163836017Y-99472346D01*
X163836017Y-99472347D01*
X163858336Y-99523193D01*
X163860828Y-99529299D01*
X163862625Y-99534053D01*
X163883144Y-99588356D01*
X163885976Y-99592476D01*
X163900000Y-99649579D01*
X163900000Y-107990000D01*
X163879998Y-108058121D01*
X163826342Y-108104614D01*
X163774000Y-108116000D01*
X161793297Y-108116000D01*
X161725176Y-108095998D01*
X161697486Y-108071831D01*
X161573869Y-107927095D01*
X161570661Y-107923339D01*
X161394716Y-107773067D01*
X161197430Y-107652170D01*
X161192860Y-107650277D01*
X161192856Y-107650275D01*
X160988233Y-107565517D01*
X160988231Y-107565516D01*
X160983660Y-107563623D01*
X160905896Y-107544954D01*
X160763483Y-107510763D01*
X160763477Y-107510762D01*
X160758670Y-107509608D01*
X160528000Y-107491454D01*
X160297330Y-107509608D01*
X160292523Y-107510762D01*
X160292517Y-107510763D01*
X160150104Y-107544954D01*
X160072340Y-107563623D01*
X160067769Y-107565516D01*
X160067767Y-107565517D01*
X159863144Y-107650275D01*
X159863140Y-107650277D01*
X159858570Y-107652170D01*
X159661284Y-107773067D01*
X159485339Y-107923339D01*
X159482131Y-107927095D01*
X159358514Y-108071831D01*
X159299063Y-108110640D01*
X159262703Y-108116000D01*
X157425309Y-108116000D01*
X157357188Y-108095998D01*
X157310695Y-108042342D01*
X157299311Y-107990692D01*
X157299308Y-107990000D01*
X157289263Y-106161833D01*
X159799858Y-106161833D01*
X159800545Y-106168840D01*
X159800545Y-106168843D01*
X159803233Y-106196256D01*
X159815700Y-106323404D01*
X159866945Y-106477450D01*
X159870592Y-106483473D01*
X159870593Y-106483474D01*
X159947394Y-106610290D01*
X159947397Y-106610294D01*
X159951044Y-106616316D01*
X160063820Y-106733098D01*
X160199665Y-106821993D01*
X160351829Y-106878582D01*
X160358810Y-106879513D01*
X160358812Y-106879514D01*
X160402471Y-106885339D01*
X160512749Y-106900053D01*
X160519760Y-106899415D01*
X160519764Y-106899415D01*
X160667407Y-106885978D01*
X160674428Y-106885339D01*
X160681128Y-106883162D01*
X160681133Y-106883161D01*
X160822129Y-106837349D01*
X160822132Y-106837348D01*
X160828828Y-106835172D01*
X160968277Y-106752043D01*
X161085844Y-106640086D01*
X161098269Y-106621386D01*
X161171790Y-106510727D01*
X161175685Y-106504865D01*
X161233335Y-106353099D01*
X161255929Y-106192333D01*
X161256213Y-106172000D01*
X161238116Y-106010666D01*
X161235799Y-106004012D01*
X161187045Y-105864008D01*
X161187043Y-105864005D01*
X161184726Y-105857350D01*
X161098696Y-105719672D01*
X161090827Y-105711748D01*
X160989265Y-105609474D01*
X160989261Y-105609471D01*
X160984301Y-105604476D01*
X160847228Y-105517486D01*
X160840589Y-105515122D01*
X160840587Y-105515121D01*
X160700923Y-105465389D01*
X160700918Y-105465388D01*
X160694288Y-105463027D01*
X160687302Y-105462194D01*
X160687298Y-105462193D01*
X160574033Y-105448688D01*
X160533084Y-105443805D01*
X160526081Y-105444541D01*
X160526080Y-105444541D01*
X160378627Y-105460039D01*
X160378625Y-105460040D01*
X160371627Y-105460775D01*
X160291017Y-105488216D01*
X160224612Y-105510822D01*
X160224609Y-105510823D01*
X160217942Y-105513093D01*
X160079667Y-105598160D01*
X159963675Y-105711748D01*
X159875731Y-105848211D01*
X159820205Y-106000766D01*
X159799858Y-106161833D01*
X157289263Y-106161833D01*
X157278099Y-104129833D01*
X159799858Y-104129833D01*
X159800545Y-104136840D01*
X159800545Y-104136843D01*
X159803233Y-104164256D01*
X159815700Y-104291404D01*
X159866945Y-104445450D01*
X159870592Y-104451473D01*
X159870593Y-104451474D01*
X159947394Y-104578290D01*
X159947397Y-104578294D01*
X159951044Y-104584316D01*
X160063820Y-104701098D01*
X160199665Y-104789993D01*
X160351829Y-104846582D01*
X160358810Y-104847513D01*
X160358812Y-104847514D01*
X160402471Y-104853339D01*
X160512749Y-104868053D01*
X160519760Y-104867415D01*
X160519764Y-104867415D01*
X160667407Y-104853978D01*
X160674428Y-104853339D01*
X160681128Y-104851162D01*
X160681133Y-104851161D01*
X160822129Y-104805349D01*
X160822132Y-104805348D01*
X160828828Y-104803172D01*
X160968277Y-104720043D01*
X161085844Y-104608086D01*
X161098269Y-104589386D01*
X161171790Y-104478727D01*
X161175685Y-104472865D01*
X161233335Y-104321099D01*
X161255929Y-104160333D01*
X161256213Y-104140000D01*
X161238116Y-103978666D01*
X161235799Y-103972012D01*
X161187045Y-103832008D01*
X161187043Y-103832005D01*
X161184726Y-103825350D01*
X161098696Y-103687672D01*
X161090827Y-103679748D01*
X160989265Y-103577474D01*
X160989261Y-103577471D01*
X160984301Y-103572476D01*
X160847228Y-103485486D01*
X160840589Y-103483122D01*
X160840587Y-103483121D01*
X160700923Y-103433389D01*
X160700918Y-103433388D01*
X160694288Y-103431027D01*
X160687302Y-103430194D01*
X160687298Y-103430193D01*
X160574033Y-103416688D01*
X160533084Y-103411805D01*
X160526081Y-103412541D01*
X160526080Y-103412541D01*
X160378627Y-103428039D01*
X160378625Y-103428040D01*
X160371627Y-103428775D01*
X160291017Y-103456216D01*
X160224612Y-103478822D01*
X160224609Y-103478823D01*
X160217942Y-103481093D01*
X160079667Y-103566160D01*
X159963675Y-103679748D01*
X159875731Y-103816211D01*
X159820205Y-103968766D01*
X159799858Y-104129833D01*
X157278099Y-104129833D01*
X157266934Y-102097833D01*
X159799858Y-102097833D01*
X159800545Y-102104840D01*
X159800545Y-102104843D01*
X159803233Y-102132256D01*
X159815700Y-102259404D01*
X159866945Y-102413450D01*
X159870592Y-102419473D01*
X159870593Y-102419474D01*
X159947394Y-102546290D01*
X159947397Y-102546294D01*
X159951044Y-102552316D01*
X160063820Y-102669098D01*
X160199665Y-102757993D01*
X160351829Y-102814582D01*
X160358810Y-102815513D01*
X160358812Y-102815514D01*
X160402471Y-102821339D01*
X160512749Y-102836053D01*
X160519760Y-102835415D01*
X160519764Y-102835415D01*
X160667407Y-102821978D01*
X160674428Y-102821339D01*
X160681128Y-102819162D01*
X160681133Y-102819161D01*
X160822129Y-102773349D01*
X160822132Y-102773348D01*
X160828828Y-102771172D01*
X160968277Y-102688043D01*
X161085844Y-102576086D01*
X161098269Y-102557386D01*
X161171790Y-102446727D01*
X161175685Y-102440865D01*
X161233335Y-102289099D01*
X161255929Y-102128333D01*
X161256213Y-102108000D01*
X161238116Y-101946666D01*
X161235799Y-101940012D01*
X161187045Y-101800008D01*
X161187043Y-101800005D01*
X161184726Y-101793350D01*
X161098696Y-101655672D01*
X161090827Y-101647748D01*
X160989265Y-101545474D01*
X160989261Y-101545471D01*
X160984301Y-101540476D01*
X160847228Y-101453486D01*
X160840589Y-101451122D01*
X160840587Y-101451121D01*
X160700923Y-101401389D01*
X160700918Y-101401388D01*
X160694288Y-101399027D01*
X160687302Y-101398194D01*
X160687298Y-101398193D01*
X160574033Y-101384688D01*
X160533084Y-101379805D01*
X160526081Y-101380541D01*
X160526080Y-101380541D01*
X160378627Y-101396039D01*
X160378625Y-101396040D01*
X160371627Y-101396775D01*
X160291017Y-101424216D01*
X160224612Y-101446822D01*
X160224609Y-101446823D01*
X160217942Y-101449093D01*
X160079667Y-101534160D01*
X159963675Y-101647748D01*
X159875731Y-101784211D01*
X159820205Y-101936766D01*
X159799858Y-102097833D01*
X157266934Y-102097833D01*
X157248791Y-98795833D01*
X159799858Y-98795833D01*
X159800545Y-98802840D01*
X159800545Y-98802843D01*
X159803233Y-98830256D01*
X159815700Y-98957404D01*
X159866945Y-99111450D01*
X159870592Y-99117473D01*
X159870593Y-99117474D01*
X159947394Y-99244290D01*
X159947397Y-99244294D01*
X159951044Y-99250316D01*
X160063820Y-99367098D01*
X160199665Y-99455993D01*
X160351829Y-99512582D01*
X160358810Y-99513513D01*
X160358812Y-99513514D01*
X160402471Y-99519339D01*
X160512749Y-99534053D01*
X160519760Y-99533415D01*
X160519764Y-99533415D01*
X160667407Y-99519978D01*
X160674428Y-99519339D01*
X160681128Y-99517162D01*
X160681133Y-99517161D01*
X160822129Y-99471349D01*
X160822132Y-99471348D01*
X160828828Y-99469172D01*
X160968277Y-99386043D01*
X161085844Y-99274086D01*
X161098269Y-99255386D01*
X161171790Y-99144727D01*
X161175685Y-99138865D01*
X161233335Y-98987099D01*
X161255929Y-98826333D01*
X161256213Y-98806000D01*
X161238116Y-98644666D01*
X161235799Y-98638012D01*
X161187045Y-98498008D01*
X161187043Y-98498005D01*
X161184726Y-98491350D01*
X161098696Y-98353672D01*
X161090827Y-98345748D01*
X160989265Y-98243474D01*
X160989261Y-98243471D01*
X160984301Y-98238476D01*
X160847228Y-98151486D01*
X160840589Y-98149122D01*
X160840587Y-98149121D01*
X160700923Y-98099389D01*
X160700918Y-98099388D01*
X160694288Y-98097027D01*
X160687302Y-98096194D01*
X160687298Y-98096193D01*
X160574033Y-98082688D01*
X160533084Y-98077805D01*
X160526081Y-98078541D01*
X160526080Y-98078541D01*
X160378627Y-98094039D01*
X160378625Y-98094040D01*
X160371627Y-98094775D01*
X160291017Y-98122216D01*
X160224612Y-98144822D01*
X160224609Y-98144823D01*
X160217942Y-98147093D01*
X160079667Y-98232160D01*
X159963675Y-98345748D01*
X159875731Y-98482211D01*
X159820205Y-98634766D01*
X159799858Y-98795833D01*
X157248791Y-98795833D01*
X157237626Y-96763833D01*
X159799858Y-96763833D01*
X159800545Y-96770840D01*
X159800545Y-96770843D01*
X159804699Y-96813203D01*
X159815700Y-96925404D01*
X159866945Y-97079450D01*
X159870592Y-97085473D01*
X159870593Y-97085474D01*
X159947394Y-97212290D01*
X159947397Y-97212294D01*
X159951044Y-97218316D01*
X160063820Y-97335098D01*
X160199665Y-97423993D01*
X160351829Y-97480582D01*
X160358810Y-97481513D01*
X160358812Y-97481514D01*
X160402471Y-97487339D01*
X160512749Y-97502053D01*
X160519760Y-97501415D01*
X160519764Y-97501415D01*
X160667407Y-97487978D01*
X160674428Y-97487339D01*
X160681128Y-97485162D01*
X160681133Y-97485161D01*
X160822129Y-97439349D01*
X160822132Y-97439348D01*
X160828828Y-97437172D01*
X160968277Y-97354043D01*
X161085844Y-97242086D01*
X161098269Y-97223386D01*
X161171790Y-97112727D01*
X161175685Y-97106865D01*
X161233335Y-96955099D01*
X161253277Y-96813203D01*
X161255378Y-96798256D01*
X161255378Y-96798251D01*
X161255929Y-96794333D01*
X161256213Y-96774000D01*
X161238116Y-96612666D01*
X161235799Y-96606012D01*
X161187045Y-96466008D01*
X161187043Y-96466005D01*
X161184726Y-96459350D01*
X161098696Y-96321672D01*
X161090827Y-96313748D01*
X160989265Y-96211474D01*
X160989261Y-96211471D01*
X160984301Y-96206476D01*
X160847228Y-96119486D01*
X160840589Y-96117122D01*
X160840587Y-96117121D01*
X160700923Y-96067389D01*
X160700918Y-96067388D01*
X160694288Y-96065027D01*
X160687302Y-96064194D01*
X160687298Y-96064193D01*
X160574033Y-96050688D01*
X160533084Y-96045805D01*
X160526081Y-96046541D01*
X160526080Y-96046541D01*
X160378627Y-96062039D01*
X160378625Y-96062040D01*
X160371627Y-96062775D01*
X160291017Y-96090216D01*
X160224612Y-96112822D01*
X160224609Y-96112823D01*
X160217942Y-96115093D01*
X160079667Y-96200160D01*
X159963675Y-96313748D01*
X159875731Y-96450211D01*
X159873321Y-96456831D01*
X159873321Y-96456832D01*
X159826327Y-96585947D01*
X159820205Y-96602766D01*
X159799858Y-96763833D01*
X157237626Y-96763833D01*
X157226547Y-94747467D01*
X159799858Y-94747467D01*
X159800545Y-94754474D01*
X159800545Y-94754477D01*
X159803233Y-94781890D01*
X159815700Y-94909038D01*
X159866945Y-95063084D01*
X159870592Y-95069107D01*
X159870593Y-95069108D01*
X159947394Y-95195924D01*
X159947397Y-95195928D01*
X159951044Y-95201950D01*
X160063820Y-95318732D01*
X160199665Y-95407627D01*
X160351829Y-95464216D01*
X160358810Y-95465147D01*
X160358812Y-95465148D01*
X160402471Y-95470973D01*
X160512749Y-95485687D01*
X160519760Y-95485049D01*
X160519764Y-95485049D01*
X160667407Y-95471612D01*
X160674428Y-95470973D01*
X160681128Y-95468796D01*
X160681133Y-95468795D01*
X160822129Y-95422983D01*
X160822132Y-95422982D01*
X160828828Y-95420806D01*
X160968277Y-95337677D01*
X161028821Y-95280022D01*
X161080744Y-95230577D01*
X161080745Y-95230575D01*
X161085844Y-95225720D01*
X161098269Y-95207020D01*
X161147798Y-95132472D01*
X161175685Y-95090499D01*
X161233335Y-94938733D01*
X161255929Y-94777967D01*
X161256213Y-94757634D01*
X161238116Y-94596300D01*
X161235799Y-94589646D01*
X161187045Y-94449642D01*
X161187043Y-94449639D01*
X161184726Y-94442984D01*
X161098696Y-94305306D01*
X161090827Y-94297382D01*
X160989265Y-94195108D01*
X160989261Y-94195105D01*
X160984301Y-94190110D01*
X160847228Y-94103120D01*
X160840589Y-94100756D01*
X160840587Y-94100755D01*
X160700923Y-94051023D01*
X160700918Y-94051022D01*
X160694288Y-94048661D01*
X160687302Y-94047828D01*
X160687298Y-94047827D01*
X160574033Y-94034322D01*
X160533084Y-94029439D01*
X160526081Y-94030175D01*
X160526080Y-94030175D01*
X160378627Y-94045673D01*
X160378625Y-94045674D01*
X160371627Y-94046409D01*
X160291017Y-94073850D01*
X160224612Y-94096456D01*
X160224609Y-94096457D01*
X160217942Y-94098727D01*
X160079667Y-94183794D01*
X159963675Y-94297382D01*
X159875731Y-94433845D01*
X159820205Y-94586400D01*
X159799858Y-94747467D01*
X157226547Y-94747467D01*
X157215382Y-92715467D01*
X159799858Y-92715467D01*
X159800545Y-92722474D01*
X159800545Y-92722477D01*
X159803233Y-92749890D01*
X159815700Y-92877038D01*
X159866945Y-93031084D01*
X159870592Y-93037107D01*
X159870593Y-93037108D01*
X159947394Y-93163924D01*
X159947397Y-93163928D01*
X159951044Y-93169950D01*
X160063820Y-93286732D01*
X160199665Y-93375627D01*
X160351829Y-93432216D01*
X160358810Y-93433147D01*
X160358812Y-93433148D01*
X160402471Y-93438973D01*
X160512749Y-93453687D01*
X160519760Y-93453049D01*
X160519764Y-93453049D01*
X160667407Y-93439612D01*
X160674428Y-93438973D01*
X160681128Y-93436796D01*
X160681133Y-93436795D01*
X160822129Y-93390983D01*
X160822132Y-93390982D01*
X160828828Y-93388806D01*
X160968277Y-93305677D01*
X161085844Y-93193720D01*
X161098269Y-93175020D01*
X161171790Y-93064361D01*
X161175685Y-93058499D01*
X161233335Y-92906733D01*
X161255929Y-92745967D01*
X161256213Y-92725634D01*
X161238116Y-92564300D01*
X161235799Y-92557646D01*
X161187045Y-92417642D01*
X161187043Y-92417639D01*
X161184726Y-92410984D01*
X161098696Y-92273306D01*
X161090827Y-92265382D01*
X160989265Y-92163108D01*
X160989261Y-92163105D01*
X160984301Y-92158110D01*
X160847228Y-92071120D01*
X160840589Y-92068756D01*
X160840587Y-92068755D01*
X160700923Y-92019023D01*
X160700918Y-92019022D01*
X160694288Y-92016661D01*
X160687302Y-92015828D01*
X160687298Y-92015827D01*
X160574033Y-92002322D01*
X160533084Y-91997439D01*
X160526081Y-91998175D01*
X160526080Y-91998175D01*
X160378627Y-92013673D01*
X160378625Y-92013674D01*
X160371627Y-92014409D01*
X160291017Y-92041850D01*
X160224612Y-92064456D01*
X160224609Y-92064457D01*
X160217942Y-92066727D01*
X160079667Y-92151794D01*
X159963675Y-92265382D01*
X159875731Y-92401845D01*
X159820205Y-92554400D01*
X159799858Y-92715467D01*
X157215382Y-92715467D01*
X157200696Y-90042692D01*
X157220323Y-89974463D01*
X157273723Y-89927676D01*
X157326694Y-89916000D01*
X158936980Y-89916000D01*
X159005101Y-89936002D01*
G37*
%TD.AperFunction*%
%TD*%
%TA.AperFunction,Conductor*%
%TO.N,GND*%
G36*
X235205101Y-89936002D02*
G01*
X235251594Y-89989658D01*
X235262592Y-90032114D01*
X235271608Y-90146670D01*
X235325623Y-90371660D01*
X235327516Y-90376231D01*
X235327517Y-90376233D01*
X235370202Y-90479282D01*
X235414170Y-90585430D01*
X235535067Y-90782716D01*
X235685339Y-90958661D01*
X235861284Y-91108933D01*
X236058570Y-91229830D01*
X236063140Y-91231723D01*
X236063144Y-91231725D01*
X236267767Y-91316483D01*
X236267769Y-91316484D01*
X236272340Y-91318377D01*
X236350104Y-91337046D01*
X236492517Y-91371237D01*
X236492523Y-91371238D01*
X236497330Y-91372392D01*
X236728000Y-91390546D01*
X236958670Y-91372392D01*
X236963477Y-91371238D01*
X236963483Y-91371237D01*
X237105896Y-91337046D01*
X237183660Y-91318377D01*
X237188231Y-91316484D01*
X237188233Y-91316483D01*
X237392856Y-91231725D01*
X237392860Y-91231723D01*
X237397430Y-91229830D01*
X237594716Y-91108933D01*
X237770661Y-90958661D01*
X237920933Y-90782716D01*
X238041830Y-90585430D01*
X238085799Y-90479282D01*
X238128483Y-90376233D01*
X238128484Y-90376231D01*
X238130377Y-90371660D01*
X238184392Y-90146670D01*
X238193408Y-90032114D01*
X238218694Y-89965773D01*
X238275832Y-89923633D01*
X238319020Y-89916000D01*
X239974000Y-89916000D01*
X240042121Y-89936002D01*
X240088614Y-89989658D01*
X240100000Y-90042000D01*
X240100000Y-93116543D01*
X240079998Y-93184664D01*
X240068076Y-93200362D01*
X239963612Y-93317608D01*
X239963610Y-93317612D01*
X239958560Y-93323279D01*
X239879224Y-93473119D01*
X239837919Y-93637559D01*
X239837031Y-93807105D01*
X239876612Y-93971968D01*
X239880093Y-93978712D01*
X239880094Y-93978715D01*
X239946254Y-94106897D01*
X239954375Y-94122631D01*
X239959367Y-94128353D01*
X239959368Y-94128355D01*
X240065831Y-94250396D01*
X240064144Y-94251868D01*
X240095547Y-94302832D01*
X240100000Y-94336032D01*
X240100000Y-107990000D01*
X240079998Y-108058121D01*
X240026342Y-108104614D01*
X239974000Y-108116000D01*
X237993297Y-108116000D01*
X237925176Y-108095998D01*
X237897486Y-108071831D01*
X237773869Y-107927095D01*
X237770661Y-107923339D01*
X237594716Y-107773067D01*
X237397430Y-107652170D01*
X237392860Y-107650277D01*
X237392856Y-107650275D01*
X237188233Y-107565517D01*
X237188231Y-107565516D01*
X237183660Y-107563623D01*
X237105896Y-107544954D01*
X236963483Y-107510763D01*
X236963477Y-107510762D01*
X236958670Y-107509608D01*
X236728000Y-107491454D01*
X236497330Y-107509608D01*
X236492523Y-107510762D01*
X236492517Y-107510763D01*
X236350104Y-107544954D01*
X236272340Y-107563623D01*
X236267769Y-107565516D01*
X236267767Y-107565517D01*
X236063144Y-107650275D01*
X236063140Y-107650277D01*
X236058570Y-107652170D01*
X235861284Y-107773067D01*
X235685339Y-107923339D01*
X235682131Y-107927095D01*
X235558514Y-108071831D01*
X235499063Y-108110640D01*
X235462703Y-108116000D01*
X233625309Y-108116000D01*
X233557188Y-108095998D01*
X233510695Y-108042342D01*
X233499311Y-107990692D01*
X233499308Y-107990000D01*
X233489263Y-106161833D01*
X235999858Y-106161833D01*
X236000545Y-106168840D01*
X236000545Y-106168843D01*
X236003233Y-106196256D01*
X236015700Y-106323404D01*
X236066945Y-106477450D01*
X236070592Y-106483473D01*
X236070593Y-106483474D01*
X236147394Y-106610290D01*
X236147397Y-106610294D01*
X236151044Y-106616316D01*
X236263820Y-106733098D01*
X236399665Y-106821993D01*
X236551829Y-106878582D01*
X236558810Y-106879513D01*
X236558812Y-106879514D01*
X236602471Y-106885339D01*
X236712749Y-106900053D01*
X236719760Y-106899415D01*
X236719764Y-106899415D01*
X236867407Y-106885978D01*
X236874428Y-106885339D01*
X236881128Y-106883162D01*
X236881133Y-106883161D01*
X237022129Y-106837349D01*
X237022132Y-106837348D01*
X237028828Y-106835172D01*
X237168277Y-106752043D01*
X237285844Y-106640086D01*
X237298269Y-106621386D01*
X237371790Y-106510727D01*
X237375685Y-106504865D01*
X237433335Y-106353099D01*
X237455929Y-106192333D01*
X237456213Y-106172000D01*
X237438116Y-106010666D01*
X237435799Y-106004012D01*
X237387045Y-105864008D01*
X237387043Y-105864005D01*
X237384726Y-105857350D01*
X237298696Y-105719672D01*
X237290827Y-105711748D01*
X237189265Y-105609474D01*
X237189261Y-105609471D01*
X237184301Y-105604476D01*
X237047228Y-105517486D01*
X237040589Y-105515122D01*
X237040587Y-105515121D01*
X236900923Y-105465389D01*
X236900918Y-105465388D01*
X236894288Y-105463027D01*
X236887302Y-105462194D01*
X236887298Y-105462193D01*
X236774033Y-105448688D01*
X236733084Y-105443805D01*
X236726081Y-105444541D01*
X236726080Y-105444541D01*
X236578627Y-105460039D01*
X236578625Y-105460040D01*
X236571627Y-105460775D01*
X236491017Y-105488216D01*
X236424612Y-105510822D01*
X236424609Y-105510823D01*
X236417942Y-105513093D01*
X236279667Y-105598160D01*
X236163675Y-105711748D01*
X236075731Y-105848211D01*
X236020205Y-106000766D01*
X235999858Y-106161833D01*
X233489263Y-106161833D01*
X233478098Y-104129833D01*
X235999858Y-104129833D01*
X236000545Y-104136840D01*
X236000545Y-104136843D01*
X236003233Y-104164256D01*
X236015700Y-104291404D01*
X236066945Y-104445450D01*
X236070592Y-104451473D01*
X236070593Y-104451474D01*
X236147394Y-104578290D01*
X236147397Y-104578294D01*
X236151044Y-104584316D01*
X236263820Y-104701098D01*
X236399665Y-104789993D01*
X236551829Y-104846582D01*
X236558810Y-104847513D01*
X236558812Y-104847514D01*
X236602471Y-104853339D01*
X236712749Y-104868053D01*
X236719760Y-104867415D01*
X236719764Y-104867415D01*
X236867407Y-104853978D01*
X236874428Y-104853339D01*
X236881128Y-104851162D01*
X236881133Y-104851161D01*
X237022129Y-104805349D01*
X237022132Y-104805348D01*
X237028828Y-104803172D01*
X237168277Y-104720043D01*
X237285844Y-104608086D01*
X237298269Y-104589386D01*
X237371790Y-104478727D01*
X237375685Y-104472865D01*
X237433335Y-104321099D01*
X237455929Y-104160333D01*
X237456213Y-104140000D01*
X237438116Y-103978666D01*
X237435799Y-103972012D01*
X237387045Y-103832008D01*
X237387043Y-103832005D01*
X237384726Y-103825350D01*
X237298696Y-103687672D01*
X237290827Y-103679748D01*
X237189265Y-103577474D01*
X237189261Y-103577471D01*
X237184301Y-103572476D01*
X237047228Y-103485486D01*
X237040589Y-103483122D01*
X237040587Y-103483121D01*
X236900923Y-103433389D01*
X236900918Y-103433388D01*
X236894288Y-103431027D01*
X236887302Y-103430194D01*
X236887298Y-103430193D01*
X236774033Y-103416688D01*
X236733084Y-103411805D01*
X236726081Y-103412541D01*
X236726080Y-103412541D01*
X236578627Y-103428039D01*
X236578625Y-103428040D01*
X236571627Y-103428775D01*
X236491017Y-103456216D01*
X236424612Y-103478822D01*
X236424609Y-103478823D01*
X236417942Y-103481093D01*
X236279667Y-103566160D01*
X236163675Y-103679748D01*
X236075731Y-103816211D01*
X236020205Y-103968766D01*
X235999858Y-104129833D01*
X233478098Y-104129833D01*
X233466933Y-102097833D01*
X235999858Y-102097833D01*
X236000545Y-102104840D01*
X236000545Y-102104843D01*
X236003233Y-102132256D01*
X236015700Y-102259404D01*
X236066945Y-102413450D01*
X236070592Y-102419473D01*
X236070593Y-102419474D01*
X236147394Y-102546290D01*
X236147397Y-102546294D01*
X236151044Y-102552316D01*
X236263820Y-102669098D01*
X236399665Y-102757993D01*
X236551829Y-102814582D01*
X236558810Y-102815513D01*
X236558812Y-102815514D01*
X236602471Y-102821339D01*
X236712749Y-102836053D01*
X236719760Y-102835415D01*
X236719764Y-102835415D01*
X236867407Y-102821978D01*
X236874428Y-102821339D01*
X236881128Y-102819162D01*
X236881133Y-102819161D01*
X237022129Y-102773349D01*
X237022132Y-102773348D01*
X237028828Y-102771172D01*
X237168277Y-102688043D01*
X237285844Y-102576086D01*
X237298269Y-102557386D01*
X237371790Y-102446727D01*
X237375685Y-102440865D01*
X237433335Y-102289099D01*
X237455929Y-102128333D01*
X237456213Y-102108000D01*
X237438116Y-101946666D01*
X237435799Y-101940012D01*
X237387045Y-101800008D01*
X237387043Y-101800005D01*
X237384726Y-101793350D01*
X237298696Y-101655672D01*
X237290827Y-101647748D01*
X237189265Y-101545474D01*
X237189261Y-101545471D01*
X237184301Y-101540476D01*
X237047228Y-101453486D01*
X237040589Y-101451122D01*
X237040587Y-101451121D01*
X236900923Y-101401389D01*
X236900918Y-101401388D01*
X236894288Y-101399027D01*
X236887302Y-101398194D01*
X236887298Y-101398193D01*
X236774033Y-101384688D01*
X236733084Y-101379805D01*
X236726081Y-101380541D01*
X236726080Y-101380541D01*
X236578627Y-101396039D01*
X236578625Y-101396040D01*
X236571627Y-101396775D01*
X236491017Y-101424216D01*
X236424612Y-101446822D01*
X236424609Y-101446823D01*
X236417942Y-101449093D01*
X236279667Y-101534160D01*
X236163675Y-101647748D01*
X236075731Y-101784211D01*
X236020205Y-101936766D01*
X235999858Y-102097833D01*
X233466933Y-102097833D01*
X233447395Y-98541833D01*
X235999858Y-98541833D01*
X236000545Y-98548840D01*
X236000545Y-98548843D01*
X236003233Y-98576256D01*
X236015700Y-98703404D01*
X236066945Y-98857450D01*
X236070592Y-98863473D01*
X236070593Y-98863474D01*
X236147394Y-98990290D01*
X236147397Y-98990294D01*
X236151044Y-98996316D01*
X236263820Y-99113098D01*
X236399665Y-99201993D01*
X236551829Y-99258582D01*
X236558810Y-99259513D01*
X236558812Y-99259514D01*
X236602471Y-99265339D01*
X236712749Y-99280053D01*
X236719760Y-99279415D01*
X236719764Y-99279415D01*
X236867407Y-99265978D01*
X236874428Y-99265339D01*
X236881128Y-99263162D01*
X236881133Y-99263161D01*
X237022129Y-99217349D01*
X237022132Y-99217348D01*
X237028828Y-99215172D01*
X237168277Y-99132043D01*
X237285844Y-99020086D01*
X237298269Y-99001386D01*
X237371790Y-98890727D01*
X237375685Y-98884865D01*
X237433335Y-98733099D01*
X237455929Y-98572333D01*
X237456213Y-98552000D01*
X237438116Y-98390666D01*
X237435799Y-98384012D01*
X237387045Y-98244008D01*
X237387043Y-98244005D01*
X237384726Y-98237350D01*
X237298696Y-98099672D01*
X237290827Y-98091748D01*
X237189265Y-97989474D01*
X237189261Y-97989471D01*
X237184301Y-97984476D01*
X237047228Y-97897486D01*
X237040589Y-97895122D01*
X237040587Y-97895121D01*
X236900923Y-97845389D01*
X236900918Y-97845388D01*
X236894288Y-97843027D01*
X236887302Y-97842194D01*
X236887298Y-97842193D01*
X236774033Y-97828688D01*
X236733084Y-97823805D01*
X236726081Y-97824541D01*
X236726080Y-97824541D01*
X236578627Y-97840039D01*
X236578625Y-97840040D01*
X236571627Y-97840775D01*
X236491017Y-97868216D01*
X236424612Y-97890822D01*
X236424609Y-97890823D01*
X236417942Y-97893093D01*
X236279667Y-97978160D01*
X236163675Y-98091748D01*
X236075731Y-98228211D01*
X236020205Y-98380766D01*
X235999858Y-98541833D01*
X233447395Y-98541833D01*
X233437626Y-96763833D01*
X235999858Y-96763833D01*
X236000545Y-96770840D01*
X236000545Y-96770843D01*
X236003233Y-96798256D01*
X236015700Y-96925404D01*
X236066945Y-97079450D01*
X236070592Y-97085473D01*
X236070593Y-97085474D01*
X236147394Y-97212290D01*
X236147397Y-97212294D01*
X236151044Y-97218316D01*
X236263820Y-97335098D01*
X236399665Y-97423993D01*
X236551829Y-97480582D01*
X236558810Y-97481513D01*
X236558812Y-97481514D01*
X236602471Y-97487339D01*
X236712749Y-97502053D01*
X236719760Y-97501415D01*
X236719764Y-97501415D01*
X236867407Y-97487978D01*
X236874428Y-97487339D01*
X236881128Y-97485162D01*
X236881133Y-97485161D01*
X237022129Y-97439349D01*
X237022132Y-97439348D01*
X237028828Y-97437172D01*
X237168277Y-97354043D01*
X237285844Y-97242086D01*
X237298269Y-97223386D01*
X237371790Y-97112727D01*
X237375685Y-97106865D01*
X237433335Y-96955099D01*
X237455929Y-96794333D01*
X237456213Y-96774000D01*
X237438116Y-96612666D01*
X237435799Y-96606012D01*
X237387045Y-96466008D01*
X237387043Y-96466005D01*
X237384726Y-96459350D01*
X237298696Y-96321672D01*
X237290827Y-96313748D01*
X237189265Y-96211474D01*
X237189261Y-96211471D01*
X237184301Y-96206476D01*
X237047228Y-96119486D01*
X237040589Y-96117122D01*
X237040587Y-96117121D01*
X236900923Y-96067389D01*
X236900918Y-96067388D01*
X236894288Y-96065027D01*
X236887302Y-96064194D01*
X236887298Y-96064193D01*
X236774033Y-96050688D01*
X236733084Y-96045805D01*
X236726081Y-96046541D01*
X236726080Y-96046541D01*
X236578627Y-96062039D01*
X236578625Y-96062040D01*
X236571627Y-96062775D01*
X236491017Y-96090216D01*
X236424612Y-96112822D01*
X236424609Y-96112823D01*
X236417942Y-96115093D01*
X236279667Y-96200160D01*
X236163675Y-96313748D01*
X236075731Y-96450211D01*
X236073321Y-96456831D01*
X236073321Y-96456832D01*
X236037582Y-96555024D01*
X236020205Y-96602766D01*
X235999858Y-96763833D01*
X233437626Y-96763833D01*
X233426547Y-94747467D01*
X235999858Y-94747467D01*
X236000545Y-94754474D01*
X236000545Y-94754477D01*
X236003233Y-94781890D01*
X236015700Y-94909038D01*
X236066945Y-95063084D01*
X236070592Y-95069107D01*
X236070593Y-95069108D01*
X236147394Y-95195924D01*
X236147397Y-95195928D01*
X236151044Y-95201950D01*
X236263820Y-95318732D01*
X236399665Y-95407627D01*
X236551829Y-95464216D01*
X236558810Y-95465147D01*
X236558812Y-95465148D01*
X236602471Y-95470973D01*
X236712749Y-95485687D01*
X236719760Y-95485049D01*
X236719764Y-95485049D01*
X236867407Y-95471612D01*
X236874428Y-95470973D01*
X236881128Y-95468796D01*
X236881133Y-95468795D01*
X237022129Y-95422983D01*
X237022132Y-95422982D01*
X237028828Y-95420806D01*
X237168277Y-95337677D01*
X237285844Y-95225720D01*
X237298269Y-95207020D01*
X237371790Y-95096361D01*
X237375685Y-95090499D01*
X237433335Y-94938733D01*
X237455929Y-94777967D01*
X237456213Y-94757634D01*
X237438116Y-94596300D01*
X237435799Y-94589646D01*
X237387045Y-94449642D01*
X237387043Y-94449639D01*
X237384726Y-94442984D01*
X237298696Y-94305306D01*
X237290827Y-94297382D01*
X237189265Y-94195108D01*
X237189261Y-94195105D01*
X237184301Y-94190110D01*
X237047228Y-94103120D01*
X237040589Y-94100756D01*
X237040587Y-94100755D01*
X236900923Y-94051023D01*
X236900918Y-94051022D01*
X236894288Y-94048661D01*
X236887302Y-94047828D01*
X236887298Y-94047827D01*
X236774033Y-94034322D01*
X236733084Y-94029439D01*
X236726081Y-94030175D01*
X236726080Y-94030175D01*
X236578627Y-94045673D01*
X236578625Y-94045674D01*
X236571627Y-94046409D01*
X236491017Y-94073850D01*
X236424612Y-94096456D01*
X236424609Y-94096457D01*
X236417942Y-94098727D01*
X236279667Y-94183794D01*
X236163675Y-94297382D01*
X236075731Y-94433845D01*
X236020205Y-94586400D01*
X235999858Y-94747467D01*
X233426547Y-94747467D01*
X233415382Y-92715467D01*
X235999858Y-92715467D01*
X236000545Y-92722474D01*
X236000545Y-92722477D01*
X236003233Y-92749890D01*
X236015700Y-92877038D01*
X236066945Y-93031084D01*
X236070592Y-93037107D01*
X236070593Y-93037108D01*
X236147394Y-93163924D01*
X236147397Y-93163928D01*
X236151044Y-93169950D01*
X236263820Y-93286732D01*
X236399665Y-93375627D01*
X236551829Y-93432216D01*
X236558810Y-93433147D01*
X236558812Y-93433148D01*
X236602471Y-93438973D01*
X236712749Y-93453687D01*
X236719760Y-93453049D01*
X236719764Y-93453049D01*
X236867407Y-93439612D01*
X236874428Y-93438973D01*
X236881128Y-93436796D01*
X236881133Y-93436795D01*
X237022129Y-93390983D01*
X237022132Y-93390982D01*
X237028828Y-93388806D01*
X237168277Y-93305677D01*
X237277565Y-93201604D01*
X237280744Y-93198577D01*
X237280745Y-93198575D01*
X237285844Y-93193720D01*
X237298269Y-93175020D01*
X237345379Y-93104113D01*
X237375685Y-93058499D01*
X237433335Y-92906733D01*
X237455929Y-92745967D01*
X237456213Y-92725634D01*
X237438116Y-92564300D01*
X237435799Y-92557646D01*
X237387045Y-92417642D01*
X237387043Y-92417639D01*
X237384726Y-92410984D01*
X237298696Y-92273306D01*
X237290827Y-92265382D01*
X237189265Y-92163108D01*
X237189261Y-92163105D01*
X237184301Y-92158110D01*
X237047228Y-92071120D01*
X237040589Y-92068756D01*
X237040587Y-92068755D01*
X236900923Y-92019023D01*
X236900918Y-92019022D01*
X236894288Y-92016661D01*
X236887302Y-92015828D01*
X236887298Y-92015827D01*
X236774033Y-92002322D01*
X236733084Y-91997439D01*
X236726081Y-91998175D01*
X236726080Y-91998175D01*
X236578627Y-92013673D01*
X236578625Y-92013674D01*
X236571627Y-92014409D01*
X236491017Y-92041850D01*
X236424612Y-92064456D01*
X236424609Y-92064457D01*
X236417942Y-92066727D01*
X236279667Y-92151794D01*
X236163675Y-92265382D01*
X236075731Y-92401845D01*
X236020205Y-92554400D01*
X235999858Y-92715467D01*
X233415382Y-92715467D01*
X233400696Y-90042692D01*
X233420323Y-89974463D01*
X233473723Y-89927676D01*
X233526694Y-89916000D01*
X235136980Y-89916000D01*
X235205101Y-89936002D01*
G37*
%TD.AperFunction*%
%TD*%
M02*
