%TF.GenerationSoftware,KiCad,Pcbnew,(6.0.2)*%
%TF.CreationDate,2022-03-10T15:52:04+01:00*%
%TF.ProjectId,GestureControl,47657374-7572-4654-936f-6e74726f6c2e,V0.1*%
%TF.SameCoordinates,Original*%
%TF.FileFunction,Profile,NP*%
%FSLAX46Y46*%
G04 Gerber Fmt 4.6, Leading zero omitted, Abs format (unit mm)*
G04 Created by KiCad (PCBNEW (6.0.2)) date 2022-03-10 15:52:04*
%MOMM*%
%LPD*%
G01*
G04 APERTURE LIST*
%TA.AperFunction,Profile*%
%ADD10C,0.050000*%
%TD*%
%TA.AperFunction,Profile*%
%ADD11C,0.548634*%
%TD*%
G04 APERTURE END LIST*
D10*
X177292000Y-149098000D02*
G75*
G03*
X181102000Y-145288000I1J3809999D01*
G01*
X177292000Y-112268000D02*
X149352000Y-112268000D01*
X149352000Y-149098000D02*
X177292000Y-149098000D01*
X215392000Y-112268000D02*
X187452000Y-112268000D01*
X219202000Y-116078000D02*
G75*
G03*
X215392000Y-112268000I-3809999J1D01*
G01*
X187452000Y-149098000D02*
X215392000Y-149098000D01*
X215392000Y-149098000D02*
G75*
G03*
X219202000Y-145288000I1J3809999D01*
G01*
X183642000Y-145288000D02*
G75*
G03*
X187452000Y-149098000I3809999J-1D01*
G01*
X187452000Y-112268000D02*
G75*
G03*
X183642000Y-116078000I-1J-3809999D01*
G01*
X257302000Y-116078000D02*
G75*
G03*
X253492000Y-112268000I-3809999J1D01*
G01*
X225552000Y-149098000D02*
X253492000Y-149098000D01*
X257302000Y-145288000D02*
X257302000Y-116078000D01*
X253492000Y-149098000D02*
G75*
G03*
X257302000Y-145288000I1J3809999D01*
G01*
X221742000Y-145288000D02*
G75*
G03*
X225552000Y-149098000I3809999J-1D01*
G01*
X225552000Y-112268000D02*
G75*
G03*
X221742000Y-116078000I-1J-3809999D01*
G01*
X253492000Y-112268000D02*
X225552000Y-112268000D01*
X139192000Y-157988000D02*
G75*
G03*
X143002000Y-154178000I1J3809999D01*
G01*
D11*
X182646317Y-135382000D02*
G75*
G03*
X182646317Y-135382000I-274317J0D01*
G01*
D10*
X183642000Y-128778000D02*
G75*
G03*
X181102000Y-128778000I-1270000J0D01*
G01*
D11*
X182646317Y-137414000D02*
G75*
G03*
X182646317Y-137414000I-274317J0D01*
G01*
X144546317Y-137414000D02*
G75*
G03*
X144546317Y-137414000I-274317J0D01*
G01*
D10*
X183642000Y-140208000D02*
G75*
G03*
X181102000Y-140208000I-1270000J0D01*
G01*
X183642000Y-128778000D02*
X183642000Y-132588000D01*
X219202000Y-132588000D02*
G75*
G03*
X221742000Y-132588000I1270000J0D01*
G01*
X221742000Y-140208000D02*
G75*
G03*
X219202000Y-140208000I-1270000J0D01*
G01*
X54356000Y-103378000D02*
X139192000Y-103378000D01*
X54356000Y-103378000D02*
X45339000Y-103378000D01*
X145542000Y-140208000D02*
G75*
G03*
X143002000Y-140208000I-1270000J0D01*
G01*
D11*
X220746317Y-123967634D02*
G75*
G03*
X220746317Y-123967634I-274317J0D01*
G01*
D10*
X181102000Y-121158000D02*
X181102000Y-116078000D01*
X145542000Y-128778000D02*
G75*
G03*
X143002000Y-128778000I-1270000J0D01*
G01*
X45720000Y-157988000D02*
X45339000Y-157988000D01*
X221742000Y-128778000D02*
X221742000Y-132588000D01*
X219202000Y-121158000D02*
G75*
G03*
X221742000Y-121158000I1270000J0D01*
G01*
X181102000Y-140208000D02*
X181102000Y-145288000D01*
X143002000Y-107188000D02*
G75*
G03*
X139192000Y-103378000I-3809999J1D01*
G01*
X219202000Y-121158000D02*
X219202000Y-116078000D01*
X143002000Y-121158000D02*
G75*
G03*
X145542000Y-121158000I1270000J0D01*
G01*
D11*
X182646317Y-125999634D02*
G75*
G03*
X182646317Y-125999634I-274317J0D01*
G01*
D10*
X219202000Y-132588000D02*
X219202000Y-128778000D01*
D11*
X144546317Y-123952000D02*
G75*
G03*
X144546317Y-123952000I-274317J0D01*
G01*
D10*
X143002000Y-132588000D02*
X143002000Y-128778000D01*
D11*
X182646317Y-123967634D02*
G75*
G03*
X182646317Y-123967634I-274317J0D01*
G01*
D10*
X181102000Y-132588000D02*
G75*
G03*
X183642000Y-132588000I1270000J0D01*
G01*
X54356000Y-157988000D02*
X45720000Y-157988000D01*
X145542000Y-140208000D02*
X145542000Y-145288000D01*
D11*
X144546317Y-135382000D02*
G75*
G03*
X144546317Y-135382000I-274317J0D01*
G01*
D10*
X143002000Y-107188000D02*
X143002000Y-121158000D01*
X181102000Y-121158000D02*
G75*
G03*
X183642000Y-121158000I1270000J0D01*
G01*
X183642000Y-116078000D02*
X183642000Y-121158000D01*
X145542000Y-128778000D02*
X145542000Y-132588000D01*
X41529000Y-154178000D02*
G75*
G03*
X45339000Y-157988000I3809999J-1D01*
G01*
X139192000Y-157988000D02*
X54356000Y-157988000D01*
X221742000Y-116078000D02*
X221742000Y-121158000D01*
X41529000Y-154178000D02*
X41529000Y-107188000D01*
X221742000Y-145288000D02*
X221742000Y-140208000D01*
X145542000Y-145288000D02*
G75*
G03*
X149352000Y-149098000I3809999J-1D01*
G01*
X149352000Y-112268000D02*
G75*
G03*
X145542000Y-116078000I-1J-3809999D01*
G01*
D11*
X220746317Y-135382000D02*
G75*
G03*
X220746317Y-135382000I-274317J0D01*
G01*
D10*
X143002000Y-140208000D02*
X143002000Y-154178000D01*
X143002000Y-132588000D02*
G75*
G03*
X145542000Y-132588000I1270000J0D01*
G01*
X181102000Y-132588000D02*
X181102000Y-128778000D01*
D11*
X220746317Y-125999634D02*
G75*
G03*
X220746317Y-125999634I-274317J0D01*
G01*
D10*
X183642000Y-145288000D02*
X183642000Y-140208000D01*
X221742000Y-128778000D02*
G75*
G03*
X219202000Y-128778000I-1270000J0D01*
G01*
X181102000Y-116078000D02*
G75*
G03*
X177292000Y-112268000I-3809999J1D01*
G01*
D11*
X220746317Y-137414000D02*
G75*
G03*
X220746317Y-137414000I-274317J0D01*
G01*
D10*
X145542000Y-116078000D02*
X145542000Y-121158000D01*
D11*
X144546317Y-125984000D02*
G75*
G03*
X144546317Y-125984000I-274317J0D01*
G01*
D10*
X219202000Y-140208000D02*
X219202000Y-145288000D01*
X45339000Y-103378000D02*
G75*
G03*
X41529000Y-107188000I-1J-3809999D01*
G01*
M02*
