%TF.GenerationSoftware,KiCad,Pcbnew,(5.1.10)-1*%
%TF.CreationDate,2022-02-24T08:52:08+01:00*%
%TF.ProjectId,GestureControl,47657374-7572-4654-936f-6e74726f6c2e,V0.1*%
%TF.SameCoordinates,Original*%
%TF.FileFunction,Profile,NP*%
%FSLAX46Y46*%
G04 Gerber Fmt 4.6, Leading zero omitted, Abs format (unit mm)*
G04 Created by KiCad (PCBNEW (5.1.10)-1) date 2022-02-24 08:52:08*
%MOMM*%
%LPD*%
G01*
G04 APERTURE LIST*
%TA.AperFunction,Profile*%
%ADD10C,0.050000*%
%TD*%
G04 APERTURE END LIST*
D10*
X194056000Y-121666000D02*
G75*
G02*
X190246000Y-125476000I-3810000J0D01*
G01*
X119126000Y-92456000D02*
G75*
G02*
X115316000Y-96266000I-3810000J0D01*
G01*
X194056000Y-100076000D02*
X194056000Y-121666000D01*
X122936000Y-37846000D02*
X126746000Y-37846000D01*
X126746000Y-37846000D02*
G75*
G02*
X130556000Y-41656000I0J-3810000D01*
G01*
X98806000Y-100076000D02*
G75*
G02*
X102616000Y-96266000I3810000J0D01*
G01*
X162306000Y-41656000D02*
X162306000Y-45466000D01*
X119126000Y-92456000D02*
X119126000Y-41656000D01*
X130556000Y-45466000D02*
X130556000Y-41656000D01*
X102616000Y-96266000D02*
X115316000Y-96266000D01*
X102616000Y-125476000D02*
G75*
G02*
X98806000Y-121666000I0J3810000D01*
G01*
X119126000Y-41656000D02*
G75*
G02*
X122936000Y-37846000I3810000J0D01*
G01*
X134366000Y-49276000D02*
X158496000Y-49276000D01*
X177546000Y-96266000D02*
X190246000Y-96266000D01*
X162306000Y-45466000D02*
G75*
G02*
X158496000Y-49276000I-3810000J0D01*
G01*
X166116000Y-37846000D02*
X169926000Y-37846000D01*
X134366000Y-49276000D02*
G75*
G02*
X130556000Y-45466000I0J3810000D01*
G01*
X190246000Y-125476000D02*
X102616000Y-125476000D01*
X169926000Y-37846000D02*
G75*
G02*
X173736000Y-41656000I0J-3810000D01*
G01*
X162306000Y-41656000D02*
G75*
G02*
X166116000Y-37846000I3810000J0D01*
G01*
X173736000Y-41656000D02*
X173736000Y-92456000D01*
X98806000Y-121666000D02*
X98806000Y-100076000D01*
X177546000Y-96266000D02*
G75*
G02*
X173736000Y-92456000I0J3810000D01*
G01*
X190246000Y-96266000D02*
G75*
G02*
X194056000Y-100076000I0J-3810000D01*
G01*
M02*
