%TF.GenerationSoftware,KiCad,Pcbnew,(6.0.2)*%
%TF.CreationDate,2022-03-17T10:44:44+01:00*%
%TF.ProjectId,GestureControl,47657374-7572-4654-936f-6e74726f6c2e,V0.1*%
%TF.SameCoordinates,Original*%
%TF.FileFunction,Copper,L1,Top*%
%TF.FilePolarity,Positive*%
%FSLAX46Y46*%
G04 Gerber Fmt 4.6, Leading zero omitted, Abs format (unit mm)*
G04 Created by KiCad (PCBNEW (6.0.2)) date 2022-03-17 10:44:44*
%MOMM*%
%LPD*%
G01*
G04 APERTURE LIST*
G04 Aperture macros list*
%AMRoundRect*
0 Rectangle with rounded corners*
0 $1 Rounding radius*
0 $2 $3 $4 $5 $6 $7 $8 $9 X,Y pos of 4 corners*
0 Add a 4 corners polygon primitive as box body*
4,1,4,$2,$3,$4,$5,$6,$7,$8,$9,$2,$3,0*
0 Add four circle primitives for the rounded corners*
1,1,$1+$1,$2,$3*
1,1,$1+$1,$4,$5*
1,1,$1+$1,$6,$7*
1,1,$1+$1,$8,$9*
0 Add four rect primitives between the rounded corners*
20,1,$1+$1,$2,$3,$4,$5,0*
20,1,$1+$1,$4,$5,$6,$7,0*
20,1,$1+$1,$6,$7,$8,$9,0*
20,1,$1+$1,$8,$9,$2,$3,0*%
G04 Aperture macros list end*
%TA.AperFunction,ComponentPad*%
%ADD10R,1.700000X1.700000*%
%TD*%
%TA.AperFunction,ComponentPad*%
%ADD11O,1.700000X1.700000*%
%TD*%
%TA.AperFunction,SMDPad,CuDef*%
%ADD12RoundRect,0.237500X-0.237500X0.300000X-0.237500X-0.300000X0.237500X-0.300000X0.237500X0.300000X0*%
%TD*%
%TA.AperFunction,SMDPad,CuDef*%
%ADD13RoundRect,0.250000X1.500000X0.550000X-1.500000X0.550000X-1.500000X-0.550000X1.500000X-0.550000X0*%
%TD*%
%TA.AperFunction,SMDPad,CuDef*%
%ADD14RoundRect,0.250000X-0.337500X-0.475000X0.337500X-0.475000X0.337500X0.475000X-0.337500X0.475000X0*%
%TD*%
%TA.AperFunction,SMDPad,CuDef*%
%ADD15RoundRect,0.250000X0.337500X0.475000X-0.337500X0.475000X-0.337500X-0.475000X0.337500X-0.475000X0*%
%TD*%
%TA.AperFunction,SMDPad,CuDef*%
%ADD16RoundRect,0.237500X-0.300000X-0.237500X0.300000X-0.237500X0.300000X0.237500X-0.300000X0.237500X0*%
%TD*%
%TA.AperFunction,SMDPad,CuDef*%
%ADD17RoundRect,0.237500X0.300000X0.237500X-0.300000X0.237500X-0.300000X-0.237500X0.300000X-0.237500X0*%
%TD*%
%TA.AperFunction,SMDPad,CuDef*%
%ADD18RoundRect,0.237500X0.237500X-0.300000X0.237500X0.300000X-0.237500X0.300000X-0.237500X-0.300000X0*%
%TD*%
%TA.AperFunction,SMDPad,CuDef*%
%ADD19RoundRect,0.249999X0.325001X0.450001X-0.325001X0.450001X-0.325001X-0.450001X0.325001X-0.450001X0*%
%TD*%
%TA.AperFunction,SMDPad,CuDef*%
%ADD20R,1.800000X3.500000*%
%TD*%
%TA.AperFunction,ComponentPad*%
%ADD21RoundRect,0.250000X-1.550000X0.650000X-1.550000X-0.650000X1.550000X-0.650000X1.550000X0.650000X0*%
%TD*%
%TA.AperFunction,ComponentPad*%
%ADD22O,3.600000X1.800000*%
%TD*%
%TA.AperFunction,SMDPad,CuDef*%
%ADD23RoundRect,0.249999X0.350001X0.450001X-0.350001X0.450001X-0.350001X-0.450001X0.350001X-0.450001X0*%
%TD*%
%TA.AperFunction,SMDPad,CuDef*%
%ADD24RoundRect,0.249999X0.450001X-0.350001X0.450001X0.350001X-0.450001X0.350001X-0.450001X-0.350001X0*%
%TD*%
%TA.AperFunction,SMDPad,CuDef*%
%ADD25RoundRect,0.249999X-0.350001X-0.450001X0.350001X-0.450001X0.350001X0.450001X-0.350001X0.450001X0*%
%TD*%
%TA.AperFunction,SMDPad,CuDef*%
%ADD26R,1.300000X1.550000*%
%TD*%
%TA.AperFunction,SMDPad,CuDef*%
%ADD27RoundRect,0.075000X0.075000X-0.700000X0.075000X0.700000X-0.075000X0.700000X-0.075000X-0.700000X0*%
%TD*%
%TA.AperFunction,SMDPad,CuDef*%
%ADD28RoundRect,0.075000X0.700000X-0.075000X0.700000X0.075000X-0.700000X0.075000X-0.700000X-0.075000X0*%
%TD*%
%TA.AperFunction,SMDPad,CuDef*%
%ADD29R,1.300000X1.900000*%
%TD*%
%TA.AperFunction,SMDPad,CuDef*%
%ADD30R,4.500000X2.000000*%
%TD*%
%TA.AperFunction,SMDPad,CuDef*%
%ADD31RoundRect,0.249999X0.412501X0.650001X-0.412501X0.650001X-0.412501X-0.650001X0.412501X-0.650001X0*%
%TD*%
%TA.AperFunction,SMDPad,CuDef*%
%ADD32RoundRect,0.249999X0.650001X-0.412501X0.650001X0.412501X-0.650001X0.412501X-0.650001X-0.412501X0*%
%TD*%
%TA.AperFunction,SMDPad,CuDef*%
%ADD33RoundRect,0.249999X-0.412501X-0.650001X0.412501X-0.650001X0.412501X0.650001X-0.412501X0.650001X0*%
%TD*%
%TA.AperFunction,SMDPad,CuDef*%
%ADD34R,3.500000X1.800000*%
%TD*%
%TA.AperFunction,SMDPad,CuDef*%
%ADD35R,2.400000X4.200000*%
%TD*%
%TA.AperFunction,SMDPad,CuDef*%
%ADD36R,4.200000X2.400000*%
%TD*%
%TA.AperFunction,SMDPad,CuDef*%
%ADD37R,2.000000X0.650000*%
%TD*%
%TA.AperFunction,SMDPad,CuDef*%
%ADD38R,0.650000X2.000000*%
%TD*%
%TA.AperFunction,SMDPad,CuDef*%
%ADD39R,0.807999X0.458000*%
%TD*%
%TA.AperFunction,SMDPad,CuDef*%
%ADD40R,0.508000X0.508000*%
%TD*%
%TA.AperFunction,SMDPad,CuDef*%
%ADD41RoundRect,0.250000X-0.550000X1.500000X-0.550000X-1.500000X0.550000X-1.500000X0.550000X1.500000X0*%
%TD*%
%TA.AperFunction,ViaPad*%
%ADD42C,0.800000*%
%TD*%
%TA.AperFunction,Conductor*%
%ADD43C,0.250000*%
%TD*%
%TA.AperFunction,Conductor*%
%ADD44C,0.500000*%
%TD*%
%TA.AperFunction,Conductor*%
%ADD45C,1.200000*%
%TD*%
%TA.AperFunction,Conductor*%
%ADD46C,1.000000*%
%TD*%
%TA.AperFunction,Conductor*%
%ADD47C,0.200000*%
%TD*%
G04 APERTURE END LIST*
D10*
%TO.P,J3,1,Pin_1*%
%TO.N,unconnected-(J3-Pad1)*%
X45974000Y-123952000D03*
D11*
%TO.P,J3,2,Pin_2*%
%TO.N,unconnected-(J3-Pad2)*%
X48514000Y-123952000D03*
%TO.P,J3,3,Pin_3*%
%TO.N,unconnected-(J3-Pad3)*%
X51054000Y-123952000D03*
%TO.P,J3,4,Pin_4*%
%TO.N,+3V3*%
X53594000Y-123952000D03*
%TO.P,J3,5,Pin_5*%
%TO.N,+5V*%
X56134000Y-123952000D03*
%TO.P,J3,6,Pin_6*%
%TO.N,GND*%
X58674000Y-123952000D03*
%TO.P,J3,7,Pin_7*%
X61214000Y-123952000D03*
%TO.P,J3,8,Pin_8*%
%TO.N,XSHUT_0*%
X63754000Y-123952000D03*
%TD*%
D10*
%TO.P,J4,1,Pin_1*%
%TO.N,XSHUT_1*%
X68834000Y-123952000D03*
D11*
%TO.P,J4,2,Pin_2*%
%TO.N,XSHUT_2*%
X71374000Y-123952000D03*
%TO.P,J4,3,Pin_3*%
%TO.N,XSHUT_3*%
X73914000Y-123952000D03*
%TO.P,J4,4,Pin_4*%
%TO.N,XSHUT_4*%
X76454000Y-123952000D03*
%TO.P,J4,5,Pin_5*%
%TO.N,SW_1*%
X78994000Y-123952000D03*
%TO.P,J4,6,Pin_6*%
%TO.N,SW_2*%
X81534000Y-123952000D03*
%TD*%
D10*
%TO.P,J5,1,Pin_1*%
%TO.N,unconnected-(J5-Pad1)*%
X59690000Y-75692000D03*
D11*
%TO.P,J5,2,Pin_2*%
%TO.N,GPIOI_0*%
X57150000Y-75692000D03*
%TO.P,J5,3,Pin_3*%
%TO.N,GPIOI_1*%
X54610000Y-75692000D03*
%TO.P,J5,4,Pin_4*%
%TO.N,GPIOI_2*%
X52070000Y-75692000D03*
%TO.P,J5,5,Pin_5*%
%TO.N,GPIOI_3*%
X49530000Y-75692000D03*
%TO.P,J5,6,Pin_6*%
%TO.N,GPIOI_4*%
X46990000Y-75692000D03*
%TO.P,J5,7,Pin_7*%
%TO.N,GND*%
X44450000Y-75692000D03*
%TO.P,J5,8,Pin_8*%
%TO.N,+3V3*%
X41910000Y-75692000D03*
%TO.P,J5,9,Pin_9*%
%TO.N,SDA1*%
X39370000Y-75692000D03*
%TO.P,J5,10,Pin_10*%
%TO.N,SCL1*%
X36830000Y-75692000D03*
%TD*%
D12*
%TO.P,C2,1*%
%TO.N,Net-(C2-Pad1)*%
X72400000Y-84937500D03*
%TO.P,C2,2*%
%TO.N,SW_2*%
X72400000Y-86662500D03*
%TD*%
D13*
%TO.P,C7,1*%
%TO.N,VCC*%
X27800000Y-109500000D03*
%TO.P,C7,2*%
%TO.N,GND*%
X22200000Y-109500000D03*
%TD*%
D14*
%TO.P,C17,1*%
%TO.N,/STM32L151RET6TR/MCO*%
X59514490Y-115564490D03*
%TO.P,C17,2*%
%TO.N,GND*%
X61589490Y-115564490D03*
%TD*%
D15*
%TO.P,C18,1*%
%TO.N,/STM32L151RET6TR/OSM_OUT*%
X65696490Y-115564490D03*
%TO.P,C18,2*%
%TO.N,GND*%
X63621490Y-115564490D03*
%TD*%
D16*
%TO.P,C19,1*%
%TO.N,GND*%
X51482490Y-110992490D03*
%TO.P,C19,2*%
%TO.N,/STM32L151RET6TR/OS32_OUT*%
X53207490Y-110992490D03*
%TD*%
%TO.P,C22,1*%
%TO.N,GND*%
X51328990Y-103372490D03*
%TO.P,C22,2*%
%TO.N,/STM32L151RET6TR/OS32_IN*%
X53053990Y-103372490D03*
%TD*%
D17*
%TO.P,C24,1*%
%TO.N,+3V3*%
X58234490Y-104900000D03*
%TO.P,C24,2*%
%TO.N,GND*%
X56509490Y-104900000D03*
%TD*%
%TO.P,C25,1*%
%TO.N,+3V3*%
X58234490Y-107100000D03*
%TO.P,C25,2*%
%TO.N,GND*%
X56509490Y-107100000D03*
%TD*%
D12*
%TO.P,C26,1*%
%TO.N,+3V3*%
X71241490Y-101086490D03*
%TO.P,C26,2*%
%TO.N,GND*%
X71241490Y-102811490D03*
%TD*%
D16*
%TO.P,C27,2*%
%TO.N,GND*%
X72262500Y-93800000D03*
%TO.P,C27,1*%
%TO.N,+3V3*%
X70537500Y-93800000D03*
%TD*%
D18*
%TO.P,C29,1*%
%TO.N,+3V3*%
X59182000Y-91032500D03*
%TO.P,C29,2*%
%TO.N,GND*%
X59182000Y-89307500D03*
%TD*%
D14*
%TO.P,C32,1*%
%TO.N,+3V3*%
X70562500Y-91900000D03*
%TO.P,C32,2*%
%TO.N,GND*%
X72637500Y-91900000D03*
%TD*%
D19*
%TO.P,D1,1,K*%
%TO.N,GND*%
X85449490Y-100578490D03*
%TO.P,D1,2,A*%
%TO.N,Net-(D1-Pad2)*%
X83399490Y-100578490D03*
%TD*%
%TO.P,D2,1,K*%
%TO.N,GND*%
X85467490Y-98292490D03*
%TO.P,D2,2,A*%
%TO.N,Net-(D2-Pad2)*%
X83417490Y-98292490D03*
%TD*%
%TO.P,D3,1,K*%
%TO.N,GND*%
X85467490Y-96006490D03*
%TO.P,D3,2,A*%
%TO.N,Net-(D3-Pad2)*%
X83417490Y-96006490D03*
%TD*%
%TO.P,D5,1,K*%
%TO.N,GND*%
X85458490Y-91434490D03*
%TO.P,D5,2,A*%
%TO.N,Net-(D5-Pad2)*%
X83408490Y-91434490D03*
%TD*%
D20*
%TO.P,D6,1,K*%
%TO.N,VCC*%
X35300000Y-96300000D03*
%TO.P,D6,2,A*%
%TO.N,Net-(D6-Pad2)*%
X35300000Y-101300000D03*
%TD*%
D10*
%TO.P,J1,1,Pin_1*%
%TO.N,GND*%
X50165000Y-96514490D03*
D11*
%TO.P,J1,2,Pin_2*%
%TO.N,+5V*%
X47625000Y-96514490D03*
%TO.P,J1,3,Pin_3*%
%TO.N,SDA1*%
X45085000Y-96514490D03*
%TO.P,J1,4,Pin_4*%
%TO.N,SCL1*%
X42545000Y-96514490D03*
%TD*%
D21*
%TO.P,J2,1,Pin_1*%
%TO.N,GND*%
X28448000Y-97282000D03*
D22*
%TO.P,J2,2,Pin_2*%
%TO.N,Net-(D6-Pad2)*%
X28448000Y-100782000D03*
%TD*%
D10*
%TO.P,J7,1,Pin_1*%
%TO.N,GND*%
X55245000Y-88894490D03*
D11*
%TO.P,J7,2,Pin_2*%
%TO.N,/STM32L151RET6TR/FTDI_CTS*%
X52705000Y-88894490D03*
%TO.P,J7,3,Pin_3*%
%TO.N,+5V*%
X50165000Y-88894490D03*
%TO.P,J7,4,Pin_4*%
%TO.N,/STM32L151RET6TR/FTDI_TXD*%
X47625000Y-88894490D03*
%TO.P,J7,5,Pin_5*%
%TO.N,/STM32L151RET6TR/FTDI_RXD*%
X45085000Y-88894490D03*
%TO.P,J7,6,Pin_6*%
%TO.N,/STM32L151RET6TR/FTDI_RTS*%
X42545000Y-88894490D03*
%TD*%
D10*
%TO.P,J10,1,Pin_1*%
%TO.N,GND*%
X57277000Y-79248000D03*
D11*
%TO.P,J10,2,Pin_2*%
%TO.N,+3V3*%
X54737000Y-79248000D03*
%TO.P,J10,3,Pin_3*%
%TO.N,SDA2*%
X52197000Y-79248000D03*
%TO.P,J10,4,Pin_4*%
%TO.N,SCL2*%
X49657000Y-79248000D03*
%TD*%
D23*
%TO.P,R1,1*%
%TO.N,Net-(D1-Pad2)*%
X81385490Y-100578490D03*
%TO.P,R1,2*%
%TO.N,LED_1*%
X79385490Y-100578490D03*
%TD*%
%TO.P,R2,1*%
%TO.N,Net-(D2-Pad2)*%
X81353490Y-98292490D03*
%TO.P,R2,2*%
%TO.N,LED_2*%
X79353490Y-98292490D03*
%TD*%
%TO.P,R3,1*%
%TO.N,Net-(D3-Pad2)*%
X81353490Y-96006490D03*
%TO.P,R3,2*%
%TO.N,LED_3*%
X79353490Y-96006490D03*
%TD*%
%TO.P,R4,1*%
%TO.N,Net-(D4-Pad2)*%
X81353490Y-93720490D03*
%TO.P,R4,2*%
%TO.N,LED_4*%
X79353490Y-93720490D03*
%TD*%
%TO.P,R5,1*%
%TO.N,Net-(D5-Pad2)*%
X81369490Y-91434490D03*
%TO.P,R5,2*%
%TO.N,LED_5*%
X79369490Y-91434490D03*
%TD*%
%TO.P,R6,2*%
%TO.N,SW_1*%
X87700000Y-82900000D03*
%TO.P,R6,1*%
%TO.N,GND*%
X89700000Y-82900000D03*
%TD*%
%TO.P,R7,1*%
%TO.N,SW_2*%
X72300000Y-82900000D03*
%TO.P,R7,2*%
%TO.N,GND*%
X70300000Y-82900000D03*
%TD*%
D24*
%TO.P,R8,1*%
%TO.N,+3V3*%
X89535000Y-86979000D03*
%TO.P,R8,2*%
%TO.N,Net-(C1-Pad1)*%
X89535000Y-84979000D03*
%TD*%
%TO.P,R9,1*%
%TO.N,+3V3*%
X70500000Y-87000000D03*
%TO.P,R9,2*%
%TO.N,Net-(C2-Pad1)*%
X70500000Y-85000000D03*
%TD*%
%TO.P,R10,1*%
%TO.N,+3V3*%
X45333490Y-109182490D03*
%TO.P,R10,2*%
%TO.N,SDA1*%
X45333490Y-107182490D03*
%TD*%
%TO.P,R11,1*%
%TO.N,+3V3*%
X43047490Y-109182490D03*
%TO.P,R11,2*%
%TO.N,SCL1*%
X43047490Y-107182490D03*
%TD*%
D25*
%TO.P,R20,1*%
%TO.N,/STM32L151RET6TR/BOOT*%
X48800000Y-99568000D03*
%TO.P,R20,2*%
%TO.N,GND*%
X50800000Y-99568000D03*
%TD*%
D26*
%TO.P,SW1,1,1*%
%TO.N,SW_1*%
X85689000Y-87033000D03*
X85689000Y-79083000D03*
%TO.P,SW1,2,2*%
%TO.N,+3V3*%
X81189000Y-87033000D03*
X81189000Y-79083000D03*
%TD*%
%TO.P,SW2,1,1*%
%TO.N,SW_2*%
X74331000Y-87033000D03*
X74331000Y-79083000D03*
%TO.P,SW2,2,2*%
%TO.N,+3V3*%
X78831000Y-87033000D03*
X78831000Y-79083000D03*
%TD*%
D27*
%TO.P,U6,1,VLCD*%
%TO.N,+3V3*%
X59617490Y-104475490D03*
%TO.P,U6,2,PC13*%
%TO.N,BUCK_5_EN*%
X60117490Y-104475490D03*
%TO.P,U6,3,PC14*%
%TO.N,/STM32L151RET6TR/OS32_IN*%
X60617490Y-104475490D03*
%TO.P,U6,4,PC15*%
%TO.N,/STM32L151RET6TR/OS32_OUT*%
X61117490Y-104475490D03*
%TO.P,U6,5,PH0*%
%TO.N,/STM32L151RET6TR/MCO*%
X61617490Y-104475490D03*
%TO.P,U6,6,PH1*%
%TO.N,/STM32L151RET6TR/OSM_OUT*%
X62117490Y-104475490D03*
%TO.P,U6,7,NRST*%
%TO.N,/STM32L151RET6TR/RST*%
X62617490Y-104475490D03*
%TO.P,U6,8,PC0*%
%TO.N,XSHUT_0*%
X63117490Y-104475490D03*
%TO.P,U6,9,PC1*%
%TO.N,XSHUT_1*%
X63617490Y-104475490D03*
%TO.P,U6,10,PC2*%
%TO.N,XSHUT_2*%
X64117490Y-104475490D03*
%TO.P,U6,11,PC3*%
%TO.N,XSHUT_3*%
X64617490Y-104475490D03*
%TO.P,U6,12,VSSA*%
%TO.N,GND*%
X65117490Y-104475490D03*
%TO.P,U6,13,VDDA*%
%TO.N,+3V3*%
X65617490Y-104475490D03*
%TO.P,U6,14,PA0*%
%TO.N,LED_1*%
X66117490Y-104475490D03*
%TO.P,U6,15,PA1*%
%TO.N,LED_2*%
X66617490Y-104475490D03*
%TO.P,U6,16,PA2*%
%TO.N,/STM32L151RET6TR/UART_TX*%
X67117490Y-104475490D03*
D28*
%TO.P,U6,17,PA3*%
%TO.N,/STM32L151RET6TR/UART_RX*%
X69042490Y-102550490D03*
%TO.P,U6,18,VSS*%
%TO.N,GND*%
X69042490Y-102050490D03*
%TO.P,U6,19,VDD*%
%TO.N,+3V3*%
X69042490Y-101550490D03*
%TO.P,U6,20,PA4*%
%TO.N,unconnected-(U6-Pad20)*%
X69042490Y-101050490D03*
%TO.P,U6,21,PA5*%
%TO.N,unconnected-(U6-Pad21)*%
X69042490Y-100550490D03*
%TO.P,U6,22,PA6*%
%TO.N,LED_3*%
X69042490Y-100050490D03*
%TO.P,U6,23,PA7*%
%TO.N,LED_4*%
X69042490Y-99550490D03*
%TO.P,U6,24,PC4*%
%TO.N,XSHUT_4*%
X69042490Y-99050490D03*
%TO.P,U6,25,PC5*%
%TO.N,unconnected-(U6-Pad25)*%
X69042490Y-98550490D03*
%TO.P,U6,26,PB0*%
%TO.N,LED_5*%
X69042490Y-98050490D03*
%TO.P,U6,27,PB1*%
%TO.N,SW_1*%
X69042490Y-97550490D03*
%TO.P,U6,28,PB2*%
%TO.N,SW_2*%
X69042490Y-97050490D03*
%TO.P,U6,29,PB10*%
%TO.N,/STM32L151RET6TR/PIN29*%
X69042490Y-96550490D03*
%TO.P,U6,30,PB11*%
%TO.N,/STM32L151RET6TR/PIN30*%
X69042490Y-96050490D03*
%TO.P,U6,31,VSS*%
%TO.N,GND*%
X69042490Y-95550490D03*
%TO.P,U6,32,VDD*%
%TO.N,+3V3*%
X69042490Y-95050490D03*
D27*
%TO.P,U6,33,PB12*%
%TO.N,GPIOI_0*%
X67117490Y-93125490D03*
%TO.P,U6,34,PB13*%
%TO.N,GPIOI_1*%
X66617490Y-93125490D03*
%TO.P,U6,35,PB14*%
%TO.N,GPIOI_2*%
X66117490Y-93125490D03*
%TO.P,U6,36,PB15*%
%TO.N,GPIOI_3*%
X65617490Y-93125490D03*
%TO.P,U6,37,PC6*%
%TO.N,GPIOI_4*%
X65117490Y-93125490D03*
%TO.P,U6,38,PC7*%
%TO.N,unconnected-(U6-Pad38)*%
X64617490Y-93125490D03*
%TO.P,U6,39,PC8*%
%TO.N,/STM32L151RET6TR/PC8*%
X64117490Y-93125490D03*
%TO.P,U6,40,PC9*%
%TO.N,SDA2*%
X63617490Y-93125490D03*
%TO.P,U6,41,PA8*%
%TO.N,/STM32L151RET6TR/PIN41*%
X63117490Y-93125490D03*
%TO.P,U6,42,PA9*%
%TO.N,/STM32L151RET6TR/PA9*%
X62617490Y-93125490D03*
%TO.P,U6,43,PA10*%
%TO.N,/STM32L151RET6TR/PA10*%
X62117490Y-93125490D03*
%TO.P,U6,44,PA11*%
%TO.N,/STM32L151RET6TR/FTDI_CTS*%
X61617490Y-93125490D03*
%TO.P,U6,45,PA12*%
%TO.N,/STM32L151RET6TR/FTDI_RTS*%
X61117490Y-93125490D03*
%TO.P,U6,46,PA13*%
%TO.N,/STM32L151RET6TR/SWDAT*%
X60617490Y-93125490D03*
%TO.P,U6,47,VSS*%
%TO.N,GND*%
X60117490Y-93125490D03*
%TO.P,U6,48,VDD*%
%TO.N,+3V3*%
X59617490Y-93125490D03*
D28*
%TO.P,U6,49,PA14*%
%TO.N,/STM32L151RET6TR/SWCLK*%
X57692490Y-95050490D03*
%TO.P,U6,50,PA15*%
%TO.N,unconnected-(U6-Pad50)*%
X57692490Y-95550490D03*
%TO.P,U6,51,PC10*%
%TO.N,unconnected-(U6-Pad51)*%
X57692490Y-96050490D03*
%TO.P,U6,52,PC11*%
%TO.N,unconnected-(U6-Pad52)*%
X57692490Y-96550490D03*
%TO.P,U6,53,PC12*%
%TO.N,unconnected-(U6-Pad53)*%
X57692490Y-97050490D03*
%TO.P,U6,54,PD2*%
%TO.N,unconnected-(U6-Pad54)*%
X57692490Y-97550490D03*
%TO.P,U6,55,PB3*%
%TO.N,/STM32L151RET6TR/SW0*%
X57692490Y-98050490D03*
%TO.P,U6,56,PB4*%
%TO.N,unconnected-(U6-Pad56)*%
X57692490Y-98550490D03*
%TO.P,U6,57,PB5*%
%TO.N,unconnected-(U6-Pad57)*%
X57692490Y-99050490D03*
%TO.P,U6,58,PB6*%
%TO.N,/STM32L151RET6TR/FTDI_TXD*%
X57692490Y-99550490D03*
%TO.P,U6,59,PB7*%
%TO.N,/STM32L151RET6TR/FTDI_RXD*%
X57692490Y-100050490D03*
%TO.P,U6,60,BOOT0*%
%TO.N,/STM32L151RET6TR/BOOT*%
X57692490Y-100550490D03*
%TO.P,U6,61,PB8*%
%TO.N,SCL1*%
X57692490Y-101050490D03*
%TO.P,U6,62,PB9*%
%TO.N,SDA1*%
X57692490Y-101550490D03*
%TO.P,U6,63,VSS*%
%TO.N,GND*%
X57692490Y-102050490D03*
%TO.P,U6,64,VDD*%
%TO.N,+3V3*%
X57692490Y-102550490D03*
%TD*%
D29*
%TO.P,Y2,1,1*%
%TO.N,/STM32L151RET6TR/OS32_IN*%
X53925490Y-105582490D03*
%TO.P,Y2,2,2*%
%TO.N,GND*%
X48425490Y-105582490D03*
%TO.P,Y2,3,3*%
X48425490Y-108782490D03*
%TO.P,Y2,4,4*%
%TO.N,/STM32L151RET6TR/OS32_OUT*%
X53925490Y-108782490D03*
%TD*%
D19*
%TO.P,D4,1,K*%
%TO.N,GND*%
X85467490Y-93720490D03*
%TO.P,D4,2,A*%
%TO.N,Net-(D4-Pad2)*%
X83417490Y-93720490D03*
%TD*%
D10*
%TO.P,J9,1,Pin_1*%
%TO.N,GND*%
X76321490Y-106674490D03*
D11*
%TO.P,J9,2,Pin_2*%
%TO.N,+3V3*%
X76321490Y-104134490D03*
%TO.P,J9,3,Pin_3*%
%TO.N,/STM32L151RET6TR/UART_TX*%
X76321490Y-101594490D03*
%TO.P,J9,4,Pin_4*%
%TO.N,/STM32L151RET6TR/UART_RX*%
X76321490Y-99054490D03*
%TD*%
D12*
%TO.P,C1,1*%
%TO.N,Net-(C1-Pad1)*%
X87600000Y-84937500D03*
%TO.P,C1,2*%
%TO.N,SW_1*%
X87600000Y-86662500D03*
%TD*%
D10*
%TO.P,J6,1,Pin_1*%
%TO.N,unconnected-(J6-Pad1)*%
X81534000Y-75692000D03*
D11*
%TO.P,J6,2,Pin_2*%
%TO.N,unconnected-(J6-Pad2)*%
X78994000Y-75692000D03*
%TO.P,J6,3,Pin_3*%
%TO.N,LED_5*%
X76454000Y-75692000D03*
%TO.P,J6,4,Pin_4*%
%TO.N,LED_4*%
X73914000Y-75692000D03*
%TO.P,J6,5,Pin_5*%
%TO.N,LED_3*%
X71374000Y-75692000D03*
%TO.P,J6,6,Pin_6*%
%TO.N,LED_2*%
X68834000Y-75692000D03*
%TO.P,J6,7,Pin_7*%
%TO.N,LED_1*%
X66294000Y-75692000D03*
%TO.P,J6,8,Pin_8*%
%TO.N,unconnected-(J6-Pad8)*%
X63754000Y-75692000D03*
%TD*%
D10*
%TO.P,J8,1,Pin_1*%
%TO.N,+3V3*%
X55239490Y-92704490D03*
D11*
%TO.P,J8,2,Pin_2*%
%TO.N,/STM32L151RET6TR/SWCLK*%
X52699490Y-92704490D03*
%TO.P,J8,3,Pin_3*%
%TO.N,GND*%
X50159490Y-92704490D03*
%TO.P,J8,4,Pin_4*%
%TO.N,/STM32L151RET6TR/SWDAT*%
X47619490Y-92704490D03*
%TO.P,J8,5,Pin_5*%
%TO.N,/STM32L151RET6TR/RST*%
X45079490Y-92704490D03*
%TO.P,J8,6,Pin_6*%
%TO.N,/STM32L151RET6TR/SW0*%
X42539490Y-92704490D03*
%TD*%
D30*
%TO.P,Y1,1,1*%
%TO.N,/STM32L151RET6TR/MCO*%
X58355490Y-111500490D03*
%TO.P,Y1,2,2*%
%TO.N,/STM32L151RET6TR/OSM_OUT*%
X66855490Y-111500490D03*
%TD*%
D31*
%TO.P,C3,1*%
%TO.N,VCC*%
X28662500Y-114400000D03*
%TO.P,C3,2*%
%TO.N,GND*%
X25537500Y-114400000D03*
%TD*%
D32*
%TO.P,C4,1*%
%TO.N,VCC*%
X31258000Y-78588000D03*
%TO.P,C4,2*%
%TO.N,GND*%
X31258000Y-75463000D03*
%TD*%
D18*
%TO.P,C5,1*%
%TO.N,Net-(C5-Pad1)*%
X37400000Y-117862500D03*
%TO.P,C5,2*%
%TO.N,Net-(C5-Pad2)*%
X37400000Y-116137500D03*
%TD*%
D16*
%TO.P,C6,1*%
%TO.N,Net-(C6-Pad1)*%
X23521500Y-86995000D03*
%TO.P,C6,2*%
%TO.N,Net-(C6-Pad2)*%
X25246500Y-86995000D03*
%TD*%
D32*
%TO.P,C13,1*%
%TO.N,+3V3*%
X23500000Y-121262500D03*
%TO.P,C13,2*%
%TO.N,GND*%
X23500000Y-118137500D03*
%TD*%
D33*
%TO.P,C34,1*%
%TO.N,+5V*%
X21424500Y-75057000D03*
%TO.P,C34,2*%
%TO.N,GND*%
X24549500Y-75057000D03*
%TD*%
D34*
%TO.P,D7,1,K*%
%TO.N,/OUT3.3*%
X31900000Y-118000000D03*
%TO.P,D7,2,A*%
%TO.N,GND*%
X26900000Y-118000000D03*
%TD*%
D20*
%TO.P,D8,1,K*%
%TO.N,/OUT5.0*%
X27432000Y-79652500D03*
%TO.P,D8,2,A*%
%TO.N,GND*%
X27432000Y-74652500D03*
%TD*%
D35*
%TO.P,L1,1,1*%
%TO.N,/OUT3.3*%
X32429000Y-122620000D03*
%TO.P,L1,2,2*%
%TO.N,+3V3*%
X27929000Y-122620000D03*
%TD*%
D36*
%TO.P,L2,1,1*%
%TO.N,/OUT5.0*%
X22733000Y-82423000D03*
%TO.P,L2,2,2*%
%TO.N,+5V*%
X22733000Y-77923000D03*
%TD*%
D25*
%TO.P,R14,1*%
%TO.N,VCC*%
X29500000Y-111600000D03*
%TO.P,R14,2*%
%TO.N,BUCK_33_EN*%
X31500000Y-111600000D03*
%TD*%
D23*
%TO.P,R15,1*%
%TO.N,VCC*%
X32893000Y-80708500D03*
%TO.P,R15,2*%
%TO.N,BUCK_5_EN*%
X30893000Y-80708500D03*
%TD*%
%TO.P,R18,1*%
%TO.N,Net-(R18-Pad1)*%
X41100000Y-115000000D03*
%TO.P,R18,2*%
%TO.N,GND*%
X39100000Y-115000000D03*
%TD*%
%TO.P,R19,1*%
%TO.N,Net-(R19-Pad1)*%
X32893000Y-82867500D03*
%TO.P,R19,2*%
%TO.N,GND*%
X30893000Y-82867500D03*
%TD*%
D24*
%TO.P,R23,1*%
%TO.N,/OUT3.3*%
X35600000Y-119900000D03*
%TO.P,R23,2*%
%TO.N,Net-(C5-Pad1)*%
X35600000Y-117900000D03*
%TD*%
D23*
%TO.P,R24,1*%
%TO.N,/OUT5.0*%
X25241000Y-85090000D03*
%TO.P,R24,2*%
%TO.N,Net-(C6-Pad1)*%
X23241000Y-85090000D03*
%TD*%
D25*
%TO.P,R25,1*%
%TO.N,Net-(R25-Pad1)*%
X39100000Y-113000000D03*
%TO.P,R25,2*%
%TO.N,Net-(R18-Pad1)*%
X41100000Y-113000000D03*
%TD*%
%TO.P,R26,1*%
%TO.N,Net-(R26-Pad1)*%
X30893000Y-85026500D03*
%TO.P,R26,2*%
%TO.N,Net-(R19-Pad1)*%
X32893000Y-85026500D03*
%TD*%
%TO.P,R27,1*%
%TO.N,Net-(R25-Pad1)*%
X39100000Y-111000000D03*
%TO.P,R27,2*%
%TO.N,+3V3*%
X41100000Y-111000000D03*
%TD*%
%TO.P,R28,1*%
%TO.N,Net-(R26-Pad1)*%
X30893000Y-87185500D03*
%TO.P,R28,2*%
%TO.N,+5V*%
X32893000Y-87185500D03*
%TD*%
D37*
%TO.P,U1,1,BST*%
%TO.N,Net-(C5-Pad2)*%
X35310000Y-115350000D03*
%TO.P,U1,2,GND*%
%TO.N,GND*%
X35310000Y-114400000D03*
%TO.P,U1,3,FB*%
%TO.N,Net-(R25-Pad1)*%
X35310000Y-113450000D03*
%TO.P,U1,4,EN*%
%TO.N,BUCK_33_EN*%
X31890000Y-113450000D03*
%TO.P,U1,5,IN*%
%TO.N,VCC*%
X31890000Y-114400000D03*
%TO.P,U1,6,OUT*%
%TO.N,/OUT3.3*%
X31890000Y-115350000D03*
%TD*%
D38*
%TO.P,U2,1,BST*%
%TO.N,Net-(C6-Pad2)*%
X27149000Y-87435000D03*
%TO.P,U2,2,GND*%
%TO.N,GND*%
X28099000Y-87435000D03*
%TO.P,U2,3,FB*%
%TO.N,Net-(R26-Pad1)*%
X29049000Y-87435000D03*
%TO.P,U2,4,EN*%
%TO.N,BUCK_5_EN*%
X29049000Y-84015000D03*
%TO.P,U2,5,IN*%
%TO.N,VCC*%
X28099000Y-84015000D03*
%TO.P,U2,6,OUT*%
%TO.N,/OUT5.0*%
X27149000Y-84015000D03*
%TD*%
D39*
%TO.P,U3,1,AVDDVCSEL*%
%TO.N,+3V3*%
X102897800Y-101040999D03*
%TO.P,U3,2,AVSSVCSEL*%
%TO.N,GND*%
X102897800Y-100241001D03*
%TO.P,U3,3,GND*%
X102897800Y-99441000D03*
%TO.P,U3,4,GND2*%
X102897800Y-98640999D03*
%TO.P,U3,5,XSHUT*%
%TO.N,XSHUT_0*%
X102897800Y-97841001D03*
D40*
%TO.P,U3,6,GND3*%
%TO.N,GND*%
X104013000Y-97840800D03*
D39*
%TO.P,U3,7,GPIO1*%
%TO.N,GPIOI_0*%
X105128200Y-97841001D03*
%TO.P,U3,8,DNC*%
%TO.N,unconnected-(U3-Pad8)*%
X105128200Y-98640999D03*
%TO.P,U3,9,SDA*%
%TO.N,SDA1*%
X105128200Y-99441000D03*
%TO.P,U3,10,SCL*%
%TO.N,SCL1*%
X105128200Y-100241001D03*
%TO.P,U3,11,AVDD*%
%TO.N,+3V3*%
X105128200Y-101040999D03*
D40*
%TO.P,U3,12,GND4*%
%TO.N,GND*%
X104013000Y-101041200D03*
%TD*%
D39*
%TO.P,U4,1,AVDDVCSEL*%
%TO.N,+3V3*%
X140997800Y-101040999D03*
%TO.P,U4,2,AVSSVCSEL*%
%TO.N,GND*%
X140997800Y-100241001D03*
%TO.P,U4,3,GND*%
X140997800Y-99441000D03*
%TO.P,U4,4,GND2*%
X140997800Y-98640999D03*
%TO.P,U4,5,XSHUT*%
%TO.N,XSHUT_1*%
X140997800Y-97841001D03*
D40*
%TO.P,U4,6,GND3*%
%TO.N,GND*%
X142113000Y-97840800D03*
D39*
%TO.P,U4,7,GPIO1*%
%TO.N,GPIOI_1*%
X143228200Y-97841001D03*
%TO.P,U4,8,DNC*%
%TO.N,unconnected-(U4-Pad8)*%
X143228200Y-98640999D03*
%TO.P,U4,9,SDA*%
%TO.N,SDA1*%
X143228200Y-99441000D03*
%TO.P,U4,10,SCL*%
%TO.N,SCL1*%
X143228200Y-100241001D03*
%TO.P,U4,11,AVDD*%
%TO.N,+3V3*%
X143228200Y-101040999D03*
D40*
%TO.P,U4,12,GND4*%
%TO.N,GND*%
X142113000Y-101041200D03*
%TD*%
D39*
%TO.P,U5,1,AVDDVCSEL*%
%TO.N,+3V3*%
X178462800Y-101040999D03*
%TO.P,U5,2,AVSSVCSEL*%
%TO.N,GND*%
X178462800Y-100241001D03*
%TO.P,U5,3,GND*%
X178462800Y-99441000D03*
%TO.P,U5,4,GND2*%
X178462800Y-98640999D03*
%TO.P,U5,5,XSHUT*%
%TO.N,XSHUT_2*%
X178462800Y-97841001D03*
D40*
%TO.P,U5,6,GND3*%
%TO.N,GND*%
X179578000Y-97840800D03*
D39*
%TO.P,U5,7,GPIO1*%
%TO.N,GPIOI_2*%
X180693200Y-97841001D03*
%TO.P,U5,8,DNC*%
%TO.N,unconnected-(U5-Pad8)*%
X180693200Y-98640999D03*
%TO.P,U5,9,SDA*%
%TO.N,SDA1*%
X180693200Y-99441000D03*
%TO.P,U5,10,SCL*%
%TO.N,SCL1*%
X180693200Y-100241001D03*
%TO.P,U5,11,AVDD*%
%TO.N,+3V3*%
X180693200Y-101040999D03*
D40*
%TO.P,U5,12,GND4*%
%TO.N,GND*%
X179578000Y-101041200D03*
%TD*%
D39*
%TO.P,U8,1,AVDDVCSEL*%
%TO.N,+3V3*%
X216562800Y-101040999D03*
%TO.P,U8,2,AVSSVCSEL*%
%TO.N,GND*%
X216562800Y-100241001D03*
%TO.P,U8,3,GND*%
X216562800Y-99441000D03*
%TO.P,U8,4,GND2*%
X216562800Y-98640999D03*
%TO.P,U8,5,XSHUT*%
%TO.N,XSHUT_3*%
X216562800Y-97841001D03*
D40*
%TO.P,U8,6,GND3*%
%TO.N,GND*%
X217678000Y-97840800D03*
D39*
%TO.P,U8,7,GPIO1*%
%TO.N,GPIOI_3*%
X218793200Y-97841001D03*
%TO.P,U8,8,DNC*%
%TO.N,unconnected-(U8-Pad8)*%
X218793200Y-98640999D03*
%TO.P,U8,9,SDA*%
%TO.N,SDA1*%
X218793200Y-99441000D03*
%TO.P,U8,10,SCL*%
%TO.N,SCL1*%
X218793200Y-100241001D03*
%TO.P,U8,11,AVDD*%
%TO.N,+3V3*%
X218793200Y-101040999D03*
D40*
%TO.P,U8,12,GND4*%
%TO.N,GND*%
X217678000Y-101041200D03*
%TD*%
D10*
%TO.P,J11,1,Pin_1*%
%TO.N,GND*%
X42539490Y-104134490D03*
D11*
%TO.P,J11,2,Pin_2*%
%TO.N,/STM32L151RET6TR/RST*%
X45079490Y-104134490D03*
%TD*%
D10*
%TO.P,J12,1,Pin_1*%
%TO.N,+3V3*%
X42539490Y-100324490D03*
D11*
%TO.P,J12,2,Pin_2*%
%TO.N,/STM32L151RET6TR/BOOT*%
X45079490Y-100324490D03*
%TD*%
D27*
%TO.P,U7,1,VBAT*%
%TO.N,+3V3*%
X59617490Y-104475490D03*
%TO.P,U7,2,PC13*%
%TO.N,BUCK_5_EN*%
X60117490Y-104475490D03*
%TO.P,U7,3,PC14*%
%TO.N,/STM32L151RET6TR/OS32_IN*%
X60617490Y-104475490D03*
%TO.P,U7,4,PC15*%
%TO.N,/STM32L151RET6TR/OS32_OUT*%
X61117490Y-104475490D03*
%TO.P,U7,5,PH0*%
%TO.N,/STM32L151RET6TR/MCO*%
X61617490Y-104475490D03*
%TO.P,U7,6,PH1*%
%TO.N,/STM32L151RET6TR/OSM_OUT*%
X62117490Y-104475490D03*
%TO.P,U7,7,NRST*%
%TO.N,/STM32L151RET6TR/RST*%
X62617490Y-104475490D03*
%TO.P,U7,8,PC0*%
%TO.N,XSHUT_0*%
X63117490Y-104475490D03*
%TO.P,U7,9,PC1*%
%TO.N,XSHUT_1*%
X63617490Y-104475490D03*
%TO.P,U7,10,PC2*%
%TO.N,XSHUT_2*%
X64117490Y-104475490D03*
%TO.P,U7,11,PC3*%
%TO.N,XSHUT_3*%
X64617490Y-104475490D03*
%TO.P,U7,12,VSSA*%
%TO.N,GND*%
X65117490Y-104475490D03*
%TO.P,U7,13,VREF+*%
%TO.N,+3V3*%
X65617490Y-104475490D03*
%TO.P,U7,14,PA0*%
%TO.N,LED_1*%
X66117490Y-104475490D03*
%TO.P,U7,15,PA1*%
%TO.N,LED_2*%
X66617490Y-104475490D03*
%TO.P,U7,16,PA2*%
%TO.N,/STM32L151RET6TR/UART_TX*%
X67117490Y-104475490D03*
D28*
%TO.P,U7,17,PA3*%
%TO.N,/STM32L151RET6TR/UART_RX*%
X69042490Y-102550490D03*
%TO.P,U7,18,VSS*%
%TO.N,GND*%
X69042490Y-102050490D03*
%TO.P,U7,19,VDD*%
%TO.N,+3V3*%
X69042490Y-101550490D03*
%TO.P,U7,20,PA4*%
%TO.N,unconnected-(U7-Pad20)*%
X69042490Y-101050490D03*
%TO.P,U7,21,PA5*%
%TO.N,unconnected-(U7-Pad21)*%
X69042490Y-100550490D03*
%TO.P,U7,22,PA6*%
%TO.N,LED_3*%
X69042490Y-100050490D03*
%TO.P,U7,23,PA7*%
%TO.N,LED_4*%
X69042490Y-99550490D03*
%TO.P,U7,24,PC4*%
%TO.N,XSHUT_4*%
X69042490Y-99050490D03*
%TO.P,U7,25,PC5*%
%TO.N,unconnected-(U7-Pad25)*%
X69042490Y-98550490D03*
%TO.P,U7,26,PB0*%
%TO.N,LED_5*%
X69042490Y-98050490D03*
%TO.P,U7,27,PB1*%
%TO.N,SW_1*%
X69042490Y-97550490D03*
%TO.P,U7,28,PB2*%
%TO.N,SW_2*%
X69042490Y-97050490D03*
%TO.P,U7,29,PB10*%
%TO.N,/STM32L151RET6TR/PIN29*%
X69042490Y-96550490D03*
%TO.P,U7,30,VCAP1*%
%TO.N,/STM32L151RET6TR/PIN30*%
X69042490Y-96050490D03*
%TO.P,U7,31,VSS*%
%TO.N,GND*%
X69042490Y-95550490D03*
%TO.P,U7,32,VDD*%
%TO.N,+3V3*%
X69042490Y-95050490D03*
D27*
%TO.P,U7,33,PB12*%
%TO.N,GPIOI_0*%
X67117490Y-93125490D03*
%TO.P,U7,34,PB13*%
%TO.N,GPIOI_1*%
X66617490Y-93125490D03*
%TO.P,U7,35,PB14*%
%TO.N,GPIOI_2*%
X66117490Y-93125490D03*
%TO.P,U7,36,PB15*%
%TO.N,GPIOI_3*%
X65617490Y-93125490D03*
%TO.P,U7,37,PC6*%
%TO.N,GPIOI_4*%
X65117490Y-93125490D03*
%TO.P,U7,38,PC7*%
%TO.N,unconnected-(U7-Pad38)*%
X64617490Y-93125490D03*
%TO.P,U7,39,PC8*%
%TO.N,/STM32L151RET6TR/PC8*%
X64117490Y-93125490D03*
%TO.P,U7,40,PC9*%
%TO.N,SDA2*%
X63617490Y-93125490D03*
%TO.P,U7,41,PA8*%
%TO.N,/STM32L151RET6TR/PIN41*%
X63117490Y-93125490D03*
%TO.P,U7,42,PA9*%
%TO.N,/STM32L151RET6TR/PA9*%
X62617490Y-93125490D03*
%TO.P,U7,43,PA10*%
%TO.N,/STM32L151RET6TR/PA10*%
X62117490Y-93125490D03*
%TO.P,U7,44,PA11*%
%TO.N,/STM32L151RET6TR/FTDI_CTS*%
X61617490Y-93125490D03*
%TO.P,U7,45,PA12*%
%TO.N,/STM32L151RET6TR/FTDI_RTS*%
X61117490Y-93125490D03*
%TO.P,U7,46,PA13*%
%TO.N,/STM32L151RET6TR/SWDAT*%
X60617490Y-93125490D03*
%TO.P,U7,47,VSS*%
%TO.N,GND*%
X60117490Y-93125490D03*
%TO.P,U7,48,VDD*%
%TO.N,+3V3*%
X59617490Y-93125490D03*
D28*
%TO.P,U7,49,PA14*%
%TO.N,/STM32L151RET6TR/SWCLK*%
X57692490Y-95050490D03*
%TO.P,U7,50,PA15*%
%TO.N,unconnected-(U7-Pad50)*%
X57692490Y-95550490D03*
%TO.P,U7,51,PC10*%
%TO.N,unconnected-(U7-Pad51)*%
X57692490Y-96050490D03*
%TO.P,U7,52,PC11*%
%TO.N,unconnected-(U7-Pad52)*%
X57692490Y-96550490D03*
%TO.P,U7,53,PC12*%
%TO.N,unconnected-(U7-Pad53)*%
X57692490Y-97050490D03*
%TO.P,U7,54,PD2*%
%TO.N,unconnected-(U7-Pad54)*%
X57692490Y-97550490D03*
%TO.P,U7,55,PB3*%
%TO.N,/STM32L151RET6TR/SW0*%
X57692490Y-98050490D03*
%TO.P,U7,56,PB4*%
%TO.N,unconnected-(U7-Pad56)*%
X57692490Y-98550490D03*
%TO.P,U7,57,PB5*%
%TO.N,unconnected-(U7-Pad57)*%
X57692490Y-99050490D03*
%TO.P,U7,58,PB6*%
%TO.N,/STM32L151RET6TR/FTDI_TXD*%
X57692490Y-99550490D03*
%TO.P,U7,59,PB7*%
%TO.N,/STM32L151RET6TR/FTDI_RXD*%
X57692490Y-100050490D03*
%TO.P,U7,60,BOOT0*%
%TO.N,/STM32L151RET6TR/BOOT*%
X57692490Y-100550490D03*
%TO.P,U7,61,PB8*%
%TO.N,SCL1*%
X57692490Y-101050490D03*
%TO.P,U7,62,PB9*%
%TO.N,SDA1*%
X57692490Y-101550490D03*
%TO.P,U7,63,VSS*%
%TO.N,GND*%
X57692490Y-102050490D03*
%TO.P,U7,64,VDD*%
%TO.N,+3V3*%
X57692490Y-102550490D03*
%TD*%
D39*
%TO.P,U9,1,AVDDVCSEL*%
%TO.N,+3V3*%
X254662800Y-101040999D03*
%TO.P,U9,2,AVSSVCSEL*%
%TO.N,GND*%
X254662800Y-100241001D03*
%TO.P,U9,3,GND*%
X254662800Y-99441000D03*
%TO.P,U9,4,GND2*%
X254662800Y-98640999D03*
%TO.P,U9,5,XSHUT*%
%TO.N,XSHUT_4*%
X254662800Y-97841001D03*
D40*
%TO.P,U9,6,GND3*%
%TO.N,GND*%
X255778000Y-97840800D03*
D39*
%TO.P,U9,7,GPIO1*%
%TO.N,GPIOI_4*%
X256893200Y-97841001D03*
%TO.P,U9,8,DNC*%
%TO.N,unconnected-(U9-Pad8)*%
X256893200Y-98640999D03*
%TO.P,U9,9,SDA*%
%TO.N,SDA1*%
X256893200Y-99441000D03*
%TO.P,U9,10,SCL*%
%TO.N,SCL1*%
X256893200Y-100241001D03*
%TO.P,U9,11,AVDD*%
%TO.N,+3V3*%
X256893200Y-101040999D03*
D40*
%TO.P,U9,12,GND4*%
%TO.N,GND*%
X255778000Y-101041200D03*
%TD*%
D41*
%TO.P,C43,1*%
%TO.N,VCC*%
X37481000Y-80054800D03*
%TO.P,C43,2*%
%TO.N,GND*%
X37481000Y-85654800D03*
%TD*%
D42*
%TO.N,GND*%
X49784000Y-106934000D03*
X47778000Y-103759000D03*
X131699000Y-100203000D03*
X130810000Y-97282000D03*
X133350000Y-99695000D03*
X134874000Y-98171000D03*
%TO.N,+3V3*%
X128270000Y-93726000D03*
X129540000Y-93726000D03*
%TO.N,GND*%
X234188000Y-96520000D03*
X234188000Y-98552000D03*
X234188000Y-100838000D03*
X234188000Y-103124000D03*
X234188000Y-105918000D03*
X238760000Y-105918000D03*
X239522000Y-103124000D03*
X239014000Y-100838000D03*
X239014000Y-98552000D03*
X239014000Y-96520000D03*
X239268000Y-90932000D03*
X234188000Y-90932000D03*
X124968000Y-106172000D03*
X120396000Y-102108000D03*
X124968000Y-102108000D03*
X158242000Y-99568000D03*
X158242000Y-106172000D03*
X162814000Y-106172000D03*
X162814000Y-104140000D03*
X158242000Y-104140000D03*
X158242000Y-101854000D03*
X162814000Y-101854000D03*
X162814000Y-99568000D03*
X162814000Y-97028000D03*
X158242000Y-97028000D03*
X158242000Y-94742000D03*
X162814000Y-94742000D03*
X162814000Y-92710000D03*
X158242000Y-92710000D03*
X158242000Y-90678000D03*
X162814000Y-90678000D03*
X195834000Y-104140000D03*
X195834000Y-102108000D03*
X195834000Y-100076000D03*
X195834000Y-97790000D03*
X200914000Y-97790000D03*
X200914000Y-100076000D03*
X200914000Y-102108000D03*
X200914000Y-104140000D03*
X200914000Y-106172000D03*
X197104000Y-106172000D03*
X199898000Y-92710000D03*
X197104000Y-92710000D03*
X197104000Y-94742000D03*
X200152000Y-94742000D03*
X195834000Y-91440000D03*
X196342000Y-90424000D03*
X201422000Y-91440000D03*
X200914000Y-90424000D03*
X70358000Y-81280000D03*
X181447000Y-102906000D03*
X259334000Y-98425000D03*
X221234000Y-98425000D03*
X57912000Y-89408000D03*
X219547000Y-102906000D03*
X22200000Y-111600000D03*
X143347000Y-102906000D03*
X104648000Y-117348000D03*
X107188000Y-117348000D03*
X39005000Y-85788500D03*
X109728000Y-117348000D03*
X98298000Y-91186000D03*
X105882000Y-79157000D03*
X23800000Y-113100000D03*
X124900000Y-92700000D03*
X70358000Y-104398500D03*
X27051000Y-85725000D03*
X178907000Y-102906000D03*
X257647000Y-102906000D03*
X170180000Y-99822000D03*
X117856000Y-90297000D03*
X24638000Y-72898000D03*
X102108000Y-117348000D03*
X138609750Y-97982652D03*
X103342000Y-79157000D03*
X20800000Y-111600000D03*
X108422000Y-104466000D03*
X35957000Y-84772500D03*
X98298000Y-117348000D03*
X171704000Y-98806000D03*
X73500000Y-93800000D03*
X124900000Y-90500000D03*
X98044000Y-106462000D03*
X91000000Y-83200000D03*
X22200000Y-113100000D03*
X119700000Y-98800000D03*
X61722000Y-99695000D03*
X61785500Y-116903500D03*
X29337000Y-90424000D03*
X105882000Y-104466000D03*
X108422000Y-79157000D03*
X203835000Y-99060000D03*
X60256500Y-91313000D03*
X56500000Y-106000000D03*
X205486000Y-100457000D03*
X140843000Y-102870000D03*
X52197000Y-99568000D03*
X107475506Y-91025494D03*
X215392000Y-97331000D03*
X104775000Y-101981000D03*
X124900000Y-98800000D03*
X217007000Y-102906000D03*
X116332000Y-91694000D03*
X167640000Y-100330000D03*
X211963000Y-109728000D03*
X253492000Y-97331000D03*
X135763000Y-109601000D03*
X26924000Y-89281000D03*
X183388000Y-98298000D03*
X183987000Y-102906000D03*
X72300000Y-95017034D03*
X252222000Y-98425000D03*
X28117800Y-90424000D03*
X20800000Y-116200000D03*
X28117800Y-89306400D03*
X173736000Y-109982000D03*
X63436500Y-116903500D03*
X23800000Y-116200000D03*
X222087000Y-102906000D03*
X48381490Y-110738490D03*
X39005000Y-86804500D03*
X142113000Y-100076000D03*
X31115000Y-74041000D03*
X250063000Y-109728000D03*
X97155000Y-96647000D03*
X20800000Y-114600000D03*
X103378000Y-101981000D03*
X245999000Y-99822000D03*
X124900000Y-96800000D03*
X51435000Y-112268000D03*
X119700000Y-94700000D03*
X217678000Y-96647000D03*
X64637490Y-102610490D03*
X28083000Y-85725000D03*
X33700000Y-114400000D03*
X142113000Y-96774000D03*
X62605490Y-117342490D03*
X31115000Y-73025000D03*
X74000000Y-91868540D03*
X124900000Y-94700000D03*
X37000000Y-114400000D03*
X86778500Y-96065789D03*
X247396000Y-98552000D03*
X209296000Y-98552000D03*
X179670688Y-96427312D03*
X21500000Y-118600000D03*
X97790000Y-81026000D03*
X119700000Y-90500000D03*
X25654000Y-72898000D03*
X22200000Y-116200000D03*
X35957000Y-86804500D03*
X23800000Y-111600000D03*
X145415000Y-98298000D03*
X35957000Y-85788500D03*
X255778000Y-96647000D03*
X23800000Y-114600000D03*
X26924000Y-90424000D03*
X59303490Y-101848490D03*
X175768000Y-98298000D03*
X119700000Y-96800000D03*
X258064000Y-97282000D03*
X243586000Y-100457000D03*
X214122000Y-98425000D03*
X72600000Y-90400000D03*
X165608000Y-98806000D03*
X29146500Y-85725000D03*
X67177490Y-98800490D03*
X39005000Y-84772500D03*
X219964000Y-97282000D03*
X60452000Y-89408000D03*
X103342000Y-104466000D03*
X32131000Y-74041000D03*
X30099000Y-73025000D03*
X20800000Y-113100000D03*
X22200000Y-114600000D03*
X109728000Y-91059000D03*
X70612299Y-96087701D03*
X260187000Y-102906000D03*
X119700000Y-92700000D03*
X100917502Y-88773000D03*
X56515000Y-103700000D03*
X104561752Y-90819168D03*
X255107000Y-102906000D03*
X72462136Y-102815120D03*
X30099000Y-74041000D03*
X26670000Y-72898000D03*
X68707000Y-103632000D03*
X207899000Y-99822000D03*
X241935000Y-99060000D03*
X104140000Y-96647000D03*
X49874000Y-109384000D03*
X32131000Y-73025000D03*
X64643000Y-100838000D03*
X20800000Y-117500000D03*
X145887000Y-102906000D03*
X142096743Y-98806956D03*
X29337000Y-89281000D03*
%TO.N,+3V3*%
X221234000Y-100584000D03*
X97790000Y-79629000D03*
X24600000Y-122800000D03*
X242189000Y-93726000D03*
X183134000Y-100203000D03*
X21700000Y-124800000D03*
X145923000Y-100965000D03*
X72500000Y-101100000D03*
X259334000Y-100584000D03*
X138811000Y-100330000D03*
X23100000Y-122800000D03*
X106370700Y-101045298D03*
X57912000Y-90678000D03*
X90818000Y-87018000D03*
X97790000Y-88138000D03*
X202438000Y-93726000D03*
X80033000Y-87033000D03*
X252222000Y-100203000D03*
X70600000Y-90400000D03*
X60452000Y-101727000D03*
X176149000Y-100203000D03*
X97536000Y-116078000D03*
X240538000Y-93726000D03*
X58800000Y-106000000D03*
X97790000Y-89408000D03*
X50673000Y-83312000D03*
X97790000Y-78486000D03*
X101600000Y-101092000D03*
X23100000Y-123800000D03*
X65659000Y-100457000D03*
X114554000Y-93091000D03*
X115316000Y-93853000D03*
X98044000Y-104938000D03*
X166878000Y-93726000D03*
X45720000Y-110490000D03*
X21700000Y-121700000D03*
X24600000Y-124800000D03*
X42800000Y-111000000D03*
X65913000Y-102616000D03*
X165354000Y-93726000D03*
X23100000Y-124800000D03*
X21700000Y-122800000D03*
X54737000Y-82581990D03*
X57800000Y-106000000D03*
X70500000Y-88299488D03*
X21700000Y-120700000D03*
X204089000Y-93726000D03*
X21700000Y-123800000D03*
X24600000Y-123800000D03*
X64897000Y-97663000D03*
X214122000Y-100203000D03*
X98044000Y-103922000D03*
X97536000Y-114554000D03*
%TO.N,XSHUT_1*%
X140843000Y-105156000D03*
X103378000Y-85979000D03*
X139700000Y-96393000D03*
X67448327Y-117230437D03*
X67437000Y-120396000D03*
%TO.N,GPIOI_1*%
X137144951Y-98567049D03*
X100838000Y-85979000D03*
X138176000Y-105156000D03*
X62738000Y-77851000D03*
X141097000Y-96393000D03*
%TO.N,XSHUT_2*%
X68195141Y-116566152D03*
X68199000Y-119741501D03*
X103378000Y-91059000D03*
X176911000Y-95123000D03*
X178943000Y-105156000D03*
%TO.N,GPIOI_2*%
X100838000Y-91059000D03*
X94900000Y-86500000D03*
X176403000Y-105156000D03*
X62098134Y-78618839D03*
X180721000Y-96520000D03*
%TO.N,XSHUT_0*%
X91821000Y-103632000D03*
X107188000Y-96139000D03*
X66675000Y-119741501D03*
X66680435Y-116590634D03*
%TO.N,GPIOI_0*%
X81407000Y-102362000D03*
X109474000Y-96139000D03*
X68066490Y-93212490D03*
%TO.N,LED_3*%
X77845490Y-96008501D03*
X69209490Y-90672490D03*
%TO.N,LED_4*%
X69402503Y-89473508D03*
X78089042Y-93809500D03*
%TO.N,LED_1*%
X67939490Y-91942490D03*
X78220501Y-100578490D03*
%TO.N,LED_2*%
X68890788Y-91635834D03*
X77852679Y-97007978D03*
%TO.N,SW_1*%
X87600000Y-88800000D03*
X85581503Y-119888000D03*
X85648800Y-115214400D03*
%TO.N,SW_2*%
X84582000Y-115214400D03*
X72500000Y-88200000D03*
X84582000Y-119888000D03*
%TO.N,+5V*%
X39000000Y-97200000D03*
X22860000Y-75184000D03*
X39000000Y-96000000D03*
X22860000Y-76073000D03*
X39000000Y-98400000D03*
X31920572Y-86054631D03*
X22860000Y-74295000D03*
%TO.N,/STM32L151RET6TR/RST*%
X63113490Y-106928490D03*
%TO.N,SCL1*%
X105918000Y-123444000D03*
X47619490Y-101594490D03*
X181483000Y-105156000D03*
X257683000Y-105156000D03*
X105918000Y-106716000D03*
X219583000Y-105156000D03*
X143383000Y-105156000D03*
%TO.N,SDA1*%
X260223000Y-105156000D03*
X184023000Y-105029000D03*
X145923000Y-105156000D03*
X108458000Y-122047000D03*
X109728000Y-107097000D03*
X47624143Y-102615143D03*
X222123000Y-105029000D03*
%TO.N,/STM32L151RET6TR/FTDI_RXD*%
X46355000Y-95250000D03*
%TO.N,/STM32L151RET6TR/FTDI_TXD*%
X48888299Y-95243387D03*
%TO.N,/STM32L151RET6TR/FTDI_CTS*%
X60065490Y-100324490D03*
%TO.N,SCL2*%
X46857490Y-83306490D03*
X62865000Y-88011000D03*
%TO.N,SDA2*%
X49397490Y-83306490D03*
X62864989Y-89281000D03*
%TO.N,/STM32L151RET6TR/PIN41*%
X62892990Y-90551000D03*
%TO.N,/STM32L151RET6TR/PIN29*%
X64897000Y-96647000D03*
%TO.N,/STM32L151RET6TR/PIN30*%
X67564000Y-95504000D03*
%TO.N,/STM32L151RET6TR/PC8*%
X51937490Y-83306490D03*
%TO.N,/STM32L151RET6TR/PA9*%
X44317490Y-83306490D03*
%TO.N,/STM32L151RET6TR/PA10*%
X41777490Y-83052490D03*
%TO.N,BUCK_5_EN*%
X40550500Y-84785200D03*
X59181992Y-102997008D03*
X31852210Y-81809930D03*
X51435000Y-86868000D03*
%TO.N,XSHUT_3*%
X69020803Y-120310399D03*
X103378000Y-111288000D03*
X214757000Y-95123000D03*
X68961000Y-117221000D03*
X217043000Y-105156000D03*
%TO.N,GPIOI_3*%
X82065801Y-103113656D03*
X214503000Y-105626500D03*
X90995500Y-104457500D03*
X68067701Y-94238299D03*
X100838000Y-111288000D03*
X62759776Y-79367996D03*
X218795600Y-96520000D03*
%TO.N,XSHUT_4*%
X255143000Y-105410000D03*
X252730000Y-95123000D03*
X69977000Y-119741501D03*
X69981299Y-116590299D03*
X103378000Y-117475000D03*
%TO.N,GPIOI_4*%
X256895600Y-96672400D03*
X252603000Y-105283000D03*
X100838000Y-117475000D03*
X89800000Y-104300000D03*
X62045029Y-80092496D03*
%TO.N,LED_5*%
X69362489Y-88403186D03*
X78099490Y-91434490D03*
%TD*%
D43*
%TO.N,GND*%
X48432490Y-105582490D02*
X49784000Y-106934000D01*
X48425490Y-105582490D02*
X48432490Y-105582490D01*
X48425490Y-104406490D02*
X47778000Y-103759000D01*
X48425490Y-105582490D02*
X48425490Y-104406490D01*
%TO.N,Net-(R25-Pad1)*%
X39100000Y-111000000D02*
X39100000Y-113000000D01*
D44*
%TO.N,Net-(R18-Pad1)*%
X41100000Y-113000000D02*
X41100000Y-115000000D01*
%TO.N,Net-(C5-Pad2)*%
X37465000Y-115765000D02*
X37050000Y-115350000D01*
X37465000Y-116072500D02*
X37465000Y-115765000D01*
X37400000Y-116137500D02*
X37465000Y-116072500D01*
X35310000Y-115350000D02*
X37050000Y-115350000D01*
D43*
%TO.N,+3V3*%
X43047490Y-110752510D02*
X42800000Y-111000000D01*
X43047490Y-109182490D02*
X43047490Y-110752510D01*
%TO.N,GND*%
X70300000Y-81338000D02*
X70358000Y-81280000D01*
X70300000Y-82900000D02*
X70300000Y-81338000D01*
X56515000Y-103700000D02*
X56509490Y-103705510D01*
D44*
X217678000Y-101041200D02*
X217678000Y-102235000D01*
D43*
X70612299Y-96087701D02*
X70075088Y-95550490D01*
X102897800Y-98640999D02*
X103593999Y-98640999D01*
D44*
X72637500Y-91900000D02*
X73968540Y-91900000D01*
D43*
X65117490Y-103147492D02*
X64637490Y-102667492D01*
X254662800Y-100241001D02*
X255358999Y-100241001D01*
X61595000Y-116713000D02*
X61785500Y-116903500D01*
D44*
X179578000Y-102235000D02*
X178907000Y-102906000D01*
D43*
X48425490Y-108782490D02*
X48425490Y-110694490D01*
X102897800Y-100241001D02*
X103593999Y-100241001D01*
X178462800Y-98640999D02*
X179235001Y-98640999D01*
X61589490Y-115564490D02*
X61595000Y-115570000D01*
X104013000Y-101346000D02*
X103378000Y-101981000D01*
D44*
X85449490Y-100578490D02*
X85449490Y-98310490D01*
X255778000Y-98171000D02*
X255778000Y-98679000D01*
D43*
X60117490Y-93125490D02*
X60117490Y-92017490D01*
X142113000Y-101041200D02*
X142113000Y-100556200D01*
X61595000Y-115570000D02*
X61595000Y-116713000D01*
X104013000Y-101041200D02*
X104013000Y-100584000D01*
D44*
X38508000Y-115008000D02*
X37900000Y-114400000D01*
X29823511Y-83936989D02*
X29823511Y-85464511D01*
X58012500Y-89307500D02*
X57912000Y-89408000D01*
X255778000Y-97840800D02*
X255778000Y-98171000D01*
D43*
X142113000Y-97840800D02*
X142113000Y-98325800D01*
X179451000Y-100457000D02*
X179578000Y-100457000D01*
D44*
X255778000Y-100711000D02*
X255778000Y-101041200D01*
X28099000Y-87435000D02*
X28099000Y-85741000D01*
D43*
X104013000Y-99441000D02*
X104013000Y-99060000D01*
D44*
X85467490Y-93720490D02*
X85467490Y-91443490D01*
X217678000Y-99822000D02*
X217678000Y-100203000D01*
D43*
X69690480Y-102075480D02*
X70075480Y-102075480D01*
D44*
X255778000Y-99568000D02*
X255778000Y-99822000D01*
D43*
X63621490Y-116718510D02*
X63436500Y-116903500D01*
X103593999Y-100241001D02*
X104013000Y-99822000D01*
X142113000Y-98790699D02*
X142096743Y-98806956D01*
X179235001Y-98640999D02*
X179285999Y-98640999D01*
X51328990Y-103372490D02*
X50635490Y-103372490D01*
D44*
X217678000Y-100203000D02*
X217678000Y-100711000D01*
X217678000Y-98679000D02*
X217678000Y-99060000D01*
X217678000Y-100711000D02*
X217678000Y-101041200D01*
X29146500Y-85725000D02*
X28083000Y-85725000D01*
D43*
X140997800Y-99441000D02*
X141859000Y-99441000D01*
D44*
X217678000Y-98171000D02*
X217678000Y-98679000D01*
X255778000Y-102235000D02*
X255107000Y-102906000D01*
X178462800Y-98640999D02*
X179489001Y-98640999D01*
D43*
X72300000Y-95017034D02*
X72262500Y-94979534D01*
X179235001Y-100241001D02*
X179451000Y-100457000D01*
D44*
X217678000Y-97840800D02*
X217678000Y-96647000D01*
D43*
X254662800Y-98640999D02*
X255435001Y-98640999D01*
X217335001Y-98640999D02*
X217639999Y-98640999D01*
X216562800Y-98640999D02*
X217335001Y-98640999D01*
D44*
X37000000Y-114400000D02*
X35310000Y-114400000D01*
X179578000Y-98552000D02*
X179578000Y-98298000D01*
D43*
X50800000Y-99568000D02*
X52197000Y-99568000D01*
D44*
X179578000Y-100457000D02*
X179578000Y-99822000D01*
D43*
X103632000Y-99441000D02*
X104013000Y-99822000D01*
X217551000Y-99441000D02*
X217678000Y-99568000D01*
X103924001Y-98640999D02*
X104013000Y-98552000D01*
D44*
X142113000Y-101600000D02*
X140843000Y-102870000D01*
D43*
X103632000Y-99441000D02*
X104013000Y-99060000D01*
D44*
X35310000Y-114400000D02*
X33700000Y-114400000D01*
D43*
X104013000Y-98552000D02*
X104013000Y-98298000D01*
D44*
X255778000Y-100203000D02*
X255778000Y-100711000D01*
D43*
X51482490Y-110992490D02*
X51482490Y-112220510D01*
X104013000Y-96774000D02*
X104140000Y-96647000D01*
X60117490Y-92017490D02*
X60117490Y-91452010D01*
D44*
X255778000Y-98679000D02*
X255778000Y-99060000D01*
D43*
X140997800Y-100241001D02*
X141947999Y-100241001D01*
D44*
X179578000Y-99822000D02*
X179578000Y-99568000D01*
D43*
X51482490Y-112220510D02*
X51435000Y-112268000D01*
X255435001Y-98640999D02*
X255778000Y-98298000D01*
D44*
X27051000Y-85725000D02*
X28083000Y-85725000D01*
X56509490Y-103705510D02*
X56509490Y-105990510D01*
D43*
X216562800Y-99441000D02*
X217551000Y-99441000D01*
D44*
X30893000Y-82867500D02*
X29823511Y-83936989D01*
X142113000Y-98823213D02*
X142113000Y-97840800D01*
D43*
X63621490Y-115564490D02*
X63621490Y-116718510D01*
X217208001Y-100241001D02*
X217678000Y-100711000D01*
X102897800Y-99441000D02*
X104013000Y-99441000D01*
X142113000Y-100076000D02*
X142113000Y-99695000D01*
D44*
X255778000Y-101041200D02*
X255778000Y-102235000D01*
D43*
X255397000Y-100203000D02*
X255358999Y-100241001D01*
X255308001Y-100241001D02*
X255778000Y-100711000D01*
X255435001Y-98640999D02*
X255435001Y-98717001D01*
X104013000Y-97840800D02*
X104013000Y-96774000D01*
X254662800Y-100241001D02*
X255308001Y-100241001D01*
D44*
X176110999Y-98640999D02*
X175768000Y-98298000D01*
D43*
X104013000Y-100584000D02*
X104013000Y-100330000D01*
D44*
X86719201Y-96006490D02*
X86778500Y-96065789D01*
D43*
X70075480Y-102075480D02*
X70811490Y-102811490D01*
X103670001Y-98640999D02*
X104013000Y-98298000D01*
D44*
X255778000Y-99822000D02*
X255778000Y-100203000D01*
X85467490Y-98292490D02*
X85467490Y-96006490D01*
D43*
X217678000Y-98298000D02*
X217678000Y-98171000D01*
D44*
X37900000Y-114400000D02*
X37000000Y-114400000D01*
D43*
X179235001Y-100241001D02*
X179578000Y-99898002D01*
D44*
X142113000Y-101041200D02*
X142113000Y-101672000D01*
X179578000Y-99568000D02*
X179578000Y-98933000D01*
D43*
X70075088Y-95550490D02*
X69042490Y-95550490D01*
X62997510Y-117342490D02*
X62605490Y-117342490D01*
D44*
X179578000Y-101041200D02*
X179578000Y-100457000D01*
X59182000Y-89307500D02*
X58012500Y-89307500D01*
X72458506Y-102811490D02*
X71241490Y-102811490D01*
D43*
X48425490Y-108782490D02*
X49272490Y-108782490D01*
D44*
X85467490Y-96006490D02*
X86719201Y-96006490D01*
D43*
X178462800Y-100241001D02*
X179235001Y-100241001D01*
X103593999Y-98640999D02*
X104013000Y-99060000D01*
X217335001Y-98640999D02*
X217335001Y-98717001D01*
X141859000Y-99441000D02*
X142113000Y-99187000D01*
D44*
X142113000Y-100076000D02*
X142113000Y-101600000D01*
X85467490Y-91443490D02*
X85458490Y-91434490D01*
X255778000Y-99060000D02*
X255778000Y-99568000D01*
X142113000Y-101672000D02*
X143347000Y-102906000D01*
D43*
X102897800Y-100241001D02*
X103670001Y-100241001D01*
X73968540Y-91900000D02*
X74000000Y-91868540D01*
X64637490Y-102667492D02*
X64637490Y-102610490D01*
X141930786Y-98640999D02*
X142096743Y-98806956D01*
X61589490Y-115564490D02*
X63621490Y-115564490D01*
X216562800Y-100241001D02*
X217258999Y-100241001D01*
X49272490Y-108782490D02*
X49874000Y-109384000D01*
D44*
X72262500Y-94979534D02*
X72262500Y-93800000D01*
D43*
X142113000Y-99187000D02*
X142113000Y-98823213D01*
X61785500Y-116903500D02*
X62224490Y-117342490D01*
X255435001Y-98717001D02*
X255778000Y-99060000D01*
D44*
X179578000Y-97840800D02*
X179578000Y-96520000D01*
X60351500Y-89307500D02*
X60452000Y-89408000D01*
D43*
X50635490Y-103372490D02*
X48425490Y-105582490D01*
X70811490Y-102811490D02*
X71241490Y-102811490D01*
X72637500Y-90437500D02*
X72600000Y-90400000D01*
X254662800Y-99441000D02*
X255651000Y-99441000D01*
X104013000Y-100330000D02*
X104013000Y-99822000D01*
D44*
X142113000Y-98823213D02*
X142096743Y-98806956D01*
D43*
X179197000Y-99441000D02*
X179451000Y-99187000D01*
X179235001Y-98640999D02*
X179489001Y-98640999D01*
X217335001Y-98717001D02*
X217678000Y-99060000D01*
X141859000Y-99441000D02*
X142113000Y-99695000D01*
X179197000Y-99441000D02*
X179578000Y-99822000D01*
D44*
X217678000Y-99060000D02*
X217678000Y-99568000D01*
D43*
X179235001Y-98640999D02*
X179578000Y-98298000D01*
D44*
X73500000Y-93800000D02*
X72262500Y-93800000D01*
D43*
X179285999Y-98640999D02*
X179578000Y-98933000D01*
X56509490Y-105990510D02*
X56500000Y-106000000D01*
X179451000Y-99187000D02*
X179451000Y-99060000D01*
X102897800Y-98640999D02*
X103670001Y-98640999D01*
X90700000Y-82900000D02*
X91000000Y-83200000D01*
X142113000Y-101041200D02*
X142113000Y-101600000D01*
X102897800Y-98640999D02*
X103924001Y-98640999D01*
X104013000Y-101219000D02*
X104775000Y-101981000D01*
X69665490Y-102050490D02*
X69690480Y-102075480D01*
X49874000Y-109384000D02*
X51482490Y-110992490D01*
D44*
X255778000Y-97840800D02*
X255778000Y-96647000D01*
D43*
X255651000Y-99441000D02*
X255778000Y-99568000D01*
X142113000Y-99695000D02*
X142113000Y-99187000D01*
X72462136Y-102815120D02*
X72458506Y-102811490D01*
D44*
X72637500Y-91900000D02*
X72637500Y-90437500D01*
D43*
X102897800Y-99441000D02*
X103632000Y-99441000D01*
D44*
X142113000Y-97840800D02*
X142113000Y-96774000D01*
D43*
X216562800Y-100241001D02*
X217208001Y-100241001D01*
X104013000Y-98298000D02*
X104013000Y-97840800D01*
X217297000Y-100203000D02*
X217258999Y-100241001D01*
D44*
X29823511Y-85464511D02*
X29563022Y-85725000D01*
D43*
X57692490Y-102050490D02*
X59101490Y-102050490D01*
X217258999Y-100241001D02*
X217678000Y-99822000D01*
X48425490Y-110694490D02*
X48381490Y-110738490D01*
X102897800Y-100241001D02*
X103924001Y-100241001D01*
X217678000Y-100203000D02*
X217297000Y-100203000D01*
X217639999Y-98640999D02*
X217678000Y-98679000D01*
X178462800Y-99441000D02*
X179197000Y-99441000D01*
X255358999Y-100241001D02*
X255778000Y-99822000D01*
D44*
X85467490Y-96006490D02*
X85467490Y-93720490D01*
D43*
X217335001Y-98640999D02*
X217678000Y-98298000D01*
D44*
X179578000Y-96520000D02*
X179670688Y-96427312D01*
D43*
X59101490Y-102050490D02*
X59303490Y-101848490D01*
X142113000Y-97840800D02*
X142113000Y-98790699D01*
X103924001Y-100241001D02*
X104013000Y-100330000D01*
X62224490Y-117342490D02*
X62605490Y-117342490D01*
D44*
X142113000Y-101041200D02*
X142113000Y-100076000D01*
D43*
X255739999Y-98640999D02*
X255778000Y-98679000D01*
X141947999Y-100241001D02*
X142113000Y-100076000D01*
D44*
X178462800Y-98640999D02*
X176110999Y-98640999D01*
D43*
X60117490Y-91452010D02*
X60256500Y-91313000D01*
X104013000Y-101041200D02*
X104013000Y-101346000D01*
D44*
X59182000Y-89307500D02*
X60351500Y-89307500D01*
X217678000Y-102235000D02*
X217007000Y-102906000D01*
D43*
X103670001Y-100241001D02*
X104013000Y-100584000D01*
D44*
X217678000Y-97840800D02*
X217678000Y-98171000D01*
X179578000Y-98298000D02*
X179578000Y-97840800D01*
X85449490Y-98310490D02*
X85467490Y-98292490D01*
X29563022Y-85725000D02*
X29146500Y-85725000D01*
D43*
X255435001Y-98640999D02*
X255739999Y-98640999D01*
X63436500Y-116903500D02*
X62997510Y-117342490D01*
X104013000Y-99822000D02*
X104013000Y-99441000D01*
X104013000Y-101041200D02*
X104013000Y-101219000D01*
X255778000Y-98298000D02*
X255778000Y-98171000D01*
X89700000Y-82900000D02*
X90700000Y-82900000D01*
X179578000Y-99898002D02*
X179578000Y-99822000D01*
D44*
X179578000Y-98933000D02*
X179578000Y-98552000D01*
D43*
X179451000Y-99060000D02*
X179578000Y-98933000D01*
X140997800Y-98640999D02*
X141930786Y-98640999D01*
D44*
X179489001Y-98640999D02*
X179578000Y-98552000D01*
X56509490Y-106928490D02*
X56509490Y-105150490D01*
X179578000Y-101041200D02*
X179578000Y-102235000D01*
X38800000Y-115008000D02*
X38508000Y-115008000D01*
D43*
X104013000Y-99060000D02*
X104013000Y-98552000D01*
X255778000Y-100203000D02*
X255397000Y-100203000D01*
X65117490Y-104475490D02*
X65117490Y-103147492D01*
D44*
X142113000Y-100076000D02*
X142113000Y-98823213D01*
X217678000Y-99568000D02*
X217678000Y-99822000D01*
D43*
X69042490Y-102050490D02*
X69665490Y-102050490D01*
D44*
%TO.N,VCC*%
X28662500Y-114400000D02*
X31890000Y-114400000D01*
D45*
X24000000Y-103400000D02*
X27800000Y-107200000D01*
X37400000Y-95200000D02*
X37400000Y-90085287D01*
X33100000Y-95000000D02*
X25600000Y-95000000D01*
X25600000Y-95000000D02*
X24000000Y-96600000D01*
X27800000Y-107200000D02*
X27800000Y-109500000D01*
X24000000Y-96600000D02*
X24000000Y-103400000D01*
X34544000Y-87229287D02*
X34544000Y-81661000D01*
X37400000Y-90085287D02*
X34544000Y-87229287D01*
D43*
%TO.N,+3V3*%
X70600000Y-94800000D02*
X70600000Y-93862500D01*
X80033000Y-87033000D02*
X81189000Y-87033000D01*
X81189000Y-83022000D02*
X81189000Y-87033000D01*
D44*
X105128200Y-101040999D02*
X106366401Y-101040999D01*
D43*
X90800000Y-87000000D02*
X90818000Y-87018000D01*
D44*
X70562500Y-90437500D02*
X70600000Y-90400000D01*
X70562500Y-91900000D02*
X70562500Y-93775000D01*
D43*
X70613510Y-101086490D02*
X71241490Y-101086490D01*
X58234490Y-103573490D02*
X57658000Y-102997000D01*
X59617490Y-92383490D02*
X59182000Y-91948000D01*
D44*
X58266500Y-91032500D02*
X57912000Y-90678000D01*
D43*
X70349510Y-95050490D02*
X70600000Y-94800000D01*
D44*
X106366401Y-101040999D02*
X106370700Y-101045298D01*
D43*
X69042490Y-101550490D02*
X70149510Y-101550490D01*
X51403010Y-82581990D02*
X54737000Y-82581990D01*
X45333490Y-110103490D02*
X45720000Y-110490000D01*
X72500000Y-101100000D02*
X72486490Y-101086490D01*
X78831000Y-87033000D02*
X80033000Y-87033000D01*
X58234490Y-105029000D02*
X58234490Y-103573490D01*
D44*
X139521999Y-101040999D02*
X140997800Y-101040999D01*
D43*
X89500000Y-87000000D02*
X90800000Y-87000000D01*
D44*
X253059999Y-101040999D02*
X254662800Y-101040999D01*
D43*
X59617490Y-106582510D02*
X59617490Y-104475490D01*
X70149510Y-101550490D02*
X70613510Y-101086490D01*
X78831000Y-79083000D02*
X81189000Y-79083000D01*
X57658000Y-102997000D02*
X57658000Y-102584980D01*
X45333490Y-109182490D02*
X45333490Y-110103490D01*
D44*
X180693200Y-101040999D02*
X182296001Y-101040999D01*
X178462800Y-101040999D02*
X176986999Y-101040999D01*
D43*
X42800000Y-111000000D02*
X42792000Y-111008000D01*
X59200000Y-107000000D02*
X59617490Y-106582510D01*
X59182000Y-91948000D02*
X59182000Y-91032500D01*
D44*
X58234490Y-104900000D02*
X58234490Y-105965510D01*
D43*
X78831000Y-79083000D02*
X78831000Y-87033000D01*
X81189000Y-79083000D02*
X81189000Y-83022000D01*
D44*
X258877001Y-101040999D02*
X256893200Y-101040999D01*
X58234490Y-105965510D02*
X58234490Y-107100000D01*
X145847001Y-101040999D02*
X145923000Y-100965000D01*
X214959999Y-101040999D02*
X216562800Y-101040999D01*
D43*
X57658000Y-102584980D02*
X57692490Y-102550490D01*
D44*
X214122000Y-100203000D02*
X214959999Y-101040999D01*
X182296001Y-101040999D02*
X183134000Y-100203000D01*
D43*
X65617490Y-102911510D02*
X65913000Y-102616000D01*
D44*
X58800000Y-106000000D02*
X58200000Y-106000000D01*
X143228200Y-101040999D02*
X145847001Y-101040999D01*
X101651001Y-101040999D02*
X101600000Y-101092000D01*
X72486490Y-101086490D02*
X71241490Y-101086490D01*
X57800000Y-106000000D02*
X58200000Y-106000000D01*
X138811000Y-100330000D02*
X139521999Y-101040999D01*
D43*
X42792000Y-111008000D02*
X40800000Y-111008000D01*
X50673000Y-83312000D02*
X51403010Y-82581990D01*
X70500000Y-87000000D02*
X70500000Y-88299488D01*
D44*
X252222000Y-100203000D02*
X253059999Y-101040999D01*
D43*
X69042490Y-95050490D02*
X70349510Y-95050490D01*
X59617490Y-93125490D02*
X59617490Y-92383490D01*
D44*
X102897800Y-101040999D02*
X101651001Y-101040999D01*
X59182000Y-91032500D02*
X58266500Y-91032500D01*
X259334000Y-100584000D02*
X258877001Y-101040999D01*
X221234000Y-100584000D02*
X220777001Y-101040999D01*
X70562500Y-91900000D02*
X70562500Y-90437500D01*
D43*
X58234490Y-107000000D02*
X59200000Y-107000000D01*
D44*
X176986999Y-101040999D02*
X176149000Y-100203000D01*
D43*
X70600000Y-93862500D02*
X70537500Y-93800000D01*
X70562500Y-93775000D02*
X70537500Y-93800000D01*
X58200000Y-106000000D02*
X58234490Y-105965510D01*
D44*
X220777001Y-101040999D02*
X218793200Y-101040999D01*
D43*
X65617490Y-104475490D02*
X65617490Y-102911510D01*
%TO.N,XSHUT_1*%
X136779000Y-103759000D02*
X137287000Y-103759000D01*
X137287000Y-103505000D02*
X137287000Y-103759000D01*
X140843000Y-105156000D02*
X140081000Y-104394000D01*
X136779000Y-103759000D02*
X133604000Y-103759000D01*
X137668000Y-104394000D02*
X137287000Y-104013000D01*
X133604000Y-103759000D02*
X127381000Y-97536000D01*
X68834000Y-123952000D02*
X67437000Y-122555000D01*
X139775999Y-97841001D02*
X139636500Y-97980500D01*
X67437000Y-122555000D02*
X67437000Y-120396000D01*
X139700000Y-96393000D02*
X139700000Y-97917000D01*
X70299520Y-113437158D02*
X70299520Y-108525803D01*
X70299520Y-108525803D02*
X69157238Y-107383520D01*
X137287000Y-103759000D02*
X137287000Y-104013000D01*
X139700000Y-97917000D02*
X139636500Y-97980500D01*
X63617490Y-105772158D02*
X63617490Y-104475490D01*
X68246339Y-115490339D02*
X70299520Y-113437158D01*
X67448327Y-116288352D02*
X68246339Y-115490339D01*
X136779000Y-103759000D02*
X137033000Y-103759000D01*
X127381000Y-97536000D02*
X117348000Y-97536000D01*
X105791000Y-85979000D02*
X103378000Y-85979000D01*
X139636500Y-97980500D02*
X137287000Y-100330000D01*
X137033000Y-103759000D02*
X137287000Y-104013000D01*
X69157238Y-107383520D02*
X65228851Y-107383520D01*
X137033000Y-103759000D02*
X137287000Y-103505000D01*
X65228851Y-107383520D02*
X63617490Y-105772158D01*
X67448327Y-117230437D02*
X67448327Y-116288352D01*
X137287000Y-100330000D02*
X137287000Y-103505000D01*
X140081000Y-104394000D02*
X137668000Y-104394000D01*
X140997800Y-97841001D02*
X139775999Y-97841001D01*
X117348000Y-97536000D02*
X105791000Y-85979000D01*
%TO.N,GPIOI_1*%
X139399897Y-95668489D02*
X140372489Y-95668489D01*
X141440511Y-96049489D02*
X141097000Y-96393000D01*
X59088080Y-77528480D02*
X56446480Y-77528480D01*
X56446480Y-77528480D02*
X54610000Y-75692000D01*
X137144951Y-97923435D02*
X139399897Y-95668489D01*
X104512386Y-86868000D02*
X101473000Y-86868000D01*
X143228200Y-97841001D02*
X143228200Y-96864586D01*
X100838000Y-86233000D02*
X100838000Y-85979000D01*
X134365282Y-105156000D02*
X127194802Y-97985520D01*
X127194802Y-97985520D02*
X115629906Y-97985520D01*
X143228200Y-96864586D02*
X142413103Y-96049489D01*
X66390378Y-80994660D02*
X63246718Y-77851000D01*
X62738000Y-77851000D02*
X59410600Y-77851000D01*
X101473000Y-86868000D02*
X100838000Y-86233000D01*
X142413103Y-96049489D02*
X141440511Y-96049489D01*
X115629906Y-97985520D02*
X104512386Y-86868000D01*
X138176000Y-105156000D02*
X134365282Y-105156000D01*
X137144951Y-98567049D02*
X137144951Y-97923435D01*
X66617490Y-93125490D02*
X66617490Y-91257644D01*
X66617490Y-91257644D02*
X66390378Y-91030532D01*
X66390378Y-91030532D02*
X66390378Y-80994660D01*
X140372489Y-95668489D02*
X141097000Y-96393000D01*
X63246718Y-77851000D02*
X62738000Y-77851000D01*
X59410600Y-77851000D02*
X59088080Y-77528480D01*
%TO.N,XSHUT_2*%
X68195141Y-116566152D02*
X68195141Y-116177254D01*
X134112000Y-105918000D02*
X131186338Y-102992339D01*
X174244000Y-102870000D02*
X174498000Y-102870000D01*
X69343436Y-106934000D02*
X65415048Y-106934000D01*
X154178000Y-105918000D02*
X134112000Y-105918000D01*
X174244000Y-98679000D02*
X174244000Y-102489000D01*
X68199000Y-120777000D02*
X71374000Y-123952000D01*
X178462800Y-97841001D02*
X178195288Y-97573489D01*
X65415048Y-106934000D02*
X64117490Y-105636441D01*
X174244000Y-102489000D02*
X174498000Y-102743000D01*
X157226000Y-102870000D02*
X154178000Y-105918000D01*
X174244000Y-102489000D02*
X174625000Y-102870000D01*
X176911000Y-97282000D02*
X177202489Y-97573489D01*
X176911000Y-97282000D02*
X176619511Y-97573489D01*
X70749039Y-108339604D02*
X69343436Y-106934000D01*
X176619511Y-97573489D02*
X175349511Y-97573489D01*
X173863000Y-102870000D02*
X157226000Y-102870000D01*
X173863000Y-102870000D02*
X174244000Y-102870000D01*
X176911000Y-95123000D02*
X176911000Y-97282000D01*
X70749040Y-113623355D02*
X70749039Y-108339604D01*
X120001007Y-102992339D02*
X109591668Y-92583000D01*
X175349511Y-97573489D02*
X174244000Y-98679000D01*
X104902000Y-92583000D02*
X103378000Y-91059000D01*
X174625000Y-102870000D02*
X176657000Y-102870000D01*
X64117490Y-105636441D02*
X64117490Y-104475490D01*
X174498000Y-102870000D02*
X174625000Y-102870000D01*
X109591668Y-92583000D02*
X104902000Y-92583000D01*
X174244000Y-102489000D02*
X173863000Y-102870000D01*
X178195288Y-97573489D02*
X177202489Y-97573489D01*
X174498000Y-102743000D02*
X174498000Y-102870000D01*
X68195141Y-116177254D02*
X70749040Y-113623355D01*
X176657000Y-102870000D02*
X178943000Y-105156000D01*
X68199000Y-119741501D02*
X68199000Y-120777000D01*
X131186338Y-102992339D02*
X120001007Y-102992339D01*
X177202489Y-97573489D02*
X176619511Y-97573489D01*
X174244000Y-102489000D02*
X174244000Y-102870000D01*
%TO.N,GPIOI_2*%
X176403000Y-105283000D02*
X177101500Y-105981500D01*
X100838000Y-91059000D02*
X102811520Y-93032520D01*
X180721000Y-96520000D02*
X180721000Y-97813201D01*
X183007000Y-96520000D02*
X180721000Y-96520000D01*
X109405470Y-93032520D02*
X119814809Y-103441859D01*
X94900000Y-86500000D02*
X95300000Y-86900000D01*
X185420000Y-98933000D02*
X183007000Y-96520000D01*
X62098134Y-78618839D02*
X59314839Y-78618839D01*
X131000141Y-103441859D02*
X133925803Y-106367520D01*
X97576614Y-86900000D02*
X100838000Y-90161386D01*
X54356000Y-77978000D02*
X52070000Y-75692000D01*
X58674000Y-77978000D02*
X54356000Y-77978000D01*
X157412198Y-103319520D02*
X174566520Y-103319520D01*
X154364198Y-106367520D02*
X157412198Y-103319520D01*
X102811520Y-93032520D02*
X109405470Y-93032520D01*
X176403000Y-105156000D02*
X176403000Y-105283000D01*
X63378839Y-78618839D02*
X65940858Y-81180858D01*
X95300000Y-86900000D02*
X97576614Y-86900000D01*
X174566520Y-103319520D02*
X176403000Y-105156000D01*
X59314839Y-78618839D02*
X58674000Y-77978000D01*
X180721000Y-97813201D02*
X180693200Y-97841001D01*
X119814809Y-103441859D02*
X131000141Y-103441859D01*
X65940858Y-81180858D02*
X65940858Y-91216730D01*
X177101500Y-105981500D02*
X184340500Y-105981500D01*
X185420000Y-104902000D02*
X185420000Y-98933000D01*
X133925803Y-106367520D02*
X154364198Y-106367520D01*
X65940858Y-91216730D02*
X66117490Y-91393362D01*
X100838000Y-90161386D02*
X100838000Y-91059000D01*
X62098134Y-78618839D02*
X63378839Y-78618839D01*
X66117490Y-91393362D02*
X66117490Y-93125490D01*
X184340500Y-105981500D02*
X185420000Y-104902000D01*
%TO.N,XSHUT_0*%
X102897800Y-96435198D02*
X103791999Y-95540999D01*
X101802999Y-97841001D02*
X102897800Y-97841001D01*
X69850000Y-113250961D02*
X69850000Y-108712000D01*
X91821000Y-103632000D02*
X96012000Y-103632000D01*
X65042654Y-107833040D02*
X63117490Y-105907876D01*
X68971040Y-107833040D02*
X65042654Y-107833040D01*
X102897800Y-97841001D02*
X102897800Y-96435198D01*
X66680435Y-116590634D02*
X66680435Y-116420526D01*
X103791999Y-95540999D02*
X106970999Y-95540999D01*
X96012000Y-103632000D02*
X101802999Y-97841001D01*
X63117490Y-105907876D02*
X63117490Y-104475490D01*
X66680435Y-116420526D02*
X69850000Y-113250961D01*
X69850000Y-108712000D02*
X68971040Y-107833040D01*
X66675000Y-121031000D02*
X63754000Y-123952000D01*
X106970999Y-95540999D02*
X107188000Y-95758000D01*
X66675000Y-119741501D02*
X66675000Y-121031000D01*
%TO.N,GPIOI_0*%
X63184756Y-77078960D02*
X66839898Y-80734102D01*
X102362000Y-96012000D02*
X103505000Y-94869000D01*
X96589280Y-102362000D02*
X102362000Y-96589280D01*
X67117490Y-93125490D02*
X67979490Y-93125490D01*
X67117490Y-91121926D02*
X67117490Y-93125490D01*
X108585000Y-94869000D02*
X109474000Y-95758000D01*
X57150000Y-76454000D02*
X57774960Y-77078960D01*
X103505000Y-94869000D02*
X108585000Y-94869000D01*
X66839898Y-80734102D02*
X66839898Y-90844334D01*
X81407000Y-102362000D02*
X96589280Y-102362000D01*
X67979490Y-93125490D02*
X68066490Y-93212490D01*
X57150000Y-75692000D02*
X57150000Y-76454000D01*
X107390999Y-97841001D02*
X105128200Y-97841001D01*
X102362000Y-96589280D02*
X102362000Y-96012000D01*
X109474000Y-95758000D02*
X107390999Y-97841001D01*
X66839898Y-90844334D02*
X67117490Y-91121926D01*
X57774960Y-77078960D02*
X63184756Y-77078960D01*
%TO.N,LED_3*%
X69209490Y-90672490D02*
X68188458Y-89651458D01*
X69042490Y-100050490D02*
X73149510Y-100050490D01*
X73149510Y-100050490D02*
X77191499Y-96008501D01*
X68188458Y-80783260D02*
X71374000Y-77597718D01*
X77847501Y-96006490D02*
X77845490Y-96008501D01*
X68188458Y-89651458D02*
X68188458Y-80783260D01*
X79353490Y-96006490D02*
X77847501Y-96006490D01*
X77191499Y-96008501D02*
X77845490Y-96008501D01*
X71374000Y-77597718D02*
X71374000Y-75692000D01*
%TO.N,LED_4*%
X78089042Y-94210958D02*
X78089042Y-93809500D01*
X79353490Y-93720490D02*
X78178052Y-93720490D01*
X71755718Y-77851718D02*
X71755718Y-77850282D01*
X71755718Y-77850282D02*
X73914000Y-75692000D01*
X68637978Y-88708983D02*
X68637978Y-80969458D01*
X72749510Y-99550490D02*
X78089042Y-94210958D01*
X69402503Y-89473508D02*
X68637978Y-88708983D01*
X78178052Y-93720490D02*
X78089042Y-93809500D01*
X69042490Y-99550490D02*
X72749510Y-99550490D01*
X68637978Y-80969458D02*
X71755718Y-77851718D01*
%TO.N,LED_1*%
X67289418Y-90658136D02*
X67289418Y-80497418D01*
X67939490Y-91942490D02*
X67939490Y-91308208D01*
X79385490Y-100578490D02*
X79385490Y-103102490D01*
X67289418Y-80497418D02*
X66294000Y-79502000D01*
X74101059Y-105309001D02*
X73385530Y-106024530D01*
X77178979Y-105309001D02*
X74101059Y-105309001D01*
X66142490Y-104500490D02*
X66117490Y-104475490D01*
X79385490Y-103102490D02*
X77178979Y-105309001D01*
X73385530Y-106024530D02*
X66690806Y-106024530D01*
X66690806Y-106024530D02*
X66142490Y-105476214D01*
X66142490Y-105476214D02*
X66142490Y-104500490D01*
X67939490Y-91308208D02*
X67289418Y-90658136D01*
X66294000Y-79502000D02*
X66294000Y-75692000D01*
X78220501Y-100578490D02*
X79385490Y-100578490D01*
%TO.N,LED_2*%
X66877004Y-105575010D02*
X66592010Y-105290016D01*
X79353490Y-98292490D02*
X78068978Y-97007978D01*
X68389010Y-91122010D02*
X67738938Y-90471938D01*
X72976687Y-105575010D02*
X66877004Y-105575010D01*
X67738938Y-80597062D02*
X68834000Y-79502000D01*
X78068978Y-97007978D02*
X77852679Y-97007978D01*
X77496001Y-100149979D02*
X77496001Y-102080989D01*
X66592010Y-105290016D02*
X66592010Y-104500970D01*
X68890788Y-91635834D02*
X68389010Y-91134056D01*
X79353490Y-98292490D02*
X77496001Y-100149979D01*
X76617011Y-102959979D02*
X75591719Y-102959979D01*
X75591719Y-102959979D02*
X72976687Y-105575010D01*
X68834000Y-79502000D02*
X68834000Y-75692000D01*
X68389010Y-91134056D02*
X68389010Y-91122010D01*
X66592010Y-104500970D02*
X66617490Y-104475490D01*
X67738938Y-90471938D02*
X67738938Y-80597062D01*
X77496001Y-102080989D02*
X76617011Y-102959979D01*
%TO.N,SW_1*%
X85689000Y-82911000D02*
X85689000Y-79083000D01*
X87600000Y-88800000D02*
X87600000Y-86662500D01*
X86022000Y-86700000D02*
X87562500Y-86700000D01*
X87600000Y-88800000D02*
X79709366Y-88800000D01*
X87700000Y-82900000D02*
X85700000Y-82900000D01*
X87562500Y-86700000D02*
X87600000Y-86662500D01*
X85689000Y-87033000D02*
X85689000Y-82911000D01*
X72449510Y-97550490D02*
X69042490Y-97550490D01*
X76465491Y-93534509D02*
X72449510Y-97550490D01*
X76465491Y-92043875D02*
X76465491Y-93534509D01*
X79709366Y-88800000D02*
X76465491Y-92043875D01*
X85581503Y-119888000D02*
X85648800Y-119820703D01*
X85689000Y-87033000D02*
X86022000Y-86700000D01*
X85700000Y-82900000D02*
X85689000Y-82911000D01*
X85648800Y-119820703D02*
X85648800Y-115214400D01*
%TO.N,SW_2*%
X72400000Y-86662500D02*
X73960500Y-86662500D01*
X74700000Y-92193154D02*
X74700000Y-94600000D01*
X72500000Y-88200000D02*
X74724511Y-90424511D01*
X72249510Y-97050490D02*
X69042490Y-97050490D01*
X74331000Y-79083000D02*
X74331000Y-82869000D01*
X74724511Y-92168643D02*
X74700000Y-92193154D01*
X74300000Y-82900000D02*
X74331000Y-82869000D01*
X72400000Y-86662500D02*
X72400000Y-88100000D01*
X74700000Y-94600000D02*
X72249510Y-97050490D01*
X74724511Y-90424511D02*
X74724511Y-92168643D01*
X72400000Y-88100000D02*
X72500000Y-88200000D01*
X84582000Y-119888000D02*
X84582000Y-115214400D01*
X73960500Y-86662500D02*
X74331000Y-87033000D01*
X74331000Y-82869000D02*
X74331000Y-87033000D01*
X72300000Y-82900000D02*
X74300000Y-82900000D01*
%TO.N,Net-(D1-Pad2)*%
X81385490Y-100578490D02*
X83399490Y-100578490D01*
%TO.N,Net-(D2-Pad2)*%
X81353490Y-98292490D02*
X83417490Y-98292490D01*
%TO.N,Net-(D3-Pad2)*%
X81353490Y-96006490D02*
X83417490Y-96006490D01*
%TO.N,Net-(D4-Pad2)*%
X81353490Y-93720490D02*
X83417490Y-93720490D01*
%TO.N,Net-(D5-Pad2)*%
X81369490Y-91434490D02*
X83408490Y-91434490D01*
D44*
%TO.N,+5V*%
X32893000Y-87027059D02*
X31920572Y-86054631D01*
X32893000Y-87185500D02*
X32893000Y-87027059D01*
D46*
%TO.N,Net-(D6-Pad2)*%
X35300000Y-101300000D02*
X35123000Y-101477000D01*
X29143000Y-101477000D02*
X28448000Y-100782000D01*
X35123000Y-101477000D02*
X29143000Y-101477000D01*
D43*
%TO.N,Net-(C1-Pad1)*%
X87662500Y-85000000D02*
X87600000Y-84937500D01*
X89500000Y-85000000D02*
X87662500Y-85000000D01*
%TO.N,Net-(C2-Pad1)*%
X70500000Y-85000000D02*
X72337500Y-85000000D01*
X72337500Y-85000000D02*
X72400000Y-84937500D01*
D44*
%TO.N,Net-(C6-Pad1)*%
X23521500Y-85370500D02*
X23241000Y-85090000D01*
X23521500Y-86995000D02*
X23521500Y-85370500D01*
D43*
%TO.N,/STM32L151RET6TR/MCO*%
X60965510Y-111500490D02*
X58355490Y-111500490D01*
X59514490Y-115564490D02*
X59514490Y-113997490D01*
X58355490Y-112838490D02*
X59514490Y-113997490D01*
X58355490Y-111500490D02*
X58355490Y-112838490D01*
X61617490Y-104475490D02*
X61642480Y-104500480D01*
X61642480Y-110823520D02*
X60965510Y-111500490D01*
X61642480Y-104500480D02*
X61642480Y-110823520D01*
%TO.N,/STM32L151RET6TR/OSM_OUT*%
X62986490Y-111500490D02*
X62117490Y-110631490D01*
X62117490Y-110631490D02*
X62117490Y-104475490D01*
X66855490Y-113051490D02*
X65696490Y-114210490D01*
X65696490Y-114210490D02*
X65696490Y-115564490D01*
X66855490Y-111500490D02*
X66855490Y-113051490D01*
X66855490Y-111500490D02*
X62986490Y-111500490D01*
%TO.N,/STM32L151RET6TR/OS32_OUT*%
X59417510Y-108782490D02*
X61117490Y-107082510D01*
X61117490Y-107082510D02*
X61117490Y-104475490D01*
X53925490Y-108782490D02*
X59417510Y-108782490D01*
X53925490Y-108782490D02*
X53925490Y-110274490D01*
X53925490Y-110274490D02*
X53207490Y-110992490D01*
%TO.N,/STM32L151RET6TR/BOOT*%
X54269264Y-101092000D02*
X54810774Y-100550490D01*
X49276000Y-101092000D02*
X54269264Y-101092000D01*
X45079490Y-100324490D02*
X46995510Y-100324490D01*
X54810774Y-100550490D02*
X57692490Y-100550490D01*
X46995510Y-100324490D02*
X47752000Y-99568000D01*
X47752000Y-99568000D02*
X48800000Y-99568000D01*
X48800000Y-99568000D02*
X48800000Y-100616000D01*
X48800000Y-100616000D02*
X49276000Y-101092000D01*
%TO.N,/STM32L151RET6TR/RST*%
X62617490Y-106432490D02*
X63113490Y-106928490D01*
X45079490Y-104134490D02*
X45079490Y-102483490D01*
X43815000Y-91440000D02*
X45079490Y-92704490D01*
X43872990Y-95776992D02*
X41275000Y-93179002D01*
X62617490Y-104475490D02*
X62617490Y-106432490D01*
X41275000Y-93179002D02*
X41275000Y-92075000D01*
X45079490Y-102483490D02*
X43872990Y-101276990D01*
X43872990Y-101276990D02*
X43872990Y-95776992D01*
X41910000Y-91440000D02*
X43815000Y-91440000D01*
X41275000Y-92075000D02*
X41910000Y-91440000D01*
%TO.N,/STM32L151RET6TR/OS32_IN*%
X59100000Y-108200000D02*
X60617490Y-106682510D01*
X55600000Y-108200000D02*
X59100000Y-108200000D01*
X53925490Y-105582490D02*
X53925490Y-104243990D01*
X53925490Y-106525490D02*
X55600000Y-108200000D01*
X53925490Y-104243990D02*
X53053990Y-103372490D01*
X53925490Y-105582490D02*
X53925490Y-106525490D01*
X60617490Y-106682510D02*
X60617490Y-104475490D01*
%TO.N,SCL1*%
X106591017Y-100241001D02*
X107095211Y-100745195D01*
X143228200Y-100241001D02*
X143393201Y-100076000D01*
X43936490Y-107182490D02*
X44230999Y-107476999D01*
X259596614Y-99822000D02*
X260096000Y-100321386D01*
X107095211Y-105538789D02*
X105918000Y-106716000D01*
X44230999Y-110455001D02*
X45119999Y-111344001D01*
D47*
X183515000Y-99459520D02*
X183603514Y-99459520D01*
D43*
X144780000Y-105156000D02*
X143383000Y-105156000D01*
X43439510Y-105912490D02*
X44952490Y-105912490D01*
X143393201Y-100076000D02*
X146058614Y-100076000D01*
X258652385Y-100241001D02*
X259071386Y-99822000D01*
X256893200Y-100241001D02*
X258652385Y-100241001D01*
D47*
X184209109Y-101540891D02*
X181483000Y-104267000D01*
D43*
X46603490Y-102610490D02*
X47619490Y-101594490D01*
X220059969Y-99599031D02*
X221518313Y-99599031D01*
X103436490Y-125925510D02*
X105918000Y-123444000D01*
X54254522Y-118516521D02*
X78764817Y-118516521D01*
X44952490Y-105912490D02*
X45040492Y-105912490D01*
X43047490Y-107182490D02*
X43047490Y-106304510D01*
X44230999Y-107476999D02*
X44230999Y-110455001D01*
X43047490Y-106304510D02*
X43439510Y-105912490D01*
D47*
X183603514Y-99459520D02*
X184209109Y-100065115D01*
D43*
X146058614Y-100076000D02*
X146685000Y-100702386D01*
X105128200Y-100241001D02*
X106591017Y-100241001D01*
X257683000Y-104267000D02*
X257683000Y-105156000D01*
X54946492Y-101050490D02*
X54402492Y-101594490D01*
X43047490Y-107182490D02*
X43936490Y-107182490D01*
X219583000Y-104267000D02*
X219583000Y-105156000D01*
D47*
X184209109Y-100065115D02*
X184209109Y-101540891D01*
D43*
X218793200Y-100241001D02*
X219449030Y-100241001D01*
X107095211Y-100745195D02*
X107095211Y-105538789D01*
X47082001Y-111344001D02*
X54254522Y-118516521D01*
X57692490Y-101050490D02*
X54946492Y-101050490D01*
X45119999Y-111344001D02*
X47082001Y-111344001D01*
X78764817Y-118516521D02*
X86173806Y-125925510D01*
D47*
X180693200Y-100241001D02*
X181248005Y-100241001D01*
D43*
X146685000Y-103251000D02*
X144780000Y-105156000D01*
D47*
X182029486Y-99459520D02*
X183515000Y-99459520D01*
D43*
X221518313Y-99599031D02*
X222361991Y-100442709D01*
X45040492Y-105912490D02*
X46603490Y-104349492D01*
X86173806Y-125925510D02*
X103436490Y-125925510D01*
X260096000Y-100321386D02*
X260096000Y-101854000D01*
X146685000Y-100702386D02*
X146685000Y-103251000D01*
X219449030Y-100241001D02*
X219449030Y-100209970D01*
X46603490Y-104349492D02*
X46603490Y-102610490D01*
D47*
X181483000Y-104267000D02*
X181483000Y-105156000D01*
D43*
X219449030Y-100209970D02*
X220059969Y-99599031D01*
X222361991Y-101488009D02*
X219583000Y-104267000D01*
X222361991Y-100442709D02*
X222361991Y-101488009D01*
X260096000Y-101854000D02*
X257683000Y-104267000D01*
X54402492Y-101594490D02*
X47619490Y-101594490D01*
D47*
X181248005Y-100241001D02*
X182029486Y-99459520D01*
D43*
X259071386Y-99822000D02*
X259596614Y-99822000D01*
%TO.N,SDA1*%
X47624143Y-102615143D02*
X47053500Y-103185786D01*
X45339000Y-107188000D02*
X46482000Y-107188000D01*
X256893200Y-99441000D02*
X256961720Y-99372480D01*
X219582282Y-99441000D02*
X219873772Y-99149511D01*
X78951015Y-118067001D02*
X86360007Y-125475993D01*
X102743007Y-125475993D02*
X106172000Y-122047000D01*
X86360007Y-125475993D02*
X102743007Y-125475993D01*
X184912000Y-104140000D02*
X184023000Y-105029000D01*
X55703490Y-101550490D02*
X55089206Y-101550490D01*
X55703490Y-101550490D02*
X55082902Y-101550490D01*
X47117000Y-110743282D02*
X54440719Y-118067001D01*
X45333490Y-107182490D02*
X45339000Y-107188000D01*
X260911511Y-100501179D02*
X260911511Y-104467489D01*
X45339000Y-106249700D02*
X45339000Y-107176980D01*
X105128200Y-99441000D02*
X106426734Y-99441000D01*
X181447644Y-99441000D02*
X181866133Y-99022511D01*
X47053500Y-103185786D02*
X47053500Y-104535200D01*
X184912000Y-100167644D02*
X184912000Y-104140000D01*
X54440719Y-118067001D02*
X78951015Y-118067001D01*
X106426734Y-99441000D02*
X109728000Y-102742266D01*
X256961720Y-99372480D02*
X259782812Y-99372480D01*
X54418248Y-102215144D02*
X48024142Y-102215144D01*
X181866133Y-99022511D02*
X183766867Y-99022511D01*
X147320000Y-103759000D02*
X145923000Y-105156000D01*
X48024142Y-102215144D02*
X47624143Y-102615143D01*
X219873772Y-99149511D02*
X221704511Y-99149511D01*
X45339000Y-107176980D02*
X45333490Y-107182490D01*
X143228200Y-99441000D02*
X146059331Y-99441000D01*
X223139000Y-104013000D02*
X222123000Y-105029000D01*
X180693200Y-99441000D02*
X181447644Y-99441000D01*
X109728000Y-102742266D02*
X109728000Y-107097000D01*
X46482000Y-107188000D02*
X47117000Y-107823000D01*
X223139000Y-100584000D02*
X223139000Y-104013000D01*
X106172000Y-122047000D02*
X108458000Y-122047000D01*
X57692490Y-101550490D02*
X55703490Y-101550490D01*
X218793200Y-99441000D02*
X219582282Y-99441000D01*
X260911511Y-104467489D02*
X260223000Y-105156000D01*
X221704511Y-99149511D02*
X223139000Y-100584000D01*
X55082902Y-101550490D02*
X54418248Y-102215144D01*
X47117000Y-107823000D02*
X47117000Y-110743282D01*
X146059331Y-99441000D02*
X147320000Y-100701669D01*
X183766867Y-99022511D02*
X184912000Y-100167644D01*
X259782812Y-99372480D02*
X260911511Y-100501179D01*
X147320000Y-100701669D02*
X147320000Y-103759000D01*
X47053500Y-104535200D02*
X45339000Y-106249700D01*
%TO.N,/STM32L151RET6TR/FTDI_RTS*%
X42545000Y-88894490D02*
X43809490Y-87630000D01*
X43809490Y-87630000D02*
X60579000Y-87630000D01*
X61117490Y-93125490D02*
X61117490Y-92139430D01*
X61117490Y-92139430D02*
X61197960Y-92058960D01*
X60579000Y-87630000D02*
X61197960Y-88248960D01*
X61197960Y-88248960D02*
X61197960Y-92058960D01*
%TO.N,/STM32L151RET6TR/FTDI_RXD*%
X57692490Y-100050490D02*
X55600490Y-100050490D01*
X55600490Y-100050490D02*
X53848000Y-98298000D01*
X47498000Y-98298000D02*
X46355000Y-97155000D01*
X46355000Y-97155000D02*
X46355000Y-95250000D01*
X53848000Y-98298000D02*
X47498000Y-98298000D01*
%TO.N,/STM32L151RET6TR/FTDI_TXD*%
X55736208Y-99550490D02*
X57692490Y-99550490D01*
X54034198Y-97848480D02*
X55736208Y-99550490D01*
X48888299Y-97586811D02*
X49149968Y-97848480D01*
X49149968Y-97848480D02*
X54034198Y-97848480D01*
X48888299Y-95243387D02*
X48888299Y-97586811D01*
%TO.N,/STM32L151RET6TR/FTDI_CTS*%
X61617490Y-93125490D02*
X61617490Y-98321492D01*
X61617490Y-98321492D02*
X61617490Y-98772490D01*
X61617490Y-98772490D02*
X60065490Y-100324490D01*
%TO.N,/STM32L151RET6TR/SW0*%
X52953490Y-94483488D02*
X47366488Y-94483488D01*
X47365490Y-94482490D02*
X44317490Y-94482490D01*
X57692490Y-98050490D02*
X56520492Y-98050490D01*
X56520492Y-98050490D02*
X52953490Y-94483488D01*
X44317490Y-94482490D02*
X42539490Y-92704490D01*
X47366488Y-94483488D02*
X47365490Y-94482490D01*
%TO.N,/STM32L151RET6TR/SWCLK*%
X57692490Y-95050490D02*
X55045490Y-95050490D01*
X55045490Y-95050490D02*
X52699490Y-92704490D01*
%TO.N,/STM32L151RET6TR/SWDAT*%
X57651991Y-92836031D02*
X59491470Y-94675510D01*
X60044582Y-94675510D02*
X60617490Y-94102602D01*
X60617490Y-94102602D02*
X60617490Y-93125490D01*
X56197001Y-91376999D02*
X57651991Y-92831989D01*
X47619490Y-92704490D02*
X48946981Y-91376999D01*
X57651991Y-92831989D02*
X57651991Y-92836031D01*
X59491470Y-94675510D02*
X60044582Y-94675510D01*
X48946981Y-91376999D02*
X56197001Y-91376999D01*
%TO.N,/STM32L151RET6TR/UART_RX*%
X72627855Y-103674000D02*
X73536008Y-102765847D01*
X69542500Y-103050500D02*
X70166000Y-103674000D01*
X69268500Y-103050500D02*
X69088000Y-102870000D01*
X70166000Y-103674000D02*
X72627855Y-103674000D01*
X69088000Y-102596000D02*
X69088000Y-102870000D01*
X69542500Y-103050500D02*
X69268500Y-103050500D01*
X69042490Y-102550490D02*
X69088000Y-102596000D01*
X73536008Y-102765847D02*
X73536008Y-101839972D01*
X73536008Y-101839972D02*
X76321490Y-99054490D01*
%TO.N,/STM32L151RET6TR/UART_TX*%
X72790490Y-105125490D02*
X76321490Y-101594490D01*
X67645490Y-104475490D02*
X68295490Y-105125490D01*
X68295490Y-105125490D02*
X72790490Y-105125490D01*
X67117490Y-104475490D02*
X67645490Y-104475490D01*
%TO.N,SCL2*%
X48196500Y-84645500D02*
X61277500Y-84645500D01*
X61277500Y-84645500D02*
X62865000Y-86233000D01*
X46857490Y-83306490D02*
X48196500Y-84645500D01*
X62865000Y-88011000D02*
X62865000Y-86233000D01*
%TO.N,SDA2*%
X63617490Y-90160490D02*
X63617490Y-90414490D01*
X63617490Y-88509490D02*
X62864989Y-89261991D01*
X49397490Y-83306490D02*
X50286490Y-84195490D01*
X63617490Y-90160490D02*
X63627000Y-90150980D01*
X61463207Y-84195490D02*
X63617490Y-86349772D01*
X63617490Y-90414490D02*
X63617490Y-93125490D01*
X63617490Y-86349772D02*
X63617490Y-88509490D01*
X62864989Y-89261991D02*
X62864989Y-89281000D01*
X50286490Y-84195490D02*
X61463207Y-84195490D01*
X63627000Y-90150980D02*
X62864989Y-89388969D01*
X62864989Y-89388969D02*
X62864989Y-89281000D01*
%TO.N,/STM32L151RET6TR/PIN41*%
X63119000Y-93123980D02*
X63117490Y-93125490D01*
X62892990Y-90551000D02*
X62892990Y-91086990D01*
X62892990Y-91086990D02*
X63119000Y-91313000D01*
X63119000Y-91313000D02*
X63119000Y-93123980D01*
%TO.N,/STM32L151RET6TR/PIN29*%
X64993510Y-96550490D02*
X64897000Y-96647000D01*
X69042490Y-96550490D02*
X64993510Y-96550490D01*
%TO.N,/STM32L151RET6TR/PIN30*%
X68110490Y-96050490D02*
X67564000Y-95504000D01*
X69042490Y-96050490D02*
X68110490Y-96050490D01*
%TO.N,/STM32L151RET6TR/PC8*%
X61649405Y-83745970D02*
X52376970Y-83745970D01*
X64117490Y-86214054D02*
X61649405Y-83745970D01*
X52376970Y-83745970D02*
X51937490Y-83306490D01*
X64117490Y-93125490D02*
X64117490Y-86214054D01*
%TO.N,/STM32L151RET6TR/PA9*%
X62617490Y-91503492D02*
X62617490Y-93125490D01*
X62097490Y-90983492D02*
X62617490Y-91503492D01*
X46106510Y-85095510D02*
X61091792Y-85095510D01*
X44317490Y-83306490D02*
X46106510Y-85095510D01*
X61091792Y-85095510D02*
X62097490Y-86101208D01*
X62097490Y-86101208D02*
X62097490Y-90983492D01*
%TO.N,/STM32L151RET6TR/PA10*%
X61647480Y-91169892D02*
X62117490Y-91639902D01*
X62117490Y-91639902D02*
X62117490Y-93125490D01*
X60906084Y-85545520D02*
X61647480Y-86286916D01*
X41777490Y-83052490D02*
X44270520Y-85545520D01*
X44270520Y-85545520D02*
X60906084Y-85545520D01*
X61647480Y-86286916D02*
X61647480Y-91169892D01*
%TO.N,Net-(C5-Pad1)*%
X37362500Y-117900000D02*
X37400000Y-117862500D01*
X35400000Y-117900000D02*
X37362500Y-117900000D01*
D44*
%TO.N,Net-(C6-Pad2)*%
X25246500Y-86995000D02*
X25917000Y-86995000D01*
X27149000Y-87435000D02*
X26357000Y-87435000D01*
X25917000Y-86995000D02*
X26357000Y-87435000D01*
D43*
%TO.N,BUCK_33_EN*%
X31890000Y-112990000D02*
X31890000Y-113450000D01*
X31500000Y-111600000D02*
X31500000Y-112600000D01*
X31500000Y-112600000D02*
X31890000Y-112990000D01*
%TO.N,BUCK_5_EN*%
X29968480Y-82804000D02*
X29049000Y-83723480D01*
X51435000Y-86868000D02*
X44568386Y-86868000D01*
X60117490Y-104475490D02*
X60117490Y-103424490D01*
X30893000Y-80708500D02*
X30893000Y-80850720D01*
X42485586Y-84785200D02*
X42515293Y-84814907D01*
X29968480Y-81633020D02*
X29968480Y-82804000D01*
X44568386Y-86868000D02*
X42515293Y-84814907D01*
X29049000Y-83723480D02*
X29049000Y-84015000D01*
X60117490Y-103424490D02*
X59690008Y-102997008D01*
X30893000Y-80708500D02*
X29968480Y-81633020D01*
X40550500Y-84785200D02*
X42485586Y-84785200D01*
X59690008Y-102997008D02*
X59181992Y-102997008D01*
X30893000Y-80850720D02*
X31852210Y-81809930D01*
%TO.N,XSHUT_3*%
X213360011Y-98162375D02*
X214689193Y-96833193D01*
X213740989Y-104901989D02*
X213360011Y-104901989D01*
X69519203Y-106474050D02*
X65776044Y-106474050D01*
X71198560Y-113809553D02*
X71198559Y-108153407D01*
X174879000Y-104902000D02*
X176408020Y-106431020D01*
X68961000Y-116047113D02*
X71198560Y-113809553D01*
X216562800Y-97436800D02*
X216562800Y-97841001D01*
X64617490Y-105315496D02*
X64617490Y-104475490D01*
X194812980Y-106431020D02*
X196342011Y-104901989D01*
X133739606Y-106817040D02*
X155691960Y-106817040D01*
X65776044Y-106474050D02*
X64617490Y-105315496D01*
X215732489Y-96606489D02*
X216562800Y-97436800D01*
X103378000Y-111288000D02*
X106561614Y-111288000D01*
X196342011Y-104901989D02*
X212978989Y-104901989D01*
X157607000Y-104902000D02*
X174879000Y-104902000D01*
X213360011Y-104394011D02*
X213360011Y-104521011D01*
X214757000Y-96447592D02*
X214915897Y-96606489D01*
X176408020Y-106431020D02*
X194812980Y-106431020D01*
X213740989Y-104901989D02*
X216788989Y-104901989D01*
X214915897Y-96606489D02*
X215732489Y-96606489D01*
X131883046Y-104960480D02*
X133739606Y-106817040D01*
X213360011Y-104394011D02*
X213360011Y-98162375D01*
X214757000Y-96765386D02*
X214689193Y-96833193D01*
X68961000Y-117221000D02*
X68961000Y-116047113D01*
X69020803Y-120310399D02*
X71328904Y-122618500D01*
X106561614Y-111288000D02*
X112889135Y-104960480D01*
X112889135Y-104960480D02*
X131883046Y-104960480D01*
X214757000Y-95123000D02*
X214757000Y-96266000D01*
X72580500Y-122618500D02*
X73914000Y-123952000D01*
X213360011Y-104520967D02*
X212978989Y-104901989D01*
X214689193Y-96833193D02*
X214915897Y-96606489D01*
X213360011Y-104901989D02*
X212978989Y-104901989D01*
X213360011Y-104394011D02*
X213360011Y-104520967D01*
X216788989Y-104901989D02*
X217043000Y-105156000D01*
X214757000Y-96266000D02*
X214757000Y-96447592D01*
X71328904Y-122618500D02*
X72580500Y-122618500D01*
X213360011Y-104901989D02*
X213360011Y-104394011D01*
X213360011Y-104521011D02*
X213740989Y-104901989D01*
X155691960Y-106817040D02*
X157607000Y-104902000D01*
X71198559Y-108153407D02*
X69519203Y-106474050D01*
X214757000Y-96266000D02*
X214757000Y-96765386D01*
D44*
%TO.N,Net-(R19-Pad1)*%
X32893000Y-82867500D02*
X32893000Y-85026500D01*
D43*
%TO.N,Net-(R25-Pad1)*%
X38358000Y-113450000D02*
X35310000Y-113450000D01*
X38800000Y-113008000D02*
X38358000Y-113450000D01*
D44*
%TO.N,Net-(R26-Pad1)*%
X30643500Y-87435000D02*
X30893000Y-87185500D01*
X30893000Y-87185500D02*
X30893000Y-85026500D01*
X29049000Y-87435000D02*
X30643500Y-87435000D01*
%TO.N,/OUT3.3*%
X35400000Y-119900000D02*
X32700000Y-119900000D01*
D43*
%TO.N,GPIOI_3*%
X58771405Y-80740969D02*
X51403969Y-80740969D01*
X223621600Y-99110800D02*
X220878400Y-96367600D01*
X176221823Y-106880540D02*
X174692802Y-105351520D01*
X113075332Y-105410000D02*
X106471332Y-112014000D01*
X214503000Y-105626500D02*
X216014900Y-105626500D01*
X62759776Y-79367996D02*
X62857996Y-79367996D01*
X195124742Y-106880540D02*
X176221823Y-106880540D01*
X65786000Y-94234000D02*
X65617490Y-94065490D01*
X155878158Y-107266560D02*
X133553409Y-107266560D01*
X90995500Y-104457500D02*
X97826000Y-111288000D01*
X50927000Y-77089000D02*
X49530000Y-75692000D01*
X62759776Y-79367996D02*
X60144378Y-79367996D01*
X82065801Y-103113656D02*
X82076145Y-103124000D01*
X65491338Y-82001338D02*
X65491338Y-91402928D01*
X62857996Y-79367996D02*
X65491338Y-82001338D01*
X65617490Y-91529080D02*
X65617490Y-93125490D01*
X60144378Y-79367996D02*
X58771405Y-80740969D01*
X218793200Y-97841001D02*
X218793200Y-96522400D01*
X51403969Y-80740969D02*
X50927000Y-80264000D01*
X220878400Y-96367600D02*
X218948000Y-96367600D01*
X106471332Y-112014000D02*
X101564000Y-112014000D01*
X68067701Y-94238299D02*
X68063402Y-94234000D01*
X82076145Y-103124000D02*
X89662000Y-103124000D01*
X174692802Y-105351520D02*
X157793198Y-105351520D01*
X216560400Y-106172000D02*
X222004614Y-106172000D01*
X131696848Y-105410000D02*
X113075332Y-105410000D01*
X101564000Y-112014000D02*
X100838000Y-111288000D01*
X214286500Y-105410000D02*
X196595282Y-105410000D01*
X214503000Y-105626500D02*
X214286500Y-105410000D01*
X68063402Y-94234000D02*
X65786000Y-94234000D01*
X222004614Y-106172000D02*
X223621600Y-104555014D01*
X97826000Y-111288000D02*
X100838000Y-111288000D01*
X157793198Y-105351520D02*
X155878158Y-107266560D01*
X65491338Y-91402928D02*
X65617490Y-91529080D01*
X218948000Y-96367600D02*
X218795600Y-96520000D01*
X196595282Y-105410000D02*
X195124742Y-106880540D01*
X216014900Y-105626500D02*
X216560400Y-106172000D01*
X65617490Y-94065490D02*
X65617490Y-93125490D01*
X50927000Y-80264000D02*
X50927000Y-77089000D01*
X133553409Y-107266560D02*
X131696848Y-105410000D01*
X89662000Y-103124000D02*
X90995500Y-104457500D01*
X218793200Y-96522400D02*
X218795600Y-96520000D01*
X223621600Y-104555014D02*
X223621600Y-99110800D01*
%TO.N,XSHUT_4*%
X251079000Y-103124000D02*
X251079000Y-103632000D01*
X156064356Y-107716080D02*
X133367211Y-107716080D01*
X253015897Y-96606489D02*
X252789193Y-96833193D01*
X195310940Y-107330060D02*
X163845060Y-107330060D01*
X252829704Y-96420296D02*
X252789193Y-96460807D01*
X255143000Y-105410000D02*
X253365000Y-103632000D01*
X114875803Y-106992480D02*
X106171282Y-115697000D01*
X251079000Y-102997000D02*
X251079000Y-103251000D01*
X106171282Y-115697000D02*
X105283718Y-115697000D01*
X77364531Y-94035469D02*
X72349510Y-99050490D01*
X253792103Y-96606489D02*
X253015897Y-96606489D01*
X252789193Y-96833193D02*
X251079000Y-98543386D01*
X242443000Y-103632000D02*
X239141000Y-106934000D01*
X251079000Y-103251000D02*
X250698000Y-103632000D01*
X69981299Y-116590299D02*
X70104000Y-116467598D01*
X105219859Y-115633141D02*
X103378000Y-117475000D01*
X252789193Y-96460807D02*
X252789193Y-96833193D01*
X70104000Y-116467598D02*
X70104000Y-115570000D01*
X69977000Y-120269000D02*
X71628000Y-121920000D01*
X72349510Y-99050490D02*
X69042490Y-99050490D01*
X251079000Y-103124000D02*
X251079000Y-103251000D01*
X239141000Y-106934000D02*
X195707000Y-106934000D01*
X252730000Y-96320592D02*
X252829704Y-96420296D01*
X76454000Y-123952000D02*
X74422000Y-121920000D01*
X250698000Y-103632000D02*
X242443000Y-103632000D01*
X80391000Y-93145506D02*
X79828494Y-92583000D01*
X156845718Y-106934718D02*
X156064356Y-107716080D01*
X69977000Y-119741501D02*
X69977000Y-120269000D01*
X133367211Y-107716080D02*
X132643611Y-106992480D01*
X251079000Y-98543386D02*
X251079000Y-102997000D01*
X163449718Y-106934718D02*
X156845718Y-106934718D01*
X254662800Y-97477186D02*
X253792103Y-96606489D01*
X80391000Y-105283000D02*
X80391000Y-93145506D01*
X251460000Y-103632000D02*
X250698000Y-103632000D01*
X252730000Y-95123000D02*
X252730000Y-96320592D01*
X163845060Y-107330060D02*
X163449718Y-106934718D01*
X132643611Y-106992480D02*
X114875803Y-106992480D01*
X251079000Y-103251000D02*
X251460000Y-103632000D01*
X254662800Y-97841001D02*
X254662800Y-97477186D01*
X78290928Y-92583000D02*
X77364531Y-93509397D01*
X252829704Y-96420296D02*
X253015897Y-96606489D01*
X195707000Y-106934000D02*
X195310940Y-107330060D01*
X74422000Y-121920000D02*
X71628000Y-121920000D01*
X70104000Y-115570000D02*
X80391000Y-105283000D01*
X105283718Y-115697000D02*
X105219859Y-115633141D01*
X253365000Y-103632000D02*
X251460000Y-103632000D01*
X79828494Y-92583000D02*
X78290928Y-92583000D01*
X251079000Y-102997000D02*
X251079000Y-103124000D01*
X77364531Y-93509397D02*
X77364531Y-94035469D01*
%TO.N,GPIOI_4*%
X256893200Y-96674800D02*
X256895600Y-96672400D01*
X49938479Y-81190489D02*
X59017511Y-81190489D01*
X106235500Y-116268500D02*
X106235500Y-117538500D01*
X261518400Y-98907600D02*
X261518400Y-105359200D01*
X241427718Y-105283000D02*
X239327198Y-107383520D01*
X157031916Y-107384238D02*
X156250553Y-108165600D01*
X62045029Y-80092496D02*
X62820496Y-80092496D01*
X163658862Y-107779580D02*
X163263520Y-107384238D01*
X257010511Y-96557489D02*
X259168289Y-96557489D01*
X46990000Y-78242010D02*
X49938479Y-81190489D01*
X195893198Y-107383520D02*
X195497138Y-107779580D01*
X259168289Y-96557489D02*
X261518400Y-98907600D01*
X60115504Y-80092496D02*
X59017511Y-81190489D01*
X132457413Y-107442000D02*
X115062000Y-107442000D01*
X100838000Y-115338000D02*
X100838000Y-117475000D01*
X115062000Y-107442000D02*
X106235500Y-116268500D01*
X163263520Y-107384238D02*
X157031916Y-107384238D01*
X101727000Y-118364000D02*
X100838000Y-117475000D01*
X65024000Y-82296000D02*
X65024000Y-91694000D01*
X65117490Y-91787490D02*
X65117490Y-93125490D01*
X195497138Y-107779580D02*
X163658862Y-107779580D01*
X253593600Y-106273600D02*
X252603000Y-105283000D01*
X256893200Y-97841001D02*
X256893200Y-96674800D01*
X256895600Y-96672400D02*
X257010511Y-96557489D01*
X239327198Y-107383520D02*
X195893198Y-107383520D01*
X46990000Y-75692000D02*
X46990000Y-78242010D01*
X261518400Y-105359200D02*
X260604000Y-106273600D01*
X156250553Y-108165600D02*
X133181013Y-108165600D01*
X106235500Y-117538500D02*
X105410000Y-118364000D01*
X89800000Y-104300000D02*
X100838000Y-115338000D01*
X252603000Y-105283000D02*
X241427718Y-105283000D01*
X133181013Y-108165600D02*
X132457413Y-107442000D01*
X260604000Y-106273600D02*
X253593600Y-106273600D01*
X62820496Y-80092496D02*
X65024000Y-82296000D01*
X62045029Y-80092496D02*
X60115504Y-80092496D01*
X105410000Y-118364000D02*
X101727000Y-118364000D01*
X65024000Y-91694000D02*
X65117490Y-91787490D01*
%TO.N,LED_5*%
X76915011Y-92618969D02*
X78099490Y-91434490D01*
X74861495Y-77284505D02*
X76454000Y-75692000D01*
X76915011Y-93849271D02*
X76915011Y-92618969D01*
X69087498Y-81280502D02*
X73083495Y-77284505D01*
X73083495Y-77284505D02*
X74861495Y-77284505D01*
X69042490Y-98050490D02*
X72713792Y-98050490D01*
X69087498Y-88128195D02*
X69087498Y-81280502D01*
X72713792Y-98050490D02*
X76915011Y-93849271D01*
X78099490Y-91434490D02*
X79369490Y-91434490D01*
X69362489Y-88403186D02*
X69087498Y-88128195D01*
%TD*%
%TA.AperFunction,Conductor*%
%TO.N,VCC*%
G36*
X38948191Y-77488907D02*
G01*
X38984155Y-77538407D01*
X38989000Y-77569000D01*
X38989000Y-82324000D01*
X38970093Y-82382191D01*
X38920593Y-82418155D01*
X38890000Y-82423000D01*
X34008000Y-82423000D01*
X33949809Y-82404093D01*
X33913845Y-82354593D01*
X33909000Y-82324000D01*
X33909000Y-81788000D01*
X32763400Y-81788000D01*
X32705209Y-81769093D01*
X32669245Y-81719593D01*
X32664400Y-81689000D01*
X32664400Y-81584357D01*
X36581001Y-81584357D01*
X36581528Y-81591554D01*
X36590006Y-81649155D01*
X36594517Y-81663673D01*
X36638873Y-81754016D01*
X36648270Y-81767142D01*
X36719152Y-81837901D01*
X36732294Y-81847274D01*
X36822722Y-81891476D01*
X36837231Y-81895961D01*
X36894278Y-81904283D01*
X36901405Y-81904800D01*
X37215320Y-81904800D01*
X37228005Y-81900678D01*
X37231000Y-81896557D01*
X37231000Y-81889119D01*
X37731000Y-81889119D01*
X37735122Y-81901804D01*
X37739243Y-81904799D01*
X38060557Y-81904799D01*
X38067754Y-81904272D01*
X38125355Y-81895794D01*
X38139873Y-81891283D01*
X38230216Y-81846927D01*
X38243342Y-81837530D01*
X38314101Y-81766648D01*
X38323474Y-81753506D01*
X38367676Y-81663078D01*
X38372161Y-81648569D01*
X38380483Y-81591522D01*
X38381000Y-81584395D01*
X38381000Y-80320480D01*
X38376878Y-80307795D01*
X38372757Y-80304800D01*
X37746680Y-80304800D01*
X37733995Y-80308922D01*
X37731000Y-80313043D01*
X37731000Y-81889119D01*
X37231000Y-81889119D01*
X37231000Y-80320480D01*
X37226878Y-80307795D01*
X37222757Y-80304800D01*
X36596681Y-80304800D01*
X36583996Y-80308922D01*
X36581001Y-80313043D01*
X36581001Y-81584357D01*
X32664400Y-81584357D01*
X32664400Y-81492819D01*
X33143000Y-81492819D01*
X33147122Y-81505504D01*
X33151243Y-81508499D01*
X33272557Y-81508499D01*
X33279755Y-81507972D01*
X33337359Y-81499494D01*
X33351871Y-81494985D01*
X33442216Y-81450627D01*
X33455343Y-81441229D01*
X33526101Y-81370348D01*
X33535474Y-81357206D01*
X33579676Y-81266778D01*
X33584161Y-81252269D01*
X33592483Y-81195222D01*
X33593000Y-81188095D01*
X33593000Y-80974180D01*
X33588878Y-80961495D01*
X33584757Y-80958500D01*
X33158680Y-80958500D01*
X33145995Y-80962622D01*
X33143000Y-80966743D01*
X33143000Y-81492819D01*
X32664400Y-81492819D01*
X32664400Y-80442820D01*
X33143000Y-80442820D01*
X33147122Y-80455505D01*
X33151243Y-80458500D01*
X33577319Y-80458500D01*
X33590004Y-80454378D01*
X33592999Y-80450257D01*
X33592999Y-80228943D01*
X33592472Y-80221745D01*
X33583994Y-80164141D01*
X33579485Y-80149629D01*
X33535127Y-80059284D01*
X33525729Y-80046157D01*
X33454848Y-79975399D01*
X33441706Y-79966026D01*
X33351278Y-79921824D01*
X33336769Y-79917339D01*
X33279722Y-79909017D01*
X33272595Y-79908500D01*
X33158680Y-79908500D01*
X33145995Y-79912622D01*
X33143000Y-79916743D01*
X33143000Y-80442820D01*
X32664400Y-80442820D01*
X32664400Y-79789120D01*
X36581000Y-79789120D01*
X36585122Y-79801805D01*
X36589243Y-79804800D01*
X37215320Y-79804800D01*
X37228005Y-79800678D01*
X37231000Y-79796557D01*
X37231000Y-79789120D01*
X37731000Y-79789120D01*
X37735122Y-79801805D01*
X37739243Y-79804800D01*
X38365319Y-79804800D01*
X38378004Y-79800678D01*
X38380999Y-79796557D01*
X38380999Y-78525243D01*
X38380472Y-78518046D01*
X38371994Y-78460445D01*
X38367483Y-78445927D01*
X38323127Y-78355584D01*
X38313730Y-78342458D01*
X38242848Y-78271699D01*
X38229706Y-78262326D01*
X38139278Y-78218124D01*
X38124769Y-78213639D01*
X38067722Y-78205317D01*
X38060595Y-78204800D01*
X37746680Y-78204800D01*
X37733995Y-78208922D01*
X37731000Y-78213043D01*
X37731000Y-79789120D01*
X37231000Y-79789120D01*
X37231000Y-78220481D01*
X37226878Y-78207796D01*
X37222757Y-78204801D01*
X36901443Y-78204801D01*
X36894246Y-78205328D01*
X36836645Y-78213806D01*
X36822127Y-78218317D01*
X36731784Y-78262673D01*
X36718658Y-78272070D01*
X36647899Y-78342952D01*
X36638526Y-78356094D01*
X36594324Y-78446522D01*
X36589839Y-78461031D01*
X36581517Y-78518078D01*
X36581000Y-78525205D01*
X36581000Y-79789120D01*
X32664400Y-79789120D01*
X32664400Y-79756000D01*
X31488228Y-79756000D01*
X31451785Y-79749048D01*
X31375548Y-79718864D01*
X31285773Y-79708000D01*
X30893066Y-79708000D01*
X30500228Y-79708001D01*
X30497263Y-79708360D01*
X30497259Y-79708360D01*
X30416765Y-79718100D01*
X30416764Y-79718100D01*
X30410452Y-79718864D01*
X30334215Y-79749048D01*
X30297772Y-79756000D01*
X29718000Y-79756000D01*
X29718000Y-81240744D01*
X29699093Y-81298935D01*
X29689004Y-81310748D01*
X29619952Y-81379800D01*
X29608092Y-81403076D01*
X29599986Y-81416305D01*
X29584631Y-81437439D01*
X29580552Y-81449994D01*
X29576562Y-81462273D01*
X29570620Y-81476618D01*
X29558761Y-81499894D01*
X29557542Y-81507590D01*
X29554676Y-81525685D01*
X29551050Y-81540787D01*
X29545387Y-81558216D01*
X29545386Y-81558222D01*
X29542980Y-81565627D01*
X29542980Y-82578000D01*
X29524073Y-82636191D01*
X29474573Y-82672155D01*
X29443980Y-82677000D01*
X28448000Y-82677000D01*
X28448000Y-82816000D01*
X28429093Y-82874191D01*
X28379592Y-82910155D01*
X28351995Y-82919122D01*
X28349000Y-82923243D01*
X28349000Y-84166000D01*
X28330093Y-84224191D01*
X28280593Y-84260155D01*
X28250000Y-84265000D01*
X27948000Y-84265000D01*
X27889809Y-84246093D01*
X27853845Y-84196593D01*
X27849000Y-84166000D01*
X27849000Y-82930681D01*
X27844878Y-82917996D01*
X27840757Y-82915001D01*
X27822785Y-82915001D01*
X27764594Y-82896094D01*
X27732308Y-82856186D01*
X27729649Y-82850198D01*
X27729647Y-82850195D01*
X27725939Y-82841847D01*
X27715058Y-82830985D01*
X27687232Y-82776492D01*
X27686000Y-82760920D01*
X27686000Y-82014000D01*
X27704907Y-81955809D01*
X27754407Y-81919845D01*
X27785000Y-81915000D01*
X28575000Y-81915000D01*
X28575000Y-81616392D01*
X28587328Y-81576578D01*
X28584241Y-81575213D01*
X28626496Y-81479636D01*
X28626496Y-81479634D01*
X28629506Y-81472827D01*
X28632500Y-81447146D01*
X28632500Y-79030057D01*
X30258001Y-79030057D01*
X30258528Y-79037255D01*
X30267006Y-79094859D01*
X30271515Y-79109371D01*
X30315873Y-79199716D01*
X30325271Y-79212843D01*
X30396152Y-79283601D01*
X30409294Y-79292974D01*
X30499722Y-79337176D01*
X30514231Y-79341661D01*
X30571278Y-79349983D01*
X30578405Y-79350500D01*
X30992320Y-79350500D01*
X31005005Y-79346378D01*
X31008000Y-79342257D01*
X31008000Y-79334819D01*
X31508000Y-79334819D01*
X31512122Y-79347504D01*
X31516243Y-79350499D01*
X31937557Y-79350499D01*
X31944755Y-79349972D01*
X32002359Y-79341494D01*
X32016871Y-79336985D01*
X32107216Y-79292627D01*
X32120343Y-79283229D01*
X32191101Y-79212348D01*
X32200474Y-79199206D01*
X32244676Y-79108778D01*
X32249161Y-79094269D01*
X32257483Y-79037222D01*
X32258000Y-79030095D01*
X32258000Y-78853680D01*
X32253878Y-78840995D01*
X32249757Y-78838000D01*
X31523680Y-78838000D01*
X31510995Y-78842122D01*
X31508000Y-78846243D01*
X31508000Y-79334819D01*
X31008000Y-79334819D01*
X31008000Y-78853680D01*
X31003878Y-78840995D01*
X30999757Y-78838000D01*
X30273681Y-78838000D01*
X30260996Y-78842122D01*
X30258001Y-78846243D01*
X30258001Y-79030057D01*
X28632500Y-79030057D01*
X28632500Y-78322320D01*
X30258000Y-78322320D01*
X30262122Y-78335005D01*
X30266243Y-78338000D01*
X30992320Y-78338000D01*
X31005005Y-78333878D01*
X31008000Y-78329757D01*
X31008000Y-78322320D01*
X31508000Y-78322320D01*
X31512122Y-78335005D01*
X31516243Y-78338000D01*
X32242319Y-78338000D01*
X32255004Y-78333878D01*
X32257999Y-78329757D01*
X32257999Y-78145943D01*
X32257472Y-78138745D01*
X32248994Y-78081141D01*
X32244485Y-78066629D01*
X32200127Y-77976284D01*
X32190729Y-77963157D01*
X32119848Y-77892399D01*
X32106706Y-77883026D01*
X32016278Y-77838824D01*
X32001769Y-77834339D01*
X31944722Y-77826017D01*
X31937595Y-77825500D01*
X31523680Y-77825500D01*
X31510995Y-77829622D01*
X31508000Y-77833743D01*
X31508000Y-78322320D01*
X31008000Y-78322320D01*
X31008000Y-77841181D01*
X31003878Y-77828496D01*
X30999757Y-77825501D01*
X30578443Y-77825501D01*
X30571245Y-77826028D01*
X30513641Y-77834506D01*
X30499129Y-77839015D01*
X30408784Y-77883373D01*
X30395657Y-77892771D01*
X30324899Y-77963652D01*
X30315526Y-77976794D01*
X30271324Y-78067222D01*
X30266839Y-78081731D01*
X30258517Y-78138778D01*
X30258000Y-78145905D01*
X30258000Y-78322320D01*
X28632500Y-78322320D01*
X28632500Y-77857854D01*
X28629382Y-77831654D01*
X28583939Y-77729347D01*
X28587212Y-77727893D01*
X28575000Y-77688555D01*
X28575000Y-77569000D01*
X28593907Y-77510809D01*
X28643407Y-77474845D01*
X28674000Y-77470000D01*
X38890000Y-77470000D01*
X38948191Y-77488907D01*
G37*
%TD.AperFunction*%
%TD*%
%TA.AperFunction,Conductor*%
%TO.N,GND*%
G36*
X24959191Y-107818907D02*
G01*
X24995155Y-107868407D01*
X25000000Y-107899000D01*
X25000000Y-111500000D01*
X25007797Y-111508317D01*
X26473224Y-113071439D01*
X26499230Y-113126823D01*
X26500000Y-113139149D01*
X26500000Y-115900000D01*
X27000000Y-116400000D01*
X29201000Y-116400000D01*
X29259191Y-116418907D01*
X29295155Y-116468407D01*
X29300000Y-116499000D01*
X29300000Y-119218000D01*
X29281093Y-119276191D01*
X29231593Y-119312155D01*
X29201000Y-119317000D01*
X20223400Y-119317000D01*
X20165209Y-119298093D01*
X20129245Y-119248593D01*
X20124400Y-119218000D01*
X20124400Y-118904984D01*
X25050001Y-118904984D01*
X25050949Y-118914616D01*
X25053900Y-118929455D01*
X25061219Y-118947126D01*
X25072485Y-118963986D01*
X25086014Y-118977515D01*
X25102876Y-118988781D01*
X25120544Y-118996100D01*
X25135387Y-118999052D01*
X25145009Y-119000000D01*
X26634320Y-119000000D01*
X26647005Y-118995878D01*
X26650000Y-118991757D01*
X26650000Y-118984319D01*
X27150000Y-118984319D01*
X27154122Y-118997004D01*
X27158243Y-118999999D01*
X28654984Y-118999999D01*
X28664616Y-118999051D01*
X28679455Y-118996100D01*
X28697126Y-118988781D01*
X28713986Y-118977515D01*
X28727515Y-118963986D01*
X28738781Y-118947124D01*
X28746100Y-118929456D01*
X28749052Y-118914613D01*
X28750000Y-118904991D01*
X28750000Y-118265680D01*
X28745878Y-118252995D01*
X28741757Y-118250000D01*
X27165680Y-118250000D01*
X27152995Y-118254122D01*
X27150000Y-118258243D01*
X27150000Y-118984319D01*
X26650000Y-118984319D01*
X26650000Y-118265680D01*
X26645878Y-118252995D01*
X26641757Y-118250000D01*
X25065681Y-118250000D01*
X25052996Y-118254122D01*
X25050001Y-118258243D01*
X25050001Y-118904984D01*
X20124400Y-118904984D01*
X20124400Y-118579557D01*
X22500001Y-118579557D01*
X22500528Y-118586755D01*
X22509006Y-118644359D01*
X22513515Y-118658871D01*
X22557873Y-118749216D01*
X22567271Y-118762343D01*
X22638152Y-118833101D01*
X22651294Y-118842474D01*
X22741722Y-118886676D01*
X22756231Y-118891161D01*
X22813278Y-118899483D01*
X22820405Y-118900000D01*
X23234320Y-118900000D01*
X23247005Y-118895878D01*
X23250000Y-118891757D01*
X23250000Y-118884319D01*
X23750000Y-118884319D01*
X23754122Y-118897004D01*
X23758243Y-118899999D01*
X24179557Y-118899999D01*
X24186755Y-118899472D01*
X24244359Y-118890994D01*
X24258871Y-118886485D01*
X24349216Y-118842127D01*
X24362343Y-118832729D01*
X24433101Y-118761848D01*
X24442474Y-118748706D01*
X24486676Y-118658278D01*
X24491161Y-118643769D01*
X24499483Y-118586722D01*
X24500000Y-118579595D01*
X24500000Y-118403180D01*
X24495878Y-118390495D01*
X24491757Y-118387500D01*
X23765680Y-118387500D01*
X23752995Y-118391622D01*
X23750000Y-118395743D01*
X23750000Y-118884319D01*
X23250000Y-118884319D01*
X23250000Y-118403180D01*
X23245878Y-118390495D01*
X23241757Y-118387500D01*
X22515681Y-118387500D01*
X22502996Y-118391622D01*
X22500001Y-118395743D01*
X22500001Y-118579557D01*
X20124400Y-118579557D01*
X20124400Y-117871820D01*
X22500000Y-117871820D01*
X22504122Y-117884505D01*
X22508243Y-117887500D01*
X23234320Y-117887500D01*
X23247005Y-117883378D01*
X23250000Y-117879257D01*
X23250000Y-117871820D01*
X23750000Y-117871820D01*
X23754122Y-117884505D01*
X23758243Y-117887500D01*
X24484319Y-117887500D01*
X24497004Y-117883378D01*
X24499999Y-117879257D01*
X24499999Y-117734320D01*
X25050000Y-117734320D01*
X25054122Y-117747005D01*
X25058243Y-117750000D01*
X26634320Y-117750000D01*
X26647005Y-117745878D01*
X26650000Y-117741757D01*
X26650000Y-117734320D01*
X27150000Y-117734320D01*
X27154122Y-117747005D01*
X27158243Y-117750000D01*
X28734319Y-117750000D01*
X28747004Y-117745878D01*
X28749999Y-117741757D01*
X28749999Y-117095016D01*
X28749051Y-117085384D01*
X28746100Y-117070545D01*
X28738781Y-117052874D01*
X28727515Y-117036014D01*
X28713986Y-117022485D01*
X28697124Y-117011219D01*
X28679456Y-117003900D01*
X28664613Y-117000948D01*
X28654991Y-117000000D01*
X27165680Y-117000000D01*
X27152995Y-117004122D01*
X27150000Y-117008243D01*
X27150000Y-117734320D01*
X26650000Y-117734320D01*
X26650000Y-117015681D01*
X26645878Y-117002996D01*
X26641757Y-117000001D01*
X25145016Y-117000001D01*
X25135384Y-117000949D01*
X25120545Y-117003900D01*
X25102874Y-117011219D01*
X25086014Y-117022485D01*
X25072485Y-117036014D01*
X25061219Y-117052876D01*
X25053900Y-117070544D01*
X25050948Y-117085387D01*
X25050000Y-117095009D01*
X25050000Y-117734320D01*
X24499999Y-117734320D01*
X24499999Y-117695443D01*
X24499472Y-117688245D01*
X24490994Y-117630641D01*
X24486485Y-117616129D01*
X24442127Y-117525784D01*
X24432729Y-117512657D01*
X24361848Y-117441899D01*
X24348706Y-117432526D01*
X24258278Y-117388324D01*
X24243769Y-117383839D01*
X24186722Y-117375517D01*
X24179595Y-117375000D01*
X23765680Y-117375000D01*
X23752995Y-117379122D01*
X23750000Y-117383243D01*
X23750000Y-117871820D01*
X23250000Y-117871820D01*
X23250000Y-117390681D01*
X23245878Y-117377996D01*
X23241757Y-117375001D01*
X22820443Y-117375001D01*
X22813245Y-117375528D01*
X22755641Y-117384006D01*
X22741129Y-117388515D01*
X22650784Y-117432873D01*
X22637657Y-117442271D01*
X22566899Y-117513152D01*
X22557526Y-117526294D01*
X22513324Y-117616722D01*
X22508839Y-117631231D01*
X22500517Y-117688278D01*
X22500000Y-117695405D01*
X22500000Y-117871820D01*
X20124400Y-117871820D01*
X20124400Y-115079557D01*
X24775001Y-115079557D01*
X24775528Y-115086755D01*
X24784006Y-115144359D01*
X24788515Y-115158871D01*
X24832873Y-115249216D01*
X24842271Y-115262343D01*
X24913152Y-115333101D01*
X24926294Y-115342474D01*
X25016722Y-115386676D01*
X25031231Y-115391161D01*
X25088278Y-115399483D01*
X25095405Y-115400000D01*
X25271820Y-115400000D01*
X25284505Y-115395878D01*
X25287500Y-115391757D01*
X25287500Y-115384319D01*
X25787500Y-115384319D01*
X25791622Y-115397004D01*
X25795743Y-115399999D01*
X25979557Y-115399999D01*
X25986755Y-115399472D01*
X26044359Y-115390994D01*
X26058871Y-115386485D01*
X26149216Y-115342127D01*
X26162343Y-115332729D01*
X26233101Y-115261848D01*
X26242474Y-115248706D01*
X26286676Y-115158278D01*
X26291161Y-115143769D01*
X26299483Y-115086722D01*
X26300000Y-115079595D01*
X26300000Y-114665680D01*
X26295878Y-114652995D01*
X26291757Y-114650000D01*
X25803180Y-114650000D01*
X25790495Y-114654122D01*
X25787500Y-114658243D01*
X25787500Y-115384319D01*
X25287500Y-115384319D01*
X25287500Y-114665680D01*
X25283378Y-114652995D01*
X25279257Y-114650000D01*
X24790681Y-114650000D01*
X24777996Y-114654122D01*
X24775001Y-114658243D01*
X24775001Y-115079557D01*
X20124400Y-115079557D01*
X20124400Y-114134320D01*
X24775000Y-114134320D01*
X24779122Y-114147005D01*
X24783243Y-114150000D01*
X25271820Y-114150000D01*
X25284505Y-114145878D01*
X25287500Y-114141757D01*
X25287500Y-114134320D01*
X25787500Y-114134320D01*
X25791622Y-114147005D01*
X25795743Y-114150000D01*
X26284319Y-114150000D01*
X26297004Y-114145878D01*
X26299999Y-114141757D01*
X26299999Y-113720443D01*
X26299472Y-113713245D01*
X26290994Y-113655641D01*
X26286485Y-113641129D01*
X26242127Y-113550784D01*
X26232729Y-113537657D01*
X26161848Y-113466899D01*
X26148706Y-113457526D01*
X26058278Y-113413324D01*
X26043769Y-113408839D01*
X25986722Y-113400517D01*
X25979595Y-113400000D01*
X25803180Y-113400000D01*
X25790495Y-113404122D01*
X25787500Y-113408243D01*
X25787500Y-114134320D01*
X25287500Y-114134320D01*
X25287500Y-113415681D01*
X25283378Y-113402996D01*
X25279257Y-113400001D01*
X25095443Y-113400001D01*
X25088245Y-113400528D01*
X25030641Y-113409006D01*
X25016129Y-113413515D01*
X24925784Y-113457873D01*
X24912657Y-113467271D01*
X24841899Y-113538152D01*
X24832526Y-113551294D01*
X24788324Y-113641722D01*
X24783839Y-113656231D01*
X24775517Y-113713278D01*
X24775000Y-113720405D01*
X24775000Y-114134320D01*
X20124400Y-114134320D01*
X20124400Y-110079557D01*
X20350001Y-110079557D01*
X20350528Y-110086754D01*
X20359006Y-110144355D01*
X20363517Y-110158873D01*
X20407873Y-110249216D01*
X20417270Y-110262342D01*
X20488152Y-110333101D01*
X20501294Y-110342474D01*
X20591722Y-110386676D01*
X20606231Y-110391161D01*
X20663278Y-110399483D01*
X20670405Y-110400000D01*
X21934320Y-110400000D01*
X21947005Y-110395878D01*
X21950000Y-110391757D01*
X21950000Y-110384319D01*
X22450000Y-110384319D01*
X22454122Y-110397004D01*
X22458243Y-110399999D01*
X23729557Y-110399999D01*
X23736754Y-110399472D01*
X23794355Y-110390994D01*
X23808873Y-110386483D01*
X23899216Y-110342127D01*
X23912342Y-110332730D01*
X23983101Y-110261848D01*
X23992474Y-110248706D01*
X24036676Y-110158278D01*
X24041161Y-110143769D01*
X24049483Y-110086722D01*
X24050000Y-110079595D01*
X24050000Y-109765680D01*
X24045878Y-109752995D01*
X24041757Y-109750000D01*
X22465680Y-109750000D01*
X22452995Y-109754122D01*
X22450000Y-109758243D01*
X22450000Y-110384319D01*
X21950000Y-110384319D01*
X21950000Y-109765680D01*
X21945878Y-109752995D01*
X21941757Y-109750000D01*
X20365681Y-109750000D01*
X20352996Y-109754122D01*
X20350001Y-109758243D01*
X20350001Y-110079557D01*
X20124400Y-110079557D01*
X20124400Y-109234320D01*
X20350000Y-109234320D01*
X20354122Y-109247005D01*
X20358243Y-109250000D01*
X21934320Y-109250000D01*
X21947005Y-109245878D01*
X21950000Y-109241757D01*
X21950000Y-109234320D01*
X22450000Y-109234320D01*
X22454122Y-109247005D01*
X22458243Y-109250000D01*
X24034319Y-109250000D01*
X24047004Y-109245878D01*
X24049999Y-109241757D01*
X24049999Y-108920443D01*
X24049472Y-108913246D01*
X24040994Y-108855645D01*
X24036483Y-108841127D01*
X23992127Y-108750784D01*
X23982730Y-108737658D01*
X23911848Y-108666899D01*
X23898706Y-108657526D01*
X23808278Y-108613324D01*
X23793769Y-108608839D01*
X23736722Y-108600517D01*
X23729595Y-108600000D01*
X22465680Y-108600000D01*
X22452995Y-108604122D01*
X22450000Y-108608243D01*
X22450000Y-109234320D01*
X21950000Y-109234320D01*
X21950000Y-108615681D01*
X21945878Y-108602996D01*
X21941757Y-108600001D01*
X20670443Y-108600001D01*
X20663246Y-108600528D01*
X20605645Y-108609006D01*
X20591127Y-108613517D01*
X20500784Y-108657873D01*
X20487658Y-108667270D01*
X20416899Y-108738152D01*
X20407526Y-108751294D01*
X20363324Y-108841722D01*
X20358839Y-108856231D01*
X20350517Y-108913278D01*
X20350000Y-108920405D01*
X20350000Y-109234320D01*
X20124400Y-109234320D01*
X20124400Y-107899000D01*
X20143307Y-107840809D01*
X20192807Y-107804845D01*
X20223400Y-107800000D01*
X24901000Y-107800000D01*
X24959191Y-107818907D01*
G37*
%TD.AperFunction*%
%TD*%
%TA.AperFunction,Conductor*%
%TO.N,VCC*%
G36*
X38069062Y-93715244D02*
G01*
X38115555Y-93768900D01*
X38126941Y-93821242D01*
X38126941Y-98774119D01*
X38106939Y-98842240D01*
X38053283Y-98888733D01*
X38000989Y-98900119D01*
X32630361Y-98902165D01*
X32553989Y-98902194D01*
X32485861Y-98882218D01*
X32439347Y-98828580D01*
X32427941Y-98776194D01*
X32427941Y-98063511D01*
X34200000Y-98063511D01*
X34201207Y-98075766D01*
X34209183Y-98115864D01*
X34218499Y-98138355D01*
X34248915Y-98183876D01*
X34266124Y-98201085D01*
X34311645Y-98231501D01*
X34334136Y-98240817D01*
X34374234Y-98248793D01*
X34386489Y-98250000D01*
X35031885Y-98250000D01*
X35047124Y-98245525D01*
X35048329Y-98244135D01*
X35050000Y-98236452D01*
X35050000Y-98231885D01*
X35550000Y-98231885D01*
X35554475Y-98247124D01*
X35555865Y-98248329D01*
X35563548Y-98250000D01*
X36213511Y-98250000D01*
X36225766Y-98248793D01*
X36265864Y-98240817D01*
X36288355Y-98231501D01*
X36333876Y-98201085D01*
X36351085Y-98183876D01*
X36381501Y-98138355D01*
X36390817Y-98115864D01*
X36398793Y-98075766D01*
X36400000Y-98063511D01*
X36400000Y-96568115D01*
X36395525Y-96552876D01*
X36394135Y-96551671D01*
X36386452Y-96550000D01*
X35568115Y-96550000D01*
X35552876Y-96554475D01*
X35551671Y-96555865D01*
X35550000Y-96563548D01*
X35550000Y-98231885D01*
X35050000Y-98231885D01*
X35050000Y-96568115D01*
X35045525Y-96552876D01*
X35044135Y-96551671D01*
X35036452Y-96550000D01*
X34218115Y-96550000D01*
X34202876Y-96554475D01*
X34201671Y-96555865D01*
X34200000Y-96563548D01*
X34200000Y-98063511D01*
X32427941Y-98063511D01*
X32427941Y-96031885D01*
X34200000Y-96031885D01*
X34204475Y-96047124D01*
X34205865Y-96048329D01*
X34213548Y-96050000D01*
X35031885Y-96050000D01*
X35047124Y-96045525D01*
X35048329Y-96044135D01*
X35050000Y-96036452D01*
X35050000Y-96031885D01*
X35550000Y-96031885D01*
X35554475Y-96047124D01*
X35555865Y-96048329D01*
X35563548Y-96050000D01*
X36381885Y-96050000D01*
X36397124Y-96045525D01*
X36398329Y-96044135D01*
X36400000Y-96036452D01*
X36400000Y-94536489D01*
X36398793Y-94524234D01*
X36390817Y-94484136D01*
X36381501Y-94461645D01*
X36351085Y-94416124D01*
X36333876Y-94398915D01*
X36288355Y-94368499D01*
X36265864Y-94359183D01*
X36225766Y-94351207D01*
X36213511Y-94350000D01*
X35568115Y-94350000D01*
X35552876Y-94354475D01*
X35551671Y-94355865D01*
X35550000Y-94363548D01*
X35550000Y-96031885D01*
X35050000Y-96031885D01*
X35050000Y-94368115D01*
X35045525Y-94352876D01*
X35044135Y-94351671D01*
X35036452Y-94350000D01*
X34386489Y-94350000D01*
X34374234Y-94351207D01*
X34334136Y-94359183D01*
X34311645Y-94368499D01*
X34266124Y-94398915D01*
X34248915Y-94416124D01*
X34218499Y-94461645D01*
X34209183Y-94484136D01*
X34201207Y-94524234D01*
X34200000Y-94536489D01*
X34200000Y-96031885D01*
X32427941Y-96031885D01*
X32427941Y-93821242D01*
X32447943Y-93753121D01*
X32501599Y-93706628D01*
X32553941Y-93695242D01*
X38000941Y-93695242D01*
X38069062Y-93715244D01*
G37*
%TD.AperFunction*%
%TD*%
%TA.AperFunction,Conductor*%
%TO.N,GND*%
G36*
X39472191Y-83394407D02*
G01*
X39508155Y-83443907D01*
X39513000Y-83474500D01*
X39513000Y-87848500D01*
X39494093Y-87906691D01*
X39444593Y-87942655D01*
X39414000Y-87947500D01*
X36576720Y-87947500D01*
X36518529Y-87928593D01*
X36506716Y-87918504D01*
X35772569Y-87184357D01*
X36581001Y-87184357D01*
X36581528Y-87191554D01*
X36590006Y-87249155D01*
X36594517Y-87263673D01*
X36638873Y-87354016D01*
X36648270Y-87367142D01*
X36719152Y-87437901D01*
X36732294Y-87447274D01*
X36822722Y-87491476D01*
X36837231Y-87495961D01*
X36894278Y-87504283D01*
X36901405Y-87504800D01*
X37215320Y-87504800D01*
X37228005Y-87500678D01*
X37231000Y-87496557D01*
X37231000Y-87489119D01*
X37731000Y-87489119D01*
X37735122Y-87501804D01*
X37739243Y-87504799D01*
X38060557Y-87504799D01*
X38067754Y-87504272D01*
X38125355Y-87495794D01*
X38139873Y-87491283D01*
X38230216Y-87446927D01*
X38243342Y-87437530D01*
X38314101Y-87366648D01*
X38323474Y-87353506D01*
X38367676Y-87263078D01*
X38372161Y-87248569D01*
X38380483Y-87191522D01*
X38381000Y-87184395D01*
X38381000Y-85920480D01*
X38376878Y-85907795D01*
X38372757Y-85904800D01*
X37746680Y-85904800D01*
X37733995Y-85908922D01*
X37731000Y-85913043D01*
X37731000Y-87489119D01*
X37231000Y-87489119D01*
X37231000Y-85920480D01*
X37226878Y-85907795D01*
X37222757Y-85904800D01*
X36596681Y-85904800D01*
X36583996Y-85908922D01*
X36581001Y-85913043D01*
X36581001Y-87184357D01*
X35772569Y-87184357D01*
X35477996Y-86889784D01*
X35450219Y-86835267D01*
X35449000Y-86819780D01*
X35449000Y-85389120D01*
X36581000Y-85389120D01*
X36585122Y-85401805D01*
X36589243Y-85404800D01*
X37215320Y-85404800D01*
X37228005Y-85400678D01*
X37231000Y-85396557D01*
X37231000Y-85389120D01*
X37731000Y-85389120D01*
X37735122Y-85401805D01*
X37739243Y-85404800D01*
X38365319Y-85404800D01*
X38378004Y-85400678D01*
X38380999Y-85396557D01*
X38380999Y-84125243D01*
X38380472Y-84118046D01*
X38371994Y-84060445D01*
X38367483Y-84045927D01*
X38323127Y-83955584D01*
X38313730Y-83942458D01*
X38242848Y-83871699D01*
X38229706Y-83862326D01*
X38139278Y-83818124D01*
X38124769Y-83813639D01*
X38067722Y-83805317D01*
X38060595Y-83804800D01*
X37746680Y-83804800D01*
X37733995Y-83808922D01*
X37731000Y-83813043D01*
X37731000Y-85389120D01*
X37231000Y-85389120D01*
X37231000Y-83820481D01*
X37226878Y-83807796D01*
X37222757Y-83804801D01*
X36901443Y-83804801D01*
X36894246Y-83805328D01*
X36836645Y-83813806D01*
X36822127Y-83818317D01*
X36731784Y-83862673D01*
X36718658Y-83872070D01*
X36647899Y-83942952D01*
X36638526Y-83956094D01*
X36594324Y-84046522D01*
X36589839Y-84061031D01*
X36581517Y-84118078D01*
X36581000Y-84125205D01*
X36581000Y-85389120D01*
X35449000Y-85389120D01*
X35449000Y-83474500D01*
X35467907Y-83416309D01*
X35517407Y-83380345D01*
X35548000Y-83375500D01*
X39414000Y-83375500D01*
X39472191Y-83394407D01*
G37*
%TD.AperFunction*%
%TD*%
%TA.AperFunction,Conductor*%
%TO.N,/OUT3.3*%
G36*
X33165090Y-114987841D02*
G01*
X33182676Y-115005224D01*
X33257143Y-115100000D01*
X34178846Y-116273077D01*
X34200000Y-116334241D01*
X34200000Y-125836850D01*
X34181093Y-125895041D01*
X34131593Y-125931005D01*
X34102869Y-125935832D01*
X31448056Y-125985894D01*
X30800647Y-125998102D01*
X30742110Y-125980296D01*
X30705219Y-125931482D01*
X30699780Y-125899336D01*
X30697425Y-124820000D01*
X30697218Y-124724984D01*
X31129001Y-124724984D01*
X31129949Y-124734616D01*
X31132900Y-124749455D01*
X31140219Y-124767126D01*
X31151485Y-124783986D01*
X31165014Y-124797515D01*
X31181876Y-124808781D01*
X31199544Y-124816100D01*
X31214387Y-124819052D01*
X31224009Y-124820000D01*
X32163320Y-124820000D01*
X32176005Y-124815878D01*
X32179000Y-124811757D01*
X32179000Y-124804319D01*
X32679000Y-124804319D01*
X32683122Y-124817004D01*
X32687243Y-124819999D01*
X33633984Y-124819999D01*
X33643616Y-124819051D01*
X33658455Y-124816100D01*
X33676126Y-124808781D01*
X33692986Y-124797515D01*
X33706515Y-124783986D01*
X33717781Y-124767124D01*
X33725100Y-124749456D01*
X33728052Y-124734613D01*
X33729000Y-124724991D01*
X33729000Y-122885680D01*
X33724878Y-122872995D01*
X33720757Y-122870000D01*
X32694680Y-122870000D01*
X32681995Y-122874122D01*
X32679000Y-122878243D01*
X32679000Y-124804319D01*
X32179000Y-124804319D01*
X32179000Y-122885680D01*
X32174878Y-122872995D01*
X32170757Y-122870000D01*
X31144681Y-122870000D01*
X31131996Y-122874122D01*
X31129001Y-122878243D01*
X31129001Y-124724984D01*
X30697218Y-124724984D01*
X30692043Y-122354320D01*
X31129000Y-122354320D01*
X31133122Y-122367005D01*
X31137243Y-122370000D01*
X32163320Y-122370000D01*
X32176005Y-122365878D01*
X32179000Y-122361757D01*
X32179000Y-122354320D01*
X32679000Y-122354320D01*
X32683122Y-122367005D01*
X32687243Y-122370000D01*
X33713319Y-122370000D01*
X33726004Y-122365878D01*
X33728999Y-122361757D01*
X33728999Y-120515016D01*
X33728051Y-120505384D01*
X33725100Y-120490545D01*
X33717781Y-120472874D01*
X33706515Y-120456014D01*
X33692986Y-120442485D01*
X33676124Y-120431219D01*
X33658456Y-120423900D01*
X33643613Y-120420948D01*
X33633991Y-120420000D01*
X32694680Y-120420000D01*
X32681995Y-120424122D01*
X32679000Y-120428243D01*
X32679000Y-122354320D01*
X32179000Y-122354320D01*
X32179000Y-120435681D01*
X32174878Y-120422996D01*
X32170757Y-120420001D01*
X31224016Y-120420001D01*
X31214384Y-120420949D01*
X31199545Y-120423900D01*
X31181874Y-120431219D01*
X31165014Y-120442485D01*
X31151485Y-120456014D01*
X31140219Y-120472876D01*
X31132900Y-120490544D01*
X31129948Y-120505387D01*
X31129000Y-120515009D01*
X31129000Y-122354320D01*
X30692043Y-122354320D01*
X30684939Y-119099216D01*
X30703720Y-119040984D01*
X30753141Y-119004912D01*
X30783939Y-119000000D01*
X31634320Y-119000000D01*
X31647005Y-118995878D01*
X31650000Y-118991757D01*
X31650000Y-118984320D01*
X32150000Y-118984320D01*
X32154122Y-118997005D01*
X32158243Y-119000000D01*
X33654984Y-118999999D01*
X33664616Y-118999051D01*
X33679455Y-118996100D01*
X33697126Y-118988781D01*
X33713986Y-118977515D01*
X33727515Y-118963986D01*
X33738781Y-118947124D01*
X33746100Y-118929456D01*
X33749052Y-118914613D01*
X33750000Y-118904991D01*
X33750000Y-118265680D01*
X33745878Y-118252995D01*
X33741757Y-118250000D01*
X32165680Y-118250000D01*
X32152995Y-118254122D01*
X32150000Y-118258243D01*
X32150000Y-118984320D01*
X31650000Y-118984320D01*
X31650000Y-117734320D01*
X32150000Y-117734320D01*
X32154122Y-117747005D01*
X32158243Y-117750000D01*
X33734319Y-117750000D01*
X33747004Y-117745878D01*
X33749999Y-117741757D01*
X33749999Y-117095016D01*
X33749051Y-117085384D01*
X33746100Y-117070545D01*
X33738781Y-117052874D01*
X33727515Y-117036014D01*
X33713986Y-117022485D01*
X33697124Y-117011219D01*
X33679456Y-117003900D01*
X33664613Y-117000948D01*
X33654991Y-117000000D01*
X32165680Y-117000001D01*
X32152995Y-117004123D01*
X32150000Y-117008244D01*
X32150000Y-117734320D01*
X31650000Y-117734320D01*
X31650000Y-117015681D01*
X31645878Y-117002996D01*
X31641757Y-117000001D01*
X30779141Y-117000001D01*
X30720950Y-116981094D01*
X30684986Y-116931594D01*
X30680142Y-116901223D01*
X30677823Y-115838928D01*
X30696604Y-115780697D01*
X30746025Y-115744625D01*
X30807210Y-115744492D01*
X30831825Y-115756398D01*
X30842874Y-115763781D01*
X30860544Y-115771100D01*
X30875387Y-115774052D01*
X30885009Y-115775000D01*
X31624320Y-115775000D01*
X31637005Y-115770878D01*
X31640000Y-115766757D01*
X31640000Y-115759319D01*
X32140000Y-115759319D01*
X32144122Y-115772004D01*
X32148243Y-115774999D01*
X32894984Y-115774999D01*
X32904616Y-115774051D01*
X32919455Y-115771100D01*
X32937126Y-115763781D01*
X32953986Y-115752515D01*
X32967515Y-115738986D01*
X32978781Y-115722124D01*
X32986100Y-115704456D01*
X32989052Y-115689613D01*
X32990000Y-115679991D01*
X32990000Y-115615680D01*
X32985878Y-115602995D01*
X32981757Y-115600000D01*
X32155680Y-115600000D01*
X32142995Y-115604122D01*
X32140000Y-115608243D01*
X32140000Y-115759319D01*
X31640000Y-115759319D01*
X31640000Y-115199000D01*
X31658907Y-115140809D01*
X31708407Y-115104845D01*
X31739000Y-115100000D01*
X32974319Y-115100000D01*
X32987004Y-115095878D01*
X32989999Y-115091757D01*
X32989999Y-115073785D01*
X33008906Y-115015594D01*
X33048814Y-114983308D01*
X33063156Y-114976938D01*
X33064569Y-114980120D01*
X33107412Y-114967424D01*
X33165090Y-114987841D01*
G37*
%TD.AperFunction*%
%TD*%
%TA.AperFunction,Conductor*%
%TO.N,GND*%
G36*
X32725191Y-72454907D02*
G01*
X32761155Y-72504407D01*
X32766000Y-72535000D01*
X32766000Y-76990000D01*
X32747093Y-77048191D01*
X32697593Y-77084155D01*
X32667000Y-77089000D01*
X26261000Y-77089000D01*
X26202809Y-77070093D01*
X26166845Y-77020593D01*
X26162000Y-76990000D01*
X26162000Y-76407484D01*
X26432001Y-76407484D01*
X26432949Y-76417116D01*
X26435900Y-76431955D01*
X26443219Y-76449626D01*
X26454485Y-76466486D01*
X26468014Y-76480015D01*
X26484876Y-76491281D01*
X26502544Y-76498600D01*
X26517387Y-76501552D01*
X26527009Y-76502500D01*
X27166320Y-76502500D01*
X27179005Y-76498378D01*
X27182000Y-76494257D01*
X27182000Y-76486819D01*
X27682000Y-76486819D01*
X27686122Y-76499504D01*
X27690243Y-76502499D01*
X28336984Y-76502499D01*
X28346616Y-76501551D01*
X28361455Y-76498600D01*
X28379126Y-76491281D01*
X28395986Y-76480015D01*
X28409515Y-76466486D01*
X28420781Y-76449624D01*
X28428100Y-76431956D01*
X28431052Y-76417113D01*
X28432000Y-76407491D01*
X28432000Y-75905057D01*
X30258001Y-75905057D01*
X30258528Y-75912255D01*
X30267006Y-75969859D01*
X30271515Y-75984371D01*
X30315873Y-76074716D01*
X30325271Y-76087843D01*
X30396152Y-76158601D01*
X30409294Y-76167974D01*
X30499722Y-76212176D01*
X30514231Y-76216661D01*
X30571278Y-76224983D01*
X30578405Y-76225500D01*
X30992320Y-76225500D01*
X31005005Y-76221378D01*
X31008000Y-76217257D01*
X31008000Y-76209819D01*
X31508000Y-76209819D01*
X31512122Y-76222504D01*
X31516243Y-76225499D01*
X31937557Y-76225499D01*
X31944755Y-76224972D01*
X32002359Y-76216494D01*
X32016871Y-76211985D01*
X32107216Y-76167627D01*
X32120343Y-76158229D01*
X32191101Y-76087348D01*
X32200474Y-76074206D01*
X32244676Y-75983778D01*
X32249161Y-75969269D01*
X32257483Y-75912222D01*
X32258000Y-75905095D01*
X32258000Y-75728680D01*
X32253878Y-75715995D01*
X32249757Y-75713000D01*
X31523680Y-75713000D01*
X31510995Y-75717122D01*
X31508000Y-75721243D01*
X31508000Y-76209819D01*
X31008000Y-76209819D01*
X31008000Y-75728680D01*
X31003878Y-75715995D01*
X30999757Y-75713000D01*
X30273681Y-75713000D01*
X30260996Y-75717122D01*
X30258001Y-75721243D01*
X30258001Y-75905057D01*
X28432000Y-75905057D01*
X28432000Y-75197320D01*
X30258000Y-75197320D01*
X30262122Y-75210005D01*
X30266243Y-75213000D01*
X30992320Y-75213000D01*
X31005005Y-75208878D01*
X31008000Y-75204757D01*
X31008000Y-75197320D01*
X31508000Y-75197320D01*
X31512122Y-75210005D01*
X31516243Y-75213000D01*
X32242319Y-75213000D01*
X32255004Y-75208878D01*
X32257999Y-75204757D01*
X32257999Y-75020943D01*
X32257472Y-75013745D01*
X32248994Y-74956141D01*
X32244485Y-74941629D01*
X32200127Y-74851284D01*
X32190729Y-74838157D01*
X32119848Y-74767399D01*
X32106706Y-74758026D01*
X32016278Y-74713824D01*
X32001769Y-74709339D01*
X31944722Y-74701017D01*
X31937595Y-74700500D01*
X31523680Y-74700500D01*
X31510995Y-74704622D01*
X31508000Y-74708743D01*
X31508000Y-75197320D01*
X31008000Y-75197320D01*
X31008000Y-74716181D01*
X31003878Y-74703496D01*
X30999757Y-74700501D01*
X30578443Y-74700501D01*
X30571245Y-74701028D01*
X30513641Y-74709506D01*
X30499129Y-74714015D01*
X30408784Y-74758373D01*
X30395657Y-74767771D01*
X30324899Y-74838652D01*
X30315526Y-74851794D01*
X30271324Y-74942222D01*
X30266839Y-74956731D01*
X30258517Y-75013778D01*
X30258000Y-75020905D01*
X30258000Y-75197320D01*
X28432000Y-75197320D01*
X28432000Y-74918180D01*
X28427878Y-74905495D01*
X28423757Y-74902500D01*
X27697680Y-74902500D01*
X27684995Y-74906622D01*
X27682000Y-74910743D01*
X27682000Y-76486819D01*
X27182000Y-76486819D01*
X27182000Y-74918180D01*
X27177878Y-74905495D01*
X27173757Y-74902500D01*
X26447681Y-74902500D01*
X26434996Y-74906622D01*
X26432001Y-74910743D01*
X26432001Y-76407484D01*
X26162000Y-76407484D01*
X26162000Y-75819000D01*
X25411000Y-75819000D01*
X25352809Y-75800093D01*
X25316845Y-75750593D01*
X25312000Y-75720000D01*
X25312000Y-75322680D01*
X25307878Y-75309995D01*
X25303757Y-75307000D01*
X24398500Y-75307000D01*
X24340309Y-75288093D01*
X24304345Y-75238593D01*
X24299500Y-75208000D01*
X24299500Y-74791320D01*
X24799500Y-74791320D01*
X24803622Y-74804005D01*
X24807743Y-74807000D01*
X25296319Y-74807000D01*
X25309004Y-74802878D01*
X25311999Y-74798757D01*
X25311999Y-74386820D01*
X26432000Y-74386820D01*
X26436122Y-74399505D01*
X26440243Y-74402500D01*
X27166320Y-74402500D01*
X27179005Y-74398378D01*
X27182000Y-74394257D01*
X27182000Y-74386820D01*
X27682000Y-74386820D01*
X27686122Y-74399505D01*
X27690243Y-74402500D01*
X28416319Y-74402500D01*
X28429004Y-74398378D01*
X28431999Y-74394257D01*
X28431999Y-72897516D01*
X28431051Y-72887884D01*
X28428100Y-72873045D01*
X28420781Y-72855374D01*
X28409515Y-72838514D01*
X28395986Y-72824985D01*
X28379124Y-72813719D01*
X28361456Y-72806400D01*
X28346613Y-72803448D01*
X28336991Y-72802500D01*
X27697680Y-72802500D01*
X27684995Y-72806622D01*
X27682000Y-72810743D01*
X27682000Y-74386820D01*
X27182000Y-74386820D01*
X27182000Y-72818181D01*
X27177878Y-72805496D01*
X27173757Y-72802501D01*
X26527016Y-72802501D01*
X26517384Y-72803449D01*
X26502545Y-72806400D01*
X26484874Y-72813719D01*
X26468014Y-72824985D01*
X26454485Y-72838514D01*
X26443219Y-72855376D01*
X26435900Y-72873044D01*
X26432948Y-72887887D01*
X26432000Y-72897509D01*
X26432000Y-74386820D01*
X25311999Y-74386820D01*
X25311999Y-74377443D01*
X25311472Y-74370245D01*
X25302994Y-74312641D01*
X25298485Y-74298129D01*
X25254127Y-74207784D01*
X25244729Y-74194657D01*
X25173848Y-74123899D01*
X25160706Y-74114526D01*
X25070278Y-74070324D01*
X25055769Y-74065839D01*
X24998722Y-74057517D01*
X24991595Y-74057000D01*
X24815180Y-74057000D01*
X24802495Y-74061122D01*
X24799500Y-74065243D01*
X24799500Y-74791320D01*
X24299500Y-74791320D01*
X24299500Y-74072681D01*
X24295378Y-74059996D01*
X24291257Y-74057001D01*
X24103824Y-74057001D01*
X24103824Y-74055549D01*
X24049788Y-74042246D01*
X24010320Y-73995493D01*
X24003000Y-73958134D01*
X24003000Y-72535000D01*
X24021907Y-72476809D01*
X24071407Y-72440845D01*
X24102000Y-72436000D01*
X32667000Y-72436000D01*
X32725191Y-72454907D01*
G37*
%TD.AperFunction*%
%TD*%
%TA.AperFunction,Conductor*%
%TO.N,+3V3*%
G36*
X29759191Y-119918907D02*
G01*
X29795155Y-119968407D01*
X29800000Y-119999000D01*
X29800000Y-125767415D01*
X29781093Y-125825606D01*
X29731593Y-125861570D01*
X29701417Y-125866414D01*
X21745571Y-125899809D01*
X21687302Y-125881146D01*
X21670219Y-125865505D01*
X20947063Y-125027872D01*
X20923348Y-124971470D01*
X20923000Y-124963177D01*
X20923000Y-124724984D01*
X26629001Y-124724984D01*
X26629949Y-124734616D01*
X26632900Y-124749455D01*
X26640219Y-124767126D01*
X26651485Y-124783986D01*
X26665014Y-124797515D01*
X26681876Y-124808781D01*
X26699544Y-124816100D01*
X26714387Y-124819052D01*
X26724009Y-124820000D01*
X27663320Y-124820000D01*
X27676005Y-124815878D01*
X27679000Y-124811757D01*
X27679000Y-124804319D01*
X28179000Y-124804319D01*
X28183122Y-124817004D01*
X28187243Y-124819999D01*
X29133984Y-124819999D01*
X29143616Y-124819051D01*
X29158455Y-124816100D01*
X29176126Y-124808781D01*
X29192986Y-124797515D01*
X29206515Y-124783986D01*
X29217781Y-124767124D01*
X29225100Y-124749456D01*
X29228052Y-124734613D01*
X29229000Y-124724991D01*
X29229000Y-122885680D01*
X29224878Y-122872995D01*
X29220757Y-122870000D01*
X28194680Y-122870000D01*
X28181995Y-122874122D01*
X28179000Y-122878243D01*
X28179000Y-124804319D01*
X27679000Y-124804319D01*
X27679000Y-122885680D01*
X27674878Y-122872995D01*
X27670757Y-122870000D01*
X26644681Y-122870000D01*
X26631996Y-122874122D01*
X26629001Y-122878243D01*
X26629001Y-124724984D01*
X20923000Y-124724984D01*
X20923000Y-122354320D01*
X26629000Y-122354320D01*
X26633122Y-122367005D01*
X26637243Y-122370000D01*
X27663320Y-122370000D01*
X27676005Y-122365878D01*
X27679000Y-122361757D01*
X27679000Y-122354320D01*
X28179000Y-122354320D01*
X28183122Y-122367005D01*
X28187243Y-122370000D01*
X29213319Y-122370000D01*
X29226004Y-122365878D01*
X29228999Y-122361757D01*
X29228999Y-120515016D01*
X29228051Y-120505384D01*
X29225100Y-120490545D01*
X29217781Y-120472874D01*
X29206515Y-120456014D01*
X29192986Y-120442485D01*
X29176124Y-120431219D01*
X29158456Y-120423900D01*
X29143613Y-120420948D01*
X29133991Y-120420000D01*
X28194680Y-120420000D01*
X28181995Y-120424122D01*
X28179000Y-120428243D01*
X28179000Y-122354320D01*
X27679000Y-122354320D01*
X27679000Y-120435681D01*
X27674878Y-120422996D01*
X27670757Y-120420001D01*
X26724016Y-120420001D01*
X26714384Y-120420949D01*
X26699545Y-120423900D01*
X26681874Y-120431219D01*
X26665014Y-120442485D01*
X26651485Y-120456014D01*
X26640219Y-120472876D01*
X26632900Y-120490544D01*
X26629948Y-120505387D01*
X26629000Y-120515009D01*
X26629000Y-122354320D01*
X20923000Y-122354320D01*
X20923000Y-121704557D01*
X22500001Y-121704557D01*
X22500528Y-121711755D01*
X22509006Y-121769359D01*
X22513515Y-121783871D01*
X22557873Y-121874216D01*
X22567271Y-121887343D01*
X22638152Y-121958101D01*
X22651294Y-121967474D01*
X22741722Y-122011676D01*
X22756231Y-122016161D01*
X22813278Y-122024483D01*
X22820405Y-122025000D01*
X23234320Y-122025000D01*
X23247005Y-122020878D01*
X23250000Y-122016757D01*
X23250000Y-122009319D01*
X23750000Y-122009319D01*
X23754122Y-122022004D01*
X23758243Y-122024999D01*
X24179557Y-122024999D01*
X24186755Y-122024472D01*
X24244359Y-122015994D01*
X24258871Y-122011485D01*
X24349216Y-121967127D01*
X24362343Y-121957729D01*
X24433101Y-121886848D01*
X24442474Y-121873706D01*
X24486676Y-121783278D01*
X24491161Y-121768769D01*
X24499483Y-121711722D01*
X24500000Y-121704595D01*
X24500000Y-121528180D01*
X24495878Y-121515495D01*
X24491757Y-121512500D01*
X23765680Y-121512500D01*
X23752995Y-121516622D01*
X23750000Y-121520743D01*
X23750000Y-122009319D01*
X23250000Y-122009319D01*
X23250000Y-121528180D01*
X23245878Y-121515495D01*
X23241757Y-121512500D01*
X22515681Y-121512500D01*
X22502996Y-121516622D01*
X22500001Y-121520743D01*
X22500001Y-121704557D01*
X20923000Y-121704557D01*
X20923000Y-120996820D01*
X22500000Y-120996820D01*
X22504122Y-121009505D01*
X22508243Y-121012500D01*
X23234320Y-121012500D01*
X23247005Y-121008378D01*
X23250000Y-121004257D01*
X23250000Y-120996820D01*
X23750000Y-120996820D01*
X23754122Y-121009505D01*
X23758243Y-121012500D01*
X24484319Y-121012500D01*
X24497004Y-121008378D01*
X24499999Y-121004257D01*
X24499999Y-120820443D01*
X24499472Y-120813245D01*
X24490994Y-120755641D01*
X24486485Y-120741129D01*
X24442127Y-120650784D01*
X24432729Y-120637657D01*
X24361848Y-120566899D01*
X24348706Y-120557526D01*
X24258278Y-120513324D01*
X24243769Y-120508839D01*
X24186722Y-120500517D01*
X24179595Y-120500000D01*
X23765680Y-120500000D01*
X23752995Y-120504122D01*
X23750000Y-120508243D01*
X23750000Y-120996820D01*
X23250000Y-120996820D01*
X23250000Y-120515681D01*
X23245878Y-120502996D01*
X23241757Y-120500001D01*
X22820443Y-120500001D01*
X22813245Y-120500528D01*
X22755641Y-120509006D01*
X22741129Y-120513515D01*
X22650784Y-120557873D01*
X22637657Y-120567271D01*
X22566899Y-120638152D01*
X22557526Y-120651294D01*
X22513324Y-120741722D01*
X22508839Y-120756231D01*
X22500517Y-120813278D01*
X22500000Y-120820405D01*
X22500000Y-120996820D01*
X20923000Y-120996820D01*
X20923000Y-119999000D01*
X20941907Y-119940809D01*
X20991407Y-119904845D01*
X21022000Y-119900000D01*
X29701000Y-119900000D01*
X29759191Y-119918907D01*
G37*
%TD.AperFunction*%
%TD*%
%TA.AperFunction,Conductor*%
%TO.N,GND*%
G36*
X28308191Y-87203907D02*
G01*
X28344155Y-87253407D01*
X28349000Y-87284000D01*
X28349000Y-88519319D01*
X28353122Y-88532004D01*
X28357370Y-88535091D01*
X28364486Y-88536218D01*
X28419003Y-88563994D01*
X28446781Y-88618511D01*
X28448000Y-88633999D01*
X28448000Y-88773000D01*
X29746000Y-88773000D01*
X29804191Y-88791907D01*
X29840155Y-88841407D01*
X29845000Y-88872000D01*
X29845000Y-90833000D01*
X29826093Y-90891191D01*
X29776593Y-90927155D01*
X29746000Y-90932000D01*
X26515000Y-90932000D01*
X26456809Y-90913093D01*
X26420845Y-90863593D01*
X26416000Y-90833000D01*
X26416000Y-88872000D01*
X26434907Y-88813809D01*
X26484407Y-88777845D01*
X26515000Y-88773000D01*
X27813000Y-88773000D01*
X27813000Y-88608474D01*
X27831907Y-88550283D01*
X27849000Y-88526757D01*
X27849000Y-87284000D01*
X27867907Y-87225809D01*
X27917407Y-87189845D01*
X27948000Y-87185000D01*
X28250000Y-87185000D01*
X28308191Y-87203907D01*
G37*
%TD.AperFunction*%
%TD*%
%TA.AperFunction,Conductor*%
%TO.N,VCC*%
G36*
X29904370Y-107825996D02*
G01*
X29940373Y-107875467D01*
X29945243Y-107906123D01*
X29945373Y-109245878D01*
X29945514Y-110700990D01*
X29926612Y-110759183D01*
X29877116Y-110795152D01*
X29846514Y-110800000D01*
X29765680Y-110800000D01*
X29752995Y-110804122D01*
X29750000Y-110808243D01*
X29750000Y-112384319D01*
X29754122Y-112397004D01*
X29758243Y-112399999D01*
X29846689Y-112399999D01*
X29904880Y-112418906D01*
X29940844Y-112468406D01*
X29945689Y-112498989D01*
X29945990Y-115601005D01*
X29927088Y-115659198D01*
X29877592Y-115695167D01*
X29846989Y-115700015D01*
X28473091Y-115700008D01*
X27098998Y-115700001D01*
X27040809Y-115681093D01*
X27004845Y-115631593D01*
X27000000Y-115601001D01*
X27000000Y-115079557D01*
X27900001Y-115079557D01*
X27900528Y-115086755D01*
X27909006Y-115144359D01*
X27913515Y-115158871D01*
X27957873Y-115249216D01*
X27967271Y-115262343D01*
X28038152Y-115333101D01*
X28051294Y-115342474D01*
X28141722Y-115386676D01*
X28156231Y-115391161D01*
X28213278Y-115399483D01*
X28220405Y-115400000D01*
X28396820Y-115400000D01*
X28409505Y-115395878D01*
X28412500Y-115391757D01*
X28412500Y-115384319D01*
X28912500Y-115384319D01*
X28916622Y-115397004D01*
X28920743Y-115399999D01*
X29104557Y-115399999D01*
X29111755Y-115399472D01*
X29169359Y-115390994D01*
X29183871Y-115386485D01*
X29274216Y-115342127D01*
X29287343Y-115332729D01*
X29358101Y-115261848D01*
X29367474Y-115248706D01*
X29411676Y-115158278D01*
X29416161Y-115143769D01*
X29424483Y-115086722D01*
X29425000Y-115079595D01*
X29425000Y-114665680D01*
X29420878Y-114652995D01*
X29416757Y-114650000D01*
X28928180Y-114650000D01*
X28915495Y-114654122D01*
X28912500Y-114658243D01*
X28912500Y-115384319D01*
X28412500Y-115384319D01*
X28412500Y-114665680D01*
X28408378Y-114652995D01*
X28404257Y-114650000D01*
X27915681Y-114650000D01*
X27902996Y-114654122D01*
X27900001Y-114658243D01*
X27900001Y-115079557D01*
X27000000Y-115079557D01*
X27000000Y-114134320D01*
X27900000Y-114134320D01*
X27904122Y-114147005D01*
X27908243Y-114150000D01*
X28396820Y-114150000D01*
X28409505Y-114145878D01*
X28412500Y-114141757D01*
X28412500Y-114134320D01*
X28912500Y-114134320D01*
X28916622Y-114147005D01*
X28920743Y-114150000D01*
X29409319Y-114150000D01*
X29422004Y-114145878D01*
X29424999Y-114141757D01*
X29424999Y-113720443D01*
X29424472Y-113713245D01*
X29415994Y-113655641D01*
X29411485Y-113641129D01*
X29367127Y-113550784D01*
X29357729Y-113537657D01*
X29286848Y-113466899D01*
X29273706Y-113457526D01*
X29183278Y-113413324D01*
X29168769Y-113408839D01*
X29111722Y-113400517D01*
X29104595Y-113400000D01*
X28928180Y-113400000D01*
X28915495Y-113404122D01*
X28912500Y-113408243D01*
X28912500Y-114134320D01*
X28412500Y-114134320D01*
X28412500Y-113415681D01*
X28408378Y-113402996D01*
X28404257Y-113400001D01*
X28220443Y-113400001D01*
X28213245Y-113400528D01*
X28155641Y-113409006D01*
X28141129Y-113413515D01*
X28050784Y-113457873D01*
X28037657Y-113467271D01*
X27966899Y-113538152D01*
X27957526Y-113551294D01*
X27913324Y-113641722D01*
X27908839Y-113656231D01*
X27900517Y-113713278D01*
X27900000Y-113720405D01*
X27900000Y-114134320D01*
X27000000Y-114134320D01*
X27000000Y-112900000D01*
X26202119Y-112079557D01*
X28800001Y-112079557D01*
X28800528Y-112086755D01*
X28809006Y-112144359D01*
X28813515Y-112158871D01*
X28857873Y-112249216D01*
X28867271Y-112262343D01*
X28938152Y-112333101D01*
X28951294Y-112342474D01*
X29041722Y-112386676D01*
X29056231Y-112391161D01*
X29113278Y-112399483D01*
X29120405Y-112400000D01*
X29234320Y-112400000D01*
X29247005Y-112395878D01*
X29250000Y-112391757D01*
X29250000Y-111865680D01*
X29245878Y-111852995D01*
X29241757Y-111850000D01*
X28815681Y-111850000D01*
X28802996Y-111854122D01*
X28800001Y-111858243D01*
X28800001Y-112079557D01*
X26202119Y-112079557D01*
X25492625Y-111350000D01*
X25477376Y-111334320D01*
X28800000Y-111334320D01*
X28804122Y-111347005D01*
X28808243Y-111350000D01*
X29234320Y-111350000D01*
X29247005Y-111345878D01*
X29250000Y-111341757D01*
X29250000Y-110815681D01*
X29245878Y-110802996D01*
X29241757Y-110800001D01*
X29120443Y-110800001D01*
X29113245Y-110800528D01*
X29055641Y-110809006D01*
X29041129Y-110813515D01*
X28950784Y-110857873D01*
X28937657Y-110867271D01*
X28866899Y-110938152D01*
X28857526Y-110951294D01*
X28813324Y-111041722D01*
X28808839Y-111056231D01*
X28800517Y-111113278D01*
X28800000Y-111120405D01*
X28800000Y-111334320D01*
X25477376Y-111334320D01*
X25472018Y-111328810D01*
X25445003Y-111273911D01*
X25443991Y-111259811D01*
X25443961Y-111120405D01*
X25443732Y-110079557D01*
X25950001Y-110079557D01*
X25950528Y-110086754D01*
X25959006Y-110144355D01*
X25963517Y-110158873D01*
X26007873Y-110249216D01*
X26017270Y-110262342D01*
X26088152Y-110333101D01*
X26101294Y-110342474D01*
X26191722Y-110386676D01*
X26206231Y-110391161D01*
X26263278Y-110399483D01*
X26270405Y-110400000D01*
X27534320Y-110400000D01*
X27547005Y-110395878D01*
X27550000Y-110391757D01*
X27550000Y-110384319D01*
X28050000Y-110384319D01*
X28054122Y-110397004D01*
X28058243Y-110399999D01*
X29329557Y-110399999D01*
X29336754Y-110399472D01*
X29394355Y-110390994D01*
X29408873Y-110386483D01*
X29499216Y-110342127D01*
X29512342Y-110332730D01*
X29583101Y-110261848D01*
X29592474Y-110248706D01*
X29636676Y-110158278D01*
X29641161Y-110143769D01*
X29649483Y-110086722D01*
X29650000Y-110079595D01*
X29650000Y-109765680D01*
X29645878Y-109752995D01*
X29641757Y-109750000D01*
X28065680Y-109750000D01*
X28052995Y-109754122D01*
X28050000Y-109758243D01*
X28050000Y-110384319D01*
X27550000Y-110384319D01*
X27550000Y-109765680D01*
X27545878Y-109752995D01*
X27541757Y-109750000D01*
X25965681Y-109750000D01*
X25952996Y-109754122D01*
X25950001Y-109758243D01*
X25950001Y-110079557D01*
X25443732Y-110079557D01*
X25443549Y-109247005D01*
X25443546Y-109234320D01*
X25950000Y-109234320D01*
X25954122Y-109247005D01*
X25958243Y-109250000D01*
X27534320Y-109250000D01*
X27547005Y-109245878D01*
X27550000Y-109241757D01*
X27550000Y-109234320D01*
X28050000Y-109234320D01*
X28054122Y-109247005D01*
X28058243Y-109250000D01*
X29634319Y-109250000D01*
X29647004Y-109245878D01*
X29649999Y-109241757D01*
X29649999Y-108920443D01*
X29649472Y-108913246D01*
X29640994Y-108855645D01*
X29636483Y-108841127D01*
X29592127Y-108750784D01*
X29582730Y-108737658D01*
X29511848Y-108666899D01*
X29498706Y-108657526D01*
X29408278Y-108613324D01*
X29393769Y-108608839D01*
X29336722Y-108600517D01*
X29329595Y-108600000D01*
X28065680Y-108600000D01*
X28052995Y-108604122D01*
X28050000Y-108608243D01*
X28050000Y-109234320D01*
X27550000Y-109234320D01*
X27550000Y-108615681D01*
X27545878Y-108602996D01*
X27541757Y-108600001D01*
X26270443Y-108600001D01*
X26263246Y-108600528D01*
X26205645Y-108609006D01*
X26191127Y-108613517D01*
X26100784Y-108657873D01*
X26087658Y-108667270D01*
X26016899Y-108738152D01*
X26007526Y-108751294D01*
X25963324Y-108841722D01*
X25958839Y-108856231D01*
X25950517Y-108913278D01*
X25950000Y-108920405D01*
X25950000Y-109234320D01*
X25443546Y-109234320D01*
X25443255Y-107909583D01*
X25462150Y-107851388D01*
X25511642Y-107815413D01*
X25542175Y-107810561D01*
X28286376Y-107808377D01*
X29846164Y-107807135D01*
X29904370Y-107825996D01*
G37*
%TD.AperFunction*%
%TD*%
%TA.AperFunction,Conductor*%
%TO.N,+5V*%
G36*
X20853832Y-73932907D02*
G01*
X20889796Y-73982407D01*
X20889796Y-74043593D01*
X20853832Y-74093093D01*
X20839273Y-74101866D01*
X20812788Y-74114870D01*
X20799657Y-74124271D01*
X20728899Y-74195152D01*
X20719526Y-74208294D01*
X20675324Y-74298722D01*
X20670839Y-74313231D01*
X20662517Y-74370278D01*
X20662000Y-74377405D01*
X20662000Y-74791320D01*
X20666122Y-74804005D01*
X20670243Y-74807000D01*
X22171319Y-74807000D01*
X22184004Y-74802878D01*
X22186999Y-74798757D01*
X22186999Y-74377443D01*
X22186472Y-74370245D01*
X22177994Y-74312641D01*
X22173485Y-74298129D01*
X22129127Y-74207784D01*
X22119729Y-74194657D01*
X22048848Y-74123899D01*
X22035707Y-74114526D01*
X22009964Y-74101943D01*
X21965988Y-74059402D01*
X21955415Y-73999137D01*
X21982285Y-73944167D01*
X22036333Y-73915489D01*
X22053440Y-73914000D01*
X23523000Y-73914000D01*
X23581191Y-73932907D01*
X23617155Y-73982407D01*
X23622000Y-74013000D01*
X23622000Y-74193343D01*
X23615048Y-74229787D01*
X23597364Y-74274452D01*
X23586500Y-74364227D01*
X23586501Y-75749772D01*
X23597364Y-75839548D01*
X23599705Y-75845460D01*
X23615048Y-75884213D01*
X23622000Y-75920657D01*
X23622000Y-76200000D01*
X23867777Y-76200000D01*
X23904221Y-76206952D01*
X24004452Y-76246636D01*
X24094227Y-76257500D01*
X24549423Y-76257500D01*
X25004772Y-76257499D01*
X25007737Y-76257140D01*
X25007741Y-76257140D01*
X25088235Y-76247400D01*
X25088236Y-76247400D01*
X25094548Y-76246636D01*
X25194779Y-76206952D01*
X25231223Y-76200000D01*
X25301000Y-76200000D01*
X25359191Y-76218907D01*
X25395155Y-76268407D01*
X25400000Y-76299000D01*
X25400000Y-79911000D01*
X25381093Y-79969191D01*
X25331593Y-80005155D01*
X25301000Y-80010000D01*
X20084000Y-80010000D01*
X20025809Y-79991093D01*
X19989845Y-79941593D01*
X19985000Y-79911000D01*
X19985000Y-79127984D01*
X20533001Y-79127984D01*
X20533949Y-79137616D01*
X20536900Y-79152455D01*
X20544219Y-79170126D01*
X20555485Y-79186986D01*
X20569014Y-79200515D01*
X20585876Y-79211781D01*
X20603544Y-79219100D01*
X20618387Y-79222052D01*
X20628009Y-79223000D01*
X22467320Y-79223000D01*
X22480005Y-79218878D01*
X22483000Y-79214757D01*
X22483000Y-79207319D01*
X22983000Y-79207319D01*
X22987122Y-79220004D01*
X22991243Y-79222999D01*
X24837984Y-79222999D01*
X24847616Y-79222051D01*
X24862455Y-79219100D01*
X24880126Y-79211781D01*
X24896986Y-79200515D01*
X24910515Y-79186986D01*
X24921781Y-79170124D01*
X24929100Y-79152456D01*
X24932052Y-79137613D01*
X24933000Y-79127991D01*
X24933000Y-78188680D01*
X24928878Y-78175995D01*
X24924757Y-78173000D01*
X22998680Y-78173000D01*
X22985995Y-78177122D01*
X22983000Y-78181243D01*
X22983000Y-79207319D01*
X22483000Y-79207319D01*
X22483000Y-78188680D01*
X22478878Y-78175995D01*
X22474757Y-78173000D01*
X20548681Y-78173000D01*
X20535996Y-78177122D01*
X20533001Y-78181243D01*
X20533001Y-79127984D01*
X19985000Y-79127984D01*
X19985000Y-77657320D01*
X20533000Y-77657320D01*
X20537122Y-77670005D01*
X20541243Y-77673000D01*
X22467320Y-77673000D01*
X22480005Y-77668878D01*
X22483000Y-77664757D01*
X22483000Y-77657320D01*
X22983000Y-77657320D01*
X22987122Y-77670005D01*
X22991243Y-77673000D01*
X24917319Y-77673000D01*
X24930004Y-77668878D01*
X24932999Y-77664757D01*
X24932999Y-76718016D01*
X24932051Y-76708384D01*
X24929100Y-76693545D01*
X24921781Y-76675874D01*
X24910515Y-76659014D01*
X24896986Y-76645485D01*
X24880124Y-76634219D01*
X24862456Y-76626900D01*
X24847613Y-76623948D01*
X24837991Y-76623000D01*
X22998680Y-76623000D01*
X22985995Y-76627122D01*
X22983000Y-76631243D01*
X22983000Y-77657320D01*
X22483000Y-77657320D01*
X22483000Y-76638681D01*
X22478878Y-76625996D01*
X22474757Y-76623001D01*
X20628016Y-76623001D01*
X20618384Y-76623949D01*
X20603545Y-76626900D01*
X20585874Y-76634219D01*
X20569014Y-76645485D01*
X20555485Y-76659014D01*
X20544219Y-76675876D01*
X20536900Y-76693544D01*
X20533948Y-76708387D01*
X20533000Y-76718009D01*
X20533000Y-77657320D01*
X19985000Y-77657320D01*
X19985000Y-75980908D01*
X19986504Y-75963717D01*
X19988124Y-75954530D01*
X19989628Y-75946000D01*
X19988124Y-75937471D01*
X19988124Y-75937468D01*
X19987938Y-75936413D01*
X19986554Y-75914369D01*
X19992853Y-75786143D01*
X20011701Y-75736557D01*
X20662001Y-75736557D01*
X20662528Y-75743755D01*
X20671006Y-75801359D01*
X20675515Y-75815871D01*
X20719873Y-75906216D01*
X20729271Y-75919343D01*
X20800152Y-75990101D01*
X20813294Y-75999474D01*
X20903722Y-76043676D01*
X20918231Y-76048161D01*
X20975278Y-76056483D01*
X20982405Y-76057000D01*
X21158820Y-76057000D01*
X21171505Y-76052878D01*
X21174500Y-76048757D01*
X21174500Y-76041319D01*
X21674500Y-76041319D01*
X21678622Y-76054004D01*
X21682743Y-76056999D01*
X21866557Y-76056999D01*
X21873755Y-76056472D01*
X21931359Y-76047994D01*
X21945871Y-76043485D01*
X22036216Y-75999127D01*
X22049343Y-75989729D01*
X22120101Y-75918848D01*
X22129474Y-75905706D01*
X22173676Y-75815278D01*
X22178161Y-75800769D01*
X22186483Y-75743722D01*
X22187000Y-75736595D01*
X22187000Y-75322680D01*
X22182878Y-75309995D01*
X22178757Y-75307000D01*
X21690180Y-75307000D01*
X21677495Y-75311122D01*
X21674500Y-75315243D01*
X21674500Y-76041319D01*
X21174500Y-76041319D01*
X21174500Y-75322680D01*
X21170378Y-75309995D01*
X21166257Y-75307000D01*
X20677681Y-75307000D01*
X20664996Y-75311122D01*
X20662001Y-75315243D01*
X20662001Y-75736557D01*
X20011701Y-75736557D01*
X20014593Y-75728950D01*
X20065798Y-75695458D01*
X20091734Y-75692000D01*
X20447000Y-75692000D01*
X20447000Y-74239471D01*
X20461085Y-74188575D01*
X20574043Y-74000116D01*
X20579436Y-73992045D01*
X20607634Y-73954025D01*
X20657484Y-73918549D01*
X20687150Y-73914000D01*
X20795641Y-73914000D01*
X20853832Y-73932907D01*
G37*
%TD.AperFunction*%
%TD*%
%TA.AperFunction,Conductor*%
%TO.N,/OUT5.0*%
G36*
X27645191Y-77590507D02*
G01*
X27681155Y-77640007D01*
X27686000Y-77670600D01*
X27686000Y-77777243D01*
X27684781Y-77792729D01*
X27682000Y-77810289D01*
X27682000Y-79803500D01*
X27663093Y-79861691D01*
X27633764Y-79883000D01*
X27381200Y-79883000D01*
X27381200Y-79902500D01*
X26447681Y-79902500D01*
X26434996Y-79906622D01*
X26432001Y-79910743D01*
X26432001Y-81407484D01*
X26432949Y-81417116D01*
X26435900Y-81431955D01*
X26443219Y-81449626D01*
X26454485Y-81466486D01*
X26468014Y-81480015D01*
X26484876Y-81491281D01*
X26502544Y-81498600D01*
X26517387Y-81501552D01*
X26527009Y-81502500D01*
X27282200Y-81502500D01*
X27340391Y-81521407D01*
X27376355Y-81570907D01*
X27381200Y-81601500D01*
X27381200Y-84220784D01*
X27380093Y-84224191D01*
X27330593Y-84260155D01*
X27300000Y-84265000D01*
X26739681Y-84265000D01*
X26726994Y-84269122D01*
X26713866Y-84287191D01*
X26664366Y-84323155D01*
X26633774Y-84328000D01*
X26416000Y-84328000D01*
X26416000Y-85406564D01*
X26409237Y-85442526D01*
X26367524Y-85549513D01*
X26345394Y-85717611D01*
X26346049Y-85723544D01*
X26346049Y-85723548D01*
X26358075Y-85832474D01*
X26363999Y-85886135D01*
X26377189Y-85922177D01*
X26379432Y-85983321D01*
X26345307Y-86034106D01*
X26284219Y-86055200D01*
X25762143Y-86055200D01*
X25703952Y-86036293D01*
X25667988Y-85986793D01*
X25667988Y-85925607D01*
X25703952Y-85876107D01*
X25718511Y-85867333D01*
X25790216Y-85832127D01*
X25803343Y-85822729D01*
X25874101Y-85751848D01*
X25883474Y-85738706D01*
X25927676Y-85648278D01*
X25932161Y-85633769D01*
X25940483Y-85576722D01*
X25941000Y-85569595D01*
X25941000Y-85355680D01*
X25936878Y-85342995D01*
X25932757Y-85340000D01*
X24556681Y-85340000D01*
X24543996Y-85344122D01*
X24541001Y-85348243D01*
X24541001Y-85569557D01*
X24541528Y-85576755D01*
X24550006Y-85634359D01*
X24554515Y-85648871D01*
X24598873Y-85739216D01*
X24608271Y-85752343D01*
X24679152Y-85823101D01*
X24692294Y-85832474D01*
X24763452Y-85867257D01*
X24807428Y-85909798D01*
X24818001Y-85970063D01*
X24791131Y-86025033D01*
X24737082Y-86053711D01*
X24719976Y-86055200D01*
X24406800Y-86055200D01*
X24348609Y-86036293D01*
X24312645Y-85986793D01*
X24307800Y-85956200D01*
X24307800Y-84824320D01*
X24541000Y-84824320D01*
X24545122Y-84837005D01*
X24549243Y-84840000D01*
X24975320Y-84840000D01*
X24988005Y-84835878D01*
X24991000Y-84831757D01*
X24991000Y-84824320D01*
X25491000Y-84824320D01*
X25495122Y-84837005D01*
X25499243Y-84840000D01*
X25925319Y-84840000D01*
X25938004Y-84835878D01*
X25940999Y-84831757D01*
X25940999Y-84610443D01*
X25940472Y-84603245D01*
X25931994Y-84545641D01*
X25927485Y-84531129D01*
X25883127Y-84440784D01*
X25873729Y-84427657D01*
X25802848Y-84356899D01*
X25789706Y-84347526D01*
X25699278Y-84303324D01*
X25684769Y-84298839D01*
X25627722Y-84290517D01*
X25620595Y-84290000D01*
X25506680Y-84290000D01*
X25493995Y-84294122D01*
X25491000Y-84298243D01*
X25491000Y-84824320D01*
X24991000Y-84824320D01*
X24991000Y-84305681D01*
X24986878Y-84292996D01*
X24982757Y-84290001D01*
X24861443Y-84290001D01*
X24854245Y-84290528D01*
X24796641Y-84299006D01*
X24782129Y-84303515D01*
X24691784Y-84347873D01*
X24678657Y-84357271D01*
X24607899Y-84428152D01*
X24598526Y-84441294D01*
X24554324Y-84531722D01*
X24549839Y-84546231D01*
X24541517Y-84603278D01*
X24541000Y-84610405D01*
X24541000Y-84824320D01*
X24307800Y-84824320D01*
X24307800Y-83947000D01*
X20084000Y-83947000D01*
X20025809Y-83928093D01*
X19989845Y-83878593D01*
X19985000Y-83848000D01*
X19985000Y-83627984D01*
X20533001Y-83627984D01*
X20533949Y-83637616D01*
X20536900Y-83652455D01*
X20544219Y-83670126D01*
X20555485Y-83686986D01*
X20569014Y-83700515D01*
X20585876Y-83711781D01*
X20603544Y-83719100D01*
X20618387Y-83722052D01*
X20628009Y-83723000D01*
X22467320Y-83723000D01*
X22480005Y-83718878D01*
X22483000Y-83714757D01*
X22483000Y-83707319D01*
X22983000Y-83707319D01*
X22987122Y-83720004D01*
X22991243Y-83722999D01*
X24837984Y-83722999D01*
X24847616Y-83722051D01*
X24862455Y-83719100D01*
X24880126Y-83711781D01*
X24896986Y-83700515D01*
X24910515Y-83686986D01*
X24921781Y-83670124D01*
X24929100Y-83652456D01*
X24932052Y-83637613D01*
X24933000Y-83627991D01*
X24933000Y-83010009D01*
X26724000Y-83010009D01*
X26724001Y-83749320D01*
X26728123Y-83762005D01*
X26732244Y-83765000D01*
X26883320Y-83765000D01*
X26896005Y-83760878D01*
X26899000Y-83756757D01*
X26899000Y-82930681D01*
X26894878Y-82917996D01*
X26890757Y-82915001D01*
X26819016Y-82915001D01*
X26809384Y-82915949D01*
X26794545Y-82918900D01*
X26776874Y-82926219D01*
X26760014Y-82937485D01*
X26746485Y-82951014D01*
X26735219Y-82967876D01*
X26727900Y-82985544D01*
X26724948Y-83000387D01*
X26724000Y-83010009D01*
X24933000Y-83010009D01*
X24933000Y-82688680D01*
X24928878Y-82675995D01*
X24924757Y-82673000D01*
X22998680Y-82673000D01*
X22985995Y-82677122D01*
X22983000Y-82681243D01*
X22983000Y-83707319D01*
X22483000Y-83707319D01*
X22483000Y-82688680D01*
X22478878Y-82675995D01*
X22474757Y-82673000D01*
X20548681Y-82673000D01*
X20535996Y-82677122D01*
X20533001Y-82681243D01*
X20533001Y-83627984D01*
X19985000Y-83627984D01*
X19985000Y-82157320D01*
X20533000Y-82157320D01*
X20537122Y-82170005D01*
X20541243Y-82173000D01*
X22467320Y-82173000D01*
X22480005Y-82168878D01*
X22483000Y-82164757D01*
X22483000Y-82157320D01*
X22983000Y-82157320D01*
X22987122Y-82170005D01*
X22991243Y-82173000D01*
X24917319Y-82173000D01*
X24930004Y-82168878D01*
X24932999Y-82164757D01*
X24932999Y-81218016D01*
X24932051Y-81208384D01*
X24929100Y-81193545D01*
X24921781Y-81175874D01*
X24910515Y-81159014D01*
X24896986Y-81145485D01*
X24880124Y-81134219D01*
X24862456Y-81126900D01*
X24847613Y-81123948D01*
X24837991Y-81123000D01*
X22998680Y-81123000D01*
X22985995Y-81127122D01*
X22983000Y-81131243D01*
X22983000Y-82157320D01*
X22483000Y-82157320D01*
X22483000Y-81138681D01*
X22478878Y-81125996D01*
X22474757Y-81123001D01*
X20628016Y-81123001D01*
X20618384Y-81123949D01*
X20603545Y-81126900D01*
X20585874Y-81134219D01*
X20569014Y-81145485D01*
X20555485Y-81159014D01*
X20544219Y-81175876D01*
X20536900Y-81193544D01*
X20533948Y-81208387D01*
X20533000Y-81218009D01*
X20533000Y-82157320D01*
X19985000Y-82157320D01*
X19985000Y-80490000D01*
X20003907Y-80431809D01*
X20053407Y-80395845D01*
X20084000Y-80391000D01*
X25857200Y-80391000D01*
X25857200Y-79386820D01*
X26432000Y-79386820D01*
X26436122Y-79399505D01*
X26440243Y-79402500D01*
X27166320Y-79402500D01*
X27179005Y-79398378D01*
X27182000Y-79394257D01*
X27182000Y-77818180D01*
X27177878Y-77805495D01*
X27173757Y-77802500D01*
X26527016Y-77802501D01*
X26517384Y-77803449D01*
X26502545Y-77806400D01*
X26484874Y-77813719D01*
X26468014Y-77824985D01*
X26454485Y-77838514D01*
X26443219Y-77855376D01*
X26435900Y-77873044D01*
X26432948Y-77887887D01*
X26432000Y-77897509D01*
X26432000Y-79386820D01*
X25857200Y-79386820D01*
X25857200Y-77670600D01*
X25876107Y-77612409D01*
X25925607Y-77576445D01*
X25956200Y-77571600D01*
X27587000Y-77571600D01*
X27645191Y-77590507D01*
G37*
%TD.AperFunction*%
%TD*%
M02*
