%TF.GenerationSoftware,KiCad,Pcbnew,(6.0.2)*%
%TF.CreationDate,2022-03-10T15:52:03+01:00*%
%TF.ProjectId,GestureControl,47657374-7572-4654-936f-6e74726f6c2e,V0.1*%
%TF.SameCoordinates,Original*%
%TF.FileFunction,Paste,Bot*%
%TF.FilePolarity,Positive*%
%FSLAX46Y46*%
G04 Gerber Fmt 4.6, Leading zero omitted, Abs format (unit mm)*
G04 Created by KiCad (PCBNEW (6.0.2)) date 2022-03-10 15:52:03*
%MOMM*%
%LPD*%
G01*
G04 APERTURE LIST*
G04 Aperture macros list*
%AMRoundRect*
0 Rectangle with rounded corners*
0 $1 Rounding radius*
0 $2 $3 $4 $5 $6 $7 $8 $9 X,Y pos of 4 corners*
0 Add a 4 corners polygon primitive as box body*
4,1,4,$2,$3,$4,$5,$6,$7,$8,$9,$2,$3,0*
0 Add four circle primitives for the rounded corners*
1,1,$1+$1,$2,$3*
1,1,$1+$1,$4,$5*
1,1,$1+$1,$6,$7*
1,1,$1+$1,$8,$9*
0 Add four rect primitives between the rounded corners*
20,1,$1+$1,$2,$3,$4,$5,0*
20,1,$1+$1,$4,$5,$6,$7,0*
20,1,$1+$1,$6,$7,$8,$9,0*
20,1,$1+$1,$8,$9,$2,$3,0*%
G04 Aperture macros list end*
%ADD10RoundRect,0.249999X-0.650001X0.412501X-0.650001X-0.412501X0.650001X-0.412501X0.650001X0.412501X0*%
%ADD11R,1.500000X3.000000*%
%ADD12RoundRect,0.237500X-0.237500X0.300000X-0.237500X-0.300000X0.237500X-0.300000X0.237500X0.300000X0*%
%ADD13RoundRect,0.237500X-0.300000X-0.237500X0.300000X-0.237500X0.300000X0.237500X-0.300000X0.237500X0*%
%ADD14RoundRect,0.237500X0.300000X0.237500X-0.300000X0.237500X-0.300000X-0.237500X0.300000X-0.237500X0*%
%ADD15RoundRect,0.250000X-0.337500X-0.475000X0.337500X-0.475000X0.337500X0.475000X-0.337500X0.475000X0*%
%ADD16RoundRect,0.250000X0.475000X-0.337500X0.475000X0.337500X-0.475000X0.337500X-0.475000X-0.337500X0*%
%ADD17RoundRect,0.249999X0.450001X-0.350001X0.450001X0.350001X-0.450001X0.350001X-0.450001X-0.350001X0*%
%ADD18RoundRect,0.249999X-0.450001X0.350001X-0.450001X-0.350001X0.450001X-0.350001X0.450001X0.350001X0*%
%ADD19RoundRect,0.249999X0.350001X0.450001X-0.350001X0.450001X-0.350001X-0.450001X0.350001X-0.450001X0*%
%ADD20RoundRect,0.249999X-0.350001X-0.450001X0.350001X-0.450001X0.350001X0.450001X-0.350001X0.450001X0*%
%ADD21RoundRect,0.250000X0.337500X0.475000X-0.337500X0.475000X-0.337500X-0.475000X0.337500X-0.475000X0*%
%ADD22RoundRect,0.237500X0.237500X-0.300000X0.237500X0.300000X-0.237500X0.300000X-0.237500X-0.300000X0*%
%ADD23RoundRect,0.250000X-0.475000X0.337500X-0.475000X-0.337500X0.475000X-0.337500X0.475000X0.337500X0*%
%ADD24RoundRect,0.249999X0.650001X-0.412501X0.650001X0.412501X-0.650001X0.412501X-0.650001X-0.412501X0*%
G04 APERTURE END LIST*
D10*
%TO.C,C42*%
X227330000Y-127215500D03*
X227330000Y-130340500D03*
%TD*%
D11*
%TO.C,J14*%
X207137000Y-134148000D03*
X205867000Y-138648000D03*
X204597000Y-134148000D03*
X203327000Y-138648000D03*
X202057000Y-134148000D03*
X200787000Y-138648000D03*
X199517000Y-134148000D03*
X198247000Y-138648000D03*
X196977000Y-134148000D03*
X195707000Y-138648000D03*
%TD*%
D12*
%TO.C,C2*%
X93847490Y-116633490D03*
X93847490Y-118358490D03*
%TD*%
D13*
%TO.C,C28*%
X88820490Y-133852490D03*
X90545490Y-133852490D03*
%TD*%
D14*
%TO.C,C29*%
X83634490Y-119628490D03*
X81909490Y-119628490D03*
%TD*%
D15*
%TO.C,C30*%
X88767490Y-131820490D03*
X90842490Y-131820490D03*
%TD*%
D13*
%TO.C,C31*%
X83433490Y-132074490D03*
X85158490Y-132074490D03*
%TD*%
D16*
%TO.C,C33*%
X80639490Y-129069490D03*
X80639490Y-126994490D03*
%TD*%
D17*
%TO.C,R8*%
X98673490Y-118326490D03*
X98673490Y-116326490D03*
%TD*%
%TO.C,R9*%
X91815490Y-118326490D03*
X91815490Y-116326490D03*
%TD*%
D18*
%TO.C,R20*%
X77337490Y-132074490D03*
X77337490Y-134074490D03*
%TD*%
D19*
%TO.C,R21*%
X73241490Y-116326490D03*
X71241490Y-116326490D03*
%TD*%
D20*
%TO.C,R22*%
X66701490Y-116326490D03*
X68701490Y-116326490D03*
%TD*%
D12*
%TO.C,C1*%
X100705490Y-116633490D03*
X100705490Y-118358490D03*
%TD*%
D13*
%TO.C,C23*%
X83433490Y-133852490D03*
X85158490Y-133852490D03*
%TD*%
D21*
%TO.C,C11*%
X95414490Y-135376490D03*
X93339490Y-135376490D03*
%TD*%
D22*
%TO.C,C14*%
X199136000Y-131418500D03*
X199136000Y-129693500D03*
%TD*%
%TO.C,C15*%
X237236000Y-131392000D03*
X237236000Y-129667000D03*
%TD*%
%TO.C,C16*%
X125222000Y-130556000D03*
X125222000Y-128831000D03*
%TD*%
%TO.C,C20*%
X203835000Y-131418500D03*
X203835000Y-129693500D03*
%TD*%
%TO.C,C21*%
X241808000Y-131418500D03*
X241808000Y-129693500D03*
%TD*%
%TO.C,C35*%
X127000000Y-130556000D03*
X127000000Y-128831000D03*
%TD*%
D23*
%TO.C,C36*%
X191770000Y-127635000D03*
X191770000Y-129710000D03*
%TD*%
%TO.C,C37*%
X229743000Y-127723500D03*
X229743000Y-129798500D03*
%TD*%
D16*
%TO.C,C38*%
X123190000Y-130599000D03*
X123190000Y-128524000D03*
%TD*%
D24*
%TO.C,C39*%
X120650000Y-130633000D03*
X120650000Y-127508000D03*
%TD*%
%TO.C,C40*%
X154432000Y-126746000D03*
X154432000Y-123621000D03*
%TD*%
D10*
%TO.C,C41*%
X189230000Y-127050000D03*
X189230000Y-130175000D03*
%TD*%
D18*
%TO.C,R13*%
X202565000Y-124349000D03*
X202565000Y-126349000D03*
%TD*%
%TO.C,R16*%
X200279000Y-124349000D03*
X200279000Y-126349000D03*
%TD*%
%TO.C,R17*%
X240411000Y-124349000D03*
X240411000Y-126349000D03*
%TD*%
%TO.C,R30*%
X238252000Y-124381000D03*
X238252000Y-126381000D03*
%TD*%
D17*
%TO.C,R31*%
X131318000Y-130556000D03*
X131318000Y-128556000D03*
%TD*%
%TO.C,R32*%
X129032000Y-130540000D03*
X129032000Y-128540000D03*
%TD*%
D22*
%TO.C,C8*%
X166243000Y-131418500D03*
X166243000Y-129693500D03*
%TD*%
%TO.C,C9*%
X161671000Y-131418500D03*
X161671000Y-129693500D03*
%TD*%
D16*
%TO.C,C10*%
X156972000Y-126767500D03*
X156972000Y-124692500D03*
%TD*%
%TO.C,C12*%
X139700000Y-125011000D03*
X139700000Y-122936000D03*
%TD*%
D18*
%TO.C,R12*%
X163830000Y-124349000D03*
X163830000Y-126349000D03*
%TD*%
%TO.C,R29*%
X161544000Y-124365000D03*
X161544000Y-126365000D03*
%TD*%
D11*
%TO.C,J15*%
X245237000Y-134148000D03*
X243967000Y-138648000D03*
X242697000Y-134148000D03*
X241427000Y-138648000D03*
X240157000Y-134148000D03*
X238887000Y-138648000D03*
X237617000Y-134148000D03*
X236347000Y-138648000D03*
X235077000Y-134148000D03*
X233807000Y-138648000D03*
%TD*%
%TO.C,J16*%
X131572000Y-146467000D03*
X130302000Y-150967000D03*
X129032000Y-146467000D03*
X127762000Y-150967000D03*
X126492000Y-146467000D03*
X125222000Y-150967000D03*
X123952000Y-146467000D03*
X122682000Y-150967000D03*
X121412000Y-146467000D03*
X120142000Y-150967000D03*
%TD*%
%TO.C,J20*%
X131572000Y-110399000D03*
X130302000Y-114899000D03*
X129032000Y-110399000D03*
X127762000Y-114899000D03*
X126492000Y-110399000D03*
X125222000Y-114899000D03*
X123952000Y-110399000D03*
X122682000Y-114899000D03*
X121412000Y-110399000D03*
X120142000Y-114899000D03*
%TD*%
%TO.C,J21*%
X131572000Y-135164000D03*
X130302000Y-139664000D03*
X129032000Y-135164000D03*
X127762000Y-139664000D03*
X126492000Y-135164000D03*
X125222000Y-139664000D03*
X123952000Y-135164000D03*
X122682000Y-139664000D03*
X121412000Y-135164000D03*
X120142000Y-139664000D03*
%TD*%
%TO.C,J13*%
X169037000Y-134148000D03*
X167767000Y-138648000D03*
X166497000Y-134148000D03*
X165227000Y-138648000D03*
X163957000Y-134148000D03*
X162687000Y-138648000D03*
X161417000Y-134148000D03*
X160147000Y-138648000D03*
X158877000Y-134148000D03*
X157607000Y-138648000D03*
%TD*%
M02*
