%TF.GenerationSoftware,KiCad,Pcbnew,(6.0.2)*%
%TF.CreationDate,2022-03-17T10:44:44+01:00*%
%TF.ProjectId,GestureControl,47657374-7572-4654-936f-6e74726f6c2e,V0.1*%
%TF.SameCoordinates,Original*%
%TF.FileFunction,Paste,Bot*%
%TF.FilePolarity,Positive*%
%FSLAX46Y46*%
G04 Gerber Fmt 4.6, Leading zero omitted, Abs format (unit mm)*
G04 Created by KiCad (PCBNEW (6.0.2)) date 2022-03-17 10:44:44*
%MOMM*%
%LPD*%
G01*
G04 APERTURE LIST*
G04 Aperture macros list*
%AMRoundRect*
0 Rectangle with rounded corners*
0 $1 Rounding radius*
0 $2 $3 $4 $5 $6 $7 $8 $9 X,Y pos of 4 corners*
0 Add a 4 corners polygon primitive as box body*
4,1,4,$2,$3,$4,$5,$6,$7,$8,$9,$2,$3,0*
0 Add four circle primitives for the rounded corners*
1,1,$1+$1,$2,$3*
1,1,$1+$1,$4,$5*
1,1,$1+$1,$6,$7*
1,1,$1+$1,$8,$9*
0 Add four rect primitives between the rounded corners*
20,1,$1+$1,$2,$3,$4,$5,0*
20,1,$1+$1,$4,$5,$6,$7,0*
20,1,$1+$1,$6,$7,$8,$9,0*
20,1,$1+$1,$8,$9,$2,$3,0*%
G04 Aperture macros list end*
%ADD10RoundRect,0.237500X-0.300000X-0.237500X0.300000X-0.237500X0.300000X0.237500X-0.300000X0.237500X0*%
%ADD11RoundRect,0.250000X-0.337500X-0.475000X0.337500X-0.475000X0.337500X0.475000X-0.337500X0.475000X0*%
%ADD12RoundRect,0.250000X0.337500X0.475000X-0.337500X0.475000X-0.337500X-0.475000X0.337500X-0.475000X0*%
%ADD13RoundRect,0.249999X0.350001X0.450001X-0.350001X0.450001X-0.350001X-0.450001X0.350001X-0.450001X0*%
%ADD14RoundRect,0.249999X-0.350001X-0.450001X0.350001X-0.450001X0.350001X0.450001X-0.350001X0.450001X0*%
%ADD15RoundRect,0.237500X0.237500X-0.300000X0.237500X0.300000X-0.237500X0.300000X-0.237500X-0.300000X0*%
%ADD16RoundRect,0.250000X-0.475000X0.337500X-0.475000X-0.337500X0.475000X-0.337500X0.475000X0.337500X0*%
%ADD17RoundRect,0.250000X0.475000X-0.337500X0.475000X0.337500X-0.475000X0.337500X-0.475000X-0.337500X0*%
%ADD18RoundRect,0.249999X0.650001X-0.412501X0.650001X0.412501X-0.650001X0.412501X-0.650001X-0.412501X0*%
%ADD19RoundRect,0.249999X-0.650001X0.412501X-0.650001X-0.412501X0.650001X-0.412501X0.650001X0.412501X0*%
%ADD20RoundRect,0.249999X-0.450001X0.350001X-0.450001X-0.350001X0.450001X-0.350001X0.450001X0.350001X0*%
%ADD21RoundRect,0.249999X0.450001X-0.350001X0.450001X0.350001X-0.450001X0.350001X-0.450001X-0.350001X0*%
%ADD22R,1.500000X3.000000*%
%ADD23RoundRect,0.250000X-0.650000X0.412500X-0.650000X-0.412500X0.650000X-0.412500X0.650000X0.412500X0*%
%ADD24RoundRect,0.250000X-0.450000X0.350000X-0.450000X-0.350000X0.450000X-0.350000X0.450000X0.350000X0*%
G04 APERTURE END LIST*
D10*
%TO.C,C28*%
X66976490Y-102610490D03*
X68701490Y-102610490D03*
%TD*%
D11*
%TO.C,C30*%
X66923490Y-100578490D03*
X68998490Y-100578490D03*
%TD*%
D10*
%TO.C,C31*%
X61589490Y-100832490D03*
X63314490Y-100832490D03*
%TD*%
D12*
%TO.C,C33*%
X65045500Y-99060000D03*
X62970500Y-99060000D03*
%TD*%
D13*
%TO.C,R21*%
X51397490Y-85084490D03*
X49397490Y-85084490D03*
%TD*%
D14*
%TO.C,R22*%
X44857490Y-85084490D03*
X46857490Y-85084490D03*
%TD*%
D10*
%TO.C,C23*%
X61589490Y-102610490D03*
X63314490Y-102610490D03*
%TD*%
D12*
%TO.C,C11*%
X73570490Y-104134490D03*
X71495490Y-104134490D03*
%TD*%
D15*
%TO.C,C14*%
X177292000Y-100176500D03*
X177292000Y-98451500D03*
%TD*%
%TO.C,C15*%
X215392000Y-100150000D03*
X215392000Y-98425000D03*
%TD*%
%TO.C,C16*%
X103378000Y-99695000D03*
X103378000Y-97970000D03*
%TD*%
%TO.C,C20*%
X181991000Y-100176500D03*
X181991000Y-98451500D03*
%TD*%
%TO.C,C21*%
X219964000Y-100176500D03*
X219964000Y-98451500D03*
%TD*%
%TO.C,C35*%
X105156000Y-99695000D03*
X105156000Y-97970000D03*
%TD*%
D16*
%TO.C,C36*%
X169926000Y-96393000D03*
X169926000Y-98468000D03*
%TD*%
%TO.C,C37*%
X207899000Y-96481500D03*
X207899000Y-98556500D03*
%TD*%
D17*
%TO.C,C38*%
X101346000Y-99738000D03*
X101346000Y-97663000D03*
%TD*%
D18*
%TO.C,C39*%
X98806000Y-99772000D03*
X98806000Y-96647000D03*
%TD*%
D19*
%TO.C,C40*%
X130810000Y-95592500D03*
X130810000Y-98717500D03*
%TD*%
%TO.C,C41*%
X167386000Y-95808000D03*
X167386000Y-98933000D03*
%TD*%
%TO.C,C42*%
X205486000Y-95973500D03*
X205486000Y-99098500D03*
%TD*%
D20*
%TO.C,R13*%
X180721000Y-93107000D03*
X180721000Y-95107000D03*
%TD*%
%TO.C,R16*%
X178435000Y-93107000D03*
X178435000Y-95107000D03*
%TD*%
%TO.C,R17*%
X218567000Y-93107000D03*
X218567000Y-95107000D03*
%TD*%
%TO.C,R30*%
X216408000Y-93139000D03*
X216408000Y-95139000D03*
%TD*%
D21*
%TO.C,R31*%
X109474000Y-99695000D03*
X109474000Y-97695000D03*
%TD*%
%TO.C,R32*%
X107188000Y-99679000D03*
X107188000Y-97679000D03*
%TD*%
D15*
%TO.C,C8*%
X144399000Y-100176500D03*
X144399000Y-98451500D03*
%TD*%
%TO.C,C9*%
X139827000Y-100176500D03*
X139827000Y-98451500D03*
%TD*%
D16*
%TO.C,C10*%
X133223000Y-96117500D03*
X133223000Y-98192500D03*
%TD*%
D17*
%TO.C,C12*%
X117856000Y-93769000D03*
X117856000Y-91694000D03*
%TD*%
D20*
%TO.C,R12*%
X141986000Y-93107000D03*
X141986000Y-95107000D03*
%TD*%
%TO.C,R29*%
X139700000Y-93123000D03*
X139700000Y-95123000D03*
%TD*%
D22*
%TO.C,J14*%
X185293000Y-102906000D03*
X184023000Y-107406000D03*
X182753000Y-102906000D03*
X181483000Y-107406000D03*
X180213000Y-102906000D03*
X178943000Y-107406000D03*
X177673000Y-102906000D03*
X176403000Y-107406000D03*
X175133000Y-102906000D03*
X173863000Y-107406000D03*
%TD*%
%TO.C,J15*%
X223393000Y-102906000D03*
X222123000Y-107406000D03*
X220853000Y-102906000D03*
X219583000Y-107406000D03*
X218313000Y-102906000D03*
X217043000Y-107406000D03*
X215773000Y-102906000D03*
X214503000Y-107406000D03*
X213233000Y-102906000D03*
X211963000Y-107406000D03*
%TD*%
%TO.C,J16*%
X109728000Y-79121000D03*
X108458000Y-83621000D03*
X107188000Y-79121000D03*
X105918000Y-83621000D03*
X104648000Y-79121000D03*
X103378000Y-83621000D03*
X102108000Y-79121000D03*
X100838000Y-83621000D03*
X99568000Y-79121000D03*
X98298000Y-83621000D03*
%TD*%
%TO.C,J20*%
X109728000Y-88773000D03*
X108458000Y-93273000D03*
X107188000Y-88773000D03*
X105918000Y-93273000D03*
X104648000Y-88773000D03*
X103378000Y-93273000D03*
X102108000Y-88773000D03*
X100838000Y-93273000D03*
X99568000Y-88773000D03*
X98298000Y-93273000D03*
%TD*%
%TO.C,J21*%
X109728000Y-104394000D03*
X108458000Y-108894000D03*
X107188000Y-104394000D03*
X105918000Y-108894000D03*
X104648000Y-104394000D03*
X103378000Y-108894000D03*
X102108000Y-104394000D03*
X100838000Y-108894000D03*
X99568000Y-104394000D03*
X98298000Y-108894000D03*
%TD*%
%TO.C,J13*%
X147193000Y-102906000D03*
X145923000Y-107406000D03*
X144653000Y-102906000D03*
X143383000Y-107406000D03*
X142113000Y-102906000D03*
X140843000Y-107406000D03*
X139573000Y-102906000D03*
X138303000Y-107406000D03*
X137033000Y-102906000D03*
X135763000Y-107406000D03*
%TD*%
D23*
%TO.C,C45*%
X243586000Y-95973500D03*
X243586000Y-99098500D03*
%TD*%
D24*
%TO.C,R34*%
X254508000Y-93091000D03*
X254508000Y-95091000D03*
%TD*%
D15*
%TO.C,C44*%
X253492000Y-100076000D03*
X253492000Y-98351000D03*
%TD*%
D24*
%TO.C,R33*%
X256667000Y-93107000D03*
X256667000Y-95107000D03*
%TD*%
D22*
%TO.C,J22*%
X109728000Y-115225000D03*
X108458000Y-119725000D03*
X107188000Y-115225000D03*
X105918000Y-119725000D03*
X104648000Y-115225000D03*
X103378000Y-119725000D03*
X102108000Y-115225000D03*
X100838000Y-119725000D03*
X99568000Y-115225000D03*
X98298000Y-119725000D03*
%TD*%
%TO.C,J23*%
X261493000Y-103033000D03*
X260223000Y-107533000D03*
X258953000Y-103033000D03*
X257683000Y-107533000D03*
X256413000Y-103033000D03*
X255143000Y-107533000D03*
X253873000Y-103033000D03*
X252603000Y-107533000D03*
X251333000Y-103033000D03*
X250063000Y-107533000D03*
%TD*%
D15*
%TO.C,C46*%
X258064000Y-100176500D03*
X258064000Y-98451500D03*
%TD*%
D16*
%TO.C,C47*%
X245999000Y-96498500D03*
X245999000Y-98573500D03*
%TD*%
M02*
