%TF.GenerationSoftware,KiCad,Pcbnew,(6.0.2)*%
%TF.CreationDate,2022-03-11T07:45:19+01:00*%
%TF.ProjectId,GestureControl,47657374-7572-4654-936f-6e74726f6c2e,V0.1*%
%TF.SameCoordinates,Original*%
%TF.FileFunction,Copper,L1,Top*%
%TF.FilePolarity,Positive*%
%FSLAX46Y46*%
G04 Gerber Fmt 4.6, Leading zero omitted, Abs format (unit mm)*
G04 Created by KiCad (PCBNEW (6.0.2)) date 2022-03-11 07:45:19*
%MOMM*%
%LPD*%
G01*
G04 APERTURE LIST*
G04 Aperture macros list*
%AMRoundRect*
0 Rectangle with rounded corners*
0 $1 Rounding radius*
0 $2 $3 $4 $5 $6 $7 $8 $9 X,Y pos of 4 corners*
0 Add a 4 corners polygon primitive as box body*
4,1,4,$2,$3,$4,$5,$6,$7,$8,$9,$2,$3,0*
0 Add four circle primitives for the rounded corners*
1,1,$1+$1,$2,$3*
1,1,$1+$1,$4,$5*
1,1,$1+$1,$6,$7*
1,1,$1+$1,$8,$9*
0 Add four rect primitives between the rounded corners*
20,1,$1+$1,$2,$3,$4,$5,0*
20,1,$1+$1,$4,$5,$6,$7,0*
20,1,$1+$1,$6,$7,$8,$9,0*
20,1,$1+$1,$8,$9,$2,$3,0*%
G04 Aperture macros list end*
%TA.AperFunction,ComponentPad*%
%ADD10R,1.700000X1.700000*%
%TD*%
%TA.AperFunction,ComponentPad*%
%ADD11O,1.700000X1.700000*%
%TD*%
%TA.AperFunction,SMDPad,CuDef*%
%ADD12RoundRect,0.250000X-1.500000X-0.550000X1.500000X-0.550000X1.500000X0.550000X-1.500000X0.550000X0*%
%TD*%
%TA.AperFunction,SMDPad,CuDef*%
%ADD13RoundRect,0.250000X-0.337500X-0.475000X0.337500X-0.475000X0.337500X0.475000X-0.337500X0.475000X0*%
%TD*%
%TA.AperFunction,SMDPad,CuDef*%
%ADD14RoundRect,0.250000X0.337500X0.475000X-0.337500X0.475000X-0.337500X-0.475000X0.337500X-0.475000X0*%
%TD*%
%TA.AperFunction,SMDPad,CuDef*%
%ADD15RoundRect,0.237500X-0.300000X-0.237500X0.300000X-0.237500X0.300000X0.237500X-0.300000X0.237500X0*%
%TD*%
%TA.AperFunction,SMDPad,CuDef*%
%ADD16RoundRect,0.237500X0.300000X0.237500X-0.300000X0.237500X-0.300000X-0.237500X0.300000X-0.237500X0*%
%TD*%
%TA.AperFunction,SMDPad,CuDef*%
%ADD17RoundRect,0.237500X-0.237500X0.300000X-0.237500X-0.300000X0.237500X-0.300000X0.237500X0.300000X0*%
%TD*%
%TA.AperFunction,SMDPad,CuDef*%
%ADD18RoundRect,0.250000X-0.475000X0.337500X-0.475000X-0.337500X0.475000X-0.337500X0.475000X0.337500X0*%
%TD*%
%TA.AperFunction,SMDPad,CuDef*%
%ADD19RoundRect,0.249999X0.325001X0.450001X-0.325001X0.450001X-0.325001X-0.450001X0.325001X-0.450001X0*%
%TD*%
%TA.AperFunction,SMDPad,CuDef*%
%ADD20R,1.800000X3.500000*%
%TD*%
%TA.AperFunction,ComponentPad*%
%ADD21RoundRect,0.250000X-1.550000X0.650000X-1.550000X-0.650000X1.550000X-0.650000X1.550000X0.650000X0*%
%TD*%
%TA.AperFunction,ComponentPad*%
%ADD22O,3.600000X1.800000*%
%TD*%
%TA.AperFunction,SMDPad,CuDef*%
%ADD23RoundRect,0.249999X0.350001X0.450001X-0.350001X0.450001X-0.350001X-0.450001X0.350001X-0.450001X0*%
%TD*%
%TA.AperFunction,SMDPad,CuDef*%
%ADD24RoundRect,0.249999X-0.350001X-0.450001X0.350001X-0.450001X0.350001X0.450001X-0.350001X0.450001X0*%
%TD*%
%TA.AperFunction,SMDPad,CuDef*%
%ADD25RoundRect,0.249999X0.450001X-0.350001X0.450001X0.350001X-0.450001X0.350001X-0.450001X-0.350001X0*%
%TD*%
%TA.AperFunction,SMDPad,CuDef*%
%ADD26R,1.300000X1.550000*%
%TD*%
%TA.AperFunction,SMDPad,CuDef*%
%ADD27RoundRect,0.075000X0.075000X-0.700000X0.075000X0.700000X-0.075000X0.700000X-0.075000X-0.700000X0*%
%TD*%
%TA.AperFunction,SMDPad,CuDef*%
%ADD28RoundRect,0.075000X0.700000X-0.075000X0.700000X0.075000X-0.700000X0.075000X-0.700000X-0.075000X0*%
%TD*%
%TA.AperFunction,SMDPad,CuDef*%
%ADD29R,1.300000X1.900000*%
%TD*%
%TA.AperFunction,SMDPad,CuDef*%
%ADD30R,4.500000X2.000000*%
%TD*%
%TA.AperFunction,SMDPad,CuDef*%
%ADD31RoundRect,0.249999X-0.412501X-0.650001X0.412501X-0.650001X0.412501X0.650001X-0.412501X0.650001X0*%
%TD*%
%TA.AperFunction,SMDPad,CuDef*%
%ADD32RoundRect,0.249999X0.650001X-0.412501X0.650001X0.412501X-0.650001X0.412501X-0.650001X-0.412501X0*%
%TD*%
%TA.AperFunction,SMDPad,CuDef*%
%ADD33RoundRect,0.249999X0.412501X0.650001X-0.412501X0.650001X-0.412501X-0.650001X0.412501X-0.650001X0*%
%TD*%
%TA.AperFunction,SMDPad,CuDef*%
%ADD34R,3.500000X1.800000*%
%TD*%
%TA.AperFunction,SMDPad,CuDef*%
%ADD35R,2.400000X4.200000*%
%TD*%
%TA.AperFunction,SMDPad,CuDef*%
%ADD36R,4.200000X2.400000*%
%TD*%
%TA.AperFunction,SMDPad,CuDef*%
%ADD37RoundRect,0.249999X-0.450001X0.350001X-0.450001X-0.350001X0.450001X-0.350001X0.450001X0.350001X0*%
%TD*%
%TA.AperFunction,SMDPad,CuDef*%
%ADD38R,2.000000X0.650000*%
%TD*%
%TA.AperFunction,SMDPad,CuDef*%
%ADD39R,0.650000X2.000000*%
%TD*%
%TA.AperFunction,SMDPad,CuDef*%
%ADD40R,0.807999X0.458000*%
%TD*%
%TA.AperFunction,SMDPad,CuDef*%
%ADD41R,0.508000X0.508000*%
%TD*%
%TA.AperFunction,SMDPad,CuDef*%
%ADD42RoundRect,0.250000X-0.550000X1.500000X-0.550000X-1.500000X0.550000X-1.500000X0.550000X1.500000X0*%
%TD*%
%TA.AperFunction,ViaPad*%
%ADD43C,0.800000*%
%TD*%
%TA.AperFunction,Conductor*%
%ADD44C,0.250000*%
%TD*%
%TA.AperFunction,Conductor*%
%ADD45C,0.500000*%
%TD*%
%TA.AperFunction,Conductor*%
%ADD46C,1.000000*%
%TD*%
%TA.AperFunction,Conductor*%
%ADD47C,0.200000*%
%TD*%
G04 APERTURE END LIST*
D10*
%TO.P,J3,1,Pin_1*%
%TO.N,unconnected-(J3-Pad1)*%
X67818000Y-155194000D03*
D11*
%TO.P,J3,2,Pin_2*%
%TO.N,unconnected-(J3-Pad2)*%
X70358000Y-155194000D03*
%TO.P,J3,3,Pin_3*%
%TO.N,unconnected-(J3-Pad3)*%
X72898000Y-155194000D03*
%TO.P,J3,4,Pin_4*%
%TO.N,+3V3*%
X75438000Y-155194000D03*
%TO.P,J3,5,Pin_5*%
%TO.N,+5V*%
X77978000Y-155194000D03*
%TO.P,J3,6,Pin_6*%
%TO.N,GND*%
X80518000Y-155194000D03*
%TO.P,J3,7,Pin_7*%
X83058000Y-155194000D03*
%TO.P,J3,8,Pin_8*%
%TO.N,unconnected-(J3-Pad8)*%
X85598000Y-155194000D03*
%TD*%
D10*
%TO.P,J4,1,Pin_1*%
%TO.N,XSHUT_0*%
X90678000Y-155194000D03*
D11*
%TO.P,J4,2,Pin_2*%
%TO.N,XSHUT_1*%
X93218000Y-155194000D03*
%TO.P,J4,3,Pin_3*%
%TO.N,XSHUT_2*%
X95758000Y-155194000D03*
%TO.P,J4,4,Pin_4*%
%TO.N,XSHUT_3*%
X98298000Y-155194000D03*
%TO.P,J4,5,Pin_5*%
%TO.N,SW_1*%
X100838000Y-155194000D03*
%TO.P,J4,6,Pin_6*%
%TO.N,SW_2*%
X103378000Y-155194000D03*
%TD*%
D10*
%TO.P,J5,1,Pin_1*%
%TO.N,unconnected-(J5-Pad1)*%
X81534000Y-106934000D03*
D11*
%TO.P,J5,2,Pin_2*%
%TO.N,unconnected-(J5-Pad2)*%
X78994000Y-106934000D03*
%TO.P,J5,3,Pin_3*%
%TO.N,GPIOI_0*%
X76454000Y-106934000D03*
%TO.P,J5,4,Pin_4*%
%TO.N,GPIOI_1*%
X73914000Y-106934000D03*
%TO.P,J5,5,Pin_5*%
%TO.N,GPIOI_2*%
X71374000Y-106934000D03*
%TO.P,J5,6,Pin_6*%
%TO.N,GPIOI_3*%
X68834000Y-106934000D03*
%TO.P,J5,7,Pin_7*%
%TO.N,GND*%
X66294000Y-106934000D03*
%TO.P,J5,8,Pin_8*%
%TO.N,+3V3*%
X63754000Y-106934000D03*
%TO.P,J5,9,Pin_9*%
%TO.N,SDA1*%
X61214000Y-106934000D03*
%TO.P,J5,10,Pin_10*%
%TO.N,SCL1*%
X58674000Y-106934000D03*
%TD*%
D12*
%TO.P,C7,1*%
%TO.N,VCC*%
X55620000Y-153924000D03*
%TO.P,C7,2*%
%TO.N,GND*%
X61220000Y-153924000D03*
%TD*%
D13*
%TO.P,C17,1*%
%TO.N,/STM32L151RET6TR/MCO*%
X81358490Y-146806490D03*
%TO.P,C17,2*%
%TO.N,GND*%
X83433490Y-146806490D03*
%TD*%
D14*
%TO.P,C18,1*%
%TO.N,/STM32L151RET6TR/OSM_OUT*%
X87540490Y-146806490D03*
%TO.P,C18,2*%
%TO.N,GND*%
X85465490Y-146806490D03*
%TD*%
D15*
%TO.P,C19,1*%
%TO.N,GND*%
X73326490Y-142234490D03*
%TO.P,C19,2*%
%TO.N,/STM32L151RET6TR/OS32_OUT*%
X75051490Y-142234490D03*
%TD*%
%TO.P,C22,1*%
%TO.N,GND*%
X73172990Y-134614490D03*
%TO.P,C22,2*%
%TO.N,/STM32L151RET6TR/OS32_IN*%
X74897990Y-134614490D03*
%TD*%
D16*
%TO.P,C24,1*%
%TO.N,+3V3*%
X80078490Y-136392490D03*
%TO.P,C24,2*%
%TO.N,GND*%
X78353490Y-136392490D03*
%TD*%
%TO.P,C25,1*%
%TO.N,+3V3*%
X80078490Y-138170490D03*
%TO.P,C25,2*%
%TO.N,GND*%
X78353490Y-138170490D03*
%TD*%
D17*
%TO.P,C26,1*%
%TO.N,+3V3*%
X93085490Y-132328490D03*
%TO.P,C26,2*%
%TO.N,GND*%
X93085490Y-134053490D03*
%TD*%
%TO.P,C27,1*%
%TO.N,+3V3*%
X92323490Y-122930490D03*
%TO.P,C27,2*%
%TO.N,GND*%
X92323490Y-124655490D03*
%TD*%
D18*
%TO.P,C32,1*%
%TO.N,+3V3*%
X94355490Y-122379490D03*
%TO.P,C32,2*%
%TO.N,GND*%
X94355490Y-124454490D03*
%TD*%
D19*
%TO.P,D1,1,K*%
%TO.N,GND*%
X107293490Y-131820490D03*
%TO.P,D1,2,A*%
%TO.N,Net-(D1-Pad2)*%
X105243490Y-131820490D03*
%TD*%
%TO.P,D2,1,K*%
%TO.N,GND*%
X107311490Y-129534490D03*
%TO.P,D2,2,A*%
%TO.N,Net-(D2-Pad2)*%
X105261490Y-129534490D03*
%TD*%
%TO.P,D3,1,K*%
%TO.N,GND*%
X107311490Y-127248490D03*
%TO.P,D3,2,A*%
%TO.N,Net-(D3-Pad2)*%
X105261490Y-127248490D03*
%TD*%
%TO.P,D5,1,K*%
%TO.N,GND*%
X107302490Y-122676490D03*
%TO.P,D5,2,A*%
%TO.N,Net-(D5-Pad2)*%
X105252490Y-122676490D03*
%TD*%
D20*
%TO.P,D6,1,K*%
%TO.N,VCC*%
X54864000Y-127719000D03*
%TO.P,D6,2,A*%
%TO.N,Net-(D6-Pad2)*%
X54864000Y-132719000D03*
%TD*%
D10*
%TO.P,J1,1,Pin_1*%
%TO.N,GND*%
X74543490Y-127756490D03*
D11*
%TO.P,J1,2,Pin_2*%
%TO.N,+5V*%
X72003490Y-127756490D03*
%TO.P,J1,3,Pin_3*%
%TO.N,SDA1*%
X69463490Y-127756490D03*
%TO.P,J1,4,Pin_4*%
%TO.N,SCL1*%
X66923490Y-127756490D03*
%TD*%
D21*
%TO.P,J2,1,Pin_1*%
%TO.N,GND*%
X50292000Y-128524000D03*
D22*
%TO.P,J2,2,Pin_2*%
%TO.N,Net-(D6-Pad2)*%
X50292000Y-132024000D03*
%TD*%
D10*
%TO.P,J7,1,Pin_1*%
%TO.N,GND*%
X79623490Y-120136490D03*
D11*
%TO.P,J7,2,Pin_2*%
%TO.N,/STM32L151RET6TR/FTDI_CTS*%
X77083490Y-120136490D03*
%TO.P,J7,3,Pin_3*%
%TO.N,+5V*%
X74543490Y-120136490D03*
%TO.P,J7,4,Pin_4*%
%TO.N,/STM32L151RET6TR/FTDI_TXD*%
X72003490Y-120136490D03*
%TO.P,J7,5,Pin_5*%
%TO.N,/STM32L151RET6TR/FTDI_RXD*%
X69463490Y-120136490D03*
%TO.P,J7,6,Pin_6*%
%TO.N,/STM32L151RET6TR/FTDI_RTS*%
X66923490Y-120136490D03*
%TD*%
D10*
%TO.P,J10,1,Pin_1*%
%TO.N,GND*%
X79121000Y-110490000D03*
D11*
%TO.P,J10,2,Pin_2*%
%TO.N,+3V3*%
X76581000Y-110490000D03*
%TO.P,J10,3,Pin_3*%
%TO.N,SDA2*%
X74041000Y-110490000D03*
%TO.P,J10,4,Pin_4*%
%TO.N,SCL2*%
X71501000Y-110490000D03*
%TD*%
D23*
%TO.P,R1,1*%
%TO.N,Net-(D1-Pad2)*%
X103229490Y-131820490D03*
%TO.P,R1,2*%
%TO.N,LED_1*%
X101229490Y-131820490D03*
%TD*%
%TO.P,R2,1*%
%TO.N,Net-(D2-Pad2)*%
X103197490Y-129534490D03*
%TO.P,R2,2*%
%TO.N,LED_2*%
X101197490Y-129534490D03*
%TD*%
%TO.P,R3,1*%
%TO.N,Net-(D3-Pad2)*%
X103197490Y-127248490D03*
%TO.P,R3,2*%
%TO.N,LED_3*%
X101197490Y-127248490D03*
%TD*%
%TO.P,R4,1*%
%TO.N,Net-(D4-Pad2)*%
X103197490Y-124962490D03*
%TO.P,R4,2*%
%TO.N,LED_4*%
X101197490Y-124962490D03*
%TD*%
%TO.P,R5,1*%
%TO.N,Net-(D5-Pad2)*%
X103213490Y-122676490D03*
%TO.P,R5,2*%
%TO.N,LED_5*%
X101213490Y-122676490D03*
%TD*%
D24*
%TO.P,R6,1*%
%TO.N,GND*%
X101245490Y-120390490D03*
%TO.P,R6,2*%
%TO.N,SW_1*%
X103245490Y-120390490D03*
%TD*%
D23*
%TO.P,R7,1*%
%TO.N,SW_2*%
X96355490Y-120390490D03*
%TO.P,R7,2*%
%TO.N,GND*%
X94355490Y-120390490D03*
%TD*%
D25*
%TO.P,R10,1*%
%TO.N,+3V3*%
X67177490Y-140424490D03*
%TO.P,R10,2*%
%TO.N,SDA1*%
X67177490Y-138424490D03*
%TD*%
%TO.P,R11,1*%
%TO.N,+3V3*%
X64891490Y-140424490D03*
%TO.P,R11,2*%
%TO.N,SCL1*%
X64891490Y-138424490D03*
%TD*%
D26*
%TO.P,SW1,1,1*%
%TO.N,SW_1*%
X107533000Y-118275000D03*
X107533000Y-110325000D03*
%TO.P,SW1,2,2*%
%TO.N,+3V3*%
X103033000Y-118275000D03*
X103033000Y-110325000D03*
%TD*%
%TO.P,SW2,1,1*%
%TO.N,SW_2*%
X100675000Y-110325000D03*
X100675000Y-118275000D03*
%TO.P,SW2,2,2*%
%TO.N,+3V3*%
X96175000Y-110325000D03*
X96175000Y-118275000D03*
%TD*%
D27*
%TO.P,U6,1,VLCD*%
%TO.N,+3V3*%
X81461490Y-135717490D03*
%TO.P,U6,2,PC13*%
%TO.N,BUCK_5_EN*%
X81961490Y-135717490D03*
%TO.P,U6,3,PC14*%
%TO.N,/STM32L151RET6TR/OS32_IN*%
X82461490Y-135717490D03*
%TO.P,U6,4,PC15*%
%TO.N,/STM32L151RET6TR/OS32_OUT*%
X82961490Y-135717490D03*
%TO.P,U6,5,PH0*%
%TO.N,/STM32L151RET6TR/MCO*%
X83461490Y-135717490D03*
%TO.P,U6,6,PH1*%
%TO.N,/STM32L151RET6TR/OSM_OUT*%
X83961490Y-135717490D03*
%TO.P,U6,7,NRST*%
%TO.N,/STM32L151RET6TR/RST*%
X84461490Y-135717490D03*
%TO.P,U6,8,PC0*%
%TO.N,XSHUT_0*%
X84961490Y-135717490D03*
%TO.P,U6,9,PC1*%
%TO.N,XSHUT_1*%
X85461490Y-135717490D03*
%TO.P,U6,10,PC2*%
%TO.N,XSHUT_2*%
X85961490Y-135717490D03*
%TO.P,U6,11,PC3*%
%TO.N,XSHUT_3*%
X86461490Y-135717490D03*
%TO.P,U6,12,VSSA*%
%TO.N,GND*%
X86961490Y-135717490D03*
%TO.P,U6,13,VDDA*%
%TO.N,+3V3*%
X87461490Y-135717490D03*
%TO.P,U6,14,PA0*%
%TO.N,LED_1*%
X87961490Y-135717490D03*
%TO.P,U6,15,PA1*%
%TO.N,LED_2*%
X88461490Y-135717490D03*
%TO.P,U6,16,PA2*%
%TO.N,/STM32L151RET6TR/UART_TX*%
X88961490Y-135717490D03*
D28*
%TO.P,U6,17,PA3*%
%TO.N,/STM32L151RET6TR/UART_RX*%
X90886490Y-133792490D03*
%TO.P,U6,18,VSS*%
%TO.N,GND*%
X90886490Y-133292490D03*
%TO.P,U6,19,VDD*%
%TO.N,+3V3*%
X90886490Y-132792490D03*
%TO.P,U6,20,PA4*%
%TO.N,unconnected-(U6-Pad20)*%
X90886490Y-132292490D03*
%TO.P,U6,21,PA5*%
%TO.N,unconnected-(U6-Pad21)*%
X90886490Y-131792490D03*
%TO.P,U6,22,PA6*%
%TO.N,LED_3*%
X90886490Y-131292490D03*
%TO.P,U6,23,PA7*%
%TO.N,LED_4*%
X90886490Y-130792490D03*
%TO.P,U6,24,PC4*%
%TO.N,unconnected-(U6-Pad24)*%
X90886490Y-130292490D03*
%TO.P,U6,25,PC5*%
%TO.N,unconnected-(U6-Pad25)*%
X90886490Y-129792490D03*
%TO.P,U6,26,PB0*%
%TO.N,LED_5*%
X90886490Y-129292490D03*
%TO.P,U6,27,PB1*%
%TO.N,SW_1*%
X90886490Y-128792490D03*
%TO.P,U6,28,PB2*%
%TO.N,SW_2*%
X90886490Y-128292490D03*
%TO.P,U6,29,PB10*%
%TO.N,/STM32L151RET6TR/PIN29*%
X90886490Y-127792490D03*
%TO.P,U6,30,PB11*%
%TO.N,/STM32L151RET6TR/PIN30*%
X90886490Y-127292490D03*
%TO.P,U6,31,VSS*%
%TO.N,GND*%
X90886490Y-126792490D03*
%TO.P,U6,32,VDD*%
%TO.N,+3V3*%
X90886490Y-126292490D03*
D27*
%TO.P,U6,33,PB12*%
%TO.N,GPIOI_0*%
X88961490Y-124367490D03*
%TO.P,U6,34,PB13*%
%TO.N,GPIOI_1*%
X88461490Y-124367490D03*
%TO.P,U6,35,PB14*%
%TO.N,GPIOI_2*%
X87961490Y-124367490D03*
%TO.P,U6,36,PB15*%
%TO.N,GPIOI_3*%
X87461490Y-124367490D03*
%TO.P,U6,37,PC6*%
%TO.N,unconnected-(U6-Pad37)*%
X86961490Y-124367490D03*
%TO.P,U6,38,PC7*%
%TO.N,unconnected-(U6-Pad38)*%
X86461490Y-124367490D03*
%TO.P,U6,39,PC8*%
%TO.N,/STM32L151RET6TR/PC8*%
X85961490Y-124367490D03*
%TO.P,U6,40,PC9*%
%TO.N,SDA2*%
X85461490Y-124367490D03*
%TO.P,U6,41,PA8*%
%TO.N,/STM32L151RET6TR/PIN41*%
X84961490Y-124367490D03*
%TO.P,U6,42,PA9*%
%TO.N,/STM32L151RET6TR/PA9*%
X84461490Y-124367490D03*
%TO.P,U6,43,PA10*%
%TO.N,/STM32L151RET6TR/PA10*%
X83961490Y-124367490D03*
%TO.P,U6,44,PA11*%
%TO.N,/STM32L151RET6TR/FTDI_CTS*%
X83461490Y-124367490D03*
%TO.P,U6,45,PA12*%
%TO.N,/STM32L151RET6TR/FTDI_RTS*%
X82961490Y-124367490D03*
%TO.P,U6,46,PA13*%
%TO.N,/STM32L151RET6TR/SWDAT*%
X82461490Y-124367490D03*
%TO.P,U6,47,VSS*%
%TO.N,GND*%
X81961490Y-124367490D03*
%TO.P,U6,48,VDD*%
%TO.N,+3V3*%
X81461490Y-124367490D03*
D28*
%TO.P,U6,49,PA14*%
%TO.N,/STM32L151RET6TR/SWCLK*%
X79536490Y-126292490D03*
%TO.P,U6,50,PA15*%
%TO.N,unconnected-(U6-Pad50)*%
X79536490Y-126792490D03*
%TO.P,U6,51,PC10*%
%TO.N,unconnected-(U6-Pad51)*%
X79536490Y-127292490D03*
%TO.P,U6,52,PC11*%
%TO.N,unconnected-(U6-Pad52)*%
X79536490Y-127792490D03*
%TO.P,U6,53,PC12*%
%TO.N,unconnected-(U6-Pad53)*%
X79536490Y-128292490D03*
%TO.P,U6,54,PD2*%
%TO.N,unconnected-(U6-Pad54)*%
X79536490Y-128792490D03*
%TO.P,U6,55,PB3*%
%TO.N,/STM32L151RET6TR/SW0*%
X79536490Y-129292490D03*
%TO.P,U6,56,PB4*%
%TO.N,unconnected-(U6-Pad56)*%
X79536490Y-129792490D03*
%TO.P,U6,57,PB5*%
%TO.N,unconnected-(U6-Pad57)*%
X79536490Y-130292490D03*
%TO.P,U6,58,PB6*%
%TO.N,/STM32L151RET6TR/FTDI_TXD*%
X79536490Y-130792490D03*
%TO.P,U6,59,PB7*%
%TO.N,/STM32L151RET6TR/FTDI_RXD*%
X79536490Y-131292490D03*
%TO.P,U6,60,BOOT0*%
%TO.N,/STM32L151RET6TR/BOOT*%
X79536490Y-131792490D03*
%TO.P,U6,61,PB8*%
%TO.N,SCL1*%
X79536490Y-132292490D03*
%TO.P,U6,62,PB9*%
%TO.N,SDA1*%
X79536490Y-132792490D03*
%TO.P,U6,63,VSS*%
%TO.N,GND*%
X79536490Y-133292490D03*
%TO.P,U6,64,VDD*%
%TO.N,+3V3*%
X79536490Y-133792490D03*
%TD*%
D29*
%TO.P,Y2,1,1*%
%TO.N,/STM32L151RET6TR/OS32_IN*%
X75769490Y-136824490D03*
%TO.P,Y2,2,2*%
%TO.N,GND*%
X70269490Y-136824490D03*
%TO.P,Y2,3,3*%
X70269490Y-140024490D03*
%TO.P,Y2,4,4*%
%TO.N,/STM32L151RET6TR/OS32_OUT*%
X75769490Y-140024490D03*
%TD*%
D19*
%TO.P,D4,1,K*%
%TO.N,GND*%
X107311490Y-124962490D03*
%TO.P,D4,2,A*%
%TO.N,Net-(D4-Pad2)*%
X105261490Y-124962490D03*
%TD*%
D10*
%TO.P,J9,1,Pin_1*%
%TO.N,GND*%
X98165490Y-137916490D03*
D11*
%TO.P,J9,2,Pin_2*%
%TO.N,+3V3*%
X98165490Y-135376490D03*
%TO.P,J9,3,Pin_3*%
%TO.N,/STM32L151RET6TR/UART_TX*%
X98165490Y-132836490D03*
%TO.P,J9,4,Pin_4*%
%TO.N,/STM32L151RET6TR/UART_RX*%
X98165490Y-130296490D03*
%TD*%
D10*
%TO.P,J6,1,Pin_1*%
%TO.N,unconnected-(J6-Pad1)*%
X103378000Y-106934000D03*
D11*
%TO.P,J6,2,Pin_2*%
%TO.N,unconnected-(J6-Pad2)*%
X100838000Y-106934000D03*
%TO.P,J6,3,Pin_3*%
%TO.N,LED_5*%
X98298000Y-106934000D03*
%TO.P,J6,4,Pin_4*%
%TO.N,LED_4*%
X95758000Y-106934000D03*
%TO.P,J6,5,Pin_5*%
%TO.N,LED_3*%
X93218000Y-106934000D03*
%TO.P,J6,6,Pin_6*%
%TO.N,LED_2*%
X90678000Y-106934000D03*
%TO.P,J6,7,Pin_7*%
%TO.N,LED_1*%
X88138000Y-106934000D03*
%TO.P,J6,8,Pin_8*%
%TO.N,unconnected-(J6-Pad8)*%
X85598000Y-106934000D03*
%TD*%
D10*
%TO.P,J8,1,Pin_1*%
%TO.N,+3V3*%
X77083490Y-123946490D03*
D11*
%TO.P,J8,2,Pin_2*%
%TO.N,/STM32L151RET6TR/SWCLK*%
X74543490Y-123946490D03*
%TO.P,J8,3,Pin_3*%
%TO.N,GND*%
X72003490Y-123946490D03*
%TO.P,J8,4,Pin_4*%
%TO.N,/STM32L151RET6TR/SWDAT*%
X69463490Y-123946490D03*
%TO.P,J8,5,Pin_5*%
%TO.N,/STM32L151RET6TR/RST*%
X66923490Y-123946490D03*
%TO.P,J8,6,Pin_6*%
%TO.N,/STM32L151RET6TR/SW0*%
X64383490Y-123946490D03*
%TD*%
D30*
%TO.P,Y1,1,1*%
%TO.N,/STM32L151RET6TR/MCO*%
X80199490Y-142742490D03*
%TO.P,Y1,2,2*%
%TO.N,/STM32L151RET6TR/OSM_OUT*%
X88699490Y-142742490D03*
%TD*%
D31*
%TO.P,C3,1*%
%TO.N,VCC*%
X54571500Y-149098000D03*
%TO.P,C3,2*%
%TO.N,GND*%
X57696500Y-149098000D03*
%TD*%
D32*
%TO.P,C4,1*%
%TO.N,VCC*%
X49784000Y-111417500D03*
%TO.P,C4,2*%
%TO.N,GND*%
X49784000Y-108292500D03*
%TD*%
D16*
%TO.P,C5,1*%
%TO.N,Net-(C5-Pad1)*%
X48360500Y-146304000D03*
%TO.P,C5,2*%
%TO.N,Net-(C5-Pad2)*%
X46635500Y-146304000D03*
%TD*%
D17*
%TO.P,C6,1*%
%TO.N,Net-(C6-Pad1)*%
X47006000Y-117729000D03*
%TO.P,C6,2*%
%TO.N,Net-(C6-Pad2)*%
X47006000Y-119454000D03*
%TD*%
D33*
%TO.P,C13,1*%
%TO.N,+3V3*%
X62815000Y-149098000D03*
%TO.P,C13,2*%
%TO.N,GND*%
X59690000Y-149098000D03*
%TD*%
D31*
%TO.P,C34,1*%
%TO.N,+5V*%
X49634500Y-105829500D03*
%TO.P,C34,2*%
%TO.N,GND*%
X52759500Y-105829500D03*
%TD*%
D34*
%TO.P,D7,1,K*%
%TO.N,/OUT3.3*%
X51268000Y-143256000D03*
%TO.P,D7,2,A*%
%TO.N,GND*%
X46268000Y-143256000D03*
%TD*%
D20*
%TO.P,D8,1,K*%
%TO.N,/OUT5.0*%
X43958000Y-114721000D03*
%TO.P,D8,2,A*%
%TO.N,GND*%
X43958000Y-119721000D03*
%TD*%
D35*
%TO.P,L1,1,1*%
%TO.N,/OUT3.3*%
X55154000Y-145034000D03*
%TO.P,L1,2,2*%
%TO.N,+3V3*%
X59654000Y-145034000D03*
%TD*%
D36*
%TO.P,L2,1,1*%
%TO.N,/OUT5.0*%
X45466000Y-110799000D03*
%TO.P,L2,2,2*%
%TO.N,+5V*%
X45466000Y-106299000D03*
%TD*%
D25*
%TO.P,R14,1*%
%TO.N,VCC*%
X52324000Y-154146000D03*
%TO.P,R14,2*%
%TO.N,BUCK_33_EN*%
X52324000Y-152146000D03*
%TD*%
D37*
%TO.P,R15,1*%
%TO.N,VCC*%
X52197000Y-109490000D03*
%TO.P,R15,2*%
%TO.N,BUCK_5_EN*%
X52197000Y-111490000D03*
%TD*%
D25*
%TO.P,R18,1*%
%TO.N,Net-(R18-Pad1)*%
X50292000Y-154162000D03*
%TO.P,R18,2*%
%TO.N,GND*%
X50292000Y-152162000D03*
%TD*%
D23*
%TO.P,R19,1*%
%TO.N,Net-(R19-Pad1)*%
X54848000Y-113792000D03*
%TO.P,R19,2*%
%TO.N,GND*%
X52848000Y-113792000D03*
%TD*%
%TO.P,R23,1*%
%TO.N,/OUT3.3*%
X52292000Y-146304000D03*
%TO.P,R23,2*%
%TO.N,Net-(C5-Pad1)*%
X50292000Y-146304000D03*
%TD*%
D37*
%TO.P,R24,1*%
%TO.N,/OUT5.0*%
X47006000Y-113681000D03*
%TO.P,R24,2*%
%TO.N,Net-(C6-Pad1)*%
X47006000Y-115681000D03*
%TD*%
%TO.P,R25,1*%
%TO.N,Net-(R25-Pad1)*%
X48260000Y-152162000D03*
%TO.P,R25,2*%
%TO.N,Net-(R18-Pad1)*%
X48260000Y-154162000D03*
%TD*%
D24*
%TO.P,R26,1*%
%TO.N,Net-(R26-Pad1)*%
X52848000Y-115951000D03*
%TO.P,R26,2*%
%TO.N,Net-(R19-Pad1)*%
X54848000Y-115951000D03*
%TD*%
D37*
%TO.P,R27,1*%
%TO.N,Net-(R25-Pad1)*%
X46228000Y-152162000D03*
%TO.P,R27,2*%
%TO.N,+3V3*%
X46228000Y-154162000D03*
%TD*%
D24*
%TO.P,R28,1*%
%TO.N,Net-(R26-Pad1)*%
X52848000Y-118110000D03*
%TO.P,R28,2*%
%TO.N,+5V*%
X54848000Y-118110000D03*
%TD*%
D38*
%TO.P,U1,1,BST*%
%TO.N,Net-(C5-Pad2)*%
X48582000Y-148402000D03*
%TO.P,U1,2,GND*%
%TO.N,GND*%
X48582000Y-149352000D03*
%TO.P,U1,3,FB*%
%TO.N,Net-(R25-Pad1)*%
X48582000Y-150302000D03*
%TO.P,U1,4,EN*%
%TO.N,BUCK_33_EN*%
X52002000Y-150302000D03*
%TO.P,U1,5,IN*%
%TO.N,VCC*%
X52002000Y-149352000D03*
%TO.P,U1,6,OUT*%
%TO.N,/OUT3.3*%
X52002000Y-148402000D03*
%TD*%
D39*
%TO.P,U2,1,BST*%
%TO.N,Net-(C6-Pad2)*%
X49104000Y-117407000D03*
%TO.P,U2,2,GND*%
%TO.N,GND*%
X50054000Y-117407000D03*
%TO.P,U2,3,FB*%
%TO.N,Net-(R26-Pad1)*%
X51004000Y-117407000D03*
%TO.P,U2,4,EN*%
%TO.N,BUCK_5_EN*%
X51004000Y-113987000D03*
%TO.P,U2,5,IN*%
%TO.N,VCC*%
X50054000Y-113987000D03*
%TO.P,U2,6,OUT*%
%TO.N,/OUT5.0*%
X49104000Y-113987000D03*
%TD*%
D40*
%TO.P,U3,1,AVDDVCSEL*%
%TO.N,+3V3*%
X124741800Y-132282999D03*
%TO.P,U3,2,AVSSVCSEL*%
%TO.N,GND*%
X124741800Y-131483001D03*
%TO.P,U3,3,GND*%
X124741800Y-130683000D03*
%TO.P,U3,4,GND2*%
X124741800Y-129882999D03*
%TO.P,U3,5,XSHUT*%
%TO.N,XSHUT_0*%
X124741800Y-129083001D03*
D41*
%TO.P,U3,6,GND3*%
%TO.N,GND*%
X125857000Y-129082800D03*
D40*
%TO.P,U3,7,GPIO1*%
%TO.N,GPIOI_0*%
X126972200Y-129083001D03*
%TO.P,U3,8,DNC*%
%TO.N,unconnected-(U3-Pad8)*%
X126972200Y-129882999D03*
%TO.P,U3,9,SDA*%
%TO.N,SDA1*%
X126972200Y-130683000D03*
%TO.P,U3,10,SCL*%
%TO.N,SCL1*%
X126972200Y-131483001D03*
%TO.P,U3,11,AVDD*%
%TO.N,+3V3*%
X126972200Y-132282999D03*
D41*
%TO.P,U3,12,GND4*%
%TO.N,GND*%
X125857000Y-132283200D03*
%TD*%
D40*
%TO.P,U4,1,AVDDVCSEL*%
%TO.N,+3V3*%
X162841800Y-132282999D03*
%TO.P,U4,2,AVSSVCSEL*%
%TO.N,GND*%
X162841800Y-131483001D03*
%TO.P,U4,3,GND*%
X162841800Y-130683000D03*
%TO.P,U4,4,GND2*%
X162841800Y-129882999D03*
%TO.P,U4,5,XSHUT*%
%TO.N,XSHUT_1*%
X162841800Y-129083001D03*
D41*
%TO.P,U4,6,GND3*%
%TO.N,GND*%
X163957000Y-129082800D03*
D40*
%TO.P,U4,7,GPIO1*%
%TO.N,GPIOI_1*%
X165072200Y-129083001D03*
%TO.P,U4,8,DNC*%
%TO.N,unconnected-(U4-Pad8)*%
X165072200Y-129882999D03*
%TO.P,U4,9,SDA*%
%TO.N,SDA1*%
X165072200Y-130683000D03*
%TO.P,U4,10,SCL*%
%TO.N,SCL1*%
X165072200Y-131483001D03*
%TO.P,U4,11,AVDD*%
%TO.N,+3V3*%
X165072200Y-132282999D03*
D41*
%TO.P,U4,12,GND4*%
%TO.N,GND*%
X163957000Y-132283200D03*
%TD*%
D40*
%TO.P,U5,1,AVDDVCSEL*%
%TO.N,+3V3*%
X200306800Y-132282999D03*
%TO.P,U5,2,AVSSVCSEL*%
%TO.N,GND*%
X200306800Y-131483001D03*
%TO.P,U5,3,GND*%
X200306800Y-130683000D03*
%TO.P,U5,4,GND2*%
X200306800Y-129882999D03*
%TO.P,U5,5,XSHUT*%
%TO.N,XSHUT_2*%
X200306800Y-129083001D03*
D41*
%TO.P,U5,6,GND3*%
%TO.N,GND*%
X201422000Y-129082800D03*
D40*
%TO.P,U5,7,GPIO1*%
%TO.N,GPIOI_2*%
X202537200Y-129083001D03*
%TO.P,U5,8,DNC*%
%TO.N,unconnected-(U5-Pad8)*%
X202537200Y-129882999D03*
%TO.P,U5,9,SDA*%
%TO.N,SDA1*%
X202537200Y-130683000D03*
%TO.P,U5,10,SCL*%
%TO.N,SCL1*%
X202537200Y-131483001D03*
%TO.P,U5,11,AVDD*%
%TO.N,+3V3*%
X202537200Y-132282999D03*
D41*
%TO.P,U5,12,GND4*%
%TO.N,GND*%
X201422000Y-132283200D03*
%TD*%
D40*
%TO.P,U8,1,AVDDVCSEL*%
%TO.N,+3V3*%
X238406800Y-132282999D03*
%TO.P,U8,2,AVSSVCSEL*%
%TO.N,GND*%
X238406800Y-131483001D03*
%TO.P,U8,3,GND*%
X238406800Y-130683000D03*
%TO.P,U8,4,GND2*%
X238406800Y-129882999D03*
%TO.P,U8,5,XSHUT*%
%TO.N,XSHUT_3*%
X238406800Y-129083001D03*
D41*
%TO.P,U8,6,GND3*%
%TO.N,GND*%
X239522000Y-129082800D03*
D40*
%TO.P,U8,7,GPIO1*%
%TO.N,GPIOI_3*%
X240637200Y-129083001D03*
%TO.P,U8,8,DNC*%
%TO.N,unconnected-(U8-Pad8)*%
X240637200Y-129882999D03*
%TO.P,U8,9,SDA*%
%TO.N,SDA1*%
X240637200Y-130683000D03*
%TO.P,U8,10,SCL*%
%TO.N,SCL1*%
X240637200Y-131483001D03*
%TO.P,U8,11,AVDD*%
%TO.N,+3V3*%
X240637200Y-132282999D03*
D41*
%TO.P,U8,12,GND4*%
%TO.N,GND*%
X239522000Y-132283200D03*
%TD*%
D10*
%TO.P,J11,1,Pin_1*%
%TO.N,GND*%
X64383490Y-135376490D03*
D11*
%TO.P,J11,2,Pin_2*%
%TO.N,/STM32L151RET6TR/RST*%
X66923490Y-135376490D03*
%TD*%
D10*
%TO.P,J12,1,Pin_1*%
%TO.N,+3V3*%
X64383490Y-131566490D03*
D11*
%TO.P,J12,2,Pin_2*%
%TO.N,/STM32L151RET6TR/BOOT*%
X66923490Y-131566490D03*
%TD*%
D27*
%TO.P,U7,1,VBAT*%
%TO.N,+3V3*%
X81461490Y-135717490D03*
%TO.P,U7,2,PC13*%
%TO.N,BUCK_5_EN*%
X81961490Y-135717490D03*
%TO.P,U7,3,PC14*%
%TO.N,/STM32L151RET6TR/OS32_IN*%
X82461490Y-135717490D03*
%TO.P,U7,4,PC15*%
%TO.N,/STM32L151RET6TR/OS32_OUT*%
X82961490Y-135717490D03*
%TO.P,U7,5,PH0*%
%TO.N,/STM32L151RET6TR/MCO*%
X83461490Y-135717490D03*
%TO.P,U7,6,PH1*%
%TO.N,/STM32L151RET6TR/OSM_OUT*%
X83961490Y-135717490D03*
%TO.P,U7,7,NRST*%
%TO.N,/STM32L151RET6TR/RST*%
X84461490Y-135717490D03*
%TO.P,U7,8,PC0*%
%TO.N,XSHUT_0*%
X84961490Y-135717490D03*
%TO.P,U7,9,PC1*%
%TO.N,XSHUT_1*%
X85461490Y-135717490D03*
%TO.P,U7,10,PC2*%
%TO.N,XSHUT_2*%
X85961490Y-135717490D03*
%TO.P,U7,11,PC3*%
%TO.N,XSHUT_3*%
X86461490Y-135717490D03*
%TO.P,U7,12,VSSA*%
%TO.N,GND*%
X86961490Y-135717490D03*
%TO.P,U7,13,VREF+*%
%TO.N,+3V3*%
X87461490Y-135717490D03*
%TO.P,U7,14,PA0*%
%TO.N,LED_1*%
X87961490Y-135717490D03*
%TO.P,U7,15,PA1*%
%TO.N,LED_2*%
X88461490Y-135717490D03*
%TO.P,U7,16,PA2*%
%TO.N,/STM32L151RET6TR/UART_TX*%
X88961490Y-135717490D03*
D28*
%TO.P,U7,17,PA3*%
%TO.N,/STM32L151RET6TR/UART_RX*%
X90886490Y-133792490D03*
%TO.P,U7,18,VSS*%
%TO.N,GND*%
X90886490Y-133292490D03*
%TO.P,U7,19,VDD*%
%TO.N,+3V3*%
X90886490Y-132792490D03*
%TO.P,U7,20,PA4*%
%TO.N,unconnected-(U7-Pad20)*%
X90886490Y-132292490D03*
%TO.P,U7,21,PA5*%
%TO.N,unconnected-(U7-Pad21)*%
X90886490Y-131792490D03*
%TO.P,U7,22,PA6*%
%TO.N,LED_3*%
X90886490Y-131292490D03*
%TO.P,U7,23,PA7*%
%TO.N,LED_4*%
X90886490Y-130792490D03*
%TO.P,U7,24,PC4*%
%TO.N,unconnected-(U7-Pad24)*%
X90886490Y-130292490D03*
%TO.P,U7,25,PC5*%
%TO.N,unconnected-(U7-Pad25)*%
X90886490Y-129792490D03*
%TO.P,U7,26,PB0*%
%TO.N,LED_5*%
X90886490Y-129292490D03*
%TO.P,U7,27,PB1*%
%TO.N,SW_1*%
X90886490Y-128792490D03*
%TO.P,U7,28,PB2*%
%TO.N,SW_2*%
X90886490Y-128292490D03*
%TO.P,U7,29,PB10*%
%TO.N,/STM32L151RET6TR/PIN29*%
X90886490Y-127792490D03*
%TO.P,U7,30,VCAP1*%
%TO.N,/STM32L151RET6TR/PIN30*%
X90886490Y-127292490D03*
%TO.P,U7,31,VSS*%
%TO.N,GND*%
X90886490Y-126792490D03*
%TO.P,U7,32,VDD*%
%TO.N,+3V3*%
X90886490Y-126292490D03*
D27*
%TO.P,U7,33,PB12*%
%TO.N,GPIOI_0*%
X88961490Y-124367490D03*
%TO.P,U7,34,PB13*%
%TO.N,GPIOI_1*%
X88461490Y-124367490D03*
%TO.P,U7,35,PB14*%
%TO.N,GPIOI_2*%
X87961490Y-124367490D03*
%TO.P,U7,36,PB15*%
%TO.N,GPIOI_3*%
X87461490Y-124367490D03*
%TO.P,U7,37,PC6*%
%TO.N,unconnected-(U7-Pad37)*%
X86961490Y-124367490D03*
%TO.P,U7,38,PC7*%
%TO.N,unconnected-(U7-Pad38)*%
X86461490Y-124367490D03*
%TO.P,U7,39,PC8*%
%TO.N,/STM32L151RET6TR/PC8*%
X85961490Y-124367490D03*
%TO.P,U7,40,PC9*%
%TO.N,SDA2*%
X85461490Y-124367490D03*
%TO.P,U7,41,PA8*%
%TO.N,/STM32L151RET6TR/PIN41*%
X84961490Y-124367490D03*
%TO.P,U7,42,PA9*%
%TO.N,/STM32L151RET6TR/PA9*%
X84461490Y-124367490D03*
%TO.P,U7,43,PA10*%
%TO.N,/STM32L151RET6TR/PA10*%
X83961490Y-124367490D03*
%TO.P,U7,44,PA11*%
%TO.N,/STM32L151RET6TR/FTDI_CTS*%
X83461490Y-124367490D03*
%TO.P,U7,45,PA12*%
%TO.N,/STM32L151RET6TR/FTDI_RTS*%
X82961490Y-124367490D03*
%TO.P,U7,46,PA13*%
%TO.N,/STM32L151RET6TR/SWDAT*%
X82461490Y-124367490D03*
%TO.P,U7,47,VSS*%
%TO.N,GND*%
X81961490Y-124367490D03*
%TO.P,U7,48,VDD*%
%TO.N,+3V3*%
X81461490Y-124367490D03*
D28*
%TO.P,U7,49,PA14*%
%TO.N,/STM32L151RET6TR/SWCLK*%
X79536490Y-126292490D03*
%TO.P,U7,50,PA15*%
%TO.N,unconnected-(U7-Pad50)*%
X79536490Y-126792490D03*
%TO.P,U7,51,PC10*%
%TO.N,unconnected-(U7-Pad51)*%
X79536490Y-127292490D03*
%TO.P,U7,52,PC11*%
%TO.N,unconnected-(U7-Pad52)*%
X79536490Y-127792490D03*
%TO.P,U7,53,PC12*%
%TO.N,unconnected-(U7-Pad53)*%
X79536490Y-128292490D03*
%TO.P,U7,54,PD2*%
%TO.N,unconnected-(U7-Pad54)*%
X79536490Y-128792490D03*
%TO.P,U7,55,PB3*%
%TO.N,/STM32L151RET6TR/SW0*%
X79536490Y-129292490D03*
%TO.P,U7,56,PB4*%
%TO.N,unconnected-(U7-Pad56)*%
X79536490Y-129792490D03*
%TO.P,U7,57,PB5*%
%TO.N,unconnected-(U7-Pad57)*%
X79536490Y-130292490D03*
%TO.P,U7,58,PB6*%
%TO.N,/STM32L151RET6TR/FTDI_TXD*%
X79536490Y-130792490D03*
%TO.P,U7,59,PB7*%
%TO.N,/STM32L151RET6TR/FTDI_RXD*%
X79536490Y-131292490D03*
%TO.P,U7,60,BOOT0*%
%TO.N,/STM32L151RET6TR/BOOT*%
X79536490Y-131792490D03*
%TO.P,U7,61,PB8*%
%TO.N,SCL1*%
X79536490Y-132292490D03*
%TO.P,U7,62,PB9*%
%TO.N,SDA1*%
X79536490Y-132792490D03*
%TO.P,U7,63,VSS*%
%TO.N,GND*%
X79536490Y-133292490D03*
%TO.P,U7,64,VDD*%
%TO.N,+3V3*%
X79536490Y-133792490D03*
%TD*%
D42*
%TO.P,C43,1*%
%TO.N,VCC*%
X59436000Y-110992000D03*
%TO.P,C43,2*%
%TO.N,GND*%
X59436000Y-116592000D03*
%TD*%
D43*
%TO.N,+3V3*%
X151638000Y-125730000D03*
%TO.N,GND*%
X93339490Y-125724490D03*
X203291000Y-134148000D03*
X243078000Y-129667000D03*
X99943490Y-120390490D03*
X241391000Y-134148000D03*
X165191000Y-134148000D03*
X126492000Y-148590000D03*
X129032000Y-148590000D03*
X50038000Y-119126000D03*
X60960000Y-116586000D03*
X56769000Y-152146000D03*
X131572000Y-148590000D03*
X127726000Y-110399000D03*
X92202000Y-135640500D03*
X82417490Y-122803490D03*
X51816000Y-107569000D03*
X200751000Y-134148000D03*
X58547000Y-153289000D03*
X120650000Y-125730000D03*
X60325000Y-152146000D03*
X192024000Y-131064000D03*
X139700000Y-121539000D03*
X123952000Y-148590000D03*
X160453750Y-129224652D03*
X125186000Y-110399000D03*
X154432000Y-124968000D03*
X130266000Y-135164000D03*
X51308000Y-105029000D03*
X57912000Y-115570000D03*
X120142000Y-148590000D03*
X193548000Y-130048000D03*
X119888000Y-137160000D03*
X45847000Y-149352000D03*
X77337490Y-135376490D03*
X45720000Y-117856000D03*
X122428000Y-132334000D03*
X156972000Y-122936000D03*
X83629500Y-148145500D03*
X79115490Y-134868490D03*
X45847000Y-147955000D03*
X127726000Y-135164000D03*
X130266000Y-110399000D03*
X45212000Y-122428000D03*
X225679000Y-130302000D03*
X58547000Y-152146000D03*
X45720000Y-119888000D03*
X50292000Y-150876000D03*
X227330000Y-131699000D03*
X162687000Y-134112000D03*
X154432000Y-122174000D03*
X237236000Y-128573000D03*
X126619000Y-133223000D03*
X47371000Y-141478000D03*
X238851000Y-134148000D03*
X138176000Y-122936000D03*
X56769000Y-151003000D03*
X189484000Y-131572000D03*
X46863000Y-149352000D03*
X233807000Y-140970000D03*
X45720000Y-118872000D03*
X58547000Y-154432000D03*
X157607000Y-140843000D03*
X50292000Y-149860000D03*
X44831000Y-141478000D03*
X205232000Y-129540000D03*
X50038000Y-120142000D03*
X205831000Y-134148000D03*
X51435000Y-120142000D03*
X46101000Y-141478000D03*
X195580000Y-141224000D03*
X85280500Y-148145500D03*
X243931000Y-134148000D03*
X70225490Y-141980490D03*
X60960000Y-117602000D03*
X123190000Y-126492000D03*
X163957000Y-131318000D03*
X43180000Y-122428000D03*
X125222000Y-133223000D03*
X73279000Y-143510000D03*
X60325000Y-151003000D03*
X239522000Y-127889000D03*
X86481490Y-133852490D03*
X50038000Y-115697000D03*
X163957000Y-128016000D03*
X84449490Y-148584490D03*
X108817490Y-127248490D03*
X231140000Y-129794000D03*
X201514688Y-127669312D03*
X119634000Y-112268000D03*
X141351000Y-121666000D03*
X46863000Y-150749000D03*
X57912000Y-117602000D03*
X45847000Y-150749000D03*
X167259000Y-129540000D03*
X57912000Y-116586000D03*
X81147490Y-133090490D03*
X197612000Y-129540000D03*
X51435000Y-119126000D03*
X235966000Y-129667000D03*
X51308000Y-106172000D03*
X53848000Y-112522000D03*
X187452000Y-130048000D03*
X89021490Y-130042490D03*
X60960000Y-115570000D03*
X241808000Y-128524000D03*
X125186000Y-135164000D03*
X48641000Y-119126000D03*
X47371000Y-145034000D03*
X44831000Y-145034000D03*
X58547000Y-151003000D03*
X44196000Y-122428000D03*
X94234000Y-133985000D03*
X46101000Y-145034000D03*
X48641000Y-120142000D03*
X90551000Y-134874000D03*
X229743000Y-131064000D03*
X125984000Y-127508000D03*
X71718000Y-140626000D03*
X79623490Y-125343490D03*
X167731000Y-134148000D03*
X52832000Y-107569000D03*
X163940743Y-130048956D03*
X46863000Y-147955000D03*
X70225490Y-134868490D03*
X81401490Y-117977490D03*
%TO.N,VCC*%
X55245000Y-151765000D03*
X55245000Y-150749000D03*
X54229000Y-151765000D03*
X57277000Y-129584000D03*
X57277000Y-127552000D03*
X57277000Y-128568000D03*
X54229000Y-150749000D03*
X57277000Y-126536000D03*
%TO.N,+3V3*%
X243078000Y-131826000D03*
X73533000Y-118872000D03*
X119634000Y-110871000D03*
X63500000Y-146558000D03*
X104394000Y-119088500D03*
X61976000Y-142748000D03*
X87497490Y-133852490D03*
X61976000Y-145288000D03*
X204978000Y-131445000D03*
X61976000Y-144018000D03*
X167767000Y-132207000D03*
X61976000Y-146558000D03*
X94234000Y-132969000D03*
X90886490Y-125303490D03*
X160655000Y-131572000D03*
X128214700Y-132287298D03*
X81829488Y-128010490D03*
X83941490Y-130804490D03*
X224282000Y-124968000D03*
X63500000Y-145288000D03*
X197993000Y-131445000D03*
X119380000Y-147320000D03*
X63500000Y-142748000D03*
X119634000Y-109728000D03*
X123444000Y-132334000D03*
X136398000Y-124333000D03*
X137160000Y-125095000D03*
X63500000Y-144018000D03*
X119888000Y-135636000D03*
X97282000Y-118364000D03*
X188722000Y-124968000D03*
X67564000Y-141732000D03*
X187198000Y-124968000D03*
X82671490Y-120898490D03*
X81020490Y-134233490D03*
X92583000Y-119634000D03*
X225933000Y-124968000D03*
X235966000Y-131445000D03*
X119888000Y-134620000D03*
X152654000Y-126746000D03*
X119380000Y-145796000D03*
%TO.N,XSHUT_1*%
X162687000Y-136398000D03*
X138938000Y-135636000D03*
X94107000Y-140462000D03*
X125222000Y-148590000D03*
X161544000Y-127635000D03*
X138938000Y-138938000D03*
%TO.N,GPIOI_1*%
X158988951Y-129809049D03*
X122682000Y-148590000D03*
X113792000Y-138176000D03*
X137922000Y-138938000D03*
X160020000Y-136398000D03*
X88512206Y-125761490D03*
X162941000Y-127635000D03*
X137922000Y-136100972D03*
%TO.N,XSHUT_2*%
X111125000Y-137414000D03*
X94996000Y-139827000D03*
X110998000Y-140799219D03*
X198628000Y-126365000D03*
X200787000Y-136398000D03*
X125222000Y-117348000D03*
%TO.N,GPIOI_2*%
X199009000Y-128248020D03*
X198247000Y-136398000D03*
X202565000Y-127762000D03*
X122682000Y-117348000D03*
%TO.N,XSHUT_0*%
X129032000Y-127000000D03*
X93218000Y-139827000D03*
X116332000Y-139827000D03*
%TO.N,GPIOI_0*%
X131318000Y-127000000D03*
X113792000Y-137033000D03*
X89910490Y-124454490D03*
%TO.N,LED_3*%
X99689490Y-127250501D03*
X91053490Y-121914490D03*
%TO.N,LED_4*%
X91246503Y-120715508D03*
X99933042Y-125051500D03*
%TO.N,LED_5*%
X91206489Y-119645186D03*
X99943490Y-122676490D03*
%TO.N,LED_1*%
X89783490Y-123184490D03*
X100064501Y-131820490D03*
%TO.N,LED_2*%
X91053490Y-123184490D03*
X99696679Y-128249978D03*
%TO.N,SW_1*%
X106299000Y-118364000D03*
X109474000Y-140843000D03*
X109347000Y-128905000D03*
X109347000Y-137414000D03*
%TO.N,SW_2*%
X110236000Y-141605000D03*
X94872692Y-119107607D03*
X110236000Y-136906000D03*
%TO.N,+5V*%
X56261000Y-118110000D03*
X45974000Y-108331000D03*
X43942000Y-108331000D03*
X46990000Y-108331000D03*
X44958000Y-108331000D03*
%TO.N,/STM32L151RET6TR/BOOT*%
X75559490Y-132074490D03*
%TO.N,/STM32L151RET6TR/RST*%
X84957490Y-138170490D03*
%TO.N,SCL1*%
X127762000Y-154686000D03*
X69463490Y-132836490D03*
X203327000Y-136398000D03*
X127762000Y-137414000D03*
X241427000Y-136398000D03*
X165227000Y-136398000D03*
%TO.N,SDA1*%
X205867000Y-136398000D03*
X167767000Y-136398000D03*
X70225490Y-130296490D03*
X131572000Y-137795000D03*
X69468143Y-133857143D03*
X243967000Y-136398000D03*
X130302000Y-153416000D03*
%TO.N,/STM32L151RET6TR/FTDI_RTS*%
X81655490Y-130550490D03*
X80131490Y-123438490D03*
%TO.N,/STM32L151RET6TR/FTDI_CTS*%
X81909490Y-131566490D03*
%TO.N,/STM32L151RET6TR/SW0*%
X69209490Y-125724490D03*
X74797490Y-125724490D03*
%TO.N,SCL2*%
X68701490Y-114548490D03*
X84703490Y-121914490D03*
%TO.N,SDA2*%
X85186510Y-119995408D03*
X71241490Y-114548490D03*
%TO.N,/STM32L151RET6TR/PIN41*%
X84957490Y-125978490D03*
%TO.N,/STM32L151RET6TR/PIN29*%
X88005490Y-130042490D03*
%TO.N,/STM32L151RET6TR/PIN30*%
X86989490Y-130042490D03*
%TO.N,/STM32L151RET6TR/PC8*%
X73781490Y-114548490D03*
%TO.N,/STM32L151RET6TR/PA9*%
X66161490Y-114548490D03*
%TO.N,/STM32L151RET6TR/PA10*%
X63621490Y-114294490D03*
%TO.N,BUCK_5_EN*%
X82163490Y-134106490D03*
X75311000Y-113157000D03*
X53848000Y-111506000D03*
X61468000Y-110998000D03*
%TO.N,XSHUT_3*%
X95885000Y-140462000D03*
X238887000Y-136271000D03*
X125222000Y-141986000D03*
X236601000Y-126492000D03*
%TO.N,GPIOI_3*%
X233246989Y-129667000D03*
X236347000Y-136144000D03*
X240538000Y-127889000D03*
X87713990Y-126492000D03*
X122682000Y-141986000D03*
%TD*%
D44*
%TO.N,GPIOI_1*%
X147828000Y-134620000D02*
X148658520Y-135450520D01*
X148658520Y-135450520D02*
X158310520Y-135450520D01*
X158310520Y-135450520D02*
X159258000Y-136398000D01*
X138181539Y-136360511D02*
X139238103Y-136360511D01*
X139238103Y-136360511D02*
X140978614Y-134620000D01*
X140978614Y-134620000D02*
X147828000Y-134620000D01*
X137922000Y-136100972D02*
X138181539Y-136360511D01*
X159258000Y-136398000D02*
X160020000Y-136398000D01*
%TO.N,XSHUT_1*%
X159512000Y-135636000D02*
X159131000Y-135255000D01*
X161925000Y-135636000D02*
X159512000Y-135636000D01*
X158877000Y-135001000D02*
X159131000Y-134747000D01*
X159131000Y-134747000D02*
X159131000Y-135001000D01*
X159131000Y-131572000D02*
X159131000Y-134747000D01*
X158877000Y-135001000D02*
X159131000Y-135255000D01*
X158623000Y-135001000D02*
X158877000Y-135001000D01*
X159131000Y-135001000D02*
X159131000Y-135255000D01*
X158623000Y-135001000D02*
X159131000Y-135001000D01*
X148844718Y-135001000D02*
X158623000Y-135001000D01*
X148014198Y-134170480D02*
X148844718Y-135001000D01*
X140403520Y-134170480D02*
X148014198Y-134170480D01*
X138938000Y-135636000D02*
X140403520Y-134170480D01*
%TO.N,XSHUT_2*%
X125222000Y-119194588D02*
X125222000Y-117348000D01*
X134204706Y-128177294D02*
X125222000Y-119194588D01*
X134204706Y-133822296D02*
X134204706Y-128177294D01*
X137208382Y-136825972D02*
X134204706Y-133822296D01*
X178979771Y-137122511D02*
X149188229Y-137122511D01*
X140392274Y-136825972D02*
X137208382Y-136825972D01*
X179899802Y-136202480D02*
X178979771Y-137122511D01*
X189425520Y-136202480D02*
X179899802Y-136202480D01*
X149188229Y-137122511D02*
X148268197Y-136202480D01*
X148268197Y-136202480D02*
X141015766Y-136202480D01*
X141015766Y-136202480D02*
X140392274Y-136825972D01*
X194691000Y-130937000D02*
X189425520Y-136202480D01*
%TO.N,GPIOI_2*%
X197993000Y-136652000D02*
X198247000Y-136398000D01*
X180086000Y-136652000D02*
X197993000Y-136652000D01*
X179165969Y-137572031D02*
X180086000Y-136652000D01*
X149002031Y-137572031D02*
X179165969Y-137572031D01*
X148082000Y-136652000D02*
X149002031Y-137572031D01*
X140577982Y-137275982D02*
X141201964Y-136652000D01*
X133604000Y-133858000D02*
X137021982Y-137275982D01*
X133604000Y-128212998D02*
X133604000Y-133858000D01*
X137021982Y-137275982D02*
X140577982Y-137275982D01*
X141201964Y-136652000D02*
X148082000Y-136652000D01*
X122739002Y-117348000D02*
X133604000Y-128212998D01*
X122682000Y-117348000D02*
X122739002Y-117348000D01*
%TO.N,XSHUT_3*%
X226128520Y-138234480D02*
X229616000Y-134747000D01*
X140647708Y-137725990D02*
X141156198Y-138234480D01*
X135763000Y-138811000D02*
X136848010Y-137725990D01*
X229616000Y-134747000D02*
X230886000Y-134747000D01*
X128397000Y-138811000D02*
X135763000Y-138811000D01*
X136848010Y-137725990D02*
X140647708Y-137725990D01*
X125222000Y-141986000D02*
X128397000Y-138811000D01*
X141156198Y-138234480D02*
X226128520Y-138234480D01*
%TO.N,GPIOI_3*%
X140970000Y-138684000D02*
X226396142Y-138684000D01*
X228936142Y-136144000D02*
X226863071Y-138217071D01*
X226396142Y-138684000D02*
X226863071Y-138217071D01*
X140462000Y-138176000D02*
X140970000Y-138684000D01*
X138938000Y-138176000D02*
X137034410Y-138176000D01*
X140462000Y-138176000D02*
X138938000Y-138176000D01*
D45*
%TO.N,GND*%
X239522000Y-132283200D02*
X239522000Y-133477000D01*
D44*
X124741800Y-129882999D02*
X125437999Y-129882999D01*
X86961490Y-134389492D02*
X86481490Y-133909492D01*
X83439000Y-147955000D02*
X83629500Y-148145500D01*
D45*
X201422000Y-133477000D02*
X200751000Y-134148000D01*
D44*
X70269490Y-140024490D02*
X70269490Y-141936490D01*
X124741800Y-131483001D02*
X125437999Y-131483001D01*
X200306800Y-129882999D02*
X201079001Y-129882999D01*
X83433490Y-146806490D02*
X83439000Y-146812000D01*
X91727192Y-126792490D02*
X92323490Y-126196192D01*
X125857000Y-132588000D02*
X125222000Y-133223000D01*
X91509490Y-133292490D02*
X91534480Y-133317480D01*
X92323490Y-124655490D02*
X94154490Y-124655490D01*
D45*
X107293490Y-131820490D02*
X107293490Y-129552490D01*
D44*
X81961490Y-124367490D02*
X81961490Y-123259490D01*
X163957000Y-132283200D02*
X163957000Y-131798200D01*
X83439000Y-146812000D02*
X83439000Y-147955000D01*
X78353490Y-136392490D02*
X78353490Y-135630490D01*
X125857000Y-132283200D02*
X125857000Y-131826000D01*
X163957000Y-129082800D02*
X163957000Y-129567800D01*
X201295000Y-131699000D02*
X201422000Y-131699000D01*
D45*
X50054000Y-117407000D02*
X50054000Y-115713000D01*
D44*
X125857000Y-130683000D02*
X125857000Y-130302000D01*
D45*
X107311490Y-124962490D02*
X107311490Y-122685490D01*
X239522000Y-131064000D02*
X239522000Y-131445000D01*
D44*
X85465490Y-147960510D02*
X85280500Y-148145500D01*
D45*
X52848000Y-113792000D02*
X52848000Y-112887000D01*
D44*
X125437999Y-131483001D02*
X125857000Y-131064000D01*
X163957000Y-130032699D02*
X163940743Y-130048956D01*
X201079001Y-129882999D02*
X201129999Y-129882999D01*
X73172990Y-134614490D02*
X72479490Y-134614490D01*
D45*
X239522000Y-131445000D02*
X239522000Y-131953000D01*
X239522000Y-129921000D02*
X239522000Y-130302000D01*
X239522000Y-131953000D02*
X239522000Y-132283200D01*
D44*
X90886490Y-133292490D02*
X91509490Y-133292490D01*
X162841800Y-130683000D02*
X163703000Y-130683000D01*
D45*
X239522000Y-129413000D02*
X239522000Y-129921000D01*
X50292000Y-152162000D02*
X50292000Y-150876000D01*
X200306800Y-129882999D02*
X201333001Y-129882999D01*
D44*
X201079001Y-131483001D02*
X201295000Y-131699000D01*
D45*
X239522000Y-129082800D02*
X239522000Y-127889000D01*
D44*
X239179001Y-129882999D02*
X239483999Y-129882999D01*
X238406800Y-129882999D02*
X239179001Y-129882999D01*
D45*
X201422000Y-129794000D02*
X201422000Y-129540000D01*
X201422000Y-131699000D02*
X201422000Y-131064000D01*
D44*
X125476000Y-130683000D02*
X125857000Y-131064000D01*
X239395000Y-130683000D02*
X239522000Y-130810000D01*
X125768001Y-129882999D02*
X125857000Y-129794000D01*
D45*
X163957000Y-132842000D02*
X162687000Y-134112000D01*
D44*
X125476000Y-130683000D02*
X125857000Y-130302000D01*
X125857000Y-129794000D02*
X125857000Y-129540000D01*
D45*
X52848000Y-112887000D02*
X53213000Y-112522000D01*
D44*
X94165510Y-134053490D02*
X94234000Y-133985000D01*
X73326490Y-142234490D02*
X73326490Y-143462510D01*
X162841800Y-131483001D02*
X163791999Y-131483001D01*
D45*
X201422000Y-131064000D02*
X201422000Y-130810000D01*
D44*
X73326490Y-143462510D02*
X73279000Y-143510000D01*
X92323490Y-124708490D02*
X93339490Y-125724490D01*
X101245490Y-120390490D02*
X99943490Y-120390490D01*
X238406800Y-130683000D02*
X239395000Y-130683000D01*
D45*
X163957000Y-130065213D02*
X163957000Y-129082800D01*
D44*
X85465490Y-146806490D02*
X85465490Y-147960510D01*
X239052001Y-131483001D02*
X239522000Y-131953000D01*
X124741800Y-130683000D02*
X125857000Y-130683000D01*
X163957000Y-131318000D02*
X163957000Y-130937000D01*
D45*
X197954999Y-129882999D02*
X197612000Y-129540000D01*
D44*
X125857000Y-131826000D02*
X125857000Y-131572000D01*
X125514001Y-129882999D02*
X125857000Y-129540000D01*
D45*
X49784000Y-149352000D02*
X48582000Y-149352000D01*
D44*
X125857000Y-127635000D02*
X125984000Y-127508000D01*
D45*
X107311490Y-129534490D02*
X107311490Y-127248490D01*
D44*
X239522000Y-129540000D02*
X239522000Y-129413000D01*
X201079001Y-131483001D02*
X201422000Y-131140002D01*
X94355490Y-120390490D02*
X95631000Y-121666000D01*
D45*
X163957000Y-132283200D02*
X163957000Y-132914000D01*
X201422000Y-130810000D02*
X201422000Y-130175000D01*
D44*
X90886490Y-126792490D02*
X91727192Y-126792490D01*
X84841510Y-148584490D02*
X84449490Y-148584490D01*
D45*
X201422000Y-132283200D02*
X201422000Y-131699000D01*
D44*
X70269490Y-140024490D02*
X71116490Y-140024490D01*
D45*
X50054000Y-115713000D02*
X50038000Y-115697000D01*
D44*
X200306800Y-131483001D02*
X201079001Y-131483001D01*
X125437999Y-129882999D02*
X125857000Y-130302000D01*
X239179001Y-129882999D02*
X239179001Y-129959001D01*
X163703000Y-130683000D02*
X163957000Y-130429000D01*
D45*
X163957000Y-131318000D02*
X163957000Y-132842000D01*
X107311490Y-122685490D02*
X107302490Y-122676490D01*
D44*
X70269490Y-136824490D02*
X70269490Y-134912490D01*
D45*
X163957000Y-132914000D02*
X165191000Y-134148000D01*
D44*
X93085490Y-134053490D02*
X94165510Y-134053490D01*
X124741800Y-131483001D02*
X125514001Y-131483001D01*
X86481490Y-133909492D02*
X86481490Y-133852490D01*
X163774786Y-129882999D02*
X163940743Y-130048956D01*
D45*
X107311490Y-127248490D02*
X108817490Y-127248490D01*
D44*
X83433490Y-146806490D02*
X85465490Y-146806490D01*
X238406800Y-131483001D02*
X239102999Y-131483001D01*
X71116490Y-140024490D02*
X71718000Y-140626000D01*
X163957000Y-130429000D02*
X163957000Y-130065213D01*
X83629500Y-148145500D02*
X84068490Y-148584490D01*
D45*
X50292000Y-149860000D02*
X49784000Y-149352000D01*
D44*
X94154490Y-124655490D02*
X94355490Y-124454490D01*
D45*
X201422000Y-129082800D02*
X201422000Y-127762000D01*
D44*
X72479490Y-134614490D02*
X70269490Y-136824490D01*
X125857000Y-131572000D02*
X125857000Y-131064000D01*
X92323490Y-126196192D02*
X92323490Y-124655490D01*
D45*
X163957000Y-130065213D02*
X163940743Y-130048956D01*
D44*
X201041000Y-130683000D02*
X201295000Y-130429000D01*
X201079001Y-129882999D02*
X201333001Y-129882999D01*
X239179001Y-129959001D02*
X239522000Y-130302000D01*
X163703000Y-130683000D02*
X163957000Y-130937000D01*
X201041000Y-130683000D02*
X201422000Y-131064000D01*
D45*
X239522000Y-130302000D02*
X239522000Y-130810000D01*
D44*
X201079001Y-129882999D02*
X201422000Y-129540000D01*
X201129999Y-129882999D02*
X201422000Y-130175000D01*
X92349480Y-133317480D02*
X93085490Y-134053490D01*
X201295000Y-130429000D02*
X201295000Y-130302000D01*
D45*
X50292000Y-150876000D02*
X50292000Y-149860000D01*
D44*
X124741800Y-129882999D02*
X125514001Y-129882999D01*
X95631000Y-123178980D02*
X94355490Y-124454490D01*
X163957000Y-132283200D02*
X163957000Y-132842000D01*
X124741800Y-129882999D02*
X125768001Y-129882999D01*
X81961490Y-123259490D02*
X82417490Y-122803490D01*
X125857000Y-132461000D02*
X126619000Y-133223000D01*
X71718000Y-140626000D02*
X73326490Y-142234490D01*
X163957000Y-130937000D02*
X163957000Y-130429000D01*
X124741800Y-130683000D02*
X125476000Y-130683000D01*
D45*
X163957000Y-129082800D02*
X163957000Y-128016000D01*
D44*
X238406800Y-131483001D02*
X239052001Y-131483001D01*
X125857000Y-129540000D02*
X125857000Y-129082800D01*
X239141000Y-131445000D02*
X239102999Y-131483001D01*
X79536490Y-133292490D02*
X80945490Y-133292490D01*
X95631000Y-121666000D02*
X95631000Y-123178980D01*
X70269490Y-134912490D02*
X70225490Y-134868490D01*
X239102999Y-131483001D02*
X239522000Y-131064000D01*
X70269490Y-141936490D02*
X70225490Y-141980490D01*
X78353490Y-135630490D02*
X79115490Y-134868490D01*
X124741800Y-131483001D02*
X125768001Y-131483001D01*
X239522000Y-131445000D02*
X239141000Y-131445000D01*
X239483999Y-129882999D02*
X239522000Y-129921000D01*
X200306800Y-130683000D02*
X201041000Y-130683000D01*
X91534480Y-133317480D02*
X92349480Y-133317480D01*
D45*
X107311490Y-127248490D02*
X107311490Y-124962490D01*
D44*
X239179001Y-129882999D02*
X239522000Y-129540000D01*
D45*
X201422000Y-127762000D02*
X201514688Y-127669312D01*
D44*
X80945490Y-133292490D02*
X81147490Y-133090490D01*
X163957000Y-129082800D02*
X163957000Y-130032699D01*
X125768001Y-131483001D02*
X125857000Y-131572000D01*
X84068490Y-148584490D02*
X84449490Y-148584490D01*
D45*
X163957000Y-132283200D02*
X163957000Y-131318000D01*
D44*
X163791999Y-131483001D02*
X163957000Y-131318000D01*
D45*
X200306800Y-129882999D02*
X197954999Y-129882999D01*
D44*
X125857000Y-132283200D02*
X125857000Y-132588000D01*
X92323490Y-124655490D02*
X92323490Y-124708490D01*
D45*
X239522000Y-133477000D02*
X238851000Y-134148000D01*
D44*
X125857000Y-129082800D02*
X125857000Y-127635000D01*
X125514001Y-131483001D02*
X125857000Y-131826000D01*
D45*
X239522000Y-129082800D02*
X239522000Y-129413000D01*
X201422000Y-129540000D02*
X201422000Y-129082800D01*
X107293490Y-129552490D02*
X107311490Y-129534490D01*
D44*
X85280500Y-148145500D02*
X84841510Y-148584490D01*
X125857000Y-131064000D02*
X125857000Y-130683000D01*
X125857000Y-132283200D02*
X125857000Y-132461000D01*
X201422000Y-131140002D02*
X201422000Y-131064000D01*
D45*
X201422000Y-130175000D02*
X201422000Y-129794000D01*
D44*
X201295000Y-130302000D02*
X201422000Y-130175000D01*
D45*
X53213000Y-112522000D02*
X53848000Y-112522000D01*
D44*
X162841800Y-129882999D02*
X163774786Y-129882999D01*
D45*
X201333001Y-129882999D02*
X201422000Y-129794000D01*
D44*
X78353490Y-138170490D02*
X78353490Y-136392490D01*
D45*
X201422000Y-132283200D02*
X201422000Y-133477000D01*
D44*
X125857000Y-130302000D02*
X125857000Y-129794000D01*
X86961490Y-135717490D02*
X86961490Y-134389492D01*
D45*
X163957000Y-131318000D02*
X163957000Y-130065213D01*
X239522000Y-130810000D02*
X239522000Y-131064000D01*
D46*
%TO.N,VCC*%
X62159511Y-113715511D02*
X59436000Y-110992000D01*
X57277000Y-128568000D02*
X57277000Y-127552000D01*
X57934000Y-109490000D02*
X52197000Y-109490000D01*
X62159511Y-121653489D02*
X62159511Y-113715511D01*
X57277000Y-126536000D02*
X62159511Y-121653489D01*
X57277000Y-129584000D02*
X57277000Y-128568000D01*
X59436000Y-110992000D02*
X57934000Y-109490000D01*
X57277000Y-126536000D02*
X57277000Y-127552000D01*
D44*
%TO.N,+3V3*%
X90886490Y-125303490D02*
X90886490Y-124759480D01*
X81020490Y-134233490D02*
X80579490Y-133792490D01*
X81461490Y-136787490D02*
X81461490Y-135717490D01*
D45*
X62865000Y-156210000D02*
X64008000Y-155067000D01*
D44*
X103033000Y-114264000D02*
X103033000Y-118275000D01*
X104394000Y-118618000D02*
X104394000Y-119088500D01*
X64891490Y-141356510D02*
X63500000Y-142748000D01*
X97282000Y-118364000D02*
X96264000Y-118364000D01*
X90886490Y-132792490D02*
X92621490Y-132792490D01*
X92323490Y-122930490D02*
X92329000Y-122936000D01*
X81461490Y-122108490D02*
X82671490Y-120898490D01*
X93593490Y-132328490D02*
X94234000Y-132969000D01*
X96175000Y-118275000D02*
X93942000Y-118275000D01*
X87461490Y-133888490D02*
X87497490Y-133852490D01*
X92329000Y-122936000D02*
X92964000Y-122936000D01*
X90886490Y-124759480D02*
X92323490Y-123322480D01*
X92621490Y-132792490D02*
X93085490Y-132328490D01*
X81461490Y-124367490D02*
X81461490Y-122108490D01*
X67177490Y-141345490D02*
X67564000Y-141732000D01*
X128210401Y-132282999D02*
X128214700Y-132287298D01*
D45*
X161365999Y-132282999D02*
X162841800Y-132282999D01*
D44*
X80753490Y-135717490D02*
X80078490Y-136392490D01*
D45*
X47117000Y-156210000D02*
X62865000Y-156210000D01*
D44*
X93942000Y-118275000D02*
X92583000Y-119634000D01*
X103033000Y-118275000D02*
X104051000Y-118275000D01*
X67177490Y-140424490D02*
X67177490Y-141345490D01*
D45*
X202537200Y-132282999D02*
X204140001Y-132282999D01*
X64008000Y-151638000D02*
X62815000Y-150445000D01*
D44*
X92964000Y-122936000D02*
X93520510Y-122379490D01*
X80078490Y-138170490D02*
X81461490Y-136787490D01*
X87461490Y-135717490D02*
X87461490Y-133888490D01*
D45*
X200306800Y-132282999D02*
X198830999Y-132282999D01*
D44*
X104051000Y-118275000D02*
X104394000Y-118618000D01*
X96175000Y-110325000D02*
X96175000Y-118275000D01*
D45*
X46228000Y-155321000D02*
X47117000Y-156210000D01*
D44*
X103033000Y-110325000D02*
X103033000Y-114264000D01*
D45*
X167691001Y-132282999D02*
X167767000Y-132207000D01*
X236803999Y-132282999D02*
X238406800Y-132282999D01*
X235966000Y-131445000D02*
X236803999Y-132282999D01*
X204140001Y-132282999D02*
X204978000Y-131445000D01*
X165072200Y-132282999D02*
X167691001Y-132282999D01*
D44*
X126972200Y-132282999D02*
X128210401Y-132282999D01*
X81461490Y-134674490D02*
X81020490Y-134233490D01*
X90886490Y-126292490D02*
X90886490Y-125303490D01*
X93085490Y-132328490D02*
X93593490Y-132328490D01*
D45*
X160655000Y-131572000D02*
X161365999Y-132282999D01*
X64008000Y-155067000D02*
X64008000Y-151638000D01*
D44*
X81461490Y-135717490D02*
X81461490Y-134674490D01*
X81461490Y-135717490D02*
X80753490Y-135717490D01*
X92323490Y-123322480D02*
X92323490Y-122930490D01*
X124741800Y-132282999D02*
X123495001Y-132282999D01*
X123495001Y-132282999D02*
X123444000Y-132334000D01*
D45*
X243078000Y-131826000D02*
X242621001Y-132282999D01*
D44*
X64891490Y-140424490D02*
X64891490Y-141356510D01*
D45*
X198830999Y-132282999D02*
X197993000Y-131445000D01*
D44*
X96355490Y-118273490D02*
X96351490Y-118269490D01*
D45*
X62815000Y-150445000D02*
X62815000Y-149098000D01*
X46228000Y-154162000D02*
X46228000Y-155321000D01*
D44*
X80579490Y-133792490D02*
X79536490Y-133792490D01*
X94355490Y-122379490D02*
X93520510Y-122379490D01*
D45*
X242621001Y-132282999D02*
X240637200Y-132282999D01*
D44*
%TO.N,XSHUT_1*%
X93921520Y-138752520D02*
X87248934Y-138752520D01*
X162687000Y-136398000D02*
X161925000Y-135636000D01*
X161619999Y-129083001D02*
X161480500Y-129222500D01*
X161544000Y-127635000D02*
X161544000Y-129159000D01*
X94107000Y-138938000D02*
X93921520Y-138752520D01*
X161544000Y-129159000D02*
X161480500Y-129222500D01*
X132645685Y-145796000D02*
X128016000Y-145796000D01*
X161480500Y-129222500D02*
X159131000Y-131572000D01*
X138938000Y-138938000D02*
X138938000Y-139503685D01*
X128016000Y-145796000D02*
X125222000Y-148590000D01*
X87248934Y-138752520D02*
X85461490Y-136965076D01*
X94107000Y-140462000D02*
X94107000Y-138938000D01*
X138938000Y-139503685D02*
X132645685Y-145796000D01*
X162841800Y-129083001D02*
X161619999Y-129083001D01*
X85461490Y-136965076D02*
X85461490Y-135717490D01*
%TO.N,GPIOI_1*%
X161243897Y-126910489D02*
X162216489Y-126910489D01*
X163284511Y-127291489D02*
X162941000Y-127635000D01*
X75750489Y-108770489D02*
X73914000Y-106934000D01*
X113792000Y-138176000D02*
X113792000Y-138430000D01*
X158988951Y-129165435D02*
X161243897Y-126910489D01*
X88512206Y-125761490D02*
X88461490Y-125710774D01*
X165072200Y-129083001D02*
X165072200Y-128106586D01*
X87789881Y-121828033D02*
X87789881Y-115983881D01*
X88461490Y-122499643D02*
X87789881Y-121828033D01*
X88461490Y-124367490D02*
X88461490Y-122499643D01*
X137922000Y-138938000D02*
X131572000Y-145288000D01*
X165072200Y-128106586D02*
X164257103Y-127291489D01*
X88461490Y-125710774D02*
X88461490Y-124367490D01*
X131572000Y-145288000D02*
X125984000Y-145288000D01*
X87789881Y-115983881D02*
X80576489Y-108770489D01*
X122682000Y-147320000D02*
X122682000Y-148590000D01*
X164257103Y-127291489D02*
X163284511Y-127291489D01*
X158988951Y-129809049D02*
X158988951Y-129165435D01*
X80576489Y-108770489D02*
X75750489Y-108770489D01*
X162216489Y-126910489D02*
X162941000Y-127635000D01*
X125984000Y-145288000D02*
X122682000Y-148590000D01*
X113792000Y-138430000D02*
X122682000Y-147320000D01*
%TO.N,XSHUT_2*%
X197649489Y-128815489D02*
X197268489Y-128815489D01*
X200306800Y-129083001D02*
X198425001Y-129083001D01*
X197421500Y-128206500D02*
X198628000Y-127000000D01*
X195262500Y-130873500D02*
X194754500Y-130873500D01*
X197320511Y-128486511D02*
X197268489Y-128486511D01*
X198628000Y-127000000D02*
X198628000Y-126365000D01*
X195389500Y-130238500D02*
X196723000Y-128905000D01*
X195135500Y-130492500D02*
X195199000Y-130429000D01*
X196812511Y-128815489D02*
X196723000Y-128905000D01*
X197294500Y-128333500D02*
X197421500Y-128206500D01*
X195199000Y-130429000D02*
X194881500Y-130746500D01*
X198157489Y-128815489D02*
X197649489Y-128815489D01*
X194881500Y-130746500D02*
X194691000Y-130937000D01*
X200787000Y-136398000D02*
X195262500Y-130873500D01*
X195262500Y-130365500D02*
X195389500Y-130238500D01*
X110998000Y-140799219D02*
X110998000Y-137541000D01*
X197268489Y-128815489D02*
X196812511Y-128815489D01*
X85961490Y-135717490D02*
X85961490Y-136828668D01*
X85961490Y-136828668D02*
X87435822Y-138303000D01*
X194754500Y-130873500D02*
X194691000Y-130937000D01*
X197268489Y-128815489D02*
X197268489Y-128486511D01*
X195135500Y-130746500D02*
X195135500Y-130492500D01*
X110998000Y-137541000D02*
X111125000Y-137414000D01*
X195389500Y-130238500D02*
X195199000Y-130429000D01*
X94996000Y-139065000D02*
X94996000Y-139827000D01*
X197421500Y-128587500D02*
X197320511Y-128486511D01*
X196977000Y-128651000D02*
X197294500Y-128333500D01*
X197421500Y-128587500D02*
X197421500Y-128206500D01*
X195135500Y-130746500D02*
X194881500Y-130746500D01*
X197104000Y-128651000D02*
X196977000Y-128651000D01*
X197649489Y-128815489D02*
X197421500Y-128587500D01*
X197268489Y-128486511D02*
X197268489Y-128359511D01*
X198425001Y-129083001D02*
X198157489Y-128815489D01*
X197268489Y-128815489D02*
X197104000Y-128651000D01*
X195262500Y-130873500D02*
X195262500Y-130365500D01*
X196723000Y-128905000D02*
X196977000Y-128651000D01*
X195262500Y-130873500D02*
X195135500Y-130746500D01*
X87435822Y-138303000D02*
X94234000Y-138303000D01*
X94234000Y-138303000D02*
X94996000Y-139065000D01*
X197268489Y-128359511D02*
X197294500Y-128333500D01*
%TO.N,GPIOI_2*%
X71374000Y-106934000D02*
X72549001Y-105758999D01*
D47*
X202537200Y-127789800D02*
X202565000Y-127762000D01*
D44*
X73660000Y-109220000D02*
X71374000Y-106934000D01*
X87340361Y-116170079D02*
X80390282Y-109220000D01*
X200511020Y-126746000D02*
X199009000Y-128248020D01*
X105950001Y-105758999D02*
X117539002Y-117348000D01*
X117539002Y-117348000D02*
X122682000Y-117348000D01*
X87961490Y-122635360D02*
X87340361Y-122014230D01*
X202057000Y-126746000D02*
X201422000Y-126746000D01*
X87340361Y-122014230D02*
X87340361Y-116170079D01*
X87961490Y-124367490D02*
X87961490Y-122635360D01*
X202565000Y-127762000D02*
X202565000Y-127254000D01*
X201422000Y-126746000D02*
X200511020Y-126746000D01*
X72549001Y-105758999D02*
X105950001Y-105758999D01*
X80390282Y-109220000D02*
X73660000Y-109220000D01*
D47*
X202537200Y-129083001D02*
X202537200Y-127789800D01*
D44*
X202565000Y-127254000D02*
X202057000Y-126746000D01*
%TO.N,XSHUT_0*%
X124741800Y-127677198D02*
X125635999Y-126782999D01*
X92974040Y-139202040D02*
X93218000Y-139446000D01*
X87062044Y-139202040D02*
X92974040Y-139202040D01*
X123589997Y-129083001D02*
X124741800Y-129083001D01*
X116332000Y-139827000D02*
X116332000Y-136340998D01*
X124741800Y-129083001D02*
X124741800Y-127677198D01*
X93218000Y-139446000D02*
X93218000Y-139827000D01*
X84961490Y-137101486D02*
X87062044Y-139202040D01*
X125635999Y-126782999D02*
X128814999Y-126782999D01*
X84961490Y-135717490D02*
X84961490Y-137101486D01*
X128814999Y-126782999D02*
X129032000Y-127000000D01*
X116332000Y-136340998D02*
X123589997Y-129083001D01*
%TO.N,GPIOI_0*%
X77840969Y-108320969D02*
X81143673Y-108320969D01*
X131318000Y-127000000D02*
X130429000Y-126111000D01*
X126972200Y-129083001D02*
X129234999Y-129083001D01*
X88239401Y-114173000D02*
X88239401Y-121641836D01*
X88239401Y-121641836D02*
X88961490Y-122363925D01*
X88961490Y-124367490D02*
X89823490Y-124367490D01*
X115004280Y-137033000D02*
X124206000Y-127831280D01*
X81153352Y-108330648D02*
X82397049Y-108330648D01*
X113792000Y-137033000D02*
X115004280Y-137033000D01*
X124206000Y-127831280D02*
X124206000Y-126619000D01*
X89823490Y-124367490D02*
X89910490Y-124454490D01*
X81143673Y-108320969D02*
X81153352Y-108330648D01*
X130429000Y-126111000D02*
X124714000Y-126111000D01*
X124714000Y-126111000D02*
X124206000Y-126619000D01*
X82397049Y-108330648D02*
X88239401Y-114173000D01*
X76454000Y-106934000D02*
X77840969Y-108320969D01*
X129234999Y-129083001D02*
X131318000Y-127000000D01*
X88961490Y-122363925D02*
X88961490Y-124367490D01*
%TO.N,LED_3*%
X93218000Y-106934000D02*
X89587961Y-110564039D01*
X99691501Y-127248490D02*
X99689490Y-127250501D01*
X89587961Y-120448961D02*
X91053490Y-121914490D01*
X93614233Y-131292490D02*
X97656222Y-127250501D01*
X89587961Y-110564039D02*
X89587961Y-120448961D01*
X101197490Y-127248490D02*
X99691501Y-127248490D01*
X90886490Y-131292490D02*
X93614233Y-131292490D01*
X97656222Y-127250501D02*
X99689490Y-127250501D01*
%TO.N,LED_4*%
X91246503Y-120715508D02*
X90037481Y-119506486D01*
X93478515Y-130792490D02*
X99219505Y-125051500D01*
X99219505Y-125051500D02*
X99933042Y-125051500D01*
X101197490Y-124962490D02*
X100022052Y-124962490D01*
X90037481Y-112654519D02*
X95758000Y-106934000D01*
X90886490Y-130792490D02*
X93478515Y-130792490D01*
X100022052Y-124962490D02*
X99933042Y-125051500D01*
X90037481Y-119506486D02*
X90037481Y-112654519D01*
%TO.N,LED_5*%
X101213490Y-122676490D02*
X100958798Y-122676490D01*
X94342798Y-129292490D02*
X92565490Y-129292490D01*
X97419010Y-106934000D02*
X90487001Y-113866009D01*
X90487001Y-113866009D02*
X90487001Y-118925698D01*
X90487001Y-118925698D02*
X91206489Y-119645186D01*
X92819490Y-129292490D02*
X90886490Y-129292490D01*
X99943490Y-122676490D02*
X101213490Y-122676490D01*
X100958798Y-122676490D02*
X94342798Y-129292490D01*
X98298000Y-106934000D02*
X97419010Y-106934000D01*
%TO.N,LED_1*%
X101229490Y-131820490D02*
X101229490Y-134344490D01*
X95945059Y-136551001D02*
X95229530Y-137266530D01*
X99022979Y-136551001D02*
X95945059Y-136551001D01*
X88688921Y-121455638D02*
X88688921Y-107484921D01*
X89783490Y-122550208D02*
X88688921Y-121455638D01*
X87986490Y-134852484D02*
X87961490Y-134877484D01*
X87961490Y-134877484D02*
X87961490Y-135717490D01*
X89783490Y-123184490D02*
X89783490Y-122550208D01*
X88688921Y-107484921D02*
X88138000Y-106934000D01*
X101229490Y-134344490D02*
X99022979Y-136551001D01*
X95229530Y-137266530D02*
X88534806Y-137266530D01*
X88534806Y-137266530D02*
X87986490Y-136718214D01*
X87986490Y-136718214D02*
X87986490Y-134852484D01*
X100064501Y-131820490D02*
X101229490Y-131820490D01*
%TO.N,LED_2*%
X88721004Y-136817010D02*
X88436010Y-136532016D01*
X101197490Y-129534490D02*
X99912978Y-128249978D01*
X89138441Y-121269441D02*
X89138441Y-108473559D01*
X94820687Y-136817010D02*
X88721004Y-136817010D01*
X99912978Y-128249978D02*
X99696679Y-128249978D01*
X91053490Y-123184490D02*
X89138441Y-121269441D01*
X99340001Y-131391979D02*
X99340001Y-133322989D01*
X88436010Y-136532016D02*
X88436010Y-135742970D01*
X101197490Y-129534490D02*
X99340001Y-131391979D01*
X89138441Y-108473559D02*
X90678000Y-106934000D01*
X98461011Y-134201979D02*
X97435719Y-134201979D01*
X97435719Y-134201979D02*
X94820687Y-136817010D01*
X88436010Y-135742970D02*
X88461490Y-135717490D01*
X99340001Y-133322989D02*
X98461011Y-134201979D01*
%TO.N,SW_1*%
X103245490Y-121036510D02*
X102866990Y-121415010D01*
X104272510Y-120390490D02*
X106299000Y-118364000D01*
X107444000Y-118364000D02*
X107533000Y-118275000D01*
X109347000Y-128905000D02*
X109347000Y-128016000D01*
X107533000Y-120868000D02*
X109728000Y-123063000D01*
X103245490Y-120390490D02*
X104272510Y-120390490D01*
X107533000Y-118275000D02*
X107533000Y-120868000D01*
X102866990Y-121415010D02*
X100180370Y-121415010D01*
X109474000Y-140843000D02*
X109474000Y-137541000D01*
X96831285Y-124764095D02*
X96831285Y-126168285D01*
X100180370Y-121415010D02*
X96831285Y-124764095D01*
X109728000Y-127635000D02*
X109728000Y-123063000D01*
X107533000Y-118275000D02*
X107533000Y-110325000D01*
X106299000Y-118364000D02*
X107444000Y-118364000D01*
X94207080Y-128792490D02*
X90886490Y-128792490D01*
X109347000Y-128016000D02*
X109728000Y-127635000D01*
X103245490Y-120390490D02*
X103245490Y-121036510D01*
X96831285Y-126168285D02*
X94207080Y-128792490D01*
X109474000Y-137541000D02*
X109347000Y-137414000D01*
%TO.N,SW_2*%
X96355490Y-120390490D02*
X97668510Y-120390490D01*
X96266000Y-120301000D02*
X96266000Y-119634000D01*
X99276000Y-118275000D02*
X100675000Y-118275000D01*
X97668510Y-120390490D02*
X98679000Y-119380000D01*
X100675000Y-110325000D02*
X100675000Y-118275000D01*
X98679000Y-119380000D02*
X98679000Y-118872000D01*
X92142483Y-128292490D02*
X96355490Y-124079483D01*
X96355490Y-120390490D02*
X96266000Y-120301000D01*
X98679000Y-118872000D02*
X99276000Y-118275000D01*
X96266000Y-119634000D02*
X96012000Y-119380000D01*
X110236000Y-141605000D02*
X110236000Y-136906000D01*
X96355490Y-124079483D02*
X96355490Y-120390490D01*
X90886490Y-128292490D02*
X92142483Y-128292490D01*
X96012000Y-119380000D02*
X95145085Y-119380000D01*
X95145085Y-119380000D02*
X94872692Y-119107607D01*
%TO.N,Net-(D1-Pad2)*%
X103229490Y-131820490D02*
X105243490Y-131820490D01*
%TO.N,Net-(D2-Pad2)*%
X103197490Y-129534490D02*
X105261490Y-129534490D01*
%TO.N,Net-(D3-Pad2)*%
X103197490Y-127248490D02*
X105261490Y-127248490D01*
%TO.N,Net-(D4-Pad2)*%
X103197490Y-124962490D02*
X105261490Y-124962490D01*
%TO.N,Net-(D5-Pad2)*%
X103213490Y-122676490D02*
X105252490Y-122676490D01*
D46*
%TO.N,+5V*%
X54848000Y-118110000D02*
X56261000Y-118110000D01*
%TO.N,Net-(D6-Pad2)*%
X50987000Y-132719000D02*
X50292000Y-132024000D01*
X54864000Y-132719000D02*
X50987000Y-132719000D01*
D45*
%TO.N,Net-(C6-Pad1)*%
X47006000Y-117729000D02*
X47006000Y-115681000D01*
D44*
%TO.N,/STM32L151RET6TR/MCO*%
X81358490Y-146806490D02*
X81358490Y-145239490D01*
X80199490Y-144080490D02*
X81358490Y-145239490D01*
X83486480Y-140403500D02*
X83486480Y-135742480D01*
X83486480Y-135742480D02*
X83461490Y-135717490D01*
X80199490Y-142742490D02*
X80199490Y-144080490D01*
X81147490Y-142742490D02*
X83486480Y-140403500D01*
%TO.N,/STM32L151RET6TR/OSM_OUT*%
X88699490Y-143785490D02*
X87540490Y-144944490D01*
X86199490Y-142742490D02*
X83961490Y-140504490D01*
X88699490Y-142742490D02*
X86199490Y-142742490D01*
X87540490Y-146806490D02*
X87540490Y-144944490D01*
X83961490Y-140504490D02*
X83961490Y-135717490D01*
X88699490Y-142742490D02*
X88699490Y-143785490D01*
%TO.N,/STM32L151RET6TR/OS32_OUT*%
X75769490Y-140024490D02*
X75769490Y-141516490D01*
X82961490Y-137256910D02*
X82961490Y-135717490D01*
X75769490Y-140024490D02*
X80193910Y-140024490D01*
X75769490Y-141516490D02*
X75051490Y-142234490D01*
X80193910Y-140024490D02*
X82961490Y-137256910D01*
%TO.N,/STM32L151RET6TR/BOOT*%
X76654082Y-131792490D02*
X79536490Y-131792490D01*
X66923490Y-131566490D02*
X67431490Y-132074490D01*
X76372082Y-132074490D02*
X76654082Y-131792490D01*
X75559490Y-132074490D02*
X76372082Y-132074490D01*
X67431490Y-132074490D02*
X75559490Y-132074490D01*
%TO.N,/STM32L151RET6TR/RST*%
X84461490Y-137674490D02*
X84957490Y-138170490D01*
X63208489Y-123382489D02*
X63819489Y-122771489D01*
X63819489Y-122771489D02*
X65748489Y-122771489D01*
X65748489Y-122771489D02*
X66923490Y-123946490D01*
X65716990Y-127018992D02*
X63208489Y-124510491D01*
X84461490Y-135717490D02*
X84461490Y-137674490D01*
X63208489Y-124510491D02*
X63208489Y-123382489D01*
X66923490Y-133725490D02*
X65716990Y-132518990D01*
X65716990Y-132518990D02*
X65716990Y-127018992D01*
X66923490Y-135376490D02*
X66923490Y-133725490D01*
%TO.N,/STM32L151RET6TR/OS32_IN*%
X75769490Y-136824490D02*
X75769490Y-137999490D01*
X77209000Y-138564000D02*
X77615500Y-138970500D01*
X75769490Y-136824490D02*
X75769490Y-135485990D01*
X75769490Y-135485990D02*
X74897990Y-134614490D01*
X82461490Y-137120500D02*
X82461490Y-135717490D01*
X77615500Y-138970500D02*
X80611490Y-138970500D01*
X76334000Y-138564000D02*
X77209000Y-138564000D01*
X80611490Y-138970500D02*
X82461490Y-137120500D01*
X75769490Y-137999490D02*
X76334000Y-138564000D01*
X82461490Y-136182490D02*
X82486480Y-136207480D01*
%TO.N,SCL1*%
X165072200Y-131483001D02*
X165237201Y-131318000D01*
D47*
X205359000Y-130701520D02*
X205447514Y-130701520D01*
D44*
X166624000Y-136398000D02*
X165227000Y-136398000D01*
X65283510Y-137154490D02*
X66796490Y-137154490D01*
X165237201Y-131318000D02*
X167902614Y-131318000D01*
D47*
X206053109Y-132782891D02*
X203327000Y-135509000D01*
D44*
X68447490Y-133852490D02*
X69463490Y-132836490D01*
X129032000Y-136144000D02*
X127762000Y-137414000D01*
X241903969Y-130841031D02*
X243362313Y-130841031D01*
X68926001Y-142586001D02*
X79062511Y-152722511D01*
X66796490Y-137154490D02*
X66884492Y-137154490D01*
X125280490Y-157167510D02*
X127762000Y-154686000D01*
X66074999Y-141697001D02*
X66963999Y-142586001D01*
X79062511Y-152722511D02*
X103572807Y-152722511D01*
X64891490Y-138424490D02*
X64891490Y-137546510D01*
X64891490Y-137546510D02*
X65283510Y-137154490D01*
D47*
X205447514Y-130701520D02*
X206053109Y-131307115D01*
D44*
X167902614Y-131318000D02*
X168529000Y-131944386D01*
X76790492Y-132292490D02*
X76246492Y-132836490D01*
X126972200Y-131483001D02*
X128435001Y-131483001D01*
X64891490Y-138424490D02*
X65780490Y-138424490D01*
X241427000Y-135509000D02*
X241427000Y-136398000D01*
X128435001Y-131483001D02*
X129032000Y-132080000D01*
D47*
X206053109Y-131307115D02*
X206053109Y-132782891D01*
D44*
X240637200Y-131483001D02*
X241293030Y-131483001D01*
X79536490Y-132292490D02*
X76790492Y-132292490D01*
X129032000Y-132080000D02*
X129032000Y-136144000D01*
D47*
X202537200Y-131483001D02*
X203092005Y-131483001D01*
D44*
X168529000Y-134493000D02*
X166624000Y-136398000D01*
D47*
X203873486Y-130701520D02*
X205359000Y-130701520D01*
D44*
X243362313Y-130841031D02*
X244205991Y-131684709D01*
X66884492Y-137154490D02*
X68447490Y-135591492D01*
X108017806Y-157167510D02*
X125280490Y-157167510D01*
X168529000Y-131944386D02*
X168529000Y-134493000D01*
X241293030Y-131483001D02*
X241293030Y-131451970D01*
X66963999Y-142586001D02*
X68926001Y-142586001D01*
X68447490Y-135591492D02*
X68447490Y-133852490D01*
D47*
X203327000Y-135509000D02*
X203327000Y-136398000D01*
D44*
X103572807Y-152722511D02*
X108017806Y-157167510D01*
X241293030Y-131451970D02*
X241903969Y-130841031D01*
X244205991Y-132730009D02*
X241427000Y-135509000D01*
X244205991Y-131684709D02*
X244205991Y-132730009D01*
X66074999Y-138718999D02*
X66074999Y-141697001D01*
X76246492Y-132836490D02*
X69463490Y-132836490D01*
D47*
X203092005Y-131483001D02*
X203873486Y-130701520D01*
D44*
X65780490Y-138424490D02*
X66074999Y-138718999D01*
%TO.N,SDA1*%
X69468143Y-133857143D02*
X68897500Y-134427786D01*
X126972200Y-130683000D02*
X128397000Y-130683000D01*
X241337489Y-130391511D02*
X243548511Y-130391511D01*
X68326000Y-141224000D02*
X79375000Y-152273000D01*
X168978520Y-135186480D02*
X168978520Y-131513520D01*
X167767000Y-136398000D02*
X168978520Y-135186480D01*
X68072000Y-138430000D02*
X68326000Y-138684000D01*
X77547490Y-132792490D02*
X76933206Y-132792490D01*
X77547490Y-132792490D02*
X76926902Y-132792490D01*
X129540000Y-131826000D02*
X129540000Y-137033000D01*
X168978520Y-131513520D02*
X168148000Y-130683000D01*
X67183000Y-137491700D02*
X67183000Y-138418980D01*
X79375000Y-152273000D02*
X79375009Y-152272991D01*
D47*
X203327000Y-130683000D02*
X203708000Y-130302000D01*
D44*
X68897500Y-134427786D02*
X68897500Y-135777200D01*
X129540000Y-137033000D02*
X130302000Y-137795000D01*
X108204004Y-156717990D02*
X124333010Y-156717990D01*
X67183000Y-138430000D02*
X68072000Y-138430000D01*
X67177490Y-138424490D02*
X67183000Y-138430000D01*
X168148000Y-130683000D02*
X165072200Y-130683000D01*
X79375009Y-152272991D02*
X103759005Y-152272991D01*
D47*
X202537200Y-130683000D02*
X203327000Y-130683000D01*
X206530511Y-135734489D02*
X205867000Y-136398000D01*
X206452629Y-131141629D02*
X206452629Y-133780371D01*
X206452629Y-133780371D02*
X206530511Y-133858252D01*
D44*
X70225490Y-130296490D02*
X70225490Y-128518490D01*
X124333010Y-156717990D02*
X127635000Y-153416000D01*
X244655511Y-135709489D02*
X243967000Y-136398000D01*
X240637200Y-130683000D02*
X241046000Y-130683000D01*
X128397000Y-130683000D02*
X129540000Y-131826000D01*
X76262248Y-133457144D02*
X69868142Y-133457144D01*
X69868142Y-133457144D02*
X69468143Y-133857143D01*
X103759005Y-152272991D02*
X108204004Y-156717990D01*
X67183000Y-138418980D02*
X67177490Y-138424490D01*
X243548511Y-130391511D02*
X244655511Y-131498511D01*
X70225490Y-128518490D02*
X69463490Y-127756490D01*
X127635000Y-153416000D02*
X130302000Y-153416000D01*
X241046000Y-130683000D02*
X241337489Y-130391511D01*
D47*
X206530511Y-133858252D02*
X206530511Y-135734489D01*
D44*
X79536490Y-132792490D02*
X77547490Y-132792490D01*
X68326000Y-138684000D02*
X68326000Y-141224000D01*
D47*
X203708000Y-130302000D02*
X205613000Y-130302000D01*
D44*
X244655511Y-131498511D02*
X244655511Y-135709489D01*
X76926902Y-132792490D02*
X76262248Y-133457144D01*
X130302000Y-137795000D02*
X131572000Y-137795000D01*
X68897500Y-135777200D02*
X67183000Y-137491700D01*
D47*
X205613000Y-130302000D02*
X206452629Y-131141629D01*
D44*
%TO.N,/STM32L151RET6TR/FTDI_RTS*%
X66923490Y-120136490D02*
X68941500Y-118118480D01*
X78448489Y-119762487D02*
X78448489Y-121755489D01*
X82961490Y-124367490D02*
X82961490Y-129244490D01*
X82961490Y-129244490D02*
X81655490Y-130550490D01*
X76804482Y-118118480D02*
X78448489Y-119762487D01*
X68941500Y-118118480D02*
X76804482Y-118118480D01*
X78448489Y-121755489D02*
X80131490Y-123438490D01*
%TO.N,/STM32L151RET6TR/FTDI_RXD*%
X73820488Y-131312490D02*
X78675788Y-131312490D01*
X78695788Y-131292490D02*
X79536490Y-131292490D01*
X70752989Y-123330989D02*
X70752989Y-128244991D01*
X69463490Y-122041490D02*
X70752989Y-123330989D01*
X69463490Y-120136490D02*
X69463490Y-122041490D01*
X78675788Y-131312490D02*
X78695788Y-131292490D01*
X70752989Y-128244991D02*
X73820488Y-131312490D01*
%TO.N,/STM32L151RET6TR/FTDI_TXD*%
X73273490Y-128771492D02*
X73273490Y-122803490D01*
X79536490Y-130792490D02*
X75294488Y-130792490D01*
X75294488Y-130792490D02*
X73273490Y-128771492D01*
X72003490Y-120136490D02*
X72003490Y-121533490D01*
X72003490Y-121533490D02*
X73273490Y-122803490D01*
%TO.N,/STM32L151RET6TR/FTDI_CTS*%
X83461490Y-124367490D02*
X83461490Y-129563492D01*
X83461490Y-129563492D02*
X83461490Y-130014490D01*
X83461490Y-130014490D02*
X81909490Y-131566490D01*
%TO.N,/STM32L151RET6TR/SW0*%
X69209490Y-125724490D02*
X66161490Y-125724490D01*
X74797490Y-125725488D02*
X74797490Y-125724490D01*
X79536490Y-129292490D02*
X78364492Y-129292490D01*
X66161490Y-125724490D02*
X64383490Y-123946490D01*
X78364492Y-129292490D02*
X74797490Y-125725488D01*
%TO.N,/STM32L151RET6TR/SWCLK*%
X74798488Y-123946490D02*
X74543490Y-123946490D01*
X79536490Y-126292490D02*
X77144488Y-126292490D01*
X77144488Y-126292490D02*
X74798488Y-123946490D01*
%TO.N,/STM32L151RET6TR/SWDAT*%
X72174491Y-118568489D02*
X73273490Y-119667488D01*
X73273490Y-119667488D02*
X73273490Y-120605492D01*
X79495991Y-124078031D02*
X81335470Y-125917510D01*
X74626489Y-121958491D02*
X77380493Y-121958491D01*
X81888582Y-125917510D02*
X82461490Y-125344602D01*
X82461490Y-125344602D02*
X82461490Y-124367490D01*
X69292489Y-118568489D02*
X72174491Y-118568489D01*
X77380493Y-121958491D02*
X79495991Y-124073989D01*
X79495991Y-124073989D02*
X79495991Y-124078031D01*
X81335470Y-125917510D02*
X81888582Y-125917510D01*
X68288489Y-122771489D02*
X68288489Y-119572489D01*
X73273490Y-120605492D02*
X74626489Y-121958491D01*
X69463490Y-123946490D02*
X68288489Y-122771489D01*
X68288489Y-119572489D02*
X69292489Y-118568489D01*
%TO.N,/STM32L151RET6TR/UART_RX*%
X94471855Y-134916000D02*
X95380008Y-134007847D01*
X91386500Y-134292500D02*
X92010000Y-134916000D01*
X91112500Y-134292500D02*
X90932000Y-134112000D01*
X92010000Y-134916000D02*
X94471855Y-134916000D01*
X90932000Y-133838000D02*
X90932000Y-134112000D01*
X91386500Y-134292500D02*
X91112500Y-134292500D01*
X90886490Y-133792490D02*
X90932000Y-133838000D01*
X95380008Y-134007847D02*
X95380008Y-133081972D01*
X95380008Y-133081972D02*
X98165490Y-130296490D01*
%TO.N,/STM32L151RET6TR/UART_TX*%
X94634490Y-136367490D02*
X98165490Y-132836490D01*
X89489490Y-135717490D02*
X90139490Y-136367490D01*
X90139490Y-136367490D02*
X94634490Y-136367490D01*
X88961490Y-135717490D02*
X89489490Y-135717490D01*
%TO.N,SCL2*%
X84462009Y-118499419D02*
X84462009Y-121673009D01*
X81850090Y-115887500D02*
X84462009Y-118499419D01*
X84462009Y-121673009D02*
X84703490Y-121914490D01*
X70040500Y-115887500D02*
X81850090Y-115887500D01*
X68701490Y-114548490D02*
X70040500Y-115887500D01*
%TO.N,SDA2*%
X85461490Y-119624490D02*
X85461490Y-120386490D01*
X85461490Y-119624490D02*
X85461490Y-119720428D01*
X85461490Y-118862490D02*
X85461490Y-119624490D01*
X85461490Y-120386490D02*
X85461490Y-124367490D01*
X85461490Y-120386490D02*
X85186510Y-120111510D01*
X82036490Y-115437490D02*
X85461490Y-118862490D01*
X72130490Y-115437490D02*
X82036490Y-115437490D01*
X85186510Y-119995408D02*
X85186510Y-120111510D01*
X71241490Y-114548490D02*
X72130490Y-115437490D01*
X85461490Y-119720428D02*
X85186510Y-119995408D01*
%TO.N,/STM32L151RET6TR/PIN41*%
X84961490Y-124367490D02*
X84961490Y-125974490D01*
X84961490Y-125974490D02*
X84957490Y-125978490D01*
%TO.N,/STM32L151RET6TR/PIN29*%
X89689805Y-127792490D02*
X90886490Y-127792490D01*
X88005490Y-129476805D02*
X89689805Y-127792490D01*
X88005490Y-130042490D02*
X88005490Y-129476805D01*
%TO.N,/STM32L151RET6TR/PIN30*%
X86989490Y-129476805D02*
X89173805Y-127292490D01*
X89173805Y-127292490D02*
X90886490Y-127292490D01*
X86989490Y-130042490D02*
X86989490Y-129476805D01*
%TO.N,/STM32L151RET6TR/PC8*%
X74220970Y-114987970D02*
X73781490Y-114548490D01*
X82348970Y-114987970D02*
X74220970Y-114987970D01*
X85961490Y-124367490D02*
X85961490Y-118600490D01*
X85961490Y-118600490D02*
X82348970Y-114987970D01*
%TO.N,/STM32L151RET6TR/PA9*%
X83941490Y-122225492D02*
X84461490Y-122745492D01*
X81663690Y-116337510D02*
X83941490Y-118615310D01*
X66161490Y-114548490D02*
X67950510Y-116337510D01*
X84461490Y-122745492D02*
X84461490Y-124367490D01*
X83941490Y-118615310D02*
X83941490Y-122225492D01*
X67950510Y-116337510D02*
X81663690Y-116337510D01*
%TO.N,/STM32L151RET6TR/PA10*%
X63621490Y-114294490D02*
X66114520Y-116787520D01*
X81477290Y-116787520D02*
X83491480Y-118801710D01*
X66114520Y-116787520D02*
X81477290Y-116787520D01*
X83961490Y-122881902D02*
X83961490Y-124367490D01*
X83491480Y-118801710D02*
X83491480Y-122411892D01*
X83491480Y-122411892D02*
X83961490Y-122881902D01*
D45*
%TO.N,Net-(C5-Pad2)*%
X48582000Y-148402000D02*
X48514000Y-148334000D01*
X46635500Y-146455500D02*
X47499000Y-147319000D01*
X48514000Y-148334000D02*
X48514000Y-147574000D01*
X48514000Y-147574000D02*
X48259000Y-147319000D01*
X46635500Y-146304000D02*
X46635500Y-146455500D01*
X48259000Y-147319000D02*
X47499000Y-147319000D01*
%TO.N,Net-(C5-Pad1)*%
X48360500Y-146304000D02*
X50308000Y-146304000D01*
%TO.N,Net-(C6-Pad2)*%
X47006000Y-119454000D02*
X47057000Y-119454000D01*
X47057000Y-119454000D02*
X49104000Y-117407000D01*
%TO.N,BUCK_33_EN*%
X52324000Y-152146000D02*
X52324000Y-150624000D01*
X52324000Y-150624000D02*
X52002000Y-150302000D01*
D44*
%TO.N,BUCK_5_EN*%
X53848000Y-111506000D02*
X52213000Y-111506000D01*
X82163490Y-134106490D02*
X81961490Y-134308490D01*
X75311000Y-113157000D02*
X63627000Y-113157000D01*
D45*
X51498500Y-112458500D02*
X52133500Y-112458500D01*
D44*
X52213000Y-111506000D02*
X52197000Y-111490000D01*
D45*
X51004000Y-113987000D02*
X51004000Y-112953000D01*
X52324000Y-111617000D02*
X52197000Y-111490000D01*
D44*
X81961490Y-134308490D02*
X81961490Y-135717490D01*
X63627000Y-113157000D02*
X61468000Y-110998000D01*
D45*
X52133500Y-112458500D02*
X52324000Y-112268000D01*
X51004000Y-112953000D02*
X51498500Y-112458500D01*
X52324000Y-112268000D02*
X52324000Y-111617000D01*
D44*
%TO.N,XSHUT_3*%
X231521000Y-134239000D02*
X231711500Y-134429500D01*
X95885000Y-139192000D02*
X94520884Y-137827884D01*
X238406800Y-128297800D02*
X238406800Y-129083001D01*
X231711500Y-134429500D02*
X231648000Y-134493000D01*
X231521000Y-134239000D02*
X231013000Y-134747000D01*
X236601000Y-126492000D02*
X233971489Y-129121511D01*
X231013000Y-134747000D02*
X230886000Y-134747000D01*
X231521000Y-134493000D02*
X231521000Y-134620000D01*
X86461490Y-136692258D02*
X86461490Y-135717490D01*
X237363000Y-134747000D02*
X232029000Y-134747000D01*
X236601000Y-126492000D02*
X238406800Y-128297800D01*
X95885000Y-140462000D02*
X95885000Y-139192000D01*
X233971489Y-129121511D02*
X233971489Y-130391511D01*
X232029000Y-134747000D02*
X231648000Y-134747000D01*
X231711500Y-134429500D02*
X232029000Y-134747000D01*
X231521000Y-132842000D02*
X233971489Y-130391511D01*
X231521000Y-132842000D02*
X231521000Y-134239000D01*
X231521000Y-134620000D02*
X231648000Y-134747000D01*
X94520884Y-137827884D02*
X87597116Y-137827884D01*
X231521000Y-134493000D02*
X231267000Y-134747000D01*
X231648000Y-134747000D02*
X231267000Y-134747000D01*
X238887000Y-136271000D02*
X237363000Y-134747000D01*
X231648000Y-134493000D02*
X231648000Y-134747000D01*
X231521000Y-134239000D02*
X231521000Y-134493000D01*
X87597116Y-137827884D02*
X86461490Y-136692258D01*
X231267000Y-134747000D02*
X230886000Y-134747000D01*
D45*
%TO.N,Net-(R18-Pad1)*%
X48260000Y-154162000D02*
X50292000Y-154162000D01*
%TO.N,Net-(R19-Pad1)*%
X54848000Y-113792000D02*
X54848000Y-115951000D01*
%TO.N,Net-(R25-Pad1)*%
X46228000Y-152162000D02*
X48260000Y-152162000D01*
X48260000Y-152162000D02*
X48260000Y-150624000D01*
X48260000Y-150624000D02*
X48582000Y-150302000D01*
%TO.N,Net-(R26-Pad1)*%
X52848000Y-118110000D02*
X52848000Y-115951000D01*
X51004000Y-117407000D02*
X51707000Y-118110000D01*
X51707000Y-118110000D02*
X52848000Y-118110000D01*
D44*
%TO.N,GPIOI_3*%
X238425103Y-125767489D02*
X236300897Y-125767489D01*
X87461490Y-126239500D02*
X87461490Y-124367490D01*
X236347000Y-136144000D02*
X228936142Y-136144000D01*
X235839000Y-126229386D02*
X233246989Y-128821397D01*
X129471480Y-139260520D02*
X125984000Y-142748000D01*
X240538000Y-128983801D02*
X240637200Y-129083001D01*
X68834000Y-110490000D02*
X68834000Y-106934000D01*
X125984000Y-142748000D02*
X123444000Y-142748000D01*
X123444000Y-142748000D02*
X122682000Y-141986000D01*
X240538000Y-127880386D02*
X238641614Y-125984000D01*
X86868000Y-116586000D02*
X82296000Y-112014000D01*
X86868000Y-122646990D02*
X86868000Y-116586000D01*
X82296000Y-112014000D02*
X70358000Y-112014000D01*
X236300897Y-125767489D02*
X235839000Y-126229386D01*
X70358000Y-112014000D02*
X68834000Y-110490000D01*
X87461490Y-124367490D02*
X87461490Y-123240480D01*
X137034410Y-138176000D02*
X135949890Y-139260520D01*
X87713990Y-126492000D02*
X87461490Y-126239500D01*
X240538000Y-127889000D02*
X240538000Y-128983801D01*
X87461490Y-123240480D02*
X86868000Y-122646990D01*
X233246989Y-128821397D02*
X233246989Y-129667000D01*
X240538000Y-127889000D02*
X240538000Y-127880386D01*
X135949890Y-139260520D02*
X129471480Y-139260520D01*
X238641614Y-125984000D02*
X238425103Y-125767489D01*
%TD*%
%TA.AperFunction,Conductor*%
%TO.N,VCC*%
G36*
X57981121Y-125496002D02*
G01*
X58027614Y-125549658D01*
X58039000Y-125602000D01*
X58039000Y-130173990D01*
X58018998Y-130242111D01*
X57965342Y-130288604D01*
X57912057Y-130296265D01*
X57912059Y-130299758D01*
X53466062Y-130301938D01*
X53397931Y-130281969D01*
X53351412Y-130228336D01*
X53340000Y-130175938D01*
X53340000Y-129472654D01*
X53864001Y-129472654D01*
X53865209Y-129484923D01*
X53867381Y-129495843D01*
X53876698Y-129518339D01*
X53885011Y-129530780D01*
X53902220Y-129547989D01*
X53914663Y-129556303D01*
X53937154Y-129565619D01*
X53948083Y-129567793D01*
X53960338Y-129569000D01*
X54595885Y-129569000D01*
X54611124Y-129564525D01*
X54612329Y-129563135D01*
X54614000Y-129555452D01*
X54614000Y-129550884D01*
X55114000Y-129550884D01*
X55118475Y-129566123D01*
X55119865Y-129567328D01*
X55127548Y-129568999D01*
X55767654Y-129568999D01*
X55779923Y-129567791D01*
X55790843Y-129565619D01*
X55813339Y-129556302D01*
X55825780Y-129547989D01*
X55842989Y-129530780D01*
X55851303Y-129518337D01*
X55860619Y-129495846D01*
X55862793Y-129484917D01*
X55864000Y-129472662D01*
X55864000Y-127987115D01*
X55859525Y-127971876D01*
X55858135Y-127970671D01*
X55850452Y-127969000D01*
X55132115Y-127969000D01*
X55116876Y-127973475D01*
X55115671Y-127974865D01*
X55114000Y-127982548D01*
X55114000Y-129550884D01*
X54614000Y-129550884D01*
X54614000Y-127987115D01*
X54609525Y-127971876D01*
X54608135Y-127970671D01*
X54600452Y-127969000D01*
X53882116Y-127969000D01*
X53866877Y-127973475D01*
X53865672Y-127974865D01*
X53864001Y-127982548D01*
X53864001Y-129472654D01*
X53340000Y-129472654D01*
X53340000Y-127450885D01*
X53864000Y-127450885D01*
X53868475Y-127466124D01*
X53869865Y-127467329D01*
X53877548Y-127469000D01*
X54595885Y-127469000D01*
X54611124Y-127464525D01*
X54612329Y-127463135D01*
X54614000Y-127455452D01*
X54614000Y-127450885D01*
X55114000Y-127450885D01*
X55118475Y-127466124D01*
X55119865Y-127467329D01*
X55127548Y-127469000D01*
X55845884Y-127469000D01*
X55861123Y-127464525D01*
X55862328Y-127463135D01*
X55863999Y-127455452D01*
X55863999Y-125965346D01*
X55862791Y-125953077D01*
X55860619Y-125942157D01*
X55851302Y-125919661D01*
X55842989Y-125907220D01*
X55825780Y-125890011D01*
X55813337Y-125881697D01*
X55790846Y-125872381D01*
X55779917Y-125870207D01*
X55767662Y-125869000D01*
X55132115Y-125869000D01*
X55116876Y-125873475D01*
X55115671Y-125874865D01*
X55114000Y-125882548D01*
X55114000Y-127450885D01*
X54614000Y-127450885D01*
X54614000Y-125887116D01*
X54609525Y-125871877D01*
X54608135Y-125870672D01*
X54600452Y-125869001D01*
X53960346Y-125869001D01*
X53948077Y-125870209D01*
X53937157Y-125872381D01*
X53914661Y-125881698D01*
X53902220Y-125890011D01*
X53885011Y-125907220D01*
X53876697Y-125919663D01*
X53867381Y-125942154D01*
X53865207Y-125953083D01*
X53864000Y-125965338D01*
X53864000Y-127450885D01*
X53340000Y-127450885D01*
X53340000Y-125602000D01*
X53360002Y-125533879D01*
X53413658Y-125487386D01*
X53466000Y-125476000D01*
X57913000Y-125476000D01*
X57981121Y-125496002D01*
G37*
%TD.AperFunction*%
%TD*%
%TA.AperFunction,Conductor*%
%TO.N,GND*%
G36*
X46187191Y-117366907D02*
G01*
X46223155Y-117416407D01*
X46228000Y-117447000D01*
X46228000Y-122837000D01*
X46209093Y-122895191D01*
X46159593Y-122931155D01*
X46129000Y-122936000D01*
X42771000Y-122936000D01*
X42712809Y-122917093D01*
X42676845Y-122867593D01*
X42672000Y-122837000D01*
X42672000Y-121475984D01*
X42958001Y-121475984D01*
X42958949Y-121485616D01*
X42961900Y-121500455D01*
X42969219Y-121518126D01*
X42980485Y-121534986D01*
X42994014Y-121548515D01*
X43010876Y-121559781D01*
X43028544Y-121567100D01*
X43043387Y-121570052D01*
X43053009Y-121571000D01*
X43692320Y-121571000D01*
X43705005Y-121566878D01*
X43708000Y-121562757D01*
X43708000Y-121555319D01*
X44208000Y-121555319D01*
X44212122Y-121568004D01*
X44216243Y-121570999D01*
X44862984Y-121570999D01*
X44872616Y-121570051D01*
X44887455Y-121567100D01*
X44905126Y-121559781D01*
X44921986Y-121548515D01*
X44935515Y-121534986D01*
X44946781Y-121518124D01*
X44954100Y-121500456D01*
X44957052Y-121485613D01*
X44958000Y-121475991D01*
X44958000Y-119986680D01*
X44953878Y-119973995D01*
X44949757Y-119971000D01*
X44223680Y-119971000D01*
X44210995Y-119975122D01*
X44208000Y-119979243D01*
X44208000Y-121555319D01*
X43708000Y-121555319D01*
X43708000Y-119986680D01*
X43703878Y-119973995D01*
X43699757Y-119971000D01*
X42973681Y-119971000D01*
X42960996Y-119975122D01*
X42958001Y-119979243D01*
X42958001Y-121475984D01*
X42672000Y-121475984D01*
X42672000Y-119455320D01*
X42958000Y-119455320D01*
X42962122Y-119468005D01*
X42966243Y-119471000D01*
X43692320Y-119471000D01*
X43705005Y-119466878D01*
X43708000Y-119462757D01*
X43708000Y-119455320D01*
X44208000Y-119455320D01*
X44212122Y-119468005D01*
X44216243Y-119471000D01*
X44942319Y-119471000D01*
X44955004Y-119466878D01*
X44957999Y-119462757D01*
X44957999Y-117966016D01*
X44957051Y-117956384D01*
X44954100Y-117941545D01*
X44946781Y-117923874D01*
X44935515Y-117907014D01*
X44921986Y-117893485D01*
X44905124Y-117882219D01*
X44887456Y-117874900D01*
X44872613Y-117871948D01*
X44862991Y-117871000D01*
X44223680Y-117871000D01*
X44210995Y-117875122D01*
X44208000Y-117879243D01*
X44208000Y-119455320D01*
X43708000Y-119455320D01*
X43708000Y-117886681D01*
X43703878Y-117873996D01*
X43699757Y-117871001D01*
X43053016Y-117871001D01*
X43043384Y-117871949D01*
X43028545Y-117874900D01*
X43010874Y-117882219D01*
X42994014Y-117893485D01*
X42980485Y-117907014D01*
X42969219Y-117923876D01*
X42961900Y-117941544D01*
X42958948Y-117956387D01*
X42958000Y-117966009D01*
X42958000Y-119455320D01*
X42672000Y-119455320D01*
X42672000Y-117447000D01*
X42690907Y-117388809D01*
X42740407Y-117352845D01*
X42771000Y-117348000D01*
X46129000Y-117348000D01*
X46187191Y-117366907D01*
G37*
%TD.AperFunction*%
%TD*%
%TA.AperFunction,Conductor*%
%TO.N,+5V*%
G36*
X49870191Y-104285907D02*
G01*
X49906155Y-104335407D01*
X49911000Y-104366000D01*
X49911000Y-104769102D01*
X49892092Y-104827293D01*
X49884500Y-104837742D01*
X49884500Y-106813819D01*
X49895662Y-106848173D01*
X49906156Y-106862617D01*
X49911000Y-106893207D01*
X49911000Y-106962000D01*
X49892093Y-107020191D01*
X49842593Y-107056155D01*
X49812000Y-107061000D01*
X48133000Y-107061000D01*
X48133000Y-108867000D01*
X48114093Y-108925191D01*
X48064593Y-108961155D01*
X48034000Y-108966000D01*
X42771000Y-108966000D01*
X42712809Y-108947093D01*
X42676845Y-108897593D01*
X42672000Y-108867000D01*
X42672000Y-107503984D01*
X43266001Y-107503984D01*
X43266949Y-107513616D01*
X43269900Y-107528455D01*
X43277219Y-107546126D01*
X43288485Y-107562986D01*
X43302014Y-107576515D01*
X43318876Y-107587781D01*
X43336544Y-107595100D01*
X43351387Y-107598052D01*
X43361009Y-107599000D01*
X45200320Y-107599000D01*
X45213005Y-107594878D01*
X45216000Y-107590757D01*
X45216000Y-107583319D01*
X45716000Y-107583319D01*
X45720122Y-107596004D01*
X45724243Y-107598999D01*
X47570984Y-107598999D01*
X47580616Y-107598051D01*
X47595455Y-107595100D01*
X47613126Y-107587781D01*
X47629986Y-107576515D01*
X47643515Y-107562986D01*
X47654781Y-107546124D01*
X47662100Y-107528456D01*
X47665052Y-107513613D01*
X47666000Y-107503991D01*
X47666000Y-106564680D01*
X47661878Y-106551995D01*
X47657757Y-106549000D01*
X45731680Y-106549000D01*
X45718995Y-106553122D01*
X45716000Y-106557243D01*
X45716000Y-107583319D01*
X45216000Y-107583319D01*
X45216000Y-106564680D01*
X45211878Y-106551995D01*
X45207757Y-106549000D01*
X43281681Y-106549000D01*
X43268996Y-106553122D01*
X43266001Y-106557243D01*
X43266001Y-107503984D01*
X42672000Y-107503984D01*
X42672000Y-106509057D01*
X48872001Y-106509057D01*
X48872528Y-106516255D01*
X48881006Y-106573859D01*
X48885515Y-106588371D01*
X48929873Y-106678716D01*
X48939271Y-106691843D01*
X49010152Y-106762601D01*
X49023294Y-106771974D01*
X49113722Y-106816176D01*
X49128231Y-106820661D01*
X49185278Y-106828983D01*
X49192405Y-106829500D01*
X49368820Y-106829500D01*
X49381505Y-106825378D01*
X49384500Y-106821257D01*
X49384500Y-106095180D01*
X49380378Y-106082495D01*
X49376257Y-106079500D01*
X48887681Y-106079500D01*
X48874996Y-106083622D01*
X48872001Y-106087743D01*
X48872001Y-106509057D01*
X42672000Y-106509057D01*
X42672000Y-106033320D01*
X43266000Y-106033320D01*
X43270122Y-106046005D01*
X43274243Y-106049000D01*
X45200320Y-106049000D01*
X45213005Y-106044878D01*
X45216000Y-106040757D01*
X45216000Y-106033320D01*
X45716000Y-106033320D01*
X45720122Y-106046005D01*
X45724243Y-106049000D01*
X47650319Y-106049000D01*
X47663004Y-106044878D01*
X47665999Y-106040757D01*
X47665999Y-105563820D01*
X48872000Y-105563820D01*
X48876122Y-105576505D01*
X48880243Y-105579500D01*
X49368820Y-105579500D01*
X49381505Y-105575378D01*
X49384500Y-105571257D01*
X49384500Y-104845181D01*
X49380378Y-104832496D01*
X49376257Y-104829501D01*
X49192443Y-104829501D01*
X49185245Y-104830028D01*
X49127641Y-104838506D01*
X49113129Y-104843015D01*
X49022784Y-104887373D01*
X49009657Y-104896771D01*
X48938899Y-104967652D01*
X48929526Y-104980794D01*
X48885324Y-105071222D01*
X48880839Y-105085731D01*
X48872517Y-105142778D01*
X48872000Y-105149905D01*
X48872000Y-105563820D01*
X47665999Y-105563820D01*
X47665999Y-105094016D01*
X47665051Y-105084384D01*
X47662100Y-105069545D01*
X47654781Y-105051874D01*
X47643515Y-105035014D01*
X47629986Y-105021485D01*
X47613124Y-105010219D01*
X47595456Y-105002900D01*
X47580613Y-104999948D01*
X47570991Y-104999000D01*
X45731680Y-104999000D01*
X45718995Y-105003122D01*
X45716000Y-105007243D01*
X45716000Y-106033320D01*
X45216000Y-106033320D01*
X45216000Y-105014681D01*
X45211878Y-105001996D01*
X45207757Y-104999001D01*
X43361016Y-104999001D01*
X43351384Y-104999949D01*
X43336545Y-105002900D01*
X43318874Y-105010219D01*
X43302014Y-105021485D01*
X43288485Y-105035014D01*
X43277219Y-105051876D01*
X43269900Y-105069544D01*
X43266948Y-105084387D01*
X43266000Y-105094009D01*
X43266000Y-106033320D01*
X42672000Y-106033320D01*
X42672000Y-104948419D01*
X42690907Y-104890228D01*
X42697635Y-104881947D01*
X42853794Y-104709653D01*
X42860658Y-104702789D01*
X43108682Y-104477993D01*
X43116181Y-104471839D01*
X43366106Y-104286482D01*
X43425080Y-104267000D01*
X49812000Y-104267000D01*
X49870191Y-104285907D01*
G37*
%TD.AperFunction*%
%TD*%
%TA.AperFunction,Conductor*%
%TO.N,/OUT3.3*%
G36*
X56728191Y-141750907D02*
G01*
X56764155Y-141800407D01*
X56769000Y-141831000D01*
X56769000Y-147475000D01*
X56750093Y-147533191D01*
X56700593Y-147569155D01*
X56670000Y-147574000D01*
X53467000Y-147574000D01*
X53467000Y-148491000D01*
X53448093Y-148549191D01*
X53398593Y-148585155D01*
X53368000Y-148590000D01*
X51761500Y-148590000D01*
X51756845Y-148583593D01*
X51752000Y-148553000D01*
X51752000Y-148136320D01*
X52252000Y-148136320D01*
X52256122Y-148149005D01*
X52260243Y-148152000D01*
X53086319Y-148152000D01*
X53099004Y-148147878D01*
X53101999Y-148143757D01*
X53101999Y-148072016D01*
X53101051Y-148062384D01*
X53098100Y-148047545D01*
X53090781Y-148029874D01*
X53079515Y-148013014D01*
X53065986Y-147999485D01*
X53049124Y-147988219D01*
X53031456Y-147980900D01*
X53016613Y-147977948D01*
X53006991Y-147977000D01*
X52267680Y-147977000D01*
X52254995Y-147981122D01*
X52252000Y-147985243D01*
X52252000Y-148136320D01*
X51752000Y-148136320D01*
X51752000Y-147992681D01*
X51747878Y-147979996D01*
X51743757Y-147977001D01*
X51153000Y-147977001D01*
X51094809Y-147958094D01*
X51058845Y-147908594D01*
X51054000Y-147878001D01*
X51054000Y-147546000D01*
X51072907Y-147487809D01*
X51122407Y-147451845D01*
X51153000Y-147447000D01*
X51308000Y-147447000D01*
X51308000Y-147138984D01*
X53854001Y-147138984D01*
X53854949Y-147148616D01*
X53857900Y-147163455D01*
X53865219Y-147181126D01*
X53876485Y-147197986D01*
X53890014Y-147211515D01*
X53906876Y-147222781D01*
X53924544Y-147230100D01*
X53939387Y-147233052D01*
X53949009Y-147234000D01*
X54888320Y-147234000D01*
X54901005Y-147229878D01*
X54904000Y-147225757D01*
X54904000Y-147218319D01*
X55404000Y-147218319D01*
X55408122Y-147231004D01*
X55412243Y-147233999D01*
X56358984Y-147233999D01*
X56368616Y-147233051D01*
X56383455Y-147230100D01*
X56401126Y-147222781D01*
X56417986Y-147211515D01*
X56431515Y-147197986D01*
X56442781Y-147181124D01*
X56450100Y-147163456D01*
X56453052Y-147148613D01*
X56454000Y-147138991D01*
X56454000Y-145299680D01*
X56449878Y-145286995D01*
X56445757Y-145284000D01*
X55419680Y-145284000D01*
X55406995Y-145288122D01*
X55404000Y-145292243D01*
X55404000Y-147218319D01*
X54904000Y-147218319D01*
X54904000Y-145299680D01*
X54899878Y-145286995D01*
X54895757Y-145284000D01*
X53869681Y-145284000D01*
X53856996Y-145288122D01*
X53854001Y-145292243D01*
X53854001Y-147138984D01*
X51308000Y-147138984D01*
X51308000Y-146783557D01*
X51592001Y-146783557D01*
X51592528Y-146790755D01*
X51601006Y-146848359D01*
X51605515Y-146862871D01*
X51649873Y-146953216D01*
X51659271Y-146966343D01*
X51730152Y-147037101D01*
X51743294Y-147046474D01*
X51833722Y-147090676D01*
X51848231Y-147095161D01*
X51905278Y-147103483D01*
X51912405Y-147104000D01*
X52026320Y-147104000D01*
X52039005Y-147099878D01*
X52042000Y-147095757D01*
X52042000Y-147088319D01*
X52542000Y-147088319D01*
X52546122Y-147101004D01*
X52550243Y-147103999D01*
X52671557Y-147103999D01*
X52678755Y-147103472D01*
X52736359Y-147094994D01*
X52750871Y-147090485D01*
X52841216Y-147046127D01*
X52854343Y-147036729D01*
X52925101Y-146965848D01*
X52934474Y-146952706D01*
X52978676Y-146862278D01*
X52983161Y-146847769D01*
X52991483Y-146790722D01*
X52992000Y-146783595D01*
X52992000Y-146569680D01*
X52987878Y-146556995D01*
X52983757Y-146554000D01*
X52557680Y-146554000D01*
X52544995Y-146558122D01*
X52542000Y-146562243D01*
X52542000Y-147088319D01*
X52042000Y-147088319D01*
X52042000Y-146569680D01*
X52037878Y-146556995D01*
X52033757Y-146554000D01*
X51607681Y-146554000D01*
X51594996Y-146558122D01*
X51592001Y-146562243D01*
X51592001Y-146783557D01*
X51308000Y-146783557D01*
X51308000Y-146038320D01*
X51592000Y-146038320D01*
X51596122Y-146051005D01*
X51600243Y-146054000D01*
X52026320Y-146054000D01*
X52039005Y-146049878D01*
X52042000Y-146045757D01*
X52042000Y-146038320D01*
X52542000Y-146038320D01*
X52546122Y-146051005D01*
X52550243Y-146054000D01*
X52976319Y-146054000D01*
X52989004Y-146049878D01*
X52991999Y-146045757D01*
X52991999Y-145824443D01*
X52991472Y-145817245D01*
X52982994Y-145759641D01*
X52978485Y-145745129D01*
X52934127Y-145654784D01*
X52924729Y-145641657D01*
X52853848Y-145570899D01*
X52840706Y-145561526D01*
X52750278Y-145517324D01*
X52735769Y-145512839D01*
X52678722Y-145504517D01*
X52671595Y-145504000D01*
X52557680Y-145504000D01*
X52544995Y-145508122D01*
X52542000Y-145512243D01*
X52542000Y-146038320D01*
X52042000Y-146038320D01*
X52042000Y-145519681D01*
X52037878Y-145506996D01*
X52033757Y-145504001D01*
X51912443Y-145504001D01*
X51905245Y-145504528D01*
X51847641Y-145513006D01*
X51833129Y-145517515D01*
X51742784Y-145561873D01*
X51729657Y-145571271D01*
X51658899Y-145642152D01*
X51649526Y-145655294D01*
X51605324Y-145745722D01*
X51600839Y-145760231D01*
X51592517Y-145817278D01*
X51592000Y-145824405D01*
X51592000Y-146038320D01*
X51308000Y-146038320D01*
X51308000Y-145034000D01*
X49248000Y-145034000D01*
X49189809Y-145015093D01*
X49153845Y-144965593D01*
X49149000Y-144935000D01*
X49149000Y-144768320D01*
X53854000Y-144768320D01*
X53858122Y-144781005D01*
X53862243Y-144784000D01*
X54888320Y-144784000D01*
X54901005Y-144779878D01*
X54904000Y-144775757D01*
X54904000Y-144768320D01*
X55404000Y-144768320D01*
X55408122Y-144781005D01*
X55412243Y-144784000D01*
X56438319Y-144784000D01*
X56451004Y-144779878D01*
X56453999Y-144775757D01*
X56453999Y-142929016D01*
X56453051Y-142919384D01*
X56450100Y-142904545D01*
X56442781Y-142886874D01*
X56431515Y-142870014D01*
X56417986Y-142856485D01*
X56401124Y-142845219D01*
X56383456Y-142837900D01*
X56368613Y-142834948D01*
X56358991Y-142834000D01*
X55419680Y-142834000D01*
X55406995Y-142838122D01*
X55404000Y-142842243D01*
X55404000Y-144768320D01*
X54904000Y-144768320D01*
X54904000Y-142849681D01*
X54899878Y-142836996D01*
X54895757Y-142834001D01*
X53949016Y-142834001D01*
X53939384Y-142834949D01*
X53924545Y-142837900D01*
X53906874Y-142845219D01*
X53890014Y-142856485D01*
X53876485Y-142870014D01*
X53865219Y-142886876D01*
X53857900Y-142904544D01*
X53854948Y-142919387D01*
X53854000Y-142929009D01*
X53854000Y-144768320D01*
X49149000Y-144768320D01*
X49149000Y-144160984D01*
X49418001Y-144160984D01*
X49418949Y-144170616D01*
X49421900Y-144185455D01*
X49429219Y-144203126D01*
X49440485Y-144219986D01*
X49454014Y-144233515D01*
X49470876Y-144244781D01*
X49488544Y-144252100D01*
X49503387Y-144255052D01*
X49513009Y-144256000D01*
X51002320Y-144256000D01*
X51015005Y-144251878D01*
X51018000Y-144247757D01*
X51018000Y-144240319D01*
X51518000Y-144240319D01*
X51522122Y-144253004D01*
X51526243Y-144255999D01*
X53022984Y-144255999D01*
X53032616Y-144255051D01*
X53047455Y-144252100D01*
X53065126Y-144244781D01*
X53081986Y-144233515D01*
X53095515Y-144219986D01*
X53106781Y-144203124D01*
X53114100Y-144185456D01*
X53117052Y-144170613D01*
X53118000Y-144160991D01*
X53118000Y-143521680D01*
X53113878Y-143508995D01*
X53109757Y-143506000D01*
X51533680Y-143506000D01*
X51520995Y-143510122D01*
X51518000Y-143514243D01*
X51518000Y-144240319D01*
X51018000Y-144240319D01*
X51018000Y-143521680D01*
X51013878Y-143508995D01*
X51009757Y-143506000D01*
X49433681Y-143506000D01*
X49420996Y-143510122D01*
X49418001Y-143514243D01*
X49418001Y-144160984D01*
X49149000Y-144160984D01*
X49149000Y-142990320D01*
X49418000Y-142990320D01*
X49422122Y-143003005D01*
X49426243Y-143006000D01*
X51002320Y-143006000D01*
X51015005Y-143001878D01*
X51018000Y-142997757D01*
X51018000Y-142990320D01*
X51518000Y-142990320D01*
X51522122Y-143003005D01*
X51526243Y-143006000D01*
X53102319Y-143006000D01*
X53115004Y-143001878D01*
X53117999Y-142997757D01*
X53117999Y-142351016D01*
X53117051Y-142341384D01*
X53114100Y-142326545D01*
X53106781Y-142308874D01*
X53095515Y-142292014D01*
X53081986Y-142278485D01*
X53065124Y-142267219D01*
X53047456Y-142259900D01*
X53032613Y-142256948D01*
X53022991Y-142256000D01*
X51533680Y-142256000D01*
X51520995Y-142260122D01*
X51518000Y-142264243D01*
X51518000Y-142990320D01*
X51018000Y-142990320D01*
X51018000Y-142271681D01*
X51013878Y-142258996D01*
X51009757Y-142256001D01*
X49513016Y-142256001D01*
X49503384Y-142256949D01*
X49488545Y-142259900D01*
X49470874Y-142267219D01*
X49454014Y-142278485D01*
X49440485Y-142292014D01*
X49429219Y-142308876D01*
X49421900Y-142326544D01*
X49418948Y-142341387D01*
X49418000Y-142351009D01*
X49418000Y-142990320D01*
X49149000Y-142990320D01*
X49149000Y-141831000D01*
X49167907Y-141772809D01*
X49217407Y-141736845D01*
X49248000Y-141732000D01*
X56670000Y-141732000D01*
X56728191Y-141750907D01*
G37*
%TD.AperFunction*%
%TD*%
%TA.AperFunction,Conductor*%
%TO.N,GND*%
G36*
X53934191Y-104285907D02*
G01*
X53970155Y-104335407D01*
X53975000Y-104366000D01*
X53975000Y-108359000D01*
X53956093Y-108417191D01*
X53906593Y-108453155D01*
X53876000Y-108458000D01*
X51181000Y-108458000D01*
X51181000Y-108486000D01*
X51162093Y-108544191D01*
X51112593Y-108580155D01*
X51082000Y-108585000D01*
X50864642Y-108585000D01*
X50806451Y-108566093D01*
X50804464Y-108563357D01*
X50775757Y-108542500D01*
X49633000Y-108542500D01*
X49574809Y-108523593D01*
X49538845Y-108474093D01*
X49534000Y-108443500D01*
X49534000Y-108141500D01*
X49552907Y-108083309D01*
X49602407Y-108047345D01*
X49633000Y-108042500D01*
X50768319Y-108042500D01*
X50781004Y-108038378D01*
X50784091Y-108034129D01*
X50784189Y-108033513D01*
X50811967Y-107978996D01*
X50866483Y-107951219D01*
X50881970Y-107950000D01*
X50927000Y-107950000D01*
X50927000Y-106509057D01*
X51997001Y-106509057D01*
X51997528Y-106516255D01*
X52006006Y-106573859D01*
X52010515Y-106588371D01*
X52054873Y-106678716D01*
X52064271Y-106691843D01*
X52135152Y-106762601D01*
X52148294Y-106771974D01*
X52238722Y-106816176D01*
X52253231Y-106820661D01*
X52310278Y-106828983D01*
X52317405Y-106829500D01*
X52493820Y-106829500D01*
X52506505Y-106825378D01*
X52509500Y-106821257D01*
X52509500Y-106813819D01*
X53009500Y-106813819D01*
X53013622Y-106826504D01*
X53017743Y-106829499D01*
X53201557Y-106829499D01*
X53208755Y-106828972D01*
X53266359Y-106820494D01*
X53280871Y-106815985D01*
X53371216Y-106771627D01*
X53384343Y-106762229D01*
X53455101Y-106691348D01*
X53464474Y-106678206D01*
X53508676Y-106587778D01*
X53513161Y-106573269D01*
X53521483Y-106516222D01*
X53522000Y-106509095D01*
X53522000Y-106095180D01*
X53517878Y-106082495D01*
X53513757Y-106079500D01*
X53025180Y-106079500D01*
X53012495Y-106083622D01*
X53009500Y-106087743D01*
X53009500Y-106813819D01*
X52509500Y-106813819D01*
X52509500Y-106095180D01*
X52505378Y-106082495D01*
X52501257Y-106079500D01*
X52012681Y-106079500D01*
X51999996Y-106083622D01*
X51997001Y-106087743D01*
X51997001Y-106509057D01*
X50927000Y-106509057D01*
X50927000Y-105563820D01*
X51997000Y-105563820D01*
X52001122Y-105576505D01*
X52005243Y-105579500D01*
X52493820Y-105579500D01*
X52506505Y-105575378D01*
X52509500Y-105571257D01*
X52509500Y-105563820D01*
X53009500Y-105563820D01*
X53013622Y-105576505D01*
X53017743Y-105579500D01*
X53506319Y-105579500D01*
X53519004Y-105575378D01*
X53521999Y-105571257D01*
X53521999Y-105149943D01*
X53521472Y-105142745D01*
X53512994Y-105085141D01*
X53508485Y-105070629D01*
X53464127Y-104980284D01*
X53454729Y-104967157D01*
X53383848Y-104896399D01*
X53370706Y-104887026D01*
X53280278Y-104842824D01*
X53265769Y-104838339D01*
X53208722Y-104830017D01*
X53201595Y-104829500D01*
X53025180Y-104829500D01*
X53012495Y-104833622D01*
X53009500Y-104837743D01*
X53009500Y-105563820D01*
X52509500Y-105563820D01*
X52509500Y-104845181D01*
X52505378Y-104832496D01*
X52501257Y-104829501D01*
X52317443Y-104829501D01*
X52310245Y-104830028D01*
X52252641Y-104838506D01*
X52238129Y-104843015D01*
X52147784Y-104887373D01*
X52134657Y-104896771D01*
X52063899Y-104967652D01*
X52054526Y-104980794D01*
X52010324Y-105071222D01*
X52005839Y-105085731D01*
X51997517Y-105142778D01*
X51997000Y-105149905D01*
X51997000Y-105563820D01*
X50927000Y-105563820D01*
X50927000Y-104366000D01*
X50945907Y-104307809D01*
X50995407Y-104271845D01*
X51026000Y-104267000D01*
X53876000Y-104267000D01*
X53934191Y-104285907D01*
G37*
%TD.AperFunction*%
%TD*%
%TA.AperFunction,Conductor*%
%TO.N,GND*%
G36*
X48473191Y-140988907D02*
G01*
X48509155Y-141038407D01*
X48514000Y-141069000D01*
X48514000Y-145316000D01*
X48495093Y-145374191D01*
X48445593Y-145410155D01*
X48415000Y-145415000D01*
X44168000Y-145415000D01*
X44109809Y-145396093D01*
X44073845Y-145346593D01*
X44069000Y-145316000D01*
X44069000Y-144160984D01*
X44418001Y-144160984D01*
X44418949Y-144170616D01*
X44421900Y-144185455D01*
X44429219Y-144203126D01*
X44440485Y-144219986D01*
X44454014Y-144233515D01*
X44470876Y-144244781D01*
X44488544Y-144252100D01*
X44503387Y-144255052D01*
X44513009Y-144256000D01*
X46002320Y-144256000D01*
X46015005Y-144251878D01*
X46018000Y-144247757D01*
X46018000Y-144240319D01*
X46518000Y-144240319D01*
X46522122Y-144253004D01*
X46526243Y-144255999D01*
X48022984Y-144255999D01*
X48032616Y-144255051D01*
X48047455Y-144252100D01*
X48065126Y-144244781D01*
X48081986Y-144233515D01*
X48095515Y-144219986D01*
X48106781Y-144203124D01*
X48114100Y-144185456D01*
X48117052Y-144170613D01*
X48118000Y-144160991D01*
X48118000Y-143521680D01*
X48113878Y-143508995D01*
X48109757Y-143506000D01*
X46533680Y-143506000D01*
X46520995Y-143510122D01*
X46518000Y-143514243D01*
X46518000Y-144240319D01*
X46018000Y-144240319D01*
X46018000Y-143521680D01*
X46013878Y-143508995D01*
X46009757Y-143506000D01*
X44433681Y-143506000D01*
X44420996Y-143510122D01*
X44418001Y-143514243D01*
X44418001Y-144160984D01*
X44069000Y-144160984D01*
X44069000Y-142990320D01*
X44418000Y-142990320D01*
X44422122Y-143003005D01*
X44426243Y-143006000D01*
X46002320Y-143006000D01*
X46015005Y-143001878D01*
X46018000Y-142997757D01*
X46018000Y-142990320D01*
X46518000Y-142990320D01*
X46522122Y-143003005D01*
X46526243Y-143006000D01*
X48102319Y-143006000D01*
X48115004Y-143001878D01*
X48117999Y-142997757D01*
X48117999Y-142351016D01*
X48117051Y-142341384D01*
X48114100Y-142326545D01*
X48106781Y-142308874D01*
X48095515Y-142292014D01*
X48081986Y-142278485D01*
X48065124Y-142267219D01*
X48047456Y-142259900D01*
X48032613Y-142256948D01*
X48022991Y-142256000D01*
X46533680Y-142256000D01*
X46520995Y-142260122D01*
X46518000Y-142264243D01*
X46518000Y-142990320D01*
X46018000Y-142990320D01*
X46018000Y-142271681D01*
X46013878Y-142258996D01*
X46009757Y-142256001D01*
X44513016Y-142256001D01*
X44503384Y-142256949D01*
X44488545Y-142259900D01*
X44470874Y-142267219D01*
X44454014Y-142278485D01*
X44440485Y-142292014D01*
X44429219Y-142308876D01*
X44421900Y-142326544D01*
X44418948Y-142341387D01*
X44418000Y-142351009D01*
X44418000Y-142990320D01*
X44069000Y-142990320D01*
X44069000Y-141069000D01*
X44087907Y-141010809D01*
X44137407Y-140974845D01*
X44168000Y-140970000D01*
X48415000Y-140970000D01*
X48473191Y-140988907D01*
G37*
%TD.AperFunction*%
%TD*%
%TA.AperFunction,Conductor*%
%TO.N,GND*%
G36*
X61318202Y-114318907D02*
G01*
X61354166Y-114368407D01*
X61359011Y-114399000D01*
X61359011Y-118773000D01*
X61340104Y-118831191D01*
X61290604Y-118867155D01*
X61260011Y-118872000D01*
X57503000Y-118872000D01*
X57444809Y-118853093D01*
X57408845Y-118803593D01*
X57404000Y-118773000D01*
X57404000Y-118121557D01*
X58536001Y-118121557D01*
X58536528Y-118128754D01*
X58545006Y-118186355D01*
X58549517Y-118200873D01*
X58593873Y-118291216D01*
X58603270Y-118304342D01*
X58674152Y-118375101D01*
X58687294Y-118384474D01*
X58777722Y-118428676D01*
X58792231Y-118433161D01*
X58849278Y-118441483D01*
X58856405Y-118442000D01*
X59170320Y-118442000D01*
X59183005Y-118437878D01*
X59186000Y-118433757D01*
X59186000Y-118426319D01*
X59686000Y-118426319D01*
X59690122Y-118439004D01*
X59694243Y-118441999D01*
X60015557Y-118441999D01*
X60022754Y-118441472D01*
X60080355Y-118432994D01*
X60094873Y-118428483D01*
X60185216Y-118384127D01*
X60198342Y-118374730D01*
X60269101Y-118303848D01*
X60278474Y-118290706D01*
X60322676Y-118200278D01*
X60327161Y-118185769D01*
X60335483Y-118128722D01*
X60336000Y-118121595D01*
X60336000Y-116857680D01*
X60331878Y-116844995D01*
X60327757Y-116842000D01*
X59701680Y-116842000D01*
X59688995Y-116846122D01*
X59686000Y-116850243D01*
X59686000Y-118426319D01*
X59186000Y-118426319D01*
X59186000Y-116857680D01*
X59181878Y-116844995D01*
X59177757Y-116842000D01*
X58551681Y-116842000D01*
X58538996Y-116846122D01*
X58536001Y-116850243D01*
X58536001Y-118121557D01*
X57404000Y-118121557D01*
X57404000Y-116326320D01*
X58536000Y-116326320D01*
X58540122Y-116339005D01*
X58544243Y-116342000D01*
X59170320Y-116342000D01*
X59183005Y-116337878D01*
X59186000Y-116333757D01*
X59186000Y-116326320D01*
X59686000Y-116326320D01*
X59690122Y-116339005D01*
X59694243Y-116342000D01*
X60320319Y-116342000D01*
X60333004Y-116337878D01*
X60335999Y-116333757D01*
X60335999Y-115062443D01*
X60335472Y-115055246D01*
X60326994Y-114997645D01*
X60322483Y-114983127D01*
X60278127Y-114892784D01*
X60268730Y-114879658D01*
X60197848Y-114808899D01*
X60184706Y-114799526D01*
X60094278Y-114755324D01*
X60079769Y-114750839D01*
X60022722Y-114742517D01*
X60015595Y-114742000D01*
X59701680Y-114742000D01*
X59688995Y-114746122D01*
X59686000Y-114750243D01*
X59686000Y-116326320D01*
X59186000Y-116326320D01*
X59186000Y-114757681D01*
X59181878Y-114744996D01*
X59177757Y-114742001D01*
X58856443Y-114742001D01*
X58849246Y-114742528D01*
X58791645Y-114751006D01*
X58777127Y-114755517D01*
X58686784Y-114799873D01*
X58673658Y-114809270D01*
X58602899Y-114880152D01*
X58593526Y-114893294D01*
X58549324Y-114983722D01*
X58544839Y-114998231D01*
X58536517Y-115055278D01*
X58536000Y-115062405D01*
X58536000Y-116326320D01*
X57404000Y-116326320D01*
X57404000Y-114399000D01*
X57422907Y-114340809D01*
X57472407Y-114304845D01*
X57503000Y-114300000D01*
X61260011Y-114300000D01*
X61318202Y-114318907D01*
G37*
%TD.AperFunction*%
%TD*%
%TA.AperFunction,Conductor*%
%TO.N,GND*%
G36*
X46992658Y-147592907D02*
G01*
X47004471Y-147602996D01*
X47099536Y-147698061D01*
X47102406Y-147701054D01*
X47144799Y-147747156D01*
X47150536Y-147750713D01*
X47182857Y-147770753D01*
X47190541Y-147776033D01*
X47204855Y-147786898D01*
X47239774Y-147837139D01*
X47244000Y-147865755D01*
X47244000Y-148971000D01*
X47369739Y-148971000D01*
X47409768Y-148979454D01*
X47511673Y-149024506D01*
X47519067Y-149025368D01*
X47534378Y-149027153D01*
X47537354Y-149027500D01*
X49626646Y-149027500D01*
X49652846Y-149024382D01*
X49659064Y-149021620D01*
X49719884Y-149024416D01*
X49767680Y-149062614D01*
X49784000Y-149117066D01*
X49784000Y-149586942D01*
X49765093Y-149645133D01*
X49715593Y-149681097D01*
X49659023Y-149682455D01*
X49652327Y-149679494D01*
X49644936Y-149678632D01*
X49644935Y-149678632D01*
X49629494Y-149676832D01*
X49629493Y-149676832D01*
X49626646Y-149676500D01*
X47537354Y-149676500D01*
X47520951Y-149678452D01*
X47518531Y-149678740D01*
X47518530Y-149678740D01*
X47511154Y-149679618D01*
X47412520Y-149723430D01*
X47410164Y-149724476D01*
X47369976Y-149733000D01*
X47244000Y-149733000D01*
X47244000Y-151031000D01*
X47225093Y-151089191D01*
X47175593Y-151125155D01*
X47145000Y-151130000D01*
X45565000Y-151130000D01*
X45506809Y-151111093D01*
X45470845Y-151061593D01*
X45466000Y-151031000D01*
X45466000Y-147673000D01*
X45484907Y-147614809D01*
X45534407Y-147578845D01*
X45565000Y-147574000D01*
X46934467Y-147574000D01*
X46992658Y-147592907D01*
G37*
%TD.AperFunction*%
%TD*%
%TA.AperFunction,Conductor*%
%TO.N,VCC*%
G36*
X48956787Y-109226952D02*
G01*
X49001452Y-109244636D01*
X49091227Y-109255500D01*
X49783884Y-109255500D01*
X50476772Y-109255499D01*
X50479737Y-109255140D01*
X50479741Y-109255140D01*
X50560235Y-109245400D01*
X50560236Y-109245400D01*
X50566548Y-109244636D01*
X50611213Y-109226952D01*
X50647657Y-109220000D01*
X51345548Y-109220000D01*
X51403739Y-109238907D01*
X51405243Y-109240000D01*
X52981319Y-109240000D01*
X53023306Y-109226358D01*
X53025385Y-109224847D01*
X53055984Y-109220000D01*
X53876000Y-109220000D01*
X53934191Y-109238907D01*
X53970155Y-109288407D01*
X53975000Y-109319000D01*
X53975000Y-110518000D01*
X53956093Y-110576191D01*
X53906593Y-110612155D01*
X53876000Y-110617000D01*
X52840451Y-110617000D01*
X52804007Y-110610048D01*
X52779548Y-110600364D01*
X52689773Y-110589500D01*
X52197083Y-110589500D01*
X51704228Y-110589501D01*
X51701263Y-110589860D01*
X51701259Y-110589860D01*
X51620765Y-110599600D01*
X51620764Y-110599600D01*
X51614452Y-110600364D01*
X51589993Y-110610048D01*
X51553549Y-110617000D01*
X51054000Y-110617000D01*
X51054000Y-112083468D01*
X51035093Y-112141659D01*
X51025004Y-112153471D01*
X50910476Y-112268000D01*
X50812473Y-112366003D01*
X50757956Y-112393781D01*
X50742469Y-112395000D01*
X50546000Y-112395000D01*
X50546000Y-112612499D01*
X50527043Y-112668824D01*
X50527283Y-112668959D01*
X50526574Y-112670217D01*
X50525854Y-112672357D01*
X50519888Y-112680217D01*
X50513467Y-112696434D01*
X50505560Y-112712155D01*
X50499922Y-112721248D01*
X50499920Y-112721253D01*
X50496365Y-112726986D01*
X50494483Y-112733463D01*
X50491736Y-112739633D01*
X50489568Y-112738668D01*
X50471238Y-112769730D01*
X50426759Y-112814287D01*
X50423064Y-112822645D01*
X50420682Y-112828032D01*
X50379860Y-112873607D01*
X50330137Y-112887000D01*
X50319680Y-112887000D01*
X50306995Y-112891122D01*
X50304000Y-112895243D01*
X50304000Y-114138000D01*
X50285093Y-114196191D01*
X50235593Y-114232155D01*
X50205000Y-114237000D01*
X49903000Y-114237000D01*
X49844809Y-114218093D01*
X49808845Y-114168593D01*
X49804000Y-114138000D01*
X49804000Y-112902681D01*
X49799878Y-112889996D01*
X49795757Y-112887001D01*
X49777785Y-112887001D01*
X49719594Y-112868094D01*
X49687308Y-112828186D01*
X49684650Y-112822202D01*
X49680939Y-112813847D01*
X49674469Y-112807388D01*
X49674411Y-112807304D01*
X49657000Y-112751230D01*
X49657000Y-112268000D01*
X49633000Y-112268000D01*
X49574809Y-112249093D01*
X49538845Y-112199593D01*
X49534000Y-112169000D01*
X49534000Y-112164319D01*
X50034000Y-112164319D01*
X50038122Y-112177004D01*
X50042243Y-112179999D01*
X50463557Y-112179999D01*
X50470755Y-112179472D01*
X50528359Y-112170994D01*
X50542871Y-112166485D01*
X50633216Y-112122127D01*
X50646343Y-112112729D01*
X50717101Y-112041848D01*
X50726474Y-112028706D01*
X50770676Y-111938278D01*
X50775161Y-111923769D01*
X50783483Y-111866722D01*
X50784000Y-111859595D01*
X50784000Y-111683180D01*
X50779878Y-111670495D01*
X50775757Y-111667500D01*
X50049680Y-111667500D01*
X50036995Y-111671622D01*
X50034000Y-111675743D01*
X50034000Y-112164319D01*
X49534000Y-112164319D01*
X49534000Y-111683180D01*
X49529878Y-111670495D01*
X49525757Y-111667500D01*
X48799681Y-111667500D01*
X48786996Y-111671622D01*
X48784001Y-111675743D01*
X48784001Y-111859557D01*
X48784528Y-111866755D01*
X48793006Y-111924359D01*
X48797515Y-111938871D01*
X48841873Y-112029216D01*
X48851271Y-112042343D01*
X48907962Y-112098935D01*
X48935788Y-112153428D01*
X48926269Y-112213868D01*
X48883042Y-112257170D01*
X48838020Y-112268000D01*
X48486000Y-112268000D01*
X48427809Y-112249093D01*
X48391845Y-112199593D01*
X48387000Y-112169000D01*
X48387000Y-111151820D01*
X48784000Y-111151820D01*
X48788122Y-111164505D01*
X48792243Y-111167500D01*
X49518320Y-111167500D01*
X49531005Y-111163378D01*
X49534000Y-111159257D01*
X49534000Y-111151820D01*
X50034000Y-111151820D01*
X50038122Y-111164505D01*
X50042243Y-111167500D01*
X50768319Y-111167500D01*
X50781004Y-111163378D01*
X50783999Y-111159257D01*
X50783999Y-110975443D01*
X50783472Y-110968245D01*
X50774994Y-110910641D01*
X50770485Y-110896129D01*
X50726127Y-110805784D01*
X50716729Y-110792657D01*
X50645848Y-110721899D01*
X50632706Y-110712526D01*
X50542278Y-110668324D01*
X50527769Y-110663839D01*
X50470722Y-110655517D01*
X50463595Y-110655000D01*
X50049680Y-110655000D01*
X50036995Y-110659122D01*
X50034000Y-110663243D01*
X50034000Y-111151820D01*
X49534000Y-111151820D01*
X49534000Y-110670681D01*
X49529878Y-110657996D01*
X49525757Y-110655001D01*
X49104443Y-110655001D01*
X49097245Y-110655528D01*
X49039641Y-110664006D01*
X49025129Y-110668515D01*
X48934784Y-110712873D01*
X48921657Y-110722271D01*
X48850899Y-110793152D01*
X48841526Y-110806294D01*
X48797324Y-110896722D01*
X48792839Y-110911231D01*
X48784517Y-110968278D01*
X48784000Y-110975405D01*
X48784000Y-111151820D01*
X48387000Y-111151820D01*
X48387000Y-109869557D01*
X51397001Y-109869557D01*
X51397528Y-109876755D01*
X51406006Y-109934359D01*
X51410515Y-109948871D01*
X51454873Y-110039216D01*
X51464271Y-110052343D01*
X51535152Y-110123101D01*
X51548294Y-110132474D01*
X51638722Y-110176676D01*
X51653231Y-110181161D01*
X51710278Y-110189483D01*
X51717405Y-110190000D01*
X51931320Y-110190000D01*
X51944005Y-110185878D01*
X51947000Y-110181757D01*
X51947000Y-110174319D01*
X52447000Y-110174319D01*
X52451122Y-110187004D01*
X52455243Y-110189999D01*
X52676557Y-110189999D01*
X52683755Y-110189472D01*
X52741359Y-110180994D01*
X52755871Y-110176485D01*
X52846216Y-110132127D01*
X52859343Y-110122729D01*
X52930101Y-110051848D01*
X52939474Y-110038706D01*
X52983676Y-109948278D01*
X52988161Y-109933769D01*
X52996483Y-109876722D01*
X52997000Y-109869595D01*
X52997000Y-109755680D01*
X52992878Y-109742995D01*
X52988757Y-109740000D01*
X52462680Y-109740000D01*
X52449995Y-109744122D01*
X52447000Y-109748243D01*
X52447000Y-110174319D01*
X51947000Y-110174319D01*
X51947000Y-109755680D01*
X51942878Y-109742995D01*
X51938757Y-109740000D01*
X51412681Y-109740000D01*
X51399996Y-109744122D01*
X51397001Y-109748243D01*
X51397001Y-109869557D01*
X48387000Y-109869557D01*
X48387000Y-109319000D01*
X48405907Y-109260809D01*
X48455407Y-109224845D01*
X48486000Y-109220000D01*
X48920343Y-109220000D01*
X48956787Y-109226952D01*
G37*
%TD.AperFunction*%
%TD*%
%TA.AperFunction,Conductor*%
%TO.N,GND*%
G36*
X56924229Y-148845219D02*
G01*
X56941789Y-148848000D01*
X58446053Y-148848000D01*
X58471310Y-148844000D01*
X58902243Y-148844000D01*
X58917729Y-148845219D01*
X58935289Y-148848000D01*
X60439553Y-148848000D01*
X60464810Y-148844000D01*
X60607000Y-148844000D01*
X60665191Y-148862907D01*
X60701155Y-148912407D01*
X60706000Y-148943000D01*
X60706000Y-152654000D01*
X61369000Y-152654000D01*
X61427191Y-152672907D01*
X61463155Y-152722407D01*
X61468000Y-152753000D01*
X61468000Y-155349000D01*
X61449093Y-155407191D01*
X61399593Y-155443155D01*
X61369000Y-155448000D01*
X56360000Y-155448000D01*
X56301809Y-155429093D01*
X56265845Y-155379593D01*
X56261000Y-155349000D01*
X56261000Y-155123500D01*
X56279907Y-155065309D01*
X56329407Y-155029345D01*
X56360000Y-155024500D01*
X57162772Y-155024500D01*
X57252547Y-155013636D01*
X57392783Y-154958113D01*
X57398158Y-154954033D01*
X57398160Y-154954032D01*
X57507543Y-154871005D01*
X57512922Y-154866922D01*
X57545894Y-154823483D01*
X57600032Y-154752160D01*
X57600033Y-154752158D01*
X57604113Y-154746783D01*
X57659636Y-154606547D01*
X57670500Y-154516772D01*
X57670500Y-154503557D01*
X59370001Y-154503557D01*
X59370528Y-154510754D01*
X59379006Y-154568355D01*
X59383517Y-154582873D01*
X59427873Y-154673216D01*
X59437270Y-154686342D01*
X59508152Y-154757101D01*
X59521294Y-154766474D01*
X59611722Y-154810676D01*
X59626231Y-154815161D01*
X59683278Y-154823483D01*
X59690405Y-154824000D01*
X60954320Y-154823999D01*
X60967005Y-154819877D01*
X60970000Y-154815756D01*
X60970000Y-154189680D01*
X60965878Y-154176995D01*
X60961757Y-154174000D01*
X59385681Y-154174000D01*
X59372996Y-154178122D01*
X59370001Y-154182243D01*
X59370001Y-154503557D01*
X57670500Y-154503557D01*
X57670500Y-153658320D01*
X59370000Y-153658320D01*
X59374122Y-153671005D01*
X59378243Y-153674000D01*
X60954320Y-153674000D01*
X60967005Y-153669878D01*
X60970000Y-153665757D01*
X60970000Y-153039680D01*
X60965878Y-153026995D01*
X60961757Y-153024000D01*
X59690443Y-153024001D01*
X59683246Y-153024528D01*
X59625645Y-153033006D01*
X59611127Y-153037517D01*
X59520784Y-153081873D01*
X59507658Y-153091270D01*
X59436899Y-153162152D01*
X59427526Y-153175294D01*
X59383324Y-153265722D01*
X59378839Y-153280231D01*
X59370517Y-153337278D01*
X59370000Y-153344405D01*
X59370000Y-153658320D01*
X57670500Y-153658320D01*
X57670500Y-153331228D01*
X57659636Y-153241453D01*
X57604113Y-153101217D01*
X57512922Y-152981078D01*
X57507543Y-152976995D01*
X57398160Y-152893968D01*
X57398158Y-152893967D01*
X57392783Y-152889887D01*
X57252547Y-152834364D01*
X57162772Y-152823500D01*
X56360000Y-152823500D01*
X56301809Y-152804593D01*
X56265845Y-152755093D01*
X56261000Y-152724500D01*
X56261000Y-149777557D01*
X56934001Y-149777557D01*
X56934528Y-149784755D01*
X56943006Y-149842359D01*
X56947515Y-149856871D01*
X56991873Y-149947216D01*
X57001271Y-149960343D01*
X57072152Y-150031101D01*
X57085294Y-150040474D01*
X57175722Y-150084676D01*
X57190231Y-150089161D01*
X57247278Y-150097483D01*
X57254405Y-150098000D01*
X57430820Y-150098000D01*
X57443505Y-150093878D01*
X57446500Y-150089757D01*
X57446500Y-150082319D01*
X57946500Y-150082319D01*
X57950622Y-150095004D01*
X57954743Y-150097999D01*
X58138557Y-150097999D01*
X58145755Y-150097472D01*
X58203359Y-150088994D01*
X58217871Y-150084485D01*
X58308216Y-150040127D01*
X58321343Y-150030729D01*
X58392101Y-149959848D01*
X58401474Y-149946706D01*
X58445676Y-149856278D01*
X58450161Y-149841769D01*
X58458483Y-149784722D01*
X58459000Y-149777595D01*
X58459000Y-149777557D01*
X58927501Y-149777557D01*
X58928028Y-149784755D01*
X58936506Y-149842359D01*
X58941015Y-149856871D01*
X58985373Y-149947216D01*
X58994771Y-149960343D01*
X59065652Y-150031101D01*
X59078794Y-150040474D01*
X59169222Y-150084676D01*
X59183731Y-150089161D01*
X59240778Y-150097483D01*
X59247905Y-150098000D01*
X59424320Y-150098000D01*
X59437005Y-150093878D01*
X59440000Y-150089757D01*
X59440000Y-150082319D01*
X59940000Y-150082319D01*
X59944122Y-150095004D01*
X59948243Y-150097999D01*
X60132057Y-150097999D01*
X60139255Y-150097472D01*
X60196859Y-150088994D01*
X60211371Y-150084485D01*
X60301716Y-150040127D01*
X60314843Y-150030729D01*
X60385601Y-149959848D01*
X60394974Y-149946706D01*
X60439176Y-149856278D01*
X60443661Y-149841769D01*
X60451983Y-149784722D01*
X60452500Y-149777595D01*
X60452500Y-149363680D01*
X60448378Y-149350995D01*
X60444257Y-149348000D01*
X59955680Y-149348000D01*
X59942995Y-149352122D01*
X59940000Y-149356243D01*
X59940000Y-150082319D01*
X59440000Y-150082319D01*
X59440000Y-149363680D01*
X59435878Y-149350995D01*
X59431757Y-149348000D01*
X58943181Y-149348000D01*
X58930496Y-149352122D01*
X58927501Y-149356243D01*
X58927501Y-149777557D01*
X58459000Y-149777557D01*
X58459000Y-149363680D01*
X58454878Y-149350995D01*
X58450757Y-149348000D01*
X57962180Y-149348000D01*
X57949495Y-149352122D01*
X57946500Y-149356243D01*
X57946500Y-150082319D01*
X57446500Y-150082319D01*
X57446500Y-149363680D01*
X57442378Y-149350995D01*
X57438257Y-149348000D01*
X56949681Y-149348000D01*
X56936996Y-149352122D01*
X56934001Y-149356243D01*
X56934001Y-149777557D01*
X56261000Y-149777557D01*
X56261000Y-148943000D01*
X56279907Y-148884809D01*
X56329407Y-148848845D01*
X56360000Y-148844000D01*
X56908743Y-148844000D01*
X56924229Y-148845219D01*
G37*
%TD.AperFunction*%
%TD*%
%TA.AperFunction,Conductor*%
%TO.N,GND*%
G36*
X50347133Y-116223907D02*
G01*
X50383097Y-116273407D01*
X50384455Y-116329977D01*
X50381494Y-116336673D01*
X50378500Y-116362354D01*
X50378500Y-118451646D01*
X50381618Y-118477846D01*
X50384634Y-118484635D01*
X50410476Y-118542815D01*
X50419000Y-118583003D01*
X50419000Y-118745000D01*
X51717000Y-118745000D01*
X51775191Y-118763907D01*
X51811155Y-118813407D01*
X51816000Y-118844000D01*
X51816000Y-120424000D01*
X51797093Y-120482191D01*
X51747593Y-120518155D01*
X51717000Y-120523000D01*
X48359000Y-120523000D01*
X48300809Y-120504093D01*
X48264845Y-120454593D01*
X48260000Y-120424000D01*
X48260000Y-119070533D01*
X48278907Y-119012342D01*
X48288996Y-119000529D01*
X48515529Y-118773996D01*
X48570046Y-118746219D01*
X48585533Y-118745000D01*
X49657000Y-118745000D01*
X49657000Y-118642799D01*
X49674314Y-118586867D01*
X49674782Y-118586183D01*
X49681241Y-118579713D01*
X49726506Y-118477327D01*
X49729500Y-118451646D01*
X49729500Y-116362354D01*
X49726382Y-116336154D01*
X49723620Y-116329936D01*
X49726416Y-116269116D01*
X49764614Y-116221320D01*
X49819066Y-116205000D01*
X50288942Y-116205000D01*
X50347133Y-116223907D01*
G37*
%TD.AperFunction*%
%TD*%
%TA.AperFunction,Conductor*%
%TO.N,+3V3*%
G36*
X63967191Y-142131907D02*
G01*
X64003155Y-142181407D01*
X64008000Y-142212000D01*
X64008000Y-150396000D01*
X63989093Y-150454191D01*
X63939593Y-150490155D01*
X63909000Y-150495000D01*
X61313000Y-150495000D01*
X61254809Y-150476093D01*
X61218845Y-150426593D01*
X61214000Y-150396000D01*
X61214000Y-149777557D01*
X62052501Y-149777557D01*
X62053028Y-149784755D01*
X62061506Y-149842359D01*
X62066015Y-149856871D01*
X62110373Y-149947216D01*
X62119771Y-149960343D01*
X62190652Y-150031101D01*
X62203794Y-150040474D01*
X62294222Y-150084676D01*
X62308731Y-150089161D01*
X62365778Y-150097483D01*
X62372905Y-150098000D01*
X62549320Y-150098000D01*
X62562005Y-150093878D01*
X62565000Y-150089757D01*
X62565000Y-150082319D01*
X63065000Y-150082319D01*
X63069122Y-150095004D01*
X63073243Y-150097999D01*
X63257057Y-150097999D01*
X63264255Y-150097472D01*
X63321859Y-150088994D01*
X63336371Y-150084485D01*
X63426716Y-150040127D01*
X63439843Y-150030729D01*
X63510601Y-149959848D01*
X63519974Y-149946706D01*
X63564176Y-149856278D01*
X63568661Y-149841769D01*
X63576983Y-149784722D01*
X63577500Y-149777595D01*
X63577500Y-149363680D01*
X63573378Y-149350995D01*
X63569257Y-149348000D01*
X63080680Y-149348000D01*
X63067995Y-149352122D01*
X63065000Y-149356243D01*
X63065000Y-150082319D01*
X62565000Y-150082319D01*
X62565000Y-149363680D01*
X62560878Y-149350995D01*
X62556757Y-149348000D01*
X62068181Y-149348000D01*
X62055496Y-149352122D01*
X62052501Y-149356243D01*
X62052501Y-149777557D01*
X61214000Y-149777557D01*
X61214000Y-148832320D01*
X62052500Y-148832320D01*
X62056622Y-148845005D01*
X62060743Y-148848000D01*
X62549320Y-148848000D01*
X62562005Y-148843878D01*
X62565000Y-148839757D01*
X62565000Y-148832320D01*
X63065000Y-148832320D01*
X63069122Y-148845005D01*
X63073243Y-148848000D01*
X63561819Y-148848000D01*
X63574504Y-148843878D01*
X63577499Y-148839757D01*
X63577499Y-148418443D01*
X63576972Y-148411245D01*
X63568494Y-148353641D01*
X63563985Y-148339129D01*
X63519627Y-148248784D01*
X63510229Y-148235657D01*
X63439348Y-148164899D01*
X63426206Y-148155526D01*
X63335778Y-148111324D01*
X63321269Y-148106839D01*
X63264222Y-148098517D01*
X63257095Y-148098000D01*
X63080680Y-148098000D01*
X63067995Y-148102122D01*
X63065000Y-148106243D01*
X63065000Y-148832320D01*
X62565000Y-148832320D01*
X62565000Y-148113681D01*
X62560878Y-148100996D01*
X62556757Y-148098001D01*
X62372943Y-148098001D01*
X62365745Y-148098528D01*
X62308141Y-148107006D01*
X62293629Y-148111515D01*
X62203284Y-148155873D01*
X62190157Y-148165271D01*
X62119399Y-148236152D01*
X62110026Y-148249294D01*
X62065824Y-148339722D01*
X62061339Y-148354231D01*
X62053017Y-148411278D01*
X62052500Y-148418405D01*
X62052500Y-148832320D01*
X61214000Y-148832320D01*
X61214000Y-147574000D01*
X58138000Y-147574000D01*
X58079809Y-147555093D01*
X58043845Y-147505593D01*
X58039000Y-147475000D01*
X58039000Y-147138984D01*
X58354001Y-147138984D01*
X58354949Y-147148616D01*
X58357900Y-147163455D01*
X58365219Y-147181126D01*
X58376485Y-147197986D01*
X58390014Y-147211515D01*
X58406876Y-147222781D01*
X58424544Y-147230100D01*
X58439387Y-147233052D01*
X58449009Y-147234000D01*
X59388320Y-147234000D01*
X59401005Y-147229878D01*
X59404000Y-147225757D01*
X59404000Y-147218319D01*
X59904000Y-147218319D01*
X59908122Y-147231004D01*
X59912243Y-147233999D01*
X60858984Y-147233999D01*
X60868616Y-147233051D01*
X60883455Y-147230100D01*
X60901126Y-147222781D01*
X60917986Y-147211515D01*
X60931515Y-147197986D01*
X60942781Y-147181124D01*
X60950100Y-147163456D01*
X60953052Y-147148613D01*
X60954000Y-147138991D01*
X60954000Y-145299680D01*
X60949878Y-145286995D01*
X60945757Y-145284000D01*
X59919680Y-145284000D01*
X59906995Y-145288122D01*
X59904000Y-145292243D01*
X59904000Y-147218319D01*
X59404000Y-147218319D01*
X59404000Y-145299680D01*
X59399878Y-145286995D01*
X59395757Y-145284000D01*
X58369681Y-145284000D01*
X58356996Y-145288122D01*
X58354001Y-145292243D01*
X58354001Y-147138984D01*
X58039000Y-147138984D01*
X58039000Y-144768320D01*
X58354000Y-144768320D01*
X58358122Y-144781005D01*
X58362243Y-144784000D01*
X59388320Y-144784000D01*
X59401005Y-144779878D01*
X59404000Y-144775757D01*
X59404000Y-144768320D01*
X59904000Y-144768320D01*
X59908122Y-144781005D01*
X59912243Y-144784000D01*
X60938319Y-144784000D01*
X60951004Y-144779878D01*
X60953999Y-144775757D01*
X60953999Y-142929016D01*
X60953051Y-142919384D01*
X60950100Y-142904545D01*
X60942781Y-142886874D01*
X60931515Y-142870014D01*
X60917986Y-142856485D01*
X60901124Y-142845219D01*
X60883456Y-142837900D01*
X60868613Y-142834948D01*
X60858991Y-142834000D01*
X59919680Y-142834000D01*
X59906995Y-142838122D01*
X59904000Y-142842243D01*
X59904000Y-144768320D01*
X59404000Y-144768320D01*
X59404000Y-142849681D01*
X59399878Y-142836996D01*
X59395757Y-142834001D01*
X58449016Y-142834001D01*
X58439384Y-142834949D01*
X58424545Y-142837900D01*
X58406874Y-142845219D01*
X58390014Y-142856485D01*
X58376485Y-142870014D01*
X58365219Y-142886876D01*
X58357900Y-142904544D01*
X58354948Y-142919387D01*
X58354000Y-142929009D01*
X58354000Y-144768320D01*
X58039000Y-144768320D01*
X58039000Y-142212000D01*
X58057907Y-142153809D01*
X58107407Y-142117845D01*
X58138000Y-142113000D01*
X63909000Y-142113000D01*
X63967191Y-142131907D01*
G37*
%TD.AperFunction*%
%TD*%
%TA.AperFunction,Conductor*%
%TO.N,/OUT5.0*%
G36*
X47838191Y-110635907D02*
G01*
X47874155Y-110685407D01*
X47879000Y-110716000D01*
X47879000Y-112649000D01*
X49177000Y-112649000D01*
X49235191Y-112667907D01*
X49271155Y-112717407D01*
X49276000Y-112748000D01*
X49276000Y-115598000D01*
X49257093Y-115656191D01*
X49207593Y-115692155D01*
X49177000Y-115697000D01*
X48105500Y-115697000D01*
X48047309Y-115678093D01*
X48011345Y-115628593D01*
X48006500Y-115598000D01*
X48006499Y-115291217D01*
X48006499Y-115288228D01*
X48006166Y-115285476D01*
X48006000Y-115279952D01*
X48006000Y-114991984D01*
X48679001Y-114991984D01*
X48679949Y-115001616D01*
X48682900Y-115016455D01*
X48690219Y-115034126D01*
X48701485Y-115050986D01*
X48715014Y-115064515D01*
X48731876Y-115075781D01*
X48749544Y-115083100D01*
X48764387Y-115086052D01*
X48774009Y-115087000D01*
X48838320Y-115087000D01*
X48851005Y-115082878D01*
X48854000Y-115078757D01*
X48854000Y-114252680D01*
X48849878Y-114239995D01*
X48845757Y-114237000D01*
X48694681Y-114237000D01*
X48681996Y-114241122D01*
X48679001Y-114245243D01*
X48679001Y-114991984D01*
X48006000Y-114991984D01*
X48006000Y-114681000D01*
X45847000Y-114681000D01*
X45847000Y-114836000D01*
X45828093Y-114894191D01*
X45778593Y-114930155D01*
X45748000Y-114935000D01*
X42517000Y-114935000D01*
X42458809Y-114916093D01*
X42422845Y-114866593D01*
X42418000Y-114836000D01*
X42418000Y-112966009D01*
X42958000Y-112966009D01*
X42958001Y-114455320D01*
X42962123Y-114468005D01*
X42966244Y-114471000D01*
X43692320Y-114471000D01*
X43705005Y-114466878D01*
X43708000Y-114462757D01*
X43708000Y-114455320D01*
X44208000Y-114455320D01*
X44212122Y-114468005D01*
X44216243Y-114471000D01*
X44942320Y-114471000D01*
X44955005Y-114466878D01*
X44958000Y-114462757D01*
X44958000Y-114060557D01*
X46206001Y-114060557D01*
X46206528Y-114067755D01*
X46215006Y-114125359D01*
X46219515Y-114139871D01*
X46263873Y-114230216D01*
X46273271Y-114243343D01*
X46344152Y-114314101D01*
X46357294Y-114323474D01*
X46447722Y-114367676D01*
X46462231Y-114372161D01*
X46519278Y-114380483D01*
X46526405Y-114381000D01*
X46740320Y-114381000D01*
X46753005Y-114376878D01*
X46756000Y-114372757D01*
X46756000Y-114365319D01*
X47256000Y-114365319D01*
X47260122Y-114378004D01*
X47264243Y-114380999D01*
X47485557Y-114380999D01*
X47492755Y-114380472D01*
X47550359Y-114371994D01*
X47564871Y-114367485D01*
X47655216Y-114323127D01*
X47668343Y-114313729D01*
X47739101Y-114242848D01*
X47748474Y-114229706D01*
X47792676Y-114139278D01*
X47797161Y-114124769D01*
X47805483Y-114067722D01*
X47806000Y-114060595D01*
X47806000Y-113946680D01*
X47801878Y-113933995D01*
X47797757Y-113931000D01*
X47271680Y-113931000D01*
X47258995Y-113935122D01*
X47256000Y-113939243D01*
X47256000Y-114365319D01*
X46756000Y-114365319D01*
X46756000Y-113946680D01*
X46751878Y-113933995D01*
X46747757Y-113931000D01*
X46221681Y-113931000D01*
X46208996Y-113935122D01*
X46206001Y-113939243D01*
X46206001Y-114060557D01*
X44958000Y-114060557D01*
X44957999Y-113721320D01*
X48679000Y-113721320D01*
X48683122Y-113734005D01*
X48687243Y-113737000D01*
X48838320Y-113737000D01*
X48851005Y-113732878D01*
X48854000Y-113728757D01*
X48854000Y-112902681D01*
X48849878Y-112889996D01*
X48845757Y-112887001D01*
X48774016Y-112887001D01*
X48764384Y-112887949D01*
X48749545Y-112890900D01*
X48731874Y-112898219D01*
X48715014Y-112909485D01*
X48701485Y-112923014D01*
X48690219Y-112939876D01*
X48682900Y-112957544D01*
X48679948Y-112972387D01*
X48679000Y-112982009D01*
X48679000Y-113721320D01*
X44957999Y-113721320D01*
X44957999Y-113415320D01*
X46206000Y-113415320D01*
X46210122Y-113428005D01*
X46214243Y-113431000D01*
X46740320Y-113431000D01*
X46753005Y-113426878D01*
X46756000Y-113422757D01*
X46756000Y-113415320D01*
X47256000Y-113415320D01*
X47260122Y-113428005D01*
X47264243Y-113431000D01*
X47790319Y-113431000D01*
X47803004Y-113426878D01*
X47805999Y-113422757D01*
X47805999Y-113301443D01*
X47805472Y-113294245D01*
X47796994Y-113236641D01*
X47792485Y-113222129D01*
X47748127Y-113131784D01*
X47738729Y-113118657D01*
X47667848Y-113047899D01*
X47654706Y-113038526D01*
X47564278Y-112994324D01*
X47549769Y-112989839D01*
X47492722Y-112981517D01*
X47485595Y-112981000D01*
X47271680Y-112981000D01*
X47258995Y-112985122D01*
X47256000Y-112989243D01*
X47256000Y-113415320D01*
X46756000Y-113415320D01*
X46756000Y-112996681D01*
X46751878Y-112983996D01*
X46747757Y-112981001D01*
X46526443Y-112981001D01*
X46519245Y-112981528D01*
X46461641Y-112990006D01*
X46447129Y-112994515D01*
X46356784Y-113038873D01*
X46343657Y-113048271D01*
X46272899Y-113119152D01*
X46263526Y-113132294D01*
X46219324Y-113222722D01*
X46214839Y-113237231D01*
X46206517Y-113294278D01*
X46206000Y-113301405D01*
X46206000Y-113415320D01*
X44957999Y-113415320D01*
X44957999Y-112966016D01*
X44957051Y-112956384D01*
X44954100Y-112941545D01*
X44946781Y-112923874D01*
X44935515Y-112907014D01*
X44921986Y-112893485D01*
X44905124Y-112882219D01*
X44887456Y-112874900D01*
X44872613Y-112871948D01*
X44862991Y-112871000D01*
X44223680Y-112871000D01*
X44210995Y-112875122D01*
X44208000Y-112879243D01*
X44208000Y-114455320D01*
X43708000Y-114455320D01*
X43708000Y-112886681D01*
X43703878Y-112873996D01*
X43699757Y-112871001D01*
X43053016Y-112871001D01*
X43043384Y-112871949D01*
X43028545Y-112874900D01*
X43010874Y-112882219D01*
X42994014Y-112893485D01*
X42980485Y-112907014D01*
X42969219Y-112923876D01*
X42961900Y-112941544D01*
X42958948Y-112956387D01*
X42958000Y-112966009D01*
X42418000Y-112966009D01*
X42418000Y-111057243D01*
X43266000Y-111057243D01*
X43266001Y-112003984D01*
X43266949Y-112013616D01*
X43269900Y-112028455D01*
X43277219Y-112046126D01*
X43288485Y-112062986D01*
X43302014Y-112076515D01*
X43318876Y-112087781D01*
X43336544Y-112095100D01*
X43351387Y-112098052D01*
X43361009Y-112099000D01*
X45200320Y-112099000D01*
X45213005Y-112094878D01*
X45216000Y-112090757D01*
X45216000Y-112083319D01*
X45716000Y-112083319D01*
X45720122Y-112096004D01*
X45724243Y-112098999D01*
X47570984Y-112098999D01*
X47580616Y-112098051D01*
X47595455Y-112095100D01*
X47613126Y-112087781D01*
X47629986Y-112076515D01*
X47643515Y-112062986D01*
X47654781Y-112046124D01*
X47662100Y-112028456D01*
X47665052Y-112013613D01*
X47666000Y-112003991D01*
X47665999Y-111064680D01*
X47661877Y-111051995D01*
X47657756Y-111049000D01*
X45731680Y-111049000D01*
X45718995Y-111053122D01*
X45716000Y-111057243D01*
X45716000Y-112083319D01*
X45216000Y-112083319D01*
X45216000Y-111064680D01*
X45211878Y-111051995D01*
X45207757Y-111049000D01*
X43281680Y-111049000D01*
X43268995Y-111053122D01*
X43266000Y-111057243D01*
X42418000Y-111057243D01*
X42418000Y-110716000D01*
X42436907Y-110657809D01*
X42486407Y-110621845D01*
X42517000Y-110617000D01*
X47780000Y-110617000D01*
X47838191Y-110635907D01*
G37*
%TD.AperFunction*%
%TD*%
%TA.AperFunction,Conductor*%
%TO.N,VCC*%
G36*
X55839191Y-148862907D02*
G01*
X55875155Y-148912407D01*
X55880000Y-148943000D01*
X55880000Y-152986312D01*
X55872710Y-153008748D01*
X55873626Y-153008893D01*
X55870000Y-153031789D01*
X55870000Y-154808317D01*
X55875155Y-154824183D01*
X55880000Y-154854776D01*
X55880000Y-155349000D01*
X55861093Y-155407191D01*
X55811593Y-155443155D01*
X55781000Y-155448000D01*
X52169000Y-155448000D01*
X52110809Y-155429093D01*
X52074845Y-155379593D01*
X52070000Y-155349000D01*
X52070000Y-154871257D01*
X52071219Y-154855771D01*
X52074000Y-154838211D01*
X52074000Y-154830319D01*
X52574000Y-154830319D01*
X52578122Y-154843004D01*
X52582243Y-154845999D01*
X52803557Y-154845999D01*
X52810755Y-154845472D01*
X52868359Y-154836994D01*
X52882871Y-154832485D01*
X52973216Y-154788127D01*
X52986343Y-154778729D01*
X53057101Y-154707848D01*
X53066474Y-154694706D01*
X53110676Y-154604278D01*
X53115161Y-154589769D01*
X53123483Y-154532722D01*
X53124000Y-154525595D01*
X53124000Y-154503557D01*
X53770001Y-154503557D01*
X53770528Y-154510754D01*
X53779006Y-154568355D01*
X53783517Y-154582873D01*
X53827873Y-154673216D01*
X53837270Y-154686342D01*
X53908152Y-154757101D01*
X53921294Y-154766474D01*
X54011722Y-154810676D01*
X54026231Y-154815161D01*
X54083278Y-154823483D01*
X54090405Y-154824000D01*
X55354320Y-154823999D01*
X55367005Y-154819877D01*
X55370000Y-154815756D01*
X55370000Y-154189680D01*
X55365878Y-154176995D01*
X55361757Y-154174000D01*
X53785681Y-154174000D01*
X53772996Y-154178122D01*
X53770001Y-154182243D01*
X53770001Y-154503557D01*
X53124000Y-154503557D01*
X53124000Y-154411680D01*
X53119878Y-154398995D01*
X53115757Y-154396000D01*
X52589680Y-154396000D01*
X52576995Y-154400122D01*
X52574000Y-154404243D01*
X52574000Y-154830319D01*
X52074000Y-154830319D01*
X52074000Y-153880320D01*
X52574000Y-153880320D01*
X52578122Y-153893005D01*
X52582243Y-153896000D01*
X53108319Y-153896000D01*
X53121004Y-153891878D01*
X53123999Y-153887757D01*
X53123999Y-153766443D01*
X53123472Y-153759245D01*
X53114994Y-153701641D01*
X53110485Y-153687129D01*
X53096340Y-153658320D01*
X53770000Y-153658320D01*
X53774122Y-153671005D01*
X53778243Y-153674000D01*
X55354320Y-153674000D01*
X55367005Y-153669878D01*
X55370000Y-153665757D01*
X55370000Y-153039680D01*
X55365878Y-153026995D01*
X55361757Y-153024000D01*
X54090443Y-153024001D01*
X54083246Y-153024528D01*
X54025645Y-153033006D01*
X54011127Y-153037517D01*
X53920784Y-153081873D01*
X53907658Y-153091270D01*
X53836899Y-153162152D01*
X53827526Y-153175294D01*
X53783324Y-153265722D01*
X53778839Y-153280231D01*
X53770517Y-153337278D01*
X53770000Y-153344405D01*
X53770000Y-153658320D01*
X53096340Y-153658320D01*
X53066127Y-153596784D01*
X53056729Y-153583657D01*
X52985848Y-153512899D01*
X52972706Y-153503526D01*
X52882278Y-153459324D01*
X52867769Y-153454839D01*
X52810722Y-153446517D01*
X52803595Y-153446000D01*
X52589680Y-153446000D01*
X52576995Y-153450122D01*
X52574000Y-153454243D01*
X52574000Y-153880320D01*
X52074000Y-153880320D01*
X52074000Y-153458947D01*
X52070000Y-153433690D01*
X52070000Y-153259873D01*
X52088907Y-153201682D01*
X52138407Y-153165718D01*
X52167865Y-153160879D01*
X52466843Y-153157455D01*
X53451321Y-153146180D01*
X53451322Y-153146180D01*
X53467000Y-153146000D01*
X53467000Y-149777557D01*
X53809001Y-149777557D01*
X53809528Y-149784755D01*
X53818006Y-149842359D01*
X53822515Y-149856871D01*
X53866873Y-149947216D01*
X53876271Y-149960343D01*
X53947152Y-150031101D01*
X53960294Y-150040474D01*
X54050722Y-150084676D01*
X54065231Y-150089161D01*
X54122278Y-150097483D01*
X54129405Y-150098000D01*
X54305820Y-150098000D01*
X54318505Y-150093878D01*
X54321500Y-150089757D01*
X54321500Y-150082319D01*
X54821500Y-150082319D01*
X54825622Y-150095004D01*
X54829743Y-150097999D01*
X55013557Y-150097999D01*
X55020755Y-150097472D01*
X55078359Y-150088994D01*
X55092871Y-150084485D01*
X55183216Y-150040127D01*
X55196343Y-150030729D01*
X55267101Y-149959848D01*
X55276474Y-149946706D01*
X55320676Y-149856278D01*
X55325161Y-149841769D01*
X55333483Y-149784722D01*
X55334000Y-149777595D01*
X55334000Y-149363680D01*
X55329878Y-149350995D01*
X55325757Y-149348000D01*
X54837180Y-149348000D01*
X54824495Y-149352122D01*
X54821500Y-149356243D01*
X54821500Y-150082319D01*
X54321500Y-150082319D01*
X54321500Y-149363680D01*
X54317378Y-149350995D01*
X54313257Y-149348000D01*
X53824681Y-149348000D01*
X53811996Y-149352122D01*
X53809001Y-149356243D01*
X53809001Y-149777557D01*
X53467000Y-149777557D01*
X53467000Y-149733000D01*
X53214261Y-149733000D01*
X53174229Y-149724545D01*
X53160968Y-149718682D01*
X53115392Y-149677859D01*
X53102000Y-149628137D01*
X53102000Y-149617680D01*
X53097878Y-149604995D01*
X53093757Y-149602000D01*
X51851000Y-149602000D01*
X51792809Y-149583093D01*
X51756845Y-149533593D01*
X51752000Y-149503000D01*
X51752000Y-149201000D01*
X51770907Y-149142809D01*
X51820407Y-149106845D01*
X51851000Y-149102000D01*
X53086319Y-149102000D01*
X53099004Y-149097878D01*
X53101999Y-149093757D01*
X53101999Y-149075785D01*
X53120906Y-149017594D01*
X53160814Y-148985308D01*
X53173839Y-148979523D01*
X53214024Y-148971000D01*
X53721000Y-148971000D01*
X53721000Y-148947000D01*
X53739907Y-148888809D01*
X53789407Y-148852845D01*
X53820000Y-148848000D01*
X55321053Y-148848000D01*
X55346310Y-148844000D01*
X55781000Y-148844000D01*
X55839191Y-148862907D01*
G37*
%TD.AperFunction*%
%TD*%
M02*
