%TF.GenerationSoftware,KiCad,Pcbnew,(6.0.2)*%
%TF.CreationDate,2022-03-24T09:24:23+01:00*%
%TF.ProjectId,GestureControl,47657374-7572-4654-936f-6e74726f6c2e,V0.21*%
%TF.SameCoordinates,PX1268e40PY7fa82d0*%
%TF.FileFunction,Copper,L4,Bot*%
%TF.FilePolarity,Positive*%
%FSLAX46Y46*%
G04 Gerber Fmt 4.6, Leading zero omitted, Abs format (unit mm)*
G04 Created by KiCad (PCBNEW (6.0.2)) date 2022-03-24 09:24:23*
%MOMM*%
%LPD*%
G01*
G04 APERTURE LIST*
G04 Aperture macros list*
%AMRoundRect*
0 Rectangle with rounded corners*
0 $1 Rounding radius*
0 $2 $3 $4 $5 $6 $7 $8 $9 X,Y pos of 4 corners*
0 Add a 4 corners polygon primitive as box body*
4,1,4,$2,$3,$4,$5,$6,$7,$8,$9,$2,$3,0*
0 Add four circle primitives for the rounded corners*
1,1,$1+$1,$2,$3*
1,1,$1+$1,$4,$5*
1,1,$1+$1,$6,$7*
1,1,$1+$1,$8,$9*
0 Add four rect primitives between the rounded corners*
20,1,$1+$1,$2,$3,$4,$5,0*
20,1,$1+$1,$4,$5,$6,$7,0*
20,1,$1+$1,$6,$7,$8,$9,0*
20,1,$1+$1,$8,$9,$2,$3,0*%
%AMFreePoly0*
4,1,22,0.550000,-0.750000,0.000000,-0.750000,0.000000,-0.745033,-0.079941,-0.743568,-0.215256,-0.701293,-0.333266,-0.622738,-0.424486,-0.514219,-0.481581,-0.384460,-0.499164,-0.250000,-0.500000,-0.250000,-0.500000,0.250000,-0.499164,0.250000,-0.499963,0.256109,-0.478152,0.396186,-0.417904,0.524511,-0.324060,0.630769,-0.204165,0.706417,-0.067858,0.745374,0.000000,0.744959,0.000000,0.750000,
0.550000,0.750000,0.550000,-0.750000,0.550000,-0.750000,$1*%
%AMFreePoly1*
4,1,20,0.000000,0.744959,0.073905,0.744508,0.209726,0.703889,0.328688,0.626782,0.421226,0.519385,0.479903,0.390333,0.500000,0.250000,0.500000,-0.250000,0.499851,-0.262216,0.476331,-0.402017,0.414519,-0.529596,0.319384,-0.634700,0.198574,-0.708877,0.061801,-0.746166,0.000000,-0.745033,0.000000,-0.750000,-0.550000,-0.750000,-0.550000,0.750000,0.000000,0.750000,0.000000,0.744959,
0.000000,0.744959,$1*%
%AMFreePoly2*
4,1,85,0.152523,3.118341,0.408529,3.076647,0.655562,2.997572,0.888192,2.882851,1.101311,2.735005,1.290235,2.557283,1.450816,2.353588,1.579524,2.128394,1.673533,1.886650,1.730778,1.633666,1.750000,1.375000,1.747602,1.283412,1.714868,1.026106,1.644462,0.776465,1.537930,0.539972,1.397612,0.321824,1.226591,0.126812,1.028624,-0.040780,0.808060,-0.177269,0.569744,-0.279658,
0.318912,-0.345696,0.061074,-0.373934,0.017533,-0.372223,0.000000,-0.375000,-0.029100,-0.370391,-0.198106,-0.363751,-0.452933,-0.315370,-0.697811,-0.229855,-0.927359,-0.109084,-1.136534,0.044290,-1.320742,0.226897,-1.475935,0.434726,-1.598705,0.663211,-1.686353,0.907333,-1.736956,1.161729,-1.747874,1.389030,-1.004741,1.389030,-0.988331,1.193607,-0.934276,1.005094,-0.844634,0.830670,
-0.722821,0.676980,-0.573475,0.549877,-0.402286,0.454203,-0.215774,0.393602,-0.025677,0.370933,0.000000,0.375000,0.012747,0.372981,0.174488,0.385427,0.363374,0.438165,0.538420,0.526586,0.692957,0.647324,0.821099,0.795778,0.917966,0.966295,0.979868,1.152379,1.004447,1.346943,1.004839,1.375000,0.985702,1.570174,0.929020,1.757914,0.836952,1.931069,0.713004,2.083044,
0.561899,2.208049,0.389391,2.301324,0.202051,2.359315,0.007015,2.379815,-0.188288,2.362041,-0.376419,2.306670,-0.550213,2.215813,-0.703049,2.092930,-0.829106,1.942701,-0.923583,1.770848,-0.982881,1.583918,-1.004741,1.389030,-1.747874,1.389030,-1.749400,1.420810,-1.723414,1.678884,-1.659566,1.930283,-1.559261,2.169483,-1.424702,2.391230,-1.258845,2.590652,-1.065333,2.763368,
-0.848417,2.905584,-0.612863,3.014176,-0.363845,3.086758,-0.106835,3.121736,0.152523,3.118341,0.152523,3.118341,$1*%
G04 Aperture macros list end*
%TA.AperFunction,Profile*%
%ADD10C,0.050000*%
%TD*%
%TA.AperFunction,ComponentPad*%
%ADD11R,1.700000X1.700000*%
%TD*%
%TA.AperFunction,ComponentPad*%
%ADD12O,1.700000X1.700000*%
%TD*%
%TA.AperFunction,ComponentPad*%
%ADD13RoundRect,0.250000X-1.550000X0.650000X-1.550000X-0.650000X1.550000X-0.650000X1.550000X0.650000X0*%
%TD*%
%TA.AperFunction,ComponentPad*%
%ADD14O,3.600000X1.800000*%
%TD*%
%TA.AperFunction,SMDPad,CuDef*%
%ADD15RoundRect,0.237500X-0.300000X-0.237500X0.300000X-0.237500X0.300000X0.237500X-0.300000X0.237500X0*%
%TD*%
%TA.AperFunction,SMDPad,CuDef*%
%ADD16RoundRect,0.250000X-0.337500X-0.475000X0.337500X-0.475000X0.337500X0.475000X-0.337500X0.475000X0*%
%TD*%
%TA.AperFunction,SMDPad,CuDef*%
%ADD17RoundRect,0.250000X0.337500X0.475000X-0.337500X0.475000X-0.337500X-0.475000X0.337500X-0.475000X0*%
%TD*%
%TA.AperFunction,SMDPad,CuDef*%
%ADD18R,1.500000X1.500000*%
%TD*%
%TA.AperFunction,SMDPad,CuDef*%
%ADD19FreePoly0,90.000000*%
%TD*%
%TA.AperFunction,SMDPad,CuDef*%
%ADD20R,1.500000X1.000000*%
%TD*%
%TA.AperFunction,SMDPad,CuDef*%
%ADD21FreePoly1,90.000000*%
%TD*%
%TA.AperFunction,SMDPad,CuDef*%
%ADD22RoundRect,0.249999X0.350001X0.450001X-0.350001X0.450001X-0.350001X-0.450001X0.350001X-0.450001X0*%
%TD*%
%TA.AperFunction,SMDPad,CuDef*%
%ADD23RoundRect,0.249999X-0.350001X-0.450001X0.350001X-0.450001X0.350001X0.450001X-0.350001X0.450001X0*%
%TD*%
%TA.AperFunction,SMDPad,CuDef*%
%ADD24R,1.000000X1.000000*%
%TD*%
%TA.AperFunction,SMDPad,CuDef*%
%ADD25RoundRect,0.237500X0.237500X-0.300000X0.237500X0.300000X-0.237500X0.300000X-0.237500X-0.300000X0*%
%TD*%
%TA.AperFunction,SMDPad,CuDef*%
%ADD26RoundRect,0.250000X-0.475000X0.337500X-0.475000X-0.337500X0.475000X-0.337500X0.475000X0.337500X0*%
%TD*%
%TA.AperFunction,SMDPad,CuDef*%
%ADD27RoundRect,0.250000X0.475000X-0.337500X0.475000X0.337500X-0.475000X0.337500X-0.475000X-0.337500X0*%
%TD*%
%TA.AperFunction,SMDPad,CuDef*%
%ADD28RoundRect,0.249999X0.650001X-0.412501X0.650001X0.412501X-0.650001X0.412501X-0.650001X-0.412501X0*%
%TD*%
%TA.AperFunction,SMDPad,CuDef*%
%ADD29RoundRect,0.249999X-0.650001X0.412501X-0.650001X-0.412501X0.650001X-0.412501X0.650001X0.412501X0*%
%TD*%
%TA.AperFunction,SMDPad,CuDef*%
%ADD30RoundRect,0.249999X-0.450001X0.350001X-0.450001X-0.350001X0.450001X-0.350001X0.450001X0.350001X0*%
%TD*%
%TA.AperFunction,SMDPad,CuDef*%
%ADD31RoundRect,0.249999X0.450001X-0.350001X0.450001X0.350001X-0.450001X0.350001X-0.450001X-0.350001X0*%
%TD*%
%TA.AperFunction,SMDPad,CuDef*%
%ADD32R,1.500000X3.000000*%
%TD*%
%TA.AperFunction,SMDPad,CuDef*%
%ADD33C,2.000000*%
%TD*%
%TA.AperFunction,SMDPad,CuDef*%
%ADD34RoundRect,0.250000X-0.650000X0.412500X-0.650000X-0.412500X0.650000X-0.412500X0.650000X0.412500X0*%
%TD*%
%TA.AperFunction,SMDPad,CuDef*%
%ADD35RoundRect,0.250000X-0.450000X0.350000X-0.450000X-0.350000X0.450000X-0.350000X0.450000X0.350000X0*%
%TD*%
%TA.AperFunction,SMDPad,CuDef*%
%ADD36FreePoly2,180.000000*%
%TD*%
%TA.AperFunction,SMDPad,CuDef*%
%ADD37C,1.000000*%
%TD*%
%TA.AperFunction,SMDPad,CuDef*%
%ADD38RoundRect,0.250000X0.450000X-0.350000X0.450000X0.350000X-0.450000X0.350000X-0.450000X-0.350000X0*%
%TD*%
%TA.AperFunction,ViaPad*%
%ADD39C,0.800000*%
%TD*%
%TA.AperFunction,Conductor*%
%ADD40C,0.250000*%
%TD*%
%TA.AperFunction,Conductor*%
%ADD41C,0.500000*%
%TD*%
%TA.AperFunction,Conductor*%
%ADD42C,1.000000*%
%TD*%
%TA.AperFunction,Conductor*%
%ADD43C,0.200000*%
%TD*%
G04 APERTURE END LIST*
D10*
X254190500Y19700000D02*
X254254000Y49022000D01*
X190500Y10810000D02*
X254000Y57912000D01*
X48490500Y5000000D02*
G75*
G03*
X48490500Y7000000I0J1000000D01*
G01*
X104330500Y19700000D02*
G75*
G03*
X108140500Y15890000I3809999J-1D01*
G01*
X123610500Y15890000D02*
G75*
G03*
X123610500Y13890000I0J-1000000D01*
G01*
X142430500Y19700000D02*
G75*
G03*
X146240500Y15890000I3809999J-1D01*
G01*
X174136914Y15890000D02*
G75*
G03*
X177946914Y19656414I43337J3766414D01*
G01*
X5490500Y7000000D02*
X4000500Y7000000D01*
X31990500Y7000000D02*
G75*
G03*
X32047473Y5001624I0J-1000000D01*
G01*
X228866500Y15890000D02*
X244866500Y15890000D01*
X194766500Y13890000D02*
X161710500Y13890000D01*
X218586914Y24736414D02*
G75*
G03*
X216046914Y24736414I-1270000J-19D01*
G01*
X156710500Y13890000D02*
G75*
G03*
X156710500Y15890000I0J1000000D01*
G01*
X97980500Y7000000D02*
G75*
G03*
X101790500Y10810000I1J3809999D01*
G01*
X199766500Y13890000D02*
X223866500Y13890000D01*
X244866500Y13890000D02*
X228866500Y13890000D01*
X161710500Y15890000D02*
G75*
G03*
X161710500Y13890000I0J-1000000D01*
G01*
X91490500Y5000000D02*
X75047473Y5001624D01*
X228866500Y15890000D02*
G75*
G03*
X228866500Y13890000I0J-1000000D01*
G01*
X118610500Y13890000D02*
X104330500Y13890000D01*
X180486914Y24736414D02*
G75*
G03*
X177946914Y24736414I-1270000J-19D01*
G01*
X184296914Y15890000D02*
X194766500Y15890000D01*
X254190500Y13890000D02*
X254190500Y0D01*
X223866500Y13890000D02*
G75*
G03*
X223866500Y15890000I0J1000000D01*
G01*
X123610500Y15890000D02*
X136080500Y15890000D01*
X136080500Y15890000D02*
G75*
G03*
X139890500Y19700000I1J3809999D01*
G01*
X249866500Y15890000D02*
G75*
G03*
X249866500Y13890000I0J-1000000D01*
G01*
X212236914Y15890000D02*
G75*
G03*
X216046914Y19656414I43337J3766414D01*
G01*
X190500Y0D02*
X190500Y5000000D01*
X244866500Y13890000D02*
G75*
G03*
X244866500Y15890000I0J1000000D01*
G01*
X218586914Y24736414D02*
X218586914Y19656414D01*
X190500Y10810000D02*
G75*
G03*
X4000500Y7000000I3809999J-1D01*
G01*
X91490500Y5000000D02*
G75*
G03*
X91490500Y7000000I0J1000000D01*
G01*
X142430500Y24780000D02*
X142430500Y19700000D01*
X108140500Y15890000D02*
X118610500Y15890000D01*
X48490500Y5000000D02*
X32047473Y5001624D01*
X142430500Y24780000D02*
G75*
G03*
X139890500Y24780000I-1270000J-19D01*
G01*
X156710500Y13890000D02*
X123610500Y13890000D01*
X194766500Y13890000D02*
G75*
G03*
X194766500Y15890000I0J1000000D01*
G01*
X254190500Y13890000D02*
X249866500Y13890000D01*
X74990500Y7000000D02*
G75*
G03*
X75047473Y5001624I0J-1000000D01*
G01*
X216046914Y19656414D02*
X216046914Y24736414D01*
X10490500Y7000000D02*
G75*
G03*
X10547473Y5001624I0J-1000000D01*
G01*
X222632500Y15890000D02*
X223866500Y15890000D01*
X97980500Y7000000D02*
X96490500Y7000000D01*
X104330500Y24780019D02*
G75*
G03*
X101790500Y24780019I-1270000J-19D01*
G01*
X101790500Y10810000D02*
X101790500Y24780019D01*
X139890500Y19700000D02*
X139890500Y24780000D01*
X250380500Y15890000D02*
X249866500Y15890000D01*
X103330500Y5000000D02*
G75*
G03*
X104330500Y6000000I1J999999D01*
G01*
X69990500Y5000000D02*
G75*
G03*
X69990500Y7000000I0J1000000D01*
G01*
X104330500Y24780019D02*
X104330500Y19700000D01*
X103330500Y5000000D02*
X96547473Y5001624D01*
X146240500Y15890000D02*
X156710500Y15890000D01*
X48490500Y7000000D02*
X31990500Y7000000D01*
X180486914Y19656414D02*
G75*
G03*
X184296914Y15890000I3766661J-2D01*
G01*
X96490500Y7000000D02*
G75*
G03*
X96547473Y5001624I0J-1000000D01*
G01*
X53490500Y7000000D02*
G75*
G03*
X53547473Y5001624I0J-1000000D01*
G01*
X91490500Y7000000D02*
X74990500Y7000000D01*
X177946914Y19656414D02*
X177946914Y24736414D01*
X118610500Y13890000D02*
G75*
G03*
X118610500Y15890000I0J1000000D01*
G01*
X26990500Y5000000D02*
X10547473Y5001624D01*
X199766500Y15890000D02*
G75*
G03*
X199766500Y13890000I0J-1000000D01*
G01*
X69990500Y7000000D02*
X53490500Y7000000D01*
X250380500Y15890000D02*
G75*
G03*
X254190500Y19700000I1J3809999D01*
G01*
X26990500Y5000000D02*
G75*
G03*
X26990500Y7000000I0J1000000D01*
G01*
X174136914Y15890000D02*
X161710500Y15890000D01*
X254190500Y0D02*
X190500Y0D01*
X69990500Y5000000D02*
X53547473Y5001624D01*
X212236914Y15890000D02*
X199766500Y15890000D01*
X104330500Y13890000D02*
X104330500Y6000000D01*
X26990500Y7000000D02*
X10490500Y7000000D01*
X180486914Y24736414D02*
X180486914Y19656414D01*
X218586913Y19656414D02*
G75*
G03*
X222632500Y15890000I3776044J-3D01*
G01*
X5490500Y5000000D02*
G75*
G03*
X5490500Y7000000I0J1000000D01*
G01*
X5490500Y5000000D02*
X190500Y5000000D01*
X75110973Y63720376D02*
G75*
G03*
X75054000Y61722000I-56973J-998376D01*
G01*
X118674000Y52832000D02*
X108204000Y52832000D01*
X249930000Y54832000D02*
X254254000Y54832000D01*
X32110973Y63720376D02*
X48554000Y63722000D01*
X123674000Y54832000D02*
X156774000Y54832000D01*
X194830000Y52832000D02*
G75*
G03*
X194830000Y54832000I0J1000000D01*
G01*
X139954000Y43942000D02*
G75*
G03*
X142494000Y43942000I1270000J19D01*
G01*
X142494000Y49022000D02*
X142494000Y43942000D01*
X91554000Y61722000D02*
G75*
G03*
X91554000Y63722000I0J1000000D01*
G01*
X218650414Y49065586D02*
X218650414Y43985586D01*
X254000Y63722000D02*
X254000Y68722000D01*
X136144000Y52832000D02*
X123674000Y52832000D01*
X139954000Y49022000D02*
G75*
G03*
X136144000Y52832000I-3809999J1D01*
G01*
X4064000Y61722000D02*
G75*
G03*
X254000Y57912000I-1J-3809999D01*
G01*
X244930000Y52832000D02*
G75*
G03*
X244930000Y54832000I0J1000000D01*
G01*
X249930000Y54832000D02*
G75*
G03*
X249930000Y52832000I0J-1000000D01*
G01*
X216110414Y49065586D02*
G75*
G03*
X212300414Y52832000I-3766663J0D01*
G01*
X228930000Y54832000D02*
X244930000Y54832000D01*
X156774000Y52832000D02*
G75*
G03*
X156774000Y54832000I0J1000000D01*
G01*
X161774000Y54832000D02*
G75*
G03*
X161774000Y52832000I0J-1000000D01*
G01*
X101854000Y57912000D02*
G75*
G03*
X98044000Y61722000I-3809999J1D01*
G01*
X223930000Y54832000D02*
X199830000Y54832000D01*
X216110414Y43985586D02*
G75*
G03*
X218650414Y43985586I1270000J19D01*
G01*
X228930000Y54832000D02*
G75*
G03*
X228930000Y52832000I0J-1000000D01*
G01*
X75110973Y63720376D02*
X91554000Y63722000D01*
X223930000Y52832000D02*
G75*
G03*
X223930000Y54832000I0J1000000D01*
G01*
X104394000Y54832000D02*
X118674000Y54832000D01*
X254254000Y68722000D02*
X254254000Y54832000D01*
X194830000Y52832000D02*
X184360414Y52832000D01*
X178010414Y43985586D02*
G75*
G03*
X180550414Y43985586I1270000J19D01*
G01*
X48554000Y61722000D02*
G75*
G03*
X48554000Y63722000I0J1000000D01*
G01*
X146304000Y52832000D02*
G75*
G03*
X142494000Y49022000I-1J-3809999D01*
G01*
X4064000Y61722000D02*
X5554000Y61722000D01*
X108204000Y52832000D02*
G75*
G03*
X104394000Y49022000I-1J-3809999D01*
G01*
X123674000Y54832000D02*
G75*
G03*
X123674000Y52832000I0J-1000000D01*
G01*
X32110973Y63720376D02*
G75*
G03*
X32054000Y61722000I-56973J-998376D01*
G01*
X161774000Y54832000D02*
X194830000Y54832000D01*
X244930000Y52832000D02*
X228930000Y52832000D01*
X178010414Y49065586D02*
G75*
G03*
X174200414Y52832000I-3766663J0D01*
G01*
X10554000Y61722000D02*
X27054000Y61722000D01*
X254000Y63722000D02*
X5554000Y63722000D01*
X161774000Y52832000D02*
X174200414Y52832000D01*
X199830000Y52832000D02*
X212300414Y52832000D01*
X75054000Y61722000D02*
X91554000Y61722000D01*
X53610973Y63720376D02*
X70054000Y63722000D01*
X254000Y68722000D02*
X254254000Y68722000D01*
X27054000Y61722000D02*
G75*
G03*
X27054000Y63722000I0J1000000D01*
G01*
X254254000Y49022000D02*
G75*
G03*
X250444000Y52832000I-3809999J1D01*
G01*
X96610973Y63720376D02*
G75*
G03*
X96554000Y61722000I-56973J-998376D01*
G01*
X5554000Y61722000D02*
G75*
G03*
X5554000Y63722000I0J1000000D01*
G01*
X118674000Y52832000D02*
G75*
G03*
X118674000Y54832000I0J1000000D01*
G01*
X184360414Y52832000D02*
G75*
G03*
X180550414Y49065586I-43339J-3766412D01*
G01*
X53554000Y61722000D02*
X70054000Y61722000D01*
X222504000Y52832000D02*
G75*
G03*
X218650414Y49065586I-86192J-3766408D01*
G01*
X199830000Y54832000D02*
G75*
G03*
X199830000Y52832000I0J-1000000D01*
G01*
X10610973Y63720376D02*
X27054000Y63722000D01*
X178010414Y43985586D02*
X178010414Y49065586D01*
X32054000Y61722000D02*
X48554000Y61722000D01*
X104394000Y62722000D02*
X104394000Y54832000D01*
X180550414Y49065586D02*
X180550414Y43985586D01*
X53610973Y63720376D02*
G75*
G03*
X53554000Y61722000I-56973J-998376D01*
G01*
X156774000Y52832000D02*
X146304000Y52832000D01*
X249930000Y52832000D02*
X250444000Y52832000D01*
X139954000Y43942000D02*
X139954000Y49022000D01*
X10610973Y63720376D02*
G75*
G03*
X10554000Y61722000I-56973J-998376D01*
G01*
X101854000Y43941981D02*
X101854000Y57912000D01*
X96554000Y61722000D02*
X98044000Y61722000D01*
X70054000Y61722000D02*
G75*
G03*
X70054000Y63722000I0J1000000D01*
G01*
X104394000Y62722000D02*
G75*
G03*
X103394000Y63722000I-999999J1D01*
G01*
X104394000Y49022000D02*
X104394000Y43941981D01*
X96610973Y63720376D02*
X103394000Y63722000D01*
X223930000Y52832000D02*
X222504000Y52832000D01*
X216110414Y43985586D02*
X216110414Y49065586D01*
X101854000Y43941981D02*
G75*
G03*
X104394000Y43941981I1270000J19D01*
G01*
D11*
%TO.P,J3,1,Pin_1*%
%TO.N,unconnected-(J3-Pad1)*%
X26670000Y9906000D03*
D12*
%TO.P,J3,2,Pin_2*%
%TO.N,unconnected-(J3-Pad2)*%
X29210000Y9906000D03*
%TO.P,J3,3,Pin_3*%
%TO.N,unconnected-(J3-Pad3)*%
X31750000Y9906000D03*
%TO.P,J3,4,Pin_4*%
%TO.N,+3V3*%
X34290000Y9906000D03*
%TO.P,J3,5,Pin_5*%
%TO.N,+5V*%
X36830000Y9906000D03*
%TO.P,J3,6,Pin_6*%
%TO.N,GND*%
X39370000Y9906000D03*
%TO.P,J3,7,Pin_7*%
X41910000Y9906000D03*
%TO.P,J3,8,Pin_8*%
%TO.N,XSHUT_0*%
X44450000Y9906000D03*
%TD*%
D11*
%TO.P,J4,1,Pin_1*%
%TO.N,XSHUT_1*%
X49530000Y9906000D03*
D12*
%TO.P,J4,2,Pin_2*%
%TO.N,XSHUT_2*%
X52070000Y9906000D03*
%TO.P,J4,3,Pin_3*%
%TO.N,XSHUT_3*%
X54610000Y9906000D03*
%TO.P,J4,4,Pin_4*%
%TO.N,XSHUT_4*%
X57150000Y9906000D03*
%TO.P,J4,5,Pin_5*%
%TO.N,SW_1*%
X59690000Y9906000D03*
%TO.P,J4,6,Pin_6*%
%TO.N,SW_2*%
X62230000Y9906000D03*
%TD*%
D11*
%TO.P,J5,1,Pin_1*%
%TO.N,unconnected-(J5-Pad1)*%
X40386000Y58166000D03*
D12*
%TO.P,J5,2,Pin_2*%
%TO.N,GPIOI_0*%
X37846000Y58166000D03*
%TO.P,J5,3,Pin_3*%
%TO.N,GPIOI_1*%
X35306000Y58166000D03*
%TO.P,J5,4,Pin_4*%
%TO.N,GPIOI_2*%
X32766000Y58166000D03*
%TO.P,J5,5,Pin_5*%
%TO.N,GPIOI_3*%
X30226000Y58166000D03*
%TO.P,J5,6,Pin_6*%
%TO.N,GPIOI_4*%
X27686000Y58166000D03*
%TO.P,J5,7,Pin_7*%
%TO.N,GND*%
X25146000Y58166000D03*
%TO.P,J5,8,Pin_8*%
%TO.N,+3V3*%
X22606000Y58166000D03*
%TO.P,J5,9,Pin_9*%
%TO.N,SDA1*%
X20066000Y58166000D03*
%TO.P,J5,10,Pin_10*%
%TO.N,SCL1*%
X17526000Y58166000D03*
%TD*%
D11*
%TO.P,J1,1,Pin_1*%
%TO.N,GND*%
X30861000Y37343510D03*
D12*
%TO.P,J1,2,Pin_2*%
%TO.N,+5V*%
X28321000Y37343510D03*
%TO.P,J1,3,Pin_3*%
%TO.N,SDA1*%
X25781000Y37343510D03*
%TO.P,J1,4,Pin_4*%
%TO.N,SCL1*%
X23241000Y37343510D03*
%TD*%
D13*
%TO.P,J2,1,Pin_1*%
%TO.N,GND*%
X9144000Y36576000D03*
D14*
%TO.P,J2,2,Pin_2*%
%TO.N,Net-(D6-Pad2)*%
X9144000Y33076000D03*
%TD*%
D11*
%TO.P,J7,1,Pin_1*%
%TO.N,GND*%
X35941000Y44963510D03*
D12*
%TO.P,J7,2,Pin_2*%
%TO.N,/STM32L151RET6TR/FTDI_CTS*%
X33401000Y44963510D03*
%TO.P,J7,3,Pin_3*%
%TO.N,+5V*%
X30861000Y44963510D03*
%TO.P,J7,4,Pin_4*%
%TO.N,/STM32L151RET6TR/FTDI_TXD*%
X28321000Y44963510D03*
%TO.P,J7,5,Pin_5*%
%TO.N,/STM32L151RET6TR/FTDI_RXD*%
X25781000Y44963510D03*
%TO.P,J7,6,Pin_6*%
%TO.N,/STM32L151RET6TR/FTDI_RTS*%
X23241000Y44963510D03*
%TD*%
D11*
%TO.P,J10,1,Pin_1*%
%TO.N,GND*%
X37973000Y54610000D03*
D12*
%TO.P,J10,2,Pin_2*%
%TO.N,+3V3*%
X35433000Y54610000D03*
%TO.P,J10,3,Pin_3*%
%TO.N,SDA2*%
X32893000Y54610000D03*
%TO.P,J10,4,Pin_4*%
%TO.N,SCL2*%
X30353000Y54610000D03*
%TD*%
D11*
%TO.P,J9,1,Pin_1*%
%TO.N,GND*%
X57017490Y27183510D03*
D12*
%TO.P,J9,2,Pin_2*%
%TO.N,+3V3*%
X57017490Y29723510D03*
%TO.P,J9,3,Pin_3*%
%TO.N,/STM32L151RET6TR/UART_TX*%
X57017490Y32263510D03*
%TO.P,J9,4,Pin_4*%
%TO.N,/STM32L151RET6TR/UART_RX*%
X57017490Y34803510D03*
%TD*%
D11*
%TO.P,J6,1,Pin_1*%
%TO.N,unconnected-(J6-Pad1)*%
X62230000Y58166000D03*
D12*
%TO.P,J6,2,Pin_2*%
%TO.N,unconnected-(J6-Pad2)*%
X59690000Y58166000D03*
%TO.P,J6,3,Pin_3*%
%TO.N,LED_4*%
X57150000Y58166000D03*
%TO.P,J6,4,Pin_4*%
%TO.N,LED_3*%
X54610000Y58166000D03*
%TO.P,J6,5,Pin_5*%
%TO.N,LED_2*%
X52070000Y58166000D03*
%TO.P,J6,6,Pin_6*%
%TO.N,LED_1*%
X49530000Y58166000D03*
%TO.P,J6,7,Pin_7*%
%TO.N,LED_0*%
X46990000Y58166000D03*
%TO.P,J6,8,Pin_8*%
%TO.N,unconnected-(J6-Pad8)*%
X44450000Y58166000D03*
%TD*%
D11*
%TO.P,J8,1,Pin_1*%
%TO.N,+3V3*%
X35935490Y41153510D03*
D12*
%TO.P,J8,2,Pin_2*%
%TO.N,/STM32L151RET6TR/SWCLK*%
X33395490Y41153510D03*
%TO.P,J8,3,Pin_3*%
%TO.N,GND*%
X30855490Y41153510D03*
%TO.P,J8,4,Pin_4*%
%TO.N,/STM32L151RET6TR/SWDAT*%
X28315490Y41153510D03*
%TO.P,J8,5,Pin_5*%
%TO.N,/STM32L151RET6TR/RST*%
X25775490Y41153510D03*
%TO.P,J8,6,Pin_6*%
%TO.N,/STM32L151RET6TR/SW0*%
X23235490Y41153510D03*
%TD*%
D11*
%TO.P,J11,1,Pin_1*%
%TO.N,GND*%
X23235490Y29723510D03*
D12*
%TO.P,J11,2,Pin_2*%
%TO.N,/STM32L151RET6TR/RST*%
X25775490Y29723510D03*
%TD*%
D11*
%TO.P,J12,1,Pin_1*%
%TO.N,+3V3*%
X23235490Y33533510D03*
D12*
%TO.P,J12,2,Pin_2*%
%TO.N,/STM32L151RET6TR/BOOT*%
X25775490Y33533510D03*
%TD*%
D15*
%TO.P,C28,1*%
%TO.N,+3V3*%
X47672490Y31247510D03*
%TO.P,C28,2*%
%TO.N,GND*%
X49397490Y31247510D03*
%TD*%
D16*
%TO.P,C30,1*%
%TO.N,+3V3*%
X47619490Y33279510D03*
%TO.P,C30,2*%
%TO.N,GND*%
X49694490Y33279510D03*
%TD*%
D15*
%TO.P,C31,1*%
%TO.N,+3V3*%
X42285490Y33025510D03*
%TO.P,C31,2*%
%TO.N,GND*%
X44010490Y33025510D03*
%TD*%
D17*
%TO.P,C33,1*%
%TO.N,+3V3*%
X45741500Y34798000D03*
%TO.P,C33,2*%
%TO.N,GND*%
X43666500Y34798000D03*
%TD*%
D18*
%TO.P,J17,1,Pin_1*%
%TO.N,/STM32L151RET6TR/PC8*%
X32633490Y52329510D03*
%TD*%
%TO.P,J18,1,Pin_1*%
%TO.N,/STM32L151RET6TR/PA9*%
X25013490Y52329510D03*
%TD*%
%TO.P,J19,1,Pin_1*%
%TO.N,/STM32L151RET6TR/PA10*%
X22473490Y52329510D03*
%TD*%
D19*
%TO.P,JP3,1,A*%
%TO.N,+3V3*%
X47117000Y37054000D03*
D20*
%TO.P,JP3,2,C*%
%TO.N,/STM32L151RET6TR/PIN30*%
X47117000Y38354000D03*
D21*
%TO.P,JP3,3,B*%
%TO.N,SDA2*%
X47117000Y39654000D03*
%TD*%
D22*
%TO.P,R21,1*%
%TO.N,+3V3*%
X32093490Y48773510D03*
%TO.P,R21,2*%
%TO.N,SDA2*%
X30093490Y48773510D03*
%TD*%
D23*
%TO.P,R22,1*%
%TO.N,+3V3*%
X25553490Y48773510D03*
%TO.P,R22,2*%
%TO.N,SCL2*%
X27553490Y48773510D03*
%TD*%
D24*
%TO.P,TP1,1,1*%
%TO.N,SDA2*%
X30093490Y52329510D03*
%TD*%
%TO.P,TP2,1,1*%
%TO.N,SCL2*%
X27553490Y52329510D03*
%TD*%
D19*
%TO.P,JP2,1,A*%
%TO.N,/STM32L151RET6TR/PIN29*%
X44323000Y37054000D03*
D20*
%TO.P,JP2,2,C*%
%TO.N,SCL2*%
X44323000Y38354000D03*
D21*
%TO.P,JP2,3,B*%
%TO.N,/STM32L151RET6TR/PIN41*%
X44323000Y39654000D03*
%TD*%
D15*
%TO.P,C23,1*%
%TO.N,+3V3*%
X42285490Y31247510D03*
%TO.P,C23,2*%
%TO.N,GND*%
X44010490Y31247510D03*
%TD*%
D17*
%TO.P,C11,1*%
%TO.N,+3V3*%
X54266490Y29723510D03*
%TO.P,C11,2*%
%TO.N,GND*%
X52191490Y29723510D03*
%TD*%
D25*
%TO.P,C14,1*%
%TO.N,+3V3*%
X157988000Y33681500D03*
%TO.P,C14,2*%
%TO.N,GND*%
X157988000Y35406500D03*
%TD*%
%TO.P,C15,1*%
%TO.N,+3V3*%
X196088000Y33708000D03*
%TO.P,C15,2*%
%TO.N,GND*%
X196088000Y35433000D03*
%TD*%
%TO.P,C16,1*%
%TO.N,+3V3*%
X84074000Y34163000D03*
%TO.P,C16,2*%
%TO.N,GND*%
X84074000Y35888000D03*
%TD*%
%TO.P,C20,1*%
%TO.N,+3V3*%
X162687000Y33681500D03*
%TO.P,C20,2*%
%TO.N,GND*%
X162687000Y35406500D03*
%TD*%
%TO.P,C21,1*%
%TO.N,+3V3*%
X200660000Y33681500D03*
%TO.P,C21,2*%
%TO.N,GND*%
X200660000Y35406500D03*
%TD*%
%TO.P,C35,1*%
%TO.N,+3V3*%
X85852000Y34163000D03*
%TO.P,C35,2*%
%TO.N,GND*%
X85852000Y35888000D03*
%TD*%
D26*
%TO.P,C36,1*%
%TO.N,+3V3*%
X150622000Y37465000D03*
%TO.P,C36,2*%
%TO.N,GND*%
X150622000Y35390000D03*
%TD*%
%TO.P,C37,1*%
%TO.N,+3V3*%
X188595000Y37376500D03*
%TO.P,C37,2*%
%TO.N,GND*%
X188595000Y35301500D03*
%TD*%
D27*
%TO.P,C38,1*%
%TO.N,+3V3*%
X82042000Y34120000D03*
%TO.P,C38,2*%
%TO.N,GND*%
X82042000Y36195000D03*
%TD*%
D28*
%TO.P,C39,1*%
%TO.N,+3V3*%
X79502000Y34086000D03*
%TO.P,C39,2*%
%TO.N,GND*%
X79502000Y37211000D03*
%TD*%
D29*
%TO.P,C40,1*%
%TO.N,+3V3*%
X111506000Y38265500D03*
%TO.P,C40,2*%
%TO.N,GND*%
X111506000Y35140500D03*
%TD*%
%TO.P,C41,1*%
%TO.N,+3V3*%
X148082000Y38050000D03*
%TO.P,C41,2*%
%TO.N,GND*%
X148082000Y34925000D03*
%TD*%
%TO.P,C42,1*%
%TO.N,+3V3*%
X186182000Y37884500D03*
%TO.P,C42,2*%
%TO.N,GND*%
X186182000Y34759500D03*
%TD*%
D30*
%TO.P,R13,1*%
%TO.N,+3V3*%
X161417000Y40751000D03*
%TO.P,R13,2*%
%TO.N,GPIOI_2*%
X161417000Y38751000D03*
%TD*%
%TO.P,R16,1*%
%TO.N,+3V3*%
X159131000Y40751000D03*
%TO.P,R16,2*%
%TO.N,XSHUT_2*%
X159131000Y38751000D03*
%TD*%
%TO.P,R17,1*%
%TO.N,+3V3*%
X199263000Y40751000D03*
%TO.P,R17,2*%
%TO.N,GPIOI_3*%
X199263000Y38751000D03*
%TD*%
%TO.P,R30,1*%
%TO.N,+3V3*%
X197104000Y40719000D03*
%TO.P,R30,2*%
%TO.N,XSHUT_3*%
X197104000Y38719000D03*
%TD*%
D31*
%TO.P,R31,1*%
%TO.N,+3V3*%
X90170000Y34163000D03*
%TO.P,R31,2*%
%TO.N,GPIOI_0*%
X90170000Y36163000D03*
%TD*%
%TO.P,R32,1*%
%TO.N,+3V3*%
X87884000Y34179000D03*
%TO.P,R32,2*%
%TO.N,XSHUT_0*%
X87884000Y36179000D03*
%TD*%
D25*
%TO.P,C8,1*%
%TO.N,+3V3*%
X125095000Y33681500D03*
%TO.P,C8,2*%
%TO.N,GND*%
X125095000Y35406500D03*
%TD*%
%TO.P,C9,1*%
%TO.N,+3V3*%
X120523000Y33681500D03*
%TO.P,C9,2*%
%TO.N,GND*%
X120523000Y35406500D03*
%TD*%
D26*
%TO.P,C10,1*%
%TO.N,+3V3*%
X113919000Y37740500D03*
%TO.P,C10,2*%
%TO.N,GND*%
X113919000Y35665500D03*
%TD*%
D27*
%TO.P,C12,1*%
%TO.N,+3V3*%
X98552000Y40089000D03*
%TO.P,C12,2*%
%TO.N,GND*%
X98552000Y42164000D03*
%TD*%
D30*
%TO.P,R12,1*%
%TO.N,+3V3*%
X122682000Y40751000D03*
%TO.P,R12,2*%
%TO.N,GPIOI_1*%
X122682000Y38751000D03*
%TD*%
%TO.P,R29,1*%
%TO.N,+3V3*%
X120396000Y40735000D03*
%TO.P,R29,2*%
%TO.N,XSHUT_1*%
X120396000Y38735000D03*
%TD*%
D32*
%TO.P,J14,1*%
%TO.N,GND*%
X165989000Y30952000D03*
%TO.P,J14,2*%
%TO.N,SDA1*%
X164719000Y26452000D03*
%TO.P,J14,3*%
%TO.N,GND*%
X163449000Y30952000D03*
%TO.P,J14,4*%
%TO.N,SCL1*%
X162179000Y26452000D03*
%TO.P,J14,5*%
%TO.N,GND*%
X160909000Y30952000D03*
%TO.P,J14,6*%
%TO.N,XSHUT_2*%
X159639000Y26452000D03*
%TO.P,J14,7*%
%TO.N,GND*%
X158369000Y30952000D03*
%TO.P,J14,8*%
%TO.N,GPIOI_2*%
X157099000Y26452000D03*
%TO.P,J14,9*%
%TO.N,+3V3*%
X155829000Y30952000D03*
%TO.P,J14,10*%
%TO.N,GND*%
X154559000Y26452000D03*
%TD*%
%TO.P,J15,1*%
%TO.N,GND*%
X204089000Y30952000D03*
%TO.P,J15,2*%
%TO.N,SDA1*%
X202819000Y26452000D03*
%TO.P,J15,3*%
%TO.N,GND*%
X201549000Y30952000D03*
%TO.P,J15,4*%
%TO.N,SCL1*%
X200279000Y26452000D03*
%TO.P,J15,5*%
%TO.N,GND*%
X199009000Y30952000D03*
%TO.P,J15,6*%
%TO.N,XSHUT_3*%
X197739000Y26452000D03*
%TO.P,J15,7*%
%TO.N,GND*%
X196469000Y30952000D03*
%TO.P,J15,8*%
%TO.N,GPIOI_3*%
X195199000Y26452000D03*
%TO.P,J15,9*%
%TO.N,+3V3*%
X193929000Y30952000D03*
%TO.P,J15,10*%
%TO.N,GND*%
X192659000Y26452000D03*
%TD*%
%TO.P,J16,1*%
%TO.N,GND*%
X90424000Y54737000D03*
%TO.P,J16,2*%
%TO.N,SDA1*%
X89154000Y50237000D03*
%TO.P,J16,3*%
%TO.N,GND*%
X87884000Y54737000D03*
%TO.P,J16,4*%
%TO.N,SCL1*%
X86614000Y50237000D03*
%TO.P,J16,5*%
%TO.N,GND*%
X85344000Y54737000D03*
%TO.P,J16,6*%
%TO.N,XSHUT_1*%
X84074000Y50237000D03*
%TO.P,J16,7*%
%TO.N,GND*%
X82804000Y54737000D03*
%TO.P,J16,8*%
%TO.N,GPIOI_1*%
X81534000Y50237000D03*
%TO.P,J16,9*%
%TO.N,+3V3*%
X80264000Y54737000D03*
%TO.P,J16,10*%
%TO.N,GND*%
X78994000Y50237000D03*
%TD*%
%TO.P,J20,1*%
%TO.N,GND*%
X90424000Y45085000D03*
%TO.P,J20,2*%
%TO.N,SDA1*%
X89154000Y40585000D03*
%TO.P,J20,3*%
%TO.N,GND*%
X87884000Y45085000D03*
%TO.P,J20,4*%
%TO.N,SCL1*%
X86614000Y40585000D03*
%TO.P,J20,5*%
%TO.N,GND*%
X85344000Y45085000D03*
%TO.P,J20,6*%
%TO.N,XSHUT_2*%
X84074000Y40585000D03*
%TO.P,J20,7*%
%TO.N,GND*%
X82804000Y45085000D03*
%TO.P,J20,8*%
%TO.N,GPIOI_2*%
X81534000Y40585000D03*
%TO.P,J20,9*%
%TO.N,+3V3*%
X80264000Y45085000D03*
%TO.P,J20,10*%
%TO.N,GND*%
X78994000Y40585000D03*
%TD*%
%TO.P,J21,1*%
%TO.N,GND*%
X90424000Y29464000D03*
%TO.P,J21,2*%
%TO.N,SDA1*%
X89154000Y24964000D03*
%TO.P,J21,3*%
%TO.N,GND*%
X87884000Y29464000D03*
%TO.P,J21,4*%
%TO.N,SCL1*%
X86614000Y24964000D03*
%TO.P,J21,5*%
%TO.N,GND*%
X85344000Y29464000D03*
%TO.P,J21,6*%
%TO.N,XSHUT_3*%
X84074000Y24964000D03*
%TO.P,J21,7*%
%TO.N,GND*%
X82804000Y29464000D03*
%TO.P,J21,8*%
%TO.N,GPIOI_3*%
X81534000Y24964000D03*
%TO.P,J21,9*%
%TO.N,+3V3*%
X80264000Y29464000D03*
%TO.P,J21,10*%
%TO.N,GND*%
X78994000Y24964000D03*
%TD*%
%TO.P,J13,1*%
%TO.N,GND*%
X127889000Y30952000D03*
%TO.P,J13,2*%
%TO.N,SDA1*%
X126619000Y26452000D03*
%TO.P,J13,3*%
%TO.N,GND*%
X125349000Y30952000D03*
%TO.P,J13,4*%
%TO.N,SCL1*%
X124079000Y26452000D03*
%TO.P,J13,5*%
%TO.N,GND*%
X122809000Y30952000D03*
%TO.P,J13,6*%
%TO.N,XSHUT_1*%
X121539000Y26452000D03*
%TO.P,J13,7*%
%TO.N,GND*%
X120269000Y30952000D03*
%TO.P,J13,8*%
%TO.N,GPIOI_1*%
X118999000Y26452000D03*
%TO.P,J13,9*%
%TO.N,+3V3*%
X117729000Y30952000D03*
%TO.P,J13,10*%
%TO.N,GND*%
X116459000Y26452000D03*
%TD*%
D33*
%TO.P,TP3,1,1*%
%TO.N,SCL1*%
X127000000Y21590000D03*
%TD*%
%TO.P,TP4,1,1*%
%TO.N,SDA1*%
X130175000Y21590000D03*
%TD*%
%TO.P,TP5,1,1*%
%TO.N,XSHUT_1*%
X123825000Y21590000D03*
%TD*%
%TO.P,TP6,1,1*%
%TO.N,GPIOI_1*%
X120650000Y21590000D03*
%TD*%
%TO.P,TP7,1,1*%
%TO.N,GND*%
X114300000Y21590000D03*
%TD*%
%TO.P,TP8,1,1*%
%TO.N,+3V3*%
X117475000Y21590000D03*
%TD*%
%TO.P,TP9,1,1*%
%TO.N,SCL1*%
X165100000Y21590000D03*
%TD*%
%TO.P,TP10,1,1*%
%TO.N,SDA1*%
X168275000Y21590000D03*
%TD*%
%TO.P,TP11,1,1*%
%TO.N,XSHUT_2*%
X161925000Y21590000D03*
%TD*%
%TO.P,TP12,1,1*%
%TO.N,GPIOI_2*%
X158750000Y21590000D03*
%TD*%
%TO.P,TP13,1,1*%
%TO.N,GND*%
X152400000Y21590000D03*
%TD*%
%TO.P,TP15,1,1*%
%TO.N,SCL1*%
X203200000Y21590000D03*
%TD*%
%TO.P,TP16,1,1*%
%TO.N,SDA1*%
X206375000Y21590000D03*
%TD*%
%TO.P,TP17,1,1*%
%TO.N,XSHUT_3*%
X200025000Y21590000D03*
%TD*%
%TO.P,TP18,1,1*%
%TO.N,GPIOI_3*%
X196850000Y21590000D03*
%TD*%
%TO.P,TP19,1,1*%
%TO.N,GND*%
X190500000Y21590000D03*
%TD*%
%TO.P,TP20,1,1*%
%TO.N,+3V3*%
X193675000Y21590000D03*
%TD*%
%TO.P,TP14,1,1*%
%TO.N,+3V3*%
X155575000Y21590000D03*
%TD*%
%TO.P,TP22,1,1*%
%TO.N,SDA1*%
X244475000Y21590000D03*
%TD*%
D34*
%TO.P,C45,1*%
%TO.N,+3V3*%
X224282000Y37884500D03*
%TO.P,C45,2*%
%TO.N,GND*%
X224282000Y34759500D03*
%TD*%
D35*
%TO.P,R34,1*%
%TO.N,+3V3*%
X235204000Y40767000D03*
%TO.P,R34,2*%
%TO.N,XSHUT_4*%
X235204000Y38767000D03*
%TD*%
D33*
%TO.P,TP25,1,1*%
%TO.N,GND*%
X228600000Y21590000D03*
%TD*%
D25*
%TO.P,C44,1*%
%TO.N,+3V3*%
X234188000Y33782000D03*
%TO.P,C44,2*%
%TO.N,GND*%
X234188000Y35507000D03*
%TD*%
D36*
%TO.P,REF\u002A\u002A,1*%
%TO.N,N/C*%
X107950000Y11662000D03*
D37*
%TO.P,REF\u002A\u002A,2*%
X107950000Y10287000D03*
%TD*%
D35*
%TO.P,R33,1*%
%TO.N,+3V3*%
X237363000Y40751000D03*
%TO.P,R33,2*%
%TO.N,GPIOI_4*%
X237363000Y38751000D03*
%TD*%
D36*
%TO.P,REF\u002A\u002A,1*%
%TO.N,N/C*%
X58674000Y23092000D03*
D37*
%TO.P,REF\u002A\u002A,2*%
X58674000Y21717000D03*
%TD*%
D38*
%TO.P,R38,1*%
%TO.N,SCL2*%
X42164000Y41402000D03*
%TO.P,R38,2*%
X42164000Y43402000D03*
%TD*%
D36*
%TO.P,REF\u002A\u002A,1*%
%TO.N,N/C*%
X213995000Y11662000D03*
D37*
%TO.P,REF\u002A\u002A,2*%
X213995000Y10287000D03*
%TD*%
D35*
%TO.P,R37,1*%
%TO.N,SDA2*%
X47117000Y43815000D03*
%TO.P,R37,2*%
X47117000Y41815000D03*
%TD*%
D33*
%TO.P,TP26,1,1*%
%TO.N,+3V3*%
X231775000Y21590000D03*
%TD*%
%TO.P,TP24,1,1*%
%TO.N,GPIOI_4*%
X234950000Y21590000D03*
%TD*%
%TO.P,TP23,1,1*%
%TO.N,XSHUT_4*%
X238125000Y21590000D03*
%TD*%
D32*
%TO.P,J22,1*%
%TO.N,GND*%
X90424000Y18633000D03*
%TO.P,J22,2*%
%TO.N,SDA1*%
X89154000Y14133000D03*
%TO.P,J22,3*%
%TO.N,GND*%
X87884000Y18633000D03*
%TO.P,J22,4*%
%TO.N,SCL1*%
X86614000Y14133000D03*
%TO.P,J22,5*%
%TO.N,GND*%
X85344000Y18633000D03*
%TO.P,J22,6*%
%TO.N,XSHUT_4*%
X84074000Y14133000D03*
%TO.P,J22,7*%
%TO.N,GND*%
X82804000Y18633000D03*
%TO.P,J22,8*%
%TO.N,GPIOI_4*%
X81534000Y14133000D03*
%TO.P,J22,9*%
%TO.N,+3V3*%
X80264000Y18633000D03*
%TO.P,J22,10*%
%TO.N,GND*%
X78994000Y14133000D03*
%TD*%
D26*
%TO.P,C50,1*%
%TO.N,GND*%
X47117000Y47795000D03*
%TO.P,C50,2*%
%TO.N,SDA2*%
X47117000Y45720000D03*
%TD*%
D36*
%TO.P,REF\u002A\u002A,1*%
%TO.N,N/C*%
X179246000Y60193000D03*
D37*
%TO.P,REF\u002A\u002A,2*%
X179246000Y58818000D03*
%TD*%
D16*
%TO.P,C51,1*%
%TO.N,GND*%
X40110500Y45974000D03*
%TO.P,C51,2*%
%TO.N,SCL2*%
X42185500Y45974000D03*
%TD*%
D33*
%TO.P,TP21,1,1*%
%TO.N,SCL1*%
X241300000Y21590000D03*
%TD*%
D32*
%TO.P,J23,1*%
%TO.N,GND*%
X242189000Y30825000D03*
%TO.P,J23,2*%
%TO.N,SDA1*%
X240919000Y26325000D03*
%TO.P,J23,3*%
%TO.N,GND*%
X239649000Y30825000D03*
%TO.P,J23,4*%
%TO.N,SCL1*%
X238379000Y26325000D03*
%TO.P,J23,5*%
%TO.N,GND*%
X237109000Y30825000D03*
%TO.P,J23,6*%
%TO.N,XSHUT_4*%
X235839000Y26325000D03*
%TO.P,J23,7*%
%TO.N,GND*%
X234569000Y30825000D03*
%TO.P,J23,8*%
%TO.N,GPIOI_4*%
X233299000Y26325000D03*
%TO.P,J23,9*%
%TO.N,+3V3*%
X232029000Y30825000D03*
%TO.P,J23,10*%
%TO.N,GND*%
X230759000Y26325000D03*
%TD*%
D25*
%TO.P,C46,1*%
%TO.N,+3V3*%
X238760000Y33681500D03*
%TO.P,C46,2*%
%TO.N,GND*%
X238760000Y35406500D03*
%TD*%
D26*
%TO.P,C47,1*%
%TO.N,+3V3*%
X226695000Y37359500D03*
%TO.P,C47,2*%
%TO.N,GND*%
X226695000Y35284500D03*
%TD*%
D39*
%TO.N,GND*%
X20320000Y45085000D03*
%TO.N,GPIOI_3*%
X72136000Y28956000D03*
%TO.N,GPIOI_4*%
X70104000Y29718000D03*
%TO.N,GND*%
X72136000Y44577000D03*
X72136000Y33274000D03*
X72136000Y35560000D03*
X72136000Y37719000D03*
X72136000Y40259000D03*
X72136000Y42418000D03*
%TO.N,/STM32L151RET6TR/FTDI_CTS*%
X40386000Y38354000D03*
%TO.N,GPIOI_4*%
X42037000Y53765504D03*
%TO.N,GPIOI_2*%
X42037000Y55245000D03*
%TO.N,LED_1*%
X58826400Y36474400D03*
%TO.N,GPIOI_3*%
X62738000Y30771500D03*
%TO.N,GPIOI_0*%
X63804800Y31496000D03*
%TO.N,XSHUT_0*%
X72542400Y30581600D03*
%TO.N,GND*%
X39928800Y32105600D03*
X36576000Y31191200D03*
%TO.N,LED_0*%
X48666400Y42062400D03*
%TO.N,GPIOI_0*%
X48615600Y40792400D03*
%TO.N,LED_1*%
X49936521Y41872433D03*
%TO.N,LED_2*%
X49545455Y43300144D03*
%TO.N,LED_3*%
X49733200Y44704000D03*
%TO.N,LED_4*%
X50058478Y45872400D03*
%TO.N,GND*%
X18478000Y21606000D03*
X16478000Y21606000D03*
X14478000Y21606000D03*
X18478000Y23606000D03*
X16478000Y23606000D03*
X14478000Y23622000D03*
X14274800Y20421600D03*
X68707000Y28829000D03*
X65532000Y28829000D03*
X67437000Y33274000D03*
X67437000Y35560000D03*
X67437000Y40259000D03*
X67437000Y42418000D03*
X64643000Y44069000D03*
X63119000Y43688000D03*
X63119000Y41275000D03*
X63119000Y36703000D03*
X63119000Y34417000D03*
X153416000Y29718000D03*
X152146000Y29718000D03*
X152146000Y27686000D03*
X213360000Y27686000D03*
X221234000Y27686000D03*
X176276000Y27686000D03*
X183134000Y27686000D03*
X90424000Y32766000D03*
X92964000Y30226000D03*
X81534000Y27178000D03*
X84074000Y27178000D03*
X76708000Y34798000D03*
X76708000Y32766000D03*
X92964000Y33274000D03*
X92964000Y36068000D03*
X79756000Y37338000D03*
X77470000Y39370000D03*
X82804000Y42799000D03*
X77470000Y42164000D03*
X76708000Y27178000D03*
X76708000Y25908000D03*
X239776000Y41402000D03*
X34544000Y14478000D03*
X162143000Y30952000D03*
X43561000Y44577000D03*
X240030000Y35433000D03*
X201930000Y35433000D03*
X182118000Y42418000D03*
X163449000Y28829000D03*
X38608000Y44450000D03*
X65151000Y8255000D03*
X132080000Y24638000D03*
X200243000Y30952000D03*
X43561000Y13970000D03*
X2896000Y22258000D03*
X180848000Y39116000D03*
X124043000Y30952000D03*
X54991000Y13843000D03*
X168148000Y41529000D03*
X207010000Y38735000D03*
X101219000Y27686000D03*
X85344000Y16510000D03*
X87884000Y16510000D03*
X219964000Y42926000D03*
X177800000Y39116000D03*
X19701000Y48069500D03*
X177800000Y27686000D03*
X53086000Y17018000D03*
X90424000Y16510000D03*
X214884000Y30734000D03*
X78994000Y42672000D03*
X67437000Y12065000D03*
X117856000Y41783000D03*
X91059000Y13716000D03*
X129286000Y41783000D03*
X86578000Y54701000D03*
X143510000Y29718000D03*
X171577000Y41529000D03*
X93218000Y11938000D03*
X205740000Y38735000D03*
X94869000Y13589000D03*
X4496000Y20758000D03*
X38481000Y16637000D03*
X154813000Y41656000D03*
X30988000Y18161000D03*
X105596000Y41158000D03*
X67437000Y9017000D03*
X115824000Y32512000D03*
X230124000Y36322000D03*
X75946000Y10668000D03*
X219710000Y35306000D03*
X51054000Y29459500D03*
X152019000Y41402000D03*
X171196000Y25146000D03*
X243840000Y41402000D03*
X7747000Y48133000D03*
X159603000Y30952000D03*
X214884000Y42926000D03*
X130048000Y34290000D03*
X163322000Y38735000D03*
X129286000Y38608000D03*
X138938000Y39116000D03*
X238343000Y30952000D03*
X215138000Y27686000D03*
X184912000Y25654000D03*
X91186000Y9906000D03*
X150876000Y34036000D03*
X209296000Y29718000D03*
X98552000Y43561000D03*
X194183000Y41656000D03*
X5334000Y60960000D03*
X82804000Y16510000D03*
X38481000Y12192000D03*
X33147000Y13208000D03*
X181610000Y36068000D03*
X119305750Y35875348D03*
X243840000Y28702000D03*
X192532000Y41656000D03*
X186944000Y27686000D03*
X84038000Y54701000D03*
X54991000Y17018000D03*
X1496000Y22258000D03*
X38481000Y13970000D03*
X177038000Y43434000D03*
X205740000Y27813000D03*
X28829000Y50546000D03*
X89118000Y29392000D03*
X131191000Y41783000D03*
X38593040Y49642040D03*
X208788000Y38735000D03*
X156464000Y41656000D03*
X176530000Y42418000D03*
X211328000Y29718000D03*
X16653000Y49085500D03*
X143510000Y32004000D03*
X200914000Y41656000D03*
X60325000Y11684000D03*
X78994000Y16510000D03*
X152400000Y35052000D03*
X54196000Y40058000D03*
X218821000Y41021000D03*
X105596000Y43358000D03*
X190754000Y41656000D03*
X239776000Y39370000D03*
X78740000Y27396000D03*
X71696000Y50658000D03*
X171577000Y38735000D03*
X101092000Y31750000D03*
X2896000Y20758000D03*
X31242000Y14732000D03*
X110744000Y25146000D03*
X100396000Y34544000D03*
X143510000Y34290000D03*
X42418000Y34163000D03*
X89408000Y9271000D03*
X79756000Y10668000D03*
X243840000Y39370000D03*
X53086000Y13843000D03*
X84963000Y10160000D03*
X186944000Y25654000D03*
X42481500Y16954500D03*
X214884000Y37338000D03*
X192532000Y38608000D03*
X149352000Y27686000D03*
X10033000Y43434000D03*
X105664000Y31750000D03*
X105664000Y25146000D03*
X86578000Y29392000D03*
X114046000Y41783000D03*
X168148000Y38735000D03*
X89118000Y54701000D03*
X226060000Y25146000D03*
X184531000Y34798000D03*
X243840000Y30988000D03*
X143510000Y39116000D03*
X40952500Y42545000D03*
X207010000Y41656000D03*
X115570000Y35687000D03*
X86995000Y8001000D03*
X37196000Y27858000D03*
X186182000Y33401000D03*
X121539000Y30988000D03*
X27178000Y22479000D03*
X32893000Y34290000D03*
X210439000Y38735000D03*
X88171506Y42832506D03*
X230124000Y34290000D03*
X196088000Y36527000D03*
X72136000Y8763000D03*
X85471000Y31877000D03*
X105596000Y34544000D03*
X153035000Y38735000D03*
X197703000Y30952000D03*
X138938000Y43180000D03*
X62230000Y13716000D03*
X43561000Y12192000D03*
X28474000Y30099000D03*
X97028000Y42164000D03*
X130048000Y32004000D03*
X148336000Y33528000D03*
X205740000Y41656000D03*
X192659000Y24130000D03*
X36322000Y13970000D03*
X207264000Y25654000D03*
X160909000Y28702000D03*
X143510000Y41148000D03*
X26416000Y19685000D03*
X234188000Y36527000D03*
X184404000Y31496000D03*
X138938000Y32004000D03*
X208788000Y41656000D03*
X181610000Y29718000D03*
X116459000Y24257000D03*
X230124000Y38354000D03*
X7620000Y44577000D03*
X214884000Y35306000D03*
X239776000Y28702000D03*
X58547000Y17018000D03*
X209296000Y25654000D03*
X219710000Y37338000D03*
X164084000Y35560000D03*
X138938000Y27686000D03*
X164683000Y30952000D03*
X52996000Y38840966D03*
X190754000Y38608000D03*
X60579000Y13716000D03*
X232918000Y35433000D03*
X8813800Y43434000D03*
X171196000Y29718000D03*
X1496000Y17658000D03*
X41021000Y47498000D03*
X188976000Y29718000D03*
X8813800Y44551600D03*
X41021000Y13970000D03*
X154432000Y23876000D03*
X138938000Y36830000D03*
X115951000Y38608000D03*
X205740000Y34163000D03*
X44132500Y16954500D03*
X86995000Y9271000D03*
X108204000Y25146000D03*
X133096000Y41783000D03*
X56896000Y17018000D03*
X4496000Y17658000D03*
X79756000Y8763000D03*
X181610000Y43434000D03*
X33640040Y49642040D03*
X202783000Y30952000D03*
X29077490Y23119510D03*
X19701000Y47053500D03*
X122809000Y33782000D03*
X82677000Y10668000D03*
X11811000Y59817000D03*
X224663000Y27813000D03*
X194183000Y38608000D03*
X230759000Y24130000D03*
X77851000Y37211000D03*
X30480000Y26924000D03*
X33147000Y16002000D03*
X111506000Y36576000D03*
X1496000Y19258000D03*
X43942000Y50292000D03*
X84074000Y31877000D03*
X226695000Y34036000D03*
X105596000Y37058000D03*
X149352000Y29718000D03*
X186944000Y29718000D03*
X181610000Y31750000D03*
X115951000Y41783000D03*
X32131000Y21590000D03*
X100396000Y39158000D03*
X198374000Y37211000D03*
X149352000Y25146000D03*
X41021000Y16637000D03*
X45333490Y31247510D03*
X112395000Y33655000D03*
X97790000Y25273000D03*
X8779000Y48133000D03*
X167640000Y32258000D03*
X237236000Y28702000D03*
X180594000Y41148000D03*
X14396000Y19458000D03*
X36957000Y50292000D03*
X122809000Y37084000D03*
X43301490Y16515510D03*
X40767000Y50419000D03*
X211328000Y25654000D03*
X138938000Y29718000D03*
X130048000Y29972000D03*
X11811000Y60833000D03*
X33274000Y19939000D03*
X54696000Y41989460D03*
X105596000Y39158000D03*
X216027000Y41021000D03*
X75946000Y8763000D03*
X17696000Y19458000D03*
X67437000Y37792211D03*
X108204000Y27686000D03*
X228092000Y35306000D03*
X189992000Y35306000D03*
X160366688Y37430688D03*
X44450000Y48768000D03*
X181610000Y27686000D03*
X2196000Y15258000D03*
X92456000Y20955000D03*
X169926000Y38735000D03*
X83439000Y8763000D03*
X26289000Y50546000D03*
X78486000Y52832000D03*
X100396000Y43358000D03*
X6350000Y60960000D03*
X176530000Y29718000D03*
X2896000Y17658000D03*
X153416000Y32766000D03*
X16653000Y47053500D03*
X177800000Y41148000D03*
X4496000Y22258000D03*
X220218000Y30734000D03*
X210439000Y41656000D03*
X228854000Y27813000D03*
X126111000Y35560000D03*
X16653000Y48069500D03*
X209296000Y27686000D03*
X191516000Y34290000D03*
X143510000Y36830000D03*
X35560000Y12192000D03*
X236474000Y37211000D03*
X176530000Y34036000D03*
X176530000Y31750000D03*
X4496000Y19258000D03*
X110744000Y27686000D03*
X7620000Y43434000D03*
X156464000Y35560000D03*
X218821000Y39243000D03*
X100396000Y37058000D03*
X133096000Y38608000D03*
X238760000Y36576000D03*
X207264000Y29718000D03*
X27684900Y18525755D03*
X224282000Y33401000D03*
X243840000Y33274000D03*
X194818000Y35433000D03*
X219456000Y27686000D03*
X191516000Y32258000D03*
X58420000Y11684000D03*
X214884000Y33020000D03*
X53296000Y43458000D03*
X167640000Y34290000D03*
X156464000Y38735000D03*
X181610000Y34036000D03*
X146304000Y35052000D03*
X9842500Y48133000D03*
X47873490Y35057510D03*
X19701000Y49085500D03*
X200660000Y36576000D03*
X228092000Y25146000D03*
X41148000Y44450000D03*
X84038000Y29392000D03*
X100457000Y24765000D03*
X12827000Y59817000D03*
X94996000Y17907000D03*
X10795000Y60833000D03*
X143510000Y27686000D03*
X41021000Y12192000D03*
X200914000Y38735000D03*
X169926000Y41529000D03*
X1496000Y20758000D03*
X105664000Y27686000D03*
X98679000Y22860000D03*
X138938000Y41148000D03*
X2896000Y19258000D03*
X90424000Y42799000D03*
X51054000Y52578000D03*
X65151000Y11303000D03*
X96393000Y23876000D03*
X154813000Y38735000D03*
X51308299Y37770299D03*
X124714000Y38608000D03*
X240883000Y30952000D03*
X100396000Y41158000D03*
X81613502Y45085000D03*
X37211000Y30158000D03*
X90551000Y12573000D03*
X85257752Y43038832D03*
X235803000Y30952000D03*
X82042000Y37592000D03*
X53158136Y31042880D03*
X10795000Y59817000D03*
X91948000Y18161000D03*
X216027000Y39243000D03*
X97155000Y15748000D03*
X132080000Y30226000D03*
X167640000Y30226000D03*
X117475000Y38608000D03*
X35814000Y17145000D03*
X49403000Y30226000D03*
X230124000Y39878000D03*
X224028000Y25146000D03*
X143510000Y43180000D03*
X188595000Y34036000D03*
X113284000Y25146000D03*
X205740000Y30099000D03*
X219710000Y33020000D03*
X222631000Y34798000D03*
X84836000Y37211000D03*
X30570000Y24474000D03*
X12827000Y60833000D03*
X97790000Y17907000D03*
X167640000Y36322000D03*
X131191000Y38608000D03*
X45339000Y33020000D03*
X42926000Y47879000D03*
X1496000Y16358000D03*
X126583000Y30952000D03*
X230124000Y32258000D03*
X205740000Y32131000D03*
X176530000Y36068000D03*
X122792743Y35051044D03*
X93345000Y15748000D03*
X138938000Y34290000D03*
X97790000Y20955000D03*
X10033000Y44577000D03*
X95123000Y20955000D03*
X188976000Y25654000D03*
X89408000Y8001000D03*
X114046000Y34163000D03*
%TO.N,+3V3*%
X201930000Y33274000D03*
X78486000Y54229000D03*
X108966000Y40132000D03*
X222885000Y40132000D03*
X163830000Y33655000D03*
X126619000Y32893000D03*
X53196000Y32758000D03*
X240030000Y33274000D03*
X119507000Y33528000D03*
X87066700Y32812702D03*
X38608000Y43180000D03*
X71514000Y46840000D03*
X78486000Y45720000D03*
X183134000Y40132000D03*
X60729000Y46825000D03*
X232918000Y33655000D03*
X51296000Y43458000D03*
X41148000Y32131000D03*
X156845000Y33655000D03*
X78232000Y17780000D03*
X221234000Y40132000D03*
X39496000Y27858000D03*
X78486000Y44450000D03*
X31369000Y50546000D03*
X78486000Y55372000D03*
X82296000Y32766000D03*
X35433000Y51943000D03*
X46355000Y33401000D03*
X95250000Y40767000D03*
X96012000Y40005000D03*
X78740000Y28920000D03*
X147574000Y40132000D03*
X26416000Y23368000D03*
X23496000Y22858000D03*
X46609000Y31242000D03*
X146050000Y40132000D03*
X38496000Y27858000D03*
X51196000Y45558512D03*
X110236000Y40132000D03*
X184785000Y40132000D03*
X45593000Y36195000D03*
X194818000Y33655000D03*
X78740000Y29936000D03*
X78232000Y19304000D03*
%TO.N,XSHUT_1*%
X121539000Y28702000D03*
X84074000Y47879000D03*
X120396000Y37465000D03*
X48144327Y16627563D03*
X48133000Y12172501D03*
%TO.N,GPIOI_1*%
X81534000Y47879000D03*
X118872000Y28702000D03*
X43434000Y56007000D03*
X121793000Y37465000D03*
X117348000Y36576000D03*
%TO.N,XSHUT_2*%
X48891141Y17291848D03*
X48895000Y12827000D03*
X84074000Y42799000D03*
X157607000Y38735000D03*
X159639000Y28702000D03*
%TO.N,GPIOI_2*%
X81534000Y42799000D03*
X75596000Y47358000D03*
X157099000Y28702000D03*
X161417000Y37338000D03*
%TO.N,XSHUT_0*%
X87884000Y37719000D03*
X47371000Y12827000D03*
X47376435Y17267366D03*
%TO.N,GPIOI_0*%
X90170000Y37719000D03*
%TO.N,LED_3*%
X58785042Y40048500D03*
%TO.N,LED_4*%
X58795490Y42423510D03*
%TO.N,LED_2*%
X58541490Y37849499D03*
%TO.N,SW_1*%
X68296000Y45058000D03*
X66277503Y13970000D03*
X66344800Y18643600D03*
%TO.N,SW_2*%
X65278000Y18643600D03*
X53196000Y45658000D03*
X65278000Y13970000D03*
%TO.N,+5V*%
X19696000Y36658000D03*
X3556000Y58674000D03*
X19696000Y37858000D03*
X3556000Y57785000D03*
X19696000Y35458000D03*
X12616572Y47803369D03*
X3556000Y59563000D03*
%TO.N,/STM32L151RET6TR/RST*%
X43809490Y26929510D03*
%TO.N,SCL1*%
X86614000Y10414000D03*
X28315490Y32263510D03*
X162179000Y28702000D03*
X238379000Y28702000D03*
X86614000Y27142000D03*
X200279000Y28702000D03*
X124079000Y28702000D03*
%TO.N,SDA1*%
X240919000Y28702000D03*
X164719000Y28829000D03*
X126619000Y28702000D03*
X89154000Y11811000D03*
X90424000Y26761000D03*
X28320143Y31242857D03*
X202819000Y28829000D03*
%TO.N,/STM32L151RET6TR/FTDI_RXD*%
X27051000Y38608000D03*
%TO.N,/STM32L151RET6TR/FTDI_TXD*%
X29584299Y38614613D03*
%TO.N,SCL2*%
X27553490Y50551510D03*
X43561000Y45847000D03*
%TO.N,SDA2*%
X30093490Y50551510D03*
X45719673Y39358272D03*
%TO.N,/STM32L151RET6TR/PIN41*%
X43588990Y43307000D03*
%TO.N,/STM32L151RET6TR/PIN29*%
X45593000Y37211000D03*
%TO.N,/STM32L151RET6TR/PIN30*%
X48260000Y38354000D03*
%TO.N,/STM32L151RET6TR/PC8*%
X32633490Y50551510D03*
%TO.N,/STM32L151RET6TR/PA9*%
X25013490Y50551510D03*
%TO.N,/STM32L151RET6TR/PA10*%
X22473490Y50805510D03*
%TO.N,BUCK_5_EN*%
X21246500Y49072800D03*
X32131000Y43815000D03*
X39877992Y30860992D03*
X12548210Y52048070D03*
%TO.N,XSHUT_3*%
X49716803Y12258102D03*
X84074000Y22570000D03*
X195453000Y38735000D03*
X49657000Y16637000D03*
X197739000Y28702000D03*
%TO.N,GPIOI_3*%
X195199000Y28231500D03*
X48763701Y39619701D03*
X81534000Y22570000D03*
X43455776Y54490004D03*
X199491600Y37338000D03*
%TO.N,XSHUT_4*%
X235839000Y28448000D03*
X233426000Y38735000D03*
X50673000Y12827000D03*
X50677299Y17267701D03*
X84074000Y16383000D03*
%TO.N,GPIOI_4*%
X237591600Y37185600D03*
X233299000Y28575000D03*
X81534000Y16383000D03*
%TO.N,LED_0*%
X58916501Y33279510D03*
%TD*%
D40*
%TO.N,GPIOI_3*%
X71691500Y29400500D02*
X72136000Y28956000D01*
%TO.N,GPIOI_4*%
X70096000Y29726000D02*
X70104000Y29718000D01*
X70096000Y29958000D02*
X70096000Y29726000D01*
%TO.N,/STM32L151RET6TR/FTDI_CTS*%
X35744512Y43693510D02*
X34671000Y43693510D01*
X40386000Y39052022D02*
X35744512Y43693510D01*
X40386000Y38354000D02*
X40386000Y39052022D01*
%TO.N,GPIOI_2*%
X42042839Y55239161D02*
X42037000Y55245000D01*
X68331839Y55239161D02*
X42042839Y55239161D01*
%TO.N,GPIOI_4*%
X44330507Y54340121D02*
X67959443Y54340121D01*
X43755890Y53765504D02*
X44330507Y54340121D01*
X42037000Y53765504D02*
X43755890Y53765504D01*
X67959443Y54340121D02*
X70096000Y52203564D01*
X70096000Y52203564D02*
X70096000Y29958000D01*
%TO.N,LED_1*%
X58193280Y37107520D02*
X53631410Y37107520D01*
X58826400Y36474400D02*
X58193280Y37107520D01*
%TO.N,GPIOI_3*%
X62521500Y30988000D02*
X62738000Y30771500D01*
X60706000Y30988000D02*
X62521500Y30988000D01*
%TO.N,GPIOI_0*%
X59446010Y31496000D02*
X63804800Y31496000D01*
%TO.N,XSHUT_0*%
X74918112Y28205888D02*
X72542400Y30581600D01*
X74918112Y27824888D02*
X74918112Y28205888D01*
%TO.N,GPIOI_3*%
X48984511Y39398891D02*
X48763701Y39619701D01*
X48984511Y38369489D02*
X48984511Y39398891D01*
X56366000Y30988000D02*
X48984511Y38369489D01*
X60706000Y30988000D02*
X56366000Y30988000D01*
%TO.N,LED_0*%
X48666400Y41987600D02*
X49487001Y41166999D01*
X48666400Y42062400D02*
X48666400Y41987600D01*
%TO.N,GPIOI_0*%
X49488196Y39919804D02*
X49488212Y39919804D01*
X48615600Y40792400D02*
X49488196Y39919804D01*
%TO.N,LED_2*%
X51580639Y41264960D02*
X49545455Y43300144D01*
X54189040Y41264960D02*
X51580639Y41264960D01*
X57604501Y37849499D02*
X54189040Y41264960D01*
X58541490Y37849499D02*
X57604501Y37849499D01*
%TO.N,LED_3*%
X53469508Y44384492D02*
X57805500Y40048500D01*
X57805500Y40048500D02*
X58785042Y40048500D01*
X50052708Y44384492D02*
X53469508Y44384492D01*
X49733200Y44704000D02*
X50052708Y44384492D01*
%TO.N,LED_4*%
X50058478Y45872400D02*
X50058478Y45454825D01*
X50058478Y45454825D02*
X50679291Y44834012D01*
%TO.N,XSHUT_1*%
X83349489Y47154489D02*
X84074000Y47879000D01*
X77216000Y46228000D02*
X78142489Y47154489D01*
X60833773Y17401207D02*
X73403793Y17401207D01*
X78142489Y47154489D02*
X83349489Y47154489D01*
X75367632Y19365046D02*
X75367632Y41331632D01*
X75367632Y41331632D02*
X77216000Y43180000D01*
X77216000Y43180000D02*
X77216000Y46228000D01*
X55756945Y12324379D02*
X60833773Y17401207D01*
X73403793Y17401207D02*
X75367632Y19365046D01*
X51948379Y12324379D02*
X55756945Y12324379D01*
X49530000Y9906000D02*
X51948379Y12324379D01*
%TO.N,GND*%
X87884000Y45049000D02*
X87884000Y43120012D01*
D41*
X115570000Y35687000D02*
X113940500Y35687000D01*
D40*
X86578000Y54701000D02*
X87884000Y54701000D01*
D41*
X184569500Y34759500D02*
X184531000Y34798000D01*
X222669500Y34759500D02*
X222631000Y34798000D01*
X125095000Y35406500D02*
X125957500Y35406500D01*
X234569000Y30952000D02*
X235803000Y30952000D01*
D40*
X78994000Y52324000D02*
X78486000Y52832000D01*
X49397490Y31247510D02*
X49397490Y30231510D01*
D41*
X148082000Y33782000D02*
X148336000Y33528000D01*
X162143000Y30952000D02*
X160909000Y30952000D01*
X197703000Y30952000D02*
X199009000Y30952000D01*
X239649000Y30952000D02*
X238343000Y30952000D01*
X204089000Y30952000D02*
X202783000Y30952000D01*
X122809000Y30952000D02*
X124043000Y30952000D01*
X154432000Y23622000D02*
X152400000Y21590000D01*
D40*
X82804000Y18633000D02*
X85344000Y18633000D01*
X196088000Y35433000D02*
X196088000Y36527000D01*
D41*
X158369000Y30952000D02*
X159603000Y30952000D01*
D40*
X43666500Y34798000D02*
X43666500Y33369500D01*
X51318010Y29723510D02*
X51054000Y29459500D01*
D41*
X150622000Y34290000D02*
X150876000Y34036000D01*
X164683000Y30952000D02*
X165989000Y30952000D01*
X150622000Y35390000D02*
X150622000Y34290000D01*
X163930500Y35406500D02*
X164084000Y35560000D01*
X85852000Y36195000D02*
X84836000Y37211000D01*
D40*
X40110500Y44852500D02*
X40513000Y44450000D01*
X49694490Y33279510D02*
X49694490Y31544510D01*
D41*
X148082000Y34925000D02*
X148082000Y33782000D01*
X77851000Y37211000D02*
X79502000Y37211000D01*
D40*
X47117000Y47795000D02*
X47117000Y49022000D01*
D42*
X98552000Y42164000D02*
X98552000Y43561000D01*
D41*
X126583000Y30952000D02*
X127889000Y30952000D01*
X196469000Y30952000D02*
X197703000Y30952000D01*
D40*
X52191490Y29723510D02*
X51318010Y29723510D01*
D41*
X238343000Y30952000D02*
X237109000Y30952000D01*
D40*
X82804000Y18633000D02*
X82804000Y16510000D01*
D41*
X125349000Y30952000D02*
X126583000Y30952000D01*
D40*
X40513000Y44450000D02*
X41148000Y44450000D01*
D41*
X226695000Y35301500D02*
X226695000Y34036000D01*
X113940500Y35687000D02*
X113919000Y35665500D01*
X230759000Y26452000D02*
X230759000Y24130000D01*
D40*
X43666500Y33369500D02*
X44010490Y33025510D01*
X47117000Y47795000D02*
X45423000Y47795000D01*
X90424000Y45049000D02*
X90424000Y42799000D01*
D41*
X82042000Y36195000D02*
X80518000Y36195000D01*
D40*
X240003500Y35406500D02*
X240030000Y35433000D01*
X45423000Y47795000D02*
X44450000Y48768000D01*
X78994000Y27142000D02*
X78740000Y27396000D01*
D41*
X154432000Y23876000D02*
X154432000Y23622000D01*
D40*
X85344000Y54701000D02*
X86578000Y54701000D01*
X78994000Y50201000D02*
X78994000Y52324000D01*
D41*
X156617500Y35406500D02*
X156464000Y35560000D01*
D40*
X238760000Y35406500D02*
X240003500Y35406500D01*
D41*
X159603000Y30952000D02*
X160909000Y30952000D01*
X163449000Y30952000D02*
X164683000Y30952000D01*
D40*
X38608000Y45720000D02*
X38608000Y44450000D01*
X78994000Y14133000D02*
X78994000Y16510000D01*
D41*
X111506000Y34544000D02*
X112395000Y33655000D01*
D40*
X90424000Y54701000D02*
X89118000Y54701000D01*
X49694490Y31544510D02*
X49397490Y31247510D01*
D41*
X189987500Y35301500D02*
X189992000Y35306000D01*
D42*
X98552000Y42164000D02*
X97028000Y42164000D01*
D41*
X111506000Y35140500D02*
X111506000Y34544000D01*
D40*
X85344000Y45049000D02*
X85344000Y43125080D01*
X45847000Y50292000D02*
X43942000Y50292000D01*
X49694490Y33279510D02*
X49651490Y33279510D01*
D42*
X99202000Y42164000D02*
X98552000Y42164000D01*
D40*
X87884000Y43120012D02*
X88171506Y42832506D01*
D41*
X146431000Y34925000D02*
X146304000Y35052000D01*
X230759000Y24130000D02*
X230759000Y23749000D01*
X202783000Y30952000D02*
X201549000Y30952000D01*
X157988000Y35406500D02*
X156617500Y35406500D01*
D40*
X238760000Y35406500D02*
X238760000Y36576000D01*
D41*
X163449000Y30952000D02*
X162143000Y30952000D01*
D40*
X44010490Y33025510D02*
X45333490Y33025510D01*
D41*
X152062000Y35390000D02*
X152400000Y35052000D01*
X192659000Y23749000D02*
X190500000Y21590000D01*
X224282000Y34759500D02*
X222669500Y34759500D01*
X120269000Y30952000D02*
X121503000Y30952000D01*
X84074000Y36449000D02*
X84836000Y37211000D01*
X85852000Y35888000D02*
X85852000Y36195000D01*
D40*
X43053000Y34798000D02*
X42418000Y34163000D01*
D41*
X116459000Y24257000D02*
X116459000Y23749000D01*
X154559000Y24003000D02*
X154432000Y23876000D01*
D40*
X86578000Y29392000D02*
X85344000Y29392000D01*
D41*
X116459000Y23749000D02*
X114300000Y21590000D01*
X186182000Y34759500D02*
X186182000Y33401000D01*
X119774598Y35406500D02*
X119305750Y35875348D01*
D40*
X49651490Y33279510D02*
X47873490Y35057510D01*
D41*
X121503000Y30952000D02*
X121539000Y30988000D01*
X122773000Y30988000D02*
X122809000Y30952000D01*
D40*
X85344000Y43125080D02*
X85257752Y43038832D01*
X82804000Y45049000D02*
X81649502Y45049000D01*
D41*
X224282000Y34759500D02*
X224282000Y33401000D01*
D40*
X84038000Y54701000D02*
X85344000Y54701000D01*
D41*
X125957500Y35406500D02*
X126111000Y35560000D01*
X226695000Y35301500D02*
X228087500Y35301500D01*
X186182000Y34759500D02*
X184569500Y34759500D01*
D40*
X90424000Y29392000D02*
X89118000Y29392000D01*
D41*
X120523000Y35406500D02*
X119774598Y35406500D01*
D40*
X78994000Y40549000D02*
X78994000Y42672000D01*
X196088000Y35433000D02*
X194818000Y35433000D01*
X234188000Y35433000D02*
X234188000Y36527000D01*
D41*
X235803000Y30952000D02*
X237109000Y30952000D01*
D40*
X44010490Y31247510D02*
X45333490Y31247510D01*
D42*
X100396000Y43358000D02*
X99202000Y42164000D01*
D40*
X201903500Y35406500D02*
X201930000Y35433000D01*
D41*
X84074000Y35888000D02*
X84074000Y36449000D01*
D40*
X40110500Y45974000D02*
X38862000Y45974000D01*
D41*
X154559000Y26452000D02*
X154559000Y24003000D01*
D40*
X40110500Y45974000D02*
X40110500Y44852500D01*
D41*
X188595000Y35301500D02*
X189987500Y35301500D01*
D40*
X87884000Y18633000D02*
X87884000Y16510000D01*
X49397490Y30231510D02*
X49403000Y30226000D01*
X234188000Y35433000D02*
X232918000Y35433000D01*
D41*
X80518000Y36195000D02*
X79502000Y37211000D01*
D40*
X78994000Y24892000D02*
X78994000Y27142000D01*
X82804000Y29392000D02*
X84038000Y29392000D01*
D41*
X192659000Y24130000D02*
X192659000Y23749000D01*
X113919000Y34290000D02*
X114046000Y34163000D01*
X162687000Y35406500D02*
X163930500Y35406500D01*
D40*
X200660000Y35406500D02*
X201903500Y35406500D01*
D41*
X188595000Y35301500D02*
X188595000Y34036000D01*
X230759000Y23749000D02*
X228600000Y21590000D01*
D40*
X45333490Y33025510D02*
X45339000Y33020000D01*
X44010490Y33025510D02*
X44010490Y31247510D01*
D41*
X192659000Y26452000D02*
X192659000Y24130000D01*
D40*
X89118000Y54701000D02*
X87884000Y54701000D01*
D41*
X121539000Y30988000D02*
X122773000Y30988000D01*
D40*
X38862000Y45974000D02*
X38608000Y45720000D01*
D41*
X150622000Y35390000D02*
X152062000Y35390000D01*
X228087500Y35301500D02*
X228092000Y35306000D01*
D40*
X43666500Y34798000D02*
X43053000Y34798000D01*
D41*
X200243000Y30952000D02*
X199009000Y30952000D01*
X111506000Y35140500D02*
X113394000Y35140500D01*
X148082000Y34925000D02*
X146431000Y34925000D01*
X82042000Y36195000D02*
X82042000Y37592000D01*
D40*
X84038000Y29392000D02*
X85344000Y29392000D01*
D41*
X242189000Y30952000D02*
X240883000Y30952000D01*
D40*
X200660000Y35406500D02*
X200660000Y36576000D01*
D41*
X116459000Y26452000D02*
X116459000Y24257000D01*
D40*
X81649502Y45049000D02*
X81613502Y45085000D01*
D41*
X113394000Y35140500D02*
X113919000Y35665500D01*
X113919000Y35665500D02*
X113919000Y34290000D01*
D40*
X90424000Y18633000D02*
X90424000Y16510000D01*
X47117000Y49022000D02*
X45847000Y50292000D01*
X82804000Y54701000D02*
X84038000Y54701000D01*
D41*
X240883000Y30952000D02*
X239649000Y30952000D01*
X124043000Y30952000D02*
X125349000Y30952000D01*
X201549000Y30952000D02*
X200243000Y30952000D01*
D40*
X85344000Y18633000D02*
X85344000Y16510000D01*
X89118000Y29392000D02*
X87884000Y29392000D01*
D41*
X111506000Y35140500D02*
X111506000Y36576000D01*
D40*
X87884000Y29392000D02*
X86578000Y29392000D01*
D42*
%TO.N,+3V3*%
X90154000Y34179000D02*
X90170000Y34163000D01*
D41*
X198374000Y35052000D02*
X197030000Y33708000D01*
X82296000Y32766000D02*
X82677000Y32766000D01*
D42*
X109893500Y38265500D02*
X109093000Y37465000D01*
D40*
X47672490Y33226510D02*
X47619490Y33279510D01*
D42*
X96096000Y40089000D02*
X96012000Y40005000D01*
X78232000Y17780000D02*
X79411000Y17780000D01*
D40*
X120396000Y40735000D02*
X119221000Y40735000D01*
D41*
X193929000Y21844000D02*
X193929000Y30952000D01*
X199744500Y33681500D02*
X198374000Y35052000D01*
X160528000Y34544000D02*
X159665500Y33681500D01*
X121086480Y36393520D02*
X121793000Y35687000D01*
D42*
X80264000Y18633000D02*
X78903000Y18633000D01*
D41*
X232971000Y33708000D02*
X232918000Y33655000D01*
D40*
X31068480Y47748500D02*
X32093490Y48773510D01*
D41*
X197030000Y33708000D02*
X196088000Y33708000D01*
D40*
X226695000Y38989000D02*
X228425000Y40719000D01*
D42*
X87884000Y34179000D02*
X90154000Y34179000D01*
X186182000Y37884500D02*
X186182000Y38735000D01*
D41*
X121793000Y34290000D02*
X121285000Y33782000D01*
D40*
X197104000Y40719000D02*
X199231000Y40719000D01*
D42*
X79756000Y29936000D02*
X80264000Y29428000D01*
D40*
X199231000Y40719000D02*
X199263000Y40751000D01*
D42*
X183431489Y34246511D02*
X183431489Y37127489D01*
X80264000Y45049000D02*
X79157000Y45049000D01*
X79157000Y45049000D02*
X78486000Y45720000D01*
D40*
X84074000Y34163000D02*
X84074000Y33782000D01*
D42*
X183431489Y37127489D02*
X184188500Y37884500D01*
D41*
X200660000Y33681500D02*
X199744500Y33681500D01*
D42*
X221531489Y37127489D02*
X222288500Y37884500D01*
X226187000Y37884500D02*
X226695000Y37376500D01*
D41*
X232029000Y21844000D02*
X232029000Y30952000D01*
D40*
X83058000Y32766000D02*
X82296000Y32766000D01*
X228425000Y40719000D02*
X235204000Y40719000D01*
D42*
X155829000Y30952000D02*
X148849056Y30952000D01*
X146254000Y38050000D02*
X148082000Y38050000D01*
X84074000Y34163000D02*
X85852000Y34163000D01*
D40*
X25553490Y48773510D02*
X26578500Y47748500D01*
D42*
X111506000Y38265500D02*
X113394000Y38265500D01*
D41*
X238760000Y33681500D02*
X237844500Y33681500D01*
D42*
X96012000Y40005000D02*
X94869000Y41148000D01*
D41*
X160528000Y34544000D02*
X160528000Y36068000D01*
D42*
X78486000Y44450000D02*
X78486000Y45720000D01*
X78232000Y17780000D02*
X78232000Y19304000D01*
D41*
X118639500Y37740500D02*
X118919109Y37740500D01*
D42*
X109093000Y35148176D02*
X113289176Y30952000D01*
D40*
X188595000Y38989000D02*
X190325000Y40719000D01*
D41*
X117961500Y37740500D02*
X118639500Y37740500D01*
D40*
X122682000Y40751000D02*
X120412000Y40751000D01*
D41*
X124079000Y33655000D02*
X123325511Y32901511D01*
X121793000Y33782000D02*
X121158000Y33782000D01*
D40*
X118316500Y38063500D02*
X118639500Y37740500D01*
D42*
X79502000Y34086000D02*
X82008000Y34086000D01*
X193929000Y30952000D02*
X186726000Y30952000D01*
D41*
X236474000Y35052000D02*
X235130000Y33708000D01*
D40*
X237331000Y40719000D02*
X237363000Y40751000D01*
D42*
X148082000Y39624000D02*
X147574000Y40132000D01*
D41*
X194871000Y33708000D02*
X194818000Y33655000D01*
D42*
X78903000Y18633000D02*
X78232000Y19304000D01*
X111506000Y38265500D02*
X111506000Y38862000D01*
D40*
X120412000Y40751000D02*
X120396000Y40735000D01*
X42285490Y31247510D02*
X42031490Y31247510D01*
X118316500Y38095500D02*
X117961500Y37740500D01*
D41*
X54266490Y29723510D02*
X57017490Y29723510D01*
X120266089Y36393520D02*
X121086480Y36393520D01*
D40*
X42285490Y33025510D02*
X42042510Y33025510D01*
D42*
X148082000Y38050000D02*
X150037000Y38050000D01*
D41*
X121793000Y35687000D02*
X121793000Y34290000D01*
D42*
X145204489Y34596567D02*
X145204489Y37000489D01*
D41*
X237844500Y33681500D02*
X236474000Y35052000D01*
D40*
X119221000Y40735000D02*
X118316500Y39830500D01*
D41*
X87066700Y32812702D02*
X87066700Y32948300D01*
D42*
X184188500Y37884500D02*
X186182000Y37884500D01*
D41*
X238760000Y33681500D02*
X239622500Y33681500D01*
X163830000Y33655000D02*
X162713500Y33655000D01*
D42*
X145204489Y37000489D02*
X146254000Y38050000D01*
D41*
X160528000Y36068000D02*
X158894520Y37701480D01*
X157961500Y33655000D02*
X157988000Y33681500D01*
D42*
X82008000Y34086000D02*
X82042000Y34120000D01*
X148849056Y30952000D02*
X145204489Y34596567D01*
X224282000Y37884500D02*
X224282000Y38735000D01*
D41*
X117475000Y21590000D02*
X117729000Y21844000D01*
X125095000Y33681500D02*
X125830500Y33681500D01*
D42*
X78740000Y29936000D02*
X79756000Y29936000D01*
D41*
X120369500Y33528000D02*
X120523000Y33681500D01*
X121793000Y34290000D02*
X121793000Y33782000D01*
D42*
X111506000Y38862000D02*
X110236000Y40132000D01*
X186182000Y38735000D02*
X184785000Y40132000D01*
D41*
X200660000Y33681500D02*
X201522500Y33681500D01*
D40*
X42031490Y31247510D02*
X41148000Y32131000D01*
X47619490Y33279510D02*
X46476490Y33279510D01*
D42*
X82042000Y34120000D02*
X84031000Y34120000D01*
X148082000Y38050000D02*
X148082000Y39624000D01*
D40*
X26578500Y47748500D02*
X31068480Y47748500D01*
D41*
X123325511Y32901511D02*
X122488098Y32901511D01*
D40*
X84074000Y33782000D02*
X83058000Y32766000D01*
D43*
X161417000Y40751000D02*
X159131000Y40751000D01*
D41*
X236474000Y35687000D02*
X236474000Y35052000D01*
D40*
X235204000Y40719000D02*
X237331000Y40719000D01*
X45741500Y34014500D02*
X46355000Y33401000D01*
D41*
X155829000Y21844000D02*
X155829000Y30952000D01*
X119507000Y33528000D02*
X120369500Y33528000D01*
X122488098Y32901511D02*
X121793000Y33596609D01*
X152001480Y37701480D02*
X151765000Y37465000D01*
X188595000Y37376500D02*
X196684500Y37376500D01*
D40*
X32093490Y49821510D02*
X31369000Y50546000D01*
X42042510Y33025510D02*
X41148000Y32131000D01*
X188595000Y37376500D02*
X188595000Y38989000D01*
D42*
X78740000Y28920000D02*
X79756000Y29936000D01*
D41*
X117729000Y21844000D02*
X117729000Y30952000D01*
D42*
X113394000Y38265500D02*
X113919000Y37740500D01*
D41*
X160528000Y34544000D02*
X161390500Y33681500D01*
D40*
X32093490Y48773510D02*
X32093490Y49821510D01*
D42*
X188087000Y37884500D02*
X188595000Y37376500D01*
X113289176Y30952000D02*
X117729000Y30952000D01*
D41*
X54266490Y31687510D02*
X54266490Y29723510D01*
D42*
X85852000Y34163000D02*
X87868000Y34163000D01*
X224922056Y30952000D02*
X221531489Y34342567D01*
X80264000Y54701000D02*
X79157000Y54701000D01*
D41*
X125830500Y33681500D02*
X126619000Y32893000D01*
X151765000Y37465000D02*
X150622000Y37465000D01*
D42*
X232029000Y30952000D02*
X224922056Y30952000D01*
D40*
X118316500Y38909500D02*
X118316500Y38095500D01*
D42*
X109093000Y37465000D02*
X109093000Y35148176D01*
D40*
X45741500Y34798000D02*
X45741500Y36046500D01*
D41*
X226695000Y37376500D02*
X234784500Y37376500D01*
D42*
X224282000Y38735000D02*
X222885000Y40132000D01*
D41*
X234188000Y33708000D02*
X232971000Y33708000D01*
D42*
X79792000Y54229000D02*
X80264000Y54701000D01*
X79756000Y28920000D02*
X80264000Y29428000D01*
D41*
X84074000Y34163000D02*
X82677000Y32766000D01*
X121158000Y33782000D02*
X120623500Y33782000D01*
X118919109Y37740500D02*
X120266089Y36393520D01*
X162713500Y33655000D02*
X162687000Y33681500D01*
D42*
X186182000Y37884500D02*
X188087000Y37884500D01*
X221531489Y34342567D02*
X221531489Y37127489D01*
D40*
X47117000Y36173500D02*
X45741500Y34798000D01*
X226695000Y37376500D02*
X226695000Y38989000D01*
D41*
X193675000Y21590000D02*
X193929000Y21844000D01*
D43*
X153908000Y40751000D02*
X150622000Y37465000D01*
D42*
X78486000Y55372000D02*
X78486000Y54229000D01*
D40*
X46609000Y31242000D02*
X47666980Y31242000D01*
D41*
X120623500Y33782000D02*
X120523000Y33681500D01*
D42*
X79157000Y54701000D02*
X78486000Y55372000D01*
D41*
X125068500Y33655000D02*
X124079000Y33655000D01*
X87066700Y32948300D02*
X85852000Y34163000D01*
D42*
X222885000Y40132000D02*
X221234000Y40132000D01*
D40*
X47666980Y31242000D02*
X47672490Y31247510D01*
D41*
X159665500Y33681500D02*
X157988000Y33681500D01*
D42*
X78486000Y44450000D02*
X79665000Y44450000D01*
X111506000Y38265500D02*
X109893500Y38265500D01*
X79502000Y32893000D02*
X80264000Y32131000D01*
D40*
X118316500Y39830500D02*
X118316500Y38909500D01*
D41*
X231775000Y21590000D02*
X232029000Y21844000D01*
D42*
X222288500Y37884500D02*
X224282000Y37884500D01*
D41*
X198374000Y35687000D02*
X198374000Y35052000D01*
D40*
X45741500Y34798000D02*
X45741500Y34014500D01*
D42*
X80264000Y32131000D02*
X80264000Y29464000D01*
X79411000Y17780000D02*
X80264000Y18633000D01*
D40*
X47672490Y31247510D02*
X47672490Y33226510D01*
X46476490Y33279510D02*
X46355000Y33401000D01*
X45741500Y36046500D02*
X45593000Y36195000D01*
X47117000Y37054000D02*
X47117000Y36173500D01*
D42*
X98552000Y40089000D02*
X96096000Y40089000D01*
X224282000Y37884500D02*
X226187000Y37884500D01*
X78740000Y28920000D02*
X79756000Y28920000D01*
X79502000Y34086000D02*
X79502000Y32893000D01*
D41*
X196684500Y37376500D02*
X198374000Y35687000D01*
D42*
X79665000Y44450000D02*
X80264000Y45049000D01*
X184785000Y40132000D02*
X183134000Y40132000D01*
X150037000Y38050000D02*
X150622000Y37465000D01*
X186726000Y30952000D02*
X183431489Y34246511D01*
D41*
X156845000Y33655000D02*
X157961500Y33655000D01*
D43*
X159131000Y40751000D02*
X153908000Y40751000D01*
D41*
X113919000Y37740500D02*
X117961500Y37740500D01*
X235130000Y33708000D02*
X234188000Y33708000D01*
X53196000Y32758000D02*
X54266490Y31687510D01*
X125095000Y33681500D02*
X125068500Y33655000D01*
X196088000Y33708000D02*
X194871000Y33708000D01*
D42*
X87868000Y34163000D02*
X87884000Y34179000D01*
D40*
X190325000Y40719000D02*
X197104000Y40719000D01*
D41*
X121793000Y33596609D02*
X121793000Y33782000D01*
D42*
X147574000Y40132000D02*
X146050000Y40132000D01*
D41*
X234784500Y37376500D02*
X236474000Y35687000D01*
X158894520Y37701480D02*
X152001480Y37701480D01*
D42*
X84031000Y34120000D02*
X84074000Y34163000D01*
X78486000Y54229000D02*
X79792000Y54229000D01*
D40*
X118316500Y38095500D02*
X118316500Y38063500D01*
D41*
X201522500Y33681500D02*
X201930000Y33274000D01*
D42*
X110236000Y40132000D02*
X108966000Y40132000D01*
D41*
X155575000Y21590000D02*
X155829000Y21844000D01*
X121285000Y33782000D02*
X121158000Y33782000D01*
X161390500Y33681500D02*
X162687000Y33681500D01*
X239622500Y33681500D02*
X240030000Y33274000D01*
D40*
%TO.N,XSHUT_1*%
X48133000Y16616236D02*
X48133000Y12172501D01*
X121539000Y26452000D02*
X121539000Y28702000D01*
X121539000Y26452000D02*
X121539000Y23876000D01*
X121539000Y23876000D02*
X123825000Y21590000D01*
X84074000Y50237000D02*
X84074000Y47879000D01*
X48144327Y16627563D02*
X48133000Y16616236D01*
X120396000Y37465000D02*
X120396000Y38735000D01*
%TO.N,GPIOI_1*%
X118999000Y26452000D02*
X118999000Y23241000D01*
X117348000Y36576000D02*
X117348000Y34544000D01*
X68518037Y55688681D02*
X76327718Y47879000D01*
X122047000Y37719000D02*
X122428000Y37719000D01*
X76327718Y47879000D02*
X81534000Y47879000D01*
X81534000Y47879000D02*
X81534000Y50237000D01*
X118872000Y26579000D02*
X118999000Y26452000D01*
X43752319Y55688681D02*
X68518037Y55688681D01*
X117348000Y34544000D02*
X118872000Y33020000D01*
X122682000Y37973000D02*
X122682000Y38751000D01*
X118872000Y33020000D02*
X118872000Y28702000D01*
X43434000Y56007000D02*
X43752319Y55688681D01*
X118872000Y28702000D02*
X118872000Y26579000D01*
X122428000Y37719000D02*
X122682000Y37973000D01*
X121793000Y37465000D02*
X122047000Y37719000D01*
X118999000Y23241000D02*
X120650000Y21590000D01*
%TO.N,XSHUT_2*%
X84074000Y40585000D02*
X84074000Y42799000D01*
X73539344Y16901040D02*
X75817152Y19178848D01*
X83439000Y38354000D02*
X84074000Y38989000D01*
X75817152Y19178848D02*
X75817152Y36201766D01*
X159131000Y38751000D02*
X157623000Y38751000D01*
X55943142Y11874859D02*
X60969324Y16901040D01*
X77969386Y38354000D02*
X83439000Y38354000D01*
X159639000Y28702000D02*
X159639000Y26452000D01*
X75817152Y36201766D02*
X77969386Y38354000D01*
X84074000Y38989000D02*
X84074000Y40585000D01*
X48891141Y17291848D02*
X48891141Y12830859D01*
X159639000Y23876000D02*
X161925000Y21590000D01*
X159639000Y26452000D02*
X159639000Y23876000D01*
X157623000Y38751000D02*
X157607000Y38735000D01*
X48891141Y12830859D02*
X48895000Y12827000D01*
X60969324Y16901040D02*
X73539344Y16901040D01*
X52070000Y9906000D02*
X54038859Y11874859D01*
X54038859Y11874859D02*
X55943142Y11874859D01*
%TO.N,GPIOI_2*%
X157099000Y23241000D02*
X158750000Y21590000D01*
X75596000Y47358000D02*
X75596000Y47975000D01*
X161417000Y38751000D02*
X161417000Y37338000D01*
X81534000Y40585000D02*
X81534000Y42799000D01*
X75596000Y47975000D02*
X68331839Y55239161D01*
X157099000Y26452000D02*
X157099000Y23241000D01*
X157099000Y28702000D02*
X157099000Y26452000D01*
%TO.N,XSHUT_0*%
X74918112Y19551244D02*
X74918112Y27824888D01*
X60647576Y17850727D02*
X73217595Y17850727D01*
X50926641Y11938359D02*
X50926641Y11939793D01*
X47376435Y17267366D02*
X47376435Y12832435D01*
X51814924Y12828076D02*
X55624924Y12828076D01*
X44450000Y9906000D02*
X46990000Y9906000D01*
X55624924Y12828076D02*
X60647576Y17850727D01*
X47376435Y12832435D02*
X47371000Y12827000D01*
X48323500Y11239500D02*
X50227782Y11239500D01*
X73217595Y17850727D02*
X74918112Y19551244D01*
X46990000Y9906000D02*
X48323500Y11239500D01*
X50227782Y11239500D02*
X50926641Y11938359D01*
X50926641Y11939793D02*
X51814924Y12828076D01*
X87884000Y37719000D02*
X87884000Y36179000D01*
%TO.N,GPIOI_0*%
X58191990Y32750020D02*
X59446010Y31496000D01*
X90170000Y37719000D02*
X90170000Y36163000D01*
X49488212Y39919804D02*
X49488212Y38565788D01*
X58191990Y35405575D02*
X58191990Y32750020D01*
X51896000Y36158000D02*
X57439565Y36158000D01*
X49488212Y38565788D02*
X51896000Y36158000D01*
X57439565Y36158000D02*
X58191990Y35405575D01*
%TO.N,LED_4*%
X56130490Y42423510D02*
X53719988Y44834012D01*
X58795490Y42423510D02*
X56130490Y42423510D01*
X53719988Y44834012D02*
X50679291Y44834012D01*
%TO.N,LED_1*%
X49936521Y41872433D02*
X49936521Y40802409D01*
X49936521Y40802409D02*
X53631410Y37107520D01*
%TO.N,SW_1*%
X65227200Y19761200D02*
X63627996Y19761200D01*
X65578103Y14694511D02*
X66277503Y13995111D01*
X68196000Y45058000D02*
X68296000Y45058000D01*
X62992000Y28448000D02*
X65735200Y31191200D01*
X65735200Y31191200D02*
X65735200Y42597200D01*
X63627996Y19761200D02*
X62992000Y20397196D01*
X66277503Y13995111D02*
X66277503Y13970000D01*
X66344800Y18643600D02*
X65227200Y19761200D01*
X59690000Y9906000D02*
X64478511Y14694511D01*
X62992000Y20397196D02*
X62992000Y28448000D01*
X64478511Y14694511D02*
X65578103Y14694511D01*
X65735200Y42597200D02*
X68196000Y45058000D01*
%TO.N,SW_2*%
X53196000Y45658000D02*
X53570468Y45283532D01*
X53570468Y45283532D02*
X53906186Y45283532D01*
X62484000Y28702000D02*
X65278000Y31496000D01*
X58785614Y43458000D02*
X65278000Y36965614D01*
X65278000Y18643600D02*
X63398400Y18643600D01*
X55731718Y43458000D02*
X58785614Y43458000D01*
X65278000Y12954000D02*
X65278000Y13970000D01*
X62230000Y9906000D02*
X65278000Y12954000D01*
X53906186Y45283532D02*
X55731718Y43458000D01*
X62484000Y19558000D02*
X62484000Y28702000D01*
X65278000Y36965614D02*
X65278000Y31496000D01*
X63398400Y18643600D02*
X62484000Y19558000D01*
D42*
%TO.N,+5V*%
X19696000Y36658000D02*
X19696000Y37858000D01*
X19696000Y35458000D02*
X19696000Y36658000D01*
X25171511Y8356489D02*
X19696000Y13832000D01*
X35280489Y8356489D02*
X25171511Y8356489D01*
X36830000Y9906000D02*
X35280489Y8356489D01*
X19696000Y13832000D02*
X19696000Y35458000D01*
D40*
%TO.N,/STM32L151RET6TR/RST*%
X37764356Y31950030D02*
X32204030Y31950030D01*
X29127510Y28873510D02*
X26625490Y28873510D01*
X43809490Y26929510D02*
X42784876Y26929510D01*
X26625490Y28873510D02*
X25775490Y29723510D01*
X32204030Y31950030D02*
X29127510Y28873510D01*
X42784876Y26929510D02*
X37764356Y31950030D01*
%TO.N,SCL1*%
X241300000Y21590000D02*
X240741200Y21590000D01*
X28315490Y32263510D02*
X28315490Y32654520D01*
X86614000Y50201000D02*
X86614000Y40549000D01*
X86957511Y27485511D02*
X91239511Y27485511D01*
X21971000Y38613510D02*
X21971000Y49784000D01*
X200279000Y26452000D02*
X200279000Y28702000D01*
X21209000Y54483000D02*
X17526000Y58166000D01*
D43*
X162179000Y28702000D02*
X162179000Y26452000D01*
D40*
X124079000Y28702000D02*
X124079000Y26452000D01*
X23241000Y37343510D02*
X21971000Y38613510D01*
X90588489Y38443511D02*
X91567000Y37465000D01*
X86614000Y40189978D02*
X88360467Y38443511D01*
X23241000Y35687000D02*
X23241000Y37343510D01*
X238379000Y28702000D02*
X238379000Y26325000D01*
X91239511Y27485511D02*
X91567000Y27813000D01*
X124079000Y26452000D02*
X124079000Y24511000D01*
X26172010Y34798000D02*
X24130000Y34798000D01*
X88360467Y38443511D02*
X90588489Y38443511D01*
X238379000Y23952200D02*
X238379000Y26325000D01*
X86614000Y27142000D02*
X86614000Y24892000D01*
X124079000Y24511000D02*
X127000000Y21590000D01*
X21209000Y50546000D02*
X21209000Y54483000D01*
X21971000Y49784000D02*
X21209000Y50546000D01*
X91567000Y37465000D02*
X91567000Y36068000D01*
X162179000Y24511000D02*
X162179000Y26452000D01*
X86614000Y10414000D02*
X86614000Y14133000D01*
X24130000Y34798000D02*
X23241000Y35687000D01*
X200279000Y26452000D02*
X200279000Y24511000D01*
X165100000Y21590000D02*
X162179000Y24511000D01*
X91567000Y27813000D02*
X91567000Y36068000D01*
X86614000Y27142000D02*
X86957511Y27485511D01*
X240741200Y21590000D02*
X238379000Y23952200D01*
X86614000Y14133000D02*
X86614000Y24928000D01*
X28315490Y32654520D02*
X26172010Y34798000D01*
X86614000Y40549000D02*
X86614000Y40189978D01*
X200279000Y24511000D02*
X203200000Y21590000D01*
%TO.N,SDA1*%
X243789200Y21590000D02*
X244475000Y21590000D01*
X205613000Y21590000D02*
X206375000Y21590000D01*
X24415511Y48101489D02*
X24415511Y38708999D01*
X28320143Y31242857D02*
X29040001Y31962715D01*
X240919000Y24460200D02*
X243789200Y21590000D01*
X202819000Y24384000D02*
X205613000Y21590000D01*
X25781000Y36068000D02*
X25781000Y37343510D01*
X23749000Y48768000D02*
X24415511Y48101489D01*
X126619000Y26452000D02*
X126619000Y28702000D01*
X91150717Y26761000D02*
X90424000Y26761000D01*
X23749000Y54483000D02*
X23749000Y48768000D01*
X89154000Y50201000D02*
X89154000Y40549000D01*
X240919000Y26325000D02*
X240919000Y24460200D01*
X92202359Y37500641D02*
X92202359Y27812641D01*
X92202359Y27812641D02*
X91150717Y26761000D01*
X129413000Y21590000D02*
X130175000Y21590000D01*
X202819000Y26452000D02*
X202819000Y28829000D01*
X89154000Y40549000D02*
X92202359Y37500641D01*
X202819000Y26452000D02*
X202819000Y24384000D01*
X29040001Y32808999D02*
X25781000Y36068000D01*
X89154000Y24892000D02*
X89952000Y24892000D01*
X20066000Y58166000D02*
X23749000Y54483000D01*
X240919000Y28702000D02*
X240919000Y26325000D01*
X167640000Y21590000D02*
X168275000Y21590000D01*
X90424000Y25364000D02*
X90424000Y26761000D01*
X89154000Y11811000D02*
X89154000Y14133000D01*
X164719000Y28829000D02*
X164719000Y26452000D01*
X126619000Y24384000D02*
X129413000Y21590000D01*
X29040001Y31962715D02*
X29040001Y32808999D01*
X126619000Y26452000D02*
X126619000Y24384000D01*
X89952000Y24892000D02*
X90424000Y25364000D01*
X164719000Y26452000D02*
X164719000Y24511000D01*
X24415511Y38708999D02*
X25781000Y37343510D01*
X164719000Y24511000D02*
X167640000Y21590000D01*
X89154000Y24928000D02*
X89154000Y14133000D01*
%TO.N,/STM32L151RET6TR/FTDI_RXD*%
X27051000Y38608000D02*
X27051000Y43693510D01*
X27051000Y43693510D02*
X25781000Y44963510D01*
%TO.N,/STM32L151RET6TR/FTDI_TXD*%
X29584299Y43700211D02*
X28321000Y44963510D01*
X29584299Y38614613D02*
X29584299Y43700211D01*
%TO.N,/STM32L151RET6TR/FTDI_CTS*%
X33401000Y44963510D02*
X34671000Y43693510D01*
%TO.N,SCL2*%
X27553490Y52329510D02*
X27553490Y53461490D01*
X42185500Y45974000D02*
X43434000Y45974000D01*
X27553490Y53461490D02*
X28702000Y54610000D01*
X44323000Y38354000D02*
X42672000Y38354000D01*
X27553490Y48773510D02*
X27553490Y50551510D01*
X42672000Y38354000D02*
X42164000Y38862000D01*
X28702000Y54610000D02*
X30353000Y54610000D01*
X43434000Y45974000D02*
X43561000Y45847000D01*
X42164000Y45952500D02*
X42185500Y45974000D01*
X42164000Y38862000D02*
X42164000Y41402000D01*
X42164000Y43402000D02*
X42164000Y45952500D01*
X27553490Y50551510D02*
X27553490Y52329510D01*
%TO.N,SDA2*%
X46101000Y45720000D02*
X45719673Y45338673D01*
X30093490Y52329510D02*
X30612510Y52329510D01*
X47117000Y39654000D02*
X47117000Y41815000D01*
X30612510Y52329510D02*
X32893000Y54610000D01*
X30093490Y48773510D02*
X30093490Y50551510D01*
X47117000Y43815000D02*
X47117000Y45720000D01*
X30093490Y50551510D02*
X30093490Y52329510D01*
X45719673Y45338673D02*
X45719673Y39358272D01*
X47117000Y45720000D02*
X46101000Y45720000D01*
%TO.N,/STM32L151RET6TR/PIN41*%
X44323000Y42572990D02*
X43588990Y43307000D01*
X44323000Y39654000D02*
X44323000Y42572990D01*
%TO.N,/STM32L151RET6TR/PIN29*%
X45593000Y37211000D02*
X44480000Y37211000D01*
X44480000Y37211000D02*
X44323000Y37054000D01*
%TO.N,/STM32L151RET6TR/PIN30*%
X48260000Y38354000D02*
X47117000Y38354000D01*
%TO.N,/STM32L151RET6TR/PC8*%
X32633490Y50551510D02*
X32633490Y52329510D01*
%TO.N,/STM32L151RET6TR/PA9*%
X25013490Y50551510D02*
X25013490Y52329510D01*
%TO.N,/STM32L151RET6TR/PA10*%
X22473490Y50805510D02*
X22473490Y52329510D01*
%TO.N,BUCK_5_EN*%
X39877992Y30860992D02*
X32131000Y38607984D01*
X32131000Y43815000D02*
X32131000Y38607984D01*
X12548210Y52048070D02*
X18386130Y52048070D01*
X18386130Y52048070D02*
X18386130Y51933170D01*
X18386130Y51933170D02*
X21246500Y49072800D01*
%TO.N,XSHUT_3*%
X195469000Y38719000D02*
X195453000Y38735000D01*
X197739000Y28702000D02*
X197739000Y26452000D01*
X54610000Y9906000D02*
X61155521Y16451520D01*
X84074000Y22570000D02*
X84074000Y24892000D01*
X49657000Y12317905D02*
X49716803Y12258102D01*
X197104000Y38719000D02*
X195469000Y38719000D01*
X83349489Y21845489D02*
X84074000Y22570000D01*
X49657000Y16637000D02*
X49657000Y12317905D01*
X73725542Y16451520D02*
X79119511Y21845489D01*
X79119511Y21845489D02*
X83349489Y21845489D01*
X197739000Y26452000D02*
X197739000Y23876000D01*
X197739000Y23876000D02*
X200025000Y21590000D01*
X61155521Y16451520D02*
X73725542Y16451520D01*
%TO.N,GPIOI_3*%
X199491600Y37338000D02*
X199491600Y38522400D01*
X195199000Y26452000D02*
X195199000Y23241000D01*
X43755413Y54789641D02*
X68145641Y54789641D01*
X70596000Y30496000D02*
X71691500Y29400500D01*
X199491600Y38522400D02*
X199263000Y38751000D01*
X81534000Y22570000D02*
X81534000Y24892000D01*
X70596000Y52053282D02*
X70596000Y30496000D01*
X195199000Y23241000D02*
X196850000Y21590000D01*
X195199000Y28231500D02*
X195199000Y26452000D01*
X70596000Y52339282D02*
X70596000Y51958000D01*
X43455776Y54490004D02*
X43755413Y54789641D01*
X68145641Y54789641D02*
X70596000Y52339282D01*
%TO.N,XSHUT_4*%
X50673000Y17263402D02*
X50673000Y12827000D01*
X235839000Y28448000D02*
X235839000Y26325000D01*
X233458000Y38767000D02*
X233426000Y38735000D01*
X57150000Y11810282D02*
X61341718Y16002000D01*
X83566000Y11430000D02*
X84074000Y11938000D01*
X84074000Y11938000D02*
X84074000Y14133000D01*
X61341718Y16002000D02*
X73152000Y16002000D01*
X235204000Y38767000D02*
X233458000Y38767000D01*
X50677299Y17267701D02*
X50673000Y17263402D01*
X84074000Y14133000D02*
X84074000Y16383000D01*
X57150000Y9906000D02*
X57150000Y11810282D01*
X73152000Y16002000D02*
X77724000Y11430000D01*
X77724000Y11430000D02*
X83566000Y11430000D01*
X235839000Y26325000D02*
X235839000Y23876000D01*
X235839000Y23876000D02*
X238125000Y21590000D01*
%TO.N,GPIOI_4*%
X233299000Y26325000D02*
X233299000Y28575000D01*
X237591600Y38522400D02*
X237363000Y38751000D01*
X81534000Y14133000D02*
X81534000Y16383000D01*
X237591600Y37185600D02*
X237591600Y38522400D01*
X233299000Y26325000D02*
X233299000Y23241000D01*
X233299000Y23241000D02*
X234950000Y21590000D01*
%TO.N,LED_0*%
X57575282Y36658000D02*
X53445212Y36658000D01*
X53445212Y36658000D02*
X49487001Y40616211D01*
X49487001Y40616211D02*
X49487001Y41166999D01*
X58916501Y35316781D02*
X57575282Y36658000D01*
X58916501Y33279510D02*
X58916501Y35316781D01*
%TD*%
%TA.AperFunction,Conductor*%
%TO.N,GND*%
G36*
X215860949Y43921998D02*
G01*
X215907442Y43868342D01*
X215918438Y43825895D01*
X215924025Y43754916D01*
X215978043Y43529928D01*
X216066591Y43316161D01*
X216187489Y43118878D01*
X216337760Y42942936D01*
X216513705Y42792667D01*
X216710990Y42671772D01*
X216924758Y42583227D01*
X217001452Y42564815D01*
X217144933Y42530368D01*
X217144939Y42530367D01*
X217149746Y42529213D01*
X217380414Y42511059D01*
X217611082Y42529213D01*
X217615889Y42530367D01*
X217615895Y42530368D01*
X217759376Y42564815D01*
X217836070Y42583227D01*
X218049838Y42671772D01*
X218247123Y42792667D01*
X218423068Y42942936D01*
X218573339Y43118878D01*
X218694237Y43316161D01*
X218782785Y43529928D01*
X218836803Y43754916D01*
X218842390Y43825892D01*
X218867674Y43892228D01*
X218924812Y43934367D01*
X218968000Y43942000D01*
X220416000Y43942000D01*
X220484121Y43921998D01*
X220530614Y43868342D01*
X220542000Y43816000D01*
X220542000Y40268196D01*
X220538204Y40237500D01*
X220533919Y40220441D01*
X220533031Y40050895D01*
X220534802Y40043516D01*
X220534803Y40043512D01*
X220538519Y40028035D01*
X220542000Y39998621D01*
X220542000Y25868000D01*
X220521998Y25799879D01*
X220468342Y25753386D01*
X220416000Y25742000D01*
X218448274Y25742000D01*
X218380153Y25762002D01*
X218360863Y25777548D01*
X218359568Y25779064D01*
X218183623Y25929333D01*
X217986338Y26050228D01*
X217772570Y26138773D01*
X217695876Y26157185D01*
X217552395Y26191632D01*
X217552389Y26191633D01*
X217547582Y26192787D01*
X217316914Y26210941D01*
X217086246Y26192787D01*
X217081439Y26191633D01*
X217081433Y26191632D01*
X216937952Y26157185D01*
X216861258Y26138773D01*
X216647490Y26050228D01*
X216450205Y25929333D01*
X216274260Y25779064D01*
X216273666Y25778368D01*
X216212337Y25744879D01*
X216185554Y25742000D01*
X214067489Y25742000D01*
X213999368Y25762002D01*
X213952875Y25815658D01*
X213941490Y25867488D01*
X213934262Y27645138D01*
X216669497Y27645138D01*
X216670737Y27637922D01*
X216670737Y27637920D01*
X216697894Y27479875D01*
X216699134Y27472660D01*
X216767654Y27311627D01*
X216871383Y27170676D01*
X216876961Y27165937D01*
X216876964Y27165934D01*
X216999176Y27062107D01*
X216999180Y27062104D01*
X217004755Y27057368D01*
X217085572Y27016101D01*
X217101687Y27007872D01*
X217160616Y26977781D01*
X217167721Y26976042D01*
X217167725Y26976041D01*
X217248858Y26956189D01*
X217330606Y26936185D01*
X217336206Y26935838D01*
X217336210Y26935837D01*
X217339709Y26935620D01*
X217339718Y26935620D01*
X217341648Y26935500D01*
X217467822Y26935500D01*
X217559369Y26946173D01*
X217590556Y26949809D01*
X217590558Y26949809D01*
X217597828Y26950657D01*
X217604705Y26953153D01*
X217604708Y26953154D01*
X217755452Y27007872D01*
X217762331Y27010369D01*
X217908685Y27106323D01*
X218029040Y27233372D01*
X218116939Y27384702D01*
X218167667Y27552193D01*
X218178503Y27726862D01*
X218163788Y27812502D01*
X218150106Y27892125D01*
X218150105Y27892127D01*
X218148866Y27899340D01*
X218080346Y28060373D01*
X217976617Y28201324D01*
X217971039Y28206063D01*
X217971036Y28206066D01*
X217848824Y28309893D01*
X217848820Y28309896D01*
X217843245Y28314632D01*
X217759062Y28357618D01*
X217693900Y28390892D01*
X217693898Y28390893D01*
X217687384Y28394219D01*
X217680279Y28395958D01*
X217680275Y28395959D01*
X217586741Y28418846D01*
X217517394Y28435815D01*
X217511794Y28436162D01*
X217511790Y28436163D01*
X217508291Y28436380D01*
X217508282Y28436380D01*
X217506352Y28436500D01*
X217380178Y28436500D01*
X217288631Y28425827D01*
X217257444Y28422191D01*
X217257442Y28422191D01*
X217250172Y28421343D01*
X217243295Y28418847D01*
X217243292Y28418846D01*
X217166281Y28390892D01*
X217085669Y28361631D01*
X216939315Y28265677D01*
X216818960Y28138628D01*
X216731061Y27987298D01*
X216680333Y27819807D01*
X216669497Y27645138D01*
X213934262Y27645138D01*
X213926000Y29677138D01*
X216669497Y29677138D01*
X216670737Y29669922D01*
X216670737Y29669920D01*
X216697894Y29511875D01*
X216699134Y29504660D01*
X216767654Y29343627D01*
X216871383Y29202676D01*
X216876961Y29197937D01*
X216876964Y29197934D01*
X216999176Y29094107D01*
X216999180Y29094104D01*
X217004755Y29089368D01*
X217085572Y29048101D01*
X217101687Y29039872D01*
X217160616Y29009781D01*
X217167721Y29008042D01*
X217167725Y29008041D01*
X217248858Y28988189D01*
X217330606Y28968185D01*
X217336206Y28967838D01*
X217336210Y28967837D01*
X217339709Y28967620D01*
X217339718Y28967620D01*
X217341648Y28967500D01*
X217467822Y28967500D01*
X217559369Y28978173D01*
X217590556Y28981809D01*
X217590558Y28981809D01*
X217597828Y28982657D01*
X217604705Y28985153D01*
X217604708Y28985154D01*
X217755452Y29039872D01*
X217762331Y29042369D01*
X217908685Y29138323D01*
X218029040Y29265372D01*
X218116939Y29416702D01*
X218167667Y29584193D01*
X218178503Y29758862D01*
X218163788Y29844502D01*
X218150106Y29924125D01*
X218150105Y29924127D01*
X218148866Y29931340D01*
X218080346Y30092373D01*
X217976617Y30233324D01*
X217971039Y30238063D01*
X217971036Y30238066D01*
X217848824Y30341893D01*
X217848820Y30341896D01*
X217843245Y30346632D01*
X217759062Y30389618D01*
X217693900Y30422892D01*
X217693898Y30422893D01*
X217687384Y30426219D01*
X217680279Y30427958D01*
X217680275Y30427959D01*
X217586741Y30450846D01*
X217517394Y30467815D01*
X217511794Y30468162D01*
X217511790Y30468163D01*
X217508291Y30468380D01*
X217508282Y30468380D01*
X217506352Y30468500D01*
X217380178Y30468500D01*
X217288631Y30457827D01*
X217257444Y30454191D01*
X217257442Y30454191D01*
X217250172Y30453343D01*
X217243295Y30450847D01*
X217243292Y30450846D01*
X217166281Y30422892D01*
X217085669Y30393631D01*
X216939315Y30297677D01*
X216818960Y30170628D01*
X216731061Y30019298D01*
X216680333Y29851807D01*
X216669497Y29677138D01*
X213926000Y29677138D01*
X213917738Y31709138D01*
X216669497Y31709138D01*
X216670737Y31701922D01*
X216670737Y31701920D01*
X216697894Y31543875D01*
X216699134Y31536660D01*
X216767654Y31375627D01*
X216871383Y31234676D01*
X216876961Y31229937D01*
X216876964Y31229934D01*
X216999176Y31126107D01*
X216999180Y31126104D01*
X217004755Y31121368D01*
X217085572Y31080101D01*
X217101687Y31071872D01*
X217160616Y31041781D01*
X217167721Y31040042D01*
X217167725Y31040041D01*
X217248858Y31020189D01*
X217330606Y31000185D01*
X217336206Y30999838D01*
X217336210Y30999837D01*
X217339709Y30999620D01*
X217339718Y30999620D01*
X217341648Y30999500D01*
X217467822Y30999500D01*
X217559369Y31010173D01*
X217590556Y31013809D01*
X217590558Y31013809D01*
X217597828Y31014657D01*
X217604705Y31017153D01*
X217604708Y31017154D01*
X217755452Y31071872D01*
X217762331Y31074369D01*
X217908685Y31170323D01*
X218029040Y31297372D01*
X218116939Y31448702D01*
X218167667Y31616193D01*
X218178503Y31790862D01*
X218163788Y31876502D01*
X218150106Y31956125D01*
X218150105Y31956127D01*
X218148866Y31963340D01*
X218080346Y32124373D01*
X217976617Y32265324D01*
X217971039Y32270063D01*
X217971036Y32270066D01*
X217848824Y32373893D01*
X217848820Y32373896D01*
X217843245Y32378632D01*
X217759062Y32421618D01*
X217693900Y32454892D01*
X217693898Y32454893D01*
X217687384Y32458219D01*
X217680279Y32459958D01*
X217680275Y32459959D01*
X217586741Y32482846D01*
X217517394Y32499815D01*
X217511794Y32500162D01*
X217511790Y32500163D01*
X217508291Y32500380D01*
X217508282Y32500380D01*
X217506352Y32500500D01*
X217380178Y32500500D01*
X217288631Y32489827D01*
X217257444Y32486191D01*
X217257442Y32486191D01*
X217250172Y32485343D01*
X217243295Y32482847D01*
X217243292Y32482846D01*
X217166281Y32454892D01*
X217085669Y32425631D01*
X216939315Y32329677D01*
X216818960Y32202628D01*
X216731061Y32051298D01*
X216680333Y31883807D01*
X216669497Y31709138D01*
X213917738Y31709138D01*
X213910295Y33539620D01*
X213907410Y34249138D01*
X216669497Y34249138D01*
X216670737Y34241922D01*
X216670737Y34241920D01*
X216697894Y34083875D01*
X216699134Y34076660D01*
X216767654Y33915627D01*
X216871383Y33774676D01*
X216876961Y33769937D01*
X216876964Y33769934D01*
X216999176Y33666107D01*
X216999180Y33666104D01*
X217004755Y33661368D01*
X217085572Y33620101D01*
X217101687Y33611872D01*
X217160616Y33581781D01*
X217167721Y33580042D01*
X217167725Y33580041D01*
X217248858Y33560189D01*
X217330606Y33540185D01*
X217336206Y33539838D01*
X217336210Y33539837D01*
X217339709Y33539620D01*
X217339718Y33539620D01*
X217341648Y33539500D01*
X217467822Y33539500D01*
X217559369Y33550173D01*
X217590556Y33553809D01*
X217590558Y33553809D01*
X217597828Y33554657D01*
X217604705Y33557153D01*
X217604708Y33557154D01*
X217755452Y33611872D01*
X217762331Y33614369D01*
X217908685Y33710323D01*
X218029040Y33837372D01*
X218116939Y33988702D01*
X218167667Y34156193D01*
X218178503Y34330862D01*
X218163788Y34416502D01*
X218150106Y34496125D01*
X218150105Y34496127D01*
X218148866Y34503340D01*
X218080346Y34664373D01*
X217976617Y34805324D01*
X217971039Y34810063D01*
X217971036Y34810066D01*
X217848824Y34913893D01*
X217848820Y34913896D01*
X217843245Y34918632D01*
X217759062Y34961618D01*
X217693900Y34994892D01*
X217693898Y34994893D01*
X217687384Y34998219D01*
X217680279Y34999958D01*
X217680275Y34999959D01*
X217586741Y35022846D01*
X217517394Y35039815D01*
X217511794Y35040162D01*
X217511790Y35040163D01*
X217508291Y35040380D01*
X217508282Y35040380D01*
X217506352Y35040500D01*
X217380178Y35040500D01*
X217288631Y35029827D01*
X217257444Y35026191D01*
X217257442Y35026191D01*
X217250172Y35025343D01*
X217243295Y35022847D01*
X217243292Y35022846D01*
X217166281Y34994892D01*
X217085669Y34965631D01*
X216939315Y34869677D01*
X216818960Y34742628D01*
X216731061Y34591298D01*
X216680333Y34423807D01*
X216669497Y34249138D01*
X213907410Y34249138D01*
X213896050Y37043138D01*
X216669497Y37043138D01*
X216670737Y37035922D01*
X216670737Y37035920D01*
X216697894Y36877875D01*
X216699134Y36870660D01*
X216767654Y36709627D01*
X216871383Y36568676D01*
X216876961Y36563937D01*
X216876964Y36563934D01*
X216999176Y36460107D01*
X216999180Y36460104D01*
X217004755Y36455368D01*
X217085572Y36414101D01*
X217101687Y36405872D01*
X217160616Y36375781D01*
X217167721Y36374042D01*
X217167725Y36374041D01*
X217248858Y36354189D01*
X217330606Y36334185D01*
X217336206Y36333838D01*
X217336210Y36333837D01*
X217339709Y36333620D01*
X217339718Y36333620D01*
X217341648Y36333500D01*
X217467822Y36333500D01*
X217559369Y36344173D01*
X217590556Y36347809D01*
X217590558Y36347809D01*
X217597828Y36348657D01*
X217604705Y36351153D01*
X217604708Y36351154D01*
X217755452Y36405872D01*
X217762331Y36408369D01*
X217908685Y36504323D01*
X218029040Y36631372D01*
X218116939Y36782702D01*
X218167667Y36950193D01*
X218178503Y37124862D01*
X218163788Y37210502D01*
X218150106Y37290125D01*
X218150105Y37290127D01*
X218148866Y37297340D01*
X218080346Y37458373D01*
X217976617Y37599324D01*
X217971039Y37604063D01*
X217971036Y37604066D01*
X217848824Y37707893D01*
X217848820Y37707896D01*
X217843245Y37712632D01*
X217759062Y37755618D01*
X217693900Y37788892D01*
X217693898Y37788893D01*
X217687384Y37792219D01*
X217680279Y37793958D01*
X217680275Y37793959D01*
X217586741Y37816846D01*
X217517394Y37833815D01*
X217511794Y37834162D01*
X217511790Y37834163D01*
X217508291Y37834380D01*
X217508282Y37834380D01*
X217506352Y37834500D01*
X217380178Y37834500D01*
X217288631Y37823827D01*
X217257444Y37820191D01*
X217257442Y37820191D01*
X217250172Y37819343D01*
X217243295Y37816847D01*
X217243292Y37816846D01*
X217166281Y37788892D01*
X217085669Y37759631D01*
X216939315Y37663677D01*
X216818960Y37536628D01*
X216731061Y37385298D01*
X216680333Y37217807D01*
X216669497Y37043138D01*
X213896050Y37043138D01*
X213887788Y39075138D01*
X216669497Y39075138D01*
X216670737Y39067922D01*
X216670737Y39067920D01*
X216697894Y38909875D01*
X216699134Y38902660D01*
X216767654Y38741627D01*
X216871383Y38600676D01*
X216876961Y38595937D01*
X216876964Y38595934D01*
X216999176Y38492107D01*
X216999180Y38492104D01*
X217004755Y38487368D01*
X217085572Y38446101D01*
X217101687Y38437872D01*
X217160616Y38407781D01*
X217167721Y38406042D01*
X217167725Y38406041D01*
X217248858Y38386189D01*
X217330606Y38366185D01*
X217336206Y38365838D01*
X217336210Y38365837D01*
X217339709Y38365620D01*
X217339718Y38365620D01*
X217341648Y38365500D01*
X217467822Y38365500D01*
X217559369Y38376173D01*
X217590556Y38379809D01*
X217590558Y38379809D01*
X217597828Y38380657D01*
X217604705Y38383153D01*
X217604708Y38383154D01*
X217755452Y38437872D01*
X217762331Y38440369D01*
X217908685Y38536323D01*
X218029040Y38663372D01*
X218116939Y38814702D01*
X218167667Y38982193D01*
X218178503Y39156862D01*
X218163788Y39242502D01*
X218150106Y39322125D01*
X218150105Y39322127D01*
X218148866Y39329340D01*
X218080346Y39490373D01*
X217976617Y39631324D01*
X217971039Y39636063D01*
X217971036Y39636066D01*
X217848824Y39739893D01*
X217848820Y39739896D01*
X217843245Y39744632D01*
X217759062Y39787618D01*
X217693900Y39820892D01*
X217693898Y39820893D01*
X217687384Y39824219D01*
X217680279Y39825958D01*
X217680275Y39825959D01*
X217586741Y39848846D01*
X217517394Y39865815D01*
X217511794Y39866162D01*
X217511790Y39866163D01*
X217508291Y39866380D01*
X217508282Y39866380D01*
X217506352Y39866500D01*
X217380178Y39866500D01*
X217288631Y39855827D01*
X217257444Y39852191D01*
X217257442Y39852191D01*
X217250172Y39851343D01*
X217243295Y39848847D01*
X217243292Y39848846D01*
X217166281Y39820892D01*
X217085669Y39791631D01*
X216939315Y39695677D01*
X216818960Y39568628D01*
X216731061Y39417298D01*
X216680333Y39249807D01*
X216669497Y39075138D01*
X213887788Y39075138D01*
X213879526Y41107138D01*
X216669497Y41107138D01*
X216670737Y41099922D01*
X216670737Y41099920D01*
X216697894Y40941875D01*
X216699134Y40934660D01*
X216767654Y40773627D01*
X216871383Y40632676D01*
X216876961Y40627937D01*
X216876964Y40627934D01*
X216999176Y40524107D01*
X216999180Y40524104D01*
X217004755Y40519368D01*
X217085572Y40478101D01*
X217101687Y40469872D01*
X217160616Y40439781D01*
X217167721Y40438042D01*
X217167725Y40438041D01*
X217248858Y40418189D01*
X217330606Y40398185D01*
X217336206Y40397838D01*
X217336210Y40397837D01*
X217339709Y40397620D01*
X217339718Y40397620D01*
X217341648Y40397500D01*
X217467822Y40397500D01*
X217559369Y40408173D01*
X217590556Y40411809D01*
X217590558Y40411809D01*
X217597828Y40412657D01*
X217604705Y40415153D01*
X217604708Y40415154D01*
X217755452Y40469872D01*
X217762331Y40472369D01*
X217908685Y40568323D01*
X218029040Y40695372D01*
X218116939Y40846702D01*
X218167667Y41014193D01*
X218178503Y41188862D01*
X218163788Y41274502D01*
X218150106Y41354125D01*
X218150105Y41354127D01*
X218148866Y41361340D01*
X218080346Y41522373D01*
X217976617Y41663324D01*
X217971039Y41668063D01*
X217971036Y41668066D01*
X217848824Y41771893D01*
X217848820Y41771896D01*
X217843245Y41776632D01*
X217759062Y41819618D01*
X217693900Y41852892D01*
X217693898Y41852893D01*
X217687384Y41856219D01*
X217680279Y41857958D01*
X217680275Y41857959D01*
X217586741Y41880846D01*
X217517394Y41897815D01*
X217511794Y41898162D01*
X217511790Y41898163D01*
X217508291Y41898380D01*
X217508282Y41898380D01*
X217506352Y41898500D01*
X217380178Y41898500D01*
X217288631Y41887827D01*
X217257444Y41884191D01*
X217257442Y41884191D01*
X217250172Y41883343D01*
X217243295Y41880847D01*
X217243292Y41880846D01*
X217166281Y41852892D01*
X217085669Y41823631D01*
X216939315Y41727677D01*
X216818960Y41600628D01*
X216731061Y41449298D01*
X216680333Y41281807D01*
X216669497Y41107138D01*
X213879526Y41107138D01*
X213868514Y43815489D01*
X213888239Y43883689D01*
X213941705Y43930400D01*
X213994513Y43942000D01*
X215792828Y43942000D01*
X215860949Y43921998D01*
G37*
%TD.AperFunction*%
%TD*%
%TA.AperFunction,Conductor*%
%TO.N,GND*%
G36*
X101601102Y43921998D02*
G01*
X101647595Y43868342D01*
X101658592Y43825888D01*
X101659411Y43815489D01*
X101667611Y43711311D01*
X101721629Y43486323D01*
X101810177Y43272556D01*
X101931075Y43075273D01*
X102081346Y42899331D01*
X102257291Y42749062D01*
X102454576Y42628167D01*
X102668344Y42539622D01*
X102745038Y42521210D01*
X102888519Y42486763D01*
X102888525Y42486762D01*
X102893332Y42485608D01*
X103124000Y42467454D01*
X103354668Y42485608D01*
X103359475Y42486762D01*
X103359481Y42486763D01*
X103502962Y42521210D01*
X103579656Y42539622D01*
X103793424Y42628167D01*
X103990709Y42749062D01*
X104166654Y42899331D01*
X104316925Y43075273D01*
X104437823Y43272556D01*
X104526371Y43486323D01*
X104580389Y43711311D01*
X104589408Y43825888D01*
X104614694Y43892229D01*
X104671832Y43934368D01*
X104715019Y43942000D01*
X106370000Y43942000D01*
X106438121Y43921998D01*
X106484614Y43868342D01*
X106496000Y43816000D01*
X106496000Y25868000D01*
X106475998Y25799879D01*
X106422342Y25753386D01*
X106370000Y25742000D01*
X104230138Y25742000D01*
X104162017Y25762002D01*
X104134333Y25786164D01*
X104103154Y25822669D01*
X103927209Y25972938D01*
X103729924Y26093833D01*
X103516156Y26182378D01*
X103439462Y26200790D01*
X103295981Y26235237D01*
X103295975Y26235238D01*
X103291168Y26236392D01*
X103060500Y26254546D01*
X102829832Y26236392D01*
X102825025Y26235238D01*
X102825019Y26235237D01*
X102681538Y26200790D01*
X102604844Y26182378D01*
X102391076Y26093833D01*
X102193791Y25972938D01*
X102017846Y25822669D01*
X101986670Y25786167D01*
X101927222Y25747360D01*
X101890862Y25742000D01*
X100021489Y25742000D01*
X99953368Y25762002D01*
X99906875Y25815658D01*
X99895490Y25867488D01*
X99888262Y27645138D01*
X102369497Y27645138D01*
X102370737Y27637922D01*
X102370737Y27637920D01*
X102397894Y27479875D01*
X102399134Y27472660D01*
X102467654Y27311627D01*
X102571383Y27170676D01*
X102576961Y27165937D01*
X102576964Y27165934D01*
X102699176Y27062107D01*
X102699180Y27062104D01*
X102704755Y27057368D01*
X102785572Y27016101D01*
X102801687Y27007872D01*
X102860616Y26977781D01*
X102867721Y26976042D01*
X102867725Y26976041D01*
X102948858Y26956189D01*
X103030606Y26936185D01*
X103036206Y26935838D01*
X103036210Y26935837D01*
X103039709Y26935620D01*
X103039718Y26935620D01*
X103041648Y26935500D01*
X103167822Y26935500D01*
X103259369Y26946173D01*
X103290556Y26949809D01*
X103290558Y26949809D01*
X103297828Y26950657D01*
X103304705Y26953153D01*
X103304708Y26953154D01*
X103455452Y27007872D01*
X103462331Y27010369D01*
X103608685Y27106323D01*
X103729040Y27233372D01*
X103816939Y27384702D01*
X103867667Y27552193D01*
X103878503Y27726862D01*
X103863788Y27812502D01*
X103850106Y27892125D01*
X103850105Y27892127D01*
X103848866Y27899340D01*
X103780346Y28060373D01*
X103676617Y28201324D01*
X103671039Y28206063D01*
X103671036Y28206066D01*
X103548824Y28309893D01*
X103548820Y28309896D01*
X103543245Y28314632D01*
X103459062Y28357618D01*
X103393900Y28390892D01*
X103393898Y28390893D01*
X103387384Y28394219D01*
X103380279Y28395958D01*
X103380275Y28395959D01*
X103286741Y28418846D01*
X103217394Y28435815D01*
X103211794Y28436162D01*
X103211790Y28436163D01*
X103208291Y28436380D01*
X103208282Y28436380D01*
X103206352Y28436500D01*
X103080178Y28436500D01*
X102988631Y28425827D01*
X102957444Y28422191D01*
X102957442Y28422191D01*
X102950172Y28421343D01*
X102943295Y28418847D01*
X102943292Y28418846D01*
X102866281Y28390892D01*
X102785669Y28361631D01*
X102639315Y28265677D01*
X102518960Y28138628D01*
X102431061Y27987298D01*
X102380333Y27819807D01*
X102369497Y27645138D01*
X99888262Y27645138D01*
X99880000Y29677138D01*
X102369497Y29677138D01*
X102370737Y29669922D01*
X102370737Y29669920D01*
X102397894Y29511875D01*
X102399134Y29504660D01*
X102467654Y29343627D01*
X102571383Y29202676D01*
X102576961Y29197937D01*
X102576964Y29197934D01*
X102699176Y29094107D01*
X102699180Y29094104D01*
X102704755Y29089368D01*
X102785572Y29048101D01*
X102801687Y29039872D01*
X102860616Y29009781D01*
X102867721Y29008042D01*
X102867725Y29008041D01*
X102948858Y28988189D01*
X103030606Y28968185D01*
X103036206Y28967838D01*
X103036210Y28967837D01*
X103039709Y28967620D01*
X103039718Y28967620D01*
X103041648Y28967500D01*
X103167822Y28967500D01*
X103259369Y28978173D01*
X103290556Y28981809D01*
X103290558Y28981809D01*
X103297828Y28982657D01*
X103304705Y28985153D01*
X103304708Y28985154D01*
X103455452Y29039872D01*
X103462331Y29042369D01*
X103608685Y29138323D01*
X103729040Y29265372D01*
X103816939Y29416702D01*
X103867667Y29584193D01*
X103878503Y29758862D01*
X103863788Y29844502D01*
X103850106Y29924125D01*
X103850105Y29924127D01*
X103848866Y29931340D01*
X103780346Y30092373D01*
X103676617Y30233324D01*
X103671039Y30238063D01*
X103671036Y30238066D01*
X103548824Y30341893D01*
X103548820Y30341896D01*
X103543245Y30346632D01*
X103459062Y30389618D01*
X103393900Y30422892D01*
X103393898Y30422893D01*
X103387384Y30426219D01*
X103380279Y30427958D01*
X103380275Y30427959D01*
X103286741Y30450846D01*
X103217394Y30467815D01*
X103211794Y30468162D01*
X103211790Y30468163D01*
X103208291Y30468380D01*
X103208282Y30468380D01*
X103206352Y30468500D01*
X103080178Y30468500D01*
X102988631Y30457827D01*
X102957444Y30454191D01*
X102957442Y30454191D01*
X102950172Y30453343D01*
X102943295Y30450847D01*
X102943292Y30450846D01*
X102866281Y30422892D01*
X102785669Y30393631D01*
X102639315Y30297677D01*
X102518960Y30170628D01*
X102431061Y30019298D01*
X102380333Y29851807D01*
X102369497Y29677138D01*
X99880000Y29677138D01*
X99871738Y31709138D01*
X102369497Y31709138D01*
X102370737Y31701922D01*
X102370737Y31701920D01*
X102397894Y31543875D01*
X102399134Y31536660D01*
X102467654Y31375627D01*
X102571383Y31234676D01*
X102576961Y31229937D01*
X102576964Y31229934D01*
X102699176Y31126107D01*
X102699180Y31126104D01*
X102704755Y31121368D01*
X102785572Y31080101D01*
X102801687Y31071872D01*
X102860616Y31041781D01*
X102867721Y31040042D01*
X102867725Y31040041D01*
X102948858Y31020189D01*
X103030606Y31000185D01*
X103036206Y30999838D01*
X103036210Y30999837D01*
X103039709Y30999620D01*
X103039718Y30999620D01*
X103041648Y30999500D01*
X103167822Y30999500D01*
X103259369Y31010173D01*
X103290556Y31013809D01*
X103290558Y31013809D01*
X103297828Y31014657D01*
X103304705Y31017153D01*
X103304708Y31017154D01*
X103455452Y31071872D01*
X103462331Y31074369D01*
X103608685Y31170323D01*
X103729040Y31297372D01*
X103816939Y31448702D01*
X103867667Y31616193D01*
X103878503Y31790862D01*
X103863788Y31876502D01*
X103850106Y31956125D01*
X103850105Y31956127D01*
X103848866Y31963340D01*
X103780346Y32124373D01*
X103676617Y32265324D01*
X103671039Y32270063D01*
X103671036Y32270066D01*
X103548824Y32373893D01*
X103548820Y32373896D01*
X103543245Y32378632D01*
X103459062Y32421618D01*
X103393900Y32454892D01*
X103393898Y32454893D01*
X103387384Y32458219D01*
X103380279Y32459958D01*
X103380275Y32459959D01*
X103286741Y32482846D01*
X103217394Y32499815D01*
X103211794Y32500162D01*
X103211790Y32500163D01*
X103208291Y32500380D01*
X103208282Y32500380D01*
X103206352Y32500500D01*
X103080178Y32500500D01*
X102988631Y32489827D01*
X102957444Y32486191D01*
X102957442Y32486191D01*
X102950172Y32485343D01*
X102943295Y32482847D01*
X102943292Y32482846D01*
X102866281Y32454892D01*
X102785669Y32425631D01*
X102639315Y32329677D01*
X102518960Y32202628D01*
X102431061Y32051298D01*
X102380333Y31883807D01*
X102369497Y31709138D01*
X99871738Y31709138D01*
X99868520Y32500500D01*
X99860894Y34376138D01*
X102369497Y34376138D01*
X102370737Y34368922D01*
X102370737Y34368920D01*
X102397894Y34210875D01*
X102399134Y34203660D01*
X102467654Y34042627D01*
X102571383Y33901676D01*
X102576961Y33896937D01*
X102576964Y33896934D01*
X102699176Y33793107D01*
X102699180Y33793104D01*
X102704755Y33788368D01*
X102785572Y33747101D01*
X102801687Y33738872D01*
X102860616Y33708781D01*
X102867721Y33707042D01*
X102867725Y33707041D01*
X102948858Y33687189D01*
X103030606Y33667185D01*
X103036206Y33666838D01*
X103036210Y33666837D01*
X103039709Y33666620D01*
X103039718Y33666620D01*
X103041648Y33666500D01*
X103167822Y33666500D01*
X103259369Y33677173D01*
X103290556Y33680809D01*
X103290558Y33680809D01*
X103297828Y33681657D01*
X103304705Y33684153D01*
X103304708Y33684154D01*
X103455452Y33738872D01*
X103462331Y33741369D01*
X103608685Y33837323D01*
X103729040Y33964372D01*
X103816939Y34115702D01*
X103867667Y34283193D01*
X103878503Y34457862D01*
X103863788Y34543502D01*
X103850106Y34623125D01*
X103850105Y34623127D01*
X103848866Y34630340D01*
X103780346Y34791373D01*
X103676617Y34932324D01*
X103671039Y34937063D01*
X103671036Y34937066D01*
X103548824Y35040893D01*
X103548820Y35040896D01*
X103543245Y35045632D01*
X103459062Y35088618D01*
X103393900Y35121892D01*
X103393898Y35121893D01*
X103387384Y35125219D01*
X103380279Y35126958D01*
X103380275Y35126959D01*
X103286741Y35149846D01*
X103217394Y35166815D01*
X103211794Y35167162D01*
X103211790Y35167163D01*
X103208291Y35167380D01*
X103208282Y35167380D01*
X103206352Y35167500D01*
X103080178Y35167500D01*
X102988631Y35156827D01*
X102957444Y35153191D01*
X102957442Y35153191D01*
X102950172Y35152343D01*
X102943295Y35149847D01*
X102943292Y35149846D01*
X102866281Y35121892D01*
X102785669Y35092631D01*
X102639315Y34996677D01*
X102518960Y34869628D01*
X102431061Y34718298D01*
X102380333Y34550807D01*
X102369497Y34376138D01*
X99860894Y34376138D01*
X99850050Y37043138D01*
X102369497Y37043138D01*
X102370737Y37035922D01*
X102370737Y37035920D01*
X102397894Y36877875D01*
X102399134Y36870660D01*
X102467654Y36709627D01*
X102571383Y36568676D01*
X102576961Y36563937D01*
X102576964Y36563934D01*
X102699176Y36460107D01*
X102699180Y36460104D01*
X102704755Y36455368D01*
X102785572Y36414101D01*
X102801687Y36405872D01*
X102860616Y36375781D01*
X102867721Y36374042D01*
X102867725Y36374041D01*
X102948858Y36354189D01*
X103030606Y36334185D01*
X103036206Y36333838D01*
X103036210Y36333837D01*
X103039709Y36333620D01*
X103039718Y36333620D01*
X103041648Y36333500D01*
X103167822Y36333500D01*
X103259369Y36344173D01*
X103290556Y36347809D01*
X103290558Y36347809D01*
X103297828Y36348657D01*
X103304705Y36351153D01*
X103304708Y36351154D01*
X103455452Y36405872D01*
X103462331Y36408369D01*
X103608685Y36504323D01*
X103729040Y36631372D01*
X103816939Y36782702D01*
X103867667Y36950193D01*
X103878503Y37124862D01*
X103863788Y37210502D01*
X103850106Y37290125D01*
X103850105Y37290127D01*
X103848866Y37297340D01*
X103780346Y37458373D01*
X103676617Y37599324D01*
X103671039Y37604063D01*
X103671036Y37604066D01*
X103548824Y37707893D01*
X103548820Y37707896D01*
X103543245Y37712632D01*
X103459062Y37755618D01*
X103393900Y37788892D01*
X103393898Y37788893D01*
X103387384Y37792219D01*
X103380279Y37793958D01*
X103380275Y37793959D01*
X103286741Y37816846D01*
X103217394Y37833815D01*
X103211794Y37834162D01*
X103211790Y37834163D01*
X103208291Y37834380D01*
X103208282Y37834380D01*
X103206352Y37834500D01*
X103080178Y37834500D01*
X102988631Y37823827D01*
X102957444Y37820191D01*
X102957442Y37820191D01*
X102950172Y37819343D01*
X102943295Y37816847D01*
X102943292Y37816846D01*
X102866281Y37788892D01*
X102785669Y37759631D01*
X102639315Y37663677D01*
X102518960Y37536628D01*
X102431061Y37385298D01*
X102380333Y37217807D01*
X102369497Y37043138D01*
X99850050Y37043138D01*
X99841788Y39075138D01*
X102369497Y39075138D01*
X102370737Y39067922D01*
X102370737Y39067920D01*
X102397894Y38909875D01*
X102399134Y38902660D01*
X102467654Y38741627D01*
X102571383Y38600676D01*
X102576961Y38595937D01*
X102576964Y38595934D01*
X102699176Y38492107D01*
X102699180Y38492104D01*
X102704755Y38487368D01*
X102785572Y38446101D01*
X102801687Y38437872D01*
X102860616Y38407781D01*
X102867721Y38406042D01*
X102867725Y38406041D01*
X102948858Y38386189D01*
X103030606Y38366185D01*
X103036206Y38365838D01*
X103036210Y38365837D01*
X103039709Y38365620D01*
X103039718Y38365620D01*
X103041648Y38365500D01*
X103167822Y38365500D01*
X103259369Y38376173D01*
X103290556Y38379809D01*
X103290558Y38379809D01*
X103297828Y38380657D01*
X103304705Y38383153D01*
X103304708Y38383154D01*
X103455452Y38437872D01*
X103462331Y38440369D01*
X103608685Y38536323D01*
X103729040Y38663372D01*
X103816939Y38814702D01*
X103867667Y38982193D01*
X103878503Y39156862D01*
X103863788Y39242502D01*
X103850106Y39322125D01*
X103850105Y39322127D01*
X103848866Y39329340D01*
X103780346Y39490373D01*
X103676617Y39631324D01*
X103671039Y39636063D01*
X103671036Y39636066D01*
X103548824Y39739893D01*
X103548820Y39739896D01*
X103543245Y39744632D01*
X103459062Y39787618D01*
X103393900Y39820892D01*
X103393898Y39820893D01*
X103387384Y39824219D01*
X103380279Y39825958D01*
X103380275Y39825959D01*
X103286741Y39848846D01*
X103217394Y39865815D01*
X103211794Y39866162D01*
X103211790Y39866163D01*
X103208291Y39866380D01*
X103208282Y39866380D01*
X103206352Y39866500D01*
X103080178Y39866500D01*
X102988631Y39855827D01*
X102957444Y39852191D01*
X102957442Y39852191D01*
X102950172Y39851343D01*
X102943295Y39848847D01*
X102943292Y39848846D01*
X102866281Y39820892D01*
X102785669Y39791631D01*
X102639315Y39695677D01*
X102518960Y39568628D01*
X102431061Y39417298D01*
X102380333Y39249807D01*
X102369497Y39075138D01*
X99841788Y39075138D01*
X99833526Y41107138D01*
X102369497Y41107138D01*
X102370737Y41099922D01*
X102370737Y41099920D01*
X102397894Y40941875D01*
X102399134Y40934660D01*
X102467654Y40773627D01*
X102571383Y40632676D01*
X102576961Y40627937D01*
X102576964Y40627934D01*
X102699176Y40524107D01*
X102699180Y40524104D01*
X102704755Y40519368D01*
X102785572Y40478101D01*
X102801687Y40469872D01*
X102860616Y40439781D01*
X102867721Y40438042D01*
X102867725Y40438041D01*
X102948858Y40418189D01*
X103030606Y40398185D01*
X103036206Y40397838D01*
X103036210Y40397837D01*
X103039709Y40397620D01*
X103039718Y40397620D01*
X103041648Y40397500D01*
X103167822Y40397500D01*
X103259369Y40408173D01*
X103290556Y40411809D01*
X103290558Y40411809D01*
X103297828Y40412657D01*
X103304705Y40415153D01*
X103304708Y40415154D01*
X103455452Y40469872D01*
X103462331Y40472369D01*
X103608685Y40568323D01*
X103729040Y40695372D01*
X103816939Y40846702D01*
X103867667Y41014193D01*
X103878503Y41188862D01*
X103863788Y41274502D01*
X103850106Y41354125D01*
X103850105Y41354127D01*
X103848866Y41361340D01*
X103780346Y41522373D01*
X103676617Y41663324D01*
X103671039Y41668063D01*
X103671036Y41668066D01*
X103548824Y41771893D01*
X103548820Y41771896D01*
X103543245Y41776632D01*
X103459062Y41819618D01*
X103393900Y41852892D01*
X103393898Y41852893D01*
X103387384Y41856219D01*
X103380279Y41857958D01*
X103380275Y41857959D01*
X103286741Y41880846D01*
X103217394Y41897815D01*
X103211794Y41898162D01*
X103211790Y41898163D01*
X103208291Y41898380D01*
X103208282Y41898380D01*
X103206352Y41898500D01*
X103080178Y41898500D01*
X102988631Y41887827D01*
X102957444Y41884191D01*
X102957442Y41884191D01*
X102950172Y41883343D01*
X102943295Y41880847D01*
X102943292Y41880846D01*
X102866281Y41852892D01*
X102785669Y41823631D01*
X102639315Y41727677D01*
X102518960Y41600628D01*
X102431061Y41449298D01*
X102380333Y41281807D01*
X102369497Y41107138D01*
X99833526Y41107138D01*
X99822514Y43815489D01*
X99842239Y43883689D01*
X99895705Y43930400D01*
X99948513Y43942000D01*
X101532981Y43942000D01*
X101601102Y43921998D01*
G37*
%TD.AperFunction*%
%TD*%
%TA.AperFunction,Conductor*%
%TO.N,GND*%
G36*
X139701104Y43921998D02*
G01*
X139747597Y43868342D01*
X139758594Y43825888D01*
X139767611Y43711330D01*
X139821629Y43486342D01*
X139910177Y43272575D01*
X140031075Y43075292D01*
X140181346Y42899350D01*
X140357291Y42749081D01*
X140554576Y42628186D01*
X140768344Y42539641D01*
X140845038Y42521229D01*
X140988519Y42486782D01*
X140988525Y42486781D01*
X140993332Y42485627D01*
X141224000Y42467473D01*
X141454668Y42485627D01*
X141459475Y42486781D01*
X141459481Y42486782D01*
X141602962Y42521229D01*
X141679656Y42539641D01*
X141893424Y42628186D01*
X142090709Y42749081D01*
X142266654Y42899350D01*
X142416925Y43075292D01*
X142537823Y43272575D01*
X142626371Y43486342D01*
X142680389Y43711330D01*
X142689406Y43825888D01*
X142714691Y43892228D01*
X142771830Y43934367D01*
X142815017Y43942000D01*
X144470000Y43942000D01*
X144538121Y43921998D01*
X144584614Y43868342D01*
X144596000Y43816000D01*
X144596000Y37388647D01*
X144582290Y37334064D01*
X144582602Y37333942D01*
X144579843Y37326866D01*
X144579842Y37326864D01*
X144559669Y37275123D01*
X144557114Y37269044D01*
X144531134Y37211505D01*
X144529749Y37204034D01*
X144528725Y37200766D01*
X144524612Y37186325D01*
X144523772Y37183052D01*
X144521013Y37175976D01*
X144520022Y37168446D01*
X144512773Y37113383D01*
X144511741Y37106866D01*
X144500237Y37044797D01*
X144500674Y37037217D01*
X144500674Y37037216D01*
X144503780Y36983345D01*
X144503989Y36976093D01*
X144503989Y34625208D01*
X144503697Y34616638D01*
X144499811Y34559637D01*
X144501116Y34552161D01*
X144501116Y34552158D01*
X144510667Y34497435D01*
X144511630Y34490909D01*
X144519213Y34428247D01*
X144521898Y34421140D01*
X144522707Y34417847D01*
X144526666Y34403376D01*
X144527655Y34400100D01*
X144528962Y34392613D01*
X144532017Y34385654D01*
X144532017Y34385653D01*
X144554336Y34334807D01*
X144556828Y34328701D01*
X144579144Y34269644D01*
X144581976Y34265524D01*
X144596000Y34208421D01*
X144596000Y25868000D01*
X144575998Y25799879D01*
X144522342Y25753386D01*
X144470000Y25742000D01*
X142330122Y25742000D01*
X142262001Y25762002D01*
X142234316Y25786165D01*
X142203154Y25822650D01*
X142027209Y25972919D01*
X141829924Y26093814D01*
X141616156Y26182359D01*
X141539462Y26200771D01*
X141395981Y26235218D01*
X141395975Y26235219D01*
X141391168Y26236373D01*
X141160500Y26254527D01*
X140929832Y26236373D01*
X140925025Y26235219D01*
X140925019Y26235218D01*
X140781538Y26200771D01*
X140704844Y26182359D01*
X140491076Y26093814D01*
X140293791Y25972919D01*
X140117846Y25822650D01*
X140086686Y25786167D01*
X140027238Y25747360D01*
X139990878Y25742000D01*
X138121489Y25742000D01*
X138053368Y25762002D01*
X138006875Y25815658D01*
X137995490Y25867488D01*
X137988262Y27645138D01*
X140469497Y27645138D01*
X140470737Y27637922D01*
X140470737Y27637920D01*
X140497894Y27479875D01*
X140499134Y27472660D01*
X140567654Y27311627D01*
X140671383Y27170676D01*
X140676961Y27165937D01*
X140676964Y27165934D01*
X140799176Y27062107D01*
X140799180Y27062104D01*
X140804755Y27057368D01*
X140885572Y27016101D01*
X140901687Y27007872D01*
X140960616Y26977781D01*
X140967721Y26976042D01*
X140967725Y26976041D01*
X141048858Y26956189D01*
X141130606Y26936185D01*
X141136206Y26935838D01*
X141136210Y26935837D01*
X141139709Y26935620D01*
X141139718Y26935620D01*
X141141648Y26935500D01*
X141267822Y26935500D01*
X141359369Y26946173D01*
X141390556Y26949809D01*
X141390558Y26949809D01*
X141397828Y26950657D01*
X141404705Y26953153D01*
X141404708Y26953154D01*
X141555452Y27007872D01*
X141562331Y27010369D01*
X141708685Y27106323D01*
X141829040Y27233372D01*
X141916939Y27384702D01*
X141967667Y27552193D01*
X141978503Y27726862D01*
X141963788Y27812502D01*
X141950106Y27892125D01*
X141950105Y27892127D01*
X141948866Y27899340D01*
X141880346Y28060373D01*
X141776617Y28201324D01*
X141771039Y28206063D01*
X141771036Y28206066D01*
X141648824Y28309893D01*
X141648820Y28309896D01*
X141643245Y28314632D01*
X141559062Y28357618D01*
X141493900Y28390892D01*
X141493898Y28390893D01*
X141487384Y28394219D01*
X141480279Y28395958D01*
X141480275Y28395959D01*
X141386741Y28418846D01*
X141317394Y28435815D01*
X141311794Y28436162D01*
X141311790Y28436163D01*
X141308291Y28436380D01*
X141308282Y28436380D01*
X141306352Y28436500D01*
X141180178Y28436500D01*
X141088631Y28425827D01*
X141057444Y28422191D01*
X141057442Y28422191D01*
X141050172Y28421343D01*
X141043295Y28418847D01*
X141043292Y28418846D01*
X140966281Y28390892D01*
X140885669Y28361631D01*
X140739315Y28265677D01*
X140618960Y28138628D01*
X140531061Y27987298D01*
X140480333Y27819807D01*
X140469497Y27645138D01*
X137988262Y27645138D01*
X137980000Y29677138D01*
X140469497Y29677138D01*
X140470737Y29669922D01*
X140470737Y29669920D01*
X140497894Y29511875D01*
X140499134Y29504660D01*
X140567654Y29343627D01*
X140671383Y29202676D01*
X140676961Y29197937D01*
X140676964Y29197934D01*
X140799176Y29094107D01*
X140799180Y29094104D01*
X140804755Y29089368D01*
X140885572Y29048101D01*
X140901687Y29039872D01*
X140960616Y29009781D01*
X140967721Y29008042D01*
X140967725Y29008041D01*
X141048858Y28988189D01*
X141130606Y28968185D01*
X141136206Y28967838D01*
X141136210Y28967837D01*
X141139709Y28967620D01*
X141139718Y28967620D01*
X141141648Y28967500D01*
X141267822Y28967500D01*
X141359369Y28978173D01*
X141390556Y28981809D01*
X141390558Y28981809D01*
X141397828Y28982657D01*
X141404705Y28985153D01*
X141404708Y28985154D01*
X141555452Y29039872D01*
X141562331Y29042369D01*
X141708685Y29138323D01*
X141829040Y29265372D01*
X141916939Y29416702D01*
X141967667Y29584193D01*
X141978503Y29758862D01*
X141963788Y29844502D01*
X141950106Y29924125D01*
X141950105Y29924127D01*
X141948866Y29931340D01*
X141880346Y30092373D01*
X141776617Y30233324D01*
X141771039Y30238063D01*
X141771036Y30238066D01*
X141648824Y30341893D01*
X141648820Y30341896D01*
X141643245Y30346632D01*
X141559062Y30389618D01*
X141493900Y30422892D01*
X141493898Y30422893D01*
X141487384Y30426219D01*
X141480279Y30427958D01*
X141480275Y30427959D01*
X141386741Y30450846D01*
X141317394Y30467815D01*
X141311794Y30468162D01*
X141311790Y30468163D01*
X141308291Y30468380D01*
X141308282Y30468380D01*
X141306352Y30468500D01*
X141180178Y30468500D01*
X141088631Y30457827D01*
X141057444Y30454191D01*
X141057442Y30454191D01*
X141050172Y30453343D01*
X141043295Y30450847D01*
X141043292Y30450846D01*
X140966281Y30422892D01*
X140885669Y30393631D01*
X140739315Y30297677D01*
X140618960Y30170628D01*
X140531061Y30019298D01*
X140480333Y29851807D01*
X140469497Y29677138D01*
X137980000Y29677138D01*
X137971738Y31709138D01*
X140469497Y31709138D01*
X140470737Y31701922D01*
X140470737Y31701920D01*
X140497894Y31543875D01*
X140499134Y31536660D01*
X140567654Y31375627D01*
X140671383Y31234676D01*
X140676961Y31229937D01*
X140676964Y31229934D01*
X140799176Y31126107D01*
X140799180Y31126104D01*
X140804755Y31121368D01*
X140885572Y31080101D01*
X140901687Y31071872D01*
X140960616Y31041781D01*
X140967721Y31040042D01*
X140967725Y31040041D01*
X141048858Y31020189D01*
X141130606Y31000185D01*
X141136206Y30999838D01*
X141136210Y30999837D01*
X141139709Y30999620D01*
X141139718Y30999620D01*
X141141648Y30999500D01*
X141267822Y30999500D01*
X141359369Y31010173D01*
X141390556Y31013809D01*
X141390558Y31013809D01*
X141397828Y31014657D01*
X141404705Y31017153D01*
X141404708Y31017154D01*
X141555452Y31071872D01*
X141562331Y31074369D01*
X141708685Y31170323D01*
X141829040Y31297372D01*
X141916939Y31448702D01*
X141967667Y31616193D01*
X141978503Y31790862D01*
X141963788Y31876502D01*
X141950106Y31956125D01*
X141950105Y31956127D01*
X141948866Y31963340D01*
X141880346Y32124373D01*
X141776617Y32265324D01*
X141771039Y32270063D01*
X141771036Y32270066D01*
X141648824Y32373893D01*
X141648820Y32373896D01*
X141643245Y32378632D01*
X141559062Y32421618D01*
X141493900Y32454892D01*
X141493898Y32454893D01*
X141487384Y32458219D01*
X141480279Y32459958D01*
X141480275Y32459959D01*
X141386741Y32482846D01*
X141317394Y32499815D01*
X141311794Y32500162D01*
X141311790Y32500163D01*
X141308291Y32500380D01*
X141308282Y32500380D01*
X141306352Y32500500D01*
X141180178Y32500500D01*
X141088631Y32489827D01*
X141057444Y32486191D01*
X141057442Y32486191D01*
X141050172Y32485343D01*
X141043295Y32482847D01*
X141043292Y32482846D01*
X140966281Y32454892D01*
X140885669Y32425631D01*
X140739315Y32329677D01*
X140618960Y32202628D01*
X140531061Y32051298D01*
X140480333Y31883807D01*
X140469497Y31709138D01*
X137971738Y31709138D01*
X137968520Y32500500D01*
X137960894Y34376138D01*
X140469497Y34376138D01*
X140470737Y34368922D01*
X140470737Y34368920D01*
X140487796Y34269644D01*
X140499134Y34203660D01*
X140567654Y34042627D01*
X140671383Y33901676D01*
X140676961Y33896937D01*
X140676964Y33896934D01*
X140799176Y33793107D01*
X140799180Y33793104D01*
X140804755Y33788368D01*
X140885572Y33747101D01*
X140901687Y33738872D01*
X140960616Y33708781D01*
X140967721Y33707042D01*
X140967725Y33707041D01*
X141048858Y33687189D01*
X141130606Y33667185D01*
X141136206Y33666838D01*
X141136210Y33666837D01*
X141139709Y33666620D01*
X141139718Y33666620D01*
X141141648Y33666500D01*
X141267822Y33666500D01*
X141359369Y33677173D01*
X141390556Y33680809D01*
X141390558Y33680809D01*
X141397828Y33681657D01*
X141404705Y33684153D01*
X141404708Y33684154D01*
X141555452Y33738872D01*
X141562331Y33741369D01*
X141708685Y33837323D01*
X141829040Y33964372D01*
X141916939Y34115702D01*
X141967667Y34283193D01*
X141978503Y34457862D01*
X141963788Y34543502D01*
X141950106Y34623125D01*
X141950105Y34623127D01*
X141948866Y34630340D01*
X141880346Y34791373D01*
X141776617Y34932324D01*
X141771039Y34937063D01*
X141771036Y34937066D01*
X141648824Y35040893D01*
X141648820Y35040896D01*
X141643245Y35045632D01*
X141559062Y35088618D01*
X141493900Y35121892D01*
X141493898Y35121893D01*
X141487384Y35125219D01*
X141480279Y35126958D01*
X141480275Y35126959D01*
X141386741Y35149846D01*
X141317394Y35166815D01*
X141311794Y35167162D01*
X141311790Y35167163D01*
X141308291Y35167380D01*
X141308282Y35167380D01*
X141306352Y35167500D01*
X141180178Y35167500D01*
X141088631Y35156827D01*
X141057444Y35153191D01*
X141057442Y35153191D01*
X141050172Y35152343D01*
X141043295Y35149847D01*
X141043292Y35149846D01*
X140966281Y35121892D01*
X140885669Y35092631D01*
X140739315Y34996677D01*
X140618960Y34869628D01*
X140531061Y34718298D01*
X140480333Y34550807D01*
X140469497Y34376138D01*
X137960894Y34376138D01*
X137950050Y37043138D01*
X140469497Y37043138D01*
X140470737Y37035922D01*
X140470737Y37035920D01*
X140497894Y36877875D01*
X140499134Y36870660D01*
X140567654Y36709627D01*
X140671383Y36568676D01*
X140676961Y36563937D01*
X140676964Y36563934D01*
X140799176Y36460107D01*
X140799180Y36460104D01*
X140804755Y36455368D01*
X140885572Y36414101D01*
X140901687Y36405872D01*
X140960616Y36375781D01*
X140967721Y36374042D01*
X140967725Y36374041D01*
X141048858Y36354189D01*
X141130606Y36334185D01*
X141136206Y36333838D01*
X141136210Y36333837D01*
X141139709Y36333620D01*
X141139718Y36333620D01*
X141141648Y36333500D01*
X141267822Y36333500D01*
X141359369Y36344173D01*
X141390556Y36347809D01*
X141390558Y36347809D01*
X141397828Y36348657D01*
X141404705Y36351153D01*
X141404708Y36351154D01*
X141555452Y36405872D01*
X141562331Y36408369D01*
X141708685Y36504323D01*
X141829040Y36631372D01*
X141916939Y36782702D01*
X141967667Y36950193D01*
X141978503Y37124862D01*
X141966750Y37193264D01*
X141950106Y37290125D01*
X141950105Y37290127D01*
X141948866Y37297340D01*
X141880346Y37458373D01*
X141776617Y37599324D01*
X141771039Y37604063D01*
X141771036Y37604066D01*
X141648824Y37707893D01*
X141648820Y37707896D01*
X141643245Y37712632D01*
X141559062Y37755618D01*
X141493900Y37788892D01*
X141493898Y37788893D01*
X141487384Y37792219D01*
X141480279Y37793958D01*
X141480275Y37793959D01*
X141386741Y37816846D01*
X141317394Y37833815D01*
X141311794Y37834162D01*
X141311790Y37834163D01*
X141308291Y37834380D01*
X141308282Y37834380D01*
X141306352Y37834500D01*
X141180178Y37834500D01*
X141088631Y37823827D01*
X141057444Y37820191D01*
X141057442Y37820191D01*
X141050172Y37819343D01*
X141043295Y37816847D01*
X141043292Y37816846D01*
X140966281Y37788892D01*
X140885669Y37759631D01*
X140739315Y37663677D01*
X140618960Y37536628D01*
X140531061Y37385298D01*
X140480333Y37217807D01*
X140469497Y37043138D01*
X137950050Y37043138D01*
X137941788Y39075138D01*
X140469497Y39075138D01*
X140470737Y39067922D01*
X140470737Y39067920D01*
X140497894Y38909875D01*
X140499134Y38902660D01*
X140567654Y38741627D01*
X140671383Y38600676D01*
X140676961Y38595937D01*
X140676964Y38595934D01*
X140799176Y38492107D01*
X140799180Y38492104D01*
X140804755Y38487368D01*
X140885572Y38446101D01*
X140901687Y38437872D01*
X140960616Y38407781D01*
X140967721Y38406042D01*
X140967725Y38406041D01*
X141048858Y38386189D01*
X141130606Y38366185D01*
X141136206Y38365838D01*
X141136210Y38365837D01*
X141139709Y38365620D01*
X141139718Y38365620D01*
X141141648Y38365500D01*
X141267822Y38365500D01*
X141359369Y38376173D01*
X141390556Y38379809D01*
X141390558Y38379809D01*
X141397828Y38380657D01*
X141404705Y38383153D01*
X141404708Y38383154D01*
X141555452Y38437872D01*
X141562331Y38440369D01*
X141708685Y38536323D01*
X141829040Y38663372D01*
X141916939Y38814702D01*
X141967667Y38982193D01*
X141978503Y39156862D01*
X141963788Y39242502D01*
X141950106Y39322125D01*
X141950105Y39322127D01*
X141948866Y39329340D01*
X141880346Y39490373D01*
X141776617Y39631324D01*
X141771039Y39636063D01*
X141771036Y39636066D01*
X141648824Y39739893D01*
X141648820Y39739896D01*
X141643245Y39744632D01*
X141559062Y39787618D01*
X141493900Y39820892D01*
X141493898Y39820893D01*
X141487384Y39824219D01*
X141480279Y39825958D01*
X141480275Y39825959D01*
X141386741Y39848846D01*
X141317394Y39865815D01*
X141311794Y39866162D01*
X141311790Y39866163D01*
X141308291Y39866380D01*
X141308282Y39866380D01*
X141306352Y39866500D01*
X141180178Y39866500D01*
X141088631Y39855827D01*
X141057444Y39852191D01*
X141057442Y39852191D01*
X141050172Y39851343D01*
X141043295Y39848847D01*
X141043292Y39848846D01*
X140966281Y39820892D01*
X140885669Y39791631D01*
X140739315Y39695677D01*
X140618960Y39568628D01*
X140531061Y39417298D01*
X140480333Y39249807D01*
X140469497Y39075138D01*
X137941788Y39075138D01*
X137933526Y41107138D01*
X140469497Y41107138D01*
X140470737Y41099922D01*
X140470737Y41099920D01*
X140497894Y40941875D01*
X140499134Y40934660D01*
X140567654Y40773627D01*
X140671383Y40632676D01*
X140676961Y40627937D01*
X140676964Y40627934D01*
X140799176Y40524107D01*
X140799180Y40524104D01*
X140804755Y40519368D01*
X140885572Y40478101D01*
X140901687Y40469872D01*
X140960616Y40439781D01*
X140967721Y40438042D01*
X140967725Y40438041D01*
X141048858Y40418189D01*
X141130606Y40398185D01*
X141136206Y40397838D01*
X141136210Y40397837D01*
X141139709Y40397620D01*
X141139718Y40397620D01*
X141141648Y40397500D01*
X141267822Y40397500D01*
X141359369Y40408173D01*
X141390556Y40411809D01*
X141390558Y40411809D01*
X141397828Y40412657D01*
X141404705Y40415153D01*
X141404708Y40415154D01*
X141555452Y40469872D01*
X141562331Y40472369D01*
X141708685Y40568323D01*
X141829040Y40695372D01*
X141916939Y40846702D01*
X141967667Y41014193D01*
X141978503Y41188862D01*
X141963788Y41274502D01*
X141950106Y41354125D01*
X141950105Y41354127D01*
X141948866Y41361340D01*
X141880346Y41522373D01*
X141776617Y41663324D01*
X141771039Y41668063D01*
X141771036Y41668066D01*
X141648824Y41771893D01*
X141648820Y41771896D01*
X141643245Y41776632D01*
X141559062Y41819618D01*
X141493900Y41852892D01*
X141493898Y41852893D01*
X141487384Y41856219D01*
X141480279Y41857958D01*
X141480275Y41857959D01*
X141386741Y41880846D01*
X141317394Y41897815D01*
X141311794Y41898162D01*
X141311790Y41898163D01*
X141308291Y41898380D01*
X141308282Y41898380D01*
X141306352Y41898500D01*
X141180178Y41898500D01*
X141088631Y41887827D01*
X141057444Y41884191D01*
X141057442Y41884191D01*
X141050172Y41883343D01*
X141043295Y41880847D01*
X141043292Y41880846D01*
X140966281Y41852892D01*
X140885669Y41823631D01*
X140739315Y41727677D01*
X140618960Y41600628D01*
X140531061Y41449298D01*
X140480333Y41281807D01*
X140469497Y41107138D01*
X137933526Y41107138D01*
X137922514Y43815489D01*
X137942239Y43883689D01*
X137995705Y43930400D01*
X138048513Y43942000D01*
X139632983Y43942000D01*
X139701104Y43921998D01*
G37*
%TD.AperFunction*%
%TD*%
%TA.AperFunction,Conductor*%
%TO.N,GND*%
G36*
X177760949Y43921998D02*
G01*
X177807442Y43868342D01*
X177818438Y43825895D01*
X177824025Y43754916D01*
X177878043Y43529928D01*
X177966591Y43316161D01*
X178087489Y43118878D01*
X178237760Y42942936D01*
X178413705Y42792667D01*
X178610990Y42671772D01*
X178824758Y42583227D01*
X178901452Y42564815D01*
X179044933Y42530368D01*
X179044939Y42530367D01*
X179049746Y42529213D01*
X179280414Y42511059D01*
X179511082Y42529213D01*
X179515889Y42530367D01*
X179515895Y42530368D01*
X179659376Y42564815D01*
X179736070Y42583227D01*
X179949838Y42671772D01*
X180147123Y42792667D01*
X180323068Y42942936D01*
X180473339Y43118878D01*
X180594237Y43316161D01*
X180682785Y43529928D01*
X180736803Y43754916D01*
X180742390Y43825892D01*
X180767674Y43892228D01*
X180824812Y43934367D01*
X180868000Y43942000D01*
X182570000Y43942000D01*
X182638121Y43921998D01*
X182684614Y43868342D01*
X182696000Y43816000D01*
X182696000Y40741457D01*
X182675998Y40673336D01*
X182664078Y40657641D01*
X182641835Y40632676D01*
X182559612Y40540392D01*
X182559610Y40540388D01*
X182554560Y40534721D01*
X182475224Y40384881D01*
X182433919Y40220441D01*
X182433031Y40050895D01*
X182472612Y39886032D01*
X182476093Y39879288D01*
X182476094Y39879285D01*
X182490516Y39851343D01*
X182550375Y39735369D01*
X182555367Y39729647D01*
X182555368Y39729645D01*
X182661831Y39607604D01*
X182660144Y39606132D01*
X182691547Y39555168D01*
X182696000Y39521968D01*
X182696000Y25868000D01*
X182675998Y25799879D01*
X182622342Y25753386D01*
X182570000Y25742000D01*
X180348274Y25742000D01*
X180280153Y25762002D01*
X180260863Y25777548D01*
X180259568Y25779064D01*
X180083623Y25929333D01*
X179886338Y26050228D01*
X179672570Y26138773D01*
X179595876Y26157185D01*
X179452395Y26191632D01*
X179452389Y26191633D01*
X179447582Y26192787D01*
X179216914Y26210941D01*
X178986246Y26192787D01*
X178981439Y26191633D01*
X178981433Y26191632D01*
X178837952Y26157185D01*
X178761258Y26138773D01*
X178547490Y26050228D01*
X178350205Y25929333D01*
X178174260Y25779064D01*
X178173666Y25778368D01*
X178112337Y25744879D01*
X178085554Y25742000D01*
X176221489Y25742000D01*
X176153368Y25762002D01*
X176106875Y25815658D01*
X176095490Y25867488D01*
X176088262Y27645138D01*
X178569497Y27645138D01*
X178570737Y27637922D01*
X178570737Y27637920D01*
X178597894Y27479875D01*
X178599134Y27472660D01*
X178667654Y27311627D01*
X178771383Y27170676D01*
X178776961Y27165937D01*
X178776964Y27165934D01*
X178899176Y27062107D01*
X178899180Y27062104D01*
X178904755Y27057368D01*
X178985572Y27016101D01*
X179001687Y27007872D01*
X179060616Y26977781D01*
X179067721Y26976042D01*
X179067725Y26976041D01*
X179148858Y26956189D01*
X179230606Y26936185D01*
X179236206Y26935838D01*
X179236210Y26935837D01*
X179239709Y26935620D01*
X179239718Y26935620D01*
X179241648Y26935500D01*
X179367822Y26935500D01*
X179459369Y26946173D01*
X179490556Y26949809D01*
X179490558Y26949809D01*
X179497828Y26950657D01*
X179504705Y26953153D01*
X179504708Y26953154D01*
X179655452Y27007872D01*
X179662331Y27010369D01*
X179808685Y27106323D01*
X179929040Y27233372D01*
X180016939Y27384702D01*
X180067667Y27552193D01*
X180078503Y27726862D01*
X180063788Y27812502D01*
X180050106Y27892125D01*
X180050105Y27892127D01*
X180048866Y27899340D01*
X179980346Y28060373D01*
X179876617Y28201324D01*
X179871039Y28206063D01*
X179871036Y28206066D01*
X179748824Y28309893D01*
X179748820Y28309896D01*
X179743245Y28314632D01*
X179659062Y28357618D01*
X179593900Y28390892D01*
X179593898Y28390893D01*
X179587384Y28394219D01*
X179580279Y28395958D01*
X179580275Y28395959D01*
X179486741Y28418846D01*
X179417394Y28435815D01*
X179411794Y28436162D01*
X179411790Y28436163D01*
X179408291Y28436380D01*
X179408282Y28436380D01*
X179406352Y28436500D01*
X179280178Y28436500D01*
X179188631Y28425827D01*
X179157444Y28422191D01*
X179157442Y28422191D01*
X179150172Y28421343D01*
X179143295Y28418847D01*
X179143292Y28418846D01*
X179066281Y28390892D01*
X178985669Y28361631D01*
X178839315Y28265677D01*
X178718960Y28138628D01*
X178631061Y27987298D01*
X178580333Y27819807D01*
X178569497Y27645138D01*
X176088262Y27645138D01*
X176080000Y29677138D01*
X178569497Y29677138D01*
X178570737Y29669922D01*
X178570737Y29669920D01*
X178597894Y29511875D01*
X178599134Y29504660D01*
X178667654Y29343627D01*
X178771383Y29202676D01*
X178776961Y29197937D01*
X178776964Y29197934D01*
X178899176Y29094107D01*
X178899180Y29094104D01*
X178904755Y29089368D01*
X178985572Y29048101D01*
X179001687Y29039872D01*
X179060616Y29009781D01*
X179067721Y29008042D01*
X179067725Y29008041D01*
X179148858Y28988189D01*
X179230606Y28968185D01*
X179236206Y28967838D01*
X179236210Y28967837D01*
X179239709Y28967620D01*
X179239718Y28967620D01*
X179241648Y28967500D01*
X179367822Y28967500D01*
X179459369Y28978173D01*
X179490556Y28981809D01*
X179490558Y28981809D01*
X179497828Y28982657D01*
X179504705Y28985153D01*
X179504708Y28985154D01*
X179655452Y29039872D01*
X179662331Y29042369D01*
X179808685Y29138323D01*
X179929040Y29265372D01*
X180016939Y29416702D01*
X180067667Y29584193D01*
X180078503Y29758862D01*
X180063788Y29844502D01*
X180050106Y29924125D01*
X180050105Y29924127D01*
X180048866Y29931340D01*
X179980346Y30092373D01*
X179876617Y30233324D01*
X179871039Y30238063D01*
X179871036Y30238066D01*
X179748824Y30341893D01*
X179748820Y30341896D01*
X179743245Y30346632D01*
X179659062Y30389618D01*
X179593900Y30422892D01*
X179593898Y30422893D01*
X179587384Y30426219D01*
X179580279Y30427958D01*
X179580275Y30427959D01*
X179486741Y30450846D01*
X179417394Y30467815D01*
X179411794Y30468162D01*
X179411790Y30468163D01*
X179408291Y30468380D01*
X179408282Y30468380D01*
X179406352Y30468500D01*
X179280178Y30468500D01*
X179188631Y30457827D01*
X179157444Y30454191D01*
X179157442Y30454191D01*
X179150172Y30453343D01*
X179143295Y30450847D01*
X179143292Y30450846D01*
X179066281Y30422892D01*
X178985669Y30393631D01*
X178839315Y30297677D01*
X178718960Y30170628D01*
X178631061Y30019298D01*
X178580333Y29851807D01*
X178569497Y29677138D01*
X176080000Y29677138D01*
X176071738Y31709138D01*
X178569497Y31709138D01*
X178570737Y31701922D01*
X178570737Y31701920D01*
X178597894Y31543875D01*
X178599134Y31536660D01*
X178667654Y31375627D01*
X178771383Y31234676D01*
X178776961Y31229937D01*
X178776964Y31229934D01*
X178899176Y31126107D01*
X178899180Y31126104D01*
X178904755Y31121368D01*
X178985572Y31080101D01*
X179001687Y31071872D01*
X179060616Y31041781D01*
X179067721Y31040042D01*
X179067725Y31040041D01*
X179148858Y31020189D01*
X179230606Y31000185D01*
X179236206Y30999838D01*
X179236210Y30999837D01*
X179239709Y30999620D01*
X179239718Y30999620D01*
X179241648Y30999500D01*
X179367822Y30999500D01*
X179459369Y31010173D01*
X179490556Y31013809D01*
X179490558Y31013809D01*
X179497828Y31014657D01*
X179504705Y31017153D01*
X179504708Y31017154D01*
X179655452Y31071872D01*
X179662331Y31074369D01*
X179808685Y31170323D01*
X179929040Y31297372D01*
X180016939Y31448702D01*
X180067667Y31616193D01*
X180078503Y31790862D01*
X180063788Y31876502D01*
X180050106Y31956125D01*
X180050105Y31956127D01*
X180048866Y31963340D01*
X179980346Y32124373D01*
X179876617Y32265324D01*
X179871039Y32270063D01*
X179871036Y32270066D01*
X179748824Y32373893D01*
X179748820Y32373896D01*
X179743245Y32378632D01*
X179659062Y32421618D01*
X179593900Y32454892D01*
X179593898Y32454893D01*
X179587384Y32458219D01*
X179580279Y32459958D01*
X179580275Y32459959D01*
X179486741Y32482846D01*
X179417394Y32499815D01*
X179411794Y32500162D01*
X179411790Y32500163D01*
X179408291Y32500380D01*
X179408282Y32500380D01*
X179406352Y32500500D01*
X179280178Y32500500D01*
X179188631Y32489827D01*
X179157444Y32486191D01*
X179157442Y32486191D01*
X179150172Y32485343D01*
X179143295Y32482847D01*
X179143292Y32482846D01*
X179066281Y32454892D01*
X178985669Y32425631D01*
X178839315Y32329677D01*
X178718960Y32202628D01*
X178631061Y32051298D01*
X178580333Y31883807D01*
X178569497Y31709138D01*
X176071738Y31709138D01*
X176068520Y32500500D01*
X176060894Y34376138D01*
X178569497Y34376138D01*
X178570737Y34368922D01*
X178570737Y34368920D01*
X178587586Y34270865D01*
X178599134Y34203660D01*
X178667654Y34042627D01*
X178771383Y33901676D01*
X178776961Y33896937D01*
X178776964Y33896934D01*
X178899176Y33793107D01*
X178899180Y33793104D01*
X178904755Y33788368D01*
X178921417Y33779860D01*
X179006348Y33736492D01*
X179060616Y33708781D01*
X179067721Y33707042D01*
X179067725Y33707041D01*
X179148858Y33687189D01*
X179230606Y33667185D01*
X179236206Y33666838D01*
X179236210Y33666837D01*
X179239709Y33666620D01*
X179239718Y33666620D01*
X179241648Y33666500D01*
X179367822Y33666500D01*
X179459369Y33677173D01*
X179490556Y33680809D01*
X179490558Y33680809D01*
X179497828Y33681657D01*
X179504705Y33684153D01*
X179504708Y33684154D01*
X179655452Y33738872D01*
X179662331Y33741369D01*
X179808685Y33837323D01*
X179929040Y33964372D01*
X180016939Y34115702D01*
X180067667Y34283193D01*
X180078503Y34457862D01*
X180063788Y34543502D01*
X180050106Y34623125D01*
X180050105Y34623127D01*
X180048866Y34630340D01*
X179980346Y34791373D01*
X179876617Y34932324D01*
X179871039Y34937063D01*
X179871036Y34937066D01*
X179748824Y35040893D01*
X179748820Y35040896D01*
X179743245Y35045632D01*
X179659062Y35088618D01*
X179593900Y35121892D01*
X179593898Y35121893D01*
X179587384Y35125219D01*
X179580279Y35126958D01*
X179580275Y35126959D01*
X179486741Y35149846D01*
X179417394Y35166815D01*
X179411794Y35167162D01*
X179411790Y35167163D01*
X179408291Y35167380D01*
X179408282Y35167380D01*
X179406352Y35167500D01*
X179280178Y35167500D01*
X179188631Y35156827D01*
X179157444Y35153191D01*
X179157442Y35153191D01*
X179150172Y35152343D01*
X179143295Y35149847D01*
X179143292Y35149846D01*
X179066281Y35121892D01*
X178985669Y35092631D01*
X178839315Y34996677D01*
X178718960Y34869628D01*
X178631061Y34718298D01*
X178580333Y34550807D01*
X178569497Y34376138D01*
X176060894Y34376138D01*
X176050050Y37043138D01*
X178569497Y37043138D01*
X178570737Y37035922D01*
X178570737Y37035920D01*
X178597894Y36877875D01*
X178599134Y36870660D01*
X178667654Y36709627D01*
X178771383Y36568676D01*
X178776961Y36563937D01*
X178776964Y36563934D01*
X178899176Y36460107D01*
X178899180Y36460104D01*
X178904755Y36455368D01*
X178985572Y36414101D01*
X179001687Y36405872D01*
X179060616Y36375781D01*
X179067721Y36374042D01*
X179067725Y36374041D01*
X179148858Y36354189D01*
X179230606Y36334185D01*
X179236206Y36333838D01*
X179236210Y36333837D01*
X179239709Y36333620D01*
X179239718Y36333620D01*
X179241648Y36333500D01*
X179367822Y36333500D01*
X179459369Y36344173D01*
X179490556Y36347809D01*
X179490558Y36347809D01*
X179497828Y36348657D01*
X179504705Y36351153D01*
X179504708Y36351154D01*
X179655452Y36405872D01*
X179662331Y36408369D01*
X179808685Y36504323D01*
X179929040Y36631372D01*
X180016939Y36782702D01*
X180067667Y36950193D01*
X180078503Y37124862D01*
X180063788Y37210502D01*
X180050106Y37290125D01*
X180050105Y37290127D01*
X180048866Y37297340D01*
X179980346Y37458373D01*
X179876617Y37599324D01*
X179871039Y37604063D01*
X179871036Y37604066D01*
X179748824Y37707893D01*
X179748820Y37707896D01*
X179743245Y37712632D01*
X179659062Y37755618D01*
X179593900Y37788892D01*
X179593898Y37788893D01*
X179587384Y37792219D01*
X179580279Y37793958D01*
X179580275Y37793959D01*
X179486741Y37816846D01*
X179417394Y37833815D01*
X179411794Y37834162D01*
X179411790Y37834163D01*
X179408291Y37834380D01*
X179408282Y37834380D01*
X179406352Y37834500D01*
X179280178Y37834500D01*
X179188631Y37823827D01*
X179157444Y37820191D01*
X179157442Y37820191D01*
X179150172Y37819343D01*
X179143295Y37816847D01*
X179143292Y37816846D01*
X179066281Y37788892D01*
X178985669Y37759631D01*
X178839315Y37663677D01*
X178718960Y37536628D01*
X178631061Y37385298D01*
X178580333Y37217807D01*
X178569497Y37043138D01*
X176050050Y37043138D01*
X176041788Y39075138D01*
X178569497Y39075138D01*
X178570737Y39067922D01*
X178570737Y39067920D01*
X178597894Y38909875D01*
X178599134Y38902660D01*
X178667654Y38741627D01*
X178771383Y38600676D01*
X178776961Y38595937D01*
X178776964Y38595934D01*
X178899176Y38492107D01*
X178899180Y38492104D01*
X178904755Y38487368D01*
X178985572Y38446101D01*
X179051418Y38412478D01*
X179060616Y38407781D01*
X179067721Y38406042D01*
X179067725Y38406041D01*
X179148858Y38386189D01*
X179230606Y38366185D01*
X179236206Y38365838D01*
X179236210Y38365837D01*
X179239709Y38365620D01*
X179239718Y38365620D01*
X179241648Y38365500D01*
X179367822Y38365500D01*
X179459369Y38376173D01*
X179490556Y38379809D01*
X179490558Y38379809D01*
X179497828Y38380657D01*
X179504705Y38383153D01*
X179504708Y38383154D01*
X179655452Y38437872D01*
X179662331Y38440369D01*
X179808685Y38536323D01*
X179929040Y38663372D01*
X180016939Y38814702D01*
X180067667Y38982193D01*
X180078503Y39156862D01*
X180063788Y39242502D01*
X180050106Y39322125D01*
X180050105Y39322127D01*
X180048866Y39329340D01*
X179980346Y39490373D01*
X179876617Y39631324D01*
X179871039Y39636063D01*
X179871036Y39636066D01*
X179748824Y39739893D01*
X179748820Y39739896D01*
X179743245Y39744632D01*
X179659062Y39787618D01*
X179593900Y39820892D01*
X179593898Y39820893D01*
X179587384Y39824219D01*
X179580279Y39825958D01*
X179580275Y39825959D01*
X179486741Y39848846D01*
X179417394Y39865815D01*
X179411794Y39866162D01*
X179411790Y39866163D01*
X179408291Y39866380D01*
X179408282Y39866380D01*
X179406352Y39866500D01*
X179280178Y39866500D01*
X179188631Y39855827D01*
X179157444Y39852191D01*
X179157442Y39852191D01*
X179150172Y39851343D01*
X179143295Y39848847D01*
X179143292Y39848846D01*
X179066281Y39820892D01*
X178985669Y39791631D01*
X178839315Y39695677D01*
X178718960Y39568628D01*
X178631061Y39417298D01*
X178580333Y39249807D01*
X178569497Y39075138D01*
X176041788Y39075138D01*
X176033526Y41107138D01*
X178569497Y41107138D01*
X178570737Y41099922D01*
X178570737Y41099920D01*
X178597894Y40941875D01*
X178599134Y40934660D01*
X178667654Y40773627D01*
X178771383Y40632676D01*
X178776961Y40627937D01*
X178776964Y40627934D01*
X178899176Y40524107D01*
X178899180Y40524104D01*
X178904755Y40519368D01*
X178985572Y40478101D01*
X179001687Y40469872D01*
X179060616Y40439781D01*
X179067721Y40438042D01*
X179067725Y40438041D01*
X179148858Y40418189D01*
X179230606Y40398185D01*
X179236206Y40397838D01*
X179236210Y40397837D01*
X179239709Y40397620D01*
X179239718Y40397620D01*
X179241648Y40397500D01*
X179367822Y40397500D01*
X179459369Y40408173D01*
X179490556Y40411809D01*
X179490558Y40411809D01*
X179497828Y40412657D01*
X179504705Y40415153D01*
X179504708Y40415154D01*
X179655452Y40469872D01*
X179662331Y40472369D01*
X179808685Y40568323D01*
X179929040Y40695372D01*
X180016939Y40846702D01*
X180067667Y41014193D01*
X180078503Y41188862D01*
X180063788Y41274502D01*
X180050106Y41354125D01*
X180050105Y41354127D01*
X180048866Y41361340D01*
X179980346Y41522373D01*
X179876617Y41663324D01*
X179871039Y41668063D01*
X179871036Y41668066D01*
X179748824Y41771893D01*
X179748820Y41771896D01*
X179743245Y41776632D01*
X179659062Y41819618D01*
X179593900Y41852892D01*
X179593898Y41852893D01*
X179587384Y41856219D01*
X179580279Y41857958D01*
X179580275Y41857959D01*
X179486741Y41880846D01*
X179417394Y41897815D01*
X179411794Y41898162D01*
X179411790Y41898163D01*
X179408291Y41898380D01*
X179408282Y41898380D01*
X179406352Y41898500D01*
X179280178Y41898500D01*
X179188631Y41887827D01*
X179157444Y41884191D01*
X179157442Y41884191D01*
X179150172Y41883343D01*
X179143295Y41880847D01*
X179143292Y41880846D01*
X179066281Y41852892D01*
X178985669Y41823631D01*
X178839315Y41727677D01*
X178718960Y41600628D01*
X178631061Y41449298D01*
X178580333Y41281807D01*
X178569497Y41107138D01*
X176033526Y41107138D01*
X176022514Y43815489D01*
X176042239Y43883689D01*
X176095705Y43930400D01*
X176148513Y43942000D01*
X177692828Y43942000D01*
X177760949Y43921998D01*
G37*
%TD.AperFunction*%
%TD*%
%TA.AperFunction,Conductor*%
%TO.N,GND*%
G36*
X69612621Y47477998D02*
G01*
X69659114Y47424342D01*
X69670500Y47372000D01*
X69670500Y30326751D01*
X69650498Y30258630D01*
X69627329Y30231802D01*
X69579604Y30190169D01*
X69575237Y30183955D01*
X69495036Y30069840D01*
X69482113Y30051453D01*
X69420524Y29893487D01*
X69398394Y29725389D01*
X69416999Y29556865D01*
X69430033Y29521248D01*
X69466115Y29422651D01*
X69475266Y29397644D01*
X69479502Y29391341D01*
X69479502Y29391340D01*
X69492574Y29371887D01*
X69569830Y29256917D01*
X69575442Y29251810D01*
X69575445Y29251807D01*
X69689612Y29147923D01*
X69689616Y29147920D01*
X69695233Y29142809D01*
X69701906Y29139186D01*
X69701910Y29139183D01*
X69837558Y29065533D01*
X69837560Y29065532D01*
X69844235Y29061908D01*
X69851584Y29059980D01*
X70000883Y29020812D01*
X70000885Y29020812D01*
X70008233Y29018884D01*
X70094609Y29017527D01*
X70170161Y29016340D01*
X70170164Y29016340D01*
X70177760Y29016221D01*
X70185165Y29017917D01*
X70185166Y29017917D01*
X70245586Y29031755D01*
X70343029Y29054072D01*
X70494498Y29130253D01*
X70623423Y29240366D01*
X70722361Y29378053D01*
X70733105Y29404778D01*
X70763002Y29479150D01*
X70806969Y29534894D01*
X70874094Y29558019D01*
X70943065Y29541182D01*
X70969004Y29521248D01*
X71397680Y29092572D01*
X71431706Y29030260D01*
X71433507Y28987033D01*
X71430394Y28963389D01*
X71448999Y28794865D01*
X71507266Y28635644D01*
X71511502Y28629341D01*
X71511502Y28629340D01*
X71524574Y28609887D01*
X71601830Y28494917D01*
X71607442Y28489810D01*
X71607445Y28489807D01*
X71721612Y28385923D01*
X71721616Y28385920D01*
X71727233Y28380809D01*
X71733906Y28377186D01*
X71733910Y28377183D01*
X71869558Y28303533D01*
X71869560Y28303532D01*
X71876235Y28299908D01*
X71883584Y28297980D01*
X72032883Y28258812D01*
X72032885Y28258812D01*
X72040233Y28256884D01*
X72126609Y28255527D01*
X72202161Y28254340D01*
X72202164Y28254340D01*
X72209760Y28254221D01*
X72217165Y28255917D01*
X72217166Y28255917D01*
X72292982Y28273281D01*
X72375029Y28292072D01*
X72526498Y28368253D01*
X72655423Y28478366D01*
X72754361Y28616053D01*
X72762237Y28635644D01*
X72814766Y28766313D01*
X72814767Y28766315D01*
X72817601Y28773366D01*
X72841490Y28941222D01*
X72841645Y28956000D01*
X72821276Y29124320D01*
X72761345Y29282923D01*
X72757044Y29289181D01*
X72669614Y29416392D01*
X72669613Y29416393D01*
X72665312Y29422651D01*
X72659641Y29427704D01*
X72544392Y29530388D01*
X72544388Y29530390D01*
X72538721Y29535440D01*
X72527877Y29541182D01*
X72471080Y29571254D01*
X72388881Y29614776D01*
X72224441Y29656081D01*
X72216843Y29656121D01*
X72216841Y29656121D01*
X72119216Y29656632D01*
X72088487Y29656793D01*
X72020472Y29677151D01*
X72000052Y29693696D01*
X71058405Y30635343D01*
X71024379Y30697655D01*
X71021500Y30724438D01*
X71021500Y46098486D01*
X71041502Y46166607D01*
X71095158Y46213100D01*
X71165432Y46223204D01*
X71207620Y46209218D01*
X71229561Y46197305D01*
X71247558Y46187533D01*
X71247560Y46187532D01*
X71254235Y46183908D01*
X71261584Y46181980D01*
X71410883Y46142812D01*
X71410885Y46142812D01*
X71418233Y46140884D01*
X71504609Y46139527D01*
X71580161Y46138340D01*
X71580164Y46138340D01*
X71587760Y46138221D01*
X71595165Y46139917D01*
X71595166Y46139917D01*
X71655586Y46153755D01*
X71753029Y46176072D01*
X71904498Y46252253D01*
X72033423Y46362366D01*
X72132361Y46500053D01*
X72195601Y46657366D01*
X72219490Y46825222D01*
X72219645Y46840000D01*
X72199276Y47008320D01*
X72139345Y47166923D01*
X72047447Y47300634D01*
X72025348Y47368102D01*
X72043233Y47436809D01*
X72095425Y47484939D01*
X72151288Y47498000D01*
X73788000Y47498000D01*
X73856121Y47477998D01*
X73902614Y47424342D01*
X73914000Y47372000D01*
X73914000Y30115938D01*
X73893998Y30047817D01*
X73840342Y30001324D01*
X73770068Y29991220D01*
X73705488Y30020714D01*
X73698905Y30026843D01*
X73281325Y30444423D01*
X73247299Y30506735D01*
X73245677Y30551271D01*
X73247309Y30562737D01*
X73247309Y30562743D01*
X73247890Y30566822D01*
X73248045Y30581600D01*
X73246240Y30596520D01*
X73237075Y30672248D01*
X73227676Y30749920D01*
X73167745Y30908523D01*
X73147500Y30937980D01*
X73076014Y31041992D01*
X73076013Y31041993D01*
X73071712Y31048251D01*
X73049690Y31067872D01*
X72950792Y31155988D01*
X72950788Y31155990D01*
X72945121Y31161040D01*
X72795281Y31240376D01*
X72630841Y31281681D01*
X72623243Y31281721D01*
X72623241Y31281721D01*
X72546068Y31282125D01*
X72461295Y31282569D01*
X72453908Y31280795D01*
X72453904Y31280795D01*
X72310562Y31246380D01*
X72296432Y31242988D01*
X72289688Y31239507D01*
X72289685Y31239506D01*
X72284489Y31236824D01*
X72145769Y31165225D01*
X72018004Y31053769D01*
X72013637Y31047555D01*
X71931695Y30930963D01*
X71920513Y30915053D01*
X71858924Y30757087D01*
X71857932Y30749554D01*
X71857932Y30749553D01*
X71843959Y30643412D01*
X71836794Y30588989D01*
X71855399Y30420465D01*
X71860570Y30406335D01*
X71910659Y30269462D01*
X71913666Y30261244D01*
X72008230Y30120517D01*
X72023610Y30106522D01*
X72128012Y30011523D01*
X72128016Y30011520D01*
X72133633Y30006409D01*
X72140306Y30002786D01*
X72140310Y30002783D01*
X72275958Y29929133D01*
X72275960Y29929132D01*
X72282635Y29925508D01*
X72289984Y29923580D01*
X72439283Y29884412D01*
X72439285Y29884412D01*
X72446633Y29882484D01*
X72533320Y29881122D01*
X72591823Y29880203D01*
X72659621Y29859134D01*
X72678939Y29843314D01*
X73877095Y28645158D01*
X73911121Y28582846D01*
X73914000Y28556063D01*
X73914000Y27431000D01*
X73893998Y27362879D01*
X73840342Y27316386D01*
X73788000Y27305000D01*
X71500000Y27305000D01*
X71431879Y27325002D01*
X71385386Y27378658D01*
X71374000Y27431000D01*
X71374000Y27940000D01*
X64262000Y27940000D01*
X64262000Y27431000D01*
X64241998Y27362879D01*
X64188342Y27316386D01*
X64136000Y27305000D01*
X63543500Y27305000D01*
X63475379Y27325002D01*
X63428886Y27378658D01*
X63417500Y27431000D01*
X63417500Y28219562D01*
X63437502Y28287683D01*
X63454405Y28308657D01*
X66083728Y30937980D01*
X66094619Y30959356D01*
X66104949Y30976211D01*
X66113221Y30987596D01*
X66113221Y30987597D01*
X66119050Y30995619D01*
X66126464Y31018437D01*
X66134027Y31036698D01*
X66144919Y31058074D01*
X66146470Y31067865D01*
X66146472Y31067872D01*
X66148673Y31081769D01*
X66153287Y31100988D01*
X66157636Y31114373D01*
X66157637Y31114380D01*
X66160700Y31123807D01*
X66160700Y42368762D01*
X66180702Y42436883D01*
X66197605Y42457857D01*
X68068618Y44328870D01*
X68130930Y44362896D01*
X68185343Y44361743D01*
X68185357Y44361843D01*
X68186223Y44361724D01*
X68189686Y44361651D01*
X68200233Y44358884D01*
X68286609Y44357527D01*
X68362161Y44356340D01*
X68362164Y44356340D01*
X68369760Y44356221D01*
X68377165Y44357917D01*
X68377166Y44357917D01*
X68473582Y44379999D01*
X68535029Y44394072D01*
X68686498Y44470253D01*
X68815423Y44580366D01*
X68914361Y44718053D01*
X68977601Y44875366D01*
X69001490Y45043222D01*
X69001645Y45058000D01*
X68981276Y45226320D01*
X68921345Y45384923D01*
X68825312Y45524651D01*
X68813514Y45535163D01*
X68704392Y45632388D01*
X68704388Y45632390D01*
X68698721Y45637440D01*
X68548881Y45716776D01*
X68384441Y45758081D01*
X68376843Y45758121D01*
X68376841Y45758121D01*
X68299668Y45758525D01*
X68214895Y45758969D01*
X68207508Y45757195D01*
X68207504Y45757195D01*
X68064162Y45722780D01*
X68050032Y45719388D01*
X68043288Y45715907D01*
X68043285Y45715906D01*
X68038089Y45713224D01*
X67899369Y45641625D01*
X67771604Y45530169D01*
X67674113Y45391453D01*
X67612524Y45233487D01*
X67611532Y45225954D01*
X67611532Y45225953D01*
X67594271Y45094841D01*
X67565549Y45029914D01*
X67558444Y45022192D01*
X65386672Y42850420D01*
X65375777Y42829037D01*
X65365453Y42812191D01*
X65351351Y42792781D01*
X65348287Y42783350D01*
X65348285Y42783347D01*
X65343936Y42769963D01*
X65336372Y42751702D01*
X65325481Y42730326D01*
X65323930Y42720532D01*
X65321728Y42706630D01*
X65317114Y42687410D01*
X65309700Y42664593D01*
X65309700Y37839852D01*
X65289698Y37771731D01*
X65236042Y37725238D01*
X65165768Y37715134D01*
X65101188Y37744628D01*
X65094605Y37750757D01*
X62266905Y40578457D01*
X62232879Y40640769D01*
X62230000Y40667552D01*
X62230000Y47372000D01*
X62250002Y47440121D01*
X62303658Y47486614D01*
X62356000Y47498000D01*
X69544500Y47498000D01*
X69612621Y47477998D01*
G37*
%TD.AperFunction*%
%TA.AperFunction,Conductor*%
G36*
X62438512Y39202900D02*
G01*
X62445095Y39196771D01*
X64815595Y36826271D01*
X64849621Y36763959D01*
X64852500Y36737176D01*
X64852500Y31724438D01*
X64832498Y31656317D01*
X64815595Y31635343D01*
X64711421Y31531169D01*
X64649109Y31497143D01*
X64578294Y31502208D01*
X64521458Y31544755D01*
X64497239Y31605127D01*
X64494335Y31629126D01*
X64490076Y31664320D01*
X64430145Y31822923D01*
X64373241Y31905719D01*
X64338414Y31956392D01*
X64338413Y31956393D01*
X64334112Y31962651D01*
X64327919Y31968169D01*
X64213192Y32070388D01*
X64213188Y32070390D01*
X64207521Y32075440D01*
X64057681Y32154776D01*
X63893241Y32196081D01*
X63885643Y32196121D01*
X63885641Y32196121D01*
X63808468Y32196525D01*
X63723695Y32196969D01*
X63716308Y32195195D01*
X63716304Y32195195D01*
X63572962Y32160780D01*
X63558832Y32157388D01*
X63552088Y32153907D01*
X63552085Y32153906D01*
X63546889Y32151224D01*
X63408169Y32079625D01*
X63280404Y31968169D01*
X63276718Y31962924D01*
X63216705Y31925951D01*
X63183513Y31921500D01*
X62356000Y31921500D01*
X62287879Y31941502D01*
X62241386Y31995158D01*
X62230000Y32047500D01*
X62230000Y39107676D01*
X62250002Y39175797D01*
X62303658Y39222290D01*
X62373932Y39232394D01*
X62438512Y39202900D01*
G37*
%TD.AperFunction*%
%TD*%
M02*
