%TF.GenerationSoftware,KiCad,Pcbnew,(6.0.2)*%
%TF.CreationDate,2022-03-21T08:26:01+01:00*%
%TF.ProjectId,GestureControl,47657374-7572-4654-936f-6e74726f6c2e,V0.1*%
%TF.SameCoordinates,Original*%
%TF.FileFunction,Soldermask,Top*%
%TF.FilePolarity,Negative*%
%FSLAX46Y46*%
G04 Gerber Fmt 4.6, Leading zero omitted, Abs format (unit mm)*
G04 Created by KiCad (PCBNEW (6.0.2)) date 2022-03-21 08:26:01*
%MOMM*%
%LPD*%
G01*
G04 APERTURE LIST*
G04 Aperture macros list*
%AMRoundRect*
0 Rectangle with rounded corners*
0 $1 Rounding radius*
0 $2 $3 $4 $5 $6 $7 $8 $9 X,Y pos of 4 corners*
0 Add a 4 corners polygon primitive as box body*
4,1,4,$2,$3,$4,$5,$6,$7,$8,$9,$2,$3,0*
0 Add four circle primitives for the rounded corners*
1,1,$1+$1,$2,$3*
1,1,$1+$1,$4,$5*
1,1,$1+$1,$6,$7*
1,1,$1+$1,$8,$9*
0 Add four rect primitives between the rounded corners*
20,1,$1+$1,$2,$3,$4,$5,0*
20,1,$1+$1,$4,$5,$6,$7,0*
20,1,$1+$1,$6,$7,$8,$9,0*
20,1,$1+$1,$8,$9,$2,$3,0*%
G04 Aperture macros list end*
%ADD10C,4.500000*%
%ADD11RoundRect,0.250000X-0.337500X-0.475000X0.337500X-0.475000X0.337500X0.475000X-0.337500X0.475000X0*%
%ADD12RoundRect,0.250000X0.337500X0.475000X-0.337500X0.475000X-0.337500X-0.475000X0.337500X-0.475000X0*%
%ADD13RoundRect,0.250000X0.565685X0.070711X0.070711X0.565685X-0.565685X-0.070711X-0.070711X-0.565685X0*%
%ADD14R,1.700000X1.700000*%
%ADD15O,1.700000X1.700000*%
%ADD16RoundRect,0.237500X-0.237500X0.300000X-0.237500X-0.300000X0.237500X-0.300000X0.237500X0.300000X0*%
%ADD17RoundRect,0.250000X1.500000X0.550000X-1.500000X0.550000X-1.500000X-0.550000X1.500000X-0.550000X0*%
%ADD18RoundRect,0.237500X-0.300000X-0.237500X0.300000X-0.237500X0.300000X0.237500X-0.300000X0.237500X0*%
%ADD19RoundRect,0.237500X0.300000X0.237500X-0.300000X0.237500X-0.300000X-0.237500X0.300000X-0.237500X0*%
%ADD20RoundRect,0.237500X0.237500X-0.300000X0.237500X0.300000X-0.237500X0.300000X-0.237500X-0.300000X0*%
%ADD21RoundRect,0.249999X0.325001X0.450001X-0.325001X0.450001X-0.325001X-0.450001X0.325001X-0.450001X0*%
%ADD22R,1.800000X3.500000*%
%ADD23RoundRect,0.250000X-1.550000X0.650000X-1.550000X-0.650000X1.550000X-0.650000X1.550000X0.650000X0*%
%ADD24O,3.600000X1.800000*%
%ADD25RoundRect,0.249999X0.350001X0.450001X-0.350001X0.450001X-0.350001X-0.450001X0.350001X-0.450001X0*%
%ADD26RoundRect,0.249999X0.450001X-0.350001X0.450001X0.350001X-0.450001X0.350001X-0.450001X-0.350001X0*%
%ADD27RoundRect,0.249999X-0.350001X-0.450001X0.350001X-0.450001X0.350001X0.450001X-0.350001X0.450001X0*%
%ADD28R,1.300000X1.550000*%
%ADD29RoundRect,0.075000X0.075000X-0.700000X0.075000X0.700000X-0.075000X0.700000X-0.075000X-0.700000X0*%
%ADD30RoundRect,0.075000X0.700000X-0.075000X0.700000X0.075000X-0.700000X0.075000X-0.700000X-0.075000X0*%
%ADD31R,1.300000X1.900000*%
%ADD32R,4.500000X2.000000*%
%ADD33RoundRect,0.249999X0.412501X0.650001X-0.412501X0.650001X-0.412501X-0.650001X0.412501X-0.650001X0*%
%ADD34RoundRect,0.249999X0.650001X-0.412501X0.650001X0.412501X-0.650001X0.412501X-0.650001X-0.412501X0*%
%ADD35RoundRect,0.249999X-0.412501X-0.650001X0.412501X-0.650001X0.412501X0.650001X-0.412501X0.650001X0*%
%ADD36R,3.500000X1.800000*%
%ADD37R,2.400000X4.200000*%
%ADD38R,4.200000X2.400000*%
%ADD39R,2.000000X0.650000*%
%ADD40R,0.650000X2.000000*%
%ADD41R,0.807999X0.458000*%
%ADD42R,0.508000X0.508000*%
%ADD43C,3.200000*%
%ADD44RoundRect,0.250000X-0.550000X1.500000X-0.550000X-1.500000X0.550000X-1.500000X0.550000X1.500000X0*%
G04 APERTURE END LIST*
D10*
%TO.C,REF\u002A\u002A*%
X32512000Y-90932000D03*
%TD*%
D11*
%TO.C,C49*%
X49000500Y-117729000D03*
X51075500Y-117729000D03*
%TD*%
D12*
%TO.C,C48*%
X53848000Y-115443000D03*
X51773000Y-115443000D03*
%TD*%
D13*
%TO.C,R36*%
X48531214Y-115333214D03*
X47117000Y-113919000D03*
%TD*%
%TO.C,R35*%
X50110107Y-113737107D03*
X48695893Y-112322893D03*
%TD*%
D14*
%TO.C,J3*%
X45974000Y-123952000D03*
D15*
X48514000Y-123952000D03*
X51054000Y-123952000D03*
X53594000Y-123952000D03*
X56134000Y-123952000D03*
X58674000Y-123952000D03*
X61214000Y-123952000D03*
X63754000Y-123952000D03*
%TD*%
D14*
%TO.C,J4*%
X68834000Y-123952000D03*
D15*
X71374000Y-123952000D03*
X73914000Y-123952000D03*
X76454000Y-123952000D03*
X78994000Y-123952000D03*
X81534000Y-123952000D03*
%TD*%
D14*
%TO.C,J5*%
X59690000Y-75692000D03*
D15*
X57150000Y-75692000D03*
X54610000Y-75692000D03*
X52070000Y-75692000D03*
X49530000Y-75692000D03*
X46990000Y-75692000D03*
X44450000Y-75692000D03*
X41910000Y-75692000D03*
X39370000Y-75692000D03*
X36830000Y-75692000D03*
%TD*%
D16*
%TO.C,C2*%
X72400000Y-84937500D03*
X72400000Y-86662500D03*
%TD*%
D17*
%TO.C,C7*%
X27800000Y-109500000D03*
X22200000Y-109500000D03*
%TD*%
D11*
%TO.C,C17*%
X59514490Y-115564490D03*
X61589490Y-115564490D03*
%TD*%
D12*
%TO.C,C18*%
X65696490Y-115564490D03*
X63621490Y-115564490D03*
%TD*%
D18*
%TO.C,C19*%
X51482490Y-110992490D03*
X53207490Y-110992490D03*
%TD*%
%TO.C,C22*%
X51328990Y-103372490D03*
X53053990Y-103372490D03*
%TD*%
D19*
%TO.C,C24*%
X58234490Y-104900000D03*
X56509490Y-104900000D03*
%TD*%
%TO.C,C25*%
X58234490Y-107100000D03*
X56509490Y-107100000D03*
%TD*%
D16*
%TO.C,C26*%
X71241490Y-101086490D03*
X71241490Y-102811490D03*
%TD*%
D18*
%TO.C,C27*%
X70537500Y-93800000D03*
X72262500Y-93800000D03*
%TD*%
D20*
%TO.C,C29*%
X59182000Y-91032500D03*
X59182000Y-89307500D03*
%TD*%
D11*
%TO.C,C32*%
X70562500Y-91900000D03*
X72637500Y-91900000D03*
%TD*%
D21*
%TO.C,D1*%
X85449490Y-100578490D03*
X83399490Y-100578490D03*
%TD*%
%TO.C,D2*%
X85467490Y-98292490D03*
X83417490Y-98292490D03*
%TD*%
%TO.C,D3*%
X85467490Y-96006490D03*
X83417490Y-96006490D03*
%TD*%
%TO.C,D5*%
X85458490Y-91434490D03*
X83408490Y-91434490D03*
%TD*%
D22*
%TO.C,D6*%
X35300000Y-96300000D03*
X35300000Y-101300000D03*
%TD*%
D14*
%TO.C,J1*%
X50165000Y-96514490D03*
D15*
X47625000Y-96514490D03*
X45085000Y-96514490D03*
X42545000Y-96514490D03*
%TD*%
D23*
%TO.C,J2*%
X28448000Y-97282000D03*
D24*
X28448000Y-100782000D03*
%TD*%
D14*
%TO.C,J7*%
X55245000Y-88894490D03*
D15*
X52705000Y-88894490D03*
X50165000Y-88894490D03*
X47625000Y-88894490D03*
X45085000Y-88894490D03*
X42545000Y-88894490D03*
%TD*%
D14*
%TO.C,J10*%
X57277000Y-79248000D03*
D15*
X54737000Y-79248000D03*
X52197000Y-79248000D03*
X49657000Y-79248000D03*
%TD*%
D25*
%TO.C,R1*%
X81385490Y-100578490D03*
X79385490Y-100578490D03*
%TD*%
%TO.C,R2*%
X81353490Y-98292490D03*
X79353490Y-98292490D03*
%TD*%
%TO.C,R3*%
X81353490Y-96006490D03*
X79353490Y-96006490D03*
%TD*%
%TO.C,R4*%
X81353490Y-93720490D03*
X79353490Y-93720490D03*
%TD*%
%TO.C,R5*%
X81369490Y-91434490D03*
X79369490Y-91434490D03*
%TD*%
%TO.C,R6*%
X89700000Y-82900000D03*
X87700000Y-82900000D03*
%TD*%
%TO.C,R7*%
X72300000Y-82900000D03*
X70300000Y-82900000D03*
%TD*%
D26*
%TO.C,R8*%
X89535000Y-86979000D03*
X89535000Y-84979000D03*
%TD*%
%TO.C,R9*%
X70500000Y-87000000D03*
X70500000Y-85000000D03*
%TD*%
%TO.C,R10*%
X45333490Y-109182490D03*
X45333490Y-107182490D03*
%TD*%
%TO.C,R11*%
X43047490Y-109182490D03*
X43047490Y-107182490D03*
%TD*%
D27*
%TO.C,R20*%
X48800000Y-99568000D03*
X50800000Y-99568000D03*
%TD*%
D28*
%TO.C,SW1*%
X85689000Y-87033000D03*
X85689000Y-79083000D03*
X81189000Y-87033000D03*
X81189000Y-79083000D03*
%TD*%
%TO.C,SW2*%
X74331000Y-87033000D03*
X74331000Y-79083000D03*
X78831000Y-87033000D03*
X78831000Y-79083000D03*
%TD*%
D29*
%TO.C,U6*%
X59617490Y-104475490D03*
X60117490Y-104475490D03*
X60617490Y-104475490D03*
X61117490Y-104475490D03*
X61617490Y-104475490D03*
X62117490Y-104475490D03*
X62617490Y-104475490D03*
X63117490Y-104475490D03*
X63617490Y-104475490D03*
X64117490Y-104475490D03*
X64617490Y-104475490D03*
X65117490Y-104475490D03*
X65617490Y-104475490D03*
X66117490Y-104475490D03*
X66617490Y-104475490D03*
X67117490Y-104475490D03*
D30*
X69042490Y-102550490D03*
X69042490Y-102050490D03*
X69042490Y-101550490D03*
X69042490Y-101050490D03*
X69042490Y-100550490D03*
X69042490Y-100050490D03*
X69042490Y-99550490D03*
X69042490Y-99050490D03*
X69042490Y-98550490D03*
X69042490Y-98050490D03*
X69042490Y-97550490D03*
X69042490Y-97050490D03*
X69042490Y-96550490D03*
X69042490Y-96050490D03*
X69042490Y-95550490D03*
X69042490Y-95050490D03*
D29*
X67117490Y-93125490D03*
X66617490Y-93125490D03*
X66117490Y-93125490D03*
X65617490Y-93125490D03*
X65117490Y-93125490D03*
X64617490Y-93125490D03*
X64117490Y-93125490D03*
X63617490Y-93125490D03*
X63117490Y-93125490D03*
X62617490Y-93125490D03*
X62117490Y-93125490D03*
X61617490Y-93125490D03*
X61117490Y-93125490D03*
X60617490Y-93125490D03*
X60117490Y-93125490D03*
X59617490Y-93125490D03*
D30*
X57692490Y-95050490D03*
X57692490Y-95550490D03*
X57692490Y-96050490D03*
X57692490Y-96550490D03*
X57692490Y-97050490D03*
X57692490Y-97550490D03*
X57692490Y-98050490D03*
X57692490Y-98550490D03*
X57692490Y-99050490D03*
X57692490Y-99550490D03*
X57692490Y-100050490D03*
X57692490Y-100550490D03*
X57692490Y-101050490D03*
X57692490Y-101550490D03*
X57692490Y-102050490D03*
X57692490Y-102550490D03*
%TD*%
D31*
%TO.C,Y2*%
X53925490Y-105582490D03*
X48425490Y-105582490D03*
X48425490Y-108782490D03*
X53925490Y-108782490D03*
%TD*%
D21*
%TO.C,D4*%
X85467490Y-93720490D03*
X83417490Y-93720490D03*
%TD*%
D14*
%TO.C,J9*%
X76321490Y-106674490D03*
D15*
X76321490Y-104134490D03*
X76321490Y-101594490D03*
X76321490Y-99054490D03*
%TD*%
D16*
%TO.C,C1*%
X87600000Y-84937500D03*
X87600000Y-86662500D03*
%TD*%
D14*
%TO.C,J6*%
X81534000Y-75692000D03*
D15*
X78994000Y-75692000D03*
X76454000Y-75692000D03*
X73914000Y-75692000D03*
X71374000Y-75692000D03*
X68834000Y-75692000D03*
X66294000Y-75692000D03*
X63754000Y-75692000D03*
%TD*%
D14*
%TO.C,J8*%
X55239490Y-92704490D03*
D15*
X52699490Y-92704490D03*
X50159490Y-92704490D03*
X47619490Y-92704490D03*
X45079490Y-92704490D03*
X42539490Y-92704490D03*
%TD*%
D32*
%TO.C,Y1*%
X58355490Y-111500490D03*
X66855490Y-111500490D03*
%TD*%
D33*
%TO.C,C3*%
X28662500Y-114400000D03*
X25537500Y-114400000D03*
%TD*%
D34*
%TO.C,C4*%
X31258000Y-78588000D03*
X31258000Y-75463000D03*
%TD*%
D20*
%TO.C,C5*%
X37400000Y-117862500D03*
X37400000Y-116137500D03*
%TD*%
D18*
%TO.C,C6*%
X23521500Y-86995000D03*
X25246500Y-86995000D03*
%TD*%
D34*
%TO.C,C13*%
X23500000Y-121262500D03*
X23500000Y-118137500D03*
%TD*%
D35*
%TO.C,C34*%
X21424500Y-75057000D03*
X24549500Y-75057000D03*
%TD*%
D36*
%TO.C,D7*%
X31900000Y-118000000D03*
X26900000Y-118000000D03*
%TD*%
D22*
%TO.C,D8*%
X27432000Y-79652500D03*
X27432000Y-74652500D03*
%TD*%
D37*
%TO.C,L1*%
X32429000Y-122620000D03*
X27929000Y-122620000D03*
%TD*%
D38*
%TO.C,L2*%
X22733000Y-82423000D03*
X22733000Y-77923000D03*
%TD*%
D27*
%TO.C,R14*%
X29500000Y-111600000D03*
X31500000Y-111600000D03*
%TD*%
D25*
%TO.C,R15*%
X32893000Y-80708500D03*
X30893000Y-80708500D03*
%TD*%
%TO.C,R18*%
X41100000Y-115000000D03*
X39100000Y-115000000D03*
%TD*%
%TO.C,R19*%
X32893000Y-82867500D03*
X30893000Y-82867500D03*
%TD*%
D26*
%TO.C,R23*%
X35600000Y-119900000D03*
X35600000Y-117900000D03*
%TD*%
D25*
%TO.C,R24*%
X25241000Y-85090000D03*
X23241000Y-85090000D03*
%TD*%
D27*
%TO.C,R25*%
X39100000Y-113000000D03*
X41100000Y-113000000D03*
%TD*%
%TO.C,R26*%
X30893000Y-85026500D03*
X32893000Y-85026500D03*
%TD*%
%TO.C,R27*%
X39100000Y-111000000D03*
X41100000Y-111000000D03*
%TD*%
%TO.C,R28*%
X30893000Y-87185500D03*
X32893000Y-87185500D03*
%TD*%
D39*
%TO.C,U1*%
X35310000Y-115350000D03*
X35310000Y-114400000D03*
X35310000Y-113450000D03*
X31890000Y-113450000D03*
X31890000Y-114400000D03*
X31890000Y-115350000D03*
%TD*%
D40*
%TO.C,U2*%
X27149000Y-87435000D03*
X28099000Y-87435000D03*
X29049000Y-87435000D03*
X29049000Y-84015000D03*
X28099000Y-84015000D03*
X27149000Y-84015000D03*
%TD*%
D41*
%TO.C,U3*%
X102897800Y-101040999D03*
X102897800Y-100241001D03*
X102897800Y-99441000D03*
X102897800Y-98640999D03*
X102897800Y-97841001D03*
D42*
X104013000Y-97840800D03*
D41*
X105128200Y-97841001D03*
X105128200Y-98640999D03*
X105128200Y-99441000D03*
X105128200Y-100241001D03*
X105128200Y-101040999D03*
D42*
X104013000Y-101041200D03*
%TD*%
D41*
%TO.C,U4*%
X140997800Y-101040999D03*
X140997800Y-100241001D03*
X140997800Y-99441000D03*
X140997800Y-98640999D03*
X140997800Y-97841001D03*
D42*
X142113000Y-97840800D03*
D41*
X143228200Y-97841001D03*
X143228200Y-98640999D03*
X143228200Y-99441000D03*
X143228200Y-100241001D03*
X143228200Y-101040999D03*
D42*
X142113000Y-101041200D03*
%TD*%
D41*
%TO.C,U5*%
X178462800Y-101040999D03*
X178462800Y-100241001D03*
X178462800Y-99441000D03*
X178462800Y-98640999D03*
X178462800Y-97841001D03*
D42*
X179578000Y-97840800D03*
D41*
X180693200Y-97841001D03*
X180693200Y-98640999D03*
X180693200Y-99441000D03*
X180693200Y-100241001D03*
X180693200Y-101040999D03*
D42*
X179578000Y-101041200D03*
%TD*%
D41*
%TO.C,U8*%
X216562800Y-101040999D03*
X216562800Y-100241001D03*
X216562800Y-99441000D03*
X216562800Y-98640999D03*
X216562800Y-97841001D03*
D42*
X217678000Y-97840800D03*
D41*
X218793200Y-97841001D03*
X218793200Y-98640999D03*
X218793200Y-99441000D03*
X218793200Y-100241001D03*
X218793200Y-101040999D03*
D42*
X217678000Y-101041200D03*
%TD*%
D43*
%TO.C,H1*%
X154178000Y-86741000D03*
%TD*%
%TO.C,H3*%
X154178000Y-112141000D03*
%TD*%
%TO.C,H4*%
X128778000Y-86741000D03*
%TD*%
%TO.C,H5*%
X192278000Y-86741000D03*
%TD*%
%TO.C,H6*%
X192278000Y-112141000D03*
%TD*%
%TO.C,H8*%
X90678000Y-121666000D03*
%TD*%
%TO.C,H11*%
X166878000Y-112141000D03*
%TD*%
%TO.C,H12*%
X166878000Y-86741000D03*
%TD*%
%TO.C,H7*%
X117348000Y-77216000D03*
%TD*%
%TO.C,H9*%
X117348000Y-121666000D03*
%TD*%
%TO.C,H10*%
X90678000Y-77216000D03*
%TD*%
%TO.C,H2*%
X128778000Y-112141000D03*
%TD*%
D14*
%TO.C,J11*%
X42539490Y-104134490D03*
D15*
X45079490Y-104134490D03*
%TD*%
D14*
%TO.C,J12*%
X42539490Y-100324490D03*
D15*
X45079490Y-100324490D03*
%TD*%
D43*
%TO.C,H13*%
X204978000Y-86741000D03*
%TD*%
%TO.C,H14*%
X204978000Y-112141000D03*
%TD*%
%TO.C,H15*%
X230378000Y-86741000D03*
%TD*%
%TO.C,H16*%
X230378000Y-112141000D03*
%TD*%
D29*
%TO.C,U7*%
X59617490Y-104475490D03*
X60117490Y-104475490D03*
X60617490Y-104475490D03*
X61117490Y-104475490D03*
X61617490Y-104475490D03*
X62117490Y-104475490D03*
X62617490Y-104475490D03*
X63117490Y-104475490D03*
X63617490Y-104475490D03*
X64117490Y-104475490D03*
X64617490Y-104475490D03*
X65117490Y-104475490D03*
X65617490Y-104475490D03*
X66117490Y-104475490D03*
X66617490Y-104475490D03*
X67117490Y-104475490D03*
D30*
X69042490Y-102550490D03*
X69042490Y-102050490D03*
X69042490Y-101550490D03*
X69042490Y-101050490D03*
X69042490Y-100550490D03*
X69042490Y-100050490D03*
X69042490Y-99550490D03*
X69042490Y-99050490D03*
X69042490Y-98550490D03*
X69042490Y-98050490D03*
X69042490Y-97550490D03*
X69042490Y-97050490D03*
X69042490Y-96550490D03*
X69042490Y-96050490D03*
X69042490Y-95550490D03*
X69042490Y-95050490D03*
D29*
X67117490Y-93125490D03*
X66617490Y-93125490D03*
X66117490Y-93125490D03*
X65617490Y-93125490D03*
X65117490Y-93125490D03*
X64617490Y-93125490D03*
X64117490Y-93125490D03*
X63617490Y-93125490D03*
X63117490Y-93125490D03*
X62617490Y-93125490D03*
X62117490Y-93125490D03*
X61617490Y-93125490D03*
X61117490Y-93125490D03*
X60617490Y-93125490D03*
X60117490Y-93125490D03*
X59617490Y-93125490D03*
D30*
X57692490Y-95050490D03*
X57692490Y-95550490D03*
X57692490Y-96050490D03*
X57692490Y-96550490D03*
X57692490Y-97050490D03*
X57692490Y-97550490D03*
X57692490Y-98050490D03*
X57692490Y-98550490D03*
X57692490Y-99050490D03*
X57692490Y-99550490D03*
X57692490Y-100050490D03*
X57692490Y-100550490D03*
X57692490Y-101050490D03*
X57692490Y-101550490D03*
X57692490Y-102050490D03*
X57692490Y-102550490D03*
%TD*%
D43*
%TO.C,H16*%
X268478000Y-112141000D03*
%TD*%
%TO.C,H13*%
X243078000Y-86741000D03*
%TD*%
%TO.C,H15*%
X268478000Y-86741000D03*
%TD*%
D41*
%TO.C,U9*%
X254662800Y-101040999D03*
X254662800Y-100241001D03*
X254662800Y-99441000D03*
X254662800Y-98640999D03*
X254662800Y-97841001D03*
D42*
X255778000Y-97840800D03*
D41*
X256893200Y-97841001D03*
X256893200Y-98640999D03*
X256893200Y-99441000D03*
X256893200Y-100241001D03*
X256893200Y-101040999D03*
D42*
X255778000Y-101041200D03*
%TD*%
D10*
%TO.C,REF\u002A\u002A*%
X32512000Y-106934000D03*
%TD*%
D44*
%TO.C,C43*%
X37481000Y-80054800D03*
X37481000Y-85654800D03*
%TD*%
D43*
%TO.C,H14*%
X243078000Y-112141000D03*
%TD*%
M02*
