%TF.GenerationSoftware,KiCad,Pcbnew,(6.0.2)*%
%TF.CreationDate,2022-03-17T10:44:44+01:00*%
%TF.ProjectId,GestureControl,47657374-7572-4654-936f-6e74726f6c2e,V0.1*%
%TF.SameCoordinates,Original*%
%TF.FileFunction,Soldermask,Bot*%
%TF.FilePolarity,Negative*%
%FSLAX46Y46*%
G04 Gerber Fmt 4.6, Leading zero omitted, Abs format (unit mm)*
G04 Created by KiCad (PCBNEW (6.0.2)) date 2022-03-17 10:44:44*
%MOMM*%
%LPD*%
G01*
G04 APERTURE LIST*
G04 Aperture macros list*
%AMRoundRect*
0 Rectangle with rounded corners*
0 $1 Rounding radius*
0 $2 $3 $4 $5 $6 $7 $8 $9 X,Y pos of 4 corners*
0 Add a 4 corners polygon primitive as box body*
4,1,4,$2,$3,$4,$5,$6,$7,$8,$9,$2,$3,0*
0 Add four circle primitives for the rounded corners*
1,1,$1+$1,$2,$3*
1,1,$1+$1,$4,$5*
1,1,$1+$1,$6,$7*
1,1,$1+$1,$8,$9*
0 Add four rect primitives between the rounded corners*
20,1,$1+$1,$2,$3,$4,$5,0*
20,1,$1+$1,$4,$5,$6,$7,0*
20,1,$1+$1,$6,$7,$8,$9,0*
20,1,$1+$1,$8,$9,$2,$3,0*%
%AMFreePoly0*
4,1,22,0.550000,-0.750000,0.000000,-0.750000,0.000000,-0.745033,-0.079941,-0.743568,-0.215256,-0.701293,-0.333266,-0.622738,-0.424486,-0.514219,-0.481581,-0.384460,-0.499164,-0.250000,-0.500000,-0.250000,-0.500000,0.250000,-0.499164,0.250000,-0.499963,0.256109,-0.478152,0.396186,-0.417904,0.524511,-0.324060,0.630769,-0.204165,0.706417,-0.067858,0.745374,0.000000,0.744959,0.000000,0.750000,
0.550000,0.750000,0.550000,-0.750000,0.550000,-0.750000,$1*%
%AMFreePoly1*
4,1,20,0.000000,0.744959,0.073905,0.744508,0.209726,0.703889,0.328688,0.626782,0.421226,0.519385,0.479903,0.390333,0.500000,0.250000,0.500000,-0.250000,0.499851,-0.262216,0.476331,-0.402017,0.414519,-0.529596,0.319384,-0.634700,0.198574,-0.708877,0.061801,-0.746166,0.000000,-0.745033,0.000000,-0.750000,-0.550000,-0.750000,-0.550000,0.750000,0.000000,0.750000,0.000000,0.744959,
0.000000,0.744959,$1*%
G04 Aperture macros list end*
%ADD10R,1.700000X1.700000*%
%ADD11O,1.700000X1.700000*%
%ADD12RoundRect,0.250000X-1.550000X0.650000X-1.550000X-0.650000X1.550000X-0.650000X1.550000X0.650000X0*%
%ADD13O,3.600000X1.800000*%
%ADD14C,3.200000*%
%ADD15C,4.500000*%
%ADD16RoundRect,0.237500X-0.300000X-0.237500X0.300000X-0.237500X0.300000X0.237500X-0.300000X0.237500X0*%
%ADD17RoundRect,0.250000X-0.337500X-0.475000X0.337500X-0.475000X0.337500X0.475000X-0.337500X0.475000X0*%
%ADD18RoundRect,0.250000X0.337500X0.475000X-0.337500X0.475000X-0.337500X-0.475000X0.337500X-0.475000X0*%
%ADD19R,1.500000X1.500000*%
%ADD20FreePoly0,90.000000*%
%ADD21R,1.500000X1.000000*%
%ADD22FreePoly1,90.000000*%
%ADD23RoundRect,0.249999X0.350001X0.450001X-0.350001X0.450001X-0.350001X-0.450001X0.350001X-0.450001X0*%
%ADD24RoundRect,0.249999X-0.350001X-0.450001X0.350001X-0.450001X0.350001X0.450001X-0.350001X0.450001X0*%
%ADD25R,1.000000X1.000000*%
%ADD26RoundRect,0.237500X0.237500X-0.300000X0.237500X0.300000X-0.237500X0.300000X-0.237500X-0.300000X0*%
%ADD27RoundRect,0.250000X-0.475000X0.337500X-0.475000X-0.337500X0.475000X-0.337500X0.475000X0.337500X0*%
%ADD28RoundRect,0.250000X0.475000X-0.337500X0.475000X0.337500X-0.475000X0.337500X-0.475000X-0.337500X0*%
%ADD29RoundRect,0.249999X0.650001X-0.412501X0.650001X0.412501X-0.650001X0.412501X-0.650001X-0.412501X0*%
%ADD30RoundRect,0.249999X-0.650001X0.412501X-0.650001X-0.412501X0.650001X-0.412501X0.650001X0.412501X0*%
%ADD31RoundRect,0.249999X-0.450001X0.350001X-0.450001X-0.350001X0.450001X-0.350001X0.450001X0.350001X0*%
%ADD32RoundRect,0.249999X0.450001X-0.350001X0.450001X0.350001X-0.450001X0.350001X-0.450001X-0.350001X0*%
%ADD33R,1.500000X3.000000*%
%ADD34C,2.000000*%
%ADD35RoundRect,0.250000X-0.650000X0.412500X-0.650000X-0.412500X0.650000X-0.412500X0.650000X0.412500X0*%
%ADD36RoundRect,0.250000X-0.450000X0.350000X-0.450000X-0.350000X0.450000X-0.350000X0.450000X0.350000X0*%
G04 APERTURE END LIST*
D10*
%TO.C,J3*%
X45974000Y-123952000D03*
D11*
X48514000Y-123952000D03*
X51054000Y-123952000D03*
X53594000Y-123952000D03*
X56134000Y-123952000D03*
X58674000Y-123952000D03*
X61214000Y-123952000D03*
X63754000Y-123952000D03*
%TD*%
D10*
%TO.C,J4*%
X68834000Y-123952000D03*
D11*
X71374000Y-123952000D03*
X73914000Y-123952000D03*
X76454000Y-123952000D03*
X78994000Y-123952000D03*
X81534000Y-123952000D03*
%TD*%
D10*
%TO.C,J5*%
X59690000Y-75692000D03*
D11*
X57150000Y-75692000D03*
X54610000Y-75692000D03*
X52070000Y-75692000D03*
X49530000Y-75692000D03*
X46990000Y-75692000D03*
X44450000Y-75692000D03*
X41910000Y-75692000D03*
X39370000Y-75692000D03*
X36830000Y-75692000D03*
%TD*%
D10*
%TO.C,J1*%
X50165000Y-96514490D03*
D11*
X47625000Y-96514490D03*
X45085000Y-96514490D03*
X42545000Y-96514490D03*
%TD*%
D12*
%TO.C,J2*%
X28448000Y-97282000D03*
D13*
X28448000Y-100782000D03*
%TD*%
D10*
%TO.C,J7*%
X55245000Y-88894490D03*
D11*
X52705000Y-88894490D03*
X50165000Y-88894490D03*
X47625000Y-88894490D03*
X45085000Y-88894490D03*
X42545000Y-88894490D03*
%TD*%
D10*
%TO.C,J10*%
X57277000Y-79248000D03*
D11*
X54737000Y-79248000D03*
X52197000Y-79248000D03*
X49657000Y-79248000D03*
%TD*%
D10*
%TO.C,J9*%
X76321490Y-106674490D03*
D11*
X76321490Y-104134490D03*
X76321490Y-101594490D03*
X76321490Y-99054490D03*
%TD*%
D10*
%TO.C,J6*%
X81534000Y-75692000D03*
D11*
X78994000Y-75692000D03*
X76454000Y-75692000D03*
X73914000Y-75692000D03*
X71374000Y-75692000D03*
X68834000Y-75692000D03*
X66294000Y-75692000D03*
X63754000Y-75692000D03*
%TD*%
D10*
%TO.C,J8*%
X55239490Y-92704490D03*
D11*
X52699490Y-92704490D03*
X50159490Y-92704490D03*
X47619490Y-92704490D03*
X45079490Y-92704490D03*
X42539490Y-92704490D03*
%TD*%
D14*
%TO.C,H1*%
X154178000Y-86741000D03*
%TD*%
%TO.C,H3*%
X154178000Y-112141000D03*
%TD*%
%TO.C,H4*%
X128778000Y-86741000D03*
%TD*%
%TO.C,H5*%
X192278000Y-86741000D03*
%TD*%
%TO.C,H6*%
X192278000Y-112141000D03*
%TD*%
%TO.C,H8*%
X90678000Y-121666000D03*
%TD*%
%TO.C,H11*%
X166878000Y-112141000D03*
%TD*%
%TO.C,H12*%
X166878000Y-86741000D03*
%TD*%
%TO.C,H7*%
X117348000Y-77216000D03*
%TD*%
%TO.C,H9*%
X117348000Y-121666000D03*
%TD*%
%TO.C,H10*%
X90678000Y-77216000D03*
%TD*%
%TO.C,H2*%
X128778000Y-112141000D03*
%TD*%
D10*
%TO.C,J11*%
X42539490Y-104134490D03*
D11*
X45079490Y-104134490D03*
%TD*%
D10*
%TO.C,J12*%
X42539490Y-100324490D03*
D11*
X45079490Y-100324490D03*
%TD*%
D14*
%TO.C,H13*%
X204978000Y-86741000D03*
%TD*%
%TO.C,H14*%
X204978000Y-112141000D03*
%TD*%
%TO.C,H15*%
X230378000Y-86741000D03*
%TD*%
%TO.C,H16*%
X230378000Y-112141000D03*
%TD*%
%TO.C,H16*%
X268478000Y-112141000D03*
%TD*%
%TO.C,H13*%
X243078000Y-86741000D03*
%TD*%
%TO.C,H15*%
X268478000Y-86741000D03*
%TD*%
D15*
%TO.C,REF\u002A\u002A*%
X32512000Y-106934000D03*
%TD*%
D14*
%TO.C,H14*%
X243078000Y-112141000D03*
%TD*%
D15*
%TO.C,REF\u002A\u002A*%
X32512000Y-90932000D03*
%TD*%
D16*
%TO.C,C28*%
X66976490Y-102610490D03*
X68701490Y-102610490D03*
%TD*%
D17*
%TO.C,C30*%
X66923490Y-100578490D03*
X68998490Y-100578490D03*
%TD*%
D16*
%TO.C,C31*%
X61589490Y-100832490D03*
X63314490Y-100832490D03*
%TD*%
D18*
%TO.C,C33*%
X65045500Y-99060000D03*
X62970500Y-99060000D03*
%TD*%
D19*
%TO.C,J17*%
X51937490Y-81528490D03*
%TD*%
%TO.C,J18*%
X44317490Y-81528490D03*
%TD*%
%TO.C,J19*%
X41777490Y-81528490D03*
%TD*%
D20*
%TO.C,JP3*%
X66421000Y-96804000D03*
D21*
X66421000Y-95504000D03*
D22*
X66421000Y-94204000D03*
%TD*%
D23*
%TO.C,R21*%
X51397490Y-85084490D03*
X49397490Y-85084490D03*
%TD*%
D24*
%TO.C,R22*%
X44857490Y-85084490D03*
X46857490Y-85084490D03*
%TD*%
D25*
%TO.C,TP1*%
X49397490Y-81528490D03*
%TD*%
%TO.C,TP2*%
X46857490Y-81528490D03*
%TD*%
D20*
%TO.C,JP2*%
X63627000Y-96804000D03*
D21*
X63627000Y-95504000D03*
D22*
X63627000Y-94204000D03*
%TD*%
D16*
%TO.C,C23*%
X61589490Y-102610490D03*
X63314490Y-102610490D03*
%TD*%
D18*
%TO.C,C11*%
X73570490Y-104134490D03*
X71495490Y-104134490D03*
%TD*%
D26*
%TO.C,C14*%
X177292000Y-100176500D03*
X177292000Y-98451500D03*
%TD*%
%TO.C,C15*%
X215392000Y-100150000D03*
X215392000Y-98425000D03*
%TD*%
%TO.C,C16*%
X103378000Y-99695000D03*
X103378000Y-97970000D03*
%TD*%
%TO.C,C20*%
X181991000Y-100176500D03*
X181991000Y-98451500D03*
%TD*%
%TO.C,C21*%
X219964000Y-100176500D03*
X219964000Y-98451500D03*
%TD*%
%TO.C,C35*%
X105156000Y-99695000D03*
X105156000Y-97970000D03*
%TD*%
D27*
%TO.C,C36*%
X169926000Y-96393000D03*
X169926000Y-98468000D03*
%TD*%
%TO.C,C37*%
X207899000Y-96481500D03*
X207899000Y-98556500D03*
%TD*%
D28*
%TO.C,C38*%
X101346000Y-99738000D03*
X101346000Y-97663000D03*
%TD*%
D29*
%TO.C,C39*%
X98806000Y-99772000D03*
X98806000Y-96647000D03*
%TD*%
D30*
%TO.C,C40*%
X130810000Y-95592500D03*
X130810000Y-98717500D03*
%TD*%
%TO.C,C41*%
X167386000Y-95808000D03*
X167386000Y-98933000D03*
%TD*%
%TO.C,C42*%
X205486000Y-95973500D03*
X205486000Y-99098500D03*
%TD*%
D31*
%TO.C,R13*%
X180721000Y-93107000D03*
X180721000Y-95107000D03*
%TD*%
%TO.C,R16*%
X178435000Y-93107000D03*
X178435000Y-95107000D03*
%TD*%
%TO.C,R17*%
X218567000Y-93107000D03*
X218567000Y-95107000D03*
%TD*%
%TO.C,R30*%
X216408000Y-93139000D03*
X216408000Y-95139000D03*
%TD*%
D32*
%TO.C,R31*%
X109474000Y-99695000D03*
X109474000Y-97695000D03*
%TD*%
%TO.C,R32*%
X107188000Y-99679000D03*
X107188000Y-97679000D03*
%TD*%
D26*
%TO.C,C8*%
X144399000Y-100176500D03*
X144399000Y-98451500D03*
%TD*%
%TO.C,C9*%
X139827000Y-100176500D03*
X139827000Y-98451500D03*
%TD*%
D27*
%TO.C,C10*%
X133223000Y-96117500D03*
X133223000Y-98192500D03*
%TD*%
D28*
%TO.C,C12*%
X117856000Y-93769000D03*
X117856000Y-91694000D03*
%TD*%
D31*
%TO.C,R12*%
X141986000Y-93107000D03*
X141986000Y-95107000D03*
%TD*%
%TO.C,R29*%
X139700000Y-93123000D03*
X139700000Y-95123000D03*
%TD*%
D33*
%TO.C,J14*%
X185293000Y-102906000D03*
X184023000Y-107406000D03*
X182753000Y-102906000D03*
X181483000Y-107406000D03*
X180213000Y-102906000D03*
X178943000Y-107406000D03*
X177673000Y-102906000D03*
X176403000Y-107406000D03*
X175133000Y-102906000D03*
X173863000Y-107406000D03*
%TD*%
%TO.C,J15*%
X223393000Y-102906000D03*
X222123000Y-107406000D03*
X220853000Y-102906000D03*
X219583000Y-107406000D03*
X218313000Y-102906000D03*
X217043000Y-107406000D03*
X215773000Y-102906000D03*
X214503000Y-107406000D03*
X213233000Y-102906000D03*
X211963000Y-107406000D03*
%TD*%
%TO.C,J16*%
X109728000Y-79121000D03*
X108458000Y-83621000D03*
X107188000Y-79121000D03*
X105918000Y-83621000D03*
X104648000Y-79121000D03*
X103378000Y-83621000D03*
X102108000Y-79121000D03*
X100838000Y-83621000D03*
X99568000Y-79121000D03*
X98298000Y-83621000D03*
%TD*%
%TO.C,J20*%
X109728000Y-88773000D03*
X108458000Y-93273000D03*
X107188000Y-88773000D03*
X105918000Y-93273000D03*
X104648000Y-88773000D03*
X103378000Y-93273000D03*
X102108000Y-88773000D03*
X100838000Y-93273000D03*
X99568000Y-88773000D03*
X98298000Y-93273000D03*
%TD*%
%TO.C,J21*%
X109728000Y-104394000D03*
X108458000Y-108894000D03*
X107188000Y-104394000D03*
X105918000Y-108894000D03*
X104648000Y-104394000D03*
X103378000Y-108894000D03*
X102108000Y-104394000D03*
X100838000Y-108894000D03*
X99568000Y-104394000D03*
X98298000Y-108894000D03*
%TD*%
%TO.C,J13*%
X147193000Y-102906000D03*
X145923000Y-107406000D03*
X144653000Y-102906000D03*
X143383000Y-107406000D03*
X142113000Y-102906000D03*
X140843000Y-107406000D03*
X139573000Y-102906000D03*
X138303000Y-107406000D03*
X137033000Y-102906000D03*
X135763000Y-107406000D03*
%TD*%
D34*
%TO.C,TP3*%
X146304000Y-112268000D03*
%TD*%
%TO.C,TP4*%
X149479000Y-112268000D03*
%TD*%
%TO.C,TP5*%
X143129000Y-112268000D03*
%TD*%
%TO.C,TP6*%
X139954000Y-112268000D03*
%TD*%
%TO.C,TP7*%
X133604000Y-112268000D03*
%TD*%
%TO.C,TP8*%
X136779000Y-112268000D03*
%TD*%
%TO.C,TP9*%
X184404000Y-112268000D03*
%TD*%
%TO.C,TP10*%
X187579000Y-112268000D03*
%TD*%
%TO.C,TP11*%
X181229000Y-112268000D03*
%TD*%
%TO.C,TP12*%
X178054000Y-112268000D03*
%TD*%
%TO.C,TP13*%
X171704000Y-112268000D03*
%TD*%
%TO.C,TP15*%
X222504000Y-112268000D03*
%TD*%
%TO.C,TP16*%
X225679000Y-112268000D03*
%TD*%
%TO.C,TP17*%
X219329000Y-112268000D03*
%TD*%
%TO.C,TP18*%
X216154000Y-112268000D03*
%TD*%
%TO.C,TP19*%
X209804000Y-112268000D03*
%TD*%
%TO.C,TP20*%
X212979000Y-112268000D03*
%TD*%
%TO.C,TP14*%
X174879000Y-112268000D03*
%TD*%
%TO.C,TP22*%
X263779000Y-112268000D03*
%TD*%
D35*
%TO.C,C45*%
X243586000Y-95973500D03*
X243586000Y-99098500D03*
%TD*%
D36*
%TO.C,R34*%
X254508000Y-93091000D03*
X254508000Y-95091000D03*
%TD*%
D34*
%TO.C,TP25*%
X247904000Y-112268000D03*
%TD*%
D26*
%TO.C,C44*%
X253492000Y-100076000D03*
X253492000Y-98351000D03*
%TD*%
D36*
%TO.C,R33*%
X256667000Y-93107000D03*
X256667000Y-95107000D03*
%TD*%
D34*
%TO.C,TP26*%
X251079000Y-112268000D03*
%TD*%
%TO.C,TP24*%
X254254000Y-112268000D03*
%TD*%
%TO.C,TP23*%
X257429000Y-112268000D03*
%TD*%
D33*
%TO.C,J22*%
X109728000Y-115225000D03*
X108458000Y-119725000D03*
X107188000Y-115225000D03*
X105918000Y-119725000D03*
X104648000Y-115225000D03*
X103378000Y-119725000D03*
X102108000Y-115225000D03*
X100838000Y-119725000D03*
X99568000Y-115225000D03*
X98298000Y-119725000D03*
%TD*%
D34*
%TO.C,TP21*%
X260604000Y-112268000D03*
%TD*%
D33*
%TO.C,J23*%
X261493000Y-103033000D03*
X260223000Y-107533000D03*
X258953000Y-103033000D03*
X257683000Y-107533000D03*
X256413000Y-103033000D03*
X255143000Y-107533000D03*
X253873000Y-103033000D03*
X252603000Y-107533000D03*
X251333000Y-103033000D03*
X250063000Y-107533000D03*
%TD*%
D26*
%TO.C,C46*%
X258064000Y-100176500D03*
X258064000Y-98451500D03*
%TD*%
D27*
%TO.C,C47*%
X245999000Y-96498500D03*
X245999000Y-98573500D03*
%TD*%
M02*
