M48
; DRILL file {KiCad (6.0.2)} date Fri Mar 18 17:12:20 2022
; FORMAT={-:-/ absolute / inch / decimal}
; #@! TF.CreationDate,2022-03-18T17:12:20+01:00
; #@! TF.GenerationSoftware,Kicad,Pcbnew,(6.0.2)
; #@! TF.FileFunction,Plated,1,4,PTH
FMAT,2
INCH
; #@! TA.AperFunction,Plated,PTH,ViaDrill
T1C0.0157
; #@! TA.AperFunction,Plated,PTH,ComponentDrill
T2C0.0394
; #@! TA.AperFunction,Plated,PTH,ComponentDrill
T3C0.0472
%
G90
G05
T1
X0.8189Y-4.3937
X0.8189Y-4.4528
X0.8189Y-4.5118
X0.8189Y-4.5748
X0.8189Y-4.626
X0.8465Y-4.6693
X0.8543Y-4.752
X0.8543Y-4.7913
X0.8543Y-4.8346
X0.8543Y-4.874
X0.8543Y-4.9134
X0.874Y-4.3937
X0.874Y-4.4528
X0.874Y-4.5118
X0.874Y-4.5748
X0.9Y-2.925
X0.9Y-2.96
X0.9Y-2.995
X0.9094Y-4.8346
X0.9094Y-4.874
X0.9094Y-4.9134
X0.937Y-4.3937
X0.937Y-4.4528
X0.937Y-4.5118
X0.937Y-4.5748
X0.9685Y-4.8346
X0.9685Y-4.874
X0.9685Y-4.9134
X0.97Y-2.87
X1.01Y-2.87
X1.05Y-2.87
X1.06Y-3.515
X1.06Y-3.56
X1.065Y-3.375
X1.1056Y-3.375
X1.107Y-3.516
X1.107Y-3.56
X1.1475Y-3.375
X1.155Y-3.515
X1.155Y-3.56
X1.185Y-2.875
X1.185Y-2.915
X1.225Y-2.875
X1.225Y-2.915
X1.254Y-3.2209
X1.2567Y-3.388
X1.265Y-2.875
X1.265Y-2.915
X1.3268Y-4.5039
X1.405Y-3.6
X1.405Y-3.65
X1.4156Y-3.3375
X1.4156Y-3.3775
X1.4156Y-3.4175
X1.4567Y-4.5039
X1.485Y-3.93
X1.485Y-4.005
X1.485Y-4.09
X1.485Y-4.18
X1.53Y-3.505
X1.5354Y-3.7795
X1.5354Y-3.8268
X1.5354Y-3.874
X1.5356Y-3.3375
X1.5356Y-3.3775
X1.5356Y-3.4175
X1.585Y-3.93
X1.585Y-4.005
X1.585Y-4.09
X1.585Y-4.18
X1.59Y-3.62
X1.59Y-3.685
X1.595Y-3.505
X1.5965Y-3.338
X1.6448Y-3.2698
X1.675Y-4.02
X1.685Y-4.3701
X1.7448Y-3.2798
X1.795Y-3.28
X1.8Y-4.35
X1.825Y-3.75
X1.825Y-4.7
X1.83Y-4.385
X1.8448Y-3.2798
X1.87Y-4.56
X1.8748Y-3.9998
X1.875Y-4.04
X1.875Y-4.75
X1.881Y-4.085
X1.895Y-3.18
X1.895Y-3.23
X1.895Y-3.28
X1.9048Y-4.3598
X1.9247Y-3.7497
X1.93Y-4.62
X1.935Y-4.515
X1.9448Y-3.2798
X1.96Y-4.21
X1.9635Y-4.3065
X1.98Y-4.67
X1.985Y-4.565
X1.99Y-3.23
X1.995Y-3.28
X2.025Y-3.545
X2.025Y-4.42
X2.03Y-4.72
X2.035Y-4.455
X2.035Y-4.615
X2.0448Y-3.2798
X2.055Y-3.92
X2.08Y-4.77
X2.0844Y-3.3156
X2.085Y-4.505
X2.085Y-4.665
X2.155Y-3.225
X2.16Y-4.575
X2.16Y-4.79
X2.215Y-3.29
X2.2244Y-4.1732
X2.225Y-4.0827
X2.275Y-4.615
X2.275Y-4.72
X2.275Y-4.79
X2.2756Y-4.1732
X2.2794Y-3.3156
X2.28Y-3.52
X2.28Y-3.57
X2.315Y-4.1732
X2.33Y-4.055
X2.3348Y-4.0098
X2.3648Y-3.9498
X2.365Y-3.285
X2.3723Y-3.595
X2.375Y-3.4
X2.375Y-4.615
X2.375Y-4.72
X2.375Y-4.79
X2.38Y-3.52
X2.38Y-4.005
X2.43Y-3.925
X2.4325Y-4.6025
X2.4427Y-3.1532
X2.4448Y-3.0952
X2.45Y-3.385
X2.4648Y-4.6198
X2.47Y-3.065
X2.4709Y-3.1247
X2.475Y-3.465
X2.475Y-3.515
X2.475Y-4.72
X2.475Y-4.79
X2.4761Y-3.565
X2.4848Y-4.2098
X2.49Y-3.29
X2.4975Y-4.6025
X2.51Y-3.35
X2.5448Y-4.0398
X2.545Y-3.97
X2.555Y-3.805
X2.555Y-3.845
X2.56Y-3.7205
X2.585Y-3.955
X2.595Y-4.04
X2.625Y-4.765
X2.6252Y-4.5902
X2.6448Y-3.8898
X2.655Y-4.7908
X2.6554Y-4.6154
X2.66Y-3.76
X2.6748Y-3.6198
X2.6798Y-3.6698
X2.6798Y-3.7102
X2.6848Y-4.5892
X2.685Y-4.765
X2.705Y-4.08
X2.7122Y-3.6077
X2.715Y-4.615
X2.7174Y-4.7874
X2.7248Y-3.5698
X2.7308Y-3.4804
X2.7324Y-3.5226
X2.755Y-4.765
X2.7552Y-4.5902
X2.77Y-3.2
X2.77Y-4.1102
X2.7756Y-3.4764
X2.7795Y-3.5591
X2.78Y-3.783
X2.8465Y-3.7408
X2.85Y-4.6
X2.85Y-4.725
X2.8528Y-4.0478
X2.8543Y-3.4724
X2.8543Y-3.9803
X2.8583Y-3.5591
X2.8937Y-3.6929
X2.9134Y-3.6169
X2.925Y-4.6
X2.925Y-4.725
X3.0Y-4.6
X3.06Y-4.81
X3.0648Y-3.7799
X3.065Y-4.6
X3.0651Y-3.8192
X3.0744Y-3.6933
X3.0748Y-3.5998
X3.0795Y-3.9598
X3.135Y-4.81
X3.145Y-4.73
X3.15Y-4.525
X3.1509Y-3.4265
X3.205Y-4.03
X3.21Y-4.73
X3.225Y-4.525
X3.2309Y-4.0596
X3.325Y-4.825
X3.325Y-4.945
X3.33Y-4.536
X3.33Y-4.72
X3.3694Y-4.72
X3.372Y-4.536
X3.415Y-4.795
X3.415Y-4.915
X3.4165Y-3.7821
X3.4488Y-3.4961
X3.5354Y-4.1063
X3.5755Y-3.4259
X3.5825Y-4.1125
X3.5827Y-3.2756
X3.6Y-3.49
X3.6Y-3.585
X3.6Y-3.665
X3.6Y-3.75
X3.6Y-3.825
X3.6Y-3.9
X3.6Y-3.975
X3.6Y-4.325
X3.6Y-4.4
X3.6Y-4.925
X3.615Y-4.08
X3.655Y-3.16
X3.73Y-3.52
X3.73Y-3.575
X3.7362Y-3.4055
X3.74Y-3.075
X3.745Y-3.26
X3.75Y-3.75
X3.75Y-4.85
X3.75Y-4.925
X3.775Y-3.9
X3.775Y-3.975
X3.78Y-4.395
X3.78Y-4.455
X3.825Y-3.805
X3.84Y-4.51
X3.84Y-4.57
X3.85Y-3.09
X3.85Y-3.135
X3.85Y-3.19
X3.85Y-3.47
X3.85Y-3.52
X3.86Y-4.0914
X3.86Y-4.1314
X3.86Y-4.1914
X3.87Y-3.59
X3.87Y-4.62
X3.9Y-4.85
X3.9Y-4.925
X3.97Y-3.385
X3.97Y-3.585
X3.97Y-4.3814
X3.97Y-4.625
X3.9731Y-3.495
X3.985Y-3.79
X4.0Y-3.98
X4.015Y-4.85
X4.02Y-4.62
X4.045Y-4.925
X4.0686Y-3.1164
X4.0686Y-4.1128
X4.07Y-3.385
X4.07Y-3.585
X4.07Y-4.015
X4.07Y-4.3814
X4.07Y-4.625
X4.1Y-3.805
X4.105Y-4.87
X4.1166Y-3.5756
X4.12Y-4.62
X4.125Y-4.015
X4.1686Y-3.1164
X4.1686Y-4.1128
X4.17Y-4.2014
X4.17Y-4.86
X4.185Y-4.905
X4.185Y-4.955
X4.1878Y-3.9782
X4.22Y-3.785
X4.22Y-4.62
X4.2313Y-3.5837
X4.2686Y-3.1164
X4.2686Y-4.1128
X4.27Y-4.805
X4.28Y-4.905
X4.28Y-4.955
X4.31Y-3.785
X4.32Y-3.585
X4.32Y-4.2164
X4.32Y-4.62
X4.325Y-4.775
X4.345Y-4.73
X4.35Y-4.88
X4.38Y-4.555
X4.4Y-4.445
X4.43Y-4.8
X4.435Y-4.65
X4.495Y-4.735
X4.5Y-4.565
X4.505Y-4.445
X4.51Y-3.665
X4.54Y-3.695
X4.555Y-4.33
X4.58Y-3.61
X4.585Y-4.65
X4.61Y-4.275
X4.61Y-4.445
X4.61Y-4.565
X4.64Y-3.555
X4.645Y-4.37
X4.7126Y-3.563
X4.7126Y-3.6496
X4.7126Y-3.7283
X4.7126Y-3.811
X4.7126Y-3.8898
X4.715Y-4.295
X4.74Y-4.02
X4.745Y-4.18
X4.9173Y-3.563
X4.9173Y-3.6496
X4.9173Y-3.7283
X4.9173Y-3.811
X4.9173Y-3.8898
X4.92Y-4.02
X4.92Y-4.18
X4.92Y-4.28
X5.02Y-4.18
X5.02Y-4.28
X5.05Y-3.69
X5.1Y-3.69
X5.12Y-4.18
X5.12Y-4.28
X5.15Y-3.83
X5.185Y-3.945
X5.22Y-4.28
X5.25Y-3.625
X5.25Y-3.925
X5.31Y-3.865
X5.325Y-3.625
X5.325Y-3.75
X5.345Y-4.315
X5.385Y-3.75
X5.3994Y-3.8806
X5.4Y-3.625
X5.44Y-4.14
X5.4571Y-3.8576
X5.465Y-3.95
X5.5Y-3.795
X5.545Y-4.05
X5.545Y-4.14
X5.555Y-3.795
X5.5944Y-3.89
X5.595Y-3.81
X5.595Y-3.94
X5.6436Y-4.0514
X5.645Y-4.14
X5.725Y-3.87
X5.7436Y-4.0514
X5.745Y-3.975
X5.745Y-4.14
X5.85Y-3.625
X5.85Y-3.75
X5.925Y-3.625
X5.925Y-3.75
X5.96Y-4.08
X5.96Y-4.3
X6.0Y-3.625
X6.0Y-3.75
X6.23Y-3.57
X6.23Y-3.65
X6.23Y-3.73
X6.23Y-3.82
X6.23Y-3.92
X6.23Y-4.01
X6.23Y-4.1
X6.23Y-4.18
X6.41Y-3.57
X6.41Y-3.65
X6.41Y-3.73
X6.41Y-3.82
X6.41Y-3.92
X6.41Y-4.01
X6.41Y-4.1
X6.41Y-4.18
X6.51Y-3.69
X6.52Y-3.89
X6.57Y-3.69
X6.6Y-3.95
X6.64Y-4.1
X6.64Y-4.18
X6.64Y-4.28
X6.7Y-3.93
X6.745Y-3.64
X6.76Y-3.89
X6.785Y-3.745
X6.84Y-4.33
X6.855Y-3.63
X6.855Y-3.745
X6.92Y-3.63
X6.92Y-3.745
X6.92Y-3.87
X6.935Y-3.945
X6.945Y-4.14
X6.965Y-3.745
X7.0436Y-4.0514
X7.045Y-4.14
X7.0736Y-3.7964
X7.115Y-3.8
X7.1436Y-4.0514
X7.145Y-4.14
X7.21Y-3.945
X7.22Y-3.87
X7.2436Y-4.0514
X7.245Y-4.135
X7.38Y-3.635
X7.38Y-3.745
X7.45Y-3.635
X7.45Y-3.745
X7.5Y-4.1
X7.5Y-4.28
X7.515Y-3.635
X7.515Y-3.745
X7.71Y-3.6
X7.71Y-3.85
X7.71Y-3.94
X7.71Y-4.02
X7.71Y-4.1
X7.73Y-3.56
X7.76Y-3.65
X7.76Y-3.73
X7.76Y-4.18
X7.87Y-3.65
X7.88Y-3.73
X7.91Y-3.56
X7.91Y-3.85
X7.91Y-3.94
X7.91Y-4.02
X7.91Y-4.1
X7.91Y-4.18
X7.93Y-3.6
X7.97Y-3.69
X8.025Y-3.9
X8.035Y-3.69
X8.04Y-4.1
X8.04Y-4.26
X8.09Y-3.955
X8.12Y-4.1
X8.12Y-4.18
X8.12Y-4.26
X8.185Y-3.93
X8.2Y-4.1
X8.2Y-4.26
X8.24Y-3.88
X8.27Y-3.63
X8.27Y-3.75
X8.34Y-3.63
X8.34Y-3.75
X8.345Y-4.32
X8.405Y-3.63
X8.405Y-3.75
X8.43Y-3.875
X8.43Y-3.945
X8.445Y-4.1585
X8.455Y-3.745
X8.48Y-3.8319
X8.5436Y-4.0514
X8.545Y-4.14
X8.57Y-3.805
X8.614Y-3.8
X8.6436Y-4.0514
X8.645Y-4.14
X8.66Y-3.83
X8.71Y-3.875
X8.71Y-3.96
X8.7436Y-4.0514
X8.745Y-4.135
X8.91Y-3.63
X8.91Y-3.745
X8.92Y-4.1
X8.92Y-4.26
X8.98Y-3.63
X8.98Y-3.745
X9.0Y-4.1
X9.0Y-4.18
X9.0Y-4.26
X9.045Y-3.63
X9.045Y-3.745
X9.08Y-4.1
X9.08Y-4.26
X9.22Y-3.58
X9.22Y-3.8
X9.22Y-3.88
X9.22Y-3.97
X9.22Y-4.06
X9.22Y-4.17
X9.265Y-3.655
X9.265Y-3.725
X9.375Y-3.655
X9.375Y-3.725
X9.4Y-4.17
X9.41Y-3.8
X9.41Y-3.88
X9.41Y-3.97
X9.42Y-3.58
X9.43Y-4.06
X9.47Y-3.69
X9.525Y-3.9
X9.535Y-3.69
X9.58Y-4.28
X9.59Y-3.955
X9.66Y-4.28
X9.685Y-3.93
X9.74Y-3.88
X9.74Y-4.28
X9.845Y-4.32
X9.93Y-3.875
X9.93Y-3.945
X9.945Y-4.145
X9.95Y-3.745
X9.98Y-3.8319
X10.0436Y-4.0514
X10.045Y-4.15
X10.07Y-3.805
X10.1Y-4.14
X10.114Y-3.806
X10.1436Y-4.0514
X10.145Y-4.14
X10.16Y-3.83
X10.2Y-4.14
X10.21Y-3.875
X10.21Y-3.96
X10.2436Y-4.0514
X10.245Y-4.14
T2
X1.45Y-2.98
X1.55Y-2.98
X1.65Y-2.98
X1.6748Y-3.6498
X1.6748Y-3.9498
X1.6748Y-4.0998
X1.675Y-3.4998
X1.675Y-3.7998
X1.75Y-2.98
X1.7748Y-3.6498
X1.7748Y-3.9498
X1.7748Y-4.0998
X1.775Y-3.4998
X1.775Y-3.7998
X1.81Y-4.88
X1.85Y-2.98
X1.8748Y-3.6498
X1.875Y-3.4998
X1.875Y-3.7998
X1.91Y-4.88
X1.95Y-2.98
X1.955Y-3.12
X1.9748Y-3.6498
X1.975Y-3.4998
X1.975Y-3.7998
X2.01Y-4.88
X2.05Y-2.98
X2.055Y-3.12
X2.0748Y-3.6498
X2.075Y-3.4998
X2.11Y-4.88
X2.15Y-2.98
X2.155Y-3.12
X2.1748Y-3.6498
X2.175Y-3.4998
X2.21Y-4.88
X2.25Y-2.98
X2.255Y-3.12
X2.31Y-4.88
X2.35Y-2.98
X2.41Y-4.88
X2.51Y-2.98
X2.51Y-4.88
X2.61Y-2.98
X2.71Y-2.98
X2.71Y-4.88
X2.81Y-2.98
X2.81Y-4.88
X2.91Y-2.98
X2.91Y-4.88
X3.0048Y-3.8998
X3.0048Y-3.9998
X3.0048Y-4.0998
X3.0048Y-4.1998
X3.01Y-2.98
X3.01Y-4.88
X3.11Y-2.98
X3.11Y-4.88
X3.21Y-2.98
X3.21Y-4.88
T3
X1.12Y-3.83
X1.12Y-3.9678
T0
M30
