%TF.GenerationSoftware,KiCad,Pcbnew,5.1.12-84ad8e8a86~92~ubuntu20.04.1*%
%TF.CreationDate,2022-02-24T18:35:21+01:00*%
%TF.ProjectId,GestureControl,47657374-7572-4654-936f-6e74726f6c2e,V0.1*%
%TF.SameCoordinates,Original*%
%TF.FileFunction,Paste,Bot*%
%TF.FilePolarity,Positive*%
%FSLAX46Y46*%
G04 Gerber Fmt 4.6, Leading zero omitted, Abs format (unit mm)*
G04 Created by KiCad (PCBNEW 5.1.12-84ad8e8a86~92~ubuntu20.04.1) date 2022-02-24 18:35:21*
%MOMM*%
%LPD*%
G01*
G04 APERTURE LIST*
%ADD10R,1.500000X2.000000*%
%ADD11R,3.800000X2.000000*%
%ADD12R,3.500000X1.800000*%
G04 APERTURE END LIST*
D10*
%TO.C,U2*%
X131332000Y-92812000D03*
X126732000Y-92812000D03*
X129032000Y-92812000D03*
D11*
X129032000Y-86512000D03*
%TD*%
D10*
%TO.C,U1*%
X141746000Y-92812000D03*
X137146000Y-92812000D03*
X139446000Y-92812000D03*
D11*
X139446000Y-86512000D03*
%TD*%
%TO.C,R22*%
G36*
G01*
X160331999Y-52232000D02*
X161232001Y-52232000D01*
G75*
G02*
X161482000Y-52481999I0J-249999D01*
G01*
X161482000Y-53182001D01*
G75*
G02*
X161232001Y-53432000I-249999J0D01*
G01*
X160331999Y-53432000D01*
G75*
G02*
X160082000Y-53182001I0J249999D01*
G01*
X160082000Y-52481999D01*
G75*
G02*
X160331999Y-52232000I249999J0D01*
G01*
G37*
G36*
G01*
X160331999Y-50232000D02*
X161232001Y-50232000D01*
G75*
G02*
X161482000Y-50481999I0J-249999D01*
G01*
X161482000Y-51182001D01*
G75*
G02*
X161232001Y-51432000I-249999J0D01*
G01*
X160331999Y-51432000D01*
G75*
G02*
X160082000Y-51182001I0J249999D01*
G01*
X160082000Y-50481999D01*
G75*
G02*
X160331999Y-50232000I249999J0D01*
G01*
G37*
%TD*%
%TO.C,R21*%
G36*
G01*
X161232001Y-55972000D02*
X160331999Y-55972000D01*
G75*
G02*
X160082000Y-55722001I0J249999D01*
G01*
X160082000Y-55021999D01*
G75*
G02*
X160331999Y-54772000I249999J0D01*
G01*
X161232001Y-54772000D01*
G75*
G02*
X161482000Y-55021999I0J-249999D01*
G01*
X161482000Y-55722001D01*
G75*
G02*
X161232001Y-55972000I-249999J0D01*
G01*
G37*
G36*
G01*
X161232001Y-57972000D02*
X160331999Y-57972000D01*
G75*
G02*
X160082000Y-57722001I0J249999D01*
G01*
X160082000Y-57021999D01*
G75*
G02*
X160331999Y-56772000I249999J0D01*
G01*
X161232001Y-56772000D01*
G75*
G02*
X161482000Y-57021999I0J-249999D01*
G01*
X161482000Y-57722001D01*
G75*
G02*
X161232001Y-57972000I-249999J0D01*
G01*
G37*
%TD*%
%TO.C,R20*%
G36*
G01*
X141062000Y-50349999D02*
X141062000Y-51250001D01*
G75*
G02*
X140812001Y-51500000I-249999J0D01*
G01*
X140111999Y-51500000D01*
G75*
G02*
X139862000Y-51250001I0J249999D01*
G01*
X139862000Y-50349999D01*
G75*
G02*
X140111999Y-50100000I249999J0D01*
G01*
X140812001Y-50100000D01*
G75*
G02*
X141062000Y-50349999I0J-249999D01*
G01*
G37*
G36*
G01*
X143062000Y-50349999D02*
X143062000Y-51250001D01*
G75*
G02*
X142812001Y-51500000I-249999J0D01*
G01*
X142111999Y-51500000D01*
G75*
G02*
X141862000Y-51250001I0J249999D01*
G01*
X141862000Y-50349999D01*
G75*
G02*
X142111999Y-50100000I249999J0D01*
G01*
X142812001Y-50100000D01*
G75*
G02*
X143062000Y-50349999I0J-249999D01*
G01*
G37*
%TD*%
%TO.C,R11*%
G36*
G01*
X141894000Y-55314001D02*
X141894000Y-54413999D01*
G75*
G02*
X142143999Y-54164000I249999J0D01*
G01*
X142844001Y-54164000D01*
G75*
G02*
X143094000Y-54413999I0J-249999D01*
G01*
X143094000Y-55314001D01*
G75*
G02*
X142844001Y-55564000I-249999J0D01*
G01*
X142143999Y-55564000D01*
G75*
G02*
X141894000Y-55314001I0J249999D01*
G01*
G37*
G36*
G01*
X139894000Y-55314001D02*
X139894000Y-54413999D01*
G75*
G02*
X140143999Y-54164000I249999J0D01*
G01*
X140844001Y-54164000D01*
G75*
G02*
X141094000Y-54413999I0J-249999D01*
G01*
X141094000Y-55314001D01*
G75*
G02*
X140844001Y-55564000I-249999J0D01*
G01*
X140143999Y-55564000D01*
G75*
G02*
X139894000Y-55314001I0J249999D01*
G01*
G37*
%TD*%
%TO.C,R10*%
G36*
G01*
X141894000Y-57600001D02*
X141894000Y-56699999D01*
G75*
G02*
X142143999Y-56450000I249999J0D01*
G01*
X142844001Y-56450000D01*
G75*
G02*
X143094000Y-56699999I0J-249999D01*
G01*
X143094000Y-57600001D01*
G75*
G02*
X142844001Y-57850000I-249999J0D01*
G01*
X142143999Y-57850000D01*
G75*
G02*
X141894000Y-57600001I0J249999D01*
G01*
G37*
G36*
G01*
X139894000Y-57600001D02*
X139894000Y-56699999D01*
G75*
G02*
X140143999Y-56450000I249999J0D01*
G01*
X140844001Y-56450000D01*
G75*
G02*
X141094000Y-56699999I0J-249999D01*
G01*
X141094000Y-57600001D01*
G75*
G02*
X140844001Y-57850000I-249999J0D01*
G01*
X140143999Y-57850000D01*
G75*
G02*
X139894000Y-57600001I0J249999D01*
G01*
G37*
%TD*%
%TO.C,R9*%
G36*
G01*
X160182000Y-76396001D02*
X160182000Y-75495999D01*
G75*
G02*
X160431999Y-75246000I249999J0D01*
G01*
X161132001Y-75246000D01*
G75*
G02*
X161382000Y-75495999I0J-249999D01*
G01*
X161382000Y-76396001D01*
G75*
G02*
X161132001Y-76646000I-249999J0D01*
G01*
X160431999Y-76646000D01*
G75*
G02*
X160182000Y-76396001I0J249999D01*
G01*
G37*
G36*
G01*
X158182000Y-76396001D02*
X158182000Y-75495999D01*
G75*
G02*
X158431999Y-75246000I249999J0D01*
G01*
X159132001Y-75246000D01*
G75*
G02*
X159382000Y-75495999I0J-249999D01*
G01*
X159382000Y-76396001D01*
G75*
G02*
X159132001Y-76646000I-249999J0D01*
G01*
X158431999Y-76646000D01*
G75*
G02*
X158182000Y-76396001I0J249999D01*
G01*
G37*
%TD*%
%TO.C,R8*%
G36*
G01*
X160182000Y-83254001D02*
X160182000Y-82353999D01*
G75*
G02*
X160431999Y-82104000I249999J0D01*
G01*
X161132001Y-82104000D01*
G75*
G02*
X161382000Y-82353999I0J-249999D01*
G01*
X161382000Y-83254001D01*
G75*
G02*
X161132001Y-83504000I-249999J0D01*
G01*
X160431999Y-83504000D01*
G75*
G02*
X160182000Y-83254001I0J249999D01*
G01*
G37*
G36*
G01*
X158182000Y-83254001D02*
X158182000Y-82353999D01*
G75*
G02*
X158431999Y-82104000I249999J0D01*
G01*
X159132001Y-82104000D01*
G75*
G02*
X159382000Y-82353999I0J-249999D01*
G01*
X159382000Y-83254001D01*
G75*
G02*
X159132001Y-83504000I-249999J0D01*
G01*
X158431999Y-83504000D01*
G75*
G02*
X158182000Y-83254001I0J249999D01*
G01*
G37*
%TD*%
D12*
%TO.C,D7*%
X131398000Y-100838000D03*
X136398000Y-100838000D03*
%TD*%
%TO.C,D6*%
X122428000Y-46228000D03*
X127428000Y-46228000D03*
%TD*%
%TO.C,C33*%
G36*
G01*
X149526500Y-65245000D02*
X149526500Y-64295000D01*
G75*
G02*
X149776500Y-64045000I250000J0D01*
G01*
X150451500Y-64045000D01*
G75*
G02*
X150701500Y-64295000I0J-250000D01*
G01*
X150701500Y-65245000D01*
G75*
G02*
X150451500Y-65495000I-250000J0D01*
G01*
X149776500Y-65495000D01*
G75*
G02*
X149526500Y-65245000I0J250000D01*
G01*
G37*
G36*
G01*
X147451500Y-65245000D02*
X147451500Y-64295000D01*
G75*
G02*
X147701500Y-64045000I250000J0D01*
G01*
X148376500Y-64045000D01*
G75*
G02*
X148626500Y-64295000I0J-250000D01*
G01*
X148626500Y-65245000D01*
G75*
G02*
X148376500Y-65495000I-250000J0D01*
G01*
X147701500Y-65495000D01*
G75*
G02*
X147451500Y-65245000I0J250000D01*
G01*
G37*
%TD*%
%TO.C,C31*%
G36*
G01*
X144796500Y-68751500D02*
X145271500Y-68751500D01*
G75*
G02*
X145509000Y-68989000I0J-237500D01*
G01*
X145509000Y-69589000D01*
G75*
G02*
X145271500Y-69826500I-237500J0D01*
G01*
X144796500Y-69826500D01*
G75*
G02*
X144559000Y-69589000I0J237500D01*
G01*
X144559000Y-68989000D01*
G75*
G02*
X144796500Y-68751500I237500J0D01*
G01*
G37*
G36*
G01*
X144796500Y-67026500D02*
X145271500Y-67026500D01*
G75*
G02*
X145509000Y-67264000I0J-237500D01*
G01*
X145509000Y-67864000D01*
G75*
G02*
X145271500Y-68101500I-237500J0D01*
G01*
X144796500Y-68101500D01*
G75*
G02*
X144559000Y-67864000I0J237500D01*
G01*
X144559000Y-67264000D01*
G75*
G02*
X144796500Y-67026500I237500J0D01*
G01*
G37*
%TD*%
%TO.C,C30*%
G36*
G01*
X144813000Y-74385500D02*
X145763000Y-74385500D01*
G75*
G02*
X146013000Y-74635500I0J-250000D01*
G01*
X146013000Y-75310500D01*
G75*
G02*
X145763000Y-75560500I-250000J0D01*
G01*
X144813000Y-75560500D01*
G75*
G02*
X144563000Y-75310500I0J250000D01*
G01*
X144563000Y-74635500D01*
G75*
G02*
X144813000Y-74385500I250000J0D01*
G01*
G37*
G36*
G01*
X144813000Y-72310500D02*
X145763000Y-72310500D01*
G75*
G02*
X146013000Y-72560500I0J-250000D01*
G01*
X146013000Y-73235500D01*
G75*
G02*
X145763000Y-73485500I-250000J0D01*
G01*
X144813000Y-73485500D01*
G75*
G02*
X144563000Y-73235500I0J250000D01*
G01*
X144563000Y-72560500D01*
G75*
G02*
X144813000Y-72310500I250000J0D01*
G01*
G37*
%TD*%
%TO.C,C29*%
G36*
G01*
X157717500Y-66577500D02*
X157242500Y-66577500D01*
G75*
G02*
X157005000Y-66340000I0J237500D01*
G01*
X157005000Y-65740000D01*
G75*
G02*
X157242500Y-65502500I237500J0D01*
G01*
X157717500Y-65502500D01*
G75*
G02*
X157955000Y-65740000I0J-237500D01*
G01*
X157955000Y-66340000D01*
G75*
G02*
X157717500Y-66577500I-237500J0D01*
G01*
G37*
G36*
G01*
X157717500Y-68302500D02*
X157242500Y-68302500D01*
G75*
G02*
X157005000Y-68065000I0J237500D01*
G01*
X157005000Y-67465000D01*
G75*
G02*
X157242500Y-67227500I237500J0D01*
G01*
X157717500Y-67227500D01*
G75*
G02*
X157955000Y-67465000I0J-237500D01*
G01*
X157955000Y-68065000D01*
G75*
G02*
X157717500Y-68302500I-237500J0D01*
G01*
G37*
%TD*%
%TO.C,C28*%
G36*
G01*
X143018500Y-74138500D02*
X143493500Y-74138500D01*
G75*
G02*
X143731000Y-74376000I0J-237500D01*
G01*
X143731000Y-74976000D01*
G75*
G02*
X143493500Y-75213500I-237500J0D01*
G01*
X143018500Y-75213500D01*
G75*
G02*
X142781000Y-74976000I0J237500D01*
G01*
X142781000Y-74376000D01*
G75*
G02*
X143018500Y-74138500I237500J0D01*
G01*
G37*
G36*
G01*
X143018500Y-72413500D02*
X143493500Y-72413500D01*
G75*
G02*
X143731000Y-72651000I0J-237500D01*
G01*
X143731000Y-73251000D01*
G75*
G02*
X143493500Y-73488500I-237500J0D01*
G01*
X143018500Y-73488500D01*
G75*
G02*
X142781000Y-73251000I0J237500D01*
G01*
X142781000Y-72651000D01*
G75*
G02*
X143018500Y-72413500I237500J0D01*
G01*
G37*
%TD*%
%TO.C,C23*%
G36*
G01*
X143018500Y-68751500D02*
X143493500Y-68751500D01*
G75*
G02*
X143731000Y-68989000I0J-237500D01*
G01*
X143731000Y-69589000D01*
G75*
G02*
X143493500Y-69826500I-237500J0D01*
G01*
X143018500Y-69826500D01*
G75*
G02*
X142781000Y-69589000I0J237500D01*
G01*
X142781000Y-68989000D01*
G75*
G02*
X143018500Y-68751500I237500J0D01*
G01*
G37*
G36*
G01*
X143018500Y-67026500D02*
X143493500Y-67026500D01*
G75*
G02*
X143731000Y-67264000I0J-237500D01*
G01*
X143731000Y-67864000D01*
G75*
G02*
X143493500Y-68101500I-237500J0D01*
G01*
X143018500Y-68101500D01*
G75*
G02*
X142781000Y-67864000I0J237500D01*
G01*
X142781000Y-67264000D01*
G75*
G02*
X143018500Y-67026500I237500J0D01*
G01*
G37*
%TD*%
%TO.C,C22*%
G36*
G01*
X133929000Y-67293500D02*
X133929000Y-66818500D01*
G75*
G02*
X134166500Y-66581000I237500J0D01*
G01*
X134766500Y-66581000D01*
G75*
G02*
X135004000Y-66818500I0J-237500D01*
G01*
X135004000Y-67293500D01*
G75*
G02*
X134766500Y-67531000I-237500J0D01*
G01*
X134166500Y-67531000D01*
G75*
G02*
X133929000Y-67293500I0J237500D01*
G01*
G37*
G36*
G01*
X132204000Y-67293500D02*
X132204000Y-66818500D01*
G75*
G02*
X132441500Y-66581000I237500J0D01*
G01*
X133041500Y-66581000D01*
G75*
G02*
X133279000Y-66818500I0J-237500D01*
G01*
X133279000Y-67293500D01*
G75*
G02*
X133041500Y-67531000I-237500J0D01*
G01*
X132441500Y-67531000D01*
G75*
G02*
X132204000Y-67293500I0J237500D01*
G01*
G37*
%TD*%
%TO.C,C21*%
G36*
G01*
X134903500Y-52594500D02*
X134903500Y-53069500D01*
G75*
G02*
X134666000Y-53307000I-237500J0D01*
G01*
X134066000Y-53307000D01*
G75*
G02*
X133828500Y-53069500I0J237500D01*
G01*
X133828500Y-52594500D01*
G75*
G02*
X134066000Y-52357000I237500J0D01*
G01*
X134666000Y-52357000D01*
G75*
G02*
X134903500Y-52594500I0J-237500D01*
G01*
G37*
G36*
G01*
X136628500Y-52594500D02*
X136628500Y-53069500D01*
G75*
G02*
X136391000Y-53307000I-237500J0D01*
G01*
X135791000Y-53307000D01*
G75*
G02*
X135553500Y-53069500I0J237500D01*
G01*
X135553500Y-52594500D01*
G75*
G02*
X135791000Y-52357000I237500J0D01*
G01*
X136391000Y-52357000D01*
G75*
G02*
X136628500Y-52594500I0J-237500D01*
G01*
G37*
%TD*%
%TO.C,C20*%
G36*
G01*
X141306500Y-52594500D02*
X141306500Y-53069500D01*
G75*
G02*
X141069000Y-53307000I-237500J0D01*
G01*
X140469000Y-53307000D01*
G75*
G02*
X140231500Y-53069500I0J237500D01*
G01*
X140231500Y-52594500D01*
G75*
G02*
X140469000Y-52357000I237500J0D01*
G01*
X141069000Y-52357000D01*
G75*
G02*
X141306500Y-52594500I0J-237500D01*
G01*
G37*
G36*
G01*
X143031500Y-52594500D02*
X143031500Y-53069500D01*
G75*
G02*
X142794000Y-53307000I-237500J0D01*
G01*
X142194000Y-53307000D01*
G75*
G02*
X141956500Y-53069500I0J237500D01*
G01*
X141956500Y-52594500D01*
G75*
G02*
X142194000Y-52357000I237500J0D01*
G01*
X142794000Y-52357000D01*
G75*
G02*
X143031500Y-52594500I0J-237500D01*
G01*
G37*
%TD*%
%TO.C,C19*%
G36*
G01*
X133929000Y-71103500D02*
X133929000Y-70628500D01*
G75*
G02*
X134166500Y-70391000I237500J0D01*
G01*
X134766500Y-70391000D01*
G75*
G02*
X135004000Y-70628500I0J-237500D01*
G01*
X135004000Y-71103500D01*
G75*
G02*
X134766500Y-71341000I-237500J0D01*
G01*
X134166500Y-71341000D01*
G75*
G02*
X133929000Y-71103500I0J237500D01*
G01*
G37*
G36*
G01*
X132204000Y-71103500D02*
X132204000Y-70628500D01*
G75*
G02*
X132441500Y-70391000I237500J0D01*
G01*
X133041500Y-70391000D01*
G75*
G02*
X133279000Y-70628500I0J-237500D01*
G01*
X133279000Y-71103500D01*
G75*
G02*
X133041500Y-71341000I-237500J0D01*
G01*
X132441500Y-71341000D01*
G75*
G02*
X132204000Y-71103500I0J237500D01*
G01*
G37*
%TD*%
%TO.C,C18*%
G36*
G01*
X130843000Y-80946500D02*
X131793000Y-80946500D01*
G75*
G02*
X132043000Y-81196500I0J-250000D01*
G01*
X132043000Y-81871500D01*
G75*
G02*
X131793000Y-82121500I-250000J0D01*
G01*
X130843000Y-82121500D01*
G75*
G02*
X130593000Y-81871500I0J250000D01*
G01*
X130593000Y-81196500D01*
G75*
G02*
X130843000Y-80946500I250000J0D01*
G01*
G37*
G36*
G01*
X130843000Y-78871500D02*
X131793000Y-78871500D01*
G75*
G02*
X132043000Y-79121500I0J-250000D01*
G01*
X132043000Y-79796500D01*
G75*
G02*
X131793000Y-80046500I-250000J0D01*
G01*
X130843000Y-80046500D01*
G75*
G02*
X130593000Y-79796500I0J250000D01*
G01*
X130593000Y-79121500D01*
G75*
G02*
X130843000Y-78871500I250000J0D01*
G01*
G37*
%TD*%
%TO.C,C17*%
G36*
G01*
X131793000Y-75771500D02*
X130843000Y-75771500D01*
G75*
G02*
X130593000Y-75521500I0J250000D01*
G01*
X130593000Y-74846500D01*
G75*
G02*
X130843000Y-74596500I250000J0D01*
G01*
X131793000Y-74596500D01*
G75*
G02*
X132043000Y-74846500I0J-250000D01*
G01*
X132043000Y-75521500D01*
G75*
G02*
X131793000Y-75771500I-250000J0D01*
G01*
G37*
G36*
G01*
X131793000Y-77846500D02*
X130843000Y-77846500D01*
G75*
G02*
X130593000Y-77596500I0J250000D01*
G01*
X130593000Y-76921500D01*
G75*
G02*
X130843000Y-76671500I250000J0D01*
G01*
X131793000Y-76671500D01*
G75*
G02*
X132043000Y-76921500I0J-250000D01*
G01*
X132043000Y-77596500D01*
G75*
G02*
X131793000Y-77846500I-250000J0D01*
G01*
G37*
%TD*%
%TO.C,C2*%
G36*
G01*
X159287500Y-77740500D02*
X159287500Y-78215500D01*
G75*
G02*
X159050000Y-78453000I-237500J0D01*
G01*
X158450000Y-78453000D01*
G75*
G02*
X158212500Y-78215500I0J237500D01*
G01*
X158212500Y-77740500D01*
G75*
G02*
X158450000Y-77503000I237500J0D01*
G01*
X159050000Y-77503000D01*
G75*
G02*
X159287500Y-77740500I0J-237500D01*
G01*
G37*
G36*
G01*
X161012500Y-77740500D02*
X161012500Y-78215500D01*
G75*
G02*
X160775000Y-78453000I-237500J0D01*
G01*
X160175000Y-78453000D01*
G75*
G02*
X159937500Y-78215500I0J237500D01*
G01*
X159937500Y-77740500D01*
G75*
G02*
X160175000Y-77503000I237500J0D01*
G01*
X160775000Y-77503000D01*
G75*
G02*
X161012500Y-77740500I0J-237500D01*
G01*
G37*
%TD*%
%TO.C,C1*%
G36*
G01*
X159287500Y-84598500D02*
X159287500Y-85073500D01*
G75*
G02*
X159050000Y-85311000I-237500J0D01*
G01*
X158450000Y-85311000D01*
G75*
G02*
X158212500Y-85073500I0J237500D01*
G01*
X158212500Y-84598500D01*
G75*
G02*
X158450000Y-84361000I237500J0D01*
G01*
X159050000Y-84361000D01*
G75*
G02*
X159287500Y-84598500I0J-237500D01*
G01*
G37*
G36*
G01*
X161012500Y-84598500D02*
X161012500Y-85073500D01*
G75*
G02*
X160775000Y-85311000I-237500J0D01*
G01*
X160175000Y-85311000D01*
G75*
G02*
X159937500Y-85073500I0J237500D01*
G01*
X159937500Y-84598500D01*
G75*
G02*
X160175000Y-84361000I237500J0D01*
G01*
X160775000Y-84361000D01*
G75*
G02*
X161012500Y-84598500I0J-237500D01*
G01*
G37*
%TD*%
M02*
