M48
; DRILL file {KiCad (6.0.2)} date Thu Mar 10 15:52:02 2022
; FORMAT={-:-/ absolute / inch / decimal}
; #@! TF.CreationDate,2022-03-10T15:52:02+01:00
; #@! TF.GenerationSoftware,Kicad,Pcbnew,(6.0.2)
; #@! TF.FileFunction,Plated,1,4,PTH
FMAT,2
INCH
; #@! TA.AperFunction,Plated,PTH,ViaDrill
T1C0.0157
; #@! TA.AperFunction,Plated,PTH,ComponentDrill
T2C0.0394
; #@! TA.AperFunction,Plated,PTH,ComponentDrill
T3C0.0472
%
G90
G05
T1
X1.7Y-4.82
X1.73Y-4.265
X1.74Y-4.82
X1.765Y-5.57
X1.765Y-5.71
X1.77Y-4.265
X1.78Y-4.82
X1.8Y-4.64
X1.8Y-4.68
X1.8Y-4.72
X1.805Y-5.825
X1.805Y-5.88
X1.805Y-5.935
X1.81Y-4.265
X1.815Y-5.57
X1.815Y-5.71
X1.845Y-5.825
X1.845Y-5.88
X1.845Y-5.935
X1.85Y-4.265
X1.865Y-5.57
X1.865Y-5.71
X1.915Y-4.69
X1.915Y-4.73
X1.97Y-4.555
X1.97Y-4.69
X1.97Y-4.73
X1.98Y-5.9
X1.98Y-5.94
X2.02Y-4.135
X2.02Y-4.18
X2.025Y-4.69
X2.025Y-4.73
X2.04Y-4.235
X2.08Y-4.235
X2.12Y-4.39
X2.12Y-4.43
X2.135Y-5.935
X2.135Y-5.975
X2.175Y-5.935
X2.175Y-5.975
X2.215Y-4.65
X2.235Y-5.945
X2.235Y-5.99
X2.255Y-4.9817
X2.255Y-5.0217
X2.255Y-5.0617
X2.255Y-5.1017
X2.28Y-4.55
X2.28Y-4.59
X2.28Y-4.63
X2.305Y-5.945
X2.305Y-5.99
X2.305Y-6.035
X2.305Y-6.08
X2.375Y-5.945
X2.375Y-5.99
X2.4Y-4.55
X2.4Y-4.59
X2.4Y-4.63
X2.42Y-4.37
X2.44Y-5.62
X2.44Y-5.67
X2.44Y-5.72
X2.44Y-5.77
X2.5Y-5.62
X2.5Y-5.67
X2.5Y-5.72
X2.5Y-5.77
X2.5048Y-4.4998
X2.6048Y-4.5098
X2.66Y-5.58
X2.7048Y-4.5098
X2.7248Y-4.9498
X2.7348Y-5.2298
X2.735Y-5.27
X2.7648Y-5.1298
X2.7648Y-5.3098
X2.7648Y-5.5898
X2.8048Y-4.5098
X2.8235Y-5.5365
X2.885Y-5.65
X2.895Y-4.68
X2.9048Y-4.5098
X2.9448Y-4.9498
X2.965Y-4.455
X2.9748Y-5.1998
X3.0448Y-5.3298
X3.1148Y-5.3098
X3.1348Y-4.9348
X3.1548Y-4.8598
X3.1898Y-5.2848
X3.1948Y-5.2398
X3.2048Y-4.6448
X3.2148Y-5.1398
X3.2216Y-5.0398
X3.2248Y-5.1798
X3.2348Y-5.2798
X3.2448Y-4.8348
X3.2548Y-4.7598
X3.2925Y-5.8325
X3.3048Y-5.1498
X3.3248Y-5.8498
X3.3348Y-4.7998
X3.3448Y-4.9598
X3.3448Y-5.4398
X3.3538Y-4.7242
X3.3575Y-5.8325
X3.4048Y-5.2698
X3.4248Y-5.1198
X3.4448Y-5.2698
X3.4533Y-4.98
X3.4648Y-5.1198
X3.4847Y-4.9512
X3.5048Y-5.1198
X3.5348Y-4.8498
X3.5398Y-4.8998
X3.565Y-5.31
X3.5782Y-4.9332
X3.5848Y-4.7998
X3.5848Y-4.8498
X3.5908Y-4.7104
X3.5924Y-4.7526
X3.63Y-5.3402
X3.645Y-4.71
X3.67Y-5.505
X3.6748Y-4.9498
X3.705Y-5.53
X3.71Y-5.235
X3.71Y-5.275
X3.7351Y-4.6893
X3.74Y-5.505
X3.775Y-5.53
X3.83Y-4.66
X3.835Y-4.805
X3.9248Y-5.0099
X3.9251Y-5.0492
X3.9344Y-4.9233
X3.9348Y-4.7398
X3.9348Y-4.8298
X3.9395Y-5.1898
X4.11Y-4.6885
X4.185Y-4.66
X4.2842Y-5.0098
X4.305Y-5.075
X4.305Y-5.41
X4.31Y-5.545
X4.34Y-5.39
X4.34Y-5.575
X4.37Y-5.5433
X4.375Y-5.41
X4.48Y-5.395
X4.48Y-5.44
X4.58Y-5.505
X4.7Y-5.74
X4.7Y-5.8
X4.71Y-4.32
X4.71Y-4.365
X4.71Y-4.42
X4.72Y-5.3
X4.72Y-5.34
X4.72Y-5.4
X4.73Y-5.85
X4.75Y-4.95
X4.82Y-5.21
X4.83Y-4.62
X4.83Y-5.59
X4.83Y-5.85
X4.85Y-4.98
X4.86Y-5.21
X4.88Y-5.85
X4.9286Y-4.3464
X4.9286Y-5.3214
X4.93Y-4.62
X4.93Y-5.245
X4.93Y-5.59
X4.93Y-5.85
X4.96Y-5.02
X4.98Y-5.85
X4.985Y-5.245
X5.0286Y-4.3464
X5.0286Y-5.3214
X5.03Y-5.41
X5.03Y-6.09
X5.0478Y-5.2082
X5.08Y-5.0
X5.08Y-5.85
X5.1286Y-4.3464
X5.1286Y-5.3214
X5.13Y-6.04
X5.17Y-5.0
X5.18Y-5.425
X5.18Y-5.85
X5.37Y-4.895
X5.4Y-4.925
X5.43Y-5.3583
X5.43Y-5.47
X5.44Y-4.84
X5.47Y-5.34
X5.47Y-5.47
X5.5Y-4.785
X5.565Y-4.79
X6.01Y-4.99
X6.08Y-4.81
X6.08Y-4.92
X6.18Y-4.84
X6.205Y-5.545
X6.2594Y-5.1106
X6.3Y-5.37
X6.3171Y-5.0876
X6.325Y-5.18
X6.36Y-5.025
X6.405Y-5.28
X6.405Y-5.37
X6.415Y-5.025
X6.4544Y-5.12
X6.455Y-5.04
X6.455Y-5.17
X6.5036Y-5.2814
X6.505Y-5.37
X6.585Y-5.1
X6.6036Y-5.2814
X6.605Y-5.205
X6.605Y-5.37
X7.37Y-4.92
X7.38Y-5.12
X7.43Y-4.92
X7.46Y-5.18
X7.56Y-5.16
X7.62Y-5.12
X7.7Y-5.56
X7.78Y-5.1
X7.795Y-5.175
X7.805Y-5.37
X7.82Y-4.975
X7.835Y-5.0491
X7.9036Y-5.2814
X7.905Y-5.37
X7.9336Y-5.0264
X7.975Y-5.03
X8.0036Y-5.2814
X8.005Y-5.37
X8.07Y-5.175
X8.08Y-5.1
X8.1036Y-5.2814
X8.105Y-5.37
X8.83Y-4.92
X8.885Y-5.13
X8.895Y-4.92
X8.95Y-5.185
X9.045Y-5.16
X9.1Y-5.11
X9.183Y-5.105
X9.205Y-5.55
X9.29Y-5.105
X9.29Y-5.175
X9.305Y-5.36
X9.315Y-4.98
X9.34Y-5.0619
X9.4036Y-5.2814
X9.405Y-5.365
X9.43Y-5.035
X9.47Y-5.035
X9.5036Y-5.2814
X9.505Y-5.37
X9.52Y-5.06
X9.57Y-5.105
X9.57Y-5.19
X9.6036Y-5.2814
X9.605Y-5.37
T2
X2.31Y-4.21
X2.41Y-4.21
X2.51Y-4.21
X2.5348Y-4.8798
X2.5348Y-5.1798
X2.5348Y-5.3298
X2.61Y-4.21
X2.6348Y-4.7298
X2.6348Y-4.8798
X2.6348Y-5.0298
X2.6348Y-5.1798
X2.6348Y-5.3298
X2.67Y-6.11
X2.71Y-4.21
X2.7348Y-4.7298
X2.7348Y-4.8798
X2.7348Y-5.0298
X2.77Y-6.11
X2.81Y-4.21
X2.815Y-4.35
X2.8348Y-4.7298
X2.8348Y-4.8798
X2.8348Y-5.0298
X2.87Y-6.11
X2.91Y-4.21
X2.915Y-4.35
X2.9348Y-4.7298
X2.9348Y-4.8798
X2.9348Y-5.0298
X2.97Y-6.11
X3.01Y-4.21
X3.015Y-4.35
X3.0348Y-4.7298
X3.0348Y-4.8798
X3.07Y-6.11
X3.11Y-4.21
X3.115Y-4.35
X3.1348Y-4.7298
X3.17Y-6.11
X3.21Y-4.21
X3.27Y-6.11
X3.37Y-4.21
X3.37Y-6.11
X3.47Y-4.21
X3.57Y-4.21
X3.57Y-6.11
X3.67Y-4.21
X3.67Y-6.11
X3.77Y-4.21
X3.77Y-6.11
X3.8648Y-5.1298
X3.8648Y-5.2298
X3.8648Y-5.3298
X3.8648Y-5.4298
X3.87Y-4.21
X3.87Y-6.11
X3.97Y-4.21
X3.97Y-6.11
X4.07Y-4.21
X4.07Y-6.11
T3
X1.98Y-5.06
X1.98Y-5.1978
T0
M30
