%TF.GenerationSoftware,KiCad,Pcbnew,(6.0.2)*%
%TF.CreationDate,2022-03-11T12:30:30+01:00*%
%TF.ProjectId,GestureControl,47657374-7572-4654-936f-6e74726f6c2e,V0.1*%
%TF.SameCoordinates,Original*%
%TF.FileFunction,Legend,Top*%
%TF.FilePolarity,Positive*%
%FSLAX46Y46*%
G04 Gerber Fmt 4.6, Leading zero omitted, Abs format (unit mm)*
G04 Created by KiCad (PCBNEW (6.0.2)) date 2022-03-11 12:30:30*
%MOMM*%
%LPD*%
G01*
G04 APERTURE LIST*
%ADD10C,0.200000*%
%ADD11C,0.300000*%
%ADD12C,0.150000*%
%ADD13C,0.120000*%
%ADD14C,0.100000*%
G04 APERTURE END LIST*
D10*
X36234857Y-100258571D02*
X36377714Y-100306190D01*
X36425333Y-100353809D01*
X36472952Y-100449047D01*
X36472952Y-100591904D01*
X36425333Y-100687142D01*
X36377714Y-100734761D01*
X36282476Y-100782380D01*
X35901523Y-100782380D01*
X35901523Y-99782380D01*
X36234857Y-99782380D01*
X36330095Y-99830000D01*
X36377714Y-99877619D01*
X36425333Y-99972857D01*
X36425333Y-100068095D01*
X36377714Y-100163333D01*
X36330095Y-100210952D01*
X36234857Y-100258571D01*
X35901523Y-100258571D01*
X37092000Y-99782380D02*
X37282476Y-99782380D01*
X37377714Y-99830000D01*
X37472952Y-99925238D01*
X37520571Y-100115714D01*
X37520571Y-100449047D01*
X37472952Y-100639523D01*
X37377714Y-100734761D01*
X37282476Y-100782380D01*
X37092000Y-100782380D01*
X36996761Y-100734761D01*
X36901523Y-100639523D01*
X36853904Y-100449047D01*
X36853904Y-100115714D01*
X36901523Y-99925238D01*
X36996761Y-99830000D01*
X37092000Y-99782380D01*
X38139619Y-99782380D02*
X38330095Y-99782380D01*
X38425333Y-99830000D01*
X38520571Y-99925238D01*
X38568190Y-100115714D01*
X38568190Y-100449047D01*
X38520571Y-100639523D01*
X38425333Y-100734761D01*
X38330095Y-100782380D01*
X38139619Y-100782380D01*
X38044380Y-100734761D01*
X37949142Y-100639523D01*
X37901523Y-100449047D01*
X37901523Y-100115714D01*
X37949142Y-99925238D01*
X38044380Y-99830000D01*
X38139619Y-99782380D01*
X38853904Y-99782380D02*
X39425333Y-99782380D01*
X39139619Y-100782380D02*
X39139619Y-99782380D01*
X71858142Y-114376476D02*
X71905761Y-114424095D01*
X71953380Y-114566952D01*
X71953380Y-114662190D01*
X71905761Y-114805047D01*
X71810523Y-114900285D01*
X71715285Y-114947904D01*
X71524809Y-114995523D01*
X71381952Y-114995523D01*
X71191476Y-114947904D01*
X71096238Y-114900285D01*
X71001000Y-114805047D01*
X70953380Y-114662190D01*
X70953380Y-114566952D01*
X71001000Y-114424095D01*
X71048619Y-114376476D01*
X71953380Y-113471714D02*
X71953380Y-113947904D01*
X70953380Y-113947904D01*
X71048619Y-113186000D02*
X71001000Y-113138380D01*
X70953380Y-113043142D01*
X70953380Y-112805047D01*
X71001000Y-112709809D01*
X71048619Y-112662190D01*
X71143857Y-112614571D01*
X71239095Y-112614571D01*
X71381952Y-112662190D01*
X71953380Y-113233619D01*
X71953380Y-112614571D01*
X27561904Y-93226000D02*
X27466666Y-93178380D01*
X27323809Y-93178380D01*
X27180952Y-93226000D01*
X27085714Y-93321238D01*
X27038095Y-93416476D01*
X26990476Y-93606952D01*
X26990476Y-93749809D01*
X27038095Y-93940285D01*
X27085714Y-94035523D01*
X27180952Y-94130761D01*
X27323809Y-94178380D01*
X27419047Y-94178380D01*
X27561904Y-94130761D01*
X27609523Y-94083142D01*
X27609523Y-93749809D01*
X27419047Y-93749809D01*
X28038095Y-94178380D02*
X28038095Y-93178380D01*
X28609523Y-94178380D01*
X28609523Y-93178380D01*
X29085714Y-94178380D02*
X29085714Y-93178380D01*
X29323809Y-93178380D01*
X29466666Y-93226000D01*
X29561904Y-93321238D01*
X29609523Y-93416476D01*
X29657142Y-93606952D01*
X29657142Y-93749809D01*
X29609523Y-93940285D01*
X29561904Y-94035523D01*
X29466666Y-94130761D01*
X29323809Y-94178380D01*
X29085714Y-94178380D01*
X27403238Y-103592380D02*
X27736571Y-104592380D01*
X28069904Y-103592380D01*
X28974666Y-104497142D02*
X28927047Y-104544761D01*
X28784190Y-104592380D01*
X28688952Y-104592380D01*
X28546095Y-104544761D01*
X28450857Y-104449523D01*
X28403238Y-104354285D01*
X28355619Y-104163809D01*
X28355619Y-104020952D01*
X28403238Y-103830476D01*
X28450857Y-103735238D01*
X28546095Y-103640000D01*
X28688952Y-103592380D01*
X28784190Y-103592380D01*
X28927047Y-103640000D01*
X28974666Y-103687619D01*
X29974666Y-104497142D02*
X29927047Y-104544761D01*
X29784190Y-104592380D01*
X29688952Y-104592380D01*
X29546095Y-104544761D01*
X29450857Y-104449523D01*
X29403238Y-104354285D01*
X29355619Y-104163809D01*
X29355619Y-104020952D01*
X29403238Y-103830476D01*
X29450857Y-103735238D01*
X29546095Y-103640000D01*
X29688952Y-103592380D01*
X29784190Y-103592380D01*
X29927047Y-103640000D01*
X29974666Y-103687619D01*
D11*
X93031857Y-86372000D02*
X92889000Y-86300571D01*
X92674714Y-86300571D01*
X92460428Y-86372000D01*
X92317571Y-86514857D01*
X92246142Y-86657714D01*
X92174714Y-86943428D01*
X92174714Y-87157714D01*
X92246142Y-87443428D01*
X92317571Y-87586285D01*
X92460428Y-87729142D01*
X92674714Y-87800571D01*
X92817571Y-87800571D01*
X93031857Y-87729142D01*
X93103285Y-87657714D01*
X93103285Y-87157714D01*
X92817571Y-87157714D01*
X94317571Y-87729142D02*
X94174714Y-87800571D01*
X93889000Y-87800571D01*
X93746142Y-87729142D01*
X93674714Y-87586285D01*
X93674714Y-87014857D01*
X93746142Y-86872000D01*
X93889000Y-86800571D01*
X94174714Y-86800571D01*
X94317571Y-86872000D01*
X94389000Y-87014857D01*
X94389000Y-87157714D01*
X93674714Y-87300571D01*
X94960428Y-87729142D02*
X95103285Y-87800571D01*
X95389000Y-87800571D01*
X95531857Y-87729142D01*
X95603285Y-87586285D01*
X95603285Y-87514857D01*
X95531857Y-87372000D01*
X95389000Y-87300571D01*
X95174714Y-87300571D01*
X95031857Y-87229142D01*
X94960428Y-87086285D01*
X94960428Y-87014857D01*
X95031857Y-86872000D01*
X95174714Y-86800571D01*
X95389000Y-86800571D01*
X95531857Y-86872000D01*
X96031857Y-86800571D02*
X96603285Y-86800571D01*
X96246142Y-86300571D02*
X96246142Y-87586285D01*
X96317571Y-87729142D01*
X96460428Y-87800571D01*
X96603285Y-87800571D01*
X97746142Y-86800571D02*
X97746142Y-87800571D01*
X97103285Y-86800571D02*
X97103285Y-87586285D01*
X97174714Y-87729142D01*
X97317571Y-87800571D01*
X97531857Y-87800571D01*
X97674714Y-87729142D01*
X97746142Y-87657714D01*
X98460428Y-87800571D02*
X98460428Y-86800571D01*
X98460428Y-87086285D02*
X98531857Y-86943428D01*
X98603285Y-86872000D01*
X98746142Y-86800571D01*
X98889000Y-86800571D01*
X99960428Y-87729142D02*
X99817571Y-87800571D01*
X99531857Y-87800571D01*
X99389000Y-87729142D01*
X99317571Y-87586285D01*
X99317571Y-87014857D01*
X99389000Y-86872000D01*
X99531857Y-86800571D01*
X99817571Y-86800571D01*
X99960428Y-86872000D01*
X100031857Y-87014857D01*
X100031857Y-87157714D01*
X99317571Y-87300571D01*
X102674714Y-87657714D02*
X102603285Y-87729142D01*
X102389000Y-87800571D01*
X102246142Y-87800571D01*
X102031857Y-87729142D01*
X101889000Y-87586285D01*
X101817571Y-87443428D01*
X101746142Y-87157714D01*
X101746142Y-86943428D01*
X101817571Y-86657714D01*
X101889000Y-86514857D01*
X102031857Y-86372000D01*
X102246142Y-86300571D01*
X102389000Y-86300571D01*
X102603285Y-86372000D01*
X102674714Y-86443428D01*
X103531857Y-87800571D02*
X103389000Y-87729142D01*
X103317571Y-87657714D01*
X103246142Y-87514857D01*
X103246142Y-87086285D01*
X103317571Y-86943428D01*
X103389000Y-86872000D01*
X103531857Y-86800571D01*
X103746142Y-86800571D01*
X103889000Y-86872000D01*
X103960428Y-86943428D01*
X104031857Y-87086285D01*
X104031857Y-87514857D01*
X103960428Y-87657714D01*
X103889000Y-87729142D01*
X103746142Y-87800571D01*
X103531857Y-87800571D01*
X104674714Y-86800571D02*
X104674714Y-87800571D01*
X104674714Y-86943428D02*
X104746142Y-86872000D01*
X104889000Y-86800571D01*
X105103285Y-86800571D01*
X105246142Y-86872000D01*
X105317571Y-87014857D01*
X105317571Y-87800571D01*
X105817571Y-86800571D02*
X106389000Y-86800571D01*
X106031857Y-86300571D02*
X106031857Y-87586285D01*
X106103285Y-87729142D01*
X106246142Y-87800571D01*
X106389000Y-87800571D01*
X106889000Y-87800571D02*
X106889000Y-86800571D01*
X106889000Y-87086285D02*
X106960428Y-86943428D01*
X107031857Y-86872000D01*
X107174714Y-86800571D01*
X107317571Y-86800571D01*
X108031857Y-87800571D02*
X107889000Y-87729142D01*
X107817571Y-87657714D01*
X107746142Y-87514857D01*
X107746142Y-87086285D01*
X107817571Y-86943428D01*
X107889000Y-86872000D01*
X108031857Y-86800571D01*
X108246142Y-86800571D01*
X108389000Y-86872000D01*
X108460428Y-86943428D01*
X108531857Y-87086285D01*
X108531857Y-87514857D01*
X108460428Y-87657714D01*
X108389000Y-87729142D01*
X108246142Y-87800571D01*
X108031857Y-87800571D01*
X109389000Y-87800571D02*
X109246142Y-87729142D01*
X109174714Y-87586285D01*
X109174714Y-86300571D01*
X110174714Y-87800571D02*
X110031857Y-87729142D01*
X109960428Y-87586285D01*
X109960428Y-86300571D01*
X111317571Y-87729142D02*
X111174714Y-87800571D01*
X110889000Y-87800571D01*
X110746142Y-87729142D01*
X110674714Y-87586285D01*
X110674714Y-87014857D01*
X110746142Y-86872000D01*
X110889000Y-86800571D01*
X111174714Y-86800571D01*
X111317571Y-86872000D01*
X111389000Y-87014857D01*
X111389000Y-87157714D01*
X110674714Y-87300571D01*
X112031857Y-87800571D02*
X112031857Y-86800571D01*
X112031857Y-87086285D02*
X112103285Y-86943428D01*
X112174714Y-86872000D01*
X112317571Y-86800571D01*
X112460428Y-86800571D01*
X113889000Y-86300571D02*
X114389000Y-87800571D01*
X114889000Y-86300571D01*
X115674714Y-86300571D02*
X115817571Y-86300571D01*
X115960428Y-86372000D01*
X116031857Y-86443428D01*
X116103285Y-86586285D01*
X116174714Y-86872000D01*
X116174714Y-87229142D01*
X116103285Y-87514857D01*
X116031857Y-87657714D01*
X115960428Y-87729142D01*
X115817571Y-87800571D01*
X115674714Y-87800571D01*
X115531857Y-87729142D01*
X115460428Y-87657714D01*
X115389000Y-87514857D01*
X115317571Y-87229142D01*
X115317571Y-86872000D01*
X115389000Y-86586285D01*
X115460428Y-86443428D01*
X115531857Y-86372000D01*
X115674714Y-86300571D01*
X116817571Y-87657714D02*
X116889000Y-87729142D01*
X116817571Y-87800571D01*
X116746142Y-87729142D01*
X116817571Y-87657714D01*
X116817571Y-87800571D01*
X118317571Y-87800571D02*
X117460428Y-87800571D01*
X117889000Y-87800571D02*
X117889000Y-86300571D01*
X117746142Y-86514857D01*
X117603285Y-86657714D01*
X117460428Y-86729142D01*
D10*
X78621000Y-114678095D02*
X78573380Y-114773333D01*
X78573380Y-114916190D01*
X78621000Y-115059047D01*
X78716238Y-115154285D01*
X78811476Y-115201904D01*
X79001952Y-115249523D01*
X79144809Y-115249523D01*
X79335285Y-115201904D01*
X79430523Y-115154285D01*
X79525761Y-115059047D01*
X79573380Y-114916190D01*
X79573380Y-114820952D01*
X79525761Y-114678095D01*
X79478142Y-114630476D01*
X79144809Y-114630476D01*
X79144809Y-114820952D01*
X79573380Y-114201904D02*
X78573380Y-114201904D01*
X79573380Y-113630476D01*
X78573380Y-113630476D01*
X79573380Y-113154285D02*
X78573380Y-113154285D01*
X78573380Y-112916190D01*
X78621000Y-112773333D01*
X78716238Y-112678095D01*
X78811476Y-112630476D01*
X79001952Y-112582857D01*
X79144809Y-112582857D01*
X79335285Y-112630476D01*
X79430523Y-112678095D01*
X79525761Y-112773333D01*
X79573380Y-112916190D01*
X79573380Y-113154285D01*
X37370095Y-97226380D02*
X37370095Y-96226380D01*
X37798666Y-96321619D02*
X37846285Y-96274000D01*
X37941523Y-96226380D01*
X38179619Y-96226380D01*
X38274857Y-96274000D01*
X38322476Y-96321619D01*
X38370095Y-96416857D01*
X38370095Y-96512095D01*
X38322476Y-96654952D01*
X37751047Y-97226380D01*
X38370095Y-97226380D01*
X39370095Y-97131142D02*
X39322476Y-97178761D01*
X39179619Y-97226380D01*
X39084380Y-97226380D01*
X38941523Y-97178761D01*
X38846285Y-97083523D01*
X38798666Y-96988285D01*
X38751047Y-96797809D01*
X38751047Y-96654952D01*
X38798666Y-96464476D01*
X38846285Y-96369238D01*
X38941523Y-96274000D01*
X39084380Y-96226380D01*
X39179619Y-96226380D01*
X39322476Y-96274000D01*
X39370095Y-96321619D01*
X41036761Y-97226380D02*
X40560571Y-97226380D01*
X40560571Y-96226380D01*
X41941523Y-97131142D02*
X41893904Y-97178761D01*
X41751047Y-97226380D01*
X41655809Y-97226380D01*
X41512952Y-97178761D01*
X41417714Y-97083523D01*
X41370095Y-96988285D01*
X41322476Y-96797809D01*
X41322476Y-96654952D01*
X41370095Y-96464476D01*
X41417714Y-96369238D01*
X41512952Y-96274000D01*
X41655809Y-96226380D01*
X41751047Y-96226380D01*
X41893904Y-96274000D01*
X41941523Y-96321619D01*
X42370095Y-97226380D02*
X42370095Y-96226380D01*
X42608190Y-96226380D01*
X42751047Y-96274000D01*
X42846285Y-96369238D01*
X42893904Y-96464476D01*
X42941523Y-96654952D01*
X42941523Y-96797809D01*
X42893904Y-96988285D01*
X42846285Y-97083523D01*
X42751047Y-97178761D01*
X42608190Y-97226380D01*
X42370095Y-97226380D01*
D11*
X92246142Y-89832571D02*
X92246142Y-88332571D01*
X92746142Y-89404000D01*
X93246142Y-88332571D01*
X93246142Y-89832571D01*
X94603285Y-89832571D02*
X94603285Y-89046857D01*
X94531857Y-88904000D01*
X94389000Y-88832571D01*
X94103285Y-88832571D01*
X93960428Y-88904000D01*
X94603285Y-89761142D02*
X94460428Y-89832571D01*
X94103285Y-89832571D01*
X93960428Y-89761142D01*
X93889000Y-89618285D01*
X93889000Y-89475428D01*
X93960428Y-89332571D01*
X94103285Y-89261142D01*
X94460428Y-89261142D01*
X94603285Y-89189714D01*
X95960428Y-89832571D02*
X95960428Y-88332571D01*
X95960428Y-89761142D02*
X95817571Y-89832571D01*
X95531857Y-89832571D01*
X95389000Y-89761142D01*
X95317571Y-89689714D01*
X95246142Y-89546857D01*
X95246142Y-89118285D01*
X95317571Y-88975428D01*
X95389000Y-88904000D01*
X95531857Y-88832571D01*
X95817571Y-88832571D01*
X95960428Y-88904000D01*
X97246142Y-89761142D02*
X97103285Y-89832571D01*
X96817571Y-89832571D01*
X96674714Y-89761142D01*
X96603285Y-89618285D01*
X96603285Y-89046857D01*
X96674714Y-88904000D01*
X96817571Y-88832571D01*
X97103285Y-88832571D01*
X97246142Y-88904000D01*
X97317571Y-89046857D01*
X97317571Y-89189714D01*
X96603285Y-89332571D01*
X99603285Y-89046857D02*
X99817571Y-89118285D01*
X99889000Y-89189714D01*
X99960428Y-89332571D01*
X99960428Y-89546857D01*
X99889000Y-89689714D01*
X99817571Y-89761142D01*
X99674714Y-89832571D01*
X99103285Y-89832571D01*
X99103285Y-88332571D01*
X99603285Y-88332571D01*
X99746142Y-88404000D01*
X99817571Y-88475428D01*
X99889000Y-88618285D01*
X99889000Y-88761142D01*
X99817571Y-88904000D01*
X99746142Y-88975428D01*
X99603285Y-89046857D01*
X99103285Y-89046857D01*
X100460428Y-88832571D02*
X100817571Y-89832571D01*
X101174714Y-88832571D02*
X100817571Y-89832571D01*
X100674714Y-90189714D01*
X100603285Y-90261142D01*
X100460428Y-90332571D01*
X101746142Y-89689714D02*
X101817571Y-89761142D01*
X101746142Y-89832571D01*
X101674714Y-89761142D01*
X101746142Y-89689714D01*
X101746142Y-89832571D01*
X101746142Y-88904000D02*
X101817571Y-88975428D01*
X101746142Y-89046857D01*
X101674714Y-88975428D01*
X101746142Y-88904000D01*
X101746142Y-89046857D01*
X103603285Y-89046857D02*
X104103285Y-89046857D01*
X104317571Y-89832571D02*
X103603285Y-89832571D01*
X103603285Y-88332571D01*
X104317571Y-88332571D01*
X105174714Y-89832571D02*
X105031857Y-89761142D01*
X104960428Y-89618285D01*
X104960428Y-88332571D01*
X105674714Y-89761142D02*
X105817571Y-89832571D01*
X106103285Y-89832571D01*
X106246142Y-89761142D01*
X106317571Y-89618285D01*
X106317571Y-89546857D01*
X106246142Y-89404000D01*
X106103285Y-89332571D01*
X105889000Y-89332571D01*
X105746142Y-89261142D01*
X105674714Y-89118285D01*
X105674714Y-89046857D01*
X105746142Y-88904000D01*
X105889000Y-88832571D01*
X106103285Y-88832571D01*
X106246142Y-88904000D01*
X107531857Y-89761142D02*
X107389000Y-89832571D01*
X107103285Y-89832571D01*
X106960428Y-89761142D01*
X106889000Y-89618285D01*
X106889000Y-89046857D01*
X106960428Y-88904000D01*
X107103285Y-88832571D01*
X107389000Y-88832571D01*
X107531857Y-88904000D01*
X107603285Y-89046857D01*
X107603285Y-89189714D01*
X106889000Y-89332571D01*
X108246142Y-89832571D02*
X108246142Y-88832571D01*
X108246142Y-89118285D02*
X108317571Y-88975428D01*
X108389000Y-88904000D01*
X108531857Y-88832571D01*
X108674714Y-88832571D01*
X109174714Y-89832571D02*
X109174714Y-88832571D01*
X109174714Y-88975428D02*
X109246142Y-88904000D01*
X109389000Y-88832571D01*
X109603285Y-88832571D01*
X109746142Y-88904000D01*
X109817571Y-89046857D01*
X109817571Y-89832571D01*
X109817571Y-89046857D02*
X109889000Y-88904000D01*
X110031857Y-88832571D01*
X110246142Y-88832571D01*
X110389000Y-88904000D01*
X110460428Y-89046857D01*
X110460428Y-89832571D01*
X111817571Y-89832571D02*
X111817571Y-89046857D01*
X111746142Y-88904000D01*
X111603285Y-88832571D01*
X111317571Y-88832571D01*
X111174714Y-88904000D01*
X111817571Y-89761142D02*
X111674714Y-89832571D01*
X111317571Y-89832571D01*
X111174714Y-89761142D01*
X111103285Y-89618285D01*
X111103285Y-89475428D01*
X111174714Y-89332571D01*
X111317571Y-89261142D01*
X111674714Y-89261142D01*
X111817571Y-89189714D01*
X112531857Y-88832571D02*
X112531857Y-89832571D01*
X112531857Y-88975428D02*
X112603285Y-88904000D01*
X112746142Y-88832571D01*
X112960428Y-88832571D01*
X113103285Y-88904000D01*
X113174714Y-89046857D01*
X113174714Y-89832571D01*
X113817571Y-89761142D02*
X113960428Y-89832571D01*
X114246142Y-89832571D01*
X114389000Y-89761142D01*
X114460428Y-89618285D01*
X114460428Y-89546857D01*
X114389000Y-89404000D01*
X114246142Y-89332571D01*
X114031857Y-89332571D01*
X113889000Y-89261142D01*
X113817571Y-89118285D01*
X113817571Y-89046857D01*
X113889000Y-88904000D01*
X114031857Y-88832571D01*
X114246142Y-88832571D01*
X114389000Y-88904000D01*
X117103285Y-89832571D02*
X116603285Y-89118285D01*
X116246142Y-89832571D02*
X116246142Y-88332571D01*
X116817571Y-88332571D01*
X116960428Y-88404000D01*
X117031857Y-88475428D01*
X117103285Y-88618285D01*
X117103285Y-88832571D01*
X117031857Y-88975428D01*
X116960428Y-89046857D01*
X116817571Y-89118285D01*
X116246142Y-89118285D01*
X117746142Y-89689714D02*
X117817571Y-89761142D01*
X117746142Y-89832571D01*
X117674714Y-89761142D01*
X117746142Y-89689714D01*
X117746142Y-89832571D01*
D10*
X41092857Y-79700380D02*
X41092857Y-78700380D01*
X41521428Y-78795619D02*
X41569047Y-78748000D01*
X41664285Y-78700380D01*
X41902380Y-78700380D01*
X41997619Y-78748000D01*
X42045238Y-78795619D01*
X42092857Y-78890857D01*
X42092857Y-78986095D01*
X42045238Y-79128952D01*
X41473809Y-79700380D01*
X42092857Y-79700380D01*
X43092857Y-79605142D02*
X43045238Y-79652761D01*
X42902380Y-79700380D01*
X42807142Y-79700380D01*
X42664285Y-79652761D01*
X42569047Y-79557523D01*
X42521428Y-79462285D01*
X42473809Y-79271809D01*
X42473809Y-79128952D01*
X42521428Y-78938476D01*
X42569047Y-78843238D01*
X42664285Y-78748000D01*
X42807142Y-78700380D01*
X42902380Y-78700380D01*
X43045238Y-78748000D01*
X43092857Y-78795619D01*
X44235714Y-79652761D02*
X44378571Y-79700380D01*
X44616666Y-79700380D01*
X44711904Y-79652761D01*
X44759523Y-79605142D01*
X44807142Y-79509904D01*
X44807142Y-79414666D01*
X44759523Y-79319428D01*
X44711904Y-79271809D01*
X44616666Y-79224190D01*
X44426190Y-79176571D01*
X44330952Y-79128952D01*
X44283333Y-79081333D01*
X44235714Y-78986095D01*
X44235714Y-78890857D01*
X44283333Y-78795619D01*
X44330952Y-78748000D01*
X44426190Y-78700380D01*
X44664285Y-78700380D01*
X44807142Y-78748000D01*
X45378571Y-79700380D02*
X45283333Y-79652761D01*
X45235714Y-79557523D01*
X45235714Y-78700380D01*
X46188095Y-79700380D02*
X46188095Y-79176571D01*
X46140476Y-79081333D01*
X46045238Y-79033714D01*
X45854761Y-79033714D01*
X45759523Y-79081333D01*
X46188095Y-79652761D02*
X46092857Y-79700380D01*
X45854761Y-79700380D01*
X45759523Y-79652761D01*
X45711904Y-79557523D01*
X45711904Y-79462285D01*
X45759523Y-79367047D01*
X45854761Y-79319428D01*
X46092857Y-79319428D01*
X46188095Y-79271809D01*
X46569047Y-79033714D02*
X46807142Y-79700380D01*
X47045238Y-79033714D01*
X47807142Y-79652761D02*
X47711904Y-79700380D01*
X47521428Y-79700380D01*
X47426190Y-79652761D01*
X47378571Y-79557523D01*
X47378571Y-79176571D01*
X47426190Y-79081333D01*
X47521428Y-79033714D01*
X47711904Y-79033714D01*
X47807142Y-79081333D01*
X47854761Y-79176571D01*
X47854761Y-79271809D01*
X47378571Y-79367047D01*
X76779428Y-114312904D02*
X76779428Y-113551000D01*
X77160380Y-113931952D02*
X76398476Y-113931952D01*
X76160380Y-113170047D02*
X76160380Y-112551000D01*
X76541333Y-112884333D01*
X76541333Y-112741476D01*
X76588952Y-112646238D01*
X76636571Y-112598619D01*
X76731809Y-112551000D01*
X76969904Y-112551000D01*
X77065142Y-112598619D01*
X77112761Y-112646238D01*
X77160380Y-112741476D01*
X77160380Y-113027190D01*
X77112761Y-113122428D01*
X77065142Y-113170047D01*
X37552380Y-104592380D02*
X37219047Y-104116190D01*
X36980952Y-104592380D02*
X36980952Y-103592380D01*
X37361904Y-103592380D01*
X37457142Y-103640000D01*
X37504761Y-103687619D01*
X37552380Y-103782857D01*
X37552380Y-103925714D01*
X37504761Y-104020952D01*
X37457142Y-104068571D01*
X37361904Y-104116190D01*
X36980952Y-104116190D01*
X37933333Y-104544761D02*
X38076190Y-104592380D01*
X38314285Y-104592380D01*
X38409523Y-104544761D01*
X38457142Y-104497142D01*
X38504761Y-104401904D01*
X38504761Y-104306666D01*
X38457142Y-104211428D01*
X38409523Y-104163809D01*
X38314285Y-104116190D01*
X38123809Y-104068571D01*
X38028571Y-104020952D01*
X37980952Y-103973333D01*
X37933333Y-103878095D01*
X37933333Y-103782857D01*
X37980952Y-103687619D01*
X38028571Y-103640000D01*
X38123809Y-103592380D01*
X38361904Y-103592380D01*
X38504761Y-103640000D01*
X38790476Y-103592380D02*
X39361904Y-103592380D01*
X39076190Y-104592380D02*
X39076190Y-103592380D01*
X36044476Y-92563761D02*
X36187333Y-92611380D01*
X36425428Y-92611380D01*
X36520666Y-92563761D01*
X36568285Y-92516142D01*
X36615904Y-92420904D01*
X36615904Y-92325666D01*
X36568285Y-92230428D01*
X36520666Y-92182809D01*
X36425428Y-92135190D01*
X36234952Y-92087571D01*
X36139714Y-92039952D01*
X36092095Y-91992333D01*
X36044476Y-91897095D01*
X36044476Y-91801857D01*
X36092095Y-91706619D01*
X36139714Y-91659000D01*
X36234952Y-91611380D01*
X36473047Y-91611380D01*
X36615904Y-91659000D01*
X37044476Y-92087571D02*
X37377809Y-92087571D01*
X37520666Y-92611380D02*
X37044476Y-92611380D01*
X37044476Y-91611380D01*
X37520666Y-91611380D01*
X38520666Y-92611380D02*
X38187333Y-92135190D01*
X37949238Y-92611380D02*
X37949238Y-91611380D01*
X38330190Y-91611380D01*
X38425428Y-91659000D01*
X38473047Y-91706619D01*
X38520666Y-91801857D01*
X38520666Y-91944714D01*
X38473047Y-92039952D01*
X38425428Y-92087571D01*
X38330190Y-92135190D01*
X37949238Y-92135190D01*
X38949238Y-92611380D02*
X38949238Y-91611380D01*
X39377809Y-92325666D02*
X39854000Y-92325666D01*
X39282571Y-92611380D02*
X39615904Y-91611380D01*
X39949238Y-92611380D01*
X40758761Y-92611380D02*
X40282571Y-92611380D01*
X40282571Y-91611380D01*
X36734952Y-93221380D02*
X36973047Y-94221380D01*
X37163523Y-93507095D01*
X37354000Y-94221380D01*
X37592095Y-93221380D01*
X37973047Y-94221380D02*
X37973047Y-93221380D01*
X39020666Y-94221380D02*
X38687333Y-93745190D01*
X38449238Y-94221380D02*
X38449238Y-93221380D01*
X38830190Y-93221380D01*
X38925428Y-93269000D01*
X38973047Y-93316619D01*
X39020666Y-93411857D01*
X39020666Y-93554714D01*
X38973047Y-93649952D01*
X38925428Y-93697571D01*
X38830190Y-93745190D01*
X38449238Y-93745190D01*
X39449238Y-93697571D02*
X39782571Y-93697571D01*
X39925428Y-94221380D02*
X39449238Y-94221380D01*
X39449238Y-93221380D01*
X39925428Y-93221380D01*
X74493380Y-114947904D02*
X73493380Y-114947904D01*
X73493380Y-114709809D01*
X73541000Y-114566952D01*
X73636238Y-114471714D01*
X73731476Y-114424095D01*
X73921952Y-114376476D01*
X74064809Y-114376476D01*
X74255285Y-114424095D01*
X74350523Y-114471714D01*
X74445761Y-114566952D01*
X74493380Y-114709809D01*
X74493380Y-114947904D01*
X74207666Y-113995523D02*
X74207666Y-113519333D01*
X74493380Y-114090761D02*
X73493380Y-113757428D01*
X74493380Y-113424095D01*
X73588619Y-113138380D02*
X73541000Y-113090761D01*
X73493380Y-112995523D01*
X73493380Y-112757428D01*
X73541000Y-112662190D01*
X73588619Y-112614571D01*
X73683857Y-112566952D01*
X73779095Y-112566952D01*
X73921952Y-112614571D01*
X74493380Y-113186000D01*
X74493380Y-112566952D01*
X40679809Y-88828571D02*
X40346476Y-88828571D01*
X40346476Y-89352380D02*
X40346476Y-88352380D01*
X40822666Y-88352380D01*
X41060761Y-88352380D02*
X41632190Y-88352380D01*
X41346476Y-89352380D02*
X41346476Y-88352380D01*
X41965523Y-89352380D02*
X41965523Y-88352380D01*
X42203619Y-88352380D01*
X42346476Y-88400000D01*
X42441714Y-88495238D01*
X42489333Y-88590476D01*
X42536952Y-88780952D01*
X42536952Y-88923809D01*
X42489333Y-89114285D01*
X42441714Y-89209523D01*
X42346476Y-89304761D01*
X42203619Y-89352380D01*
X41965523Y-89352380D01*
X42965523Y-89352380D02*
X42965523Y-88352380D01*
D12*
%TO.C,J3*%
X43096380Y-124285333D02*
X43810666Y-124285333D01*
X43953523Y-124332952D01*
X44048761Y-124428190D01*
X44096380Y-124571047D01*
X44096380Y-124666285D01*
X43096380Y-123904380D02*
X43096380Y-123285333D01*
X43477333Y-123618666D01*
X43477333Y-123475809D01*
X43524952Y-123380571D01*
X43572571Y-123332952D01*
X43667809Y-123285333D01*
X43905904Y-123285333D01*
X44001142Y-123332952D01*
X44048761Y-123380571D01*
X44096380Y-123475809D01*
X44096380Y-123761523D01*
X44048761Y-123856761D01*
X44001142Y-123904380D01*
%TO.C,J4*%
X65956380Y-124285333D02*
X66670666Y-124285333D01*
X66813523Y-124332952D01*
X66908761Y-124428190D01*
X66956380Y-124571047D01*
X66956380Y-124666285D01*
X66289714Y-123380571D02*
X66956380Y-123380571D01*
X65908761Y-123618666D02*
X66623047Y-123856761D01*
X66623047Y-123237714D01*
%TO.C,J5*%
X33996380Y-76025333D02*
X34710666Y-76025333D01*
X34853523Y-76072952D01*
X34948761Y-76168190D01*
X34996380Y-76311047D01*
X34996380Y-76406285D01*
X33996380Y-75072952D02*
X33996380Y-75549142D01*
X34472571Y-75596761D01*
X34424952Y-75549142D01*
X34377333Y-75453904D01*
X34377333Y-75215809D01*
X34424952Y-75120571D01*
X34472571Y-75072952D01*
X34567809Y-75025333D01*
X34805904Y-75025333D01*
X34901142Y-75072952D01*
X34948761Y-75120571D01*
X34996380Y-75215809D01*
X34996380Y-75453904D01*
X34948761Y-75549142D01*
X34901142Y-75596761D01*
%TO.C,C7*%
X41251142Y-125642666D02*
X41298761Y-125690285D01*
X41346380Y-125833142D01*
X41346380Y-125928380D01*
X41298761Y-126071238D01*
X41203523Y-126166476D01*
X41108285Y-126214095D01*
X40917809Y-126261714D01*
X40774952Y-126261714D01*
X40584476Y-126214095D01*
X40489238Y-126166476D01*
X40394000Y-126071238D01*
X40346380Y-125928380D01*
X40346380Y-125833142D01*
X40394000Y-125690285D01*
X40441619Y-125642666D01*
X40346380Y-125309333D02*
X40346380Y-124642666D01*
X41346380Y-125071238D01*
%TO.C,C17*%
X59930632Y-117699632D02*
X59883013Y-117747251D01*
X59740156Y-117794870D01*
X59644918Y-117794870D01*
X59502061Y-117747251D01*
X59406823Y-117652013D01*
X59359204Y-117556775D01*
X59311585Y-117366299D01*
X59311585Y-117223442D01*
X59359204Y-117032966D01*
X59406823Y-116937728D01*
X59502061Y-116842490D01*
X59644918Y-116794870D01*
X59740156Y-116794870D01*
X59883013Y-116842490D01*
X59930632Y-116890109D01*
X60883013Y-117794870D02*
X60311585Y-117794870D01*
X60597299Y-117794870D02*
X60597299Y-116794870D01*
X60502061Y-116937728D01*
X60406823Y-117032966D01*
X60311585Y-117080585D01*
X61216347Y-116794870D02*
X61883013Y-116794870D01*
X61454442Y-117794870D01*
%TO.C,C18*%
X64016132Y-117601632D02*
X63968513Y-117649251D01*
X63825656Y-117696870D01*
X63730418Y-117696870D01*
X63587561Y-117649251D01*
X63492323Y-117554013D01*
X63444704Y-117458775D01*
X63397085Y-117268299D01*
X63397085Y-117125442D01*
X63444704Y-116934966D01*
X63492323Y-116839728D01*
X63587561Y-116744490D01*
X63730418Y-116696870D01*
X63825656Y-116696870D01*
X63968513Y-116744490D01*
X64016132Y-116792109D01*
X64968513Y-117696870D02*
X64397085Y-117696870D01*
X64682799Y-117696870D02*
X64682799Y-116696870D01*
X64587561Y-116839728D01*
X64492323Y-116934966D01*
X64397085Y-116982585D01*
X65539942Y-117125442D02*
X65444704Y-117077823D01*
X65397085Y-117030204D01*
X65349466Y-116934966D01*
X65349466Y-116887347D01*
X65397085Y-116792109D01*
X65444704Y-116744490D01*
X65539942Y-116696870D01*
X65730418Y-116696870D01*
X65825656Y-116744490D01*
X65873275Y-116792109D01*
X65920894Y-116887347D01*
X65920894Y-116934966D01*
X65873275Y-117030204D01*
X65825656Y-117077823D01*
X65730418Y-117125442D01*
X65539942Y-117125442D01*
X65444704Y-117173061D01*
X65397085Y-117220680D01*
X65349466Y-117315918D01*
X65349466Y-117506394D01*
X65397085Y-117601632D01*
X65444704Y-117649251D01*
X65539942Y-117696870D01*
X65730418Y-117696870D01*
X65825656Y-117649251D01*
X65873275Y-117601632D01*
X65920894Y-117506394D01*
X65920894Y-117315918D01*
X65873275Y-117220680D01*
X65825656Y-117173061D01*
X65730418Y-117125442D01*
%TO.C,C19*%
X51702132Y-113006142D02*
X51654513Y-113053761D01*
X51511656Y-113101380D01*
X51416418Y-113101380D01*
X51273561Y-113053761D01*
X51178323Y-112958523D01*
X51130704Y-112863285D01*
X51083085Y-112672809D01*
X51083085Y-112529952D01*
X51130704Y-112339476D01*
X51178323Y-112244238D01*
X51273561Y-112149000D01*
X51416418Y-112101380D01*
X51511656Y-112101380D01*
X51654513Y-112149000D01*
X51702132Y-112196619D01*
X52654513Y-113101380D02*
X52083085Y-113101380D01*
X52368799Y-113101380D02*
X52368799Y-112101380D01*
X52273561Y-112244238D01*
X52178323Y-112339476D01*
X52083085Y-112387095D01*
X53130704Y-113101380D02*
X53321180Y-113101380D01*
X53416418Y-113053761D01*
X53464037Y-113006142D01*
X53559275Y-112863285D01*
X53606894Y-112672809D01*
X53606894Y-112291857D01*
X53559275Y-112196619D01*
X53511656Y-112149000D01*
X53416418Y-112101380D01*
X53225942Y-112101380D01*
X53130704Y-112149000D01*
X53083085Y-112196619D01*
X53035466Y-112291857D01*
X53035466Y-112529952D01*
X53083085Y-112625190D01*
X53130704Y-112672809D01*
X53225942Y-112720428D01*
X53416418Y-112720428D01*
X53511656Y-112672809D01*
X53559275Y-112625190D01*
X53606894Y-112529952D01*
%TO.C,C22*%
X51548632Y-102299632D02*
X51501013Y-102347251D01*
X51358156Y-102394870D01*
X51262918Y-102394870D01*
X51120061Y-102347251D01*
X51024823Y-102252013D01*
X50977204Y-102156775D01*
X50929585Y-101966299D01*
X50929585Y-101823442D01*
X50977204Y-101632966D01*
X51024823Y-101537728D01*
X51120061Y-101442490D01*
X51262918Y-101394870D01*
X51358156Y-101394870D01*
X51501013Y-101442490D01*
X51548632Y-101490109D01*
X51929585Y-101490109D02*
X51977204Y-101442490D01*
X52072442Y-101394870D01*
X52310537Y-101394870D01*
X52405775Y-101442490D01*
X52453394Y-101490109D01*
X52501013Y-101585347D01*
X52501013Y-101680585D01*
X52453394Y-101823442D01*
X51881966Y-102394870D01*
X52501013Y-102394870D01*
X52881966Y-101490109D02*
X52929585Y-101442490D01*
X53024823Y-101394870D01*
X53262918Y-101394870D01*
X53358156Y-101442490D01*
X53405775Y-101490109D01*
X53453394Y-101585347D01*
X53453394Y-101680585D01*
X53405775Y-101823442D01*
X52834347Y-102394870D01*
X53453394Y-102394870D01*
%TO.C,C24*%
X59676632Y-106777632D02*
X59629013Y-106825251D01*
X59486156Y-106872870D01*
X59390918Y-106872870D01*
X59248061Y-106825251D01*
X59152823Y-106730013D01*
X59105204Y-106634775D01*
X59057585Y-106444299D01*
X59057585Y-106301442D01*
X59105204Y-106110966D01*
X59152823Y-106015728D01*
X59248061Y-105920490D01*
X59390918Y-105872870D01*
X59486156Y-105872870D01*
X59629013Y-105920490D01*
X59676632Y-105968109D01*
X60057585Y-105968109D02*
X60105204Y-105920490D01*
X60200442Y-105872870D01*
X60438537Y-105872870D01*
X60533775Y-105920490D01*
X60581394Y-105968109D01*
X60629013Y-106063347D01*
X60629013Y-106158585D01*
X60581394Y-106301442D01*
X60009966Y-106872870D01*
X60629013Y-106872870D01*
X61486156Y-106206204D02*
X61486156Y-106872870D01*
X61248061Y-105825251D02*
X61009966Y-106539537D01*
X61629013Y-106539537D01*
%TO.C,C25*%
X59676632Y-108047632D02*
X59629013Y-108095251D01*
X59486156Y-108142870D01*
X59390918Y-108142870D01*
X59248061Y-108095251D01*
X59152823Y-108000013D01*
X59105204Y-107904775D01*
X59057585Y-107714299D01*
X59057585Y-107571442D01*
X59105204Y-107380966D01*
X59152823Y-107285728D01*
X59248061Y-107190490D01*
X59390918Y-107142870D01*
X59486156Y-107142870D01*
X59629013Y-107190490D01*
X59676632Y-107238109D01*
X60057585Y-107238109D02*
X60105204Y-107190490D01*
X60200442Y-107142870D01*
X60438537Y-107142870D01*
X60533775Y-107190490D01*
X60581394Y-107238109D01*
X60629013Y-107333347D01*
X60629013Y-107428585D01*
X60581394Y-107571442D01*
X60009966Y-108142870D01*
X60629013Y-108142870D01*
X61533775Y-107142870D02*
X61057585Y-107142870D01*
X61009966Y-107619061D01*
X61057585Y-107571442D01*
X61152823Y-107523823D01*
X61390918Y-107523823D01*
X61486156Y-107571442D01*
X61533775Y-107619061D01*
X61581394Y-107714299D01*
X61581394Y-107952394D01*
X61533775Y-108047632D01*
X61486156Y-108095251D01*
X61390918Y-108142870D01*
X61152823Y-108142870D01*
X61057585Y-108095251D01*
X61009966Y-108047632D01*
%TO.C,C26*%
X71598632Y-99697347D02*
X71646251Y-99744966D01*
X71693870Y-99887823D01*
X71693870Y-99983061D01*
X71646251Y-100125918D01*
X71551013Y-100221156D01*
X71455775Y-100268775D01*
X71265299Y-100316394D01*
X71122442Y-100316394D01*
X70931966Y-100268775D01*
X70836728Y-100221156D01*
X70741490Y-100125918D01*
X70693870Y-99983061D01*
X70693870Y-99887823D01*
X70741490Y-99744966D01*
X70789109Y-99697347D01*
X70789109Y-99316394D02*
X70741490Y-99268775D01*
X70693870Y-99173537D01*
X70693870Y-98935442D01*
X70741490Y-98840204D01*
X70789109Y-98792585D01*
X70884347Y-98744966D01*
X70979585Y-98744966D01*
X71122442Y-98792585D01*
X71693870Y-99364013D01*
X71693870Y-98744966D01*
X70693870Y-97887823D02*
X70693870Y-98078299D01*
X70741490Y-98173537D01*
X70789109Y-98221156D01*
X70931966Y-98316394D01*
X71122442Y-98364013D01*
X71503394Y-98364013D01*
X71598632Y-98316394D01*
X71646251Y-98268775D01*
X71693870Y-98173537D01*
X71693870Y-97983061D01*
X71646251Y-97887823D01*
X71598632Y-97840204D01*
X71503394Y-97792585D01*
X71265299Y-97792585D01*
X71170061Y-97840204D01*
X71122442Y-97887823D01*
X71074823Y-97983061D01*
X71074823Y-98173537D01*
X71122442Y-98268775D01*
X71170061Y-98316394D01*
X71265299Y-98364013D01*
%TO.C,C27*%
X74652142Y-93225857D02*
X74699761Y-93273476D01*
X74747380Y-93416333D01*
X74747380Y-93511571D01*
X74699761Y-93654428D01*
X74604523Y-93749666D01*
X74509285Y-93797285D01*
X74318809Y-93844904D01*
X74175952Y-93844904D01*
X73985476Y-93797285D01*
X73890238Y-93749666D01*
X73795000Y-93654428D01*
X73747380Y-93511571D01*
X73747380Y-93416333D01*
X73795000Y-93273476D01*
X73842619Y-93225857D01*
X73842619Y-92844904D02*
X73795000Y-92797285D01*
X73747380Y-92702047D01*
X73747380Y-92463952D01*
X73795000Y-92368714D01*
X73842619Y-92321095D01*
X73937857Y-92273476D01*
X74033095Y-92273476D01*
X74175952Y-92321095D01*
X74747380Y-92892523D01*
X74747380Y-92273476D01*
X73747380Y-91940142D02*
X73747380Y-91273476D01*
X74747380Y-91702047D01*
%TO.C,C32*%
X75922142Y-93225857D02*
X75969761Y-93273476D01*
X76017380Y-93416333D01*
X76017380Y-93511571D01*
X75969761Y-93654428D01*
X75874523Y-93749666D01*
X75779285Y-93797285D01*
X75588809Y-93844904D01*
X75445952Y-93844904D01*
X75255476Y-93797285D01*
X75160238Y-93749666D01*
X75065000Y-93654428D01*
X75017380Y-93511571D01*
X75017380Y-93416333D01*
X75065000Y-93273476D01*
X75112619Y-93225857D01*
X75017380Y-92892523D02*
X75017380Y-92273476D01*
X75398333Y-92606809D01*
X75398333Y-92463952D01*
X75445952Y-92368714D01*
X75493571Y-92321095D01*
X75588809Y-92273476D01*
X75826904Y-92273476D01*
X75922142Y-92321095D01*
X75969761Y-92368714D01*
X76017380Y-92463952D01*
X76017380Y-92749666D01*
X75969761Y-92844904D01*
X75922142Y-92892523D01*
X75112619Y-91892523D02*
X75065000Y-91844904D01*
X75017380Y-91749666D01*
X75017380Y-91511571D01*
X75065000Y-91416333D01*
X75112619Y-91368714D01*
X75207857Y-91321095D01*
X75303095Y-91321095D01*
X75445952Y-91368714D01*
X76017380Y-91940142D01*
X76017380Y-91321095D01*
%TO.C,D1*%
X86764904Y-101036380D02*
X86764904Y-100036380D01*
X87003000Y-100036380D01*
X87145857Y-100084000D01*
X87241095Y-100179238D01*
X87288714Y-100274476D01*
X87336333Y-100464952D01*
X87336333Y-100607809D01*
X87288714Y-100798285D01*
X87241095Y-100893523D01*
X87145857Y-100988761D01*
X87003000Y-101036380D01*
X86764904Y-101036380D01*
X88288714Y-101036380D02*
X87717285Y-101036380D01*
X88003000Y-101036380D02*
X88003000Y-100036380D01*
X87907761Y-100179238D01*
X87812523Y-100274476D01*
X87717285Y-100322095D01*
%TO.C,D2*%
X86743394Y-98750380D02*
X86743394Y-97750380D01*
X86981490Y-97750380D01*
X87124347Y-97798000D01*
X87219585Y-97893238D01*
X87267204Y-97988476D01*
X87314823Y-98178952D01*
X87314823Y-98321809D01*
X87267204Y-98512285D01*
X87219585Y-98607523D01*
X87124347Y-98702761D01*
X86981490Y-98750380D01*
X86743394Y-98750380D01*
X87695775Y-97845619D02*
X87743394Y-97798000D01*
X87838632Y-97750380D01*
X88076728Y-97750380D01*
X88171966Y-97798000D01*
X88219585Y-97845619D01*
X88267204Y-97940857D01*
X88267204Y-98036095D01*
X88219585Y-98178952D01*
X87648156Y-98750380D01*
X88267204Y-98750380D01*
%TO.C,D3*%
X86743394Y-96464380D02*
X86743394Y-95464380D01*
X86981490Y-95464380D01*
X87124347Y-95512000D01*
X87219585Y-95607238D01*
X87267204Y-95702476D01*
X87314823Y-95892952D01*
X87314823Y-96035809D01*
X87267204Y-96226285D01*
X87219585Y-96321523D01*
X87124347Y-96416761D01*
X86981490Y-96464380D01*
X86743394Y-96464380D01*
X87648156Y-95464380D02*
X88267204Y-95464380D01*
X87933870Y-95845333D01*
X88076728Y-95845333D01*
X88171966Y-95892952D01*
X88219585Y-95940571D01*
X88267204Y-96035809D01*
X88267204Y-96273904D01*
X88219585Y-96369142D01*
X88171966Y-96416761D01*
X88076728Y-96464380D01*
X87791013Y-96464380D01*
X87695775Y-96416761D01*
X87648156Y-96369142D01*
%TO.C,D5*%
X86764904Y-91892380D02*
X86764904Y-90892380D01*
X87003000Y-90892380D01*
X87145857Y-90940000D01*
X87241095Y-91035238D01*
X87288714Y-91130476D01*
X87336333Y-91320952D01*
X87336333Y-91463809D01*
X87288714Y-91654285D01*
X87241095Y-91749523D01*
X87145857Y-91844761D01*
X87003000Y-91892380D01*
X86764904Y-91892380D01*
X88241095Y-90892380D02*
X87764904Y-90892380D01*
X87717285Y-91368571D01*
X87764904Y-91320952D01*
X87860142Y-91273333D01*
X88098238Y-91273333D01*
X88193476Y-91320952D01*
X88241095Y-91368571D01*
X88288714Y-91463809D01*
X88288714Y-91701904D01*
X88241095Y-91797142D01*
X88193476Y-91844761D01*
X88098238Y-91892380D01*
X87860142Y-91892380D01*
X87764904Y-91844761D01*
X87717285Y-91797142D01*
%TO.C,D6*%
X35972380Y-103481095D02*
X34972380Y-103481095D01*
X34972380Y-103243000D01*
X35020000Y-103100142D01*
X35115238Y-103004904D01*
X35210476Y-102957285D01*
X35400952Y-102909666D01*
X35543809Y-102909666D01*
X35734285Y-102957285D01*
X35829523Y-103004904D01*
X35924761Y-103100142D01*
X35972380Y-103243000D01*
X35972380Y-103481095D01*
X34972380Y-102052523D02*
X34972380Y-102243000D01*
X35020000Y-102338238D01*
X35067619Y-102385857D01*
X35210476Y-102481095D01*
X35400952Y-102528714D01*
X35781904Y-102528714D01*
X35877142Y-102481095D01*
X35924761Y-102433476D01*
X35972380Y-102338238D01*
X35972380Y-102147761D01*
X35924761Y-102052523D01*
X35877142Y-102004904D01*
X35781904Y-101957285D01*
X35543809Y-101957285D01*
X35448571Y-102004904D01*
X35400952Y-102052523D01*
X35353333Y-102147761D01*
X35353333Y-102338238D01*
X35400952Y-102433476D01*
X35448571Y-102481095D01*
X35543809Y-102528714D01*
%TO.C,J1*%
X54437870Y-96847823D02*
X55152156Y-96847823D01*
X55295013Y-96895442D01*
X55390251Y-96990680D01*
X55437870Y-97133537D01*
X55437870Y-97228775D01*
X55437870Y-95847823D02*
X55437870Y-96419251D01*
X55437870Y-96133537D02*
X54437870Y-96133537D01*
X54580728Y-96228775D01*
X54675966Y-96324013D01*
X54723585Y-96419251D01*
%TO.C,J2*%
X18248380Y-103203333D02*
X18962666Y-103203333D01*
X19105523Y-103250952D01*
X19200761Y-103346190D01*
X19248380Y-103489047D01*
X19248380Y-103584285D01*
X18343619Y-102774761D02*
X18296000Y-102727142D01*
X18248380Y-102631904D01*
X18248380Y-102393809D01*
X18296000Y-102298571D01*
X18343619Y-102250952D01*
X18438857Y-102203333D01*
X18534095Y-102203333D01*
X18676952Y-102250952D01*
X19248380Y-102822380D01*
X19248380Y-102203333D01*
%TO.C,J7*%
X59561870Y-89227823D02*
X60276156Y-89227823D01*
X60419013Y-89275442D01*
X60514251Y-89370680D01*
X60561870Y-89513537D01*
X60561870Y-89608775D01*
X59561870Y-88846870D02*
X59561870Y-88180204D01*
X60561870Y-88608775D01*
%TO.C,J10*%
X59059380Y-80057523D02*
X59773666Y-80057523D01*
X59916523Y-80105142D01*
X60011761Y-80200380D01*
X60059380Y-80343238D01*
X60059380Y-80438476D01*
X60059380Y-79057523D02*
X60059380Y-79628952D01*
X60059380Y-79343238D02*
X59059380Y-79343238D01*
X59202238Y-79438476D01*
X59297476Y-79533714D01*
X59345095Y-79628952D01*
X59059380Y-78438476D02*
X59059380Y-78343238D01*
X59107000Y-78248000D01*
X59154619Y-78200380D01*
X59249857Y-78152761D01*
X59440333Y-78105142D01*
X59678428Y-78105142D01*
X59868904Y-78152761D01*
X59964142Y-78200380D01*
X60011761Y-78248000D01*
X60059380Y-78343238D01*
X60059380Y-78438476D01*
X60011761Y-78533714D01*
X59964142Y-78581333D01*
X59868904Y-78628952D01*
X59678428Y-78676571D01*
X59440333Y-78676571D01*
X59249857Y-78628952D01*
X59154619Y-78581333D01*
X59107000Y-78533714D01*
X59059380Y-78438476D01*
%TO.C,R1*%
X77154823Y-96591380D02*
X76821490Y-96115190D01*
X76583394Y-96591380D02*
X76583394Y-95591380D01*
X76964347Y-95591380D01*
X77059585Y-95639000D01*
X77107204Y-95686619D01*
X77154823Y-95781857D01*
X77154823Y-95924714D01*
X77107204Y-96019952D01*
X77059585Y-96067571D01*
X76964347Y-96115190D01*
X76583394Y-96115190D01*
X78107204Y-96591380D02*
X77535775Y-96591380D01*
X77821490Y-96591380D02*
X77821490Y-95591380D01*
X77726251Y-95734238D01*
X77631013Y-95829476D01*
X77535775Y-95877095D01*
%TO.C,R2*%
X77154823Y-95321380D02*
X76821490Y-94845190D01*
X76583394Y-95321380D02*
X76583394Y-94321380D01*
X76964347Y-94321380D01*
X77059585Y-94369000D01*
X77107204Y-94416619D01*
X77154823Y-94511857D01*
X77154823Y-94654714D01*
X77107204Y-94749952D01*
X77059585Y-94797571D01*
X76964347Y-94845190D01*
X76583394Y-94845190D01*
X77535775Y-94416619D02*
X77583394Y-94369000D01*
X77678632Y-94321380D01*
X77916728Y-94321380D01*
X78011966Y-94369000D01*
X78059585Y-94416619D01*
X78107204Y-94511857D01*
X78107204Y-94607095D01*
X78059585Y-94749952D01*
X77488156Y-95321380D01*
X78107204Y-95321380D01*
%TO.C,R3*%
X77176333Y-94051380D02*
X76843000Y-93575190D01*
X76604904Y-94051380D02*
X76604904Y-93051380D01*
X76985857Y-93051380D01*
X77081095Y-93099000D01*
X77128714Y-93146619D01*
X77176333Y-93241857D01*
X77176333Y-93384714D01*
X77128714Y-93479952D01*
X77081095Y-93527571D01*
X76985857Y-93575190D01*
X76604904Y-93575190D01*
X77509666Y-93051380D02*
X78128714Y-93051380D01*
X77795380Y-93432333D01*
X77938238Y-93432333D01*
X78033476Y-93479952D01*
X78081095Y-93527571D01*
X78128714Y-93622809D01*
X78128714Y-93860904D01*
X78081095Y-93956142D01*
X78033476Y-94003761D01*
X77938238Y-94051380D01*
X77652523Y-94051380D01*
X77557285Y-94003761D01*
X77509666Y-93956142D01*
%TO.C,R4*%
X77154823Y-92781380D02*
X76821490Y-92305190D01*
X76583394Y-92781380D02*
X76583394Y-91781380D01*
X76964347Y-91781380D01*
X77059585Y-91829000D01*
X77107204Y-91876619D01*
X77154823Y-91971857D01*
X77154823Y-92114714D01*
X77107204Y-92209952D01*
X77059585Y-92257571D01*
X76964347Y-92305190D01*
X76583394Y-92305190D01*
X78011966Y-92114714D02*
X78011966Y-92781380D01*
X77773870Y-91733761D02*
X77535775Y-92448047D01*
X78154823Y-92448047D01*
%TO.C,R5*%
X77176333Y-91511380D02*
X76843000Y-91035190D01*
X76604904Y-91511380D02*
X76604904Y-90511380D01*
X76985857Y-90511380D01*
X77081095Y-90559000D01*
X77128714Y-90606619D01*
X77176333Y-90701857D01*
X77176333Y-90844714D01*
X77128714Y-90939952D01*
X77081095Y-90987571D01*
X76985857Y-91035190D01*
X76604904Y-91035190D01*
X78081095Y-90511380D02*
X77604904Y-90511380D01*
X77557285Y-90987571D01*
X77604904Y-90939952D01*
X77700142Y-90892333D01*
X77938238Y-90892333D01*
X78033476Y-90939952D01*
X78081095Y-90987571D01*
X78128714Y-91082809D01*
X78128714Y-91320904D01*
X78081095Y-91416142D01*
X78033476Y-91463761D01*
X77938238Y-91511380D01*
X77700142Y-91511380D01*
X77604904Y-91463761D01*
X77557285Y-91416142D01*
%TO.C,R6*%
X83145333Y-89606380D02*
X82812000Y-89130190D01*
X82573904Y-89606380D02*
X82573904Y-88606380D01*
X82954857Y-88606380D01*
X83050095Y-88654000D01*
X83097714Y-88701619D01*
X83145333Y-88796857D01*
X83145333Y-88939714D01*
X83097714Y-89034952D01*
X83050095Y-89082571D01*
X82954857Y-89130190D01*
X82573904Y-89130190D01*
X84002476Y-88606380D02*
X83812000Y-88606380D01*
X83716761Y-88654000D01*
X83669142Y-88701619D01*
X83573904Y-88844476D01*
X83526285Y-89034952D01*
X83526285Y-89415904D01*
X83573904Y-89511142D01*
X83621523Y-89558761D01*
X83716761Y-89606380D01*
X83907238Y-89606380D01*
X84002476Y-89558761D01*
X84050095Y-89511142D01*
X84097714Y-89415904D01*
X84097714Y-89177809D01*
X84050095Y-89082571D01*
X84002476Y-89034952D01*
X83907238Y-88987333D01*
X83716761Y-88987333D01*
X83621523Y-89034952D01*
X83573904Y-89082571D01*
X83526285Y-89177809D01*
%TO.C,R7*%
X76652380Y-89320666D02*
X76176190Y-89654000D01*
X76652380Y-89892095D02*
X75652380Y-89892095D01*
X75652380Y-89511142D01*
X75700000Y-89415904D01*
X75747619Y-89368285D01*
X75842857Y-89320666D01*
X75985714Y-89320666D01*
X76080952Y-89368285D01*
X76128571Y-89415904D01*
X76176190Y-89511142D01*
X76176190Y-89892095D01*
X75652380Y-88987333D02*
X75652380Y-88320666D01*
X76652380Y-88749238D01*
%TO.C,R10*%
X45785870Y-112397347D02*
X45309680Y-112730680D01*
X45785870Y-112968775D02*
X44785870Y-112968775D01*
X44785870Y-112587823D01*
X44833490Y-112492585D01*
X44881109Y-112444966D01*
X44976347Y-112397347D01*
X45119204Y-112397347D01*
X45214442Y-112444966D01*
X45262061Y-112492585D01*
X45309680Y-112587823D01*
X45309680Y-112968775D01*
X45785870Y-111444966D02*
X45785870Y-112016394D01*
X45785870Y-111730680D02*
X44785870Y-111730680D01*
X44928728Y-111825918D01*
X45023966Y-111921156D01*
X45071585Y-112016394D01*
X44785870Y-110825918D02*
X44785870Y-110730680D01*
X44833490Y-110635442D01*
X44881109Y-110587823D01*
X44976347Y-110540204D01*
X45166823Y-110492585D01*
X45404918Y-110492585D01*
X45595394Y-110540204D01*
X45690632Y-110587823D01*
X45738251Y-110635442D01*
X45785870Y-110730680D01*
X45785870Y-110825918D01*
X45738251Y-110921156D01*
X45690632Y-110968775D01*
X45595394Y-111016394D01*
X45404918Y-111064013D01*
X45166823Y-111064013D01*
X44976347Y-111016394D01*
X44881109Y-110968775D01*
X44833490Y-110921156D01*
X44785870Y-110825918D01*
%TO.C,R11*%
X43505380Y-112402857D02*
X43029190Y-112736190D01*
X43505380Y-112974285D02*
X42505380Y-112974285D01*
X42505380Y-112593333D01*
X42553000Y-112498095D01*
X42600619Y-112450476D01*
X42695857Y-112402857D01*
X42838714Y-112402857D01*
X42933952Y-112450476D01*
X42981571Y-112498095D01*
X43029190Y-112593333D01*
X43029190Y-112974285D01*
X43505380Y-111450476D02*
X43505380Y-112021904D01*
X43505380Y-111736190D02*
X42505380Y-111736190D01*
X42648238Y-111831428D01*
X42743476Y-111926666D01*
X42791095Y-112021904D01*
X43505380Y-110498095D02*
X43505380Y-111069523D01*
X43505380Y-110783809D02*
X42505380Y-110783809D01*
X42648238Y-110879047D01*
X42743476Y-110974285D01*
X42791095Y-111069523D01*
%TO.C,SW1*%
X87893761Y-84391333D02*
X87941380Y-84248476D01*
X87941380Y-84010380D01*
X87893761Y-83915142D01*
X87846142Y-83867523D01*
X87750904Y-83819904D01*
X87655666Y-83819904D01*
X87560428Y-83867523D01*
X87512809Y-83915142D01*
X87465190Y-84010380D01*
X87417571Y-84200857D01*
X87369952Y-84296095D01*
X87322333Y-84343714D01*
X87227095Y-84391333D01*
X87131857Y-84391333D01*
X87036619Y-84343714D01*
X86989000Y-84296095D01*
X86941380Y-84200857D01*
X86941380Y-83962761D01*
X86989000Y-83819904D01*
X86941380Y-83486571D02*
X87941380Y-83248476D01*
X87227095Y-83058000D01*
X87941380Y-82867523D01*
X86941380Y-82629428D01*
X87941380Y-81724666D02*
X87941380Y-82296095D01*
X87941380Y-82010380D02*
X86941380Y-82010380D01*
X87084238Y-82105619D01*
X87179476Y-82200857D01*
X87227095Y-82296095D01*
%TO.C,SW2*%
X72794761Y-84391333D02*
X72842380Y-84248476D01*
X72842380Y-84010380D01*
X72794761Y-83915142D01*
X72747142Y-83867523D01*
X72651904Y-83819904D01*
X72556666Y-83819904D01*
X72461428Y-83867523D01*
X72413809Y-83915142D01*
X72366190Y-84010380D01*
X72318571Y-84200857D01*
X72270952Y-84296095D01*
X72223333Y-84343714D01*
X72128095Y-84391333D01*
X72032857Y-84391333D01*
X71937619Y-84343714D01*
X71890000Y-84296095D01*
X71842380Y-84200857D01*
X71842380Y-83962761D01*
X71890000Y-83819904D01*
X71842380Y-83486571D02*
X72842380Y-83248476D01*
X72128095Y-83058000D01*
X72842380Y-82867523D01*
X71842380Y-82629428D01*
X71937619Y-82296095D02*
X71890000Y-82248476D01*
X71842380Y-82153238D01*
X71842380Y-81915142D01*
X71890000Y-81819904D01*
X71937619Y-81772285D01*
X72032857Y-81724666D01*
X72128095Y-81724666D01*
X72270952Y-81772285D01*
X72842380Y-82343714D01*
X72842380Y-81724666D01*
%TO.C,U6*%
X65359870Y-91688394D02*
X66169394Y-91688394D01*
X66264632Y-91640775D01*
X66312251Y-91593156D01*
X66359870Y-91497918D01*
X66359870Y-91307442D01*
X66312251Y-91212204D01*
X66264632Y-91164585D01*
X66169394Y-91116966D01*
X65359870Y-91116966D01*
X65359870Y-90212204D02*
X65359870Y-90402680D01*
X65407490Y-90497918D01*
X65455109Y-90545537D01*
X65597966Y-90640775D01*
X65788442Y-90688394D01*
X66169394Y-90688394D01*
X66264632Y-90640775D01*
X66312251Y-90593156D01*
X66359870Y-90497918D01*
X66359870Y-90307442D01*
X66312251Y-90212204D01*
X66264632Y-90164585D01*
X66169394Y-90116966D01*
X65931299Y-90116966D01*
X65836061Y-90164585D01*
X65788442Y-90212204D01*
X65740823Y-90307442D01*
X65740823Y-90497918D01*
X65788442Y-90593156D01*
X65836061Y-90640775D01*
X65931299Y-90688394D01*
%TO.C,Y2*%
X49307809Y-110720190D02*
X49307809Y-111196380D01*
X48974476Y-110196380D02*
X49307809Y-110720190D01*
X49641142Y-110196380D01*
X49926857Y-110291619D02*
X49974476Y-110244000D01*
X50069714Y-110196380D01*
X50307809Y-110196380D01*
X50403047Y-110244000D01*
X50450666Y-110291619D01*
X50498285Y-110386857D01*
X50498285Y-110482095D01*
X50450666Y-110624952D01*
X49879238Y-111196380D01*
X50498285Y-111196380D01*
%TO.C,D4*%
X86743394Y-94178380D02*
X86743394Y-93178380D01*
X86981490Y-93178380D01*
X87124347Y-93226000D01*
X87219585Y-93321238D01*
X87267204Y-93416476D01*
X87314823Y-93606952D01*
X87314823Y-93749809D01*
X87267204Y-93940285D01*
X87219585Y-94035523D01*
X87124347Y-94130761D01*
X86981490Y-94178380D01*
X86743394Y-94178380D01*
X88171966Y-93511714D02*
X88171966Y-94178380D01*
X87933870Y-93130761D02*
X87695775Y-93845047D01*
X88314823Y-93845047D01*
%TO.C,J9*%
X75988156Y-108456870D02*
X75988156Y-109171156D01*
X75940537Y-109314013D01*
X75845299Y-109409251D01*
X75702442Y-109456870D01*
X75607204Y-109456870D01*
X76511966Y-109456870D02*
X76702442Y-109456870D01*
X76797680Y-109409251D01*
X76845299Y-109361632D01*
X76940537Y-109218775D01*
X76988156Y-109028299D01*
X76988156Y-108647347D01*
X76940537Y-108552109D01*
X76892918Y-108504490D01*
X76797680Y-108456870D01*
X76607204Y-108456870D01*
X76511966Y-108504490D01*
X76464347Y-108552109D01*
X76416728Y-108647347D01*
X76416728Y-108885442D01*
X76464347Y-108980680D01*
X76511966Y-109028299D01*
X76607204Y-109075918D01*
X76797680Y-109075918D01*
X76892918Y-109028299D01*
X76940537Y-108980680D01*
X76988156Y-108885442D01*
%TO.C,J6*%
X83780380Y-73485333D02*
X84494666Y-73485333D01*
X84637523Y-73532952D01*
X84732761Y-73628190D01*
X84780380Y-73771047D01*
X84780380Y-73866285D01*
X83780380Y-72580571D02*
X83780380Y-72771047D01*
X83828000Y-72866285D01*
X83875619Y-72913904D01*
X84018476Y-73009142D01*
X84208952Y-73056761D01*
X84589904Y-73056761D01*
X84685142Y-73009142D01*
X84732761Y-72961523D01*
X84780380Y-72866285D01*
X84780380Y-72675809D01*
X84732761Y-72580571D01*
X84685142Y-72532952D01*
X84589904Y-72485333D01*
X84351809Y-72485333D01*
X84256571Y-72532952D01*
X84208952Y-72580571D01*
X84161333Y-72675809D01*
X84161333Y-72866285D01*
X84208952Y-72961523D01*
X84256571Y-73009142D01*
X84351809Y-73056761D01*
%TO.C,J8*%
X57021870Y-93037823D02*
X57736156Y-93037823D01*
X57879013Y-93085442D01*
X57974251Y-93180680D01*
X58021870Y-93323537D01*
X58021870Y-93418775D01*
X57450442Y-92418775D02*
X57402823Y-92514013D01*
X57355204Y-92561632D01*
X57259966Y-92609251D01*
X57212347Y-92609251D01*
X57117109Y-92561632D01*
X57069490Y-92514013D01*
X57021870Y-92418775D01*
X57021870Y-92228299D01*
X57069490Y-92133061D01*
X57117109Y-92085442D01*
X57212347Y-92037823D01*
X57259966Y-92037823D01*
X57355204Y-92085442D01*
X57402823Y-92133061D01*
X57450442Y-92228299D01*
X57450442Y-92418775D01*
X57498061Y-92514013D01*
X57545680Y-92561632D01*
X57640918Y-92609251D01*
X57831394Y-92609251D01*
X57926632Y-92561632D01*
X57974251Y-92514013D01*
X58021870Y-92418775D01*
X58021870Y-92228299D01*
X57974251Y-92133061D01*
X57926632Y-92085442D01*
X57831394Y-92037823D01*
X57640918Y-92037823D01*
X57545680Y-92085442D01*
X57498061Y-92133061D01*
X57450442Y-92228299D01*
%TO.C,Y1*%
X67717299Y-115032680D02*
X67717299Y-115508870D01*
X67383966Y-114508870D02*
X67717299Y-115032680D01*
X68050632Y-114508870D01*
X68907775Y-115508870D02*
X68336347Y-115508870D01*
X68622061Y-115508870D02*
X68622061Y-114508870D01*
X68526823Y-114651728D01*
X68431585Y-114746966D01*
X68336347Y-114794585D01*
%TO.C,C3*%
X43283142Y-118022666D02*
X43330761Y-118070285D01*
X43378380Y-118213142D01*
X43378380Y-118308380D01*
X43330761Y-118451238D01*
X43235523Y-118546476D01*
X43140285Y-118594095D01*
X42949809Y-118641714D01*
X42806952Y-118641714D01*
X42616476Y-118594095D01*
X42521238Y-118546476D01*
X42426000Y-118451238D01*
X42378380Y-118308380D01*
X42378380Y-118213142D01*
X42426000Y-118070285D01*
X42473619Y-118022666D01*
X42378380Y-117689333D02*
X42378380Y-117070285D01*
X42759333Y-117403619D01*
X42759333Y-117260761D01*
X42806952Y-117165523D01*
X42854571Y-117117904D01*
X42949809Y-117070285D01*
X43187904Y-117070285D01*
X43283142Y-117117904D01*
X43330761Y-117165523D01*
X43378380Y-117260761D01*
X43378380Y-117546476D01*
X43330761Y-117641714D01*
X43283142Y-117689333D01*
%TO.C,C4*%
X32488142Y-78779666D02*
X32535761Y-78827285D01*
X32583380Y-78970142D01*
X32583380Y-79065380D01*
X32535761Y-79208238D01*
X32440523Y-79303476D01*
X32345285Y-79351095D01*
X32154809Y-79398714D01*
X32011952Y-79398714D01*
X31821476Y-79351095D01*
X31726238Y-79303476D01*
X31631000Y-79208238D01*
X31583380Y-79065380D01*
X31583380Y-78970142D01*
X31631000Y-78827285D01*
X31678619Y-78779666D01*
X31916714Y-77922523D02*
X32583380Y-77922523D01*
X31535761Y-78160619D02*
X32250047Y-78398714D01*
X32250047Y-77779666D01*
%TO.C,C5*%
X21693142Y-116244666D02*
X21740761Y-116292285D01*
X21788380Y-116435142D01*
X21788380Y-116530380D01*
X21740761Y-116673238D01*
X21645523Y-116768476D01*
X21550285Y-116816095D01*
X21359809Y-116863714D01*
X21216952Y-116863714D01*
X21026476Y-116816095D01*
X20931238Y-116768476D01*
X20836000Y-116673238D01*
X20788380Y-116530380D01*
X20788380Y-116435142D01*
X20836000Y-116292285D01*
X20883619Y-116244666D01*
X20788380Y-115339904D02*
X20788380Y-115816095D01*
X21264571Y-115863714D01*
X21216952Y-115816095D01*
X21169333Y-115720857D01*
X21169333Y-115482761D01*
X21216952Y-115387523D01*
X21264571Y-115339904D01*
X21359809Y-115292285D01*
X21597904Y-115292285D01*
X21693142Y-115339904D01*
X21740761Y-115387523D01*
X21788380Y-115482761D01*
X21788380Y-115720857D01*
X21740761Y-115816095D01*
X21693142Y-115863714D01*
%TO.C,C6*%
X24725333Y-91924142D02*
X24677714Y-91971761D01*
X24534857Y-92019380D01*
X24439619Y-92019380D01*
X24296761Y-91971761D01*
X24201523Y-91876523D01*
X24153904Y-91781285D01*
X24106285Y-91590809D01*
X24106285Y-91447952D01*
X24153904Y-91257476D01*
X24201523Y-91162238D01*
X24296761Y-91067000D01*
X24439619Y-91019380D01*
X24534857Y-91019380D01*
X24677714Y-91067000D01*
X24725333Y-91114619D01*
X25582476Y-91019380D02*
X25392000Y-91019380D01*
X25296761Y-91067000D01*
X25249142Y-91114619D01*
X25153904Y-91257476D01*
X25106285Y-91447952D01*
X25106285Y-91828904D01*
X25153904Y-91924142D01*
X25201523Y-91971761D01*
X25296761Y-92019380D01*
X25487238Y-92019380D01*
X25582476Y-91971761D01*
X25630095Y-91924142D01*
X25677714Y-91828904D01*
X25677714Y-91590809D01*
X25630095Y-91495571D01*
X25582476Y-91447952D01*
X25487238Y-91400333D01*
X25296761Y-91400333D01*
X25201523Y-91447952D01*
X25153904Y-91495571D01*
X25106285Y-91590809D01*
%TO.C,C13*%
X44553142Y-117990857D02*
X44600761Y-118038476D01*
X44648380Y-118181333D01*
X44648380Y-118276571D01*
X44600761Y-118419428D01*
X44505523Y-118514666D01*
X44410285Y-118562285D01*
X44219809Y-118609904D01*
X44076952Y-118609904D01*
X43886476Y-118562285D01*
X43791238Y-118514666D01*
X43696000Y-118419428D01*
X43648380Y-118276571D01*
X43648380Y-118181333D01*
X43696000Y-118038476D01*
X43743619Y-117990857D01*
X44648380Y-117038476D02*
X44648380Y-117609904D01*
X44648380Y-117324190D02*
X43648380Y-117324190D01*
X43791238Y-117419428D01*
X43886476Y-117514666D01*
X43934095Y-117609904D01*
X43648380Y-116705142D02*
X43648380Y-116086095D01*
X44029333Y-116419428D01*
X44029333Y-116276571D01*
X44076952Y-116181333D01*
X44124571Y-116133714D01*
X44219809Y-116086095D01*
X44457904Y-116086095D01*
X44553142Y-116133714D01*
X44600761Y-116181333D01*
X44648380Y-116276571D01*
X44648380Y-116562285D01*
X44600761Y-116657523D01*
X44553142Y-116705142D01*
%TO.C,C34*%
X33123142Y-75191857D02*
X33170761Y-75239476D01*
X33218380Y-75382333D01*
X33218380Y-75477571D01*
X33170761Y-75620428D01*
X33075523Y-75715666D01*
X32980285Y-75763285D01*
X32789809Y-75810904D01*
X32646952Y-75810904D01*
X32456476Y-75763285D01*
X32361238Y-75715666D01*
X32266000Y-75620428D01*
X32218380Y-75477571D01*
X32218380Y-75382333D01*
X32266000Y-75239476D01*
X32313619Y-75191857D01*
X32218380Y-74858523D02*
X32218380Y-74239476D01*
X32599333Y-74572809D01*
X32599333Y-74429952D01*
X32646952Y-74334714D01*
X32694571Y-74287095D01*
X32789809Y-74239476D01*
X33027904Y-74239476D01*
X33123142Y-74287095D01*
X33170761Y-74334714D01*
X33218380Y-74429952D01*
X33218380Y-74715666D01*
X33170761Y-74810904D01*
X33123142Y-74858523D01*
X32551714Y-73382333D02*
X33218380Y-73382333D01*
X32170761Y-73620428D02*
X32885047Y-73858523D01*
X32885047Y-73239476D01*
%TO.C,D7*%
X22169380Y-111482095D02*
X21169380Y-111482095D01*
X21169380Y-111244000D01*
X21217000Y-111101142D01*
X21312238Y-111005904D01*
X21407476Y-110958285D01*
X21597952Y-110910666D01*
X21740809Y-110910666D01*
X21931285Y-110958285D01*
X22026523Y-111005904D01*
X22121761Y-111101142D01*
X22169380Y-111244000D01*
X22169380Y-111482095D01*
X21169380Y-110577333D02*
X21169380Y-109910666D01*
X22169380Y-110339238D01*
%TO.C,D8*%
X20089904Y-92781380D02*
X20089904Y-91781380D01*
X20328000Y-91781380D01*
X20470857Y-91829000D01*
X20566095Y-91924238D01*
X20613714Y-92019476D01*
X20661333Y-92209952D01*
X20661333Y-92352809D01*
X20613714Y-92543285D01*
X20566095Y-92638523D01*
X20470857Y-92733761D01*
X20328000Y-92781380D01*
X20089904Y-92781380D01*
X21232761Y-92209952D02*
X21137523Y-92162333D01*
X21089904Y-92114714D01*
X21042285Y-92019476D01*
X21042285Y-91971857D01*
X21089904Y-91876619D01*
X21137523Y-91829000D01*
X21232761Y-91781380D01*
X21423238Y-91781380D01*
X21518476Y-91829000D01*
X21566095Y-91876619D01*
X21613714Y-91971857D01*
X21613714Y-92019476D01*
X21566095Y-92114714D01*
X21518476Y-92162333D01*
X21423238Y-92209952D01*
X21232761Y-92209952D01*
X21137523Y-92257571D01*
X21089904Y-92305190D01*
X21042285Y-92400428D01*
X21042285Y-92590904D01*
X21089904Y-92686142D01*
X21137523Y-92733761D01*
X21232761Y-92781380D01*
X21423238Y-92781380D01*
X21518476Y-92733761D01*
X21566095Y-92686142D01*
X21613714Y-92590904D01*
X21613714Y-92400428D01*
X21566095Y-92305190D01*
X21518476Y-92257571D01*
X21423238Y-92209952D01*
%TO.C,L1*%
X38568333Y-110688380D02*
X38092142Y-110688380D01*
X38092142Y-109688380D01*
X39425476Y-110688380D02*
X38854047Y-110688380D01*
X39139761Y-110688380D02*
X39139761Y-109688380D01*
X39044523Y-109831238D01*
X38949285Y-109926476D01*
X38854047Y-109974095D01*
%TO.C,L2*%
X25487333Y-73350380D02*
X25011142Y-73350380D01*
X25011142Y-72350380D01*
X25773047Y-72445619D02*
X25820666Y-72398000D01*
X25915904Y-72350380D01*
X26154000Y-72350380D01*
X26249238Y-72398000D01*
X26296857Y-72445619D01*
X26344476Y-72540857D01*
X26344476Y-72636095D01*
X26296857Y-72778952D01*
X25725428Y-73350380D01*
X26344476Y-73350380D01*
%TO.C,R14*%
X30932380Y-125864857D02*
X30456190Y-126198190D01*
X30932380Y-126436285D02*
X29932380Y-126436285D01*
X29932380Y-126055333D01*
X29980000Y-125960095D01*
X30027619Y-125912476D01*
X30122857Y-125864857D01*
X30265714Y-125864857D01*
X30360952Y-125912476D01*
X30408571Y-125960095D01*
X30456190Y-126055333D01*
X30456190Y-126436285D01*
X30932380Y-124912476D02*
X30932380Y-125483904D01*
X30932380Y-125198190D02*
X29932380Y-125198190D01*
X30075238Y-125293428D01*
X30170476Y-125388666D01*
X30218095Y-125483904D01*
X30265714Y-124055333D02*
X30932380Y-124055333D01*
X29884761Y-124293428D02*
X30599047Y-124531523D01*
X30599047Y-123912476D01*
%TO.C,R15*%
X33853380Y-78747857D02*
X33377190Y-79081190D01*
X33853380Y-79319285D02*
X32853380Y-79319285D01*
X32853380Y-78938333D01*
X32901000Y-78843095D01*
X32948619Y-78795476D01*
X33043857Y-78747857D01*
X33186714Y-78747857D01*
X33281952Y-78795476D01*
X33329571Y-78843095D01*
X33377190Y-78938333D01*
X33377190Y-79319285D01*
X33853380Y-77795476D02*
X33853380Y-78366904D01*
X33853380Y-78081190D02*
X32853380Y-78081190D01*
X32996238Y-78176428D01*
X33091476Y-78271666D01*
X33139095Y-78366904D01*
X32853380Y-76890714D02*
X32853380Y-77366904D01*
X33329571Y-77414523D01*
X33281952Y-77366904D01*
X33234333Y-77271666D01*
X33234333Y-77033571D01*
X33281952Y-76938333D01*
X33329571Y-76890714D01*
X33424809Y-76843095D01*
X33662904Y-76843095D01*
X33758142Y-76890714D01*
X33805761Y-76938333D01*
X33853380Y-77033571D01*
X33853380Y-77271666D01*
X33805761Y-77366904D01*
X33758142Y-77414523D01*
%TO.C,R18*%
X28900380Y-125864857D02*
X28424190Y-126198190D01*
X28900380Y-126436285D02*
X27900380Y-126436285D01*
X27900380Y-126055333D01*
X27948000Y-125960095D01*
X27995619Y-125912476D01*
X28090857Y-125864857D01*
X28233714Y-125864857D01*
X28328952Y-125912476D01*
X28376571Y-125960095D01*
X28424190Y-126055333D01*
X28424190Y-126436285D01*
X28900380Y-124912476D02*
X28900380Y-125483904D01*
X28900380Y-125198190D02*
X27900380Y-125198190D01*
X28043238Y-125293428D01*
X28138476Y-125388666D01*
X28186095Y-125483904D01*
X28328952Y-124341047D02*
X28281333Y-124436285D01*
X28233714Y-124483904D01*
X28138476Y-124531523D01*
X28090857Y-124531523D01*
X27995619Y-124483904D01*
X27948000Y-124436285D01*
X27900380Y-124341047D01*
X27900380Y-124150571D01*
X27948000Y-124055333D01*
X27995619Y-124007714D01*
X28090857Y-123960095D01*
X28138476Y-123960095D01*
X28233714Y-124007714D01*
X28281333Y-124055333D01*
X28328952Y-124150571D01*
X28328952Y-124341047D01*
X28376571Y-124436285D01*
X28424190Y-124483904D01*
X28519428Y-124531523D01*
X28709904Y-124531523D01*
X28805142Y-124483904D01*
X28852761Y-124436285D01*
X28900380Y-124341047D01*
X28900380Y-124150571D01*
X28852761Y-124055333D01*
X28805142Y-124007714D01*
X28709904Y-123960095D01*
X28519428Y-123960095D01*
X28424190Y-124007714D01*
X28376571Y-124055333D01*
X28328952Y-124150571D01*
%TO.C,R19*%
X36187142Y-88590380D02*
X35853809Y-88114190D01*
X35615714Y-88590380D02*
X35615714Y-87590380D01*
X35996666Y-87590380D01*
X36091904Y-87638000D01*
X36139523Y-87685619D01*
X36187142Y-87780857D01*
X36187142Y-87923714D01*
X36139523Y-88018952D01*
X36091904Y-88066571D01*
X35996666Y-88114190D01*
X35615714Y-88114190D01*
X37139523Y-88590380D02*
X36568095Y-88590380D01*
X36853809Y-88590380D02*
X36853809Y-87590380D01*
X36758571Y-87733238D01*
X36663333Y-87828476D01*
X36568095Y-87876095D01*
X37615714Y-88590380D02*
X37806190Y-88590380D01*
X37901428Y-88542761D01*
X37949047Y-88495142D01*
X38044285Y-88352285D01*
X38091904Y-88161809D01*
X38091904Y-87780857D01*
X38044285Y-87685619D01*
X37996666Y-87638000D01*
X37901428Y-87590380D01*
X37710952Y-87590380D01*
X37615714Y-87638000D01*
X37568095Y-87685619D01*
X37520476Y-87780857D01*
X37520476Y-88018952D01*
X37568095Y-88114190D01*
X37615714Y-88161809D01*
X37710952Y-88209428D01*
X37901428Y-88209428D01*
X37996666Y-88161809D01*
X38044285Y-88114190D01*
X38091904Y-88018952D01*
%TO.C,R23*%
X23058380Y-116212857D02*
X22582190Y-116546190D01*
X23058380Y-116784285D02*
X22058380Y-116784285D01*
X22058380Y-116403333D01*
X22106000Y-116308095D01*
X22153619Y-116260476D01*
X22248857Y-116212857D01*
X22391714Y-116212857D01*
X22486952Y-116260476D01*
X22534571Y-116308095D01*
X22582190Y-116403333D01*
X22582190Y-116784285D01*
X22153619Y-115831904D02*
X22106000Y-115784285D01*
X22058380Y-115689047D01*
X22058380Y-115450952D01*
X22106000Y-115355714D01*
X22153619Y-115308095D01*
X22248857Y-115260476D01*
X22344095Y-115260476D01*
X22486952Y-115308095D01*
X23058380Y-115879523D01*
X23058380Y-115260476D01*
X22058380Y-114927142D02*
X22058380Y-114308095D01*
X22439333Y-114641428D01*
X22439333Y-114498571D01*
X22486952Y-114403333D01*
X22534571Y-114355714D01*
X22629809Y-114308095D01*
X22867904Y-114308095D01*
X22963142Y-114355714D01*
X23010761Y-114403333D01*
X23058380Y-114498571D01*
X23058380Y-114784285D01*
X23010761Y-114879523D01*
X22963142Y-114927142D01*
%TO.C,R24*%
X24757142Y-90622380D02*
X24423809Y-90146190D01*
X24185714Y-90622380D02*
X24185714Y-89622380D01*
X24566666Y-89622380D01*
X24661904Y-89670000D01*
X24709523Y-89717619D01*
X24757142Y-89812857D01*
X24757142Y-89955714D01*
X24709523Y-90050952D01*
X24661904Y-90098571D01*
X24566666Y-90146190D01*
X24185714Y-90146190D01*
X25138095Y-89717619D02*
X25185714Y-89670000D01*
X25280952Y-89622380D01*
X25519047Y-89622380D01*
X25614285Y-89670000D01*
X25661904Y-89717619D01*
X25709523Y-89812857D01*
X25709523Y-89908095D01*
X25661904Y-90050952D01*
X25090476Y-90622380D01*
X25709523Y-90622380D01*
X26566666Y-89955714D02*
X26566666Y-90622380D01*
X26328571Y-89574761D02*
X26090476Y-90289047D01*
X26709523Y-90289047D01*
%TO.C,R25*%
X26868380Y-125864857D02*
X26392190Y-126198190D01*
X26868380Y-126436285D02*
X25868380Y-126436285D01*
X25868380Y-126055333D01*
X25916000Y-125960095D01*
X25963619Y-125912476D01*
X26058857Y-125864857D01*
X26201714Y-125864857D01*
X26296952Y-125912476D01*
X26344571Y-125960095D01*
X26392190Y-126055333D01*
X26392190Y-126436285D01*
X25963619Y-125483904D02*
X25916000Y-125436285D01*
X25868380Y-125341047D01*
X25868380Y-125102952D01*
X25916000Y-125007714D01*
X25963619Y-124960095D01*
X26058857Y-124912476D01*
X26154095Y-124912476D01*
X26296952Y-124960095D01*
X26868380Y-125531523D01*
X26868380Y-124912476D01*
X25868380Y-124007714D02*
X25868380Y-124483904D01*
X26344571Y-124531523D01*
X26296952Y-124483904D01*
X26249333Y-124388666D01*
X26249333Y-124150571D01*
X26296952Y-124055333D01*
X26344571Y-124007714D01*
X26439809Y-123960095D01*
X26677904Y-123960095D01*
X26773142Y-124007714D01*
X26820761Y-124055333D01*
X26868380Y-124150571D01*
X26868380Y-124388666D01*
X26820761Y-124483904D01*
X26773142Y-124531523D01*
%TO.C,R26*%
X36187142Y-89860380D02*
X35853809Y-89384190D01*
X35615714Y-89860380D02*
X35615714Y-88860380D01*
X35996666Y-88860380D01*
X36091904Y-88908000D01*
X36139523Y-88955619D01*
X36187142Y-89050857D01*
X36187142Y-89193714D01*
X36139523Y-89288952D01*
X36091904Y-89336571D01*
X35996666Y-89384190D01*
X35615714Y-89384190D01*
X36568095Y-88955619D02*
X36615714Y-88908000D01*
X36710952Y-88860380D01*
X36949047Y-88860380D01*
X37044285Y-88908000D01*
X37091904Y-88955619D01*
X37139523Y-89050857D01*
X37139523Y-89146095D01*
X37091904Y-89288952D01*
X36520476Y-89860380D01*
X37139523Y-89860380D01*
X37996666Y-88860380D02*
X37806190Y-88860380D01*
X37710952Y-88908000D01*
X37663333Y-88955619D01*
X37568095Y-89098476D01*
X37520476Y-89288952D01*
X37520476Y-89669904D01*
X37568095Y-89765142D01*
X37615714Y-89812761D01*
X37710952Y-89860380D01*
X37901428Y-89860380D01*
X37996666Y-89812761D01*
X38044285Y-89765142D01*
X38091904Y-89669904D01*
X38091904Y-89431809D01*
X38044285Y-89336571D01*
X37996666Y-89288952D01*
X37901428Y-89241333D01*
X37710952Y-89241333D01*
X37615714Y-89288952D01*
X37568095Y-89336571D01*
X37520476Y-89431809D01*
%TO.C,R27*%
X24836380Y-125864857D02*
X24360190Y-126198190D01*
X24836380Y-126436285D02*
X23836380Y-126436285D01*
X23836380Y-126055333D01*
X23884000Y-125960095D01*
X23931619Y-125912476D01*
X24026857Y-125864857D01*
X24169714Y-125864857D01*
X24264952Y-125912476D01*
X24312571Y-125960095D01*
X24360190Y-126055333D01*
X24360190Y-126436285D01*
X23931619Y-125483904D02*
X23884000Y-125436285D01*
X23836380Y-125341047D01*
X23836380Y-125102952D01*
X23884000Y-125007714D01*
X23931619Y-124960095D01*
X24026857Y-124912476D01*
X24122095Y-124912476D01*
X24264952Y-124960095D01*
X24836380Y-125531523D01*
X24836380Y-124912476D01*
X23836380Y-124579142D02*
X23836380Y-123912476D01*
X24836380Y-124341047D01*
%TO.C,R28*%
X36187142Y-91130380D02*
X35853809Y-90654190D01*
X35615714Y-91130380D02*
X35615714Y-90130380D01*
X35996666Y-90130380D01*
X36091904Y-90178000D01*
X36139523Y-90225619D01*
X36187142Y-90320857D01*
X36187142Y-90463714D01*
X36139523Y-90558952D01*
X36091904Y-90606571D01*
X35996666Y-90654190D01*
X35615714Y-90654190D01*
X36568095Y-90225619D02*
X36615714Y-90178000D01*
X36710952Y-90130380D01*
X36949047Y-90130380D01*
X37044285Y-90178000D01*
X37091904Y-90225619D01*
X37139523Y-90320857D01*
X37139523Y-90416095D01*
X37091904Y-90558952D01*
X36520476Y-91130380D01*
X37139523Y-91130380D01*
X37710952Y-90558952D02*
X37615714Y-90511333D01*
X37568095Y-90463714D01*
X37520476Y-90368476D01*
X37520476Y-90320857D01*
X37568095Y-90225619D01*
X37615714Y-90178000D01*
X37710952Y-90130380D01*
X37901428Y-90130380D01*
X37996666Y-90178000D01*
X38044285Y-90225619D01*
X38091904Y-90320857D01*
X38091904Y-90368476D01*
X38044285Y-90463714D01*
X37996666Y-90511333D01*
X37901428Y-90558952D01*
X37710952Y-90558952D01*
X37615714Y-90606571D01*
X37568095Y-90654190D01*
X37520476Y-90749428D01*
X37520476Y-90939904D01*
X37568095Y-91035142D01*
X37615714Y-91082761D01*
X37710952Y-91130380D01*
X37901428Y-91130380D01*
X37996666Y-91082761D01*
X38044285Y-91035142D01*
X38091904Y-90939904D01*
X38091904Y-90749428D01*
X38044285Y-90654190D01*
X37996666Y-90606571D01*
X37901428Y-90558952D01*
%TO.C,U1*%
X21971095Y-117562380D02*
X21971095Y-118371904D01*
X22018714Y-118467142D01*
X22066333Y-118514761D01*
X22161571Y-118562380D01*
X22352047Y-118562380D01*
X22447285Y-118514761D01*
X22494904Y-118467142D01*
X22542523Y-118371904D01*
X22542523Y-117562380D01*
X23542523Y-118562380D02*
X22971095Y-118562380D01*
X23256809Y-118562380D02*
X23256809Y-117562380D01*
X23161571Y-117705238D01*
X23066333Y-117800476D01*
X22971095Y-117848095D01*
%TO.C,U2*%
X27559095Y-89622380D02*
X27559095Y-90431904D01*
X27606714Y-90527142D01*
X27654333Y-90574761D01*
X27749571Y-90622380D01*
X27940047Y-90622380D01*
X28035285Y-90574761D01*
X28082904Y-90527142D01*
X28130523Y-90431904D01*
X28130523Y-89622380D01*
X28559095Y-89717619D02*
X28606714Y-89670000D01*
X28701952Y-89622380D01*
X28940047Y-89622380D01*
X29035285Y-89670000D01*
X29082904Y-89717619D01*
X29130523Y-89812857D01*
X29130523Y-89908095D01*
X29082904Y-90050952D01*
X28511476Y-90622380D01*
X29130523Y-90622380D01*
%TO.C,U3*%
X98385380Y-100202904D02*
X99194904Y-100202904D01*
X99290142Y-100155285D01*
X99337761Y-100107666D01*
X99385380Y-100012428D01*
X99385380Y-99821952D01*
X99337761Y-99726714D01*
X99290142Y-99679095D01*
X99194904Y-99631476D01*
X98385380Y-99631476D01*
X98385380Y-99250523D02*
X98385380Y-98631476D01*
X98766333Y-98964809D01*
X98766333Y-98821952D01*
X98813952Y-98726714D01*
X98861571Y-98679095D01*
X98956809Y-98631476D01*
X99194904Y-98631476D01*
X99290142Y-98679095D01*
X99337761Y-98726714D01*
X99385380Y-98821952D01*
X99385380Y-99107666D01*
X99337761Y-99202904D01*
X99290142Y-99250523D01*
X99655380Y-105774333D02*
X100655380Y-105441000D01*
X99655380Y-105107666D01*
X100655380Y-104298142D02*
X100655380Y-104774333D01*
X99655380Y-104774333D01*
X99655380Y-103488619D02*
X99655380Y-103964809D01*
X100131571Y-104012428D01*
X100083952Y-103964809D01*
X100036333Y-103869571D01*
X100036333Y-103631476D01*
X100083952Y-103536238D01*
X100131571Y-103488619D01*
X100226809Y-103441000D01*
X100464904Y-103441000D01*
X100560142Y-103488619D01*
X100607761Y-103536238D01*
X100655380Y-103631476D01*
X100655380Y-103869571D01*
X100607761Y-103964809D01*
X100560142Y-104012428D01*
X99655380Y-103107666D02*
X99655380Y-102488619D01*
X100036333Y-102821952D01*
X100036333Y-102679095D01*
X100083952Y-102583857D01*
X100131571Y-102536238D01*
X100226809Y-102488619D01*
X100464904Y-102488619D01*
X100560142Y-102536238D01*
X100607761Y-102583857D01*
X100655380Y-102679095D01*
X100655380Y-102964809D01*
X100607761Y-103060047D01*
X100560142Y-103107666D01*
X100655380Y-101583857D02*
X100655380Y-102060047D01*
X99655380Y-102060047D01*
X99655380Y-101345761D02*
X99655380Y-100726714D01*
X100036333Y-101060047D01*
X100036333Y-100917190D01*
X100083952Y-100821952D01*
X100131571Y-100774333D01*
X100226809Y-100726714D01*
X100464904Y-100726714D01*
X100560142Y-100774333D01*
X100607761Y-100821952D01*
X100655380Y-100917190D01*
X100655380Y-101202904D01*
X100607761Y-101298142D01*
X100560142Y-101345761D01*
X100560142Y-99726714D02*
X100607761Y-99774333D01*
X100655380Y-99917190D01*
X100655380Y-100012428D01*
X100607761Y-100155285D01*
X100512523Y-100250523D01*
X100417285Y-100298142D01*
X100226809Y-100345761D01*
X100083952Y-100345761D01*
X99893476Y-100298142D01*
X99798238Y-100250523D01*
X99703000Y-100155285D01*
X99655380Y-100012428D01*
X99655380Y-99917190D01*
X99703000Y-99774333D01*
X99750619Y-99726714D01*
X99655380Y-99393380D02*
X100655380Y-98726714D01*
X99655380Y-98726714D02*
X100655380Y-99393380D01*
X99655380Y-98488619D02*
X100655380Y-98155285D01*
X99655380Y-97821952D01*
X99655380Y-97298142D02*
X99655380Y-97202904D01*
X99703000Y-97107666D01*
X99750619Y-97060047D01*
X99845857Y-97012428D01*
X100036333Y-96964809D01*
X100274428Y-96964809D01*
X100464904Y-97012428D01*
X100560142Y-97060047D01*
X100607761Y-97107666D01*
X100655380Y-97202904D01*
X100655380Y-97298142D01*
X100607761Y-97393380D01*
X100560142Y-97441000D01*
X100464904Y-97488619D01*
X100274428Y-97536238D01*
X100036333Y-97536238D01*
X99845857Y-97488619D01*
X99750619Y-97441000D01*
X99703000Y-97393380D01*
X99655380Y-97298142D01*
X100655380Y-96536238D02*
X99655380Y-96536238D01*
X99655380Y-96298142D01*
X99703000Y-96155285D01*
X99798238Y-96060047D01*
X99893476Y-96012428D01*
X100083952Y-95964809D01*
X100226809Y-95964809D01*
X100417285Y-96012428D01*
X100512523Y-96060047D01*
X100607761Y-96155285D01*
X100655380Y-96298142D01*
X100655380Y-96536238D01*
X100655380Y-95536238D02*
X99655380Y-95536238D01*
X100131571Y-95536238D02*
X100131571Y-94964809D01*
X100655380Y-94964809D02*
X99655380Y-94964809D01*
X100750619Y-94726714D02*
X100750619Y-93964809D01*
X100655380Y-93202904D02*
X100655380Y-93774333D01*
X100655380Y-93488619D02*
X99655380Y-93488619D01*
X99798238Y-93583857D01*
X99893476Y-93679095D01*
X99941095Y-93774333D01*
X103065380Y-101930200D02*
X103303476Y-101930200D01*
X103208238Y-102168295D02*
X103303476Y-101930200D01*
X103208238Y-101692104D01*
X103493952Y-102073057D02*
X103303476Y-101930200D01*
X103493952Y-101787342D01*
X103065380Y-101930200D02*
X103303476Y-101930200D01*
X103208238Y-102168295D02*
X103303476Y-101930200D01*
X103208238Y-101692104D01*
X103493952Y-102073057D02*
X103303476Y-101930200D01*
X103493952Y-101787342D01*
%TO.C,U4*%
X136485380Y-100202904D02*
X137294904Y-100202904D01*
X137390142Y-100155285D01*
X137437761Y-100107666D01*
X137485380Y-100012428D01*
X137485380Y-99821952D01*
X137437761Y-99726714D01*
X137390142Y-99679095D01*
X137294904Y-99631476D01*
X136485380Y-99631476D01*
X136818714Y-98726714D02*
X137485380Y-98726714D01*
X136437761Y-98964809D02*
X137152047Y-99202904D01*
X137152047Y-98583857D01*
X137755380Y-105774333D02*
X138755380Y-105441000D01*
X137755380Y-105107666D01*
X138755380Y-104298142D02*
X138755380Y-104774333D01*
X137755380Y-104774333D01*
X137755380Y-103488619D02*
X137755380Y-103964809D01*
X138231571Y-104012428D01*
X138183952Y-103964809D01*
X138136333Y-103869571D01*
X138136333Y-103631476D01*
X138183952Y-103536238D01*
X138231571Y-103488619D01*
X138326809Y-103441000D01*
X138564904Y-103441000D01*
X138660142Y-103488619D01*
X138707761Y-103536238D01*
X138755380Y-103631476D01*
X138755380Y-103869571D01*
X138707761Y-103964809D01*
X138660142Y-104012428D01*
X137755380Y-103107666D02*
X137755380Y-102488619D01*
X138136333Y-102821952D01*
X138136333Y-102679095D01*
X138183952Y-102583857D01*
X138231571Y-102536238D01*
X138326809Y-102488619D01*
X138564904Y-102488619D01*
X138660142Y-102536238D01*
X138707761Y-102583857D01*
X138755380Y-102679095D01*
X138755380Y-102964809D01*
X138707761Y-103060047D01*
X138660142Y-103107666D01*
X138755380Y-101583857D02*
X138755380Y-102060047D01*
X137755380Y-102060047D01*
X137755380Y-101345761D02*
X137755380Y-100726714D01*
X138136333Y-101060047D01*
X138136333Y-100917190D01*
X138183952Y-100821952D01*
X138231571Y-100774333D01*
X138326809Y-100726714D01*
X138564904Y-100726714D01*
X138660142Y-100774333D01*
X138707761Y-100821952D01*
X138755380Y-100917190D01*
X138755380Y-101202904D01*
X138707761Y-101298142D01*
X138660142Y-101345761D01*
X138660142Y-99726714D02*
X138707761Y-99774333D01*
X138755380Y-99917190D01*
X138755380Y-100012428D01*
X138707761Y-100155285D01*
X138612523Y-100250523D01*
X138517285Y-100298142D01*
X138326809Y-100345761D01*
X138183952Y-100345761D01*
X137993476Y-100298142D01*
X137898238Y-100250523D01*
X137803000Y-100155285D01*
X137755380Y-100012428D01*
X137755380Y-99917190D01*
X137803000Y-99774333D01*
X137850619Y-99726714D01*
X137755380Y-99393380D02*
X138755380Y-98726714D01*
X137755380Y-98726714D02*
X138755380Y-99393380D01*
X137755380Y-98488619D02*
X138755380Y-98155285D01*
X137755380Y-97821952D01*
X137755380Y-97298142D02*
X137755380Y-97202904D01*
X137803000Y-97107666D01*
X137850619Y-97060047D01*
X137945857Y-97012428D01*
X138136333Y-96964809D01*
X138374428Y-96964809D01*
X138564904Y-97012428D01*
X138660142Y-97060047D01*
X138707761Y-97107666D01*
X138755380Y-97202904D01*
X138755380Y-97298142D01*
X138707761Y-97393380D01*
X138660142Y-97441000D01*
X138564904Y-97488619D01*
X138374428Y-97536238D01*
X138136333Y-97536238D01*
X137945857Y-97488619D01*
X137850619Y-97441000D01*
X137803000Y-97393380D01*
X137755380Y-97298142D01*
X138755380Y-96536238D02*
X137755380Y-96536238D01*
X137755380Y-96298142D01*
X137803000Y-96155285D01*
X137898238Y-96060047D01*
X137993476Y-96012428D01*
X138183952Y-95964809D01*
X138326809Y-95964809D01*
X138517285Y-96012428D01*
X138612523Y-96060047D01*
X138707761Y-96155285D01*
X138755380Y-96298142D01*
X138755380Y-96536238D01*
X138755380Y-95536238D02*
X137755380Y-95536238D01*
X138231571Y-95536238D02*
X138231571Y-94964809D01*
X138755380Y-94964809D02*
X137755380Y-94964809D01*
X138850619Y-94726714D02*
X138850619Y-93964809D01*
X138755380Y-93202904D02*
X138755380Y-93774333D01*
X138755380Y-93488619D02*
X137755380Y-93488619D01*
X137898238Y-93583857D01*
X137993476Y-93679095D01*
X138041095Y-93774333D01*
X141165380Y-101930200D02*
X141403476Y-101930200D01*
X141308238Y-102168295D02*
X141403476Y-101930200D01*
X141308238Y-101692104D01*
X141593952Y-102073057D02*
X141403476Y-101930200D01*
X141593952Y-101787342D01*
X141165380Y-101930200D02*
X141403476Y-101930200D01*
X141308238Y-102168295D02*
X141403476Y-101930200D01*
X141308238Y-101692104D01*
X141593952Y-102073057D02*
X141403476Y-101930200D01*
X141593952Y-101787342D01*
%TO.C,U5*%
X173950380Y-100202904D02*
X174759904Y-100202904D01*
X174855142Y-100155285D01*
X174902761Y-100107666D01*
X174950380Y-100012428D01*
X174950380Y-99821952D01*
X174902761Y-99726714D01*
X174855142Y-99679095D01*
X174759904Y-99631476D01*
X173950380Y-99631476D01*
X173950380Y-98679095D02*
X173950380Y-99155285D01*
X174426571Y-99202904D01*
X174378952Y-99155285D01*
X174331333Y-99060047D01*
X174331333Y-98821952D01*
X174378952Y-98726714D01*
X174426571Y-98679095D01*
X174521809Y-98631476D01*
X174759904Y-98631476D01*
X174855142Y-98679095D01*
X174902761Y-98726714D01*
X174950380Y-98821952D01*
X174950380Y-99060047D01*
X174902761Y-99155285D01*
X174855142Y-99202904D01*
X175220380Y-105774333D02*
X176220380Y-105441000D01*
X175220380Y-105107666D01*
X176220380Y-104298142D02*
X176220380Y-104774333D01*
X175220380Y-104774333D01*
X175220380Y-103488619D02*
X175220380Y-103964809D01*
X175696571Y-104012428D01*
X175648952Y-103964809D01*
X175601333Y-103869571D01*
X175601333Y-103631476D01*
X175648952Y-103536238D01*
X175696571Y-103488619D01*
X175791809Y-103441000D01*
X176029904Y-103441000D01*
X176125142Y-103488619D01*
X176172761Y-103536238D01*
X176220380Y-103631476D01*
X176220380Y-103869571D01*
X176172761Y-103964809D01*
X176125142Y-104012428D01*
X175220380Y-103107666D02*
X175220380Y-102488619D01*
X175601333Y-102821952D01*
X175601333Y-102679095D01*
X175648952Y-102583857D01*
X175696571Y-102536238D01*
X175791809Y-102488619D01*
X176029904Y-102488619D01*
X176125142Y-102536238D01*
X176172761Y-102583857D01*
X176220380Y-102679095D01*
X176220380Y-102964809D01*
X176172761Y-103060047D01*
X176125142Y-103107666D01*
X176220380Y-101583857D02*
X176220380Y-102060047D01*
X175220380Y-102060047D01*
X175220380Y-101345761D02*
X175220380Y-100726714D01*
X175601333Y-101060047D01*
X175601333Y-100917190D01*
X175648952Y-100821952D01*
X175696571Y-100774333D01*
X175791809Y-100726714D01*
X176029904Y-100726714D01*
X176125142Y-100774333D01*
X176172761Y-100821952D01*
X176220380Y-100917190D01*
X176220380Y-101202904D01*
X176172761Y-101298142D01*
X176125142Y-101345761D01*
X176125142Y-99726714D02*
X176172761Y-99774333D01*
X176220380Y-99917190D01*
X176220380Y-100012428D01*
X176172761Y-100155285D01*
X176077523Y-100250523D01*
X175982285Y-100298142D01*
X175791809Y-100345761D01*
X175648952Y-100345761D01*
X175458476Y-100298142D01*
X175363238Y-100250523D01*
X175268000Y-100155285D01*
X175220380Y-100012428D01*
X175220380Y-99917190D01*
X175268000Y-99774333D01*
X175315619Y-99726714D01*
X175220380Y-99393380D02*
X176220380Y-98726714D01*
X175220380Y-98726714D02*
X176220380Y-99393380D01*
X175220380Y-98488619D02*
X176220380Y-98155285D01*
X175220380Y-97821952D01*
X175220380Y-97298142D02*
X175220380Y-97202904D01*
X175268000Y-97107666D01*
X175315619Y-97060047D01*
X175410857Y-97012428D01*
X175601333Y-96964809D01*
X175839428Y-96964809D01*
X176029904Y-97012428D01*
X176125142Y-97060047D01*
X176172761Y-97107666D01*
X176220380Y-97202904D01*
X176220380Y-97298142D01*
X176172761Y-97393380D01*
X176125142Y-97441000D01*
X176029904Y-97488619D01*
X175839428Y-97536238D01*
X175601333Y-97536238D01*
X175410857Y-97488619D01*
X175315619Y-97441000D01*
X175268000Y-97393380D01*
X175220380Y-97298142D01*
X176220380Y-96536238D02*
X175220380Y-96536238D01*
X175220380Y-96298142D01*
X175268000Y-96155285D01*
X175363238Y-96060047D01*
X175458476Y-96012428D01*
X175648952Y-95964809D01*
X175791809Y-95964809D01*
X175982285Y-96012428D01*
X176077523Y-96060047D01*
X176172761Y-96155285D01*
X176220380Y-96298142D01*
X176220380Y-96536238D01*
X176220380Y-95536238D02*
X175220380Y-95536238D01*
X175696571Y-95536238D02*
X175696571Y-94964809D01*
X176220380Y-94964809D02*
X175220380Y-94964809D01*
X176315619Y-94726714D02*
X176315619Y-93964809D01*
X176220380Y-93202904D02*
X176220380Y-93774333D01*
X176220380Y-93488619D02*
X175220380Y-93488619D01*
X175363238Y-93583857D01*
X175458476Y-93679095D01*
X175506095Y-93774333D01*
X178630380Y-101930200D02*
X178868476Y-101930200D01*
X178773238Y-102168295D02*
X178868476Y-101930200D01*
X178773238Y-101692104D01*
X179058952Y-102073057D02*
X178868476Y-101930200D01*
X179058952Y-101787342D01*
X178630380Y-101930200D02*
X178868476Y-101930200D01*
X178773238Y-102168295D02*
X178868476Y-101930200D01*
X178773238Y-101692104D01*
X179058952Y-102073057D02*
X178868476Y-101930200D01*
X179058952Y-101787342D01*
%TO.C,U8*%
X212050380Y-100202904D02*
X212859904Y-100202904D01*
X212955142Y-100155285D01*
X213002761Y-100107666D01*
X213050380Y-100012428D01*
X213050380Y-99821952D01*
X213002761Y-99726714D01*
X212955142Y-99679095D01*
X212859904Y-99631476D01*
X212050380Y-99631476D01*
X212478952Y-99012428D02*
X212431333Y-99107666D01*
X212383714Y-99155285D01*
X212288476Y-99202904D01*
X212240857Y-99202904D01*
X212145619Y-99155285D01*
X212098000Y-99107666D01*
X212050380Y-99012428D01*
X212050380Y-98821952D01*
X212098000Y-98726714D01*
X212145619Y-98679095D01*
X212240857Y-98631476D01*
X212288476Y-98631476D01*
X212383714Y-98679095D01*
X212431333Y-98726714D01*
X212478952Y-98821952D01*
X212478952Y-99012428D01*
X212526571Y-99107666D01*
X212574190Y-99155285D01*
X212669428Y-99202904D01*
X212859904Y-99202904D01*
X212955142Y-99155285D01*
X213002761Y-99107666D01*
X213050380Y-99012428D01*
X213050380Y-98821952D01*
X213002761Y-98726714D01*
X212955142Y-98679095D01*
X212859904Y-98631476D01*
X212669428Y-98631476D01*
X212574190Y-98679095D01*
X212526571Y-98726714D01*
X212478952Y-98821952D01*
X213320380Y-105774333D02*
X214320380Y-105441000D01*
X213320380Y-105107666D01*
X214320380Y-104298142D02*
X214320380Y-104774333D01*
X213320380Y-104774333D01*
X213320380Y-103488619D02*
X213320380Y-103964809D01*
X213796571Y-104012428D01*
X213748952Y-103964809D01*
X213701333Y-103869571D01*
X213701333Y-103631476D01*
X213748952Y-103536238D01*
X213796571Y-103488619D01*
X213891809Y-103441000D01*
X214129904Y-103441000D01*
X214225142Y-103488619D01*
X214272761Y-103536238D01*
X214320380Y-103631476D01*
X214320380Y-103869571D01*
X214272761Y-103964809D01*
X214225142Y-104012428D01*
X213320380Y-103107666D02*
X213320380Y-102488619D01*
X213701333Y-102821952D01*
X213701333Y-102679095D01*
X213748952Y-102583857D01*
X213796571Y-102536238D01*
X213891809Y-102488619D01*
X214129904Y-102488619D01*
X214225142Y-102536238D01*
X214272761Y-102583857D01*
X214320380Y-102679095D01*
X214320380Y-102964809D01*
X214272761Y-103060047D01*
X214225142Y-103107666D01*
X214320380Y-101583857D02*
X214320380Y-102060047D01*
X213320380Y-102060047D01*
X213320380Y-101345761D02*
X213320380Y-100726714D01*
X213701333Y-101060047D01*
X213701333Y-100917190D01*
X213748952Y-100821952D01*
X213796571Y-100774333D01*
X213891809Y-100726714D01*
X214129904Y-100726714D01*
X214225142Y-100774333D01*
X214272761Y-100821952D01*
X214320380Y-100917190D01*
X214320380Y-101202904D01*
X214272761Y-101298142D01*
X214225142Y-101345761D01*
X214225142Y-99726714D02*
X214272761Y-99774333D01*
X214320380Y-99917190D01*
X214320380Y-100012428D01*
X214272761Y-100155285D01*
X214177523Y-100250523D01*
X214082285Y-100298142D01*
X213891809Y-100345761D01*
X213748952Y-100345761D01*
X213558476Y-100298142D01*
X213463238Y-100250523D01*
X213368000Y-100155285D01*
X213320380Y-100012428D01*
X213320380Y-99917190D01*
X213368000Y-99774333D01*
X213415619Y-99726714D01*
X213320380Y-99393380D02*
X214320380Y-98726714D01*
X213320380Y-98726714D02*
X214320380Y-99393380D01*
X213320380Y-98488619D02*
X214320380Y-98155285D01*
X213320380Y-97821952D01*
X213320380Y-97298142D02*
X213320380Y-97202904D01*
X213368000Y-97107666D01*
X213415619Y-97060047D01*
X213510857Y-97012428D01*
X213701333Y-96964809D01*
X213939428Y-96964809D01*
X214129904Y-97012428D01*
X214225142Y-97060047D01*
X214272761Y-97107666D01*
X214320380Y-97202904D01*
X214320380Y-97298142D01*
X214272761Y-97393380D01*
X214225142Y-97441000D01*
X214129904Y-97488619D01*
X213939428Y-97536238D01*
X213701333Y-97536238D01*
X213510857Y-97488619D01*
X213415619Y-97441000D01*
X213368000Y-97393380D01*
X213320380Y-97298142D01*
X214320380Y-96536238D02*
X213320380Y-96536238D01*
X213320380Y-96298142D01*
X213368000Y-96155285D01*
X213463238Y-96060047D01*
X213558476Y-96012428D01*
X213748952Y-95964809D01*
X213891809Y-95964809D01*
X214082285Y-96012428D01*
X214177523Y-96060047D01*
X214272761Y-96155285D01*
X214320380Y-96298142D01*
X214320380Y-96536238D01*
X214320380Y-95536238D02*
X213320380Y-95536238D01*
X213796571Y-95536238D02*
X213796571Y-94964809D01*
X214320380Y-94964809D02*
X213320380Y-94964809D01*
X214415619Y-94726714D02*
X214415619Y-93964809D01*
X214320380Y-93202904D02*
X214320380Y-93774333D01*
X214320380Y-93488619D02*
X213320380Y-93488619D01*
X213463238Y-93583857D01*
X213558476Y-93679095D01*
X213606095Y-93774333D01*
X216730380Y-101930200D02*
X216968476Y-101930200D01*
X216873238Y-102168295D02*
X216968476Y-101930200D01*
X216873238Y-101692104D01*
X217158952Y-102073057D02*
X216968476Y-101930200D01*
X217158952Y-101787342D01*
X216730380Y-101930200D02*
X216968476Y-101930200D01*
X216873238Y-102168295D02*
X216968476Y-101930200D01*
X216873238Y-101692104D01*
X217158952Y-102073057D02*
X216968476Y-101930200D01*
X217158952Y-101787342D01*
%TO.C,J11*%
X39584380Y-104949523D02*
X40298666Y-104949523D01*
X40441523Y-104997142D01*
X40536761Y-105092380D01*
X40584380Y-105235238D01*
X40584380Y-105330476D01*
X40584380Y-103949523D02*
X40584380Y-104520952D01*
X40584380Y-104235238D02*
X39584380Y-104235238D01*
X39727238Y-104330476D01*
X39822476Y-104425714D01*
X39870095Y-104520952D01*
X40584380Y-102997142D02*
X40584380Y-103568571D01*
X40584380Y-103282857D02*
X39584380Y-103282857D01*
X39727238Y-103378095D01*
X39822476Y-103473333D01*
X39870095Y-103568571D01*
%TO.C,J12*%
X39584380Y-101139523D02*
X40298666Y-101139523D01*
X40441523Y-101187142D01*
X40536761Y-101282380D01*
X40584380Y-101425238D01*
X40584380Y-101520476D01*
X40584380Y-100139523D02*
X40584380Y-100710952D01*
X40584380Y-100425238D02*
X39584380Y-100425238D01*
X39727238Y-100520476D01*
X39822476Y-100615714D01*
X39870095Y-100710952D01*
X39679619Y-99758571D02*
X39632000Y-99710952D01*
X39584380Y-99615714D01*
X39584380Y-99377619D01*
X39632000Y-99282380D01*
X39679619Y-99234761D01*
X39774857Y-99187142D01*
X39870095Y-99187142D01*
X40012952Y-99234761D01*
X40584380Y-99806190D01*
X40584380Y-99187142D01*
%TO.C,U7*%
X66629870Y-91688394D02*
X67439394Y-91688394D01*
X67534632Y-91640775D01*
X67582251Y-91593156D01*
X67629870Y-91497918D01*
X67629870Y-91307442D01*
X67582251Y-91212204D01*
X67534632Y-91164585D01*
X67439394Y-91116966D01*
X66629870Y-91116966D01*
X66629870Y-90736013D02*
X66629870Y-90069347D01*
X67629870Y-90497918D01*
%TO.C,U9*%
X250150380Y-100202904D02*
X250959904Y-100202904D01*
X251055142Y-100155285D01*
X251102761Y-100107666D01*
X251150380Y-100012428D01*
X251150380Y-99821952D01*
X251102761Y-99726714D01*
X251055142Y-99679095D01*
X250959904Y-99631476D01*
X250150380Y-99631476D01*
X251150380Y-99107666D02*
X251150380Y-98917190D01*
X251102761Y-98821952D01*
X251055142Y-98774333D01*
X250912285Y-98679095D01*
X250721809Y-98631476D01*
X250340857Y-98631476D01*
X250245619Y-98679095D01*
X250198000Y-98726714D01*
X250150380Y-98821952D01*
X250150380Y-99012428D01*
X250198000Y-99107666D01*
X250245619Y-99155285D01*
X250340857Y-99202904D01*
X250578952Y-99202904D01*
X250674190Y-99155285D01*
X250721809Y-99107666D01*
X250769428Y-99012428D01*
X250769428Y-98821952D01*
X250721809Y-98726714D01*
X250674190Y-98679095D01*
X250578952Y-98631476D01*
X251420380Y-105774333D02*
X252420380Y-105441000D01*
X251420380Y-105107666D01*
X252420380Y-104298142D02*
X252420380Y-104774333D01*
X251420380Y-104774333D01*
X251420380Y-103488619D02*
X251420380Y-103964809D01*
X251896571Y-104012428D01*
X251848952Y-103964809D01*
X251801333Y-103869571D01*
X251801333Y-103631476D01*
X251848952Y-103536238D01*
X251896571Y-103488619D01*
X251991809Y-103441000D01*
X252229904Y-103441000D01*
X252325142Y-103488619D01*
X252372761Y-103536238D01*
X252420380Y-103631476D01*
X252420380Y-103869571D01*
X252372761Y-103964809D01*
X252325142Y-104012428D01*
X251420380Y-103107666D02*
X251420380Y-102488619D01*
X251801333Y-102821952D01*
X251801333Y-102679095D01*
X251848952Y-102583857D01*
X251896571Y-102536238D01*
X251991809Y-102488619D01*
X252229904Y-102488619D01*
X252325142Y-102536238D01*
X252372761Y-102583857D01*
X252420380Y-102679095D01*
X252420380Y-102964809D01*
X252372761Y-103060047D01*
X252325142Y-103107666D01*
X252420380Y-101583857D02*
X252420380Y-102060047D01*
X251420380Y-102060047D01*
X251420380Y-101345761D02*
X251420380Y-100726714D01*
X251801333Y-101060047D01*
X251801333Y-100917190D01*
X251848952Y-100821952D01*
X251896571Y-100774333D01*
X251991809Y-100726714D01*
X252229904Y-100726714D01*
X252325142Y-100774333D01*
X252372761Y-100821952D01*
X252420380Y-100917190D01*
X252420380Y-101202904D01*
X252372761Y-101298142D01*
X252325142Y-101345761D01*
X252325142Y-99726714D02*
X252372761Y-99774333D01*
X252420380Y-99917190D01*
X252420380Y-100012428D01*
X252372761Y-100155285D01*
X252277523Y-100250523D01*
X252182285Y-100298142D01*
X251991809Y-100345761D01*
X251848952Y-100345761D01*
X251658476Y-100298142D01*
X251563238Y-100250523D01*
X251468000Y-100155285D01*
X251420380Y-100012428D01*
X251420380Y-99917190D01*
X251468000Y-99774333D01*
X251515619Y-99726714D01*
X251420380Y-99393380D02*
X252420380Y-98726714D01*
X251420380Y-98726714D02*
X252420380Y-99393380D01*
X251420380Y-98488619D02*
X252420380Y-98155285D01*
X251420380Y-97821952D01*
X251420380Y-97298142D02*
X251420380Y-97202904D01*
X251468000Y-97107666D01*
X251515619Y-97060047D01*
X251610857Y-97012428D01*
X251801333Y-96964809D01*
X252039428Y-96964809D01*
X252229904Y-97012428D01*
X252325142Y-97060047D01*
X252372761Y-97107666D01*
X252420380Y-97202904D01*
X252420380Y-97298142D01*
X252372761Y-97393380D01*
X252325142Y-97441000D01*
X252229904Y-97488619D01*
X252039428Y-97536238D01*
X251801333Y-97536238D01*
X251610857Y-97488619D01*
X251515619Y-97441000D01*
X251468000Y-97393380D01*
X251420380Y-97298142D01*
X252420380Y-96536238D02*
X251420380Y-96536238D01*
X251420380Y-96298142D01*
X251468000Y-96155285D01*
X251563238Y-96060047D01*
X251658476Y-96012428D01*
X251848952Y-95964809D01*
X251991809Y-95964809D01*
X252182285Y-96012428D01*
X252277523Y-96060047D01*
X252372761Y-96155285D01*
X252420380Y-96298142D01*
X252420380Y-96536238D01*
X252420380Y-95536238D02*
X251420380Y-95536238D01*
X251896571Y-95536238D02*
X251896571Y-94964809D01*
X252420380Y-94964809D02*
X251420380Y-94964809D01*
X252515619Y-94726714D02*
X252515619Y-93964809D01*
X252420380Y-93202904D02*
X252420380Y-93774333D01*
X252420380Y-93488619D02*
X251420380Y-93488619D01*
X251563238Y-93583857D01*
X251658476Y-93679095D01*
X251706095Y-93774333D01*
X254830380Y-101930200D02*
X255068476Y-101930200D01*
X254973238Y-102168295D02*
X255068476Y-101930200D01*
X254973238Y-101692104D01*
X255258952Y-102073057D02*
X255068476Y-101930200D01*
X255258952Y-101787342D01*
X254830380Y-101930200D02*
X255068476Y-101930200D01*
X254973238Y-102168295D02*
X255068476Y-101930200D01*
X254973238Y-101692104D01*
X255258952Y-102073057D02*
X255068476Y-101930200D01*
X255258952Y-101787342D01*
%TO.C,C43*%
X42299142Y-83192857D02*
X42346761Y-83240476D01*
X42394380Y-83383333D01*
X42394380Y-83478571D01*
X42346761Y-83621428D01*
X42251523Y-83716666D01*
X42156285Y-83764285D01*
X41965809Y-83811904D01*
X41822952Y-83811904D01*
X41632476Y-83764285D01*
X41537238Y-83716666D01*
X41442000Y-83621428D01*
X41394380Y-83478571D01*
X41394380Y-83383333D01*
X41442000Y-83240476D01*
X41489619Y-83192857D01*
X41727714Y-82335714D02*
X42394380Y-82335714D01*
X41346761Y-82573809D02*
X42061047Y-82811904D01*
X42061047Y-82192857D01*
X41394380Y-81907142D02*
X41394380Y-81288095D01*
X41775333Y-81621428D01*
X41775333Y-81478571D01*
X41822952Y-81383333D01*
X41870571Y-81335714D01*
X41965809Y-81288095D01*
X42203904Y-81288095D01*
X42299142Y-81335714D01*
X42346761Y-81383333D01*
X42394380Y-81478571D01*
X42394380Y-81764285D01*
X42346761Y-81859523D01*
X42299142Y-81907142D01*
D13*
%TO.C,J3*%
X47244000Y-122622000D02*
X65084000Y-122622000D01*
X47244000Y-125282000D02*
X47244000Y-122622000D01*
X45974000Y-125282000D02*
X44644000Y-125282000D01*
X65084000Y-125282000D02*
X65084000Y-122622000D01*
X47244000Y-125282000D02*
X65084000Y-125282000D01*
X44644000Y-125282000D02*
X44644000Y-123952000D01*
%TO.C,J4*%
X70104000Y-125282000D02*
X82864000Y-125282000D01*
X68834000Y-125282000D02*
X67504000Y-125282000D01*
X70104000Y-125282000D02*
X70104000Y-122622000D01*
X70104000Y-122622000D02*
X82864000Y-122622000D01*
X67504000Y-125282000D02*
X67504000Y-123952000D01*
X82864000Y-125282000D02*
X82864000Y-122622000D01*
%TO.C,J5*%
X61020000Y-74362000D02*
X61020000Y-75692000D01*
X35500000Y-74362000D02*
X35500000Y-77022000D01*
X58420000Y-74362000D02*
X58420000Y-77022000D01*
X59690000Y-74362000D02*
X61020000Y-74362000D01*
X58420000Y-74362000D02*
X35500000Y-74362000D01*
X58420000Y-77022000D02*
X35500000Y-77022000D01*
%TO.C,C7*%
X32532250Y-120440750D02*
X32532250Y-121228250D01*
X39986000Y-126092000D02*
X39986000Y-123742000D01*
X33166000Y-125027563D02*
X34230437Y-126092000D01*
X34230437Y-126092000D02*
X39986000Y-126092000D01*
X33166000Y-120336437D02*
X33166000Y-121622000D01*
X33166000Y-125027563D02*
X33166000Y-123742000D01*
X33166000Y-120336437D02*
X34230437Y-119272000D01*
X32138500Y-120834500D02*
X32926000Y-120834500D01*
X34230437Y-119272000D02*
X39986000Y-119272000D01*
X39986000Y-119272000D02*
X39986000Y-121622000D01*
%TO.C,C17*%
X60290738Y-114829490D02*
X60813242Y-114829490D01*
X60290738Y-116299490D02*
X60813242Y-116299490D01*
%TO.C,C18*%
X64920242Y-116299490D02*
X64397738Y-116299490D01*
X64920242Y-114829490D02*
X64397738Y-114829490D01*
%TO.C,C19*%
X52198723Y-110482490D02*
X52491257Y-110482490D01*
X52198723Y-111502490D02*
X52491257Y-111502490D01*
%TO.C,C22*%
X52045223Y-103882490D02*
X52337757Y-103882490D01*
X52045223Y-102862490D02*
X52337757Y-102862490D01*
%TO.C,C24*%
X57518257Y-104640490D02*
X57225723Y-104640490D01*
X57518257Y-105660490D02*
X57225723Y-105660490D01*
%TO.C,C25*%
X57518257Y-107438490D02*
X57225723Y-107438490D01*
X57518257Y-106418490D02*
X57225723Y-106418490D01*
%TO.C,C26*%
X70731490Y-101802723D02*
X70731490Y-102095257D01*
X71751490Y-101802723D02*
X71751490Y-102095257D01*
%TO.C,C27*%
X69969490Y-92404723D02*
X69969490Y-92697257D01*
X70989490Y-92404723D02*
X70989490Y-92697257D01*
%TO.C,C32*%
X73246490Y-91913738D02*
X73246490Y-92436242D01*
X71776490Y-91913738D02*
X71776490Y-92436242D01*
%TO.C,D1*%
X86284490Y-99618490D02*
X83424490Y-99618490D01*
X83424490Y-101538490D02*
X86284490Y-101538490D01*
X86284490Y-101538490D02*
X86284490Y-99618490D01*
%TO.C,D2*%
X86302490Y-97332490D02*
X83442490Y-97332490D01*
X83442490Y-99252490D02*
X86302490Y-99252490D01*
X86302490Y-99252490D02*
X86302490Y-97332490D01*
%TO.C,D3*%
X83442490Y-96966490D02*
X86302490Y-96966490D01*
X86302490Y-96966490D02*
X86302490Y-95046490D01*
X86302490Y-95046490D02*
X83442490Y-95046490D01*
%TO.C,D5*%
X83433490Y-92394490D02*
X86293490Y-92394490D01*
X86293490Y-92394490D02*
X86293490Y-90474490D01*
X86293490Y-90474490D02*
X83433490Y-90474490D01*
%TO.C,D6*%
X34670000Y-94577000D02*
X34670000Y-101477000D01*
X34670000Y-94577000D02*
X31370000Y-94577000D01*
X31370000Y-94577000D02*
X31370000Y-101477000D01*
%TO.C,J1*%
X51429490Y-95184490D02*
X43749490Y-95184490D01*
X52699490Y-95184490D02*
X54029490Y-95184490D01*
X51429490Y-95184490D02*
X51429490Y-97844490D01*
X54029490Y-95184490D02*
X54029490Y-96514490D01*
X43749490Y-95184490D02*
X43749490Y-97844490D01*
X51429490Y-97844490D02*
X43749490Y-97844490D01*
%TO.C,J2*%
X29758000Y-103342000D02*
X29758000Y-101832000D01*
X30448000Y-97282000D02*
X31048000Y-96982000D01*
X31048000Y-96982000D02*
X31048000Y-97582000D01*
X29758000Y-98332000D02*
X29758000Y-99732000D01*
X23648000Y-94722000D02*
X23648000Y-103342000D01*
X20338000Y-103342000D02*
X29758000Y-103342000D01*
X20338000Y-94722000D02*
X20338000Y-103342000D01*
X29758000Y-94722000D02*
X20338000Y-94722000D01*
X31048000Y-97582000D02*
X30448000Y-97282000D01*
X29758000Y-94722000D02*
X29758000Y-96232000D01*
%TO.C,J7*%
X43749490Y-87564490D02*
X43749490Y-90224490D01*
X59109490Y-87564490D02*
X59109490Y-88894490D01*
X56509490Y-87564490D02*
X43749490Y-87564490D01*
X57779490Y-87564490D02*
X59109490Y-87564490D01*
X56509490Y-90224490D02*
X43749490Y-90224490D01*
X56509490Y-87564490D02*
X56509490Y-90224490D01*
%TO.C,J10*%
X56007000Y-77918000D02*
X56007000Y-80578000D01*
X58607000Y-77918000D02*
X58607000Y-79248000D01*
X56007000Y-77918000D02*
X48327000Y-77918000D01*
X48327000Y-77918000D02*
X48327000Y-80578000D01*
X56007000Y-80578000D02*
X48327000Y-80578000D01*
X57277000Y-77918000D02*
X58607000Y-77918000D01*
%TO.C,R1*%
X80612554Y-99843490D02*
X80158426Y-99843490D01*
X80612554Y-101313490D02*
X80158426Y-101313490D01*
%TO.C,R2*%
X80580554Y-99027490D02*
X80126426Y-99027490D01*
X80580554Y-97557490D02*
X80126426Y-97557490D01*
%TO.C,R3*%
X80580554Y-95271490D02*
X80126426Y-95271490D01*
X80580554Y-96741490D02*
X80126426Y-96741490D01*
%TO.C,R4*%
X80580554Y-94455490D02*
X80126426Y-94455490D01*
X80580554Y-92985490D02*
X80126426Y-92985490D01*
%TO.C,R5*%
X80596554Y-90699490D02*
X80142426Y-90699490D01*
X80596554Y-92169490D02*
X80142426Y-92169490D01*
%TO.C,R6*%
X80174426Y-89883490D02*
X80628554Y-89883490D01*
X80174426Y-88413490D02*
X80628554Y-88413490D01*
%TO.C,R7*%
X73738554Y-89883490D02*
X73284426Y-89883490D01*
X73738554Y-88413490D02*
X73284426Y-88413490D01*
%TO.C,R10*%
X44598490Y-108409554D02*
X44598490Y-107955426D01*
X46068490Y-108409554D02*
X46068490Y-107955426D01*
%TO.C,R11*%
X42312490Y-108409554D02*
X42312490Y-107955426D01*
X43782490Y-108409554D02*
X43782490Y-107955426D01*
%TO.C,SW1*%
X84739000Y-79828000D02*
X82139000Y-79828000D01*
X80209000Y-86288000D02*
X80239000Y-86288000D01*
X80209000Y-79828000D02*
X80239000Y-79828000D01*
X86669000Y-86288000D02*
X86639000Y-86288000D01*
X86639000Y-79828000D02*
X86669000Y-79828000D01*
X86669000Y-79828000D02*
X86669000Y-86288000D01*
X84739000Y-86288000D02*
X82139000Y-86288000D01*
X80209000Y-79828000D02*
X80209000Y-86288000D01*
%TO.C,SW2*%
X77881000Y-79828000D02*
X75281000Y-79828000D01*
X79811000Y-79828000D02*
X79811000Y-86288000D01*
X79781000Y-79828000D02*
X79811000Y-79828000D01*
X73351000Y-79828000D02*
X73381000Y-79828000D01*
X79811000Y-86288000D02*
X79781000Y-86288000D01*
X73351000Y-86288000D02*
X73381000Y-86288000D01*
X73351000Y-79828000D02*
X73351000Y-86288000D01*
X77881000Y-86288000D02*
X75281000Y-86288000D01*
%TO.C,U6*%
X68477490Y-102960490D02*
X68477490Y-103910490D01*
X68477490Y-103910490D02*
X67527490Y-103910490D01*
X59207490Y-103910490D02*
X59207490Y-105250490D01*
X58257490Y-94640490D02*
X58257490Y-93690490D01*
X68477490Y-94640490D02*
X68477490Y-93690490D01*
X58257490Y-103910490D02*
X59207490Y-103910490D01*
X58257490Y-102960490D02*
X58257490Y-103910490D01*
X68477490Y-93690490D02*
X67527490Y-93690490D01*
X58257490Y-93690490D02*
X59207490Y-93690490D01*
%TO.C,Y2*%
X55375490Y-105382490D02*
X55375490Y-106682490D01*
X49275490Y-105382490D02*
X53075490Y-105382490D01*
X55375490Y-108982490D02*
X54775490Y-108982490D01*
X55375490Y-107682490D02*
X55375490Y-108982490D01*
X53075490Y-108982490D02*
X49275490Y-108982490D01*
X55375490Y-105382490D02*
X54775490Y-105382490D01*
X46975490Y-105382490D02*
X47575490Y-105382490D01*
X47575490Y-108982490D02*
X46975490Y-108982490D01*
X46975490Y-108982490D02*
X46975490Y-105382490D01*
X55375490Y-106682490D02*
G75*
G03*
X55375490Y-107682490I0J-500000D01*
G01*
%TO.C,D4*%
X83442490Y-94680490D02*
X86302490Y-94680490D01*
X86302490Y-94680490D02*
X86302490Y-92760490D01*
X86302490Y-92760490D02*
X83442490Y-92760490D01*
%TO.C,J9*%
X77651490Y-106674490D02*
X77651490Y-108004490D01*
X77651490Y-105404490D02*
X77651490Y-97724490D01*
X77651490Y-105404490D02*
X74991490Y-105404490D01*
X74991490Y-105404490D02*
X74991490Y-97724490D01*
X77651490Y-108004490D02*
X76321490Y-108004490D01*
X77651490Y-97724490D02*
X74991490Y-97724490D01*
%TO.C,J6*%
X80264000Y-77022000D02*
X62424000Y-77022000D01*
X81534000Y-74362000D02*
X82864000Y-74362000D01*
X62424000Y-74362000D02*
X62424000Y-77022000D01*
X80264000Y-74362000D02*
X80264000Y-77022000D01*
X82864000Y-74362000D02*
X82864000Y-75692000D01*
X80264000Y-74362000D02*
X62424000Y-74362000D01*
%TO.C,J8*%
X41209490Y-91374490D02*
X41209490Y-94034490D01*
X55239490Y-91374490D02*
X56569490Y-91374490D01*
X56569490Y-91374490D02*
X56569490Y-92704490D01*
X53969490Y-91374490D02*
X41209490Y-91374490D01*
X53969490Y-91374490D02*
X53969490Y-94034490D01*
X53969490Y-94034490D02*
X41209490Y-94034490D01*
%TO.C,Y1*%
X55905490Y-108950490D02*
X55905490Y-114050490D01*
X68505490Y-108950490D02*
X55905490Y-108950490D01*
X55905490Y-114050490D02*
X68505490Y-114050490D01*
%TO.C,C3*%
X33578748Y-116946000D02*
X35001252Y-116946000D01*
X33578748Y-118766000D02*
X35001252Y-118766000D01*
%TO.C,C4*%
X28850000Y-79324252D02*
X28850000Y-77901748D01*
X27030000Y-79324252D02*
X27030000Y-77901748D01*
%TO.C,C5*%
X25800267Y-115572000D02*
X25507733Y-115572000D01*
X25800267Y-114552000D02*
X25507733Y-114552000D01*
%TO.C,C6*%
X25672000Y-87203233D02*
X25672000Y-87495767D01*
X24652000Y-87203233D02*
X24652000Y-87495767D01*
%TO.C,C13*%
X40119752Y-118766000D02*
X38697248Y-118766000D01*
X40119752Y-116946000D02*
X38697248Y-116946000D01*
%TO.C,C34*%
X28641748Y-75497500D02*
X30064252Y-75497500D01*
X28641748Y-73677500D02*
X30064252Y-73677500D01*
%TO.C,D7*%
X31324000Y-113664000D02*
X24424000Y-113664000D01*
X31324000Y-113664000D02*
X31324000Y-110364000D01*
X31324000Y-110364000D02*
X24424000Y-110364000D01*
%TO.C,D8*%
X20464000Y-81579000D02*
X20464000Y-88479000D01*
X23764000Y-81579000D02*
X23764000Y-88479000D01*
X23764000Y-81579000D02*
X20464000Y-81579000D01*
%TO.C,L1*%
X32110000Y-116342000D02*
X39010000Y-116342000D01*
X32110000Y-111242000D02*
X39010000Y-111242000D01*
%TO.C,L2*%
X21072000Y-80757000D02*
X21072000Y-73857000D01*
X26172000Y-80757000D02*
X26172000Y-73857000D01*
%TO.C,R14*%
X29745000Y-122131064D02*
X29745000Y-121676936D01*
X31215000Y-122131064D02*
X31215000Y-121676936D01*
%TO.C,R15*%
X29618000Y-79020936D02*
X29618000Y-79475064D01*
X31088000Y-79020936D02*
X31088000Y-79475064D01*
%TO.C,R18*%
X29183000Y-122147064D02*
X29183000Y-121692936D01*
X27713000Y-122147064D02*
X27713000Y-121692936D01*
%TO.C,R19*%
X32231064Y-81815000D02*
X31776936Y-81815000D01*
X32231064Y-83285000D02*
X31776936Y-83285000D01*
%TO.C,R23*%
X29675064Y-115797000D02*
X29220936Y-115797000D01*
X29675064Y-114327000D02*
X29220936Y-114327000D01*
%TO.C,R24*%
X24427000Y-83211936D02*
X24427000Y-83666064D01*
X25897000Y-83211936D02*
X25897000Y-83666064D01*
%TO.C,R25*%
X25681000Y-121692936D02*
X25681000Y-122147064D01*
X27151000Y-121692936D02*
X27151000Y-122147064D01*
%TO.C,R26*%
X31776936Y-83974000D02*
X32231064Y-83974000D01*
X31776936Y-85444000D02*
X32231064Y-85444000D01*
%TO.C,R27*%
X25119000Y-121692936D02*
X25119000Y-122147064D01*
X23649000Y-121692936D02*
X23649000Y-122147064D01*
%TO.C,R28*%
X31776936Y-86133000D02*
X32231064Y-86133000D01*
X31776936Y-87603000D02*
X32231064Y-87603000D01*
%TO.C,U1*%
X27568000Y-119670000D02*
X29328000Y-119670000D01*
X29328000Y-116600000D02*
X26898000Y-116600000D01*
%TO.C,U2*%
X29770000Y-85335000D02*
X29770000Y-83575000D01*
X26700000Y-83575000D02*
X26700000Y-86005000D01*
%TO.C,U3*%
X105359200Y-101790500D02*
X105359200Y-101602739D01*
X105359200Y-97279261D02*
X105359200Y-97091500D01*
X102666800Y-97091500D02*
X102666800Y-97279261D01*
X105359200Y-97091500D02*
X102666800Y-97091500D01*
X102666800Y-101790500D02*
X105359200Y-101790500D01*
X102666800Y-101602739D02*
X102666800Y-101790500D01*
D14*
X102239801Y-99631500D02*
X101985801Y-99631500D01*
X101985801Y-99631500D02*
X101985801Y-99250500D01*
X101985801Y-99250500D02*
X102239801Y-99250500D01*
X102239801Y-99250500D02*
X102239801Y-99631500D01*
G36*
X102239801Y-99631500D02*
G01*
X101985801Y-99631500D01*
X101985801Y-99250500D01*
X102239801Y-99250500D01*
X102239801Y-99631500D01*
G37*
X102239801Y-99631500D02*
X101985801Y-99631500D01*
X101985801Y-99250500D01*
X102239801Y-99250500D01*
X102239801Y-99631500D01*
D13*
%TO.C,U4*%
X140766800Y-101602739D02*
X140766800Y-101790500D01*
X140766800Y-97091500D02*
X140766800Y-97279261D01*
X143459200Y-97279261D02*
X143459200Y-97091500D01*
X143459200Y-97091500D02*
X140766800Y-97091500D01*
X143459200Y-101790500D02*
X143459200Y-101602739D01*
X140766800Y-101790500D02*
X143459200Y-101790500D01*
D14*
X140339801Y-99631500D02*
X140085801Y-99631500D01*
X140085801Y-99631500D02*
X140085801Y-99250500D01*
X140085801Y-99250500D02*
X140339801Y-99250500D01*
X140339801Y-99250500D02*
X140339801Y-99631500D01*
G36*
X140339801Y-99631500D02*
G01*
X140085801Y-99631500D01*
X140085801Y-99250500D01*
X140339801Y-99250500D01*
X140339801Y-99631500D01*
G37*
X140339801Y-99631500D02*
X140085801Y-99631500D01*
X140085801Y-99250500D01*
X140339801Y-99250500D01*
X140339801Y-99631500D01*
D13*
%TO.C,U5*%
X178231800Y-101602739D02*
X178231800Y-101790500D01*
X180924200Y-97279261D02*
X180924200Y-97091500D01*
X180924200Y-101790500D02*
X180924200Y-101602739D01*
X180924200Y-97091500D02*
X178231800Y-97091500D01*
X178231800Y-101790500D02*
X180924200Y-101790500D01*
X178231800Y-97091500D02*
X178231800Y-97279261D01*
D14*
X177804801Y-99631500D02*
X177550801Y-99631500D01*
X177550801Y-99631500D02*
X177550801Y-99250500D01*
X177550801Y-99250500D02*
X177804801Y-99250500D01*
X177804801Y-99250500D02*
X177804801Y-99631500D01*
G36*
X177804801Y-99631500D02*
G01*
X177550801Y-99631500D01*
X177550801Y-99250500D01*
X177804801Y-99250500D01*
X177804801Y-99631500D01*
G37*
X177804801Y-99631500D02*
X177550801Y-99631500D01*
X177550801Y-99250500D01*
X177804801Y-99250500D01*
X177804801Y-99631500D01*
D13*
%TO.C,U8*%
X216331800Y-101602739D02*
X216331800Y-101790500D01*
X216331800Y-97091500D02*
X216331800Y-97279261D01*
X219024200Y-97091500D02*
X216331800Y-97091500D01*
X219024200Y-101790500D02*
X219024200Y-101602739D01*
X216331800Y-101790500D02*
X219024200Y-101790500D01*
X219024200Y-97279261D02*
X219024200Y-97091500D01*
D14*
X215904801Y-99631500D02*
X215650801Y-99631500D01*
X215650801Y-99631500D02*
X215650801Y-99250500D01*
X215650801Y-99250500D02*
X215904801Y-99250500D01*
X215904801Y-99250500D02*
X215904801Y-99631500D01*
G36*
X215904801Y-99631500D02*
G01*
X215650801Y-99631500D01*
X215650801Y-99250500D01*
X215904801Y-99250500D01*
X215904801Y-99631500D01*
G37*
X215904801Y-99631500D02*
X215650801Y-99631500D01*
X215650801Y-99250500D01*
X215904801Y-99250500D01*
X215904801Y-99631500D01*
D13*
%TO.C,J11*%
X41209490Y-105464490D02*
X41209490Y-104134490D01*
X46409490Y-105464490D02*
X46409490Y-102804490D01*
X43809490Y-105464490D02*
X46409490Y-105464490D01*
X43809490Y-105464490D02*
X43809490Y-102804490D01*
X42539490Y-105464490D02*
X41209490Y-105464490D01*
X43809490Y-102804490D02*
X46409490Y-102804490D01*
%TO.C,J12*%
X41209490Y-101654490D02*
X41209490Y-100324490D01*
X42539490Y-101654490D02*
X41209490Y-101654490D01*
X46409490Y-101654490D02*
X46409490Y-98994490D01*
X43809490Y-98994490D02*
X46409490Y-98994490D01*
X43809490Y-101654490D02*
X46409490Y-101654490D01*
X43809490Y-101654490D02*
X43809490Y-98994490D01*
%TO.C,U7*%
X58257490Y-102960490D02*
X58257490Y-103910490D01*
X68477490Y-93690490D02*
X67527490Y-93690490D01*
X58257490Y-93690490D02*
X59207490Y-93690490D01*
X59207490Y-103910490D02*
X59207490Y-105250490D01*
X58257490Y-103910490D02*
X59207490Y-103910490D01*
X68477490Y-102960490D02*
X68477490Y-103910490D01*
X68477490Y-94640490D02*
X68477490Y-93690490D01*
X68477490Y-103910490D02*
X67527490Y-103910490D01*
X58257490Y-94640490D02*
X58257490Y-93690490D01*
%TO.C,U9*%
X257124200Y-97279261D02*
X257124200Y-97091500D01*
X254431800Y-101602739D02*
X254431800Y-101790500D01*
X254431800Y-101790500D02*
X257124200Y-101790500D01*
X257124200Y-97091500D02*
X254431800Y-97091500D01*
X257124200Y-101790500D02*
X257124200Y-101602739D01*
X254431800Y-97091500D02*
X254431800Y-97279261D01*
D14*
X254004801Y-99631500D02*
X253750801Y-99631500D01*
X253750801Y-99631500D02*
X253750801Y-99250500D01*
X253750801Y-99250500D02*
X254004801Y-99250500D01*
X254004801Y-99250500D02*
X254004801Y-99631500D01*
G36*
X254004801Y-99631500D02*
G01*
X253750801Y-99631500D01*
X253750801Y-99250500D01*
X254004801Y-99250500D01*
X254004801Y-99631500D01*
G37*
X254004801Y-99631500D02*
X253750801Y-99631500D01*
X253750801Y-99250500D01*
X254004801Y-99250500D01*
X254004801Y-99631500D01*
D13*
%TO.C,C43*%
X39439500Y-78112500D02*
X39439500Y-78900000D01*
X39937563Y-79140000D02*
X41002000Y-80204437D01*
X35246437Y-79140000D02*
X34182000Y-80204437D01*
X39833250Y-78506250D02*
X39045750Y-78506250D01*
X35246437Y-79140000D02*
X36532000Y-79140000D01*
X39937563Y-79140000D02*
X38652000Y-79140000D01*
X41002000Y-80204437D02*
X41002000Y-85960000D01*
X34182000Y-85960000D02*
X36532000Y-85960000D01*
X41002000Y-85960000D02*
X38652000Y-85960000D01*
X34182000Y-80204437D02*
X34182000Y-85960000D01*
%TD*%
M02*
