M48
; DRILL file {KiCad (6.0.2)} date Fri Mar 18 17:12:20 2022
; FORMAT={-:-/ absolute / inch / decimal}
; #@! TF.CreationDate,2022-03-18T17:12:20+01:00
; #@! TF.GenerationSoftware,Kicad,Pcbnew,(6.0.2)
; #@! TF.FileFunction,NonPlated,1,4,NPTH
FMAT,2
INCH
; #@! TA.AperFunction,NonPlated,NPTH,ComponentDrill
T1C0.1260
; #@! TA.AperFunction,NonPlated,NPTH,ComponentDrill
T2C0.1772
%
G90
G05
T1
X3.57Y-3.04
X3.57Y-4.79
X4.62Y-3.04
X4.62Y-4.79
X5.07Y-3.415
X5.07Y-4.415
X6.07Y-3.415
X6.07Y-4.415
X6.57Y-3.415
X6.57Y-4.415
X7.57Y-3.415
X7.57Y-4.415
X8.07Y-3.415
X8.07Y-4.415
X9.07Y-3.415
X9.07Y-4.415
X9.57Y-3.415
X9.57Y-4.415
X10.57Y-3.415
X10.57Y-4.415
T2
X1.28Y-3.58
X1.28Y-4.21
T0
M30
