M48
; DRILL file {KiCad 5.1.12-84ad8e8a86~92~ubuntu20.04.1} date Do 24 Feb 2022 18:35:25
; FORMAT={-:-/ absolute / metric / decimal}
; #@! TF.CreationDate,2022-02-24T18:35:25+01:00
; #@! TF.GenerationSoftware,Kicad,Pcbnew,5.1.12-84ad8e8a86~92~ubuntu20.04.1
; #@! TF.FileFunction,Plated,1,4,PTH
FMAT,2
METRIC
T1C0.400
T2C1.000
T3C1.200
%
G90
G05
T1
X102.616Y-114.046
X107.442Y-115.57
X109.474Y-123.19
X112.771Y-116.591
X112.776Y-115.57
X113.538Y-111.252
X114.3Y-115.57
X115.57Y-121.158
X117.602Y-114.046
X124.553Y-60.706
X125.603Y-55.499
X125.603Y-56.769
X126.492Y-82.804
X126.492Y-84.582
X129.032Y-49.276
X129.032Y-50.8
X129.032Y-97.028
X129.286Y-60.706
X129.794Y-80.518
X130.302Y-72.39
X130.556Y-60.706
X131.318Y-73.406
X131.572Y-83.058
X131.826Y-88.138
X131.832Y-94.482
X132.742Y-68.68
X132.842Y-52.832
X132.993Y-117.02
X133.096Y-115.062
X133.604Y-77.47
X134.366Y-65.532
X134.366Y-69.342
X134.874Y-77.724
X135.128Y-93.98
X135.128Y-99.06
X135.89Y-78.486
X137.16Y-94.654
X137.378Y-54.828
X137.668Y-63.5
X138.43Y-70.866
X138.589Y-68.842
X138.684Y-52.832
X138.684Y-54.864
X138.933Y-59.431
X138.938Y-60.452
X139.192Y-61.468
X139.262Y-71.421
X139.446Y-97.282
X139.954Y-114.046
X140.208Y-76.708
X140.716Y-64.262
X140.97Y-79.756
X141.478Y-73.914
X141.986Y-75.184
X142.24Y-84.582
X142.246Y-94.99
X143.256Y-71.628
X143.256Y-85.344
X143.256Y-86.614
X143.256Y-88.138
X143.51Y-78.994
X143.764Y-92.71
X144.018Y-55.118
X144.272Y-115.57
X144.272Y-121.158
X144.744Y-52.614
X144.78Y-78.994
X145.288Y-89.916
X145.542Y-66.04
X146.05Y-111.252
X146.558Y-65.786
X147.066Y-71.12
X147.066Y-72.136
X147.066Y-73.152
X147.574Y-80.264
X147.574Y-85.344
X148.082Y-73.66
X148.59Y-81.026
X148.815Y-85.373
X149.275Y-78.055
X150.114Y-85.344
X150.114Y-115.57
X150.114Y-116.595
X150.368Y-112.014
X151.13Y-69.088
X151.384Y-77.47
X151.384Y-85.344
X152.4Y-64.262
X152.4Y-121.158
X152.99Y-85.262
X153.67Y-64.262
X154.178Y-114.046
X154.432Y-98.298
X154.686Y-55.118
X155.194Y-68.834
X155.448Y-83.82
X155.702Y-66.802
X155.702Y-76.962
X155.707Y-57.409
X156.718Y-76.2
X156.718Y-83.058
X157.226Y-69.596
X158.242Y-57.404
X159.258Y-50.292
X160.274Y-96.774
X160.782Y-86.106
X162.56Y-50.292
X162.56Y-52.832
X162.56Y-55.372
X162.56Y-57.912
X162.56Y-60.452
X162.56Y-62.992
X162.56Y-65.532
X162.56Y-68.072
X162.56Y-70.612
X162.56Y-73.152
X162.814Y-47.752
X162.814Y-99.314
X165.354Y-81.534
X167.386Y-74.676
X175.514Y-112.014
X175.514Y-114.046
X177.8Y-121.158
X179.07Y-112.014
X179.832Y-115.57
X185.42Y-115.57
X185.425Y-116.591
X189.738Y-114.046
T2
X121.92Y-55.118
X121.92Y-57.658
X121.92Y-60.198
X121.92Y-62.738
X121.92Y-65.278
X121.92Y-67.818
X121.92Y-70.358
X121.92Y-72.898
X121.92Y-77.978
X121.92Y-80.518
X121.92Y-83.058
X121.92Y-85.598
X121.92Y-88.138
X121.92Y-90.678
X138.43Y-76.454
X138.43Y-78.994
X138.43Y-81.534
X138.43Y-84.074
X149.352Y-51.054
X149.352Y-53.594
X149.352Y-56.134
X149.352Y-58.674
X153.162Y-51.054
X153.162Y-53.594
X153.162Y-56.134
X153.162Y-58.674
X153.162Y-61.214
X156.972Y-51.054
X156.972Y-53.594
X156.972Y-56.134
X156.972Y-58.674
X156.972Y-61.214
X156.972Y-63.754
X166.624Y-51.308
X166.624Y-53.848
X166.624Y-56.388
X166.624Y-58.928
X170.18Y-45.974
X170.18Y-48.514
X170.18Y-51.054
X170.18Y-53.594
X170.18Y-56.134
X170.18Y-58.674
X170.18Y-61.214
X170.18Y-63.754
X170.18Y-66.294
X170.18Y-68.834
X170.18Y-72.898
X170.18Y-75.438
X170.18Y-77.978
X170.18Y-80.518
X170.18Y-83.058
X170.18Y-85.598
X170.18Y-88.138
X170.18Y-90.678
T3
X123.246Y-50.546
X126.746Y-50.546
T0
M30
