%TF.GenerationSoftware,KiCad,Pcbnew,(6.0.2)*%
%TF.CreationDate,2022-03-11T07:45:19+01:00*%
%TF.ProjectId,GestureControl,47657374-7572-4654-936f-6e74726f6c2e,V0.1*%
%TF.SameCoordinates,Original*%
%TF.FileFunction,Soldermask,Top*%
%TF.FilePolarity,Negative*%
%FSLAX46Y46*%
G04 Gerber Fmt 4.6, Leading zero omitted, Abs format (unit mm)*
G04 Created by KiCad (PCBNEW (6.0.2)) date 2022-03-11 07:45:19*
%MOMM*%
%LPD*%
G01*
G04 APERTURE LIST*
G04 Aperture macros list*
%AMRoundRect*
0 Rectangle with rounded corners*
0 $1 Rounding radius*
0 $2 $3 $4 $5 $6 $7 $8 $9 X,Y pos of 4 corners*
0 Add a 4 corners polygon primitive as box body*
4,1,4,$2,$3,$4,$5,$6,$7,$8,$9,$2,$3,0*
0 Add four circle primitives for the rounded corners*
1,1,$1+$1,$2,$3*
1,1,$1+$1,$4,$5*
1,1,$1+$1,$6,$7*
1,1,$1+$1,$8,$9*
0 Add four rect primitives between the rounded corners*
20,1,$1+$1,$2,$3,$4,$5,0*
20,1,$1+$1,$4,$5,$6,$7,0*
20,1,$1+$1,$6,$7,$8,$9,0*
20,1,$1+$1,$8,$9,$2,$3,0*%
G04 Aperture macros list end*
%ADD10R,1.700000X1.700000*%
%ADD11O,1.700000X1.700000*%
%ADD12RoundRect,0.250000X-1.500000X-0.550000X1.500000X-0.550000X1.500000X0.550000X-1.500000X0.550000X0*%
%ADD13RoundRect,0.250000X-0.337500X-0.475000X0.337500X-0.475000X0.337500X0.475000X-0.337500X0.475000X0*%
%ADD14RoundRect,0.250000X0.337500X0.475000X-0.337500X0.475000X-0.337500X-0.475000X0.337500X-0.475000X0*%
%ADD15RoundRect,0.237500X-0.300000X-0.237500X0.300000X-0.237500X0.300000X0.237500X-0.300000X0.237500X0*%
%ADD16RoundRect,0.237500X0.300000X0.237500X-0.300000X0.237500X-0.300000X-0.237500X0.300000X-0.237500X0*%
%ADD17RoundRect,0.237500X-0.237500X0.300000X-0.237500X-0.300000X0.237500X-0.300000X0.237500X0.300000X0*%
%ADD18RoundRect,0.250000X-0.475000X0.337500X-0.475000X-0.337500X0.475000X-0.337500X0.475000X0.337500X0*%
%ADD19RoundRect,0.249999X0.325001X0.450001X-0.325001X0.450001X-0.325001X-0.450001X0.325001X-0.450001X0*%
%ADD20R,1.800000X3.500000*%
%ADD21RoundRect,0.250000X-1.550000X0.650000X-1.550000X-0.650000X1.550000X-0.650000X1.550000X0.650000X0*%
%ADD22O,3.600000X1.800000*%
%ADD23RoundRect,0.249999X0.350001X0.450001X-0.350001X0.450001X-0.350001X-0.450001X0.350001X-0.450001X0*%
%ADD24RoundRect,0.249999X-0.350001X-0.450001X0.350001X-0.450001X0.350001X0.450001X-0.350001X0.450001X0*%
%ADD25RoundRect,0.249999X0.450001X-0.350001X0.450001X0.350001X-0.450001X0.350001X-0.450001X-0.350001X0*%
%ADD26R,1.300000X1.550000*%
%ADD27RoundRect,0.075000X0.075000X-0.700000X0.075000X0.700000X-0.075000X0.700000X-0.075000X-0.700000X0*%
%ADD28RoundRect,0.075000X0.700000X-0.075000X0.700000X0.075000X-0.700000X0.075000X-0.700000X-0.075000X0*%
%ADD29R,1.300000X1.900000*%
%ADD30R,4.500000X2.000000*%
%ADD31RoundRect,0.249999X-0.412501X-0.650001X0.412501X-0.650001X0.412501X0.650001X-0.412501X0.650001X0*%
%ADD32RoundRect,0.249999X0.650001X-0.412501X0.650001X0.412501X-0.650001X0.412501X-0.650001X-0.412501X0*%
%ADD33RoundRect,0.249999X0.412501X0.650001X-0.412501X0.650001X-0.412501X-0.650001X0.412501X-0.650001X0*%
%ADD34R,3.500000X1.800000*%
%ADD35R,2.400000X4.200000*%
%ADD36R,4.200000X2.400000*%
%ADD37RoundRect,0.249999X-0.450001X0.350001X-0.450001X-0.350001X0.450001X-0.350001X0.450001X0.350001X0*%
%ADD38R,2.000000X0.650000*%
%ADD39R,0.650000X2.000000*%
%ADD40R,0.807999X0.458000*%
%ADD41R,0.508000X0.508000*%
%ADD42C,3.200000*%
%ADD43C,4.500000*%
%ADD44RoundRect,0.250000X-0.550000X1.500000X-0.550000X-1.500000X0.550000X-1.500000X0.550000X1.500000X0*%
G04 APERTURE END LIST*
D10*
%TO.C,J3*%
X67818000Y-155194000D03*
D11*
X70358000Y-155194000D03*
X72898000Y-155194000D03*
X75438000Y-155194000D03*
X77978000Y-155194000D03*
X80518000Y-155194000D03*
X83058000Y-155194000D03*
X85598000Y-155194000D03*
%TD*%
D10*
%TO.C,J4*%
X90678000Y-155194000D03*
D11*
X93218000Y-155194000D03*
X95758000Y-155194000D03*
X98298000Y-155194000D03*
X100838000Y-155194000D03*
X103378000Y-155194000D03*
%TD*%
D10*
%TO.C,J5*%
X81534000Y-106934000D03*
D11*
X78994000Y-106934000D03*
X76454000Y-106934000D03*
X73914000Y-106934000D03*
X71374000Y-106934000D03*
X68834000Y-106934000D03*
X66294000Y-106934000D03*
X63754000Y-106934000D03*
X61214000Y-106934000D03*
X58674000Y-106934000D03*
%TD*%
D12*
%TO.C,C7*%
X55620000Y-153924000D03*
X61220000Y-153924000D03*
%TD*%
D13*
%TO.C,C17*%
X81358490Y-146806490D03*
X83433490Y-146806490D03*
%TD*%
D14*
%TO.C,C18*%
X87540490Y-146806490D03*
X85465490Y-146806490D03*
%TD*%
D15*
%TO.C,C19*%
X73326490Y-142234490D03*
X75051490Y-142234490D03*
%TD*%
%TO.C,C22*%
X73172990Y-134614490D03*
X74897990Y-134614490D03*
%TD*%
D16*
%TO.C,C24*%
X80078490Y-136392490D03*
X78353490Y-136392490D03*
%TD*%
%TO.C,C25*%
X80078490Y-138170490D03*
X78353490Y-138170490D03*
%TD*%
D17*
%TO.C,C26*%
X93085490Y-132328490D03*
X93085490Y-134053490D03*
%TD*%
%TO.C,C27*%
X92323490Y-122930490D03*
X92323490Y-124655490D03*
%TD*%
D18*
%TO.C,C32*%
X94355490Y-122379490D03*
X94355490Y-124454490D03*
%TD*%
D19*
%TO.C,D1*%
X107293490Y-131820490D03*
X105243490Y-131820490D03*
%TD*%
%TO.C,D2*%
X107311490Y-129534490D03*
X105261490Y-129534490D03*
%TD*%
%TO.C,D3*%
X107311490Y-127248490D03*
X105261490Y-127248490D03*
%TD*%
%TO.C,D5*%
X107302490Y-122676490D03*
X105252490Y-122676490D03*
%TD*%
D20*
%TO.C,D6*%
X54864000Y-127719000D03*
X54864000Y-132719000D03*
%TD*%
D10*
%TO.C,J1*%
X74543490Y-127756490D03*
D11*
X72003490Y-127756490D03*
X69463490Y-127756490D03*
X66923490Y-127756490D03*
%TD*%
D21*
%TO.C,J2*%
X50292000Y-128524000D03*
D22*
X50292000Y-132024000D03*
%TD*%
D10*
%TO.C,J7*%
X79623490Y-120136490D03*
D11*
X77083490Y-120136490D03*
X74543490Y-120136490D03*
X72003490Y-120136490D03*
X69463490Y-120136490D03*
X66923490Y-120136490D03*
%TD*%
D10*
%TO.C,J10*%
X79121000Y-110490000D03*
D11*
X76581000Y-110490000D03*
X74041000Y-110490000D03*
X71501000Y-110490000D03*
%TD*%
D23*
%TO.C,R1*%
X103229490Y-131820490D03*
X101229490Y-131820490D03*
%TD*%
%TO.C,R2*%
X103197490Y-129534490D03*
X101197490Y-129534490D03*
%TD*%
%TO.C,R3*%
X103197490Y-127248490D03*
X101197490Y-127248490D03*
%TD*%
%TO.C,R4*%
X103197490Y-124962490D03*
X101197490Y-124962490D03*
%TD*%
%TO.C,R5*%
X103213490Y-122676490D03*
X101213490Y-122676490D03*
%TD*%
D24*
%TO.C,R6*%
X101245490Y-120390490D03*
X103245490Y-120390490D03*
%TD*%
D23*
%TO.C,R7*%
X96355490Y-120390490D03*
X94355490Y-120390490D03*
%TD*%
D25*
%TO.C,R10*%
X67177490Y-140424490D03*
X67177490Y-138424490D03*
%TD*%
%TO.C,R11*%
X64891490Y-140424490D03*
X64891490Y-138424490D03*
%TD*%
D26*
%TO.C,SW1*%
X107533000Y-118275000D03*
X107533000Y-110325000D03*
X103033000Y-118275000D03*
X103033000Y-110325000D03*
%TD*%
%TO.C,SW2*%
X100675000Y-110325000D03*
X100675000Y-118275000D03*
X96175000Y-110325000D03*
X96175000Y-118275000D03*
%TD*%
D27*
%TO.C,U6*%
X81461490Y-135717490D03*
X81961490Y-135717490D03*
X82461490Y-135717490D03*
X82961490Y-135717490D03*
X83461490Y-135717490D03*
X83961490Y-135717490D03*
X84461490Y-135717490D03*
X84961490Y-135717490D03*
X85461490Y-135717490D03*
X85961490Y-135717490D03*
X86461490Y-135717490D03*
X86961490Y-135717490D03*
X87461490Y-135717490D03*
X87961490Y-135717490D03*
X88461490Y-135717490D03*
X88961490Y-135717490D03*
D28*
X90886490Y-133792490D03*
X90886490Y-133292490D03*
X90886490Y-132792490D03*
X90886490Y-132292490D03*
X90886490Y-131792490D03*
X90886490Y-131292490D03*
X90886490Y-130792490D03*
X90886490Y-130292490D03*
X90886490Y-129792490D03*
X90886490Y-129292490D03*
X90886490Y-128792490D03*
X90886490Y-128292490D03*
X90886490Y-127792490D03*
X90886490Y-127292490D03*
X90886490Y-126792490D03*
X90886490Y-126292490D03*
D27*
X88961490Y-124367490D03*
X88461490Y-124367490D03*
X87961490Y-124367490D03*
X87461490Y-124367490D03*
X86961490Y-124367490D03*
X86461490Y-124367490D03*
X85961490Y-124367490D03*
X85461490Y-124367490D03*
X84961490Y-124367490D03*
X84461490Y-124367490D03*
X83961490Y-124367490D03*
X83461490Y-124367490D03*
X82961490Y-124367490D03*
X82461490Y-124367490D03*
X81961490Y-124367490D03*
X81461490Y-124367490D03*
D28*
X79536490Y-126292490D03*
X79536490Y-126792490D03*
X79536490Y-127292490D03*
X79536490Y-127792490D03*
X79536490Y-128292490D03*
X79536490Y-128792490D03*
X79536490Y-129292490D03*
X79536490Y-129792490D03*
X79536490Y-130292490D03*
X79536490Y-130792490D03*
X79536490Y-131292490D03*
X79536490Y-131792490D03*
X79536490Y-132292490D03*
X79536490Y-132792490D03*
X79536490Y-133292490D03*
X79536490Y-133792490D03*
%TD*%
D29*
%TO.C,Y2*%
X75769490Y-136824490D03*
X70269490Y-136824490D03*
X70269490Y-140024490D03*
X75769490Y-140024490D03*
%TD*%
D19*
%TO.C,D4*%
X107311490Y-124962490D03*
X105261490Y-124962490D03*
%TD*%
D10*
%TO.C,J9*%
X98165490Y-137916490D03*
D11*
X98165490Y-135376490D03*
X98165490Y-132836490D03*
X98165490Y-130296490D03*
%TD*%
D10*
%TO.C,J6*%
X103378000Y-106934000D03*
D11*
X100838000Y-106934000D03*
X98298000Y-106934000D03*
X95758000Y-106934000D03*
X93218000Y-106934000D03*
X90678000Y-106934000D03*
X88138000Y-106934000D03*
X85598000Y-106934000D03*
%TD*%
D10*
%TO.C,J8*%
X77083490Y-123946490D03*
D11*
X74543490Y-123946490D03*
X72003490Y-123946490D03*
X69463490Y-123946490D03*
X66923490Y-123946490D03*
X64383490Y-123946490D03*
%TD*%
D30*
%TO.C,Y1*%
X80199490Y-142742490D03*
X88699490Y-142742490D03*
%TD*%
D31*
%TO.C,C3*%
X54571500Y-149098000D03*
X57696500Y-149098000D03*
%TD*%
D32*
%TO.C,C4*%
X49784000Y-111417500D03*
X49784000Y-108292500D03*
%TD*%
D16*
%TO.C,C5*%
X48360500Y-146304000D03*
X46635500Y-146304000D03*
%TD*%
D17*
%TO.C,C6*%
X47006000Y-117729000D03*
X47006000Y-119454000D03*
%TD*%
D33*
%TO.C,C13*%
X62815000Y-149098000D03*
X59690000Y-149098000D03*
%TD*%
D31*
%TO.C,C34*%
X49634500Y-105829500D03*
X52759500Y-105829500D03*
%TD*%
D34*
%TO.C,D7*%
X51268000Y-143256000D03*
X46268000Y-143256000D03*
%TD*%
D20*
%TO.C,D8*%
X43958000Y-114721000D03*
X43958000Y-119721000D03*
%TD*%
D35*
%TO.C,L1*%
X55154000Y-145034000D03*
X59654000Y-145034000D03*
%TD*%
D36*
%TO.C,L2*%
X45466000Y-110799000D03*
X45466000Y-106299000D03*
%TD*%
D25*
%TO.C,R14*%
X52324000Y-154146000D03*
X52324000Y-152146000D03*
%TD*%
D37*
%TO.C,R15*%
X52197000Y-109490000D03*
X52197000Y-111490000D03*
%TD*%
D25*
%TO.C,R18*%
X50292000Y-154162000D03*
X50292000Y-152162000D03*
%TD*%
D23*
%TO.C,R19*%
X54848000Y-113792000D03*
X52848000Y-113792000D03*
%TD*%
%TO.C,R23*%
X52292000Y-146304000D03*
X50292000Y-146304000D03*
%TD*%
D37*
%TO.C,R24*%
X47006000Y-113681000D03*
X47006000Y-115681000D03*
%TD*%
%TO.C,R25*%
X48260000Y-152162000D03*
X48260000Y-154162000D03*
%TD*%
D24*
%TO.C,R26*%
X52848000Y-115951000D03*
X54848000Y-115951000D03*
%TD*%
D37*
%TO.C,R27*%
X46228000Y-152162000D03*
X46228000Y-154162000D03*
%TD*%
D24*
%TO.C,R28*%
X52848000Y-118110000D03*
X54848000Y-118110000D03*
%TD*%
D38*
%TO.C,U1*%
X48582000Y-148402000D03*
X48582000Y-149352000D03*
X48582000Y-150302000D03*
X52002000Y-150302000D03*
X52002000Y-149352000D03*
X52002000Y-148402000D03*
%TD*%
D39*
%TO.C,U2*%
X49104000Y-117407000D03*
X50054000Y-117407000D03*
X51004000Y-117407000D03*
X51004000Y-113987000D03*
X50054000Y-113987000D03*
X49104000Y-113987000D03*
%TD*%
D40*
%TO.C,U3*%
X124741800Y-132282999D03*
X124741800Y-131483001D03*
X124741800Y-130683000D03*
X124741800Y-129882999D03*
X124741800Y-129083001D03*
D41*
X125857000Y-129082800D03*
D40*
X126972200Y-129083001D03*
X126972200Y-129882999D03*
X126972200Y-130683000D03*
X126972200Y-131483001D03*
X126972200Y-132282999D03*
D41*
X125857000Y-132283200D03*
%TD*%
D40*
%TO.C,U4*%
X162841800Y-132282999D03*
X162841800Y-131483001D03*
X162841800Y-130683000D03*
X162841800Y-129882999D03*
X162841800Y-129083001D03*
D41*
X163957000Y-129082800D03*
D40*
X165072200Y-129083001D03*
X165072200Y-129882999D03*
X165072200Y-130683000D03*
X165072200Y-131483001D03*
X165072200Y-132282999D03*
D41*
X163957000Y-132283200D03*
%TD*%
D40*
%TO.C,U5*%
X200306800Y-132282999D03*
X200306800Y-131483001D03*
X200306800Y-130683000D03*
X200306800Y-129882999D03*
X200306800Y-129083001D03*
D41*
X201422000Y-129082800D03*
D40*
X202537200Y-129083001D03*
X202537200Y-129882999D03*
X202537200Y-130683000D03*
X202537200Y-131483001D03*
X202537200Y-132282999D03*
D41*
X201422000Y-132283200D03*
%TD*%
D40*
%TO.C,U8*%
X238406800Y-132282999D03*
X238406800Y-131483001D03*
X238406800Y-130683000D03*
X238406800Y-129882999D03*
X238406800Y-129083001D03*
D41*
X239522000Y-129082800D03*
D40*
X240637200Y-129083001D03*
X240637200Y-129882999D03*
X240637200Y-130683000D03*
X240637200Y-131483001D03*
X240637200Y-132282999D03*
D41*
X239522000Y-132283200D03*
%TD*%
D42*
%TO.C,H1*%
X176022000Y-117983000D03*
%TD*%
%TO.C,H3*%
X176022000Y-143383000D03*
%TD*%
%TO.C,H4*%
X150622000Y-117983000D03*
%TD*%
%TO.C,H5*%
X214122000Y-117983000D03*
%TD*%
%TO.C,H6*%
X214122000Y-143383000D03*
%TD*%
%TO.C,H8*%
X112522000Y-152908000D03*
%TD*%
%TO.C,H11*%
X188722000Y-143383000D03*
%TD*%
%TO.C,H12*%
X188722000Y-117983000D03*
%TD*%
%TO.C,H7*%
X139192000Y-108458000D03*
%TD*%
%TO.C,H9*%
X139192000Y-152908000D03*
%TD*%
%TO.C,H10*%
X112522000Y-108458000D03*
%TD*%
%TO.C,H2*%
X150622000Y-143383000D03*
%TD*%
D10*
%TO.C,J11*%
X64383490Y-135376490D03*
D11*
X66923490Y-135376490D03*
%TD*%
D10*
%TO.C,J12*%
X64383490Y-131566490D03*
D11*
X66923490Y-131566490D03*
%TD*%
D42*
%TO.C,H13*%
X226822000Y-117983000D03*
%TD*%
%TO.C,H14*%
X226822000Y-143383000D03*
%TD*%
%TO.C,H15*%
X252222000Y-117983000D03*
%TD*%
%TO.C,H16*%
X252222000Y-143383000D03*
%TD*%
D27*
%TO.C,U7*%
X81461490Y-135717490D03*
X81961490Y-135717490D03*
X82461490Y-135717490D03*
X82961490Y-135717490D03*
X83461490Y-135717490D03*
X83961490Y-135717490D03*
X84461490Y-135717490D03*
X84961490Y-135717490D03*
X85461490Y-135717490D03*
X85961490Y-135717490D03*
X86461490Y-135717490D03*
X86961490Y-135717490D03*
X87461490Y-135717490D03*
X87961490Y-135717490D03*
X88461490Y-135717490D03*
X88961490Y-135717490D03*
D28*
X90886490Y-133792490D03*
X90886490Y-133292490D03*
X90886490Y-132792490D03*
X90886490Y-132292490D03*
X90886490Y-131792490D03*
X90886490Y-131292490D03*
X90886490Y-130792490D03*
X90886490Y-130292490D03*
X90886490Y-129792490D03*
X90886490Y-129292490D03*
X90886490Y-128792490D03*
X90886490Y-128292490D03*
X90886490Y-127792490D03*
X90886490Y-127292490D03*
X90886490Y-126792490D03*
X90886490Y-126292490D03*
D27*
X88961490Y-124367490D03*
X88461490Y-124367490D03*
X87961490Y-124367490D03*
X87461490Y-124367490D03*
X86961490Y-124367490D03*
X86461490Y-124367490D03*
X85961490Y-124367490D03*
X85461490Y-124367490D03*
X84961490Y-124367490D03*
X84461490Y-124367490D03*
X83961490Y-124367490D03*
X83461490Y-124367490D03*
X82961490Y-124367490D03*
X82461490Y-124367490D03*
X81961490Y-124367490D03*
X81461490Y-124367490D03*
D28*
X79536490Y-126292490D03*
X79536490Y-126792490D03*
X79536490Y-127292490D03*
X79536490Y-127792490D03*
X79536490Y-128292490D03*
X79536490Y-128792490D03*
X79536490Y-129292490D03*
X79536490Y-129792490D03*
X79536490Y-130292490D03*
X79536490Y-130792490D03*
X79536490Y-131292490D03*
X79536490Y-131792490D03*
X79536490Y-132292490D03*
X79536490Y-132792490D03*
X79536490Y-133292490D03*
X79536490Y-133792490D03*
%TD*%
D43*
%TO.C,REF\u002A\u002A*%
X54356000Y-138176000D03*
%TD*%
D44*
%TO.C,C43*%
X59436000Y-110992000D03*
X59436000Y-116592000D03*
%TD*%
D43*
%TO.C,REF\u002A\u002A*%
X54356000Y-122174000D03*
%TD*%
M02*
