%TF.GenerationSoftware,KiCad,Pcbnew,5.1.12-84ad8e8a86~92~ubuntu20.04.1*%
%TF.CreationDate,2022-02-24T18:35:21+01:00*%
%TF.ProjectId,GestureControl,47657374-7572-4654-936f-6e74726f6c2e,V0.1*%
%TF.SameCoordinates,Original*%
%TF.FileFunction,Soldermask,Bot*%
%TF.FilePolarity,Negative*%
%FSLAX46Y46*%
G04 Gerber Fmt 4.6, Leading zero omitted, Abs format (unit mm)*
G04 Created by KiCad (PCBNEW 5.1.12-84ad8e8a86~92~ubuntu20.04.1) date 2022-02-24 18:35:21*
%MOMM*%
%LPD*%
G01*
G04 APERTURE LIST*
%ADD10O,1.700000X1.700000*%
%ADD11R,1.700000X1.700000*%
%ADD12R,1.500000X2.000000*%
%ADD13R,3.800000X2.000000*%
%ADD14R,1.000000X1.000000*%
%ADD15R,1.000000X1.500000*%
%ADD16C,0.100000*%
%ADD17R,1.500000X1.000000*%
%ADD18R,1.500000X1.500000*%
%ADD19O,1.800000X3.600000*%
%ADD20C,3.200000*%
%ADD21R,3.500000X1.800000*%
G04 APERTURE END LIST*
D10*
%TO.C,J10*%
X166624000Y-51308000D03*
X166624000Y-53848000D03*
X166624000Y-56388000D03*
D11*
X166624000Y-58928000D03*
%TD*%
D10*
%TO.C,J8*%
X153162000Y-51054000D03*
X153162000Y-53594000D03*
X153162000Y-56134000D03*
X153162000Y-58674000D03*
D11*
X153162000Y-61214000D03*
%TD*%
D10*
%TO.C,J7*%
X156972000Y-51054000D03*
X156972000Y-53594000D03*
X156972000Y-56134000D03*
X156972000Y-58674000D03*
X156972000Y-61214000D03*
D11*
X156972000Y-63754000D03*
%TD*%
D12*
%TO.C,U2*%
X131332000Y-92812000D03*
X126732000Y-92812000D03*
X129032000Y-92812000D03*
D13*
X129032000Y-86512000D03*
%TD*%
D12*
%TO.C,U1*%
X141746000Y-92812000D03*
X137146000Y-92812000D03*
X139446000Y-92812000D03*
D13*
X139446000Y-86512000D03*
%TD*%
D14*
%TO.C,TP2*%
X164338000Y-52832000D03*
%TD*%
%TO.C,TP1*%
X164338000Y-55372000D03*
%TD*%
%TO.C,R22*%
G36*
G01*
X160331999Y-52232000D02*
X161232001Y-52232000D01*
G75*
G02*
X161482000Y-52481999I0J-249999D01*
G01*
X161482000Y-53182001D01*
G75*
G02*
X161232001Y-53432000I-249999J0D01*
G01*
X160331999Y-53432000D01*
G75*
G02*
X160082000Y-53182001I0J249999D01*
G01*
X160082000Y-52481999D01*
G75*
G02*
X160331999Y-52232000I249999J0D01*
G01*
G37*
G36*
G01*
X160331999Y-50232000D02*
X161232001Y-50232000D01*
G75*
G02*
X161482000Y-50481999I0J-249999D01*
G01*
X161482000Y-51182001D01*
G75*
G02*
X161232001Y-51432000I-249999J0D01*
G01*
X160331999Y-51432000D01*
G75*
G02*
X160082000Y-51182001I0J249999D01*
G01*
X160082000Y-50481999D01*
G75*
G02*
X160331999Y-50232000I249999J0D01*
G01*
G37*
%TD*%
%TO.C,R21*%
G36*
G01*
X161232001Y-55972000D02*
X160331999Y-55972000D01*
G75*
G02*
X160082000Y-55722001I0J249999D01*
G01*
X160082000Y-55021999D01*
G75*
G02*
X160331999Y-54772000I249999J0D01*
G01*
X161232001Y-54772000D01*
G75*
G02*
X161482000Y-55021999I0J-249999D01*
G01*
X161482000Y-55722001D01*
G75*
G02*
X161232001Y-55972000I-249999J0D01*
G01*
G37*
G36*
G01*
X161232001Y-57972000D02*
X160331999Y-57972000D01*
G75*
G02*
X160082000Y-57722001I0J249999D01*
G01*
X160082000Y-57021999D01*
G75*
G02*
X160331999Y-56772000I249999J0D01*
G01*
X161232001Y-56772000D01*
G75*
G02*
X161482000Y-57021999I0J-249999D01*
G01*
X161482000Y-57722001D01*
G75*
G02*
X161232001Y-57972000I-249999J0D01*
G01*
G37*
%TD*%
%TO.C,R20*%
G36*
G01*
X141062000Y-50349999D02*
X141062000Y-51250001D01*
G75*
G02*
X140812001Y-51500000I-249999J0D01*
G01*
X140111999Y-51500000D01*
G75*
G02*
X139862000Y-51250001I0J249999D01*
G01*
X139862000Y-50349999D01*
G75*
G02*
X140111999Y-50100000I249999J0D01*
G01*
X140812001Y-50100000D01*
G75*
G02*
X141062000Y-50349999I0J-249999D01*
G01*
G37*
G36*
G01*
X143062000Y-50349999D02*
X143062000Y-51250001D01*
G75*
G02*
X142812001Y-51500000I-249999J0D01*
G01*
X142111999Y-51500000D01*
G75*
G02*
X141862000Y-51250001I0J249999D01*
G01*
X141862000Y-50349999D01*
G75*
G02*
X142111999Y-50100000I249999J0D01*
G01*
X142812001Y-50100000D01*
G75*
G02*
X143062000Y-50349999I0J-249999D01*
G01*
G37*
%TD*%
%TO.C,R11*%
G36*
G01*
X141894000Y-55314001D02*
X141894000Y-54413999D01*
G75*
G02*
X142143999Y-54164000I249999J0D01*
G01*
X142844001Y-54164000D01*
G75*
G02*
X143094000Y-54413999I0J-249999D01*
G01*
X143094000Y-55314001D01*
G75*
G02*
X142844001Y-55564000I-249999J0D01*
G01*
X142143999Y-55564000D01*
G75*
G02*
X141894000Y-55314001I0J249999D01*
G01*
G37*
G36*
G01*
X139894000Y-55314001D02*
X139894000Y-54413999D01*
G75*
G02*
X140143999Y-54164000I249999J0D01*
G01*
X140844001Y-54164000D01*
G75*
G02*
X141094000Y-54413999I0J-249999D01*
G01*
X141094000Y-55314001D01*
G75*
G02*
X140844001Y-55564000I-249999J0D01*
G01*
X140143999Y-55564000D01*
G75*
G02*
X139894000Y-55314001I0J249999D01*
G01*
G37*
%TD*%
%TO.C,R10*%
G36*
G01*
X141894000Y-57600001D02*
X141894000Y-56699999D01*
G75*
G02*
X142143999Y-56450000I249999J0D01*
G01*
X142844001Y-56450000D01*
G75*
G02*
X143094000Y-56699999I0J-249999D01*
G01*
X143094000Y-57600001D01*
G75*
G02*
X142844001Y-57850000I-249999J0D01*
G01*
X142143999Y-57850000D01*
G75*
G02*
X141894000Y-57600001I0J249999D01*
G01*
G37*
G36*
G01*
X139894000Y-57600001D02*
X139894000Y-56699999D01*
G75*
G02*
X140143999Y-56450000I249999J0D01*
G01*
X140844001Y-56450000D01*
G75*
G02*
X141094000Y-56699999I0J-249999D01*
G01*
X141094000Y-57600001D01*
G75*
G02*
X140844001Y-57850000I-249999J0D01*
G01*
X140143999Y-57850000D01*
G75*
G02*
X139894000Y-57600001I0J249999D01*
G01*
G37*
%TD*%
%TO.C,R9*%
G36*
G01*
X160182000Y-76396001D02*
X160182000Y-75495999D01*
G75*
G02*
X160431999Y-75246000I249999J0D01*
G01*
X161132001Y-75246000D01*
G75*
G02*
X161382000Y-75495999I0J-249999D01*
G01*
X161382000Y-76396001D01*
G75*
G02*
X161132001Y-76646000I-249999J0D01*
G01*
X160431999Y-76646000D01*
G75*
G02*
X160182000Y-76396001I0J249999D01*
G01*
G37*
G36*
G01*
X158182000Y-76396001D02*
X158182000Y-75495999D01*
G75*
G02*
X158431999Y-75246000I249999J0D01*
G01*
X159132001Y-75246000D01*
G75*
G02*
X159382000Y-75495999I0J-249999D01*
G01*
X159382000Y-76396001D01*
G75*
G02*
X159132001Y-76646000I-249999J0D01*
G01*
X158431999Y-76646000D01*
G75*
G02*
X158182000Y-76396001I0J249999D01*
G01*
G37*
%TD*%
%TO.C,R8*%
G36*
G01*
X160182000Y-83254001D02*
X160182000Y-82353999D01*
G75*
G02*
X160431999Y-82104000I249999J0D01*
G01*
X161132001Y-82104000D01*
G75*
G02*
X161382000Y-82353999I0J-249999D01*
G01*
X161382000Y-83254001D01*
G75*
G02*
X161132001Y-83504000I-249999J0D01*
G01*
X160431999Y-83504000D01*
G75*
G02*
X160182000Y-83254001I0J249999D01*
G01*
G37*
G36*
G01*
X158182000Y-83254001D02*
X158182000Y-82353999D01*
G75*
G02*
X158431999Y-82104000I249999J0D01*
G01*
X159132001Y-82104000D01*
G75*
G02*
X159382000Y-82353999I0J-249999D01*
G01*
X159382000Y-83254001D01*
G75*
G02*
X159132001Y-83504000I-249999J0D01*
G01*
X158431999Y-83504000D01*
G75*
G02*
X158182000Y-83254001I0J249999D01*
G01*
G37*
%TD*%
D15*
%TO.C,JP3*%
X149068000Y-67310000D03*
D16*
G36*
X150368000Y-66560602D02*
G01*
X150392534Y-66560602D01*
X150441365Y-66565412D01*
X150489490Y-66574984D01*
X150536445Y-66589228D01*
X150581778Y-66608005D01*
X150625051Y-66631136D01*
X150665850Y-66658396D01*
X150703779Y-66689524D01*
X150738476Y-66724221D01*
X150769604Y-66762150D01*
X150796864Y-66802949D01*
X150819995Y-66846222D01*
X150838772Y-66891555D01*
X150853016Y-66938510D01*
X150862588Y-66986635D01*
X150867398Y-67035466D01*
X150867398Y-67060000D01*
X150868000Y-67060000D01*
X150868000Y-67560000D01*
X150867398Y-67560000D01*
X150867398Y-67584534D01*
X150862588Y-67633365D01*
X150853016Y-67681490D01*
X150838772Y-67728445D01*
X150819995Y-67773778D01*
X150796864Y-67817051D01*
X150769604Y-67857850D01*
X150738476Y-67895779D01*
X150703779Y-67930476D01*
X150665850Y-67961604D01*
X150625051Y-67988864D01*
X150581778Y-68011995D01*
X150536445Y-68030772D01*
X150489490Y-68045016D01*
X150441365Y-68054588D01*
X150392534Y-68059398D01*
X150368000Y-68059398D01*
X150368000Y-68060000D01*
X149818000Y-68060000D01*
X149818000Y-66560000D01*
X150368000Y-66560000D01*
X150368000Y-66560602D01*
G37*
G36*
X148318000Y-68060000D02*
G01*
X147768000Y-68060000D01*
X147768000Y-68059398D01*
X147743466Y-68059398D01*
X147694635Y-68054588D01*
X147646510Y-68045016D01*
X147599555Y-68030772D01*
X147554222Y-68011995D01*
X147510949Y-67988864D01*
X147470150Y-67961604D01*
X147432221Y-67930476D01*
X147397524Y-67895779D01*
X147366396Y-67857850D01*
X147339136Y-67817051D01*
X147316005Y-67773778D01*
X147297228Y-67728445D01*
X147282984Y-67681490D01*
X147273412Y-67633365D01*
X147268602Y-67584534D01*
X147268602Y-67560000D01*
X147268000Y-67560000D01*
X147268000Y-67060000D01*
X147268602Y-67060000D01*
X147268602Y-67035466D01*
X147273412Y-66986635D01*
X147282984Y-66938510D01*
X147297228Y-66891555D01*
X147316005Y-66846222D01*
X147339136Y-66802949D01*
X147366396Y-66762150D01*
X147397524Y-66724221D01*
X147432221Y-66689524D01*
X147470150Y-66658396D01*
X147510949Y-66631136D01*
X147554222Y-66608005D01*
X147599555Y-66589228D01*
X147646510Y-66574984D01*
X147694635Y-66565412D01*
X147743466Y-66560602D01*
X147768000Y-66560602D01*
X147768000Y-66560000D01*
X148318000Y-66560000D01*
X148318000Y-68060000D01*
G37*
%TD*%
D17*
%TO.C,JP2*%
X149098000Y-71120000D03*
D16*
G36*
X148348602Y-69820000D02*
G01*
X148348602Y-69795466D01*
X148353412Y-69746635D01*
X148362984Y-69698510D01*
X148377228Y-69651555D01*
X148396005Y-69606222D01*
X148419136Y-69562949D01*
X148446396Y-69522150D01*
X148477524Y-69484221D01*
X148512221Y-69449524D01*
X148550150Y-69418396D01*
X148590949Y-69391136D01*
X148634222Y-69368005D01*
X148679555Y-69349228D01*
X148726510Y-69334984D01*
X148774635Y-69325412D01*
X148823466Y-69320602D01*
X148848000Y-69320602D01*
X148848000Y-69320000D01*
X149348000Y-69320000D01*
X149348000Y-69320602D01*
X149372534Y-69320602D01*
X149421365Y-69325412D01*
X149469490Y-69334984D01*
X149516445Y-69349228D01*
X149561778Y-69368005D01*
X149605051Y-69391136D01*
X149645850Y-69418396D01*
X149683779Y-69449524D01*
X149718476Y-69484221D01*
X149749604Y-69522150D01*
X149776864Y-69562949D01*
X149799995Y-69606222D01*
X149818772Y-69651555D01*
X149833016Y-69698510D01*
X149842588Y-69746635D01*
X149847398Y-69795466D01*
X149847398Y-69820000D01*
X149848000Y-69820000D01*
X149848000Y-70370000D01*
X148348000Y-70370000D01*
X148348000Y-69820000D01*
X148348602Y-69820000D01*
G37*
G36*
X149848000Y-71870000D02*
G01*
X149848000Y-72420000D01*
X149847398Y-72420000D01*
X149847398Y-72444534D01*
X149842588Y-72493365D01*
X149833016Y-72541490D01*
X149818772Y-72588445D01*
X149799995Y-72633778D01*
X149776864Y-72677051D01*
X149749604Y-72717850D01*
X149718476Y-72755779D01*
X149683779Y-72790476D01*
X149645850Y-72821604D01*
X149605051Y-72848864D01*
X149561778Y-72871995D01*
X149516445Y-72890772D01*
X149469490Y-72905016D01*
X149421365Y-72914588D01*
X149372534Y-72919398D01*
X149348000Y-72919398D01*
X149348000Y-72920000D01*
X148848000Y-72920000D01*
X148848000Y-72919398D01*
X148823466Y-72919398D01*
X148774635Y-72914588D01*
X148726510Y-72905016D01*
X148679555Y-72890772D01*
X148634222Y-72871995D01*
X148590949Y-72848864D01*
X148550150Y-72821604D01*
X148512221Y-72790476D01*
X148477524Y-72755779D01*
X148446396Y-72717850D01*
X148419136Y-72677051D01*
X148396005Y-72633778D01*
X148377228Y-72588445D01*
X148362984Y-72541490D01*
X148353412Y-72493365D01*
X148348602Y-72444534D01*
X148348602Y-72420000D01*
X148348000Y-72420000D01*
X148348000Y-71870000D01*
X149848000Y-71870000D01*
G37*
%TD*%
D18*
%TO.C,J19*%
X164338000Y-47752000D03*
%TD*%
%TO.C,J18*%
X164338000Y-50292000D03*
%TD*%
%TO.C,J17*%
X164338000Y-57912000D03*
%TD*%
%TO.C,J16*%
X164338000Y-60452000D03*
%TD*%
%TO.C,J15*%
X164338000Y-62992000D03*
%TD*%
%TO.C,J14*%
X164338000Y-65532000D03*
%TD*%
%TO.C,J13*%
X164338000Y-68072000D03*
%TD*%
%TO.C,J12*%
X164338000Y-70612000D03*
%TD*%
%TO.C,J11*%
X164338000Y-73152000D03*
%TD*%
D10*
%TO.C,J9*%
X138430000Y-84074000D03*
X138430000Y-81534000D03*
X138430000Y-78994000D03*
D11*
X138430000Y-76454000D03*
%TD*%
D19*
%TO.C,J2*%
X123246000Y-50546000D03*
G36*
G01*
X127646000Y-48996000D02*
X127646000Y-52096000D01*
G75*
G02*
X127396000Y-52346000I-250000J0D01*
G01*
X126096000Y-52346000D01*
G75*
G02*
X125846000Y-52096000I0J250000D01*
G01*
X125846000Y-48996000D01*
G75*
G02*
X126096000Y-48746000I250000J0D01*
G01*
X127396000Y-48746000D01*
G75*
G02*
X127646000Y-48996000I0J-250000D01*
G01*
G37*
%TD*%
D10*
%TO.C,J1*%
X149352000Y-51054000D03*
X149352000Y-53594000D03*
X149352000Y-56134000D03*
D11*
X149352000Y-58674000D03*
%TD*%
D20*
%TO.C,H4*%
X103886000Y-101600000D03*
%TD*%
%TO.C,H1*%
X189775000Y-101600000D03*
%TD*%
D21*
%TO.C,D7*%
X131398000Y-100838000D03*
X136398000Y-100838000D03*
%TD*%
%TO.C,D6*%
X122428000Y-46228000D03*
X127428000Y-46228000D03*
%TD*%
%TO.C,C33*%
G36*
G01*
X149526500Y-65245000D02*
X149526500Y-64295000D01*
G75*
G02*
X149776500Y-64045000I250000J0D01*
G01*
X150451500Y-64045000D01*
G75*
G02*
X150701500Y-64295000I0J-250000D01*
G01*
X150701500Y-65245000D01*
G75*
G02*
X150451500Y-65495000I-250000J0D01*
G01*
X149776500Y-65495000D01*
G75*
G02*
X149526500Y-65245000I0J250000D01*
G01*
G37*
G36*
G01*
X147451500Y-65245000D02*
X147451500Y-64295000D01*
G75*
G02*
X147701500Y-64045000I250000J0D01*
G01*
X148376500Y-64045000D01*
G75*
G02*
X148626500Y-64295000I0J-250000D01*
G01*
X148626500Y-65245000D01*
G75*
G02*
X148376500Y-65495000I-250000J0D01*
G01*
X147701500Y-65495000D01*
G75*
G02*
X147451500Y-65245000I0J250000D01*
G01*
G37*
%TD*%
%TO.C,C31*%
G36*
G01*
X144796500Y-68751500D02*
X145271500Y-68751500D01*
G75*
G02*
X145509000Y-68989000I0J-237500D01*
G01*
X145509000Y-69589000D01*
G75*
G02*
X145271500Y-69826500I-237500J0D01*
G01*
X144796500Y-69826500D01*
G75*
G02*
X144559000Y-69589000I0J237500D01*
G01*
X144559000Y-68989000D01*
G75*
G02*
X144796500Y-68751500I237500J0D01*
G01*
G37*
G36*
G01*
X144796500Y-67026500D02*
X145271500Y-67026500D01*
G75*
G02*
X145509000Y-67264000I0J-237500D01*
G01*
X145509000Y-67864000D01*
G75*
G02*
X145271500Y-68101500I-237500J0D01*
G01*
X144796500Y-68101500D01*
G75*
G02*
X144559000Y-67864000I0J237500D01*
G01*
X144559000Y-67264000D01*
G75*
G02*
X144796500Y-67026500I237500J0D01*
G01*
G37*
%TD*%
%TO.C,C30*%
G36*
G01*
X144813000Y-74385500D02*
X145763000Y-74385500D01*
G75*
G02*
X146013000Y-74635500I0J-250000D01*
G01*
X146013000Y-75310500D01*
G75*
G02*
X145763000Y-75560500I-250000J0D01*
G01*
X144813000Y-75560500D01*
G75*
G02*
X144563000Y-75310500I0J250000D01*
G01*
X144563000Y-74635500D01*
G75*
G02*
X144813000Y-74385500I250000J0D01*
G01*
G37*
G36*
G01*
X144813000Y-72310500D02*
X145763000Y-72310500D01*
G75*
G02*
X146013000Y-72560500I0J-250000D01*
G01*
X146013000Y-73235500D01*
G75*
G02*
X145763000Y-73485500I-250000J0D01*
G01*
X144813000Y-73485500D01*
G75*
G02*
X144563000Y-73235500I0J250000D01*
G01*
X144563000Y-72560500D01*
G75*
G02*
X144813000Y-72310500I250000J0D01*
G01*
G37*
%TD*%
%TO.C,C29*%
G36*
G01*
X157717500Y-66577500D02*
X157242500Y-66577500D01*
G75*
G02*
X157005000Y-66340000I0J237500D01*
G01*
X157005000Y-65740000D01*
G75*
G02*
X157242500Y-65502500I237500J0D01*
G01*
X157717500Y-65502500D01*
G75*
G02*
X157955000Y-65740000I0J-237500D01*
G01*
X157955000Y-66340000D01*
G75*
G02*
X157717500Y-66577500I-237500J0D01*
G01*
G37*
G36*
G01*
X157717500Y-68302500D02*
X157242500Y-68302500D01*
G75*
G02*
X157005000Y-68065000I0J237500D01*
G01*
X157005000Y-67465000D01*
G75*
G02*
X157242500Y-67227500I237500J0D01*
G01*
X157717500Y-67227500D01*
G75*
G02*
X157955000Y-67465000I0J-237500D01*
G01*
X157955000Y-68065000D01*
G75*
G02*
X157717500Y-68302500I-237500J0D01*
G01*
G37*
%TD*%
%TO.C,C28*%
G36*
G01*
X143018500Y-74138500D02*
X143493500Y-74138500D01*
G75*
G02*
X143731000Y-74376000I0J-237500D01*
G01*
X143731000Y-74976000D01*
G75*
G02*
X143493500Y-75213500I-237500J0D01*
G01*
X143018500Y-75213500D01*
G75*
G02*
X142781000Y-74976000I0J237500D01*
G01*
X142781000Y-74376000D01*
G75*
G02*
X143018500Y-74138500I237500J0D01*
G01*
G37*
G36*
G01*
X143018500Y-72413500D02*
X143493500Y-72413500D01*
G75*
G02*
X143731000Y-72651000I0J-237500D01*
G01*
X143731000Y-73251000D01*
G75*
G02*
X143493500Y-73488500I-237500J0D01*
G01*
X143018500Y-73488500D01*
G75*
G02*
X142781000Y-73251000I0J237500D01*
G01*
X142781000Y-72651000D01*
G75*
G02*
X143018500Y-72413500I237500J0D01*
G01*
G37*
%TD*%
%TO.C,C23*%
G36*
G01*
X143018500Y-68751500D02*
X143493500Y-68751500D01*
G75*
G02*
X143731000Y-68989000I0J-237500D01*
G01*
X143731000Y-69589000D01*
G75*
G02*
X143493500Y-69826500I-237500J0D01*
G01*
X143018500Y-69826500D01*
G75*
G02*
X142781000Y-69589000I0J237500D01*
G01*
X142781000Y-68989000D01*
G75*
G02*
X143018500Y-68751500I237500J0D01*
G01*
G37*
G36*
G01*
X143018500Y-67026500D02*
X143493500Y-67026500D01*
G75*
G02*
X143731000Y-67264000I0J-237500D01*
G01*
X143731000Y-67864000D01*
G75*
G02*
X143493500Y-68101500I-237500J0D01*
G01*
X143018500Y-68101500D01*
G75*
G02*
X142781000Y-67864000I0J237500D01*
G01*
X142781000Y-67264000D01*
G75*
G02*
X143018500Y-67026500I237500J0D01*
G01*
G37*
%TD*%
%TO.C,C22*%
G36*
G01*
X133929000Y-67293500D02*
X133929000Y-66818500D01*
G75*
G02*
X134166500Y-66581000I237500J0D01*
G01*
X134766500Y-66581000D01*
G75*
G02*
X135004000Y-66818500I0J-237500D01*
G01*
X135004000Y-67293500D01*
G75*
G02*
X134766500Y-67531000I-237500J0D01*
G01*
X134166500Y-67531000D01*
G75*
G02*
X133929000Y-67293500I0J237500D01*
G01*
G37*
G36*
G01*
X132204000Y-67293500D02*
X132204000Y-66818500D01*
G75*
G02*
X132441500Y-66581000I237500J0D01*
G01*
X133041500Y-66581000D01*
G75*
G02*
X133279000Y-66818500I0J-237500D01*
G01*
X133279000Y-67293500D01*
G75*
G02*
X133041500Y-67531000I-237500J0D01*
G01*
X132441500Y-67531000D01*
G75*
G02*
X132204000Y-67293500I0J237500D01*
G01*
G37*
%TD*%
%TO.C,C21*%
G36*
G01*
X134903500Y-52594500D02*
X134903500Y-53069500D01*
G75*
G02*
X134666000Y-53307000I-237500J0D01*
G01*
X134066000Y-53307000D01*
G75*
G02*
X133828500Y-53069500I0J237500D01*
G01*
X133828500Y-52594500D01*
G75*
G02*
X134066000Y-52357000I237500J0D01*
G01*
X134666000Y-52357000D01*
G75*
G02*
X134903500Y-52594500I0J-237500D01*
G01*
G37*
G36*
G01*
X136628500Y-52594500D02*
X136628500Y-53069500D01*
G75*
G02*
X136391000Y-53307000I-237500J0D01*
G01*
X135791000Y-53307000D01*
G75*
G02*
X135553500Y-53069500I0J237500D01*
G01*
X135553500Y-52594500D01*
G75*
G02*
X135791000Y-52357000I237500J0D01*
G01*
X136391000Y-52357000D01*
G75*
G02*
X136628500Y-52594500I0J-237500D01*
G01*
G37*
%TD*%
%TO.C,C20*%
G36*
G01*
X141306500Y-52594500D02*
X141306500Y-53069500D01*
G75*
G02*
X141069000Y-53307000I-237500J0D01*
G01*
X140469000Y-53307000D01*
G75*
G02*
X140231500Y-53069500I0J237500D01*
G01*
X140231500Y-52594500D01*
G75*
G02*
X140469000Y-52357000I237500J0D01*
G01*
X141069000Y-52357000D01*
G75*
G02*
X141306500Y-52594500I0J-237500D01*
G01*
G37*
G36*
G01*
X143031500Y-52594500D02*
X143031500Y-53069500D01*
G75*
G02*
X142794000Y-53307000I-237500J0D01*
G01*
X142194000Y-53307000D01*
G75*
G02*
X141956500Y-53069500I0J237500D01*
G01*
X141956500Y-52594500D01*
G75*
G02*
X142194000Y-52357000I237500J0D01*
G01*
X142794000Y-52357000D01*
G75*
G02*
X143031500Y-52594500I0J-237500D01*
G01*
G37*
%TD*%
%TO.C,C19*%
G36*
G01*
X133929000Y-71103500D02*
X133929000Y-70628500D01*
G75*
G02*
X134166500Y-70391000I237500J0D01*
G01*
X134766500Y-70391000D01*
G75*
G02*
X135004000Y-70628500I0J-237500D01*
G01*
X135004000Y-71103500D01*
G75*
G02*
X134766500Y-71341000I-237500J0D01*
G01*
X134166500Y-71341000D01*
G75*
G02*
X133929000Y-71103500I0J237500D01*
G01*
G37*
G36*
G01*
X132204000Y-71103500D02*
X132204000Y-70628500D01*
G75*
G02*
X132441500Y-70391000I237500J0D01*
G01*
X133041500Y-70391000D01*
G75*
G02*
X133279000Y-70628500I0J-237500D01*
G01*
X133279000Y-71103500D01*
G75*
G02*
X133041500Y-71341000I-237500J0D01*
G01*
X132441500Y-71341000D01*
G75*
G02*
X132204000Y-71103500I0J237500D01*
G01*
G37*
%TD*%
%TO.C,C18*%
G36*
G01*
X130843000Y-80946500D02*
X131793000Y-80946500D01*
G75*
G02*
X132043000Y-81196500I0J-250000D01*
G01*
X132043000Y-81871500D01*
G75*
G02*
X131793000Y-82121500I-250000J0D01*
G01*
X130843000Y-82121500D01*
G75*
G02*
X130593000Y-81871500I0J250000D01*
G01*
X130593000Y-81196500D01*
G75*
G02*
X130843000Y-80946500I250000J0D01*
G01*
G37*
G36*
G01*
X130843000Y-78871500D02*
X131793000Y-78871500D01*
G75*
G02*
X132043000Y-79121500I0J-250000D01*
G01*
X132043000Y-79796500D01*
G75*
G02*
X131793000Y-80046500I-250000J0D01*
G01*
X130843000Y-80046500D01*
G75*
G02*
X130593000Y-79796500I0J250000D01*
G01*
X130593000Y-79121500D01*
G75*
G02*
X130843000Y-78871500I250000J0D01*
G01*
G37*
%TD*%
%TO.C,C17*%
G36*
G01*
X131793000Y-75771500D02*
X130843000Y-75771500D01*
G75*
G02*
X130593000Y-75521500I0J250000D01*
G01*
X130593000Y-74846500D01*
G75*
G02*
X130843000Y-74596500I250000J0D01*
G01*
X131793000Y-74596500D01*
G75*
G02*
X132043000Y-74846500I0J-250000D01*
G01*
X132043000Y-75521500D01*
G75*
G02*
X131793000Y-75771500I-250000J0D01*
G01*
G37*
G36*
G01*
X131793000Y-77846500D02*
X130843000Y-77846500D01*
G75*
G02*
X130593000Y-77596500I0J250000D01*
G01*
X130593000Y-76921500D01*
G75*
G02*
X130843000Y-76671500I250000J0D01*
G01*
X131793000Y-76671500D01*
G75*
G02*
X132043000Y-76921500I0J-250000D01*
G01*
X132043000Y-77596500D01*
G75*
G02*
X131793000Y-77846500I-250000J0D01*
G01*
G37*
%TD*%
%TO.C,C2*%
G36*
G01*
X159287500Y-77740500D02*
X159287500Y-78215500D01*
G75*
G02*
X159050000Y-78453000I-237500J0D01*
G01*
X158450000Y-78453000D01*
G75*
G02*
X158212500Y-78215500I0J237500D01*
G01*
X158212500Y-77740500D01*
G75*
G02*
X158450000Y-77503000I237500J0D01*
G01*
X159050000Y-77503000D01*
G75*
G02*
X159287500Y-77740500I0J-237500D01*
G01*
G37*
G36*
G01*
X161012500Y-77740500D02*
X161012500Y-78215500D01*
G75*
G02*
X160775000Y-78453000I-237500J0D01*
G01*
X160175000Y-78453000D01*
G75*
G02*
X159937500Y-78215500I0J237500D01*
G01*
X159937500Y-77740500D01*
G75*
G02*
X160175000Y-77503000I237500J0D01*
G01*
X160775000Y-77503000D01*
G75*
G02*
X161012500Y-77740500I0J-237500D01*
G01*
G37*
%TD*%
%TO.C,C1*%
G36*
G01*
X159287500Y-84598500D02*
X159287500Y-85073500D01*
G75*
G02*
X159050000Y-85311000I-237500J0D01*
G01*
X158450000Y-85311000D01*
G75*
G02*
X158212500Y-85073500I0J237500D01*
G01*
X158212500Y-84598500D01*
G75*
G02*
X158450000Y-84361000I237500J0D01*
G01*
X159050000Y-84361000D01*
G75*
G02*
X159287500Y-84598500I0J-237500D01*
G01*
G37*
G36*
G01*
X161012500Y-84598500D02*
X161012500Y-85073500D01*
G75*
G02*
X160775000Y-85311000I-237500J0D01*
G01*
X160175000Y-85311000D01*
G75*
G02*
X159937500Y-85073500I0J237500D01*
G01*
X159937500Y-84598500D01*
G75*
G02*
X160175000Y-84361000I237500J0D01*
G01*
X160775000Y-84361000D01*
G75*
G02*
X161012500Y-84598500I0J-237500D01*
G01*
G37*
%TD*%
D20*
%TO.C,H3*%
X163576000Y-120650000D03*
%TD*%
%TO.C,H2*%
X103886000Y-120650000D03*
%TD*%
%TO.C,H5*%
X189775000Y-120650000D03*
%TD*%
%TO.C,H6*%
X129286000Y-120650000D03*
%TD*%
D10*
%TO.C,J6*%
X170180000Y-72898000D03*
X170180000Y-75438000D03*
X170180000Y-77978000D03*
X170180000Y-80518000D03*
X170180000Y-83058000D03*
X170180000Y-85598000D03*
X170180000Y-88138000D03*
D11*
X170180000Y-90678000D03*
%TD*%
D10*
%TO.C,J5*%
X170180000Y-45974000D03*
X170180000Y-48514000D03*
X170180000Y-51054000D03*
X170180000Y-53594000D03*
X170180000Y-56134000D03*
X170180000Y-58674000D03*
X170180000Y-61214000D03*
X170180000Y-63754000D03*
X170180000Y-66294000D03*
D11*
X170180000Y-68834000D03*
%TD*%
D10*
%TO.C,J4*%
X121920000Y-90678000D03*
X121920000Y-88138000D03*
X121920000Y-85598000D03*
X121920000Y-83058000D03*
X121920000Y-80518000D03*
D11*
X121920000Y-77978000D03*
%TD*%
D10*
%TO.C,J3*%
X121920000Y-72898000D03*
X121920000Y-70358000D03*
X121920000Y-67818000D03*
X121920000Y-65278000D03*
X121920000Y-62738000D03*
X121920000Y-60198000D03*
X121920000Y-57658000D03*
D11*
X121920000Y-55118000D03*
%TD*%
M02*
