%TF.GenerationSoftware,KiCad,Pcbnew,(5.1.10)-1*%
%TF.CreationDate,2022-02-24T08:52:08+01:00*%
%TF.ProjectId,GestureControl,47657374-7572-4654-936f-6e74726f6c2e,V0.1*%
%TF.SameCoordinates,Original*%
%TF.FileFunction,Legend,Top*%
%TF.FilePolarity,Positive*%
%FSLAX46Y46*%
G04 Gerber Fmt 4.6, Leading zero omitted, Abs format (unit mm)*
G04 Created by KiCad (PCBNEW (5.1.10)-1) date 2022-02-24 08:52:08*
%MOMM*%
%LPD*%
G01*
G04 APERTURE LIST*
%ADD10C,0.250000*%
%ADD11C,0.300000*%
%ADD12C,0.120000*%
%ADD13C,0.100000*%
%ADD14C,0.150000*%
G04 APERTURE END LIST*
D10*
X145740380Y-63467904D02*
X144740380Y-63467904D01*
X144835619Y-63039333D02*
X144788000Y-62991714D01*
X144740380Y-62896476D01*
X144740380Y-62658380D01*
X144788000Y-62563142D01*
X144835619Y-62515523D01*
X144930857Y-62467904D01*
X145026095Y-62467904D01*
X145168952Y-62515523D01*
X145740380Y-63086952D01*
X145740380Y-62467904D01*
X145645142Y-61467904D02*
X145692761Y-61515523D01*
X145740380Y-61658380D01*
X145740380Y-61753619D01*
X145692761Y-61896476D01*
X145597523Y-61991714D01*
X145502285Y-62039333D01*
X145311809Y-62086952D01*
X145168952Y-62086952D01*
X144978476Y-62039333D01*
X144883238Y-61991714D01*
X144788000Y-61896476D01*
X144740380Y-61753619D01*
X144740380Y-61658380D01*
X144788000Y-61515523D01*
X144835619Y-61467904D01*
X145740380Y-59801238D02*
X145740380Y-60277428D01*
X144740380Y-60277428D01*
X145645142Y-58896476D02*
X145692761Y-58944095D01*
X145740380Y-59086952D01*
X145740380Y-59182190D01*
X145692761Y-59325047D01*
X145597523Y-59420285D01*
X145502285Y-59467904D01*
X145311809Y-59515523D01*
X145168952Y-59515523D01*
X144978476Y-59467904D01*
X144883238Y-59420285D01*
X144788000Y-59325047D01*
X144740380Y-59182190D01*
X144740380Y-59086952D01*
X144788000Y-58944095D01*
X144835619Y-58896476D01*
X145740380Y-58467904D02*
X144740380Y-58467904D01*
X144740380Y-58229809D01*
X144788000Y-58086952D01*
X144883238Y-57991714D01*
X144978476Y-57944095D01*
X145168952Y-57896476D01*
X145311809Y-57896476D01*
X145502285Y-57944095D01*
X145597523Y-57991714D01*
X145692761Y-58086952D01*
X145740380Y-58229809D01*
X145740380Y-58467904D01*
X122444190Y-40203428D02*
X123206095Y-40203428D01*
X126729904Y-40203428D02*
X127491809Y-40203428D01*
X127110857Y-40584380D02*
X127110857Y-39822476D01*
X107989809Y-101274571D02*
X107656476Y-101274571D01*
X107656476Y-101798380D02*
X107656476Y-100798380D01*
X108132666Y-100798380D01*
X108370761Y-100798380D02*
X108942190Y-100798380D01*
X108656476Y-101798380D02*
X108656476Y-100798380D01*
X109275523Y-101798380D02*
X109275523Y-100798380D01*
X109513619Y-100798380D01*
X109656476Y-100846000D01*
X109751714Y-100941238D01*
X109799333Y-101036476D01*
X109846952Y-101226952D01*
X109846952Y-101369809D01*
X109799333Y-101560285D01*
X109751714Y-101655523D01*
X109656476Y-101750761D01*
X109513619Y-101798380D01*
X109275523Y-101798380D01*
X110275523Y-101798380D02*
X110275523Y-100798380D01*
X181261238Y-101750761D02*
X181404095Y-101798380D01*
X181642190Y-101798380D01*
X181737428Y-101750761D01*
X181785047Y-101703142D01*
X181832666Y-101607904D01*
X181832666Y-101512666D01*
X181785047Y-101417428D01*
X181737428Y-101369809D01*
X181642190Y-101322190D01*
X181451714Y-101274571D01*
X181356476Y-101226952D01*
X181308857Y-101179333D01*
X181261238Y-101084095D01*
X181261238Y-100988857D01*
X181308857Y-100893619D01*
X181356476Y-100846000D01*
X181451714Y-100798380D01*
X181689809Y-100798380D01*
X181832666Y-100846000D01*
X182642190Y-101750761D02*
X182546952Y-101798380D01*
X182356476Y-101798380D01*
X182261238Y-101750761D01*
X182213619Y-101655523D01*
X182213619Y-101274571D01*
X182261238Y-101179333D01*
X182356476Y-101131714D01*
X182546952Y-101131714D01*
X182642190Y-101179333D01*
X182689809Y-101274571D01*
X182689809Y-101369809D01*
X182213619Y-101465047D01*
X183118380Y-101798380D02*
X183118380Y-101131714D01*
X183118380Y-101322190D02*
X183166000Y-101226952D01*
X183213619Y-101179333D01*
X183308857Y-101131714D01*
X183404095Y-101131714D01*
X183737428Y-101798380D02*
X183737428Y-101131714D01*
X183737428Y-100798380D02*
X183689809Y-100846000D01*
X183737428Y-100893619D01*
X183785047Y-100846000D01*
X183737428Y-100798380D01*
X183737428Y-100893619D01*
X184642190Y-101798380D02*
X184642190Y-101274571D01*
X184594571Y-101179333D01*
X184499333Y-101131714D01*
X184308857Y-101131714D01*
X184213619Y-101179333D01*
X184642190Y-101750761D02*
X184546952Y-101798380D01*
X184308857Y-101798380D01*
X184213619Y-101750761D01*
X184166000Y-101655523D01*
X184166000Y-101560285D01*
X184213619Y-101465047D01*
X184308857Y-101417428D01*
X184546952Y-101417428D01*
X184642190Y-101369809D01*
X185261238Y-101798380D02*
X185166000Y-101750761D01*
X185118380Y-101655523D01*
X185118380Y-100798380D01*
X186308857Y-100798380D02*
X186546952Y-101798380D01*
X186737428Y-101084095D01*
X186927904Y-101798380D01*
X187166000Y-100798380D01*
X187546952Y-101798380D02*
X187546952Y-101131714D01*
X187546952Y-100798380D02*
X187499333Y-100846000D01*
X187546952Y-100893619D01*
X187594571Y-100846000D01*
X187546952Y-100798380D01*
X187546952Y-100893619D01*
X188023142Y-101798380D02*
X188023142Y-101131714D01*
X188023142Y-101322190D02*
X188070761Y-101226952D01*
X188118380Y-101179333D01*
X188213619Y-101131714D01*
X188308857Y-101131714D01*
X189023142Y-101750761D02*
X188927904Y-101798380D01*
X188737428Y-101798380D01*
X188642190Y-101750761D01*
X188594571Y-101655523D01*
X188594571Y-101274571D01*
X188642190Y-101179333D01*
X188737428Y-101131714D01*
X188927904Y-101131714D01*
X189023142Y-101179333D01*
X189070761Y-101274571D01*
X189070761Y-101369809D01*
X188594571Y-101465047D01*
X154614571Y-55205142D02*
X154662190Y-55062285D01*
X154709809Y-55014666D01*
X154805047Y-54967047D01*
X154947904Y-54967047D01*
X155043142Y-55014666D01*
X155090761Y-55062285D01*
X155138380Y-55157523D01*
X155138380Y-55538476D01*
X154138380Y-55538476D01*
X154138380Y-55205142D01*
X154186000Y-55109904D01*
X154233619Y-55062285D01*
X154328857Y-55014666D01*
X154424095Y-55014666D01*
X154519333Y-55062285D01*
X154566952Y-55109904D01*
X154614571Y-55205142D01*
X154614571Y-55538476D01*
X154138380Y-54348000D02*
X154138380Y-54157523D01*
X154186000Y-54062285D01*
X154281238Y-53967047D01*
X154471714Y-53919428D01*
X154805047Y-53919428D01*
X154995523Y-53967047D01*
X155090761Y-54062285D01*
X155138380Y-54157523D01*
X155138380Y-54348000D01*
X155090761Y-54443238D01*
X154995523Y-54538476D01*
X154805047Y-54586095D01*
X154471714Y-54586095D01*
X154281238Y-54538476D01*
X154186000Y-54443238D01*
X154138380Y-54348000D01*
X154138380Y-53300380D02*
X154138380Y-53109904D01*
X154186000Y-53014666D01*
X154281238Y-52919428D01*
X154471714Y-52871809D01*
X154805047Y-52871809D01*
X154995523Y-52919428D01*
X155090761Y-53014666D01*
X155138380Y-53109904D01*
X155138380Y-53300380D01*
X155090761Y-53395619D01*
X154995523Y-53490857D01*
X154805047Y-53538476D01*
X154471714Y-53538476D01*
X154281238Y-53490857D01*
X154186000Y-53395619D01*
X154138380Y-53300380D01*
X154138380Y-52586095D02*
X154138380Y-52014666D01*
X155138380Y-52300380D02*
X154138380Y-52300380D01*
X155138380Y-62523619D02*
X154662190Y-62856952D01*
X155138380Y-63095047D02*
X154138380Y-63095047D01*
X154138380Y-62714095D01*
X154186000Y-62618857D01*
X154233619Y-62571238D01*
X154328857Y-62523619D01*
X154471714Y-62523619D01*
X154566952Y-62571238D01*
X154614571Y-62618857D01*
X154662190Y-62714095D01*
X154662190Y-63095047D01*
X155090761Y-62142666D02*
X155138380Y-61999809D01*
X155138380Y-61761714D01*
X155090761Y-61666476D01*
X155043142Y-61618857D01*
X154947904Y-61571238D01*
X154852666Y-61571238D01*
X154757428Y-61618857D01*
X154709809Y-61666476D01*
X154662190Y-61761714D01*
X154614571Y-61952190D01*
X154566952Y-62047428D01*
X154519333Y-62095047D01*
X154424095Y-62142666D01*
X154328857Y-62142666D01*
X154233619Y-62095047D01*
X154186000Y-62047428D01*
X154138380Y-61952190D01*
X154138380Y-61714095D01*
X154186000Y-61571238D01*
X154138380Y-61285523D02*
X154138380Y-60714095D01*
X155138380Y-60999809D02*
X154138380Y-60999809D01*
X164028380Y-74897904D02*
X163028380Y-74897904D01*
X163123619Y-74469333D02*
X163076000Y-74421714D01*
X163028380Y-74326476D01*
X163028380Y-74088380D01*
X163076000Y-73993142D01*
X163123619Y-73945523D01*
X163218857Y-73897904D01*
X163314095Y-73897904D01*
X163456952Y-73945523D01*
X164028380Y-74516952D01*
X164028380Y-73897904D01*
X163933142Y-72897904D02*
X163980761Y-72945523D01*
X164028380Y-73088380D01*
X164028380Y-73183619D01*
X163980761Y-73326476D01*
X163885523Y-73421714D01*
X163790285Y-73469333D01*
X163599809Y-73516952D01*
X163456952Y-73516952D01*
X163266476Y-73469333D01*
X163171238Y-73421714D01*
X163076000Y-73326476D01*
X163028380Y-73183619D01*
X163028380Y-73088380D01*
X163076000Y-72945523D01*
X163123619Y-72897904D01*
X164028380Y-71231238D02*
X164028380Y-71707428D01*
X163028380Y-71707428D01*
X163933142Y-70326476D02*
X163980761Y-70374095D01*
X164028380Y-70516952D01*
X164028380Y-70612190D01*
X163980761Y-70755047D01*
X163885523Y-70850285D01*
X163790285Y-70897904D01*
X163599809Y-70945523D01*
X163456952Y-70945523D01*
X163266476Y-70897904D01*
X163171238Y-70850285D01*
X163076000Y-70755047D01*
X163028380Y-70612190D01*
X163028380Y-70516952D01*
X163076000Y-70374095D01*
X163123619Y-70326476D01*
X164028380Y-69897904D02*
X163028380Y-69897904D01*
X163028380Y-69659809D01*
X163076000Y-69516952D01*
X163171238Y-69421714D01*
X163266476Y-69374095D01*
X163456952Y-69326476D01*
X163599809Y-69326476D01*
X163790285Y-69374095D01*
X163885523Y-69421714D01*
X163980761Y-69516952D01*
X164028380Y-69659809D01*
X164028380Y-69897904D01*
X163028380Y-85161238D02*
X163837904Y-85161238D01*
X163933142Y-85113619D01*
X163980761Y-85066000D01*
X164028380Y-84970761D01*
X164028380Y-84780285D01*
X163980761Y-84685047D01*
X163933142Y-84637428D01*
X163837904Y-84589809D01*
X163028380Y-84589809D01*
X163742666Y-84161238D02*
X163742666Y-83685047D01*
X164028380Y-84256476D02*
X163028380Y-83923142D01*
X164028380Y-83589809D01*
X164028380Y-82685047D02*
X163552190Y-83018380D01*
X164028380Y-83256476D02*
X163028380Y-83256476D01*
X163028380Y-82875523D01*
X163076000Y-82780285D01*
X163123619Y-82732666D01*
X163218857Y-82685047D01*
X163361714Y-82685047D01*
X163456952Y-82732666D01*
X163504571Y-82780285D01*
X163552190Y-82875523D01*
X163552190Y-83256476D01*
X163028380Y-82399333D02*
X163028380Y-81827904D01*
X164028380Y-82113619D02*
X163028380Y-82113619D01*
D11*
X117301714Y-110756000D02*
X117158857Y-110684571D01*
X116944571Y-110684571D01*
X116730285Y-110756000D01*
X116587428Y-110898857D01*
X116516000Y-111041714D01*
X116444571Y-111327428D01*
X116444571Y-111541714D01*
X116516000Y-111827428D01*
X116587428Y-111970285D01*
X116730285Y-112113142D01*
X116944571Y-112184571D01*
X117087428Y-112184571D01*
X117301714Y-112113142D01*
X117373142Y-112041714D01*
X117373142Y-111541714D01*
X117087428Y-111541714D01*
X118587428Y-112113142D02*
X118444571Y-112184571D01*
X118158857Y-112184571D01*
X118016000Y-112113142D01*
X117944571Y-111970285D01*
X117944571Y-111398857D01*
X118016000Y-111256000D01*
X118158857Y-111184571D01*
X118444571Y-111184571D01*
X118587428Y-111256000D01*
X118658857Y-111398857D01*
X118658857Y-111541714D01*
X117944571Y-111684571D01*
X119230285Y-112113142D02*
X119373142Y-112184571D01*
X119658857Y-112184571D01*
X119801714Y-112113142D01*
X119873142Y-111970285D01*
X119873142Y-111898857D01*
X119801714Y-111756000D01*
X119658857Y-111684571D01*
X119444571Y-111684571D01*
X119301714Y-111613142D01*
X119230285Y-111470285D01*
X119230285Y-111398857D01*
X119301714Y-111256000D01*
X119444571Y-111184571D01*
X119658857Y-111184571D01*
X119801714Y-111256000D01*
X120301714Y-111184571D02*
X120873142Y-111184571D01*
X120516000Y-110684571D02*
X120516000Y-111970285D01*
X120587428Y-112113142D01*
X120730285Y-112184571D01*
X120873142Y-112184571D01*
X122016000Y-111184571D02*
X122016000Y-112184571D01*
X121373142Y-111184571D02*
X121373142Y-111970285D01*
X121444571Y-112113142D01*
X121587428Y-112184571D01*
X121801714Y-112184571D01*
X121944571Y-112113142D01*
X122016000Y-112041714D01*
X122730285Y-112184571D02*
X122730285Y-111184571D01*
X122730285Y-111470285D02*
X122801714Y-111327428D01*
X122873142Y-111256000D01*
X123016000Y-111184571D01*
X123158857Y-111184571D01*
X124230285Y-112113142D02*
X124087428Y-112184571D01*
X123801714Y-112184571D01*
X123658857Y-112113142D01*
X123587428Y-111970285D01*
X123587428Y-111398857D01*
X123658857Y-111256000D01*
X123801714Y-111184571D01*
X124087428Y-111184571D01*
X124230285Y-111256000D01*
X124301714Y-111398857D01*
X124301714Y-111541714D01*
X123587428Y-111684571D01*
X126944571Y-112041714D02*
X126873142Y-112113142D01*
X126658857Y-112184571D01*
X126516000Y-112184571D01*
X126301714Y-112113142D01*
X126158857Y-111970285D01*
X126087428Y-111827428D01*
X126016000Y-111541714D01*
X126016000Y-111327428D01*
X126087428Y-111041714D01*
X126158857Y-110898857D01*
X126301714Y-110756000D01*
X126516000Y-110684571D01*
X126658857Y-110684571D01*
X126873142Y-110756000D01*
X126944571Y-110827428D01*
X127801714Y-112184571D02*
X127658857Y-112113142D01*
X127587428Y-112041714D01*
X127516000Y-111898857D01*
X127516000Y-111470285D01*
X127587428Y-111327428D01*
X127658857Y-111256000D01*
X127801714Y-111184571D01*
X128016000Y-111184571D01*
X128158857Y-111256000D01*
X128230285Y-111327428D01*
X128301714Y-111470285D01*
X128301714Y-111898857D01*
X128230285Y-112041714D01*
X128158857Y-112113142D01*
X128016000Y-112184571D01*
X127801714Y-112184571D01*
X128944571Y-111184571D02*
X128944571Y-112184571D01*
X128944571Y-111327428D02*
X129016000Y-111256000D01*
X129158857Y-111184571D01*
X129373142Y-111184571D01*
X129516000Y-111256000D01*
X129587428Y-111398857D01*
X129587428Y-112184571D01*
X130087428Y-111184571D02*
X130658857Y-111184571D01*
X130301714Y-110684571D02*
X130301714Y-111970285D01*
X130373142Y-112113142D01*
X130516000Y-112184571D01*
X130658857Y-112184571D01*
X131158857Y-112184571D02*
X131158857Y-111184571D01*
X131158857Y-111470285D02*
X131230285Y-111327428D01*
X131301714Y-111256000D01*
X131444571Y-111184571D01*
X131587428Y-111184571D01*
X132301714Y-112184571D02*
X132158857Y-112113142D01*
X132087428Y-112041714D01*
X132016000Y-111898857D01*
X132016000Y-111470285D01*
X132087428Y-111327428D01*
X132158857Y-111256000D01*
X132301714Y-111184571D01*
X132516000Y-111184571D01*
X132658857Y-111256000D01*
X132730285Y-111327428D01*
X132801714Y-111470285D01*
X132801714Y-111898857D01*
X132730285Y-112041714D01*
X132658857Y-112113142D01*
X132516000Y-112184571D01*
X132301714Y-112184571D01*
X133658857Y-112184571D02*
X133516000Y-112113142D01*
X133444571Y-111970285D01*
X133444571Y-110684571D01*
X135158857Y-110684571D02*
X135658857Y-112184571D01*
X136158857Y-110684571D01*
X136944571Y-110684571D02*
X137087428Y-110684571D01*
X137230285Y-110756000D01*
X137301714Y-110827428D01*
X137373142Y-110970285D01*
X137444571Y-111256000D01*
X137444571Y-111613142D01*
X137373142Y-111898857D01*
X137301714Y-112041714D01*
X137230285Y-112113142D01*
X137087428Y-112184571D01*
X136944571Y-112184571D01*
X136801714Y-112113142D01*
X136730285Y-112041714D01*
X136658857Y-111898857D01*
X136587428Y-111613142D01*
X136587428Y-111256000D01*
X136658857Y-110970285D01*
X136730285Y-110827428D01*
X136801714Y-110756000D01*
X136944571Y-110684571D01*
X138087428Y-112041714D02*
X138158857Y-112113142D01*
X138087428Y-112184571D01*
X138016000Y-112113142D01*
X138087428Y-112041714D01*
X138087428Y-112184571D01*
X139587428Y-112184571D02*
X138730285Y-112184571D01*
X139158857Y-112184571D02*
X139158857Y-110684571D01*
X139016000Y-110898857D01*
X138873142Y-111041714D01*
X138730285Y-111113142D01*
X112944571Y-114724571D02*
X112944571Y-113224571D01*
X113444571Y-114296000D01*
X113944571Y-113224571D01*
X113944571Y-114724571D01*
X115301714Y-114724571D02*
X115301714Y-113938857D01*
X115230285Y-113796000D01*
X115087428Y-113724571D01*
X114801714Y-113724571D01*
X114658857Y-113796000D01*
X115301714Y-114653142D02*
X115158857Y-114724571D01*
X114801714Y-114724571D01*
X114658857Y-114653142D01*
X114587428Y-114510285D01*
X114587428Y-114367428D01*
X114658857Y-114224571D01*
X114801714Y-114153142D01*
X115158857Y-114153142D01*
X115301714Y-114081714D01*
X116658857Y-114724571D02*
X116658857Y-113224571D01*
X116658857Y-114653142D02*
X116516000Y-114724571D01*
X116230285Y-114724571D01*
X116087428Y-114653142D01*
X116016000Y-114581714D01*
X115944571Y-114438857D01*
X115944571Y-114010285D01*
X116016000Y-113867428D01*
X116087428Y-113796000D01*
X116230285Y-113724571D01*
X116516000Y-113724571D01*
X116658857Y-113796000D01*
X117944571Y-114653142D02*
X117801714Y-114724571D01*
X117516000Y-114724571D01*
X117373142Y-114653142D01*
X117301714Y-114510285D01*
X117301714Y-113938857D01*
X117373142Y-113796000D01*
X117516000Y-113724571D01*
X117801714Y-113724571D01*
X117944571Y-113796000D01*
X118016000Y-113938857D01*
X118016000Y-114081714D01*
X117301714Y-114224571D01*
X120301714Y-113938857D02*
X120516000Y-114010285D01*
X120587428Y-114081714D01*
X120658857Y-114224571D01*
X120658857Y-114438857D01*
X120587428Y-114581714D01*
X120516000Y-114653142D01*
X120373142Y-114724571D01*
X119801714Y-114724571D01*
X119801714Y-113224571D01*
X120301714Y-113224571D01*
X120444571Y-113296000D01*
X120516000Y-113367428D01*
X120587428Y-113510285D01*
X120587428Y-113653142D01*
X120516000Y-113796000D01*
X120444571Y-113867428D01*
X120301714Y-113938857D01*
X119801714Y-113938857D01*
X121158857Y-113724571D02*
X121516000Y-114724571D01*
X121873142Y-113724571D02*
X121516000Y-114724571D01*
X121373142Y-115081714D01*
X121301714Y-115153142D01*
X121158857Y-115224571D01*
X122444571Y-114581714D02*
X122516000Y-114653142D01*
X122444571Y-114724571D01*
X122373142Y-114653142D01*
X122444571Y-114581714D01*
X122444571Y-114724571D01*
X122444571Y-113796000D02*
X122516000Y-113867428D01*
X122444571Y-113938857D01*
X122373142Y-113867428D01*
X122444571Y-113796000D01*
X122444571Y-113938857D01*
X125158857Y-114724571D02*
X124658857Y-114010285D01*
X124301714Y-114724571D02*
X124301714Y-113224571D01*
X124873142Y-113224571D01*
X125016000Y-113296000D01*
X125087428Y-113367428D01*
X125158857Y-113510285D01*
X125158857Y-113724571D01*
X125087428Y-113867428D01*
X125016000Y-113938857D01*
X124873142Y-114010285D01*
X124301714Y-114010285D01*
X126016000Y-114724571D02*
X125873142Y-114653142D01*
X125801714Y-114581714D01*
X125730285Y-114438857D01*
X125730285Y-114010285D01*
X125801714Y-113867428D01*
X125873142Y-113796000D01*
X126016000Y-113724571D01*
X126230285Y-113724571D01*
X126373142Y-113796000D01*
X126444571Y-113867428D01*
X126516000Y-114010285D01*
X126516000Y-114438857D01*
X126444571Y-114581714D01*
X126373142Y-114653142D01*
X126230285Y-114724571D01*
X126016000Y-114724571D01*
X127158857Y-114724571D02*
X127158857Y-113224571D01*
X127158857Y-113796000D02*
X127301714Y-113724571D01*
X127587428Y-113724571D01*
X127730285Y-113796000D01*
X127801714Y-113867428D01*
X127873142Y-114010285D01*
X127873142Y-114438857D01*
X127801714Y-114581714D01*
X127730285Y-114653142D01*
X127587428Y-114724571D01*
X127301714Y-114724571D01*
X127158857Y-114653142D01*
X128516000Y-114724571D02*
X128516000Y-113224571D01*
X128516000Y-113796000D02*
X128658857Y-113724571D01*
X128944571Y-113724571D01*
X129087428Y-113796000D01*
X129158857Y-113867428D01*
X129230285Y-114010285D01*
X129230285Y-114438857D01*
X129158857Y-114581714D01*
X129087428Y-114653142D01*
X128944571Y-114724571D01*
X128658857Y-114724571D01*
X128516000Y-114653142D01*
X130444571Y-114653142D02*
X130301714Y-114724571D01*
X130016000Y-114724571D01*
X129873142Y-114653142D01*
X129801714Y-114510285D01*
X129801714Y-113938857D01*
X129873142Y-113796000D01*
X130016000Y-113724571D01*
X130301714Y-113724571D01*
X130444571Y-113796000D01*
X130516000Y-113938857D01*
X130516000Y-114081714D01*
X129801714Y-114224571D01*
X132301714Y-113938857D02*
X132801714Y-113938857D01*
X133016000Y-114724571D02*
X132301714Y-114724571D01*
X132301714Y-113224571D01*
X133016000Y-113224571D01*
X133873142Y-114724571D02*
X133730285Y-114653142D01*
X133658857Y-114510285D01*
X133658857Y-113224571D01*
X134373142Y-114653142D02*
X134516000Y-114724571D01*
X134801714Y-114724571D01*
X134944571Y-114653142D01*
X135016000Y-114510285D01*
X135016000Y-114438857D01*
X134944571Y-114296000D01*
X134801714Y-114224571D01*
X134587428Y-114224571D01*
X134444571Y-114153142D01*
X134373142Y-114010285D01*
X134373142Y-113938857D01*
X134444571Y-113796000D01*
X134587428Y-113724571D01*
X134801714Y-113724571D01*
X134944571Y-113796000D01*
X136230285Y-114653142D02*
X136087428Y-114724571D01*
X135801714Y-114724571D01*
X135658857Y-114653142D01*
X135587428Y-114510285D01*
X135587428Y-113938857D01*
X135658857Y-113796000D01*
X135801714Y-113724571D01*
X136087428Y-113724571D01*
X136230285Y-113796000D01*
X136301714Y-113938857D01*
X136301714Y-114081714D01*
X135587428Y-114224571D01*
X136944571Y-114724571D02*
X136944571Y-113724571D01*
X136944571Y-114010285D02*
X137016000Y-113867428D01*
X137087428Y-113796000D01*
X137230285Y-113724571D01*
X137373142Y-113724571D01*
X137873142Y-114724571D02*
X137873142Y-113724571D01*
X137873142Y-113867428D02*
X137944571Y-113796000D01*
X138087428Y-113724571D01*
X138301714Y-113724571D01*
X138444571Y-113796000D01*
X138516000Y-113938857D01*
X138516000Y-114724571D01*
X138516000Y-113938857D02*
X138587428Y-113796000D01*
X138730285Y-113724571D01*
X138944571Y-113724571D01*
X139087428Y-113796000D01*
X139158857Y-113938857D01*
X139158857Y-114724571D01*
X140516000Y-114724571D02*
X140516000Y-113938857D01*
X140444571Y-113796000D01*
X140301714Y-113724571D01*
X140016000Y-113724571D01*
X139873142Y-113796000D01*
X140516000Y-114653142D02*
X140373142Y-114724571D01*
X140016000Y-114724571D01*
X139873142Y-114653142D01*
X139801714Y-114510285D01*
X139801714Y-114367428D01*
X139873142Y-114224571D01*
X140016000Y-114153142D01*
X140373142Y-114153142D01*
X140516000Y-114081714D01*
X141230285Y-113724571D02*
X141230285Y-114724571D01*
X141230285Y-113867428D02*
X141301714Y-113796000D01*
X141444571Y-113724571D01*
X141658857Y-113724571D01*
X141801714Y-113796000D01*
X141873142Y-113938857D01*
X141873142Y-114724571D01*
X142516000Y-114653142D02*
X142658857Y-114724571D01*
X142944571Y-114724571D01*
X143087428Y-114653142D01*
X143158857Y-114510285D01*
X143158857Y-114438857D01*
X143087428Y-114296000D01*
X142944571Y-114224571D01*
X142730285Y-114224571D01*
X142587428Y-114153142D01*
X142516000Y-114010285D01*
X142516000Y-113938857D01*
X142587428Y-113796000D01*
X142730285Y-113724571D01*
X142944571Y-113724571D01*
X143087428Y-113796000D01*
D12*
%TO.C,U5*%
X111582200Y-117919500D02*
X111582200Y-117731739D01*
X111582200Y-113220500D02*
X108889800Y-113220500D01*
X108889800Y-113220500D02*
X108889800Y-113408261D01*
X108889800Y-117919500D02*
X111582200Y-117919500D01*
X111582200Y-113408261D02*
X111582200Y-113220500D01*
X108889800Y-117731739D02*
X108889800Y-117919500D01*
D13*
G36*
X108462801Y-115760500D02*
G01*
X108208801Y-115760500D01*
X108208801Y-115379500D01*
X108462801Y-115379500D01*
X108462801Y-115760500D01*
G37*
X108462801Y-115760500D02*
X108208801Y-115760500D01*
X108208801Y-115379500D01*
X108462801Y-115379500D01*
X108462801Y-115760500D01*
D12*
%TO.C,U4*%
X183972200Y-117919500D02*
X183972200Y-117731739D01*
X183972200Y-113220500D02*
X181279800Y-113220500D01*
X181279800Y-113220500D02*
X181279800Y-113408261D01*
X181279800Y-117919500D02*
X183972200Y-117919500D01*
X183972200Y-113408261D02*
X183972200Y-113220500D01*
X181279800Y-117731739D02*
X181279800Y-117919500D01*
D13*
G36*
X180852801Y-115760500D02*
G01*
X180598801Y-115760500D01*
X180598801Y-115379500D01*
X180852801Y-115379500D01*
X180852801Y-115760500D01*
G37*
X180852801Y-115760500D02*
X180598801Y-115760500D01*
X180598801Y-115379500D01*
X180852801Y-115379500D01*
X180852801Y-115760500D01*
D12*
%TO.C,U3*%
X148412200Y-117919500D02*
X148412200Y-117731739D01*
X148412200Y-113220500D02*
X145719800Y-113220500D01*
X145719800Y-113220500D02*
X145719800Y-113408261D01*
X145719800Y-117919500D02*
X148412200Y-117919500D01*
X148412200Y-113408261D02*
X148412200Y-113220500D01*
X145719800Y-117731739D02*
X145719800Y-117919500D01*
D13*
G36*
X145292801Y-115760500D02*
G01*
X145038801Y-115760500D01*
X145038801Y-115379500D01*
X145292801Y-115379500D01*
X145292801Y-115760500D01*
G37*
X145292801Y-115760500D02*
X145038801Y-115760500D01*
X145038801Y-115379500D01*
X145292801Y-115379500D01*
X145292801Y-115760500D01*
D12*
%TO.C,U7*%
X151414000Y-78074000D02*
X152754000Y-78074000D01*
X151414000Y-79024000D02*
X151414000Y-78074000D01*
X150464000Y-79024000D02*
X151414000Y-79024000D01*
X141194000Y-79024000D02*
X141194000Y-78074000D01*
X142144000Y-79024000D02*
X141194000Y-79024000D01*
X151414000Y-68804000D02*
X151414000Y-69754000D01*
X150464000Y-68804000D02*
X151414000Y-68804000D01*
X141194000Y-68804000D02*
X141194000Y-69754000D01*
X142144000Y-68804000D02*
X141194000Y-68804000D01*
%TO.C,C28*%
X143871733Y-61978000D02*
X144164267Y-61978000D01*
X143871733Y-60958000D02*
X144164267Y-60958000D01*
%TO.C,C32*%
X150121252Y-83847000D02*
X149598748Y-83847000D01*
X150121252Y-85317000D02*
X149598748Y-85317000D01*
%TO.C,J7*%
X101346000Y-100076000D02*
X101346000Y-98806000D01*
X102616000Y-100076000D02*
X101346000Y-100076000D01*
X115696000Y-97763071D02*
X115696000Y-97366000D01*
X114936000Y-97763071D02*
X114936000Y-97366000D01*
X115696000Y-88706000D02*
X115696000Y-94706000D01*
X114936000Y-88706000D02*
X115696000Y-88706000D01*
X114936000Y-94706000D02*
X114936000Y-88706000D01*
X114046000Y-97366000D02*
X114046000Y-94706000D01*
X113156000Y-97763071D02*
X113156000Y-97366000D01*
X112396000Y-97763071D02*
X112396000Y-97366000D01*
X113156000Y-88706000D02*
X113156000Y-94706000D01*
X112396000Y-88706000D02*
X113156000Y-88706000D01*
X112396000Y-94706000D02*
X112396000Y-88706000D01*
X111506000Y-97366000D02*
X111506000Y-94706000D01*
X110616000Y-97763071D02*
X110616000Y-97366000D01*
X109856000Y-97763071D02*
X109856000Y-97366000D01*
X110616000Y-88706000D02*
X110616000Y-94706000D01*
X109856000Y-88706000D02*
X110616000Y-88706000D01*
X109856000Y-94706000D02*
X109856000Y-88706000D01*
X108966000Y-97366000D02*
X108966000Y-94706000D01*
X108076000Y-97763071D02*
X108076000Y-97366000D01*
X107316000Y-97763071D02*
X107316000Y-97366000D01*
X108076000Y-88706000D02*
X108076000Y-94706000D01*
X107316000Y-88706000D02*
X108076000Y-88706000D01*
X107316000Y-94706000D02*
X107316000Y-88706000D01*
X106426000Y-97366000D02*
X106426000Y-94706000D01*
X105536000Y-97763071D02*
X105536000Y-97366000D01*
X104776000Y-97763071D02*
X104776000Y-97366000D01*
X105536000Y-88706000D02*
X105536000Y-94706000D01*
X104776000Y-88706000D02*
X105536000Y-88706000D01*
X104776000Y-94706000D02*
X104776000Y-88706000D01*
X103886000Y-97366000D02*
X103886000Y-94706000D01*
X102996000Y-97696000D02*
X102996000Y-97366000D01*
X102236000Y-97696000D02*
X102236000Y-97366000D01*
X102896000Y-94706000D02*
X102896000Y-88706000D01*
X102776000Y-94706000D02*
X102776000Y-88706000D01*
X102656000Y-94706000D02*
X102656000Y-88706000D01*
X102536000Y-94706000D02*
X102536000Y-88706000D01*
X102416000Y-94706000D02*
X102416000Y-88706000D01*
X102296000Y-94706000D02*
X102296000Y-88706000D01*
X102996000Y-88706000D02*
X102996000Y-94706000D01*
X102236000Y-88706000D02*
X102996000Y-88706000D01*
X102236000Y-94706000D02*
X102236000Y-88706000D01*
X101286000Y-94706000D02*
X101286000Y-97366000D01*
X116646000Y-94706000D02*
X101286000Y-94706000D01*
X116646000Y-97366000D02*
X116646000Y-94706000D01*
X101286000Y-97366000D02*
X116646000Y-97366000D01*
%TO.C,C27*%
X156466000Y-76600267D02*
X156466000Y-76307733D01*
X155446000Y-76600267D02*
X155446000Y-76307733D01*
%TO.C,C24*%
X155446000Y-70973733D02*
X155446000Y-71266267D01*
X156466000Y-70973733D02*
X156466000Y-71266267D01*
%TO.C,Y1*%
X152664000Y-100426000D02*
X152664000Y-87826000D01*
X147564000Y-100426000D02*
X152664000Y-100426000D01*
X147564000Y-87826000D02*
X147564000Y-100426000D01*
%TO.C,C13*%
X179097000Y-121129248D02*
X179097000Y-121651752D01*
X180567000Y-121129248D02*
X180567000Y-121651752D01*
%TO.C,C11*%
X182374000Y-121519733D02*
X182374000Y-121812267D01*
X181354000Y-121519733D02*
X181354000Y-121812267D01*
%TO.C,SW2*%
X130628000Y-92020000D02*
X130628000Y-98480000D01*
X135158000Y-92020000D02*
X132558000Y-92020000D01*
X137088000Y-92020000D02*
X137088000Y-98480000D01*
X135158000Y-98480000D02*
X132558000Y-98480000D01*
X137058000Y-92020000D02*
X137088000Y-92020000D01*
X130628000Y-92020000D02*
X130658000Y-92020000D01*
X130628000Y-98480000D02*
X130658000Y-98480000D01*
X137088000Y-98480000D02*
X137058000Y-98480000D01*
%TO.C,R15*%
X182091000Y-109008936D02*
X182091000Y-109463064D01*
X180621000Y-109008936D02*
X180621000Y-109463064D01*
%TO.C,C9*%
X147635500Y-121493233D02*
X147635500Y-121785767D01*
X148655500Y-121493233D02*
X148655500Y-121785767D01*
%TO.C,D4*%
X128615000Y-86924000D02*
X125755000Y-86924000D01*
X128615000Y-88844000D02*
X128615000Y-86924000D01*
X125755000Y-88844000D02*
X128615000Y-88844000D01*
%TO.C,C15*%
X108964000Y-121546233D02*
X108964000Y-121838767D01*
X109984000Y-121546233D02*
X109984000Y-121838767D01*
%TO.C,J1*%
X164786000Y-66488000D02*
X166116000Y-66488000D01*
X164786000Y-67818000D02*
X164786000Y-66488000D01*
X164786000Y-69088000D02*
X167446000Y-69088000D01*
X167446000Y-69088000D02*
X167446000Y-76768000D01*
X164786000Y-69088000D02*
X164786000Y-76768000D01*
X164786000Y-76768000D02*
X167446000Y-76768000D01*
%TO.C,D3*%
X128615000Y-89210000D02*
X125755000Y-89210000D01*
X128615000Y-91130000D02*
X128615000Y-89210000D01*
X125755000Y-91130000D02*
X128615000Y-91130000D01*
%TO.C,D7*%
X128396000Y-52750000D02*
X128396000Y-59650000D01*
X125096000Y-52750000D02*
X125096000Y-59650000D01*
X128396000Y-52750000D02*
X125096000Y-52750000D01*
%TO.C,C3*%
X146094750Y-59923750D02*
X146882250Y-59923750D01*
X146488500Y-60317500D02*
X146488500Y-59530000D01*
X150681563Y-59290000D02*
X151746000Y-58225563D01*
X145990437Y-59290000D02*
X144926000Y-58225563D01*
X145990437Y-59290000D02*
X147276000Y-59290000D01*
X150681563Y-59290000D02*
X149396000Y-59290000D01*
X151746000Y-58225563D02*
X151746000Y-52470000D01*
X144926000Y-58225563D02*
X144926000Y-52470000D01*
X144926000Y-52470000D02*
X147276000Y-52470000D01*
X151746000Y-52470000D02*
X149396000Y-52470000D01*
%TO.C,R11*%
X166158936Y-46709000D02*
X166613064Y-46709000D01*
X166158936Y-45239000D02*
X166613064Y-45239000D01*
%TO.C,C10*%
X149379000Y-121129248D02*
X149379000Y-121651752D01*
X150849000Y-121129248D02*
X150849000Y-121651752D01*
%TO.C,C16*%
X112549000Y-121129248D02*
X112549000Y-121651752D01*
X114019000Y-121129248D02*
X114019000Y-121651752D01*
%TO.C,C31*%
X150106767Y-82040000D02*
X149814233Y-82040000D01*
X150106767Y-83060000D02*
X149814233Y-83060000D01*
%TO.C,J8*%
X178816000Y-100076000D02*
X178816000Y-98806000D01*
X180086000Y-100076000D02*
X178816000Y-100076000D01*
X190626000Y-97763071D02*
X190626000Y-97366000D01*
X189866000Y-97763071D02*
X189866000Y-97366000D01*
X190626000Y-88706000D02*
X190626000Y-94706000D01*
X189866000Y-88706000D02*
X190626000Y-88706000D01*
X189866000Y-94706000D02*
X189866000Y-88706000D01*
X188976000Y-97366000D02*
X188976000Y-94706000D01*
X188086000Y-97763071D02*
X188086000Y-97366000D01*
X187326000Y-97763071D02*
X187326000Y-97366000D01*
X188086000Y-88706000D02*
X188086000Y-94706000D01*
X187326000Y-88706000D02*
X188086000Y-88706000D01*
X187326000Y-94706000D02*
X187326000Y-88706000D01*
X186436000Y-97366000D02*
X186436000Y-94706000D01*
X185546000Y-97763071D02*
X185546000Y-97366000D01*
X184786000Y-97763071D02*
X184786000Y-97366000D01*
X185546000Y-88706000D02*
X185546000Y-94706000D01*
X184786000Y-88706000D02*
X185546000Y-88706000D01*
X184786000Y-94706000D02*
X184786000Y-88706000D01*
X183896000Y-97366000D02*
X183896000Y-94706000D01*
X183006000Y-97763071D02*
X183006000Y-97366000D01*
X182246000Y-97763071D02*
X182246000Y-97366000D01*
X183006000Y-88706000D02*
X183006000Y-94706000D01*
X182246000Y-88706000D02*
X183006000Y-88706000D01*
X182246000Y-94706000D02*
X182246000Y-88706000D01*
X181356000Y-97366000D02*
X181356000Y-94706000D01*
X180466000Y-97696000D02*
X180466000Y-97366000D01*
X179706000Y-97696000D02*
X179706000Y-97366000D01*
X180366000Y-94706000D02*
X180366000Y-88706000D01*
X180246000Y-94706000D02*
X180246000Y-88706000D01*
X180126000Y-94706000D02*
X180126000Y-88706000D01*
X180006000Y-94706000D02*
X180006000Y-88706000D01*
X179886000Y-94706000D02*
X179886000Y-88706000D01*
X179766000Y-94706000D02*
X179766000Y-88706000D01*
X180466000Y-88706000D02*
X180466000Y-94706000D01*
X179706000Y-88706000D02*
X180466000Y-88706000D01*
X179706000Y-94706000D02*
X179706000Y-88706000D01*
X178756000Y-94706000D02*
X178756000Y-97366000D01*
X191576000Y-94706000D02*
X178756000Y-94706000D01*
X191576000Y-97366000D02*
X191576000Y-94706000D01*
X178756000Y-97366000D02*
X191576000Y-97366000D01*
%TO.C,C29*%
X136908000Y-77616267D02*
X136908000Y-77323733D01*
X135888000Y-77616267D02*
X135888000Y-77323733D01*
%TO.C,R12*%
X147347000Y-108976936D02*
X147347000Y-109431064D01*
X148817000Y-108976936D02*
X148817000Y-109431064D01*
%TO.C,R10*%
X166158936Y-49249000D02*
X166613064Y-49249000D01*
X166158936Y-47779000D02*
X166613064Y-47779000D01*
%TO.C,R14*%
X184377000Y-109008936D02*
X184377000Y-109463064D01*
X182907000Y-109008936D02*
X182907000Y-109463064D01*
%TO.C,R13*%
X145061000Y-109008936D02*
X145061000Y-109463064D01*
X146531000Y-109008936D02*
X146531000Y-109463064D01*
%TO.C,C26*%
X135130000Y-77616267D02*
X135130000Y-77323733D01*
X134110000Y-77616267D02*
X134110000Y-77323733D01*
%TO.C,C5*%
X133329750Y-75901250D02*
X133329750Y-75113750D01*
X133723500Y-75507500D02*
X132936000Y-75507500D01*
X132696000Y-71314437D02*
X131631563Y-70250000D01*
X132696000Y-76005563D02*
X131631563Y-77070000D01*
X132696000Y-76005563D02*
X132696000Y-74720000D01*
X132696000Y-71314437D02*
X132696000Y-72600000D01*
X131631563Y-70250000D02*
X125876000Y-70250000D01*
X131631563Y-77070000D02*
X125876000Y-77070000D01*
X125876000Y-77070000D02*
X125876000Y-74720000D01*
X125876000Y-70250000D02*
X125876000Y-72600000D01*
%TO.C,D5*%
X128615000Y-84638000D02*
X125755000Y-84638000D01*
X128615000Y-86558000D02*
X128615000Y-84638000D01*
X125755000Y-86558000D02*
X128615000Y-86558000D01*
%TO.C,C4*%
X138474750Y-59923750D02*
X139262250Y-59923750D01*
X138868500Y-60317500D02*
X138868500Y-59530000D01*
X143061563Y-59290000D02*
X144126000Y-58225563D01*
X138370437Y-59290000D02*
X137306000Y-58225563D01*
X138370437Y-59290000D02*
X139656000Y-59290000D01*
X143061563Y-59290000D02*
X141776000Y-59290000D01*
X144126000Y-58225563D02*
X144126000Y-52470000D01*
X137306000Y-58225563D02*
X137306000Y-52470000D01*
X137306000Y-52470000D02*
X139656000Y-52470000D01*
X144126000Y-52470000D02*
X141776000Y-52470000D01*
%TO.C,R17*%
X108231000Y-109008936D02*
X108231000Y-109463064D01*
X109701000Y-109008936D02*
X109701000Y-109463064D01*
%TO.C,Y2*%
X142218000Y-94356000D02*
X142218000Y-90556000D01*
X142218000Y-88256000D02*
X142218000Y-88856000D01*
X145818000Y-88256000D02*
X145818000Y-88856000D01*
X142218000Y-88256000D02*
X143518000Y-88256000D01*
X144518000Y-88256000D02*
X145818000Y-88256000D01*
X145818000Y-90556000D02*
X145818000Y-94356000D01*
X142218000Y-96656000D02*
X142218000Y-96056000D01*
X145818000Y-96656000D02*
X142218000Y-96656000D01*
X145818000Y-96056000D02*
X145818000Y-96656000D01*
X143518000Y-88256000D02*
G75*
G03*
X144518000Y-88256000I500000J0D01*
G01*
%TO.C,SW1*%
X156028000Y-92020000D02*
X156028000Y-98480000D01*
X160558000Y-92020000D02*
X157958000Y-92020000D01*
X162488000Y-92020000D02*
X162488000Y-98480000D01*
X160558000Y-98480000D02*
X157958000Y-98480000D01*
X162458000Y-92020000D02*
X162488000Y-92020000D01*
X156028000Y-92020000D02*
X156058000Y-92020000D01*
X156028000Y-98480000D02*
X156058000Y-98480000D01*
X162488000Y-98480000D02*
X162458000Y-98480000D01*
%TO.C,C30*%
X143778248Y-64235000D02*
X144300752Y-64235000D01*
X143778248Y-62765000D02*
X144300752Y-62765000D01*
%TO.C,R16*%
X110517000Y-108976936D02*
X110517000Y-109431064D01*
X111987000Y-108976936D02*
X111987000Y-109431064D01*
%TO.C,D1*%
X128597000Y-93782000D02*
X125737000Y-93782000D01*
X128597000Y-95702000D02*
X128597000Y-93782000D01*
X125737000Y-95702000D02*
X128597000Y-95702000D01*
%TO.C,C14*%
X110742000Y-121519733D02*
X110742000Y-121812267D01*
X111762000Y-121519733D02*
X111762000Y-121812267D01*
%TO.C,C8*%
X145794000Y-121519733D02*
X145794000Y-121812267D01*
X146814000Y-121519733D02*
X146814000Y-121812267D01*
%TO.C,C25*%
X157224000Y-70973733D02*
X157224000Y-71266267D01*
X158244000Y-70973733D02*
X158244000Y-71266267D01*
%TO.C,C7*%
X130854750Y-59923750D02*
X131642250Y-59923750D01*
X131248500Y-60317500D02*
X131248500Y-59530000D01*
X135441563Y-59290000D02*
X136506000Y-58225563D01*
X130750437Y-59290000D02*
X129686000Y-58225563D01*
X130750437Y-59290000D02*
X132036000Y-59290000D01*
X135441563Y-59290000D02*
X134156000Y-59290000D01*
X136506000Y-58225563D02*
X136506000Y-52470000D01*
X129686000Y-58225563D02*
X129686000Y-52470000D01*
X129686000Y-52470000D02*
X132036000Y-52470000D01*
X136506000Y-52470000D02*
X134156000Y-52470000D01*
%TO.C,C12*%
X183132000Y-121519733D02*
X183132000Y-121812267D01*
X184152000Y-121519733D02*
X184152000Y-121812267D01*
%TO.C,C6*%
X133329750Y-68281250D02*
X133329750Y-67493750D01*
X133723500Y-67887500D02*
X132936000Y-67887500D01*
X132696000Y-63694437D02*
X131631563Y-62630000D01*
X132696000Y-68385563D02*
X131631563Y-69450000D01*
X132696000Y-68385563D02*
X132696000Y-67100000D01*
X132696000Y-63694437D02*
X132696000Y-64980000D01*
X131631563Y-62630000D02*
X125876000Y-62630000D01*
X131631563Y-69450000D02*
X125876000Y-69450000D01*
X125876000Y-69450000D02*
X125876000Y-67100000D01*
X125876000Y-62630000D02*
X125876000Y-64980000D01*
%TO.C,J9*%
X164786000Y-78172000D02*
X166116000Y-78172000D01*
X164786000Y-79502000D02*
X164786000Y-78172000D01*
X164786000Y-80772000D02*
X167446000Y-80772000D01*
X167446000Y-80772000D02*
X167446000Y-88452000D01*
X164786000Y-80772000D02*
X164786000Y-88452000D01*
X164786000Y-88452000D02*
X167446000Y-88452000D01*
%TO.C,SW3*%
X157806000Y-57078000D02*
X164266000Y-57078000D01*
X157806000Y-52548000D02*
X157806000Y-55148000D01*
X157806000Y-50618000D02*
X164266000Y-50618000D01*
X164266000Y-52548000D02*
X164266000Y-55148000D01*
X157806000Y-50648000D02*
X157806000Y-50618000D01*
X157806000Y-57078000D02*
X157806000Y-57048000D01*
X164266000Y-57078000D02*
X164266000Y-57048000D01*
X164266000Y-50618000D02*
X164266000Y-50648000D01*
%TO.C,C23*%
X149105233Y-64264000D02*
X149397767Y-64264000D01*
X149105233Y-63244000D02*
X149397767Y-63244000D01*
%TO.C,D2*%
X128615000Y-91496000D02*
X125755000Y-91496000D01*
X128615000Y-93416000D02*
X128615000Y-91496000D01*
X125755000Y-93416000D02*
X128615000Y-93416000D01*
%TO.C,SW4*%
X157806000Y-65460000D02*
X164266000Y-65460000D01*
X157806000Y-60930000D02*
X157806000Y-63530000D01*
X157806000Y-59000000D02*
X164266000Y-59000000D01*
X164266000Y-60930000D02*
X164266000Y-63530000D01*
X157806000Y-59030000D02*
X157806000Y-59000000D01*
X157806000Y-65460000D02*
X157806000Y-65430000D01*
X164266000Y-65460000D02*
X164266000Y-65430000D01*
X164266000Y-59000000D02*
X164266000Y-59030000D01*
%TO.C,U6*%
X151414000Y-78074000D02*
X152754000Y-78074000D01*
X151414000Y-79024000D02*
X151414000Y-78074000D01*
X150464000Y-79024000D02*
X151414000Y-79024000D01*
X141194000Y-79024000D02*
X141194000Y-78074000D01*
X142144000Y-79024000D02*
X141194000Y-79024000D01*
X151414000Y-68804000D02*
X151414000Y-69754000D01*
X150464000Y-68804000D02*
X151414000Y-68804000D01*
X141194000Y-68804000D02*
X141194000Y-69754000D01*
X142144000Y-68804000D02*
X141194000Y-68804000D01*
%TO.C,J10*%
X163068000Y-43942000D02*
X163068000Y-42672000D01*
X164338000Y-43942000D02*
X163068000Y-43942000D01*
X172338000Y-41629071D02*
X172338000Y-41232000D01*
X171578000Y-41629071D02*
X171578000Y-41232000D01*
X172338000Y-32572000D02*
X172338000Y-38572000D01*
X171578000Y-32572000D02*
X172338000Y-32572000D01*
X171578000Y-38572000D02*
X171578000Y-32572000D01*
X170688000Y-41232000D02*
X170688000Y-38572000D01*
X169798000Y-41629071D02*
X169798000Y-41232000D01*
X169038000Y-41629071D02*
X169038000Y-41232000D01*
X169798000Y-32572000D02*
X169798000Y-38572000D01*
X169038000Y-32572000D02*
X169798000Y-32572000D01*
X169038000Y-38572000D02*
X169038000Y-32572000D01*
X168148000Y-41232000D02*
X168148000Y-38572000D01*
X167258000Y-41629071D02*
X167258000Y-41232000D01*
X166498000Y-41629071D02*
X166498000Y-41232000D01*
X167258000Y-32572000D02*
X167258000Y-38572000D01*
X166498000Y-32572000D02*
X167258000Y-32572000D01*
X166498000Y-38572000D02*
X166498000Y-32572000D01*
X165608000Y-41232000D02*
X165608000Y-38572000D01*
X164718000Y-41562000D02*
X164718000Y-41232000D01*
X163958000Y-41562000D02*
X163958000Y-41232000D01*
X164618000Y-38572000D02*
X164618000Y-32572000D01*
X164498000Y-38572000D02*
X164498000Y-32572000D01*
X164378000Y-38572000D02*
X164378000Y-32572000D01*
X164258000Y-38572000D02*
X164258000Y-32572000D01*
X164138000Y-38572000D02*
X164138000Y-32572000D01*
X164018000Y-38572000D02*
X164018000Y-32572000D01*
X164718000Y-32572000D02*
X164718000Y-38572000D01*
X163958000Y-32572000D02*
X164718000Y-32572000D01*
X163958000Y-38572000D02*
X163958000Y-32572000D01*
X163008000Y-38572000D02*
X163008000Y-41232000D01*
X173288000Y-38572000D02*
X163008000Y-38572000D01*
X173288000Y-41232000D02*
X173288000Y-38572000D01*
X163008000Y-41232000D02*
X173288000Y-41232000D01*
%TO.C,J2*%
X127046000Y-52130000D02*
X126446000Y-52130000D01*
X126746000Y-51530000D02*
X127046000Y-52130000D01*
X126446000Y-52130000D02*
X126746000Y-51530000D01*
X129306000Y-44730000D02*
X120686000Y-44730000D01*
X125696000Y-50840000D02*
X124296000Y-50840000D01*
X120686000Y-50840000D02*
X122196000Y-50840000D01*
X129306000Y-50840000D02*
X127796000Y-50840000D01*
X120686000Y-41420000D02*
X120686000Y-50840000D01*
X129306000Y-41420000D02*
X120686000Y-41420000D01*
X129306000Y-50840000D02*
X129306000Y-41420000D01*
%TO.C,J6*%
X171510000Y-71568000D02*
X168850000Y-71568000D01*
X171510000Y-89408000D02*
X171510000Y-71568000D01*
X168850000Y-89408000D02*
X168850000Y-71568000D01*
X171510000Y-89408000D02*
X168850000Y-89408000D01*
X171510000Y-90678000D02*
X171510000Y-92008000D01*
X171510000Y-92008000D02*
X170180000Y-92008000D01*
%TO.C,J5*%
X171510000Y-44644000D02*
X168850000Y-44644000D01*
X171510000Y-67564000D02*
X171510000Y-44644000D01*
X168850000Y-67564000D02*
X168850000Y-44644000D01*
X171510000Y-67564000D02*
X168850000Y-67564000D01*
X171510000Y-68834000D02*
X171510000Y-70164000D01*
X171510000Y-70164000D02*
X170180000Y-70164000D01*
%TO.C,J4*%
X120590000Y-92008000D02*
X123250000Y-92008000D01*
X120590000Y-79248000D02*
X120590000Y-92008000D01*
X123250000Y-79248000D02*
X123250000Y-92008000D01*
X120590000Y-79248000D02*
X123250000Y-79248000D01*
X120590000Y-77978000D02*
X120590000Y-76648000D01*
X120590000Y-76648000D02*
X121920000Y-76648000D01*
%TO.C,J3*%
X120590000Y-74228000D02*
X123250000Y-74228000D01*
X120590000Y-56388000D02*
X120590000Y-74228000D01*
X123250000Y-56388000D02*
X123250000Y-74228000D01*
X120590000Y-56388000D02*
X123250000Y-56388000D01*
X120590000Y-55118000D02*
X120590000Y-53788000D01*
X120590000Y-53788000D02*
X121920000Y-53788000D01*
%TO.C,U5*%
D14*
X107188095Y-111720380D02*
X107188095Y-112529904D01*
X107235714Y-112625142D01*
X107283333Y-112672761D01*
X107378571Y-112720380D01*
X107569047Y-112720380D01*
X107664285Y-112672761D01*
X107711904Y-112625142D01*
X107759523Y-112529904D01*
X107759523Y-111720380D01*
X108711904Y-111720380D02*
X108235714Y-111720380D01*
X108188095Y-112196571D01*
X108235714Y-112148952D01*
X108330952Y-112101333D01*
X108569047Y-112101333D01*
X108664285Y-112148952D01*
X108711904Y-112196571D01*
X108759523Y-112291809D01*
X108759523Y-112529904D01*
X108711904Y-112625142D01*
X108664285Y-112672761D01*
X108569047Y-112720380D01*
X108330952Y-112720380D01*
X108235714Y-112672761D01*
X108188095Y-112625142D01*
X107792190Y-118578380D02*
X108125523Y-119578380D01*
X108458857Y-118578380D01*
X109268380Y-119578380D02*
X108792190Y-119578380D01*
X108792190Y-118578380D01*
X110077904Y-118578380D02*
X109601714Y-118578380D01*
X109554095Y-119054571D01*
X109601714Y-119006952D01*
X109696952Y-118959333D01*
X109935047Y-118959333D01*
X110030285Y-119006952D01*
X110077904Y-119054571D01*
X110125523Y-119149809D01*
X110125523Y-119387904D01*
X110077904Y-119483142D01*
X110030285Y-119530761D01*
X109935047Y-119578380D01*
X109696952Y-119578380D01*
X109601714Y-119530761D01*
X109554095Y-119483142D01*
X110458857Y-118578380D02*
X111077904Y-118578380D01*
X110744571Y-118959333D01*
X110887428Y-118959333D01*
X110982666Y-119006952D01*
X111030285Y-119054571D01*
X111077904Y-119149809D01*
X111077904Y-119387904D01*
X111030285Y-119483142D01*
X110982666Y-119530761D01*
X110887428Y-119578380D01*
X110601714Y-119578380D01*
X110506476Y-119530761D01*
X110458857Y-119483142D01*
X111982666Y-119578380D02*
X111506476Y-119578380D01*
X111506476Y-118578380D01*
X112220761Y-118578380D02*
X112839809Y-118578380D01*
X112506476Y-118959333D01*
X112649333Y-118959333D01*
X112744571Y-119006952D01*
X112792190Y-119054571D01*
X112839809Y-119149809D01*
X112839809Y-119387904D01*
X112792190Y-119483142D01*
X112744571Y-119530761D01*
X112649333Y-119578380D01*
X112363619Y-119578380D01*
X112268380Y-119530761D01*
X112220761Y-119483142D01*
X113839809Y-119483142D02*
X113792190Y-119530761D01*
X113649333Y-119578380D01*
X113554095Y-119578380D01*
X113411238Y-119530761D01*
X113315999Y-119435523D01*
X113268380Y-119340285D01*
X113220761Y-119149809D01*
X113220761Y-119006952D01*
X113268380Y-118816476D01*
X113315999Y-118721238D01*
X113411238Y-118626000D01*
X113554095Y-118578380D01*
X113649333Y-118578380D01*
X113792190Y-118626000D01*
X113839809Y-118673619D01*
X114173142Y-118578380D02*
X114839809Y-119578380D01*
X114839809Y-118578380D02*
X114173142Y-119578380D01*
X115077904Y-118578380D02*
X115411238Y-119578380D01*
X115744571Y-118578380D01*
X116268380Y-118578380D02*
X116363619Y-118578380D01*
X116458857Y-118626000D01*
X116506476Y-118673619D01*
X116554095Y-118768857D01*
X116601714Y-118959333D01*
X116601714Y-119197428D01*
X116554095Y-119387904D01*
X116506476Y-119483142D01*
X116458857Y-119530761D01*
X116363619Y-119578380D01*
X116268380Y-119578380D01*
X116173142Y-119530761D01*
X116125523Y-119483142D01*
X116077904Y-119387904D01*
X116030285Y-119197428D01*
X116030285Y-118959333D01*
X116077904Y-118768857D01*
X116125523Y-118673619D01*
X116173142Y-118626000D01*
X116268380Y-118578380D01*
X117030285Y-119578380D02*
X117030285Y-118578380D01*
X117268380Y-118578380D01*
X117411238Y-118626000D01*
X117506476Y-118721238D01*
X117554095Y-118816476D01*
X117601714Y-119006952D01*
X117601714Y-119149809D01*
X117554095Y-119340285D01*
X117506476Y-119435523D01*
X117411238Y-119530761D01*
X117268380Y-119578380D01*
X117030285Y-119578380D01*
X118030285Y-119578380D02*
X118030285Y-118578380D01*
X118030285Y-119054571D02*
X118601714Y-119054571D01*
X118601714Y-119578380D02*
X118601714Y-118578380D01*
X118839809Y-119673619D02*
X119601714Y-119673619D01*
X120315999Y-119578380D02*
X119839809Y-119578380D01*
X119839809Y-118578380D01*
X120649333Y-119054571D02*
X120982666Y-119054571D01*
X121125523Y-119578380D02*
X120649333Y-119578380D01*
X120649333Y-118578380D01*
X121125523Y-118578380D01*
X121887428Y-119054571D02*
X121554095Y-119054571D01*
X121554095Y-119578380D02*
X121554095Y-118578380D01*
X122030285Y-118578380D01*
X122268380Y-118578380D02*
X122839809Y-118578380D01*
X122554095Y-119578380D02*
X122554095Y-118578380D01*
X109288380Y-118059200D02*
X109526476Y-118059200D01*
X109431238Y-118297295D02*
X109526476Y-118059200D01*
X109431238Y-117821104D01*
X109716952Y-118202057D02*
X109526476Y-118059200D01*
X109716952Y-117916342D01*
X109288380Y-118059200D02*
X109526476Y-118059200D01*
X109431238Y-118297295D02*
X109526476Y-118059200D01*
X109431238Y-117821104D01*
X109716952Y-118202057D02*
X109526476Y-118059200D01*
X109716952Y-117916342D01*
%TO.C,U4*%
X179578095Y-111720380D02*
X179578095Y-112529904D01*
X179625714Y-112625142D01*
X179673333Y-112672761D01*
X179768571Y-112720380D01*
X179959047Y-112720380D01*
X180054285Y-112672761D01*
X180101904Y-112625142D01*
X180149523Y-112529904D01*
X180149523Y-111720380D01*
X181054285Y-112053714D02*
X181054285Y-112720380D01*
X180816190Y-111672761D02*
X180578095Y-112387047D01*
X181197142Y-112387047D01*
X169800000Y-118578380D02*
X170133333Y-119578380D01*
X170466666Y-118578380D01*
X171276190Y-119578380D02*
X170800000Y-119578380D01*
X170800000Y-118578380D01*
X172085714Y-118578380D02*
X171609523Y-118578380D01*
X171561904Y-119054571D01*
X171609523Y-119006952D01*
X171704761Y-118959333D01*
X171942857Y-118959333D01*
X172038095Y-119006952D01*
X172085714Y-119054571D01*
X172133333Y-119149809D01*
X172133333Y-119387904D01*
X172085714Y-119483142D01*
X172038095Y-119530761D01*
X171942857Y-119578380D01*
X171704761Y-119578380D01*
X171609523Y-119530761D01*
X171561904Y-119483142D01*
X172466666Y-118578380D02*
X173085714Y-118578380D01*
X172752380Y-118959333D01*
X172895238Y-118959333D01*
X172990476Y-119006952D01*
X173038095Y-119054571D01*
X173085714Y-119149809D01*
X173085714Y-119387904D01*
X173038095Y-119483142D01*
X172990476Y-119530761D01*
X172895238Y-119578380D01*
X172609523Y-119578380D01*
X172514285Y-119530761D01*
X172466666Y-119483142D01*
X173990476Y-119578380D02*
X173514285Y-119578380D01*
X173514285Y-118578380D01*
X174228571Y-118578380D02*
X174847619Y-118578380D01*
X174514285Y-118959333D01*
X174657142Y-118959333D01*
X174752380Y-119006952D01*
X174800000Y-119054571D01*
X174847619Y-119149809D01*
X174847619Y-119387904D01*
X174800000Y-119483142D01*
X174752380Y-119530761D01*
X174657142Y-119578380D01*
X174371428Y-119578380D01*
X174276190Y-119530761D01*
X174228571Y-119483142D01*
X175847619Y-119483142D02*
X175800000Y-119530761D01*
X175657142Y-119578380D01*
X175561904Y-119578380D01*
X175419047Y-119530761D01*
X175323809Y-119435523D01*
X175276190Y-119340285D01*
X175228571Y-119149809D01*
X175228571Y-119006952D01*
X175276190Y-118816476D01*
X175323809Y-118721238D01*
X175419047Y-118626000D01*
X175561904Y-118578380D01*
X175657142Y-118578380D01*
X175800000Y-118626000D01*
X175847619Y-118673619D01*
X176180952Y-118578380D02*
X176847619Y-119578380D01*
X176847619Y-118578380D02*
X176180952Y-119578380D01*
X177085714Y-118578380D02*
X177419047Y-119578380D01*
X177752380Y-118578380D01*
X178276190Y-118578380D02*
X178371428Y-118578380D01*
X178466666Y-118626000D01*
X178514285Y-118673619D01*
X178561904Y-118768857D01*
X178609523Y-118959333D01*
X178609523Y-119197428D01*
X178561904Y-119387904D01*
X178514285Y-119483142D01*
X178466666Y-119530761D01*
X178371428Y-119578380D01*
X178276190Y-119578380D01*
X178180952Y-119530761D01*
X178133333Y-119483142D01*
X178085714Y-119387904D01*
X178038095Y-119197428D01*
X178038095Y-118959333D01*
X178085714Y-118768857D01*
X178133333Y-118673619D01*
X178180952Y-118626000D01*
X178276190Y-118578380D01*
X179038095Y-119578380D02*
X179038095Y-118578380D01*
X179276190Y-118578380D01*
X179419047Y-118626000D01*
X179514285Y-118721238D01*
X179561904Y-118816476D01*
X179609523Y-119006952D01*
X179609523Y-119149809D01*
X179561904Y-119340285D01*
X179514285Y-119435523D01*
X179419047Y-119530761D01*
X179276190Y-119578380D01*
X179038095Y-119578380D01*
X180038095Y-119578380D02*
X180038095Y-118578380D01*
X180038095Y-119054571D02*
X180609523Y-119054571D01*
X180609523Y-119578380D02*
X180609523Y-118578380D01*
X180847619Y-119673619D02*
X181609523Y-119673619D01*
X182419047Y-119578380D02*
X182085714Y-119102190D01*
X181847619Y-119578380D02*
X181847619Y-118578380D01*
X182228571Y-118578380D01*
X182323809Y-118626000D01*
X182371428Y-118673619D01*
X182419047Y-118768857D01*
X182419047Y-118911714D01*
X182371428Y-119006952D01*
X182323809Y-119054571D01*
X182228571Y-119102190D01*
X181847619Y-119102190D01*
X182847619Y-119578380D02*
X182847619Y-118578380D01*
X183847619Y-118626000D02*
X183752380Y-118578380D01*
X183609523Y-118578380D01*
X183466666Y-118626000D01*
X183371428Y-118721238D01*
X183323809Y-118816476D01*
X183276190Y-119006952D01*
X183276190Y-119149809D01*
X183323809Y-119340285D01*
X183371428Y-119435523D01*
X183466666Y-119530761D01*
X183609523Y-119578380D01*
X183704761Y-119578380D01*
X183847619Y-119530761D01*
X183895238Y-119483142D01*
X183895238Y-119149809D01*
X183704761Y-119149809D01*
X184323809Y-119578380D02*
X184323809Y-118578380D01*
X184323809Y-119054571D02*
X184895238Y-119054571D01*
X184895238Y-119578380D02*
X184895238Y-118578380D01*
X185228571Y-118578380D02*
X185800000Y-118578380D01*
X185514285Y-119578380D02*
X185514285Y-118578380D01*
X181678380Y-118059200D02*
X181916476Y-118059200D01*
X181821238Y-118297295D02*
X181916476Y-118059200D01*
X181821238Y-117821104D01*
X182106952Y-118202057D02*
X181916476Y-118059200D01*
X182106952Y-117916342D01*
X181678380Y-118059200D02*
X181916476Y-118059200D01*
X181821238Y-118297295D02*
X181916476Y-118059200D01*
X181821238Y-117821104D01*
X182106952Y-118202057D02*
X181916476Y-118059200D01*
X182106952Y-117916342D01*
%TO.C,U3*%
X144018095Y-111720380D02*
X144018095Y-112529904D01*
X144065714Y-112625142D01*
X144113333Y-112672761D01*
X144208571Y-112720380D01*
X144399047Y-112720380D01*
X144494285Y-112672761D01*
X144541904Y-112625142D01*
X144589523Y-112529904D01*
X144589523Y-111720380D01*
X144970476Y-111720380D02*
X145589523Y-111720380D01*
X145256190Y-112101333D01*
X145399047Y-112101333D01*
X145494285Y-112148952D01*
X145541904Y-112196571D01*
X145589523Y-112291809D01*
X145589523Y-112529904D01*
X145541904Y-112625142D01*
X145494285Y-112672761D01*
X145399047Y-112720380D01*
X145113333Y-112720380D01*
X145018095Y-112672761D01*
X144970476Y-112625142D01*
X138399333Y-118578380D02*
X138732666Y-119578380D01*
X139066000Y-118578380D01*
X139875523Y-119578380D02*
X139399333Y-119578380D01*
X139399333Y-118578380D01*
X140685047Y-118578380D02*
X140208857Y-118578380D01*
X140161238Y-119054571D01*
X140208857Y-119006952D01*
X140304095Y-118959333D01*
X140542190Y-118959333D01*
X140637428Y-119006952D01*
X140685047Y-119054571D01*
X140732666Y-119149809D01*
X140732666Y-119387904D01*
X140685047Y-119483142D01*
X140637428Y-119530761D01*
X140542190Y-119578380D01*
X140304095Y-119578380D01*
X140208857Y-119530761D01*
X140161238Y-119483142D01*
X141066000Y-118578380D02*
X141685047Y-118578380D01*
X141351714Y-118959333D01*
X141494571Y-118959333D01*
X141589809Y-119006952D01*
X141637428Y-119054571D01*
X141685047Y-119149809D01*
X141685047Y-119387904D01*
X141637428Y-119483142D01*
X141589809Y-119530761D01*
X141494571Y-119578380D01*
X141208857Y-119578380D01*
X141113619Y-119530761D01*
X141066000Y-119483142D01*
X142589809Y-119578380D02*
X142113619Y-119578380D01*
X142113619Y-118578380D01*
X142827904Y-118578380D02*
X143446952Y-118578380D01*
X143113619Y-118959333D01*
X143256476Y-118959333D01*
X143351714Y-119006952D01*
X143399333Y-119054571D01*
X143446952Y-119149809D01*
X143446952Y-119387904D01*
X143399333Y-119483142D01*
X143351714Y-119530761D01*
X143256476Y-119578380D01*
X142970761Y-119578380D01*
X142875523Y-119530761D01*
X142827904Y-119483142D01*
X144446952Y-119483142D02*
X144399333Y-119530761D01*
X144256476Y-119578380D01*
X144161238Y-119578380D01*
X144018380Y-119530761D01*
X143923142Y-119435523D01*
X143875523Y-119340285D01*
X143827904Y-119149809D01*
X143827904Y-119006952D01*
X143875523Y-118816476D01*
X143923142Y-118721238D01*
X144018380Y-118626000D01*
X144161238Y-118578380D01*
X144256476Y-118578380D01*
X144399333Y-118626000D01*
X144446952Y-118673619D01*
X144780285Y-118578380D02*
X145446952Y-119578380D01*
X145446952Y-118578380D02*
X144780285Y-119578380D01*
X145685047Y-118578380D02*
X146018380Y-119578380D01*
X146351714Y-118578380D01*
X146875523Y-118578380D02*
X146970761Y-118578380D01*
X147066000Y-118626000D01*
X147113619Y-118673619D01*
X147161238Y-118768857D01*
X147208857Y-118959333D01*
X147208857Y-119197428D01*
X147161238Y-119387904D01*
X147113619Y-119483142D01*
X147066000Y-119530761D01*
X146970761Y-119578380D01*
X146875523Y-119578380D01*
X146780285Y-119530761D01*
X146732666Y-119483142D01*
X146685047Y-119387904D01*
X146637428Y-119197428D01*
X146637428Y-118959333D01*
X146685047Y-118768857D01*
X146732666Y-118673619D01*
X146780285Y-118626000D01*
X146875523Y-118578380D01*
X147637428Y-119578380D02*
X147637428Y-118578380D01*
X147875523Y-118578380D01*
X148018380Y-118626000D01*
X148113619Y-118721238D01*
X148161238Y-118816476D01*
X148208857Y-119006952D01*
X148208857Y-119149809D01*
X148161238Y-119340285D01*
X148113619Y-119435523D01*
X148018380Y-119530761D01*
X147875523Y-119578380D01*
X147637428Y-119578380D01*
X148637428Y-119578380D02*
X148637428Y-118578380D01*
X148637428Y-119054571D02*
X149208857Y-119054571D01*
X149208857Y-119578380D02*
X149208857Y-118578380D01*
X149446952Y-119673619D02*
X150208857Y-119673619D01*
X151018380Y-119483142D02*
X150970761Y-119530761D01*
X150827904Y-119578380D01*
X150732666Y-119578380D01*
X150589809Y-119530761D01*
X150494571Y-119435523D01*
X150446952Y-119340285D01*
X150399333Y-119149809D01*
X150399333Y-119006952D01*
X150446952Y-118816476D01*
X150494571Y-118721238D01*
X150589809Y-118626000D01*
X150732666Y-118578380D01*
X150827904Y-118578380D01*
X150970761Y-118626000D01*
X151018380Y-118673619D01*
X151446952Y-119054571D02*
X151780285Y-119054571D01*
X151923142Y-119578380D02*
X151446952Y-119578380D01*
X151446952Y-118578380D01*
X151923142Y-118578380D01*
X152351714Y-119578380D02*
X152351714Y-118578380D01*
X152923142Y-119578380D01*
X152923142Y-118578380D01*
X153256476Y-118578380D02*
X153827904Y-118578380D01*
X153542190Y-119578380D02*
X153542190Y-118578380D01*
X154161238Y-119054571D02*
X154494571Y-119054571D01*
X154637428Y-119578380D02*
X154161238Y-119578380D01*
X154161238Y-118578380D01*
X154637428Y-118578380D01*
X155637428Y-119578380D02*
X155304095Y-119102190D01*
X155065999Y-119578380D02*
X155065999Y-118578380D01*
X155446952Y-118578380D01*
X155542190Y-118626000D01*
X155589809Y-118673619D01*
X155637428Y-118768857D01*
X155637428Y-118911714D01*
X155589809Y-119006952D01*
X155542190Y-119054571D01*
X155446952Y-119102190D01*
X155065999Y-119102190D01*
X146118380Y-118059200D02*
X146356476Y-118059200D01*
X146261238Y-118297295D02*
X146356476Y-118059200D01*
X146261238Y-117821104D01*
X146546952Y-118202057D02*
X146356476Y-118059200D01*
X146546952Y-117916342D01*
X146118380Y-118059200D02*
X146356476Y-118059200D01*
X146261238Y-118297295D02*
X146356476Y-118059200D01*
X146261238Y-117821104D01*
X146546952Y-118202057D02*
X146356476Y-118059200D01*
X146546952Y-117916342D01*
%TO.C,U7*%
X147320095Y-80732380D02*
X147320095Y-81541904D01*
X147367714Y-81637142D01*
X147415333Y-81684761D01*
X147510571Y-81732380D01*
X147701047Y-81732380D01*
X147796285Y-81684761D01*
X147843904Y-81637142D01*
X147891523Y-81541904D01*
X147891523Y-80732380D01*
X148272476Y-80732380D02*
X148939142Y-80732380D01*
X148510571Y-81732380D01*
%TO.C,C28*%
X139819142Y-61825142D02*
X139771523Y-61872761D01*
X139628666Y-61920380D01*
X139533428Y-61920380D01*
X139390571Y-61872761D01*
X139295333Y-61777523D01*
X139247714Y-61682285D01*
X139200095Y-61491809D01*
X139200095Y-61348952D01*
X139247714Y-61158476D01*
X139295333Y-61063238D01*
X139390571Y-60968000D01*
X139533428Y-60920380D01*
X139628666Y-60920380D01*
X139771523Y-60968000D01*
X139819142Y-61015619D01*
X140200095Y-61015619D02*
X140247714Y-60968000D01*
X140342952Y-60920380D01*
X140581047Y-60920380D01*
X140676285Y-60968000D01*
X140723904Y-61015619D01*
X140771523Y-61110857D01*
X140771523Y-61206095D01*
X140723904Y-61348952D01*
X140152476Y-61920380D01*
X140771523Y-61920380D01*
X141342952Y-61348952D02*
X141247714Y-61301333D01*
X141200095Y-61253714D01*
X141152476Y-61158476D01*
X141152476Y-61110857D01*
X141200095Y-61015619D01*
X141247714Y-60968000D01*
X141342952Y-60920380D01*
X141533428Y-60920380D01*
X141628666Y-60968000D01*
X141676285Y-61015619D01*
X141723904Y-61110857D01*
X141723904Y-61158476D01*
X141676285Y-61253714D01*
X141628666Y-61301333D01*
X141533428Y-61348952D01*
X141342952Y-61348952D01*
X141247714Y-61396571D01*
X141200095Y-61444190D01*
X141152476Y-61539428D01*
X141152476Y-61729904D01*
X141200095Y-61825142D01*
X141247714Y-61872761D01*
X141342952Y-61920380D01*
X141533428Y-61920380D01*
X141628666Y-61872761D01*
X141676285Y-61825142D01*
X141723904Y-61729904D01*
X141723904Y-61539428D01*
X141676285Y-61444190D01*
X141628666Y-61396571D01*
X141533428Y-61348952D01*
%TO.C,C32*%
X145661142Y-84939142D02*
X145613523Y-84986761D01*
X145470666Y-85034380D01*
X145375428Y-85034380D01*
X145232571Y-84986761D01*
X145137333Y-84891523D01*
X145089714Y-84796285D01*
X145042095Y-84605809D01*
X145042095Y-84462952D01*
X145089714Y-84272476D01*
X145137333Y-84177238D01*
X145232571Y-84082000D01*
X145375428Y-84034380D01*
X145470666Y-84034380D01*
X145613523Y-84082000D01*
X145661142Y-84129619D01*
X145994476Y-84034380D02*
X146613523Y-84034380D01*
X146280190Y-84415333D01*
X146423047Y-84415333D01*
X146518285Y-84462952D01*
X146565904Y-84510571D01*
X146613523Y-84605809D01*
X146613523Y-84843904D01*
X146565904Y-84939142D01*
X146518285Y-84986761D01*
X146423047Y-85034380D01*
X146137333Y-85034380D01*
X146042095Y-84986761D01*
X145994476Y-84939142D01*
X146994476Y-84129619D02*
X147042095Y-84082000D01*
X147137333Y-84034380D01*
X147375428Y-84034380D01*
X147470666Y-84082000D01*
X147518285Y-84129619D01*
X147565904Y-84224857D01*
X147565904Y-84320095D01*
X147518285Y-84462952D01*
X146946857Y-85034380D01*
X147565904Y-85034380D01*
%TO.C,J7*%
X99798380Y-94754333D02*
X100512666Y-94754333D01*
X100655523Y-94801952D01*
X100750761Y-94897190D01*
X100798380Y-95040047D01*
X100798380Y-95135285D01*
X99798380Y-94373380D02*
X99798380Y-93706714D01*
X100798380Y-94135285D01*
%TO.C,C27*%
X156313142Y-80652857D02*
X156360761Y-80700476D01*
X156408380Y-80843333D01*
X156408380Y-80938571D01*
X156360761Y-81081428D01*
X156265523Y-81176666D01*
X156170285Y-81224285D01*
X155979809Y-81271904D01*
X155836952Y-81271904D01*
X155646476Y-81224285D01*
X155551238Y-81176666D01*
X155456000Y-81081428D01*
X155408380Y-80938571D01*
X155408380Y-80843333D01*
X155456000Y-80700476D01*
X155503619Y-80652857D01*
X155503619Y-80271904D02*
X155456000Y-80224285D01*
X155408380Y-80129047D01*
X155408380Y-79890952D01*
X155456000Y-79795714D01*
X155503619Y-79748095D01*
X155598857Y-79700476D01*
X155694095Y-79700476D01*
X155836952Y-79748095D01*
X156408380Y-80319523D01*
X156408380Y-79700476D01*
X155408380Y-79367142D02*
X155408380Y-78700476D01*
X156408380Y-79129047D01*
%TO.C,C24*%
X156313142Y-68460857D02*
X156360761Y-68508476D01*
X156408380Y-68651333D01*
X156408380Y-68746571D01*
X156360761Y-68889428D01*
X156265523Y-68984666D01*
X156170285Y-69032285D01*
X155979809Y-69079904D01*
X155836952Y-69079904D01*
X155646476Y-69032285D01*
X155551238Y-68984666D01*
X155456000Y-68889428D01*
X155408380Y-68746571D01*
X155408380Y-68651333D01*
X155456000Y-68508476D01*
X155503619Y-68460857D01*
X155503619Y-68079904D02*
X155456000Y-68032285D01*
X155408380Y-67937047D01*
X155408380Y-67698952D01*
X155456000Y-67603714D01*
X155503619Y-67556095D01*
X155598857Y-67508476D01*
X155694095Y-67508476D01*
X155836952Y-67556095D01*
X156408380Y-68127523D01*
X156408380Y-67508476D01*
X155741714Y-66651333D02*
X156408380Y-66651333D01*
X155360761Y-66889428D02*
X156075047Y-67127523D01*
X156075047Y-66508476D01*
%TO.C,Y1*%
X146540190Y-94202190D02*
X147016380Y-94202190D01*
X146016380Y-94535523D02*
X146540190Y-94202190D01*
X146016380Y-93868857D01*
X147016380Y-93011714D02*
X147016380Y-93583142D01*
X147016380Y-93297428D02*
X146016380Y-93297428D01*
X146159238Y-93392666D01*
X146254476Y-93487904D01*
X146302095Y-93583142D01*
%TO.C,H3*%
X162814095Y-116902380D02*
X162814095Y-115902380D01*
X162814095Y-116378571D02*
X163385523Y-116378571D01*
X163385523Y-116902380D02*
X163385523Y-115902380D01*
X163766476Y-115902380D02*
X164385523Y-115902380D01*
X164052190Y-116283333D01*
X164195047Y-116283333D01*
X164290285Y-116330952D01*
X164337904Y-116378571D01*
X164385523Y-116473809D01*
X164385523Y-116711904D01*
X164337904Y-116807142D01*
X164290285Y-116854761D01*
X164195047Y-116902380D01*
X163909333Y-116902380D01*
X163814095Y-116854761D01*
X163766476Y-116807142D01*
%TO.C,C13*%
X175871142Y-122054857D02*
X175918761Y-122102476D01*
X175966380Y-122245333D01*
X175966380Y-122340571D01*
X175918761Y-122483428D01*
X175823523Y-122578666D01*
X175728285Y-122626285D01*
X175537809Y-122673904D01*
X175394952Y-122673904D01*
X175204476Y-122626285D01*
X175109238Y-122578666D01*
X175014000Y-122483428D01*
X174966380Y-122340571D01*
X174966380Y-122245333D01*
X175014000Y-122102476D01*
X175061619Y-122054857D01*
X175966380Y-121102476D02*
X175966380Y-121673904D01*
X175966380Y-121388190D02*
X174966380Y-121388190D01*
X175109238Y-121483428D01*
X175204476Y-121578666D01*
X175252095Y-121673904D01*
X174966380Y-120769142D02*
X174966380Y-120150095D01*
X175347333Y-120483428D01*
X175347333Y-120340571D01*
X175394952Y-120245333D01*
X175442571Y-120197714D01*
X175537809Y-120150095D01*
X175775904Y-120150095D01*
X175871142Y-120197714D01*
X175918761Y-120245333D01*
X175966380Y-120340571D01*
X175966380Y-120626285D01*
X175918761Y-120721523D01*
X175871142Y-120769142D01*
%TO.C,C11*%
X177141142Y-122054857D02*
X177188761Y-122102476D01*
X177236380Y-122245333D01*
X177236380Y-122340571D01*
X177188761Y-122483428D01*
X177093523Y-122578666D01*
X176998285Y-122626285D01*
X176807809Y-122673904D01*
X176664952Y-122673904D01*
X176474476Y-122626285D01*
X176379238Y-122578666D01*
X176284000Y-122483428D01*
X176236380Y-122340571D01*
X176236380Y-122245333D01*
X176284000Y-122102476D01*
X176331619Y-122054857D01*
X177236380Y-121102476D02*
X177236380Y-121673904D01*
X177236380Y-121388190D02*
X176236380Y-121388190D01*
X176379238Y-121483428D01*
X176474476Y-121578666D01*
X176522095Y-121673904D01*
X177236380Y-120150095D02*
X177236380Y-120721523D01*
X177236380Y-120435809D02*
X176236380Y-120435809D01*
X176379238Y-120531047D01*
X176474476Y-120626285D01*
X176522095Y-120721523D01*
%TO.C,SW2*%
X138312761Y-96583333D02*
X138360380Y-96440476D01*
X138360380Y-96202380D01*
X138312761Y-96107142D01*
X138265142Y-96059523D01*
X138169904Y-96011904D01*
X138074666Y-96011904D01*
X137979428Y-96059523D01*
X137931809Y-96107142D01*
X137884190Y-96202380D01*
X137836571Y-96392857D01*
X137788952Y-96488095D01*
X137741333Y-96535714D01*
X137646095Y-96583333D01*
X137550857Y-96583333D01*
X137455619Y-96535714D01*
X137408000Y-96488095D01*
X137360380Y-96392857D01*
X137360380Y-96154761D01*
X137408000Y-96011904D01*
X137360380Y-95678571D02*
X138360380Y-95440476D01*
X137646095Y-95250000D01*
X138360380Y-95059523D01*
X137360380Y-94821428D01*
X137455619Y-94488095D02*
X137408000Y-94440476D01*
X137360380Y-94345238D01*
X137360380Y-94107142D01*
X137408000Y-94011904D01*
X137455619Y-93964285D01*
X137550857Y-93916666D01*
X137646095Y-93916666D01*
X137788952Y-93964285D01*
X138360380Y-94535714D01*
X138360380Y-93916666D01*
%TO.C,R15*%
X181808380Y-106306857D02*
X181332190Y-106640190D01*
X181808380Y-106878285D02*
X180808380Y-106878285D01*
X180808380Y-106497333D01*
X180856000Y-106402095D01*
X180903619Y-106354476D01*
X180998857Y-106306857D01*
X181141714Y-106306857D01*
X181236952Y-106354476D01*
X181284571Y-106402095D01*
X181332190Y-106497333D01*
X181332190Y-106878285D01*
X181808380Y-105354476D02*
X181808380Y-105925904D01*
X181808380Y-105640190D02*
X180808380Y-105640190D01*
X180951238Y-105735428D01*
X181046476Y-105830666D01*
X181094095Y-105925904D01*
X180808380Y-104449714D02*
X180808380Y-104925904D01*
X181284571Y-104973523D01*
X181236952Y-104925904D01*
X181189333Y-104830666D01*
X181189333Y-104592571D01*
X181236952Y-104497333D01*
X181284571Y-104449714D01*
X181379809Y-104402095D01*
X181617904Y-104402095D01*
X181713142Y-104449714D01*
X181760761Y-104497333D01*
X181808380Y-104592571D01*
X181808380Y-104830666D01*
X181760761Y-104925904D01*
X181713142Y-104973523D01*
%TO.C,C9*%
X153519142Y-121832666D02*
X153566761Y-121880285D01*
X153614380Y-122023142D01*
X153614380Y-122118380D01*
X153566761Y-122261238D01*
X153471523Y-122356476D01*
X153376285Y-122404095D01*
X153185809Y-122451714D01*
X153042952Y-122451714D01*
X152852476Y-122404095D01*
X152757238Y-122356476D01*
X152662000Y-122261238D01*
X152614380Y-122118380D01*
X152614380Y-122023142D01*
X152662000Y-121880285D01*
X152709619Y-121832666D01*
X153614380Y-121356476D02*
X153614380Y-121166000D01*
X153566761Y-121070761D01*
X153519142Y-121023142D01*
X153376285Y-120927904D01*
X153185809Y-120880285D01*
X152804857Y-120880285D01*
X152709619Y-120927904D01*
X152662000Y-120975523D01*
X152614380Y-121070761D01*
X152614380Y-121261238D01*
X152662000Y-121356476D01*
X152709619Y-121404095D01*
X152804857Y-121451714D01*
X153042952Y-121451714D01*
X153138190Y-121404095D01*
X153185809Y-121356476D01*
X153233428Y-121261238D01*
X153233428Y-121070761D01*
X153185809Y-120975523D01*
X153138190Y-120927904D01*
X153042952Y-120880285D01*
%TO.C,D4*%
X129563904Y-85542380D02*
X129563904Y-84542380D01*
X129802000Y-84542380D01*
X129944857Y-84590000D01*
X130040095Y-84685238D01*
X130087714Y-84780476D01*
X130135333Y-84970952D01*
X130135333Y-85113809D01*
X130087714Y-85304285D01*
X130040095Y-85399523D01*
X129944857Y-85494761D01*
X129802000Y-85542380D01*
X129563904Y-85542380D01*
X130992476Y-84875714D02*
X130992476Y-85542380D01*
X130754380Y-84494761D02*
X130516285Y-85209047D01*
X131135333Y-85209047D01*
%TO.C,C15*%
X115419142Y-122054857D02*
X115466761Y-122102476D01*
X115514380Y-122245333D01*
X115514380Y-122340571D01*
X115466761Y-122483428D01*
X115371523Y-122578666D01*
X115276285Y-122626285D01*
X115085809Y-122673904D01*
X114942952Y-122673904D01*
X114752476Y-122626285D01*
X114657238Y-122578666D01*
X114562000Y-122483428D01*
X114514380Y-122340571D01*
X114514380Y-122245333D01*
X114562000Y-122102476D01*
X114609619Y-122054857D01*
X115514380Y-121102476D02*
X115514380Y-121673904D01*
X115514380Y-121388190D02*
X114514380Y-121388190D01*
X114657238Y-121483428D01*
X114752476Y-121578666D01*
X114800095Y-121673904D01*
X114514380Y-120197714D02*
X114514380Y-120673904D01*
X114990571Y-120721523D01*
X114942952Y-120673904D01*
X114895333Y-120578666D01*
X114895333Y-120340571D01*
X114942952Y-120245333D01*
X114990571Y-120197714D01*
X115085809Y-120150095D01*
X115323904Y-120150095D01*
X115419142Y-120197714D01*
X115466761Y-120245333D01*
X115514380Y-120340571D01*
X115514380Y-120578666D01*
X115466761Y-120673904D01*
X115419142Y-120721523D01*
%TO.C,J1*%
X165782666Y-64940380D02*
X165782666Y-65654666D01*
X165735047Y-65797523D01*
X165639809Y-65892761D01*
X165496952Y-65940380D01*
X165401714Y-65940380D01*
X166782666Y-65940380D02*
X166211238Y-65940380D01*
X166496952Y-65940380D02*
X166496952Y-64940380D01*
X166401714Y-65083238D01*
X166306476Y-65178476D01*
X166211238Y-65226095D01*
%TO.C,D3*%
X129563904Y-86812380D02*
X129563904Y-85812380D01*
X129802000Y-85812380D01*
X129944857Y-85860000D01*
X130040095Y-85955238D01*
X130087714Y-86050476D01*
X130135333Y-86240952D01*
X130135333Y-86383809D01*
X130087714Y-86574285D01*
X130040095Y-86669523D01*
X129944857Y-86764761D01*
X129802000Y-86812380D01*
X129563904Y-86812380D01*
X130468666Y-85812380D02*
X131087714Y-85812380D01*
X130754380Y-86193333D01*
X130897238Y-86193333D01*
X130992476Y-86240952D01*
X131040095Y-86288571D01*
X131087714Y-86383809D01*
X131087714Y-86621904D01*
X131040095Y-86717142D01*
X130992476Y-86764761D01*
X130897238Y-86812380D01*
X130611523Y-86812380D01*
X130516285Y-86764761D01*
X130468666Y-86717142D01*
%TO.C,D7*%
X129698380Y-57888095D02*
X128698380Y-57888095D01*
X128698380Y-57650000D01*
X128746000Y-57507142D01*
X128841238Y-57411904D01*
X128936476Y-57364285D01*
X129126952Y-57316666D01*
X129269809Y-57316666D01*
X129460285Y-57364285D01*
X129555523Y-57411904D01*
X129650761Y-57507142D01*
X129698380Y-57650000D01*
X129698380Y-57888095D01*
X128698380Y-56983333D02*
X128698380Y-56316666D01*
X129698380Y-56745238D01*
%TO.C,C3*%
X144343142Y-56046666D02*
X144390761Y-56094285D01*
X144438380Y-56237142D01*
X144438380Y-56332380D01*
X144390761Y-56475238D01*
X144295523Y-56570476D01*
X144200285Y-56618095D01*
X144009809Y-56665714D01*
X143866952Y-56665714D01*
X143676476Y-56618095D01*
X143581238Y-56570476D01*
X143486000Y-56475238D01*
X143438380Y-56332380D01*
X143438380Y-56237142D01*
X143486000Y-56094285D01*
X143533619Y-56046666D01*
X143438380Y-55713333D02*
X143438380Y-55094285D01*
X143819333Y-55427619D01*
X143819333Y-55284761D01*
X143866952Y-55189523D01*
X143914571Y-55141904D01*
X144009809Y-55094285D01*
X144247904Y-55094285D01*
X144343142Y-55141904D01*
X144390761Y-55189523D01*
X144438380Y-55284761D01*
X144438380Y-55570476D01*
X144390761Y-55665714D01*
X144343142Y-55713333D01*
%TO.C,R11*%
X164028380Y-46870857D02*
X163552190Y-47204190D01*
X164028380Y-47442285D02*
X163028380Y-47442285D01*
X163028380Y-47061333D01*
X163076000Y-46966095D01*
X163123619Y-46918476D01*
X163218857Y-46870857D01*
X163361714Y-46870857D01*
X163456952Y-46918476D01*
X163504571Y-46966095D01*
X163552190Y-47061333D01*
X163552190Y-47442285D01*
X164028380Y-45918476D02*
X164028380Y-46489904D01*
X164028380Y-46204190D02*
X163028380Y-46204190D01*
X163171238Y-46299428D01*
X163266476Y-46394666D01*
X163314095Y-46489904D01*
X164028380Y-44966095D02*
X164028380Y-45537523D01*
X164028380Y-45251809D02*
X163028380Y-45251809D01*
X163171238Y-45347047D01*
X163266476Y-45442285D01*
X163314095Y-45537523D01*
%TO.C,C10*%
X154789142Y-121800857D02*
X154836761Y-121848476D01*
X154884380Y-121991333D01*
X154884380Y-122086571D01*
X154836761Y-122229428D01*
X154741523Y-122324666D01*
X154646285Y-122372285D01*
X154455809Y-122419904D01*
X154312952Y-122419904D01*
X154122476Y-122372285D01*
X154027238Y-122324666D01*
X153932000Y-122229428D01*
X153884380Y-122086571D01*
X153884380Y-121991333D01*
X153932000Y-121848476D01*
X153979619Y-121800857D01*
X154884380Y-120848476D02*
X154884380Y-121419904D01*
X154884380Y-121134190D02*
X153884380Y-121134190D01*
X154027238Y-121229428D01*
X154122476Y-121324666D01*
X154170095Y-121419904D01*
X153884380Y-120229428D02*
X153884380Y-120134190D01*
X153932000Y-120038952D01*
X153979619Y-119991333D01*
X154074857Y-119943714D01*
X154265333Y-119896095D01*
X154503428Y-119896095D01*
X154693904Y-119943714D01*
X154789142Y-119991333D01*
X154836761Y-120038952D01*
X154884380Y-120134190D01*
X154884380Y-120229428D01*
X154836761Y-120324666D01*
X154789142Y-120372285D01*
X154693904Y-120419904D01*
X154503428Y-120467523D01*
X154265333Y-120467523D01*
X154074857Y-120419904D01*
X153979619Y-120372285D01*
X153932000Y-120324666D01*
X153884380Y-120229428D01*
%TO.C,C16*%
X117959142Y-122054857D02*
X118006761Y-122102476D01*
X118054380Y-122245333D01*
X118054380Y-122340571D01*
X118006761Y-122483428D01*
X117911523Y-122578666D01*
X117816285Y-122626285D01*
X117625809Y-122673904D01*
X117482952Y-122673904D01*
X117292476Y-122626285D01*
X117197238Y-122578666D01*
X117102000Y-122483428D01*
X117054380Y-122340571D01*
X117054380Y-122245333D01*
X117102000Y-122102476D01*
X117149619Y-122054857D01*
X118054380Y-121102476D02*
X118054380Y-121673904D01*
X118054380Y-121388190D02*
X117054380Y-121388190D01*
X117197238Y-121483428D01*
X117292476Y-121578666D01*
X117340095Y-121673904D01*
X117054380Y-120245333D02*
X117054380Y-120435809D01*
X117102000Y-120531047D01*
X117149619Y-120578666D01*
X117292476Y-120673904D01*
X117482952Y-120721523D01*
X117863904Y-120721523D01*
X117959142Y-120673904D01*
X118006761Y-120626285D01*
X118054380Y-120531047D01*
X118054380Y-120340571D01*
X118006761Y-120245333D01*
X117959142Y-120197714D01*
X117863904Y-120150095D01*
X117625809Y-120150095D01*
X117530571Y-120197714D01*
X117482952Y-120245333D01*
X117435333Y-120340571D01*
X117435333Y-120531047D01*
X117482952Y-120626285D01*
X117530571Y-120673904D01*
X117625809Y-120721523D01*
%TO.C,C31*%
X145661142Y-82907142D02*
X145613523Y-82954761D01*
X145470666Y-83002380D01*
X145375428Y-83002380D01*
X145232571Y-82954761D01*
X145137333Y-82859523D01*
X145089714Y-82764285D01*
X145042095Y-82573809D01*
X145042095Y-82430952D01*
X145089714Y-82240476D01*
X145137333Y-82145238D01*
X145232571Y-82050000D01*
X145375428Y-82002380D01*
X145470666Y-82002380D01*
X145613523Y-82050000D01*
X145661142Y-82097619D01*
X145994476Y-82002380D02*
X146613523Y-82002380D01*
X146280190Y-82383333D01*
X146423047Y-82383333D01*
X146518285Y-82430952D01*
X146565904Y-82478571D01*
X146613523Y-82573809D01*
X146613523Y-82811904D01*
X146565904Y-82907142D01*
X146518285Y-82954761D01*
X146423047Y-83002380D01*
X146137333Y-83002380D01*
X146042095Y-82954761D01*
X145994476Y-82907142D01*
X147565904Y-83002380D02*
X146994476Y-83002380D01*
X147280190Y-83002380D02*
X147280190Y-82002380D01*
X147184952Y-82145238D01*
X147089714Y-82240476D01*
X146994476Y-82288095D01*
%TO.C,J8*%
X177268380Y-94754333D02*
X177982666Y-94754333D01*
X178125523Y-94801952D01*
X178220761Y-94897190D01*
X178268380Y-95040047D01*
X178268380Y-95135285D01*
X177696952Y-94135285D02*
X177649333Y-94230523D01*
X177601714Y-94278142D01*
X177506476Y-94325761D01*
X177458857Y-94325761D01*
X177363619Y-94278142D01*
X177316000Y-94230523D01*
X177268380Y-94135285D01*
X177268380Y-93944809D01*
X177316000Y-93849571D01*
X177363619Y-93801952D01*
X177458857Y-93754333D01*
X177506476Y-93754333D01*
X177601714Y-93801952D01*
X177649333Y-93849571D01*
X177696952Y-93944809D01*
X177696952Y-94135285D01*
X177744571Y-94230523D01*
X177792190Y-94278142D01*
X177887428Y-94325761D01*
X178077904Y-94325761D01*
X178173142Y-94278142D01*
X178220761Y-94230523D01*
X178268380Y-94135285D01*
X178268380Y-93944809D01*
X178220761Y-93849571D01*
X178173142Y-93801952D01*
X178077904Y-93754333D01*
X177887428Y-93754333D01*
X177792190Y-93801952D01*
X177744571Y-93849571D01*
X177696952Y-93944809D01*
%TO.C,C29*%
X136755142Y-81668857D02*
X136802761Y-81716476D01*
X136850380Y-81859333D01*
X136850380Y-81954571D01*
X136802761Y-82097428D01*
X136707523Y-82192666D01*
X136612285Y-82240285D01*
X136421809Y-82287904D01*
X136278952Y-82287904D01*
X136088476Y-82240285D01*
X135993238Y-82192666D01*
X135898000Y-82097428D01*
X135850380Y-81954571D01*
X135850380Y-81859333D01*
X135898000Y-81716476D01*
X135945619Y-81668857D01*
X135945619Y-81287904D02*
X135898000Y-81240285D01*
X135850380Y-81145047D01*
X135850380Y-80906952D01*
X135898000Y-80811714D01*
X135945619Y-80764095D01*
X136040857Y-80716476D01*
X136136095Y-80716476D01*
X136278952Y-80764095D01*
X136850380Y-81335523D01*
X136850380Y-80716476D01*
X136850380Y-80240285D02*
X136850380Y-80049809D01*
X136802761Y-79954571D01*
X136755142Y-79906952D01*
X136612285Y-79811714D01*
X136421809Y-79764095D01*
X136040857Y-79764095D01*
X135945619Y-79811714D01*
X135898000Y-79859333D01*
X135850380Y-79954571D01*
X135850380Y-80145047D01*
X135898000Y-80240285D01*
X135945619Y-80287904D01*
X136040857Y-80335523D01*
X136278952Y-80335523D01*
X136374190Y-80287904D01*
X136421809Y-80240285D01*
X136469428Y-80145047D01*
X136469428Y-79954571D01*
X136421809Y-79859333D01*
X136374190Y-79811714D01*
X136278952Y-79764095D01*
%TO.C,R12*%
X148534380Y-106306857D02*
X148058190Y-106640190D01*
X148534380Y-106878285D02*
X147534380Y-106878285D01*
X147534380Y-106497333D01*
X147582000Y-106402095D01*
X147629619Y-106354476D01*
X147724857Y-106306857D01*
X147867714Y-106306857D01*
X147962952Y-106354476D01*
X148010571Y-106402095D01*
X148058190Y-106497333D01*
X148058190Y-106878285D01*
X148534380Y-105354476D02*
X148534380Y-105925904D01*
X148534380Y-105640190D02*
X147534380Y-105640190D01*
X147677238Y-105735428D01*
X147772476Y-105830666D01*
X147820095Y-105925904D01*
X147629619Y-104973523D02*
X147582000Y-104925904D01*
X147534380Y-104830666D01*
X147534380Y-104592571D01*
X147582000Y-104497333D01*
X147629619Y-104449714D01*
X147724857Y-104402095D01*
X147820095Y-104402095D01*
X147962952Y-104449714D01*
X148534380Y-105021142D01*
X148534380Y-104402095D01*
%TO.C,R10*%
X164028380Y-49664857D02*
X163552190Y-49998190D01*
X164028380Y-50236285D02*
X163028380Y-50236285D01*
X163028380Y-49855333D01*
X163076000Y-49760095D01*
X163123619Y-49712476D01*
X163218857Y-49664857D01*
X163361714Y-49664857D01*
X163456952Y-49712476D01*
X163504571Y-49760095D01*
X163552190Y-49855333D01*
X163552190Y-50236285D01*
X164028380Y-48712476D02*
X164028380Y-49283904D01*
X164028380Y-48998190D02*
X163028380Y-48998190D01*
X163171238Y-49093428D01*
X163266476Y-49188666D01*
X163314095Y-49283904D01*
X163028380Y-48093428D02*
X163028380Y-47998190D01*
X163076000Y-47902952D01*
X163123619Y-47855333D01*
X163218857Y-47807714D01*
X163409333Y-47760095D01*
X163647428Y-47760095D01*
X163837904Y-47807714D01*
X163933142Y-47855333D01*
X163980761Y-47902952D01*
X164028380Y-47998190D01*
X164028380Y-48093428D01*
X163980761Y-48188666D01*
X163933142Y-48236285D01*
X163837904Y-48283904D01*
X163647428Y-48331523D01*
X163409333Y-48331523D01*
X163218857Y-48283904D01*
X163123619Y-48236285D01*
X163076000Y-48188666D01*
X163028380Y-48093428D01*
%TO.C,R14*%
X184094380Y-106306857D02*
X183618190Y-106640190D01*
X184094380Y-106878285D02*
X183094380Y-106878285D01*
X183094380Y-106497333D01*
X183142000Y-106402095D01*
X183189619Y-106354476D01*
X183284857Y-106306857D01*
X183427714Y-106306857D01*
X183522952Y-106354476D01*
X183570571Y-106402095D01*
X183618190Y-106497333D01*
X183618190Y-106878285D01*
X184094380Y-105354476D02*
X184094380Y-105925904D01*
X184094380Y-105640190D02*
X183094380Y-105640190D01*
X183237238Y-105735428D01*
X183332476Y-105830666D01*
X183380095Y-105925904D01*
X183427714Y-104497333D02*
X184094380Y-104497333D01*
X183046761Y-104735428D02*
X183761047Y-104973523D01*
X183761047Y-104354476D01*
%TO.C,H2*%
X103124095Y-116902380D02*
X103124095Y-115902380D01*
X103124095Y-116378571D02*
X103695523Y-116378571D01*
X103695523Y-116902380D02*
X103695523Y-115902380D01*
X104124095Y-115997619D02*
X104171714Y-115950000D01*
X104266952Y-115902380D01*
X104505047Y-115902380D01*
X104600285Y-115950000D01*
X104647904Y-115997619D01*
X104695523Y-116092857D01*
X104695523Y-116188095D01*
X104647904Y-116330952D01*
X104076476Y-116902380D01*
X104695523Y-116902380D01*
%TO.C,R13*%
X146248380Y-106306857D02*
X145772190Y-106640190D01*
X146248380Y-106878285D02*
X145248380Y-106878285D01*
X145248380Y-106497333D01*
X145296000Y-106402095D01*
X145343619Y-106354476D01*
X145438857Y-106306857D01*
X145581714Y-106306857D01*
X145676952Y-106354476D01*
X145724571Y-106402095D01*
X145772190Y-106497333D01*
X145772190Y-106878285D01*
X146248380Y-105354476D02*
X146248380Y-105925904D01*
X146248380Y-105640190D02*
X145248380Y-105640190D01*
X145391238Y-105735428D01*
X145486476Y-105830666D01*
X145534095Y-105925904D01*
X145248380Y-105021142D02*
X145248380Y-104402095D01*
X145629333Y-104735428D01*
X145629333Y-104592571D01*
X145676952Y-104497333D01*
X145724571Y-104449714D01*
X145819809Y-104402095D01*
X146057904Y-104402095D01*
X146153142Y-104449714D01*
X146200761Y-104497333D01*
X146248380Y-104592571D01*
X146248380Y-104878285D01*
X146200761Y-104973523D01*
X146153142Y-105021142D01*
%TO.C,C26*%
X134977142Y-81414857D02*
X135024761Y-81462476D01*
X135072380Y-81605333D01*
X135072380Y-81700571D01*
X135024761Y-81843428D01*
X134929523Y-81938666D01*
X134834285Y-81986285D01*
X134643809Y-82033904D01*
X134500952Y-82033904D01*
X134310476Y-81986285D01*
X134215238Y-81938666D01*
X134120000Y-81843428D01*
X134072380Y-81700571D01*
X134072380Y-81605333D01*
X134120000Y-81462476D01*
X134167619Y-81414857D01*
X134167619Y-81033904D02*
X134120000Y-80986285D01*
X134072380Y-80891047D01*
X134072380Y-80652952D01*
X134120000Y-80557714D01*
X134167619Y-80510095D01*
X134262857Y-80462476D01*
X134358095Y-80462476D01*
X134500952Y-80510095D01*
X135072380Y-81081523D01*
X135072380Y-80462476D01*
X134072380Y-79605333D02*
X134072380Y-79795809D01*
X134120000Y-79891047D01*
X134167619Y-79938666D01*
X134310476Y-80033904D01*
X134500952Y-80081523D01*
X134881904Y-80081523D01*
X134977142Y-80033904D01*
X135024761Y-79986285D01*
X135072380Y-79891047D01*
X135072380Y-79700571D01*
X135024761Y-79605333D01*
X134977142Y-79557714D01*
X134881904Y-79510095D01*
X134643809Y-79510095D01*
X134548571Y-79557714D01*
X134500952Y-79605333D01*
X134453333Y-79700571D01*
X134453333Y-79891047D01*
X134500952Y-79986285D01*
X134548571Y-80033904D01*
X134643809Y-80081523D01*
%TO.C,H5*%
X189013095Y-116902380D02*
X189013095Y-115902380D01*
X189013095Y-116378571D02*
X189584523Y-116378571D01*
X189584523Y-116902380D02*
X189584523Y-115902380D01*
X190536904Y-115902380D02*
X190060714Y-115902380D01*
X190013095Y-116378571D01*
X190060714Y-116330952D01*
X190155952Y-116283333D01*
X190394047Y-116283333D01*
X190489285Y-116330952D01*
X190536904Y-116378571D01*
X190584523Y-116473809D01*
X190584523Y-116711904D01*
X190536904Y-116807142D01*
X190489285Y-116854761D01*
X190394047Y-116902380D01*
X190155952Y-116902380D01*
X190060714Y-116854761D01*
X190013095Y-116807142D01*
%TO.C,C5*%
X129119333Y-78367142D02*
X129071714Y-78414761D01*
X128928857Y-78462380D01*
X128833619Y-78462380D01*
X128690761Y-78414761D01*
X128595523Y-78319523D01*
X128547904Y-78224285D01*
X128500285Y-78033809D01*
X128500285Y-77890952D01*
X128547904Y-77700476D01*
X128595523Y-77605238D01*
X128690761Y-77510000D01*
X128833619Y-77462380D01*
X128928857Y-77462380D01*
X129071714Y-77510000D01*
X129119333Y-77557619D01*
X130024095Y-77462380D02*
X129547904Y-77462380D01*
X129500285Y-77938571D01*
X129547904Y-77890952D01*
X129643142Y-77843333D01*
X129881238Y-77843333D01*
X129976476Y-77890952D01*
X130024095Y-77938571D01*
X130071714Y-78033809D01*
X130071714Y-78271904D01*
X130024095Y-78367142D01*
X129976476Y-78414761D01*
X129881238Y-78462380D01*
X129643142Y-78462380D01*
X129547904Y-78414761D01*
X129500285Y-78367142D01*
%TO.C,D5*%
X129563904Y-84272380D02*
X129563904Y-83272380D01*
X129802000Y-83272380D01*
X129944857Y-83320000D01*
X130040095Y-83415238D01*
X130087714Y-83510476D01*
X130135333Y-83700952D01*
X130135333Y-83843809D01*
X130087714Y-84034285D01*
X130040095Y-84129523D01*
X129944857Y-84224761D01*
X129802000Y-84272380D01*
X129563904Y-84272380D01*
X131040095Y-83272380D02*
X130563904Y-83272380D01*
X130516285Y-83748571D01*
X130563904Y-83700952D01*
X130659142Y-83653333D01*
X130897238Y-83653333D01*
X130992476Y-83700952D01*
X131040095Y-83748571D01*
X131087714Y-83843809D01*
X131087714Y-84081904D01*
X131040095Y-84177142D01*
X130992476Y-84224761D01*
X130897238Y-84272380D01*
X130659142Y-84272380D01*
X130563904Y-84224761D01*
X130516285Y-84177142D01*
%TO.C,C4*%
X136723142Y-56046666D02*
X136770761Y-56094285D01*
X136818380Y-56237142D01*
X136818380Y-56332380D01*
X136770761Y-56475238D01*
X136675523Y-56570476D01*
X136580285Y-56618095D01*
X136389809Y-56665714D01*
X136246952Y-56665714D01*
X136056476Y-56618095D01*
X135961238Y-56570476D01*
X135866000Y-56475238D01*
X135818380Y-56332380D01*
X135818380Y-56237142D01*
X135866000Y-56094285D01*
X135913619Y-56046666D01*
X136151714Y-55189523D02*
X136818380Y-55189523D01*
X135770761Y-55427619D02*
X136485047Y-55665714D01*
X136485047Y-55046666D01*
%TO.C,R17*%
X109418380Y-106306857D02*
X108942190Y-106640190D01*
X109418380Y-106878285D02*
X108418380Y-106878285D01*
X108418380Y-106497333D01*
X108466000Y-106402095D01*
X108513619Y-106354476D01*
X108608857Y-106306857D01*
X108751714Y-106306857D01*
X108846952Y-106354476D01*
X108894571Y-106402095D01*
X108942190Y-106497333D01*
X108942190Y-106878285D01*
X109418380Y-105354476D02*
X109418380Y-105925904D01*
X109418380Y-105640190D02*
X108418380Y-105640190D01*
X108561238Y-105735428D01*
X108656476Y-105830666D01*
X108704095Y-105925904D01*
X108418380Y-105021142D02*
X108418380Y-104354476D01*
X109418380Y-104783047D01*
%TO.C,Y2*%
X147544190Y-92932190D02*
X148020380Y-92932190D01*
X147020380Y-93265523D02*
X147544190Y-92932190D01*
X147020380Y-92598857D01*
X147115619Y-92313142D02*
X147068000Y-92265523D01*
X147020380Y-92170285D01*
X147020380Y-91932190D01*
X147068000Y-91836952D01*
X147115619Y-91789333D01*
X147210857Y-91741714D01*
X147306095Y-91741714D01*
X147448952Y-91789333D01*
X148020380Y-92360761D01*
X148020380Y-91741714D01*
%TO.C,SW1*%
X163712761Y-96583333D02*
X163760380Y-96440476D01*
X163760380Y-96202380D01*
X163712761Y-96107142D01*
X163665142Y-96059523D01*
X163569904Y-96011904D01*
X163474666Y-96011904D01*
X163379428Y-96059523D01*
X163331809Y-96107142D01*
X163284190Y-96202380D01*
X163236571Y-96392857D01*
X163188952Y-96488095D01*
X163141333Y-96535714D01*
X163046095Y-96583333D01*
X162950857Y-96583333D01*
X162855619Y-96535714D01*
X162808000Y-96488095D01*
X162760380Y-96392857D01*
X162760380Y-96154761D01*
X162808000Y-96011904D01*
X162760380Y-95678571D02*
X163760380Y-95440476D01*
X163046095Y-95250000D01*
X163760380Y-95059523D01*
X162760380Y-94821428D01*
X163760380Y-93916666D02*
X163760380Y-94488095D01*
X163760380Y-94202380D02*
X162760380Y-94202380D01*
X162903238Y-94297619D01*
X162998476Y-94392857D01*
X163046095Y-94488095D01*
%TO.C,C30*%
X139819142Y-63857142D02*
X139771523Y-63904761D01*
X139628666Y-63952380D01*
X139533428Y-63952380D01*
X139390571Y-63904761D01*
X139295333Y-63809523D01*
X139247714Y-63714285D01*
X139200095Y-63523809D01*
X139200095Y-63380952D01*
X139247714Y-63190476D01*
X139295333Y-63095238D01*
X139390571Y-63000000D01*
X139533428Y-62952380D01*
X139628666Y-62952380D01*
X139771523Y-63000000D01*
X139819142Y-63047619D01*
X140152476Y-62952380D02*
X140771523Y-62952380D01*
X140438190Y-63333333D01*
X140581047Y-63333333D01*
X140676285Y-63380952D01*
X140723904Y-63428571D01*
X140771523Y-63523809D01*
X140771523Y-63761904D01*
X140723904Y-63857142D01*
X140676285Y-63904761D01*
X140581047Y-63952380D01*
X140295333Y-63952380D01*
X140200095Y-63904761D01*
X140152476Y-63857142D01*
X141390571Y-62952380D02*
X141485809Y-62952380D01*
X141581047Y-63000000D01*
X141628666Y-63047619D01*
X141676285Y-63142857D01*
X141723904Y-63333333D01*
X141723904Y-63571428D01*
X141676285Y-63761904D01*
X141628666Y-63857142D01*
X141581047Y-63904761D01*
X141485809Y-63952380D01*
X141390571Y-63952380D01*
X141295333Y-63904761D01*
X141247714Y-63857142D01*
X141200095Y-63761904D01*
X141152476Y-63571428D01*
X141152476Y-63333333D01*
X141200095Y-63142857D01*
X141247714Y-63047619D01*
X141295333Y-63000000D01*
X141390571Y-62952380D01*
%TO.C,R16*%
X111704380Y-106306857D02*
X111228190Y-106640190D01*
X111704380Y-106878285D02*
X110704380Y-106878285D01*
X110704380Y-106497333D01*
X110752000Y-106402095D01*
X110799619Y-106354476D01*
X110894857Y-106306857D01*
X111037714Y-106306857D01*
X111132952Y-106354476D01*
X111180571Y-106402095D01*
X111228190Y-106497333D01*
X111228190Y-106878285D01*
X111704380Y-105354476D02*
X111704380Y-105925904D01*
X111704380Y-105640190D02*
X110704380Y-105640190D01*
X110847238Y-105735428D01*
X110942476Y-105830666D01*
X110990095Y-105925904D01*
X110704380Y-104497333D02*
X110704380Y-104687809D01*
X110752000Y-104783047D01*
X110799619Y-104830666D01*
X110942476Y-104925904D01*
X111132952Y-104973523D01*
X111513904Y-104973523D01*
X111609142Y-104925904D01*
X111656761Y-104878285D01*
X111704380Y-104783047D01*
X111704380Y-104592571D01*
X111656761Y-104497333D01*
X111609142Y-104449714D01*
X111513904Y-104402095D01*
X111275809Y-104402095D01*
X111180571Y-104449714D01*
X111132952Y-104497333D01*
X111085333Y-104592571D01*
X111085333Y-104783047D01*
X111132952Y-104878285D01*
X111180571Y-104925904D01*
X111275809Y-104973523D01*
%TO.C,D1*%
X129563904Y-89352380D02*
X129563904Y-88352380D01*
X129802000Y-88352380D01*
X129944857Y-88400000D01*
X130040095Y-88495238D01*
X130087714Y-88590476D01*
X130135333Y-88780952D01*
X130135333Y-88923809D01*
X130087714Y-89114285D01*
X130040095Y-89209523D01*
X129944857Y-89304761D01*
X129802000Y-89352380D01*
X129563904Y-89352380D01*
X131087714Y-89352380D02*
X130516285Y-89352380D01*
X130802000Y-89352380D02*
X130802000Y-88352380D01*
X130706761Y-88495238D01*
X130611523Y-88590476D01*
X130516285Y-88638095D01*
%TO.C,C14*%
X116689142Y-122054857D02*
X116736761Y-122102476D01*
X116784380Y-122245333D01*
X116784380Y-122340571D01*
X116736761Y-122483428D01*
X116641523Y-122578666D01*
X116546285Y-122626285D01*
X116355809Y-122673904D01*
X116212952Y-122673904D01*
X116022476Y-122626285D01*
X115927238Y-122578666D01*
X115832000Y-122483428D01*
X115784380Y-122340571D01*
X115784380Y-122245333D01*
X115832000Y-122102476D01*
X115879619Y-122054857D01*
X116784380Y-121102476D02*
X116784380Y-121673904D01*
X116784380Y-121388190D02*
X115784380Y-121388190D01*
X115927238Y-121483428D01*
X116022476Y-121578666D01*
X116070095Y-121673904D01*
X116117714Y-120245333D02*
X116784380Y-120245333D01*
X115736761Y-120483428D02*
X116451047Y-120721523D01*
X116451047Y-120102476D01*
%TO.C,H4*%
X123444095Y-99122380D02*
X123444095Y-98122380D01*
X123444095Y-98598571D02*
X124015523Y-98598571D01*
X124015523Y-99122380D02*
X124015523Y-98122380D01*
X124920285Y-98455714D02*
X124920285Y-99122380D01*
X124682190Y-98074761D02*
X124444095Y-98789047D01*
X125063142Y-98789047D01*
%TO.C,C8*%
X152249142Y-121832666D02*
X152296761Y-121880285D01*
X152344380Y-122023142D01*
X152344380Y-122118380D01*
X152296761Y-122261238D01*
X152201523Y-122356476D01*
X152106285Y-122404095D01*
X151915809Y-122451714D01*
X151772952Y-122451714D01*
X151582476Y-122404095D01*
X151487238Y-122356476D01*
X151392000Y-122261238D01*
X151344380Y-122118380D01*
X151344380Y-122023142D01*
X151392000Y-121880285D01*
X151439619Y-121832666D01*
X151772952Y-121261238D02*
X151725333Y-121356476D01*
X151677714Y-121404095D01*
X151582476Y-121451714D01*
X151534857Y-121451714D01*
X151439619Y-121404095D01*
X151392000Y-121356476D01*
X151344380Y-121261238D01*
X151344380Y-121070761D01*
X151392000Y-120975523D01*
X151439619Y-120927904D01*
X151534857Y-120880285D01*
X151582476Y-120880285D01*
X151677714Y-120927904D01*
X151725333Y-120975523D01*
X151772952Y-121070761D01*
X151772952Y-121261238D01*
X151820571Y-121356476D01*
X151868190Y-121404095D01*
X151963428Y-121451714D01*
X152153904Y-121451714D01*
X152249142Y-121404095D01*
X152296761Y-121356476D01*
X152344380Y-121261238D01*
X152344380Y-121070761D01*
X152296761Y-120975523D01*
X152249142Y-120927904D01*
X152153904Y-120880285D01*
X151963428Y-120880285D01*
X151868190Y-120927904D01*
X151820571Y-120975523D01*
X151772952Y-121070761D01*
%TO.C,C25*%
X158091142Y-68460857D02*
X158138761Y-68508476D01*
X158186380Y-68651333D01*
X158186380Y-68746571D01*
X158138761Y-68889428D01*
X158043523Y-68984666D01*
X157948285Y-69032285D01*
X157757809Y-69079904D01*
X157614952Y-69079904D01*
X157424476Y-69032285D01*
X157329238Y-68984666D01*
X157234000Y-68889428D01*
X157186380Y-68746571D01*
X157186380Y-68651333D01*
X157234000Y-68508476D01*
X157281619Y-68460857D01*
X157281619Y-68079904D02*
X157234000Y-68032285D01*
X157186380Y-67937047D01*
X157186380Y-67698952D01*
X157234000Y-67603714D01*
X157281619Y-67556095D01*
X157376857Y-67508476D01*
X157472095Y-67508476D01*
X157614952Y-67556095D01*
X158186380Y-68127523D01*
X158186380Y-67508476D01*
X157186380Y-66603714D02*
X157186380Y-67079904D01*
X157662571Y-67127523D01*
X157614952Y-67079904D01*
X157567333Y-66984666D01*
X157567333Y-66746571D01*
X157614952Y-66651333D01*
X157662571Y-66603714D01*
X157757809Y-66556095D01*
X157995904Y-66556095D01*
X158091142Y-66603714D01*
X158138761Y-66651333D01*
X158186380Y-66746571D01*
X158186380Y-66984666D01*
X158138761Y-67079904D01*
X158091142Y-67127523D01*
%TO.C,H1*%
X167894095Y-99122380D02*
X167894095Y-98122380D01*
X167894095Y-98598571D02*
X168465523Y-98598571D01*
X168465523Y-99122380D02*
X168465523Y-98122380D01*
X169465523Y-99122380D02*
X168894095Y-99122380D01*
X169179809Y-99122380D02*
X169179809Y-98122380D01*
X169084571Y-98265238D01*
X168989333Y-98360476D01*
X168894095Y-98408095D01*
%TO.C,C7*%
X129103142Y-56046666D02*
X129150761Y-56094285D01*
X129198380Y-56237142D01*
X129198380Y-56332380D01*
X129150761Y-56475238D01*
X129055523Y-56570476D01*
X128960285Y-56618095D01*
X128769809Y-56665714D01*
X128626952Y-56665714D01*
X128436476Y-56618095D01*
X128341238Y-56570476D01*
X128246000Y-56475238D01*
X128198380Y-56332380D01*
X128198380Y-56237142D01*
X128246000Y-56094285D01*
X128293619Y-56046666D01*
X128198380Y-55713333D02*
X128198380Y-55046666D01*
X129198380Y-55475238D01*
%TO.C,H6*%
X128524095Y-116902380D02*
X128524095Y-115902380D01*
X128524095Y-116378571D02*
X129095523Y-116378571D01*
X129095523Y-116902380D02*
X129095523Y-115902380D01*
X130000285Y-115902380D02*
X129809809Y-115902380D01*
X129714571Y-115950000D01*
X129666952Y-115997619D01*
X129571714Y-116140476D01*
X129524095Y-116330952D01*
X129524095Y-116711904D01*
X129571714Y-116807142D01*
X129619333Y-116854761D01*
X129714571Y-116902380D01*
X129905047Y-116902380D01*
X130000285Y-116854761D01*
X130047904Y-116807142D01*
X130095523Y-116711904D01*
X130095523Y-116473809D01*
X130047904Y-116378571D01*
X130000285Y-116330952D01*
X129905047Y-116283333D01*
X129714571Y-116283333D01*
X129619333Y-116330952D01*
X129571714Y-116378571D01*
X129524095Y-116473809D01*
%TO.C,C12*%
X178411142Y-122054857D02*
X178458761Y-122102476D01*
X178506380Y-122245333D01*
X178506380Y-122340571D01*
X178458761Y-122483428D01*
X178363523Y-122578666D01*
X178268285Y-122626285D01*
X178077809Y-122673904D01*
X177934952Y-122673904D01*
X177744476Y-122626285D01*
X177649238Y-122578666D01*
X177554000Y-122483428D01*
X177506380Y-122340571D01*
X177506380Y-122245333D01*
X177554000Y-122102476D01*
X177601619Y-122054857D01*
X178506380Y-121102476D02*
X178506380Y-121673904D01*
X178506380Y-121388190D02*
X177506380Y-121388190D01*
X177649238Y-121483428D01*
X177744476Y-121578666D01*
X177792095Y-121673904D01*
X177601619Y-120721523D02*
X177554000Y-120673904D01*
X177506380Y-120578666D01*
X177506380Y-120340571D01*
X177554000Y-120245333D01*
X177601619Y-120197714D01*
X177696857Y-120150095D01*
X177792095Y-120150095D01*
X177934952Y-120197714D01*
X178506380Y-120769142D01*
X178506380Y-120150095D01*
%TO.C,C6*%
X129119333Y-70747142D02*
X129071714Y-70794761D01*
X128928857Y-70842380D01*
X128833619Y-70842380D01*
X128690761Y-70794761D01*
X128595523Y-70699523D01*
X128547904Y-70604285D01*
X128500285Y-70413809D01*
X128500285Y-70270952D01*
X128547904Y-70080476D01*
X128595523Y-69985238D01*
X128690761Y-69890000D01*
X128833619Y-69842380D01*
X128928857Y-69842380D01*
X129071714Y-69890000D01*
X129119333Y-69937619D01*
X129976476Y-69842380D02*
X129786000Y-69842380D01*
X129690761Y-69890000D01*
X129643142Y-69937619D01*
X129547904Y-70080476D01*
X129500285Y-70270952D01*
X129500285Y-70651904D01*
X129547904Y-70747142D01*
X129595523Y-70794761D01*
X129690761Y-70842380D01*
X129881238Y-70842380D01*
X129976476Y-70794761D01*
X130024095Y-70747142D01*
X130071714Y-70651904D01*
X130071714Y-70413809D01*
X130024095Y-70318571D01*
X129976476Y-70270952D01*
X129881238Y-70223333D01*
X129690761Y-70223333D01*
X129595523Y-70270952D01*
X129547904Y-70318571D01*
X129500285Y-70413809D01*
%TO.C,J9*%
X165782666Y-76624380D02*
X165782666Y-77338666D01*
X165735047Y-77481523D01*
X165639809Y-77576761D01*
X165496952Y-77624380D01*
X165401714Y-77624380D01*
X166306476Y-77624380D02*
X166496952Y-77624380D01*
X166592190Y-77576761D01*
X166639809Y-77529142D01*
X166735047Y-77386285D01*
X166782666Y-77195809D01*
X166782666Y-76814857D01*
X166735047Y-76719619D01*
X166687428Y-76672000D01*
X166592190Y-76624380D01*
X166401714Y-76624380D01*
X166306476Y-76672000D01*
X166258857Y-76719619D01*
X166211238Y-76814857D01*
X166211238Y-77052952D01*
X166258857Y-77148190D01*
X166306476Y-77195809D01*
X166401714Y-77243428D01*
X166592190Y-77243428D01*
X166687428Y-77195809D01*
X166735047Y-77148190D01*
X166782666Y-77052952D01*
%TO.C,SW3*%
X159702666Y-58316761D02*
X159845523Y-58364380D01*
X160083619Y-58364380D01*
X160178857Y-58316761D01*
X160226476Y-58269142D01*
X160274095Y-58173904D01*
X160274095Y-58078666D01*
X160226476Y-57983428D01*
X160178857Y-57935809D01*
X160083619Y-57888190D01*
X159893142Y-57840571D01*
X159797904Y-57792952D01*
X159750285Y-57745333D01*
X159702666Y-57650095D01*
X159702666Y-57554857D01*
X159750285Y-57459619D01*
X159797904Y-57412000D01*
X159893142Y-57364380D01*
X160131238Y-57364380D01*
X160274095Y-57412000D01*
X160607428Y-57364380D02*
X160845523Y-58364380D01*
X161036000Y-57650095D01*
X161226476Y-58364380D01*
X161464571Y-57364380D01*
X161750285Y-57364380D02*
X162369333Y-57364380D01*
X162036000Y-57745333D01*
X162178857Y-57745333D01*
X162274095Y-57792952D01*
X162321714Y-57840571D01*
X162369333Y-57935809D01*
X162369333Y-58173904D01*
X162321714Y-58269142D01*
X162274095Y-58316761D01*
X162178857Y-58364380D01*
X161893142Y-58364380D01*
X161797904Y-58316761D01*
X161750285Y-58269142D01*
%TO.C,C23*%
X148455142Y-62333142D02*
X148407523Y-62380761D01*
X148264666Y-62428380D01*
X148169428Y-62428380D01*
X148026571Y-62380761D01*
X147931333Y-62285523D01*
X147883714Y-62190285D01*
X147836095Y-61999809D01*
X147836095Y-61856952D01*
X147883714Y-61666476D01*
X147931333Y-61571238D01*
X148026571Y-61476000D01*
X148169428Y-61428380D01*
X148264666Y-61428380D01*
X148407523Y-61476000D01*
X148455142Y-61523619D01*
X148836095Y-61523619D02*
X148883714Y-61476000D01*
X148978952Y-61428380D01*
X149217047Y-61428380D01*
X149312285Y-61476000D01*
X149359904Y-61523619D01*
X149407523Y-61618857D01*
X149407523Y-61714095D01*
X149359904Y-61856952D01*
X148788476Y-62428380D01*
X149407523Y-62428380D01*
X149740857Y-61428380D02*
X150359904Y-61428380D01*
X150026571Y-61809333D01*
X150169428Y-61809333D01*
X150264666Y-61856952D01*
X150312285Y-61904571D01*
X150359904Y-61999809D01*
X150359904Y-62237904D01*
X150312285Y-62333142D01*
X150264666Y-62380761D01*
X150169428Y-62428380D01*
X149883714Y-62428380D01*
X149788476Y-62380761D01*
X149740857Y-62333142D01*
%TO.C,D2*%
X129563904Y-88082380D02*
X129563904Y-87082380D01*
X129802000Y-87082380D01*
X129944857Y-87130000D01*
X130040095Y-87225238D01*
X130087714Y-87320476D01*
X130135333Y-87510952D01*
X130135333Y-87653809D01*
X130087714Y-87844285D01*
X130040095Y-87939523D01*
X129944857Y-88034761D01*
X129802000Y-88082380D01*
X129563904Y-88082380D01*
X130516285Y-87177619D02*
X130563904Y-87130000D01*
X130659142Y-87082380D01*
X130897238Y-87082380D01*
X130992476Y-87130000D01*
X131040095Y-87177619D01*
X131087714Y-87272857D01*
X131087714Y-87368095D01*
X131040095Y-87510952D01*
X130468666Y-88082380D01*
X131087714Y-88082380D01*
%TO.C,SW4*%
X159448666Y-66952761D02*
X159591523Y-67000380D01*
X159829619Y-67000380D01*
X159924857Y-66952761D01*
X159972476Y-66905142D01*
X160020095Y-66809904D01*
X160020095Y-66714666D01*
X159972476Y-66619428D01*
X159924857Y-66571809D01*
X159829619Y-66524190D01*
X159639142Y-66476571D01*
X159543904Y-66428952D01*
X159496285Y-66381333D01*
X159448666Y-66286095D01*
X159448666Y-66190857D01*
X159496285Y-66095619D01*
X159543904Y-66048000D01*
X159639142Y-66000380D01*
X159877238Y-66000380D01*
X160020095Y-66048000D01*
X160353428Y-66000380D02*
X160591523Y-67000380D01*
X160782000Y-66286095D01*
X160972476Y-67000380D01*
X161210571Y-66000380D01*
X162020095Y-66333714D02*
X162020095Y-67000380D01*
X161782000Y-65952761D02*
X161543904Y-66667047D01*
X162162952Y-66667047D01*
%TO.C,U6*%
X145288095Y-80766380D02*
X145288095Y-81575904D01*
X145335714Y-81671142D01*
X145383333Y-81718761D01*
X145478571Y-81766380D01*
X145669047Y-81766380D01*
X145764285Y-81718761D01*
X145811904Y-81671142D01*
X145859523Y-81575904D01*
X145859523Y-80766380D01*
X146764285Y-80766380D02*
X146573809Y-80766380D01*
X146478571Y-80814000D01*
X146430952Y-80861619D01*
X146335714Y-81004476D01*
X146288095Y-81194952D01*
X146288095Y-81575904D01*
X146335714Y-81671142D01*
X146383333Y-81718761D01*
X146478571Y-81766380D01*
X146669047Y-81766380D01*
X146764285Y-81718761D01*
X146811904Y-81671142D01*
X146859523Y-81575904D01*
X146859523Y-81337809D01*
X146811904Y-81242571D01*
X146764285Y-81194952D01*
X146669047Y-81147333D01*
X146478571Y-81147333D01*
X146383333Y-81194952D01*
X146335714Y-81242571D01*
X146288095Y-81337809D01*
%TO.C,J10*%
X172172380Y-45767523D02*
X172886666Y-45767523D01*
X173029523Y-45815142D01*
X173124761Y-45910380D01*
X173172380Y-46053238D01*
X173172380Y-46148476D01*
X173172380Y-44767523D02*
X173172380Y-45338952D01*
X173172380Y-45053238D02*
X172172380Y-45053238D01*
X172315238Y-45148476D01*
X172410476Y-45243714D01*
X172458095Y-45338952D01*
X172172380Y-44148476D02*
X172172380Y-44053238D01*
X172220000Y-43958000D01*
X172267619Y-43910380D01*
X172362857Y-43862761D01*
X172553333Y-43815142D01*
X172791428Y-43815142D01*
X172981904Y-43862761D01*
X173077142Y-43910380D01*
X173124761Y-43958000D01*
X173172380Y-44053238D01*
X173172380Y-44148476D01*
X173124761Y-44243714D01*
X173077142Y-44291333D01*
X172981904Y-44338952D01*
X172791428Y-44386571D01*
X172553333Y-44386571D01*
X172362857Y-44338952D01*
X172267619Y-44291333D01*
X172220000Y-44243714D01*
X172172380Y-44148476D01*
%TO.C,J2*%
X124662666Y-51982380D02*
X124662666Y-52696666D01*
X124615047Y-52839523D01*
X124519809Y-52934761D01*
X124376952Y-52982380D01*
X124281714Y-52982380D01*
X125091238Y-52077619D02*
X125138857Y-52030000D01*
X125234095Y-51982380D01*
X125472190Y-51982380D01*
X125567428Y-52030000D01*
X125615047Y-52077619D01*
X125662666Y-52172857D01*
X125662666Y-52268095D01*
X125615047Y-52410952D01*
X125043619Y-52982380D01*
X125662666Y-52982380D01*
%TO.C,J6*%
X172386666Y-92924380D02*
X172386666Y-93638666D01*
X172339047Y-93781523D01*
X172243809Y-93876761D01*
X172100952Y-93924380D01*
X172005714Y-93924380D01*
X173291428Y-92924380D02*
X173100952Y-92924380D01*
X173005714Y-92972000D01*
X172958095Y-93019619D01*
X172862857Y-93162476D01*
X172815238Y-93352952D01*
X172815238Y-93733904D01*
X172862857Y-93829142D01*
X172910476Y-93876761D01*
X173005714Y-93924380D01*
X173196190Y-93924380D01*
X173291428Y-93876761D01*
X173339047Y-93829142D01*
X173386666Y-93733904D01*
X173386666Y-93495809D01*
X173339047Y-93400571D01*
X173291428Y-93352952D01*
X173196190Y-93305333D01*
X173005714Y-93305333D01*
X172910476Y-93352952D01*
X172862857Y-93400571D01*
X172815238Y-93495809D01*
%TO.C,J5*%
X172132666Y-66254380D02*
X172132666Y-66968666D01*
X172085047Y-67111523D01*
X171989809Y-67206761D01*
X171846952Y-67254380D01*
X171751714Y-67254380D01*
X173085047Y-66254380D02*
X172608857Y-66254380D01*
X172561238Y-66730571D01*
X172608857Y-66682952D01*
X172704095Y-66635333D01*
X172942190Y-66635333D01*
X173037428Y-66682952D01*
X173085047Y-66730571D01*
X173132666Y-66825809D01*
X173132666Y-67063904D01*
X173085047Y-67159142D01*
X173037428Y-67206761D01*
X172942190Y-67254380D01*
X172704095Y-67254380D01*
X172608857Y-67206761D01*
X172561238Y-67159142D01*
%TO.C,J4*%
X121586666Y-75100380D02*
X121586666Y-75814666D01*
X121539047Y-75957523D01*
X121443809Y-76052761D01*
X121300952Y-76100380D01*
X121205714Y-76100380D01*
X122491428Y-75433714D02*
X122491428Y-76100380D01*
X122253333Y-75052761D02*
X122015238Y-75767047D01*
X122634285Y-75767047D01*
%TO.C,J3*%
X121586666Y-52240380D02*
X121586666Y-52954666D01*
X121539047Y-53097523D01*
X121443809Y-53192761D01*
X121300952Y-53240380D01*
X121205714Y-53240380D01*
X121967619Y-52240380D02*
X122586666Y-52240380D01*
X122253333Y-52621333D01*
X122396190Y-52621333D01*
X122491428Y-52668952D01*
X122539047Y-52716571D01*
X122586666Y-52811809D01*
X122586666Y-53049904D01*
X122539047Y-53145142D01*
X122491428Y-53192761D01*
X122396190Y-53240380D01*
X122110476Y-53240380D01*
X122015238Y-53192761D01*
X121967619Y-53145142D01*
%TD*%
M02*
