%TF.GenerationSoftware,KiCad,Pcbnew,(6.0.2)*%
%TF.CreationDate,2022-03-11T07:45:19+01:00*%
%TF.ProjectId,GestureControl,47657374-7572-4654-936f-6e74726f6c2e,V0.1*%
%TF.SameCoordinates,Original*%
%TF.FileFunction,Copper,L4,Bot*%
%TF.FilePolarity,Positive*%
%FSLAX46Y46*%
G04 Gerber Fmt 4.6, Leading zero omitted, Abs format (unit mm)*
G04 Created by KiCad (PCBNEW (6.0.2)) date 2022-03-11 07:45:19*
%MOMM*%
%LPD*%
G01*
G04 APERTURE LIST*
G04 Aperture macros list*
%AMRoundRect*
0 Rectangle with rounded corners*
0 $1 Rounding radius*
0 $2 $3 $4 $5 $6 $7 $8 $9 X,Y pos of 4 corners*
0 Add a 4 corners polygon primitive as box body*
4,1,4,$2,$3,$4,$5,$6,$7,$8,$9,$2,$3,0*
0 Add four circle primitives for the rounded corners*
1,1,$1+$1,$2,$3*
1,1,$1+$1,$4,$5*
1,1,$1+$1,$6,$7*
1,1,$1+$1,$8,$9*
0 Add four rect primitives between the rounded corners*
20,1,$1+$1,$2,$3,$4,$5,0*
20,1,$1+$1,$4,$5,$6,$7,0*
20,1,$1+$1,$6,$7,$8,$9,0*
20,1,$1+$1,$8,$9,$2,$3,0*%
%AMFreePoly0*
4,1,22,0.550000,-0.750000,0.000000,-0.750000,0.000000,-0.745033,-0.079941,-0.743568,-0.215256,-0.701293,-0.333266,-0.622738,-0.424486,-0.514219,-0.481581,-0.384460,-0.499164,-0.250000,-0.500000,-0.250000,-0.500000,0.250000,-0.499164,0.250000,-0.499963,0.256109,-0.478152,0.396186,-0.417904,0.524511,-0.324060,0.630769,-0.204165,0.706417,-0.067858,0.745374,0.000000,0.744959,0.000000,0.750000,
0.550000,0.750000,0.550000,-0.750000,0.550000,-0.750000,$1*%
%AMFreePoly1*
4,1,20,0.000000,0.744959,0.073905,0.744508,0.209726,0.703889,0.328688,0.626782,0.421226,0.519385,0.479903,0.390333,0.500000,0.250000,0.500000,-0.250000,0.499851,-0.262216,0.476331,-0.402017,0.414519,-0.529596,0.319384,-0.634700,0.198574,-0.708877,0.061801,-0.746166,0.000000,-0.745033,0.000000,-0.750000,-0.550000,-0.750000,-0.550000,0.750000,0.000000,0.750000,0.000000,0.744959,
0.000000,0.744959,$1*%
G04 Aperture macros list end*
%TA.AperFunction,ComponentPad*%
%ADD10R,1.700000X1.700000*%
%TD*%
%TA.AperFunction,ComponentPad*%
%ADD11O,1.700000X1.700000*%
%TD*%
%TA.AperFunction,ComponentPad*%
%ADD12RoundRect,0.250000X-1.550000X0.650000X-1.550000X-0.650000X1.550000X-0.650000X1.550000X0.650000X0*%
%TD*%
%TA.AperFunction,ComponentPad*%
%ADD13O,3.600000X1.800000*%
%TD*%
%TA.AperFunction,SMDPad,CuDef*%
%ADD14RoundRect,0.237500X-0.237500X0.300000X-0.237500X-0.300000X0.237500X-0.300000X0.237500X0.300000X0*%
%TD*%
%TA.AperFunction,SMDPad,CuDef*%
%ADD15RoundRect,0.237500X-0.300000X-0.237500X0.300000X-0.237500X0.300000X0.237500X-0.300000X0.237500X0*%
%TD*%
%TA.AperFunction,SMDPad,CuDef*%
%ADD16RoundRect,0.237500X0.300000X0.237500X-0.300000X0.237500X-0.300000X-0.237500X0.300000X-0.237500X0*%
%TD*%
%TA.AperFunction,SMDPad,CuDef*%
%ADD17RoundRect,0.250000X-0.337500X-0.475000X0.337500X-0.475000X0.337500X0.475000X-0.337500X0.475000X0*%
%TD*%
%TA.AperFunction,SMDPad,CuDef*%
%ADD18RoundRect,0.250000X0.475000X-0.337500X0.475000X0.337500X-0.475000X0.337500X-0.475000X-0.337500X0*%
%TD*%
%TA.AperFunction,SMDPad,CuDef*%
%ADD19R,1.500000X1.500000*%
%TD*%
%TA.AperFunction,SMDPad,CuDef*%
%ADD20FreePoly0,90.000000*%
%TD*%
%TA.AperFunction,SMDPad,CuDef*%
%ADD21R,1.500000X1.000000*%
%TD*%
%TA.AperFunction,SMDPad,CuDef*%
%ADD22FreePoly1,90.000000*%
%TD*%
%TA.AperFunction,SMDPad,CuDef*%
%ADD23RoundRect,0.249999X0.450001X-0.350001X0.450001X0.350001X-0.450001X0.350001X-0.450001X-0.350001X0*%
%TD*%
%TA.AperFunction,SMDPad,CuDef*%
%ADD24RoundRect,0.249999X-0.450001X0.350001X-0.450001X-0.350001X0.450001X-0.350001X0.450001X0.350001X0*%
%TD*%
%TA.AperFunction,SMDPad,CuDef*%
%ADD25RoundRect,0.249999X0.350001X0.450001X-0.350001X0.450001X-0.350001X-0.450001X0.350001X-0.450001X0*%
%TD*%
%TA.AperFunction,SMDPad,CuDef*%
%ADD26RoundRect,0.249999X-0.350001X-0.450001X0.350001X-0.450001X0.350001X0.450001X-0.350001X0.450001X0*%
%TD*%
%TA.AperFunction,SMDPad,CuDef*%
%ADD27R,1.000000X1.000000*%
%TD*%
%TA.AperFunction,SMDPad,CuDef*%
%ADD28FreePoly0,180.000000*%
%TD*%
%TA.AperFunction,SMDPad,CuDef*%
%ADD29R,1.000000X1.500000*%
%TD*%
%TA.AperFunction,SMDPad,CuDef*%
%ADD30FreePoly1,180.000000*%
%TD*%
%TA.AperFunction,SMDPad,CuDef*%
%ADD31RoundRect,0.250000X0.337500X0.475000X-0.337500X0.475000X-0.337500X-0.475000X0.337500X-0.475000X0*%
%TD*%
%TA.AperFunction,SMDPad,CuDef*%
%ADD32RoundRect,0.237500X0.237500X-0.300000X0.237500X0.300000X-0.237500X0.300000X-0.237500X-0.300000X0*%
%TD*%
%TA.AperFunction,SMDPad,CuDef*%
%ADD33RoundRect,0.250000X-0.475000X0.337500X-0.475000X-0.337500X0.475000X-0.337500X0.475000X0.337500X0*%
%TD*%
%TA.AperFunction,SMDPad,CuDef*%
%ADD34RoundRect,0.249999X0.650001X-0.412501X0.650001X0.412501X-0.650001X0.412501X-0.650001X-0.412501X0*%
%TD*%
%TA.AperFunction,SMDPad,CuDef*%
%ADD35RoundRect,0.249999X-0.650001X0.412501X-0.650001X-0.412501X0.650001X-0.412501X0.650001X0.412501X0*%
%TD*%
%TA.AperFunction,SMDPad,CuDef*%
%ADD36R,1.500000X3.000000*%
%TD*%
%TA.AperFunction,SMDPad,CuDef*%
%ADD37C,2.000000*%
%TD*%
%TA.AperFunction,ViaPad*%
%ADD38C,0.800000*%
%TD*%
%TA.AperFunction,Conductor*%
%ADD39C,0.250000*%
%TD*%
%TA.AperFunction,Conductor*%
%ADD40C,1.000000*%
%TD*%
%TA.AperFunction,Conductor*%
%ADD41C,0.500000*%
%TD*%
%TA.AperFunction,Conductor*%
%ADD42C,0.200000*%
%TD*%
G04 APERTURE END LIST*
D10*
%TO.P,J3,1,Pin_1*%
%TO.N,unconnected-(J3-Pad1)*%
X67818000Y-155194000D03*
D11*
%TO.P,J3,2,Pin_2*%
%TO.N,unconnected-(J3-Pad2)*%
X70358000Y-155194000D03*
%TO.P,J3,3,Pin_3*%
%TO.N,unconnected-(J3-Pad3)*%
X72898000Y-155194000D03*
%TO.P,J3,4,Pin_4*%
%TO.N,+3V3*%
X75438000Y-155194000D03*
%TO.P,J3,5,Pin_5*%
%TO.N,+5V*%
X77978000Y-155194000D03*
%TO.P,J3,6,Pin_6*%
%TO.N,GND*%
X80518000Y-155194000D03*
%TO.P,J3,7,Pin_7*%
X83058000Y-155194000D03*
%TO.P,J3,8,Pin_8*%
%TO.N,unconnected-(J3-Pad8)*%
X85598000Y-155194000D03*
%TD*%
D10*
%TO.P,J4,1,Pin_1*%
%TO.N,XSHUT_0*%
X90678000Y-155194000D03*
D11*
%TO.P,J4,2,Pin_2*%
%TO.N,XSHUT_1*%
X93218000Y-155194000D03*
%TO.P,J4,3,Pin_3*%
%TO.N,XSHUT_2*%
X95758000Y-155194000D03*
%TO.P,J4,4,Pin_4*%
%TO.N,XSHUT_3*%
X98298000Y-155194000D03*
%TO.P,J4,5,Pin_5*%
%TO.N,SW_1*%
X100838000Y-155194000D03*
%TO.P,J4,6,Pin_6*%
%TO.N,SW_2*%
X103378000Y-155194000D03*
%TD*%
D10*
%TO.P,J5,1,Pin_1*%
%TO.N,unconnected-(J5-Pad1)*%
X81534000Y-106934000D03*
D11*
%TO.P,J5,2,Pin_2*%
%TO.N,unconnected-(J5-Pad2)*%
X78994000Y-106934000D03*
%TO.P,J5,3,Pin_3*%
%TO.N,GPIOI_0*%
X76454000Y-106934000D03*
%TO.P,J5,4,Pin_4*%
%TO.N,GPIOI_1*%
X73914000Y-106934000D03*
%TO.P,J5,5,Pin_5*%
%TO.N,GPIOI_2*%
X71374000Y-106934000D03*
%TO.P,J5,6,Pin_6*%
%TO.N,GPIOI_3*%
X68834000Y-106934000D03*
%TO.P,J5,7,Pin_7*%
%TO.N,GND*%
X66294000Y-106934000D03*
%TO.P,J5,8,Pin_8*%
%TO.N,+3V3*%
X63754000Y-106934000D03*
%TO.P,J5,9,Pin_9*%
%TO.N,SDA1*%
X61214000Y-106934000D03*
%TO.P,J5,10,Pin_10*%
%TO.N,SCL1*%
X58674000Y-106934000D03*
%TD*%
D10*
%TO.P,J1,1,Pin_1*%
%TO.N,GND*%
X74543490Y-127756490D03*
D11*
%TO.P,J1,2,Pin_2*%
%TO.N,+5V*%
X72003490Y-127756490D03*
%TO.P,J1,3,Pin_3*%
%TO.N,SDA1*%
X69463490Y-127756490D03*
%TO.P,J1,4,Pin_4*%
%TO.N,SCL1*%
X66923490Y-127756490D03*
%TD*%
D12*
%TO.P,J2,1,Pin_1*%
%TO.N,GND*%
X50292000Y-128524000D03*
D13*
%TO.P,J2,2,Pin_2*%
%TO.N,Net-(D6-Pad2)*%
X50292000Y-132024000D03*
%TD*%
D10*
%TO.P,J7,1,Pin_1*%
%TO.N,GND*%
X79623490Y-120136490D03*
D11*
%TO.P,J7,2,Pin_2*%
%TO.N,/STM32L151RET6TR/FTDI_CTS*%
X77083490Y-120136490D03*
%TO.P,J7,3,Pin_3*%
%TO.N,+5V*%
X74543490Y-120136490D03*
%TO.P,J7,4,Pin_4*%
%TO.N,/STM32L151RET6TR/FTDI_TXD*%
X72003490Y-120136490D03*
%TO.P,J7,5,Pin_5*%
%TO.N,/STM32L151RET6TR/FTDI_RXD*%
X69463490Y-120136490D03*
%TO.P,J7,6,Pin_6*%
%TO.N,/STM32L151RET6TR/FTDI_RTS*%
X66923490Y-120136490D03*
%TD*%
D10*
%TO.P,J10,1,Pin_1*%
%TO.N,GND*%
X79121000Y-110490000D03*
D11*
%TO.P,J10,2,Pin_2*%
%TO.N,+3V3*%
X76581000Y-110490000D03*
%TO.P,J10,3,Pin_3*%
%TO.N,SDA2*%
X74041000Y-110490000D03*
%TO.P,J10,4,Pin_4*%
%TO.N,SCL2*%
X71501000Y-110490000D03*
%TD*%
D10*
%TO.P,J9,1,Pin_1*%
%TO.N,GND*%
X98165490Y-137916490D03*
D11*
%TO.P,J9,2,Pin_2*%
%TO.N,+3V3*%
X98165490Y-135376490D03*
%TO.P,J9,3,Pin_3*%
%TO.N,/STM32L151RET6TR/UART_TX*%
X98165490Y-132836490D03*
%TO.P,J9,4,Pin_4*%
%TO.N,/STM32L151RET6TR/UART_RX*%
X98165490Y-130296490D03*
%TD*%
D10*
%TO.P,J6,1,Pin_1*%
%TO.N,unconnected-(J6-Pad1)*%
X103378000Y-106934000D03*
D11*
%TO.P,J6,2,Pin_2*%
%TO.N,unconnected-(J6-Pad2)*%
X100838000Y-106934000D03*
%TO.P,J6,3,Pin_3*%
%TO.N,LED_5*%
X98298000Y-106934000D03*
%TO.P,J6,4,Pin_4*%
%TO.N,LED_4*%
X95758000Y-106934000D03*
%TO.P,J6,5,Pin_5*%
%TO.N,LED_3*%
X93218000Y-106934000D03*
%TO.P,J6,6,Pin_6*%
%TO.N,LED_2*%
X90678000Y-106934000D03*
%TO.P,J6,7,Pin_7*%
%TO.N,LED_1*%
X88138000Y-106934000D03*
%TO.P,J6,8,Pin_8*%
%TO.N,unconnected-(J6-Pad8)*%
X85598000Y-106934000D03*
%TD*%
D10*
%TO.P,J8,1,Pin_1*%
%TO.N,+3V3*%
X77083490Y-123946490D03*
D11*
%TO.P,J8,2,Pin_2*%
%TO.N,/STM32L151RET6TR/SWCLK*%
X74543490Y-123946490D03*
%TO.P,J8,3,Pin_3*%
%TO.N,GND*%
X72003490Y-123946490D03*
%TO.P,J8,4,Pin_4*%
%TO.N,/STM32L151RET6TR/SWDAT*%
X69463490Y-123946490D03*
%TO.P,J8,5,Pin_5*%
%TO.N,/STM32L151RET6TR/RST*%
X66923490Y-123946490D03*
%TO.P,J8,6,Pin_6*%
%TO.N,/STM32L151RET6TR/SW0*%
X64383490Y-123946490D03*
%TD*%
D10*
%TO.P,J11,1,Pin_1*%
%TO.N,GND*%
X64383490Y-135376490D03*
D11*
%TO.P,J11,2,Pin_2*%
%TO.N,/STM32L151RET6TR/RST*%
X66923490Y-135376490D03*
%TD*%
D10*
%TO.P,J12,1,Pin_1*%
%TO.N,+3V3*%
X64383490Y-131566490D03*
D11*
%TO.P,J12,2,Pin_2*%
%TO.N,/STM32L151RET6TR/BOOT*%
X66923490Y-131566490D03*
%TD*%
D14*
%TO.P,C2,1*%
%TO.N,Net-(C2-Pad1)*%
X93847490Y-116633490D03*
%TO.P,C2,2*%
%TO.N,SW_2*%
X93847490Y-118358490D03*
%TD*%
D15*
%TO.P,C28,1*%
%TO.N,+3V3*%
X88820490Y-133852490D03*
%TO.P,C28,2*%
%TO.N,GND*%
X90545490Y-133852490D03*
%TD*%
D16*
%TO.P,C29,1*%
%TO.N,+3V3*%
X83634490Y-119628490D03*
%TO.P,C29,2*%
%TO.N,GND*%
X81909490Y-119628490D03*
%TD*%
D17*
%TO.P,C30,1*%
%TO.N,+3V3*%
X88767490Y-131820490D03*
%TO.P,C30,2*%
%TO.N,GND*%
X90842490Y-131820490D03*
%TD*%
D15*
%TO.P,C31,1*%
%TO.N,+3V3*%
X83433490Y-132074490D03*
%TO.P,C31,2*%
%TO.N,GND*%
X85158490Y-132074490D03*
%TD*%
D18*
%TO.P,C33,1*%
%TO.N,+3V3*%
X80639490Y-129069490D03*
%TO.P,C33,2*%
%TO.N,GND*%
X80639490Y-126994490D03*
%TD*%
D19*
%TO.P,J17,1,Pin_1*%
%TO.N,/STM32L151RET6TR/PC8*%
X73781490Y-112770490D03*
%TD*%
%TO.P,J18,1,Pin_1*%
%TO.N,/STM32L151RET6TR/PA9*%
X66161490Y-112770490D03*
%TD*%
%TO.P,J19,1,Pin_1*%
%TO.N,/STM32L151RET6TR/PA10*%
X63621490Y-112770490D03*
%TD*%
D20*
%TO.P,JP3,1,A*%
%TO.N,+3V3*%
X83179490Y-129340490D03*
D21*
%TO.P,JP3,2,C*%
%TO.N,/STM32L151RET6TR/PIN30*%
X83179490Y-128040490D03*
D22*
%TO.P,JP3,3,B*%
%TO.N,SDA2*%
X83179490Y-126740490D03*
%TD*%
D23*
%TO.P,R8,1*%
%TO.N,+3V3*%
X98673490Y-118326490D03*
%TO.P,R8,2*%
%TO.N,Net-(C1-Pad1)*%
X98673490Y-116326490D03*
%TD*%
%TO.P,R9,1*%
%TO.N,+3V3*%
X91815490Y-118326490D03*
%TO.P,R9,2*%
%TO.N,Net-(C2-Pad1)*%
X91815490Y-116326490D03*
%TD*%
D24*
%TO.P,R20,1*%
%TO.N,/STM32L151RET6TR/BOOT*%
X77337490Y-132074490D03*
%TO.P,R20,2*%
%TO.N,GND*%
X77337490Y-134074490D03*
%TD*%
D25*
%TO.P,R21,1*%
%TO.N,+3V3*%
X73241490Y-116326490D03*
%TO.P,R21,2*%
%TO.N,SDA2*%
X71241490Y-116326490D03*
%TD*%
D26*
%TO.P,R22,1*%
%TO.N,+3V3*%
X66701490Y-116326490D03*
%TO.P,R22,2*%
%TO.N,SCL2*%
X68701490Y-116326490D03*
%TD*%
D27*
%TO.P,TP1,1,1*%
%TO.N,SDA2*%
X71241490Y-112770490D03*
%TD*%
%TO.P,TP2,1,1*%
%TO.N,SCL2*%
X68701490Y-112770490D03*
%TD*%
D28*
%TO.P,JP2,1,A*%
%TO.N,/STM32L151RET6TR/PIN29*%
X88289490Y-128010490D03*
D29*
%TO.P,JP2,2,C*%
%TO.N,SCL2*%
X86989490Y-128010490D03*
D30*
%TO.P,JP2,3,B*%
%TO.N,/STM32L151RET6TR/PIN41*%
X85689490Y-128010490D03*
%TD*%
D14*
%TO.P,C1,1*%
%TO.N,Net-(C1-Pad1)*%
X100705490Y-116633490D03*
%TO.P,C1,2*%
%TO.N,SW_1*%
X100705490Y-118358490D03*
%TD*%
D15*
%TO.P,C23,1*%
%TO.N,+3V3*%
X83433490Y-133852490D03*
%TO.P,C23,2*%
%TO.N,GND*%
X85158490Y-133852490D03*
%TD*%
D31*
%TO.P,C11,1*%
%TO.N,+3V3*%
X95414490Y-135376490D03*
%TO.P,C11,2*%
%TO.N,GND*%
X93339490Y-135376490D03*
%TD*%
D32*
%TO.P,C14,1*%
%TO.N,+3V3*%
X199136000Y-131418500D03*
%TO.P,C14,2*%
%TO.N,GND*%
X199136000Y-129693500D03*
%TD*%
%TO.P,C15,1*%
%TO.N,+3V3*%
X237236000Y-131392000D03*
%TO.P,C15,2*%
%TO.N,GND*%
X237236000Y-129667000D03*
%TD*%
%TO.P,C16,1*%
%TO.N,+3V3*%
X125222000Y-130556000D03*
%TO.P,C16,2*%
%TO.N,GND*%
X125222000Y-128831000D03*
%TD*%
%TO.P,C20,1*%
%TO.N,+3V3*%
X203835000Y-131418500D03*
%TO.P,C20,2*%
%TO.N,GND*%
X203835000Y-129693500D03*
%TD*%
%TO.P,C21,1*%
%TO.N,+3V3*%
X241808000Y-131418500D03*
%TO.P,C21,2*%
%TO.N,GND*%
X241808000Y-129693500D03*
%TD*%
%TO.P,C35,1*%
%TO.N,+3V3*%
X127000000Y-130556000D03*
%TO.P,C35,2*%
%TO.N,GND*%
X127000000Y-128831000D03*
%TD*%
D33*
%TO.P,C36,1*%
%TO.N,+3V3*%
X191770000Y-127635000D03*
%TO.P,C36,2*%
%TO.N,GND*%
X191770000Y-129710000D03*
%TD*%
%TO.P,C37,1*%
%TO.N,+3V3*%
X229743000Y-127723500D03*
%TO.P,C37,2*%
%TO.N,GND*%
X229743000Y-129798500D03*
%TD*%
D18*
%TO.P,C38,1*%
%TO.N,+3V3*%
X123190000Y-130599000D03*
%TO.P,C38,2*%
%TO.N,GND*%
X123190000Y-128524000D03*
%TD*%
D34*
%TO.P,C39,1*%
%TO.N,+3V3*%
X120650000Y-130633000D03*
%TO.P,C39,2*%
%TO.N,GND*%
X120650000Y-127508000D03*
%TD*%
%TO.P,C40,1*%
%TO.N,+3V3*%
X154432000Y-126746000D03*
%TO.P,C40,2*%
%TO.N,GND*%
X154432000Y-123621000D03*
%TD*%
D35*
%TO.P,C41,1*%
%TO.N,+3V3*%
X189230000Y-127050000D03*
%TO.P,C41,2*%
%TO.N,GND*%
X189230000Y-130175000D03*
%TD*%
%TO.P,C42,1*%
%TO.N,+3V3*%
X227330000Y-127215500D03*
%TO.P,C42,2*%
%TO.N,GND*%
X227330000Y-130340500D03*
%TD*%
D24*
%TO.P,R13,1*%
%TO.N,+3V3*%
X202565000Y-124349000D03*
%TO.P,R13,2*%
%TO.N,GPIOI_2*%
X202565000Y-126349000D03*
%TD*%
%TO.P,R16,1*%
%TO.N,+3V3*%
X200279000Y-124349000D03*
%TO.P,R16,2*%
%TO.N,XSHUT_2*%
X200279000Y-126349000D03*
%TD*%
%TO.P,R17,1*%
%TO.N,+3V3*%
X240411000Y-124349000D03*
%TO.P,R17,2*%
%TO.N,GPIOI_3*%
X240411000Y-126349000D03*
%TD*%
%TO.P,R30,1*%
%TO.N,+3V3*%
X238252000Y-124381000D03*
%TO.P,R30,2*%
%TO.N,XSHUT_3*%
X238252000Y-126381000D03*
%TD*%
D23*
%TO.P,R31,1*%
%TO.N,+3V3*%
X131318000Y-130556000D03*
%TO.P,R31,2*%
%TO.N,GPIOI_0*%
X131318000Y-128556000D03*
%TD*%
%TO.P,R32,1*%
%TO.N,+3V3*%
X129032000Y-130540000D03*
%TO.P,R32,2*%
%TO.N,XSHUT_0*%
X129032000Y-128540000D03*
%TD*%
D32*
%TO.P,C8,1*%
%TO.N,+3V3*%
X166243000Y-131418500D03*
%TO.P,C8,2*%
%TO.N,GND*%
X166243000Y-129693500D03*
%TD*%
%TO.P,C9,1*%
%TO.N,+3V3*%
X161671000Y-131418500D03*
%TO.P,C9,2*%
%TO.N,GND*%
X161671000Y-129693500D03*
%TD*%
D18*
%TO.P,C10,1*%
%TO.N,+3V3*%
X156972000Y-126767500D03*
%TO.P,C10,2*%
%TO.N,GND*%
X156972000Y-124692500D03*
%TD*%
%TO.P,C12,1*%
%TO.N,+3V3*%
X139700000Y-125011000D03*
%TO.P,C12,2*%
%TO.N,GND*%
X139700000Y-122936000D03*
%TD*%
D24*
%TO.P,R12,1*%
%TO.N,+3V3*%
X163830000Y-124349000D03*
%TO.P,R12,2*%
%TO.N,GPIOI_1*%
X163830000Y-126349000D03*
%TD*%
%TO.P,R29,1*%
%TO.N,+3V3*%
X161544000Y-124365000D03*
%TO.P,R29,2*%
%TO.N,XSHUT_1*%
X161544000Y-126365000D03*
%TD*%
D36*
%TO.P,J14,1*%
%TO.N,GND*%
X207137000Y-134148000D03*
%TO.P,J14,2*%
%TO.N,SDA1*%
X205867000Y-138648000D03*
%TO.P,J14,3*%
%TO.N,GND*%
X204597000Y-134148000D03*
%TO.P,J14,4*%
%TO.N,SCL1*%
X203327000Y-138648000D03*
%TO.P,J14,5*%
%TO.N,GND*%
X202057000Y-134148000D03*
%TO.P,J14,6*%
%TO.N,XSHUT_2*%
X200787000Y-138648000D03*
%TO.P,J14,7*%
%TO.N,GND*%
X199517000Y-134148000D03*
%TO.P,J14,8*%
%TO.N,GPIOI_2*%
X198247000Y-138648000D03*
%TO.P,J14,9*%
%TO.N,+3V3*%
X196977000Y-134148000D03*
%TO.P,J14,10*%
%TO.N,GND*%
X195707000Y-138648000D03*
%TD*%
%TO.P,J15,1*%
%TO.N,GND*%
X245237000Y-134148000D03*
%TO.P,J15,2*%
%TO.N,SDA1*%
X243967000Y-138648000D03*
%TO.P,J15,3*%
%TO.N,GND*%
X242697000Y-134148000D03*
%TO.P,J15,4*%
%TO.N,SCL1*%
X241427000Y-138648000D03*
%TO.P,J15,5*%
%TO.N,GND*%
X240157000Y-134148000D03*
%TO.P,J15,6*%
%TO.N,XSHUT_3*%
X238887000Y-138648000D03*
%TO.P,J15,7*%
%TO.N,GND*%
X237617000Y-134148000D03*
%TO.P,J15,8*%
%TO.N,GPIOI_3*%
X236347000Y-138648000D03*
%TO.P,J15,9*%
%TO.N,+3V3*%
X235077000Y-134148000D03*
%TO.P,J15,10*%
%TO.N,GND*%
X233807000Y-138648000D03*
%TD*%
%TO.P,J16,1*%
%TO.N,GND*%
X131572000Y-146467000D03*
%TO.P,J16,2*%
%TO.N,SDA1*%
X130302000Y-150967000D03*
%TO.P,J16,3*%
%TO.N,GND*%
X129032000Y-146467000D03*
%TO.P,J16,4*%
%TO.N,SCL1*%
X127762000Y-150967000D03*
%TO.P,J16,5*%
%TO.N,GND*%
X126492000Y-146467000D03*
%TO.P,J16,6*%
%TO.N,XSHUT_1*%
X125222000Y-150967000D03*
%TO.P,J16,7*%
%TO.N,GND*%
X123952000Y-146467000D03*
%TO.P,J16,8*%
%TO.N,GPIOI_1*%
X122682000Y-150967000D03*
%TO.P,J16,9*%
%TO.N,+3V3*%
X121412000Y-146467000D03*
%TO.P,J16,10*%
%TO.N,GND*%
X120142000Y-150967000D03*
%TD*%
%TO.P,J20,1*%
%TO.N,GND*%
X131572000Y-110399000D03*
%TO.P,J20,2*%
%TO.N,SDA1*%
X130302000Y-114899000D03*
%TO.P,J20,3*%
%TO.N,GND*%
X129032000Y-110399000D03*
%TO.P,J20,4*%
%TO.N,SCL1*%
X127762000Y-114899000D03*
%TO.P,J20,5*%
%TO.N,GND*%
X126492000Y-110399000D03*
%TO.P,J20,6*%
%TO.N,XSHUT_2*%
X125222000Y-114899000D03*
%TO.P,J20,7*%
%TO.N,GND*%
X123952000Y-110399000D03*
%TO.P,J20,8*%
%TO.N,GPIOI_2*%
X122682000Y-114899000D03*
%TO.P,J20,9*%
%TO.N,+3V3*%
X121412000Y-110399000D03*
%TO.P,J20,10*%
%TO.N,GND*%
X120142000Y-114899000D03*
%TD*%
%TO.P,J21,1*%
%TO.N,GND*%
X131572000Y-135164000D03*
%TO.P,J21,2*%
%TO.N,SDA1*%
X130302000Y-139664000D03*
%TO.P,J21,3*%
%TO.N,GND*%
X129032000Y-135164000D03*
%TO.P,J21,4*%
%TO.N,SCL1*%
X127762000Y-139664000D03*
%TO.P,J21,5*%
%TO.N,GND*%
X126492000Y-135164000D03*
%TO.P,J21,6*%
%TO.N,XSHUT_3*%
X125222000Y-139664000D03*
%TO.P,J21,7*%
%TO.N,GND*%
X123952000Y-135164000D03*
%TO.P,J21,8*%
%TO.N,GPIOI_3*%
X122682000Y-139664000D03*
%TO.P,J21,9*%
%TO.N,+3V3*%
X121412000Y-135164000D03*
%TO.P,J21,10*%
%TO.N,GND*%
X120142000Y-139664000D03*
%TD*%
%TO.P,J13,1*%
%TO.N,GND*%
X169037000Y-134148000D03*
%TO.P,J13,2*%
%TO.N,SDA1*%
X167767000Y-138648000D03*
%TO.P,J13,3*%
%TO.N,GND*%
X166497000Y-134148000D03*
%TO.P,J13,4*%
%TO.N,SCL1*%
X165227000Y-138648000D03*
%TO.P,J13,5*%
%TO.N,GND*%
X163957000Y-134148000D03*
%TO.P,J13,6*%
%TO.N,XSHUT_1*%
X162687000Y-138648000D03*
%TO.P,J13,7*%
%TO.N,GND*%
X161417000Y-134148000D03*
%TO.P,J13,8*%
%TO.N,GPIOI_1*%
X160147000Y-138648000D03*
%TO.P,J13,9*%
%TO.N,+3V3*%
X158877000Y-134148000D03*
%TO.P,J13,10*%
%TO.N,GND*%
X157607000Y-138648000D03*
%TD*%
D37*
%TO.P,TP3,1,1*%
%TO.N,SCL1*%
X168148000Y-143510000D03*
%TD*%
%TO.P,TP4,1,1*%
%TO.N,SDA1*%
X171323000Y-143510000D03*
%TD*%
%TO.P,TP5,1,1*%
%TO.N,XSHUT_1*%
X164973000Y-143510000D03*
%TD*%
%TO.P,TP6,1,1*%
%TO.N,GPIOI_1*%
X161798000Y-143510000D03*
%TD*%
%TO.P,TP7,1,1*%
%TO.N,GND*%
X155448000Y-143510000D03*
%TD*%
%TO.P,TP8,1,1*%
%TO.N,+3V3*%
X158623000Y-143510000D03*
%TD*%
%TO.P,TP9,1,1*%
%TO.N,SCL1*%
X206248000Y-143510000D03*
%TD*%
%TO.P,TP10,1,1*%
%TO.N,SDA1*%
X209423000Y-143510000D03*
%TD*%
%TO.P,TP11,1,1*%
%TO.N,XSHUT_2*%
X203073000Y-143510000D03*
%TD*%
%TO.P,TP12,1,1*%
%TO.N,GPIOI_2*%
X199898000Y-143510000D03*
%TD*%
%TO.P,TP13,1,1*%
%TO.N,GND*%
X193548000Y-143510000D03*
%TD*%
%TO.P,TP15,1,1*%
%TO.N,SCL1*%
X244348000Y-143510000D03*
%TD*%
%TO.P,TP16,1,1*%
%TO.N,SDA1*%
X247523000Y-143510000D03*
%TD*%
%TO.P,TP17,1,1*%
%TO.N,XSHUT_3*%
X241173000Y-143510000D03*
%TD*%
%TO.P,TP18,1,1*%
%TO.N,GPIOI_3*%
X237998000Y-143510000D03*
%TD*%
%TO.P,TP19,1,1*%
%TO.N,GND*%
X231648000Y-143510000D03*
%TD*%
%TO.P,TP20,1,1*%
%TO.N,+3V3*%
X234823000Y-143510000D03*
%TD*%
%TO.P,TP14,1,1*%
%TO.N,+3V3*%
X196723000Y-143510000D03*
%TD*%
D38*
%TO.N,+3V3*%
X151638000Y-125730000D03*
%TO.N,GND*%
X93339490Y-125724490D03*
X203291000Y-134148000D03*
X243078000Y-129667000D03*
X99943490Y-120390490D03*
X241391000Y-134148000D03*
X165191000Y-134148000D03*
X126492000Y-148590000D03*
X129032000Y-148590000D03*
X50038000Y-119126000D03*
X60960000Y-116586000D03*
X56769000Y-152146000D03*
X131572000Y-148590000D03*
X127726000Y-110399000D03*
X92202000Y-135640500D03*
X82417490Y-122803490D03*
X51816000Y-107569000D03*
X200751000Y-134148000D03*
X58547000Y-153289000D03*
X120650000Y-125730000D03*
X60325000Y-152146000D03*
X192024000Y-131064000D03*
X139700000Y-121539000D03*
X123952000Y-148590000D03*
X160453750Y-129224652D03*
X125186000Y-110399000D03*
X154432000Y-124968000D03*
X130266000Y-135164000D03*
X51308000Y-105029000D03*
X57912000Y-115570000D03*
X120142000Y-148590000D03*
X193548000Y-130048000D03*
X119888000Y-137160000D03*
X45847000Y-149352000D03*
X77337490Y-135376490D03*
X45720000Y-117856000D03*
X122428000Y-132334000D03*
X156972000Y-122936000D03*
X83629500Y-148145500D03*
X79115490Y-134868490D03*
X45847000Y-147955000D03*
X127726000Y-135164000D03*
X130266000Y-110399000D03*
X45212000Y-122428000D03*
X225679000Y-130302000D03*
X58547000Y-152146000D03*
X45720000Y-119888000D03*
X50292000Y-150876000D03*
X227330000Y-131699000D03*
X162687000Y-134112000D03*
X154432000Y-122174000D03*
X237236000Y-128573000D03*
X126619000Y-133223000D03*
X47371000Y-141478000D03*
X238851000Y-134148000D03*
X138176000Y-122936000D03*
X56769000Y-151003000D03*
X189484000Y-131572000D03*
X46863000Y-149352000D03*
X233807000Y-140970000D03*
X45720000Y-118872000D03*
X58547000Y-154432000D03*
X157607000Y-140843000D03*
X50292000Y-149860000D03*
X44831000Y-141478000D03*
X205232000Y-129540000D03*
X50038000Y-120142000D03*
X205831000Y-134148000D03*
X51435000Y-120142000D03*
X46101000Y-141478000D03*
X195580000Y-141224000D03*
X85280500Y-148145500D03*
X243931000Y-134148000D03*
X70225490Y-141980490D03*
X60960000Y-117602000D03*
X123190000Y-126492000D03*
X163957000Y-131318000D03*
X43180000Y-122428000D03*
X125222000Y-133223000D03*
X73279000Y-143510000D03*
X60325000Y-151003000D03*
X239522000Y-127889000D03*
X86481490Y-133852490D03*
X50038000Y-115697000D03*
X163957000Y-128016000D03*
X84449490Y-148584490D03*
X108817490Y-127248490D03*
X231140000Y-129794000D03*
X201514688Y-127669312D03*
X119634000Y-112268000D03*
X141351000Y-121666000D03*
X46863000Y-150749000D03*
X57912000Y-117602000D03*
X45847000Y-150749000D03*
X167259000Y-129540000D03*
X57912000Y-116586000D03*
X81147490Y-133090490D03*
X197612000Y-129540000D03*
X51435000Y-119126000D03*
X235966000Y-129667000D03*
X51308000Y-106172000D03*
X53848000Y-112522000D03*
X187452000Y-130048000D03*
X89021490Y-130042490D03*
X60960000Y-115570000D03*
X241808000Y-128524000D03*
X125186000Y-135164000D03*
X48641000Y-119126000D03*
X47371000Y-145034000D03*
X44831000Y-145034000D03*
X58547000Y-151003000D03*
X44196000Y-122428000D03*
X94234000Y-133985000D03*
X46101000Y-145034000D03*
X48641000Y-120142000D03*
X90551000Y-134874000D03*
X229743000Y-131064000D03*
X125984000Y-127508000D03*
X71718000Y-140626000D03*
X79623490Y-125343490D03*
X167731000Y-134148000D03*
X52832000Y-107569000D03*
X163940743Y-130048956D03*
X46863000Y-147955000D03*
X70225490Y-134868490D03*
X81401490Y-117977490D03*
%TO.N,VCC*%
X55245000Y-151765000D03*
X55245000Y-150749000D03*
X54229000Y-151765000D03*
X57277000Y-129584000D03*
X57277000Y-127552000D03*
X57277000Y-128568000D03*
X54229000Y-150749000D03*
X57277000Y-126536000D03*
%TO.N,+3V3*%
X243078000Y-131826000D03*
X73533000Y-118872000D03*
X119634000Y-110871000D03*
X63500000Y-146558000D03*
X104394000Y-119088500D03*
X61976000Y-142748000D03*
X87497490Y-133852490D03*
X61976000Y-145288000D03*
X204978000Y-131445000D03*
X61976000Y-144018000D03*
X167767000Y-132207000D03*
X61976000Y-146558000D03*
X94234000Y-132969000D03*
X90886490Y-125303490D03*
X160655000Y-131572000D03*
X128214700Y-132287298D03*
X81829488Y-128010490D03*
X83941490Y-130804490D03*
X224282000Y-124968000D03*
X63500000Y-145288000D03*
X197993000Y-131445000D03*
X119380000Y-147320000D03*
X63500000Y-142748000D03*
X119634000Y-109728000D03*
X123444000Y-132334000D03*
X136398000Y-124333000D03*
X137160000Y-125095000D03*
X63500000Y-144018000D03*
X119888000Y-135636000D03*
X97282000Y-118364000D03*
X188722000Y-124968000D03*
X67564000Y-141732000D03*
X187198000Y-124968000D03*
X82671490Y-120898490D03*
X81020490Y-134233490D03*
X92583000Y-119634000D03*
X225933000Y-124968000D03*
X235966000Y-131445000D03*
X119888000Y-134620000D03*
X152654000Y-126746000D03*
X119380000Y-145796000D03*
%TO.N,XSHUT_1*%
X162687000Y-136398000D03*
X138938000Y-135636000D03*
X94107000Y-140462000D03*
X125222000Y-148590000D03*
X161544000Y-127635000D03*
X138938000Y-138938000D03*
%TO.N,GPIOI_1*%
X158988951Y-129809049D03*
X122682000Y-148590000D03*
X113792000Y-138176000D03*
X137922000Y-138938000D03*
X160020000Y-136398000D03*
X88512206Y-125761490D03*
X162941000Y-127635000D03*
X137922000Y-136100972D03*
%TO.N,XSHUT_2*%
X111125000Y-137414000D03*
X94996000Y-139827000D03*
X110998000Y-140799219D03*
X198628000Y-126365000D03*
X200787000Y-136398000D03*
X125222000Y-117348000D03*
%TO.N,GPIOI_2*%
X199009000Y-128248020D03*
X198247000Y-136398000D03*
X202565000Y-127762000D03*
X122682000Y-117348000D03*
%TO.N,XSHUT_0*%
X129032000Y-127000000D03*
X93218000Y-139827000D03*
X116332000Y-139827000D03*
%TO.N,GPIOI_0*%
X131318000Y-127000000D03*
X113792000Y-137033000D03*
X89910490Y-124454490D03*
%TO.N,LED_3*%
X99689490Y-127250501D03*
X91053490Y-121914490D03*
%TO.N,LED_4*%
X91246503Y-120715508D03*
X99933042Y-125051500D03*
%TO.N,LED_5*%
X91206489Y-119645186D03*
X99943490Y-122676490D03*
%TO.N,LED_1*%
X89783490Y-123184490D03*
X100064501Y-131820490D03*
%TO.N,LED_2*%
X91053490Y-123184490D03*
X99696679Y-128249978D03*
%TO.N,SW_1*%
X106299000Y-118364000D03*
X109474000Y-140843000D03*
X109347000Y-128905000D03*
X109347000Y-137414000D03*
%TO.N,SW_2*%
X110236000Y-141605000D03*
X94872692Y-119107607D03*
X110236000Y-136906000D03*
%TO.N,+5V*%
X56261000Y-118110000D03*
X45974000Y-108331000D03*
X43942000Y-108331000D03*
X46990000Y-108331000D03*
X44958000Y-108331000D03*
%TO.N,/STM32L151RET6TR/BOOT*%
X75559490Y-132074490D03*
%TO.N,/STM32L151RET6TR/RST*%
X84957490Y-138170490D03*
%TO.N,SCL1*%
X127762000Y-154686000D03*
X69463490Y-132836490D03*
X203327000Y-136398000D03*
X127762000Y-137414000D03*
X241427000Y-136398000D03*
X165227000Y-136398000D03*
%TO.N,SDA1*%
X205867000Y-136398000D03*
X167767000Y-136398000D03*
X70225490Y-130296490D03*
X131572000Y-137795000D03*
X69468143Y-133857143D03*
X243967000Y-136398000D03*
X130302000Y-153416000D03*
%TO.N,/STM32L151RET6TR/FTDI_RTS*%
X81655490Y-130550490D03*
X80131490Y-123438490D03*
%TO.N,/STM32L151RET6TR/FTDI_CTS*%
X81909490Y-131566490D03*
%TO.N,/STM32L151RET6TR/SW0*%
X69209490Y-125724490D03*
X74797490Y-125724490D03*
%TO.N,SCL2*%
X68701490Y-114548490D03*
X84703490Y-121914490D03*
%TO.N,SDA2*%
X85186510Y-119995408D03*
X71241490Y-114548490D03*
%TO.N,/STM32L151RET6TR/PIN41*%
X84957490Y-125978490D03*
%TO.N,/STM32L151RET6TR/PIN29*%
X88005490Y-130042490D03*
%TO.N,/STM32L151RET6TR/PIN30*%
X86989490Y-130042490D03*
%TO.N,/STM32L151RET6TR/PC8*%
X73781490Y-114548490D03*
%TO.N,/STM32L151RET6TR/PA9*%
X66161490Y-114548490D03*
%TO.N,/STM32L151RET6TR/PA10*%
X63621490Y-114294490D03*
%TO.N,BUCK_5_EN*%
X82163490Y-134106490D03*
X75311000Y-113157000D03*
X53848000Y-111506000D03*
X61468000Y-110998000D03*
%TO.N,XSHUT_3*%
X95885000Y-140462000D03*
X238887000Y-136271000D03*
X125222000Y-141986000D03*
X236601000Y-126492000D03*
%TO.N,GPIOI_3*%
X233246989Y-129667000D03*
X236347000Y-136144000D03*
X240538000Y-127889000D03*
X87713990Y-126492000D03*
X122682000Y-141986000D03*
%TD*%
D39*
%TO.N,SDA1*%
X130302000Y-123190000D02*
X130302000Y-114899000D01*
X130048000Y-123444000D02*
X130302000Y-123190000D01*
X133545511Y-126941511D02*
X130048000Y-123444000D01*
X133545511Y-137420489D02*
X133545511Y-126941511D01*
%TO.N,SCL1*%
X127762000Y-138914000D02*
X127762000Y-139664000D01*
X133096000Y-127508000D02*
X133096000Y-136539022D01*
X127762000Y-122174000D02*
X133096000Y-127508000D01*
X133096000Y-136539022D02*
X132646511Y-136988511D01*
X132646511Y-136988511D02*
X129687489Y-136988511D01*
X129687489Y-136988511D02*
X127762000Y-138914000D01*
X127762000Y-114899000D02*
X127762000Y-122174000D01*
D40*
%TO.N,+3V3*%
X151638000Y-125730000D02*
X152654000Y-126746000D01*
D39*
%TO.N,LED_5*%
X94497304Y-122936000D02*
X91206489Y-119645186D01*
X99683980Y-122936000D02*
X94497304Y-122936000D01*
X99943490Y-122676490D02*
X99683980Y-122936000D01*
%TO.N,GND*%
X127726000Y-110399000D02*
X129032000Y-110399000D01*
X154432000Y-123621000D02*
X154432000Y-124968000D01*
D41*
X225717500Y-130340500D02*
X225679000Y-130302000D01*
D39*
X120142000Y-112776000D02*
X119634000Y-112268000D01*
X126746000Y-127508000D02*
X125984000Y-127508000D01*
X125222000Y-127762000D02*
X125476000Y-127508000D01*
X90545490Y-133852490D02*
X90545490Y-134868490D01*
D41*
X189230000Y-131318000D02*
X189484000Y-131572000D01*
D39*
X120650000Y-127508000D02*
X120650000Y-125730000D01*
X125222000Y-128831000D02*
X125222000Y-127762000D01*
X123595000Y-133120000D02*
X122658000Y-133120000D01*
D41*
X203291000Y-134148000D02*
X202057000Y-134148000D01*
X238851000Y-134148000D02*
X240157000Y-134148000D01*
D40*
X154432000Y-122174000D02*
X154432000Y-124968000D01*
D41*
X245237000Y-134148000D02*
X243931000Y-134148000D01*
X163957000Y-134148000D02*
X165191000Y-134148000D01*
X195580000Y-141478000D02*
X193548000Y-143510000D01*
D39*
X123952000Y-146467000D02*
X126492000Y-146467000D01*
X237236000Y-129667000D02*
X237236000Y-128573000D01*
D41*
X199517000Y-134148000D02*
X200751000Y-134148000D01*
D39*
X160922598Y-129693500D02*
X160453750Y-129224652D01*
X92466010Y-135376490D02*
X92202000Y-135640500D01*
D41*
X191770000Y-130810000D02*
X192024000Y-131064000D01*
D40*
X156972000Y-122936000D02*
X156972000Y-124692500D01*
D41*
X205831000Y-134148000D02*
X207137000Y-134148000D01*
X191770000Y-129710000D02*
X191770000Y-130810000D01*
X205078500Y-129693500D02*
X205232000Y-129540000D01*
D39*
X90842490Y-131820490D02*
X90842490Y-133555490D01*
D41*
X189230000Y-130175000D02*
X189230000Y-131318000D01*
D40*
X139700000Y-122936000D02*
X139700000Y-121539000D01*
D41*
X167731000Y-134148000D02*
X169037000Y-134148000D01*
X237617000Y-134148000D02*
X238851000Y-134148000D01*
D39*
X93339490Y-135376490D02*
X92466010Y-135376490D01*
X122658000Y-133120000D02*
X122428000Y-132890000D01*
X123952000Y-146467000D02*
X123952000Y-148590000D01*
D41*
X166497000Y-134148000D02*
X167731000Y-134148000D01*
D39*
X161671000Y-129693500D02*
X160922598Y-129693500D01*
X80639490Y-126994490D02*
X80639490Y-126359490D01*
X120142000Y-137414000D02*
X119888000Y-137160000D01*
D41*
X195580000Y-141224000D02*
X195580000Y-141478000D01*
D39*
X126492000Y-110399000D02*
X127726000Y-110399000D01*
X120142000Y-114899000D02*
X120142000Y-112776000D01*
D41*
X197765500Y-129693500D02*
X197612000Y-129540000D01*
X200751000Y-134148000D02*
X202057000Y-134148000D01*
X204597000Y-134148000D02*
X205831000Y-134148000D01*
D39*
X127000000Y-128831000D02*
X127000000Y-127762000D01*
X120142000Y-150967000D02*
X120142000Y-148590000D01*
X131572000Y-110399000D02*
X130266000Y-110399000D01*
X90842490Y-133555490D02*
X90545490Y-133852490D01*
D40*
X155900500Y-123621000D02*
X156972000Y-124692500D01*
D41*
X231135500Y-129798500D02*
X231140000Y-129794000D01*
D39*
X122428000Y-132890000D02*
X122428000Y-132334000D01*
D40*
X139700000Y-122936000D02*
X138176000Y-122936000D01*
D39*
X81909490Y-119628490D02*
X80131490Y-119628490D01*
X90842490Y-131820490D02*
X90799490Y-131820490D01*
X81909490Y-119628490D02*
X81909490Y-118485490D01*
D41*
X187579000Y-130175000D02*
X187452000Y-130048000D01*
X243931000Y-134148000D02*
X242697000Y-134148000D01*
X199136000Y-129693500D02*
X197765500Y-129693500D01*
X204597000Y-134148000D02*
X203291000Y-134148000D01*
D39*
X80639490Y-126359490D02*
X79623490Y-125343490D01*
D41*
X193210000Y-129710000D02*
X193548000Y-130048000D01*
X233807000Y-141351000D02*
X231648000Y-143510000D01*
X161417000Y-134148000D02*
X162651000Y-134148000D01*
D39*
X127000000Y-127762000D02*
X126746000Y-127508000D01*
X154432000Y-123621000D02*
X154432000Y-122174000D01*
X125984000Y-127508000D02*
X125476000Y-127508000D01*
D41*
X157607000Y-140843000D02*
X157607000Y-141351000D01*
X195707000Y-141097000D02*
X195580000Y-141224000D01*
D39*
X127726000Y-135164000D02*
X126492000Y-135164000D01*
D41*
X157607000Y-141351000D02*
X155448000Y-143510000D01*
X227330000Y-130340500D02*
X227330000Y-131699000D01*
D39*
X166243000Y-129693500D02*
X167105500Y-129693500D01*
X90799490Y-131820490D02*
X89021490Y-130042490D01*
D41*
X162651000Y-134148000D02*
X162687000Y-134112000D01*
X163921000Y-134112000D02*
X163957000Y-134148000D01*
D39*
X125186000Y-110399000D02*
X126492000Y-110399000D01*
D41*
X227330000Y-130340500D02*
X225717500Y-130340500D01*
D39*
X131572000Y-135164000D02*
X130266000Y-135164000D01*
X237236000Y-129667000D02*
X235966000Y-129667000D01*
D40*
X154432000Y-123621000D02*
X155900500Y-123621000D01*
D39*
X123952000Y-135164000D02*
X123952000Y-133477000D01*
X80131490Y-119628490D02*
X79623490Y-120136490D01*
X85158490Y-133852490D02*
X86481490Y-133852490D01*
X243051500Y-129693500D02*
X243078000Y-129667000D01*
D40*
X139700000Y-122936000D02*
X140081000Y-122936000D01*
D41*
X195707000Y-138648000D02*
X195707000Y-141097000D01*
X229743000Y-129798500D02*
X231135500Y-129798500D01*
D39*
X129032000Y-146467000D02*
X129032000Y-148590000D01*
X90545490Y-134868490D02*
X90551000Y-134874000D01*
X120142000Y-139664000D02*
X120142000Y-137414000D01*
X123952000Y-133477000D02*
X123595000Y-133120000D01*
X123952000Y-135164000D02*
X125186000Y-135164000D01*
D41*
X233807000Y-140970000D02*
X233807000Y-141351000D01*
D39*
X167105500Y-129693500D02*
X167259000Y-129540000D01*
D41*
X203835000Y-129693500D02*
X205078500Y-129693500D01*
D39*
X241808000Y-129693500D02*
X243051500Y-129693500D01*
D41*
X229743000Y-129798500D02*
X229743000Y-131064000D01*
D39*
X123190000Y-128524000D02*
X123190000Y-126492000D01*
X85158490Y-132074490D02*
X85158490Y-133852490D01*
D41*
X233807000Y-138648000D02*
X233807000Y-140970000D01*
D39*
X130266000Y-110399000D02*
X129032000Y-110399000D01*
D41*
X162687000Y-134112000D02*
X163921000Y-134112000D01*
X191770000Y-129710000D02*
X193210000Y-129710000D01*
X241391000Y-134148000D02*
X240157000Y-134148000D01*
X189230000Y-130175000D02*
X187579000Y-130175000D01*
D39*
X125186000Y-135164000D02*
X126492000Y-135164000D01*
X241808000Y-129693500D02*
X241808000Y-128524000D01*
D41*
X157607000Y-138648000D02*
X157607000Y-140843000D01*
D39*
X77337490Y-134074490D02*
X77337490Y-135376490D01*
X81909490Y-118485490D02*
X81401490Y-117977490D01*
X131572000Y-146467000D02*
X131572000Y-148590000D01*
X123952000Y-110399000D02*
X125186000Y-110399000D01*
D41*
X165191000Y-134148000D02*
X166497000Y-134148000D01*
X242697000Y-134148000D02*
X241391000Y-134148000D01*
D39*
X126492000Y-146467000D02*
X126492000Y-148590000D01*
X130266000Y-135164000D02*
X129032000Y-135164000D01*
D40*
X140081000Y-122936000D02*
X141351000Y-121666000D01*
D39*
X129032000Y-135164000D02*
X127726000Y-135164000D01*
D41*
%TO.N,+3V3*%
X239522000Y-130048000D02*
X238178000Y-131392000D01*
D39*
X127016000Y-130540000D02*
X127000000Y-130556000D01*
X73241490Y-118580490D02*
X73533000Y-118872000D01*
X88820490Y-131873490D02*
X88767490Y-131820490D01*
D40*
X137244000Y-125011000D02*
X137160000Y-125095000D01*
D39*
X161544000Y-124365000D02*
X160369000Y-124365000D01*
D41*
X235077000Y-143256000D02*
X235077000Y-134148000D01*
X240892500Y-131418500D02*
X239522000Y-130048000D01*
D39*
X83433490Y-132074490D02*
X83433490Y-131312490D01*
D41*
X201676000Y-130556000D02*
X200813500Y-131418500D01*
D40*
X121412000Y-146467000D02*
X120051000Y-146467000D01*
D39*
X72216480Y-117351500D02*
X73241490Y-116326490D01*
D41*
X238178000Y-131392000D02*
X237236000Y-131392000D01*
D39*
X99567510Y-119220510D02*
X104261990Y-119220510D01*
D40*
X227330000Y-127215500D02*
X227330000Y-126365000D01*
D39*
X127000000Y-131318000D02*
X127969298Y-132287298D01*
D41*
X162941000Y-130810000D02*
X162433000Y-131318000D01*
D39*
X97319510Y-118326490D02*
X97282000Y-118364000D01*
X238252000Y-124381000D02*
X240379000Y-124381000D01*
X240379000Y-124381000D02*
X240411000Y-124349000D01*
D40*
X120432000Y-135164000D02*
X119888000Y-134620000D01*
X121412000Y-135164000D02*
X120360000Y-135164000D01*
X156950500Y-126746000D02*
X156972000Y-126767500D01*
D39*
X127969298Y-132287298D02*
X128214700Y-132287298D01*
D41*
X161414089Y-128706480D02*
X161006805Y-128299195D01*
X161006805Y-128299195D02*
X157509195Y-128299195D01*
X241808000Y-131418500D02*
X240892500Y-131418500D01*
D39*
X66701490Y-116326490D02*
X67726500Y-117351500D01*
D40*
X137160000Y-125095000D02*
X136017000Y-123952000D01*
D41*
X156972000Y-127762000D02*
X156972000Y-126767500D01*
X201676000Y-130556000D02*
X201676000Y-129032000D01*
D39*
X104261990Y-119220510D02*
X104394000Y-119088500D01*
D40*
X121412000Y-135164000D02*
X121412000Y-133477000D01*
X189139000Y-134148000D02*
X186352489Y-131361489D01*
D39*
X124206000Y-132334000D02*
X123444000Y-132334000D01*
X229743000Y-126111000D02*
X231473000Y-124381000D01*
X163830000Y-124349000D02*
X161560000Y-124349000D01*
D41*
X165227000Y-131445000D02*
X164473511Y-132198489D01*
X162941000Y-131318000D02*
X162306000Y-131318000D01*
D39*
X98673490Y-118326490D02*
X99567510Y-119220510D01*
X73241490Y-116326490D02*
X73241490Y-118580490D01*
D41*
X157509195Y-128299195D02*
X156972000Y-127762000D01*
D40*
X189230000Y-125476000D02*
X188722000Y-124968000D01*
X186352489Y-131361489D02*
X186352489Y-128099511D01*
D41*
X236019000Y-131392000D02*
X235966000Y-131445000D01*
D39*
X159464500Y-126444500D02*
X159141500Y-126767500D01*
D40*
X120051000Y-146467000D02*
X119380000Y-145796000D01*
D39*
X161560000Y-124349000D02*
X161544000Y-124365000D01*
X80639490Y-129069490D02*
X80770488Y-129069490D01*
D41*
X95414490Y-135376490D02*
X98165490Y-135376490D01*
D40*
X120233000Y-146467000D02*
X119380000Y-147320000D01*
X189230000Y-127050000D02*
X191185000Y-127050000D01*
X186352489Y-128099511D02*
X187402000Y-127050000D01*
D39*
X160369000Y-124365000D02*
X159464500Y-125269500D01*
D41*
X204978000Y-131445000D02*
X203861500Y-131445000D01*
D40*
X235077000Y-134148000D02*
X226477000Y-134148000D01*
D41*
X201676000Y-129032000D02*
X200042520Y-127398520D01*
X199109500Y-131445000D02*
X199136000Y-131418500D01*
D40*
X224028000Y-128524000D02*
X225336500Y-127215500D01*
D41*
X158623000Y-143510000D02*
X158877000Y-143256000D01*
X166243000Y-131418500D02*
X166978500Y-131418500D01*
D39*
X87497490Y-133852490D02*
X88820490Y-133852490D01*
D40*
X120650000Y-132715000D02*
X121412000Y-133477000D01*
D41*
X161517500Y-131572000D02*
X161671000Y-131418500D01*
X162941000Y-130810000D02*
X162941000Y-131318000D01*
D40*
X227330000Y-126365000D02*
X225933000Y-124968000D01*
D41*
X241808000Y-131418500D02*
X242670500Y-131418500D01*
D40*
X225336500Y-127215500D02*
X227330000Y-127215500D01*
X189230000Y-127050000D02*
X189230000Y-125476000D01*
D39*
X67726500Y-117351500D02*
X72216480Y-117351500D01*
X131302000Y-130540000D02*
X131318000Y-130556000D01*
D40*
X154432000Y-126746000D02*
X152654000Y-126746000D01*
D41*
X164473511Y-132198489D02*
X163636098Y-132198489D01*
D42*
X202565000Y-124349000D02*
X200279000Y-124349000D01*
D39*
X80770488Y-129069490D02*
X81829488Y-128010490D01*
D41*
X196977000Y-143256000D02*
X196977000Y-134148000D01*
D40*
X121412000Y-146467000D02*
X120233000Y-146467000D01*
D41*
X160655000Y-131572000D02*
X161517500Y-131572000D01*
X163636098Y-132198489D02*
X162941000Y-131503391D01*
X193149480Y-127398520D02*
X192913000Y-127635000D01*
X162941000Y-129413000D02*
X162234480Y-128706480D01*
X229743000Y-127723500D02*
X237832500Y-127723500D01*
D39*
X98673490Y-118326490D02*
X97319510Y-118326490D01*
X229743000Y-127723500D02*
X229743000Y-126111000D01*
D40*
X187402000Y-127050000D02*
X189230000Y-127050000D01*
D41*
X158877000Y-143256000D02*
X158877000Y-134148000D01*
X201676000Y-130556000D02*
X202538500Y-131418500D01*
D40*
X229235000Y-127215500D02*
X229743000Y-127723500D01*
D39*
X83433490Y-132074490D02*
X83433490Y-133852490D01*
D40*
X154432000Y-129703000D02*
X154432000Y-126746000D01*
X158877000Y-134148000D02*
X154432000Y-129703000D01*
X121412000Y-110399000D02*
X120305000Y-110399000D01*
D41*
X166978500Y-131418500D02*
X167767000Y-132207000D01*
X192913000Y-127635000D02*
X191770000Y-127635000D01*
D40*
X224028000Y-131699000D02*
X224028000Y-128524000D01*
X121412000Y-135164000D02*
X120432000Y-135164000D01*
D39*
X91815490Y-118326490D02*
X91815490Y-118866490D01*
D40*
X196977000Y-134148000D02*
X189139000Y-134148000D01*
X120360000Y-135164000D02*
X119888000Y-135636000D01*
X120940000Y-110871000D02*
X121412000Y-110399000D01*
D39*
X91815490Y-118866490D02*
X92583000Y-119634000D01*
D41*
X162306000Y-131318000D02*
X161771500Y-131318000D01*
X203861500Y-131445000D02*
X203835000Y-131418500D01*
D40*
X227330000Y-127215500D02*
X229235000Y-127215500D01*
D39*
X123156000Y-130633000D02*
X123190000Y-130599000D01*
D41*
X234823000Y-143510000D02*
X235077000Y-143256000D01*
D42*
X195056000Y-124349000D02*
X191770000Y-127635000D01*
D39*
X159464500Y-125269500D02*
X159464500Y-126444500D01*
X83179490Y-129340490D02*
X83179490Y-130042490D01*
X129032000Y-130540000D02*
X131302000Y-130540000D01*
D41*
X161771500Y-131318000D02*
X161671000Y-131418500D01*
D40*
X120305000Y-110399000D02*
X119634000Y-109728000D01*
D39*
X123190000Y-130599000D02*
X125179000Y-130599000D01*
D41*
X166216500Y-131445000D02*
X165227000Y-131445000D01*
X95414490Y-133964099D02*
X94419391Y-132969000D01*
X200813500Y-131418500D02*
X199136000Y-131418500D01*
D39*
X83179490Y-130042490D02*
X83941490Y-130804490D01*
D41*
X94419391Y-132969000D02*
X94234000Y-132969000D01*
X95414490Y-135376490D02*
X95414490Y-133964099D01*
X239522000Y-129413000D02*
X239522000Y-130048000D01*
D40*
X120650000Y-130633000D02*
X120650000Y-132715000D01*
D39*
X120650000Y-130633000D02*
X123156000Y-130633000D01*
X125179000Y-130599000D02*
X125222000Y-130556000D01*
X88820490Y-133852490D02*
X88820490Y-131873490D01*
X125222000Y-131318000D02*
X124206000Y-132334000D01*
D40*
X139700000Y-125011000D02*
X137244000Y-125011000D01*
D41*
X237832500Y-127723500D02*
X239522000Y-129413000D01*
X162234480Y-128706480D02*
X161414089Y-128706480D01*
D40*
X225933000Y-124968000D02*
X224282000Y-124968000D01*
X191185000Y-127050000D02*
X191770000Y-127635000D01*
D41*
X197993000Y-131445000D02*
X199109500Y-131445000D01*
D42*
X200279000Y-124349000D02*
X195056000Y-124349000D01*
D41*
X166243000Y-131418500D02*
X166216500Y-131445000D01*
X237236000Y-131392000D02*
X236019000Y-131392000D01*
D39*
X231473000Y-124381000D02*
X238252000Y-124381000D01*
D41*
X162941000Y-131503391D02*
X162941000Y-131318000D01*
D39*
X129032000Y-130540000D02*
X127016000Y-130540000D01*
D40*
X188722000Y-124968000D02*
X187198000Y-124968000D01*
D39*
X83634490Y-119628490D02*
X83634490Y-119935490D01*
D41*
X200042520Y-127398520D02*
X193149480Y-127398520D01*
D39*
X83634490Y-119935490D02*
X82671490Y-120898490D01*
D40*
X226477000Y-134148000D02*
X224028000Y-131699000D01*
X154432000Y-126746000D02*
X156950500Y-126746000D01*
X119634000Y-110871000D02*
X120940000Y-110871000D01*
D39*
X159141500Y-126767500D02*
X156972000Y-126767500D01*
D41*
X242670500Y-131418500D02*
X243078000Y-131826000D01*
X196723000Y-143510000D02*
X196977000Y-143256000D01*
X162941000Y-130810000D02*
X162941000Y-129413000D01*
D39*
X125222000Y-130556000D02*
X127000000Y-130556000D01*
X125222000Y-130556000D02*
X125222000Y-131318000D01*
X127000000Y-130556000D02*
X127000000Y-131318000D01*
D41*
X162433000Y-131318000D02*
X162306000Y-131318000D01*
X202538500Y-131418500D02*
X203835000Y-131418500D01*
D39*
X83433490Y-131312490D02*
X83941490Y-130804490D01*
%TO.N,XSHUT_1*%
X125222000Y-150967000D02*
X125222000Y-148590000D01*
X103632000Y-156972000D02*
X119967000Y-156972000D01*
X103478021Y-156818021D02*
X103632000Y-156972000D01*
X125222000Y-151717000D02*
X125222000Y-150967000D01*
X119967000Y-156972000D02*
X125222000Y-151717000D01*
X94107000Y-154305000D02*
X93218000Y-155194000D01*
X162687000Y-138648000D02*
X162687000Y-136398000D01*
X162687000Y-138648000D02*
X162687000Y-141224000D01*
X162687000Y-141224000D02*
X164973000Y-143510000D01*
X93218000Y-155194000D02*
X94842022Y-156818022D01*
X94842022Y-156818022D02*
X103478021Y-156818021D01*
X94107000Y-140462000D02*
X94107000Y-154305000D01*
X161544000Y-127635000D02*
X161544000Y-126365000D01*
X138938000Y-135636000D02*
X138938000Y-138938000D01*
%TO.N,GPIOI_1*%
X122682000Y-148590000D02*
X122682000Y-150967000D01*
X113321009Y-138646991D02*
X113792000Y-138176000D01*
X137922000Y-136100972D02*
X137922000Y-138938000D01*
X160147000Y-138648000D02*
X160147000Y-141859000D01*
X159004000Y-129824098D02*
X158988951Y-129809049D01*
X163195000Y-127381000D02*
X163576000Y-127381000D01*
X103695859Y-138620141D02*
X103722709Y-138646991D01*
X159004000Y-131064000D02*
X159004000Y-129824098D01*
X160020000Y-138521000D02*
X160147000Y-138648000D01*
X88512206Y-126181466D02*
X96341741Y-134011001D01*
X88512206Y-125761490D02*
X88512206Y-126181466D01*
X102171859Y-137096141D02*
X103695859Y-138620141D01*
X163830000Y-127127000D02*
X163830000Y-126349000D01*
X102171859Y-137096141D02*
X103722709Y-138646991D01*
X160020000Y-132080000D02*
X159004000Y-131064000D01*
X160020000Y-136398000D02*
X160020000Y-138521000D01*
X160020000Y-136398000D02*
X160020000Y-132080000D01*
X96341741Y-134011001D02*
X99086719Y-134011001D01*
X103722709Y-138646991D02*
X113321009Y-138646991D01*
X163576000Y-127381000D02*
X163830000Y-127127000D01*
X162941000Y-127635000D02*
X163195000Y-127381000D01*
X99086719Y-134011001D02*
X102171859Y-137096141D01*
X160147000Y-141859000D02*
X161798000Y-143510000D01*
D42*
%TO.N,XSHUT_2*%
X198628000Y-126365000D02*
X200263000Y-126365000D01*
D39*
X95758000Y-155194000D02*
X96932511Y-156368511D01*
X200787000Y-138648000D02*
X200787000Y-136398000D01*
X110998000Y-149235010D02*
X110998000Y-140799219D01*
X96932511Y-156368511D02*
X103864499Y-156368511D01*
X111065806Y-137354806D02*
X111125000Y-137414000D01*
X111065806Y-136330194D02*
X111065806Y-137354806D01*
X125222000Y-117348000D02*
X111065806Y-131504194D01*
X200787000Y-141224000D02*
X203073000Y-143510000D01*
X200787000Y-138648000D02*
X200787000Y-141224000D01*
X94996000Y-139827000D02*
X94996000Y-154432000D01*
X103864499Y-156368511D02*
X110998000Y-149235010D01*
X94996000Y-154432000D02*
X95758000Y-155194000D01*
D42*
X200263000Y-126365000D02*
X200279000Y-126349000D01*
D39*
X125222000Y-114899000D02*
X125222000Y-117348000D01*
X111065806Y-131504194D02*
X111065806Y-136330194D01*
%TO.N,GPIOI_2*%
X198247000Y-136398000D02*
X198247000Y-138648000D01*
X198247000Y-141859000D02*
X199898000Y-143510000D01*
X197846875Y-132323489D02*
X198051511Y-132323489D01*
X122682000Y-117348000D02*
X122682000Y-114899000D01*
X198247000Y-132518978D02*
X198247000Y-136398000D01*
X198051511Y-132323489D02*
X198247000Y-132518978D01*
D42*
X202565000Y-127762000D02*
X202565000Y-126349000D01*
D39*
X197879366Y-128248020D02*
X196887489Y-129239897D01*
X199009000Y-128248020D02*
X197879366Y-128248020D01*
X198247000Y-138648000D02*
X198247000Y-141859000D01*
X196887489Y-129239897D02*
X196887489Y-131364103D01*
X196887489Y-131364103D02*
X197846875Y-132323489D01*
%TO.N,XSHUT_0*%
X116078000Y-139546031D02*
X116078000Y-139573000D01*
X91059718Y-155194000D02*
X93218000Y-153035718D01*
X95822459Y-139102489D02*
X96266001Y-139546031D01*
X93942511Y-139102489D02*
X95822459Y-139102489D01*
X93218000Y-139827000D02*
X93942511Y-139102489D01*
X116078000Y-139573000D02*
X116332000Y-139827000D01*
X96266001Y-139546031D02*
X116051031Y-139546031D01*
X93218000Y-153035718D02*
X93218000Y-139827000D01*
X129032000Y-127000000D02*
X129032000Y-128540000D01*
X116051031Y-139546031D02*
X116332000Y-139827000D01*
%TO.N,GPIOI_0*%
X131318000Y-127000000D02*
X131318000Y-128556000D01*
X89910490Y-126944046D02*
X89910490Y-124454490D01*
X113792000Y-137033000D02*
X112649000Y-138176000D01*
X98461011Y-131471001D02*
X94437445Y-131471001D01*
X112649000Y-138176000D02*
X105166010Y-138176000D01*
X105166010Y-138176000D02*
X98461011Y-131471001D01*
X94437445Y-131471001D02*
X89910490Y-126944046D01*
%TO.N,LED_3*%
X99687479Y-127248490D02*
X99689490Y-127250501D01*
X91053490Y-121914490D02*
X92577490Y-123438490D01*
X92577490Y-126486490D02*
X93339490Y-127248490D01*
X92577490Y-123438490D02*
X92577490Y-126486490D01*
X93339490Y-127248490D02*
X99687479Y-127248490D01*
%TO.N,LED_4*%
X91433786Y-120898490D02*
X95497786Y-124962490D01*
X91246503Y-120715508D02*
X91429485Y-120898490D01*
X95497786Y-124962490D02*
X99844032Y-124962490D01*
X91429485Y-120898490D02*
X91433786Y-120898490D01*
X99844032Y-124962490D02*
X99933042Y-125051500D01*
%TO.N,LED_1*%
X100064501Y-129655501D02*
X99106487Y-128697487D01*
X100064501Y-131820490D02*
X100064501Y-129655501D01*
X91619979Y-125012365D02*
X89792104Y-123184490D01*
X99106487Y-128697487D02*
X92299635Y-128697487D01*
X91619979Y-128017831D02*
X91619979Y-125012365D01*
X92299635Y-128697487D02*
X91619979Y-128017831D01*
X89792104Y-123184490D02*
X89783490Y-123184490D01*
%TO.N,LED_2*%
X92069490Y-124200490D02*
X92069490Y-127386510D01*
X91053490Y-123184490D02*
X92069490Y-124200490D01*
X92930947Y-128247967D02*
X99694668Y-128247967D01*
X99694668Y-128247967D02*
X99696679Y-128249978D01*
X92069490Y-127386510D02*
X92930947Y-128247967D01*
%TO.N,SW_1*%
X100711000Y-118364000D02*
X106299000Y-118364000D01*
X100705490Y-118358490D02*
X100711000Y-118364000D01*
X109474000Y-146558000D02*
X109474000Y-140843000D01*
X106426000Y-149606000D02*
X109474000Y-146558000D01*
X103378000Y-152654000D02*
X104140000Y-151892000D01*
X104140000Y-151892000D02*
X104775000Y-151257000D01*
X100838000Y-155194000D02*
X103378000Y-152654000D01*
X104775000Y-151257000D02*
X106426000Y-149606000D01*
X109347000Y-137414000D02*
X109347000Y-128905000D01*
%TO.N,SW_2*%
X97304085Y-121539000D02*
X94872692Y-119107607D01*
X110236000Y-136906000D02*
X110236000Y-126873000D01*
X93847490Y-118358490D02*
X94123575Y-118358490D01*
X110236000Y-148463704D02*
X110236000Y-141605000D01*
X103378000Y-155194000D02*
X103505704Y-155194000D01*
X110236000Y-126873000D02*
X104902000Y-121539000D01*
X103505704Y-155194000D02*
X110236000Y-148463704D01*
X104902000Y-121539000D02*
X97304085Y-121539000D01*
X94123575Y-118358490D02*
X94872692Y-119107607D01*
%TO.N,Net-(C1-Pad1)*%
X98980490Y-116633490D02*
X98673490Y-116326490D01*
X100705490Y-116633490D02*
X98980490Y-116633490D01*
%TO.N,Net-(C2-Pad1)*%
X91815490Y-116326490D02*
X93540490Y-116326490D01*
X93540490Y-116326490D02*
X93847490Y-116633490D01*
%TO.N,/STM32L151RET6TR/BOOT*%
X77337490Y-132074490D02*
X75559490Y-132074490D01*
%TO.N,/STM32L151RET6TR/RST*%
X68916999Y-128949001D02*
X76750565Y-128949001D01*
X68193490Y-127122900D02*
X68193490Y-128225492D01*
X80171999Y-132370435D02*
X80171999Y-134458001D01*
X83884488Y-138170490D02*
X84957490Y-138170490D01*
X66923490Y-123946490D02*
X66923490Y-125852900D01*
X76750565Y-128949001D02*
X80171999Y-132370435D01*
X68193490Y-128225492D02*
X68916999Y-128949001D01*
X80171999Y-134458001D02*
X83884488Y-138170490D01*
X66923490Y-125852900D02*
X68193490Y-127122900D01*
%TO.N,SCL1*%
X241427000Y-138648000D02*
X241427000Y-136398000D01*
X66923490Y-127756490D02*
X65653490Y-126486490D01*
D42*
X203327000Y-136398000D02*
X203327000Y-138648000D01*
D39*
X165227000Y-136398000D02*
X165227000Y-138648000D01*
X58674000Y-106934000D02*
X62357000Y-110617000D01*
X62611000Y-114808000D02*
X62357000Y-114554000D01*
X69463490Y-132836490D02*
X69463490Y-130131902D01*
X165227000Y-138648000D02*
X165227000Y-140589000D01*
X127762000Y-137414000D02*
X127762000Y-139664000D01*
X65653490Y-117850490D02*
X62611000Y-114808000D01*
X165227000Y-140589000D02*
X168148000Y-143510000D01*
X69463490Y-130131902D02*
X67088078Y-127756490D01*
X203327000Y-140589000D02*
X203327000Y-138648000D01*
X65653490Y-126486490D02*
X65653490Y-117850490D01*
X127762000Y-154686000D02*
X127762000Y-150967000D01*
X62357000Y-110617000D02*
X62357000Y-114554000D01*
X241427000Y-138648000D02*
X241427000Y-140589000D01*
X127762000Y-139664000D02*
X127762000Y-150967000D01*
X206248000Y-143510000D02*
X203327000Y-140589000D01*
X67088078Y-127756490D02*
X66923490Y-127756490D01*
X241427000Y-140589000D02*
X244348000Y-143510000D01*
%TO.N,SDA1*%
X130302000Y-139664000D02*
X131302000Y-139664000D01*
X246761000Y-143510000D02*
X247523000Y-143510000D01*
X64877501Y-116351499D02*
X68199000Y-119672998D01*
X243967000Y-140716000D02*
X246761000Y-143510000D01*
X70225490Y-133099796D02*
X70225490Y-130296490D01*
X68199000Y-126492000D02*
X69463490Y-127756490D01*
X243967000Y-138648000D02*
X243967000Y-136398000D01*
X64897000Y-110617000D02*
X64897000Y-116332000D01*
D42*
X205867000Y-136398000D02*
X205867000Y-138648000D01*
D39*
X64897000Y-116332000D02*
X64877501Y-116351499D01*
X68199000Y-119672998D02*
X68199000Y-126492000D01*
X131302000Y-139664000D02*
X133545511Y-137420489D01*
X167767000Y-138648000D02*
X167767000Y-136398000D01*
X170561000Y-143510000D02*
X171323000Y-143510000D01*
X243967000Y-138648000D02*
X243967000Y-140716000D01*
X61214000Y-106934000D02*
X64897000Y-110617000D01*
X208788000Y-143510000D02*
X209423000Y-143510000D01*
X130302000Y-150967000D02*
X130302000Y-139664000D01*
X167767000Y-140716000D02*
X170561000Y-143510000D01*
X167767000Y-138648000D02*
X167767000Y-140716000D01*
X205867000Y-138648000D02*
X205867000Y-140589000D01*
X131572000Y-138394000D02*
X130302000Y-139664000D01*
X130302000Y-150967000D02*
X130302000Y-153416000D01*
X205867000Y-140589000D02*
X208788000Y-143510000D01*
X69468143Y-133857143D02*
X70225490Y-133099796D01*
X131572000Y-137795000D02*
X131572000Y-138394000D01*
%TO.N,/STM32L151RET6TR/FTDI_RTS*%
X79589480Y-129812164D02*
X79848648Y-130071332D01*
X78861490Y-129084174D02*
X79589480Y-129812164D01*
X80131490Y-123438490D02*
X78861490Y-124708490D01*
X81655490Y-130550490D02*
X80327806Y-130550490D01*
X79848648Y-130071332D02*
X79589480Y-129812165D01*
X78861490Y-124708490D02*
X78861490Y-129084174D01*
X80327806Y-130550490D02*
X79848648Y-130071332D01*
%TO.N,/STM32L151RET6TR/FTDI_CTS*%
X78353490Y-129280490D02*
X78353490Y-122931488D01*
X81909490Y-131566490D02*
X80639490Y-131566490D01*
X77083490Y-121661488D02*
X77083490Y-120136490D01*
X80639490Y-131566490D02*
X78353490Y-129280490D01*
X78353490Y-122931488D02*
X77083490Y-121661488D01*
%TO.N,/STM32L151RET6TR/SW0*%
X71749490Y-125724490D02*
X69209490Y-125724490D01*
X74797490Y-125724490D02*
X71749490Y-125724490D01*
%TO.N,SCL2*%
X68701490Y-116326490D02*
X68701490Y-114548490D01*
X68701490Y-112770490D02*
X69220510Y-112770490D01*
X86989490Y-128010490D02*
X86989490Y-124200490D01*
X86989490Y-124200490D02*
X84703490Y-121914490D01*
X68701490Y-114548490D02*
X68701490Y-112770490D01*
X69220510Y-112770490D02*
X71501000Y-110490000D01*
%TO.N,SDA2*%
X83179490Y-126740490D02*
X83179490Y-122365488D01*
X71241490Y-112770490D02*
X71760510Y-112770490D01*
X71760510Y-112770490D02*
X74041000Y-110490000D01*
X71241490Y-116326490D02*
X71241490Y-114548490D01*
X83179490Y-122365488D02*
X85186510Y-120358468D01*
X71241490Y-114548490D02*
X71241490Y-112770490D01*
X85186510Y-120358468D02*
X85186510Y-119995408D01*
%TO.N,/STM32L151RET6TR/PIN41*%
X84957490Y-127278490D02*
X85689490Y-128010490D01*
X84957490Y-125978490D02*
X84957490Y-127278490D01*
%TO.N,/STM32L151RET6TR/PIN29*%
X88289490Y-129758490D02*
X88005490Y-130042490D01*
X88289490Y-128010490D02*
X88289490Y-129758490D01*
%TO.N,/STM32L151RET6TR/PIN30*%
X86989490Y-130042490D02*
X85719490Y-130042490D01*
X84685831Y-128420169D02*
X84306152Y-128040490D01*
X84685831Y-129008831D02*
X84685831Y-128420169D01*
X84306152Y-128040490D02*
X83179490Y-128040490D01*
X85719490Y-130042490D02*
X84685831Y-129008831D01*
%TO.N,/STM32L151RET6TR/PC8*%
X73781490Y-114548490D02*
X73781490Y-112770490D01*
%TO.N,/STM32L151RET6TR/PA9*%
X66161490Y-114548490D02*
X66161490Y-112770490D01*
%TO.N,/STM32L151RET6TR/PA10*%
X63621490Y-114294490D02*
X63621490Y-112770490D01*
%TO.N,BUCK_5_EN*%
X54356000Y-110998000D02*
X53848000Y-111506000D01*
X81097624Y-132016010D02*
X80453292Y-132016010D01*
X61468000Y-110998000D02*
X54356000Y-110998000D01*
X80453292Y-132016010D02*
X75819000Y-127381718D01*
X82163490Y-133081876D02*
X81097624Y-132016010D01*
X75819000Y-127381718D02*
X75819000Y-122936000D01*
X75819000Y-122936000D02*
X75819000Y-113665000D01*
X75819000Y-113665000D02*
X75311000Y-113157000D01*
X82163490Y-134106490D02*
X82163490Y-133081876D01*
%TO.N,XSHUT_3*%
X96351450Y-139995550D02*
X95885000Y-140462000D01*
X125222000Y-141986000D02*
X124497489Y-142710511D01*
X118147489Y-142710511D02*
X115432528Y-139995550D01*
X125222000Y-141986000D02*
X125222000Y-139664000D01*
X236712000Y-126381000D02*
X236601000Y-126492000D01*
X124497489Y-142710511D02*
X118147489Y-142710511D01*
X95885000Y-152781000D02*
X98298000Y-155194000D01*
X115432528Y-139995550D02*
X96351450Y-139995550D01*
X238887000Y-138648000D02*
X238887000Y-141224000D01*
X238252000Y-126381000D02*
X236712000Y-126381000D01*
X238887000Y-141224000D02*
X241173000Y-143510000D01*
X238887000Y-138648000D02*
X238887000Y-136271000D01*
X95885000Y-140462000D02*
X95885000Y-152781000D01*
%TO.N,GPIOI_3*%
X235819875Y-132323489D02*
X236151511Y-132323489D01*
X116739509Y-139096511D02*
X103536511Y-139096511D01*
X240411000Y-126349000D02*
X240411000Y-127762000D01*
X236151511Y-132323489D02*
X236347000Y-132518978D01*
X236347000Y-138648000D02*
X236347000Y-141859000D01*
X91440000Y-132847973D02*
X91754510Y-132533463D01*
X119628998Y-141986000D02*
X116739509Y-139096511D01*
X88187022Y-126492000D02*
X87713990Y-126492000D01*
X91754510Y-132533463D02*
X91754510Y-130059488D01*
X233246989Y-129750603D02*
X235819875Y-132323489D01*
X240411000Y-127762000D02*
X240538000Y-127889000D01*
X122682000Y-141986000D02*
X122682000Y-139664000D01*
X236347000Y-141859000D02*
X237998000Y-143510000D01*
X103536511Y-139096511D02*
X100991001Y-136551001D01*
X236347000Y-132518978D02*
X236347000Y-136144000D01*
X100991001Y-136551001D02*
X91847001Y-136551001D01*
X122682000Y-141986000D02*
X119628998Y-141986000D01*
X233246989Y-129667000D02*
X233246989Y-129750603D01*
X91847001Y-136551001D02*
X91440000Y-136144000D01*
X91754510Y-130059488D02*
X88187022Y-126492000D01*
X236347000Y-136144000D02*
X236347000Y-138648000D01*
X91440000Y-136144000D02*
X91440000Y-132847973D01*
%TD*%
M02*
