%TF.GenerationSoftware,KiCad,Pcbnew,(6.0.2)*%
%TF.CreationDate,2022-03-11T12:30:30+01:00*%
%TF.ProjectId,GestureControl,47657374-7572-4654-936f-6e74726f6c2e,V0.1*%
%TF.SameCoordinates,Original*%
%TF.FileFunction,Copper,L3,Inr*%
%TF.FilePolarity,Positive*%
%FSLAX46Y46*%
G04 Gerber Fmt 4.6, Leading zero omitted, Abs format (unit mm)*
G04 Created by KiCad (PCBNEW (6.0.2)) date 2022-03-11 12:30:30*
%MOMM*%
%LPD*%
G01*
G04 APERTURE LIST*
G04 Aperture macros list*
%AMRoundRect*
0 Rectangle with rounded corners*
0 $1 Rounding radius*
0 $2 $3 $4 $5 $6 $7 $8 $9 X,Y pos of 4 corners*
0 Add a 4 corners polygon primitive as box body*
4,1,4,$2,$3,$4,$5,$6,$7,$8,$9,$2,$3,0*
0 Add four circle primitives for the rounded corners*
1,1,$1+$1,$2,$3*
1,1,$1+$1,$4,$5*
1,1,$1+$1,$6,$7*
1,1,$1+$1,$8,$9*
0 Add four rect primitives between the rounded corners*
20,1,$1+$1,$2,$3,$4,$5,0*
20,1,$1+$1,$4,$5,$6,$7,0*
20,1,$1+$1,$6,$7,$8,$9,0*
20,1,$1+$1,$8,$9,$2,$3,0*%
G04 Aperture macros list end*
%TA.AperFunction,ComponentPad*%
%ADD10R,1.700000X1.700000*%
%TD*%
%TA.AperFunction,ComponentPad*%
%ADD11O,1.700000X1.700000*%
%TD*%
%TA.AperFunction,ComponentPad*%
%ADD12RoundRect,0.250000X-1.550000X0.650000X-1.550000X-0.650000X1.550000X-0.650000X1.550000X0.650000X0*%
%TD*%
%TA.AperFunction,ComponentPad*%
%ADD13O,3.600000X1.800000*%
%TD*%
%TA.AperFunction,ViaPad*%
%ADD14C,0.800000*%
%TD*%
%TA.AperFunction,Conductor*%
%ADD15C,1.000000*%
%TD*%
%TA.AperFunction,Conductor*%
%ADD16C,0.500000*%
%TD*%
%TA.AperFunction,Conductor*%
%ADD17C,1.200000*%
%TD*%
%TA.AperFunction,Conductor*%
%ADD18C,0.250000*%
%TD*%
G04 APERTURE END LIST*
D10*
%TO.N,unconnected-(J3-Pad1)*%
%TO.C,J3*%
X45974000Y-123952000D03*
D11*
%TO.N,unconnected-(J3-Pad2)*%
X48514000Y-123952000D03*
%TO.N,unconnected-(J3-Pad3)*%
X51054000Y-123952000D03*
%TO.N,+3V3*%
X53594000Y-123952000D03*
%TO.N,+5V*%
X56134000Y-123952000D03*
%TO.N,GND*%
X58674000Y-123952000D03*
X61214000Y-123952000D03*
%TO.N,XSHUT_0*%
X63754000Y-123952000D03*
%TD*%
D10*
%TO.N,XSHUT_1*%
%TO.C,J4*%
X68834000Y-123952000D03*
D11*
%TO.N,XSHUT_2*%
X71374000Y-123952000D03*
%TO.N,XSHUT_3*%
X73914000Y-123952000D03*
%TO.N,XSHUT_4*%
X76454000Y-123952000D03*
%TO.N,SW_1*%
X78994000Y-123952000D03*
%TO.N,SW_2*%
X81534000Y-123952000D03*
%TD*%
D10*
%TO.N,unconnected-(J5-Pad1)*%
%TO.C,J5*%
X59690000Y-75692000D03*
D11*
%TO.N,GPIOI_0*%
X57150000Y-75692000D03*
%TO.N,GPIOI_1*%
X54610000Y-75692000D03*
%TO.N,GPIOI_2*%
X52070000Y-75692000D03*
%TO.N,GPIOI_3*%
X49530000Y-75692000D03*
%TO.N,GPIOI_4*%
X46990000Y-75692000D03*
%TO.N,GND*%
X44450000Y-75692000D03*
%TO.N,+3V3*%
X41910000Y-75692000D03*
%TO.N,SDA1*%
X39370000Y-75692000D03*
%TO.N,SCL1*%
X36830000Y-75692000D03*
%TD*%
D10*
%TO.N,GND*%
%TO.C,J1*%
X52699490Y-96514490D03*
D11*
%TO.N,+5V*%
X50159490Y-96514490D03*
%TO.N,SDA1*%
X47619490Y-96514490D03*
%TO.N,SCL1*%
X45079490Y-96514490D03*
%TD*%
D12*
%TO.N,GND*%
%TO.C,J2*%
X28448000Y-97282000D03*
D13*
%TO.N,Net-(D6-Pad2)*%
X28448000Y-100782000D03*
%TD*%
D10*
%TO.N,GND*%
%TO.C,J7*%
X57779490Y-88894490D03*
D11*
%TO.N,/STM32L151RET6TR/FTDI_CTS*%
X55239490Y-88894490D03*
%TO.N,+5V*%
X52699490Y-88894490D03*
%TO.N,/STM32L151RET6TR/FTDI_TXD*%
X50159490Y-88894490D03*
%TO.N,/STM32L151RET6TR/FTDI_RXD*%
X47619490Y-88894490D03*
%TO.N,/STM32L151RET6TR/FTDI_RTS*%
X45079490Y-88894490D03*
%TD*%
D10*
%TO.N,GND*%
%TO.C,J10*%
X57277000Y-79248000D03*
D11*
%TO.N,+3V3*%
X54737000Y-79248000D03*
%TO.N,SDA2*%
X52197000Y-79248000D03*
%TO.N,SCL2*%
X49657000Y-79248000D03*
%TD*%
D10*
%TO.N,GND*%
%TO.C,J9*%
X76321490Y-106674490D03*
D11*
%TO.N,+3V3*%
X76321490Y-104134490D03*
%TO.N,/STM32L151RET6TR/UART_TX*%
X76321490Y-101594490D03*
%TO.N,/STM32L151RET6TR/UART_RX*%
X76321490Y-99054490D03*
%TD*%
D10*
%TO.N,unconnected-(J6-Pad1)*%
%TO.C,J6*%
X81534000Y-75692000D03*
D11*
%TO.N,unconnected-(J6-Pad2)*%
X78994000Y-75692000D03*
%TO.N,LED_5*%
X76454000Y-75692000D03*
%TO.N,LED_4*%
X73914000Y-75692000D03*
%TO.N,LED_3*%
X71374000Y-75692000D03*
%TO.N,LED_2*%
X68834000Y-75692000D03*
%TO.N,LED_1*%
X66294000Y-75692000D03*
%TO.N,unconnected-(J6-Pad8)*%
X63754000Y-75692000D03*
%TD*%
D10*
%TO.N,+3V3*%
%TO.C,J8*%
X55239490Y-92704490D03*
D11*
%TO.N,/STM32L151RET6TR/SWCLK*%
X52699490Y-92704490D03*
%TO.N,GND*%
X50159490Y-92704490D03*
%TO.N,/STM32L151RET6TR/SWDAT*%
X47619490Y-92704490D03*
%TO.N,/STM32L151RET6TR/RST*%
X45079490Y-92704490D03*
%TO.N,/STM32L151RET6TR/SW0*%
X42539490Y-92704490D03*
%TD*%
D10*
%TO.N,GND*%
%TO.C,J11*%
X42539490Y-104134490D03*
D11*
%TO.N,/STM32L151RET6TR/RST*%
X45079490Y-104134490D03*
%TD*%
D10*
%TO.N,+3V3*%
%TO.C,J12*%
X42539490Y-100324490D03*
D11*
%TO.N,/STM32L151RET6TR/BOOT*%
X45079490Y-100324490D03*
%TD*%
D14*
%TO.N,GND*%
X71495490Y-94482490D03*
X181447000Y-102906000D03*
X259334000Y-98425000D03*
X221234000Y-98425000D03*
X78099490Y-89148490D03*
X219547000Y-102906000D03*
X143347000Y-102906000D03*
X104648000Y-117348000D03*
X107188000Y-117348000D03*
X28194000Y-87884000D03*
X39116000Y-85344000D03*
X34925000Y-120904000D03*
X109728000Y-117348000D03*
X98298000Y-91186000D03*
X105882000Y-79157000D03*
X70358000Y-104398500D03*
X60573490Y-91561490D03*
X29972000Y-76327000D03*
X178907000Y-102906000D03*
X36703000Y-122047000D03*
X257647000Y-102906000D03*
X38481000Y-120904000D03*
X170180000Y-99822000D03*
X117856000Y-90297000D03*
X102108000Y-117348000D03*
X138609750Y-97982652D03*
X103342000Y-79157000D03*
X132588000Y-93726000D03*
X108422000Y-104466000D03*
X29464000Y-73787000D03*
X36068000Y-84328000D03*
X98298000Y-117348000D03*
X171704000Y-98806000D03*
X98044000Y-106462000D03*
X24003000Y-118110000D03*
X55493490Y-104134490D03*
X23876000Y-86614000D03*
X135128000Y-91694000D03*
X61785500Y-116903500D03*
X57271490Y-103626490D03*
X24003000Y-116713000D03*
X105882000Y-104466000D03*
X108422000Y-79157000D03*
X23368000Y-91186000D03*
X203835000Y-99060000D03*
X36703000Y-120904000D03*
X23876000Y-88646000D03*
X28448000Y-119634000D03*
X205486000Y-100457000D03*
X140843000Y-102870000D03*
X132588000Y-90932000D03*
X107475506Y-91025494D03*
X215392000Y-97331000D03*
X104775000Y-101981000D03*
X25527000Y-110236000D03*
X217007000Y-102906000D03*
X116332000Y-91694000D03*
X34925000Y-119761000D03*
X167640000Y-100330000D03*
X25019000Y-118110000D03*
X211963000Y-109728000D03*
X23876000Y-87630000D03*
X36703000Y-123190000D03*
X253492000Y-97331000D03*
X135763000Y-109601000D03*
X28448000Y-118618000D03*
X22987000Y-110236000D03*
X183388000Y-98298000D03*
X28194000Y-88900000D03*
X183987000Y-102906000D03*
X29591000Y-88900000D03*
X252222000Y-98425000D03*
X24257000Y-110236000D03*
X173736000Y-109982000D03*
X63436500Y-116903500D03*
X222087000Y-102906000D03*
X48381490Y-110738490D03*
X39116000Y-86360000D03*
X142113000Y-100076000D03*
X21336000Y-91186000D03*
X250063000Y-109728000D03*
X97155000Y-96647000D03*
X103378000Y-101981000D03*
X245999000Y-99822000D03*
X51435000Y-112268000D03*
X38481000Y-119761000D03*
X217678000Y-96647000D03*
X64637490Y-102610490D03*
X28194000Y-84455000D03*
X142113000Y-96774000D03*
X62605490Y-117342490D03*
X86778500Y-96065789D03*
X247396000Y-98552000D03*
X209296000Y-98552000D03*
X179670688Y-96427312D03*
X97790000Y-81026000D03*
X119507000Y-90424000D03*
X25019000Y-119507000D03*
X36068000Y-86360000D03*
X24003000Y-119507000D03*
X145415000Y-98298000D03*
X36068000Y-85344000D03*
X255778000Y-96647000D03*
X59303490Y-101848490D03*
X175768000Y-98298000D03*
X258064000Y-97282000D03*
X29591000Y-87884000D03*
X243586000Y-100457000D03*
X214122000Y-98425000D03*
X29464000Y-74930000D03*
X32004000Y-81280000D03*
X165608000Y-98806000D03*
X67177490Y-98800490D03*
X39116000Y-84328000D03*
X219964000Y-97282000D03*
X103342000Y-104466000D03*
X26797000Y-87884000D03*
X25527000Y-113792000D03*
X109728000Y-91059000D03*
X22987000Y-113792000D03*
X36703000Y-119761000D03*
X260187000Y-102906000D03*
X100917502Y-88773000D03*
X104561752Y-90819168D03*
X255107000Y-102906000D03*
X22352000Y-91186000D03*
X72390000Y-102743000D03*
X24257000Y-113792000D03*
X26797000Y-88900000D03*
X68707000Y-103632000D03*
X207899000Y-99822000D03*
X241935000Y-99060000D03*
X104140000Y-96647000D03*
X49874000Y-109384000D03*
X57779490Y-94101490D03*
X145887000Y-102906000D03*
X30988000Y-76327000D03*
X142096743Y-98806956D03*
X25019000Y-116713000D03*
X48381490Y-103626490D03*
X59557490Y-86735490D03*
%TO.N,VCC*%
X33401000Y-120523000D03*
X33401000Y-119507000D03*
X32385000Y-120523000D03*
X35433000Y-98342000D03*
X35433000Y-96310000D03*
X35433000Y-97326000D03*
X32385000Y-119507000D03*
X35433000Y-95294000D03*
%TO.N,+3V3*%
X221234000Y-100584000D03*
X51689000Y-87630000D03*
X97790000Y-79629000D03*
X41656000Y-115316000D03*
X82550000Y-87846500D03*
X40132000Y-111506000D03*
X65653490Y-102610490D03*
X40132000Y-114046000D03*
X242189000Y-93726000D03*
X183134000Y-100203000D03*
X40132000Y-112776000D03*
X145923000Y-100965000D03*
X40132000Y-115316000D03*
X129794000Y-94488000D03*
X72390000Y-101727000D03*
X259334000Y-100584000D03*
X69042490Y-94061490D03*
X138811000Y-100330000D03*
X106370700Y-101045298D03*
X59985488Y-96768490D03*
X97790000Y-88138000D03*
X62097490Y-99562490D03*
X202438000Y-93726000D03*
X41656000Y-114046000D03*
X252222000Y-100203000D03*
X176149000Y-100203000D03*
X97536000Y-116078000D03*
X240538000Y-93726000D03*
X97790000Y-89408000D03*
X41656000Y-111506000D03*
X97790000Y-78486000D03*
X101600000Y-101092000D03*
X114554000Y-93091000D03*
X115316000Y-93853000D03*
X41656000Y-112776000D03*
X98044000Y-104938000D03*
X75438000Y-87122000D03*
X166878000Y-93726000D03*
X45720000Y-110490000D03*
X165354000Y-93726000D03*
X60827490Y-89656490D03*
X59176490Y-102991490D03*
X70739000Y-88392000D03*
X204089000Y-93726000D03*
X214122000Y-100203000D03*
X98044000Y-103922000D03*
X130810000Y-95504000D03*
X97536000Y-114554000D03*
%TO.N,XSHUT_1*%
X140843000Y-105156000D03*
X103378000Y-85979000D03*
X139700000Y-96393000D03*
X67448327Y-117230437D03*
X67437000Y-120396000D03*
%TO.N,GPIOI_1*%
X137144951Y-98567049D03*
X100838000Y-85979000D03*
X91567000Y-83566000D03*
X138176000Y-105156000D03*
X62738000Y-77851000D03*
X141097000Y-96393000D03*
%TO.N,XSHUT_2*%
X68195141Y-116566152D03*
X68199000Y-119741501D03*
X103378000Y-91059000D03*
X176911000Y-95123000D03*
X178943000Y-105156000D03*
%TO.N,GPIOI_2*%
X100838000Y-91059000D03*
X90799161Y-84205866D03*
X176403000Y-105156000D03*
X62098134Y-78618839D03*
X180721000Y-96520000D03*
%TO.N,XSHUT_0*%
X91821000Y-103632000D03*
X107188000Y-96139000D03*
X66675000Y-119741501D03*
X66680435Y-116590634D03*
%TO.N,GPIOI_0*%
X81407000Y-102362000D03*
X109474000Y-96139000D03*
X68066490Y-93212490D03*
%TO.N,LED_3*%
X77845490Y-96008501D03*
X69209490Y-90672490D03*
%TO.N,LED_4*%
X69402503Y-89473508D03*
X78089042Y-93809500D03*
%TO.N,LED_5*%
X69362489Y-88403186D03*
X78099490Y-91434490D03*
%TO.N,LED_1*%
X67939490Y-91942490D03*
X78220501Y-100578490D03*
%TO.N,LED_2*%
X69209490Y-91942490D03*
X77852679Y-97007978D03*
%TO.N,SW_1*%
X84455000Y-87122000D03*
X85581503Y-119888000D03*
X85648800Y-115214400D03*
%TO.N,SW_2*%
X84582000Y-115214400D03*
X75824510Y-89148490D03*
X84582000Y-119888000D03*
%TO.N,+5V*%
X34417000Y-86868000D03*
X24130000Y-77089000D03*
X22098000Y-77089000D03*
X25146000Y-77089000D03*
X23114000Y-77089000D03*
%TO.N,/STM32L151RET6TR/BOOT*%
X53715490Y-100832490D03*
%TO.N,/STM32L151RET6TR/RST*%
X63113490Y-106928490D03*
%TO.N,SCL1*%
X105918000Y-123444000D03*
X47619490Y-101594490D03*
X181483000Y-105156000D03*
X257683000Y-105156000D03*
X105918000Y-106716000D03*
X219583000Y-105156000D03*
X143383000Y-105156000D03*
%TO.N,SDA1*%
X260223000Y-105156000D03*
X48381490Y-99054490D03*
X184023000Y-105029000D03*
X145923000Y-105156000D03*
X108458000Y-122047000D03*
X109728000Y-107097000D03*
X47624143Y-102615143D03*
X222123000Y-105029000D03*
%TO.N,/STM32L151RET6TR/FTDI_RTS*%
X59811490Y-99308490D03*
X58287490Y-92196490D03*
%TO.N,/STM32L151RET6TR/FTDI_CTS*%
X60065490Y-100324490D03*
%TO.N,/STM32L151RET6TR/SW0*%
X47365490Y-94482490D03*
X52953490Y-94482490D03*
%TO.N,SCL2*%
X46857490Y-83306490D03*
X62859490Y-90672490D03*
%TO.N,SDA2*%
X63342510Y-88753408D03*
X49397490Y-83306490D03*
%TO.N,/STM32L151RET6TR/PIN41*%
X63113490Y-94736490D03*
%TO.N,/STM32L151RET6TR/PIN29*%
X66161490Y-98800490D03*
%TO.N,/STM32L151RET6TR/PIN30*%
X65145490Y-98800490D03*
%TO.N,/STM32L151RET6TR/PC8*%
X51937490Y-83306490D03*
%TO.N,/STM32L151RET6TR/PA9*%
X44317490Y-83306490D03*
%TO.N,/STM32L151RET6TR/PA10*%
X41777490Y-83052490D03*
%TO.N,BUCK_5_EN*%
X60319490Y-102864490D03*
X53467000Y-81915000D03*
X32004000Y-80264000D03*
X39624000Y-79756000D03*
%TO.N,XSHUT_3*%
X69020803Y-120310399D03*
X103378000Y-111288000D03*
X214757000Y-95123000D03*
X68961000Y-117221000D03*
X217043000Y-105156000D03*
%TO.N,GPIOI_3*%
X90043000Y-83530674D03*
X82065801Y-103113656D03*
X65869990Y-95250000D03*
X214503000Y-105626500D03*
X90932000Y-101600000D03*
X90995500Y-104457500D03*
X100838000Y-111288000D03*
X62759776Y-79367996D03*
X218795600Y-96520000D03*
%TO.N,XSHUT_4*%
X255143000Y-105410000D03*
X252730000Y-95123000D03*
X69977000Y-119741501D03*
X69981299Y-116590299D03*
X103378000Y-117475000D03*
%TO.N,GPIOI_4*%
X89408000Y-101600000D03*
X256895600Y-96672400D03*
X252603000Y-105283000D03*
X100838000Y-117475000D03*
X89408000Y-104521000D03*
X62045029Y-80092496D03*
X89229187Y-84110944D03*
%TD*%
D15*
%TO.N,VCC*%
X36068000Y-98977000D02*
X36068000Y-116921634D01*
X36068000Y-116921634D02*
X33655000Y-119334634D01*
X33655000Y-120523000D02*
X33655000Y-119507000D01*
X35433000Y-95294000D02*
X35433000Y-98342000D01*
X32639000Y-120523000D02*
X33655000Y-120523000D01*
X33655000Y-119507000D02*
X32639000Y-120523000D01*
X33655000Y-119507000D02*
X32639000Y-119507000D01*
X32639000Y-119507000D02*
X32639000Y-120523000D01*
X35433000Y-98342000D02*
X36068000Y-98977000D01*
X33655000Y-119334634D02*
X33655000Y-119507000D01*
D16*
%TO.N,+3V3*%
X234950000Y-91694000D02*
X232918000Y-93726000D01*
D15*
X97028000Y-89408000D02*
X97790000Y-89408000D01*
X54737000Y-85979000D02*
X54737000Y-86741000D01*
X97790000Y-89408000D02*
X97028000Y-88646000D01*
X96647000Y-88646000D02*
X96647000Y-89789000D01*
D16*
X127254000Y-93726000D02*
X125222000Y-91694000D01*
D15*
X157988000Y-93726000D02*
X134620000Y-93726000D01*
D16*
X157988000Y-93726000D02*
X157988000Y-92964000D01*
D15*
X97790000Y-88138000D02*
X97155000Y-88138000D01*
X76321490Y-104134490D02*
X71633510Y-104134490D01*
D16*
X200152000Y-91694000D02*
X201930000Y-93472000D01*
D15*
X54737000Y-79248000D02*
X54737000Y-85979000D01*
X93218000Y-93218000D02*
X93218000Y-82169000D01*
X95948500Y-79438500D02*
X96901000Y-78486000D01*
D16*
X115316000Y-93980000D02*
X115697000Y-94361000D01*
X194818000Y-93726000D02*
X196850000Y-95758000D01*
D15*
X97790000Y-79629000D02*
X97599500Y-79438500D01*
D16*
X158115000Y-94615000D02*
X157734000Y-94234000D01*
D15*
X43916489Y-77698489D02*
X53187489Y-77698489D01*
X204089000Y-93726000D02*
X232918000Y-93726000D01*
D16*
X196850000Y-91694000D02*
X200152000Y-91694000D01*
X194818000Y-93726000D02*
X196850000Y-91694000D01*
D15*
X44958000Y-115316000D02*
X53594000Y-123952000D01*
D16*
X163322000Y-95758000D02*
X159258000Y-95758000D01*
D17*
X86435999Y-118542001D02*
X55169001Y-118542001D01*
D15*
X129032000Y-93726000D02*
X129794000Y-94488000D01*
D17*
X115316000Y-93853000D02*
X114554000Y-93091000D01*
D15*
X48387000Y-104775000D02*
X49022000Y-104775000D01*
X130810000Y-95504000D02*
X131020511Y-95293489D01*
X202184000Y-93726000D02*
X204089000Y-93726000D01*
X166878000Y-93726000D02*
X167894000Y-93726000D01*
D17*
X55169001Y-118542001D02*
X49403000Y-112776000D01*
D15*
X97536000Y-114554000D02*
X95377000Y-114554000D01*
X54737000Y-85979000D02*
X54737000Y-87376000D01*
X96012000Y-114554000D02*
X95377000Y-114554000D01*
D16*
X196850000Y-95758000D02*
X200406000Y-95758000D01*
X165354000Y-93726000D02*
X163322000Y-95758000D01*
X115316000Y-93853000D02*
X115316000Y-93980000D01*
D15*
X127254000Y-93726000D02*
X129032000Y-93726000D01*
D16*
X115697000Y-94361000D02*
X117094000Y-95758000D01*
D15*
X53187489Y-77698489D02*
X54737000Y-79248000D01*
D18*
X54737000Y-87376000D02*
X54102000Y-87376000D01*
D15*
X97155000Y-88138000D02*
X96647000Y-88646000D01*
X93218000Y-98379634D02*
X93218000Y-93218000D01*
D16*
X200406000Y-95758000D02*
X202184000Y-93980000D01*
D15*
X98044000Y-103922000D02*
X98044000Y-104938000D01*
D16*
X118364000Y-91694000D02*
X116205000Y-93853000D01*
X125222000Y-95758000D02*
X127254000Y-93726000D01*
X234950000Y-91694000D02*
X238252000Y-91694000D01*
D15*
X52578000Y-86741000D02*
X51689000Y-87630000D01*
D17*
X93218000Y-111760000D02*
X93218000Y-111379000D01*
D15*
X131020511Y-95293489D02*
X133052511Y-95293489D01*
X45720000Y-110490000D02*
X42672000Y-110490000D01*
D17*
X93218000Y-98379634D02*
X98506634Y-93091000D01*
D15*
X180392567Y-92372489D02*
X193464489Y-92372489D01*
X42539490Y-100324490D02*
X40132000Y-102731980D01*
X54737000Y-86741000D02*
X54102000Y-87376000D01*
X98044000Y-103922000D02*
X97572000Y-103922000D01*
X134620000Y-93726000D02*
X133052511Y-95293489D01*
D17*
X89789000Y-115189000D02*
X93218000Y-111760000D01*
D15*
X240284000Y-93726000D02*
X240538000Y-93726000D01*
D16*
X194818000Y-93726000D02*
X202184000Y-93726000D01*
D17*
X93218000Y-98679000D02*
X93218000Y-98379634D01*
X98506634Y-93091000D02*
X114554000Y-93091000D01*
D16*
X127254000Y-93726000D02*
X115189000Y-93726000D01*
X159258000Y-91694000D02*
X163322000Y-91694000D01*
X115189000Y-93726000D02*
X114554000Y-93091000D01*
D15*
X179039056Y-93726000D02*
X180392567Y-92372489D01*
X96647000Y-89789000D02*
X93218000Y-93218000D01*
X97572000Y-103922000D02*
X96556000Y-104938000D01*
D16*
X232918000Y-93726000D02*
X240284000Y-93726000D01*
X234950000Y-95758000D02*
X238506000Y-95758000D01*
D15*
X41656000Y-111506000D02*
X48387000Y-104775000D01*
X95468000Y-104938000D02*
X93218000Y-107188000D01*
X95460511Y-79926489D02*
X95948500Y-79438500D01*
X98044000Y-104938000D02*
X96556000Y-104938000D01*
D16*
X115697000Y-94361000D02*
X116205000Y-93853000D01*
D17*
X93218000Y-107188000D02*
X93218000Y-105537000D01*
D15*
X193464489Y-92372489D02*
X194818000Y-93726000D01*
X97790000Y-78486000D02*
X96901000Y-78486000D01*
X97536000Y-116078000D02*
X96012000Y-114554000D01*
X96647000Y-89789000D02*
X97028000Y-89408000D01*
X40132000Y-102731980D02*
X40132000Y-111506000D01*
D16*
X117094000Y-95758000D02*
X125222000Y-95758000D01*
D17*
X93218000Y-111379000D02*
X93218000Y-107188000D01*
D15*
X54737000Y-86741000D02*
X52578000Y-86741000D01*
X42672000Y-110490000D02*
X41656000Y-111506000D01*
X93218000Y-82169000D02*
X95460511Y-79926489D01*
X95377000Y-114554000D02*
X90424000Y-114554000D01*
D17*
X90424000Y-114554000D02*
X89789000Y-115189000D01*
D15*
X240284000Y-93726000D02*
X242189000Y-93726000D01*
X41910000Y-75692000D02*
X43916489Y-77698489D01*
X97599500Y-79438500D02*
X95948500Y-79438500D01*
X129032000Y-93726000D02*
X130810000Y-95504000D01*
X49022000Y-104775000D02*
X52615979Y-101181021D01*
D17*
X49403000Y-112776000D02*
X41656000Y-112776000D01*
D16*
X125222000Y-91694000D02*
X118364000Y-91694000D01*
X234950000Y-95758000D02*
X232918000Y-93726000D01*
D15*
X96901000Y-78486000D02*
X93218000Y-82169000D01*
X97028000Y-88646000D02*
X96647000Y-88646000D01*
X167894000Y-93726000D02*
X179039056Y-93726000D01*
D16*
X238252000Y-91694000D02*
X240030000Y-93472000D01*
D15*
X167894000Y-93726000D02*
X165354000Y-93726000D01*
D16*
X157988000Y-94488000D02*
X157988000Y-94234000D01*
X163322000Y-91694000D02*
X165354000Y-93726000D01*
D15*
X52615979Y-101181021D02*
X52615979Y-100377057D01*
X202184000Y-93726000D02*
X202438000Y-93726000D01*
X52615979Y-100377057D02*
X53933036Y-99060000D01*
X41656000Y-115316000D02*
X44958000Y-115316000D01*
D16*
X157988000Y-93726000D02*
X164846000Y-93726000D01*
D17*
X93218000Y-105537000D02*
X93218000Y-98679000D01*
D15*
X53933036Y-99060000D02*
X55245000Y-99060000D01*
D16*
X159258000Y-95758000D02*
X158115000Y-94615000D01*
X157988000Y-92964000D02*
X159258000Y-91694000D01*
D15*
X96556000Y-104938000D02*
X95468000Y-104938000D01*
D17*
X89789000Y-115189000D02*
X86435999Y-118542001D01*
D16*
X238506000Y-95758000D02*
X240284000Y-93980000D01*
X158115000Y-94615000D02*
X157988000Y-94488000D01*
D15*
%TO.N,+5V*%
X37592000Y-93726000D02*
X37592000Y-117094000D01*
X25146000Y-77597000D02*
X25146000Y-77089000D01*
X37592000Y-93726000D02*
X37592000Y-89535000D01*
X38501001Y-92127341D02*
X38501001Y-90444001D01*
X51149979Y-90444001D02*
X38501001Y-90444001D01*
X37592000Y-93726000D02*
X37592000Y-93218000D01*
X44437661Y-98064001D02*
X38501001Y-92127341D01*
X47100342Y-100154001D02*
X45010342Y-98064001D01*
X48836923Y-100154001D02*
X47100342Y-100154001D01*
X52699490Y-88894490D02*
X51149979Y-90444001D01*
X45010342Y-98064001D02*
X44437661Y-98064001D01*
X54584489Y-125501511D02*
X56134000Y-123952000D01*
X37592000Y-89535000D02*
X36893500Y-88836500D01*
X34417000Y-86868000D02*
X25146000Y-77597000D01*
X38501001Y-90444001D02*
X36893500Y-88836500D01*
X44475511Y-125501511D02*
X54584489Y-125501511D01*
X37592000Y-93218000D02*
X38501001Y-92308999D01*
X42532245Y-123558245D02*
X44475511Y-125501511D01*
X50159490Y-96514490D02*
X50159490Y-98831434D01*
X36893500Y-88836500D02*
X25146000Y-77089000D01*
X38501001Y-92308999D02*
X38501001Y-92127341D01*
X37592000Y-117094000D02*
X42532245Y-122034245D01*
X50159490Y-98831434D02*
X48836923Y-100154001D01*
X42532245Y-122034245D02*
X42532245Y-123558245D01*
D18*
%TO.N,SCL1*%
X145415000Y-107188000D02*
X179451000Y-107188000D01*
X115702020Y-111246980D02*
X119761000Y-107188000D01*
X255651000Y-107188000D02*
X221615000Y-107188000D01*
X115702020Y-116961980D02*
X115702020Y-111246980D01*
X143383000Y-105156000D02*
X145415000Y-107188000D01*
X105918000Y-123444000D02*
X109220000Y-123444000D01*
X221615000Y-107188000D02*
X219583000Y-105156000D01*
X181483000Y-105156000D02*
X183515000Y-107188000D01*
X257683000Y-105156000D02*
X255651000Y-107188000D01*
X183515000Y-107188000D02*
X217551000Y-107188000D01*
X217551000Y-107188000D02*
X219583000Y-105156000D01*
X119761000Y-107188000D02*
X141351000Y-107188000D01*
X109220000Y-123444000D02*
X115702020Y-116961980D01*
X141351000Y-107188000D02*
X143383000Y-105156000D01*
X179451000Y-107188000D02*
X181483000Y-105156000D01*
%TO.N,SDA1*%
X183261000Y-104267000D02*
X184023000Y-105029000D01*
X259080000Y-104013000D02*
X260223000Y-105156000D01*
X137913386Y-104394000D02*
X145161000Y-104394000D01*
X184023000Y-105029000D02*
X213106000Y-105029000D01*
X145161000Y-104394000D02*
X145923000Y-105156000D01*
X214122000Y-104013000D02*
X221107000Y-104013000D01*
X222123000Y-105029000D02*
X249428000Y-105029000D01*
X115189000Y-115316000D02*
X115189000Y-111124282D01*
X115189000Y-111124282D02*
X121157282Y-105156000D01*
X221107000Y-104013000D02*
X222123000Y-105029000D01*
X176267386Y-104267000D02*
X183261000Y-104267000D01*
X121157282Y-105156000D02*
X137151386Y-105156000D01*
X108458000Y-122047000D02*
X115189000Y-115316000D01*
X145923000Y-105156000D02*
X175378386Y-105156000D01*
X175378386Y-105156000D02*
X176267386Y-104267000D01*
X249428000Y-105029000D02*
X250444000Y-104013000D01*
X137151386Y-105156000D02*
X137913386Y-104394000D01*
X250444000Y-104013000D02*
X259080000Y-104013000D01*
X213106000Y-105029000D02*
X214122000Y-104013000D01*
%TD*%
%TA.AperFunction,Conductor*%
%TO.N,+3V3*%
G36*
X58944049Y-86882492D02*
G01*
X58992336Y-86940271D01*
X59032954Y-87038331D01*
X59129208Y-87163772D01*
X59254649Y-87260026D01*
X59400728Y-87320534D01*
X59557490Y-87341172D01*
X59565678Y-87340094D01*
X59706064Y-87321612D01*
X59714252Y-87320534D01*
X59860331Y-87260026D01*
X59985772Y-87163772D01*
X60082026Y-87038331D01*
X60122644Y-86940271D01*
X60167191Y-86884991D01*
X60239052Y-86862490D01*
X72131490Y-86862490D01*
X72199611Y-86882492D01*
X72246104Y-86936148D01*
X72257490Y-86988490D01*
X72257490Y-94122866D01*
X72237488Y-94190987D01*
X72183832Y-94237480D01*
X72113558Y-94247584D01*
X72048978Y-94218090D01*
X72022832Y-94186424D01*
X72020026Y-94179649D01*
X71923772Y-94054208D01*
X71912239Y-94045358D01*
X71887572Y-94026431D01*
X71798331Y-93957954D01*
X71652252Y-93897446D01*
X71495490Y-93876808D01*
X71338728Y-93897446D01*
X71192649Y-93957954D01*
X71103408Y-94026431D01*
X71078742Y-94045358D01*
X71067208Y-94054208D01*
X70970954Y-94179649D01*
X70910446Y-94325728D01*
X70889808Y-94482490D01*
X70910446Y-94639252D01*
X70970954Y-94785331D01*
X71067208Y-94910772D01*
X71073754Y-94915795D01*
X71103408Y-94938549D01*
X71192649Y-95007026D01*
X71338728Y-95067534D01*
X71495490Y-95088172D01*
X71503678Y-95087094D01*
X71644064Y-95068612D01*
X71652252Y-95067534D01*
X71798331Y-95007026D01*
X71887572Y-94938549D01*
X71917226Y-94915795D01*
X71923772Y-94910772D01*
X72020026Y-94785331D01*
X72022751Y-94778753D01*
X72073752Y-94730122D01*
X72143465Y-94716684D01*
X72209377Y-94743070D01*
X72250559Y-94800902D01*
X72257490Y-94842114D01*
X72257490Y-102063720D01*
X72237488Y-102131841D01*
X72179708Y-102180129D01*
X72087159Y-102218464D01*
X72004624Y-102281795D01*
X71970931Y-102307649D01*
X71961718Y-102314718D01*
X71956695Y-102321264D01*
X71942354Y-102339954D01*
X71865464Y-102440159D01*
X71804956Y-102586238D01*
X71784318Y-102743000D01*
X71804956Y-102899762D01*
X71865464Y-103045841D01*
X71961718Y-103171282D01*
X72087159Y-103267536D01*
X72160211Y-103297795D01*
X72179708Y-103305871D01*
X72234989Y-103350419D01*
X72257490Y-103422280D01*
X72257490Y-107564490D01*
X72237488Y-107632611D01*
X72183832Y-107679104D01*
X72131490Y-107690490D01*
X63473114Y-107690490D01*
X63404993Y-107670488D01*
X63358500Y-107616832D01*
X63348396Y-107546558D01*
X63377890Y-107481978D01*
X63409556Y-107455832D01*
X63416331Y-107453026D01*
X63541772Y-107356772D01*
X63638026Y-107231331D01*
X63698534Y-107085252D01*
X63719172Y-106928490D01*
X63698534Y-106771728D01*
X63638026Y-106625649D01*
X63541772Y-106500208D01*
X63416331Y-106403954D01*
X63270252Y-106343446D01*
X63113490Y-106322808D01*
X62956728Y-106343446D01*
X62810649Y-106403954D01*
X62685208Y-106500208D01*
X62588954Y-106625649D01*
X62528446Y-106771728D01*
X62507808Y-106928490D01*
X62528446Y-107085252D01*
X62588954Y-107231331D01*
X62685208Y-107356772D01*
X62810649Y-107453026D01*
X62817227Y-107455751D01*
X62865858Y-107506752D01*
X62879296Y-107576465D01*
X62852910Y-107642377D01*
X62795078Y-107683559D01*
X62753866Y-107690490D01*
X55111490Y-107690490D01*
X55043369Y-107670488D01*
X54996876Y-107616832D01*
X54985490Y-107564490D01*
X54985490Y-104757105D01*
X55005492Y-104688984D01*
X55059148Y-104642491D01*
X55129422Y-104632387D01*
X55175766Y-104651910D01*
X55176944Y-104649869D01*
X55184097Y-104653999D01*
X55190649Y-104659026D01*
X55336728Y-104719534D01*
X55493490Y-104740172D01*
X55501678Y-104739094D01*
X55642064Y-104720612D01*
X55650252Y-104719534D01*
X55796331Y-104659026D01*
X55921772Y-104562772D01*
X55933818Y-104547074D01*
X56012999Y-104443882D01*
X56018026Y-104437331D01*
X56034110Y-104398500D01*
X69752318Y-104398500D01*
X69772956Y-104555262D01*
X69833464Y-104701341D01*
X69929718Y-104826782D01*
X70055159Y-104923036D01*
X70201238Y-104983544D01*
X70358000Y-105004182D01*
X70366188Y-105003104D01*
X70506574Y-104984622D01*
X70514762Y-104983544D01*
X70660841Y-104923036D01*
X70786282Y-104826782D01*
X70882536Y-104701341D01*
X70943044Y-104555262D01*
X70963682Y-104398500D01*
X70943044Y-104241738D01*
X70882536Y-104095659D01*
X70814059Y-104006418D01*
X70791305Y-103976764D01*
X70786282Y-103970218D01*
X70660841Y-103873964D01*
X70514762Y-103813456D01*
X70358000Y-103792818D01*
X70201238Y-103813456D01*
X70055159Y-103873964D01*
X69929718Y-103970218D01*
X69924695Y-103976764D01*
X69901941Y-104006418D01*
X69833464Y-104095659D01*
X69772956Y-104241738D01*
X69752318Y-104398500D01*
X56034110Y-104398500D01*
X56078534Y-104291252D01*
X56099172Y-104134490D01*
X56078534Y-103977728D01*
X56018026Y-103831649D01*
X55921772Y-103706208D01*
X55817881Y-103626490D01*
X56665808Y-103626490D01*
X56686446Y-103783252D01*
X56746954Y-103929331D01*
X56843208Y-104054772D01*
X56968649Y-104151026D01*
X57114728Y-104211534D01*
X57271490Y-104232172D01*
X57279678Y-104231094D01*
X57420064Y-104212612D01*
X57428252Y-104211534D01*
X57574331Y-104151026D01*
X57699772Y-104054772D01*
X57796026Y-103929331D01*
X57856534Y-103783252D01*
X57876447Y-103632000D01*
X68101318Y-103632000D01*
X68121956Y-103788762D01*
X68182464Y-103934841D01*
X68278718Y-104060282D01*
X68404159Y-104156536D01*
X68550238Y-104217044D01*
X68707000Y-104237682D01*
X68715188Y-104236604D01*
X68855574Y-104218122D01*
X68863762Y-104217044D01*
X69009841Y-104156536D01*
X69135282Y-104060282D01*
X69231536Y-103934841D01*
X69292044Y-103788762D01*
X69312682Y-103632000D01*
X69292044Y-103475238D01*
X69231536Y-103329159D01*
X69135282Y-103203718D01*
X69009841Y-103107464D01*
X68863762Y-103046956D01*
X68707000Y-103026318D01*
X68550238Y-103046956D01*
X68404159Y-103107464D01*
X68278718Y-103203718D01*
X68182464Y-103329159D01*
X68121956Y-103475238D01*
X68101318Y-103632000D01*
X57876447Y-103632000D01*
X57877172Y-103626490D01*
X57856534Y-103469728D01*
X57796026Y-103323649D01*
X57699772Y-103198208D01*
X57574331Y-103101954D01*
X57438952Y-103045878D01*
X57435881Y-103044606D01*
X57428252Y-103041446D01*
X57271490Y-103020808D01*
X57114728Y-103041446D01*
X57107099Y-103044606D01*
X57104028Y-103045878D01*
X56968649Y-103101954D01*
X56843208Y-103198208D01*
X56746954Y-103323649D01*
X56686446Y-103469728D01*
X56665808Y-103626490D01*
X55817881Y-103626490D01*
X55796331Y-103609954D01*
X55650252Y-103549446D01*
X55493490Y-103528808D01*
X55336728Y-103549446D01*
X55190649Y-103609954D01*
X55065208Y-103706208D01*
X54968954Y-103831649D01*
X54908446Y-103977728D01*
X54887808Y-104134490D01*
X54888886Y-104142678D01*
X54902494Y-104246044D01*
X54891554Y-104316193D01*
X54844426Y-104369291D01*
X54777572Y-104388490D01*
X53460490Y-104388490D01*
X53392369Y-104368488D01*
X53345876Y-104314832D01*
X53334490Y-104262490D01*
X53334490Y-102864490D01*
X59713808Y-102864490D01*
X59734446Y-103021252D01*
X59794954Y-103167331D01*
X59822875Y-103203718D01*
X59874269Y-103270696D01*
X59891208Y-103292772D01*
X60016649Y-103389026D01*
X60162728Y-103449534D01*
X60319490Y-103470172D01*
X60327678Y-103469094D01*
X60468064Y-103450612D01*
X60476252Y-103449534D01*
X60622331Y-103389026D01*
X60747772Y-103292772D01*
X60764712Y-103270696D01*
X60816105Y-103203718D01*
X60844026Y-103167331D01*
X60904534Y-103021252D01*
X60925172Y-102864490D01*
X60904534Y-102707728D01*
X60864257Y-102610490D01*
X64031808Y-102610490D01*
X64052446Y-102767252D01*
X64112954Y-102913331D01*
X64209208Y-103038772D01*
X64215754Y-103043795D01*
X64218469Y-103045878D01*
X64334649Y-103135026D01*
X64480728Y-103195534D01*
X64637490Y-103216172D01*
X64645678Y-103215094D01*
X64786064Y-103196612D01*
X64794252Y-103195534D01*
X64940331Y-103135026D01*
X65056511Y-103045878D01*
X65059226Y-103043795D01*
X65065772Y-103038772D01*
X65162026Y-102913331D01*
X65222534Y-102767252D01*
X65243172Y-102610490D01*
X65222534Y-102453728D01*
X65162026Y-102307649D01*
X65065772Y-102182208D01*
X64940331Y-102085954D01*
X64794252Y-102025446D01*
X64637490Y-102004808D01*
X64480728Y-102025446D01*
X64334649Y-102085954D01*
X64209208Y-102182208D01*
X64112954Y-102307649D01*
X64052446Y-102453728D01*
X64031808Y-102610490D01*
X60864257Y-102610490D01*
X60844026Y-102561649D01*
X60747772Y-102436208D01*
X60622331Y-102339954D01*
X60476252Y-102279446D01*
X60319490Y-102258808D01*
X60162728Y-102279446D01*
X60016649Y-102339954D01*
X60010098Y-102344981D01*
X59965264Y-102379383D01*
X59899043Y-102404983D01*
X59849565Y-102394835D01*
X59860197Y-102441053D01*
X59834383Y-102510264D01*
X59794954Y-102561649D01*
X59734446Y-102707728D01*
X59713808Y-102864490D01*
X53334490Y-102864490D01*
X53334490Y-101848490D01*
X58697808Y-101848490D01*
X58718446Y-102005252D01*
X58778954Y-102151331D01*
X58875208Y-102276772D01*
X59000649Y-102373026D01*
X59146728Y-102433534D01*
X59303490Y-102454172D01*
X59311678Y-102453094D01*
X59452064Y-102434612D01*
X59460252Y-102433534D01*
X59606331Y-102373026D01*
X59657716Y-102333597D01*
X59723937Y-102307997D01*
X59773415Y-102318145D01*
X59762783Y-102271927D01*
X59788597Y-102202716D01*
X59804333Y-102182208D01*
X59828026Y-102151331D01*
X59888534Y-102005252D01*
X59909172Y-101848490D01*
X59888534Y-101691728D01*
X59828026Y-101545649D01*
X59731772Y-101420208D01*
X59606331Y-101323954D01*
X59460252Y-101263446D01*
X59303490Y-101242808D01*
X59146728Y-101263446D01*
X59000649Y-101323954D01*
X58875208Y-101420208D01*
X58778954Y-101545649D01*
X58718446Y-101691728D01*
X58697808Y-101848490D01*
X53334490Y-101848490D01*
X53334490Y-101513224D01*
X53354492Y-101445103D01*
X53408148Y-101398610D01*
X53478422Y-101388506D01*
X53508708Y-101396815D01*
X53558728Y-101417534D01*
X53715490Y-101438172D01*
X53723678Y-101437094D01*
X53864064Y-101418612D01*
X53872252Y-101417534D01*
X54018331Y-101357026D01*
X54143772Y-101260772D01*
X54240026Y-101135331D01*
X54300534Y-100989252D01*
X54321172Y-100832490D01*
X54300534Y-100675728D01*
X54240026Y-100529649D01*
X54143772Y-100404208D01*
X54018331Y-100307954D01*
X53872252Y-100247446D01*
X53715490Y-100226808D01*
X53558728Y-100247446D01*
X53551099Y-100250606D01*
X53508708Y-100268165D01*
X53438118Y-100275754D01*
X53374631Y-100243975D01*
X53338404Y-100182917D01*
X53334490Y-100151756D01*
X53334490Y-99308490D01*
X59205808Y-99308490D01*
X59226446Y-99465252D01*
X59286954Y-99611331D01*
X59383208Y-99736772D01*
X59389754Y-99741795D01*
X59502101Y-99828002D01*
X59502103Y-99828003D01*
X59508649Y-99833026D01*
X59509810Y-99833507D01*
X59556566Y-99882545D01*
X59570000Y-99952259D01*
X59548465Y-100006994D01*
X59550111Y-100007944D01*
X59545981Y-100015097D01*
X59540954Y-100021649D01*
X59480446Y-100167728D01*
X59459808Y-100324490D01*
X59480446Y-100481252D01*
X59540954Y-100627331D01*
X59637208Y-100752772D01*
X59762649Y-100849026D01*
X59908728Y-100909534D01*
X60065490Y-100930172D01*
X60073678Y-100929094D01*
X60214064Y-100910612D01*
X60222252Y-100909534D01*
X60368331Y-100849026D01*
X60493772Y-100752772D01*
X60590026Y-100627331D01*
X60650534Y-100481252D01*
X60671172Y-100324490D01*
X60650534Y-100167728D01*
X60590026Y-100021649D01*
X60493772Y-99896208D01*
X60487226Y-99891185D01*
X60374879Y-99804978D01*
X60374877Y-99804977D01*
X60368331Y-99799954D01*
X60367170Y-99799473D01*
X60320414Y-99750435D01*
X60306980Y-99680721D01*
X60328515Y-99625986D01*
X60326869Y-99625036D01*
X60330999Y-99617882D01*
X60336026Y-99611331D01*
X60396534Y-99465252D01*
X60417172Y-99308490D01*
X60396534Y-99151728D01*
X60336026Y-99005649D01*
X60239772Y-98880208D01*
X60135881Y-98800490D01*
X64539808Y-98800490D01*
X64560446Y-98957252D01*
X64620954Y-99103331D01*
X64717208Y-99228772D01*
X64842649Y-99325026D01*
X64988728Y-99385534D01*
X65145490Y-99406172D01*
X65153678Y-99405094D01*
X65294064Y-99386612D01*
X65302252Y-99385534D01*
X65448331Y-99325026D01*
X65573772Y-99228772D01*
X65575250Y-99230698D01*
X65626707Y-99202600D01*
X65697522Y-99207665D01*
X65732269Y-99229996D01*
X65733208Y-99228772D01*
X65858649Y-99325026D01*
X66004728Y-99385534D01*
X66161490Y-99406172D01*
X66169678Y-99405094D01*
X66310064Y-99386612D01*
X66318252Y-99385534D01*
X66464331Y-99325026D01*
X66589772Y-99228772D01*
X66591250Y-99230698D01*
X66642707Y-99202600D01*
X66713522Y-99207665D01*
X66748269Y-99229996D01*
X66749208Y-99228772D01*
X66874649Y-99325026D01*
X67020728Y-99385534D01*
X67177490Y-99406172D01*
X67185678Y-99405094D01*
X67326064Y-99386612D01*
X67334252Y-99385534D01*
X67480331Y-99325026D01*
X67605772Y-99228772D01*
X67702026Y-99103331D01*
X67762534Y-98957252D01*
X67783172Y-98800490D01*
X67762534Y-98643728D01*
X67702026Y-98497649D01*
X67605772Y-98372208D01*
X67480331Y-98275954D01*
X67334252Y-98215446D01*
X67177490Y-98194808D01*
X67020728Y-98215446D01*
X66874649Y-98275954D01*
X66749208Y-98372208D01*
X66747730Y-98370282D01*
X66696273Y-98398380D01*
X66625458Y-98393315D01*
X66590711Y-98370984D01*
X66589772Y-98372208D01*
X66470882Y-98280981D01*
X66464331Y-98275954D01*
X66318252Y-98215446D01*
X66161490Y-98194808D01*
X66004728Y-98215446D01*
X65858649Y-98275954D01*
X65733208Y-98372208D01*
X65731730Y-98370282D01*
X65680273Y-98398380D01*
X65609458Y-98393315D01*
X65574711Y-98370984D01*
X65573772Y-98372208D01*
X65454882Y-98280981D01*
X65448331Y-98275954D01*
X65302252Y-98215446D01*
X65145490Y-98194808D01*
X64988728Y-98215446D01*
X64842649Y-98275954D01*
X64717208Y-98372208D01*
X64620954Y-98497649D01*
X64560446Y-98643728D01*
X64539808Y-98800490D01*
X60135881Y-98800490D01*
X60114331Y-98783954D01*
X59968252Y-98723446D01*
X59811490Y-98702808D01*
X59654728Y-98723446D01*
X59508649Y-98783954D01*
X59383208Y-98880208D01*
X59286954Y-99005649D01*
X59226446Y-99151728D01*
X59205808Y-99308490D01*
X53334490Y-99308490D01*
X53334490Y-97690990D01*
X53354492Y-97622869D01*
X53408148Y-97576376D01*
X53460490Y-97564990D01*
X53569238Y-97564990D01*
X53575306Y-97563783D01*
X53615551Y-97555778D01*
X53615552Y-97555778D01*
X53627721Y-97553357D01*
X53694042Y-97509042D01*
X53738357Y-97442721D01*
X53749990Y-97384238D01*
X53749990Y-95644742D01*
X53738357Y-95586259D01*
X53694042Y-95519938D01*
X53627721Y-95475623D01*
X53615552Y-95473202D01*
X53615551Y-95473202D01*
X53575306Y-95465197D01*
X53569238Y-95463990D01*
X53460490Y-95463990D01*
X53392369Y-95443988D01*
X53345876Y-95390332D01*
X53334490Y-95337990D01*
X53334490Y-95008720D01*
X53354492Y-94940599D01*
X53371397Y-94919622D01*
X53375219Y-94915800D01*
X53381772Y-94910772D01*
X53401499Y-94885064D01*
X53450105Y-94821718D01*
X53478026Y-94785331D01*
X53498257Y-94736490D01*
X62507808Y-94736490D01*
X62528446Y-94893252D01*
X62531606Y-94900881D01*
X62532992Y-94904226D01*
X62588954Y-95039331D01*
X62685208Y-95164772D01*
X62810649Y-95261026D01*
X62956728Y-95321534D01*
X63113490Y-95342172D01*
X63121678Y-95341094D01*
X63145256Y-95337990D01*
X63270252Y-95321534D01*
X63416331Y-95261026D01*
X63430700Y-95250000D01*
X65264308Y-95250000D01*
X65284946Y-95406762D01*
X65345454Y-95552841D01*
X65441708Y-95678282D01*
X65567149Y-95774536D01*
X65713228Y-95835044D01*
X65869990Y-95855682D01*
X65878178Y-95854604D01*
X66018564Y-95836122D01*
X66026752Y-95835044D01*
X66172831Y-95774536D01*
X66298272Y-95678282D01*
X66394526Y-95552841D01*
X66455034Y-95406762D01*
X66475672Y-95250000D01*
X66455034Y-95093238D01*
X66394526Y-94947159D01*
X66298272Y-94821718D01*
X66172831Y-94725464D01*
X66026752Y-94664956D01*
X65869990Y-94644318D01*
X65713228Y-94664956D01*
X65567149Y-94725464D01*
X65441708Y-94821718D01*
X65345454Y-94947159D01*
X65284946Y-95093238D01*
X65264308Y-95250000D01*
X63430700Y-95250000D01*
X63541772Y-95164772D01*
X63638026Y-95039331D01*
X63693988Y-94904226D01*
X63695374Y-94900881D01*
X63698534Y-94893252D01*
X63719172Y-94736490D01*
X63698534Y-94579728D01*
X63638026Y-94433649D01*
X63541772Y-94308208D01*
X63416331Y-94211954D01*
X63270252Y-94151446D01*
X63113490Y-94130808D01*
X62956728Y-94151446D01*
X62810649Y-94211954D01*
X62685208Y-94308208D01*
X62588954Y-94433649D01*
X62528446Y-94579728D01*
X62507808Y-94736490D01*
X53498257Y-94736490D01*
X53538534Y-94639252D01*
X53559172Y-94482490D01*
X53538534Y-94325728D01*
X53478026Y-94179649D01*
X53418053Y-94101490D01*
X57173808Y-94101490D01*
X57194446Y-94258252D01*
X57254954Y-94404331D01*
X57351208Y-94529772D01*
X57476649Y-94626026D01*
X57622728Y-94686534D01*
X57779490Y-94707172D01*
X57787678Y-94706094D01*
X57928064Y-94687612D01*
X57936252Y-94686534D01*
X58082331Y-94626026D01*
X58207772Y-94529772D01*
X58304026Y-94404331D01*
X58364534Y-94258252D01*
X58385172Y-94101490D01*
X58364534Y-93944728D01*
X58304026Y-93798649D01*
X58207772Y-93673208D01*
X58082331Y-93576954D01*
X57936252Y-93516446D01*
X57779490Y-93495808D01*
X57622728Y-93516446D01*
X57476649Y-93576954D01*
X57351208Y-93673208D01*
X57254954Y-93798649D01*
X57194446Y-93944728D01*
X57173808Y-94101490D01*
X53418053Y-94101490D01*
X53381772Y-94054208D01*
X53375219Y-94049180D01*
X53371397Y-94045358D01*
X53337370Y-93983046D01*
X53334490Y-93956260D01*
X53334490Y-93602990D01*
X53344764Y-93568001D01*
X54189490Y-93568001D01*
X54190697Y-93580256D01*
X54198673Y-93620354D01*
X54207989Y-93642845D01*
X54238405Y-93688366D01*
X54255614Y-93705575D01*
X54301135Y-93735991D01*
X54323626Y-93745307D01*
X54363724Y-93753283D01*
X54375979Y-93754490D01*
X54967375Y-93754490D01*
X54982614Y-93750015D01*
X54983819Y-93748625D01*
X54985490Y-93740942D01*
X54985490Y-93736375D01*
X55493490Y-93736375D01*
X55497965Y-93751614D01*
X55499355Y-93752819D01*
X55507038Y-93754490D01*
X56103001Y-93754490D01*
X56115256Y-93753283D01*
X56155354Y-93745307D01*
X56177845Y-93735991D01*
X56223366Y-93705575D01*
X56240575Y-93688366D01*
X56270991Y-93642845D01*
X56280307Y-93620354D01*
X56288283Y-93580256D01*
X56289490Y-93568001D01*
X56289490Y-92976605D01*
X56285015Y-92961366D01*
X56283625Y-92960161D01*
X56275942Y-92958490D01*
X55511605Y-92958490D01*
X55496366Y-92962965D01*
X55495161Y-92964355D01*
X55493490Y-92972038D01*
X55493490Y-93736375D01*
X54985490Y-93736375D01*
X54985490Y-92976605D01*
X54981015Y-92961366D01*
X54979625Y-92960161D01*
X54971942Y-92958490D01*
X54207605Y-92958490D01*
X54192366Y-92962965D01*
X54191161Y-92964355D01*
X54189490Y-92972038D01*
X54189490Y-93568001D01*
X53344764Y-93568001D01*
X53354492Y-93534869D01*
X53382917Y-93503701D01*
X53422585Y-93472709D01*
X53422591Y-93472703D01*
X53427441Y-93468914D01*
X53562054Y-93312962D01*
X53582877Y-93276308D01*
X53619130Y-93212490D01*
X53663813Y-93133834D01*
X53728841Y-92938353D01*
X53754661Y-92733964D01*
X53755073Y-92704490D01*
X53734970Y-92499460D01*
X53714716Y-92432375D01*
X54189490Y-92432375D01*
X54193965Y-92447614D01*
X54195355Y-92448819D01*
X54203038Y-92450490D01*
X54967375Y-92450490D01*
X54982614Y-92446015D01*
X54983819Y-92444625D01*
X54985490Y-92436942D01*
X54985490Y-92432375D01*
X55493490Y-92432375D01*
X55497965Y-92447614D01*
X55499355Y-92448819D01*
X55507038Y-92450490D01*
X56271375Y-92450490D01*
X56286614Y-92446015D01*
X56287819Y-92444625D01*
X56289490Y-92436942D01*
X56289490Y-92196490D01*
X57681808Y-92196490D01*
X57702446Y-92353252D01*
X57762954Y-92499331D01*
X57859208Y-92624772D01*
X57984649Y-92721026D01*
X58130728Y-92781534D01*
X58287490Y-92802172D01*
X58295678Y-92801094D01*
X58436064Y-92782612D01*
X58444252Y-92781534D01*
X58590331Y-92721026D01*
X58715772Y-92624772D01*
X58812026Y-92499331D01*
X58872534Y-92353252D01*
X58893172Y-92196490D01*
X58872534Y-92039728D01*
X58812026Y-91893649D01*
X58715772Y-91768208D01*
X58590331Y-91671954D01*
X58444252Y-91611446D01*
X58287490Y-91590808D01*
X58130728Y-91611446D01*
X57984649Y-91671954D01*
X57859208Y-91768208D01*
X57762954Y-91893649D01*
X57702446Y-92039728D01*
X57681808Y-92196490D01*
X56289490Y-92196490D01*
X56289490Y-91840979D01*
X56288283Y-91828724D01*
X56280307Y-91788626D01*
X56270991Y-91766135D01*
X56240575Y-91720614D01*
X56223366Y-91703405D01*
X56177845Y-91672989D01*
X56155354Y-91663673D01*
X56115256Y-91655697D01*
X56103001Y-91654490D01*
X55511605Y-91654490D01*
X55496366Y-91658965D01*
X55495161Y-91660355D01*
X55493490Y-91668038D01*
X55493490Y-92432375D01*
X54985490Y-92432375D01*
X54985490Y-91672605D01*
X54981015Y-91657366D01*
X54979625Y-91656161D01*
X54971942Y-91654490D01*
X54375979Y-91654490D01*
X54363724Y-91655697D01*
X54323626Y-91663673D01*
X54301135Y-91672989D01*
X54255614Y-91703405D01*
X54238405Y-91720614D01*
X54207989Y-91766135D01*
X54198673Y-91788626D01*
X54190697Y-91828724D01*
X54189490Y-91840979D01*
X54189490Y-92432375D01*
X53714716Y-92432375D01*
X53675425Y-92302239D01*
X53578708Y-92120339D01*
X53505349Y-92030392D01*
X53452396Y-91965465D01*
X53452393Y-91965462D01*
X53448501Y-91960690D01*
X53380175Y-91904165D01*
X53340436Y-91845332D01*
X53334490Y-91807081D01*
X53334490Y-91561490D01*
X59967808Y-91561490D01*
X59988446Y-91718252D01*
X60048954Y-91864331D01*
X60145208Y-91989772D01*
X60270649Y-92086026D01*
X60416728Y-92146534D01*
X60573490Y-92167172D01*
X60581678Y-92166094D01*
X60722064Y-92147612D01*
X60730252Y-92146534D01*
X60876331Y-92086026D01*
X61001772Y-91989772D01*
X61038053Y-91942490D01*
X67333808Y-91942490D01*
X67354446Y-92099252D01*
X67414954Y-92245331D01*
X67511208Y-92370772D01*
X67636649Y-92467026D01*
X67680095Y-92485022D01*
X67704483Y-92495124D01*
X67759764Y-92539673D01*
X67782185Y-92607036D01*
X67764627Y-92675827D01*
X67732968Y-92711496D01*
X67644757Y-92779182D01*
X67644754Y-92779185D01*
X67638208Y-92784208D01*
X67541954Y-92909649D01*
X67481446Y-93055728D01*
X67460808Y-93212490D01*
X67481446Y-93369252D01*
X67541954Y-93515331D01*
X67638208Y-93640772D01*
X67763649Y-93737026D01*
X67909728Y-93797534D01*
X68066490Y-93818172D01*
X68074678Y-93817094D01*
X68215064Y-93798612D01*
X68223252Y-93797534D01*
X68369331Y-93737026D01*
X68494772Y-93640772D01*
X68591026Y-93515331D01*
X68651534Y-93369252D01*
X68672172Y-93212490D01*
X68651534Y-93055728D01*
X68591026Y-92909649D01*
X68494772Y-92784208D01*
X68369331Y-92687954D01*
X68301497Y-92659856D01*
X68246216Y-92615307D01*
X68223795Y-92547944D01*
X68241353Y-92479153D01*
X68273012Y-92443484D01*
X68361223Y-92375798D01*
X68361226Y-92375795D01*
X68367772Y-92370772D01*
X68464026Y-92245331D01*
X68466218Y-92240040D01*
X68516752Y-92191854D01*
X68586465Y-92178416D01*
X68652376Y-92204802D01*
X68682627Y-92239714D01*
X68684954Y-92245331D01*
X68781208Y-92370772D01*
X68906649Y-92467026D01*
X69052728Y-92527534D01*
X69209490Y-92548172D01*
X69217678Y-92547094D01*
X69358064Y-92528612D01*
X69366252Y-92527534D01*
X69512331Y-92467026D01*
X69637772Y-92370772D01*
X69734026Y-92245331D01*
X69794534Y-92099252D01*
X69815172Y-91942490D01*
X69794534Y-91785728D01*
X69734026Y-91639649D01*
X69637772Y-91514208D01*
X69512331Y-91417954D01*
X69507040Y-91415762D01*
X69458854Y-91365228D01*
X69445416Y-91295515D01*
X69471802Y-91229604D01*
X69506714Y-91199353D01*
X69512331Y-91197026D01*
X69637772Y-91100772D01*
X69734026Y-90975331D01*
X69794534Y-90829252D01*
X69815172Y-90672490D01*
X69794534Y-90515728D01*
X69734026Y-90369649D01*
X69637772Y-90244208D01*
X69631226Y-90239185D01*
X69631222Y-90239181D01*
X69626257Y-90235371D01*
X69584391Y-90178032D01*
X69580172Y-90107161D01*
X69614938Y-90045259D01*
X69654747Y-90019002D01*
X69697712Y-90001206D01*
X69697716Y-90001203D01*
X69705344Y-89998044D01*
X69830785Y-89901790D01*
X69847283Y-89880290D01*
X69883541Y-89833037D01*
X69927039Y-89776349D01*
X69987547Y-89630270D01*
X70008185Y-89473508D01*
X69987547Y-89316746D01*
X69927039Y-89170667D01*
X69830785Y-89045226D01*
X69800318Y-89021848D01*
X69758451Y-88964512D01*
X69754227Y-88893641D01*
X69787097Y-88834287D01*
X69790771Y-88831468D01*
X69887025Y-88706027D01*
X69947533Y-88559948D01*
X69968171Y-88403186D01*
X69947533Y-88246424D01*
X69887025Y-88100345D01*
X69790771Y-87974904D01*
X69766061Y-87955943D01*
X69754571Y-87947127D01*
X69665330Y-87878650D01*
X69519251Y-87818142D01*
X69362489Y-87797504D01*
X69205727Y-87818142D01*
X69059648Y-87878650D01*
X68970407Y-87947127D01*
X68958918Y-87955943D01*
X68934207Y-87974904D01*
X68837953Y-88100345D01*
X68777445Y-88246424D01*
X68756807Y-88403186D01*
X68777445Y-88559948D01*
X68837953Y-88706027D01*
X68934207Y-88831468D01*
X68940753Y-88836491D01*
X68940754Y-88836492D01*
X68964673Y-88854845D01*
X69006541Y-88912182D01*
X69010765Y-88983053D01*
X68977895Y-89042407D01*
X68974221Y-89045226D01*
X68877967Y-89170667D01*
X68817459Y-89316746D01*
X68796821Y-89473508D01*
X68817459Y-89630270D01*
X68877967Y-89776349D01*
X68921465Y-89833037D01*
X68957724Y-89880290D01*
X68974221Y-89901790D01*
X68980767Y-89906813D01*
X68980771Y-89906817D01*
X68985736Y-89910627D01*
X69027602Y-89967966D01*
X69031821Y-90038837D01*
X68997055Y-90100739D01*
X68957246Y-90126996D01*
X68914281Y-90144792D01*
X68914278Y-90144794D01*
X68906649Y-90147954D01*
X68781208Y-90244208D01*
X68684954Y-90369649D01*
X68624446Y-90515728D01*
X68603808Y-90672490D01*
X68624446Y-90829252D01*
X68684954Y-90975331D01*
X68781208Y-91100772D01*
X68906649Y-91197026D01*
X68911940Y-91199218D01*
X68960126Y-91249752D01*
X68973564Y-91319465D01*
X68947178Y-91385376D01*
X68912266Y-91415627D01*
X68906649Y-91417954D01*
X68781208Y-91514208D01*
X68684954Y-91639649D01*
X68682762Y-91644940D01*
X68632228Y-91693126D01*
X68562515Y-91706564D01*
X68496604Y-91680178D01*
X68466353Y-91645266D01*
X68464026Y-91639649D01*
X68367772Y-91514208D01*
X68242331Y-91417954D01*
X68096252Y-91357446D01*
X67939490Y-91336808D01*
X67782728Y-91357446D01*
X67636649Y-91417954D01*
X67511208Y-91514208D01*
X67414954Y-91639649D01*
X67354446Y-91785728D01*
X67333808Y-91942490D01*
X61038053Y-91942490D01*
X61098026Y-91864331D01*
X61158534Y-91718252D01*
X61179172Y-91561490D01*
X61158534Y-91404728D01*
X61098026Y-91258649D01*
X61001772Y-91133208D01*
X60876331Y-91036954D01*
X60730252Y-90976446D01*
X60573490Y-90955808D01*
X60416728Y-90976446D01*
X60270649Y-91036954D01*
X60145208Y-91133208D01*
X60048954Y-91258649D01*
X59988446Y-91404728D01*
X59967808Y-91561490D01*
X53334490Y-91561490D01*
X53334490Y-90672490D01*
X62253808Y-90672490D01*
X62274446Y-90829252D01*
X62334954Y-90975331D01*
X62431208Y-91100772D01*
X62556649Y-91197026D01*
X62702728Y-91257534D01*
X62859490Y-91278172D01*
X62867678Y-91277094D01*
X63008064Y-91258612D01*
X63016252Y-91257534D01*
X63162331Y-91197026D01*
X63287772Y-91100772D01*
X63384026Y-90975331D01*
X63444534Y-90829252D01*
X63465172Y-90672490D01*
X63444534Y-90515728D01*
X63384026Y-90369649D01*
X63287772Y-90244208D01*
X63162331Y-90147954D01*
X63016252Y-90087446D01*
X62859490Y-90066808D01*
X62702728Y-90087446D01*
X62556649Y-90147954D01*
X62431208Y-90244208D01*
X62334954Y-90369649D01*
X62274446Y-90515728D01*
X62253808Y-90672490D01*
X53334490Y-90672490D01*
X53334490Y-89792990D01*
X53354492Y-89724869D01*
X53382917Y-89693701D01*
X53422585Y-89662709D01*
X53422591Y-89662703D01*
X53427441Y-89658914D01*
X53459234Y-89622082D01*
X53558030Y-89507624D01*
X53558030Y-89507623D01*
X53562054Y-89502962D01*
X53582877Y-89466308D01*
X53600546Y-89435204D01*
X53663813Y-89323834D01*
X53728841Y-89128353D01*
X53754661Y-88923964D01*
X53755073Y-88894490D01*
X53753628Y-88879752D01*
X54184010Y-88879752D01*
X54184526Y-88885896D01*
X54197484Y-89040202D01*
X54201249Y-89085043D01*
X54258034Y-89283076D01*
X54260849Y-89288553D01*
X54260850Y-89288556D01*
X54349387Y-89460831D01*
X54352202Y-89466308D01*
X54480167Y-89627760D01*
X54484860Y-89631754D01*
X54484861Y-89631755D01*
X54557648Y-89693701D01*
X54637054Y-89761281D01*
X54642432Y-89764287D01*
X54642434Y-89764288D01*
X54680832Y-89785748D01*
X54816888Y-89861787D01*
X54900770Y-89889042D01*
X55006961Y-89923546D01*
X55006965Y-89923547D01*
X55012819Y-89925449D01*
X55217384Y-89949841D01*
X55223519Y-89949369D01*
X55223521Y-89949369D01*
X55296115Y-89943783D01*
X55422790Y-89934036D01*
X55428720Y-89932380D01*
X55428722Y-89932380D01*
X55615287Y-89880290D01*
X55615286Y-89880290D01*
X55621215Y-89878635D01*
X55626704Y-89875862D01*
X55626710Y-89875860D01*
X55799606Y-89788523D01*
X55805100Y-89785748D01*
X55832632Y-89764238D01*
X56728990Y-89764238D01*
X56730197Y-89770306D01*
X56733821Y-89788523D01*
X56740623Y-89822721D01*
X56784938Y-89889042D01*
X56851259Y-89933357D01*
X56863428Y-89935778D01*
X56863429Y-89935778D01*
X56903674Y-89943783D01*
X56909742Y-89944990D01*
X58649238Y-89944990D01*
X58655306Y-89943783D01*
X58695551Y-89935778D01*
X58695552Y-89935778D01*
X58707721Y-89933357D01*
X58774042Y-89889042D01*
X58818357Y-89822721D01*
X58825160Y-89788523D01*
X58828783Y-89770306D01*
X58829990Y-89764238D01*
X58829990Y-88753408D01*
X62736828Y-88753408D01*
X62757466Y-88910170D01*
X62817974Y-89056249D01*
X62914228Y-89181690D01*
X63039669Y-89277944D01*
X63185748Y-89338452D01*
X63342510Y-89359090D01*
X63350698Y-89358012D01*
X63491084Y-89339530D01*
X63499272Y-89338452D01*
X63645351Y-89277944D01*
X63770792Y-89181690D01*
X63867046Y-89056249D01*
X63927554Y-88910170D01*
X63948192Y-88753408D01*
X63927554Y-88596646D01*
X63867046Y-88450567D01*
X63770792Y-88325126D01*
X63645351Y-88228872D01*
X63499272Y-88168364D01*
X63342510Y-88147726D01*
X63185748Y-88168364D01*
X63039669Y-88228872D01*
X62914228Y-88325126D01*
X62817974Y-88450567D01*
X62757466Y-88596646D01*
X62736828Y-88753408D01*
X58829990Y-88753408D01*
X58829990Y-88024742D01*
X58818357Y-87966259D01*
X58774042Y-87899938D01*
X58707721Y-87855623D01*
X58695552Y-87853202D01*
X58695551Y-87853202D01*
X58655306Y-87845197D01*
X58649238Y-87843990D01*
X56909742Y-87843990D01*
X56903674Y-87845197D01*
X56863429Y-87853202D01*
X56863428Y-87853202D01*
X56851259Y-87855623D01*
X56784938Y-87899938D01*
X56740623Y-87966259D01*
X56728990Y-88024742D01*
X56728990Y-89764238D01*
X55832632Y-89764238D01*
X55967441Y-89658914D01*
X55999234Y-89622082D01*
X56098030Y-89507624D01*
X56098030Y-89507623D01*
X56102054Y-89502962D01*
X56122877Y-89466308D01*
X56140546Y-89435204D01*
X56203813Y-89323834D01*
X56268841Y-89128353D01*
X56294661Y-88923964D01*
X56295073Y-88894490D01*
X56274970Y-88689460D01*
X56215425Y-88492239D01*
X56118708Y-88310339D01*
X56002916Y-88168364D01*
X55992396Y-88155465D01*
X55992393Y-88155462D01*
X55988501Y-88150690D01*
X55971276Y-88136440D01*
X55834515Y-88023301D01*
X55834511Y-88023299D01*
X55829765Y-88019372D01*
X55648545Y-87921387D01*
X55451744Y-87860467D01*
X55445619Y-87859823D01*
X55445618Y-87859823D01*
X55252988Y-87839577D01*
X55252986Y-87839577D01*
X55246859Y-87838933D01*
X55160019Y-87846836D01*
X55047832Y-87857045D01*
X55047829Y-87857046D01*
X55041693Y-87857604D01*
X54844062Y-87915770D01*
X54661492Y-88011216D01*
X54656691Y-88015076D01*
X54656688Y-88015078D01*
X54505744Y-88136440D01*
X54500937Y-88140305D01*
X54368514Y-88298120D01*
X54365546Y-88303518D01*
X54365543Y-88303523D01*
X54306252Y-88411374D01*
X54269266Y-88478652D01*
X54206974Y-88675022D01*
X54206288Y-88681139D01*
X54206287Y-88681143D01*
X54188862Y-88836492D01*
X54184010Y-88879752D01*
X53753628Y-88879752D01*
X53734970Y-88689460D01*
X53675425Y-88492239D01*
X53578708Y-88310339D01*
X53462916Y-88168364D01*
X53452396Y-88155465D01*
X53452393Y-88155462D01*
X53448501Y-88150690D01*
X53380175Y-88094165D01*
X53340436Y-88035332D01*
X53334490Y-87997081D01*
X53334490Y-86988490D01*
X53354492Y-86920369D01*
X53408148Y-86873876D01*
X53460490Y-86862490D01*
X58875928Y-86862490D01*
X58944049Y-86882492D01*
G37*
%TD.AperFunction*%
%TD*%
%TA.AperFunction,Conductor*%
%TO.N,+3V3*%
G36*
X42885191Y-111016907D02*
G01*
X42921155Y-111066407D01*
X42926000Y-111097000D01*
X42926000Y-116487000D01*
X42907093Y-116545191D01*
X42857593Y-116581155D01*
X42827000Y-116586000D01*
X38961000Y-116586000D01*
X38902809Y-116567093D01*
X38866845Y-116517593D01*
X38862000Y-116487000D01*
X38862000Y-111097000D01*
X38880907Y-111038809D01*
X38930407Y-111002845D01*
X38961000Y-110998000D01*
X42827000Y-110998000D01*
X42885191Y-111016907D01*
G37*
%TD.AperFunction*%
%TD*%
%TA.AperFunction,Conductor*%
%TO.N,+5V*%
G36*
X26375191Y-75456907D02*
G01*
X26411155Y-75506407D01*
X26416000Y-75537000D01*
X26416000Y-77879000D01*
X26397093Y-77937191D01*
X26347593Y-77973155D01*
X26317000Y-77978000D01*
X20927000Y-77978000D01*
X20868809Y-77959093D01*
X20832845Y-77909593D01*
X20828000Y-77879000D01*
X20828000Y-75537000D01*
X20846907Y-75478809D01*
X20896407Y-75442845D01*
X20927000Y-75438000D01*
X26317000Y-75438000D01*
X26375191Y-75456907D01*
G37*
%TD.AperFunction*%
%TD*%
M02*
