M48
; DRILL file {KiCad (6.0.2)} date Fri Mar 11 12:30:28 2022
; FORMAT={-:-/ absolute / inch / decimal}
; #@! TF.CreationDate,2022-03-11T12:30:28+01:00
; #@! TF.GenerationSoftware,Kicad,Pcbnew,(6.0.2)
; #@! TF.FileFunction,Plated,1,4,PTH
FMAT,2
INCH
; #@! TA.AperFunction,Plated,PTH,ViaDrill
T1C0.0157
; #@! TA.AperFunction,Plated,PTH,ComponentDrill
T2C0.0394
; #@! TA.AperFunction,Plated,PTH,ComponentDrill
T3C0.0472
%
G90
G05
T1
X0.84Y-3.59
X0.87Y-3.035
X0.88Y-3.59
X0.905Y-4.34
X0.905Y-4.48
X0.91Y-3.035
X0.92Y-3.59
X0.94Y-3.41
X0.94Y-3.45
X0.94Y-3.49
X0.945Y-4.595
X0.945Y-4.65
X0.945Y-4.705
X0.95Y-3.035
X0.955Y-4.34
X0.955Y-4.48
X0.985Y-4.595
X0.985Y-4.65
X0.985Y-4.705
X0.99Y-3.035
X1.005Y-4.34
X1.005Y-4.48
X1.055Y-3.46
X1.055Y-3.5
X1.11Y-3.325
X1.11Y-3.46
X1.11Y-3.5
X1.12Y-4.67
X1.12Y-4.71
X1.16Y-2.905
X1.16Y-2.95
X1.165Y-3.46
X1.165Y-3.5
X1.18Y-3.005
X1.22Y-3.005
X1.26Y-3.16
X1.26Y-3.2
X1.275Y-4.705
X1.275Y-4.745
X1.315Y-4.705
X1.315Y-4.745
X1.355Y-3.42
X1.375Y-4.715
X1.375Y-4.76
X1.395Y-3.7517
X1.395Y-3.7917
X1.395Y-3.8317
X1.395Y-3.8717
X1.42Y-3.32
X1.42Y-3.36
X1.42Y-3.4
X1.445Y-4.715
X1.445Y-4.76
X1.445Y-4.805
X1.445Y-4.85
X1.515Y-4.715
X1.515Y-4.76
X1.54Y-3.32
X1.54Y-3.36
X1.54Y-3.4
X1.56Y-3.14
X1.58Y-4.39
X1.58Y-4.44
X1.58Y-4.49
X1.58Y-4.54
X1.64Y-4.39
X1.64Y-4.44
X1.64Y-4.49
X1.64Y-4.54
X1.6448Y-3.2698
X1.7448Y-3.2798
X1.8Y-4.35
X1.8448Y-3.2798
X1.8648Y-3.7198
X1.8748Y-3.9998
X1.875Y-4.04
X1.9048Y-3.8998
X1.9048Y-4.0798
X1.9048Y-4.3598
X1.9448Y-3.2798
X1.9635Y-4.3065
X2.025Y-4.42
X2.035Y-3.45
X2.0448Y-3.2798
X2.0848Y-3.7198
X2.105Y-3.225
X2.1148Y-3.9698
X2.1848Y-4.0998
X2.2548Y-4.0798
X2.2748Y-3.7048
X2.2948Y-3.6298
X2.3298Y-4.0548
X2.3348Y-4.0098
X2.3448Y-3.4148
X2.3548Y-3.9098
X2.3616Y-3.8098
X2.3648Y-3.9498
X2.3748Y-4.0498
X2.3848Y-3.6048
X2.3948Y-3.5298
X2.4325Y-4.6025
X2.4427Y-3.1532
X2.4448Y-3.9198
X2.4448Y-3.0952
X2.4648Y-4.6198
X2.47Y-3.065
X2.4709Y-3.1247
X2.4748Y-3.5698
X2.4848Y-3.7298
X2.4848Y-4.2098
X2.4938Y-3.4942
X2.4975Y-4.6025
X2.5448Y-4.0398
X2.5648Y-3.8898
X2.5848Y-4.0398
X2.5933Y-3.75
X2.6048Y-3.8898
X2.625Y-4.7142
X2.6252Y-4.5902
X2.6448Y-3.8898
X2.655Y-4.74
X2.6554Y-4.6154
X2.6748Y-3.6198
X2.6798Y-3.6698
X2.6848Y-4.5892
X2.685Y-4.7142
X2.705Y-4.08
X2.715Y-4.615
X2.7174Y-4.7366
X2.7182Y-3.7032
X2.7248Y-3.5698
X2.7248Y-3.6198
X2.7308Y-3.4804
X2.7324Y-3.5226
X2.755Y-4.7142
X2.7552Y-4.5902
X2.77Y-4.1102
X2.785Y-3.48
X2.8148Y-3.7198
X2.85Y-4.005
X2.85Y-4.045
X2.97Y-3.43
X2.9852Y-3.5098
X3.0648Y-3.7799
X3.0651Y-3.8192
X3.0744Y-3.6933
X3.0748Y-3.5098
X3.0748Y-3.5998
X3.0795Y-3.9598
X3.205Y-4.03
X3.2309Y-4.0596
X3.25Y-3.4585
X3.325Y-3.43
X3.33Y-4.536
X3.33Y-4.72
X3.3694Y-4.72
X3.372Y-4.536
X3.4165Y-3.7821
X3.513Y-3.3115
X3.52Y-4.0
X3.52Y-4.115
X3.545Y-3.2886
X3.5748Y-3.3152
X3.58Y-4.0
X3.5825Y-4.1125
X3.605Y-3.29
X3.615Y-4.08
X3.825Y-3.805
X3.84Y-4.51
X3.84Y-4.57
X3.85Y-3.09
X3.85Y-3.135
X3.85Y-3.19
X3.85Y-3.47
X3.85Y-3.52
X3.86Y-4.0914
X3.86Y-4.1314
X3.86Y-4.1914
X3.87Y-3.59
X3.87Y-4.62
X3.97Y-3.385
X3.97Y-3.585
X3.97Y-4.3814
X3.97Y-4.625
X3.9731Y-3.495
X4.0Y-3.98
X4.02Y-4.62
X4.0686Y-3.1164
X4.0686Y-4.1128
X4.07Y-3.385
X4.07Y-3.585
X4.07Y-4.015
X4.07Y-4.3814
X4.07Y-4.625
X4.1Y-3.805
X4.1166Y-3.5756
X4.12Y-4.62
X4.125Y-4.015
X4.1686Y-3.1164
X4.1686Y-4.1128
X4.17Y-4.2014
X4.17Y-4.86
X4.1878Y-3.9782
X4.22Y-3.785
X4.22Y-4.62
X4.2313Y-3.5837
X4.2686Y-3.1164
X4.2686Y-4.1128
X4.27Y-4.805
X4.31Y-3.785
X4.32Y-3.585
X4.32Y-4.2164
X4.32Y-4.62
X4.51Y-3.665
X4.54Y-3.695
X4.58Y-3.61
X4.64Y-3.555
X4.705Y-3.56
X5.11Y-3.72
X5.15Y-3.76
X5.22Y-3.58
X5.22Y-3.69
X5.32Y-3.61
X5.345Y-4.315
X5.3994Y-3.8806
X5.44Y-4.14
X5.4571Y-3.8576
X5.465Y-3.95
X5.5Y-3.795
X5.545Y-4.05
X5.545Y-4.14
X5.555Y-3.795
X5.5944Y-3.89
X5.595Y-3.81
X5.595Y-3.94
X5.6436Y-4.0514
X5.645Y-4.14
X5.725Y-3.87
X5.7436Y-4.0514
X5.745Y-3.975
X5.745Y-4.14
X6.51Y-3.69
X6.52Y-3.89
X6.57Y-3.69
X6.6Y-3.95
X6.7Y-3.93
X6.76Y-3.89
X6.84Y-4.33
X6.92Y-3.87
X6.935Y-3.945
X6.945Y-4.14
X6.965Y-3.745
X7.0436Y-4.0514
X7.045Y-4.14
X7.0736Y-3.7964
X7.115Y-3.8
X7.1436Y-4.0514
X7.145Y-4.14
X7.21Y-3.945
X7.22Y-3.87
X7.2436Y-4.0514
X7.245Y-4.135
X7.97Y-3.69
X8.025Y-3.9
X8.035Y-3.69
X8.09Y-3.955
X8.185Y-3.93
X8.24Y-3.88
X8.345Y-4.32
X8.43Y-3.875
X8.43Y-3.945
X8.445Y-4.1585
X8.455Y-3.745
X8.48Y-3.8319
X8.5436Y-4.0514
X8.545Y-4.14
X8.57Y-3.805
X8.614Y-3.8
X8.6436Y-4.0514
X8.645Y-4.14
X8.66Y-3.83
X8.71Y-3.875
X8.71Y-3.96
X8.7436Y-4.0514
X8.745Y-4.135
X9.47Y-3.69
X9.525Y-3.9
X9.535Y-3.69
X9.59Y-3.955
X9.685Y-3.93
X9.74Y-3.88
X9.845Y-4.32
X9.93Y-3.875
X9.93Y-3.945
X9.945Y-4.145
X9.95Y-3.745
X9.98Y-3.8319
X10.0436Y-4.0514
X10.045Y-4.15
X10.07Y-3.805
X10.114Y-3.806
X10.1436Y-4.0514
X10.145Y-4.14
X10.16Y-3.83
X10.21Y-3.875
X10.21Y-3.96
X10.2436Y-4.0514
X10.245Y-4.14
T2
X1.45Y-2.98
X1.55Y-2.98
X1.65Y-2.98
X1.6748Y-3.6498
X1.6748Y-3.9498
X1.6748Y-4.0998
X1.75Y-2.98
X1.7748Y-3.4998
X1.7748Y-3.6498
X1.7748Y-3.7998
X1.7748Y-3.9498
X1.7748Y-4.0998
X1.81Y-4.88
X1.85Y-2.98
X1.8748Y-3.4998
X1.8748Y-3.6498
X1.8748Y-3.7998
X1.91Y-4.88
X1.95Y-2.98
X1.955Y-3.12
X1.9748Y-3.4998
X1.9748Y-3.6498
X1.9748Y-3.7998
X2.01Y-4.88
X2.05Y-2.98
X2.055Y-3.12
X2.0748Y-3.4998
X2.0748Y-3.6498
X2.0748Y-3.7998
X2.11Y-4.88
X2.15Y-2.98
X2.155Y-3.12
X2.1748Y-3.4998
X2.1748Y-3.6498
X2.21Y-4.88
X2.25Y-2.98
X2.255Y-3.12
X2.2748Y-3.4998
X2.31Y-4.88
X2.35Y-2.98
X2.41Y-4.88
X2.51Y-2.98
X2.51Y-4.88
X2.61Y-2.98
X2.71Y-2.98
X2.71Y-4.88
X2.81Y-2.98
X2.81Y-4.88
X2.91Y-2.98
X2.91Y-4.88
X3.0048Y-3.8998
X3.0048Y-3.9998
X3.0048Y-4.0998
X3.0048Y-4.1998
X3.01Y-2.98
X3.01Y-4.88
X3.11Y-2.98
X3.11Y-4.88
X3.21Y-2.98
X3.21Y-4.88
T3
X1.12Y-3.83
X1.12Y-3.9678
T0
M30
