%TF.GenerationSoftware,KiCad,Pcbnew,(5.1.10)-1*%
%TF.CreationDate,2022-03-04T09:48:17+01:00*%
%TF.ProjectId,GestureControl,47657374-7572-4654-936f-6e74726f6c2e,V0.1*%
%TF.SameCoordinates,Original*%
%TF.FileFunction,Soldermask,Bot*%
%TF.FilePolarity,Negative*%
%FSLAX46Y46*%
G04 Gerber Fmt 4.6, Leading zero omitted, Abs format (unit mm)*
G04 Created by KiCad (PCBNEW (5.1.10)-1) date 2022-03-04 09:48:17*
%MOMM*%
%LPD*%
G01*
G04 APERTURE LIST*
%ADD10C,2.000000*%
%ADD11C,3.200000*%
%ADD12R,1.500000X3.000000*%
%ADD13O,1.700000X1.700000*%
%ADD14R,1.700000X1.700000*%
%ADD15R,2.000000X0.650000*%
%ADD16R,2.400000X4.200000*%
%ADD17R,1.000000X1.500000*%
%ADD18R,1.800000X3.500000*%
%ADD19R,1.000000X1.000000*%
%ADD20R,1.500000X1.000000*%
%ADD21C,0.100000*%
%ADD22R,1.500000X1.500000*%
%ADD23O,3.600000X1.800000*%
G04 APERTURE END LIST*
D10*
%TO.C,TP20*%
X241300000Y-118872000D03*
%TD*%
%TO.C,TP19*%
X241300000Y-115570000D03*
%TD*%
%TO.C,TP18*%
X238252000Y-118872000D03*
%TD*%
%TO.C,TP17*%
X235204000Y-118872000D03*
%TD*%
%TO.C,TP16*%
X238252000Y-115570000D03*
%TD*%
%TO.C,TP15*%
X235204000Y-115570000D03*
%TD*%
%TO.C,TP14*%
X203200000Y-118872000D03*
%TD*%
%TO.C,TP13*%
X203200000Y-115570000D03*
%TD*%
%TO.C,TP12*%
X200152000Y-118872000D03*
%TD*%
%TO.C,TP11*%
X197104000Y-118872000D03*
%TD*%
%TO.C,TP10*%
X200152000Y-115570000D03*
%TD*%
%TO.C,TP9*%
X197104000Y-115570000D03*
%TD*%
%TO.C,TP8*%
X165227000Y-118872000D03*
%TD*%
%TO.C,TP7*%
X165227000Y-115570000D03*
%TD*%
%TO.C,TP6*%
X162052000Y-118872000D03*
%TD*%
%TO.C,TP5*%
X158877000Y-118872000D03*
%TD*%
%TO.C,TP4*%
X162052000Y-115570000D03*
%TD*%
%TO.C,TP3*%
X158877000Y-115570000D03*
%TD*%
D11*
%TO.C,H16*%
X251206000Y-143383000D03*
%TD*%
%TO.C,H15*%
X251206000Y-117983000D03*
%TD*%
%TO.C,H14*%
X225806000Y-143383000D03*
%TD*%
%TO.C,H13*%
X225806000Y-117983000D03*
%TD*%
%TO.C,H2*%
X149606000Y-143383000D03*
%TD*%
%TO.C,H12*%
X187706000Y-117983000D03*
%TD*%
%TO.C,H11*%
X187706000Y-143383000D03*
%TD*%
%TO.C,H10*%
X111506000Y-108458000D03*
%TD*%
%TO.C,H9*%
X138176000Y-152908000D03*
%TD*%
%TO.C,H8*%
X111506000Y-152908000D03*
%TD*%
%TO.C,H7*%
X138176000Y-108458000D03*
%TD*%
D12*
%TO.C,J21*%
X120396000Y-135164000D03*
X122936000Y-135164000D03*
X130556000Y-135164000D03*
X128016000Y-135164000D03*
X125476000Y-135164000D03*
X119126000Y-139664000D03*
X121666000Y-139664000D03*
X129286000Y-139664000D03*
X126746000Y-139664000D03*
X124206000Y-139664000D03*
%TD*%
%TO.C,J20*%
X120396000Y-110399000D03*
X122936000Y-110399000D03*
X130556000Y-110399000D03*
X128016000Y-110399000D03*
X125476000Y-110399000D03*
X119126000Y-114899000D03*
X121666000Y-114899000D03*
X129286000Y-114899000D03*
X126746000Y-114899000D03*
X124206000Y-114899000D03*
%TD*%
%TO.C,J16*%
X120396000Y-146467000D03*
X122936000Y-146467000D03*
X130556000Y-146467000D03*
X128016000Y-146467000D03*
X125476000Y-146467000D03*
X119126000Y-150967000D03*
X121666000Y-150967000D03*
X129286000Y-150967000D03*
X126746000Y-150967000D03*
X124206000Y-150967000D03*
%TD*%
%TO.C,J15*%
X234061000Y-134148000D03*
X236601000Y-134148000D03*
X244221000Y-134148000D03*
X241681000Y-134148000D03*
X239141000Y-134148000D03*
X232791000Y-138648000D03*
X235331000Y-138648000D03*
X242951000Y-138648000D03*
X240411000Y-138648000D03*
X237871000Y-138648000D03*
%TD*%
%TO.C,J14*%
X195961000Y-134148000D03*
X198501000Y-134148000D03*
X206121000Y-134148000D03*
X203581000Y-134148000D03*
X201041000Y-134148000D03*
X194691000Y-138648000D03*
X197231000Y-138648000D03*
X204851000Y-138648000D03*
X202311000Y-138648000D03*
X199771000Y-138648000D03*
%TD*%
%TO.C,J13*%
X157861000Y-134148000D03*
X160401000Y-134148000D03*
X168021000Y-134148000D03*
X165481000Y-134148000D03*
X162941000Y-134148000D03*
X156591000Y-138648000D03*
X159131000Y-138648000D03*
X166751000Y-138648000D03*
X164211000Y-138648000D03*
X161671000Y-138648000D03*
%TD*%
%TO.C,R29*%
G36*
G01*
X161994001Y-142840000D02*
X161093999Y-142840000D01*
G75*
G02*
X160844000Y-142590001I0J249999D01*
G01*
X160844000Y-141889999D01*
G75*
G02*
X161093999Y-141640000I249999J0D01*
G01*
X161994001Y-141640000D01*
G75*
G02*
X162244000Y-141889999I0J-249999D01*
G01*
X162244000Y-142590001D01*
G75*
G02*
X161994001Y-142840000I-249999J0D01*
G01*
G37*
G36*
G01*
X161994001Y-144840000D02*
X161093999Y-144840000D01*
G75*
G02*
X160844000Y-144590001I0J249999D01*
G01*
X160844000Y-143889999D01*
G75*
G02*
X161093999Y-143640000I249999J0D01*
G01*
X161994001Y-143640000D01*
G75*
G02*
X162244000Y-143889999I0J-249999D01*
G01*
X162244000Y-144590001D01*
G75*
G02*
X161994001Y-144840000I-249999J0D01*
G01*
G37*
%TD*%
%TO.C,R12*%
G36*
G01*
X159708001Y-142856000D02*
X158807999Y-142856000D01*
G75*
G02*
X158558000Y-142606001I0J249999D01*
G01*
X158558000Y-141905999D01*
G75*
G02*
X158807999Y-141656000I249999J0D01*
G01*
X159708001Y-141656000D01*
G75*
G02*
X159958000Y-141905999I0J-249999D01*
G01*
X159958000Y-142606001D01*
G75*
G02*
X159708001Y-142856000I-249999J0D01*
G01*
G37*
G36*
G01*
X159708001Y-144856000D02*
X158807999Y-144856000D01*
G75*
G02*
X158558000Y-144606001I0J249999D01*
G01*
X158558000Y-143905999D01*
G75*
G02*
X158807999Y-143656000I249999J0D01*
G01*
X159708001Y-143656000D01*
G75*
G02*
X159958000Y-143905999I0J-249999D01*
G01*
X159958000Y-144606001D01*
G75*
G02*
X159708001Y-144856000I-249999J0D01*
G01*
G37*
%TD*%
D11*
%TO.C,H6*%
X213106000Y-143383000D03*
%TD*%
%TO.C,H5*%
X213106000Y-117983000D03*
%TD*%
%TO.C,H4*%
X149606000Y-117983000D03*
%TD*%
%TO.C,H3*%
X175006000Y-143383000D03*
%TD*%
%TO.C,H1*%
X175006000Y-117983000D03*
%TD*%
%TO.C,C12*%
G36*
G01*
X139159000Y-124539500D02*
X138209000Y-124539500D01*
G75*
G02*
X137959000Y-124289500I0J250000D01*
G01*
X137959000Y-123614500D01*
G75*
G02*
X138209000Y-123364500I250000J0D01*
G01*
X139159000Y-123364500D01*
G75*
G02*
X139409000Y-123614500I0J-250000D01*
G01*
X139409000Y-124289500D01*
G75*
G02*
X139159000Y-124539500I-250000J0D01*
G01*
G37*
G36*
G01*
X139159000Y-126614500D02*
X138209000Y-126614500D01*
G75*
G02*
X137959000Y-126364500I0J250000D01*
G01*
X137959000Y-125689500D01*
G75*
G02*
X138209000Y-125439500I250000J0D01*
G01*
X139159000Y-125439500D01*
G75*
G02*
X139409000Y-125689500I0J-250000D01*
G01*
X139409000Y-126364500D01*
G75*
G02*
X139159000Y-126614500I-250000J0D01*
G01*
G37*
%TD*%
%TO.C,C10*%
G36*
G01*
X156431000Y-125280000D02*
X155481000Y-125280000D01*
G75*
G02*
X155231000Y-125030000I0J250000D01*
G01*
X155231000Y-124355000D01*
G75*
G02*
X155481000Y-124105000I250000J0D01*
G01*
X156431000Y-124105000D01*
G75*
G02*
X156681000Y-124355000I0J-250000D01*
G01*
X156681000Y-125030000D01*
G75*
G02*
X156431000Y-125280000I-250000J0D01*
G01*
G37*
G36*
G01*
X156431000Y-127355000D02*
X155481000Y-127355000D01*
G75*
G02*
X155231000Y-127105000I0J250000D01*
G01*
X155231000Y-126430000D01*
G75*
G02*
X155481000Y-126180000I250000J0D01*
G01*
X156431000Y-126180000D01*
G75*
G02*
X156681000Y-126430000I0J-250000D01*
G01*
X156681000Y-127105000D01*
G75*
G02*
X156431000Y-127355000I-250000J0D01*
G01*
G37*
%TD*%
%TO.C,C9*%
G36*
G01*
X162543500Y-129315500D02*
X162068500Y-129315500D01*
G75*
G02*
X161831000Y-129078000I0J237500D01*
G01*
X161831000Y-128478000D01*
G75*
G02*
X162068500Y-128240500I237500J0D01*
G01*
X162543500Y-128240500D01*
G75*
G02*
X162781000Y-128478000I0J-237500D01*
G01*
X162781000Y-129078000D01*
G75*
G02*
X162543500Y-129315500I-237500J0D01*
G01*
G37*
G36*
G01*
X162543500Y-131040500D02*
X162068500Y-131040500D01*
G75*
G02*
X161831000Y-130803000I0J237500D01*
G01*
X161831000Y-130203000D01*
G75*
G02*
X162068500Y-129965500I237500J0D01*
G01*
X162543500Y-129965500D01*
G75*
G02*
X162781000Y-130203000I0J-237500D01*
G01*
X162781000Y-130803000D01*
G75*
G02*
X162543500Y-131040500I-237500J0D01*
G01*
G37*
%TD*%
%TO.C,C8*%
G36*
G01*
X164321500Y-129342000D02*
X163846500Y-129342000D01*
G75*
G02*
X163609000Y-129104500I0J237500D01*
G01*
X163609000Y-128504500D01*
G75*
G02*
X163846500Y-128267000I237500J0D01*
G01*
X164321500Y-128267000D01*
G75*
G02*
X164559000Y-128504500I0J-237500D01*
G01*
X164559000Y-129104500D01*
G75*
G02*
X164321500Y-129342000I-237500J0D01*
G01*
G37*
G36*
G01*
X164321500Y-131067000D02*
X163846500Y-131067000D01*
G75*
G02*
X163609000Y-130829500I0J237500D01*
G01*
X163609000Y-130229500D01*
G75*
G02*
X163846500Y-129992000I237500J0D01*
G01*
X164321500Y-129992000D01*
G75*
G02*
X164559000Y-130229500I0J-237500D01*
G01*
X164559000Y-130829500D01*
G75*
G02*
X164321500Y-131067000I-237500J0D01*
G01*
G37*
%TD*%
%TO.C,R32*%
G36*
G01*
X128466001Y-129140000D02*
X127565999Y-129140000D01*
G75*
G02*
X127316000Y-128890001I0J249999D01*
G01*
X127316000Y-128189999D01*
G75*
G02*
X127565999Y-127940000I249999J0D01*
G01*
X128466001Y-127940000D01*
G75*
G02*
X128716000Y-128189999I0J-249999D01*
G01*
X128716000Y-128890001D01*
G75*
G02*
X128466001Y-129140000I-249999J0D01*
G01*
G37*
G36*
G01*
X128466001Y-131140000D02*
X127565999Y-131140000D01*
G75*
G02*
X127316000Y-130890001I0J249999D01*
G01*
X127316000Y-130189999D01*
G75*
G02*
X127565999Y-129940000I249999J0D01*
G01*
X128466001Y-129940000D01*
G75*
G02*
X128716000Y-130189999I0J-249999D01*
G01*
X128716000Y-130890001D01*
G75*
G02*
X128466001Y-131140000I-249999J0D01*
G01*
G37*
%TD*%
%TO.C,R31*%
G36*
G01*
X130752001Y-129156000D02*
X129851999Y-129156000D01*
G75*
G02*
X129602000Y-128906001I0J249999D01*
G01*
X129602000Y-128205999D01*
G75*
G02*
X129851999Y-127956000I249999J0D01*
G01*
X130752001Y-127956000D01*
G75*
G02*
X131002000Y-128205999I0J-249999D01*
G01*
X131002000Y-128906001D01*
G75*
G02*
X130752001Y-129156000I-249999J0D01*
G01*
G37*
G36*
G01*
X130752001Y-131156000D02*
X129851999Y-131156000D01*
G75*
G02*
X129602000Y-130906001I0J249999D01*
G01*
X129602000Y-130205999D01*
G75*
G02*
X129851999Y-129956000I249999J0D01*
G01*
X130752001Y-129956000D01*
G75*
G02*
X131002000Y-130205999I0J-249999D01*
G01*
X131002000Y-130906001D01*
G75*
G02*
X130752001Y-131156000I-249999J0D01*
G01*
G37*
%TD*%
%TO.C,R30*%
G36*
G01*
X238321001Y-142840000D02*
X237420999Y-142840000D01*
G75*
G02*
X237171000Y-142590001I0J249999D01*
G01*
X237171000Y-141889999D01*
G75*
G02*
X237420999Y-141640000I249999J0D01*
G01*
X238321001Y-141640000D01*
G75*
G02*
X238571000Y-141889999I0J-249999D01*
G01*
X238571000Y-142590001D01*
G75*
G02*
X238321001Y-142840000I-249999J0D01*
G01*
G37*
G36*
G01*
X238321001Y-144840000D02*
X237420999Y-144840000D01*
G75*
G02*
X237171000Y-144590001I0J249999D01*
G01*
X237171000Y-143889999D01*
G75*
G02*
X237420999Y-143640000I249999J0D01*
G01*
X238321001Y-143640000D01*
G75*
G02*
X238571000Y-143889999I0J-249999D01*
G01*
X238571000Y-144590001D01*
G75*
G02*
X238321001Y-144840000I-249999J0D01*
G01*
G37*
%TD*%
%TO.C,R17*%
G36*
G01*
X236162001Y-142872000D02*
X235261999Y-142872000D01*
G75*
G02*
X235012000Y-142622001I0J249999D01*
G01*
X235012000Y-141921999D01*
G75*
G02*
X235261999Y-141672000I249999J0D01*
G01*
X236162001Y-141672000D01*
G75*
G02*
X236412000Y-141921999I0J-249999D01*
G01*
X236412000Y-142622001D01*
G75*
G02*
X236162001Y-142872000I-249999J0D01*
G01*
G37*
G36*
G01*
X236162001Y-144872000D02*
X235261999Y-144872000D01*
G75*
G02*
X235012000Y-144622001I0J249999D01*
G01*
X235012000Y-143921999D01*
G75*
G02*
X235261999Y-143672000I249999J0D01*
G01*
X236162001Y-143672000D01*
G75*
G02*
X236412000Y-143921999I0J-249999D01*
G01*
X236412000Y-144622001D01*
G75*
G02*
X236162001Y-144872000I-249999J0D01*
G01*
G37*
%TD*%
%TO.C,R16*%
G36*
G01*
X200094001Y-142840000D02*
X199193999Y-142840000D01*
G75*
G02*
X198944000Y-142590001I0J249999D01*
G01*
X198944000Y-141889999D01*
G75*
G02*
X199193999Y-141640000I249999J0D01*
G01*
X200094001Y-141640000D01*
G75*
G02*
X200344000Y-141889999I0J-249999D01*
G01*
X200344000Y-142590001D01*
G75*
G02*
X200094001Y-142840000I-249999J0D01*
G01*
G37*
G36*
G01*
X200094001Y-144840000D02*
X199193999Y-144840000D01*
G75*
G02*
X198944000Y-144590001I0J249999D01*
G01*
X198944000Y-143889999D01*
G75*
G02*
X199193999Y-143640000I249999J0D01*
G01*
X200094001Y-143640000D01*
G75*
G02*
X200344000Y-143889999I0J-249999D01*
G01*
X200344000Y-144590001D01*
G75*
G02*
X200094001Y-144840000I-249999J0D01*
G01*
G37*
%TD*%
%TO.C,R13*%
G36*
G01*
X197808001Y-142840000D02*
X196907999Y-142840000D01*
G75*
G02*
X196658000Y-142590001I0J249999D01*
G01*
X196658000Y-141889999D01*
G75*
G02*
X196907999Y-141640000I249999J0D01*
G01*
X197808001Y-141640000D01*
G75*
G02*
X198058000Y-141889999I0J-249999D01*
G01*
X198058000Y-142590001D01*
G75*
G02*
X197808001Y-142840000I-249999J0D01*
G01*
G37*
G36*
G01*
X197808001Y-144840000D02*
X196907999Y-144840000D01*
G75*
G02*
X196658000Y-144590001I0J249999D01*
G01*
X196658000Y-143889999D01*
G75*
G02*
X196907999Y-143640000I249999J0D01*
G01*
X197808001Y-143640000D01*
G75*
G02*
X198058000Y-143889999I0J-249999D01*
G01*
X198058000Y-144590001D01*
G75*
G02*
X197808001Y-144840000I-249999J0D01*
G01*
G37*
%TD*%
%TO.C,C42*%
G36*
G01*
X230266001Y-124537500D02*
X228965999Y-124537500D01*
G75*
G02*
X228716000Y-124287501I0J249999D01*
G01*
X228716000Y-123462499D01*
G75*
G02*
X228965999Y-123212500I249999J0D01*
G01*
X230266001Y-123212500D01*
G75*
G02*
X230516000Y-123462499I0J-249999D01*
G01*
X230516000Y-124287501D01*
G75*
G02*
X230266001Y-124537500I-249999J0D01*
G01*
G37*
G36*
G01*
X230266001Y-127662500D02*
X228965999Y-127662500D01*
G75*
G02*
X228716000Y-127412501I0J249999D01*
G01*
X228716000Y-126587499D01*
G75*
G02*
X228965999Y-126337500I249999J0D01*
G01*
X230266001Y-126337500D01*
G75*
G02*
X230516000Y-126587499I0J-249999D01*
G01*
X230516000Y-127412501D01*
G75*
G02*
X230266001Y-127662500I-249999J0D01*
G01*
G37*
%TD*%
%TO.C,C41*%
G36*
G01*
X192166001Y-124360500D02*
X190865999Y-124360500D01*
G75*
G02*
X190616000Y-124110501I0J249999D01*
G01*
X190616000Y-123285499D01*
G75*
G02*
X190865999Y-123035500I249999J0D01*
G01*
X192166001Y-123035500D01*
G75*
G02*
X192416000Y-123285499I0J-249999D01*
G01*
X192416000Y-124110501D01*
G75*
G02*
X192166001Y-124360500I-249999J0D01*
G01*
G37*
G36*
G01*
X192166001Y-127485500D02*
X190865999Y-127485500D01*
G75*
G02*
X190616000Y-127235501I0J249999D01*
G01*
X190616000Y-126410499D01*
G75*
G02*
X190865999Y-126160500I249999J0D01*
G01*
X192166001Y-126160500D01*
G75*
G02*
X192416000Y-126410499I0J-249999D01*
G01*
X192416000Y-127235501D01*
G75*
G02*
X192166001Y-127485500I-249999J0D01*
G01*
G37*
%TD*%
%TO.C,C40*%
G36*
G01*
X154066001Y-124283500D02*
X152765999Y-124283500D01*
G75*
G02*
X152516000Y-124033501I0J249999D01*
G01*
X152516000Y-123208499D01*
G75*
G02*
X152765999Y-122958500I249999J0D01*
G01*
X154066001Y-122958500D01*
G75*
G02*
X154316000Y-123208499I0J-249999D01*
G01*
X154316000Y-124033501D01*
G75*
G02*
X154066001Y-124283500I-249999J0D01*
G01*
G37*
G36*
G01*
X154066001Y-127408500D02*
X152765999Y-127408500D01*
G75*
G02*
X152516000Y-127158501I0J249999D01*
G01*
X152516000Y-126333499D01*
G75*
G02*
X152765999Y-126083500I249999J0D01*
G01*
X154066001Y-126083500D01*
G75*
G02*
X154316000Y-126333499I0J-249999D01*
G01*
X154316000Y-127158501D01*
G75*
G02*
X154066001Y-127408500I-249999J0D01*
G01*
G37*
%TD*%
%TO.C,C39*%
G36*
G01*
X120284001Y-128170500D02*
X118983999Y-128170500D01*
G75*
G02*
X118734000Y-127920501I0J249999D01*
G01*
X118734000Y-127095499D01*
G75*
G02*
X118983999Y-126845500I249999J0D01*
G01*
X120284001Y-126845500D01*
G75*
G02*
X120534000Y-127095499I0J-249999D01*
G01*
X120534000Y-127920501D01*
G75*
G02*
X120284001Y-128170500I-249999J0D01*
G01*
G37*
G36*
G01*
X120284001Y-131295500D02*
X118983999Y-131295500D01*
G75*
G02*
X118734000Y-131045501I0J249999D01*
G01*
X118734000Y-130220499D01*
G75*
G02*
X118983999Y-129970500I249999J0D01*
G01*
X120284001Y-129970500D01*
G75*
G02*
X120534000Y-130220499I0J-249999D01*
G01*
X120534000Y-131045501D01*
G75*
G02*
X120284001Y-131295500I-249999J0D01*
G01*
G37*
%TD*%
%TO.C,C38*%
G36*
G01*
X122649000Y-129111500D02*
X121699000Y-129111500D01*
G75*
G02*
X121449000Y-128861500I0J250000D01*
G01*
X121449000Y-128186500D01*
G75*
G02*
X121699000Y-127936500I250000J0D01*
G01*
X122649000Y-127936500D01*
G75*
G02*
X122899000Y-128186500I0J-250000D01*
G01*
X122899000Y-128861500D01*
G75*
G02*
X122649000Y-129111500I-250000J0D01*
G01*
G37*
G36*
G01*
X122649000Y-131186500D02*
X121699000Y-131186500D01*
G75*
G02*
X121449000Y-130936500I0J250000D01*
G01*
X121449000Y-130261500D01*
G75*
G02*
X121699000Y-130011500I250000J0D01*
G01*
X122649000Y-130011500D01*
G75*
G02*
X122899000Y-130261500I0J-250000D01*
G01*
X122899000Y-130936500D01*
G75*
G02*
X122649000Y-131186500I-250000J0D01*
G01*
G37*
%TD*%
%TO.C,C37*%
G36*
G01*
X232631000Y-125512500D02*
X231681000Y-125512500D01*
G75*
G02*
X231431000Y-125262500I0J250000D01*
G01*
X231431000Y-124587500D01*
G75*
G02*
X231681000Y-124337500I250000J0D01*
G01*
X232631000Y-124337500D01*
G75*
G02*
X232881000Y-124587500I0J-250000D01*
G01*
X232881000Y-125262500D01*
G75*
G02*
X232631000Y-125512500I-250000J0D01*
G01*
G37*
G36*
G01*
X232631000Y-127587500D02*
X231681000Y-127587500D01*
G75*
G02*
X231431000Y-127337500I0J250000D01*
G01*
X231431000Y-126662500D01*
G75*
G02*
X231681000Y-126412500I250000J0D01*
G01*
X232631000Y-126412500D01*
G75*
G02*
X232881000Y-126662500I0J-250000D01*
G01*
X232881000Y-127337500D01*
G75*
G02*
X232631000Y-127587500I-250000J0D01*
G01*
G37*
%TD*%
%TO.C,C36*%
G36*
G01*
X194531000Y-125301500D02*
X193581000Y-125301500D01*
G75*
G02*
X193331000Y-125051500I0J250000D01*
G01*
X193331000Y-124376500D01*
G75*
G02*
X193581000Y-124126500I250000J0D01*
G01*
X194531000Y-124126500D01*
G75*
G02*
X194781000Y-124376500I0J-250000D01*
G01*
X194781000Y-125051500D01*
G75*
G02*
X194531000Y-125301500I-250000J0D01*
G01*
G37*
G36*
G01*
X194531000Y-127376500D02*
X193581000Y-127376500D01*
G75*
G02*
X193331000Y-127126500I0J250000D01*
G01*
X193331000Y-126451500D01*
G75*
G02*
X193581000Y-126201500I250000J0D01*
G01*
X194531000Y-126201500D01*
G75*
G02*
X194781000Y-126451500I0J-250000D01*
G01*
X194781000Y-127126500D01*
G75*
G02*
X194531000Y-127376500I-250000J0D01*
G01*
G37*
%TD*%
%TO.C,C35*%
G36*
G01*
X126221500Y-129368500D02*
X125746500Y-129368500D01*
G75*
G02*
X125509000Y-129131000I0J237500D01*
G01*
X125509000Y-128531000D01*
G75*
G02*
X125746500Y-128293500I237500J0D01*
G01*
X126221500Y-128293500D01*
G75*
G02*
X126459000Y-128531000I0J-237500D01*
G01*
X126459000Y-129131000D01*
G75*
G02*
X126221500Y-129368500I-237500J0D01*
G01*
G37*
G36*
G01*
X126221500Y-131093500D02*
X125746500Y-131093500D01*
G75*
G02*
X125509000Y-130856000I0J237500D01*
G01*
X125509000Y-130256000D01*
G75*
G02*
X125746500Y-130018500I237500J0D01*
G01*
X126221500Y-130018500D01*
G75*
G02*
X126459000Y-130256000I0J-237500D01*
G01*
X126459000Y-130856000D01*
G75*
G02*
X126221500Y-131093500I-237500J0D01*
G01*
G37*
%TD*%
%TO.C,C21*%
G36*
G01*
X239759500Y-129315500D02*
X239284500Y-129315500D01*
G75*
G02*
X239047000Y-129078000I0J237500D01*
G01*
X239047000Y-128478000D01*
G75*
G02*
X239284500Y-128240500I237500J0D01*
G01*
X239759500Y-128240500D01*
G75*
G02*
X239997000Y-128478000I0J-237500D01*
G01*
X239997000Y-129078000D01*
G75*
G02*
X239759500Y-129315500I-237500J0D01*
G01*
G37*
G36*
G01*
X239759500Y-131040500D02*
X239284500Y-131040500D01*
G75*
G02*
X239047000Y-130803000I0J237500D01*
G01*
X239047000Y-130203000D01*
G75*
G02*
X239284500Y-129965500I237500J0D01*
G01*
X239759500Y-129965500D01*
G75*
G02*
X239997000Y-130203000I0J-237500D01*
G01*
X239997000Y-130803000D01*
G75*
G02*
X239759500Y-131040500I-237500J0D01*
G01*
G37*
%TD*%
%TO.C,C20*%
G36*
G01*
X201659500Y-129315500D02*
X201184500Y-129315500D01*
G75*
G02*
X200947000Y-129078000I0J237500D01*
G01*
X200947000Y-128478000D01*
G75*
G02*
X201184500Y-128240500I237500J0D01*
G01*
X201659500Y-128240500D01*
G75*
G02*
X201897000Y-128478000I0J-237500D01*
G01*
X201897000Y-129078000D01*
G75*
G02*
X201659500Y-129315500I-237500J0D01*
G01*
G37*
G36*
G01*
X201659500Y-131040500D02*
X201184500Y-131040500D01*
G75*
G02*
X200947000Y-130803000I0J237500D01*
G01*
X200947000Y-130203000D01*
G75*
G02*
X201184500Y-129965500I237500J0D01*
G01*
X201659500Y-129965500D01*
G75*
G02*
X201897000Y-130203000I0J-237500D01*
G01*
X201897000Y-130803000D01*
G75*
G02*
X201659500Y-131040500I-237500J0D01*
G01*
G37*
%TD*%
%TO.C,C16*%
G36*
G01*
X124443500Y-129368500D02*
X123968500Y-129368500D01*
G75*
G02*
X123731000Y-129131000I0J237500D01*
G01*
X123731000Y-128531000D01*
G75*
G02*
X123968500Y-128293500I237500J0D01*
G01*
X124443500Y-128293500D01*
G75*
G02*
X124681000Y-128531000I0J-237500D01*
G01*
X124681000Y-129131000D01*
G75*
G02*
X124443500Y-129368500I-237500J0D01*
G01*
G37*
G36*
G01*
X124443500Y-131093500D02*
X123968500Y-131093500D01*
G75*
G02*
X123731000Y-130856000I0J237500D01*
G01*
X123731000Y-130256000D01*
G75*
G02*
X123968500Y-130018500I237500J0D01*
G01*
X124443500Y-130018500D01*
G75*
G02*
X124681000Y-130256000I0J-237500D01*
G01*
X124681000Y-130856000D01*
G75*
G02*
X124443500Y-131093500I-237500J0D01*
G01*
G37*
%TD*%
%TO.C,C15*%
G36*
G01*
X237981500Y-129315500D02*
X237506500Y-129315500D01*
G75*
G02*
X237269000Y-129078000I0J237500D01*
G01*
X237269000Y-128478000D01*
G75*
G02*
X237506500Y-128240500I237500J0D01*
G01*
X237981500Y-128240500D01*
G75*
G02*
X238219000Y-128478000I0J-237500D01*
G01*
X238219000Y-129078000D01*
G75*
G02*
X237981500Y-129315500I-237500J0D01*
G01*
G37*
G36*
G01*
X237981500Y-131040500D02*
X237506500Y-131040500D01*
G75*
G02*
X237269000Y-130803000I0J237500D01*
G01*
X237269000Y-130203000D01*
G75*
G02*
X237506500Y-129965500I237500J0D01*
G01*
X237981500Y-129965500D01*
G75*
G02*
X238219000Y-130203000I0J-237500D01*
G01*
X238219000Y-130803000D01*
G75*
G02*
X237981500Y-131040500I-237500J0D01*
G01*
G37*
%TD*%
%TO.C,C14*%
G36*
G01*
X199881500Y-129315500D02*
X199406500Y-129315500D01*
G75*
G02*
X199169000Y-129078000I0J237500D01*
G01*
X199169000Y-128478000D01*
G75*
G02*
X199406500Y-128240500I237500J0D01*
G01*
X199881500Y-128240500D01*
G75*
G02*
X200119000Y-128478000I0J-237500D01*
G01*
X200119000Y-129078000D01*
G75*
G02*
X199881500Y-129315500I-237500J0D01*
G01*
G37*
G36*
G01*
X199881500Y-131040500D02*
X199406500Y-131040500D01*
G75*
G02*
X199169000Y-130803000I0J237500D01*
G01*
X199169000Y-130203000D01*
G75*
G02*
X199406500Y-129965500I237500J0D01*
G01*
X199881500Y-129965500D01*
G75*
G02*
X200119000Y-130203000I0J-237500D01*
G01*
X200119000Y-130803000D01*
G75*
G02*
X199881500Y-131040500I-237500J0D01*
G01*
G37*
%TD*%
%TO.C,C11*%
G36*
G01*
X81740500Y-134907000D02*
X81740500Y-135857000D01*
G75*
G02*
X81490500Y-136107000I-250000J0D01*
G01*
X80815500Y-136107000D01*
G75*
G02*
X80565500Y-135857000I0J250000D01*
G01*
X80565500Y-134907000D01*
G75*
G02*
X80815500Y-134657000I250000J0D01*
G01*
X81490500Y-134657000D01*
G75*
G02*
X81740500Y-134907000I0J-250000D01*
G01*
G37*
G36*
G01*
X83815500Y-134907000D02*
X83815500Y-135857000D01*
G75*
G02*
X83565500Y-136107000I-250000J0D01*
G01*
X82890500Y-136107000D01*
G75*
G02*
X82640500Y-135857000I0J250000D01*
G01*
X82640500Y-134907000D01*
G75*
G02*
X82890500Y-134657000I250000J0D01*
G01*
X83565500Y-134657000D01*
G75*
G02*
X83815500Y-134907000I0J-250000D01*
G01*
G37*
%TD*%
D13*
%TO.C,J12*%
X54737000Y-131572000D03*
D14*
X52197000Y-131572000D03*
%TD*%
D13*
%TO.C,J11*%
X54737000Y-135382000D03*
D14*
X52197000Y-135382000D03*
%TD*%
D15*
%TO.C,U2*%
X97341000Y-140650000D03*
X97341000Y-139700000D03*
X97341000Y-138750000D03*
X93921000Y-138750000D03*
X93921000Y-139700000D03*
X93921000Y-140650000D03*
%TD*%
%TO.C,R28*%
G36*
G01*
X93541001Y-135252000D02*
X92640999Y-135252000D01*
G75*
G02*
X92391000Y-135002001I0J249999D01*
G01*
X92391000Y-134301999D01*
G75*
G02*
X92640999Y-134052000I249999J0D01*
G01*
X93541001Y-134052000D01*
G75*
G02*
X93791000Y-134301999I0J-249999D01*
G01*
X93791000Y-135002001D01*
G75*
G02*
X93541001Y-135252000I-249999J0D01*
G01*
G37*
G36*
G01*
X93541001Y-137252000D02*
X92640999Y-137252000D01*
G75*
G02*
X92391000Y-137002001I0J249999D01*
G01*
X92391000Y-136301999D01*
G75*
G02*
X92640999Y-136052000I249999J0D01*
G01*
X93541001Y-136052000D01*
G75*
G02*
X93791000Y-136301999I0J-249999D01*
G01*
X93791000Y-137002001D01*
G75*
G02*
X93541001Y-137252000I-249999J0D01*
G01*
G37*
%TD*%
%TO.C,R26*%
G36*
G01*
X95827001Y-135252000D02*
X94926999Y-135252000D01*
G75*
G02*
X94677000Y-135002001I0J249999D01*
G01*
X94677000Y-134301999D01*
G75*
G02*
X94926999Y-134052000I249999J0D01*
G01*
X95827001Y-134052000D01*
G75*
G02*
X96077000Y-134301999I0J-249999D01*
G01*
X96077000Y-135002001D01*
G75*
G02*
X95827001Y-135252000I-249999J0D01*
G01*
G37*
G36*
G01*
X95827001Y-137252000D02*
X94926999Y-137252000D01*
G75*
G02*
X94677000Y-137002001I0J249999D01*
G01*
X94677000Y-136301999D01*
G75*
G02*
X94926999Y-136052000I249999J0D01*
G01*
X95827001Y-136052000D01*
G75*
G02*
X96077000Y-136301999I0J-249999D01*
G01*
X96077000Y-137002001D01*
G75*
G02*
X95827001Y-137252000I-249999J0D01*
G01*
G37*
%TD*%
%TO.C,R24*%
G36*
G01*
X96231000Y-142297999D02*
X96231000Y-143198001D01*
G75*
G02*
X95981001Y-143448000I-249999J0D01*
G01*
X95280999Y-143448000D01*
G75*
G02*
X95031000Y-143198001I0J249999D01*
G01*
X95031000Y-142297999D01*
G75*
G02*
X95280999Y-142048000I249999J0D01*
G01*
X95981001Y-142048000D01*
G75*
G02*
X96231000Y-142297999I0J-249999D01*
G01*
G37*
G36*
G01*
X98231000Y-142297999D02*
X98231000Y-143198001D01*
G75*
G02*
X97981001Y-143448000I-249999J0D01*
G01*
X97280999Y-143448000D01*
G75*
G02*
X97031000Y-143198001I0J249999D01*
G01*
X97031000Y-142297999D01*
G75*
G02*
X97280999Y-142048000I249999J0D01*
G01*
X97981001Y-142048000D01*
G75*
G02*
X98231000Y-142297999I0J-249999D01*
G01*
G37*
%TD*%
%TO.C,R19*%
G36*
G01*
X97212999Y-136052000D02*
X98113001Y-136052000D01*
G75*
G02*
X98363000Y-136301999I0J-249999D01*
G01*
X98363000Y-137002001D01*
G75*
G02*
X98113001Y-137252000I-249999J0D01*
G01*
X97212999Y-137252000D01*
G75*
G02*
X96963000Y-137002001I0J249999D01*
G01*
X96963000Y-136301999D01*
G75*
G02*
X97212999Y-136052000I249999J0D01*
G01*
G37*
G36*
G01*
X97212999Y-134052000D02*
X98113001Y-134052000D01*
G75*
G02*
X98363000Y-134301999I0J-249999D01*
G01*
X98363000Y-135002001D01*
G75*
G02*
X98113001Y-135252000I-249999J0D01*
G01*
X97212999Y-135252000D01*
G75*
G02*
X96963000Y-135002001I0J249999D01*
G01*
X96963000Y-134301999D01*
G75*
G02*
X97212999Y-134052000I249999J0D01*
G01*
G37*
%TD*%
%TO.C,R15*%
G36*
G01*
X101349000Y-140658001D02*
X101349000Y-139757999D01*
G75*
G02*
X101598999Y-139508000I249999J0D01*
G01*
X102299001Y-139508000D01*
G75*
G02*
X102549000Y-139757999I0J-249999D01*
G01*
X102549000Y-140658001D01*
G75*
G02*
X102299001Y-140908000I-249999J0D01*
G01*
X101598999Y-140908000D01*
G75*
G02*
X101349000Y-140658001I0J249999D01*
G01*
G37*
G36*
G01*
X99349000Y-140658001D02*
X99349000Y-139757999D01*
G75*
G02*
X99598999Y-139508000I249999J0D01*
G01*
X100299001Y-139508000D01*
G75*
G02*
X100549000Y-139757999I0J-249999D01*
G01*
X100549000Y-140658001D01*
G75*
G02*
X100299001Y-140908000I-249999J0D01*
G01*
X99598999Y-140908000D01*
G75*
G02*
X99349000Y-140658001I0J249999D01*
G01*
G37*
%TD*%
D16*
%TO.C,L2*%
X92583000Y-146812000D03*
X97083000Y-146812000D03*
%TD*%
D17*
%TO.C,JP4*%
X101249000Y-137668000D03*
X99949000Y-137668000D03*
%TD*%
D18*
%TO.C,D8*%
X100711000Y-151384000D03*
X100711000Y-146384000D03*
%TD*%
%TO.C,C34*%
G36*
G01*
X95984500Y-152288001D02*
X95984500Y-150987999D01*
G75*
G02*
X96234499Y-150738000I249999J0D01*
G01*
X97059501Y-150738000D01*
G75*
G02*
X97309500Y-150987999I0J-249999D01*
G01*
X97309500Y-152288001D01*
G75*
G02*
X97059501Y-152538000I-249999J0D01*
G01*
X96234499Y-152538000D01*
G75*
G02*
X95984500Y-152288001I0J249999D01*
G01*
G37*
G36*
G01*
X92859500Y-152288001D02*
X92859500Y-150987999D01*
G75*
G02*
X93109499Y-150738000I249999J0D01*
G01*
X93934501Y-150738000D01*
G75*
G02*
X94184500Y-150987999I0J-249999D01*
G01*
X94184500Y-152288001D01*
G75*
G02*
X93934501Y-152538000I-249999J0D01*
G01*
X93109499Y-152538000D01*
G75*
G02*
X92859500Y-152288001I0J249999D01*
G01*
G37*
%TD*%
%TO.C,C6*%
G36*
G01*
X92358500Y-142510500D02*
X92358500Y-142985500D01*
G75*
G02*
X92121000Y-143223000I-237500J0D01*
G01*
X91521000Y-143223000D01*
G75*
G02*
X91283500Y-142985500I0J237500D01*
G01*
X91283500Y-142510500D01*
G75*
G02*
X91521000Y-142273000I237500J0D01*
G01*
X92121000Y-142273000D01*
G75*
G02*
X92358500Y-142510500I0J-237500D01*
G01*
G37*
G36*
G01*
X94083500Y-142510500D02*
X94083500Y-142985500D01*
G75*
G02*
X93846000Y-143223000I-237500J0D01*
G01*
X93246000Y-143223000D01*
G75*
G02*
X93008500Y-142985500I0J237500D01*
G01*
X93008500Y-142510500D01*
G75*
G02*
X93246000Y-142273000I237500J0D01*
G01*
X93846000Y-142273000D01*
G75*
G02*
X94083500Y-142510500I0J-237500D01*
G01*
G37*
%TD*%
%TO.C,C4*%
G36*
G01*
X102588500Y-143398001D02*
X102588500Y-142097999D01*
G75*
G02*
X102838499Y-141848000I249999J0D01*
G01*
X103663501Y-141848000D01*
G75*
G02*
X103913500Y-142097999I0J-249999D01*
G01*
X103913500Y-143398001D01*
G75*
G02*
X103663501Y-143648000I-249999J0D01*
G01*
X102838499Y-143648000D01*
G75*
G02*
X102588500Y-143398001I0J249999D01*
G01*
G37*
G36*
G01*
X99463500Y-143398001D02*
X99463500Y-142097999D01*
G75*
G02*
X99713499Y-141848000I249999J0D01*
G01*
X100538501Y-141848000D01*
G75*
G02*
X100788500Y-142097999I0J-249999D01*
G01*
X100788500Y-143398001D01*
G75*
G02*
X100538501Y-143648000I-249999J0D01*
G01*
X99713499Y-143648000D01*
G75*
G02*
X99463500Y-143398001I0J249999D01*
G01*
G37*
%TD*%
D13*
%TO.C,J8*%
X52197000Y-123952000D03*
X54737000Y-123952000D03*
X57277000Y-123952000D03*
X59817000Y-123952000D03*
X62357000Y-123952000D03*
D14*
X64897000Y-123952000D03*
%TD*%
D13*
%TO.C,J10*%
X54991000Y-110490000D03*
X57531000Y-110490000D03*
X60071000Y-110490000D03*
D14*
X62611000Y-110490000D03*
%TD*%
D13*
%TO.C,J7*%
X54737000Y-120142000D03*
X57277000Y-120142000D03*
X59817000Y-120142000D03*
X62357000Y-120142000D03*
X64897000Y-120142000D03*
D14*
X67437000Y-120142000D03*
%TD*%
D19*
%TO.C,TP2*%
X56515000Y-112776000D03*
%TD*%
%TO.C,TP1*%
X59055000Y-112776000D03*
%TD*%
%TO.C,R22*%
G36*
G01*
X55915000Y-116782001D02*
X55915000Y-115881999D01*
G75*
G02*
X56164999Y-115632000I249999J0D01*
G01*
X56865001Y-115632000D01*
G75*
G02*
X57115000Y-115881999I0J-249999D01*
G01*
X57115000Y-116782001D01*
G75*
G02*
X56865001Y-117032000I-249999J0D01*
G01*
X56164999Y-117032000D01*
G75*
G02*
X55915000Y-116782001I0J249999D01*
G01*
G37*
G36*
G01*
X53915000Y-116782001D02*
X53915000Y-115881999D01*
G75*
G02*
X54164999Y-115632000I249999J0D01*
G01*
X54865001Y-115632000D01*
G75*
G02*
X55115000Y-115881999I0J-249999D01*
G01*
X55115000Y-116782001D01*
G75*
G02*
X54865001Y-117032000I-249999J0D01*
G01*
X54164999Y-117032000D01*
G75*
G02*
X53915000Y-116782001I0J249999D01*
G01*
G37*
%TD*%
%TO.C,R21*%
G36*
G01*
X59655000Y-115881999D02*
X59655000Y-116782001D01*
G75*
G02*
X59405001Y-117032000I-249999J0D01*
G01*
X58704999Y-117032000D01*
G75*
G02*
X58455000Y-116782001I0J249999D01*
G01*
X58455000Y-115881999D01*
G75*
G02*
X58704999Y-115632000I249999J0D01*
G01*
X59405001Y-115632000D01*
G75*
G02*
X59655000Y-115881999I0J-249999D01*
G01*
G37*
G36*
G01*
X61655000Y-115881999D02*
X61655000Y-116782001D01*
G75*
G02*
X61405001Y-117032000I-249999J0D01*
G01*
X60704999Y-117032000D01*
G75*
G02*
X60455000Y-116782001I0J249999D01*
G01*
X60455000Y-115881999D01*
G75*
G02*
X60704999Y-115632000I249999J0D01*
G01*
X61405001Y-115632000D01*
G75*
G02*
X61655000Y-115881999I0J-249999D01*
G01*
G37*
%TD*%
%TO.C,R20*%
G36*
G01*
X64700999Y-133480000D02*
X65601001Y-133480000D01*
G75*
G02*
X65851000Y-133729999I0J-249999D01*
G01*
X65851000Y-134430001D01*
G75*
G02*
X65601001Y-134680000I-249999J0D01*
G01*
X64700999Y-134680000D01*
G75*
G02*
X64451000Y-134430001I0J249999D01*
G01*
X64451000Y-133729999D01*
G75*
G02*
X64700999Y-133480000I249999J0D01*
G01*
G37*
G36*
G01*
X64700999Y-131480000D02*
X65601001Y-131480000D01*
G75*
G02*
X65851000Y-131729999I0J-249999D01*
G01*
X65851000Y-132430001D01*
G75*
G02*
X65601001Y-132680000I-249999J0D01*
G01*
X64700999Y-132680000D01*
G75*
G02*
X64451000Y-132430001I0J249999D01*
G01*
X64451000Y-131729999D01*
G75*
G02*
X64700999Y-131480000I249999J0D01*
G01*
G37*
%TD*%
%TO.C,R9*%
G36*
G01*
X80079001Y-116932000D02*
X79178999Y-116932000D01*
G75*
G02*
X78929000Y-116682001I0J249999D01*
G01*
X78929000Y-115981999D01*
G75*
G02*
X79178999Y-115732000I249999J0D01*
G01*
X80079001Y-115732000D01*
G75*
G02*
X80329000Y-115981999I0J-249999D01*
G01*
X80329000Y-116682001D01*
G75*
G02*
X80079001Y-116932000I-249999J0D01*
G01*
G37*
G36*
G01*
X80079001Y-118932000D02*
X79178999Y-118932000D01*
G75*
G02*
X78929000Y-118682001I0J249999D01*
G01*
X78929000Y-117981999D01*
G75*
G02*
X79178999Y-117732000I249999J0D01*
G01*
X80079001Y-117732000D01*
G75*
G02*
X80329000Y-117981999I0J-249999D01*
G01*
X80329000Y-118682001D01*
G75*
G02*
X80079001Y-118932000I-249999J0D01*
G01*
G37*
%TD*%
%TO.C,R8*%
G36*
G01*
X86937001Y-116932000D02*
X86036999Y-116932000D01*
G75*
G02*
X85787000Y-116682001I0J249999D01*
G01*
X85787000Y-115981999D01*
G75*
G02*
X86036999Y-115732000I249999J0D01*
G01*
X86937001Y-115732000D01*
G75*
G02*
X87187000Y-115981999I0J-249999D01*
G01*
X87187000Y-116682001D01*
G75*
G02*
X86937001Y-116932000I-249999J0D01*
G01*
G37*
G36*
G01*
X86937001Y-118932000D02*
X86036999Y-118932000D01*
G75*
G02*
X85787000Y-118682001I0J249999D01*
G01*
X85787000Y-117981999D01*
G75*
G02*
X86036999Y-117732000I249999J0D01*
G01*
X86937001Y-117732000D01*
G75*
G02*
X87187000Y-117981999I0J-249999D01*
G01*
X87187000Y-118682001D01*
G75*
G02*
X86937001Y-118932000I-249999J0D01*
G01*
G37*
%TD*%
D20*
%TO.C,JP3*%
X70993000Y-128046000D03*
D21*
G36*
X70243602Y-126746000D02*
G01*
X70243602Y-126721466D01*
X70248412Y-126672635D01*
X70257984Y-126624510D01*
X70272228Y-126577555D01*
X70291005Y-126532222D01*
X70314136Y-126488949D01*
X70341396Y-126448150D01*
X70372524Y-126410221D01*
X70407221Y-126375524D01*
X70445150Y-126344396D01*
X70485949Y-126317136D01*
X70529222Y-126294005D01*
X70574555Y-126275228D01*
X70621510Y-126260984D01*
X70669635Y-126251412D01*
X70718466Y-126246602D01*
X70743000Y-126246602D01*
X70743000Y-126246000D01*
X71243000Y-126246000D01*
X71243000Y-126246602D01*
X71267534Y-126246602D01*
X71316365Y-126251412D01*
X71364490Y-126260984D01*
X71411445Y-126275228D01*
X71456778Y-126294005D01*
X71500051Y-126317136D01*
X71540850Y-126344396D01*
X71578779Y-126375524D01*
X71613476Y-126410221D01*
X71644604Y-126448150D01*
X71671864Y-126488949D01*
X71694995Y-126532222D01*
X71713772Y-126577555D01*
X71728016Y-126624510D01*
X71737588Y-126672635D01*
X71742398Y-126721466D01*
X71742398Y-126746000D01*
X71743000Y-126746000D01*
X71743000Y-127296000D01*
X70243000Y-127296000D01*
X70243000Y-126746000D01*
X70243602Y-126746000D01*
G37*
G36*
X71743000Y-128796000D02*
G01*
X71743000Y-129346000D01*
X71742398Y-129346000D01*
X71742398Y-129370534D01*
X71737588Y-129419365D01*
X71728016Y-129467490D01*
X71713772Y-129514445D01*
X71694995Y-129559778D01*
X71671864Y-129603051D01*
X71644604Y-129643850D01*
X71613476Y-129681779D01*
X71578779Y-129716476D01*
X71540850Y-129747604D01*
X71500051Y-129774864D01*
X71456778Y-129797995D01*
X71411445Y-129816772D01*
X71364490Y-129831016D01*
X71316365Y-129840588D01*
X71267534Y-129845398D01*
X71243000Y-129845398D01*
X71243000Y-129846000D01*
X70743000Y-129846000D01*
X70743000Y-129845398D01*
X70718466Y-129845398D01*
X70669635Y-129840588D01*
X70621510Y-129831016D01*
X70574555Y-129816772D01*
X70529222Y-129797995D01*
X70485949Y-129774864D01*
X70445150Y-129747604D01*
X70407221Y-129716476D01*
X70372524Y-129681779D01*
X70341396Y-129643850D01*
X70314136Y-129603051D01*
X70291005Y-129559778D01*
X70272228Y-129514445D01*
X70257984Y-129467490D01*
X70248412Y-129419365D01*
X70243602Y-129370534D01*
X70243602Y-129346000D01*
X70243000Y-129346000D01*
X70243000Y-128796000D01*
X71743000Y-128796000D01*
G37*
%TD*%
D17*
%TO.C,JP2*%
X74803000Y-128016000D03*
D21*
G36*
X73503000Y-128765398D02*
G01*
X73478466Y-128765398D01*
X73429635Y-128760588D01*
X73381510Y-128751016D01*
X73334555Y-128736772D01*
X73289222Y-128717995D01*
X73245949Y-128694864D01*
X73205150Y-128667604D01*
X73167221Y-128636476D01*
X73132524Y-128601779D01*
X73101396Y-128563850D01*
X73074136Y-128523051D01*
X73051005Y-128479778D01*
X73032228Y-128434445D01*
X73017984Y-128387490D01*
X73008412Y-128339365D01*
X73003602Y-128290534D01*
X73003602Y-128266000D01*
X73003000Y-128266000D01*
X73003000Y-127766000D01*
X73003602Y-127766000D01*
X73003602Y-127741466D01*
X73008412Y-127692635D01*
X73017984Y-127644510D01*
X73032228Y-127597555D01*
X73051005Y-127552222D01*
X73074136Y-127508949D01*
X73101396Y-127468150D01*
X73132524Y-127430221D01*
X73167221Y-127395524D01*
X73205150Y-127364396D01*
X73245949Y-127337136D01*
X73289222Y-127314005D01*
X73334555Y-127295228D01*
X73381510Y-127280984D01*
X73429635Y-127271412D01*
X73478466Y-127266602D01*
X73503000Y-127266602D01*
X73503000Y-127266000D01*
X74053000Y-127266000D01*
X74053000Y-128766000D01*
X73503000Y-128766000D01*
X73503000Y-128765398D01*
G37*
G36*
X75553000Y-127266000D02*
G01*
X76103000Y-127266000D01*
X76103000Y-127266602D01*
X76127534Y-127266602D01*
X76176365Y-127271412D01*
X76224490Y-127280984D01*
X76271445Y-127295228D01*
X76316778Y-127314005D01*
X76360051Y-127337136D01*
X76400850Y-127364396D01*
X76438779Y-127395524D01*
X76473476Y-127430221D01*
X76504604Y-127468150D01*
X76531864Y-127508949D01*
X76554995Y-127552222D01*
X76573772Y-127597555D01*
X76588016Y-127644510D01*
X76597588Y-127692635D01*
X76602398Y-127741466D01*
X76602398Y-127766000D01*
X76603000Y-127766000D01*
X76603000Y-128266000D01*
X76602398Y-128266000D01*
X76602398Y-128290534D01*
X76597588Y-128339365D01*
X76588016Y-128387490D01*
X76573772Y-128434445D01*
X76554995Y-128479778D01*
X76531864Y-128523051D01*
X76504604Y-128563850D01*
X76473476Y-128601779D01*
X76438779Y-128636476D01*
X76400850Y-128667604D01*
X76360051Y-128694864D01*
X76316778Y-128717995D01*
X76271445Y-128736772D01*
X76224490Y-128751016D01*
X76176365Y-128760588D01*
X76127534Y-128765398D01*
X76103000Y-128765398D01*
X76103000Y-128766000D01*
X75553000Y-128766000D01*
X75553000Y-127266000D01*
G37*
%TD*%
D22*
%TO.C,J19*%
X51435000Y-112776000D03*
%TD*%
%TO.C,J18*%
X53975000Y-112776000D03*
%TD*%
%TO.C,J17*%
X61595000Y-112776000D03*
%TD*%
D13*
%TO.C,J9*%
X85979000Y-130302000D03*
X85979000Y-132842000D03*
X85979000Y-135382000D03*
D14*
X85979000Y-137922000D03*
%TD*%
D23*
%TO.C,J2*%
X54229000Y-153868000D03*
G36*
G01*
X52679000Y-149468000D02*
X55779000Y-149468000D01*
G75*
G02*
X56029000Y-149718000I0J-250000D01*
G01*
X56029000Y-151018000D01*
G75*
G02*
X55779000Y-151268000I-250000J0D01*
G01*
X52679000Y-151268000D01*
G75*
G02*
X52429000Y-151018000I0J250000D01*
G01*
X52429000Y-149718000D01*
G75*
G02*
X52679000Y-149468000I250000J0D01*
G01*
G37*
%TD*%
D13*
%TO.C,J1*%
X54737000Y-127762000D03*
X57277000Y-127762000D03*
X59817000Y-127762000D03*
D14*
X62357000Y-127762000D03*
%TD*%
D18*
%TO.C,D6*%
X49911000Y-154686000D03*
X49911000Y-149686000D03*
%TD*%
%TO.C,C33*%
G36*
G01*
X68928000Y-127587500D02*
X67978000Y-127587500D01*
G75*
G02*
X67728000Y-127337500I0J250000D01*
G01*
X67728000Y-126662500D01*
G75*
G02*
X67978000Y-126412500I250000J0D01*
G01*
X68928000Y-126412500D01*
G75*
G02*
X69178000Y-126662500I0J-250000D01*
G01*
X69178000Y-127337500D01*
G75*
G02*
X68928000Y-127587500I-250000J0D01*
G01*
G37*
G36*
G01*
X68928000Y-129662500D02*
X67978000Y-129662500D01*
G75*
G02*
X67728000Y-129412500I0J250000D01*
G01*
X67728000Y-128737500D01*
G75*
G02*
X67978000Y-128487500I250000J0D01*
G01*
X68928000Y-128487500D01*
G75*
G02*
X69178000Y-128737500I0J-250000D01*
G01*
X69178000Y-129412500D01*
G75*
G02*
X68928000Y-129662500I-250000J0D01*
G01*
G37*
%TD*%
%TO.C,C31*%
G36*
G01*
X72434500Y-132317500D02*
X72434500Y-131842500D01*
G75*
G02*
X72672000Y-131605000I237500J0D01*
G01*
X73272000Y-131605000D01*
G75*
G02*
X73509500Y-131842500I0J-237500D01*
G01*
X73509500Y-132317500D01*
G75*
G02*
X73272000Y-132555000I-237500J0D01*
G01*
X72672000Y-132555000D01*
G75*
G02*
X72434500Y-132317500I0J237500D01*
G01*
G37*
G36*
G01*
X70709500Y-132317500D02*
X70709500Y-131842500D01*
G75*
G02*
X70947000Y-131605000I237500J0D01*
G01*
X71547000Y-131605000D01*
G75*
G02*
X71784500Y-131842500I0J-237500D01*
G01*
X71784500Y-132317500D01*
G75*
G02*
X71547000Y-132555000I-237500J0D01*
G01*
X70947000Y-132555000D01*
G75*
G02*
X70709500Y-132317500I0J237500D01*
G01*
G37*
%TD*%
%TO.C,C30*%
G36*
G01*
X78068500Y-132301000D02*
X78068500Y-131351000D01*
G75*
G02*
X78318500Y-131101000I250000J0D01*
G01*
X78993500Y-131101000D01*
G75*
G02*
X79243500Y-131351000I0J-250000D01*
G01*
X79243500Y-132301000D01*
G75*
G02*
X78993500Y-132551000I-250000J0D01*
G01*
X78318500Y-132551000D01*
G75*
G02*
X78068500Y-132301000I0J250000D01*
G01*
G37*
G36*
G01*
X75993500Y-132301000D02*
X75993500Y-131351000D01*
G75*
G02*
X76243500Y-131101000I250000J0D01*
G01*
X76918500Y-131101000D01*
G75*
G02*
X77168500Y-131351000I0J-250000D01*
G01*
X77168500Y-132301000D01*
G75*
G02*
X76918500Y-132551000I-250000J0D01*
G01*
X76243500Y-132551000D01*
G75*
G02*
X75993500Y-132301000I0J250000D01*
G01*
G37*
%TD*%
%TO.C,C29*%
G36*
G01*
X70260500Y-119396500D02*
X70260500Y-119871500D01*
G75*
G02*
X70023000Y-120109000I-237500J0D01*
G01*
X69423000Y-120109000D01*
G75*
G02*
X69185500Y-119871500I0J237500D01*
G01*
X69185500Y-119396500D01*
G75*
G02*
X69423000Y-119159000I237500J0D01*
G01*
X70023000Y-119159000D01*
G75*
G02*
X70260500Y-119396500I0J-237500D01*
G01*
G37*
G36*
G01*
X71985500Y-119396500D02*
X71985500Y-119871500D01*
G75*
G02*
X71748000Y-120109000I-237500J0D01*
G01*
X71148000Y-120109000D01*
G75*
G02*
X70910500Y-119871500I0J237500D01*
G01*
X70910500Y-119396500D01*
G75*
G02*
X71148000Y-119159000I237500J0D01*
G01*
X71748000Y-119159000D01*
G75*
G02*
X71985500Y-119396500I0J-237500D01*
G01*
G37*
%TD*%
%TO.C,C28*%
G36*
G01*
X77821500Y-134095500D02*
X77821500Y-133620500D01*
G75*
G02*
X78059000Y-133383000I237500J0D01*
G01*
X78659000Y-133383000D01*
G75*
G02*
X78896500Y-133620500I0J-237500D01*
G01*
X78896500Y-134095500D01*
G75*
G02*
X78659000Y-134333000I-237500J0D01*
G01*
X78059000Y-134333000D01*
G75*
G02*
X77821500Y-134095500I0J237500D01*
G01*
G37*
G36*
G01*
X76096500Y-134095500D02*
X76096500Y-133620500D01*
G75*
G02*
X76334000Y-133383000I237500J0D01*
G01*
X76934000Y-133383000D01*
G75*
G02*
X77171500Y-133620500I0J-237500D01*
G01*
X77171500Y-134095500D01*
G75*
G02*
X76934000Y-134333000I-237500J0D01*
G01*
X76334000Y-134333000D01*
G75*
G02*
X76096500Y-134095500I0J237500D01*
G01*
G37*
%TD*%
%TO.C,C23*%
G36*
G01*
X72434500Y-134095500D02*
X72434500Y-133620500D01*
G75*
G02*
X72672000Y-133383000I237500J0D01*
G01*
X73272000Y-133383000D01*
G75*
G02*
X73509500Y-133620500I0J-237500D01*
G01*
X73509500Y-134095500D01*
G75*
G02*
X73272000Y-134333000I-237500J0D01*
G01*
X72672000Y-134333000D01*
G75*
G02*
X72434500Y-134095500I0J237500D01*
G01*
G37*
G36*
G01*
X70709500Y-134095500D02*
X70709500Y-133620500D01*
G75*
G02*
X70947000Y-133383000I237500J0D01*
G01*
X71547000Y-133383000D01*
G75*
G02*
X71784500Y-133620500I0J-237500D01*
G01*
X71784500Y-134095500D01*
G75*
G02*
X71547000Y-134333000I-237500J0D01*
G01*
X70947000Y-134333000D01*
G75*
G02*
X70709500Y-134095500I0J237500D01*
G01*
G37*
%TD*%
%TO.C,C2*%
G36*
G01*
X81423500Y-117826500D02*
X81898500Y-117826500D01*
G75*
G02*
X82136000Y-118064000I0J-237500D01*
G01*
X82136000Y-118664000D01*
G75*
G02*
X81898500Y-118901500I-237500J0D01*
G01*
X81423500Y-118901500D01*
G75*
G02*
X81186000Y-118664000I0J237500D01*
G01*
X81186000Y-118064000D01*
G75*
G02*
X81423500Y-117826500I237500J0D01*
G01*
G37*
G36*
G01*
X81423500Y-116101500D02*
X81898500Y-116101500D01*
G75*
G02*
X82136000Y-116339000I0J-237500D01*
G01*
X82136000Y-116939000D01*
G75*
G02*
X81898500Y-117176500I-237500J0D01*
G01*
X81423500Y-117176500D01*
G75*
G02*
X81186000Y-116939000I0J237500D01*
G01*
X81186000Y-116339000D01*
G75*
G02*
X81423500Y-116101500I237500J0D01*
G01*
G37*
%TD*%
%TO.C,C1*%
G36*
G01*
X88281500Y-117826500D02*
X88756500Y-117826500D01*
G75*
G02*
X88994000Y-118064000I0J-237500D01*
G01*
X88994000Y-118664000D01*
G75*
G02*
X88756500Y-118901500I-237500J0D01*
G01*
X88281500Y-118901500D01*
G75*
G02*
X88044000Y-118664000I0J237500D01*
G01*
X88044000Y-118064000D01*
G75*
G02*
X88281500Y-117826500I237500J0D01*
G01*
G37*
G36*
G01*
X88281500Y-116101500D02*
X88756500Y-116101500D01*
G75*
G02*
X88994000Y-116339000I0J-237500D01*
G01*
X88994000Y-116939000D01*
G75*
G02*
X88756500Y-117176500I-237500J0D01*
G01*
X88281500Y-117176500D01*
G75*
G02*
X88044000Y-116939000I0J237500D01*
G01*
X88044000Y-116339000D01*
G75*
G02*
X88281500Y-116101500I237500J0D01*
G01*
G37*
%TD*%
D13*
%TO.C,J6*%
X76581000Y-106934000D03*
X79121000Y-106934000D03*
X81661000Y-106934000D03*
X84201000Y-106934000D03*
X86741000Y-106934000D03*
X89281000Y-106934000D03*
X91821000Y-106934000D03*
D14*
X94361000Y-106934000D03*
%TD*%
D13*
%TO.C,J5*%
X49657000Y-106934000D03*
X52197000Y-106934000D03*
X54737000Y-106934000D03*
X57277000Y-106934000D03*
X59817000Y-106934000D03*
X62357000Y-106934000D03*
X64897000Y-106934000D03*
X67437000Y-106934000D03*
X69977000Y-106934000D03*
D14*
X72517000Y-106934000D03*
%TD*%
D13*
%TO.C,J4*%
X94361000Y-155194000D03*
X91821000Y-155194000D03*
X89281000Y-155194000D03*
X86741000Y-155194000D03*
X84201000Y-155194000D03*
D14*
X81661000Y-155194000D03*
%TD*%
D13*
%TO.C,J3*%
X76581000Y-155194000D03*
X74041000Y-155194000D03*
X71501000Y-155194000D03*
X68961000Y-155194000D03*
X66421000Y-155194000D03*
X63881000Y-155194000D03*
X61341000Y-155194000D03*
D14*
X58801000Y-155194000D03*
%TD*%
M02*
