%TF.GenerationSoftware,KiCad,Pcbnew,(5.1.10)-1*%
%TF.CreationDate,2022-03-04T09:48:16+01:00*%
%TF.ProjectId,GestureControl,47657374-7572-4654-936f-6e74726f6c2e,V0.1*%
%TF.SameCoordinates,Original*%
%TF.FileFunction,Copper,L1,Top*%
%TF.FilePolarity,Positive*%
%FSLAX46Y46*%
G04 Gerber Fmt 4.6, Leading zero omitted, Abs format (unit mm)*
G04 Created by KiCad (PCBNEW (5.1.10)-1) date 2022-03-04 09:48:16*
%MOMM*%
%LPD*%
G01*
G04 APERTURE LIST*
%TA.AperFunction,SMDPad,CuDef*%
%ADD10R,0.807999X0.458000*%
%TD*%
%TA.AperFunction,SMDPad,CuDef*%
%ADD11R,0.508000X0.508000*%
%TD*%
%TA.AperFunction,ComponentPad*%
%ADD12O,1.700000X1.700000*%
%TD*%
%TA.AperFunction,ComponentPad*%
%ADD13R,1.700000X1.700000*%
%TD*%
%TA.AperFunction,SMDPad,CuDef*%
%ADD14R,0.650000X2.000000*%
%TD*%
%TA.AperFunction,SMDPad,CuDef*%
%ADD15R,2.400000X4.200000*%
%TD*%
%TA.AperFunction,SMDPad,CuDef*%
%ADD16R,1.000000X1.500000*%
%TD*%
%TA.AperFunction,SMDPad,CuDef*%
%ADD17R,3.500000X1.800000*%
%TD*%
%TA.AperFunction,SMDPad,CuDef*%
%ADD18R,4.500000X2.000000*%
%TD*%
%TA.AperFunction,SMDPad,CuDef*%
%ADD19R,1.300000X1.900000*%
%TD*%
%TA.AperFunction,SMDPad,CuDef*%
%ADD20R,1.300000X1.550000*%
%TD*%
%TA.AperFunction,ComponentPad*%
%ADD21O,3.600000X1.800000*%
%TD*%
%TA.AperFunction,ViaPad*%
%ADD22C,0.800000*%
%TD*%
%TA.AperFunction,Conductor*%
%ADD23C,0.250000*%
%TD*%
%TA.AperFunction,Conductor*%
%ADD24C,0.500000*%
%TD*%
%TA.AperFunction,Conductor*%
%ADD25C,1.000000*%
%TD*%
%TA.AperFunction,Conductor*%
%ADD26C,0.254000*%
%TD*%
%TA.AperFunction,Conductor*%
%ADD27C,0.100000*%
%TD*%
G04 APERTURE END LIST*
D10*
%TO.P,U8,1*%
%TO.N,+3V3*%
X237390800Y-132282999D03*
%TO.P,U8,2*%
%TO.N,GND*%
X237390800Y-131483001D03*
%TO.P,U8,3*%
X237390800Y-130683000D03*
%TO.P,U8,4*%
X237390800Y-129882999D03*
%TO.P,U8,5*%
%TO.N,XSHUT_3*%
X237390800Y-129083001D03*
D11*
%TO.P,U8,6*%
%TO.N,GND*%
X238506000Y-129082800D03*
D10*
%TO.P,U8,7*%
%TO.N,GPIOI_3*%
X239621200Y-129083001D03*
%TO.P,U8,8*%
%TO.N,N/C*%
X239621200Y-129882999D03*
%TO.P,U8,9*%
%TO.N,SDA1*%
X239621200Y-130683000D03*
%TO.P,U8,10*%
%TO.N,SCL1*%
X239621200Y-131483001D03*
%TO.P,U8,11*%
%TO.N,+3V3*%
X239621200Y-132282999D03*
D11*
%TO.P,U8,12*%
%TO.N,GND*%
X238506000Y-132283200D03*
%TD*%
D10*
%TO.P,U5,1*%
%TO.N,+3V3*%
X199290800Y-132282999D03*
%TO.P,U5,2*%
%TO.N,GND*%
X199290800Y-131483001D03*
%TO.P,U5,3*%
X199290800Y-130683000D03*
%TO.P,U5,4*%
X199290800Y-129882999D03*
%TO.P,U5,5*%
%TO.N,XSHUT_2*%
X199290800Y-129083001D03*
D11*
%TO.P,U5,6*%
%TO.N,GND*%
X200406000Y-129082800D03*
D10*
%TO.P,U5,7*%
%TO.N,GPIOI_2*%
X201521200Y-129083001D03*
%TO.P,U5,8*%
%TO.N,N/C*%
X201521200Y-129882999D03*
%TO.P,U5,9*%
%TO.N,SDA1*%
X201521200Y-130683000D03*
%TO.P,U5,10*%
%TO.N,SCL1*%
X201521200Y-131483001D03*
%TO.P,U5,11*%
%TO.N,+3V3*%
X201521200Y-132282999D03*
D11*
%TO.P,U5,12*%
%TO.N,GND*%
X200406000Y-132283200D03*
%TD*%
D10*
%TO.P,U4,1*%
%TO.N,+3V3*%
X161825800Y-132282999D03*
%TO.P,U4,2*%
%TO.N,GND*%
X161825800Y-131483001D03*
%TO.P,U4,3*%
X161825800Y-130683000D03*
%TO.P,U4,4*%
X161825800Y-129882999D03*
%TO.P,U4,5*%
%TO.N,XSHUT_1*%
X161825800Y-129083001D03*
D11*
%TO.P,U4,6*%
%TO.N,GND*%
X162941000Y-129082800D03*
D10*
%TO.P,U4,7*%
%TO.N,GPIOI_1*%
X164056200Y-129083001D03*
%TO.P,U4,8*%
%TO.N,N/C*%
X164056200Y-129882999D03*
%TO.P,U4,9*%
%TO.N,SDA1*%
X164056200Y-130683000D03*
%TO.P,U4,10*%
%TO.N,SCL1*%
X164056200Y-131483001D03*
%TO.P,U4,11*%
%TO.N,+3V3*%
X164056200Y-132282999D03*
D11*
%TO.P,U4,12*%
%TO.N,GND*%
X162941000Y-132283200D03*
%TD*%
D10*
%TO.P,U3,1*%
%TO.N,+3V3*%
X123725800Y-132282999D03*
%TO.P,U3,2*%
%TO.N,GND*%
X123725800Y-131483001D03*
%TO.P,U3,3*%
X123725800Y-130683000D03*
%TO.P,U3,4*%
X123725800Y-129882999D03*
%TO.P,U3,5*%
%TO.N,XSHUT_0*%
X123725800Y-129083001D03*
D11*
%TO.P,U3,6*%
%TO.N,GND*%
X124841000Y-129082800D03*
D10*
%TO.P,U3,7*%
%TO.N,GPIOI_0*%
X125956200Y-129083001D03*
%TO.P,U3,8*%
%TO.N,N/C*%
X125956200Y-129882999D03*
%TO.P,U3,9*%
%TO.N,SDA1*%
X125956200Y-130683000D03*
%TO.P,U3,10*%
%TO.N,SCL1*%
X125956200Y-131483001D03*
%TO.P,U3,11*%
%TO.N,+3V3*%
X125956200Y-132282999D03*
D11*
%TO.P,U3,12*%
%TO.N,GND*%
X124841000Y-132283200D03*
%TD*%
%TO.P,C13,2*%
%TO.N,GND*%
%TA.AperFunction,SMDPad,CuDef*%
G36*
G01*
X101076999Y-151737500D02*
X102377001Y-151737500D01*
G75*
G02*
X102627000Y-151987499I0J-249999D01*
G01*
X102627000Y-152812501D01*
G75*
G02*
X102377001Y-153062500I-249999J0D01*
G01*
X101076999Y-153062500D01*
G75*
G02*
X100827000Y-152812501I0J249999D01*
G01*
X100827000Y-151987499D01*
G75*
G02*
X101076999Y-151737500I249999J0D01*
G01*
G37*
%TD.AperFunction*%
%TO.P,C13,1*%
%TO.N,+3V3*%
%TA.AperFunction,SMDPad,CuDef*%
G36*
G01*
X101076999Y-148612500D02*
X102377001Y-148612500D01*
G75*
G02*
X102627000Y-148862499I0J-249999D01*
G01*
X102627000Y-149687501D01*
G75*
G02*
X102377001Y-149937500I-249999J0D01*
G01*
X101076999Y-149937500D01*
G75*
G02*
X100827000Y-149687501I0J249999D01*
G01*
X100827000Y-148862499D01*
G75*
G02*
X101076999Y-148612500I249999J0D01*
G01*
G37*
%TD.AperFunction*%
%TD*%
D12*
%TO.P,J12,2*%
%TO.N,/STM32L151RET6TR/BOOT*%
X54737000Y-131572000D03*
D13*
%TO.P,J12,1*%
%TO.N,+3V3*%
X52197000Y-131572000D03*
%TD*%
D12*
%TO.P,J11,2*%
%TO.N,/STM32L151RET6TR/RST*%
X54737000Y-135382000D03*
D13*
%TO.P,J11,1*%
%TO.N,GND*%
X52197000Y-135382000D03*
%TD*%
D14*
%TO.P,U1,6*%
%TO.N,/OUT3.3*%
X95123000Y-145474000D03*
%TO.P,U1,5*%
%TO.N,VCC*%
X94173000Y-145474000D03*
%TO.P,U1,4*%
%TO.N,BUCK_33_EN*%
X93223000Y-145474000D03*
%TO.P,U1,3*%
%TO.N,Net-(R25-Pad1)*%
X93223000Y-142054000D03*
%TO.P,U1,2*%
%TO.N,GND*%
X94173000Y-142054000D03*
%TO.P,U1,1*%
%TO.N,Net-(C5-Pad2)*%
X95123000Y-142054000D03*
%TD*%
%TO.P,R27,2*%
%TO.N,+3V3*%
%TA.AperFunction,SMDPad,CuDef*%
G36*
G01*
X90608999Y-145942000D02*
X91509001Y-145942000D01*
G75*
G02*
X91759000Y-146191999I0J-249999D01*
G01*
X91759000Y-146892001D01*
G75*
G02*
X91509001Y-147142000I-249999J0D01*
G01*
X90608999Y-147142000D01*
G75*
G02*
X90359000Y-146892001I0J249999D01*
G01*
X90359000Y-146191999D01*
G75*
G02*
X90608999Y-145942000I249999J0D01*
G01*
G37*
%TD.AperFunction*%
%TO.P,R27,1*%
%TO.N,Net-(R25-Pad1)*%
%TA.AperFunction,SMDPad,CuDef*%
G36*
G01*
X90608999Y-143942000D02*
X91509001Y-143942000D01*
G75*
G02*
X91759000Y-144191999I0J-249999D01*
G01*
X91759000Y-144892001D01*
G75*
G02*
X91509001Y-145142000I-249999J0D01*
G01*
X90608999Y-145142000D01*
G75*
G02*
X90359000Y-144892001I0J249999D01*
G01*
X90359000Y-144191999D01*
G75*
G02*
X90608999Y-143942000I249999J0D01*
G01*
G37*
%TD.AperFunction*%
%TD*%
%TO.P,R25,2*%
%TO.N,Net-(R18-Pad1)*%
%TA.AperFunction,SMDPad,CuDef*%
G36*
G01*
X91509001Y-141094000D02*
X90608999Y-141094000D01*
G75*
G02*
X90359000Y-140844001I0J249999D01*
G01*
X90359000Y-140143999D01*
G75*
G02*
X90608999Y-139894000I249999J0D01*
G01*
X91509001Y-139894000D01*
G75*
G02*
X91759000Y-140143999I0J-249999D01*
G01*
X91759000Y-140844001D01*
G75*
G02*
X91509001Y-141094000I-249999J0D01*
G01*
G37*
%TD.AperFunction*%
%TO.P,R25,1*%
%TO.N,Net-(R25-Pad1)*%
%TA.AperFunction,SMDPad,CuDef*%
G36*
G01*
X91509001Y-143094000D02*
X90608999Y-143094000D01*
G75*
G02*
X90359000Y-142844001I0J249999D01*
G01*
X90359000Y-142143999D01*
G75*
G02*
X90608999Y-141894000I249999J0D01*
G01*
X91509001Y-141894000D01*
G75*
G02*
X91759000Y-142143999I0J-249999D01*
G01*
X91759000Y-142844001D01*
G75*
G02*
X91509001Y-143094000I-249999J0D01*
G01*
G37*
%TD.AperFunction*%
%TD*%
%TO.P,R23,2*%
%TO.N,Net-(C5-Pad1)*%
%TA.AperFunction,SMDPad,CuDef*%
G36*
G01*
X95319001Y-137252000D02*
X94418999Y-137252000D01*
G75*
G02*
X94169000Y-137002001I0J249999D01*
G01*
X94169000Y-136301999D01*
G75*
G02*
X94418999Y-136052000I249999J0D01*
G01*
X95319001Y-136052000D01*
G75*
G02*
X95569000Y-136301999I0J-249999D01*
G01*
X95569000Y-137002001D01*
G75*
G02*
X95319001Y-137252000I-249999J0D01*
G01*
G37*
%TD.AperFunction*%
%TO.P,R23,1*%
%TO.N,/OUT3.3*%
%TA.AperFunction,SMDPad,CuDef*%
G36*
G01*
X95319001Y-139252000D02*
X94418999Y-139252000D01*
G75*
G02*
X94169000Y-139002001I0J249999D01*
G01*
X94169000Y-138301999D01*
G75*
G02*
X94418999Y-138052000I249999J0D01*
G01*
X95319001Y-138052000D01*
G75*
G02*
X95569000Y-138301999I0J-249999D01*
G01*
X95569000Y-139002001D01*
G75*
G02*
X95319001Y-139252000I-249999J0D01*
G01*
G37*
%TD.AperFunction*%
%TD*%
%TO.P,R18,2*%
%TO.N,GND*%
%TA.AperFunction,SMDPad,CuDef*%
G36*
G01*
X90747001Y-136998000D02*
X89846999Y-136998000D01*
G75*
G02*
X89597000Y-136748001I0J249999D01*
G01*
X89597000Y-136047999D01*
G75*
G02*
X89846999Y-135798000I249999J0D01*
G01*
X90747001Y-135798000D01*
G75*
G02*
X90997000Y-136047999I0J-249999D01*
G01*
X90997000Y-136748001D01*
G75*
G02*
X90747001Y-136998000I-249999J0D01*
G01*
G37*
%TD.AperFunction*%
%TO.P,R18,1*%
%TO.N,Net-(R18-Pad1)*%
%TA.AperFunction,SMDPad,CuDef*%
G36*
G01*
X90747001Y-138998000D02*
X89846999Y-138998000D01*
G75*
G02*
X89597000Y-138748001I0J249999D01*
G01*
X89597000Y-138047999D01*
G75*
G02*
X89846999Y-137798000I249999J0D01*
G01*
X90747001Y-137798000D01*
G75*
G02*
X90997000Y-138047999I0J-249999D01*
G01*
X90997000Y-138748001D01*
G75*
G02*
X90747001Y-138998000I-249999J0D01*
G01*
G37*
%TD.AperFunction*%
%TD*%
%TO.P,R14,2*%
%TO.N,Net-(JP1-Pad1)*%
%TA.AperFunction,SMDPad,CuDef*%
G36*
G01*
X98809000Y-149802001D02*
X98809000Y-148901999D01*
G75*
G02*
X99058999Y-148652000I249999J0D01*
G01*
X99759001Y-148652000D01*
G75*
G02*
X100009000Y-148901999I0J-249999D01*
G01*
X100009000Y-149802001D01*
G75*
G02*
X99759001Y-150052000I-249999J0D01*
G01*
X99058999Y-150052000D01*
G75*
G02*
X98809000Y-149802001I0J249999D01*
G01*
G37*
%TD.AperFunction*%
%TO.P,R14,1*%
%TO.N,VCC*%
%TA.AperFunction,SMDPad,CuDef*%
G36*
G01*
X96809000Y-149802001D02*
X96809000Y-148901999D01*
G75*
G02*
X97058999Y-148652000I249999J0D01*
G01*
X97759001Y-148652000D01*
G75*
G02*
X98009000Y-148901999I0J-249999D01*
G01*
X98009000Y-149802001D01*
G75*
G02*
X97759001Y-150052000I-249999J0D01*
G01*
X97058999Y-150052000D01*
G75*
G02*
X96809000Y-149802001I0J249999D01*
G01*
G37*
%TD.AperFunction*%
%TD*%
D15*
%TO.P,L1,2*%
%TO.N,+3V3*%
X102453000Y-142494000D03*
%TO.P,L1,1*%
%TO.N,/OUT3.3*%
X97953000Y-142494000D03*
%TD*%
D16*
%TO.P,JP1,1*%
%TO.N,Net-(JP1-Pad1)*%
X95011000Y-149352000D03*
%TO.P,JP1,2*%
%TO.N,BUCK_33_EN*%
X93711000Y-149352000D03*
%TD*%
D17*
%TO.P,D7,2*%
%TO.N,GND*%
X103465000Y-137668000D03*
%TO.P,D7,1*%
%TO.N,/OUT3.3*%
X98465000Y-137668000D03*
%TD*%
%TO.P,C5,2*%
%TO.N,Net-(C5-Pad2)*%
%TA.AperFunction,SMDPad,CuDef*%
G36*
G01*
X92599500Y-137839500D02*
X93074500Y-137839500D01*
G75*
G02*
X93312000Y-138077000I0J-237500D01*
G01*
X93312000Y-138677000D01*
G75*
G02*
X93074500Y-138914500I-237500J0D01*
G01*
X92599500Y-138914500D01*
G75*
G02*
X92362000Y-138677000I0J237500D01*
G01*
X92362000Y-138077000D01*
G75*
G02*
X92599500Y-137839500I237500J0D01*
G01*
G37*
%TD.AperFunction*%
%TO.P,C5,1*%
%TO.N,Net-(C5-Pad1)*%
%TA.AperFunction,SMDPad,CuDef*%
G36*
G01*
X92599500Y-136114500D02*
X93074500Y-136114500D01*
G75*
G02*
X93312000Y-136352000I0J-237500D01*
G01*
X93312000Y-136952000D01*
G75*
G02*
X93074500Y-137189500I-237500J0D01*
G01*
X92599500Y-137189500D01*
G75*
G02*
X92362000Y-136952000I0J237500D01*
G01*
X92362000Y-136352000D01*
G75*
G02*
X92599500Y-136114500I237500J0D01*
G01*
G37*
%TD.AperFunction*%
%TD*%
%TO.P,C3,2*%
%TO.N,GND*%
%TA.AperFunction,SMDPad,CuDef*%
G36*
G01*
X99871500Y-147462001D02*
X99871500Y-146161999D01*
G75*
G02*
X100121499Y-145912000I249999J0D01*
G01*
X100946501Y-145912000D01*
G75*
G02*
X101196500Y-146161999I0J-249999D01*
G01*
X101196500Y-147462001D01*
G75*
G02*
X100946501Y-147712000I-249999J0D01*
G01*
X100121499Y-147712000D01*
G75*
G02*
X99871500Y-147462001I0J249999D01*
G01*
G37*
%TD.AperFunction*%
%TO.P,C3,1*%
%TO.N,VCC*%
%TA.AperFunction,SMDPad,CuDef*%
G36*
G01*
X96746500Y-147462001D02*
X96746500Y-146161999D01*
G75*
G02*
X96996499Y-145912000I249999J0D01*
G01*
X97821501Y-145912000D01*
G75*
G02*
X98071500Y-146161999I0J-249999D01*
G01*
X98071500Y-147462001D01*
G75*
G02*
X97821501Y-147712000I-249999J0D01*
G01*
X96996499Y-147712000D01*
G75*
G02*
X96746500Y-147462001I0J249999D01*
G01*
G37*
%TD.AperFunction*%
%TD*%
D12*
%TO.P,J8,6*%
%TO.N,/STM32L151RET6TR/SW0*%
X52197000Y-123952000D03*
%TO.P,J8,5*%
%TO.N,/STM32L151RET6TR/RST*%
X54737000Y-123952000D03*
%TO.P,J8,4*%
%TO.N,/STM32L151RET6TR/SWDAT*%
X57277000Y-123952000D03*
%TO.P,J8,3*%
%TO.N,GND*%
X59817000Y-123952000D03*
%TO.P,J8,2*%
%TO.N,/STM32L151RET6TR/SWCLK*%
X62357000Y-123952000D03*
D13*
%TO.P,J8,1*%
%TO.N,+3V3*%
X64897000Y-123952000D03*
%TD*%
D18*
%TO.P,Y1,2*%
%TO.N,/STM32L151RET6TR/OSM_OUT*%
X76513000Y-142748000D03*
%TO.P,Y1,1*%
%TO.N,/STM32L151RET6TR/MCO*%
X68013000Y-142748000D03*
%TD*%
D12*
%TO.P,J10,4*%
%TO.N,SCL2*%
X54991000Y-110490000D03*
%TO.P,J10,3*%
%TO.N,SDA2*%
X57531000Y-110490000D03*
%TO.P,J10,2*%
%TO.N,+3V3*%
X60071000Y-110490000D03*
D13*
%TO.P,J10,1*%
%TO.N,GND*%
X62611000Y-110490000D03*
%TD*%
D12*
%TO.P,J7,6*%
%TO.N,/STM32L151RET6TR/FTDI_RTS*%
X54737000Y-120142000D03*
%TO.P,J7,5*%
%TO.N,/STM32L151RET6TR/FTDI_RXD*%
X57277000Y-120142000D03*
%TO.P,J7,4*%
%TO.N,/STM32L151RET6TR/FTDI_TXD*%
X59817000Y-120142000D03*
%TO.P,J7,3*%
%TO.N,+5V*%
X62357000Y-120142000D03*
%TO.P,J7,2*%
%TO.N,/STM32L151RET6TR/FTDI_CTS*%
X64897000Y-120142000D03*
D13*
%TO.P,J7,1*%
%TO.N,GND*%
X67437000Y-120142000D03*
%TD*%
D19*
%TO.P,Y2,4*%
%TO.N,/STM32L151RET6TR/OS32_OUT*%
X63583000Y-140030000D03*
%TO.P,Y2,3*%
%TO.N,GND*%
X58083000Y-140030000D03*
%TO.P,Y2,2*%
X58083000Y-136830000D03*
%TO.P,Y2,1*%
%TO.N,/STM32L151RET6TR/OS32_IN*%
X63583000Y-136830000D03*
%TD*%
%TO.P,U7,64*%
%TO.N,+3V3*%
%TA.AperFunction,SMDPad,CuDef*%
G36*
G01*
X68050000Y-133948000D02*
X66650000Y-133948000D01*
G75*
G02*
X66575000Y-133873000I0J75000D01*
G01*
X66575000Y-133723000D01*
G75*
G02*
X66650000Y-133648000I75000J0D01*
G01*
X68050000Y-133648000D01*
G75*
G02*
X68125000Y-133723000I0J-75000D01*
G01*
X68125000Y-133873000D01*
G75*
G02*
X68050000Y-133948000I-75000J0D01*
G01*
G37*
%TD.AperFunction*%
%TO.P,U7,63*%
%TO.N,GND*%
%TA.AperFunction,SMDPad,CuDef*%
G36*
G01*
X68050000Y-133448000D02*
X66650000Y-133448000D01*
G75*
G02*
X66575000Y-133373000I0J75000D01*
G01*
X66575000Y-133223000D01*
G75*
G02*
X66650000Y-133148000I75000J0D01*
G01*
X68050000Y-133148000D01*
G75*
G02*
X68125000Y-133223000I0J-75000D01*
G01*
X68125000Y-133373000D01*
G75*
G02*
X68050000Y-133448000I-75000J0D01*
G01*
G37*
%TD.AperFunction*%
%TO.P,U7,62*%
%TO.N,SDA1*%
%TA.AperFunction,SMDPad,CuDef*%
G36*
G01*
X68050000Y-132948000D02*
X66650000Y-132948000D01*
G75*
G02*
X66575000Y-132873000I0J75000D01*
G01*
X66575000Y-132723000D01*
G75*
G02*
X66650000Y-132648000I75000J0D01*
G01*
X68050000Y-132648000D01*
G75*
G02*
X68125000Y-132723000I0J-75000D01*
G01*
X68125000Y-132873000D01*
G75*
G02*
X68050000Y-132948000I-75000J0D01*
G01*
G37*
%TD.AperFunction*%
%TO.P,U7,61*%
%TO.N,SCL1*%
%TA.AperFunction,SMDPad,CuDef*%
G36*
G01*
X68050000Y-132448000D02*
X66650000Y-132448000D01*
G75*
G02*
X66575000Y-132373000I0J75000D01*
G01*
X66575000Y-132223000D01*
G75*
G02*
X66650000Y-132148000I75000J0D01*
G01*
X68050000Y-132148000D01*
G75*
G02*
X68125000Y-132223000I0J-75000D01*
G01*
X68125000Y-132373000D01*
G75*
G02*
X68050000Y-132448000I-75000J0D01*
G01*
G37*
%TD.AperFunction*%
%TO.P,U7,60*%
%TO.N,/STM32L151RET6TR/BOOT*%
%TA.AperFunction,SMDPad,CuDef*%
G36*
G01*
X68050000Y-131948000D02*
X66650000Y-131948000D01*
G75*
G02*
X66575000Y-131873000I0J75000D01*
G01*
X66575000Y-131723000D01*
G75*
G02*
X66650000Y-131648000I75000J0D01*
G01*
X68050000Y-131648000D01*
G75*
G02*
X68125000Y-131723000I0J-75000D01*
G01*
X68125000Y-131873000D01*
G75*
G02*
X68050000Y-131948000I-75000J0D01*
G01*
G37*
%TD.AperFunction*%
%TO.P,U7,59*%
%TO.N,/STM32L151RET6TR/FTDI_RXD*%
%TA.AperFunction,SMDPad,CuDef*%
G36*
G01*
X68050000Y-131448000D02*
X66650000Y-131448000D01*
G75*
G02*
X66575000Y-131373000I0J75000D01*
G01*
X66575000Y-131223000D01*
G75*
G02*
X66650000Y-131148000I75000J0D01*
G01*
X68050000Y-131148000D01*
G75*
G02*
X68125000Y-131223000I0J-75000D01*
G01*
X68125000Y-131373000D01*
G75*
G02*
X68050000Y-131448000I-75000J0D01*
G01*
G37*
%TD.AperFunction*%
%TO.P,U7,58*%
%TO.N,/STM32L151RET6TR/FTDI_TXD*%
%TA.AperFunction,SMDPad,CuDef*%
G36*
G01*
X68050000Y-130948000D02*
X66650000Y-130948000D01*
G75*
G02*
X66575000Y-130873000I0J75000D01*
G01*
X66575000Y-130723000D01*
G75*
G02*
X66650000Y-130648000I75000J0D01*
G01*
X68050000Y-130648000D01*
G75*
G02*
X68125000Y-130723000I0J-75000D01*
G01*
X68125000Y-130873000D01*
G75*
G02*
X68050000Y-130948000I-75000J0D01*
G01*
G37*
%TD.AperFunction*%
%TO.P,U7,57*%
%TO.N,N/C*%
%TA.AperFunction,SMDPad,CuDef*%
G36*
G01*
X68050000Y-130448000D02*
X66650000Y-130448000D01*
G75*
G02*
X66575000Y-130373000I0J75000D01*
G01*
X66575000Y-130223000D01*
G75*
G02*
X66650000Y-130148000I75000J0D01*
G01*
X68050000Y-130148000D01*
G75*
G02*
X68125000Y-130223000I0J-75000D01*
G01*
X68125000Y-130373000D01*
G75*
G02*
X68050000Y-130448000I-75000J0D01*
G01*
G37*
%TD.AperFunction*%
%TO.P,U7,56*%
%TA.AperFunction,SMDPad,CuDef*%
G36*
G01*
X68050000Y-129948000D02*
X66650000Y-129948000D01*
G75*
G02*
X66575000Y-129873000I0J75000D01*
G01*
X66575000Y-129723000D01*
G75*
G02*
X66650000Y-129648000I75000J0D01*
G01*
X68050000Y-129648000D01*
G75*
G02*
X68125000Y-129723000I0J-75000D01*
G01*
X68125000Y-129873000D01*
G75*
G02*
X68050000Y-129948000I-75000J0D01*
G01*
G37*
%TD.AperFunction*%
%TO.P,U7,55*%
%TO.N,/STM32L151RET6TR/SW0*%
%TA.AperFunction,SMDPad,CuDef*%
G36*
G01*
X68050000Y-129448000D02*
X66650000Y-129448000D01*
G75*
G02*
X66575000Y-129373000I0J75000D01*
G01*
X66575000Y-129223000D01*
G75*
G02*
X66650000Y-129148000I75000J0D01*
G01*
X68050000Y-129148000D01*
G75*
G02*
X68125000Y-129223000I0J-75000D01*
G01*
X68125000Y-129373000D01*
G75*
G02*
X68050000Y-129448000I-75000J0D01*
G01*
G37*
%TD.AperFunction*%
%TO.P,U7,54*%
%TO.N,N/C*%
%TA.AperFunction,SMDPad,CuDef*%
G36*
G01*
X68050000Y-128948000D02*
X66650000Y-128948000D01*
G75*
G02*
X66575000Y-128873000I0J75000D01*
G01*
X66575000Y-128723000D01*
G75*
G02*
X66650000Y-128648000I75000J0D01*
G01*
X68050000Y-128648000D01*
G75*
G02*
X68125000Y-128723000I0J-75000D01*
G01*
X68125000Y-128873000D01*
G75*
G02*
X68050000Y-128948000I-75000J0D01*
G01*
G37*
%TD.AperFunction*%
%TO.P,U7,53*%
%TA.AperFunction,SMDPad,CuDef*%
G36*
G01*
X68050000Y-128448000D02*
X66650000Y-128448000D01*
G75*
G02*
X66575000Y-128373000I0J75000D01*
G01*
X66575000Y-128223000D01*
G75*
G02*
X66650000Y-128148000I75000J0D01*
G01*
X68050000Y-128148000D01*
G75*
G02*
X68125000Y-128223000I0J-75000D01*
G01*
X68125000Y-128373000D01*
G75*
G02*
X68050000Y-128448000I-75000J0D01*
G01*
G37*
%TD.AperFunction*%
%TO.P,U7,52*%
%TA.AperFunction,SMDPad,CuDef*%
G36*
G01*
X68050000Y-127948000D02*
X66650000Y-127948000D01*
G75*
G02*
X66575000Y-127873000I0J75000D01*
G01*
X66575000Y-127723000D01*
G75*
G02*
X66650000Y-127648000I75000J0D01*
G01*
X68050000Y-127648000D01*
G75*
G02*
X68125000Y-127723000I0J-75000D01*
G01*
X68125000Y-127873000D01*
G75*
G02*
X68050000Y-127948000I-75000J0D01*
G01*
G37*
%TD.AperFunction*%
%TO.P,U7,51*%
%TA.AperFunction,SMDPad,CuDef*%
G36*
G01*
X68050000Y-127448000D02*
X66650000Y-127448000D01*
G75*
G02*
X66575000Y-127373000I0J75000D01*
G01*
X66575000Y-127223000D01*
G75*
G02*
X66650000Y-127148000I75000J0D01*
G01*
X68050000Y-127148000D01*
G75*
G02*
X68125000Y-127223000I0J-75000D01*
G01*
X68125000Y-127373000D01*
G75*
G02*
X68050000Y-127448000I-75000J0D01*
G01*
G37*
%TD.AperFunction*%
%TO.P,U7,50*%
%TA.AperFunction,SMDPad,CuDef*%
G36*
G01*
X68050000Y-126948000D02*
X66650000Y-126948000D01*
G75*
G02*
X66575000Y-126873000I0J75000D01*
G01*
X66575000Y-126723000D01*
G75*
G02*
X66650000Y-126648000I75000J0D01*
G01*
X68050000Y-126648000D01*
G75*
G02*
X68125000Y-126723000I0J-75000D01*
G01*
X68125000Y-126873000D01*
G75*
G02*
X68050000Y-126948000I-75000J0D01*
G01*
G37*
%TD.AperFunction*%
%TO.P,U7,49*%
%TO.N,/STM32L151RET6TR/SWCLK*%
%TA.AperFunction,SMDPad,CuDef*%
G36*
G01*
X68050000Y-126448000D02*
X66650000Y-126448000D01*
G75*
G02*
X66575000Y-126373000I0J75000D01*
G01*
X66575000Y-126223000D01*
G75*
G02*
X66650000Y-126148000I75000J0D01*
G01*
X68050000Y-126148000D01*
G75*
G02*
X68125000Y-126223000I0J-75000D01*
G01*
X68125000Y-126373000D01*
G75*
G02*
X68050000Y-126448000I-75000J0D01*
G01*
G37*
%TD.AperFunction*%
%TO.P,U7,48*%
%TO.N,+3V3*%
%TA.AperFunction,SMDPad,CuDef*%
G36*
G01*
X69350000Y-125148000D02*
X69200000Y-125148000D01*
G75*
G02*
X69125000Y-125073000I0J75000D01*
G01*
X69125000Y-123673000D01*
G75*
G02*
X69200000Y-123598000I75000J0D01*
G01*
X69350000Y-123598000D01*
G75*
G02*
X69425000Y-123673000I0J-75000D01*
G01*
X69425000Y-125073000D01*
G75*
G02*
X69350000Y-125148000I-75000J0D01*
G01*
G37*
%TD.AperFunction*%
%TO.P,U7,47*%
%TO.N,GND*%
%TA.AperFunction,SMDPad,CuDef*%
G36*
G01*
X69850000Y-125148000D02*
X69700000Y-125148000D01*
G75*
G02*
X69625000Y-125073000I0J75000D01*
G01*
X69625000Y-123673000D01*
G75*
G02*
X69700000Y-123598000I75000J0D01*
G01*
X69850000Y-123598000D01*
G75*
G02*
X69925000Y-123673000I0J-75000D01*
G01*
X69925000Y-125073000D01*
G75*
G02*
X69850000Y-125148000I-75000J0D01*
G01*
G37*
%TD.AperFunction*%
%TO.P,U7,46*%
%TO.N,/STM32L151RET6TR/SWDAT*%
%TA.AperFunction,SMDPad,CuDef*%
G36*
G01*
X70350000Y-125148000D02*
X70200000Y-125148000D01*
G75*
G02*
X70125000Y-125073000I0J75000D01*
G01*
X70125000Y-123673000D01*
G75*
G02*
X70200000Y-123598000I75000J0D01*
G01*
X70350000Y-123598000D01*
G75*
G02*
X70425000Y-123673000I0J-75000D01*
G01*
X70425000Y-125073000D01*
G75*
G02*
X70350000Y-125148000I-75000J0D01*
G01*
G37*
%TD.AperFunction*%
%TO.P,U7,45*%
%TO.N,/STM32L151RET6TR/FTDI_RTS*%
%TA.AperFunction,SMDPad,CuDef*%
G36*
G01*
X70850000Y-125148000D02*
X70700000Y-125148000D01*
G75*
G02*
X70625000Y-125073000I0J75000D01*
G01*
X70625000Y-123673000D01*
G75*
G02*
X70700000Y-123598000I75000J0D01*
G01*
X70850000Y-123598000D01*
G75*
G02*
X70925000Y-123673000I0J-75000D01*
G01*
X70925000Y-125073000D01*
G75*
G02*
X70850000Y-125148000I-75000J0D01*
G01*
G37*
%TD.AperFunction*%
%TO.P,U7,44*%
%TO.N,/STM32L151RET6TR/FTDI_CTS*%
%TA.AperFunction,SMDPad,CuDef*%
G36*
G01*
X71350000Y-125148000D02*
X71200000Y-125148000D01*
G75*
G02*
X71125000Y-125073000I0J75000D01*
G01*
X71125000Y-123673000D01*
G75*
G02*
X71200000Y-123598000I75000J0D01*
G01*
X71350000Y-123598000D01*
G75*
G02*
X71425000Y-123673000I0J-75000D01*
G01*
X71425000Y-125073000D01*
G75*
G02*
X71350000Y-125148000I-75000J0D01*
G01*
G37*
%TD.AperFunction*%
%TO.P,U7,43*%
%TO.N,/STM32L151RET6TR/PA10*%
%TA.AperFunction,SMDPad,CuDef*%
G36*
G01*
X71850000Y-125148000D02*
X71700000Y-125148000D01*
G75*
G02*
X71625000Y-125073000I0J75000D01*
G01*
X71625000Y-123673000D01*
G75*
G02*
X71700000Y-123598000I75000J0D01*
G01*
X71850000Y-123598000D01*
G75*
G02*
X71925000Y-123673000I0J-75000D01*
G01*
X71925000Y-125073000D01*
G75*
G02*
X71850000Y-125148000I-75000J0D01*
G01*
G37*
%TD.AperFunction*%
%TO.P,U7,42*%
%TO.N,/STM32L151RET6TR/PA9*%
%TA.AperFunction,SMDPad,CuDef*%
G36*
G01*
X72350000Y-125148000D02*
X72200000Y-125148000D01*
G75*
G02*
X72125000Y-125073000I0J75000D01*
G01*
X72125000Y-123673000D01*
G75*
G02*
X72200000Y-123598000I75000J0D01*
G01*
X72350000Y-123598000D01*
G75*
G02*
X72425000Y-123673000I0J-75000D01*
G01*
X72425000Y-125073000D01*
G75*
G02*
X72350000Y-125148000I-75000J0D01*
G01*
G37*
%TD.AperFunction*%
%TO.P,U7,41*%
%TO.N,/STM32L151RET6TR/PIN41*%
%TA.AperFunction,SMDPad,CuDef*%
G36*
G01*
X72850000Y-125148000D02*
X72700000Y-125148000D01*
G75*
G02*
X72625000Y-125073000I0J75000D01*
G01*
X72625000Y-123673000D01*
G75*
G02*
X72700000Y-123598000I75000J0D01*
G01*
X72850000Y-123598000D01*
G75*
G02*
X72925000Y-123673000I0J-75000D01*
G01*
X72925000Y-125073000D01*
G75*
G02*
X72850000Y-125148000I-75000J0D01*
G01*
G37*
%TD.AperFunction*%
%TO.P,U7,40*%
%TO.N,SDA2*%
%TA.AperFunction,SMDPad,CuDef*%
G36*
G01*
X73350000Y-125148000D02*
X73200000Y-125148000D01*
G75*
G02*
X73125000Y-125073000I0J75000D01*
G01*
X73125000Y-123673000D01*
G75*
G02*
X73200000Y-123598000I75000J0D01*
G01*
X73350000Y-123598000D01*
G75*
G02*
X73425000Y-123673000I0J-75000D01*
G01*
X73425000Y-125073000D01*
G75*
G02*
X73350000Y-125148000I-75000J0D01*
G01*
G37*
%TD.AperFunction*%
%TO.P,U7,39*%
%TO.N,/STM32L151RET6TR/PC8*%
%TA.AperFunction,SMDPad,CuDef*%
G36*
G01*
X73850000Y-125148000D02*
X73700000Y-125148000D01*
G75*
G02*
X73625000Y-125073000I0J75000D01*
G01*
X73625000Y-123673000D01*
G75*
G02*
X73700000Y-123598000I75000J0D01*
G01*
X73850000Y-123598000D01*
G75*
G02*
X73925000Y-123673000I0J-75000D01*
G01*
X73925000Y-125073000D01*
G75*
G02*
X73850000Y-125148000I-75000J0D01*
G01*
G37*
%TD.AperFunction*%
%TO.P,U7,38*%
%TO.N,N/C*%
%TA.AperFunction,SMDPad,CuDef*%
G36*
G01*
X74350000Y-125148000D02*
X74200000Y-125148000D01*
G75*
G02*
X74125000Y-125073000I0J75000D01*
G01*
X74125000Y-123673000D01*
G75*
G02*
X74200000Y-123598000I75000J0D01*
G01*
X74350000Y-123598000D01*
G75*
G02*
X74425000Y-123673000I0J-75000D01*
G01*
X74425000Y-125073000D01*
G75*
G02*
X74350000Y-125148000I-75000J0D01*
G01*
G37*
%TD.AperFunction*%
%TO.P,U7,37*%
%TA.AperFunction,SMDPad,CuDef*%
G36*
G01*
X74850000Y-125148000D02*
X74700000Y-125148000D01*
G75*
G02*
X74625000Y-125073000I0J75000D01*
G01*
X74625000Y-123673000D01*
G75*
G02*
X74700000Y-123598000I75000J0D01*
G01*
X74850000Y-123598000D01*
G75*
G02*
X74925000Y-123673000I0J-75000D01*
G01*
X74925000Y-125073000D01*
G75*
G02*
X74850000Y-125148000I-75000J0D01*
G01*
G37*
%TD.AperFunction*%
%TO.P,U7,36*%
%TO.N,GPIOI_3*%
%TA.AperFunction,SMDPad,CuDef*%
G36*
G01*
X75350000Y-125148000D02*
X75200000Y-125148000D01*
G75*
G02*
X75125000Y-125073000I0J75000D01*
G01*
X75125000Y-123673000D01*
G75*
G02*
X75200000Y-123598000I75000J0D01*
G01*
X75350000Y-123598000D01*
G75*
G02*
X75425000Y-123673000I0J-75000D01*
G01*
X75425000Y-125073000D01*
G75*
G02*
X75350000Y-125148000I-75000J0D01*
G01*
G37*
%TD.AperFunction*%
%TO.P,U7,35*%
%TO.N,GPIOI_2*%
%TA.AperFunction,SMDPad,CuDef*%
G36*
G01*
X75850000Y-125148000D02*
X75700000Y-125148000D01*
G75*
G02*
X75625000Y-125073000I0J75000D01*
G01*
X75625000Y-123673000D01*
G75*
G02*
X75700000Y-123598000I75000J0D01*
G01*
X75850000Y-123598000D01*
G75*
G02*
X75925000Y-123673000I0J-75000D01*
G01*
X75925000Y-125073000D01*
G75*
G02*
X75850000Y-125148000I-75000J0D01*
G01*
G37*
%TD.AperFunction*%
%TO.P,U7,34*%
%TO.N,GPIOI_1*%
%TA.AperFunction,SMDPad,CuDef*%
G36*
G01*
X76350000Y-125148000D02*
X76200000Y-125148000D01*
G75*
G02*
X76125000Y-125073000I0J75000D01*
G01*
X76125000Y-123673000D01*
G75*
G02*
X76200000Y-123598000I75000J0D01*
G01*
X76350000Y-123598000D01*
G75*
G02*
X76425000Y-123673000I0J-75000D01*
G01*
X76425000Y-125073000D01*
G75*
G02*
X76350000Y-125148000I-75000J0D01*
G01*
G37*
%TD.AperFunction*%
%TO.P,U7,33*%
%TO.N,GPIOI_0*%
%TA.AperFunction,SMDPad,CuDef*%
G36*
G01*
X76850000Y-125148000D02*
X76700000Y-125148000D01*
G75*
G02*
X76625000Y-125073000I0J75000D01*
G01*
X76625000Y-123673000D01*
G75*
G02*
X76700000Y-123598000I75000J0D01*
G01*
X76850000Y-123598000D01*
G75*
G02*
X76925000Y-123673000I0J-75000D01*
G01*
X76925000Y-125073000D01*
G75*
G02*
X76850000Y-125148000I-75000J0D01*
G01*
G37*
%TD.AperFunction*%
%TO.P,U7,32*%
%TO.N,+3V3*%
%TA.AperFunction,SMDPad,CuDef*%
G36*
G01*
X79400000Y-126448000D02*
X78000000Y-126448000D01*
G75*
G02*
X77925000Y-126373000I0J75000D01*
G01*
X77925000Y-126223000D01*
G75*
G02*
X78000000Y-126148000I75000J0D01*
G01*
X79400000Y-126148000D01*
G75*
G02*
X79475000Y-126223000I0J-75000D01*
G01*
X79475000Y-126373000D01*
G75*
G02*
X79400000Y-126448000I-75000J0D01*
G01*
G37*
%TD.AperFunction*%
%TO.P,U7,31*%
%TO.N,GND*%
%TA.AperFunction,SMDPad,CuDef*%
G36*
G01*
X79400000Y-126948000D02*
X78000000Y-126948000D01*
G75*
G02*
X77925000Y-126873000I0J75000D01*
G01*
X77925000Y-126723000D01*
G75*
G02*
X78000000Y-126648000I75000J0D01*
G01*
X79400000Y-126648000D01*
G75*
G02*
X79475000Y-126723000I0J-75000D01*
G01*
X79475000Y-126873000D01*
G75*
G02*
X79400000Y-126948000I-75000J0D01*
G01*
G37*
%TD.AperFunction*%
%TO.P,U7,30*%
%TO.N,/STM32L151RET6TR/PIN30*%
%TA.AperFunction,SMDPad,CuDef*%
G36*
G01*
X79400000Y-127448000D02*
X78000000Y-127448000D01*
G75*
G02*
X77925000Y-127373000I0J75000D01*
G01*
X77925000Y-127223000D01*
G75*
G02*
X78000000Y-127148000I75000J0D01*
G01*
X79400000Y-127148000D01*
G75*
G02*
X79475000Y-127223000I0J-75000D01*
G01*
X79475000Y-127373000D01*
G75*
G02*
X79400000Y-127448000I-75000J0D01*
G01*
G37*
%TD.AperFunction*%
%TO.P,U7,29*%
%TO.N,/STM32L151RET6TR/PIN29*%
%TA.AperFunction,SMDPad,CuDef*%
G36*
G01*
X79400000Y-127948000D02*
X78000000Y-127948000D01*
G75*
G02*
X77925000Y-127873000I0J75000D01*
G01*
X77925000Y-127723000D01*
G75*
G02*
X78000000Y-127648000I75000J0D01*
G01*
X79400000Y-127648000D01*
G75*
G02*
X79475000Y-127723000I0J-75000D01*
G01*
X79475000Y-127873000D01*
G75*
G02*
X79400000Y-127948000I-75000J0D01*
G01*
G37*
%TD.AperFunction*%
%TO.P,U7,28*%
%TO.N,SW_2*%
%TA.AperFunction,SMDPad,CuDef*%
G36*
G01*
X79400000Y-128448000D02*
X78000000Y-128448000D01*
G75*
G02*
X77925000Y-128373000I0J75000D01*
G01*
X77925000Y-128223000D01*
G75*
G02*
X78000000Y-128148000I75000J0D01*
G01*
X79400000Y-128148000D01*
G75*
G02*
X79475000Y-128223000I0J-75000D01*
G01*
X79475000Y-128373000D01*
G75*
G02*
X79400000Y-128448000I-75000J0D01*
G01*
G37*
%TD.AperFunction*%
%TO.P,U7,27*%
%TO.N,SW_1*%
%TA.AperFunction,SMDPad,CuDef*%
G36*
G01*
X79400000Y-128948000D02*
X78000000Y-128948000D01*
G75*
G02*
X77925000Y-128873000I0J75000D01*
G01*
X77925000Y-128723000D01*
G75*
G02*
X78000000Y-128648000I75000J0D01*
G01*
X79400000Y-128648000D01*
G75*
G02*
X79475000Y-128723000I0J-75000D01*
G01*
X79475000Y-128873000D01*
G75*
G02*
X79400000Y-128948000I-75000J0D01*
G01*
G37*
%TD.AperFunction*%
%TO.P,U7,26*%
%TO.N,LED_5*%
%TA.AperFunction,SMDPad,CuDef*%
G36*
G01*
X79400000Y-129448000D02*
X78000000Y-129448000D01*
G75*
G02*
X77925000Y-129373000I0J75000D01*
G01*
X77925000Y-129223000D01*
G75*
G02*
X78000000Y-129148000I75000J0D01*
G01*
X79400000Y-129148000D01*
G75*
G02*
X79475000Y-129223000I0J-75000D01*
G01*
X79475000Y-129373000D01*
G75*
G02*
X79400000Y-129448000I-75000J0D01*
G01*
G37*
%TD.AperFunction*%
%TO.P,U7,25*%
%TO.N,N/C*%
%TA.AperFunction,SMDPad,CuDef*%
G36*
G01*
X79400000Y-129948000D02*
X78000000Y-129948000D01*
G75*
G02*
X77925000Y-129873000I0J75000D01*
G01*
X77925000Y-129723000D01*
G75*
G02*
X78000000Y-129648000I75000J0D01*
G01*
X79400000Y-129648000D01*
G75*
G02*
X79475000Y-129723000I0J-75000D01*
G01*
X79475000Y-129873000D01*
G75*
G02*
X79400000Y-129948000I-75000J0D01*
G01*
G37*
%TD.AperFunction*%
%TO.P,U7,24*%
%TA.AperFunction,SMDPad,CuDef*%
G36*
G01*
X79400000Y-130448000D02*
X78000000Y-130448000D01*
G75*
G02*
X77925000Y-130373000I0J75000D01*
G01*
X77925000Y-130223000D01*
G75*
G02*
X78000000Y-130148000I75000J0D01*
G01*
X79400000Y-130148000D01*
G75*
G02*
X79475000Y-130223000I0J-75000D01*
G01*
X79475000Y-130373000D01*
G75*
G02*
X79400000Y-130448000I-75000J0D01*
G01*
G37*
%TD.AperFunction*%
%TO.P,U7,23*%
%TO.N,LED_4*%
%TA.AperFunction,SMDPad,CuDef*%
G36*
G01*
X79400000Y-130948000D02*
X78000000Y-130948000D01*
G75*
G02*
X77925000Y-130873000I0J75000D01*
G01*
X77925000Y-130723000D01*
G75*
G02*
X78000000Y-130648000I75000J0D01*
G01*
X79400000Y-130648000D01*
G75*
G02*
X79475000Y-130723000I0J-75000D01*
G01*
X79475000Y-130873000D01*
G75*
G02*
X79400000Y-130948000I-75000J0D01*
G01*
G37*
%TD.AperFunction*%
%TO.P,U7,22*%
%TO.N,LED_3*%
%TA.AperFunction,SMDPad,CuDef*%
G36*
G01*
X79400000Y-131448000D02*
X78000000Y-131448000D01*
G75*
G02*
X77925000Y-131373000I0J75000D01*
G01*
X77925000Y-131223000D01*
G75*
G02*
X78000000Y-131148000I75000J0D01*
G01*
X79400000Y-131148000D01*
G75*
G02*
X79475000Y-131223000I0J-75000D01*
G01*
X79475000Y-131373000D01*
G75*
G02*
X79400000Y-131448000I-75000J0D01*
G01*
G37*
%TD.AperFunction*%
%TO.P,U7,21*%
%TO.N,N/C*%
%TA.AperFunction,SMDPad,CuDef*%
G36*
G01*
X79400000Y-131948000D02*
X78000000Y-131948000D01*
G75*
G02*
X77925000Y-131873000I0J75000D01*
G01*
X77925000Y-131723000D01*
G75*
G02*
X78000000Y-131648000I75000J0D01*
G01*
X79400000Y-131648000D01*
G75*
G02*
X79475000Y-131723000I0J-75000D01*
G01*
X79475000Y-131873000D01*
G75*
G02*
X79400000Y-131948000I-75000J0D01*
G01*
G37*
%TD.AperFunction*%
%TO.P,U7,20*%
%TA.AperFunction,SMDPad,CuDef*%
G36*
G01*
X79400000Y-132448000D02*
X78000000Y-132448000D01*
G75*
G02*
X77925000Y-132373000I0J75000D01*
G01*
X77925000Y-132223000D01*
G75*
G02*
X78000000Y-132148000I75000J0D01*
G01*
X79400000Y-132148000D01*
G75*
G02*
X79475000Y-132223000I0J-75000D01*
G01*
X79475000Y-132373000D01*
G75*
G02*
X79400000Y-132448000I-75000J0D01*
G01*
G37*
%TD.AperFunction*%
%TO.P,U7,19*%
%TO.N,+3V3*%
%TA.AperFunction,SMDPad,CuDef*%
G36*
G01*
X79400000Y-132948000D02*
X78000000Y-132948000D01*
G75*
G02*
X77925000Y-132873000I0J75000D01*
G01*
X77925000Y-132723000D01*
G75*
G02*
X78000000Y-132648000I75000J0D01*
G01*
X79400000Y-132648000D01*
G75*
G02*
X79475000Y-132723000I0J-75000D01*
G01*
X79475000Y-132873000D01*
G75*
G02*
X79400000Y-132948000I-75000J0D01*
G01*
G37*
%TD.AperFunction*%
%TO.P,U7,18*%
%TO.N,GND*%
%TA.AperFunction,SMDPad,CuDef*%
G36*
G01*
X79400000Y-133448000D02*
X78000000Y-133448000D01*
G75*
G02*
X77925000Y-133373000I0J75000D01*
G01*
X77925000Y-133223000D01*
G75*
G02*
X78000000Y-133148000I75000J0D01*
G01*
X79400000Y-133148000D01*
G75*
G02*
X79475000Y-133223000I0J-75000D01*
G01*
X79475000Y-133373000D01*
G75*
G02*
X79400000Y-133448000I-75000J0D01*
G01*
G37*
%TD.AperFunction*%
%TO.P,U7,17*%
%TO.N,/STM32L151RET6TR/UART_RX*%
%TA.AperFunction,SMDPad,CuDef*%
G36*
G01*
X79400000Y-133948000D02*
X78000000Y-133948000D01*
G75*
G02*
X77925000Y-133873000I0J75000D01*
G01*
X77925000Y-133723000D01*
G75*
G02*
X78000000Y-133648000I75000J0D01*
G01*
X79400000Y-133648000D01*
G75*
G02*
X79475000Y-133723000I0J-75000D01*
G01*
X79475000Y-133873000D01*
G75*
G02*
X79400000Y-133948000I-75000J0D01*
G01*
G37*
%TD.AperFunction*%
%TO.P,U7,16*%
%TO.N,/STM32L151RET6TR/UART_TX*%
%TA.AperFunction,SMDPad,CuDef*%
G36*
G01*
X76850000Y-136498000D02*
X76700000Y-136498000D01*
G75*
G02*
X76625000Y-136423000I0J75000D01*
G01*
X76625000Y-135023000D01*
G75*
G02*
X76700000Y-134948000I75000J0D01*
G01*
X76850000Y-134948000D01*
G75*
G02*
X76925000Y-135023000I0J-75000D01*
G01*
X76925000Y-136423000D01*
G75*
G02*
X76850000Y-136498000I-75000J0D01*
G01*
G37*
%TD.AperFunction*%
%TO.P,U7,15*%
%TO.N,LED_2*%
%TA.AperFunction,SMDPad,CuDef*%
G36*
G01*
X76350000Y-136498000D02*
X76200000Y-136498000D01*
G75*
G02*
X76125000Y-136423000I0J75000D01*
G01*
X76125000Y-135023000D01*
G75*
G02*
X76200000Y-134948000I75000J0D01*
G01*
X76350000Y-134948000D01*
G75*
G02*
X76425000Y-135023000I0J-75000D01*
G01*
X76425000Y-136423000D01*
G75*
G02*
X76350000Y-136498000I-75000J0D01*
G01*
G37*
%TD.AperFunction*%
%TO.P,U7,14*%
%TO.N,LED_1*%
%TA.AperFunction,SMDPad,CuDef*%
G36*
G01*
X75850000Y-136498000D02*
X75700000Y-136498000D01*
G75*
G02*
X75625000Y-136423000I0J75000D01*
G01*
X75625000Y-135023000D01*
G75*
G02*
X75700000Y-134948000I75000J0D01*
G01*
X75850000Y-134948000D01*
G75*
G02*
X75925000Y-135023000I0J-75000D01*
G01*
X75925000Y-136423000D01*
G75*
G02*
X75850000Y-136498000I-75000J0D01*
G01*
G37*
%TD.AperFunction*%
%TO.P,U7,13*%
%TO.N,+3V3*%
%TA.AperFunction,SMDPad,CuDef*%
G36*
G01*
X75350000Y-136498000D02*
X75200000Y-136498000D01*
G75*
G02*
X75125000Y-136423000I0J75000D01*
G01*
X75125000Y-135023000D01*
G75*
G02*
X75200000Y-134948000I75000J0D01*
G01*
X75350000Y-134948000D01*
G75*
G02*
X75425000Y-135023000I0J-75000D01*
G01*
X75425000Y-136423000D01*
G75*
G02*
X75350000Y-136498000I-75000J0D01*
G01*
G37*
%TD.AperFunction*%
%TO.P,U7,12*%
%TO.N,GND*%
%TA.AperFunction,SMDPad,CuDef*%
G36*
G01*
X74850000Y-136498000D02*
X74700000Y-136498000D01*
G75*
G02*
X74625000Y-136423000I0J75000D01*
G01*
X74625000Y-135023000D01*
G75*
G02*
X74700000Y-134948000I75000J0D01*
G01*
X74850000Y-134948000D01*
G75*
G02*
X74925000Y-135023000I0J-75000D01*
G01*
X74925000Y-136423000D01*
G75*
G02*
X74850000Y-136498000I-75000J0D01*
G01*
G37*
%TD.AperFunction*%
%TO.P,U7,11*%
%TO.N,XSHUT_3*%
%TA.AperFunction,SMDPad,CuDef*%
G36*
G01*
X74350000Y-136498000D02*
X74200000Y-136498000D01*
G75*
G02*
X74125000Y-136423000I0J75000D01*
G01*
X74125000Y-135023000D01*
G75*
G02*
X74200000Y-134948000I75000J0D01*
G01*
X74350000Y-134948000D01*
G75*
G02*
X74425000Y-135023000I0J-75000D01*
G01*
X74425000Y-136423000D01*
G75*
G02*
X74350000Y-136498000I-75000J0D01*
G01*
G37*
%TD.AperFunction*%
%TO.P,U7,10*%
%TO.N,XSHUT_2*%
%TA.AperFunction,SMDPad,CuDef*%
G36*
G01*
X73850000Y-136498000D02*
X73700000Y-136498000D01*
G75*
G02*
X73625000Y-136423000I0J75000D01*
G01*
X73625000Y-135023000D01*
G75*
G02*
X73700000Y-134948000I75000J0D01*
G01*
X73850000Y-134948000D01*
G75*
G02*
X73925000Y-135023000I0J-75000D01*
G01*
X73925000Y-136423000D01*
G75*
G02*
X73850000Y-136498000I-75000J0D01*
G01*
G37*
%TD.AperFunction*%
%TO.P,U7,9*%
%TO.N,XSHUT_1*%
%TA.AperFunction,SMDPad,CuDef*%
G36*
G01*
X73350000Y-136498000D02*
X73200000Y-136498000D01*
G75*
G02*
X73125000Y-136423000I0J75000D01*
G01*
X73125000Y-135023000D01*
G75*
G02*
X73200000Y-134948000I75000J0D01*
G01*
X73350000Y-134948000D01*
G75*
G02*
X73425000Y-135023000I0J-75000D01*
G01*
X73425000Y-136423000D01*
G75*
G02*
X73350000Y-136498000I-75000J0D01*
G01*
G37*
%TD.AperFunction*%
%TO.P,U7,8*%
%TO.N,XSHUT_0*%
%TA.AperFunction,SMDPad,CuDef*%
G36*
G01*
X72850000Y-136498000D02*
X72700000Y-136498000D01*
G75*
G02*
X72625000Y-136423000I0J75000D01*
G01*
X72625000Y-135023000D01*
G75*
G02*
X72700000Y-134948000I75000J0D01*
G01*
X72850000Y-134948000D01*
G75*
G02*
X72925000Y-135023000I0J-75000D01*
G01*
X72925000Y-136423000D01*
G75*
G02*
X72850000Y-136498000I-75000J0D01*
G01*
G37*
%TD.AperFunction*%
%TO.P,U7,7*%
%TO.N,/STM32L151RET6TR/RST*%
%TA.AperFunction,SMDPad,CuDef*%
G36*
G01*
X72350000Y-136498000D02*
X72200000Y-136498000D01*
G75*
G02*
X72125000Y-136423000I0J75000D01*
G01*
X72125000Y-135023000D01*
G75*
G02*
X72200000Y-134948000I75000J0D01*
G01*
X72350000Y-134948000D01*
G75*
G02*
X72425000Y-135023000I0J-75000D01*
G01*
X72425000Y-136423000D01*
G75*
G02*
X72350000Y-136498000I-75000J0D01*
G01*
G37*
%TD.AperFunction*%
%TO.P,U7,6*%
%TO.N,/STM32L151RET6TR/OSM_OUT*%
%TA.AperFunction,SMDPad,CuDef*%
G36*
G01*
X71850000Y-136498000D02*
X71700000Y-136498000D01*
G75*
G02*
X71625000Y-136423000I0J75000D01*
G01*
X71625000Y-135023000D01*
G75*
G02*
X71700000Y-134948000I75000J0D01*
G01*
X71850000Y-134948000D01*
G75*
G02*
X71925000Y-135023000I0J-75000D01*
G01*
X71925000Y-136423000D01*
G75*
G02*
X71850000Y-136498000I-75000J0D01*
G01*
G37*
%TD.AperFunction*%
%TO.P,U7,5*%
%TO.N,/STM32L151RET6TR/MCO*%
%TA.AperFunction,SMDPad,CuDef*%
G36*
G01*
X71350000Y-136498000D02*
X71200000Y-136498000D01*
G75*
G02*
X71125000Y-136423000I0J75000D01*
G01*
X71125000Y-135023000D01*
G75*
G02*
X71200000Y-134948000I75000J0D01*
G01*
X71350000Y-134948000D01*
G75*
G02*
X71425000Y-135023000I0J-75000D01*
G01*
X71425000Y-136423000D01*
G75*
G02*
X71350000Y-136498000I-75000J0D01*
G01*
G37*
%TD.AperFunction*%
%TO.P,U7,4*%
%TO.N,/STM32L151RET6TR/OS32_OUT*%
%TA.AperFunction,SMDPad,CuDef*%
G36*
G01*
X70850000Y-136498000D02*
X70700000Y-136498000D01*
G75*
G02*
X70625000Y-136423000I0J75000D01*
G01*
X70625000Y-135023000D01*
G75*
G02*
X70700000Y-134948000I75000J0D01*
G01*
X70850000Y-134948000D01*
G75*
G02*
X70925000Y-135023000I0J-75000D01*
G01*
X70925000Y-136423000D01*
G75*
G02*
X70850000Y-136498000I-75000J0D01*
G01*
G37*
%TD.AperFunction*%
%TO.P,U7,3*%
%TO.N,/STM32L151RET6TR/OS32_IN*%
%TA.AperFunction,SMDPad,CuDef*%
G36*
G01*
X70350000Y-136498000D02*
X70200000Y-136498000D01*
G75*
G02*
X70125000Y-136423000I0J75000D01*
G01*
X70125000Y-135023000D01*
G75*
G02*
X70200000Y-134948000I75000J0D01*
G01*
X70350000Y-134948000D01*
G75*
G02*
X70425000Y-135023000I0J-75000D01*
G01*
X70425000Y-136423000D01*
G75*
G02*
X70350000Y-136498000I-75000J0D01*
G01*
G37*
%TD.AperFunction*%
%TO.P,U7,2*%
%TO.N,BUCK_5_EN*%
%TA.AperFunction,SMDPad,CuDef*%
G36*
G01*
X69850000Y-136498000D02*
X69700000Y-136498000D01*
G75*
G02*
X69625000Y-136423000I0J75000D01*
G01*
X69625000Y-135023000D01*
G75*
G02*
X69700000Y-134948000I75000J0D01*
G01*
X69850000Y-134948000D01*
G75*
G02*
X69925000Y-135023000I0J-75000D01*
G01*
X69925000Y-136423000D01*
G75*
G02*
X69850000Y-136498000I-75000J0D01*
G01*
G37*
%TD.AperFunction*%
%TO.P,U7,1*%
%TO.N,+3V3*%
%TA.AperFunction,SMDPad,CuDef*%
G36*
G01*
X69350000Y-136498000D02*
X69200000Y-136498000D01*
G75*
G02*
X69125000Y-136423000I0J75000D01*
G01*
X69125000Y-135023000D01*
G75*
G02*
X69200000Y-134948000I75000J0D01*
G01*
X69350000Y-134948000D01*
G75*
G02*
X69425000Y-135023000I0J-75000D01*
G01*
X69425000Y-136423000D01*
G75*
G02*
X69350000Y-136498000I-75000J0D01*
G01*
G37*
%TD.AperFunction*%
%TD*%
%TO.P,U6,64*%
%TO.N,+3V3*%
%TA.AperFunction,SMDPad,CuDef*%
G36*
G01*
X68050000Y-133948000D02*
X66650000Y-133948000D01*
G75*
G02*
X66575000Y-133873000I0J75000D01*
G01*
X66575000Y-133723000D01*
G75*
G02*
X66650000Y-133648000I75000J0D01*
G01*
X68050000Y-133648000D01*
G75*
G02*
X68125000Y-133723000I0J-75000D01*
G01*
X68125000Y-133873000D01*
G75*
G02*
X68050000Y-133948000I-75000J0D01*
G01*
G37*
%TD.AperFunction*%
%TO.P,U6,63*%
%TO.N,GND*%
%TA.AperFunction,SMDPad,CuDef*%
G36*
G01*
X68050000Y-133448000D02*
X66650000Y-133448000D01*
G75*
G02*
X66575000Y-133373000I0J75000D01*
G01*
X66575000Y-133223000D01*
G75*
G02*
X66650000Y-133148000I75000J0D01*
G01*
X68050000Y-133148000D01*
G75*
G02*
X68125000Y-133223000I0J-75000D01*
G01*
X68125000Y-133373000D01*
G75*
G02*
X68050000Y-133448000I-75000J0D01*
G01*
G37*
%TD.AperFunction*%
%TO.P,U6,62*%
%TO.N,SDA1*%
%TA.AperFunction,SMDPad,CuDef*%
G36*
G01*
X68050000Y-132948000D02*
X66650000Y-132948000D01*
G75*
G02*
X66575000Y-132873000I0J75000D01*
G01*
X66575000Y-132723000D01*
G75*
G02*
X66650000Y-132648000I75000J0D01*
G01*
X68050000Y-132648000D01*
G75*
G02*
X68125000Y-132723000I0J-75000D01*
G01*
X68125000Y-132873000D01*
G75*
G02*
X68050000Y-132948000I-75000J0D01*
G01*
G37*
%TD.AperFunction*%
%TO.P,U6,61*%
%TO.N,SCL1*%
%TA.AperFunction,SMDPad,CuDef*%
G36*
G01*
X68050000Y-132448000D02*
X66650000Y-132448000D01*
G75*
G02*
X66575000Y-132373000I0J75000D01*
G01*
X66575000Y-132223000D01*
G75*
G02*
X66650000Y-132148000I75000J0D01*
G01*
X68050000Y-132148000D01*
G75*
G02*
X68125000Y-132223000I0J-75000D01*
G01*
X68125000Y-132373000D01*
G75*
G02*
X68050000Y-132448000I-75000J0D01*
G01*
G37*
%TD.AperFunction*%
%TO.P,U6,60*%
%TO.N,/STM32L151RET6TR/BOOT*%
%TA.AperFunction,SMDPad,CuDef*%
G36*
G01*
X68050000Y-131948000D02*
X66650000Y-131948000D01*
G75*
G02*
X66575000Y-131873000I0J75000D01*
G01*
X66575000Y-131723000D01*
G75*
G02*
X66650000Y-131648000I75000J0D01*
G01*
X68050000Y-131648000D01*
G75*
G02*
X68125000Y-131723000I0J-75000D01*
G01*
X68125000Y-131873000D01*
G75*
G02*
X68050000Y-131948000I-75000J0D01*
G01*
G37*
%TD.AperFunction*%
%TO.P,U6,59*%
%TO.N,/STM32L151RET6TR/FTDI_RXD*%
%TA.AperFunction,SMDPad,CuDef*%
G36*
G01*
X68050000Y-131448000D02*
X66650000Y-131448000D01*
G75*
G02*
X66575000Y-131373000I0J75000D01*
G01*
X66575000Y-131223000D01*
G75*
G02*
X66650000Y-131148000I75000J0D01*
G01*
X68050000Y-131148000D01*
G75*
G02*
X68125000Y-131223000I0J-75000D01*
G01*
X68125000Y-131373000D01*
G75*
G02*
X68050000Y-131448000I-75000J0D01*
G01*
G37*
%TD.AperFunction*%
%TO.P,U6,58*%
%TO.N,/STM32L151RET6TR/FTDI_TXD*%
%TA.AperFunction,SMDPad,CuDef*%
G36*
G01*
X68050000Y-130948000D02*
X66650000Y-130948000D01*
G75*
G02*
X66575000Y-130873000I0J75000D01*
G01*
X66575000Y-130723000D01*
G75*
G02*
X66650000Y-130648000I75000J0D01*
G01*
X68050000Y-130648000D01*
G75*
G02*
X68125000Y-130723000I0J-75000D01*
G01*
X68125000Y-130873000D01*
G75*
G02*
X68050000Y-130948000I-75000J0D01*
G01*
G37*
%TD.AperFunction*%
%TO.P,U6,57*%
%TO.N,N/C*%
%TA.AperFunction,SMDPad,CuDef*%
G36*
G01*
X68050000Y-130448000D02*
X66650000Y-130448000D01*
G75*
G02*
X66575000Y-130373000I0J75000D01*
G01*
X66575000Y-130223000D01*
G75*
G02*
X66650000Y-130148000I75000J0D01*
G01*
X68050000Y-130148000D01*
G75*
G02*
X68125000Y-130223000I0J-75000D01*
G01*
X68125000Y-130373000D01*
G75*
G02*
X68050000Y-130448000I-75000J0D01*
G01*
G37*
%TD.AperFunction*%
%TO.P,U6,56*%
%TA.AperFunction,SMDPad,CuDef*%
G36*
G01*
X68050000Y-129948000D02*
X66650000Y-129948000D01*
G75*
G02*
X66575000Y-129873000I0J75000D01*
G01*
X66575000Y-129723000D01*
G75*
G02*
X66650000Y-129648000I75000J0D01*
G01*
X68050000Y-129648000D01*
G75*
G02*
X68125000Y-129723000I0J-75000D01*
G01*
X68125000Y-129873000D01*
G75*
G02*
X68050000Y-129948000I-75000J0D01*
G01*
G37*
%TD.AperFunction*%
%TO.P,U6,55*%
%TO.N,/STM32L151RET6TR/SW0*%
%TA.AperFunction,SMDPad,CuDef*%
G36*
G01*
X68050000Y-129448000D02*
X66650000Y-129448000D01*
G75*
G02*
X66575000Y-129373000I0J75000D01*
G01*
X66575000Y-129223000D01*
G75*
G02*
X66650000Y-129148000I75000J0D01*
G01*
X68050000Y-129148000D01*
G75*
G02*
X68125000Y-129223000I0J-75000D01*
G01*
X68125000Y-129373000D01*
G75*
G02*
X68050000Y-129448000I-75000J0D01*
G01*
G37*
%TD.AperFunction*%
%TO.P,U6,54*%
%TO.N,N/C*%
%TA.AperFunction,SMDPad,CuDef*%
G36*
G01*
X68050000Y-128948000D02*
X66650000Y-128948000D01*
G75*
G02*
X66575000Y-128873000I0J75000D01*
G01*
X66575000Y-128723000D01*
G75*
G02*
X66650000Y-128648000I75000J0D01*
G01*
X68050000Y-128648000D01*
G75*
G02*
X68125000Y-128723000I0J-75000D01*
G01*
X68125000Y-128873000D01*
G75*
G02*
X68050000Y-128948000I-75000J0D01*
G01*
G37*
%TD.AperFunction*%
%TO.P,U6,53*%
%TA.AperFunction,SMDPad,CuDef*%
G36*
G01*
X68050000Y-128448000D02*
X66650000Y-128448000D01*
G75*
G02*
X66575000Y-128373000I0J75000D01*
G01*
X66575000Y-128223000D01*
G75*
G02*
X66650000Y-128148000I75000J0D01*
G01*
X68050000Y-128148000D01*
G75*
G02*
X68125000Y-128223000I0J-75000D01*
G01*
X68125000Y-128373000D01*
G75*
G02*
X68050000Y-128448000I-75000J0D01*
G01*
G37*
%TD.AperFunction*%
%TO.P,U6,52*%
%TA.AperFunction,SMDPad,CuDef*%
G36*
G01*
X68050000Y-127948000D02*
X66650000Y-127948000D01*
G75*
G02*
X66575000Y-127873000I0J75000D01*
G01*
X66575000Y-127723000D01*
G75*
G02*
X66650000Y-127648000I75000J0D01*
G01*
X68050000Y-127648000D01*
G75*
G02*
X68125000Y-127723000I0J-75000D01*
G01*
X68125000Y-127873000D01*
G75*
G02*
X68050000Y-127948000I-75000J0D01*
G01*
G37*
%TD.AperFunction*%
%TO.P,U6,51*%
%TA.AperFunction,SMDPad,CuDef*%
G36*
G01*
X68050000Y-127448000D02*
X66650000Y-127448000D01*
G75*
G02*
X66575000Y-127373000I0J75000D01*
G01*
X66575000Y-127223000D01*
G75*
G02*
X66650000Y-127148000I75000J0D01*
G01*
X68050000Y-127148000D01*
G75*
G02*
X68125000Y-127223000I0J-75000D01*
G01*
X68125000Y-127373000D01*
G75*
G02*
X68050000Y-127448000I-75000J0D01*
G01*
G37*
%TD.AperFunction*%
%TO.P,U6,50*%
%TA.AperFunction,SMDPad,CuDef*%
G36*
G01*
X68050000Y-126948000D02*
X66650000Y-126948000D01*
G75*
G02*
X66575000Y-126873000I0J75000D01*
G01*
X66575000Y-126723000D01*
G75*
G02*
X66650000Y-126648000I75000J0D01*
G01*
X68050000Y-126648000D01*
G75*
G02*
X68125000Y-126723000I0J-75000D01*
G01*
X68125000Y-126873000D01*
G75*
G02*
X68050000Y-126948000I-75000J0D01*
G01*
G37*
%TD.AperFunction*%
%TO.P,U6,49*%
%TO.N,/STM32L151RET6TR/SWCLK*%
%TA.AperFunction,SMDPad,CuDef*%
G36*
G01*
X68050000Y-126448000D02*
X66650000Y-126448000D01*
G75*
G02*
X66575000Y-126373000I0J75000D01*
G01*
X66575000Y-126223000D01*
G75*
G02*
X66650000Y-126148000I75000J0D01*
G01*
X68050000Y-126148000D01*
G75*
G02*
X68125000Y-126223000I0J-75000D01*
G01*
X68125000Y-126373000D01*
G75*
G02*
X68050000Y-126448000I-75000J0D01*
G01*
G37*
%TD.AperFunction*%
%TO.P,U6,48*%
%TO.N,+3V3*%
%TA.AperFunction,SMDPad,CuDef*%
G36*
G01*
X69350000Y-125148000D02*
X69200000Y-125148000D01*
G75*
G02*
X69125000Y-125073000I0J75000D01*
G01*
X69125000Y-123673000D01*
G75*
G02*
X69200000Y-123598000I75000J0D01*
G01*
X69350000Y-123598000D01*
G75*
G02*
X69425000Y-123673000I0J-75000D01*
G01*
X69425000Y-125073000D01*
G75*
G02*
X69350000Y-125148000I-75000J0D01*
G01*
G37*
%TD.AperFunction*%
%TO.P,U6,47*%
%TO.N,GND*%
%TA.AperFunction,SMDPad,CuDef*%
G36*
G01*
X69850000Y-125148000D02*
X69700000Y-125148000D01*
G75*
G02*
X69625000Y-125073000I0J75000D01*
G01*
X69625000Y-123673000D01*
G75*
G02*
X69700000Y-123598000I75000J0D01*
G01*
X69850000Y-123598000D01*
G75*
G02*
X69925000Y-123673000I0J-75000D01*
G01*
X69925000Y-125073000D01*
G75*
G02*
X69850000Y-125148000I-75000J0D01*
G01*
G37*
%TD.AperFunction*%
%TO.P,U6,46*%
%TO.N,/STM32L151RET6TR/SWDAT*%
%TA.AperFunction,SMDPad,CuDef*%
G36*
G01*
X70350000Y-125148000D02*
X70200000Y-125148000D01*
G75*
G02*
X70125000Y-125073000I0J75000D01*
G01*
X70125000Y-123673000D01*
G75*
G02*
X70200000Y-123598000I75000J0D01*
G01*
X70350000Y-123598000D01*
G75*
G02*
X70425000Y-123673000I0J-75000D01*
G01*
X70425000Y-125073000D01*
G75*
G02*
X70350000Y-125148000I-75000J0D01*
G01*
G37*
%TD.AperFunction*%
%TO.P,U6,45*%
%TO.N,/STM32L151RET6TR/FTDI_RTS*%
%TA.AperFunction,SMDPad,CuDef*%
G36*
G01*
X70850000Y-125148000D02*
X70700000Y-125148000D01*
G75*
G02*
X70625000Y-125073000I0J75000D01*
G01*
X70625000Y-123673000D01*
G75*
G02*
X70700000Y-123598000I75000J0D01*
G01*
X70850000Y-123598000D01*
G75*
G02*
X70925000Y-123673000I0J-75000D01*
G01*
X70925000Y-125073000D01*
G75*
G02*
X70850000Y-125148000I-75000J0D01*
G01*
G37*
%TD.AperFunction*%
%TO.P,U6,44*%
%TO.N,/STM32L151RET6TR/FTDI_CTS*%
%TA.AperFunction,SMDPad,CuDef*%
G36*
G01*
X71350000Y-125148000D02*
X71200000Y-125148000D01*
G75*
G02*
X71125000Y-125073000I0J75000D01*
G01*
X71125000Y-123673000D01*
G75*
G02*
X71200000Y-123598000I75000J0D01*
G01*
X71350000Y-123598000D01*
G75*
G02*
X71425000Y-123673000I0J-75000D01*
G01*
X71425000Y-125073000D01*
G75*
G02*
X71350000Y-125148000I-75000J0D01*
G01*
G37*
%TD.AperFunction*%
%TO.P,U6,43*%
%TO.N,/STM32L151RET6TR/PA10*%
%TA.AperFunction,SMDPad,CuDef*%
G36*
G01*
X71850000Y-125148000D02*
X71700000Y-125148000D01*
G75*
G02*
X71625000Y-125073000I0J75000D01*
G01*
X71625000Y-123673000D01*
G75*
G02*
X71700000Y-123598000I75000J0D01*
G01*
X71850000Y-123598000D01*
G75*
G02*
X71925000Y-123673000I0J-75000D01*
G01*
X71925000Y-125073000D01*
G75*
G02*
X71850000Y-125148000I-75000J0D01*
G01*
G37*
%TD.AperFunction*%
%TO.P,U6,42*%
%TO.N,/STM32L151RET6TR/PA9*%
%TA.AperFunction,SMDPad,CuDef*%
G36*
G01*
X72350000Y-125148000D02*
X72200000Y-125148000D01*
G75*
G02*
X72125000Y-125073000I0J75000D01*
G01*
X72125000Y-123673000D01*
G75*
G02*
X72200000Y-123598000I75000J0D01*
G01*
X72350000Y-123598000D01*
G75*
G02*
X72425000Y-123673000I0J-75000D01*
G01*
X72425000Y-125073000D01*
G75*
G02*
X72350000Y-125148000I-75000J0D01*
G01*
G37*
%TD.AperFunction*%
%TO.P,U6,41*%
%TO.N,/STM32L151RET6TR/PIN41*%
%TA.AperFunction,SMDPad,CuDef*%
G36*
G01*
X72850000Y-125148000D02*
X72700000Y-125148000D01*
G75*
G02*
X72625000Y-125073000I0J75000D01*
G01*
X72625000Y-123673000D01*
G75*
G02*
X72700000Y-123598000I75000J0D01*
G01*
X72850000Y-123598000D01*
G75*
G02*
X72925000Y-123673000I0J-75000D01*
G01*
X72925000Y-125073000D01*
G75*
G02*
X72850000Y-125148000I-75000J0D01*
G01*
G37*
%TD.AperFunction*%
%TO.P,U6,40*%
%TO.N,SDA2*%
%TA.AperFunction,SMDPad,CuDef*%
G36*
G01*
X73350000Y-125148000D02*
X73200000Y-125148000D01*
G75*
G02*
X73125000Y-125073000I0J75000D01*
G01*
X73125000Y-123673000D01*
G75*
G02*
X73200000Y-123598000I75000J0D01*
G01*
X73350000Y-123598000D01*
G75*
G02*
X73425000Y-123673000I0J-75000D01*
G01*
X73425000Y-125073000D01*
G75*
G02*
X73350000Y-125148000I-75000J0D01*
G01*
G37*
%TD.AperFunction*%
%TO.P,U6,39*%
%TO.N,/STM32L151RET6TR/PC8*%
%TA.AperFunction,SMDPad,CuDef*%
G36*
G01*
X73850000Y-125148000D02*
X73700000Y-125148000D01*
G75*
G02*
X73625000Y-125073000I0J75000D01*
G01*
X73625000Y-123673000D01*
G75*
G02*
X73700000Y-123598000I75000J0D01*
G01*
X73850000Y-123598000D01*
G75*
G02*
X73925000Y-123673000I0J-75000D01*
G01*
X73925000Y-125073000D01*
G75*
G02*
X73850000Y-125148000I-75000J0D01*
G01*
G37*
%TD.AperFunction*%
%TO.P,U6,38*%
%TO.N,N/C*%
%TA.AperFunction,SMDPad,CuDef*%
G36*
G01*
X74350000Y-125148000D02*
X74200000Y-125148000D01*
G75*
G02*
X74125000Y-125073000I0J75000D01*
G01*
X74125000Y-123673000D01*
G75*
G02*
X74200000Y-123598000I75000J0D01*
G01*
X74350000Y-123598000D01*
G75*
G02*
X74425000Y-123673000I0J-75000D01*
G01*
X74425000Y-125073000D01*
G75*
G02*
X74350000Y-125148000I-75000J0D01*
G01*
G37*
%TD.AperFunction*%
%TO.P,U6,37*%
%TA.AperFunction,SMDPad,CuDef*%
G36*
G01*
X74850000Y-125148000D02*
X74700000Y-125148000D01*
G75*
G02*
X74625000Y-125073000I0J75000D01*
G01*
X74625000Y-123673000D01*
G75*
G02*
X74700000Y-123598000I75000J0D01*
G01*
X74850000Y-123598000D01*
G75*
G02*
X74925000Y-123673000I0J-75000D01*
G01*
X74925000Y-125073000D01*
G75*
G02*
X74850000Y-125148000I-75000J0D01*
G01*
G37*
%TD.AperFunction*%
%TO.P,U6,36*%
%TO.N,GPIOI_3*%
%TA.AperFunction,SMDPad,CuDef*%
G36*
G01*
X75350000Y-125148000D02*
X75200000Y-125148000D01*
G75*
G02*
X75125000Y-125073000I0J75000D01*
G01*
X75125000Y-123673000D01*
G75*
G02*
X75200000Y-123598000I75000J0D01*
G01*
X75350000Y-123598000D01*
G75*
G02*
X75425000Y-123673000I0J-75000D01*
G01*
X75425000Y-125073000D01*
G75*
G02*
X75350000Y-125148000I-75000J0D01*
G01*
G37*
%TD.AperFunction*%
%TO.P,U6,35*%
%TO.N,GPIOI_2*%
%TA.AperFunction,SMDPad,CuDef*%
G36*
G01*
X75850000Y-125148000D02*
X75700000Y-125148000D01*
G75*
G02*
X75625000Y-125073000I0J75000D01*
G01*
X75625000Y-123673000D01*
G75*
G02*
X75700000Y-123598000I75000J0D01*
G01*
X75850000Y-123598000D01*
G75*
G02*
X75925000Y-123673000I0J-75000D01*
G01*
X75925000Y-125073000D01*
G75*
G02*
X75850000Y-125148000I-75000J0D01*
G01*
G37*
%TD.AperFunction*%
%TO.P,U6,34*%
%TO.N,GPIOI_1*%
%TA.AperFunction,SMDPad,CuDef*%
G36*
G01*
X76350000Y-125148000D02*
X76200000Y-125148000D01*
G75*
G02*
X76125000Y-125073000I0J75000D01*
G01*
X76125000Y-123673000D01*
G75*
G02*
X76200000Y-123598000I75000J0D01*
G01*
X76350000Y-123598000D01*
G75*
G02*
X76425000Y-123673000I0J-75000D01*
G01*
X76425000Y-125073000D01*
G75*
G02*
X76350000Y-125148000I-75000J0D01*
G01*
G37*
%TD.AperFunction*%
%TO.P,U6,33*%
%TO.N,GPIOI_0*%
%TA.AperFunction,SMDPad,CuDef*%
G36*
G01*
X76850000Y-125148000D02*
X76700000Y-125148000D01*
G75*
G02*
X76625000Y-125073000I0J75000D01*
G01*
X76625000Y-123673000D01*
G75*
G02*
X76700000Y-123598000I75000J0D01*
G01*
X76850000Y-123598000D01*
G75*
G02*
X76925000Y-123673000I0J-75000D01*
G01*
X76925000Y-125073000D01*
G75*
G02*
X76850000Y-125148000I-75000J0D01*
G01*
G37*
%TD.AperFunction*%
%TO.P,U6,32*%
%TO.N,+3V3*%
%TA.AperFunction,SMDPad,CuDef*%
G36*
G01*
X79400000Y-126448000D02*
X78000000Y-126448000D01*
G75*
G02*
X77925000Y-126373000I0J75000D01*
G01*
X77925000Y-126223000D01*
G75*
G02*
X78000000Y-126148000I75000J0D01*
G01*
X79400000Y-126148000D01*
G75*
G02*
X79475000Y-126223000I0J-75000D01*
G01*
X79475000Y-126373000D01*
G75*
G02*
X79400000Y-126448000I-75000J0D01*
G01*
G37*
%TD.AperFunction*%
%TO.P,U6,31*%
%TO.N,GND*%
%TA.AperFunction,SMDPad,CuDef*%
G36*
G01*
X79400000Y-126948000D02*
X78000000Y-126948000D01*
G75*
G02*
X77925000Y-126873000I0J75000D01*
G01*
X77925000Y-126723000D01*
G75*
G02*
X78000000Y-126648000I75000J0D01*
G01*
X79400000Y-126648000D01*
G75*
G02*
X79475000Y-126723000I0J-75000D01*
G01*
X79475000Y-126873000D01*
G75*
G02*
X79400000Y-126948000I-75000J0D01*
G01*
G37*
%TD.AperFunction*%
%TO.P,U6,30*%
%TO.N,/STM32L151RET6TR/PIN30*%
%TA.AperFunction,SMDPad,CuDef*%
G36*
G01*
X79400000Y-127448000D02*
X78000000Y-127448000D01*
G75*
G02*
X77925000Y-127373000I0J75000D01*
G01*
X77925000Y-127223000D01*
G75*
G02*
X78000000Y-127148000I75000J0D01*
G01*
X79400000Y-127148000D01*
G75*
G02*
X79475000Y-127223000I0J-75000D01*
G01*
X79475000Y-127373000D01*
G75*
G02*
X79400000Y-127448000I-75000J0D01*
G01*
G37*
%TD.AperFunction*%
%TO.P,U6,29*%
%TO.N,/STM32L151RET6TR/PIN29*%
%TA.AperFunction,SMDPad,CuDef*%
G36*
G01*
X79400000Y-127948000D02*
X78000000Y-127948000D01*
G75*
G02*
X77925000Y-127873000I0J75000D01*
G01*
X77925000Y-127723000D01*
G75*
G02*
X78000000Y-127648000I75000J0D01*
G01*
X79400000Y-127648000D01*
G75*
G02*
X79475000Y-127723000I0J-75000D01*
G01*
X79475000Y-127873000D01*
G75*
G02*
X79400000Y-127948000I-75000J0D01*
G01*
G37*
%TD.AperFunction*%
%TO.P,U6,28*%
%TO.N,SW_2*%
%TA.AperFunction,SMDPad,CuDef*%
G36*
G01*
X79400000Y-128448000D02*
X78000000Y-128448000D01*
G75*
G02*
X77925000Y-128373000I0J75000D01*
G01*
X77925000Y-128223000D01*
G75*
G02*
X78000000Y-128148000I75000J0D01*
G01*
X79400000Y-128148000D01*
G75*
G02*
X79475000Y-128223000I0J-75000D01*
G01*
X79475000Y-128373000D01*
G75*
G02*
X79400000Y-128448000I-75000J0D01*
G01*
G37*
%TD.AperFunction*%
%TO.P,U6,27*%
%TO.N,SW_1*%
%TA.AperFunction,SMDPad,CuDef*%
G36*
G01*
X79400000Y-128948000D02*
X78000000Y-128948000D01*
G75*
G02*
X77925000Y-128873000I0J75000D01*
G01*
X77925000Y-128723000D01*
G75*
G02*
X78000000Y-128648000I75000J0D01*
G01*
X79400000Y-128648000D01*
G75*
G02*
X79475000Y-128723000I0J-75000D01*
G01*
X79475000Y-128873000D01*
G75*
G02*
X79400000Y-128948000I-75000J0D01*
G01*
G37*
%TD.AperFunction*%
%TO.P,U6,26*%
%TO.N,LED_5*%
%TA.AperFunction,SMDPad,CuDef*%
G36*
G01*
X79400000Y-129448000D02*
X78000000Y-129448000D01*
G75*
G02*
X77925000Y-129373000I0J75000D01*
G01*
X77925000Y-129223000D01*
G75*
G02*
X78000000Y-129148000I75000J0D01*
G01*
X79400000Y-129148000D01*
G75*
G02*
X79475000Y-129223000I0J-75000D01*
G01*
X79475000Y-129373000D01*
G75*
G02*
X79400000Y-129448000I-75000J0D01*
G01*
G37*
%TD.AperFunction*%
%TO.P,U6,25*%
%TO.N,N/C*%
%TA.AperFunction,SMDPad,CuDef*%
G36*
G01*
X79400000Y-129948000D02*
X78000000Y-129948000D01*
G75*
G02*
X77925000Y-129873000I0J75000D01*
G01*
X77925000Y-129723000D01*
G75*
G02*
X78000000Y-129648000I75000J0D01*
G01*
X79400000Y-129648000D01*
G75*
G02*
X79475000Y-129723000I0J-75000D01*
G01*
X79475000Y-129873000D01*
G75*
G02*
X79400000Y-129948000I-75000J0D01*
G01*
G37*
%TD.AperFunction*%
%TO.P,U6,24*%
%TA.AperFunction,SMDPad,CuDef*%
G36*
G01*
X79400000Y-130448000D02*
X78000000Y-130448000D01*
G75*
G02*
X77925000Y-130373000I0J75000D01*
G01*
X77925000Y-130223000D01*
G75*
G02*
X78000000Y-130148000I75000J0D01*
G01*
X79400000Y-130148000D01*
G75*
G02*
X79475000Y-130223000I0J-75000D01*
G01*
X79475000Y-130373000D01*
G75*
G02*
X79400000Y-130448000I-75000J0D01*
G01*
G37*
%TD.AperFunction*%
%TO.P,U6,23*%
%TO.N,LED_4*%
%TA.AperFunction,SMDPad,CuDef*%
G36*
G01*
X79400000Y-130948000D02*
X78000000Y-130948000D01*
G75*
G02*
X77925000Y-130873000I0J75000D01*
G01*
X77925000Y-130723000D01*
G75*
G02*
X78000000Y-130648000I75000J0D01*
G01*
X79400000Y-130648000D01*
G75*
G02*
X79475000Y-130723000I0J-75000D01*
G01*
X79475000Y-130873000D01*
G75*
G02*
X79400000Y-130948000I-75000J0D01*
G01*
G37*
%TD.AperFunction*%
%TO.P,U6,22*%
%TO.N,LED_3*%
%TA.AperFunction,SMDPad,CuDef*%
G36*
G01*
X79400000Y-131448000D02*
X78000000Y-131448000D01*
G75*
G02*
X77925000Y-131373000I0J75000D01*
G01*
X77925000Y-131223000D01*
G75*
G02*
X78000000Y-131148000I75000J0D01*
G01*
X79400000Y-131148000D01*
G75*
G02*
X79475000Y-131223000I0J-75000D01*
G01*
X79475000Y-131373000D01*
G75*
G02*
X79400000Y-131448000I-75000J0D01*
G01*
G37*
%TD.AperFunction*%
%TO.P,U6,21*%
%TO.N,N/C*%
%TA.AperFunction,SMDPad,CuDef*%
G36*
G01*
X79400000Y-131948000D02*
X78000000Y-131948000D01*
G75*
G02*
X77925000Y-131873000I0J75000D01*
G01*
X77925000Y-131723000D01*
G75*
G02*
X78000000Y-131648000I75000J0D01*
G01*
X79400000Y-131648000D01*
G75*
G02*
X79475000Y-131723000I0J-75000D01*
G01*
X79475000Y-131873000D01*
G75*
G02*
X79400000Y-131948000I-75000J0D01*
G01*
G37*
%TD.AperFunction*%
%TO.P,U6,20*%
%TA.AperFunction,SMDPad,CuDef*%
G36*
G01*
X79400000Y-132448000D02*
X78000000Y-132448000D01*
G75*
G02*
X77925000Y-132373000I0J75000D01*
G01*
X77925000Y-132223000D01*
G75*
G02*
X78000000Y-132148000I75000J0D01*
G01*
X79400000Y-132148000D01*
G75*
G02*
X79475000Y-132223000I0J-75000D01*
G01*
X79475000Y-132373000D01*
G75*
G02*
X79400000Y-132448000I-75000J0D01*
G01*
G37*
%TD.AperFunction*%
%TO.P,U6,19*%
%TO.N,+3V3*%
%TA.AperFunction,SMDPad,CuDef*%
G36*
G01*
X79400000Y-132948000D02*
X78000000Y-132948000D01*
G75*
G02*
X77925000Y-132873000I0J75000D01*
G01*
X77925000Y-132723000D01*
G75*
G02*
X78000000Y-132648000I75000J0D01*
G01*
X79400000Y-132648000D01*
G75*
G02*
X79475000Y-132723000I0J-75000D01*
G01*
X79475000Y-132873000D01*
G75*
G02*
X79400000Y-132948000I-75000J0D01*
G01*
G37*
%TD.AperFunction*%
%TO.P,U6,18*%
%TO.N,GND*%
%TA.AperFunction,SMDPad,CuDef*%
G36*
G01*
X79400000Y-133448000D02*
X78000000Y-133448000D01*
G75*
G02*
X77925000Y-133373000I0J75000D01*
G01*
X77925000Y-133223000D01*
G75*
G02*
X78000000Y-133148000I75000J0D01*
G01*
X79400000Y-133148000D01*
G75*
G02*
X79475000Y-133223000I0J-75000D01*
G01*
X79475000Y-133373000D01*
G75*
G02*
X79400000Y-133448000I-75000J0D01*
G01*
G37*
%TD.AperFunction*%
%TO.P,U6,17*%
%TO.N,/STM32L151RET6TR/UART_RX*%
%TA.AperFunction,SMDPad,CuDef*%
G36*
G01*
X79400000Y-133948000D02*
X78000000Y-133948000D01*
G75*
G02*
X77925000Y-133873000I0J75000D01*
G01*
X77925000Y-133723000D01*
G75*
G02*
X78000000Y-133648000I75000J0D01*
G01*
X79400000Y-133648000D01*
G75*
G02*
X79475000Y-133723000I0J-75000D01*
G01*
X79475000Y-133873000D01*
G75*
G02*
X79400000Y-133948000I-75000J0D01*
G01*
G37*
%TD.AperFunction*%
%TO.P,U6,16*%
%TO.N,/STM32L151RET6TR/UART_TX*%
%TA.AperFunction,SMDPad,CuDef*%
G36*
G01*
X76850000Y-136498000D02*
X76700000Y-136498000D01*
G75*
G02*
X76625000Y-136423000I0J75000D01*
G01*
X76625000Y-135023000D01*
G75*
G02*
X76700000Y-134948000I75000J0D01*
G01*
X76850000Y-134948000D01*
G75*
G02*
X76925000Y-135023000I0J-75000D01*
G01*
X76925000Y-136423000D01*
G75*
G02*
X76850000Y-136498000I-75000J0D01*
G01*
G37*
%TD.AperFunction*%
%TO.P,U6,15*%
%TO.N,LED_2*%
%TA.AperFunction,SMDPad,CuDef*%
G36*
G01*
X76350000Y-136498000D02*
X76200000Y-136498000D01*
G75*
G02*
X76125000Y-136423000I0J75000D01*
G01*
X76125000Y-135023000D01*
G75*
G02*
X76200000Y-134948000I75000J0D01*
G01*
X76350000Y-134948000D01*
G75*
G02*
X76425000Y-135023000I0J-75000D01*
G01*
X76425000Y-136423000D01*
G75*
G02*
X76350000Y-136498000I-75000J0D01*
G01*
G37*
%TD.AperFunction*%
%TO.P,U6,14*%
%TO.N,LED_1*%
%TA.AperFunction,SMDPad,CuDef*%
G36*
G01*
X75850000Y-136498000D02*
X75700000Y-136498000D01*
G75*
G02*
X75625000Y-136423000I0J75000D01*
G01*
X75625000Y-135023000D01*
G75*
G02*
X75700000Y-134948000I75000J0D01*
G01*
X75850000Y-134948000D01*
G75*
G02*
X75925000Y-135023000I0J-75000D01*
G01*
X75925000Y-136423000D01*
G75*
G02*
X75850000Y-136498000I-75000J0D01*
G01*
G37*
%TD.AperFunction*%
%TO.P,U6,13*%
%TO.N,+3V3*%
%TA.AperFunction,SMDPad,CuDef*%
G36*
G01*
X75350000Y-136498000D02*
X75200000Y-136498000D01*
G75*
G02*
X75125000Y-136423000I0J75000D01*
G01*
X75125000Y-135023000D01*
G75*
G02*
X75200000Y-134948000I75000J0D01*
G01*
X75350000Y-134948000D01*
G75*
G02*
X75425000Y-135023000I0J-75000D01*
G01*
X75425000Y-136423000D01*
G75*
G02*
X75350000Y-136498000I-75000J0D01*
G01*
G37*
%TD.AperFunction*%
%TO.P,U6,12*%
%TO.N,GND*%
%TA.AperFunction,SMDPad,CuDef*%
G36*
G01*
X74850000Y-136498000D02*
X74700000Y-136498000D01*
G75*
G02*
X74625000Y-136423000I0J75000D01*
G01*
X74625000Y-135023000D01*
G75*
G02*
X74700000Y-134948000I75000J0D01*
G01*
X74850000Y-134948000D01*
G75*
G02*
X74925000Y-135023000I0J-75000D01*
G01*
X74925000Y-136423000D01*
G75*
G02*
X74850000Y-136498000I-75000J0D01*
G01*
G37*
%TD.AperFunction*%
%TO.P,U6,11*%
%TO.N,XSHUT_3*%
%TA.AperFunction,SMDPad,CuDef*%
G36*
G01*
X74350000Y-136498000D02*
X74200000Y-136498000D01*
G75*
G02*
X74125000Y-136423000I0J75000D01*
G01*
X74125000Y-135023000D01*
G75*
G02*
X74200000Y-134948000I75000J0D01*
G01*
X74350000Y-134948000D01*
G75*
G02*
X74425000Y-135023000I0J-75000D01*
G01*
X74425000Y-136423000D01*
G75*
G02*
X74350000Y-136498000I-75000J0D01*
G01*
G37*
%TD.AperFunction*%
%TO.P,U6,10*%
%TO.N,XSHUT_2*%
%TA.AperFunction,SMDPad,CuDef*%
G36*
G01*
X73850000Y-136498000D02*
X73700000Y-136498000D01*
G75*
G02*
X73625000Y-136423000I0J75000D01*
G01*
X73625000Y-135023000D01*
G75*
G02*
X73700000Y-134948000I75000J0D01*
G01*
X73850000Y-134948000D01*
G75*
G02*
X73925000Y-135023000I0J-75000D01*
G01*
X73925000Y-136423000D01*
G75*
G02*
X73850000Y-136498000I-75000J0D01*
G01*
G37*
%TD.AperFunction*%
%TO.P,U6,9*%
%TO.N,XSHUT_1*%
%TA.AperFunction,SMDPad,CuDef*%
G36*
G01*
X73350000Y-136498000D02*
X73200000Y-136498000D01*
G75*
G02*
X73125000Y-136423000I0J75000D01*
G01*
X73125000Y-135023000D01*
G75*
G02*
X73200000Y-134948000I75000J0D01*
G01*
X73350000Y-134948000D01*
G75*
G02*
X73425000Y-135023000I0J-75000D01*
G01*
X73425000Y-136423000D01*
G75*
G02*
X73350000Y-136498000I-75000J0D01*
G01*
G37*
%TD.AperFunction*%
%TO.P,U6,8*%
%TO.N,XSHUT_0*%
%TA.AperFunction,SMDPad,CuDef*%
G36*
G01*
X72850000Y-136498000D02*
X72700000Y-136498000D01*
G75*
G02*
X72625000Y-136423000I0J75000D01*
G01*
X72625000Y-135023000D01*
G75*
G02*
X72700000Y-134948000I75000J0D01*
G01*
X72850000Y-134948000D01*
G75*
G02*
X72925000Y-135023000I0J-75000D01*
G01*
X72925000Y-136423000D01*
G75*
G02*
X72850000Y-136498000I-75000J0D01*
G01*
G37*
%TD.AperFunction*%
%TO.P,U6,7*%
%TO.N,/STM32L151RET6TR/RST*%
%TA.AperFunction,SMDPad,CuDef*%
G36*
G01*
X72350000Y-136498000D02*
X72200000Y-136498000D01*
G75*
G02*
X72125000Y-136423000I0J75000D01*
G01*
X72125000Y-135023000D01*
G75*
G02*
X72200000Y-134948000I75000J0D01*
G01*
X72350000Y-134948000D01*
G75*
G02*
X72425000Y-135023000I0J-75000D01*
G01*
X72425000Y-136423000D01*
G75*
G02*
X72350000Y-136498000I-75000J0D01*
G01*
G37*
%TD.AperFunction*%
%TO.P,U6,6*%
%TO.N,/STM32L151RET6TR/OSM_OUT*%
%TA.AperFunction,SMDPad,CuDef*%
G36*
G01*
X71850000Y-136498000D02*
X71700000Y-136498000D01*
G75*
G02*
X71625000Y-136423000I0J75000D01*
G01*
X71625000Y-135023000D01*
G75*
G02*
X71700000Y-134948000I75000J0D01*
G01*
X71850000Y-134948000D01*
G75*
G02*
X71925000Y-135023000I0J-75000D01*
G01*
X71925000Y-136423000D01*
G75*
G02*
X71850000Y-136498000I-75000J0D01*
G01*
G37*
%TD.AperFunction*%
%TO.P,U6,5*%
%TO.N,/STM32L151RET6TR/MCO*%
%TA.AperFunction,SMDPad,CuDef*%
G36*
G01*
X71350000Y-136498000D02*
X71200000Y-136498000D01*
G75*
G02*
X71125000Y-136423000I0J75000D01*
G01*
X71125000Y-135023000D01*
G75*
G02*
X71200000Y-134948000I75000J0D01*
G01*
X71350000Y-134948000D01*
G75*
G02*
X71425000Y-135023000I0J-75000D01*
G01*
X71425000Y-136423000D01*
G75*
G02*
X71350000Y-136498000I-75000J0D01*
G01*
G37*
%TD.AperFunction*%
%TO.P,U6,4*%
%TO.N,/STM32L151RET6TR/OS32_OUT*%
%TA.AperFunction,SMDPad,CuDef*%
G36*
G01*
X70850000Y-136498000D02*
X70700000Y-136498000D01*
G75*
G02*
X70625000Y-136423000I0J75000D01*
G01*
X70625000Y-135023000D01*
G75*
G02*
X70700000Y-134948000I75000J0D01*
G01*
X70850000Y-134948000D01*
G75*
G02*
X70925000Y-135023000I0J-75000D01*
G01*
X70925000Y-136423000D01*
G75*
G02*
X70850000Y-136498000I-75000J0D01*
G01*
G37*
%TD.AperFunction*%
%TO.P,U6,3*%
%TO.N,/STM32L151RET6TR/OS32_IN*%
%TA.AperFunction,SMDPad,CuDef*%
G36*
G01*
X70350000Y-136498000D02*
X70200000Y-136498000D01*
G75*
G02*
X70125000Y-136423000I0J75000D01*
G01*
X70125000Y-135023000D01*
G75*
G02*
X70200000Y-134948000I75000J0D01*
G01*
X70350000Y-134948000D01*
G75*
G02*
X70425000Y-135023000I0J-75000D01*
G01*
X70425000Y-136423000D01*
G75*
G02*
X70350000Y-136498000I-75000J0D01*
G01*
G37*
%TD.AperFunction*%
%TO.P,U6,2*%
%TO.N,BUCK_5_EN*%
%TA.AperFunction,SMDPad,CuDef*%
G36*
G01*
X69850000Y-136498000D02*
X69700000Y-136498000D01*
G75*
G02*
X69625000Y-136423000I0J75000D01*
G01*
X69625000Y-135023000D01*
G75*
G02*
X69700000Y-134948000I75000J0D01*
G01*
X69850000Y-134948000D01*
G75*
G02*
X69925000Y-135023000I0J-75000D01*
G01*
X69925000Y-136423000D01*
G75*
G02*
X69850000Y-136498000I-75000J0D01*
G01*
G37*
%TD.AperFunction*%
%TO.P,U6,1*%
%TO.N,+3V3*%
%TA.AperFunction,SMDPad,CuDef*%
G36*
G01*
X69350000Y-136498000D02*
X69200000Y-136498000D01*
G75*
G02*
X69125000Y-136423000I0J75000D01*
G01*
X69125000Y-135023000D01*
G75*
G02*
X69200000Y-134948000I75000J0D01*
G01*
X69350000Y-134948000D01*
G75*
G02*
X69425000Y-135023000I0J-75000D01*
G01*
X69425000Y-136423000D01*
G75*
G02*
X69350000Y-136498000I-75000J0D01*
G01*
G37*
%TD.AperFunction*%
%TD*%
D20*
%TO.P,SW2,2*%
%TO.N,+3V3*%
X79665000Y-118275000D03*
%TO.P,SW2,1*%
%TO.N,SW_2*%
X84165000Y-118275000D03*
X84165000Y-110325000D03*
%TO.P,SW2,2*%
%TO.N,+3V3*%
X79665000Y-110325000D03*
%TD*%
%TO.P,SW1,2*%
%TO.N,+3V3*%
X86523000Y-118275000D03*
%TO.P,SW1,1*%
%TO.N,SW_1*%
X91023000Y-118275000D03*
X91023000Y-110325000D03*
%TO.P,SW1,2*%
%TO.N,+3V3*%
X86523000Y-110325000D03*
%TD*%
%TO.P,R11,2*%
%TO.N,SCL1*%
%TA.AperFunction,SMDPad,CuDef*%
G36*
G01*
X53155001Y-139030000D02*
X52254999Y-139030000D01*
G75*
G02*
X52005000Y-138780001I0J249999D01*
G01*
X52005000Y-138079999D01*
G75*
G02*
X52254999Y-137830000I249999J0D01*
G01*
X53155001Y-137830000D01*
G75*
G02*
X53405000Y-138079999I0J-249999D01*
G01*
X53405000Y-138780001D01*
G75*
G02*
X53155001Y-139030000I-249999J0D01*
G01*
G37*
%TD.AperFunction*%
%TO.P,R11,1*%
%TO.N,+3V3*%
%TA.AperFunction,SMDPad,CuDef*%
G36*
G01*
X53155001Y-141030000D02*
X52254999Y-141030000D01*
G75*
G02*
X52005000Y-140780001I0J249999D01*
G01*
X52005000Y-140079999D01*
G75*
G02*
X52254999Y-139830000I249999J0D01*
G01*
X53155001Y-139830000D01*
G75*
G02*
X53405000Y-140079999I0J-249999D01*
G01*
X53405000Y-140780001D01*
G75*
G02*
X53155001Y-141030000I-249999J0D01*
G01*
G37*
%TD.AperFunction*%
%TD*%
%TO.P,R10,2*%
%TO.N,SDA1*%
%TA.AperFunction,SMDPad,CuDef*%
G36*
G01*
X55441001Y-139030000D02*
X54540999Y-139030000D01*
G75*
G02*
X54291000Y-138780001I0J249999D01*
G01*
X54291000Y-138079999D01*
G75*
G02*
X54540999Y-137830000I249999J0D01*
G01*
X55441001Y-137830000D01*
G75*
G02*
X55691000Y-138079999I0J-249999D01*
G01*
X55691000Y-138780001D01*
G75*
G02*
X55441001Y-139030000I-249999J0D01*
G01*
G37*
%TD.AperFunction*%
%TO.P,R10,1*%
%TO.N,+3V3*%
%TA.AperFunction,SMDPad,CuDef*%
G36*
G01*
X55441001Y-141030000D02*
X54540999Y-141030000D01*
G75*
G02*
X54291000Y-140780001I0J249999D01*
G01*
X54291000Y-140079999D01*
G75*
G02*
X54540999Y-139830000I249999J0D01*
G01*
X55441001Y-139830000D01*
G75*
G02*
X55691000Y-140079999I0J-249999D01*
G01*
X55691000Y-140780001D01*
G75*
G02*
X55441001Y-141030000I-249999J0D01*
G01*
G37*
%TD.AperFunction*%
%TD*%
%TO.P,R7,2*%
%TO.N,GND*%
%TA.AperFunction,SMDPad,CuDef*%
G36*
G01*
X82769000Y-119945999D02*
X82769000Y-120846001D01*
G75*
G02*
X82519001Y-121096000I-249999J0D01*
G01*
X81818999Y-121096000D01*
G75*
G02*
X81569000Y-120846001I0J249999D01*
G01*
X81569000Y-119945999D01*
G75*
G02*
X81818999Y-119696000I249999J0D01*
G01*
X82519001Y-119696000D01*
G75*
G02*
X82769000Y-119945999I0J-249999D01*
G01*
G37*
%TD.AperFunction*%
%TO.P,R7,1*%
%TO.N,SW_2*%
%TA.AperFunction,SMDPad,CuDef*%
G36*
G01*
X84769000Y-119945999D02*
X84769000Y-120846001D01*
G75*
G02*
X84519001Y-121096000I-249999J0D01*
G01*
X83818999Y-121096000D01*
G75*
G02*
X83569000Y-120846001I0J249999D01*
G01*
X83569000Y-119945999D01*
G75*
G02*
X83818999Y-119696000I249999J0D01*
G01*
X84519001Y-119696000D01*
G75*
G02*
X84769000Y-119945999I0J-249999D01*
G01*
G37*
%TD.AperFunction*%
%TD*%
%TO.P,R6,2*%
%TO.N,SW_1*%
%TA.AperFunction,SMDPad,CuDef*%
G36*
G01*
X90459000Y-120846001D02*
X90459000Y-119945999D01*
G75*
G02*
X90708999Y-119696000I249999J0D01*
G01*
X91409001Y-119696000D01*
G75*
G02*
X91659000Y-119945999I0J-249999D01*
G01*
X91659000Y-120846001D01*
G75*
G02*
X91409001Y-121096000I-249999J0D01*
G01*
X90708999Y-121096000D01*
G75*
G02*
X90459000Y-120846001I0J249999D01*
G01*
G37*
%TD.AperFunction*%
%TO.P,R6,1*%
%TO.N,GND*%
%TA.AperFunction,SMDPad,CuDef*%
G36*
G01*
X88459000Y-120846001D02*
X88459000Y-119945999D01*
G75*
G02*
X88708999Y-119696000I249999J0D01*
G01*
X89409001Y-119696000D01*
G75*
G02*
X89659000Y-119945999I0J-249999D01*
G01*
X89659000Y-120846001D01*
G75*
G02*
X89409001Y-121096000I-249999J0D01*
G01*
X88708999Y-121096000D01*
G75*
G02*
X88459000Y-120846001I0J249999D01*
G01*
G37*
%TD.AperFunction*%
%TD*%
%TO.P,R5,2*%
%TO.N,LED_5*%
%TA.AperFunction,SMDPad,CuDef*%
G36*
G01*
X94469000Y-119945999D02*
X94469000Y-120846001D01*
G75*
G02*
X94219001Y-121096000I-249999J0D01*
G01*
X93518999Y-121096000D01*
G75*
G02*
X93269000Y-120846001I0J249999D01*
G01*
X93269000Y-119945999D01*
G75*
G02*
X93518999Y-119696000I249999J0D01*
G01*
X94219001Y-119696000D01*
G75*
G02*
X94469000Y-119945999I0J-249999D01*
G01*
G37*
%TD.AperFunction*%
%TO.P,R5,1*%
%TO.N,Net-(D5-Pad2)*%
%TA.AperFunction,SMDPad,CuDef*%
G36*
G01*
X96469000Y-119945999D02*
X96469000Y-120846001D01*
G75*
G02*
X96219001Y-121096000I-249999J0D01*
G01*
X95518999Y-121096000D01*
G75*
G02*
X95269000Y-120846001I0J249999D01*
G01*
X95269000Y-119945999D01*
G75*
G02*
X95518999Y-119696000I249999J0D01*
G01*
X96219001Y-119696000D01*
G75*
G02*
X96469000Y-119945999I0J-249999D01*
G01*
G37*
%TD.AperFunction*%
%TD*%
%TO.P,R4,2*%
%TO.N,LED_4*%
%TA.AperFunction,SMDPad,CuDef*%
G36*
G01*
X94453000Y-122231999D02*
X94453000Y-123132001D01*
G75*
G02*
X94203001Y-123382000I-249999J0D01*
G01*
X93502999Y-123382000D01*
G75*
G02*
X93253000Y-123132001I0J249999D01*
G01*
X93253000Y-122231999D01*
G75*
G02*
X93502999Y-121982000I249999J0D01*
G01*
X94203001Y-121982000D01*
G75*
G02*
X94453000Y-122231999I0J-249999D01*
G01*
G37*
%TD.AperFunction*%
%TO.P,R4,1*%
%TO.N,Net-(D4-Pad2)*%
%TA.AperFunction,SMDPad,CuDef*%
G36*
G01*
X96453000Y-122231999D02*
X96453000Y-123132001D01*
G75*
G02*
X96203001Y-123382000I-249999J0D01*
G01*
X95502999Y-123382000D01*
G75*
G02*
X95253000Y-123132001I0J249999D01*
G01*
X95253000Y-122231999D01*
G75*
G02*
X95502999Y-121982000I249999J0D01*
G01*
X96203001Y-121982000D01*
G75*
G02*
X96453000Y-122231999I0J-249999D01*
G01*
G37*
%TD.AperFunction*%
%TD*%
%TO.P,R3,2*%
%TO.N,LED_3*%
%TA.AperFunction,SMDPad,CuDef*%
G36*
G01*
X94453000Y-124517999D02*
X94453000Y-125418001D01*
G75*
G02*
X94203001Y-125668000I-249999J0D01*
G01*
X93502999Y-125668000D01*
G75*
G02*
X93253000Y-125418001I0J249999D01*
G01*
X93253000Y-124517999D01*
G75*
G02*
X93502999Y-124268000I249999J0D01*
G01*
X94203001Y-124268000D01*
G75*
G02*
X94453000Y-124517999I0J-249999D01*
G01*
G37*
%TD.AperFunction*%
%TO.P,R3,1*%
%TO.N,Net-(D3-Pad2)*%
%TA.AperFunction,SMDPad,CuDef*%
G36*
G01*
X96453000Y-124517999D02*
X96453000Y-125418001D01*
G75*
G02*
X96203001Y-125668000I-249999J0D01*
G01*
X95502999Y-125668000D01*
G75*
G02*
X95253000Y-125418001I0J249999D01*
G01*
X95253000Y-124517999D01*
G75*
G02*
X95502999Y-124268000I249999J0D01*
G01*
X96203001Y-124268000D01*
G75*
G02*
X96453000Y-124517999I0J-249999D01*
G01*
G37*
%TD.AperFunction*%
%TD*%
%TO.P,R2,2*%
%TO.N,LED_2*%
%TA.AperFunction,SMDPad,CuDef*%
G36*
G01*
X94453000Y-126803999D02*
X94453000Y-127704001D01*
G75*
G02*
X94203001Y-127954000I-249999J0D01*
G01*
X93502999Y-127954000D01*
G75*
G02*
X93253000Y-127704001I0J249999D01*
G01*
X93253000Y-126803999D01*
G75*
G02*
X93502999Y-126554000I249999J0D01*
G01*
X94203001Y-126554000D01*
G75*
G02*
X94453000Y-126803999I0J-249999D01*
G01*
G37*
%TD.AperFunction*%
%TO.P,R2,1*%
%TO.N,Net-(D2-Pad2)*%
%TA.AperFunction,SMDPad,CuDef*%
G36*
G01*
X96453000Y-126803999D02*
X96453000Y-127704001D01*
G75*
G02*
X96203001Y-127954000I-249999J0D01*
G01*
X95502999Y-127954000D01*
G75*
G02*
X95253000Y-127704001I0J249999D01*
G01*
X95253000Y-126803999D01*
G75*
G02*
X95502999Y-126554000I249999J0D01*
G01*
X96203001Y-126554000D01*
G75*
G02*
X96453000Y-126803999I0J-249999D01*
G01*
G37*
%TD.AperFunction*%
%TD*%
%TO.P,R1,2*%
%TO.N,LED_1*%
%TA.AperFunction,SMDPad,CuDef*%
G36*
G01*
X94485000Y-129089999D02*
X94485000Y-129990001D01*
G75*
G02*
X94235001Y-130240000I-249999J0D01*
G01*
X93534999Y-130240000D01*
G75*
G02*
X93285000Y-129990001I0J249999D01*
G01*
X93285000Y-129089999D01*
G75*
G02*
X93534999Y-128840000I249999J0D01*
G01*
X94235001Y-128840000D01*
G75*
G02*
X94485000Y-129089999I0J-249999D01*
G01*
G37*
%TD.AperFunction*%
%TO.P,R1,1*%
%TO.N,Net-(D1-Pad2)*%
%TA.AperFunction,SMDPad,CuDef*%
G36*
G01*
X96485000Y-129089999D02*
X96485000Y-129990001D01*
G75*
G02*
X96235001Y-130240000I-249999J0D01*
G01*
X95534999Y-130240000D01*
G75*
G02*
X95285000Y-129990001I0J249999D01*
G01*
X95285000Y-129089999D01*
G75*
G02*
X95534999Y-128840000I249999J0D01*
G01*
X96235001Y-128840000D01*
G75*
G02*
X96485000Y-129089999I0J-249999D01*
G01*
G37*
%TD.AperFunction*%
%TD*%
D12*
%TO.P,J9,4*%
%TO.N,/STM32L151RET6TR/UART_RX*%
X85979000Y-130302000D03*
%TO.P,J9,3*%
%TO.N,/STM32L151RET6TR/UART_TX*%
X85979000Y-132842000D03*
%TO.P,J9,2*%
%TO.N,+3V3*%
X85979000Y-135382000D03*
D13*
%TO.P,J9,1*%
%TO.N,GND*%
X85979000Y-137922000D03*
%TD*%
D21*
%TO.P,J2,2*%
%TO.N,Net-(D6-Pad2)*%
X54229000Y-153868000D03*
%TO.P,J2,1*%
%TO.N,GND*%
%TA.AperFunction,ComponentPad*%
G36*
G01*
X52679000Y-149468000D02*
X55779000Y-149468000D01*
G75*
G02*
X56029000Y-149718000I0J-250000D01*
G01*
X56029000Y-151018000D01*
G75*
G02*
X55779000Y-151268000I-250000J0D01*
G01*
X52679000Y-151268000D01*
G75*
G02*
X52429000Y-151018000I0J250000D01*
G01*
X52429000Y-149718000D01*
G75*
G02*
X52679000Y-149468000I250000J0D01*
G01*
G37*
%TD.AperFunction*%
%TD*%
D12*
%TO.P,J1,4*%
%TO.N,SCL1*%
X54737000Y-127762000D03*
%TO.P,J1,3*%
%TO.N,SDA1*%
X57277000Y-127762000D03*
%TO.P,J1,2*%
%TO.N,+5V*%
X59817000Y-127762000D03*
D13*
%TO.P,J1,1*%
%TO.N,GND*%
X62357000Y-127762000D03*
%TD*%
%TO.P,D5,2*%
%TO.N,Net-(D5-Pad2)*%
%TA.AperFunction,SMDPad,CuDef*%
G36*
G01*
X98483000Y-119945999D02*
X98483000Y-120846001D01*
G75*
G02*
X98233001Y-121096000I-249999J0D01*
G01*
X97582999Y-121096000D01*
G75*
G02*
X97333000Y-120846001I0J249999D01*
G01*
X97333000Y-119945999D01*
G75*
G02*
X97582999Y-119696000I249999J0D01*
G01*
X98233001Y-119696000D01*
G75*
G02*
X98483000Y-119945999I0J-249999D01*
G01*
G37*
%TD.AperFunction*%
%TO.P,D5,1*%
%TO.N,GND*%
%TA.AperFunction,SMDPad,CuDef*%
G36*
G01*
X100533000Y-119945999D02*
X100533000Y-120846001D01*
G75*
G02*
X100283001Y-121096000I-249999J0D01*
G01*
X99632999Y-121096000D01*
G75*
G02*
X99383000Y-120846001I0J249999D01*
G01*
X99383000Y-119945999D01*
G75*
G02*
X99632999Y-119696000I249999J0D01*
G01*
X100283001Y-119696000D01*
G75*
G02*
X100533000Y-119945999I0J-249999D01*
G01*
G37*
%TD.AperFunction*%
%TD*%
%TO.P,D4,2*%
%TO.N,Net-(D4-Pad2)*%
%TA.AperFunction,SMDPad,CuDef*%
G36*
G01*
X98492000Y-122231999D02*
X98492000Y-123132001D01*
G75*
G02*
X98242001Y-123382000I-249999J0D01*
G01*
X97591999Y-123382000D01*
G75*
G02*
X97342000Y-123132001I0J249999D01*
G01*
X97342000Y-122231999D01*
G75*
G02*
X97591999Y-121982000I249999J0D01*
G01*
X98242001Y-121982000D01*
G75*
G02*
X98492000Y-122231999I0J-249999D01*
G01*
G37*
%TD.AperFunction*%
%TO.P,D4,1*%
%TO.N,GND*%
%TA.AperFunction,SMDPad,CuDef*%
G36*
G01*
X100542000Y-122231999D02*
X100542000Y-123132001D01*
G75*
G02*
X100292001Y-123382000I-249999J0D01*
G01*
X99641999Y-123382000D01*
G75*
G02*
X99392000Y-123132001I0J249999D01*
G01*
X99392000Y-122231999D01*
G75*
G02*
X99641999Y-121982000I249999J0D01*
G01*
X100292001Y-121982000D01*
G75*
G02*
X100542000Y-122231999I0J-249999D01*
G01*
G37*
%TD.AperFunction*%
%TD*%
%TO.P,D3,2*%
%TO.N,Net-(D3-Pad2)*%
%TA.AperFunction,SMDPad,CuDef*%
G36*
G01*
X98492000Y-124517999D02*
X98492000Y-125418001D01*
G75*
G02*
X98242001Y-125668000I-249999J0D01*
G01*
X97591999Y-125668000D01*
G75*
G02*
X97342000Y-125418001I0J249999D01*
G01*
X97342000Y-124517999D01*
G75*
G02*
X97591999Y-124268000I249999J0D01*
G01*
X98242001Y-124268000D01*
G75*
G02*
X98492000Y-124517999I0J-249999D01*
G01*
G37*
%TD.AperFunction*%
%TO.P,D3,1*%
%TO.N,GND*%
%TA.AperFunction,SMDPad,CuDef*%
G36*
G01*
X100542000Y-124517999D02*
X100542000Y-125418001D01*
G75*
G02*
X100292001Y-125668000I-249999J0D01*
G01*
X99641999Y-125668000D01*
G75*
G02*
X99392000Y-125418001I0J249999D01*
G01*
X99392000Y-124517999D01*
G75*
G02*
X99641999Y-124268000I249999J0D01*
G01*
X100292001Y-124268000D01*
G75*
G02*
X100542000Y-124517999I0J-249999D01*
G01*
G37*
%TD.AperFunction*%
%TD*%
%TO.P,D2,2*%
%TO.N,Net-(D2-Pad2)*%
%TA.AperFunction,SMDPad,CuDef*%
G36*
G01*
X98492000Y-126803999D02*
X98492000Y-127704001D01*
G75*
G02*
X98242001Y-127954000I-249999J0D01*
G01*
X97591999Y-127954000D01*
G75*
G02*
X97342000Y-127704001I0J249999D01*
G01*
X97342000Y-126803999D01*
G75*
G02*
X97591999Y-126554000I249999J0D01*
G01*
X98242001Y-126554000D01*
G75*
G02*
X98492000Y-126803999I0J-249999D01*
G01*
G37*
%TD.AperFunction*%
%TO.P,D2,1*%
%TO.N,GND*%
%TA.AperFunction,SMDPad,CuDef*%
G36*
G01*
X100542000Y-126803999D02*
X100542000Y-127704001D01*
G75*
G02*
X100292001Y-127954000I-249999J0D01*
G01*
X99641999Y-127954000D01*
G75*
G02*
X99392000Y-127704001I0J249999D01*
G01*
X99392000Y-126803999D01*
G75*
G02*
X99641999Y-126554000I249999J0D01*
G01*
X100292001Y-126554000D01*
G75*
G02*
X100542000Y-126803999I0J-249999D01*
G01*
G37*
%TD.AperFunction*%
%TD*%
%TO.P,D1,2*%
%TO.N,Net-(D1-Pad2)*%
%TA.AperFunction,SMDPad,CuDef*%
G36*
G01*
X98474000Y-129089999D02*
X98474000Y-129990001D01*
G75*
G02*
X98224001Y-130240000I-249999J0D01*
G01*
X97573999Y-130240000D01*
G75*
G02*
X97324000Y-129990001I0J249999D01*
G01*
X97324000Y-129089999D01*
G75*
G02*
X97573999Y-128840000I249999J0D01*
G01*
X98224001Y-128840000D01*
G75*
G02*
X98474000Y-129089999I0J-249999D01*
G01*
G37*
%TD.AperFunction*%
%TO.P,D1,1*%
%TO.N,GND*%
%TA.AperFunction,SMDPad,CuDef*%
G36*
G01*
X100524000Y-129089999D02*
X100524000Y-129990001D01*
G75*
G02*
X100274001Y-130240000I-249999J0D01*
G01*
X99623999Y-130240000D01*
G75*
G02*
X99374000Y-129990001I0J249999D01*
G01*
X99374000Y-129089999D01*
G75*
G02*
X99623999Y-128840000I249999J0D01*
G01*
X100274001Y-128840000D01*
G75*
G02*
X100524000Y-129089999I0J-249999D01*
G01*
G37*
%TD.AperFunction*%
%TD*%
%TO.P,C32,2*%
%TO.N,GND*%
%TA.AperFunction,SMDPad,CuDef*%
G36*
G01*
X81694000Y-123872500D02*
X82644000Y-123872500D01*
G75*
G02*
X82894000Y-124122500I0J-250000D01*
G01*
X82894000Y-124797500D01*
G75*
G02*
X82644000Y-125047500I-250000J0D01*
G01*
X81694000Y-125047500D01*
G75*
G02*
X81444000Y-124797500I0J250000D01*
G01*
X81444000Y-124122500D01*
G75*
G02*
X81694000Y-123872500I250000J0D01*
G01*
G37*
%TD.AperFunction*%
%TO.P,C32,1*%
%TO.N,+3V3*%
%TA.AperFunction,SMDPad,CuDef*%
G36*
G01*
X81694000Y-121797500D02*
X82644000Y-121797500D01*
G75*
G02*
X82894000Y-122047500I0J-250000D01*
G01*
X82894000Y-122722500D01*
G75*
G02*
X82644000Y-122972500I-250000J0D01*
G01*
X81694000Y-122972500D01*
G75*
G02*
X81444000Y-122722500I0J250000D01*
G01*
X81444000Y-122047500D01*
G75*
G02*
X81694000Y-121797500I250000J0D01*
G01*
G37*
%TD.AperFunction*%
%TD*%
%TO.P,C27,2*%
%TO.N,GND*%
%TA.AperFunction,SMDPad,CuDef*%
G36*
G01*
X79899500Y-124123500D02*
X80374500Y-124123500D01*
G75*
G02*
X80612000Y-124361000I0J-237500D01*
G01*
X80612000Y-124961000D01*
G75*
G02*
X80374500Y-125198500I-237500J0D01*
G01*
X79899500Y-125198500D01*
G75*
G02*
X79662000Y-124961000I0J237500D01*
G01*
X79662000Y-124361000D01*
G75*
G02*
X79899500Y-124123500I237500J0D01*
G01*
G37*
%TD.AperFunction*%
%TO.P,C27,1*%
%TO.N,+3V3*%
%TA.AperFunction,SMDPad,CuDef*%
G36*
G01*
X79899500Y-122398500D02*
X80374500Y-122398500D01*
G75*
G02*
X80612000Y-122636000I0J-237500D01*
G01*
X80612000Y-123236000D01*
G75*
G02*
X80374500Y-123473500I-237500J0D01*
G01*
X79899500Y-123473500D01*
G75*
G02*
X79662000Y-123236000I0J237500D01*
G01*
X79662000Y-122636000D01*
G75*
G02*
X79899500Y-122398500I237500J0D01*
G01*
G37*
%TD.AperFunction*%
%TD*%
%TO.P,C26,2*%
%TO.N,GND*%
%TA.AperFunction,SMDPad,CuDef*%
G36*
G01*
X80661500Y-133521500D02*
X81136500Y-133521500D01*
G75*
G02*
X81374000Y-133759000I0J-237500D01*
G01*
X81374000Y-134359000D01*
G75*
G02*
X81136500Y-134596500I-237500J0D01*
G01*
X80661500Y-134596500D01*
G75*
G02*
X80424000Y-134359000I0J237500D01*
G01*
X80424000Y-133759000D01*
G75*
G02*
X80661500Y-133521500I237500J0D01*
G01*
G37*
%TD.AperFunction*%
%TO.P,C26,1*%
%TO.N,+3V3*%
%TA.AperFunction,SMDPad,CuDef*%
G36*
G01*
X80661500Y-131796500D02*
X81136500Y-131796500D01*
G75*
G02*
X81374000Y-132034000I0J-237500D01*
G01*
X81374000Y-132634000D01*
G75*
G02*
X81136500Y-132871500I-237500J0D01*
G01*
X80661500Y-132871500D01*
G75*
G02*
X80424000Y-132634000I0J237500D01*
G01*
X80424000Y-132034000D01*
G75*
G02*
X80661500Y-131796500I237500J0D01*
G01*
G37*
%TD.AperFunction*%
%TD*%
%TO.P,C25,2*%
%TO.N,GND*%
%TA.AperFunction,SMDPad,CuDef*%
G36*
G01*
X66704500Y-137938500D02*
X66704500Y-138413500D01*
G75*
G02*
X66467000Y-138651000I-237500J0D01*
G01*
X65867000Y-138651000D01*
G75*
G02*
X65629500Y-138413500I0J237500D01*
G01*
X65629500Y-137938500D01*
G75*
G02*
X65867000Y-137701000I237500J0D01*
G01*
X66467000Y-137701000D01*
G75*
G02*
X66704500Y-137938500I0J-237500D01*
G01*
G37*
%TD.AperFunction*%
%TO.P,C25,1*%
%TO.N,+3V3*%
%TA.AperFunction,SMDPad,CuDef*%
G36*
G01*
X68429500Y-137938500D02*
X68429500Y-138413500D01*
G75*
G02*
X68192000Y-138651000I-237500J0D01*
G01*
X67592000Y-138651000D01*
G75*
G02*
X67354500Y-138413500I0J237500D01*
G01*
X67354500Y-137938500D01*
G75*
G02*
X67592000Y-137701000I237500J0D01*
G01*
X68192000Y-137701000D01*
G75*
G02*
X68429500Y-137938500I0J-237500D01*
G01*
G37*
%TD.AperFunction*%
%TD*%
%TO.P,C24,2*%
%TO.N,GND*%
%TA.AperFunction,SMDPad,CuDef*%
G36*
G01*
X66704500Y-136160500D02*
X66704500Y-136635500D01*
G75*
G02*
X66467000Y-136873000I-237500J0D01*
G01*
X65867000Y-136873000D01*
G75*
G02*
X65629500Y-136635500I0J237500D01*
G01*
X65629500Y-136160500D01*
G75*
G02*
X65867000Y-135923000I237500J0D01*
G01*
X66467000Y-135923000D01*
G75*
G02*
X66704500Y-136160500I0J-237500D01*
G01*
G37*
%TD.AperFunction*%
%TO.P,C24,1*%
%TO.N,+3V3*%
%TA.AperFunction,SMDPad,CuDef*%
G36*
G01*
X68429500Y-136160500D02*
X68429500Y-136635500D01*
G75*
G02*
X68192000Y-136873000I-237500J0D01*
G01*
X67592000Y-136873000D01*
G75*
G02*
X67354500Y-136635500I0J237500D01*
G01*
X67354500Y-136160500D01*
G75*
G02*
X67592000Y-135923000I237500J0D01*
G01*
X68192000Y-135923000D01*
G75*
G02*
X68429500Y-136160500I0J-237500D01*
G01*
G37*
%TD.AperFunction*%
%TD*%
%TO.P,C22,2*%
%TO.N,/STM32L151RET6TR/OS32_IN*%
%TA.AperFunction,SMDPad,CuDef*%
G36*
G01*
X62174000Y-134857500D02*
X62174000Y-134382500D01*
G75*
G02*
X62411500Y-134145000I237500J0D01*
G01*
X63011500Y-134145000D01*
G75*
G02*
X63249000Y-134382500I0J-237500D01*
G01*
X63249000Y-134857500D01*
G75*
G02*
X63011500Y-135095000I-237500J0D01*
G01*
X62411500Y-135095000D01*
G75*
G02*
X62174000Y-134857500I0J237500D01*
G01*
G37*
%TD.AperFunction*%
%TO.P,C22,1*%
%TO.N,GND*%
%TA.AperFunction,SMDPad,CuDef*%
G36*
G01*
X60449000Y-134857500D02*
X60449000Y-134382500D01*
G75*
G02*
X60686500Y-134145000I237500J0D01*
G01*
X61286500Y-134145000D01*
G75*
G02*
X61524000Y-134382500I0J-237500D01*
G01*
X61524000Y-134857500D01*
G75*
G02*
X61286500Y-135095000I-237500J0D01*
G01*
X60686500Y-135095000D01*
G75*
G02*
X60449000Y-134857500I0J237500D01*
G01*
G37*
%TD.AperFunction*%
%TD*%
%TO.P,C19,2*%
%TO.N,/STM32L151RET6TR/OS32_OUT*%
%TA.AperFunction,SMDPad,CuDef*%
G36*
G01*
X62327500Y-142477500D02*
X62327500Y-142002500D01*
G75*
G02*
X62565000Y-141765000I237500J0D01*
G01*
X63165000Y-141765000D01*
G75*
G02*
X63402500Y-142002500I0J-237500D01*
G01*
X63402500Y-142477500D01*
G75*
G02*
X63165000Y-142715000I-237500J0D01*
G01*
X62565000Y-142715000D01*
G75*
G02*
X62327500Y-142477500I0J237500D01*
G01*
G37*
%TD.AperFunction*%
%TO.P,C19,1*%
%TO.N,GND*%
%TA.AperFunction,SMDPad,CuDef*%
G36*
G01*
X60602500Y-142477500D02*
X60602500Y-142002500D01*
G75*
G02*
X60840000Y-141765000I237500J0D01*
G01*
X61440000Y-141765000D01*
G75*
G02*
X61677500Y-142002500I0J-237500D01*
G01*
X61677500Y-142477500D01*
G75*
G02*
X61440000Y-142715000I-237500J0D01*
G01*
X60840000Y-142715000D01*
G75*
G02*
X60602500Y-142477500I0J237500D01*
G01*
G37*
%TD.AperFunction*%
%TD*%
%TO.P,C18,2*%
%TO.N,GND*%
%TA.AperFunction,SMDPad,CuDef*%
G36*
G01*
X73866500Y-146337000D02*
X73866500Y-147287000D01*
G75*
G02*
X73616500Y-147537000I-250000J0D01*
G01*
X72941500Y-147537000D01*
G75*
G02*
X72691500Y-147287000I0J250000D01*
G01*
X72691500Y-146337000D01*
G75*
G02*
X72941500Y-146087000I250000J0D01*
G01*
X73616500Y-146087000D01*
G75*
G02*
X73866500Y-146337000I0J-250000D01*
G01*
G37*
%TD.AperFunction*%
%TO.P,C18,1*%
%TO.N,/STM32L151RET6TR/OSM_OUT*%
%TA.AperFunction,SMDPad,CuDef*%
G36*
G01*
X75941500Y-146337000D02*
X75941500Y-147287000D01*
G75*
G02*
X75691500Y-147537000I-250000J0D01*
G01*
X75016500Y-147537000D01*
G75*
G02*
X74766500Y-147287000I0J250000D01*
G01*
X74766500Y-146337000D01*
G75*
G02*
X75016500Y-146087000I250000J0D01*
G01*
X75691500Y-146087000D01*
G75*
G02*
X75941500Y-146337000I0J-250000D01*
G01*
G37*
%TD.AperFunction*%
%TD*%
%TO.P,C17,2*%
%TO.N,GND*%
%TA.AperFunction,SMDPad,CuDef*%
G36*
G01*
X70659500Y-147287000D02*
X70659500Y-146337000D01*
G75*
G02*
X70909500Y-146087000I250000J0D01*
G01*
X71584500Y-146087000D01*
G75*
G02*
X71834500Y-146337000I0J-250000D01*
G01*
X71834500Y-147287000D01*
G75*
G02*
X71584500Y-147537000I-250000J0D01*
G01*
X70909500Y-147537000D01*
G75*
G02*
X70659500Y-147287000I0J250000D01*
G01*
G37*
%TD.AperFunction*%
%TO.P,C17,1*%
%TO.N,/STM32L151RET6TR/MCO*%
%TA.AperFunction,SMDPad,CuDef*%
G36*
G01*
X68584500Y-147287000D02*
X68584500Y-146337000D01*
G75*
G02*
X68834500Y-146087000I250000J0D01*
G01*
X69509500Y-146087000D01*
G75*
G02*
X69759500Y-146337000I0J-250000D01*
G01*
X69759500Y-147287000D01*
G75*
G02*
X69509500Y-147537000I-250000J0D01*
G01*
X68834500Y-147537000D01*
G75*
G02*
X68584500Y-147287000I0J250000D01*
G01*
G37*
%TD.AperFunction*%
%TD*%
%TO.P,C7,2*%
%TO.N,GND*%
%TA.AperFunction,SMDPad,CuDef*%
G36*
G01*
X62899000Y-150156000D02*
X62899000Y-149056000D01*
G75*
G02*
X63149000Y-148806000I250000J0D01*
G01*
X66149000Y-148806000D01*
G75*
G02*
X66399000Y-149056000I0J-250000D01*
G01*
X66399000Y-150156000D01*
G75*
G02*
X66149000Y-150406000I-250000J0D01*
G01*
X63149000Y-150406000D01*
G75*
G02*
X62899000Y-150156000I0J250000D01*
G01*
G37*
%TD.AperFunction*%
%TO.P,C7,1*%
%TO.N,VCC*%
%TA.AperFunction,SMDPad,CuDef*%
G36*
G01*
X57299000Y-150156000D02*
X57299000Y-149056000D01*
G75*
G02*
X57549000Y-148806000I250000J0D01*
G01*
X60549000Y-148806000D01*
G75*
G02*
X60799000Y-149056000I0J-250000D01*
G01*
X60799000Y-150156000D01*
G75*
G02*
X60549000Y-150406000I-250000J0D01*
G01*
X57549000Y-150406000D01*
G75*
G02*
X57299000Y-150156000I0J250000D01*
G01*
G37*
%TD.AperFunction*%
%TD*%
D12*
%TO.P,J6,8*%
%TO.N,N/C*%
X76581000Y-106934000D03*
%TO.P,J6,7*%
%TO.N,LED_1*%
X79121000Y-106934000D03*
%TO.P,J6,6*%
%TO.N,LED_2*%
X81661000Y-106934000D03*
%TO.P,J6,5*%
%TO.N,LED_3*%
X84201000Y-106934000D03*
%TO.P,J6,4*%
%TO.N,LED_4*%
X86741000Y-106934000D03*
%TO.P,J6,3*%
%TO.N,LED_5*%
X89281000Y-106934000D03*
%TO.P,J6,2*%
%TO.N,N/C*%
X91821000Y-106934000D03*
D13*
%TO.P,J6,1*%
X94361000Y-106934000D03*
%TD*%
D12*
%TO.P,J5,10*%
%TO.N,SCL1*%
X49657000Y-106934000D03*
%TO.P,J5,9*%
%TO.N,SDA1*%
X52197000Y-106934000D03*
%TO.P,J5,8*%
%TO.N,+3V3*%
X54737000Y-106934000D03*
%TO.P,J5,7*%
%TO.N,GND*%
X57277000Y-106934000D03*
%TO.P,J5,6*%
%TO.N,GPIOI_3*%
X59817000Y-106934000D03*
%TO.P,J5,5*%
%TO.N,GPIOI_2*%
X62357000Y-106934000D03*
%TO.P,J5,4*%
%TO.N,GPIOI_1*%
X64897000Y-106934000D03*
%TO.P,J5,3*%
%TO.N,GPIOI_0*%
X67437000Y-106934000D03*
%TO.P,J5,2*%
%TO.N,N/C*%
X69977000Y-106934000D03*
D13*
%TO.P,J5,1*%
X72517000Y-106934000D03*
%TD*%
D12*
%TO.P,J4,6*%
%TO.N,SW_2*%
X94361000Y-155194000D03*
%TO.P,J4,5*%
%TO.N,SW_1*%
X91821000Y-155194000D03*
%TO.P,J4,4*%
%TO.N,XSHUT_3*%
X89281000Y-155194000D03*
%TO.P,J4,3*%
%TO.N,XSHUT_2*%
X86741000Y-155194000D03*
%TO.P,J4,2*%
%TO.N,XSHUT_1*%
X84201000Y-155194000D03*
D13*
%TO.P,J4,1*%
%TO.N,XSHUT_0*%
X81661000Y-155194000D03*
%TD*%
D12*
%TO.P,J3,8*%
%TO.N,N/C*%
X76581000Y-155194000D03*
%TO.P,J3,7*%
%TO.N,GND*%
X74041000Y-155194000D03*
%TO.P,J3,6*%
X71501000Y-155194000D03*
%TO.P,J3,5*%
%TO.N,+5V*%
X68961000Y-155194000D03*
%TO.P,J3,4*%
%TO.N,+3V3*%
X66421000Y-155194000D03*
%TO.P,J3,3*%
%TO.N,N/C*%
X63881000Y-155194000D03*
%TO.P,J3,2*%
X61341000Y-155194000D03*
D13*
%TO.P,J3,1*%
X58801000Y-155194000D03*
%TD*%
D22*
%TO.N,GND*%
X76835000Y-130048000D03*
X81153000Y-125730000D03*
X87503000Y-121666000D03*
X101473000Y-124968000D03*
X74295000Y-133858000D03*
X81915000Y-133096000D03*
X66929000Y-134874000D03*
X68961000Y-133096000D03*
X65151000Y-135382000D03*
X64643000Y-151384000D03*
X62103000Y-149606000D03*
X64643000Y-147828000D03*
X58039000Y-134874000D03*
X58039000Y-141986000D03*
X72263000Y-148590000D03*
X99187000Y-135890000D03*
X92837000Y-143764000D03*
X104775000Y-134874000D03*
X101981000Y-134874000D03*
X103251000Y-134874000D03*
X91694000Y-138049000D03*
X91694000Y-138938000D03*
X67437000Y-125349000D03*
X70231000Y-122809000D03*
X69215000Y-117983000D03*
X103505000Y-152400000D03*
X95123000Y-151638000D03*
X244094000Y-131826000D03*
X236078347Y-130668347D03*
X238506000Y-127254000D03*
X155956000Y-123190000D03*
X163322000Y-127254000D03*
X160269347Y-130551347D03*
X208026000Y-134112000D03*
X169926000Y-134112000D03*
X156210000Y-136144000D03*
X200660000Y-127254000D03*
X197607347Y-130551347D03*
X194564000Y-136144000D03*
X191516000Y-121920000D03*
X194056000Y-123190000D03*
X153416000Y-121920000D03*
X138684000Y-122174000D03*
X229616000Y-122174000D03*
X232156000Y-123444000D03*
X232830000Y-136144000D03*
X239014000Y-136398000D03*
X200914000Y-136398000D03*
X163068000Y-136398000D03*
X124968000Y-127508000D03*
X119634000Y-125730000D03*
X125476000Y-137414000D03*
X121412000Y-132334000D03*
X128778000Y-132334000D03*
X118872000Y-137160000D03*
X123190000Y-107696000D03*
X130048000Y-107696000D03*
X128016000Y-107696000D03*
X125476000Y-107696000D03*
X118618000Y-112268000D03*
X128016000Y-148590000D03*
X130556000Y-148590000D03*
X125476000Y-148590000D03*
X122936000Y-148590000D03*
X119126000Y-148590000D03*
X102489000Y-146812000D03*
X167386000Y-115570000D03*
X205740000Y-115570000D03*
X243586000Y-115570000D03*
X99060000Y-152400000D03*
X221996000Y-124333000D03*
X216916000Y-124333000D03*
X178816000Y-124333000D03*
X183896000Y-124333000D03*
X145796000Y-124333000D03*
X140716000Y-124333000D03*
%TO.N,VCC*%
X53975000Y-148082000D03*
X98983002Y-146558000D03*
X103234896Y-145318348D03*
%TO.N,+3V3*%
X78700000Y-125309000D03*
X79665000Y-120432000D03*
X75311000Y-133858000D03*
X69642998Y-128016000D03*
X86487000Y-119888000D03*
X85979000Y-111760000D03*
X80899000Y-110490000D03*
X82169000Y-132080000D03*
X71755000Y-130810000D03*
X68834000Y-134239000D03*
X104775000Y-143256000D03*
X104775000Y-140716000D03*
X55245000Y-141986000D03*
X52705000Y-141986000D03*
X90716509Y-149771509D03*
X69212808Y-122807215D03*
X70485000Y-120904000D03*
X106045000Y-141986000D03*
X241300000Y-131826000D03*
X155956000Y-128270000D03*
X153416000Y-128270000D03*
X160274000Y-131572000D03*
X165608000Y-131572000D03*
X197612000Y-131572000D03*
X203200000Y-131572000D03*
X194056000Y-128270000D03*
X235956000Y-131816000D03*
X232156000Y-128524000D03*
X191516000Y-128270000D03*
X229616000Y-128524000D03*
X232156000Y-134112000D03*
X194056000Y-134112000D03*
X155956000Y-134112000D03*
X157480000Y-144272000D03*
X195580000Y-144272000D03*
X233680000Y-144272000D03*
X120396000Y-132334000D03*
X130302000Y-132334000D03*
X127254000Y-132334000D03*
X122428000Y-132334000D03*
X120396000Y-148590000D03*
X120396000Y-107696000D03*
X106045000Y-140716000D03*
X141224000Y-126238000D03*
X167386000Y-118872000D03*
X167386000Y-118872000D03*
X205740000Y-118872000D03*
X243586000Y-118872000D03*
%TO.N,XSHUT_1*%
X163322000Y-141478000D03*
X124206000Y-148590000D03*
X137922000Y-135636000D03*
X137922000Y-138938000D03*
X82550000Y-150876000D03*
X156332347Y-130932347D03*
X158877000Y-122301000D03*
%TO.N,GPIOI_1*%
X157734000Y-141478000D03*
X121666000Y-148590000D03*
X164338000Y-127254000D03*
X136906000Y-136100972D03*
X136906000Y-138938000D03*
X76325716Y-125767000D03*
X107696000Y-133350000D03*
X162052000Y-122262000D03*
X164338000Y-125222000D03*
%TO.N,XSHUT_2*%
X201422000Y-141478000D03*
X124206000Y-117348000D03*
X83570653Y-150871347D03*
X107691347Y-135640653D03*
X109220000Y-134874000D03*
X123698000Y-120396000D03*
X197104000Y-121158000D03*
X194524783Y-130262783D03*
X108018858Y-150944858D03*
%TO.N,GPIOI_2*%
X195580000Y-141478000D03*
X201676000Y-126746000D03*
X121666000Y-117348000D03*
X200152000Y-121158000D03*
X201676000Y-124714000D03*
%TO.N,XSHUT_0*%
X128016000Y-127000000D03*
X81534000Y-150876000D03*
X117348000Y-142494000D03*
%TO.N,GPIOI_0*%
X130302000Y-127000000D03*
X77724000Y-124460000D03*
%TO.N,LED_3*%
X92265500Y-125793500D03*
%TO.N,LED_4*%
X92265500Y-124269500D03*
%TO.N,LED_5*%
X92672190Y-120396000D03*
%TO.N,LED_1*%
X91567000Y-129540000D03*
%TO.N,LED_2*%
X92329000Y-127254000D03*
%TO.N,SW_1*%
X92583000Y-118364000D03*
X89789000Y-118364000D03*
X92583000Y-110490000D03*
X84836000Y-142494000D03*
X80772000Y-144272000D03*
X71628000Y-150622000D03*
X79248000Y-154743999D03*
%TO.N,SW_2*%
X80645000Y-121412000D03*
X84201000Y-116586000D03*
X84963000Y-111760000D03*
X68829347Y-151642653D03*
X70769346Y-149702654D03*
X80809000Y-143002000D03*
X84128892Y-141786892D03*
%TO.N,+5V*%
X92075000Y-150114000D03*
X92373000Y-146912936D03*
%TO.N,/STM32L151RET6TR/BOOT*%
X63373000Y-132080000D03*
%TO.N,/STM32L151RET6TR/RST*%
X72771000Y-138176000D03*
%TO.N,SCL1*%
X57277000Y-132842000D03*
X242824000Y-140970000D03*
X204724000Y-141478000D03*
X166878000Y-141478000D03*
X129286000Y-142240000D03*
X129286000Y-153416000D03*
X166624000Y-132080000D03*
X139954000Y-138938000D03*
X139954000Y-134403000D03*
X206756000Y-131318000D03*
X204498501Y-131797499D03*
X243332000Y-130302000D03*
X242344501Y-131797499D03*
X168275000Y-131445000D03*
X160202001Y-122262000D03*
X198628000Y-121158000D03*
X236474000Y-121158000D03*
%TO.N,SDA1*%
X57281653Y-133862653D03*
X58039000Y-130302000D03*
X240538000Y-141224000D03*
X202438000Y-141478000D03*
X164338000Y-141478000D03*
X126746000Y-142240000D03*
X126746000Y-153416000D03*
X138938000Y-138938000D03*
X138938000Y-135128000D03*
X167640000Y-129540000D03*
X165608000Y-130048000D03*
X163576000Y-122262000D03*
X203708000Y-128778000D03*
X241554000Y-128524000D03*
%TO.N,/STM32L151RET6TR/FTDI_RTS*%
X67945000Y-123444000D03*
X69469000Y-130556000D03*
%TO.N,/STM32L151RET6TR/FTDI_CTS*%
X69723000Y-131572000D03*
%TO.N,/STM32L151RET6TR/SW0*%
X62611000Y-125730000D03*
X57023000Y-125730000D03*
%TO.N,SCL2*%
X72517000Y-121920000D03*
X56515000Y-114554000D03*
%TO.N,SDA2*%
X59055000Y-114554000D03*
X73279000Y-119888000D03*
%TO.N,/STM32L151RET6TR/PIN41*%
X72771000Y-125984000D03*
%TO.N,/STM32L151RET6TR/PIN29*%
X75819000Y-130048000D03*
%TO.N,/STM32L151RET6TR/PIN30*%
X74803000Y-130048000D03*
%TO.N,/STM32L151RET6TR/PC8*%
X61595000Y-114554000D03*
%TO.N,/STM32L151RET6TR/PA9*%
X53975000Y-114554000D03*
%TO.N,/STM32L151RET6TR/PA10*%
X51435000Y-114300000D03*
%TO.N,BUCK_5_EN*%
X69977000Y-134112000D03*
%TO.N,XSHUT_3*%
X239522000Y-141224000D03*
X124206000Y-141986000D03*
X84591306Y-150866694D03*
X235204000Y-121158000D03*
X235204000Y-127508000D03*
%TO.N,GPIOI_3*%
X233934000Y-141224000D03*
X239776000Y-126238000D03*
X121666000Y-141986000D03*
X75528000Y-126492000D03*
%TD*%
D23*
%TO.N,GND*%
X67691000Y-120396000D02*
X67437000Y-120142000D01*
X82169000Y-120396000D02*
X81661000Y-120396000D01*
X80162990Y-133322990D02*
X80899000Y-134059000D01*
X79347990Y-133322990D02*
X80162990Y-133322990D01*
X79323000Y-133298000D02*
X79347990Y-133322990D01*
X78700000Y-133298000D02*
X79323000Y-133298000D01*
X82111500Y-124814500D02*
X82169000Y-124757000D01*
X80137000Y-126201702D02*
X80137000Y-124661000D01*
X79540702Y-126798000D02*
X80137000Y-126201702D01*
X78700000Y-126798000D02*
X79540702Y-126798000D01*
X82169000Y-124460000D02*
X80137000Y-124460000D01*
X80137000Y-124460000D02*
X80137000Y-124661000D01*
X83219010Y-121446010D02*
X82169000Y-120396000D01*
X83219010Y-123409990D02*
X83219010Y-121446010D01*
X82169000Y-124460000D02*
X83219010Y-123409990D01*
X80137000Y-124714000D02*
X81153000Y-125730000D01*
X80137000Y-124661000D02*
X80137000Y-124714000D01*
X88773000Y-120396000D02*
X87503000Y-121666000D01*
X89059000Y-120396000D02*
X88773000Y-120396000D01*
D24*
X99949000Y-127272000D02*
X99967000Y-127254000D01*
X99949000Y-129540000D02*
X99949000Y-127272000D01*
X99967000Y-127254000D02*
X99967000Y-124968000D01*
X99967000Y-124968000D02*
X99967000Y-122682000D01*
X99967000Y-120405000D02*
X99958000Y-120396000D01*
X99967000Y-122682000D02*
X99967000Y-120405000D01*
X99967000Y-124968000D02*
X101473000Y-124968000D01*
D23*
X74295000Y-133915002D02*
X74295000Y-133858000D01*
X74775000Y-134395002D02*
X74295000Y-133915002D01*
X74775000Y-135723000D02*
X74775000Y-134395002D01*
X80952000Y-134059000D02*
X81915000Y-133096000D01*
X80899000Y-134059000D02*
X80952000Y-134059000D01*
X66167000Y-138176000D02*
X66167000Y-136398000D01*
X66167000Y-135636000D02*
X66929000Y-134874000D01*
X66167000Y-136398000D02*
X66167000Y-135636000D01*
X68759000Y-133298000D02*
X68961000Y-133096000D01*
X67350000Y-133298000D02*
X68759000Y-133298000D01*
D24*
X64649000Y-151378000D02*
X64643000Y-151384000D01*
X64649000Y-149606000D02*
X64649000Y-151378000D01*
X64649000Y-149606000D02*
X62103000Y-149606000D01*
X64649000Y-147834000D02*
X64643000Y-147828000D01*
X64649000Y-149606000D02*
X64649000Y-147834000D01*
D23*
X60293000Y-142240000D02*
X58083000Y-140030000D01*
X61140000Y-142240000D02*
X60293000Y-142240000D01*
X60293000Y-134620000D02*
X58083000Y-136830000D01*
X60986500Y-134620000D02*
X60293000Y-134620000D01*
X58083000Y-134918000D02*
X58039000Y-134874000D01*
X58083000Y-136830000D02*
X58083000Y-134918000D01*
X58083000Y-141942000D02*
X58039000Y-141986000D01*
X58083000Y-140030000D02*
X58083000Y-141942000D01*
X71247000Y-146812000D02*
X73279000Y-146812000D01*
X71247000Y-147574000D02*
X72263000Y-148590000D01*
X71247000Y-146812000D02*
X71247000Y-147574000D01*
X73279000Y-147574000D02*
X72263000Y-148590000D01*
X73279000Y-146812000D02*
X73279000Y-147574000D01*
D24*
X103465000Y-137668000D02*
X103465000Y-137200000D01*
X103251000Y-137454000D02*
X103465000Y-137668000D01*
X93963000Y-143764000D02*
X92837000Y-143764000D01*
X94173000Y-143554000D02*
X93963000Y-143764000D01*
X94173000Y-142054000D02*
X94173000Y-143554000D01*
D25*
X101981000Y-136184000D02*
X102088000Y-136291000D01*
X101981000Y-135382000D02*
X101981000Y-136184000D01*
X104775000Y-135382000D02*
X101981000Y-135382000D01*
X104775000Y-137414000D02*
X104775000Y-135382000D01*
X104521000Y-137668000D02*
X104775000Y-137414000D01*
X103465000Y-137668000D02*
X104521000Y-137668000D01*
D24*
X102088000Y-136291000D02*
X101687000Y-135890000D01*
D25*
X101981000Y-136184000D02*
X104053000Y-136184000D01*
X104053000Y-136184000D02*
X103585000Y-136652000D01*
X103585000Y-136652000D02*
X102489000Y-136652000D01*
X102489000Y-136652000D02*
X104267000Y-136652000D01*
X103465000Y-137668000D02*
X102235000Y-137668000D01*
X102235000Y-137668000D02*
X101981000Y-137414000D01*
X101981000Y-137414000D02*
X101981000Y-134874000D01*
X101981000Y-134874000D02*
X101981000Y-134874000D01*
X104775000Y-134874000D02*
X104775000Y-137160000D01*
X104775000Y-134874000D02*
X104775000Y-134874000D01*
X101981000Y-134874000D02*
X103251000Y-134874000D01*
X103251000Y-134874000D02*
X104775000Y-134874000D01*
X101687000Y-135890000D02*
X101981000Y-136184000D01*
X99187000Y-135890000D02*
X101687000Y-135890000D01*
D24*
X90932000Y-136398000D02*
X91694000Y-137160000D01*
X90297000Y-136398000D02*
X90932000Y-136398000D01*
D23*
X69775000Y-123265000D02*
X70231000Y-122809000D01*
X69775000Y-124373000D02*
X69775000Y-123265000D01*
D25*
X101727000Y-152400000D02*
X103505000Y-152400000D01*
D24*
X91694000Y-137160000D02*
X91694000Y-138049000D01*
D23*
X237705801Y-131483001D02*
X237390800Y-131483001D01*
X238506000Y-132283200D02*
X237705801Y-131483001D01*
X237390800Y-131483001D02*
X237390800Y-130683000D01*
X238506000Y-129082800D02*
X237441600Y-130147200D01*
X237390800Y-130147200D02*
X237390800Y-130683000D01*
X237441600Y-130147200D02*
X237390800Y-130147200D01*
X237390800Y-129882999D02*
X237390800Y-130147200D01*
X237705801Y-129882999D02*
X238506000Y-129082800D01*
X237390800Y-129882999D02*
X237705801Y-129882999D01*
X236093000Y-130683000D02*
X236078347Y-130668347D01*
X237390800Y-130683000D02*
X236093000Y-130683000D01*
X238506000Y-129082800D02*
X238506000Y-127254000D01*
X162140801Y-131483001D02*
X161825800Y-131483001D01*
X162941000Y-132283200D02*
X162140801Y-131483001D01*
X161825800Y-130683000D02*
X161825800Y-131483001D01*
X161825800Y-129882999D02*
X161825800Y-130683000D01*
X162140801Y-129882999D02*
X161825800Y-129882999D01*
X162941000Y-129082800D02*
X162140801Y-129882999D01*
X162941000Y-127635000D02*
X163322000Y-127254000D01*
X162941000Y-129082800D02*
X162941000Y-127635000D01*
X160894146Y-130551347D02*
X160269347Y-130551347D01*
X161825800Y-131483001D02*
X160894146Y-130551347D01*
X199605801Y-131483001D02*
X199290800Y-131483001D01*
X200406000Y-132283200D02*
X199605801Y-131483001D01*
X199290800Y-131483001D02*
X199290800Y-130683000D01*
X199290800Y-129882999D02*
X199290800Y-130683000D01*
X199605801Y-129882999D02*
X199290800Y-129882999D01*
X200406000Y-129082800D02*
X199605801Y-129882999D01*
X200406000Y-127508000D02*
X200660000Y-127254000D01*
X200406000Y-129082800D02*
X200406000Y-127508000D01*
X197739000Y-130683000D02*
X197607347Y-130551347D01*
X199290800Y-130683000D02*
X197739000Y-130683000D01*
X162941000Y-136271000D02*
X163068000Y-136398000D01*
X162941000Y-132283200D02*
X162941000Y-136271000D01*
X124040801Y-131483001D02*
X123725800Y-131483001D01*
X124841000Y-132283200D02*
X124040801Y-131483001D01*
X123725800Y-130683000D02*
X123725800Y-131483001D01*
X123725800Y-129882999D02*
X123725800Y-130683000D01*
X124040801Y-129882999D02*
X123725800Y-129882999D01*
X124841000Y-129082800D02*
X124040801Y-129882999D01*
X124841000Y-127635000D02*
X124968000Y-127508000D01*
X124841000Y-129082800D02*
X124841000Y-127635000D01*
X124841000Y-136779000D02*
X125476000Y-137414000D01*
X124841000Y-132283200D02*
X124841000Y-136779000D01*
D24*
X100534000Y-146812000D02*
X102489000Y-146812000D01*
X101727000Y-152400000D02*
X99060000Y-152400000D01*
D23*
X200406000Y-135890000D02*
X200914000Y-136398000D01*
X200406000Y-132283200D02*
X200406000Y-135890000D01*
X238506000Y-135890000D02*
X239014000Y-136398000D01*
X238506000Y-132283200D02*
X238506000Y-135890000D01*
D24*
%TO.N,VCC*%
X57525000Y-148082000D02*
X59049000Y-149606000D01*
X53975000Y-148082000D02*
X57525000Y-148082000D01*
X97409000Y-149352000D02*
X97409000Y-146812000D01*
X98983002Y-146558000D02*
X97663000Y-146558000D01*
X97663000Y-146558000D02*
X97409000Y-146812000D01*
X94173000Y-145474000D02*
X94173000Y-147132000D01*
X94173000Y-147132000D02*
X94488000Y-147447000D01*
X96774000Y-147447000D02*
X97409000Y-146812000D01*
X94488000Y-147447000D02*
X96774000Y-147447000D01*
X97409000Y-146812000D02*
X96774000Y-146812000D01*
X96774000Y-146812000D02*
X96520000Y-147066000D01*
X96561999Y-147024001D02*
X96774000Y-146812000D01*
X94357999Y-147024001D02*
X96561999Y-147024001D01*
X94173000Y-146839002D02*
X94357999Y-147024001D01*
X94173000Y-145474000D02*
X94173000Y-146839002D01*
D23*
%TO.N,+3V3*%
X80137000Y-123327990D02*
X80137000Y-122936000D01*
X78700000Y-124764990D02*
X80137000Y-123327990D01*
X78700000Y-126298000D02*
X78700000Y-125309000D01*
X81618000Y-122936000D02*
X82169000Y-122385000D01*
X80137000Y-122936000D02*
X81618000Y-122936000D01*
X78700000Y-125309000D02*
X78700000Y-124764990D01*
X80435000Y-132798000D02*
X80899000Y-132334000D01*
X78700000Y-132798000D02*
X80435000Y-132798000D01*
X75275000Y-133894000D02*
X75311000Y-133858000D01*
X75275000Y-135723000D02*
X75275000Y-133894000D01*
X79665000Y-118275000D02*
X79665000Y-120432000D01*
X86523000Y-111216000D02*
X85979000Y-111760000D01*
X86523000Y-110325000D02*
X86523000Y-111216000D01*
X80734000Y-110325000D02*
X80899000Y-110490000D01*
X79665000Y-110325000D02*
X80734000Y-110325000D01*
X81915000Y-132334000D02*
X82169000Y-132080000D01*
X80899000Y-132334000D02*
X81915000Y-132334000D01*
X69275000Y-136793000D02*
X69275000Y-135723000D01*
X67892000Y-138176000D02*
X69275000Y-136793000D01*
X68600000Y-136398000D02*
X69275000Y-135723000D01*
X67892000Y-136398000D02*
X68600000Y-136398000D01*
X69275000Y-135723000D02*
X69275000Y-134680000D01*
X68393000Y-133798000D02*
X67350000Y-133798000D01*
X69275000Y-134680000D02*
X68834000Y-134239000D01*
X68834000Y-134239000D02*
X68393000Y-133798000D01*
X54991000Y-141732000D02*
X55245000Y-141986000D01*
X54991000Y-140430000D02*
X54991000Y-141732000D01*
X52705000Y-140430000D02*
X52705000Y-141986000D01*
D24*
X102453000Y-142494000D02*
X103251000Y-142494000D01*
X103251000Y-142494000D02*
X103759000Y-141986000D01*
X103759000Y-141986000D02*
X103759000Y-140208000D01*
X103759000Y-140208000D02*
X101473000Y-140208000D01*
X101473000Y-140208000D02*
X101473000Y-140462000D01*
X101473000Y-140462000D02*
X103759000Y-142748000D01*
X103759000Y-142748000D02*
X103759000Y-144526000D01*
D23*
X86523000Y-119852000D02*
X86487000Y-119888000D01*
X86523000Y-118275000D02*
X86523000Y-119852000D01*
D24*
X91059000Y-149429018D02*
X90716509Y-149771509D01*
X91059000Y-146542000D02*
X91059000Y-149429018D01*
D23*
X69275000Y-122869407D02*
X69212808Y-122807215D01*
X69275000Y-124373000D02*
X69275000Y-122869407D01*
X240843001Y-132282999D02*
X241300000Y-131826000D01*
X239621200Y-132282999D02*
X240843001Y-132282999D01*
X160984999Y-132282999D02*
X160274000Y-131572000D01*
X161825800Y-132282999D02*
X160984999Y-132282999D01*
X164897001Y-132282999D02*
X165608000Y-131572000D01*
X164056200Y-132282999D02*
X164897001Y-132282999D01*
X198322999Y-132282999D02*
X197612000Y-131572000D01*
X199290800Y-132282999D02*
X198322999Y-132282999D01*
X202489001Y-132282999D02*
X203200000Y-131572000D01*
X201521200Y-132282999D02*
X202489001Y-132282999D01*
X236422999Y-132282999D02*
X235956000Y-131816000D01*
X237390800Y-132282999D02*
X236422999Y-132282999D01*
X127202999Y-132282999D02*
X127254000Y-132334000D01*
X125956200Y-132282999D02*
X127202999Y-132282999D01*
X122479001Y-132282999D02*
X122428000Y-132334000D01*
X123725800Y-132282999D02*
X122479001Y-132282999D01*
%TO.N,XSHUT_1*%
X159544346Y-137700346D02*
X163322000Y-141478000D01*
X160664691Y-129083001D02*
X159544346Y-130203346D01*
X161825800Y-129083001D02*
X160664691Y-129083001D01*
X144018000Y-135890000D02*
X138176000Y-135890000D01*
X138176000Y-135890000D02*
X137922000Y-135636000D01*
X137922000Y-139503685D02*
X131629685Y-145796000D01*
X137922000Y-138938000D02*
X137922000Y-139503685D01*
X127000000Y-145796000D02*
X124206000Y-148590000D01*
X131629685Y-145796000D02*
X127000000Y-145796000D01*
X155390998Y-135890000D02*
X155931344Y-135349654D01*
X152146000Y-135890000D02*
X155390998Y-135890000D01*
X144018000Y-135890000D02*
X152146000Y-135890000D01*
X159544346Y-135030962D02*
X159225654Y-135349654D01*
X159544346Y-134906346D02*
X159544346Y-135030962D01*
X159225654Y-135349654D02*
X159544346Y-135349654D01*
X159544346Y-130203346D02*
X159544346Y-134906346D01*
X155931344Y-135349654D02*
X159225654Y-135349654D01*
X159544346Y-134906346D02*
X159544346Y-135349654D01*
X159225654Y-135349654D02*
X159544346Y-135668346D01*
X159544346Y-135668346D02*
X159544346Y-137700346D01*
X159544346Y-135349654D02*
X159544346Y-135668346D01*
X82550000Y-142619590D02*
X82550000Y-150876000D01*
X79180400Y-139249990D02*
X82550000Y-142619590D01*
X75554404Y-139249990D02*
X79180400Y-139249990D01*
X73275000Y-136970586D02*
X75554404Y-139249990D01*
X73275000Y-135723000D02*
X73275000Y-136970586D01*
X158877000Y-128387694D02*
X156332347Y-130932347D01*
X158877000Y-122301000D02*
X158877000Y-128387694D01*
%TO.N,GPIOI_1*%
X164338000Y-128801201D02*
X164056200Y-129083001D01*
X164338000Y-127254000D02*
X164338000Y-128801201D01*
X136906000Y-138938000D02*
X130556000Y-145288000D01*
X124968000Y-145288000D02*
X121666000Y-148590000D01*
X130556000Y-145288000D02*
X124968000Y-145288000D01*
X152631962Y-136375962D02*
X157734000Y-141478000D01*
X151347001Y-136361001D02*
X151361962Y-136375962D01*
X151361962Y-136375962D02*
X152631962Y-136375962D01*
X137166029Y-136361001D02*
X151347001Y-136361001D01*
X136906000Y-136100972D02*
X137166029Y-136361001D01*
X64897000Y-107818770D02*
X64897000Y-106934000D01*
X76275000Y-119196770D02*
X64897000Y-107818770D01*
X76275000Y-124373000D02*
X76275000Y-119196770D01*
X64897000Y-107818770D02*
X76253001Y-119174771D01*
X76325716Y-125767000D02*
X76275000Y-125716284D01*
X76275000Y-125716284D02*
X76275000Y-124373000D01*
X107696000Y-133350000D02*
X108204000Y-133858000D01*
X108204000Y-133858000D02*
X108204000Y-135128000D01*
X121666000Y-148590000D02*
X108204000Y-135128000D01*
X162052000Y-122936000D02*
X164338000Y-125222000D01*
X162052000Y-122262000D02*
X162052000Y-122936000D01*
%TO.N,XSHUT_2*%
X198002691Y-129083001D02*
X196882346Y-130203346D01*
X199290800Y-129083001D02*
X198002691Y-129083001D01*
X196882346Y-136873654D02*
X196882346Y-136938346D01*
X196882346Y-130203346D02*
X196882346Y-136873654D01*
X197104000Y-137160000D02*
X201422000Y-141478000D01*
X196882346Y-136938346D02*
X197104000Y-137160000D01*
X157639011Y-142653011D02*
X167545011Y-142653011D01*
X151811972Y-136825972D02*
X157639011Y-142653011D01*
X136192382Y-136825972D02*
X151811972Y-136825972D01*
X133188706Y-133822296D02*
X136192382Y-136825972D01*
X124206000Y-119194588D02*
X133188706Y-128177294D01*
X133188706Y-128177294D02*
X133188706Y-133822296D01*
X124206000Y-117348000D02*
X124206000Y-119194588D01*
X196676027Y-137079973D02*
X196850000Y-136906000D01*
X196850000Y-136906000D02*
X196882346Y-136873654D01*
X197023973Y-137079973D02*
X197104000Y-137160000D01*
X196676027Y-137079973D02*
X197023973Y-137079973D01*
X83570653Y-143003833D02*
X83570653Y-150871347D01*
X79366801Y-138799981D02*
X83570653Y-143003833D01*
X75740802Y-138799980D02*
X79366801Y-138799981D01*
X73775000Y-136834178D02*
X75740802Y-138799980D01*
X73775000Y-135723000D02*
X73775000Y-136834178D01*
X107696000Y-135645306D02*
X107691347Y-135640653D01*
X109220000Y-134874000D02*
X123698000Y-120396000D01*
X197104000Y-127683566D02*
X194524783Y-130262783D01*
X197104000Y-121158000D02*
X197104000Y-127683566D01*
X193467973Y-137079973D02*
X192024000Y-135636000D01*
X193975973Y-137079973D02*
X193467973Y-137079973D01*
X193975973Y-137079973D02*
X196676027Y-137079973D01*
X192024000Y-135636000D02*
X173736000Y-135636000D01*
X169672000Y-140462000D02*
X169704011Y-140494011D01*
X169672000Y-139700000D02*
X169672000Y-140462000D01*
X173736000Y-135636000D02*
X169672000Y-139700000D01*
X167545011Y-142653011D02*
X169704011Y-140494011D01*
X108018858Y-135968164D02*
X107691347Y-135640653D01*
X108018858Y-150944858D02*
X108018858Y-135968164D01*
%TO.N,GPIOI_2*%
X201676000Y-128928201D02*
X201521200Y-129083001D01*
X201676000Y-126746000D02*
X201676000Y-128928201D01*
X75799990Y-124348010D02*
X75775000Y-124373000D01*
X75799990Y-119358170D02*
X75799990Y-124348010D01*
X65211811Y-108769991D02*
X75799990Y-119358170D01*
X64192991Y-108769991D02*
X65211811Y-108769991D01*
X62357000Y-106934000D02*
X64192991Y-108769991D01*
X121666000Y-114242998D02*
X121666000Y-117348000D01*
X113182001Y-105758999D02*
X121666000Y-114242998D01*
X63532001Y-105758999D02*
X113182001Y-105758999D01*
X62357000Y-106934000D02*
X63532001Y-105758999D01*
X200152000Y-123190000D02*
X201676000Y-124714000D01*
X200152000Y-121158000D02*
X200152000Y-123190000D01*
X192278000Y-138176000D02*
X195580000Y-141478000D01*
X190500000Y-136398000D02*
X192278000Y-138176000D01*
X151625572Y-137275982D02*
X157452610Y-143103020D01*
X167792980Y-143103020D02*
X174498000Y-136398000D01*
X132588000Y-133858000D02*
X136005982Y-137275982D01*
X157452610Y-143103020D02*
X167792980Y-143103020D01*
X136005982Y-137275982D02*
X151625572Y-137275982D01*
X132588000Y-128212998D02*
X132588000Y-133858000D01*
X174498000Y-136398000D02*
X190500000Y-136398000D01*
X121723002Y-117348000D02*
X132588000Y-128212998D01*
X121666000Y-117348000D02*
X121723002Y-117348000D01*
%TO.N,XSHUT_0*%
X127798999Y-126782999D02*
X128016000Y-127000000D01*
X124619999Y-126782999D02*
X127798999Y-126782999D01*
X123725800Y-127677198D02*
X124619999Y-126782999D01*
X123725800Y-129083001D02*
X123725800Y-127677198D01*
X81534000Y-142240000D02*
X81534000Y-150876000D01*
X78994000Y-139700000D02*
X81534000Y-142240000D01*
X75368004Y-139700000D02*
X78994000Y-139700000D01*
X72775000Y-137106996D02*
X75368004Y-139700000D01*
X72775000Y-135723000D02*
X72775000Y-137106996D01*
X122573997Y-129083001D02*
X123725800Y-129083001D01*
X117348000Y-134308998D02*
X122573997Y-129083001D01*
X117348000Y-142494000D02*
X117348000Y-134308998D01*
%TO.N,GPIOI_0*%
X128218999Y-129083001D02*
X130302000Y-127000000D01*
X125956200Y-129083001D02*
X128218999Y-129083001D01*
X67437000Y-106934000D02*
X67437000Y-109722360D01*
X76775000Y-119060360D02*
X76775000Y-119955000D01*
X67437000Y-109722360D02*
X76775000Y-119060360D01*
X76775000Y-119955000D02*
X76775000Y-124373000D01*
X77637000Y-124373000D02*
X77724000Y-124460000D01*
X76775000Y-124373000D02*
X77637000Y-124373000D01*
%TO.N,LED_3*%
X93853000Y-124968000D02*
X93091000Y-124968000D01*
X93091000Y-124968000D02*
X92265500Y-125793500D01*
X86934320Y-125793500D02*
X92265500Y-125793500D01*
X81429820Y-131298000D02*
X86934320Y-125793500D01*
X78700000Y-131298000D02*
X81429820Y-131298000D01*
%TO.N,LED_4*%
X93853000Y-122682000D02*
X92265500Y-124269500D01*
X87821910Y-124269500D02*
X92265500Y-124269500D01*
X81293410Y-130798000D02*
X87821910Y-124269500D01*
X78700000Y-130798000D02*
X81293410Y-130798000D01*
%TO.N,LED_5*%
X80633000Y-129298000D02*
X78700000Y-129298000D01*
X80942220Y-129298000D02*
X80633000Y-129298000D01*
X93869000Y-120396000D02*
X92672190Y-120396000D01*
X91421095Y-121647095D02*
X92672190Y-120396000D01*
X91197170Y-121871020D02*
X91421095Y-121647095D01*
X89583980Y-121871020D02*
X91197170Y-121871020D01*
X82157000Y-129298000D02*
X89583980Y-121871020D01*
X80633000Y-129298000D02*
X82157000Y-129298000D01*
%TO.N,LED_1*%
X93885000Y-129540000D02*
X91567000Y-129540000D01*
X75775000Y-136700112D02*
X75775000Y-135723000D01*
X76347907Y-137273019D02*
X75775000Y-136700112D01*
X82820800Y-137273020D02*
X76347907Y-137273019D01*
X83441820Y-136652000D02*
X82820800Y-137273020D01*
X86448002Y-136652000D02*
X83441820Y-136652000D01*
X91567000Y-129540000D02*
X91567000Y-130049410D01*
X87420001Y-134196409D02*
X87420001Y-135680001D01*
X91567000Y-130049410D02*
X87420001Y-134196409D01*
X87420001Y-135680001D02*
X86448002Y-136652000D01*
%TO.N,LED_2*%
X93853000Y-127254000D02*
X92329000Y-127254000D01*
X82634400Y-136823010D02*
X85345410Y-134112000D01*
X76534308Y-136823010D02*
X82634400Y-136823010D01*
X76275000Y-136563702D02*
X76534308Y-136823010D01*
X76275000Y-135723000D02*
X76275000Y-136563702D01*
X90841999Y-128741001D02*
X90841999Y-130138001D01*
X92329000Y-127254000D02*
X90841999Y-128741001D01*
X90841999Y-130138001D02*
X86868000Y-134112000D01*
X85345410Y-134112000D02*
X86868000Y-134112000D01*
%TO.N,SW_1*%
X91059000Y-118311000D02*
X91023000Y-118275000D01*
X91059000Y-120396000D02*
X91059000Y-118311000D01*
X91112000Y-118364000D02*
X91023000Y-118275000D01*
X92583000Y-118364000D02*
X91112000Y-118364000D01*
X90934000Y-118364000D02*
X91023000Y-118275000D01*
X89789000Y-118364000D02*
X90934000Y-118364000D01*
X92418000Y-110325000D02*
X92583000Y-110490000D01*
X91023000Y-110325000D02*
X92418000Y-110325000D01*
X78700000Y-128798000D02*
X82020590Y-128798000D01*
X90033990Y-121421010D02*
X91059000Y-120396000D01*
X89397580Y-121421010D02*
X90033990Y-121421010D01*
X82020590Y-128798000D02*
X89397580Y-121421010D01*
X74422000Y-150622000D02*
X71628000Y-150622000D01*
X80772000Y-144272000D02*
X74422000Y-150622000D01*
X80307317Y-156369001D02*
X90645999Y-156369001D01*
X90645999Y-156369001D02*
X91821000Y-155194000D01*
X79248000Y-155309684D02*
X80307317Y-156369001D01*
X79248000Y-154743999D02*
X79248000Y-155309684D01*
X92583000Y-112925020D02*
X92583000Y-110490000D01*
X99048990Y-119391010D02*
X92583000Y-112925020D01*
X99048990Y-130544990D02*
X99048990Y-119391010D01*
X98578960Y-131015020D02*
X99048990Y-130544990D01*
X94066790Y-131015020D02*
X98578960Y-131015020D01*
X88900000Y-136181810D02*
X94066790Y-131015020D01*
X88900000Y-138430000D02*
X88900000Y-136181810D01*
X84836000Y-142494000D02*
X88900000Y-138430000D01*
%TO.N,SW_2*%
X84169000Y-118279000D02*
X84165000Y-118275000D01*
X84169000Y-120396000D02*
X84169000Y-118279000D01*
X80645000Y-120306810D02*
X80645000Y-121412000D01*
X82676810Y-118275000D02*
X80645000Y-120306810D01*
X84165000Y-118275000D02*
X82676810Y-118275000D01*
X84201000Y-118239000D02*
X84165000Y-118275000D01*
X84201000Y-116586000D02*
X84201000Y-118239000D01*
X84165000Y-110962000D02*
X84963000Y-111760000D01*
X84165000Y-110325000D02*
X84165000Y-110962000D01*
X78700000Y-128298000D02*
X81884180Y-128298000D01*
X84169000Y-126013180D02*
X84169000Y-123412000D01*
X81884180Y-128298000D02*
X84169000Y-126013180D01*
X84169000Y-120396000D02*
X84169000Y-123412000D01*
X71205693Y-154018999D02*
X68829347Y-151642653D01*
X93185999Y-154018999D02*
X71205693Y-154018999D01*
X94361000Y-155194000D02*
X93185999Y-154018999D01*
X74108346Y-149702654D02*
X80809000Y-143002000D01*
X70769346Y-149702654D02*
X74108346Y-149702654D01*
X91878002Y-116586000D02*
X84201000Y-116586000D01*
X94927990Y-119635988D02*
X91878002Y-116586000D01*
X94927990Y-130110200D02*
X94927990Y-119635988D01*
X94473180Y-130565010D02*
X94927990Y-130110200D01*
X84128892Y-141786892D02*
X84247989Y-141667795D01*
X84247989Y-141667795D02*
X85025795Y-141667795D01*
X85025795Y-141667795D02*
X88449990Y-138243600D01*
X93880390Y-130565010D02*
X94473180Y-130565010D01*
X88449991Y-135995409D02*
X93880390Y-130565010D01*
X88449990Y-138243600D02*
X88449991Y-135995409D01*
%TO.N,Net-(D1-Pad2)*%
X95885000Y-129540000D02*
X97899000Y-129540000D01*
%TO.N,Net-(D2-Pad2)*%
X95853000Y-127254000D02*
X97917000Y-127254000D01*
%TO.N,Net-(D3-Pad2)*%
X95853000Y-124968000D02*
X97917000Y-124968000D01*
%TO.N,Net-(D4-Pad2)*%
X95853000Y-122682000D02*
X97917000Y-122682000D01*
%TO.N,Net-(D5-Pad2)*%
X95869000Y-120396000D02*
X97908000Y-120396000D01*
%TO.N,/STM32L151RET6TR/MCO*%
X68013000Y-142748000D02*
X68707000Y-142748000D01*
X71299990Y-135747990D02*
X71275000Y-135723000D01*
X68961000Y-142748000D02*
X71299990Y-140409010D01*
X71299990Y-140409010D02*
X71299990Y-135747990D01*
X68013000Y-142748000D02*
X68961000Y-142748000D01*
X69172000Y-143907000D02*
X68013000Y-142748000D01*
X69172000Y-146812000D02*
X69172000Y-143907000D01*
%TO.N,/STM32L151RET6TR/OSM_OUT*%
X71775000Y-140510000D02*
X71775000Y-135723000D01*
X74013000Y-142748000D02*
X71775000Y-140510000D01*
X76513000Y-142748000D02*
X74013000Y-142748000D01*
X75354000Y-143907000D02*
X76513000Y-142748000D01*
X75354000Y-146812000D02*
X75354000Y-143907000D01*
%TO.N,/STM32L151RET6TR/OS32_OUT*%
X63583000Y-141522000D02*
X62865000Y-142240000D01*
X63583000Y-140030000D02*
X63583000Y-141522000D01*
X70775000Y-137262420D02*
X70775000Y-135723000D01*
X68007420Y-140030000D02*
X70775000Y-137262420D01*
X63583000Y-140030000D02*
X68007420Y-140030000D01*
%TO.N,/STM32L151RET6TR/BOOT*%
X64467592Y-131798000D02*
X67350000Y-131798000D01*
X64185592Y-132080000D02*
X64467592Y-131798000D01*
X63373000Y-132080000D02*
X64185592Y-132080000D01*
X55245000Y-132080000D02*
X63373000Y-132080000D01*
X54737000Y-131572000D02*
X55245000Y-132080000D01*
%TO.N,/STM32L151RET6TR/RST*%
X72275000Y-137680000D02*
X72771000Y-138176000D01*
X72275000Y-135723000D02*
X72275000Y-137680000D01*
X53561999Y-122776999D02*
X54737000Y-123952000D01*
X51021999Y-124516001D02*
X51021999Y-123387999D01*
X51632999Y-122776999D02*
X53561999Y-122776999D01*
X53530500Y-127024502D02*
X51021999Y-124516001D01*
X51021999Y-123387999D02*
X51632999Y-122776999D01*
X53530500Y-132524500D02*
X53530500Y-127024502D01*
X54737000Y-133731000D02*
X53530500Y-132524500D01*
X54737000Y-135382000D02*
X54737000Y-133731000D01*
%TO.N,/STM32L151RET6TR/OS32_IN*%
X70275000Y-136188000D02*
X70299990Y-136212990D01*
X70275000Y-135723000D02*
X70275000Y-136188000D01*
X63583000Y-135491500D02*
X62711500Y-134620000D01*
X63583000Y-136830000D02*
X63583000Y-135491500D01*
X70275000Y-137126010D02*
X70275000Y-135723000D01*
X68425000Y-138976010D02*
X70275000Y-137126010D01*
X65429010Y-138976010D02*
X68425000Y-138976010D01*
X63583000Y-137130000D02*
X65429010Y-138976010D01*
X63583000Y-136830000D02*
X63583000Y-137130000D01*
%TO.N,SCL1*%
X67350000Y-132298000D02*
X64604002Y-132298000D01*
X64060002Y-132842000D02*
X57277000Y-132842000D01*
X64604002Y-132298000D02*
X64060002Y-132842000D01*
X56261000Y-133858000D02*
X57277000Y-132842000D01*
X56261000Y-135597002D02*
X56261000Y-133858000D01*
X54698002Y-137160000D02*
X56261000Y-135597002D01*
X54229000Y-137160000D02*
X54698002Y-137160000D01*
X52959000Y-138430000D02*
X54229000Y-137160000D01*
X240755001Y-131100999D02*
X240372999Y-131483001D01*
X241648001Y-131100999D02*
X240755001Y-131100999D01*
X240372999Y-131483001D02*
X239621200Y-131483001D01*
X242824000Y-140970000D02*
X242824000Y-132276998D01*
X202851999Y-130846999D02*
X203548001Y-130846999D01*
X202215997Y-131483001D02*
X202851999Y-130846999D01*
X201521200Y-131483001D02*
X202215997Y-131483001D01*
X165259999Y-130846999D02*
X165956001Y-130846999D01*
X164623997Y-131483001D02*
X165259999Y-130846999D01*
X164056200Y-131483001D02*
X164623997Y-131483001D01*
X127979001Y-140933001D02*
X129286000Y-142240000D01*
X127979001Y-131985999D02*
X127979001Y-140933001D01*
X127476003Y-131483001D02*
X127979001Y-131985999D01*
X125956200Y-131483001D02*
X127476003Y-131483001D01*
X162211011Y-126078989D02*
X165194989Y-126078989D01*
X166333001Y-131223999D02*
X166144501Y-131035499D01*
X166624000Y-131826000D02*
X166333001Y-131535001D01*
X166333001Y-131535001D02*
X166333001Y-131223999D01*
X166624000Y-132080000D02*
X166624000Y-131826000D01*
X165956001Y-130846999D02*
X166144501Y-131035499D01*
X206756000Y-130116588D02*
X206756000Y-131318000D01*
X202210402Y-125570990D02*
X206756000Y-130116588D01*
X200241883Y-125570989D02*
X202210402Y-125570990D01*
X203548001Y-130846999D02*
X204498501Y-131797499D01*
X242344501Y-131797499D02*
X241648001Y-131100999D01*
X242824000Y-132276998D02*
X242344501Y-131797499D01*
X240310402Y-125062990D02*
X238987599Y-125062989D01*
X243332000Y-128084588D02*
X240310402Y-125062990D01*
X243332000Y-130302000D02*
X243332000Y-128084588D01*
X165862000Y-129032000D02*
X168275000Y-131445000D01*
X165862000Y-126746000D02*
X165862000Y-129032000D01*
X165194989Y-126078989D02*
X165862000Y-126746000D01*
X161544000Y-126746000D02*
X162211011Y-126078989D01*
X161290000Y-127000000D02*
X161544000Y-126746000D01*
X161036000Y-126746000D02*
X161544000Y-126746000D01*
X161163000Y-126873000D02*
X161163000Y-127127000D01*
X161163000Y-127127000D02*
X161036000Y-127254000D01*
X161036000Y-127254000D02*
X161290000Y-127000000D01*
X161036000Y-126746000D02*
X161163000Y-126873000D01*
X161163000Y-126873000D02*
X161290000Y-127000000D01*
X161036000Y-126746000D02*
X161036000Y-127254000D01*
X160202001Y-125912001D02*
X161163000Y-126873000D01*
X160202001Y-122262000D02*
X160202001Y-125912001D01*
X198628000Y-121158000D02*
X198628000Y-125222000D01*
X199644000Y-125984000D02*
X199736436Y-126076436D01*
X199390000Y-125984000D02*
X199644000Y-125984000D01*
X199609436Y-126203436D02*
X199736436Y-126076436D01*
X198628000Y-125222000D02*
X199390000Y-125984000D01*
X199390000Y-125984000D02*
X199609436Y-126203436D01*
X199390000Y-126422872D02*
X199355436Y-126457436D01*
X199390000Y-125984000D02*
X199390000Y-126422872D01*
X199355436Y-126457436D02*
X199609436Y-126203436D01*
X199828872Y-125984000D02*
X199863436Y-125949436D01*
X199390000Y-125984000D02*
X199828872Y-125984000D01*
X199863436Y-125949436D02*
X200241883Y-125570989D01*
X199736436Y-126076436D02*
X199863436Y-125949436D01*
X236474000Y-121158000D02*
X236474000Y-125730000D01*
X237617000Y-126365000D02*
X237651294Y-126399294D01*
X237109000Y-126365000D02*
X237617000Y-126365000D01*
X237651294Y-126399294D02*
X237397294Y-126653294D01*
X238987599Y-125062989D02*
X237651294Y-126399294D01*
X236474000Y-125730000D02*
X237109000Y-126365000D01*
X237109000Y-126365000D02*
X237397294Y-126653294D01*
X237109000Y-126941588D02*
X237016294Y-127034294D01*
X237109000Y-126365000D02*
X237109000Y-126941588D01*
X237397294Y-126653294D02*
X237016294Y-127034294D01*
X169740588Y-132910588D02*
X168275000Y-131445000D01*
X172435842Y-132910588D02*
X169740588Y-132910588D01*
X173733264Y-134208010D02*
X172435842Y-132910588D01*
X191604862Y-134208010D02*
X173733264Y-134208010D01*
X199355436Y-126457436D02*
X191604862Y-134208010D01*
X207254390Y-131318000D02*
X206756000Y-131318000D01*
X210844684Y-134908294D02*
X207254390Y-131318000D01*
X229142294Y-134908294D02*
X210844684Y-134908294D01*
X237016294Y-127034294D02*
X229142294Y-134908294D01*
X153887000Y-134403000D02*
X154178000Y-134112000D01*
X139954000Y-134403000D02*
X153887000Y-134403000D01*
X154178000Y-134112000D02*
X161036000Y-127254000D01*
X53730010Y-139455010D02*
X52705000Y-138430000D01*
X53730010Y-141544012D02*
X53730010Y-139455010D01*
X129286000Y-153416000D02*
X128560999Y-154141001D01*
X65314999Y-147102999D02*
X59288997Y-147102999D01*
X128560999Y-154141001D02*
X126201001Y-154141001D01*
X126201001Y-154141001D02*
X125926010Y-153866010D01*
X125926010Y-153866010D02*
X116135990Y-153866010D01*
X116135990Y-153866010D02*
X113538000Y-156464000D01*
X113538000Y-156464000D02*
X109599589Y-156463999D01*
X107445395Y-154309805D02*
X99191805Y-154309805D01*
X109599589Y-156463999D02*
X107445395Y-154309805D01*
X99191805Y-154309805D02*
X98425000Y-153543000D01*
X98425000Y-153543000D02*
X71755000Y-153543000D01*
X71755000Y-153543000D02*
X65314999Y-147102999D01*
X59288997Y-147102999D02*
X53730010Y-141544012D01*
X139954000Y-142748000D02*
X139954000Y-138938000D01*
X129286000Y-153416000D02*
X139954000Y-142748000D01*
X204724000Y-132022998D02*
X204498501Y-131797499D01*
X204724000Y-141478000D02*
X204724000Y-132022998D01*
X166624000Y-141224000D02*
X166878000Y-141478000D01*
X166624000Y-132080000D02*
X166624000Y-141224000D01*
%TO.N,SDA1*%
X56711010Y-136709990D02*
X56711010Y-134433296D01*
X56711010Y-134433296D02*
X57281653Y-133862653D01*
X54991000Y-138430000D02*
X56711010Y-136709990D01*
X58039000Y-128524000D02*
X57277000Y-127762000D01*
X58039000Y-130302000D02*
X58039000Y-128524000D01*
X57681652Y-133462654D02*
X57281653Y-133862653D01*
X64075758Y-133462654D02*
X57681652Y-133462654D01*
X64740412Y-132798000D02*
X64075758Y-133462654D01*
X65361000Y-132798000D02*
X64740412Y-132798000D01*
X67350000Y-132798000D02*
X65361000Y-132798000D01*
X65361000Y-132798000D02*
X64746716Y-132798000D01*
X167226001Y-142203001D02*
X165063001Y-142203001D01*
X169106010Y-133360598D02*
X169106010Y-140322992D01*
X165063001Y-142203001D02*
X164338000Y-141478000D01*
X169106010Y-140322992D02*
X167226001Y-142203001D01*
X127471001Y-142965001D02*
X126746000Y-142240000D01*
X130011001Y-142588001D02*
X129634001Y-142965001D01*
X130011001Y-141891999D02*
X130011001Y-142588001D01*
X129503001Y-141383999D02*
X130011001Y-141891999D01*
X129503001Y-131985999D02*
X129503001Y-141383999D01*
X129634001Y-142965001D02*
X127471001Y-142965001D01*
X128200002Y-130683000D02*
X129503001Y-131985999D01*
X125956200Y-130683000D02*
X128200002Y-130683000D01*
X164686001Y-126528999D02*
X165063001Y-126905999D01*
X162465999Y-126528999D02*
X164686001Y-126528999D01*
X153866998Y-135128000D02*
X162465999Y-126528999D01*
X138938000Y-135128000D02*
X153866998Y-135128000D01*
X205072001Y-142203001D02*
X206698010Y-140576992D01*
X203163001Y-142203001D02*
X205072001Y-142203001D01*
X202438000Y-141478000D02*
X203163001Y-142203001D01*
X243332000Y-131572000D02*
X242410989Y-130650989D01*
X243332000Y-132137002D02*
X243332000Y-131572000D01*
X243549001Y-132354003D02*
X243332000Y-132137002D01*
X243549001Y-141318001D02*
X243549001Y-132354003D01*
X243172001Y-141695001D02*
X243549001Y-141318001D01*
X241009001Y-141695001D02*
X243172001Y-141695001D01*
X240538000Y-141224000D02*
X241009001Y-141695001D01*
X207067990Y-132530010D02*
X206698010Y-132899990D01*
X206698010Y-132899990D02*
X206698010Y-132530010D01*
X206698010Y-140576992D02*
X206698010Y-132899990D01*
X207067990Y-132530010D02*
X206698010Y-132530010D01*
X165063001Y-129503001D02*
X165608000Y-130048000D01*
X165063001Y-129249001D02*
X165063001Y-129503001D01*
X165063001Y-126905999D02*
X165063001Y-129249001D01*
X167097706Y-130972021D02*
X167097706Y-131352294D01*
X166173685Y-130048000D02*
X167097706Y-130972021D01*
X165608000Y-130048000D02*
X166173685Y-130048000D01*
X167097706Y-131352294D02*
X169106010Y-133360598D01*
X164407315Y-130683000D02*
X164056200Y-130683000D01*
X165042315Y-130048000D02*
X164407315Y-130683000D01*
X165608000Y-130048000D02*
X165042315Y-130048000D01*
X167640000Y-126326000D02*
X167640000Y-127000000D01*
X163576000Y-122262000D02*
X167640000Y-126326000D01*
X167640000Y-127000000D02*
X167640000Y-129540000D01*
X203708000Y-129540000D02*
X204724000Y-130556000D01*
X203708000Y-128778000D02*
X203708000Y-129540000D01*
X204724000Y-130556000D02*
X204564990Y-130396990D01*
X206698010Y-132530010D02*
X204724000Y-130556000D01*
X203708000Y-127704998D02*
X202212501Y-126209499D01*
X203708000Y-128778000D02*
X203708000Y-127704998D01*
X202212501Y-126209499D02*
X202665599Y-126662597D01*
X202175199Y-130683000D02*
X202946000Y-129912199D01*
X201521200Y-130683000D02*
X202175199Y-130683000D01*
X202946000Y-129540000D02*
X203708000Y-128778000D01*
X202946000Y-129912199D02*
X202946000Y-129540000D01*
X241554000Y-129794000D02*
X242410989Y-130650989D01*
X241554000Y-128524000D02*
X241554000Y-129794000D01*
X240275199Y-130683000D02*
X241046000Y-129912199D01*
X239621200Y-130683000D02*
X240275199Y-130683000D01*
X241046000Y-129032000D02*
X241554000Y-128524000D01*
X241046000Y-129912199D02*
X241046000Y-129032000D01*
X240124001Y-125512999D02*
X241554000Y-126942998D01*
X239173999Y-125512999D02*
X240124001Y-125512999D01*
X241554000Y-126942998D02*
X241554000Y-128524000D01*
X207067990Y-132530010D02*
X207714010Y-132530010D01*
X202024001Y-126020999D02*
X202212501Y-126209499D01*
X200428283Y-126020999D02*
X202024001Y-126020999D01*
X173736000Y-134874000D02*
X191575282Y-134874000D01*
X172222598Y-133360598D02*
X173736000Y-134874000D01*
X191575282Y-134874000D02*
X200428283Y-126020999D01*
X169106010Y-133360598D02*
X172222598Y-133360598D01*
X211034479Y-135734499D02*
X228952499Y-135734499D01*
X210185000Y-135001000D02*
X210300980Y-135001000D01*
X228952499Y-135734499D02*
X239173999Y-125512999D01*
X210300980Y-135001000D02*
X211034479Y-135734499D01*
X207714010Y-132530010D02*
X210185000Y-135001000D01*
X56324500Y-139763500D02*
X54991000Y-138430000D01*
X56324500Y-143446500D02*
X56324500Y-139763500D01*
X71941400Y-153092990D02*
X65501399Y-146652989D01*
X98611400Y-153092990D02*
X71941400Y-153092990D01*
X65501399Y-146652989D02*
X59530989Y-146652989D01*
X99378205Y-153859795D02*
X98611400Y-153092990D01*
X109785990Y-156013990D02*
X107631795Y-153859795D01*
X113226010Y-156013990D02*
X109785990Y-156013990D01*
X59530989Y-146652989D02*
X56324500Y-143446500D01*
X107631795Y-153859795D02*
X99378205Y-153859795D01*
X115824000Y-153416000D02*
X113226010Y-156013990D01*
X126746000Y-153416000D02*
X115824000Y-153416000D01*
X138938000Y-141281002D02*
X138938000Y-138938000D01*
X127528003Y-152690999D02*
X138938000Y-141281002D01*
X127471001Y-152690999D02*
X127528003Y-152690999D01*
X126746000Y-153416000D02*
X127471001Y-152690999D01*
%TO.N,/STM32L151RET6TR/FTDI_RTS*%
X70775000Y-129250000D02*
X69469000Y-130556000D01*
X70775000Y-124373000D02*
X70775000Y-129250000D01*
X66261999Y-121760999D02*
X67945000Y-123444000D01*
X66261999Y-119767997D02*
X66261999Y-121760999D01*
X64617992Y-118123990D02*
X66261999Y-119767997D01*
X56755010Y-118123990D02*
X64617992Y-118123990D01*
X54737000Y-120142000D02*
X56755010Y-118123990D01*
%TO.N,/STM32L151RET6TR/FTDI_RXD*%
X57746002Y-120142000D02*
X57277000Y-120142000D01*
X66489298Y-131318000D02*
X66509298Y-131298000D01*
X66509298Y-131298000D02*
X67350000Y-131298000D01*
X61633998Y-131318000D02*
X66489298Y-131318000D01*
X58566499Y-128250501D02*
X61633998Y-131318000D01*
X58566499Y-123336499D02*
X58566499Y-128250501D01*
X57277000Y-122047000D02*
X58566499Y-123336499D01*
X57277000Y-120142000D02*
X57277000Y-122047000D01*
%TO.N,/STM32L151RET6TR/FTDI_TXD*%
X63107998Y-130798000D02*
X61087000Y-128777002D01*
X67350000Y-130798000D02*
X63107998Y-130798000D01*
X59817000Y-121539000D02*
X61087000Y-122809000D01*
X59817000Y-120142000D02*
X59817000Y-121539000D01*
X61087000Y-128777002D02*
X61087000Y-122809000D01*
%TO.N,/STM32L151RET6TR/FTDI_CTS*%
X71275000Y-124373000D02*
X71275000Y-129569002D01*
X71275000Y-130020000D02*
X69723000Y-131572000D01*
X71275000Y-129569002D02*
X71275000Y-130020000D01*
%TO.N,/STM32L151RET6TR/SW0*%
X62611000Y-125730998D02*
X62611000Y-125730000D01*
X66178002Y-129298000D02*
X62611000Y-125730998D01*
X67350000Y-129298000D02*
X66178002Y-129298000D01*
X53975000Y-125730000D02*
X52197000Y-123952000D01*
X57023000Y-125730000D02*
X53975000Y-125730000D01*
%TO.N,/STM32L151RET6TR/SWCLK*%
X62611998Y-123952000D02*
X62357000Y-123952000D01*
X64957998Y-126298000D02*
X62611998Y-123952000D01*
X67350000Y-126298000D02*
X64957998Y-126298000D01*
%TO.N,/STM32L151RET6TR/SWDAT*%
X70275000Y-125350112D02*
X70275000Y-124373000D01*
X57277000Y-123952000D02*
X56101999Y-122776999D01*
X56101999Y-122776999D02*
X56101999Y-119577999D01*
X56101999Y-119577999D02*
X57105999Y-118573999D01*
X57105999Y-118573999D02*
X59988001Y-118573999D01*
X59988001Y-118573999D02*
X61087000Y-119672998D01*
X61087000Y-119672998D02*
X61087000Y-120611002D01*
X61087000Y-120611002D02*
X62439999Y-121964001D01*
X69702092Y-125923020D02*
X70275000Y-125350112D01*
X62439999Y-121964001D02*
X65194003Y-121964001D01*
X67309501Y-124083541D02*
X69148980Y-125923020D01*
X67309501Y-124079499D02*
X67309501Y-124083541D01*
X69148980Y-125923020D02*
X69702092Y-125923020D01*
X65194003Y-121964001D02*
X67309501Y-124079499D01*
%TO.N,/STM32L151RET6TR/UART_RX*%
X85979000Y-130312010D02*
X85979000Y-130302000D01*
X81369500Y-134921510D02*
X85979000Y-130312010D01*
X79823510Y-134921510D02*
X81369500Y-134921510D01*
X78700000Y-133798000D02*
X79823510Y-134921510D01*
%TO.N,/STM32L151RET6TR/UART_TX*%
X83566000Y-135255000D02*
X85979000Y-132842000D01*
X82448000Y-136373000D02*
X83566000Y-135255000D01*
X77425000Y-136373000D02*
X82448000Y-136373000D01*
X76775000Y-135723000D02*
X77425000Y-136373000D01*
%TO.N,SCL2*%
X72517000Y-118746410D02*
X72517000Y-121920000D01*
X69663600Y-115893010D02*
X72517000Y-118746410D01*
X57854010Y-115893010D02*
X69663600Y-115893010D01*
X56515000Y-114554000D02*
X57854010Y-115893010D01*
%TO.N,SDA2*%
X73275000Y-118868000D02*
X73275000Y-124373000D01*
X69850000Y-115443000D02*
X73275000Y-118868000D01*
X59944000Y-115443000D02*
X69850000Y-115443000D01*
X59055000Y-114554000D02*
X59944000Y-115443000D01*
%TO.N,/STM32L151RET6TR/PIN41*%
X72775000Y-125980000D02*
X72771000Y-125984000D01*
X72775000Y-124373000D02*
X72775000Y-125980000D01*
%TO.N,/STM32L151RET6TR/PIN29*%
X77503315Y-127798000D02*
X78700000Y-127798000D01*
X75819000Y-129482315D02*
X77503315Y-127798000D01*
X75819000Y-130048000D02*
X75819000Y-129482315D01*
%TO.N,/STM32L151RET6TR/PIN30*%
X77859298Y-127298000D02*
X78700000Y-127298000D01*
X76987315Y-127298000D02*
X78700000Y-127298000D01*
X74803000Y-129482315D02*
X76987315Y-127298000D01*
X74803000Y-130048000D02*
X74803000Y-129482315D01*
%TO.N,/STM32L151RET6TR/PC8*%
X73750010Y-123915010D02*
X73775000Y-123940000D01*
X73750010Y-120867010D02*
X73750010Y-123915010D01*
X74004001Y-120613019D02*
X73750010Y-120867010D01*
X74004001Y-118835001D02*
X74004001Y-120613019D01*
X73775000Y-123940000D02*
X73775000Y-124373000D01*
X69723000Y-114554000D02*
X74004001Y-118835001D01*
X61595000Y-114554000D02*
X69723000Y-114554000D01*
%TO.N,/STM32L151RET6TR/PA9*%
X72275000Y-122751002D02*
X72275000Y-124373000D01*
X71755000Y-122231002D02*
X72275000Y-122751002D01*
X69477200Y-116343020D02*
X71755000Y-118620820D01*
X71755000Y-118620820D02*
X71755000Y-122231002D01*
X55764020Y-116343020D02*
X69477200Y-116343020D01*
X53975000Y-114554000D02*
X55764020Y-116343020D01*
%TO.N,/STM32L151RET6TR/PA10*%
X71775000Y-122887412D02*
X71775000Y-124373000D01*
X71304990Y-122417402D02*
X71775000Y-122887412D01*
X69290800Y-116793030D02*
X71304990Y-118807220D01*
X53928030Y-116793030D02*
X69290800Y-116793030D01*
X71304990Y-118807220D02*
X71304990Y-122417402D01*
X51435000Y-114300000D02*
X53928030Y-116793030D01*
D24*
%TO.N,Net-(C5-Pad2)*%
X92837000Y-138582998D02*
X92837000Y-138377000D01*
X94157501Y-139903499D02*
X92837000Y-138582998D01*
X94818499Y-139903499D02*
X94157501Y-139903499D01*
X95123000Y-142054000D02*
X95123000Y-140208000D01*
X95123000Y-140208000D02*
X94818499Y-139903499D01*
%TO.N,Net-(C5-Pad1)*%
X92837000Y-136652000D02*
X94869000Y-136652000D01*
%TO.N,Net-(JP1-Pad1)*%
X96261010Y-150602010D02*
X98158990Y-150602010D01*
X95011000Y-149352000D02*
X96261010Y-150602010D01*
X98158990Y-150602010D02*
X99409000Y-149352000D01*
%TO.N,BUCK_33_EN*%
X93711000Y-149352000D02*
X93223000Y-148864000D01*
X93223000Y-148864000D02*
X93223000Y-145474000D01*
D23*
%TO.N,BUCK_5_EN*%
X69775000Y-134314000D02*
X69775000Y-135723000D01*
X69977000Y-134112000D02*
X69775000Y-134314000D01*
%TO.N,XSHUT_3*%
X235230999Y-136932999D02*
X239522000Y-141224000D01*
X235230999Y-130442693D02*
X235230999Y-136932999D01*
X236590691Y-129083001D02*
X235230999Y-130442693D01*
X237390800Y-129083001D02*
X236590691Y-129083001D01*
X75927202Y-138349970D02*
X74275000Y-136697768D01*
X74275000Y-136697768D02*
X74275000Y-135723000D01*
X79553197Y-138349970D02*
X75927202Y-138349970D01*
X84591306Y-143388076D02*
X79553197Y-138349970D01*
X84591306Y-150866694D02*
X84591306Y-143388076D01*
X235204000Y-121158000D02*
X235204000Y-127508000D01*
X125984000Y-143764000D02*
X124206000Y-141986000D01*
X129794000Y-143764000D02*
X125984000Y-143764000D01*
X135832010Y-137725990D02*
X129794000Y-143764000D01*
X149860988Y-137725990D02*
X135832010Y-137725990D01*
X157131999Y-144997001D02*
X149860988Y-137725990D01*
X239522000Y-141224000D02*
X237236000Y-141224000D01*
X158278999Y-144997001D02*
X157131999Y-144997001D01*
X236510999Y-140498999D02*
X230668999Y-140498999D01*
X230668999Y-140498999D02*
X226822000Y-136652000D01*
X195682007Y-142653009D02*
X190188998Y-137160000D01*
X237236000Y-141224000D02*
X236510999Y-140498999D01*
X226822000Y-136652000D02*
X211259412Y-136652000D01*
X167768410Y-143764000D02*
X159512000Y-143764000D01*
X211259412Y-136652000D02*
X205258403Y-142653009D01*
X205258403Y-142653009D02*
X195682007Y-142653009D01*
X190188998Y-137160000D02*
X174372410Y-137160000D01*
X174372410Y-137160000D02*
X167768410Y-143764000D01*
X159512000Y-143764000D02*
X158278999Y-144997001D01*
D24*
%TO.N,Net-(R18-Pad1)*%
X90297000Y-139732000D02*
X91059000Y-140494000D01*
X90297000Y-138398000D02*
X90297000Y-139732000D01*
%TO.N,Net-(R25-Pad1)*%
X91059000Y-142494000D02*
X91059000Y-144542000D01*
X91499000Y-142054000D02*
X91059000Y-142494000D01*
X93223000Y-142054000D02*
X91499000Y-142054000D01*
D23*
%TO.N,/OUT3.3*%
X98465000Y-137668000D02*
X95853000Y-137668000D01*
D24*
X97953000Y-142494000D02*
X96901000Y-142494000D01*
X96901000Y-142494000D02*
X96647000Y-142240000D01*
X99187000Y-140462000D02*
X99187000Y-142240000D01*
X99187000Y-142240000D02*
X99187000Y-144526000D01*
X98933000Y-140208000D02*
X99187000Y-140462000D01*
X96647000Y-144272000D02*
X96647000Y-142748000D01*
X96901000Y-140208000D02*
X98933000Y-140208000D01*
X96647000Y-140462000D02*
X96901000Y-140208000D01*
X96647000Y-142240000D02*
X96647000Y-140462000D01*
X98933000Y-144780000D02*
X98425000Y-144780000D01*
X96647000Y-144780000D02*
X96647000Y-144272000D01*
X99187000Y-144526000D02*
X98933000Y-144780000D01*
X98425000Y-144780000D02*
X96647000Y-144780000D01*
X98465000Y-137668000D02*
X99187000Y-137668000D01*
X99187000Y-137668000D02*
X100203000Y-138684000D01*
X100203000Y-138684000D02*
X96647000Y-138684000D01*
X96647000Y-138684000D02*
X96647000Y-136906000D01*
X94869000Y-138652000D02*
X94869000Y-138176000D01*
X95139000Y-137906000D02*
X95615000Y-137906000D01*
X94869000Y-138176000D02*
X95139000Y-137906000D01*
D23*
X95853000Y-137668000D02*
X95615000Y-137906000D01*
D24*
X94869000Y-138652000D02*
X95155000Y-138652000D01*
X95155000Y-138652000D02*
X95631000Y-138176000D01*
X94869000Y-138964037D02*
X94869000Y-138652000D01*
X95350963Y-139446000D02*
X94869000Y-138964037D01*
X95350963Y-139446000D02*
X95350963Y-139218037D01*
X95350963Y-139218037D02*
X95377000Y-139192000D01*
X95377000Y-139192000D02*
X95631000Y-139192000D01*
X95631000Y-139192000D02*
X95885000Y-138938000D01*
X95123000Y-145474000D02*
X95123000Y-144526000D01*
X95123000Y-144526000D02*
X95377000Y-144272000D01*
X95377000Y-144272000D02*
X95377000Y-145034000D01*
X95377000Y-145034000D02*
X95631000Y-145288000D01*
X95631000Y-145288000D02*
X95631000Y-146223991D01*
X95631000Y-146223991D02*
X95631000Y-144272000D01*
D23*
%TO.N,GPIOI_3*%
X239776000Y-128928201D02*
X239621200Y-129083001D01*
X239776000Y-126238000D02*
X239776000Y-128928201D01*
X75275000Y-119469590D02*
X65025410Y-109220000D01*
X75275000Y-124373000D02*
X75275000Y-119469590D01*
X62103000Y-109220000D02*
X59817000Y-106934000D01*
X65025410Y-109220000D02*
X62103000Y-109220000D01*
X75275000Y-126239000D02*
X75528000Y-126492000D01*
X75275000Y-124373000D02*
X75275000Y-126239000D01*
X227076000Y-137668000D02*
X230632000Y-141224000D01*
X210879822Y-137668000D02*
X227076000Y-137668000D01*
X205444804Y-143103018D02*
X210879822Y-137668000D01*
X195495607Y-143103019D02*
X205444804Y-143103018D01*
X230632000Y-141224000D02*
X233934000Y-141224000D01*
X121666000Y-141986000D02*
X123952000Y-144272000D01*
X129032000Y-144272000D02*
X129089990Y-144214010D01*
X129089990Y-144214010D02*
X129980401Y-144214009D01*
X136018410Y-138176000D02*
X149606000Y-138176000D01*
X123952000Y-144272000D02*
X129032000Y-144272000D01*
X149606000Y-138176000D02*
X156877010Y-145447010D01*
X156877010Y-145447010D02*
X158465400Y-145447010D01*
X158465400Y-145447010D02*
X159698400Y-144214010D01*
X159698400Y-144214010D02*
X167954810Y-144214010D01*
X167954810Y-144214010D02*
X174246820Y-137922000D01*
X129980401Y-144214009D02*
X136018410Y-138176000D01*
X190314588Y-137922000D02*
X195495607Y-143103019D01*
X174246820Y-137922000D02*
X190314588Y-137922000D01*
%TD*%
D26*
%TO.N,/OUT3.3*%
X96388000Y-137459250D02*
X96469750Y-137541000D01*
X98338000Y-137541000D01*
X98338000Y-137521000D01*
X98592000Y-137521000D01*
X98592000Y-137541000D01*
X98612000Y-137541000D01*
X98612000Y-137795000D01*
X98592000Y-137795000D01*
X98592000Y-138813250D01*
X98673750Y-138895000D01*
X100215000Y-138896582D01*
X100279103Y-138890268D01*
X100330000Y-138874829D01*
X100330000Y-145415000D01*
X96647000Y-145415000D01*
X96622224Y-145417440D01*
X96598399Y-145424667D01*
X96576443Y-145436403D01*
X96557197Y-145452197D01*
X96541403Y-145471443D01*
X96529667Y-145493399D01*
X96522440Y-145517224D01*
X96520000Y-145542000D01*
X96520000Y-145678814D01*
X96516328Y-145681828D01*
X96431877Y-145784731D01*
X96369125Y-145902132D01*
X96330482Y-146029520D01*
X96317434Y-146161999D01*
X96317434Y-146177000D01*
X95775988Y-146177000D01*
X95775000Y-145682750D01*
X95693250Y-145601000D01*
X95250000Y-145601000D01*
X95250000Y-145621000D01*
X94996000Y-145621000D01*
X94996000Y-144228750D01*
X95250000Y-144228750D01*
X95250000Y-145347000D01*
X95693250Y-145347000D01*
X95775000Y-145265250D01*
X95776342Y-144594000D01*
X96424418Y-144594000D01*
X96430732Y-144658103D01*
X96449430Y-144719743D01*
X96479794Y-144776550D01*
X96520657Y-144826343D01*
X96570450Y-144867206D01*
X96627257Y-144897570D01*
X96688897Y-144916268D01*
X96753000Y-144922582D01*
X97744250Y-144921000D01*
X97826000Y-144839250D01*
X97826000Y-142621000D01*
X98080000Y-142621000D01*
X98080000Y-144839250D01*
X98161750Y-144921000D01*
X99153000Y-144922582D01*
X99217103Y-144916268D01*
X99278743Y-144897570D01*
X99335550Y-144867206D01*
X99385343Y-144826343D01*
X99426206Y-144776550D01*
X99456570Y-144719743D01*
X99475268Y-144658103D01*
X99481582Y-144594000D01*
X99480000Y-142702750D01*
X99398250Y-142621000D01*
X98080000Y-142621000D01*
X97826000Y-142621000D01*
X96507750Y-142621000D01*
X96426000Y-142702750D01*
X96424418Y-144594000D01*
X95776342Y-144594000D01*
X95776582Y-144474000D01*
X95770268Y-144409897D01*
X95751570Y-144348257D01*
X95721206Y-144291450D01*
X95680343Y-144241657D01*
X95630550Y-144200794D01*
X95573743Y-144170430D01*
X95512103Y-144151732D01*
X95448000Y-144145418D01*
X95331750Y-144147000D01*
X95250000Y-144228750D01*
X94996000Y-144228750D01*
X94996000Y-143382582D01*
X95448000Y-143382582D01*
X95512103Y-143376268D01*
X95573743Y-143357570D01*
X95630550Y-143327206D01*
X95680343Y-143286343D01*
X95721206Y-143236550D01*
X95751570Y-143179743D01*
X95770268Y-143118103D01*
X95776582Y-143054000D01*
X95776582Y-141054000D01*
X95770268Y-140989897D01*
X95751570Y-140928257D01*
X95721206Y-140871450D01*
X95700000Y-140845610D01*
X95700000Y-140394000D01*
X96424418Y-140394000D01*
X96426000Y-142285250D01*
X96507750Y-142367000D01*
X97826000Y-142367000D01*
X97826000Y-140148750D01*
X98080000Y-140148750D01*
X98080000Y-142367000D01*
X99398250Y-142367000D01*
X99480000Y-142285250D01*
X99481582Y-140394000D01*
X99475268Y-140329897D01*
X99456570Y-140268257D01*
X99426206Y-140211450D01*
X99385343Y-140161657D01*
X99335550Y-140120794D01*
X99278743Y-140090430D01*
X99217103Y-140071732D01*
X99153000Y-140065418D01*
X98161750Y-140067000D01*
X98080000Y-140148750D01*
X97826000Y-140148750D01*
X97744250Y-140067000D01*
X96753000Y-140065418D01*
X96688897Y-140071732D01*
X96627257Y-140090430D01*
X96570450Y-140120794D01*
X96520657Y-140161657D01*
X96479794Y-140211450D01*
X96449430Y-140268257D01*
X96430732Y-140329897D01*
X96424418Y-140394000D01*
X95700000Y-140394000D01*
X95700000Y-140236328D01*
X95702790Y-140207999D01*
X95700000Y-140179670D01*
X95700000Y-140179664D01*
X95691650Y-140094888D01*
X95658657Y-139986124D01*
X95605079Y-139885885D01*
X95532974Y-139798026D01*
X95510957Y-139779957D01*
X95310751Y-139579750D01*
X95569000Y-139580582D01*
X95633103Y-139574268D01*
X95694743Y-139555570D01*
X95751550Y-139525206D01*
X95801343Y-139484343D01*
X95842206Y-139434550D01*
X95872570Y-139377743D01*
X95891268Y-139316103D01*
X95897582Y-139252000D01*
X95896000Y-138860750D01*
X95814250Y-138779000D01*
X94996000Y-138779000D01*
X94996000Y-138568000D01*
X96386418Y-138568000D01*
X96392732Y-138632103D01*
X96411430Y-138693743D01*
X96441794Y-138750550D01*
X96482657Y-138800343D01*
X96532450Y-138841206D01*
X96589257Y-138871570D01*
X96650897Y-138890268D01*
X96715000Y-138896582D01*
X98256250Y-138895000D01*
X98338000Y-138813250D01*
X98338000Y-137795000D01*
X96469750Y-137795000D01*
X96388000Y-137876750D01*
X96386418Y-138568000D01*
X94996000Y-138568000D01*
X94996000Y-138525000D01*
X95814250Y-138525000D01*
X95896000Y-138443250D01*
X95897582Y-138052000D01*
X95891268Y-137987897D01*
X95872570Y-137926257D01*
X95842206Y-137869450D01*
X95801343Y-137819657D01*
X95751550Y-137778794D01*
X95694743Y-137748430D01*
X95633103Y-137729732D01*
X95569000Y-137723418D01*
X95077750Y-137725000D01*
X94996002Y-137806748D01*
X94996002Y-137725000D01*
X94996000Y-137725000D01*
X94996000Y-137580582D01*
X95319001Y-137580582D01*
X95431877Y-137569465D01*
X95540414Y-137536540D01*
X95640443Y-137483074D01*
X95728120Y-137411120D01*
X95800074Y-137323443D01*
X95853540Y-137223414D01*
X95886465Y-137114877D01*
X95897582Y-137002001D01*
X95897582Y-136779000D01*
X96386443Y-136779000D01*
X96388000Y-137459250D01*
%TA.AperFunction,Conductor*%
D27*
G36*
X96388000Y-137459250D02*
G01*
X96469750Y-137541000D01*
X98338000Y-137541000D01*
X98338000Y-137521000D01*
X98592000Y-137521000D01*
X98592000Y-137541000D01*
X98612000Y-137541000D01*
X98612000Y-137795000D01*
X98592000Y-137795000D01*
X98592000Y-138813250D01*
X98673750Y-138895000D01*
X100215000Y-138896582D01*
X100279103Y-138890268D01*
X100330000Y-138874829D01*
X100330000Y-145415000D01*
X96647000Y-145415000D01*
X96622224Y-145417440D01*
X96598399Y-145424667D01*
X96576443Y-145436403D01*
X96557197Y-145452197D01*
X96541403Y-145471443D01*
X96529667Y-145493399D01*
X96522440Y-145517224D01*
X96520000Y-145542000D01*
X96520000Y-145678814D01*
X96516328Y-145681828D01*
X96431877Y-145784731D01*
X96369125Y-145902132D01*
X96330482Y-146029520D01*
X96317434Y-146161999D01*
X96317434Y-146177000D01*
X95775988Y-146177000D01*
X95775000Y-145682750D01*
X95693250Y-145601000D01*
X95250000Y-145601000D01*
X95250000Y-145621000D01*
X94996000Y-145621000D01*
X94996000Y-144228750D01*
X95250000Y-144228750D01*
X95250000Y-145347000D01*
X95693250Y-145347000D01*
X95775000Y-145265250D01*
X95776342Y-144594000D01*
X96424418Y-144594000D01*
X96430732Y-144658103D01*
X96449430Y-144719743D01*
X96479794Y-144776550D01*
X96520657Y-144826343D01*
X96570450Y-144867206D01*
X96627257Y-144897570D01*
X96688897Y-144916268D01*
X96753000Y-144922582D01*
X97744250Y-144921000D01*
X97826000Y-144839250D01*
X97826000Y-142621000D01*
X98080000Y-142621000D01*
X98080000Y-144839250D01*
X98161750Y-144921000D01*
X99153000Y-144922582D01*
X99217103Y-144916268D01*
X99278743Y-144897570D01*
X99335550Y-144867206D01*
X99385343Y-144826343D01*
X99426206Y-144776550D01*
X99456570Y-144719743D01*
X99475268Y-144658103D01*
X99481582Y-144594000D01*
X99480000Y-142702750D01*
X99398250Y-142621000D01*
X98080000Y-142621000D01*
X97826000Y-142621000D01*
X96507750Y-142621000D01*
X96426000Y-142702750D01*
X96424418Y-144594000D01*
X95776342Y-144594000D01*
X95776582Y-144474000D01*
X95770268Y-144409897D01*
X95751570Y-144348257D01*
X95721206Y-144291450D01*
X95680343Y-144241657D01*
X95630550Y-144200794D01*
X95573743Y-144170430D01*
X95512103Y-144151732D01*
X95448000Y-144145418D01*
X95331750Y-144147000D01*
X95250000Y-144228750D01*
X94996000Y-144228750D01*
X94996000Y-143382582D01*
X95448000Y-143382582D01*
X95512103Y-143376268D01*
X95573743Y-143357570D01*
X95630550Y-143327206D01*
X95680343Y-143286343D01*
X95721206Y-143236550D01*
X95751570Y-143179743D01*
X95770268Y-143118103D01*
X95776582Y-143054000D01*
X95776582Y-141054000D01*
X95770268Y-140989897D01*
X95751570Y-140928257D01*
X95721206Y-140871450D01*
X95700000Y-140845610D01*
X95700000Y-140394000D01*
X96424418Y-140394000D01*
X96426000Y-142285250D01*
X96507750Y-142367000D01*
X97826000Y-142367000D01*
X97826000Y-140148750D01*
X98080000Y-140148750D01*
X98080000Y-142367000D01*
X99398250Y-142367000D01*
X99480000Y-142285250D01*
X99481582Y-140394000D01*
X99475268Y-140329897D01*
X99456570Y-140268257D01*
X99426206Y-140211450D01*
X99385343Y-140161657D01*
X99335550Y-140120794D01*
X99278743Y-140090430D01*
X99217103Y-140071732D01*
X99153000Y-140065418D01*
X98161750Y-140067000D01*
X98080000Y-140148750D01*
X97826000Y-140148750D01*
X97744250Y-140067000D01*
X96753000Y-140065418D01*
X96688897Y-140071732D01*
X96627257Y-140090430D01*
X96570450Y-140120794D01*
X96520657Y-140161657D01*
X96479794Y-140211450D01*
X96449430Y-140268257D01*
X96430732Y-140329897D01*
X96424418Y-140394000D01*
X95700000Y-140394000D01*
X95700000Y-140236328D01*
X95702790Y-140207999D01*
X95700000Y-140179670D01*
X95700000Y-140179664D01*
X95691650Y-140094888D01*
X95658657Y-139986124D01*
X95605079Y-139885885D01*
X95532974Y-139798026D01*
X95510957Y-139779957D01*
X95310751Y-139579750D01*
X95569000Y-139580582D01*
X95633103Y-139574268D01*
X95694743Y-139555570D01*
X95751550Y-139525206D01*
X95801343Y-139484343D01*
X95842206Y-139434550D01*
X95872570Y-139377743D01*
X95891268Y-139316103D01*
X95897582Y-139252000D01*
X95896000Y-138860750D01*
X95814250Y-138779000D01*
X94996000Y-138779000D01*
X94996000Y-138568000D01*
X96386418Y-138568000D01*
X96392732Y-138632103D01*
X96411430Y-138693743D01*
X96441794Y-138750550D01*
X96482657Y-138800343D01*
X96532450Y-138841206D01*
X96589257Y-138871570D01*
X96650897Y-138890268D01*
X96715000Y-138896582D01*
X98256250Y-138895000D01*
X98338000Y-138813250D01*
X98338000Y-137795000D01*
X96469750Y-137795000D01*
X96388000Y-137876750D01*
X96386418Y-138568000D01*
X94996000Y-138568000D01*
X94996000Y-138525000D01*
X95814250Y-138525000D01*
X95896000Y-138443250D01*
X95897582Y-138052000D01*
X95891268Y-137987897D01*
X95872570Y-137926257D01*
X95842206Y-137869450D01*
X95801343Y-137819657D01*
X95751550Y-137778794D01*
X95694743Y-137748430D01*
X95633103Y-137729732D01*
X95569000Y-137723418D01*
X95077750Y-137725000D01*
X94996002Y-137806748D01*
X94996002Y-137725000D01*
X94996000Y-137725000D01*
X94996000Y-137580582D01*
X95319001Y-137580582D01*
X95431877Y-137569465D01*
X95540414Y-137536540D01*
X95640443Y-137483074D01*
X95728120Y-137411120D01*
X95800074Y-137323443D01*
X95853540Y-137223414D01*
X95886465Y-137114877D01*
X95897582Y-137002001D01*
X95897582Y-136779000D01*
X96386443Y-136779000D01*
X96388000Y-137459250D01*
G37*
%TD.AperFunction*%
%TD*%
D26*
%TO.N,+3V3*%
X106680000Y-153035000D02*
X104034856Y-153035000D01*
X104092606Y-152987606D01*
X104195952Y-152861679D01*
X104272745Y-152718010D01*
X104320034Y-152562120D01*
X104336001Y-152400000D01*
X104320034Y-152237880D01*
X104272745Y-152081990D01*
X104195952Y-151938321D01*
X104092606Y-151812394D01*
X103966679Y-151709048D01*
X103823010Y-151632255D01*
X103667120Y-151584966D01*
X103545624Y-151573000D01*
X102779564Y-151573000D01*
X102698443Y-151506426D01*
X102598414Y-151452960D01*
X102489877Y-151420035D01*
X102377001Y-151408918D01*
X101346000Y-151408918D01*
X101346000Y-150264894D01*
X101518250Y-150264500D01*
X101600000Y-150182750D01*
X101600000Y-149402000D01*
X101854000Y-149402000D01*
X101854000Y-150182750D01*
X101935750Y-150264500D01*
X102627000Y-150266082D01*
X102691103Y-150259768D01*
X102752743Y-150241070D01*
X102809550Y-150210706D01*
X102859343Y-150169843D01*
X102900206Y-150120050D01*
X102930570Y-150063243D01*
X102949268Y-150001603D01*
X102955582Y-149937500D01*
X102954000Y-149483750D01*
X102872250Y-149402000D01*
X101854000Y-149402000D01*
X101600000Y-149402000D01*
X101580000Y-149402000D01*
X101580000Y-149148000D01*
X101600000Y-149148000D01*
X101600000Y-148367250D01*
X101854000Y-148367250D01*
X101854000Y-149148000D01*
X102872250Y-149148000D01*
X102954000Y-149066250D01*
X102955582Y-148612500D01*
X102949268Y-148548397D01*
X102930570Y-148486757D01*
X102900206Y-148429950D01*
X102859343Y-148380157D01*
X102809550Y-148339294D01*
X102752743Y-148308930D01*
X102691103Y-148290232D01*
X102627000Y-148283918D01*
X101935750Y-148285500D01*
X101854000Y-148367250D01*
X101600000Y-148367250D01*
X101518250Y-148285500D01*
X101346000Y-148285106D01*
X101346000Y-147879015D01*
X101355620Y-147871120D01*
X101427574Y-147783443D01*
X101481040Y-147683414D01*
X101513965Y-147574877D01*
X101525082Y-147462001D01*
X101525082Y-147389000D01*
X102043975Y-147389000D01*
X102144636Y-147456259D01*
X102276942Y-147511062D01*
X102417397Y-147539000D01*
X102560603Y-147539000D01*
X102701058Y-147511062D01*
X102833364Y-147456259D01*
X102952436Y-147376698D01*
X103053698Y-147275436D01*
X103133259Y-147156364D01*
X103188062Y-147024058D01*
X103216000Y-146883603D01*
X103216000Y-146740397D01*
X103188062Y-146599942D01*
X103133259Y-146467636D01*
X103053698Y-146348564D01*
X102952436Y-146247302D01*
X102833364Y-146167741D01*
X102701058Y-146112938D01*
X102560603Y-146085000D01*
X102417397Y-146085000D01*
X102276942Y-146112938D01*
X102144636Y-146167741D01*
X102043975Y-146235000D01*
X101525082Y-146235000D01*
X101525082Y-146161999D01*
X101513965Y-146049123D01*
X101481040Y-145940586D01*
X101427574Y-145840557D01*
X101355620Y-145752880D01*
X101346000Y-145744985D01*
X101346000Y-145236896D01*
X102407896Y-145236896D01*
X102407896Y-145399800D01*
X102439678Y-145559575D01*
X102502019Y-145710079D01*
X102592524Y-145845529D01*
X102707715Y-145960720D01*
X102843165Y-146051225D01*
X102993669Y-146113566D01*
X103153444Y-146145348D01*
X103316348Y-146145348D01*
X103476123Y-146113566D01*
X103626627Y-146051225D01*
X103762077Y-145960720D01*
X103877268Y-145845529D01*
X103967773Y-145710079D01*
X104030114Y-145559575D01*
X104061896Y-145399800D01*
X104061896Y-145236896D01*
X104030114Y-145077121D01*
X103967773Y-144926617D01*
X103893848Y-144815980D01*
X103926206Y-144776550D01*
X103956570Y-144719743D01*
X103975268Y-144658103D01*
X103981582Y-144594000D01*
X103980000Y-142702750D01*
X103898250Y-142621000D01*
X102580000Y-142621000D01*
X102580000Y-144809910D01*
X102502019Y-144926617D01*
X102439678Y-145077121D01*
X102407896Y-145236896D01*
X101346000Y-145236896D01*
X101346000Y-144922434D01*
X102244250Y-144921000D01*
X102326000Y-144839250D01*
X102326000Y-142621000D01*
X102306000Y-142621000D01*
X102306000Y-142367000D01*
X102326000Y-142367000D01*
X102326000Y-140148750D01*
X102580000Y-140148750D01*
X102580000Y-142367000D01*
X103898250Y-142367000D01*
X103980000Y-142285250D01*
X103981582Y-140394000D01*
X103975268Y-140329897D01*
X103956570Y-140268257D01*
X103926206Y-140211450D01*
X103885343Y-140161657D01*
X103835550Y-140120794D01*
X103778743Y-140090430D01*
X103717103Y-140071732D01*
X103653000Y-140065418D01*
X102661750Y-140067000D01*
X102580000Y-140148750D01*
X102326000Y-140148750D01*
X102244250Y-140067000D01*
X101346000Y-140065566D01*
X101346000Y-139065000D01*
X106680000Y-139065000D01*
X106680000Y-153035000D01*
%TA.AperFunction,Conductor*%
D27*
G36*
X106680000Y-153035000D02*
G01*
X104034856Y-153035000D01*
X104092606Y-152987606D01*
X104195952Y-152861679D01*
X104272745Y-152718010D01*
X104320034Y-152562120D01*
X104336001Y-152400000D01*
X104320034Y-152237880D01*
X104272745Y-152081990D01*
X104195952Y-151938321D01*
X104092606Y-151812394D01*
X103966679Y-151709048D01*
X103823010Y-151632255D01*
X103667120Y-151584966D01*
X103545624Y-151573000D01*
X102779564Y-151573000D01*
X102698443Y-151506426D01*
X102598414Y-151452960D01*
X102489877Y-151420035D01*
X102377001Y-151408918D01*
X101346000Y-151408918D01*
X101346000Y-150264894D01*
X101518250Y-150264500D01*
X101600000Y-150182750D01*
X101600000Y-149402000D01*
X101854000Y-149402000D01*
X101854000Y-150182750D01*
X101935750Y-150264500D01*
X102627000Y-150266082D01*
X102691103Y-150259768D01*
X102752743Y-150241070D01*
X102809550Y-150210706D01*
X102859343Y-150169843D01*
X102900206Y-150120050D01*
X102930570Y-150063243D01*
X102949268Y-150001603D01*
X102955582Y-149937500D01*
X102954000Y-149483750D01*
X102872250Y-149402000D01*
X101854000Y-149402000D01*
X101600000Y-149402000D01*
X101580000Y-149402000D01*
X101580000Y-149148000D01*
X101600000Y-149148000D01*
X101600000Y-148367250D01*
X101854000Y-148367250D01*
X101854000Y-149148000D01*
X102872250Y-149148000D01*
X102954000Y-149066250D01*
X102955582Y-148612500D01*
X102949268Y-148548397D01*
X102930570Y-148486757D01*
X102900206Y-148429950D01*
X102859343Y-148380157D01*
X102809550Y-148339294D01*
X102752743Y-148308930D01*
X102691103Y-148290232D01*
X102627000Y-148283918D01*
X101935750Y-148285500D01*
X101854000Y-148367250D01*
X101600000Y-148367250D01*
X101518250Y-148285500D01*
X101346000Y-148285106D01*
X101346000Y-147879015D01*
X101355620Y-147871120D01*
X101427574Y-147783443D01*
X101481040Y-147683414D01*
X101513965Y-147574877D01*
X101525082Y-147462001D01*
X101525082Y-147389000D01*
X102043975Y-147389000D01*
X102144636Y-147456259D01*
X102276942Y-147511062D01*
X102417397Y-147539000D01*
X102560603Y-147539000D01*
X102701058Y-147511062D01*
X102833364Y-147456259D01*
X102952436Y-147376698D01*
X103053698Y-147275436D01*
X103133259Y-147156364D01*
X103188062Y-147024058D01*
X103216000Y-146883603D01*
X103216000Y-146740397D01*
X103188062Y-146599942D01*
X103133259Y-146467636D01*
X103053698Y-146348564D01*
X102952436Y-146247302D01*
X102833364Y-146167741D01*
X102701058Y-146112938D01*
X102560603Y-146085000D01*
X102417397Y-146085000D01*
X102276942Y-146112938D01*
X102144636Y-146167741D01*
X102043975Y-146235000D01*
X101525082Y-146235000D01*
X101525082Y-146161999D01*
X101513965Y-146049123D01*
X101481040Y-145940586D01*
X101427574Y-145840557D01*
X101355620Y-145752880D01*
X101346000Y-145744985D01*
X101346000Y-145236896D01*
X102407896Y-145236896D01*
X102407896Y-145399800D01*
X102439678Y-145559575D01*
X102502019Y-145710079D01*
X102592524Y-145845529D01*
X102707715Y-145960720D01*
X102843165Y-146051225D01*
X102993669Y-146113566D01*
X103153444Y-146145348D01*
X103316348Y-146145348D01*
X103476123Y-146113566D01*
X103626627Y-146051225D01*
X103762077Y-145960720D01*
X103877268Y-145845529D01*
X103967773Y-145710079D01*
X104030114Y-145559575D01*
X104061896Y-145399800D01*
X104061896Y-145236896D01*
X104030114Y-145077121D01*
X103967773Y-144926617D01*
X103893848Y-144815980D01*
X103926206Y-144776550D01*
X103956570Y-144719743D01*
X103975268Y-144658103D01*
X103981582Y-144594000D01*
X103980000Y-142702750D01*
X103898250Y-142621000D01*
X102580000Y-142621000D01*
X102580000Y-144809910D01*
X102502019Y-144926617D01*
X102439678Y-145077121D01*
X102407896Y-145236896D01*
X101346000Y-145236896D01*
X101346000Y-144922434D01*
X102244250Y-144921000D01*
X102326000Y-144839250D01*
X102326000Y-142621000D01*
X102306000Y-142621000D01*
X102306000Y-142367000D01*
X102326000Y-142367000D01*
X102326000Y-140148750D01*
X102580000Y-140148750D01*
X102580000Y-142367000D01*
X103898250Y-142367000D01*
X103980000Y-142285250D01*
X103981582Y-140394000D01*
X103975268Y-140329897D01*
X103956570Y-140268257D01*
X103926206Y-140211450D01*
X103885343Y-140161657D01*
X103835550Y-140120794D01*
X103778743Y-140090430D01*
X103717103Y-140071732D01*
X103653000Y-140065418D01*
X102661750Y-140067000D01*
X102580000Y-140148750D01*
X102326000Y-140148750D01*
X102244250Y-140067000D01*
X101346000Y-140065566D01*
X101346000Y-139065000D01*
X106680000Y-139065000D01*
X106680000Y-153035000D01*
G37*
%TD.AperFunction*%
%TD*%
M02*
