M48
; DRILL file {KiCad (5.1.10)-1} date 02/24/22 08:52:06
; FORMAT={-:-/ absolute / inch / decimal}
; #@! TF.CreationDate,2022-02-24T08:52:06+01:00
; #@! TF.GenerationSoftware,Kicad,Pcbnew,(5.1.10)-1
; #@! TF.FileFunction,Plated,1,4,PTH
FMAT,2
INCH
T1C0.0157
T2C0.0394
T3C0.0472
%
G90
G05
T1
X4.23Y-4.55
X4.29Y-4.26
X4.31Y-4.7571
X4.31Y-4.82
X4.38Y-4.26
X4.38Y-4.756
X4.38Y-4.82
X4.4398Y-4.5902
X4.44Y-4.55
X4.45Y-4.34
X4.46Y-4.7383
X4.46Y-4.82
X4.47Y-4.21
X4.7998Y-3.7498
X4.8416Y-1.75
X4.88Y-3.66
X4.9Y-2.49
X4.93Y-3.12
X4.95Y-3.37
X4.95Y-3.46
X4.95Y-3.55
X4.95Y-3.64
X4.95Y-3.73
X4.98Y-2.6
X4.98Y-2.9
X4.99Y-2.16
X4.99Y-2.313
X5.0Y-2.78
X5.01Y-1.75
X5.09Y-2.38
X5.09Y-2.62
X5.09Y-2.78
X5.09Y-3.03
X5.14Y-3.2
X5.18Y-2.38
X5.18Y-2.78
X5.18Y-3.59
X5.18Y-3.91
X5.2Y-2.9
X5.2002Y-2.6
X5.21Y-3.12
X5.23Y-3.59
X5.23Y-3.75
X5.24Y-2.07
X5.24Y-2.12
X5.24Y-2.31
X5.3Y-3.016
X5.3Y-3.084
X5.3Y-3.67
X5.3202Y-3.2502
X5.33Y-2.81
X5.34Y-2.37
X5.34Y-2.51
X5.34Y-2.61
X5.34Y-2.71
X5.39Y-3.22
X5.44Y-2.37
X5.4402Y-2.51
X5.4402Y-2.61
X5.4402Y-2.71
X5.48Y-3.27
X5.48Y-3.3101
X5.49Y-3.2
X5.52Y-4.22
X5.54Y-2.07
X5.54Y-2.12
X5.54Y-2.3102
X5.55Y-3.44
X5.57Y-3.2
X5.607Y-3.5317
X5.6098Y-2.9902
X5.61Y-2.87
X5.61Y-3.68
X5.61Y-3.75
X5.63Y-2.5
X5.68Y-2.63
X5.68Y-3.35
X5.68Y-4.55
X5.69Y-2.7988
X5.69Y-2.85
X5.69Y-2.9012
X5.7106Y-2.9766
X5.7117Y-2.4783
X5.73Y-3.07
X5.73Y-3.35
X5.73Y-3.68
X5.73Y-3.75
X5.733Y-3.5317
X5.74Y-4.26
X5.76Y-2.56
X5.76Y-3.3
X5.76Y-4.756
X5.76Y-4.82
X5.78Y-3.22
X5.79Y-4.4
X5.8Y-2.57
X5.81Y-2.61
X5.83Y-2.7988
X5.83Y-2.85
X5.83Y-2.9012
X5.83Y-4.26
X5.83Y-4.82
X5.8325Y-4.755
X5.84Y-2.07
X5.84Y-2.12
X5.84Y-2.28
X5.84Y-2.33
X5.84Y-3.06
X5.84Y-3.52
X5.84Y-3.85
X5.8421Y-2.51
X5.8596Y-3.3296
X5.88Y-3.04
X5.91Y-2.51
X5.91Y-2.82
X5.91Y-3.8573
X5.91Y-4.55
X5.91Y-4.5904
X5.91Y-4.7383
X5.91Y-4.82
X5.9107Y-2.7789
X5.9113Y-3.5213
X5.92Y-2.33
X5.9417Y-3.3283
X5.96Y-2.54
X6.01Y-2.67
X6.02Y-2.46
X6.05Y-2.37
X6.05Y-2.95
X6.07Y-2.66
X6.07Y-2.78
X6.09Y-2.32
X6.11Y-2.6385
X6.12Y-2.57
X6.13Y-3.34
X6.13Y-3.434
X6.137Y-3.047
X6.14Y-2.98
X6.17Y-2.6715
X6.17Y-3.44
X6.18Y-2.03
X6.18Y-2.14
X6.18Y-2.21
X6.18Y-2.36
X6.18Y-3.34
X6.18Y-3.59
X6.18Y-3.91
X6.2Y-2.28
X6.21Y-2.766
X6.21Y-2.834
X6.23Y-3.59
X6.23Y-3.75
X6.26Y-2.484
X6.27Y-2.7
X6.3Y-3.67
X6.31Y-2.95
X6.33Y-2.85
X6.35Y-2.95
X6.45Y-3.61
X6.46Y-3.91
X6.49Y-2.13
X6.5Y-2.03
X6.5Y-2.21
X6.5Y-2.36
X6.51Y-1.81
X6.51Y-1.91
X6.57Y-3.61
X6.65Y-3.77
X6.72Y-3.75
X6.75Y-3.32
X6.831Y-3.929
X7.08Y-4.55
X7.08Y-4.7383
X7.08Y-4.82
X7.14Y-4.26
X7.16Y-4.756
X7.16Y-4.756
X7.16Y-4.82
X7.23Y-4.26
X7.23Y-4.756
X7.23Y-4.82
X7.3Y-4.55
X7.3002Y-4.5902
T2
X4.04Y-3.89
X4.14Y-3.89
X4.24Y-3.89
X4.34Y-3.89
X4.44Y-3.89
X4.54Y-3.89
X4.8Y-2.17
X4.8Y-2.27
X4.8Y-2.37
X4.8Y-2.47
X4.8Y-2.57
X4.8Y-2.67
X4.8Y-2.77
X4.8Y-2.87
X4.8Y-3.07
X4.8Y-3.17
X4.8Y-3.27
X4.8Y-3.37
X4.8Y-3.47
X4.8Y-3.57
X6.47Y-1.68
X6.54Y-2.67
X6.54Y-2.77
X6.54Y-2.87
X6.54Y-2.97
X6.54Y-3.13
X6.54Y-3.23
X6.54Y-3.33
X6.54Y-3.43
X6.57Y-1.68
X6.67Y-1.68
X6.7Y-1.81
X6.7Y-1.91
X6.7Y-2.01
X6.7Y-2.11
X6.7Y-2.21
X6.7Y-2.31
X6.7Y-2.41
X6.7Y-2.51
X6.7Y-2.61
X6.7Y-2.71
X6.7Y-2.87
X6.7Y-2.97
X6.7Y-3.07
X6.7Y-3.17
X6.7Y-3.27
X6.7Y-3.37
X6.7Y-3.47
X6.7Y-3.57
X6.77Y-1.68
X7.09Y-3.89
X7.19Y-3.89
X7.29Y-3.89
X7.39Y-3.89
X7.49Y-3.89
T3
X4.8522Y-1.95
X4.99Y-1.95
T0
M30
