%TF.GenerationSoftware,KiCad,Pcbnew,(5.1.10)-1*%
%TF.CreationDate,2022-02-25T12:42:34+01:00*%
%TF.ProjectId,GestureControl,47657374-7572-4654-936f-6e74726f6c2e,V0.1*%
%TF.SameCoordinates,Original*%
%TF.FileFunction,Copper,L4,Bot*%
%TF.FilePolarity,Positive*%
%FSLAX46Y46*%
G04 Gerber Fmt 4.6, Leading zero omitted, Abs format (unit mm)*
G04 Created by KiCad (PCBNEW (5.1.10)-1) date 2022-02-25 12:42:34*
%MOMM*%
%LPD*%
G01*
G04 APERTURE LIST*
%TA.AperFunction,ComponentPad*%
%ADD10O,1.700000X1.700000*%
%TD*%
%TA.AperFunction,ComponentPad*%
%ADD11R,1.700000X1.700000*%
%TD*%
%TA.AperFunction,SMDPad,CuDef*%
%ADD12R,1.500000X2.000000*%
%TD*%
%TA.AperFunction,SMDPad,CuDef*%
%ADD13R,3.800000X2.000000*%
%TD*%
%TA.AperFunction,SMDPad,CuDef*%
%ADD14R,1.000000X1.000000*%
%TD*%
%TA.AperFunction,SMDPad,CuDef*%
%ADD15R,1.000000X1.500000*%
%TD*%
%TA.AperFunction,SMDPad,CuDef*%
%ADD16C,0.100000*%
%TD*%
%TA.AperFunction,SMDPad,CuDef*%
%ADD17R,1.500000X1.000000*%
%TD*%
%TA.AperFunction,SMDPad,CuDef*%
%ADD18R,1.500000X1.500000*%
%TD*%
%TA.AperFunction,ComponentPad*%
%ADD19O,1.800000X3.600000*%
%TD*%
%TA.AperFunction,SMDPad,CuDef*%
%ADD20R,3.500000X1.800000*%
%TD*%
%TA.AperFunction,ViaPad*%
%ADD21C,0.800000*%
%TD*%
%TA.AperFunction,Conductor*%
%ADD22C,0.250000*%
%TD*%
%TA.AperFunction,Conductor*%
%ADD23C,0.500000*%
%TD*%
G04 APERTURE END LIST*
%TO.P,C52,2*%
%TO.N,GND*%
%TA.AperFunction,SMDPad,CuDef*%
G36*
G01*
X116856500Y-128875500D02*
X117331500Y-128875500D01*
G75*
G02*
X117569000Y-129113000I0J-237500D01*
G01*
X117569000Y-129713000D01*
G75*
G02*
X117331500Y-129950500I-237500J0D01*
G01*
X116856500Y-129950500D01*
G75*
G02*
X116619000Y-129713000I0J237500D01*
G01*
X116619000Y-129113000D01*
G75*
G02*
X116856500Y-128875500I237500J0D01*
G01*
G37*
%TD.AperFunction*%
%TO.P,C52,1*%
%TO.N,+3V3*%
%TA.AperFunction,SMDPad,CuDef*%
G36*
G01*
X116856500Y-127150500D02*
X117331500Y-127150500D01*
G75*
G02*
X117569000Y-127388000I0J-237500D01*
G01*
X117569000Y-127988000D01*
G75*
G02*
X117331500Y-128225500I-237500J0D01*
G01*
X116856500Y-128225500D01*
G75*
G02*
X116619000Y-127988000I0J237500D01*
G01*
X116619000Y-127388000D01*
G75*
G02*
X116856500Y-127150500I237500J0D01*
G01*
G37*
%TD.AperFunction*%
%TD*%
%TO.P,C51,2*%
%TO.N,GND*%
%TA.AperFunction,SMDPad,CuDef*%
G36*
G01*
X116856500Y-111730500D02*
X117331500Y-111730500D01*
G75*
G02*
X117569000Y-111968000I0J-237500D01*
G01*
X117569000Y-112568000D01*
G75*
G02*
X117331500Y-112805500I-237500J0D01*
G01*
X116856500Y-112805500D01*
G75*
G02*
X116619000Y-112568000I0J237500D01*
G01*
X116619000Y-111968000D01*
G75*
G02*
X116856500Y-111730500I237500J0D01*
G01*
G37*
%TD.AperFunction*%
%TO.P,C51,1*%
%TO.N,+3V3*%
%TA.AperFunction,SMDPad,CuDef*%
G36*
G01*
X116856500Y-110005500D02*
X117331500Y-110005500D01*
G75*
G02*
X117569000Y-110243000I0J-237500D01*
G01*
X117569000Y-110843000D01*
G75*
G02*
X117331500Y-111080500I-237500J0D01*
G01*
X116856500Y-111080500D01*
G75*
G02*
X116619000Y-110843000I0J237500D01*
G01*
X116619000Y-110243000D01*
G75*
G02*
X116856500Y-110005500I237500J0D01*
G01*
G37*
%TD.AperFunction*%
%TD*%
%TO.P,C50,2*%
%TO.N,GND*%
%TA.AperFunction,SMDPad,CuDef*%
G36*
G01*
X176038500Y-128849000D02*
X176513500Y-128849000D01*
G75*
G02*
X176751000Y-129086500I0J-237500D01*
G01*
X176751000Y-129686500D01*
G75*
G02*
X176513500Y-129924000I-237500J0D01*
G01*
X176038500Y-129924000D01*
G75*
G02*
X175801000Y-129686500I0J237500D01*
G01*
X175801000Y-129086500D01*
G75*
G02*
X176038500Y-128849000I237500J0D01*
G01*
G37*
%TD.AperFunction*%
%TO.P,C50,1*%
%TO.N,+3V3*%
%TA.AperFunction,SMDPad,CuDef*%
G36*
G01*
X176038500Y-127124000D02*
X176513500Y-127124000D01*
G75*
G02*
X176751000Y-127361500I0J-237500D01*
G01*
X176751000Y-127961500D01*
G75*
G02*
X176513500Y-128199000I-237500J0D01*
G01*
X176038500Y-128199000D01*
G75*
G02*
X175801000Y-127961500I0J237500D01*
G01*
X175801000Y-127361500D01*
G75*
G02*
X176038500Y-127124000I237500J0D01*
G01*
G37*
%TD.AperFunction*%
%TD*%
%TO.P,C49,2*%
%TO.N,GND*%
%TA.AperFunction,SMDPad,CuDef*%
G36*
G01*
X177816500Y-111730500D02*
X178291500Y-111730500D01*
G75*
G02*
X178529000Y-111968000I0J-237500D01*
G01*
X178529000Y-112568000D01*
G75*
G02*
X178291500Y-112805500I-237500J0D01*
G01*
X177816500Y-112805500D01*
G75*
G02*
X177579000Y-112568000I0J237500D01*
G01*
X177579000Y-111968000D01*
G75*
G02*
X177816500Y-111730500I237500J0D01*
G01*
G37*
%TD.AperFunction*%
%TO.P,C49,1*%
%TO.N,+3V3*%
%TA.AperFunction,SMDPad,CuDef*%
G36*
G01*
X177816500Y-110005500D02*
X178291500Y-110005500D01*
G75*
G02*
X178529000Y-110243000I0J-237500D01*
G01*
X178529000Y-110843000D01*
G75*
G02*
X178291500Y-111080500I-237500J0D01*
G01*
X177816500Y-111080500D01*
G75*
G02*
X177579000Y-110843000I0J237500D01*
G01*
X177579000Y-110243000D01*
G75*
G02*
X177816500Y-110005500I237500J0D01*
G01*
G37*
%TD.AperFunction*%
%TD*%
%TO.P,C48,2*%
%TO.N,GND*%
%TA.AperFunction,SMDPad,CuDef*%
G36*
G01*
X144796500Y-128748500D02*
X145271500Y-128748500D01*
G75*
G02*
X145509000Y-128986000I0J-237500D01*
G01*
X145509000Y-129586000D01*
G75*
G02*
X145271500Y-129823500I-237500J0D01*
G01*
X144796500Y-129823500D01*
G75*
G02*
X144559000Y-129586000I0J237500D01*
G01*
X144559000Y-128986000D01*
G75*
G02*
X144796500Y-128748500I237500J0D01*
G01*
G37*
%TD.AperFunction*%
%TO.P,C48,1*%
%TO.N,+3V3*%
%TA.AperFunction,SMDPad,CuDef*%
G36*
G01*
X144796500Y-127023500D02*
X145271500Y-127023500D01*
G75*
G02*
X145509000Y-127261000I0J-237500D01*
G01*
X145509000Y-127861000D01*
G75*
G02*
X145271500Y-128098500I-237500J0D01*
G01*
X144796500Y-128098500D01*
G75*
G02*
X144559000Y-127861000I0J237500D01*
G01*
X144559000Y-127261000D01*
G75*
G02*
X144796500Y-127023500I237500J0D01*
G01*
G37*
%TD.AperFunction*%
%TD*%
%TO.P,C47,2*%
%TO.N,GND*%
%TA.AperFunction,SMDPad,CuDef*%
G36*
G01*
X144796500Y-111730500D02*
X145271500Y-111730500D01*
G75*
G02*
X145509000Y-111968000I0J-237500D01*
G01*
X145509000Y-112568000D01*
G75*
G02*
X145271500Y-112805500I-237500J0D01*
G01*
X144796500Y-112805500D01*
G75*
G02*
X144559000Y-112568000I0J237500D01*
G01*
X144559000Y-111968000D01*
G75*
G02*
X144796500Y-111730500I237500J0D01*
G01*
G37*
%TD.AperFunction*%
%TO.P,C47,1*%
%TO.N,+3V3*%
%TA.AperFunction,SMDPad,CuDef*%
G36*
G01*
X144796500Y-110005500D02*
X145271500Y-110005500D01*
G75*
G02*
X145509000Y-110243000I0J-237500D01*
G01*
X145509000Y-110843000D01*
G75*
G02*
X145271500Y-111080500I-237500J0D01*
G01*
X144796500Y-111080500D01*
G75*
G02*
X144559000Y-110843000I0J237500D01*
G01*
X144559000Y-110243000D01*
G75*
G02*
X144796500Y-110005500I237500J0D01*
G01*
G37*
%TD.AperFunction*%
%TD*%
%TO.P,C46,2*%
%TO.N,GND*%
%TA.AperFunction,SMDPad,CuDef*%
G36*
G01*
X118651000Y-111680500D02*
X119601000Y-111680500D01*
G75*
G02*
X119851000Y-111930500I0J-250000D01*
G01*
X119851000Y-112605500D01*
G75*
G02*
X119601000Y-112855500I-250000J0D01*
G01*
X118651000Y-112855500D01*
G75*
G02*
X118401000Y-112605500I0J250000D01*
G01*
X118401000Y-111930500D01*
G75*
G02*
X118651000Y-111680500I250000J0D01*
G01*
G37*
%TD.AperFunction*%
%TO.P,C46,1*%
%TO.N,+3V3*%
%TA.AperFunction,SMDPad,CuDef*%
G36*
G01*
X118651000Y-109605500D02*
X119601000Y-109605500D01*
G75*
G02*
X119851000Y-109855500I0J-250000D01*
G01*
X119851000Y-110530500D01*
G75*
G02*
X119601000Y-110780500I-250000J0D01*
G01*
X118651000Y-110780500D01*
G75*
G02*
X118401000Y-110530500I0J250000D01*
G01*
X118401000Y-109855500D01*
G75*
G02*
X118651000Y-109605500I250000J0D01*
G01*
G37*
%TD.AperFunction*%
%TD*%
%TO.P,C45,2*%
%TO.N,GND*%
%TA.AperFunction,SMDPad,CuDef*%
G36*
G01*
X118651000Y-128741500D02*
X119601000Y-128741500D01*
G75*
G02*
X119851000Y-128991500I0J-250000D01*
G01*
X119851000Y-129666500D01*
G75*
G02*
X119601000Y-129916500I-250000J0D01*
G01*
X118651000Y-129916500D01*
G75*
G02*
X118401000Y-129666500I0J250000D01*
G01*
X118401000Y-128991500D01*
G75*
G02*
X118651000Y-128741500I250000J0D01*
G01*
G37*
%TD.AperFunction*%
%TO.P,C45,1*%
%TO.N,+3V3*%
%TA.AperFunction,SMDPad,CuDef*%
G36*
G01*
X118651000Y-126666500D02*
X119601000Y-126666500D01*
G75*
G02*
X119851000Y-126916500I0J-250000D01*
G01*
X119851000Y-127591500D01*
G75*
G02*
X119601000Y-127841500I-250000J0D01*
G01*
X118651000Y-127841500D01*
G75*
G02*
X118401000Y-127591500I0J250000D01*
G01*
X118401000Y-126916500D01*
G75*
G02*
X118651000Y-126666500I250000J0D01*
G01*
G37*
%TD.AperFunction*%
%TD*%
%TO.P,C44,2*%
%TO.N,GND*%
%TA.AperFunction,SMDPad,CuDef*%
G36*
G01*
X115078500Y-111730500D02*
X115553500Y-111730500D01*
G75*
G02*
X115791000Y-111968000I0J-237500D01*
G01*
X115791000Y-112568000D01*
G75*
G02*
X115553500Y-112805500I-237500J0D01*
G01*
X115078500Y-112805500D01*
G75*
G02*
X114841000Y-112568000I0J237500D01*
G01*
X114841000Y-111968000D01*
G75*
G02*
X115078500Y-111730500I237500J0D01*
G01*
G37*
%TD.AperFunction*%
%TO.P,C44,1*%
%TO.N,+3V3*%
%TA.AperFunction,SMDPad,CuDef*%
G36*
G01*
X115078500Y-110005500D02*
X115553500Y-110005500D01*
G75*
G02*
X115791000Y-110243000I0J-237500D01*
G01*
X115791000Y-110843000D01*
G75*
G02*
X115553500Y-111080500I-237500J0D01*
G01*
X115078500Y-111080500D01*
G75*
G02*
X114841000Y-110843000I0J237500D01*
G01*
X114841000Y-110243000D01*
G75*
G02*
X115078500Y-110005500I237500J0D01*
G01*
G37*
%TD.AperFunction*%
%TD*%
%TO.P,C43,2*%
%TO.N,GND*%
%TA.AperFunction,SMDPad,CuDef*%
G36*
G01*
X115078500Y-128849000D02*
X115553500Y-128849000D01*
G75*
G02*
X115791000Y-129086500I0J-237500D01*
G01*
X115791000Y-129686500D01*
G75*
G02*
X115553500Y-129924000I-237500J0D01*
G01*
X115078500Y-129924000D01*
G75*
G02*
X114841000Y-129686500I0J237500D01*
G01*
X114841000Y-129086500D01*
G75*
G02*
X115078500Y-128849000I237500J0D01*
G01*
G37*
%TD.AperFunction*%
%TO.P,C43,1*%
%TO.N,+3V3*%
%TA.AperFunction,SMDPad,CuDef*%
G36*
G01*
X115078500Y-127124000D02*
X115553500Y-127124000D01*
G75*
G02*
X115791000Y-127361500I0J-237500D01*
G01*
X115791000Y-127961500D01*
G75*
G02*
X115553500Y-128199000I-237500J0D01*
G01*
X115078500Y-128199000D01*
G75*
G02*
X114841000Y-127961500I0J237500D01*
G01*
X114841000Y-127361500D01*
G75*
G02*
X115078500Y-127124000I237500J0D01*
G01*
G37*
%TD.AperFunction*%
%TD*%
%TO.P,C42,2*%
%TO.N,GND*%
%TA.AperFunction,SMDPad,CuDef*%
G36*
G01*
X179611000Y-111680500D02*
X180561000Y-111680500D01*
G75*
G02*
X180811000Y-111930500I0J-250000D01*
G01*
X180811000Y-112605500D01*
G75*
G02*
X180561000Y-112855500I-250000J0D01*
G01*
X179611000Y-112855500D01*
G75*
G02*
X179361000Y-112605500I0J250000D01*
G01*
X179361000Y-111930500D01*
G75*
G02*
X179611000Y-111680500I250000J0D01*
G01*
G37*
%TD.AperFunction*%
%TO.P,C42,1*%
%TO.N,+3V3*%
%TA.AperFunction,SMDPad,CuDef*%
G36*
G01*
X179611000Y-109605500D02*
X180561000Y-109605500D01*
G75*
G02*
X180811000Y-109855500I0J-250000D01*
G01*
X180811000Y-110530500D01*
G75*
G02*
X180561000Y-110780500I-250000J0D01*
G01*
X179611000Y-110780500D01*
G75*
G02*
X179361000Y-110530500I0J250000D01*
G01*
X179361000Y-109855500D01*
G75*
G02*
X179611000Y-109605500I250000J0D01*
G01*
G37*
%TD.AperFunction*%
%TD*%
%TO.P,C41,2*%
%TO.N,GND*%
%TA.AperFunction,SMDPad,CuDef*%
G36*
G01*
X179611000Y-128698500D02*
X180561000Y-128698500D01*
G75*
G02*
X180811000Y-128948500I0J-250000D01*
G01*
X180811000Y-129623500D01*
G75*
G02*
X180561000Y-129873500I-250000J0D01*
G01*
X179611000Y-129873500D01*
G75*
G02*
X179361000Y-129623500I0J250000D01*
G01*
X179361000Y-128948500D01*
G75*
G02*
X179611000Y-128698500I250000J0D01*
G01*
G37*
%TD.AperFunction*%
%TO.P,C41,1*%
%TO.N,+3V3*%
%TA.AperFunction,SMDPad,CuDef*%
G36*
G01*
X179611000Y-126623500D02*
X180561000Y-126623500D01*
G75*
G02*
X180811000Y-126873500I0J-250000D01*
G01*
X180811000Y-127548500D01*
G75*
G02*
X180561000Y-127798500I-250000J0D01*
G01*
X179611000Y-127798500D01*
G75*
G02*
X179361000Y-127548500I0J250000D01*
G01*
X179361000Y-126873500D01*
G75*
G02*
X179611000Y-126623500I250000J0D01*
G01*
G37*
%TD.AperFunction*%
%TD*%
%TO.P,C40,2*%
%TO.N,GND*%
%TA.AperFunction,SMDPad,CuDef*%
G36*
G01*
X176038500Y-111730500D02*
X176513500Y-111730500D01*
G75*
G02*
X176751000Y-111968000I0J-237500D01*
G01*
X176751000Y-112568000D01*
G75*
G02*
X176513500Y-112805500I-237500J0D01*
G01*
X176038500Y-112805500D01*
G75*
G02*
X175801000Y-112568000I0J237500D01*
G01*
X175801000Y-111968000D01*
G75*
G02*
X176038500Y-111730500I237500J0D01*
G01*
G37*
%TD.AperFunction*%
%TO.P,C40,1*%
%TO.N,+3V3*%
%TA.AperFunction,SMDPad,CuDef*%
G36*
G01*
X176038500Y-110005500D02*
X176513500Y-110005500D01*
G75*
G02*
X176751000Y-110243000I0J-237500D01*
G01*
X176751000Y-110843000D01*
G75*
G02*
X176513500Y-111080500I-237500J0D01*
G01*
X176038500Y-111080500D01*
G75*
G02*
X175801000Y-110843000I0J237500D01*
G01*
X175801000Y-110243000D01*
G75*
G02*
X176038500Y-110005500I237500J0D01*
G01*
G37*
%TD.AperFunction*%
%TD*%
%TO.P,C39,2*%
%TO.N,GND*%
%TA.AperFunction,SMDPad,CuDef*%
G36*
G01*
X177816500Y-128849000D02*
X178291500Y-128849000D01*
G75*
G02*
X178529000Y-129086500I0J-237500D01*
G01*
X178529000Y-129686500D01*
G75*
G02*
X178291500Y-129924000I-237500J0D01*
G01*
X177816500Y-129924000D01*
G75*
G02*
X177579000Y-129686500I0J237500D01*
G01*
X177579000Y-129086500D01*
G75*
G02*
X177816500Y-128849000I237500J0D01*
G01*
G37*
%TD.AperFunction*%
%TO.P,C39,1*%
%TO.N,+3V3*%
%TA.AperFunction,SMDPad,CuDef*%
G36*
G01*
X177816500Y-127124000D02*
X178291500Y-127124000D01*
G75*
G02*
X178529000Y-127361500I0J-237500D01*
G01*
X178529000Y-127961500D01*
G75*
G02*
X178291500Y-128199000I-237500J0D01*
G01*
X177816500Y-128199000D01*
G75*
G02*
X177579000Y-127961500I0J237500D01*
G01*
X177579000Y-127361500D01*
G75*
G02*
X177816500Y-127124000I237500J0D01*
G01*
G37*
%TD.AperFunction*%
%TD*%
%TO.P,C38,2*%
%TO.N,GND*%
%TA.AperFunction,SMDPad,CuDef*%
G36*
G01*
X148369000Y-128698500D02*
X149319000Y-128698500D01*
G75*
G02*
X149569000Y-128948500I0J-250000D01*
G01*
X149569000Y-129623500D01*
G75*
G02*
X149319000Y-129873500I-250000J0D01*
G01*
X148369000Y-129873500D01*
G75*
G02*
X148119000Y-129623500I0J250000D01*
G01*
X148119000Y-128948500D01*
G75*
G02*
X148369000Y-128698500I250000J0D01*
G01*
G37*
%TD.AperFunction*%
%TO.P,C38,1*%
%TO.N,+3V3*%
%TA.AperFunction,SMDPad,CuDef*%
G36*
G01*
X148369000Y-126623500D02*
X149319000Y-126623500D01*
G75*
G02*
X149569000Y-126873500I0J-250000D01*
G01*
X149569000Y-127548500D01*
G75*
G02*
X149319000Y-127798500I-250000J0D01*
G01*
X148369000Y-127798500D01*
G75*
G02*
X148119000Y-127548500I0J250000D01*
G01*
X148119000Y-126873500D01*
G75*
G02*
X148369000Y-126623500I250000J0D01*
G01*
G37*
%TD.AperFunction*%
%TD*%
%TO.P,C37,2*%
%TO.N,GND*%
%TA.AperFunction,SMDPad,CuDef*%
G36*
G01*
X148369000Y-111680500D02*
X149319000Y-111680500D01*
G75*
G02*
X149569000Y-111930500I0J-250000D01*
G01*
X149569000Y-112605500D01*
G75*
G02*
X149319000Y-112855500I-250000J0D01*
G01*
X148369000Y-112855500D01*
G75*
G02*
X148119000Y-112605500I0J250000D01*
G01*
X148119000Y-111930500D01*
G75*
G02*
X148369000Y-111680500I250000J0D01*
G01*
G37*
%TD.AperFunction*%
%TO.P,C37,1*%
%TO.N,+3V3*%
%TA.AperFunction,SMDPad,CuDef*%
G36*
G01*
X148369000Y-109605500D02*
X149319000Y-109605500D01*
G75*
G02*
X149569000Y-109855500I0J-250000D01*
G01*
X149569000Y-110530500D01*
G75*
G02*
X149319000Y-110780500I-250000J0D01*
G01*
X148369000Y-110780500D01*
G75*
G02*
X148119000Y-110530500I0J250000D01*
G01*
X148119000Y-109855500D01*
G75*
G02*
X148369000Y-109605500I250000J0D01*
G01*
G37*
%TD.AperFunction*%
%TD*%
%TO.P,C36,2*%
%TO.N,GND*%
%TA.AperFunction,SMDPad,CuDef*%
G36*
G01*
X146574500Y-128748500D02*
X147049500Y-128748500D01*
G75*
G02*
X147287000Y-128986000I0J-237500D01*
G01*
X147287000Y-129586000D01*
G75*
G02*
X147049500Y-129823500I-237500J0D01*
G01*
X146574500Y-129823500D01*
G75*
G02*
X146337000Y-129586000I0J237500D01*
G01*
X146337000Y-128986000D01*
G75*
G02*
X146574500Y-128748500I237500J0D01*
G01*
G37*
%TD.AperFunction*%
%TO.P,C36,1*%
%TO.N,+3V3*%
%TA.AperFunction,SMDPad,CuDef*%
G36*
G01*
X146574500Y-127023500D02*
X147049500Y-127023500D01*
G75*
G02*
X147287000Y-127261000I0J-237500D01*
G01*
X147287000Y-127861000D01*
G75*
G02*
X147049500Y-128098500I-237500J0D01*
G01*
X146574500Y-128098500D01*
G75*
G02*
X146337000Y-127861000I0J237500D01*
G01*
X146337000Y-127261000D01*
G75*
G02*
X146574500Y-127023500I237500J0D01*
G01*
G37*
%TD.AperFunction*%
%TD*%
%TO.P,C35,2*%
%TO.N,GND*%
%TA.AperFunction,SMDPad,CuDef*%
G36*
G01*
X146574500Y-111730500D02*
X147049500Y-111730500D01*
G75*
G02*
X147287000Y-111968000I0J-237500D01*
G01*
X147287000Y-112568000D01*
G75*
G02*
X147049500Y-112805500I-237500J0D01*
G01*
X146574500Y-112805500D01*
G75*
G02*
X146337000Y-112568000I0J237500D01*
G01*
X146337000Y-111968000D01*
G75*
G02*
X146574500Y-111730500I237500J0D01*
G01*
G37*
%TD.AperFunction*%
%TO.P,C35,1*%
%TO.N,+3V3*%
%TA.AperFunction,SMDPad,CuDef*%
G36*
G01*
X146574500Y-110005500D02*
X147049500Y-110005500D01*
G75*
G02*
X147287000Y-110243000I0J-237500D01*
G01*
X147287000Y-110843000D01*
G75*
G02*
X147049500Y-111080500I-237500J0D01*
G01*
X146574500Y-111080500D01*
G75*
G02*
X146337000Y-110843000I0J237500D01*
G01*
X146337000Y-110243000D01*
G75*
G02*
X146574500Y-110005500I237500J0D01*
G01*
G37*
%TD.AperFunction*%
%TD*%
D10*
%TO.P,J8,6*%
%TO.N,/STM32L151RET6TR/SW0*%
X153162000Y-48514000D03*
%TO.P,J8,5*%
%TO.N,/STM32L151RET6TR/RST*%
X153162000Y-51054000D03*
%TO.P,J8,4*%
%TO.N,/STM32L151RET6TR/SWDAT*%
X153162000Y-53594000D03*
%TO.P,J8,3*%
%TO.N,GND*%
X153162000Y-56134000D03*
%TO.P,J8,2*%
%TO.N,/STM32L151RET6TR/SWCLK*%
X153162000Y-58674000D03*
D11*
%TO.P,J8,1*%
%TO.N,+3V3*%
X153162000Y-61214000D03*
%TD*%
%TO.P,C10,2*%
%TO.N,GND*%
%TA.AperFunction,SMDPad,CuDef*%
G36*
G01*
X148369000Y-120062500D02*
X149319000Y-120062500D01*
G75*
G02*
X149569000Y-120312500I0J-250000D01*
G01*
X149569000Y-120987500D01*
G75*
G02*
X149319000Y-121237500I-250000J0D01*
G01*
X148369000Y-121237500D01*
G75*
G02*
X148119000Y-120987500I0J250000D01*
G01*
X148119000Y-120312500D01*
G75*
G02*
X148369000Y-120062500I250000J0D01*
G01*
G37*
%TD.AperFunction*%
%TO.P,C10,1*%
%TO.N,+3V3*%
%TA.AperFunction,SMDPad,CuDef*%
G36*
G01*
X148369000Y-117987500D02*
X149319000Y-117987500D01*
G75*
G02*
X149569000Y-118237500I0J-250000D01*
G01*
X149569000Y-118912500D01*
G75*
G02*
X149319000Y-119162500I-250000J0D01*
G01*
X148369000Y-119162500D01*
G75*
G02*
X148119000Y-118912500I0J250000D01*
G01*
X148119000Y-118237500D01*
G75*
G02*
X148369000Y-117987500I250000J0D01*
G01*
G37*
%TD.AperFunction*%
%TD*%
D10*
%TO.P,J10,4*%
%TO.N,SCL2*%
X166624000Y-51308000D03*
%TO.P,J10,3*%
%TO.N,SDA2*%
X166624000Y-53848000D03*
%TO.P,J10,2*%
%TO.N,+3V3*%
X166624000Y-56388000D03*
D11*
%TO.P,J10,1*%
%TO.N,GND*%
X166624000Y-58928000D03*
%TD*%
D10*
%TO.P,J7,6*%
%TO.N,/STM32L151RET6TR/FTDI_RTS*%
X156972000Y-51054000D03*
%TO.P,J7,5*%
%TO.N,/STM32L151RET6TR/FTDI_RXD*%
X156972000Y-53594000D03*
%TO.P,J7,4*%
%TO.N,/STM32L151RET6TR/FTDI_TXD*%
X156972000Y-56134000D03*
%TO.P,J7,3*%
%TO.N,+5V*%
X156972000Y-58674000D03*
%TO.P,J7,2*%
%TO.N,/STM32L151RET6TR/FTDI_CTS*%
X156972000Y-61214000D03*
D11*
%TO.P,J7,1*%
%TO.N,GND*%
X156972000Y-63754000D03*
%TD*%
D12*
%TO.P,U2,1*%
%TO.N,GND*%
X131332000Y-92812000D03*
%TO.P,U2,3*%
%TO.N,VCC*%
X126732000Y-92812000D03*
%TO.P,U2,2*%
%TO.N,Net-(C6-Pad1)*%
X129032000Y-92812000D03*
D13*
X129032000Y-86512000D03*
%TD*%
D12*
%TO.P,U1,1*%
%TO.N,GND*%
X141746000Y-92812000D03*
%TO.P,U1,3*%
%TO.N,+5V*%
X137146000Y-92812000D03*
%TO.P,U1,2*%
%TO.N,+3V3*%
X139446000Y-92812000D03*
D13*
X139446000Y-86512000D03*
%TD*%
D14*
%TO.P,TP2,1*%
%TO.N,SCL2*%
X164338000Y-52832000D03*
%TD*%
%TO.P,TP1,1*%
%TO.N,SDA2*%
X164338000Y-55372000D03*
%TD*%
%TO.P,R22,2*%
%TO.N,SCL2*%
%TA.AperFunction,SMDPad,CuDef*%
G36*
G01*
X160331999Y-52232000D02*
X161232001Y-52232000D01*
G75*
G02*
X161482000Y-52481999I0J-249999D01*
G01*
X161482000Y-53182001D01*
G75*
G02*
X161232001Y-53432000I-249999J0D01*
G01*
X160331999Y-53432000D01*
G75*
G02*
X160082000Y-53182001I0J249999D01*
G01*
X160082000Y-52481999D01*
G75*
G02*
X160331999Y-52232000I249999J0D01*
G01*
G37*
%TD.AperFunction*%
%TO.P,R22,1*%
%TO.N,+3V3*%
%TA.AperFunction,SMDPad,CuDef*%
G36*
G01*
X160331999Y-50232000D02*
X161232001Y-50232000D01*
G75*
G02*
X161482000Y-50481999I0J-249999D01*
G01*
X161482000Y-51182001D01*
G75*
G02*
X161232001Y-51432000I-249999J0D01*
G01*
X160331999Y-51432000D01*
G75*
G02*
X160082000Y-51182001I0J249999D01*
G01*
X160082000Y-50481999D01*
G75*
G02*
X160331999Y-50232000I249999J0D01*
G01*
G37*
%TD.AperFunction*%
%TD*%
%TO.P,R21,2*%
%TO.N,SDA2*%
%TA.AperFunction,SMDPad,CuDef*%
G36*
G01*
X161232001Y-55972000D02*
X160331999Y-55972000D01*
G75*
G02*
X160082000Y-55722001I0J249999D01*
G01*
X160082000Y-55021999D01*
G75*
G02*
X160331999Y-54772000I249999J0D01*
G01*
X161232001Y-54772000D01*
G75*
G02*
X161482000Y-55021999I0J-249999D01*
G01*
X161482000Y-55722001D01*
G75*
G02*
X161232001Y-55972000I-249999J0D01*
G01*
G37*
%TD.AperFunction*%
%TO.P,R21,1*%
%TO.N,+3V3*%
%TA.AperFunction,SMDPad,CuDef*%
G36*
G01*
X161232001Y-57972000D02*
X160331999Y-57972000D01*
G75*
G02*
X160082000Y-57722001I0J249999D01*
G01*
X160082000Y-57021999D01*
G75*
G02*
X160331999Y-56772000I249999J0D01*
G01*
X161232001Y-56772000D01*
G75*
G02*
X161482000Y-57021999I0J-249999D01*
G01*
X161482000Y-57722001D01*
G75*
G02*
X161232001Y-57972000I-249999J0D01*
G01*
G37*
%TD.AperFunction*%
%TD*%
%TO.P,R20,2*%
%TO.N,GND*%
%TA.AperFunction,SMDPad,CuDef*%
G36*
G01*
X141062000Y-50349999D02*
X141062000Y-51250001D01*
G75*
G02*
X140812001Y-51500000I-249999J0D01*
G01*
X140111999Y-51500000D01*
G75*
G02*
X139862000Y-51250001I0J249999D01*
G01*
X139862000Y-50349999D01*
G75*
G02*
X140111999Y-50100000I249999J0D01*
G01*
X140812001Y-50100000D01*
G75*
G02*
X141062000Y-50349999I0J-249999D01*
G01*
G37*
%TD.AperFunction*%
%TO.P,R20,1*%
%TO.N,/STM32L151RET6TR/BOOT*%
%TA.AperFunction,SMDPad,CuDef*%
G36*
G01*
X143062000Y-50349999D02*
X143062000Y-51250001D01*
G75*
G02*
X142812001Y-51500000I-249999J0D01*
G01*
X142111999Y-51500000D01*
G75*
G02*
X141862000Y-51250001I0J249999D01*
G01*
X141862000Y-50349999D01*
G75*
G02*
X142111999Y-50100000I249999J0D01*
G01*
X142812001Y-50100000D01*
G75*
G02*
X143062000Y-50349999I0J-249999D01*
G01*
G37*
%TD.AperFunction*%
%TD*%
%TO.P,R11,2*%
%TO.N,SCL1*%
%TA.AperFunction,SMDPad,CuDef*%
G36*
G01*
X141894000Y-55314001D02*
X141894000Y-54413999D01*
G75*
G02*
X142143999Y-54164000I249999J0D01*
G01*
X142844001Y-54164000D01*
G75*
G02*
X143094000Y-54413999I0J-249999D01*
G01*
X143094000Y-55314001D01*
G75*
G02*
X142844001Y-55564000I-249999J0D01*
G01*
X142143999Y-55564000D01*
G75*
G02*
X141894000Y-55314001I0J249999D01*
G01*
G37*
%TD.AperFunction*%
%TO.P,R11,1*%
%TO.N,+3V3*%
%TA.AperFunction,SMDPad,CuDef*%
G36*
G01*
X139894000Y-55314001D02*
X139894000Y-54413999D01*
G75*
G02*
X140143999Y-54164000I249999J0D01*
G01*
X140844001Y-54164000D01*
G75*
G02*
X141094000Y-54413999I0J-249999D01*
G01*
X141094000Y-55314001D01*
G75*
G02*
X140844001Y-55564000I-249999J0D01*
G01*
X140143999Y-55564000D01*
G75*
G02*
X139894000Y-55314001I0J249999D01*
G01*
G37*
%TD.AperFunction*%
%TD*%
%TO.P,R10,2*%
%TO.N,SDA1*%
%TA.AperFunction,SMDPad,CuDef*%
G36*
G01*
X141894000Y-57600001D02*
X141894000Y-56699999D01*
G75*
G02*
X142143999Y-56450000I249999J0D01*
G01*
X142844001Y-56450000D01*
G75*
G02*
X143094000Y-56699999I0J-249999D01*
G01*
X143094000Y-57600001D01*
G75*
G02*
X142844001Y-57850000I-249999J0D01*
G01*
X142143999Y-57850000D01*
G75*
G02*
X141894000Y-57600001I0J249999D01*
G01*
G37*
%TD.AperFunction*%
%TO.P,R10,1*%
%TO.N,+3V3*%
%TA.AperFunction,SMDPad,CuDef*%
G36*
G01*
X139894000Y-57600001D02*
X139894000Y-56699999D01*
G75*
G02*
X140143999Y-56450000I249999J0D01*
G01*
X140844001Y-56450000D01*
G75*
G02*
X141094000Y-56699999I0J-249999D01*
G01*
X141094000Y-57600001D01*
G75*
G02*
X140844001Y-57850000I-249999J0D01*
G01*
X140143999Y-57850000D01*
G75*
G02*
X139894000Y-57600001I0J249999D01*
G01*
G37*
%TD.AperFunction*%
%TD*%
%TO.P,R9,2*%
%TO.N,Net-(C2-Pad1)*%
%TA.AperFunction,SMDPad,CuDef*%
G36*
G01*
X160182000Y-76396001D02*
X160182000Y-75495999D01*
G75*
G02*
X160431999Y-75246000I249999J0D01*
G01*
X161132001Y-75246000D01*
G75*
G02*
X161382000Y-75495999I0J-249999D01*
G01*
X161382000Y-76396001D01*
G75*
G02*
X161132001Y-76646000I-249999J0D01*
G01*
X160431999Y-76646000D01*
G75*
G02*
X160182000Y-76396001I0J249999D01*
G01*
G37*
%TD.AperFunction*%
%TO.P,R9,1*%
%TO.N,+3V3*%
%TA.AperFunction,SMDPad,CuDef*%
G36*
G01*
X158182000Y-76396001D02*
X158182000Y-75495999D01*
G75*
G02*
X158431999Y-75246000I249999J0D01*
G01*
X159132001Y-75246000D01*
G75*
G02*
X159382000Y-75495999I0J-249999D01*
G01*
X159382000Y-76396001D01*
G75*
G02*
X159132001Y-76646000I-249999J0D01*
G01*
X158431999Y-76646000D01*
G75*
G02*
X158182000Y-76396001I0J249999D01*
G01*
G37*
%TD.AperFunction*%
%TD*%
%TO.P,R8,2*%
%TO.N,Net-(C1-Pad1)*%
%TA.AperFunction,SMDPad,CuDef*%
G36*
G01*
X160182000Y-83254001D02*
X160182000Y-82353999D01*
G75*
G02*
X160431999Y-82104000I249999J0D01*
G01*
X161132001Y-82104000D01*
G75*
G02*
X161382000Y-82353999I0J-249999D01*
G01*
X161382000Y-83254001D01*
G75*
G02*
X161132001Y-83504000I-249999J0D01*
G01*
X160431999Y-83504000D01*
G75*
G02*
X160182000Y-83254001I0J249999D01*
G01*
G37*
%TD.AperFunction*%
%TO.P,R8,1*%
%TO.N,+3V3*%
%TA.AperFunction,SMDPad,CuDef*%
G36*
G01*
X158182000Y-83254001D02*
X158182000Y-82353999D01*
G75*
G02*
X158431999Y-82104000I249999J0D01*
G01*
X159132001Y-82104000D01*
G75*
G02*
X159382000Y-82353999I0J-249999D01*
G01*
X159382000Y-83254001D01*
G75*
G02*
X159132001Y-83504000I-249999J0D01*
G01*
X158431999Y-83504000D01*
G75*
G02*
X158182000Y-83254001I0J249999D01*
G01*
G37*
%TD.AperFunction*%
%TD*%
D15*
%TO.P,JP3,2*%
%TO.N,/STM32L151RET6TR/PIN30*%
X149068000Y-67310000D03*
%TA.AperFunction,SMDPad,CuDef*%
D16*
%TO.P,JP3,3*%
%TO.N,SDA2*%
G36*
X150368000Y-66560602D02*
G01*
X150392534Y-66560602D01*
X150441365Y-66565412D01*
X150489490Y-66574984D01*
X150536445Y-66589228D01*
X150581778Y-66608005D01*
X150625051Y-66631136D01*
X150665850Y-66658396D01*
X150703779Y-66689524D01*
X150738476Y-66724221D01*
X150769604Y-66762150D01*
X150796864Y-66802949D01*
X150819995Y-66846222D01*
X150838772Y-66891555D01*
X150853016Y-66938510D01*
X150862588Y-66986635D01*
X150867398Y-67035466D01*
X150867398Y-67060000D01*
X150868000Y-67060000D01*
X150868000Y-67560000D01*
X150867398Y-67560000D01*
X150867398Y-67584534D01*
X150862588Y-67633365D01*
X150853016Y-67681490D01*
X150838772Y-67728445D01*
X150819995Y-67773778D01*
X150796864Y-67817051D01*
X150769604Y-67857850D01*
X150738476Y-67895779D01*
X150703779Y-67930476D01*
X150665850Y-67961604D01*
X150625051Y-67988864D01*
X150581778Y-68011995D01*
X150536445Y-68030772D01*
X150489490Y-68045016D01*
X150441365Y-68054588D01*
X150392534Y-68059398D01*
X150368000Y-68059398D01*
X150368000Y-68060000D01*
X149818000Y-68060000D01*
X149818000Y-66560000D01*
X150368000Y-66560000D01*
X150368000Y-66560602D01*
G37*
%TD.AperFunction*%
%TA.AperFunction,SMDPad,CuDef*%
%TO.P,JP3,1*%
%TO.N,+3V3*%
G36*
X148318000Y-68060000D02*
G01*
X147768000Y-68060000D01*
X147768000Y-68059398D01*
X147743466Y-68059398D01*
X147694635Y-68054588D01*
X147646510Y-68045016D01*
X147599555Y-68030772D01*
X147554222Y-68011995D01*
X147510949Y-67988864D01*
X147470150Y-67961604D01*
X147432221Y-67930476D01*
X147397524Y-67895779D01*
X147366396Y-67857850D01*
X147339136Y-67817051D01*
X147316005Y-67773778D01*
X147297228Y-67728445D01*
X147282984Y-67681490D01*
X147273412Y-67633365D01*
X147268602Y-67584534D01*
X147268602Y-67560000D01*
X147268000Y-67560000D01*
X147268000Y-67060000D01*
X147268602Y-67060000D01*
X147268602Y-67035466D01*
X147273412Y-66986635D01*
X147282984Y-66938510D01*
X147297228Y-66891555D01*
X147316005Y-66846222D01*
X147339136Y-66802949D01*
X147366396Y-66762150D01*
X147397524Y-66724221D01*
X147432221Y-66689524D01*
X147470150Y-66658396D01*
X147510949Y-66631136D01*
X147554222Y-66608005D01*
X147599555Y-66589228D01*
X147646510Y-66574984D01*
X147694635Y-66565412D01*
X147743466Y-66560602D01*
X147768000Y-66560602D01*
X147768000Y-66560000D01*
X148318000Y-66560000D01*
X148318000Y-68060000D01*
G37*
%TD.AperFunction*%
%TD*%
D17*
%TO.P,JP2,2*%
%TO.N,SCL2*%
X149098000Y-71120000D03*
%TA.AperFunction,SMDPad,CuDef*%
D16*
%TO.P,JP2,3*%
%TO.N,/STM32L151RET6TR/PIN41*%
G36*
X148348602Y-69820000D02*
G01*
X148348602Y-69795466D01*
X148353412Y-69746635D01*
X148362984Y-69698510D01*
X148377228Y-69651555D01*
X148396005Y-69606222D01*
X148419136Y-69562949D01*
X148446396Y-69522150D01*
X148477524Y-69484221D01*
X148512221Y-69449524D01*
X148550150Y-69418396D01*
X148590949Y-69391136D01*
X148634222Y-69368005D01*
X148679555Y-69349228D01*
X148726510Y-69334984D01*
X148774635Y-69325412D01*
X148823466Y-69320602D01*
X148848000Y-69320602D01*
X148848000Y-69320000D01*
X149348000Y-69320000D01*
X149348000Y-69320602D01*
X149372534Y-69320602D01*
X149421365Y-69325412D01*
X149469490Y-69334984D01*
X149516445Y-69349228D01*
X149561778Y-69368005D01*
X149605051Y-69391136D01*
X149645850Y-69418396D01*
X149683779Y-69449524D01*
X149718476Y-69484221D01*
X149749604Y-69522150D01*
X149776864Y-69562949D01*
X149799995Y-69606222D01*
X149818772Y-69651555D01*
X149833016Y-69698510D01*
X149842588Y-69746635D01*
X149847398Y-69795466D01*
X149847398Y-69820000D01*
X149848000Y-69820000D01*
X149848000Y-70370000D01*
X148348000Y-70370000D01*
X148348000Y-69820000D01*
X148348602Y-69820000D01*
G37*
%TD.AperFunction*%
%TA.AperFunction,SMDPad,CuDef*%
%TO.P,JP2,1*%
%TO.N,/STM32L151RET6TR/PIN29*%
G36*
X149848000Y-71870000D02*
G01*
X149848000Y-72420000D01*
X149847398Y-72420000D01*
X149847398Y-72444534D01*
X149842588Y-72493365D01*
X149833016Y-72541490D01*
X149818772Y-72588445D01*
X149799995Y-72633778D01*
X149776864Y-72677051D01*
X149749604Y-72717850D01*
X149718476Y-72755779D01*
X149683779Y-72790476D01*
X149645850Y-72821604D01*
X149605051Y-72848864D01*
X149561778Y-72871995D01*
X149516445Y-72890772D01*
X149469490Y-72905016D01*
X149421365Y-72914588D01*
X149372534Y-72919398D01*
X149348000Y-72919398D01*
X149348000Y-72920000D01*
X148848000Y-72920000D01*
X148848000Y-72919398D01*
X148823466Y-72919398D01*
X148774635Y-72914588D01*
X148726510Y-72905016D01*
X148679555Y-72890772D01*
X148634222Y-72871995D01*
X148590949Y-72848864D01*
X148550150Y-72821604D01*
X148512221Y-72790476D01*
X148477524Y-72755779D01*
X148446396Y-72717850D01*
X148419136Y-72677051D01*
X148396005Y-72633778D01*
X148377228Y-72588445D01*
X148362984Y-72541490D01*
X148353412Y-72493365D01*
X148348602Y-72444534D01*
X148348602Y-72420000D01*
X148348000Y-72420000D01*
X148348000Y-71870000D01*
X149848000Y-71870000D01*
G37*
%TD.AperFunction*%
%TD*%
D18*
%TO.P,J19,1*%
%TO.N,/STM32L151RET6TR/PA10*%
X164338000Y-47752000D03*
%TD*%
%TO.P,J18,1*%
%TO.N,/STM32L151RET6TR/PA9*%
X164338000Y-50292000D03*
%TD*%
%TO.P,J17,1*%
%TO.N,/STM32L151RET6TR/PC8*%
X164338000Y-57912000D03*
%TD*%
%TO.P,J16,1*%
%TO.N,/STM32L151RET6TR/PC7*%
X164338000Y-60452000D03*
%TD*%
%TO.P,J15,1*%
%TO.N,/STM32L151RET6TR/PC6*%
X164338000Y-62992000D03*
%TD*%
%TO.P,J14,1*%
%TO.N,/STM32L151RET6TR/PB15*%
X164338000Y-65532000D03*
%TD*%
%TO.P,J13,1*%
%TO.N,/STM32L151RET6TR/PB14*%
X164338000Y-68072000D03*
%TD*%
%TO.P,J12,1*%
%TO.N,/STM32L151RET6TR/PB13*%
X164338000Y-70612000D03*
%TD*%
%TO.P,J11,1*%
%TO.N,/STM32L151RET6TR/PB12*%
X164338000Y-73152000D03*
%TD*%
D10*
%TO.P,J9,4*%
%TO.N,/STM32L151RET6TR/UART_RX*%
X138430000Y-84074000D03*
%TO.P,J9,3*%
%TO.N,/STM32L151RET6TR/UART_TX*%
X138430000Y-81534000D03*
%TO.P,J9,2*%
%TO.N,+3V3*%
X138430000Y-78994000D03*
D11*
%TO.P,J9,1*%
%TO.N,GND*%
X138430000Y-76454000D03*
%TD*%
D19*
%TO.P,J2,2*%
%TO.N,Net-(D6-Pad2)*%
X123246000Y-50546000D03*
%TO.P,J2,1*%
%TO.N,GND*%
%TA.AperFunction,ComponentPad*%
G36*
G01*
X127646000Y-48996000D02*
X127646000Y-52096000D01*
G75*
G02*
X127396000Y-52346000I-250000J0D01*
G01*
X126096000Y-52346000D01*
G75*
G02*
X125846000Y-52096000I0J250000D01*
G01*
X125846000Y-48996000D01*
G75*
G02*
X126096000Y-48746000I250000J0D01*
G01*
X127396000Y-48746000D01*
G75*
G02*
X127646000Y-48996000I0J-250000D01*
G01*
G37*
%TD.AperFunction*%
%TD*%
D10*
%TO.P,J1,4*%
%TO.N,SCL1*%
X149352000Y-51054000D03*
%TO.P,J1,3*%
%TO.N,SDA1*%
X149352000Y-53594000D03*
%TO.P,J1,2*%
%TO.N,+5V*%
X149352000Y-56134000D03*
D11*
%TO.P,J1,1*%
%TO.N,GND*%
X149352000Y-58674000D03*
%TD*%
D20*
%TO.P,D7,2*%
%TO.N,Net-(C6-Pad1)*%
X131398000Y-100838000D03*
%TO.P,D7,1*%
%TO.N,+5V*%
X136398000Y-100838000D03*
%TD*%
%TO.P,D6,2*%
%TO.N,Net-(D6-Pad2)*%
X122428000Y-46228000D03*
%TO.P,D6,1*%
%TO.N,VCC*%
X127428000Y-46228000D03*
%TD*%
%TO.P,C33,2*%
%TO.N,GND*%
%TA.AperFunction,SMDPad,CuDef*%
G36*
G01*
X149526500Y-65245000D02*
X149526500Y-64295000D01*
G75*
G02*
X149776500Y-64045000I250000J0D01*
G01*
X150451500Y-64045000D01*
G75*
G02*
X150701500Y-64295000I0J-250000D01*
G01*
X150701500Y-65245000D01*
G75*
G02*
X150451500Y-65495000I-250000J0D01*
G01*
X149776500Y-65495000D01*
G75*
G02*
X149526500Y-65245000I0J250000D01*
G01*
G37*
%TD.AperFunction*%
%TO.P,C33,1*%
%TO.N,+3V3*%
%TA.AperFunction,SMDPad,CuDef*%
G36*
G01*
X147451500Y-65245000D02*
X147451500Y-64295000D01*
G75*
G02*
X147701500Y-64045000I250000J0D01*
G01*
X148376500Y-64045000D01*
G75*
G02*
X148626500Y-64295000I0J-250000D01*
G01*
X148626500Y-65245000D01*
G75*
G02*
X148376500Y-65495000I-250000J0D01*
G01*
X147701500Y-65495000D01*
G75*
G02*
X147451500Y-65245000I0J250000D01*
G01*
G37*
%TD.AperFunction*%
%TD*%
%TO.P,C31,2*%
%TO.N,GND*%
%TA.AperFunction,SMDPad,CuDef*%
G36*
G01*
X144796500Y-68751500D02*
X145271500Y-68751500D01*
G75*
G02*
X145509000Y-68989000I0J-237500D01*
G01*
X145509000Y-69589000D01*
G75*
G02*
X145271500Y-69826500I-237500J0D01*
G01*
X144796500Y-69826500D01*
G75*
G02*
X144559000Y-69589000I0J237500D01*
G01*
X144559000Y-68989000D01*
G75*
G02*
X144796500Y-68751500I237500J0D01*
G01*
G37*
%TD.AperFunction*%
%TO.P,C31,1*%
%TO.N,+3V3*%
%TA.AperFunction,SMDPad,CuDef*%
G36*
G01*
X144796500Y-67026500D02*
X145271500Y-67026500D01*
G75*
G02*
X145509000Y-67264000I0J-237500D01*
G01*
X145509000Y-67864000D01*
G75*
G02*
X145271500Y-68101500I-237500J0D01*
G01*
X144796500Y-68101500D01*
G75*
G02*
X144559000Y-67864000I0J237500D01*
G01*
X144559000Y-67264000D01*
G75*
G02*
X144796500Y-67026500I237500J0D01*
G01*
G37*
%TD.AperFunction*%
%TD*%
%TO.P,C30,2*%
%TO.N,GND*%
%TA.AperFunction,SMDPad,CuDef*%
G36*
G01*
X144813000Y-74385500D02*
X145763000Y-74385500D01*
G75*
G02*
X146013000Y-74635500I0J-250000D01*
G01*
X146013000Y-75310500D01*
G75*
G02*
X145763000Y-75560500I-250000J0D01*
G01*
X144813000Y-75560500D01*
G75*
G02*
X144563000Y-75310500I0J250000D01*
G01*
X144563000Y-74635500D01*
G75*
G02*
X144813000Y-74385500I250000J0D01*
G01*
G37*
%TD.AperFunction*%
%TO.P,C30,1*%
%TO.N,+3V3*%
%TA.AperFunction,SMDPad,CuDef*%
G36*
G01*
X144813000Y-72310500D02*
X145763000Y-72310500D01*
G75*
G02*
X146013000Y-72560500I0J-250000D01*
G01*
X146013000Y-73235500D01*
G75*
G02*
X145763000Y-73485500I-250000J0D01*
G01*
X144813000Y-73485500D01*
G75*
G02*
X144563000Y-73235500I0J250000D01*
G01*
X144563000Y-72560500D01*
G75*
G02*
X144813000Y-72310500I250000J0D01*
G01*
G37*
%TD.AperFunction*%
%TD*%
%TO.P,C29,2*%
%TO.N,GND*%
%TA.AperFunction,SMDPad,CuDef*%
G36*
G01*
X157717500Y-66577500D02*
X157242500Y-66577500D01*
G75*
G02*
X157005000Y-66340000I0J237500D01*
G01*
X157005000Y-65740000D01*
G75*
G02*
X157242500Y-65502500I237500J0D01*
G01*
X157717500Y-65502500D01*
G75*
G02*
X157955000Y-65740000I0J-237500D01*
G01*
X157955000Y-66340000D01*
G75*
G02*
X157717500Y-66577500I-237500J0D01*
G01*
G37*
%TD.AperFunction*%
%TO.P,C29,1*%
%TO.N,+3V3*%
%TA.AperFunction,SMDPad,CuDef*%
G36*
G01*
X157717500Y-68302500D02*
X157242500Y-68302500D01*
G75*
G02*
X157005000Y-68065000I0J237500D01*
G01*
X157005000Y-67465000D01*
G75*
G02*
X157242500Y-67227500I237500J0D01*
G01*
X157717500Y-67227500D01*
G75*
G02*
X157955000Y-67465000I0J-237500D01*
G01*
X157955000Y-68065000D01*
G75*
G02*
X157717500Y-68302500I-237500J0D01*
G01*
G37*
%TD.AperFunction*%
%TD*%
%TO.P,C28,2*%
%TO.N,GND*%
%TA.AperFunction,SMDPad,CuDef*%
G36*
G01*
X143018500Y-74138500D02*
X143493500Y-74138500D01*
G75*
G02*
X143731000Y-74376000I0J-237500D01*
G01*
X143731000Y-74976000D01*
G75*
G02*
X143493500Y-75213500I-237500J0D01*
G01*
X143018500Y-75213500D01*
G75*
G02*
X142781000Y-74976000I0J237500D01*
G01*
X142781000Y-74376000D01*
G75*
G02*
X143018500Y-74138500I237500J0D01*
G01*
G37*
%TD.AperFunction*%
%TO.P,C28,1*%
%TO.N,+3V3*%
%TA.AperFunction,SMDPad,CuDef*%
G36*
G01*
X143018500Y-72413500D02*
X143493500Y-72413500D01*
G75*
G02*
X143731000Y-72651000I0J-237500D01*
G01*
X143731000Y-73251000D01*
G75*
G02*
X143493500Y-73488500I-237500J0D01*
G01*
X143018500Y-73488500D01*
G75*
G02*
X142781000Y-73251000I0J237500D01*
G01*
X142781000Y-72651000D01*
G75*
G02*
X143018500Y-72413500I237500J0D01*
G01*
G37*
%TD.AperFunction*%
%TD*%
%TO.P,C23,2*%
%TO.N,GND*%
%TA.AperFunction,SMDPad,CuDef*%
G36*
G01*
X143018500Y-68751500D02*
X143493500Y-68751500D01*
G75*
G02*
X143731000Y-68989000I0J-237500D01*
G01*
X143731000Y-69589000D01*
G75*
G02*
X143493500Y-69826500I-237500J0D01*
G01*
X143018500Y-69826500D01*
G75*
G02*
X142781000Y-69589000I0J237500D01*
G01*
X142781000Y-68989000D01*
G75*
G02*
X143018500Y-68751500I237500J0D01*
G01*
G37*
%TD.AperFunction*%
%TO.P,C23,1*%
%TO.N,+3V3*%
%TA.AperFunction,SMDPad,CuDef*%
G36*
G01*
X143018500Y-67026500D02*
X143493500Y-67026500D01*
G75*
G02*
X143731000Y-67264000I0J-237500D01*
G01*
X143731000Y-67864000D01*
G75*
G02*
X143493500Y-68101500I-237500J0D01*
G01*
X143018500Y-68101500D01*
G75*
G02*
X142781000Y-67864000I0J237500D01*
G01*
X142781000Y-67264000D01*
G75*
G02*
X143018500Y-67026500I237500J0D01*
G01*
G37*
%TD.AperFunction*%
%TD*%
%TO.P,C21,2*%
%TO.N,GND*%
%TA.AperFunction,SMDPad,CuDef*%
G36*
G01*
X134903500Y-52594500D02*
X134903500Y-53069500D01*
G75*
G02*
X134666000Y-53307000I-237500J0D01*
G01*
X134066000Y-53307000D01*
G75*
G02*
X133828500Y-53069500I0J237500D01*
G01*
X133828500Y-52594500D01*
G75*
G02*
X134066000Y-52357000I237500J0D01*
G01*
X134666000Y-52357000D01*
G75*
G02*
X134903500Y-52594500I0J-237500D01*
G01*
G37*
%TD.AperFunction*%
%TO.P,C21,1*%
%TO.N,/STM32L151RET6TR/RST*%
%TA.AperFunction,SMDPad,CuDef*%
G36*
G01*
X136628500Y-52594500D02*
X136628500Y-53069500D01*
G75*
G02*
X136391000Y-53307000I-237500J0D01*
G01*
X135791000Y-53307000D01*
G75*
G02*
X135553500Y-53069500I0J237500D01*
G01*
X135553500Y-52594500D01*
G75*
G02*
X135791000Y-52357000I237500J0D01*
G01*
X136391000Y-52357000D01*
G75*
G02*
X136628500Y-52594500I0J-237500D01*
G01*
G37*
%TD.AperFunction*%
%TD*%
%TO.P,C20,2*%
%TO.N,+3V3*%
%TA.AperFunction,SMDPad,CuDef*%
G36*
G01*
X141306500Y-52594500D02*
X141306500Y-53069500D01*
G75*
G02*
X141069000Y-53307000I-237500J0D01*
G01*
X140469000Y-53307000D01*
G75*
G02*
X140231500Y-53069500I0J237500D01*
G01*
X140231500Y-52594500D01*
G75*
G02*
X140469000Y-52357000I237500J0D01*
G01*
X141069000Y-52357000D01*
G75*
G02*
X141306500Y-52594500I0J-237500D01*
G01*
G37*
%TD.AperFunction*%
%TO.P,C20,1*%
%TO.N,/STM32L151RET6TR/BOOT*%
%TA.AperFunction,SMDPad,CuDef*%
G36*
G01*
X143031500Y-52594500D02*
X143031500Y-53069500D01*
G75*
G02*
X142794000Y-53307000I-237500J0D01*
G01*
X142194000Y-53307000D01*
G75*
G02*
X141956500Y-53069500I0J237500D01*
G01*
X141956500Y-52594500D01*
G75*
G02*
X142194000Y-52357000I237500J0D01*
G01*
X142794000Y-52357000D01*
G75*
G02*
X143031500Y-52594500I0J-237500D01*
G01*
G37*
%TD.AperFunction*%
%TD*%
%TO.P,C2,2*%
%TO.N,SW_2*%
%TA.AperFunction,SMDPad,CuDef*%
G36*
G01*
X159287500Y-77740500D02*
X159287500Y-78215500D01*
G75*
G02*
X159050000Y-78453000I-237500J0D01*
G01*
X158450000Y-78453000D01*
G75*
G02*
X158212500Y-78215500I0J237500D01*
G01*
X158212500Y-77740500D01*
G75*
G02*
X158450000Y-77503000I237500J0D01*
G01*
X159050000Y-77503000D01*
G75*
G02*
X159287500Y-77740500I0J-237500D01*
G01*
G37*
%TD.AperFunction*%
%TO.P,C2,1*%
%TO.N,Net-(C2-Pad1)*%
%TA.AperFunction,SMDPad,CuDef*%
G36*
G01*
X161012500Y-77740500D02*
X161012500Y-78215500D01*
G75*
G02*
X160775000Y-78453000I-237500J0D01*
G01*
X160175000Y-78453000D01*
G75*
G02*
X159937500Y-78215500I0J237500D01*
G01*
X159937500Y-77740500D01*
G75*
G02*
X160175000Y-77503000I237500J0D01*
G01*
X160775000Y-77503000D01*
G75*
G02*
X161012500Y-77740500I0J-237500D01*
G01*
G37*
%TD.AperFunction*%
%TD*%
%TO.P,C1,2*%
%TO.N,SW_1*%
%TA.AperFunction,SMDPad,CuDef*%
G36*
G01*
X159287500Y-84598500D02*
X159287500Y-85073500D01*
G75*
G02*
X159050000Y-85311000I-237500J0D01*
G01*
X158450000Y-85311000D01*
G75*
G02*
X158212500Y-85073500I0J237500D01*
G01*
X158212500Y-84598500D01*
G75*
G02*
X158450000Y-84361000I237500J0D01*
G01*
X159050000Y-84361000D01*
G75*
G02*
X159287500Y-84598500I0J-237500D01*
G01*
G37*
%TD.AperFunction*%
%TO.P,C1,1*%
%TO.N,Net-(C1-Pad1)*%
%TA.AperFunction,SMDPad,CuDef*%
G36*
G01*
X161012500Y-84598500D02*
X161012500Y-85073500D01*
G75*
G02*
X160775000Y-85311000I-237500J0D01*
G01*
X160175000Y-85311000D01*
G75*
G02*
X159937500Y-85073500I0J237500D01*
G01*
X159937500Y-84598500D01*
G75*
G02*
X160175000Y-84361000I237500J0D01*
G01*
X160775000Y-84361000D01*
G75*
G02*
X161012500Y-84598500I0J-237500D01*
G01*
G37*
%TD.AperFunction*%
%TD*%
%TO.P,C13,2*%
%TO.N,GND*%
%TA.AperFunction,SMDPad,CuDef*%
G36*
G01*
X179611000Y-120338000D02*
X180561000Y-120338000D01*
G75*
G02*
X180811000Y-120588000I0J-250000D01*
G01*
X180811000Y-121263000D01*
G75*
G02*
X180561000Y-121513000I-250000J0D01*
G01*
X179611000Y-121513000D01*
G75*
G02*
X179361000Y-121263000I0J250000D01*
G01*
X179361000Y-120588000D01*
G75*
G02*
X179611000Y-120338000I250000J0D01*
G01*
G37*
%TD.AperFunction*%
%TO.P,C13,1*%
%TO.N,+3V3*%
%TA.AperFunction,SMDPad,CuDef*%
G36*
G01*
X179611000Y-118263000D02*
X180561000Y-118263000D01*
G75*
G02*
X180811000Y-118513000I0J-250000D01*
G01*
X180811000Y-119188000D01*
G75*
G02*
X180561000Y-119438000I-250000J0D01*
G01*
X179611000Y-119438000D01*
G75*
G02*
X179361000Y-119188000I0J250000D01*
G01*
X179361000Y-118513000D01*
G75*
G02*
X179611000Y-118263000I250000J0D01*
G01*
G37*
%TD.AperFunction*%
%TD*%
%TO.P,C11,1*%
%TO.N,+3V3*%
%TA.AperFunction,SMDPad,CuDef*%
G36*
G01*
X177816500Y-118742000D02*
X178291500Y-118742000D01*
G75*
G02*
X178529000Y-118979500I0J-237500D01*
G01*
X178529000Y-119579500D01*
G75*
G02*
X178291500Y-119817000I-237500J0D01*
G01*
X177816500Y-119817000D01*
G75*
G02*
X177579000Y-119579500I0J237500D01*
G01*
X177579000Y-118979500D01*
G75*
G02*
X177816500Y-118742000I237500J0D01*
G01*
G37*
%TD.AperFunction*%
%TO.P,C11,2*%
%TO.N,GND*%
%TA.AperFunction,SMDPad,CuDef*%
G36*
G01*
X177816500Y-120467000D02*
X178291500Y-120467000D01*
G75*
G02*
X178529000Y-120704500I0J-237500D01*
G01*
X178529000Y-121304500D01*
G75*
G02*
X178291500Y-121542000I-237500J0D01*
G01*
X177816500Y-121542000D01*
G75*
G02*
X177579000Y-121304500I0J237500D01*
G01*
X177579000Y-120704500D01*
G75*
G02*
X177816500Y-120467000I237500J0D01*
G01*
G37*
%TD.AperFunction*%
%TD*%
%TO.P,R15,1*%
%TO.N,+3V3*%
%TA.AperFunction,SMDPad,CuDef*%
G36*
G01*
X178250001Y-117186000D02*
X177349999Y-117186000D01*
G75*
G02*
X177100000Y-116936001I0J249999D01*
G01*
X177100000Y-116235999D01*
G75*
G02*
X177349999Y-115986000I249999J0D01*
G01*
X178250001Y-115986000D01*
G75*
G02*
X178500000Y-116235999I0J-249999D01*
G01*
X178500000Y-116936001D01*
G75*
G02*
X178250001Y-117186000I-249999J0D01*
G01*
G37*
%TD.AperFunction*%
%TO.P,R15,2*%
%TO.N,XSHUT_2*%
%TA.AperFunction,SMDPad,CuDef*%
G36*
G01*
X178250001Y-115186000D02*
X177349999Y-115186000D01*
G75*
G02*
X177100000Y-114936001I0J249999D01*
G01*
X177100000Y-114235999D01*
G75*
G02*
X177349999Y-113986000I249999J0D01*
G01*
X178250001Y-113986000D01*
G75*
G02*
X178500000Y-114235999I0J-249999D01*
G01*
X178500000Y-114936001D01*
G75*
G02*
X178250001Y-115186000I-249999J0D01*
G01*
G37*
%TD.AperFunction*%
%TD*%
%TO.P,C9,2*%
%TO.N,GND*%
%TA.AperFunction,SMDPad,CuDef*%
G36*
G01*
X146574500Y-120112500D02*
X147049500Y-120112500D01*
G75*
G02*
X147287000Y-120350000I0J-237500D01*
G01*
X147287000Y-120950000D01*
G75*
G02*
X147049500Y-121187500I-237500J0D01*
G01*
X146574500Y-121187500D01*
G75*
G02*
X146337000Y-120950000I0J237500D01*
G01*
X146337000Y-120350000D01*
G75*
G02*
X146574500Y-120112500I237500J0D01*
G01*
G37*
%TD.AperFunction*%
%TO.P,C9,1*%
%TO.N,+3V3*%
%TA.AperFunction,SMDPad,CuDef*%
G36*
G01*
X146574500Y-118387500D02*
X147049500Y-118387500D01*
G75*
G02*
X147287000Y-118625000I0J-237500D01*
G01*
X147287000Y-119225000D01*
G75*
G02*
X147049500Y-119462500I-237500J0D01*
G01*
X146574500Y-119462500D01*
G75*
G02*
X146337000Y-119225000I0J237500D01*
G01*
X146337000Y-118625000D01*
G75*
G02*
X146574500Y-118387500I237500J0D01*
G01*
G37*
%TD.AperFunction*%
%TD*%
%TO.P,C15,2*%
%TO.N,GND*%
%TA.AperFunction,SMDPad,CuDef*%
G36*
G01*
X115078500Y-120112500D02*
X115553500Y-120112500D01*
G75*
G02*
X115791000Y-120350000I0J-237500D01*
G01*
X115791000Y-120950000D01*
G75*
G02*
X115553500Y-121187500I-237500J0D01*
G01*
X115078500Y-121187500D01*
G75*
G02*
X114841000Y-120950000I0J237500D01*
G01*
X114841000Y-120350000D01*
G75*
G02*
X115078500Y-120112500I237500J0D01*
G01*
G37*
%TD.AperFunction*%
%TO.P,C15,1*%
%TO.N,+3V3*%
%TA.AperFunction,SMDPad,CuDef*%
G36*
G01*
X115078500Y-118387500D02*
X115553500Y-118387500D01*
G75*
G02*
X115791000Y-118625000I0J-237500D01*
G01*
X115791000Y-119225000D01*
G75*
G02*
X115553500Y-119462500I-237500J0D01*
G01*
X115078500Y-119462500D01*
G75*
G02*
X114841000Y-119225000I0J237500D01*
G01*
X114841000Y-118625000D01*
G75*
G02*
X115078500Y-118387500I237500J0D01*
G01*
G37*
%TD.AperFunction*%
%TD*%
%TO.P,C16,2*%
%TO.N,GND*%
%TA.AperFunction,SMDPad,CuDef*%
G36*
G01*
X118651000Y-120062500D02*
X119601000Y-120062500D01*
G75*
G02*
X119851000Y-120312500I0J-250000D01*
G01*
X119851000Y-120987500D01*
G75*
G02*
X119601000Y-121237500I-250000J0D01*
G01*
X118651000Y-121237500D01*
G75*
G02*
X118401000Y-120987500I0J250000D01*
G01*
X118401000Y-120312500D01*
G75*
G02*
X118651000Y-120062500I250000J0D01*
G01*
G37*
%TD.AperFunction*%
%TO.P,C16,1*%
%TO.N,+3V3*%
%TA.AperFunction,SMDPad,CuDef*%
G36*
G01*
X118651000Y-117987500D02*
X119601000Y-117987500D01*
G75*
G02*
X119851000Y-118237500I0J-250000D01*
G01*
X119851000Y-118912500D01*
G75*
G02*
X119601000Y-119162500I-250000J0D01*
G01*
X118651000Y-119162500D01*
G75*
G02*
X118401000Y-118912500I0J250000D01*
G01*
X118401000Y-118237500D01*
G75*
G02*
X118651000Y-117987500I250000J0D01*
G01*
G37*
%TD.AperFunction*%
%TD*%
%TO.P,R12,2*%
%TO.N,GPIOI_1*%
%TA.AperFunction,SMDPad,CuDef*%
G36*
G01*
X149294001Y-114932000D02*
X148393999Y-114932000D01*
G75*
G02*
X148144000Y-114682001I0J249999D01*
G01*
X148144000Y-113981999D01*
G75*
G02*
X148393999Y-113732000I249999J0D01*
G01*
X149294001Y-113732000D01*
G75*
G02*
X149544000Y-113981999I0J-249999D01*
G01*
X149544000Y-114682001D01*
G75*
G02*
X149294001Y-114932000I-249999J0D01*
G01*
G37*
%TD.AperFunction*%
%TO.P,R12,1*%
%TO.N,+3V3*%
%TA.AperFunction,SMDPad,CuDef*%
G36*
G01*
X149294001Y-116932000D02*
X148393999Y-116932000D01*
G75*
G02*
X148144000Y-116682001I0J249999D01*
G01*
X148144000Y-115981999D01*
G75*
G02*
X148393999Y-115732000I249999J0D01*
G01*
X149294001Y-115732000D01*
G75*
G02*
X149544000Y-115981999I0J-249999D01*
G01*
X149544000Y-116682001D01*
G75*
G02*
X149294001Y-116932000I-249999J0D01*
G01*
G37*
%TD.AperFunction*%
%TD*%
%TO.P,R14,1*%
%TO.N,+3V3*%
%TA.AperFunction,SMDPad,CuDef*%
G36*
G01*
X180536001Y-117170000D02*
X179635999Y-117170000D01*
G75*
G02*
X179386000Y-116920001I0J249999D01*
G01*
X179386000Y-116219999D01*
G75*
G02*
X179635999Y-115970000I249999J0D01*
G01*
X180536001Y-115970000D01*
G75*
G02*
X180786000Y-116219999I0J-249999D01*
G01*
X180786000Y-116920001D01*
G75*
G02*
X180536001Y-117170000I-249999J0D01*
G01*
G37*
%TD.AperFunction*%
%TO.P,R14,2*%
%TO.N,GPIOI_2*%
%TA.AperFunction,SMDPad,CuDef*%
G36*
G01*
X180536001Y-115170000D02*
X179635999Y-115170000D01*
G75*
G02*
X179386000Y-114920001I0J249999D01*
G01*
X179386000Y-114219999D01*
G75*
G02*
X179635999Y-113970000I249999J0D01*
G01*
X180536001Y-113970000D01*
G75*
G02*
X180786000Y-114219999I0J-249999D01*
G01*
X180786000Y-114920001D01*
G75*
G02*
X180536001Y-115170000I-249999J0D01*
G01*
G37*
%TD.AperFunction*%
%TD*%
%TO.P,R13,2*%
%TO.N,XSHUT_1*%
%TA.AperFunction,SMDPad,CuDef*%
G36*
G01*
X147008001Y-114932000D02*
X146107999Y-114932000D01*
G75*
G02*
X145858000Y-114682001I0J249999D01*
G01*
X145858000Y-113981999D01*
G75*
G02*
X146107999Y-113732000I249999J0D01*
G01*
X147008001Y-113732000D01*
G75*
G02*
X147258000Y-113981999I0J-249999D01*
G01*
X147258000Y-114682001D01*
G75*
G02*
X147008001Y-114932000I-249999J0D01*
G01*
G37*
%TD.AperFunction*%
%TO.P,R13,1*%
%TO.N,+3V3*%
%TA.AperFunction,SMDPad,CuDef*%
G36*
G01*
X147008001Y-116932000D02*
X146107999Y-116932000D01*
G75*
G02*
X145858000Y-116682001I0J249999D01*
G01*
X145858000Y-115981999D01*
G75*
G02*
X146107999Y-115732000I249999J0D01*
G01*
X147008001Y-115732000D01*
G75*
G02*
X147258000Y-115981999I0J-249999D01*
G01*
X147258000Y-116682001D01*
G75*
G02*
X147008001Y-116932000I-249999J0D01*
G01*
G37*
%TD.AperFunction*%
%TD*%
%TO.P,R17,2*%
%TO.N,XSHUT_0*%
%TA.AperFunction,SMDPad,CuDef*%
G36*
G01*
X117290001Y-114932000D02*
X116389999Y-114932000D01*
G75*
G02*
X116140000Y-114682001I0J249999D01*
G01*
X116140000Y-113981999D01*
G75*
G02*
X116389999Y-113732000I249999J0D01*
G01*
X117290001Y-113732000D01*
G75*
G02*
X117540000Y-113981999I0J-249999D01*
G01*
X117540000Y-114682001D01*
G75*
G02*
X117290001Y-114932000I-249999J0D01*
G01*
G37*
%TD.AperFunction*%
%TO.P,R17,1*%
%TO.N,+3V3*%
%TA.AperFunction,SMDPad,CuDef*%
G36*
G01*
X117290001Y-116932000D02*
X116389999Y-116932000D01*
G75*
G02*
X116140000Y-116682001I0J249999D01*
G01*
X116140000Y-115981999D01*
G75*
G02*
X116389999Y-115732000I249999J0D01*
G01*
X117290001Y-115732000D01*
G75*
G02*
X117540000Y-115981999I0J-249999D01*
G01*
X117540000Y-116682001D01*
G75*
G02*
X117290001Y-116932000I-249999J0D01*
G01*
G37*
%TD.AperFunction*%
%TD*%
%TO.P,R16,2*%
%TO.N,GPIOI_0*%
%TA.AperFunction,SMDPad,CuDef*%
G36*
G01*
X119576001Y-114932000D02*
X118675999Y-114932000D01*
G75*
G02*
X118426000Y-114682001I0J249999D01*
G01*
X118426000Y-113981999D01*
G75*
G02*
X118675999Y-113732000I249999J0D01*
G01*
X119576001Y-113732000D01*
G75*
G02*
X119826000Y-113981999I0J-249999D01*
G01*
X119826000Y-114682001D01*
G75*
G02*
X119576001Y-114932000I-249999J0D01*
G01*
G37*
%TD.AperFunction*%
%TO.P,R16,1*%
%TO.N,+3V3*%
%TA.AperFunction,SMDPad,CuDef*%
G36*
G01*
X119576001Y-116932000D02*
X118675999Y-116932000D01*
G75*
G02*
X118426000Y-116682001I0J249999D01*
G01*
X118426000Y-115981999D01*
G75*
G02*
X118675999Y-115732000I249999J0D01*
G01*
X119576001Y-115732000D01*
G75*
G02*
X119826000Y-115981999I0J-249999D01*
G01*
X119826000Y-116682001D01*
G75*
G02*
X119576001Y-116932000I-249999J0D01*
G01*
G37*
%TD.AperFunction*%
%TD*%
%TO.P,C14,2*%
%TO.N,GND*%
%TA.AperFunction,SMDPad,CuDef*%
G36*
G01*
X116856500Y-120112500D02*
X117331500Y-120112500D01*
G75*
G02*
X117569000Y-120350000I0J-237500D01*
G01*
X117569000Y-120950000D01*
G75*
G02*
X117331500Y-121187500I-237500J0D01*
G01*
X116856500Y-121187500D01*
G75*
G02*
X116619000Y-120950000I0J237500D01*
G01*
X116619000Y-120350000D01*
G75*
G02*
X116856500Y-120112500I237500J0D01*
G01*
G37*
%TD.AperFunction*%
%TO.P,C14,1*%
%TO.N,+3V3*%
%TA.AperFunction,SMDPad,CuDef*%
G36*
G01*
X116856500Y-118387500D02*
X117331500Y-118387500D01*
G75*
G02*
X117569000Y-118625000I0J-237500D01*
G01*
X117569000Y-119225000D01*
G75*
G02*
X117331500Y-119462500I-237500J0D01*
G01*
X116856500Y-119462500D01*
G75*
G02*
X116619000Y-119225000I0J237500D01*
G01*
X116619000Y-118625000D01*
G75*
G02*
X116856500Y-118387500I237500J0D01*
G01*
G37*
%TD.AperFunction*%
%TD*%
%TO.P,C8,2*%
%TO.N,GND*%
%TA.AperFunction,SMDPad,CuDef*%
G36*
G01*
X144796500Y-120112500D02*
X145271500Y-120112500D01*
G75*
G02*
X145509000Y-120350000I0J-237500D01*
G01*
X145509000Y-120950000D01*
G75*
G02*
X145271500Y-121187500I-237500J0D01*
G01*
X144796500Y-121187500D01*
G75*
G02*
X144559000Y-120950000I0J237500D01*
G01*
X144559000Y-120350000D01*
G75*
G02*
X144796500Y-120112500I237500J0D01*
G01*
G37*
%TD.AperFunction*%
%TO.P,C8,1*%
%TO.N,+3V3*%
%TA.AperFunction,SMDPad,CuDef*%
G36*
G01*
X144796500Y-118387500D02*
X145271500Y-118387500D01*
G75*
G02*
X145509000Y-118625000I0J-237500D01*
G01*
X145509000Y-119225000D01*
G75*
G02*
X145271500Y-119462500I-237500J0D01*
G01*
X144796500Y-119462500D01*
G75*
G02*
X144559000Y-119225000I0J237500D01*
G01*
X144559000Y-118625000D01*
G75*
G02*
X144796500Y-118387500I237500J0D01*
G01*
G37*
%TD.AperFunction*%
%TD*%
%TO.P,C12,2*%
%TO.N,GND*%
%TA.AperFunction,SMDPad,CuDef*%
G36*
G01*
X176038500Y-120467000D02*
X176513500Y-120467000D01*
G75*
G02*
X176751000Y-120704500I0J-237500D01*
G01*
X176751000Y-121304500D01*
G75*
G02*
X176513500Y-121542000I-237500J0D01*
G01*
X176038500Y-121542000D01*
G75*
G02*
X175801000Y-121304500I0J237500D01*
G01*
X175801000Y-120704500D01*
G75*
G02*
X176038500Y-120467000I237500J0D01*
G01*
G37*
%TD.AperFunction*%
%TO.P,C12,1*%
%TO.N,+3V3*%
%TA.AperFunction,SMDPad,CuDef*%
G36*
G01*
X176038500Y-118742000D02*
X176513500Y-118742000D01*
G75*
G02*
X176751000Y-118979500I0J-237500D01*
G01*
X176751000Y-119579500D01*
G75*
G02*
X176513500Y-119817000I-237500J0D01*
G01*
X176038500Y-119817000D01*
G75*
G02*
X175801000Y-119579500I0J237500D01*
G01*
X175801000Y-118979500D01*
G75*
G02*
X176038500Y-118742000I237500J0D01*
G01*
G37*
%TD.AperFunction*%
%TD*%
D10*
%TO.P,J6,8*%
%TO.N,XSHUT_1*%
X170180000Y-72898000D03*
%TO.P,J6,7*%
%TO.N,LED_2*%
X170180000Y-75438000D03*
%TO.P,J6,6*%
%TO.N,LED_3*%
X170180000Y-77978000D03*
%TO.P,J6,5*%
%TO.N,XSHUT_2*%
X170180000Y-80518000D03*
%TO.P,J6,4*%
%TO.N,LED_4*%
X170180000Y-83058000D03*
%TO.P,J6,3*%
%TO.N,LED_5*%
X170180000Y-85598000D03*
%TO.P,J6,2*%
%TO.N,N/C*%
X170180000Y-88138000D03*
D11*
%TO.P,J6,1*%
X170180000Y-90678000D03*
%TD*%
D10*
%TO.P,J5,10*%
%TO.N,SCL1*%
X170180000Y-45974000D03*
%TO.P,J5,9*%
%TO.N,SDA1*%
X170180000Y-48514000D03*
%TO.P,J5,8*%
%TO.N,+3V3*%
X170180000Y-51054000D03*
%TO.P,J5,7*%
%TO.N,GND*%
X170180000Y-53594000D03*
%TO.P,J5,6*%
%TO.N,N/C*%
X170180000Y-56134000D03*
%TO.P,J5,5*%
X170180000Y-58674000D03*
%TO.P,J5,4*%
X170180000Y-61214000D03*
%TO.P,J5,3*%
X170180000Y-63754000D03*
%TO.P,J5,2*%
%TO.N,LED_1*%
X170180000Y-66294000D03*
D11*
%TO.P,J5,1*%
%TO.N,XSHUT_0*%
X170180000Y-68834000D03*
%TD*%
D10*
%TO.P,J4,6*%
%TO.N,N/C*%
X121920000Y-90678000D03*
%TO.P,J4,5*%
X121920000Y-88138000D03*
%TO.P,J4,4*%
X121920000Y-85598000D03*
%TO.P,J4,3*%
%TO.N,GPIOI_2*%
X121920000Y-83058000D03*
%TO.P,J4,2*%
%TO.N,GPIOI_1*%
X121920000Y-80518000D03*
D11*
%TO.P,J4,1*%
%TO.N,GPIOI_0*%
X121920000Y-77978000D03*
%TD*%
D10*
%TO.P,J3,8*%
%TO.N,N/C*%
X121920000Y-72898000D03*
%TO.P,J3,7*%
%TO.N,GND*%
X121920000Y-70358000D03*
%TO.P,J3,6*%
X121920000Y-67818000D03*
%TO.P,J3,5*%
%TO.N,+5V*%
X121920000Y-65278000D03*
%TO.P,J3,4*%
%TO.N,+3V3*%
X121920000Y-62738000D03*
%TO.P,J3,3*%
%TO.N,N/C*%
X121920000Y-60198000D03*
%TO.P,J3,2*%
X121920000Y-57658000D03*
D11*
%TO.P,J3,1*%
X121920000Y-55118000D03*
%TD*%
D21*
%TO.N,GND*%
X132842000Y-52832000D03*
X138684000Y-52832000D03*
X129286000Y-60706000D03*
X124553000Y-60706000D03*
X130556000Y-60706000D03*
X145288000Y-89916000D03*
X143764000Y-92710000D03*
X131826000Y-88138000D03*
X137160000Y-94654000D03*
X142246000Y-94990000D03*
X131832000Y-94482000D03*
X143510000Y-78994000D03*
X147066000Y-73152000D03*
X151384000Y-77470000D03*
X154432000Y-98298000D03*
X155448000Y-83820000D03*
X139262051Y-71420701D03*
X139192000Y-61468000D03*
X127542000Y-76962000D03*
X125442000Y-64516000D03*
X113030000Y-111760000D03*
X113030000Y-129540000D03*
X113030000Y-120650000D03*
X113030000Y-124460000D03*
X113030000Y-115570000D03*
X113030000Y-106680000D03*
X142240000Y-120650000D03*
X142240000Y-129540000D03*
X142240000Y-124460000D03*
X142240000Y-106680000D03*
X142240000Y-115570000D03*
X142240000Y-111760000D03*
X173990000Y-124460000D03*
X173990000Y-106680000D03*
X173990000Y-111760000D03*
X173990000Y-129540000D03*
X173990000Y-120650000D03*
X173990000Y-115570000D03*
X142875000Y-100965000D03*
X142246000Y-100336000D03*
%TO.N,VCC*%
X125603000Y-55499000D03*
X125603000Y-56769000D03*
X126492000Y-84582000D03*
X129032000Y-49276000D03*
X129032000Y-50800000D03*
X126492000Y-82804000D03*
%TO.N,+3V3*%
X139446000Y-97282000D03*
X143256000Y-71628000D03*
X138684000Y-54864000D03*
X138938000Y-60452000D03*
X156718000Y-76200000D03*
X156718000Y-83058000D03*
X144780000Y-78994000D03*
X140716000Y-64262000D03*
X155702000Y-66802000D03*
X143256000Y-86614000D03*
X142240000Y-84582000D03*
X143256000Y-85344000D03*
X143256000Y-88138000D03*
X158242000Y-57404000D03*
X159258000Y-50292000D03*
X139446000Y-102870000D03*
X121920000Y-127000000D03*
X121920000Y-118110000D03*
X182880000Y-118110000D03*
X182880000Y-125730000D03*
X182880000Y-109220000D03*
X151130000Y-125730000D03*
X151130000Y-109220000D03*
X151130000Y-118110000D03*
X121920000Y-109220000D03*
X137795000Y-102870000D03*
%TO.N,XSHUT_1*%
X167386000Y-74676000D03*
X142240000Y-114300000D03*
%TO.N,GPIOI_1*%
X147574000Y-80264000D03*
X127542000Y-80518000D03*
X151130000Y-114300000D03*
X150495000Y-103505000D03*
X153035000Y-105410000D03*
%TO.N,XSHUT_2*%
X148082000Y-73660000D03*
X149275002Y-78054998D03*
X165354000Y-81534000D03*
X173990000Y-114300000D03*
%TO.N,GPIOI_2*%
X148590000Y-81026000D03*
X131572000Y-83058000D03*
X182880000Y-114300000D03*
X160020000Y-96520000D03*
X179070000Y-103505000D03*
%TO.N,XSHUT_0*%
X113030000Y-114300000D03*
%TO.N,GPIOI_0*%
X138430000Y-70866000D03*
X130302000Y-72390000D03*
X121920000Y-114300000D03*
X120015000Y-103505000D03*
X121920000Y-105410000D03*
%TO.N,LED_3*%
X148082000Y-85344000D03*
%TO.N,LED_4*%
X149606000Y-85344000D03*
%TO.N,LED_5*%
X152990405Y-85261595D03*
%TO.N,LED_1*%
X145034000Y-85344000D03*
%TO.N,LED_2*%
X146558000Y-85344000D03*
%TO.N,SW_1*%
X160782000Y-86106000D03*
%TO.N,SW_2*%
X155702000Y-76962000D03*
%TO.N,+5V*%
X135128000Y-93980000D03*
X135128000Y-99060000D03*
%TO.N,Net-(C6-Pad1)*%
X129032000Y-97028000D03*
%TO.N,/STM32L151RET6TR/BOOT*%
X144744000Y-52614000D03*
%TO.N,/STM32L151RET6TR/RST*%
X138589010Y-68841990D03*
X137668000Y-63500000D03*
X137378000Y-54828000D03*
X148082000Y-52324000D03*
%TO.N,SCL1*%
X144018000Y-55118000D03*
X182880000Y-116840000D03*
X151130000Y-116840000D03*
X121920000Y-116840000D03*
X181610000Y-106680000D03*
X150495000Y-106680000D03*
X120650000Y-106680000D03*
X120650000Y-123825000D03*
X150225003Y-123825000D03*
X181610000Y-123825000D03*
X107950000Y-107315000D03*
X109220000Y-108585000D03*
X109220000Y-111125000D03*
%TO.N,SDA1*%
X138933347Y-59431347D03*
X182880000Y-115570000D03*
X151130000Y-115570000D03*
X121920000Y-115570000D03*
X180340000Y-106680000D03*
X149225000Y-106680000D03*
X119380000Y-106680000D03*
X119380000Y-123825000D03*
X149225000Y-123825000D03*
X180340000Y-123825000D03*
%TO.N,/STM32L151RET6TR/FTDI_RTS*%
X153670000Y-64262000D03*
X146558000Y-65786000D03*
%TO.N,/STM32L151RET6TR/FTDI_CTS*%
X145542000Y-66040000D03*
%TO.N,/STM32L151RET6TR/SW0*%
X151384000Y-58928000D03*
X151384000Y-53340000D03*
%TO.N,/STM32L151RET6TR/UART_RX*%
X140970000Y-79756000D03*
X141986000Y-75184000D03*
%TO.N,/STM32L151RET6TR/UART_TX*%
X141478000Y-73914000D03*
X140208000Y-76708000D03*
%TO.N,SCL2*%
X155194000Y-68834000D03*
X162560000Y-52832000D03*
%TO.N,SDA2*%
X162560000Y-55372000D03*
X157226000Y-69596000D03*
%TO.N,/STM32L151RET6TR/PIN41*%
X151130000Y-69088000D03*
%TO.N,/STM32L151RET6TR/PIN29*%
X147066000Y-72136000D03*
%TO.N,/STM32L151RET6TR/PIN30*%
X147066000Y-71120000D03*
%TO.N,/STM32L151RET6TR/PB12*%
X162560000Y-73152000D03*
%TO.N,/STM32L151RET6TR/PB13*%
X162560000Y-70612000D03*
%TO.N,/STM32L151RET6TR/PB14*%
X162560000Y-68072000D03*
%TO.N,/STM32L151RET6TR/PB15*%
X162560000Y-65532000D03*
%TO.N,/STM32L151RET6TR/PC6*%
X162560000Y-62992000D03*
%TO.N,/STM32L151RET6TR/PC7*%
X162560000Y-60452000D03*
%TO.N,/STM32L151RET6TR/PC8*%
X162560000Y-57912000D03*
%TO.N,/STM32L151RET6TR/PA9*%
X162560000Y-50292000D03*
%TO.N,/STM32L151RET6TR/PA10*%
X162814000Y-47752000D03*
%TD*%
D22*
%TO.N,GND*%
X134366000Y-52832000D02*
X132842000Y-52832000D01*
X140462000Y-51054000D02*
X138684000Y-52832000D01*
X140462000Y-50800000D02*
X140462000Y-51054000D01*
D23*
X144642000Y-89916000D02*
X141746000Y-92812000D01*
X145288000Y-89916000D02*
X144642000Y-89916000D01*
X143662000Y-92812000D02*
X143764000Y-92710000D01*
X141746000Y-92812000D02*
X143662000Y-92812000D01*
D22*
X144780000Y-69543000D02*
X145034000Y-69289000D01*
X143256000Y-69289000D02*
X143256000Y-69342000D01*
X143553000Y-74973000D02*
X143256000Y-74676000D01*
X145288000Y-74973000D02*
X143553000Y-74973000D01*
X145288000Y-74930000D02*
X147066000Y-73152000D01*
X145288000Y-74973000D02*
X145288000Y-74930000D01*
X155288989Y-65437011D02*
X156972000Y-63754000D01*
X152502009Y-65437011D02*
X155288989Y-65437011D01*
X151834998Y-64770000D02*
X152502009Y-65437011D01*
X150114000Y-64770000D02*
X151834998Y-64770000D01*
X157480000Y-64262000D02*
X156972000Y-63754000D01*
X157480000Y-66040000D02*
X157480000Y-64262000D01*
X145034000Y-69289000D02*
X143256000Y-69289000D01*
X139192000Y-65225000D02*
X139192000Y-61468000D01*
X143256000Y-69289000D02*
X139192000Y-65225000D01*
D23*
X131332000Y-93982000D02*
X131832000Y-94482000D01*
X131332000Y-92812000D02*
X131332000Y-93982000D01*
D22*
X180086000Y-112268000D02*
X178054000Y-112268000D01*
X176276000Y-112268000D02*
X178054000Y-112268000D01*
X176276000Y-121004500D02*
X178054000Y-121004500D01*
X178133000Y-120925500D02*
X178054000Y-121004500D01*
X180086000Y-120925500D02*
X178133000Y-120925500D01*
X178154500Y-129286000D02*
X178054000Y-129386500D01*
X180086000Y-129286000D02*
X178154500Y-129286000D01*
X178054000Y-129386500D02*
X176276000Y-129386500D01*
X145034000Y-129286000D02*
X146812000Y-129286000D01*
X148844000Y-129286000D02*
X146812000Y-129286000D01*
X145034000Y-120650000D02*
X146812000Y-120650000D01*
X146812000Y-120650000D02*
X148844000Y-120650000D01*
X145034000Y-112268000D02*
X146812000Y-112268000D01*
X146812000Y-112268000D02*
X148844000Y-112268000D01*
X117178000Y-129329000D02*
X117094000Y-129413000D01*
X119126000Y-129329000D02*
X117178000Y-129329000D01*
X115342500Y-129413000D02*
X115316000Y-129386500D01*
X117094000Y-129413000D02*
X115342500Y-129413000D01*
X119126000Y-120650000D02*
X117094000Y-120650000D01*
X115316000Y-120650000D02*
X117094000Y-120650000D01*
X115316000Y-112268000D02*
X117094000Y-112268000D01*
X117094000Y-112268000D02*
X119126000Y-112268000D01*
X115316000Y-112268000D02*
X113538000Y-112268000D01*
X113538000Y-112268000D02*
X113030000Y-111760000D01*
X115316000Y-120650000D02*
X113030000Y-120650000D01*
X113183500Y-129386500D02*
X113030000Y-129540000D01*
X115316000Y-129386500D02*
X113183500Y-129386500D01*
X145034000Y-120650000D02*
X142240000Y-120650000D01*
X142494000Y-129286000D02*
X142240000Y-129540000D01*
X145034000Y-129286000D02*
X142494000Y-129286000D01*
X145034000Y-112268000D02*
X142748000Y-112268000D01*
X142748000Y-112268000D02*
X142240000Y-111760000D01*
X176276000Y-121004500D02*
X174344500Y-121004500D01*
X174344500Y-121004500D02*
X173990000Y-120650000D01*
X176276000Y-129386500D02*
X174143500Y-129386500D01*
X174143500Y-129386500D02*
X173990000Y-129540000D01*
X174498000Y-112268000D02*
X173990000Y-111760000D01*
X176276000Y-112268000D02*
X174498000Y-112268000D01*
D23*
%TO.N,VCC*%
X127428000Y-46228000D02*
X127428000Y-46402000D01*
X129032000Y-48006000D02*
X129032000Y-49276000D01*
X127428000Y-46402000D02*
X129032000Y-48006000D01*
X129032000Y-49276000D02*
X129032000Y-50800000D01*
X126440349Y-84633651D02*
X126492000Y-84582000D01*
X126440349Y-92520349D02*
X126440349Y-84633651D01*
X126732000Y-92812000D02*
X126440349Y-92520349D01*
%TO.N,+3V3*%
X139446000Y-92812000D02*
X139446000Y-86512000D01*
D22*
X148039000Y-67039000D02*
X147768000Y-67310000D01*
X148039000Y-64770000D02*
X148039000Y-67039000D01*
X145034000Y-67564000D02*
X143256000Y-67564000D01*
X147514000Y-67564000D02*
X147768000Y-67310000D01*
X145034000Y-67564000D02*
X147514000Y-67564000D01*
X143309000Y-72898000D02*
X143256000Y-72951000D01*
X145288000Y-72898000D02*
X143309000Y-72898000D01*
X143256000Y-72951000D02*
X143256000Y-71628000D01*
X140494000Y-57150000D02*
X140494000Y-54864000D01*
X140494000Y-53107000D02*
X140769000Y-52832000D01*
X140494000Y-54864000D02*
X140494000Y-53107000D01*
X140494000Y-54864000D02*
X138684000Y-54864000D01*
X158528000Y-76200000D02*
X158782000Y-75946000D01*
X156718000Y-76200000D02*
X158528000Y-76200000D01*
X158528000Y-83058000D02*
X158782000Y-82804000D01*
X156718000Y-83058000D02*
X158528000Y-83058000D01*
X143256000Y-66802000D02*
X140716000Y-64262000D01*
X143256000Y-67564000D02*
X143256000Y-66802000D01*
X156665000Y-67765000D02*
X155702000Y-66802000D01*
X157480000Y-67765000D02*
X156665000Y-67765000D01*
D23*
X139446000Y-92812000D02*
X139446000Y-97282000D01*
X140310000Y-86512000D02*
X142240000Y-84582000D01*
X139446000Y-86512000D02*
X140310000Y-86512000D01*
X139446000Y-86512000D02*
X138532000Y-86512000D01*
X139548000Y-86614000D02*
X139446000Y-86512000D01*
X139446000Y-86512000D02*
X140818000Y-86512000D01*
X143002000Y-88138000D02*
X143256000Y-88138000D01*
X143002000Y-85344000D02*
X143256000Y-85344000D01*
X143256000Y-85344000D02*
X143256000Y-85344000D01*
X143256000Y-88138000D02*
X143256000Y-88138000D01*
X139446000Y-86512000D02*
X141072000Y-86512000D01*
X141351000Y-86233000D02*
X142113000Y-86233000D01*
X141072000Y-86512000D02*
X141351000Y-86233000D01*
X142113000Y-86233000D02*
X143002000Y-85344000D01*
X139446000Y-86512000D02*
X140868000Y-86512000D01*
X141351000Y-86995000D02*
X141859000Y-86995000D01*
X140868000Y-86512000D02*
X141351000Y-86995000D01*
X141859000Y-86995000D02*
X143002000Y-88138000D01*
X141732000Y-86614000D02*
X143256000Y-88138000D01*
X143256000Y-86614000D02*
X141732000Y-86614000D01*
X141732000Y-86614000D02*
X139548000Y-86614000D01*
D22*
X158274000Y-57372000D02*
X158242000Y-57404000D01*
X160782000Y-57372000D02*
X158274000Y-57372000D01*
X159798000Y-50832000D02*
X159258000Y-50292000D01*
X160782000Y-50832000D02*
X159798000Y-50832000D01*
X177816000Y-116570000D02*
X177800000Y-116586000D01*
X180086000Y-116570000D02*
X177816000Y-116570000D01*
X180086000Y-118850500D02*
X180086000Y-116570000D01*
X176276000Y-119279500D02*
X178054000Y-119279500D01*
X178483000Y-118850500D02*
X178054000Y-119279500D01*
X180086000Y-118850500D02*
X178483000Y-118850500D01*
X176276000Y-110543000D02*
X178054000Y-110543000D01*
X179736000Y-110543000D02*
X180086000Y-110193000D01*
X178054000Y-110543000D02*
X179736000Y-110543000D01*
X176276000Y-127661500D02*
X178054000Y-127661500D01*
X179635500Y-127661500D02*
X180086000Y-127211000D01*
X178054000Y-127661500D02*
X179635500Y-127661500D01*
X181399000Y-127211000D02*
X180086000Y-127211000D01*
X145034000Y-127561000D02*
X146812000Y-127561000D01*
X148494000Y-127561000D02*
X148844000Y-127211000D01*
X146812000Y-127561000D02*
X148494000Y-127561000D01*
X149649000Y-127211000D02*
X148844000Y-127211000D01*
X145034000Y-118925000D02*
X146812000Y-118925000D01*
X148494000Y-118925000D02*
X148844000Y-118575000D01*
X146812000Y-118925000D02*
X148494000Y-118925000D01*
X148844000Y-110193000D02*
X150157000Y-110193000D01*
X147162000Y-110193000D02*
X146812000Y-110543000D01*
X148844000Y-110193000D02*
X147162000Y-110193000D01*
X146812000Y-110543000D02*
X145034000Y-110543000D01*
X146558000Y-116332000D02*
X148844000Y-116332000D01*
X148844000Y-116332000D02*
X148844000Y-118575000D01*
X117067500Y-127661500D02*
X117094000Y-127688000D01*
X115316000Y-127661500D02*
X117067500Y-127661500D01*
X118692000Y-127688000D02*
X119126000Y-127254000D01*
X117094000Y-127688000D02*
X118692000Y-127688000D01*
X115316000Y-118925000D02*
X117094000Y-118925000D01*
X118776000Y-118925000D02*
X119126000Y-118575000D01*
X117094000Y-118925000D02*
X118776000Y-118925000D01*
X119126000Y-116332000D02*
X119126000Y-118575000D01*
X116840000Y-116332000D02*
X119126000Y-116332000D01*
X115316000Y-110543000D02*
X117094000Y-110543000D01*
X118776000Y-110543000D02*
X119126000Y-110193000D01*
X117094000Y-110543000D02*
X118776000Y-110543000D01*
X119126000Y-118575000D02*
X121455000Y-118575000D01*
X121455000Y-118575000D02*
X121920000Y-118110000D01*
X121666000Y-127254000D02*
X121920000Y-127000000D01*
X119126000Y-127254000D02*
X121666000Y-127254000D01*
X182880000Y-125730000D02*
X181399000Y-127211000D01*
X181907000Y-110193000D02*
X182880000Y-109220000D01*
X180086000Y-110193000D02*
X181907000Y-110193000D01*
X180086000Y-118850500D02*
X182139500Y-118850500D01*
X182139500Y-118850500D02*
X182880000Y-118110000D01*
X151130000Y-125730000D02*
X149649000Y-127211000D01*
X148844000Y-118575000D02*
X150665000Y-118575000D01*
X150665000Y-118575000D02*
X151130000Y-118110000D01*
X150157000Y-110193000D02*
X151130000Y-109220000D01*
X120947000Y-110193000D02*
X121920000Y-109220000D01*
X119126000Y-110193000D02*
X120947000Y-110193000D01*
%TO.N,XSHUT_1*%
X168402000Y-74676000D02*
X167386000Y-74676000D01*
X170180000Y-72898000D02*
X168402000Y-74676000D01*
X146526000Y-114300000D02*
X146558000Y-114332000D01*
X142240000Y-114300000D02*
X146526000Y-114300000D01*
%TO.N,GPIOI_1*%
X140621999Y-80481001D02*
X147356999Y-80481001D01*
X147356999Y-80481001D02*
X147574000Y-80264000D01*
X140400345Y-80259347D02*
X140621999Y-80481001D01*
X127800653Y-80259347D02*
X127542000Y-80518000D01*
X138679347Y-80259347D02*
X127800653Y-80259347D01*
X137409347Y-80259347D02*
X138679347Y-80259347D01*
X138679347Y-80259347D02*
X140400345Y-80259347D01*
X151098000Y-114332000D02*
X151130000Y-114300000D01*
X148844000Y-114332000D02*
X151098000Y-114332000D01*
X151130000Y-103505000D02*
X153035000Y-105410000D01*
X150495000Y-103505000D02*
X151130000Y-103505000D01*
%TO.N,XSHUT_2*%
X148082000Y-76861996D02*
X149275002Y-78054998D01*
X148082000Y-73660000D02*
X148082000Y-76861996D01*
X169164000Y-81534000D02*
X170180000Y-80518000D01*
X165354000Y-81534000D02*
X169164000Y-81534000D01*
X177514000Y-114300000D02*
X177800000Y-114586000D01*
X173990000Y-114300000D02*
X177514000Y-114300000D01*
%TO.N,GPIOI_2*%
X131920999Y-82709001D02*
X131572000Y-83058000D01*
X146906999Y-82709001D02*
X131920999Y-82709001D01*
X148590000Y-81026000D02*
X146906999Y-82709001D01*
X182610000Y-114570000D02*
X182880000Y-114300000D01*
X180086000Y-114570000D02*
X182610000Y-114570000D01*
X167005000Y-103505000D02*
X179070000Y-103505000D01*
X160020000Y-96520000D02*
X167005000Y-103505000D01*
%TO.N,XSHUT_0*%
X116808000Y-114300000D02*
X116840000Y-114332000D01*
X113030000Y-114300000D02*
X116808000Y-114300000D01*
%TO.N,GPIOI_0*%
X136906000Y-72390000D02*
X130302000Y-72390000D01*
X138430000Y-70866000D02*
X136906000Y-72390000D01*
X119158000Y-114300000D02*
X119126000Y-114332000D01*
X121920000Y-114300000D02*
X119158000Y-114300000D01*
X120015000Y-103505000D02*
X121920000Y-105410000D01*
%TO.N,LED_3*%
X155759991Y-79698009D02*
X161855991Y-79698009D01*
X163576000Y-77978000D02*
X170180000Y-77978000D01*
X161855991Y-79698009D02*
X163576000Y-77978000D01*
X149606000Y-83820000D02*
X151638000Y-83820000D01*
X148082000Y-85344000D02*
X149606000Y-83820000D01*
X151638000Y-83820000D02*
X155759991Y-79698009D01*
%TO.N,LED_4*%
X161370180Y-81778990D02*
X154949010Y-81778990D01*
X162649190Y-83058000D02*
X161370180Y-81778990D01*
X170180000Y-83058000D02*
X162649190Y-83058000D01*
X149606000Y-85344000D02*
X150368000Y-84582000D01*
X152146000Y-84582000D02*
X152400000Y-84328000D01*
X150368000Y-84582000D02*
X152146000Y-84582000D01*
X154949010Y-81778990D02*
X152400000Y-84328000D01*
%TO.N,LED_5*%
X168946999Y-86831001D02*
X170180000Y-85598000D01*
X154559811Y-86831001D02*
X168946999Y-86831001D01*
X152990405Y-85261595D02*
X154559811Y-86831001D01*
%TO.N,LED_1*%
X165413001Y-74373009D02*
X161008000Y-78778010D01*
X165413001Y-71060999D02*
X165413001Y-74373009D01*
X170180000Y-66294000D02*
X165413001Y-71060999D01*
X161008000Y-78778010D02*
X154139990Y-78778010D01*
X147701000Y-82677000D02*
X150241000Y-82677000D01*
X145034000Y-85344000D02*
X147701000Y-82677000D01*
X154139990Y-78778010D02*
X150241000Y-82677000D01*
%TO.N,LED_2*%
X170180000Y-75438000D02*
X165100000Y-75438000D01*
X165100000Y-75438000D02*
X161290000Y-79248000D01*
X154940000Y-79248000D02*
X153416000Y-80772000D01*
X156210000Y-79248000D02*
X154940000Y-79248000D01*
X154432000Y-79756000D02*
X153416000Y-80772000D01*
X161290000Y-79248000D02*
X156210000Y-79248000D01*
X148590000Y-83312000D02*
X150876000Y-83312000D01*
X146558000Y-85344000D02*
X148590000Y-83312000D01*
X153416000Y-80772000D02*
X150876000Y-83312000D01*
%TO.N,SW_1*%
X160020000Y-86106000D02*
X158750000Y-84836000D01*
X160782000Y-86106000D02*
X160020000Y-86106000D01*
%TO.N,SW_2*%
X157734000Y-76962000D02*
X158750000Y-77978000D01*
X155702000Y-76962000D02*
X157734000Y-76962000D01*
D23*
%TO.N,+5V*%
X136296000Y-92812000D02*
X137146000Y-92812000D01*
X135128000Y-93980000D02*
X136296000Y-92812000D01*
X135128000Y-99568000D02*
X136398000Y-100838000D01*
X135128000Y-99060000D02*
X135128000Y-99568000D01*
X135128000Y-93980000D02*
X135128000Y-99060000D01*
%TO.N,Net-(D6-Pad2)*%
X122428000Y-49728000D02*
X123246000Y-50546000D01*
X122428000Y-46228000D02*
X122428000Y-49728000D01*
D22*
%TO.N,Net-(C1-Pad1)*%
X160475000Y-83111000D02*
X160782000Y-82804000D01*
X160475000Y-84836000D02*
X160475000Y-83111000D01*
%TO.N,Net-(C2-Pad1)*%
X160782000Y-77671000D02*
X160475000Y-77978000D01*
X160782000Y-75946000D02*
X160782000Y-77671000D01*
D23*
%TO.N,Net-(C6-Pad1)*%
X129032000Y-92812000D02*
X129032000Y-86512000D01*
X129032000Y-92812000D02*
X129032000Y-97028000D01*
X129032000Y-98472000D02*
X131398000Y-100838000D01*
X129032000Y-97028000D02*
X129032000Y-98472000D01*
D22*
%TO.N,/STM32L151RET6TR/BOOT*%
X144526000Y-52832000D02*
X144744000Y-52614000D01*
X142494000Y-52832000D02*
X144526000Y-52832000D01*
X142462000Y-52800000D02*
X142494000Y-52832000D01*
X142462000Y-50800000D02*
X142462000Y-52800000D01*
%TO.N,/STM32L151RET6TR/RST*%
X137668000Y-67920980D02*
X137668000Y-63500000D01*
X138589010Y-68841990D02*
X137668000Y-67920980D01*
X136091000Y-53541000D02*
X137378000Y-54828000D01*
X136091000Y-52832000D02*
X136091000Y-53541000D01*
X153162000Y-51523002D02*
X153162000Y-51054000D01*
X149821002Y-52324000D02*
X148082000Y-52324000D01*
X151091002Y-51054000D02*
X149821002Y-52324000D01*
X153162000Y-51054000D02*
X151091002Y-51054000D01*
%TO.N,SCL1*%
X142748000Y-55118000D02*
X142494000Y-54864000D01*
X144018000Y-55118000D02*
X142748000Y-55118000D01*
X148082000Y-51054000D02*
X144018000Y-55118000D01*
X149352000Y-51054000D02*
X148082000Y-51054000D01*
X141419010Y-57838180D02*
X140837190Y-58420000D01*
X141419010Y-55938990D02*
X141419010Y-57838180D01*
X142494000Y-54864000D02*
X141419010Y-55938990D01*
X140837190Y-58420000D02*
X137414000Y-58420000D01*
X128270000Y-67564000D02*
X128016000Y-67818000D01*
X131572000Y-64262000D02*
X128270000Y-67564000D01*
X137414000Y-58420000D02*
X131572000Y-64262000D01*
X150527001Y-49878999D02*
X149352000Y-51054000D01*
X157536001Y-49878999D02*
X150527001Y-49878999D01*
X159473002Y-51816000D02*
X157536001Y-49878999D01*
X164899002Y-51816000D02*
X159473002Y-51816000D01*
X165413001Y-51302001D02*
X164899002Y-51816000D01*
X165413001Y-50740999D02*
X165413001Y-51302001D01*
X170180000Y-45974000D02*
X165413001Y-50740999D01*
X126642510Y-121562510D02*
X150217490Y-121562510D01*
X151855001Y-117565001D02*
X151130000Y-116840000D01*
X151855001Y-119924999D02*
X151855001Y-117565001D01*
X150217490Y-121562510D02*
X151855001Y-119924999D01*
X151130000Y-116840000D02*
X168275000Y-116840000D01*
X168275000Y-116840000D02*
X173990000Y-122555000D01*
X180082190Y-122555000D02*
X183605001Y-119032189D01*
X183605001Y-117565001D02*
X182880000Y-116840000D01*
X183605001Y-119032189D02*
X183605001Y-117565001D01*
X173990000Y-122555000D02*
X180082190Y-122555000D01*
X121920000Y-116840000D02*
X126642510Y-121562510D01*
X181610000Y-106680000D02*
X180884999Y-105954999D01*
X150225003Y-123259315D02*
X150225003Y-123825000D01*
X150065687Y-123099999D02*
X150225003Y-123259315D01*
X121375001Y-123099999D02*
X150065687Y-123099999D01*
X120650000Y-123825000D02*
X121375001Y-123099999D01*
X180884999Y-123099999D02*
X181610000Y-123825000D01*
X150950004Y-123099999D02*
X180884999Y-123099999D01*
X150225003Y-123825000D02*
X150950004Y-123099999D01*
X131572000Y-64262000D02*
X124263990Y-71570010D01*
X149769999Y-105954999D02*
X150495000Y-106680000D01*
X141060001Y-105954999D02*
X149769999Y-105954999D01*
X140335000Y-106680000D02*
X141060001Y-105954999D01*
X120650000Y-106680000D02*
X140335000Y-106680000D01*
X124263990Y-71570010D02*
X124263990Y-94811010D01*
X124263990Y-94811010D02*
X116205000Y-102870000D01*
X116205000Y-102870000D02*
X111125000Y-102870000D01*
X107950000Y-106045000D02*
X107950000Y-107315000D01*
X111125000Y-102870000D02*
X107950000Y-106045000D01*
X119924999Y-105954999D02*
X120650000Y-106680000D01*
X111850001Y-105954999D02*
X119924999Y-105954999D01*
X109220000Y-108585000D02*
X111850001Y-105954999D01*
X109220000Y-117913002D02*
X109220000Y-111125000D01*
X114406997Y-123099999D02*
X109220000Y-117913002D01*
X119924999Y-123099999D02*
X114406997Y-123099999D01*
X120650000Y-123825000D02*
X119924999Y-123099999D01*
X114845490Y-119787500D02*
X110490000Y-115432010D01*
X118412820Y-119487510D02*
X118112830Y-119787500D01*
X118112830Y-119787500D02*
X114845490Y-119787500D01*
X121615492Y-119487510D02*
X118412820Y-119487510D01*
X122645001Y-118458001D02*
X121615492Y-119487510D01*
X122645001Y-117565001D02*
X122645001Y-118458001D01*
X121920000Y-116840000D02*
X122645001Y-117565001D01*
X110490000Y-112395000D02*
X109220000Y-111125000D01*
X110490000Y-115432010D02*
X110490000Y-112395000D01*
X157299998Y-106680000D02*
X158024999Y-105954999D01*
X150495000Y-106680000D02*
X157299998Y-106680000D01*
X180884999Y-105954999D02*
X158024999Y-105954999D01*
%TO.N,SDA1*%
X145796000Y-57150000D02*
X142494000Y-57150000D01*
X149352000Y-53594000D02*
X145796000Y-57150000D01*
X137039063Y-59431347D02*
X138933347Y-59431347D01*
X140912653Y-59431347D02*
X139695347Y-59431347D01*
X142494000Y-57850000D02*
X140912653Y-59431347D01*
X142494000Y-57150000D02*
X142494000Y-57850000D01*
X139695347Y-59431347D02*
X138933347Y-59431347D01*
X129350205Y-67120205D02*
X137039063Y-59431347D01*
X128778000Y-67692410D02*
X129350205Y-67120205D01*
X150527001Y-52418999D02*
X149352000Y-53594000D01*
X158874012Y-53757010D02*
X157536001Y-52418999D01*
X164975988Y-53757010D02*
X158874012Y-53757010D01*
X157536001Y-52418999D02*
X150527001Y-52418999D01*
X166249997Y-52483001D02*
X164975988Y-53757010D01*
X167188001Y-52483001D02*
X166249997Y-52483001D01*
X169004999Y-50666003D02*
X167188001Y-52483001D01*
X169004999Y-49689001D02*
X169004999Y-50666003D01*
X170180000Y-48514000D02*
X169004999Y-49689001D01*
X124083010Y-113406990D02*
X121920000Y-115570000D01*
X151855001Y-113951999D02*
X151309992Y-113406990D01*
X151855001Y-114844999D02*
X151855001Y-113951999D01*
X151130000Y-115570000D02*
X151855001Y-114844999D01*
X151309992Y-113406990D02*
X124083010Y-113406990D01*
X183605001Y-113951999D02*
X183605001Y-114844999D01*
X183228001Y-113574999D02*
X183605001Y-113951999D01*
X183605001Y-114844999D02*
X182880000Y-115570000D01*
X153125001Y-113574999D02*
X183228001Y-113574999D01*
X151130000Y-115570000D02*
X153125001Y-113574999D01*
X148499999Y-107405001D02*
X149225000Y-106680000D01*
X120105001Y-107405001D02*
X148499999Y-107405001D01*
X119380000Y-106680000D02*
X120105001Y-107405001D01*
X149950001Y-107405001D02*
X179614999Y-107405001D01*
X179614999Y-107405001D02*
X180340000Y-106680000D01*
X149225000Y-106680000D02*
X149950001Y-107405001D01*
X149225000Y-123897999D02*
X149225000Y-123825000D01*
X149877002Y-124550001D02*
X149225000Y-123897999D01*
X150573004Y-124550001D02*
X149877002Y-124550001D01*
X151388006Y-123734999D02*
X150573004Y-124550001D01*
X174338001Y-123734999D02*
X151388006Y-123734999D01*
X174428002Y-123825000D02*
X174338001Y-123734999D01*
X180340000Y-123825000D02*
X174428002Y-123825000D01*
X120105001Y-124550001D02*
X119380000Y-123825000D01*
X120998001Y-124550001D02*
X120105001Y-124550001D01*
X121813003Y-123734999D02*
X120998001Y-124550001D01*
X142588001Y-123734999D02*
X121813003Y-123734999D01*
X142678002Y-123825000D02*
X142588001Y-123734999D01*
X149225000Y-123825000D02*
X142678002Y-123825000D01*
X124714000Y-72136000D02*
X125730000Y-71120000D01*
X125730000Y-71120000D02*
X125730000Y-70740410D01*
X125730000Y-70740410D02*
X129350205Y-67120205D01*
X124714000Y-94997410D02*
X124714000Y-94234000D01*
X116391401Y-103320009D02*
X124714000Y-94997410D01*
X124714000Y-94234000D02*
X124714000Y-72136000D01*
X117845990Y-106680000D02*
X115215989Y-109310001D01*
X119380000Y-106680000D02*
X117845990Y-106680000D01*
X113214990Y-103320010D02*
X113849990Y-103320010D01*
X113849990Y-103320010D02*
X116391401Y-103320009D01*
X109220000Y-107315000D02*
X107950000Y-108585000D01*
X109220000Y-105411410D02*
X109220000Y-107315000D01*
X111311400Y-103320010D02*
X109220000Y-105411410D01*
X113849990Y-103320010D02*
X111311400Y-103320010D01*
X108675001Y-109310001D02*
X107950000Y-108585000D01*
X109945001Y-109310001D02*
X108675001Y-109310001D01*
X115215989Y-109310001D02*
X109945001Y-109310001D01*
X109945001Y-109310001D02*
X108871999Y-109310001D01*
X112771990Y-113406990D02*
X108675001Y-109310001D01*
X117528180Y-113406990D02*
X112771990Y-113406990D01*
X118100990Y-114920180D02*
X118100990Y-113979800D01*
X119702010Y-115257010D02*
X118437820Y-115257010D01*
X120015000Y-115570000D02*
X119702010Y-115257010D01*
X118100990Y-113979800D02*
X117528180Y-113406990D01*
X118437820Y-115257010D02*
X118100990Y-114920180D01*
X121920000Y-115570000D02*
X120015000Y-115570000D01*
X107950000Y-117279412D02*
X107950000Y-108585000D01*
X114405587Y-123734999D02*
X107950000Y-117279412D01*
X119289999Y-123734999D02*
X114405587Y-123734999D01*
X119380000Y-123825000D02*
X119289999Y-123734999D01*
%TO.N,/STM32L151RET6TR/FTDI_RTS*%
X147296326Y-63719990D02*
X147037158Y-63979158D01*
X147037158Y-63979158D02*
X147296325Y-63719990D01*
X153670000Y-64262000D02*
X152400000Y-62992000D01*
X148024316Y-62992000D02*
X147296326Y-63719990D01*
X152400000Y-62992000D02*
X148024316Y-62992000D01*
X146558000Y-64458316D02*
X147037158Y-63979158D01*
X146558000Y-65786000D02*
X146558000Y-64458316D01*
%TO.N,/STM32L151RET6TR/FTDI_CTS*%
X155447002Y-61214000D02*
X156972000Y-61214000D01*
X147828000Y-62484000D02*
X154177002Y-62484000D01*
X154177002Y-62484000D02*
X155447002Y-61214000D01*
X145542000Y-64770000D02*
X147828000Y-62484000D01*
X145542000Y-66040000D02*
X145542000Y-64770000D01*
%TO.N,/STM32L151RET6TR/SW0*%
X151384000Y-58928000D02*
X151384000Y-55880000D01*
X151384000Y-55880000D02*
X151384000Y-53340000D01*
%TO.N,/STM32L151RET6TR/UART_RX*%
X141986000Y-78740000D02*
X141986000Y-75184000D01*
X140970000Y-79756000D02*
X141986000Y-78740000D01*
%TO.N,/STM32L151RET6TR/UART_TX*%
X140208000Y-75184000D02*
X140208000Y-76708000D01*
X141478000Y-73914000D02*
X140208000Y-75184000D01*
%TO.N,SCL2*%
X162560000Y-52832000D02*
X164338000Y-52832000D01*
X165100000Y-52832000D02*
X164338000Y-52832000D01*
X166624000Y-51308000D02*
X165100000Y-52832000D01*
X150098000Y-71120000D02*
X149098000Y-71120000D01*
X150368000Y-70104000D02*
X150368000Y-70850000D01*
X150368000Y-70850000D02*
X150098000Y-71120000D01*
X150658999Y-69813001D02*
X150368000Y-70104000D01*
X154214999Y-69813001D02*
X150658999Y-69813001D01*
X155194000Y-68834000D02*
X154214999Y-69813001D01*
X160782000Y-52832000D02*
X162560000Y-52832000D01*
%TO.N,SDA2*%
X162560000Y-55372000D02*
X164338000Y-55372000D01*
X157029002Y-69596000D02*
X157226000Y-69596000D01*
X154743002Y-67310000D02*
X157029002Y-69596000D01*
X150368000Y-67310000D02*
X154743002Y-67310000D01*
X165100000Y-55372000D02*
X164338000Y-55372000D01*
X166624000Y-53848000D02*
X165100000Y-55372000D01*
X160782000Y-55372000D02*
X162560000Y-55372000D01*
%TO.N,/STM32L151RET6TR/PIN41*%
X149830000Y-69088000D02*
X149098000Y-69820000D01*
X151130000Y-69088000D02*
X149830000Y-69088000D01*
%TO.N,/STM32L151RET6TR/PIN29*%
X147350000Y-72420000D02*
X147066000Y-72136000D01*
X149098000Y-72420000D02*
X147350000Y-72420000D01*
%TO.N,/STM32L151RET6TR/PIN30*%
X149068000Y-68102000D02*
X149068000Y-67310000D01*
X149068000Y-67310000D02*
X149068000Y-68310000D01*
X147066000Y-70438662D02*
X147066000Y-71120000D01*
X149068000Y-68436662D02*
X147066000Y-70438662D01*
X149068000Y-67310000D02*
X149068000Y-68436662D01*
%TO.N,/STM32L151RET6TR/PB12*%
X162560000Y-73152000D02*
X164338000Y-73152000D01*
%TO.N,/STM32L151RET6TR/PB13*%
X162560000Y-70612000D02*
X164338000Y-70612000D01*
%TO.N,/STM32L151RET6TR/PB14*%
X162560000Y-68072000D02*
X164338000Y-68072000D01*
%TO.N,/STM32L151RET6TR/PB15*%
X162560000Y-65532000D02*
X164338000Y-65532000D01*
%TO.N,/STM32L151RET6TR/PC6*%
X162560000Y-62992000D02*
X164338000Y-62992000D01*
%TO.N,/STM32L151RET6TR/PC7*%
X164338000Y-60452000D02*
X162560000Y-60452000D01*
%TO.N,/STM32L151RET6TR/PC8*%
X162560000Y-57912000D02*
X164338000Y-57912000D01*
%TO.N,/STM32L151RET6TR/PA9*%
X162560000Y-50292000D02*
X164338000Y-50292000D01*
%TO.N,/STM32L151RET6TR/PA10*%
X162814000Y-47752000D02*
X164338000Y-47752000D01*
%TD*%
M02*
