%TF.GenerationSoftware,KiCad,Pcbnew,(6.0.2)*%
%TF.CreationDate,2022-03-24T13:25:50+01:00*%
%TF.ProjectId,GestureControl,47657374-7572-4654-936f-6e74726f6c2e,V0.3*%
%TF.SameCoordinates,PX1268e40PY7fa82d0*%
%TF.FileFunction,Soldermask,Bot*%
%TF.FilePolarity,Negative*%
%FSLAX46Y46*%
G04 Gerber Fmt 4.6, Leading zero omitted, Abs format (unit mm)*
G04 Created by KiCad (PCBNEW (6.0.2)) date 2022-03-24 13:25:50*
%MOMM*%
%LPD*%
G01*
G04 APERTURE LIST*
G04 Aperture macros list*
%AMRoundRect*
0 Rectangle with rounded corners*
0 $1 Rounding radius*
0 $2 $3 $4 $5 $6 $7 $8 $9 X,Y pos of 4 corners*
0 Add a 4 corners polygon primitive as box body*
4,1,4,$2,$3,$4,$5,$6,$7,$8,$9,$2,$3,0*
0 Add four circle primitives for the rounded corners*
1,1,$1+$1,$2,$3*
1,1,$1+$1,$4,$5*
1,1,$1+$1,$6,$7*
1,1,$1+$1,$8,$9*
0 Add four rect primitives between the rounded corners*
20,1,$1+$1,$2,$3,$4,$5,0*
20,1,$1+$1,$4,$5,$6,$7,0*
20,1,$1+$1,$6,$7,$8,$9,0*
20,1,$1+$1,$8,$9,$2,$3,0*%
%AMFreePoly0*
4,1,22,0.550000,-0.750000,0.000000,-0.750000,0.000000,-0.745033,-0.079941,-0.743568,-0.215256,-0.701293,-0.333266,-0.622738,-0.424486,-0.514219,-0.481581,-0.384460,-0.499164,-0.250000,-0.500000,-0.250000,-0.500000,0.250000,-0.499164,0.250000,-0.499963,0.256109,-0.478152,0.396186,-0.417904,0.524511,-0.324060,0.630769,-0.204165,0.706417,-0.067858,0.745374,0.000000,0.744959,0.000000,0.750000,
0.550000,0.750000,0.550000,-0.750000,0.550000,-0.750000,$1*%
%AMFreePoly1*
4,1,20,0.000000,0.744959,0.073905,0.744508,0.209726,0.703889,0.328688,0.626782,0.421226,0.519385,0.479903,0.390333,0.500000,0.250000,0.500000,-0.250000,0.499851,-0.262216,0.476331,-0.402017,0.414519,-0.529596,0.319384,-0.634700,0.198574,-0.708877,0.061801,-0.746166,0.000000,-0.745033,0.000000,-0.750000,-0.550000,-0.750000,-0.550000,0.750000,0.000000,0.750000,0.000000,0.744959,
0.000000,0.744959,$1*%
%AMFreePoly2*
4,1,85,0.152523,3.118341,0.408529,3.076647,0.655562,2.997572,0.888192,2.882851,1.101311,2.735005,1.290235,2.557283,1.450816,2.353588,1.579524,2.128394,1.673533,1.886650,1.730778,1.633666,1.750000,1.375000,1.747602,1.283412,1.714868,1.026106,1.644462,0.776465,1.537930,0.539972,1.397612,0.321824,1.226591,0.126812,1.028624,-0.040780,0.808060,-0.177269,0.569744,-0.279658,
0.318912,-0.345696,0.061074,-0.373934,0.017533,-0.372223,0.000000,-0.375000,-0.029100,-0.370391,-0.198106,-0.363751,-0.452933,-0.315370,-0.697811,-0.229855,-0.927359,-0.109084,-1.136534,0.044290,-1.320742,0.226897,-1.475935,0.434726,-1.598705,0.663211,-1.686353,0.907333,-1.736956,1.161729,-1.747874,1.389030,-1.004741,1.389030,-0.988331,1.193607,-0.934276,1.005094,-0.844634,0.830670,
-0.722821,0.676980,-0.573475,0.549877,-0.402286,0.454203,-0.215774,0.393602,-0.025677,0.370933,0.000000,0.375000,0.012747,0.372981,0.174488,0.385427,0.363374,0.438165,0.538420,0.526586,0.692957,0.647324,0.821099,0.795778,0.917966,0.966295,0.979868,1.152379,1.004447,1.346943,1.004839,1.375000,0.985702,1.570174,0.929020,1.757914,0.836952,1.931069,0.713004,2.083044,
0.561899,2.208049,0.389391,2.301324,0.202051,2.359315,0.007015,2.379815,-0.188288,2.362041,-0.376419,2.306670,-0.550213,2.215813,-0.703049,2.092930,-0.829106,1.942701,-0.923583,1.770848,-0.982881,1.583918,-1.004741,1.389030,-1.747874,1.389030,-1.749400,1.420810,-1.723414,1.678884,-1.659566,1.930283,-1.559261,2.169483,-1.424702,2.391230,-1.258845,2.590652,-1.065333,2.763368,
-0.848417,2.905584,-0.612863,3.014176,-0.363845,3.086758,-0.106835,3.121736,0.152523,3.118341,0.152523,3.118341,$1*%
G04 Aperture macros list end*
%TA.AperFunction,Profile*%
%ADD10C,0.050000*%
%TD*%
%ADD11R,1.700000X1.700000*%
%ADD12O,1.700000X1.700000*%
%ADD13RoundRect,0.250000X-1.550000X0.650000X-1.550000X-0.650000X1.550000X-0.650000X1.550000X0.650000X0*%
%ADD14O,3.600000X1.800000*%
%ADD15C,3.200000*%
%ADD16C,1.000000*%
%ADD17C,4.500000*%
%ADD18RoundRect,0.237500X-0.300000X-0.237500X0.300000X-0.237500X0.300000X0.237500X-0.300000X0.237500X0*%
%ADD19RoundRect,0.250000X-0.337500X-0.475000X0.337500X-0.475000X0.337500X0.475000X-0.337500X0.475000X0*%
%ADD20RoundRect,0.250000X0.337500X0.475000X-0.337500X0.475000X-0.337500X-0.475000X0.337500X-0.475000X0*%
%ADD21R,1.500000X1.500000*%
%ADD22FreePoly0,90.000000*%
%ADD23R,1.500000X1.000000*%
%ADD24FreePoly1,90.000000*%
%ADD25RoundRect,0.249999X0.350001X0.450001X-0.350001X0.450001X-0.350001X-0.450001X0.350001X-0.450001X0*%
%ADD26RoundRect,0.249999X-0.350001X-0.450001X0.350001X-0.450001X0.350001X0.450001X-0.350001X0.450001X0*%
%ADD27R,1.000000X1.000000*%
%ADD28RoundRect,0.237500X0.237500X-0.300000X0.237500X0.300000X-0.237500X0.300000X-0.237500X-0.300000X0*%
%ADD29RoundRect,0.250000X-0.475000X0.337500X-0.475000X-0.337500X0.475000X-0.337500X0.475000X0.337500X0*%
%ADD30RoundRect,0.250000X0.475000X-0.337500X0.475000X0.337500X-0.475000X0.337500X-0.475000X-0.337500X0*%
%ADD31RoundRect,0.249999X0.650001X-0.412501X0.650001X0.412501X-0.650001X0.412501X-0.650001X-0.412501X0*%
%ADD32RoundRect,0.249999X-0.650001X0.412501X-0.650001X-0.412501X0.650001X-0.412501X0.650001X0.412501X0*%
%ADD33RoundRect,0.249999X-0.450001X0.350001X-0.450001X-0.350001X0.450001X-0.350001X0.450001X0.350001X0*%
%ADD34RoundRect,0.249999X0.450001X-0.350001X0.450001X0.350001X-0.450001X0.350001X-0.450001X-0.350001X0*%
%ADD35R,1.500000X3.000000*%
%ADD36C,2.000000*%
%ADD37RoundRect,0.250000X-0.650000X0.412500X-0.650000X-0.412500X0.650000X-0.412500X0.650000X0.412500X0*%
%ADD38RoundRect,0.250000X-0.450000X0.350000X-0.450000X-0.350000X0.450000X-0.350000X0.450000X0.350000X0*%
%ADD39FreePoly2,180.000000*%
%ADD40RoundRect,0.250000X0.450000X-0.350000X0.450000X0.350000X-0.450000X0.350000X-0.450000X-0.350000X0*%
G04 APERTURE END LIST*
D10*
X75110973Y70070376D02*
G75*
G03*
X75054000Y68072000I-56973J-998376D01*
G01*
X118674000Y52832000D02*
X108204000Y52832000D01*
X249930000Y54832000D02*
X254254000Y54832000D01*
X250380500Y15890000D02*
X249866500Y15890000D01*
X118610500Y13890000D02*
G75*
G03*
X118610500Y15890000I0J1000000D01*
G01*
X97980500Y508000D02*
G75*
G03*
X101790500Y4318000I1J3809999D01*
G01*
X104330500Y13890000D02*
X104330500Y-492000D01*
X32110973Y70070376D02*
X48554000Y70072000D01*
X222632500Y15890000D02*
X223866500Y15890000D01*
X123674000Y54832000D02*
X156774000Y54832000D01*
X194830000Y52832000D02*
G75*
G03*
X194830000Y54832000I0J1000000D01*
G01*
X139890500Y19700000D02*
X139890500Y24780000D01*
X139954000Y43942000D02*
G75*
G03*
X142494000Y43942000I1270000J19D01*
G01*
X244866500Y13890000D02*
X228866500Y13890000D01*
X180486915Y19656414D02*
G75*
G03*
X184296914Y15890000I3766659J-4D01*
G01*
X142494000Y49022000D02*
X142494000Y43942000D01*
X91554000Y68072000D02*
G75*
G03*
X91554000Y70072000I0J1000000D01*
G01*
X218650414Y49065586D02*
X218650414Y43985586D01*
X250380500Y15890000D02*
G75*
G03*
X254190500Y19700000I1J3809999D01*
G01*
X254000Y70072000D02*
X254000Y75072000D01*
X174136914Y15890000D02*
X161710500Y15890000D01*
X142430500Y24780000D02*
X142430500Y19700000D01*
X136144000Y52832000D02*
X123674000Y52832000D01*
X139954000Y49022000D02*
G75*
G03*
X136144000Y52832000I-3809999J1D01*
G01*
X103330500Y-1492000D02*
X96547473Y-1490376D01*
X4064000Y68072000D02*
G75*
G03*
X254000Y64262000I-1J-3809999D01*
G01*
X142430500Y24780000D02*
G75*
G03*
X139890500Y24780000I-1270000J-19D01*
G01*
X104330500Y24780019D02*
G75*
G03*
X101790500Y24780019I-1270000J-19D01*
G01*
X244866500Y13890000D02*
G75*
G03*
X244866500Y15890000I0J1000000D01*
G01*
X26990500Y508000D02*
X10490500Y508000D01*
X244930000Y52832000D02*
G75*
G03*
X244930000Y54832000I0J1000000D01*
G01*
X53490500Y508000D02*
G75*
G03*
X53547473Y-1490376I0J-1000000D01*
G01*
X142430500Y19700000D02*
G75*
G03*
X146240500Y15890000I3809999J-1D01*
G01*
X249930000Y54832000D02*
G75*
G03*
X249930000Y52832000I0J-1000000D01*
G01*
X216110414Y49065586D02*
G75*
G03*
X212300414Y52832000I-3766663J0D01*
G01*
X228930000Y54832000D02*
X244930000Y54832000D01*
X118610500Y13890000D02*
X104330500Y13890000D01*
X180486914Y24736414D02*
X180486914Y19656414D01*
X156774000Y52832000D02*
G75*
G03*
X156774000Y54832000I0J1000000D01*
G01*
X161774000Y54832000D02*
G75*
G03*
X161774000Y52832000I0J-1000000D01*
G01*
X101854000Y64262000D02*
G75*
G03*
X98044000Y68072000I-3809999J1D01*
G01*
X223930000Y54832000D02*
X199830000Y54832000D01*
X194766500Y13890000D02*
G75*
G03*
X194766500Y15890000I0J1000000D01*
G01*
X104330500Y24780019D02*
X104330500Y19700000D01*
X216110414Y43985586D02*
G75*
G03*
X218650414Y43985586I1270000J19D01*
G01*
X48490500Y-1492000D02*
X32047473Y-1490376D01*
X228930000Y54832000D02*
G75*
G03*
X228930000Y52832000I0J-1000000D01*
G01*
X177946914Y19656414D02*
X177946914Y24736414D01*
X69990500Y-1492000D02*
G75*
G03*
X69990500Y508000I0J1000000D01*
G01*
X254190500Y13890000D02*
X254190500Y-6492000D01*
X91490500Y-1492000D02*
X75047473Y-1490376D01*
X75110973Y70070376D02*
X91554000Y70072000D01*
X212236914Y15890000D02*
G75*
G03*
X216046914Y19656414I43337J3766414D01*
G01*
X223930000Y52832000D02*
G75*
G03*
X223930000Y54832000I0J1000000D01*
G01*
X104394000Y54832000D02*
X118674000Y54832000D01*
X254254000Y75072000D02*
X254254000Y54832000D01*
X91490500Y-1492000D02*
G75*
G03*
X91490500Y508000I0J1000000D01*
G01*
X146240500Y15890000D02*
X156710500Y15890000D01*
X194830000Y52832000D02*
X184360414Y52832000D01*
X218586914Y24736414D02*
X218586914Y19656414D01*
X178010414Y43985586D02*
G75*
G03*
X180550414Y43985586I1270000J19D01*
G01*
X48554000Y68072000D02*
G75*
G03*
X48554000Y70072000I0J1000000D01*
G01*
X146304000Y52832000D02*
G75*
G03*
X142494000Y49022000I-1J-3809999D01*
G01*
X4064000Y68072000D02*
X5554000Y68072000D01*
X96490500Y508000D02*
G75*
G03*
X96547473Y-1490376I0J-1000000D01*
G01*
X108204000Y52832000D02*
G75*
G03*
X104394000Y49022000I-1J-3809999D01*
G01*
X123674000Y54832000D02*
G75*
G03*
X123674000Y52832000I0J-1000000D01*
G01*
X32110973Y70070376D02*
G75*
G03*
X32054000Y68072000I-56973J-998376D01*
G01*
X5490500Y508000D02*
X4000500Y508000D01*
X161774000Y54832000D02*
X194830000Y54832000D01*
X244930000Y52832000D02*
X228930000Y52832000D01*
X178010414Y49065586D02*
G75*
G03*
X174200414Y52832000I-3766663J0D01*
G01*
X10554000Y68072000D02*
X27054000Y68072000D01*
X254000Y70072000D02*
X5554000Y70072000D01*
X69990500Y508000D02*
X53490500Y508000D01*
X161774000Y52832000D02*
X174200414Y52832000D01*
X180486914Y24736414D02*
G75*
G03*
X177946914Y24736414I-1270000J-19D01*
G01*
X254190500Y19700000D02*
X254254000Y49022000D01*
X199830000Y52832000D02*
X212300414Y52832000D01*
X97980500Y508000D02*
X96490500Y508000D01*
X218586913Y19656414D02*
G75*
G03*
X222632500Y15890000I3776044J-3D01*
G01*
X75054000Y68072000D02*
X91554000Y68072000D01*
X53610973Y70070376D02*
X70054000Y70072000D01*
X5490500Y-1492000D02*
G75*
G03*
X5490500Y508000I0J1000000D01*
G01*
X254000Y75072000D02*
X254254000Y75072000D01*
X254190500Y13890000D02*
X249866500Y13890000D01*
X228866500Y15890000D02*
G75*
G03*
X228866500Y13890000I0J-1000000D01*
G01*
X91490500Y508000D02*
X74990500Y508000D01*
X161710500Y15890000D02*
G75*
G03*
X161710500Y13890000I0J-1000000D01*
G01*
X156710500Y13890000D02*
G75*
G03*
X156710500Y15890000I0J1000000D01*
G01*
X123610500Y15890000D02*
G75*
G03*
X123610500Y13890000I0J-1000000D01*
G01*
X27054000Y68072000D02*
G75*
G03*
X27054000Y70072000I0J1000000D01*
G01*
X254254000Y49022000D02*
G75*
G03*
X250444000Y52832000I-3809999J1D01*
G01*
X96610973Y70070376D02*
G75*
G03*
X96554000Y68072000I-56973J-998376D01*
G01*
X199766500Y15890000D02*
G75*
G03*
X199766500Y13890000I0J-1000000D01*
G01*
X5554000Y68072000D02*
G75*
G03*
X5554000Y70072000I0J1000000D01*
G01*
X48490500Y508000D02*
X31990500Y508000D01*
X118674000Y52832000D02*
G75*
G03*
X118674000Y54832000I0J1000000D01*
G01*
X184296914Y15890000D02*
X194766500Y15890000D01*
X184360414Y52832000D02*
G75*
G03*
X180550414Y49065586I-43339J-3766412D01*
G01*
X53554000Y68072000D02*
X70054000Y68072000D01*
X103330500Y-1492000D02*
G75*
G03*
X104330500Y-492000I1J999999D01*
G01*
X222504000Y52832000D02*
G75*
G03*
X218650414Y49065586I-86192J-3766408D01*
G01*
X223866500Y13890000D02*
G75*
G03*
X223866500Y15890000I0J1000000D01*
G01*
X104330500Y19700000D02*
G75*
G03*
X108140500Y15890000I3809999J-1D01*
G01*
X199766500Y13890000D02*
X223866500Y13890000D01*
X190500Y4318000D02*
G75*
G03*
X4000500Y508000I3809999J-1D01*
G01*
X101790500Y4318000D02*
X101790500Y24780019D01*
X199830000Y54832000D02*
G75*
G03*
X199830000Y52832000I0J-1000000D01*
G01*
X10610973Y70070376D02*
X27054000Y70072000D01*
X69990500Y-1492000D02*
X53547473Y-1490376D01*
X249866500Y15890000D02*
G75*
G03*
X249866500Y13890000I0J-1000000D01*
G01*
X178010414Y43985586D02*
X178010414Y49065586D01*
X32054000Y68072000D02*
X48554000Y68072000D01*
X104394000Y69072000D02*
X104394000Y54832000D01*
X180550414Y49065586D02*
X180550414Y43985586D01*
X53610973Y70070376D02*
G75*
G03*
X53554000Y68072000I-56973J-998376D01*
G01*
X156774000Y52832000D02*
X146304000Y52832000D01*
X74990500Y508000D02*
G75*
G03*
X75047473Y-1490376I0J-1000000D01*
G01*
X174136914Y15890000D02*
G75*
G03*
X177946914Y19656414I43337J3766414D01*
G01*
X249930000Y52832000D02*
X250444000Y52832000D01*
X228866500Y15890000D02*
X244866500Y15890000D01*
X136080500Y15890000D02*
G75*
G03*
X139890500Y19700000I1J3809999D01*
G01*
X190500Y-6492000D02*
X190500Y-1492000D01*
X108140500Y15890000D02*
X118610500Y15890000D01*
X139954000Y43942000D02*
X139954000Y49022000D01*
X5490500Y-1492000D02*
X190500Y-1492000D01*
X216046914Y19656414D02*
X216046914Y24736414D01*
X194766500Y13890000D02*
X161710500Y13890000D01*
X26990500Y-1492000D02*
X10547473Y-1490376D01*
X10610973Y70070376D02*
G75*
G03*
X10554000Y68072000I-56973J-998376D01*
G01*
X254190500Y-6492000D02*
X190500Y-6492000D01*
X218586914Y24736414D02*
G75*
G03*
X216046914Y24736414I-1270000J-19D01*
G01*
X101854000Y43941981D02*
X101854000Y64262000D01*
X48490500Y-1492000D02*
G75*
G03*
X48490500Y508000I0J1000000D01*
G01*
X96554000Y68072000D02*
X98044000Y68072000D01*
X26990500Y-1492000D02*
G75*
G03*
X26990500Y508000I0J1000000D01*
G01*
X70054000Y68072000D02*
G75*
G03*
X70054000Y70072000I0J1000000D01*
G01*
X104394000Y69072000D02*
G75*
G03*
X103394000Y70072000I-999999J1D01*
G01*
X156710500Y13890000D02*
X123610500Y13890000D01*
X104394000Y49022000D02*
X104394000Y43941981D01*
X10490500Y508000D02*
G75*
G03*
X10547473Y-1490376I0J-1000000D01*
G01*
X190500Y4318000D02*
X254000Y64262000D01*
X96610973Y70070376D02*
X103394000Y70072000D01*
X31990500Y508000D02*
G75*
G03*
X32047473Y-1490376I0J-1000000D01*
G01*
X212236914Y15890000D02*
X199766500Y15890000D01*
X223930000Y52832000D02*
X222504000Y52832000D01*
X123610500Y15890000D02*
X136080500Y15890000D01*
X216110414Y43985586D02*
X216110414Y49065586D01*
X101854000Y43941981D02*
G75*
G03*
X104394000Y43941981I1270000J19D01*
G01*
D11*
%TO.C,J25*%
X16786000Y63495000D03*
D12*
X16786000Y66035000D03*
X19326000Y63495000D03*
X19326000Y66035000D03*
X21866000Y63495000D03*
X21866000Y66035000D03*
X24406000Y63495000D03*
X24406000Y66035000D03*
X26946000Y63495000D03*
X26946000Y66035000D03*
X29486000Y63495000D03*
X29486000Y66035000D03*
X32026000Y63495000D03*
X32026000Y66035000D03*
X34566000Y63495000D03*
X34566000Y66035000D03*
X37106000Y63495000D03*
X37106000Y66035000D03*
X39646000Y63495000D03*
X39646000Y66035000D03*
X42186000Y63495000D03*
X42186000Y66035000D03*
X44726000Y63495000D03*
X44726000Y66035000D03*
X47266000Y63495000D03*
X47266000Y66035000D03*
X49806000Y63495000D03*
X49806000Y66035000D03*
X52346000Y63495000D03*
X52346000Y66035000D03*
X54886000Y63495000D03*
X54886000Y66035000D03*
X57426000Y63495000D03*
X57426000Y66035000D03*
X59966000Y63495000D03*
X59966000Y66035000D03*
X62506000Y63495000D03*
X62506000Y66035000D03*
%TD*%
D11*
%TO.C,J24*%
X16774000Y2535000D03*
D12*
X16774000Y5075000D03*
X19314000Y2535000D03*
X19314000Y5075000D03*
X21854000Y2535000D03*
X21854000Y5075000D03*
X24394000Y2535000D03*
X24394000Y5075000D03*
X26934000Y2535000D03*
X26934000Y5075000D03*
X29474000Y2535000D03*
X29474000Y5075000D03*
X32014000Y2535000D03*
X32014000Y5075000D03*
X34554000Y2535000D03*
X34554000Y5075000D03*
X37094000Y2535000D03*
X37094000Y5075000D03*
X39634000Y2535000D03*
X39634000Y5075000D03*
X42174000Y2535000D03*
X42174000Y5075000D03*
X44714000Y2535000D03*
X44714000Y5075000D03*
X47254000Y2535000D03*
X47254000Y5075000D03*
X49794000Y2535000D03*
X49794000Y5075000D03*
X52334000Y2535000D03*
X52334000Y5075000D03*
X54874000Y2535000D03*
X54874000Y5075000D03*
X57414000Y2535000D03*
X57414000Y5075000D03*
X59954000Y2535000D03*
X59954000Y5075000D03*
X62494000Y2535000D03*
X62494000Y5075000D03*
%TD*%
D11*
%TO.C,J1*%
X30861000Y37343510D03*
D12*
X28321000Y37343510D03*
X25781000Y37343510D03*
X23241000Y37343510D03*
%TD*%
D13*
%TO.C,J2*%
X9144000Y36576000D03*
D14*
X9144000Y33076000D03*
%TD*%
D11*
%TO.C,J7*%
X35941000Y44963510D03*
D12*
X33401000Y44963510D03*
X30861000Y44963510D03*
X28321000Y44963510D03*
X25781000Y44963510D03*
X23241000Y44963510D03*
%TD*%
D11*
%TO.C,J10*%
X37973000Y54610000D03*
D12*
X35433000Y54610000D03*
X32893000Y54610000D03*
X30353000Y54610000D03*
%TD*%
D11*
%TO.C,J9*%
X57017490Y27183510D03*
D12*
X57017490Y29723510D03*
X57017490Y32263510D03*
X57017490Y34803510D03*
%TD*%
D11*
%TO.C,J8*%
X35935490Y41153510D03*
D12*
X33395490Y41153510D03*
X30855490Y41153510D03*
X28315490Y41153510D03*
X25775490Y41153510D03*
X23235490Y41153510D03*
%TD*%
D15*
%TO.C,H1*%
X134874000Y47117000D03*
%TD*%
%TO.C,H3*%
X134874000Y21717000D03*
%TD*%
%TO.C,H4*%
X109474000Y47117000D03*
%TD*%
%TO.C,H5*%
X172974000Y47117000D03*
%TD*%
%TO.C,H6*%
X172974000Y21717000D03*
%TD*%
%TO.C,H8*%
X71374000Y12192000D03*
%TD*%
%TO.C,H11*%
X147574000Y21717000D03*
%TD*%
%TO.C,H12*%
X147574000Y47117000D03*
%TD*%
%TO.C,H7*%
X98044000Y56642000D03*
%TD*%
%TO.C,H9*%
X98044000Y12192000D03*
%TD*%
%TO.C,H10*%
X71374000Y56642000D03*
%TD*%
%TO.C,H2*%
X109474000Y21717000D03*
%TD*%
D11*
%TO.C,J11*%
X23235490Y29723510D03*
D12*
X25775490Y29723510D03*
%TD*%
D11*
%TO.C,J12*%
X23235490Y33533510D03*
D12*
X25775490Y33533510D03*
%TD*%
D15*
%TO.C,H13*%
X185674000Y47117000D03*
%TD*%
%TO.C,H14*%
X185674000Y21717000D03*
%TD*%
%TO.C,H15*%
X211074000Y47117000D03*
%TD*%
%TO.C,H16*%
X211074000Y21717000D03*
%TD*%
D16*
%TO.C,*%
X217424000Y37084000D03*
%TD*%
%TO.C,*%
X141224000Y39116000D03*
%TD*%
%TO.C,*%
X103124000Y34417000D03*
%TD*%
%TO.C,*%
X179324000Y39116000D03*
%TD*%
%TO.C,*%
X103124000Y31750000D03*
%TD*%
%TO.C,*%
X179324000Y31750000D03*
%TD*%
%TO.C,*%
X141224000Y34417000D03*
%TD*%
%TO.C,*%
X217424000Y34290000D03*
%TD*%
D15*
%TO.C,H16*%
X249174000Y21717000D03*
%TD*%
D16*
%TO.C,*%
X179324000Y37084000D03*
%TD*%
D15*
%TO.C,H13*%
X223774000Y47117000D03*
%TD*%
D16*
%TO.C,*%
X103124000Y37084000D03*
%TD*%
D15*
%TO.C,H15*%
X249174000Y47117000D03*
%TD*%
D16*
%TO.C,*%
X217424000Y27686000D03*
%TD*%
%TO.C,*%
X103124000Y39116000D03*
%TD*%
%TO.C,*%
X103124000Y29718000D03*
%TD*%
%TO.C,*%
X179324000Y41148000D03*
%TD*%
%TO.C,*%
X141224000Y31750000D03*
%TD*%
%TO.C,*%
X217424000Y39116000D03*
%TD*%
%TO.C,*%
X217424000Y29718000D03*
%TD*%
D17*
%TO.C,REF\u002A\u002A*%
X13208000Y26924000D03*
%TD*%
D16*
%TO.C,*%
X179324000Y27686000D03*
%TD*%
%TO.C,*%
X179324000Y29718000D03*
%TD*%
D15*
%TO.C,H14*%
X223774000Y21717000D03*
%TD*%
D16*
%TO.C,*%
X141224000Y29718000D03*
%TD*%
%TO.C,*%
X103124000Y27686000D03*
%TD*%
%TO.C,*%
X141224000Y37084000D03*
%TD*%
%TO.C,*%
X103124000Y41148000D03*
%TD*%
%TO.C,*%
X141224000Y41148000D03*
%TD*%
%TO.C,*%
X141224000Y27686000D03*
%TD*%
%TO.C,*%
X217424000Y31750000D03*
%TD*%
%TO.C,*%
X179324000Y34417000D03*
%TD*%
D17*
%TO.C,REF\u002A\u002A*%
X13208000Y42926000D03*
%TD*%
D16*
%TO.C,*%
X217424000Y41148000D03*
%TD*%
D18*
%TO.C,C28*%
X47672490Y31247510D03*
X49397490Y31247510D03*
%TD*%
D19*
%TO.C,C30*%
X47619490Y33279510D03*
X49694490Y33279510D03*
%TD*%
D18*
%TO.C,C31*%
X42285490Y33025510D03*
X44010490Y33025510D03*
%TD*%
D20*
%TO.C,C33*%
X45741500Y34798000D03*
X43666500Y34798000D03*
%TD*%
D21*
%TO.C,J17*%
X32633490Y52329510D03*
%TD*%
%TO.C,J18*%
X25013490Y52329510D03*
%TD*%
%TO.C,J19*%
X22473490Y52329510D03*
%TD*%
D22*
%TO.C,JP3*%
X47117000Y37054000D03*
D23*
X47117000Y38354000D03*
D24*
X47117000Y39654000D03*
%TD*%
D25*
%TO.C,R21*%
X32093490Y48773510D03*
X30093490Y48773510D03*
%TD*%
D26*
%TO.C,R22*%
X25553490Y48773510D03*
X27553490Y48773510D03*
%TD*%
D27*
%TO.C,TP1*%
X30093490Y52329510D03*
%TD*%
%TO.C,TP2*%
X27553490Y52329510D03*
%TD*%
D22*
%TO.C,JP2*%
X44323000Y37054000D03*
D23*
X44323000Y38354000D03*
D24*
X44323000Y39654000D03*
%TD*%
D18*
%TO.C,C23*%
X42285490Y31247510D03*
X44010490Y31247510D03*
%TD*%
D20*
%TO.C,C11*%
X54266490Y29723510D03*
X52191490Y29723510D03*
%TD*%
D28*
%TO.C,C14*%
X157988000Y33681500D03*
X157988000Y35406500D03*
%TD*%
%TO.C,C15*%
X196088000Y33708000D03*
X196088000Y35433000D03*
%TD*%
%TO.C,C16*%
X84074000Y34163000D03*
X84074000Y35888000D03*
%TD*%
%TO.C,C20*%
X162687000Y33681500D03*
X162687000Y35406500D03*
%TD*%
%TO.C,C21*%
X200660000Y33681500D03*
X200660000Y35406500D03*
%TD*%
%TO.C,C35*%
X85852000Y34163000D03*
X85852000Y35888000D03*
%TD*%
D29*
%TO.C,C36*%
X150622000Y37465000D03*
X150622000Y35390000D03*
%TD*%
%TO.C,C37*%
X188595000Y37376500D03*
X188595000Y35301500D03*
%TD*%
D30*
%TO.C,C38*%
X82042000Y34120000D03*
X82042000Y36195000D03*
%TD*%
D31*
%TO.C,C39*%
X79502000Y34086000D03*
X79502000Y37211000D03*
%TD*%
D32*
%TO.C,C40*%
X111506000Y38265500D03*
X111506000Y35140500D03*
%TD*%
%TO.C,C41*%
X148082000Y38050000D03*
X148082000Y34925000D03*
%TD*%
%TO.C,C42*%
X186182000Y37884500D03*
X186182000Y34759500D03*
%TD*%
D33*
%TO.C,R13*%
X161417000Y40751000D03*
X161417000Y38751000D03*
%TD*%
%TO.C,R16*%
X159131000Y40751000D03*
X159131000Y38751000D03*
%TD*%
%TO.C,R17*%
X199263000Y40751000D03*
X199263000Y38751000D03*
%TD*%
%TO.C,R30*%
X197104000Y40719000D03*
X197104000Y38719000D03*
%TD*%
D34*
%TO.C,R31*%
X90170000Y34163000D03*
X90170000Y36163000D03*
%TD*%
%TO.C,R32*%
X87884000Y34179000D03*
X87884000Y36179000D03*
%TD*%
D28*
%TO.C,C8*%
X125095000Y33681500D03*
X125095000Y35406500D03*
%TD*%
%TO.C,C9*%
X120523000Y33681500D03*
X120523000Y35406500D03*
%TD*%
D29*
%TO.C,C10*%
X113919000Y37740500D03*
X113919000Y35665500D03*
%TD*%
D30*
%TO.C,C12*%
X98552000Y40089000D03*
X98552000Y42164000D03*
%TD*%
D33*
%TO.C,R12*%
X122682000Y40751000D03*
X122682000Y38751000D03*
%TD*%
%TO.C,R29*%
X120396000Y40735000D03*
X120396000Y38735000D03*
%TD*%
D35*
%TO.C,J14*%
X165989000Y30952000D03*
X164719000Y26452000D03*
X163449000Y30952000D03*
X162179000Y26452000D03*
X160909000Y30952000D03*
X159639000Y26452000D03*
X158369000Y30952000D03*
X157099000Y26452000D03*
X155829000Y30952000D03*
X154559000Y26452000D03*
%TD*%
%TO.C,J15*%
X204089000Y30952000D03*
X202819000Y26452000D03*
X201549000Y30952000D03*
X200279000Y26452000D03*
X199009000Y30952000D03*
X197739000Y26452000D03*
X196469000Y30952000D03*
X195199000Y26452000D03*
X193929000Y30952000D03*
X192659000Y26452000D03*
%TD*%
%TO.C,J16*%
X90424000Y54737000D03*
X89154000Y50237000D03*
X87884000Y54737000D03*
X86614000Y50237000D03*
X85344000Y54737000D03*
X84074000Y50237000D03*
X82804000Y54737000D03*
X81534000Y50237000D03*
X80264000Y54737000D03*
X78994000Y50237000D03*
%TD*%
%TO.C,J20*%
X90424000Y45085000D03*
X89154000Y40585000D03*
X87884000Y45085000D03*
X86614000Y40585000D03*
X85344000Y45085000D03*
X84074000Y40585000D03*
X82804000Y45085000D03*
X81534000Y40585000D03*
X80264000Y45085000D03*
X78994000Y40585000D03*
%TD*%
%TO.C,J21*%
X90424000Y29464000D03*
X89154000Y24964000D03*
X87884000Y29464000D03*
X86614000Y24964000D03*
X85344000Y29464000D03*
X84074000Y24964000D03*
X82804000Y29464000D03*
X81534000Y24964000D03*
X80264000Y29464000D03*
X78994000Y24964000D03*
%TD*%
%TO.C,J13*%
X127889000Y30952000D03*
X126619000Y26452000D03*
X125349000Y30952000D03*
X124079000Y26452000D03*
X122809000Y30952000D03*
X121539000Y26452000D03*
X120269000Y30952000D03*
X118999000Y26452000D03*
X117729000Y30952000D03*
X116459000Y26452000D03*
%TD*%
D36*
%TO.C,TP3*%
X127000000Y21590000D03*
%TD*%
%TO.C,TP4*%
X130175000Y21590000D03*
%TD*%
%TO.C,TP5*%
X123825000Y21590000D03*
%TD*%
%TO.C,TP6*%
X120650000Y21590000D03*
%TD*%
%TO.C,TP7*%
X114300000Y21590000D03*
%TD*%
%TO.C,TP8*%
X117475000Y21590000D03*
%TD*%
%TO.C,TP9*%
X165100000Y21590000D03*
%TD*%
%TO.C,TP10*%
X168275000Y21590000D03*
%TD*%
%TO.C,TP11*%
X161925000Y21590000D03*
%TD*%
%TO.C,TP12*%
X158750000Y21590000D03*
%TD*%
%TO.C,TP13*%
X152400000Y21590000D03*
%TD*%
%TO.C,TP15*%
X203200000Y21590000D03*
%TD*%
%TO.C,TP16*%
X206375000Y21590000D03*
%TD*%
%TO.C,TP17*%
X200025000Y21590000D03*
%TD*%
%TO.C,TP18*%
X196850000Y21590000D03*
%TD*%
%TO.C,TP19*%
X190500000Y21590000D03*
%TD*%
%TO.C,TP20*%
X193675000Y21590000D03*
%TD*%
%TO.C,TP14*%
X155575000Y21590000D03*
%TD*%
%TO.C,TP22*%
X244475000Y21590000D03*
%TD*%
D37*
%TO.C,C45*%
X224282000Y37884500D03*
X224282000Y34759500D03*
%TD*%
D38*
%TO.C,R34*%
X235204000Y40767000D03*
X235204000Y38767000D03*
%TD*%
D36*
%TO.C,TP25*%
X228600000Y21590000D03*
%TD*%
D28*
%TO.C,C44*%
X234188000Y33782000D03*
X234188000Y35507000D03*
%TD*%
D39*
%TO.C,REF\u002A\u002A*%
X107950000Y11662000D03*
D16*
X107950000Y10287000D03*
%TD*%
D38*
%TO.C,R33*%
X237363000Y40751000D03*
X237363000Y38751000D03*
%TD*%
D39*
%TO.C,REF\u002A\u002A*%
X58674000Y23092000D03*
D16*
X58674000Y21717000D03*
%TD*%
D40*
%TO.C,R38*%
X42164000Y41402000D03*
X42164000Y43402000D03*
%TD*%
D39*
%TO.C,REF\u002A\u002A*%
X213995000Y11662000D03*
D16*
X213995000Y10287000D03*
%TD*%
D38*
%TO.C,R37*%
X47117000Y43815000D03*
X47117000Y41815000D03*
%TD*%
D36*
%TO.C,TP26*%
X231775000Y21590000D03*
%TD*%
%TO.C,TP24*%
X234950000Y21590000D03*
%TD*%
%TO.C,TP23*%
X238125000Y21590000D03*
%TD*%
D35*
%TO.C,J22*%
X90424000Y18633000D03*
X89154000Y14133000D03*
X87884000Y18633000D03*
X86614000Y14133000D03*
X85344000Y18633000D03*
X84074000Y14133000D03*
X82804000Y18633000D03*
X81534000Y14133000D03*
X80264000Y18633000D03*
X78994000Y14133000D03*
%TD*%
D29*
%TO.C,C50*%
X47117000Y47795000D03*
X47117000Y45720000D03*
%TD*%
D39*
%TO.C,REF\u002A\u002A*%
X179246000Y60193000D03*
D16*
X179246000Y58818000D03*
%TD*%
D19*
%TO.C,C51*%
X40110500Y45974000D03*
X42185500Y45974000D03*
%TD*%
D36*
%TO.C,TP21*%
X241300000Y21590000D03*
%TD*%
D35*
%TO.C,J23*%
X242189000Y30825000D03*
X240919000Y26325000D03*
X239649000Y30825000D03*
X238379000Y26325000D03*
X237109000Y30825000D03*
X235839000Y26325000D03*
X234569000Y30825000D03*
X233299000Y26325000D03*
X232029000Y30825000D03*
X230759000Y26325000D03*
%TD*%
D28*
%TO.C,C46*%
X238760000Y33681500D03*
X238760000Y35406500D03*
%TD*%
D29*
%TO.C,C47*%
X226695000Y37359500D03*
X226695000Y35284500D03*
%TD*%
M02*
