%TF.GenerationSoftware,KiCad,Pcbnew,(6.0.2)*%
%TF.CreationDate,2022-03-11T12:30:30+01:00*%
%TF.ProjectId,GestureControl,47657374-7572-4654-936f-6e74726f6c2e,V0.1*%
%TF.SameCoordinates,Original*%
%TF.FileFunction,Legend,Bot*%
%TF.FilePolarity,Positive*%
%FSLAX46Y46*%
G04 Gerber Fmt 4.6, Leading zero omitted, Abs format (unit mm)*
G04 Created by KiCad (PCBNEW (6.0.2)) date 2022-03-11 12:30:30*
%MOMM*%
%LPD*%
G01*
G04 APERTURE LIST*
%ADD10C,0.150000*%
%ADD11C,0.120000*%
%ADD12C,0.200000*%
G04 APERTURE END LIST*
D10*
X13034380Y-103536238D02*
X13034380Y-104012428D01*
X13510571Y-104060047D01*
X13462952Y-104012428D01*
X13415333Y-103917190D01*
X13415333Y-103679095D01*
X13462952Y-103583857D01*
X13510571Y-103536238D01*
X13605809Y-103488619D01*
X13843904Y-103488619D01*
X13939142Y-103536238D01*
X13986761Y-103583857D01*
X14034380Y-103679095D01*
X14034380Y-103917190D01*
X13986761Y-104012428D01*
X13939142Y-104060047D01*
X13367714Y-102631476D02*
X14034380Y-102631476D01*
X12986761Y-102869571D02*
X13701047Y-103107666D01*
X13701047Y-102488619D01*
X13939142Y-102107666D02*
X13986761Y-102060047D01*
X14034380Y-102107666D01*
X13986761Y-102155285D01*
X13939142Y-102107666D01*
X14034380Y-102107666D01*
X13034380Y-101202904D02*
X13034380Y-101393380D01*
X13082000Y-101488619D01*
X13129619Y-101536238D01*
X13272476Y-101631476D01*
X13462952Y-101679095D01*
X13843904Y-101679095D01*
X13939142Y-101631476D01*
X13986761Y-101583857D01*
X14034380Y-101488619D01*
X14034380Y-101298142D01*
X13986761Y-101202904D01*
X13939142Y-101155285D01*
X13843904Y-101107666D01*
X13605809Y-101107666D01*
X13510571Y-101155285D01*
X13462952Y-101202904D01*
X13415333Y-101298142D01*
X13415333Y-101488619D01*
X13462952Y-101583857D01*
X13510571Y-101631476D01*
X13605809Y-101679095D01*
X14034380Y-100155285D02*
X14034380Y-100726714D01*
X14034380Y-100441000D02*
X13034380Y-100441000D01*
X13177238Y-100536238D01*
X13272476Y-100631476D01*
X13320095Y-100726714D01*
X13034380Y-99536238D02*
X13034380Y-99441000D01*
X13082000Y-99345761D01*
X13129619Y-99298142D01*
X13224857Y-99250523D01*
X13415333Y-99202904D01*
X13653428Y-99202904D01*
X13843904Y-99250523D01*
X13939142Y-99298142D01*
X13986761Y-99345761D01*
X14034380Y-99441000D01*
X14034380Y-99536238D01*
X13986761Y-99631476D01*
X13939142Y-99679095D01*
X13843904Y-99726714D01*
X13653428Y-99774333D01*
X13415333Y-99774333D01*
X13224857Y-99726714D01*
X13129619Y-99679095D01*
X13082000Y-99631476D01*
X13034380Y-99536238D01*
X13034380Y-98583857D02*
X13034380Y-98488619D01*
X13082000Y-98393380D01*
X13129619Y-98345761D01*
X13224857Y-98298142D01*
X13415333Y-98250523D01*
X13653428Y-98250523D01*
X13843904Y-98298142D01*
X13939142Y-98345761D01*
X13986761Y-98393380D01*
X14034380Y-98488619D01*
X14034380Y-98583857D01*
X13986761Y-98679095D01*
X13939142Y-98726714D01*
X13843904Y-98774333D01*
X13653428Y-98821952D01*
X13415333Y-98821952D01*
X13224857Y-98774333D01*
X13129619Y-98726714D01*
X13082000Y-98679095D01*
X13034380Y-98583857D01*
X14034380Y-97060047D02*
X13367714Y-97060047D01*
X13462952Y-97060047D02*
X13415333Y-97012428D01*
X13367714Y-96917190D01*
X13367714Y-96774333D01*
X13415333Y-96679095D01*
X13510571Y-96631476D01*
X14034380Y-96631476D01*
X13510571Y-96631476D02*
X13415333Y-96583857D01*
X13367714Y-96488619D01*
X13367714Y-96345761D01*
X13415333Y-96250523D01*
X13510571Y-96202904D01*
X14034380Y-96202904D01*
X14034380Y-95726714D02*
X13367714Y-95726714D01*
X13462952Y-95726714D02*
X13415333Y-95679095D01*
X13367714Y-95583857D01*
X13367714Y-95441000D01*
X13415333Y-95345761D01*
X13510571Y-95298142D01*
X14034380Y-95298142D01*
X13510571Y-95298142D02*
X13415333Y-95250523D01*
X13367714Y-95155285D01*
X13367714Y-95012428D01*
X13415333Y-94917190D01*
X13510571Y-94869571D01*
X14034380Y-94869571D01*
D11*
X19058000Y-126746000D02*
X14145580Y-126746000D01*
X19058000Y-72136000D02*
X14145580Y-72136000D01*
X14732000Y-126746000D02*
X14732000Y-72136000D01*
X14732000Y-126746000D02*
X14732000Y-72136000D01*
X14732000Y-126746000D02*
X15318421Y-125619496D01*
X14732000Y-126746000D02*
X14145579Y-125619496D01*
X14732000Y-72136000D02*
X14145579Y-73262504D01*
X14732000Y-72136000D02*
X15318421Y-73262504D01*
D10*
X141462761Y-63421620D02*
X141510380Y-63374001D01*
X141605619Y-63326381D01*
X141843714Y-63326381D01*
X141938952Y-63374001D01*
X141986571Y-63421620D01*
X142034190Y-63516858D01*
X142034190Y-63612096D01*
X141986571Y-63754953D01*
X141415142Y-64326381D01*
X142034190Y-64326381D01*
X142938952Y-63326381D02*
X142462761Y-63326381D01*
X142415142Y-63802572D01*
X142462761Y-63754953D01*
X142558000Y-63707334D01*
X142796095Y-63707334D01*
X142891333Y-63754953D01*
X142938952Y-63802572D01*
X142986571Y-63897810D01*
X142986571Y-64135905D01*
X142938952Y-64231143D01*
X142891333Y-64278762D01*
X142796095Y-64326381D01*
X142558000Y-64326381D01*
X142462761Y-64278762D01*
X142415142Y-64231143D01*
X143843714Y-63659715D02*
X143843714Y-64326381D01*
X143605619Y-63278762D02*
X143367523Y-63993048D01*
X143986571Y-63993048D01*
X144367523Y-64231143D02*
X144415142Y-64278762D01*
X144367523Y-64326381D01*
X144319904Y-64278762D01*
X144367523Y-64231143D01*
X144367523Y-64326381D01*
X145034190Y-63326381D02*
X145129428Y-63326381D01*
X145224666Y-63374001D01*
X145272285Y-63421620D01*
X145319904Y-63516858D01*
X145367523Y-63707334D01*
X145367523Y-63945429D01*
X145319904Y-64135905D01*
X145272285Y-64231143D01*
X145224666Y-64278762D01*
X145129428Y-64326381D01*
X145034190Y-64326381D01*
X144938952Y-64278762D01*
X144891333Y-64231143D01*
X144843714Y-64135905D01*
X144796095Y-63945429D01*
X144796095Y-63707334D01*
X144843714Y-63516858D01*
X144891333Y-63421620D01*
X144938952Y-63374001D01*
X145034190Y-63326381D01*
X145986571Y-63326381D02*
X146081809Y-63326381D01*
X146177047Y-63374001D01*
X146224666Y-63421620D01*
X146272285Y-63516858D01*
X146319904Y-63707334D01*
X146319904Y-63945429D01*
X146272285Y-64135905D01*
X146224666Y-64231143D01*
X146177047Y-64278762D01*
X146081809Y-64326381D01*
X145986571Y-64326381D01*
X145891333Y-64278762D01*
X145843714Y-64231143D01*
X145796095Y-64135905D01*
X145748476Y-63945429D01*
X145748476Y-63707334D01*
X145796095Y-63516858D01*
X145843714Y-63421620D01*
X145891333Y-63374001D01*
X145986571Y-63326381D01*
X146938952Y-63326381D02*
X147034190Y-63326381D01*
X147129428Y-63374001D01*
X147177047Y-63421620D01*
X147224666Y-63516858D01*
X147272285Y-63707334D01*
X147272285Y-63945429D01*
X147224666Y-64135905D01*
X147177047Y-64231143D01*
X147129428Y-64278762D01*
X147034190Y-64326381D01*
X146938952Y-64326381D01*
X146843714Y-64278762D01*
X146796095Y-64231143D01*
X146748476Y-64135905D01*
X146700857Y-63945429D01*
X146700857Y-63707334D01*
X146748476Y-63516858D01*
X146796095Y-63421620D01*
X146843714Y-63374001D01*
X146938952Y-63326381D01*
X147891333Y-63326381D02*
X147986571Y-63326381D01*
X148081809Y-63374001D01*
X148129428Y-63421620D01*
X148177047Y-63516858D01*
X148224666Y-63707334D01*
X148224666Y-63945429D01*
X148177047Y-64135905D01*
X148129428Y-64231143D01*
X148081809Y-64278762D01*
X147986571Y-64326381D01*
X147891333Y-64326381D01*
X147796095Y-64278762D01*
X147748476Y-64231143D01*
X147700857Y-64135905D01*
X147653238Y-63945429D01*
X147653238Y-63707334D01*
X147700857Y-63516858D01*
X147748476Y-63421620D01*
X147796095Y-63374001D01*
X147891333Y-63326381D01*
X149415142Y-64326381D02*
X149415142Y-63659715D01*
X149415142Y-63754953D02*
X149462761Y-63707334D01*
X149558000Y-63659715D01*
X149700857Y-63659715D01*
X149796095Y-63707334D01*
X149843714Y-63802572D01*
X149843714Y-64326381D01*
X149843714Y-63802572D02*
X149891333Y-63707334D01*
X149986571Y-63659715D01*
X150129428Y-63659715D01*
X150224666Y-63707334D01*
X150272285Y-63802572D01*
X150272285Y-64326381D01*
X150748476Y-64326381D02*
X150748476Y-63659715D01*
X150748476Y-63754953D02*
X150796095Y-63707334D01*
X150891333Y-63659715D01*
X151034190Y-63659715D01*
X151129428Y-63707334D01*
X151177047Y-63802572D01*
X151177047Y-64326381D01*
X151177047Y-63802572D02*
X151224666Y-63707334D01*
X151319904Y-63659715D01*
X151462761Y-63659715D01*
X151558000Y-63707334D01*
X151605619Y-63802572D01*
X151605619Y-64326381D01*
D11*
X273558000Y-80526000D02*
X273558000Y-64437581D01*
X19558000Y-80526000D02*
X19558000Y-64437581D01*
X273558000Y-65024001D02*
X19558000Y-65024001D01*
X273558000Y-65024001D02*
X19558000Y-65024001D01*
X273558000Y-65024001D02*
X272431496Y-64437580D01*
X273558000Y-65024001D02*
X272431496Y-65610422D01*
X19558000Y-65024001D02*
X20684504Y-65610422D01*
X19558000Y-65024001D02*
X20684504Y-64437580D01*
X78994000Y-90424000D02*
X79248000Y-90424000D01*
X73914000Y-96012000D02*
X73152000Y-95758000D01*
X73406000Y-94996000D02*
X73152000Y-95758000D01*
X80518000Y-117221000D02*
X80518000Y-112903000D01*
X77724000Y-114173000D02*
X76962000Y-113665000D01*
X77724000Y-113157000D02*
X76962000Y-113665000D01*
X52070000Y-109220000D02*
X52070000Y-105918000D01*
X58674000Y-112522000D02*
X59944000Y-112522000D01*
X73152000Y-95758000D02*
X73914000Y-96012000D01*
X52070000Y-115824000D02*
X57404000Y-115824000D01*
X89408000Y-117221000D02*
X80518000Y-117221000D01*
X57404000Y-115824000D02*
X57404000Y-112522000D01*
X59944000Y-112522000D02*
X59944000Y-109220000D01*
X84836000Y-90424000D02*
X84836000Y-102616000D01*
X52070000Y-112522000D02*
X52070000Y-115824000D01*
X78994000Y-102616000D02*
X78994000Y-90424000D01*
X78994000Y-92202000D02*
X73152000Y-95758000D01*
X80518000Y-112903000D02*
X89408000Y-112903000D01*
X59944000Y-105918000D02*
X59944000Y-109220000D01*
X79248000Y-90424000D02*
X90424000Y-90424000D01*
X50800000Y-100584000D02*
X51308000Y-100838000D01*
X80518000Y-113665000D02*
X76962000Y-113665000D01*
X76962000Y-113665000D02*
X77724000Y-113157000D01*
X59944000Y-109220000D02*
X52070000Y-109220000D01*
X90424000Y-90424000D02*
X90424000Y-102616000D01*
X79248000Y-102616000D02*
X78994000Y-102616000D01*
X52070000Y-112522000D02*
X58674000Y-112522000D01*
X52070000Y-105918000D02*
X59944000Y-105918000D01*
X90424000Y-102616000D02*
X79248000Y-102616000D01*
X89408000Y-112903000D02*
X89408000Y-117221000D01*
X52070000Y-109220000D02*
X52070000Y-112522000D01*
X76962000Y-113665000D02*
X77724000Y-114173000D01*
X52070000Y-105918000D02*
X50800000Y-100584000D01*
X50800000Y-100584000D02*
X50546000Y-101092000D01*
D12*
X82068380Y-113271095D02*
X81068380Y-113271095D01*
X81068380Y-113652047D01*
X81116000Y-113747285D01*
X81163619Y-113794904D01*
X81258857Y-113842523D01*
X81401714Y-113842523D01*
X81496952Y-113794904D01*
X81544571Y-113747285D01*
X81592190Y-113652047D01*
X81592190Y-113271095D01*
X81782666Y-114223476D02*
X81782666Y-114699666D01*
X82068380Y-114128238D02*
X81068380Y-114461571D01*
X82068380Y-114794904D01*
X82068380Y-115652047D02*
X82068380Y-115080619D01*
X82068380Y-115366333D02*
X81068380Y-115366333D01*
X81211238Y-115271095D01*
X81306476Y-115175857D01*
X81354095Y-115080619D01*
X81068380Y-116271095D02*
X81068380Y-116366333D01*
X81116000Y-116461571D01*
X81163619Y-116509190D01*
X81258857Y-116556809D01*
X81449333Y-116604428D01*
X81687428Y-116604428D01*
X81877904Y-116556809D01*
X81973142Y-116509190D01*
X82020761Y-116461571D01*
X82068380Y-116366333D01*
X82068380Y-116271095D01*
X82020761Y-116175857D01*
X81973142Y-116128238D01*
X81877904Y-116080619D01*
X81687428Y-116033000D01*
X81449333Y-116033000D01*
X81258857Y-116080619D01*
X81163619Y-116128238D01*
X81116000Y-116175857D01*
X81068380Y-116271095D01*
X83678380Y-113271095D02*
X82678380Y-113271095D01*
X82678380Y-113652047D01*
X82726000Y-113747285D01*
X82773619Y-113794904D01*
X82868857Y-113842523D01*
X83011714Y-113842523D01*
X83106952Y-113794904D01*
X83154571Y-113747285D01*
X83202190Y-113652047D01*
X83202190Y-113271095D01*
X83392666Y-114223476D02*
X83392666Y-114699666D01*
X83678380Y-114128238D02*
X82678380Y-114461571D01*
X83678380Y-114794904D01*
X83678380Y-115175857D02*
X83678380Y-115366333D01*
X83630761Y-115461571D01*
X83583142Y-115509190D01*
X83440285Y-115604428D01*
X83249809Y-115652047D01*
X82868857Y-115652047D01*
X82773619Y-115604428D01*
X82726000Y-115556809D01*
X82678380Y-115461571D01*
X82678380Y-115271095D01*
X82726000Y-115175857D01*
X82773619Y-115128238D01*
X82868857Y-115080619D01*
X83106952Y-115080619D01*
X83202190Y-115128238D01*
X83249809Y-115175857D01*
X83297428Y-115271095D01*
X83297428Y-115461571D01*
X83249809Y-115556809D01*
X83202190Y-115604428D01*
X83106952Y-115652047D01*
X85240761Y-113223476D02*
X85288380Y-113366333D01*
X85288380Y-113604428D01*
X85240761Y-113699666D01*
X85193142Y-113747285D01*
X85097904Y-113794904D01*
X85002666Y-113794904D01*
X84907428Y-113747285D01*
X84859809Y-113699666D01*
X84812190Y-113604428D01*
X84764571Y-113413952D01*
X84716952Y-113318714D01*
X84669333Y-113271095D01*
X84574095Y-113223476D01*
X84478857Y-113223476D01*
X84383619Y-113271095D01*
X84336000Y-113318714D01*
X84288380Y-113413952D01*
X84288380Y-113652047D01*
X84336000Y-113794904D01*
X85193142Y-114794904D02*
X85240761Y-114747285D01*
X85288380Y-114604428D01*
X85288380Y-114509190D01*
X85240761Y-114366333D01*
X85145523Y-114271095D01*
X85050285Y-114223476D01*
X84859809Y-114175857D01*
X84716952Y-114175857D01*
X84526476Y-114223476D01*
X84431238Y-114271095D01*
X84336000Y-114366333D01*
X84288380Y-114509190D01*
X84288380Y-114604428D01*
X84336000Y-114747285D01*
X84383619Y-114794904D01*
X85288380Y-115699666D02*
X85288380Y-115223476D01*
X84288380Y-115223476D01*
X84383619Y-115985380D02*
X84336000Y-116033000D01*
X84288380Y-116128238D01*
X84288380Y-116366333D01*
X84336000Y-116461571D01*
X84383619Y-116509190D01*
X84478857Y-116556809D01*
X84574095Y-116556809D01*
X84716952Y-116509190D01*
X85288380Y-115937761D01*
X85288380Y-116556809D01*
X86850761Y-113223476D02*
X86898380Y-113366333D01*
X86898380Y-113604428D01*
X86850761Y-113699666D01*
X86803142Y-113747285D01*
X86707904Y-113794904D01*
X86612666Y-113794904D01*
X86517428Y-113747285D01*
X86469809Y-113699666D01*
X86422190Y-113604428D01*
X86374571Y-113413952D01*
X86326952Y-113318714D01*
X86279333Y-113271095D01*
X86184095Y-113223476D01*
X86088857Y-113223476D01*
X85993619Y-113271095D01*
X85946000Y-113318714D01*
X85898380Y-113413952D01*
X85898380Y-113652047D01*
X85946000Y-113794904D01*
X86898380Y-114223476D02*
X85898380Y-114223476D01*
X85898380Y-114461571D01*
X85946000Y-114604428D01*
X86041238Y-114699666D01*
X86136476Y-114747285D01*
X86326952Y-114794904D01*
X86469809Y-114794904D01*
X86660285Y-114747285D01*
X86755523Y-114699666D01*
X86850761Y-114604428D01*
X86898380Y-114461571D01*
X86898380Y-114223476D01*
X86612666Y-115175857D02*
X86612666Y-115652047D01*
X86898380Y-115080619D02*
X85898380Y-115413952D01*
X86898380Y-115747285D01*
X85993619Y-116033000D02*
X85946000Y-116080619D01*
X85898380Y-116175857D01*
X85898380Y-116413952D01*
X85946000Y-116509190D01*
X85993619Y-116556809D01*
X86088857Y-116604428D01*
X86184095Y-116604428D01*
X86326952Y-116556809D01*
X86898380Y-115985380D01*
X86898380Y-116604428D01*
X88508380Y-113271095D02*
X87508380Y-113271095D01*
X87508380Y-113652047D01*
X87556000Y-113747285D01*
X87603619Y-113794904D01*
X87698857Y-113842523D01*
X87841714Y-113842523D01*
X87936952Y-113794904D01*
X87984571Y-113747285D01*
X88032190Y-113652047D01*
X88032190Y-113271095D01*
X88413142Y-114842523D02*
X88460761Y-114794904D01*
X88508380Y-114652047D01*
X88508380Y-114556809D01*
X88460761Y-114413952D01*
X88365523Y-114318714D01*
X88270285Y-114271095D01*
X88079809Y-114223476D01*
X87936952Y-114223476D01*
X87746476Y-114271095D01*
X87651238Y-114318714D01*
X87556000Y-114413952D01*
X87508380Y-114556809D01*
X87508380Y-114652047D01*
X87556000Y-114794904D01*
X87603619Y-114842523D01*
X87936952Y-115413952D02*
X87889333Y-115318714D01*
X87841714Y-115271095D01*
X87746476Y-115223476D01*
X87698857Y-115223476D01*
X87603619Y-115271095D01*
X87556000Y-115318714D01*
X87508380Y-115413952D01*
X87508380Y-115604428D01*
X87556000Y-115699666D01*
X87603619Y-115747285D01*
X87698857Y-115794904D01*
X87746476Y-115794904D01*
X87841714Y-115747285D01*
X87889333Y-115699666D01*
X87936952Y-115604428D01*
X87936952Y-115413952D01*
X87984571Y-115318714D01*
X88032190Y-115271095D01*
X88127428Y-115223476D01*
X88317904Y-115223476D01*
X88413142Y-115271095D01*
X88460761Y-115318714D01*
X88508380Y-115413952D01*
X88508380Y-115604428D01*
X88460761Y-115699666D01*
X88413142Y-115747285D01*
X88317904Y-115794904D01*
X88127428Y-115794904D01*
X88032190Y-115747285D01*
X87984571Y-115699666D01*
X87936952Y-115604428D01*
D10*
X58682000Y-106777404D02*
X58634380Y-106682166D01*
X58634380Y-106539309D01*
X58682000Y-106396452D01*
X58777238Y-106301214D01*
X58872476Y-106253595D01*
X59062952Y-106205976D01*
X59205809Y-106205976D01*
X59396285Y-106253595D01*
X59491523Y-106301214D01*
X59586761Y-106396452D01*
X59634380Y-106539309D01*
X59634380Y-106634547D01*
X59586761Y-106777404D01*
X59539142Y-106825023D01*
X59205809Y-106825023D01*
X59205809Y-106634547D01*
X59634380Y-107253595D02*
X58634380Y-107253595D01*
X59634380Y-107825023D01*
X58634380Y-107825023D01*
X59634380Y-108301214D02*
X58634380Y-108301214D01*
X58634380Y-108539309D01*
X58682000Y-108682166D01*
X58777238Y-108777404D01*
X58872476Y-108825023D01*
X59062952Y-108872642D01*
X59205809Y-108872642D01*
X59396285Y-108825023D01*
X59491523Y-108777404D01*
X59586761Y-108682166D01*
X59634380Y-108539309D01*
X59634380Y-108301214D01*
X43378380Y-95353333D02*
X42378380Y-95353333D01*
X42378380Y-95591428D01*
X42426000Y-95734285D01*
X42521238Y-95829523D01*
X42616476Y-95877142D01*
X42806952Y-95924761D01*
X42949809Y-95924761D01*
X43140285Y-95877142D01*
X43235523Y-95829523D01*
X43330761Y-95734285D01*
X43378380Y-95591428D01*
X43378380Y-95353333D01*
X43092666Y-96305714D02*
X43092666Y-96781904D01*
X43378380Y-96210476D02*
X42378380Y-96543809D01*
X43378380Y-96877142D01*
X43378380Y-97734285D02*
X43378380Y-97162857D01*
X43378380Y-97448571D02*
X42378380Y-97448571D01*
X42521238Y-97353333D01*
X42616476Y-97258095D01*
X42664095Y-97162857D01*
X81938761Y-119921976D02*
X81986380Y-120064833D01*
X81986380Y-120302928D01*
X81938761Y-120398166D01*
X81891142Y-120445785D01*
X81795904Y-120493404D01*
X81700666Y-120493404D01*
X81605428Y-120445785D01*
X81557809Y-120398166D01*
X81510190Y-120302928D01*
X81462571Y-120112452D01*
X81414952Y-120017214D01*
X81367333Y-119969595D01*
X81272095Y-119921976D01*
X81176857Y-119921976D01*
X81081619Y-119969595D01*
X81034000Y-120017214D01*
X80986380Y-120112452D01*
X80986380Y-120350547D01*
X81034000Y-120493404D01*
X80986380Y-120826738D02*
X81986380Y-121064833D01*
X81272095Y-121255309D01*
X81986380Y-121445785D01*
X80986380Y-121683880D01*
X81081619Y-122017214D02*
X81034000Y-122064833D01*
X80986380Y-122160071D01*
X80986380Y-122398166D01*
X81034000Y-122493404D01*
X81081619Y-122541023D01*
X81176857Y-122588642D01*
X81272095Y-122588642D01*
X81414952Y-122541023D01*
X81986380Y-121969595D01*
X81986380Y-122588642D01*
X59253428Y-109555595D02*
X59253428Y-110317500D01*
X59634380Y-109936547D02*
X58872476Y-109936547D01*
X58634380Y-110698452D02*
X58634380Y-111317500D01*
X59015333Y-110984166D01*
X59015333Y-111127023D01*
X59062952Y-111222261D01*
X59110571Y-111269880D01*
X59205809Y-111317500D01*
X59443904Y-111317500D01*
X59539142Y-111269880D01*
X59586761Y-111222261D01*
X59634380Y-111127023D01*
X59634380Y-110841309D01*
X59586761Y-110746071D01*
X59539142Y-110698452D01*
X177427000Y-115159404D02*
X177379380Y-115064166D01*
X177379380Y-114921309D01*
X177427000Y-114778452D01*
X177522238Y-114683214D01*
X177617476Y-114635595D01*
X177807952Y-114587976D01*
X177950809Y-114587976D01*
X178141285Y-114635595D01*
X178236523Y-114683214D01*
X178331761Y-114778452D01*
X178379380Y-114921309D01*
X178379380Y-115016547D01*
X178331761Y-115159404D01*
X178284142Y-115207023D01*
X177950809Y-115207023D01*
X177950809Y-115016547D01*
X178379380Y-116159404D02*
X178379380Y-115587976D01*
X178379380Y-115873690D02*
X177379380Y-115873690D01*
X177522238Y-115778452D01*
X177617476Y-115683214D01*
X177665095Y-115587976D01*
X260834142Y-115207023D02*
X260881761Y-115159404D01*
X260929380Y-115016547D01*
X260929380Y-114921309D01*
X260881761Y-114778452D01*
X260786523Y-114683214D01*
X260691285Y-114635595D01*
X260500809Y-114587976D01*
X260357952Y-114587976D01*
X260167476Y-114635595D01*
X260072238Y-114683214D01*
X259977000Y-114778452D01*
X259929380Y-114921309D01*
X259929380Y-115016547D01*
X259977000Y-115159404D01*
X260024619Y-115207023D01*
X260929380Y-116111785D02*
X260929380Y-115635595D01*
X259929380Y-115635595D01*
X260929380Y-116968928D02*
X260929380Y-116397500D01*
X260929380Y-116683214D02*
X259929380Y-116683214D01*
X260072238Y-116587976D01*
X260167476Y-116492738D01*
X260215095Y-116397500D01*
X58269142Y-110127023D02*
X58316761Y-110079404D01*
X58364380Y-109936547D01*
X58364380Y-109841309D01*
X58316761Y-109698452D01*
X58221523Y-109603214D01*
X58126285Y-109555595D01*
X57935809Y-109507976D01*
X57792952Y-109507976D01*
X57602476Y-109555595D01*
X57507238Y-109603214D01*
X57412000Y-109698452D01*
X57364380Y-109841309D01*
X57364380Y-109936547D01*
X57412000Y-110079404D01*
X57459619Y-110127023D01*
X58364380Y-111031785D02*
X58364380Y-110555595D01*
X57364380Y-110555595D01*
X58364380Y-111365119D02*
X57364380Y-111365119D01*
X58364380Y-111936547D02*
X57792952Y-111507976D01*
X57364380Y-111936547D02*
X57935809Y-111365119D01*
X209748428Y-114762595D02*
X209748428Y-115524500D01*
X53792428Y-119969595D02*
X53792428Y-120731500D01*
X54173380Y-120350547D02*
X53411476Y-120350547D01*
X53173380Y-121112452D02*
X53173380Y-121731500D01*
X53554333Y-121398166D01*
X53554333Y-121541023D01*
X53601952Y-121636261D01*
X53649571Y-121683880D01*
X53744809Y-121731500D01*
X53982904Y-121731500D01*
X54078142Y-121683880D01*
X54125761Y-121636261D01*
X54173380Y-121541023D01*
X54173380Y-121255309D01*
X54125761Y-121160071D01*
X54078142Y-121112452D01*
X142581380Y-114413357D02*
X143581380Y-115080023D01*
X142581380Y-115080023D02*
X143581380Y-114413357D01*
X143533761Y-115413357D02*
X143581380Y-115556214D01*
X143581380Y-115794309D01*
X143533761Y-115889547D01*
X143486142Y-115937166D01*
X143390904Y-115984785D01*
X143295666Y-115984785D01*
X143200428Y-115937166D01*
X143152809Y-115889547D01*
X143105190Y-115794309D01*
X143057571Y-115603833D01*
X143009952Y-115508595D01*
X142962333Y-115460976D01*
X142867095Y-115413357D01*
X142771857Y-115413357D01*
X142676619Y-115460976D01*
X142629000Y-115508595D01*
X142581380Y-115603833D01*
X142581380Y-115841928D01*
X142629000Y-115984785D01*
X143581380Y-116937166D02*
X143581380Y-116365738D01*
X143581380Y-116651452D02*
X142581380Y-116651452D01*
X142724238Y-116556214D01*
X142819476Y-116460976D01*
X142867095Y-116365738D01*
D12*
X86599380Y-91268285D02*
X86599380Y-90792095D01*
X85599380Y-90792095D01*
X86599380Y-92125428D02*
X86599380Y-91554000D01*
X86599380Y-91839714D02*
X85599380Y-91839714D01*
X85742238Y-91744476D01*
X85837476Y-91649238D01*
X85885095Y-91554000D01*
X85599380Y-93030190D02*
X85599380Y-92554000D01*
X86075571Y-92506380D01*
X86027952Y-92554000D01*
X85980333Y-92649238D01*
X85980333Y-92887333D01*
X86027952Y-92982571D01*
X86075571Y-93030190D01*
X86170809Y-93077809D01*
X86408904Y-93077809D01*
X86504142Y-93030190D01*
X86551761Y-92982571D01*
X86599380Y-92887333D01*
X86599380Y-92649238D01*
X86551761Y-92554000D01*
X86504142Y-92506380D01*
X86599380Y-94030190D02*
X86599380Y-93458761D01*
X86599380Y-93744476D02*
X85599380Y-93744476D01*
X85742238Y-93649238D01*
X85837476Y-93554000D01*
X85885095Y-93458761D01*
X86599380Y-95030190D02*
X86123190Y-94696857D01*
X86599380Y-94458761D02*
X85599380Y-94458761D01*
X85599380Y-94839714D01*
X85647000Y-94934952D01*
X85694619Y-94982571D01*
X85789857Y-95030190D01*
X85932714Y-95030190D01*
X86027952Y-94982571D01*
X86075571Y-94934952D01*
X86123190Y-94839714D01*
X86123190Y-94458761D01*
X86075571Y-95458761D02*
X86075571Y-95792095D01*
X86599380Y-95934952D02*
X86599380Y-95458761D01*
X85599380Y-95458761D01*
X85599380Y-95934952D01*
X85599380Y-96220666D02*
X85599380Y-96792095D01*
X86599380Y-96506380D02*
X85599380Y-96506380D01*
X86599380Y-97030190D02*
X85932714Y-97554000D01*
X85932714Y-97030190D02*
X86599380Y-97554000D01*
X86980333Y-98982571D02*
X86932714Y-98934952D01*
X86789857Y-98839714D01*
X86694619Y-98792095D01*
X86551761Y-98744476D01*
X86313666Y-98696857D01*
X86123190Y-98696857D01*
X85885095Y-98744476D01*
X85742238Y-98792095D01*
X85647000Y-98839714D01*
X85504142Y-98934952D01*
X85456523Y-98982571D01*
X85599380Y-99363523D02*
X86408904Y-99363523D01*
X86504142Y-99411142D01*
X86551761Y-99458761D01*
X86599380Y-99554000D01*
X86599380Y-99744476D01*
X86551761Y-99839714D01*
X86504142Y-99887333D01*
X86408904Y-99934952D01*
X85599380Y-99934952D01*
X85599380Y-100839714D02*
X85599380Y-100649238D01*
X85647000Y-100554000D01*
X85694619Y-100506380D01*
X85837476Y-100411142D01*
X86027952Y-100363523D01*
X86408904Y-100363523D01*
X86504142Y-100411142D01*
X86551761Y-100458761D01*
X86599380Y-100554000D01*
X86599380Y-100744476D01*
X86551761Y-100839714D01*
X86504142Y-100887333D01*
X86408904Y-100934952D01*
X86170809Y-100934952D01*
X86075571Y-100887333D01*
X86027952Y-100839714D01*
X85980333Y-100744476D01*
X85980333Y-100554000D01*
X86027952Y-100458761D01*
X86075571Y-100411142D01*
X86170809Y-100363523D01*
X86980333Y-101268285D02*
X86932714Y-101315904D01*
X86789857Y-101411142D01*
X86694619Y-101458761D01*
X86551761Y-101506380D01*
X86313666Y-101554000D01*
X86123190Y-101554000D01*
X85885095Y-101506380D01*
X85742238Y-101458761D01*
X85647000Y-101411142D01*
X85504142Y-101315904D01*
X85456523Y-101268285D01*
X86504142Y-102030190D02*
X86551761Y-102077809D01*
X86599380Y-102030190D01*
X86551761Y-101982571D01*
X86504142Y-102030190D01*
X86599380Y-102030190D01*
X85980333Y-102030190D02*
X86027952Y-102077809D01*
X86075571Y-102030190D01*
X86027952Y-101982571D01*
X85980333Y-102030190D01*
X86075571Y-102030190D01*
X87209380Y-91077809D02*
X87923666Y-91077809D01*
X88066523Y-91030190D01*
X88161761Y-90934952D01*
X88209380Y-90792095D01*
X88209380Y-90696857D01*
X88209380Y-91554000D02*
X87209380Y-91554000D01*
X87209380Y-91934952D01*
X87257000Y-92030190D01*
X87304619Y-92077809D01*
X87399857Y-92125428D01*
X87542714Y-92125428D01*
X87637952Y-92077809D01*
X87685571Y-92030190D01*
X87733190Y-91934952D01*
X87733190Y-91554000D01*
X87209380Y-92458761D02*
X87209380Y-93077809D01*
X87590333Y-92744476D01*
X87590333Y-92887333D01*
X87637952Y-92982571D01*
X87685571Y-93030190D01*
X87780809Y-93077809D01*
X88018904Y-93077809D01*
X88114142Y-93030190D01*
X88161761Y-92982571D01*
X88209380Y-92887333D01*
X88209380Y-92601619D01*
X88161761Y-92506380D01*
X88114142Y-92458761D01*
X87828428Y-94268285D02*
X87828428Y-95030190D01*
X87542714Y-95506380D02*
X87828428Y-96268285D01*
X88114142Y-95506380D01*
X87304619Y-97458761D02*
X87257000Y-97506380D01*
X87209380Y-97601619D01*
X87209380Y-97839714D01*
X87257000Y-97934952D01*
X87304619Y-97982571D01*
X87399857Y-98030190D01*
X87495095Y-98030190D01*
X87637952Y-97982571D01*
X88209380Y-97411142D01*
X88209380Y-98030190D01*
X87828428Y-98458761D02*
X87828428Y-99220666D01*
X87209380Y-99601619D02*
X87209380Y-100220666D01*
X87590333Y-99887333D01*
X87590333Y-100030190D01*
X87637952Y-100125428D01*
X87685571Y-100173047D01*
X87780809Y-100220666D01*
X88018904Y-100220666D01*
X88114142Y-100173047D01*
X88161761Y-100125428D01*
X88209380Y-100030190D01*
X88209380Y-99744476D01*
X88161761Y-99649238D01*
X88114142Y-99601619D01*
X88161761Y-100696857D02*
X88209380Y-100696857D01*
X88304619Y-100649238D01*
X88352238Y-100601619D01*
X88819380Y-91077809D02*
X89533666Y-91077809D01*
X89676523Y-91030190D01*
X89771761Y-90934952D01*
X89819380Y-90792095D01*
X89819380Y-90696857D01*
X89819380Y-91554000D02*
X88819380Y-91554000D01*
X88819380Y-91934952D01*
X88867000Y-92030190D01*
X88914619Y-92077809D01*
X89009857Y-92125428D01*
X89152714Y-92125428D01*
X89247952Y-92077809D01*
X89295571Y-92030190D01*
X89343190Y-91934952D01*
X89343190Y-91554000D01*
X88914619Y-92506380D02*
X88867000Y-92554000D01*
X88819380Y-92649238D01*
X88819380Y-92887333D01*
X88867000Y-92982571D01*
X88914619Y-93030190D01*
X89009857Y-93077809D01*
X89105095Y-93077809D01*
X89247952Y-93030190D01*
X89819380Y-92458761D01*
X89819380Y-93077809D01*
X89438428Y-94268285D02*
X89438428Y-95030190D01*
X89152714Y-95506380D02*
X89438428Y-96268285D01*
X89724142Y-95506380D01*
X89819380Y-98030190D02*
X89819380Y-97458761D01*
X89819380Y-97744476D02*
X88819380Y-97744476D01*
X88962238Y-97649238D01*
X89057476Y-97554000D01*
X89105095Y-97458761D01*
X89438428Y-98458761D02*
X89438428Y-99220666D01*
X88914619Y-99649238D02*
X88867000Y-99696857D01*
X88819380Y-99792095D01*
X88819380Y-100030190D01*
X88867000Y-100125428D01*
X88914619Y-100173047D01*
X89009857Y-100220666D01*
X89105095Y-100220666D01*
X89247952Y-100173047D01*
X89819380Y-99601619D01*
X89819380Y-100220666D01*
D10*
X264104380Y-114635595D02*
X263104380Y-114635595D01*
X263104380Y-114873690D01*
X263152000Y-115016547D01*
X263247238Y-115111785D01*
X263342476Y-115159404D01*
X263532952Y-115207023D01*
X263675809Y-115207023D01*
X263866285Y-115159404D01*
X263961523Y-115111785D01*
X264056761Y-115016547D01*
X264104380Y-114873690D01*
X264104380Y-114635595D01*
X263818666Y-115587976D02*
X263818666Y-116064166D01*
X264104380Y-115492738D02*
X263104380Y-115826071D01*
X264104380Y-116159404D01*
X264104380Y-117016547D02*
X264104380Y-116445119D01*
X264104380Y-116730833D02*
X263104380Y-116730833D01*
X263247238Y-116635595D01*
X263342476Y-116540357D01*
X263390095Y-116445119D01*
X53236761Y-109507976D02*
X53284380Y-109650833D01*
X53284380Y-109888928D01*
X53236761Y-109984166D01*
X53189142Y-110031785D01*
X53093904Y-110079404D01*
X52998666Y-110079404D01*
X52903428Y-110031785D01*
X52855809Y-109984166D01*
X52808190Y-109888928D01*
X52760571Y-109698452D01*
X52712952Y-109603214D01*
X52665333Y-109555595D01*
X52570095Y-109507976D01*
X52474857Y-109507976D01*
X52379619Y-109555595D01*
X52332000Y-109603214D01*
X52284380Y-109698452D01*
X52284380Y-109936547D01*
X52332000Y-110079404D01*
X52284380Y-110412738D02*
X53284380Y-110650833D01*
X52570095Y-110841309D01*
X53284380Y-111031785D01*
X52284380Y-111269880D01*
X52284380Y-111841309D02*
X52284380Y-111936547D01*
X52332000Y-112031785D01*
X52379619Y-112079404D01*
X52474857Y-112127023D01*
X52665333Y-112174642D01*
X52903428Y-112174642D01*
X53093904Y-112127023D01*
X53189142Y-112079404D01*
X53236761Y-112031785D01*
X53284380Y-111936547D01*
X53284380Y-111841309D01*
X53236761Y-111746071D01*
X53189142Y-111698452D01*
X53093904Y-111650833D01*
X52903428Y-111603214D01*
X52665333Y-111603214D01*
X52474857Y-111650833D01*
X52379619Y-111698452D01*
X52332000Y-111746071D01*
X52284380Y-111841309D01*
X55824380Y-109555595D02*
X54824380Y-109555595D01*
X54824380Y-109793690D01*
X54872000Y-109936547D01*
X54967238Y-110031785D01*
X55062476Y-110079404D01*
X55252952Y-110127023D01*
X55395809Y-110127023D01*
X55586285Y-110079404D01*
X55681523Y-110031785D01*
X55776761Y-109936547D01*
X55824380Y-109793690D01*
X55824380Y-109555595D01*
X55538666Y-110507976D02*
X55538666Y-110984166D01*
X55824380Y-110412738D02*
X54824380Y-110746071D01*
X55824380Y-111079404D01*
X54824380Y-111269880D02*
X54824380Y-111841309D01*
X55824380Y-111555595D02*
X54824380Y-111555595D01*
X79398761Y-119921976D02*
X79446380Y-120064833D01*
X79446380Y-120302928D01*
X79398761Y-120398166D01*
X79351142Y-120445785D01*
X79255904Y-120493404D01*
X79160666Y-120493404D01*
X79065428Y-120445785D01*
X79017809Y-120398166D01*
X78970190Y-120302928D01*
X78922571Y-120112452D01*
X78874952Y-120017214D01*
X78827333Y-119969595D01*
X78732095Y-119921976D01*
X78636857Y-119921976D01*
X78541619Y-119969595D01*
X78494000Y-120017214D01*
X78446380Y-120112452D01*
X78446380Y-120350547D01*
X78494000Y-120493404D01*
X78446380Y-120826738D02*
X79446380Y-121064833D01*
X78732095Y-121255309D01*
X79446380Y-121445785D01*
X78446380Y-121683880D01*
X79446380Y-122588642D02*
X79446380Y-122017214D01*
X79446380Y-122302928D02*
X78446380Y-122302928D01*
X78589238Y-122207690D01*
X78684476Y-122112452D01*
X78732095Y-122017214D01*
X226004380Y-114635595D02*
X225004380Y-114635595D01*
X225004380Y-114873690D01*
X225052000Y-115016547D01*
X225147238Y-115111785D01*
X225242476Y-115159404D01*
X225432952Y-115207023D01*
X225575809Y-115207023D01*
X225766285Y-115159404D01*
X225861523Y-115111785D01*
X225956761Y-115016547D01*
X226004380Y-114873690D01*
X226004380Y-114635595D01*
X225718666Y-115587976D02*
X225718666Y-116064166D01*
X226004380Y-115492738D02*
X225004380Y-115826071D01*
X226004380Y-116159404D01*
X226004380Y-117016547D02*
X226004380Y-116445119D01*
X226004380Y-116730833D02*
X225004380Y-116730833D01*
X225147238Y-116635595D01*
X225242476Y-116540357D01*
X225290095Y-116445119D01*
X54554380Y-110127023D02*
X54078190Y-109793690D01*
X54554380Y-109555595D02*
X53554380Y-109555595D01*
X53554380Y-109936547D01*
X53602000Y-110031785D01*
X53649619Y-110079404D01*
X53744857Y-110127023D01*
X53887714Y-110127023D01*
X53982952Y-110079404D01*
X54030571Y-110031785D01*
X54078190Y-109936547D01*
X54078190Y-109555595D01*
X54506761Y-110507976D02*
X54554380Y-110650833D01*
X54554380Y-110888928D01*
X54506761Y-110984166D01*
X54459142Y-111031785D01*
X54363904Y-111079404D01*
X54268666Y-111079404D01*
X54173428Y-111031785D01*
X54125809Y-110984166D01*
X54078190Y-110888928D01*
X54030571Y-110698452D01*
X53982952Y-110603214D01*
X53935333Y-110555595D01*
X53840095Y-110507976D01*
X53744857Y-110507976D01*
X53649619Y-110555595D01*
X53602000Y-110603214D01*
X53554380Y-110698452D01*
X53554380Y-110936547D01*
X53602000Y-111079404D01*
X53554380Y-111365119D02*
X53554380Y-111936547D01*
X54554380Y-111650833D02*
X53554380Y-111650833D01*
X56332428Y-119969595D02*
X56332428Y-120731500D01*
X56713380Y-120350547D02*
X55951476Y-120350547D01*
X55713380Y-121683880D02*
X55713380Y-121207690D01*
X56189571Y-121160071D01*
X56141952Y-121207690D01*
X56094333Y-121302928D01*
X56094333Y-121541023D01*
X56141952Y-121636261D01*
X56189571Y-121683880D01*
X56284809Y-121731500D01*
X56522904Y-121731500D01*
X56618142Y-121683880D01*
X56665761Y-121636261D01*
X56713380Y-121541023D01*
X56713380Y-121302928D01*
X56665761Y-121207690D01*
X56618142Y-121160071D01*
X250404380Y-114540357D02*
X250404380Y-115159404D01*
X250785333Y-114826071D01*
X250785333Y-114968928D01*
X250832952Y-115064166D01*
X250880571Y-115111785D01*
X250975809Y-115159404D01*
X251213904Y-115159404D01*
X251309142Y-115111785D01*
X251356761Y-115064166D01*
X251404380Y-114968928D01*
X251404380Y-114683214D01*
X251356761Y-114587976D01*
X251309142Y-114540357D01*
X250404380Y-115445119D02*
X251404380Y-115778452D01*
X250404380Y-116111785D01*
X250404380Y-116349880D02*
X250404380Y-116968928D01*
X250785333Y-116635595D01*
X250785333Y-116778452D01*
X250832952Y-116873690D01*
X250880571Y-116921309D01*
X250975809Y-116968928D01*
X251213904Y-116968928D01*
X251309142Y-116921309D01*
X251356761Y-116873690D01*
X251404380Y-116778452D01*
X251404380Y-116492738D01*
X251356761Y-116397500D01*
X251309142Y-116349880D01*
D12*
X80233571Y-91125428D02*
X80233571Y-90792095D01*
X80757380Y-90792095D02*
X79757380Y-90792095D01*
X79757380Y-91268285D01*
X80090714Y-92077809D02*
X80757380Y-92077809D01*
X79709761Y-91839714D02*
X80424047Y-91601619D01*
X80424047Y-92220666D01*
X79757380Y-92792095D02*
X79757380Y-92887333D01*
X79805000Y-92982571D01*
X79852619Y-93030190D01*
X79947857Y-93077809D01*
X80138333Y-93125428D01*
X80376428Y-93125428D01*
X80566904Y-93077809D01*
X80662142Y-93030190D01*
X80709761Y-92982571D01*
X80757380Y-92887333D01*
X80757380Y-92792095D01*
X80709761Y-92696857D01*
X80662142Y-92649238D01*
X80566904Y-92601619D01*
X80376428Y-92554000D01*
X80138333Y-92554000D01*
X79947857Y-92601619D01*
X79852619Y-92649238D01*
X79805000Y-92696857D01*
X79757380Y-92792095D01*
X80757380Y-94077809D02*
X80757380Y-93506380D01*
X80757380Y-93792095D02*
X79757380Y-93792095D01*
X79900238Y-93696857D01*
X79995476Y-93601619D01*
X80043095Y-93506380D01*
X80757380Y-95077809D02*
X80281190Y-94744476D01*
X80757380Y-94506380D02*
X79757380Y-94506380D01*
X79757380Y-94887333D01*
X79805000Y-94982571D01*
X79852619Y-95030190D01*
X79947857Y-95077809D01*
X80090714Y-95077809D01*
X80185952Y-95030190D01*
X80233571Y-94982571D01*
X80281190Y-94887333D01*
X80281190Y-94506380D01*
X80233571Y-95506380D02*
X80233571Y-95839714D01*
X80757380Y-95982571D02*
X80757380Y-95506380D01*
X79757380Y-95506380D01*
X79757380Y-95982571D01*
X79757380Y-96268285D02*
X79757380Y-96839714D01*
X80757380Y-96554000D02*
X79757380Y-96554000D01*
X80757380Y-97077809D02*
X80090714Y-97601619D01*
X80090714Y-97077809D02*
X80757380Y-97601619D01*
X81138333Y-99030190D02*
X81090714Y-98982571D01*
X80947857Y-98887333D01*
X80852619Y-98839714D01*
X80709761Y-98792095D01*
X80471666Y-98744476D01*
X80281190Y-98744476D01*
X80043095Y-98792095D01*
X79900238Y-98839714D01*
X79805000Y-98887333D01*
X79662142Y-98982571D01*
X79614523Y-99030190D01*
X79757380Y-99411142D02*
X80566904Y-99411142D01*
X80662142Y-99458761D01*
X80709761Y-99506380D01*
X80757380Y-99601619D01*
X80757380Y-99792095D01*
X80709761Y-99887333D01*
X80662142Y-99934952D01*
X80566904Y-99982571D01*
X79757380Y-99982571D01*
X79757380Y-100363523D02*
X79757380Y-101030190D01*
X80757380Y-100601619D01*
X81138333Y-101315904D02*
X81090714Y-101363523D01*
X80947857Y-101458761D01*
X80852619Y-101506380D01*
X80709761Y-101554000D01*
X80471666Y-101601619D01*
X80281190Y-101601619D01*
X80043095Y-101554000D01*
X79900238Y-101506380D01*
X79805000Y-101458761D01*
X79662142Y-101363523D01*
X79614523Y-101315904D01*
X80662142Y-102077809D02*
X80709761Y-102125428D01*
X80757380Y-102077809D01*
X80709761Y-102030190D01*
X80662142Y-102077809D01*
X80757380Y-102077809D01*
X80138333Y-102077809D02*
X80185952Y-102125428D01*
X80233571Y-102077809D01*
X80185952Y-102030190D01*
X80138333Y-102077809D01*
X80233571Y-102077809D01*
X81367380Y-91077809D02*
X82081666Y-91077809D01*
X82224523Y-91030190D01*
X82319761Y-90934952D01*
X82367380Y-90792095D01*
X82367380Y-90696857D01*
X82367380Y-91554000D02*
X81367380Y-91554000D01*
X81367380Y-91934952D01*
X81415000Y-92030190D01*
X81462619Y-92077809D01*
X81557857Y-92125428D01*
X81700714Y-92125428D01*
X81795952Y-92077809D01*
X81843571Y-92030190D01*
X81891190Y-91934952D01*
X81891190Y-91554000D01*
X81367380Y-92458761D02*
X81367380Y-93077809D01*
X81748333Y-92744476D01*
X81748333Y-92887333D01*
X81795952Y-92982571D01*
X81843571Y-93030190D01*
X81938809Y-93077809D01*
X82176904Y-93077809D01*
X82272142Y-93030190D01*
X82319761Y-92982571D01*
X82367380Y-92887333D01*
X82367380Y-92601619D01*
X82319761Y-92506380D01*
X82272142Y-92458761D01*
X81986428Y-94268285D02*
X81986428Y-95030190D01*
X81700714Y-95506380D02*
X81986428Y-96268285D01*
X82272142Y-95506380D01*
X82367380Y-98030190D02*
X82367380Y-97458761D01*
X82367380Y-97744476D02*
X81367380Y-97744476D01*
X81510238Y-97649238D01*
X81605476Y-97554000D01*
X81653095Y-97458761D01*
X81986428Y-98458761D02*
X81986428Y-99220666D01*
X81462619Y-99649238D02*
X81415000Y-99696857D01*
X81367380Y-99792095D01*
X81367380Y-100030190D01*
X81415000Y-100125428D01*
X81462619Y-100173047D01*
X81557857Y-100220666D01*
X81653095Y-100220666D01*
X81795952Y-100173047D01*
X82367380Y-99601619D01*
X82367380Y-100220666D01*
X82319761Y-100696857D02*
X82367380Y-100696857D01*
X82462619Y-100649238D01*
X82510238Y-100601619D01*
X82977380Y-91077809D02*
X83691666Y-91077809D01*
X83834523Y-91030190D01*
X83929761Y-90934952D01*
X83977380Y-90792095D01*
X83977380Y-90696857D01*
X83977380Y-91554000D02*
X82977380Y-91554000D01*
X82977380Y-91934952D01*
X83025000Y-92030190D01*
X83072619Y-92077809D01*
X83167857Y-92125428D01*
X83310714Y-92125428D01*
X83405952Y-92077809D01*
X83453571Y-92030190D01*
X83501190Y-91934952D01*
X83501190Y-91554000D01*
X83072619Y-92506380D02*
X83025000Y-92554000D01*
X82977380Y-92649238D01*
X82977380Y-92887333D01*
X83025000Y-92982571D01*
X83072619Y-93030190D01*
X83167857Y-93077809D01*
X83263095Y-93077809D01*
X83405952Y-93030190D01*
X83977380Y-92458761D01*
X83977380Y-93077809D01*
X83596428Y-94268285D02*
X83596428Y-95030190D01*
X83310714Y-95506380D02*
X83596428Y-96268285D01*
X83882142Y-95506380D01*
X83072619Y-97458761D02*
X83025000Y-97506380D01*
X82977380Y-97601619D01*
X82977380Y-97839714D01*
X83025000Y-97934952D01*
X83072619Y-97982571D01*
X83167857Y-98030190D01*
X83263095Y-98030190D01*
X83405952Y-97982571D01*
X83977380Y-97411142D01*
X83977380Y-98030190D01*
X83596428Y-98458761D02*
X83596428Y-99220666D01*
X82977380Y-99601619D02*
X82977380Y-100220666D01*
X83358333Y-99887333D01*
X83358333Y-100030190D01*
X83405952Y-100125428D01*
X83453571Y-100173047D01*
X83548809Y-100220666D01*
X83786904Y-100220666D01*
X83882142Y-100173047D01*
X83929761Y-100125428D01*
X83977380Y-100030190D01*
X83977380Y-99744476D01*
X83929761Y-99649238D01*
X83882142Y-99601619D01*
D10*
X46490000Y-73249404D02*
X46442380Y-73154166D01*
X46442380Y-73011309D01*
X46490000Y-72868452D01*
X46585238Y-72773214D01*
X46680476Y-72725595D01*
X46870952Y-72677976D01*
X47013809Y-72677976D01*
X47204285Y-72725595D01*
X47299523Y-72773214D01*
X47394761Y-72868452D01*
X47442380Y-73011309D01*
X47442380Y-73106547D01*
X47394761Y-73249404D01*
X47347142Y-73297023D01*
X47013809Y-73297023D01*
X47013809Y-73106547D01*
X46775714Y-74154166D02*
X47442380Y-74154166D01*
X46394761Y-73916071D02*
X47109047Y-73677976D01*
X47109047Y-74297023D01*
X184634142Y-115207023D02*
X184681761Y-115159404D01*
X184729380Y-115016547D01*
X184729380Y-114921309D01*
X184681761Y-114778452D01*
X184586523Y-114683214D01*
X184491285Y-114635595D01*
X184300809Y-114587976D01*
X184157952Y-114587976D01*
X183967476Y-114635595D01*
X183872238Y-114683214D01*
X183777000Y-114778452D01*
X183729380Y-114921309D01*
X183729380Y-115016547D01*
X183777000Y-115159404D01*
X183824619Y-115207023D01*
X184729380Y-116111785D02*
X184729380Y-115635595D01*
X183729380Y-115635595D01*
X184729380Y-116968928D02*
X184729380Y-116397500D01*
X184729380Y-116683214D02*
X183729380Y-116683214D01*
X183872238Y-116587976D01*
X183967476Y-116492738D01*
X184015095Y-116397500D01*
X68540380Y-119874357D02*
X69540380Y-120541023D01*
X68540380Y-120541023D02*
X69540380Y-119874357D01*
X69492761Y-120874357D02*
X69540380Y-121017214D01*
X69540380Y-121255309D01*
X69492761Y-121350547D01*
X69445142Y-121398166D01*
X69349904Y-121445785D01*
X69254666Y-121445785D01*
X69159428Y-121398166D01*
X69111809Y-121350547D01*
X69064190Y-121255309D01*
X69016571Y-121064833D01*
X68968952Y-120969595D01*
X68921333Y-120921976D01*
X68826095Y-120874357D01*
X68730857Y-120874357D01*
X68635619Y-120921976D01*
X68588000Y-120969595D01*
X68540380Y-121064833D01*
X68540380Y-121302928D01*
X68588000Y-121445785D01*
X69540380Y-122398166D02*
X69540380Y-121826738D01*
X69540380Y-122112452D02*
X68540380Y-122112452D01*
X68683238Y-122017214D01*
X68778476Y-121921976D01*
X68826095Y-121826738D01*
X75906380Y-119874357D02*
X76906380Y-120541023D01*
X75906380Y-120541023D02*
X76906380Y-119874357D01*
X76858761Y-120874357D02*
X76906380Y-121017214D01*
X76906380Y-121255309D01*
X76858761Y-121350547D01*
X76811142Y-121398166D01*
X76715904Y-121445785D01*
X76620666Y-121445785D01*
X76525428Y-121398166D01*
X76477809Y-121350547D01*
X76430190Y-121255309D01*
X76382571Y-121064833D01*
X76334952Y-120969595D01*
X76287333Y-120921976D01*
X76192095Y-120874357D01*
X76096857Y-120874357D01*
X76001619Y-120921976D01*
X75954000Y-120969595D01*
X75906380Y-121064833D01*
X75906380Y-121302928D01*
X75954000Y-121445785D01*
X76239714Y-122302928D02*
X76906380Y-122302928D01*
X75858761Y-122064833D02*
X76573047Y-121826738D01*
X76573047Y-122445785D01*
X56142000Y-110079404D02*
X56094380Y-109984166D01*
X56094380Y-109841309D01*
X56142000Y-109698452D01*
X56237238Y-109603214D01*
X56332476Y-109555595D01*
X56522952Y-109507976D01*
X56665809Y-109507976D01*
X56856285Y-109555595D01*
X56951523Y-109603214D01*
X57046761Y-109698452D01*
X57094380Y-109841309D01*
X57094380Y-109936547D01*
X57046761Y-110079404D01*
X56999142Y-110127023D01*
X56665809Y-110127023D01*
X56665809Y-109936547D01*
X57094380Y-110555595D02*
X56094380Y-110555595D01*
X57094380Y-111127023D01*
X56094380Y-111127023D01*
X57094380Y-111603214D02*
X56094380Y-111603214D01*
X56094380Y-111841309D01*
X56142000Y-111984166D01*
X56237238Y-112079404D01*
X56332476Y-112127023D01*
X56522952Y-112174642D01*
X56665809Y-112174642D01*
X56856285Y-112127023D01*
X56951523Y-112079404D01*
X57046761Y-111984166D01*
X57094380Y-111841309D01*
X57094380Y-111603214D01*
X136231380Y-114413357D02*
X136231380Y-115032404D01*
X136612333Y-114699071D01*
X136612333Y-114841928D01*
X136659952Y-114937166D01*
X136707571Y-114984785D01*
X136802809Y-115032404D01*
X137040904Y-115032404D01*
X137136142Y-114984785D01*
X137183761Y-114937166D01*
X137231380Y-114841928D01*
X137231380Y-114556214D01*
X137183761Y-114460976D01*
X137136142Y-114413357D01*
X136231380Y-115318119D02*
X137231380Y-115651452D01*
X136231380Y-115984785D01*
X136231380Y-116222880D02*
X136231380Y-116841928D01*
X136612333Y-116508595D01*
X136612333Y-116651452D01*
X136659952Y-116746690D01*
X136707571Y-116794309D01*
X136802809Y-116841928D01*
X137040904Y-116841928D01*
X137136142Y-116794309D01*
X137183761Y-116746690D01*
X137231380Y-116651452D01*
X137231380Y-116365738D01*
X137183761Y-116270500D01*
X137136142Y-116222880D01*
X54554380Y-106825023D02*
X54078190Y-106491690D01*
X54554380Y-106253595D02*
X53554380Y-106253595D01*
X53554380Y-106634547D01*
X53602000Y-106729785D01*
X53649619Y-106777404D01*
X53744857Y-106825023D01*
X53887714Y-106825023D01*
X53982952Y-106777404D01*
X54030571Y-106729785D01*
X54078190Y-106634547D01*
X54078190Y-106253595D01*
X53554380Y-107158357D02*
X54554380Y-107825023D01*
X53554380Y-107825023D02*
X54554380Y-107158357D01*
X247848428Y-114762595D02*
X247848428Y-115524500D01*
X44521428Y-73279047D02*
X44521428Y-74040952D01*
X58301000Y-120493404D02*
X58253380Y-120398166D01*
X58253380Y-120255309D01*
X58301000Y-120112452D01*
X58396238Y-120017214D01*
X58491476Y-119969595D01*
X58681952Y-119921976D01*
X58824809Y-119921976D01*
X59015285Y-119969595D01*
X59110523Y-120017214D01*
X59205761Y-120112452D01*
X59253380Y-120255309D01*
X59253380Y-120350547D01*
X59205761Y-120493404D01*
X59158142Y-120541023D01*
X58824809Y-120541023D01*
X58824809Y-120350547D01*
X59253380Y-120969595D02*
X58253380Y-120969595D01*
X59253380Y-121541023D01*
X58253380Y-121541023D01*
X59253380Y-122017214D02*
X58253380Y-122017214D01*
X58253380Y-122255309D01*
X58301000Y-122398166D01*
X58396238Y-122493404D01*
X58491476Y-122541023D01*
X58681952Y-122588642D01*
X58824809Y-122588642D01*
X59015285Y-122541023D01*
X59110523Y-122493404D01*
X59205761Y-122398166D01*
X59253380Y-122255309D01*
X59253380Y-122017214D01*
X212304380Y-114540357D02*
X212304380Y-115159404D01*
X212685333Y-114826071D01*
X212685333Y-114968928D01*
X212732952Y-115064166D01*
X212780571Y-115111785D01*
X212875809Y-115159404D01*
X213113904Y-115159404D01*
X213209142Y-115111785D01*
X213256761Y-115064166D01*
X213304380Y-114968928D01*
X213304380Y-114683214D01*
X213256761Y-114587976D01*
X213209142Y-114540357D01*
X212304380Y-115445119D02*
X213304380Y-115778452D01*
X212304380Y-116111785D01*
X212304380Y-116349880D02*
X212304380Y-116968928D01*
X212685333Y-116635595D01*
X212685333Y-116778452D01*
X212732952Y-116873690D01*
X212780571Y-116921309D01*
X212875809Y-116968928D01*
X213113904Y-116968928D01*
X213209142Y-116921309D01*
X213256761Y-116873690D01*
X213304380Y-116778452D01*
X213304380Y-116492738D01*
X213256761Y-116397500D01*
X213209142Y-116349880D01*
X174204380Y-114540357D02*
X174204380Y-115159404D01*
X174585333Y-114826071D01*
X174585333Y-114968928D01*
X174632952Y-115064166D01*
X174680571Y-115111785D01*
X174775809Y-115159404D01*
X175013904Y-115159404D01*
X175109142Y-115111785D01*
X175156761Y-115064166D01*
X175204380Y-114968928D01*
X175204380Y-114683214D01*
X175156761Y-114587976D01*
X175109142Y-114540357D01*
X174204380Y-115445119D02*
X175204380Y-115778452D01*
X174204380Y-116111785D01*
X174204380Y-116349880D02*
X174204380Y-116968928D01*
X174585333Y-116635595D01*
X174585333Y-116778452D01*
X174632952Y-116873690D01*
X174680571Y-116921309D01*
X174775809Y-116968928D01*
X175013904Y-116968928D01*
X175109142Y-116921309D01*
X175156761Y-116873690D01*
X175204380Y-116778452D01*
X175204380Y-116492738D01*
X175156761Y-116397500D01*
X175109142Y-116349880D01*
X133675428Y-114635595D02*
X133675428Y-115397500D01*
X54824380Y-106110738D02*
X54824380Y-106682166D01*
X55824380Y-106396452D02*
X54824380Y-106396452D01*
X54824380Y-106920261D02*
X55824380Y-107586928D01*
X54824380Y-107586928D02*
X55824380Y-106920261D01*
X215527000Y-115159404D02*
X215479380Y-115064166D01*
X215479380Y-114921309D01*
X215527000Y-114778452D01*
X215622238Y-114683214D01*
X215717476Y-114635595D01*
X215907952Y-114587976D01*
X216050809Y-114587976D01*
X216241285Y-114635595D01*
X216336523Y-114683214D01*
X216431761Y-114778452D01*
X216479380Y-114921309D01*
X216479380Y-115016547D01*
X216431761Y-115159404D01*
X216384142Y-115207023D01*
X216050809Y-115207023D01*
X216050809Y-115016547D01*
X216479380Y-116159404D02*
X216479380Y-115587976D01*
X216479380Y-115873690D02*
X215479380Y-115873690D01*
X215622238Y-115778452D01*
X215717476Y-115683214D01*
X215765095Y-115587976D01*
X41981428Y-72548857D02*
X41981428Y-73310761D01*
X42362380Y-72929809D02*
X41600476Y-72929809D01*
X41362380Y-73691714D02*
X41362380Y-74310761D01*
X41743333Y-73977428D01*
X41743333Y-74120285D01*
X41790952Y-74215523D01*
X41838571Y-74263142D01*
X41933809Y-74310761D01*
X42171904Y-74310761D01*
X42267142Y-74263142D01*
X42314761Y-74215523D01*
X42362380Y-74120285D01*
X42362380Y-73834571D01*
X42314761Y-73739333D01*
X42267142Y-73691714D01*
X253627000Y-115159404D02*
X253579380Y-115064166D01*
X253579380Y-114921309D01*
X253627000Y-114778452D01*
X253722238Y-114683214D01*
X253817476Y-114635595D01*
X254007952Y-114587976D01*
X254150809Y-114587976D01*
X254341285Y-114635595D01*
X254436523Y-114683214D01*
X254531761Y-114778452D01*
X254579380Y-114921309D01*
X254579380Y-115016547D01*
X254531761Y-115159404D01*
X254484142Y-115207023D01*
X254150809Y-115207023D01*
X254150809Y-115016547D01*
X254579380Y-116159404D02*
X254579380Y-115587976D01*
X254579380Y-115873690D02*
X253579380Y-115873690D01*
X253722238Y-115778452D01*
X253817476Y-115683214D01*
X253865095Y-115587976D01*
X42013142Y-95948571D02*
X42060761Y-95900952D01*
X42108380Y-95758095D01*
X42108380Y-95662857D01*
X42060761Y-95520000D01*
X41965523Y-95424761D01*
X41870285Y-95377142D01*
X41679809Y-95329523D01*
X41536952Y-95329523D01*
X41346476Y-95377142D01*
X41251238Y-95424761D01*
X41156000Y-95520000D01*
X41108380Y-95662857D01*
X41108380Y-95758095D01*
X41156000Y-95900952D01*
X41203619Y-95948571D01*
X42108380Y-96853333D02*
X42108380Y-96377142D01*
X41108380Y-96377142D01*
X42108380Y-97710476D02*
X42108380Y-97139047D01*
X42108380Y-97424761D02*
X41108380Y-97424761D01*
X41251238Y-97329523D01*
X41346476Y-97234285D01*
X41394095Y-97139047D01*
X73366380Y-119874357D02*
X74366380Y-120541023D01*
X73366380Y-120541023D02*
X74366380Y-119874357D01*
X74318761Y-120874357D02*
X74366380Y-121017214D01*
X74366380Y-121255309D01*
X74318761Y-121350547D01*
X74271142Y-121398166D01*
X74175904Y-121445785D01*
X74080666Y-121445785D01*
X73985428Y-121398166D01*
X73937809Y-121350547D01*
X73890190Y-121255309D01*
X73842571Y-121064833D01*
X73794952Y-120969595D01*
X73747333Y-120921976D01*
X73652095Y-120874357D01*
X73556857Y-120874357D01*
X73461619Y-120921976D01*
X73414000Y-120969595D01*
X73366380Y-121064833D01*
X73366380Y-121302928D01*
X73414000Y-121445785D01*
X73366380Y-121779119D02*
X73366380Y-122398166D01*
X73747333Y-122064833D01*
X73747333Y-122207690D01*
X73794952Y-122302928D01*
X73842571Y-122350547D01*
X73937809Y-122398166D01*
X74175904Y-122398166D01*
X74271142Y-122350547D01*
X74318761Y-122302928D01*
X74366380Y-122207690D01*
X74366380Y-121921976D01*
X74318761Y-121826738D01*
X74271142Y-121779119D01*
X54554380Y-112857595D02*
X53554380Y-112857595D01*
X53554380Y-113095690D01*
X53602000Y-113238547D01*
X53697238Y-113333785D01*
X53792476Y-113381404D01*
X53982952Y-113429023D01*
X54125809Y-113429023D01*
X54316285Y-113381404D01*
X54411523Y-113333785D01*
X54506761Y-113238547D01*
X54554380Y-113095690D01*
X54554380Y-112857595D01*
X54268666Y-113809976D02*
X54268666Y-114286166D01*
X54554380Y-113714738D02*
X53554380Y-114048071D01*
X54554380Y-114381404D01*
X54554380Y-115238547D02*
X54554380Y-114667119D01*
X54554380Y-114952833D02*
X53554380Y-114952833D01*
X53697238Y-114857595D01*
X53792476Y-114762357D01*
X53840095Y-114667119D01*
X187904380Y-114635595D02*
X186904380Y-114635595D01*
X186904380Y-114873690D01*
X186952000Y-115016547D01*
X187047238Y-115111785D01*
X187142476Y-115159404D01*
X187332952Y-115207023D01*
X187475809Y-115207023D01*
X187666285Y-115159404D01*
X187761523Y-115111785D01*
X187856761Y-115016547D01*
X187904380Y-114873690D01*
X187904380Y-114635595D01*
X187618666Y-115587976D02*
X187618666Y-116064166D01*
X187904380Y-115492738D02*
X186904380Y-115826071D01*
X187904380Y-116159404D01*
X187904380Y-117016547D02*
X187904380Y-116445119D01*
X187904380Y-116730833D02*
X186904380Y-116730833D01*
X187047238Y-116635595D01*
X187142476Y-116540357D01*
X187190095Y-116445119D01*
X171648428Y-114762595D02*
X171648428Y-115524500D01*
X218654380Y-114540357D02*
X219654380Y-115207023D01*
X218654380Y-115207023D02*
X219654380Y-114540357D01*
X219606761Y-115540357D02*
X219654380Y-115683214D01*
X219654380Y-115921309D01*
X219606761Y-116016547D01*
X219559142Y-116064166D01*
X219463904Y-116111785D01*
X219368666Y-116111785D01*
X219273428Y-116064166D01*
X219225809Y-116016547D01*
X219178190Y-115921309D01*
X219130571Y-115730833D01*
X219082952Y-115635595D01*
X219035333Y-115587976D01*
X218940095Y-115540357D01*
X218844857Y-115540357D01*
X218749619Y-115587976D01*
X218702000Y-115635595D01*
X218654380Y-115730833D01*
X218654380Y-115968928D01*
X218702000Y-116111785D01*
X219654380Y-117064166D02*
X219654380Y-116492738D01*
X219654380Y-116778452D02*
X218654380Y-116778452D01*
X218797238Y-116683214D01*
X218892476Y-116587976D01*
X218940095Y-116492738D01*
X56713428Y-106253595D02*
X56713428Y-107015500D01*
X57094380Y-106634547D02*
X56332476Y-106634547D01*
X56094380Y-107967880D02*
X56094380Y-107491690D01*
X56570571Y-107444071D01*
X56522952Y-107491690D01*
X56475333Y-107586928D01*
X56475333Y-107825023D01*
X56522952Y-107920261D01*
X56570571Y-107967880D01*
X56665809Y-108015500D01*
X56903904Y-108015500D01*
X56999142Y-107967880D01*
X57046761Y-107920261D01*
X57094380Y-107825023D01*
X57094380Y-107586928D01*
X57046761Y-107491690D01*
X56999142Y-107444071D01*
X256754380Y-114540357D02*
X257754380Y-115207023D01*
X256754380Y-115207023D02*
X257754380Y-114540357D01*
X257706761Y-115540357D02*
X257754380Y-115683214D01*
X257754380Y-115921309D01*
X257706761Y-116016547D01*
X257659142Y-116064166D01*
X257563904Y-116111785D01*
X257468666Y-116111785D01*
X257373428Y-116064166D01*
X257325809Y-116016547D01*
X257278190Y-115921309D01*
X257230571Y-115730833D01*
X257182952Y-115635595D01*
X257135333Y-115587976D01*
X257040095Y-115540357D01*
X256944857Y-115540357D01*
X256849619Y-115587976D01*
X256802000Y-115635595D01*
X256754380Y-115730833D01*
X256754380Y-115968928D01*
X256802000Y-116111785D01*
X257754380Y-117064166D02*
X257754380Y-116492738D01*
X257754380Y-116778452D02*
X256754380Y-116778452D01*
X256897238Y-116683214D01*
X256992476Y-116587976D01*
X257040095Y-116492738D01*
X146661142Y-115080023D02*
X146708761Y-115032404D01*
X146756380Y-114889547D01*
X146756380Y-114794309D01*
X146708761Y-114651452D01*
X146613523Y-114556214D01*
X146518285Y-114508595D01*
X146327809Y-114460976D01*
X146184952Y-114460976D01*
X145994476Y-114508595D01*
X145899238Y-114556214D01*
X145804000Y-114651452D01*
X145756380Y-114794309D01*
X145756380Y-114889547D01*
X145804000Y-115032404D01*
X145851619Y-115080023D01*
X146756380Y-115984785D02*
X146756380Y-115508595D01*
X145756380Y-115508595D01*
X146756380Y-116841928D02*
X146756380Y-116270500D01*
X146756380Y-116556214D02*
X145756380Y-116556214D01*
X145899238Y-116460976D01*
X145994476Y-116365738D01*
X146042095Y-116270500D01*
X63206380Y-119874357D02*
X64206380Y-120541023D01*
X63206380Y-120541023D02*
X64206380Y-119874357D01*
X64158761Y-120874357D02*
X64206380Y-121017214D01*
X64206380Y-121255309D01*
X64158761Y-121350547D01*
X64111142Y-121398166D01*
X64015904Y-121445785D01*
X63920666Y-121445785D01*
X63825428Y-121398166D01*
X63777809Y-121350547D01*
X63730190Y-121255309D01*
X63682571Y-121064833D01*
X63634952Y-120969595D01*
X63587333Y-120921976D01*
X63492095Y-120874357D01*
X63396857Y-120874357D01*
X63301619Y-120921976D01*
X63254000Y-120969595D01*
X63206380Y-121064833D01*
X63206380Y-121302928D01*
X63254000Y-121445785D01*
X63206380Y-122064833D02*
X63206380Y-122160071D01*
X63254000Y-122255309D01*
X63301619Y-122302928D01*
X63396857Y-122350547D01*
X63587333Y-122398166D01*
X63825428Y-122398166D01*
X64015904Y-122350547D01*
X64111142Y-122302928D01*
X64158761Y-122255309D01*
X64206380Y-122160071D01*
X64206380Y-122064833D01*
X64158761Y-121969595D01*
X64111142Y-121921976D01*
X64015904Y-121874357D01*
X63825428Y-121826738D01*
X63587333Y-121826738D01*
X63396857Y-121874357D01*
X63301619Y-121921976D01*
X63254000Y-121969595D01*
X63206380Y-122064833D01*
X139454000Y-115032404D02*
X139406380Y-114937166D01*
X139406380Y-114794309D01*
X139454000Y-114651452D01*
X139549238Y-114556214D01*
X139644476Y-114508595D01*
X139834952Y-114460976D01*
X139977809Y-114460976D01*
X140168285Y-114508595D01*
X140263523Y-114556214D01*
X140358761Y-114651452D01*
X140406380Y-114794309D01*
X140406380Y-114889547D01*
X140358761Y-115032404D01*
X140311142Y-115080023D01*
X139977809Y-115080023D01*
X139977809Y-114889547D01*
X140406380Y-116032404D02*
X140406380Y-115460976D01*
X140406380Y-115746690D02*
X139406380Y-115746690D01*
X139549238Y-115651452D01*
X139644476Y-115556214D01*
X139692095Y-115460976D01*
X222734142Y-115207023D02*
X222781761Y-115159404D01*
X222829380Y-115016547D01*
X222829380Y-114921309D01*
X222781761Y-114778452D01*
X222686523Y-114683214D01*
X222591285Y-114635595D01*
X222400809Y-114587976D01*
X222257952Y-114587976D01*
X222067476Y-114635595D01*
X221972238Y-114683214D01*
X221877000Y-114778452D01*
X221829380Y-114921309D01*
X221829380Y-115016547D01*
X221877000Y-115159404D01*
X221924619Y-115207023D01*
X222829380Y-116111785D02*
X222829380Y-115635595D01*
X221829380Y-115635595D01*
X222829380Y-116968928D02*
X222829380Y-116397500D01*
X222829380Y-116683214D02*
X221829380Y-116683214D01*
X221972238Y-116587976D01*
X222067476Y-116492738D01*
X222115095Y-116397500D01*
X54110000Y-73249404D02*
X54062380Y-73154166D01*
X54062380Y-73011309D01*
X54110000Y-72868452D01*
X54205238Y-72773214D01*
X54300476Y-72725595D01*
X54490952Y-72677976D01*
X54633809Y-72677976D01*
X54824285Y-72725595D01*
X54919523Y-72773214D01*
X55014761Y-72868452D01*
X55062380Y-73011309D01*
X55062380Y-73106547D01*
X55014761Y-73249404D01*
X54967142Y-73297023D01*
X54633809Y-73297023D01*
X54633809Y-73106547D01*
X55062380Y-74249404D02*
X55062380Y-73677976D01*
X55062380Y-73963690D02*
X54062380Y-73963690D01*
X54205238Y-73868452D01*
X54300476Y-73773214D01*
X54348095Y-73677976D01*
X49030000Y-73249404D02*
X48982380Y-73154166D01*
X48982380Y-73011309D01*
X49030000Y-72868452D01*
X49125238Y-72773214D01*
X49220476Y-72725595D01*
X49410952Y-72677976D01*
X49553809Y-72677976D01*
X49744285Y-72725595D01*
X49839523Y-72773214D01*
X49934761Y-72868452D01*
X49982380Y-73011309D01*
X49982380Y-73106547D01*
X49934761Y-73249404D01*
X49887142Y-73297023D01*
X49553809Y-73297023D01*
X49553809Y-73106547D01*
X48982380Y-73630357D02*
X48982380Y-74249404D01*
X49363333Y-73916071D01*
X49363333Y-74058928D01*
X49410952Y-74154166D01*
X49458571Y-74201785D01*
X49553809Y-74249404D01*
X49791904Y-74249404D01*
X49887142Y-74201785D01*
X49934761Y-74154166D01*
X49982380Y-74058928D01*
X49982380Y-73773214D01*
X49934761Y-73677976D01*
X49887142Y-73630357D01*
X53284380Y-106825023D02*
X52808190Y-106491690D01*
X53284380Y-106253595D02*
X52284380Y-106253595D01*
X52284380Y-106634547D01*
X52332000Y-106729785D01*
X52379619Y-106777404D01*
X52474857Y-106825023D01*
X52617714Y-106825023D01*
X52712952Y-106777404D01*
X52760571Y-106729785D01*
X52808190Y-106634547D01*
X52808190Y-106253595D01*
X52284380Y-107110738D02*
X52284380Y-107682166D01*
X53284380Y-107396452D02*
X52284380Y-107396452D01*
X53236761Y-107967880D02*
X53284380Y-108110738D01*
X53284380Y-108348833D01*
X53236761Y-108444071D01*
X53189142Y-108491690D01*
X53093904Y-108539309D01*
X52998666Y-108539309D01*
X52903428Y-108491690D01*
X52855809Y-108444071D01*
X52808190Y-108348833D01*
X52760571Y-108158357D01*
X52712952Y-108063119D01*
X52665333Y-108015500D01*
X52570095Y-107967880D01*
X52474857Y-107967880D01*
X52379619Y-108015500D01*
X52332000Y-108063119D01*
X52284380Y-108158357D01*
X52284380Y-108396452D01*
X52332000Y-108539309D01*
X55443428Y-112857595D02*
X55443428Y-113619500D01*
X55824380Y-113238547D02*
X55062476Y-113238547D01*
X54824380Y-114571880D02*
X54824380Y-114095690D01*
X55300571Y-114048071D01*
X55252952Y-114095690D01*
X55205333Y-114190928D01*
X55205333Y-114429023D01*
X55252952Y-114524261D01*
X55300571Y-114571880D01*
X55395809Y-114619500D01*
X55633904Y-114619500D01*
X55729142Y-114571880D01*
X55776761Y-114524261D01*
X55824380Y-114429023D01*
X55824380Y-114190928D01*
X55776761Y-114095690D01*
X55729142Y-114048071D01*
X58269142Y-106825023D02*
X58316761Y-106777404D01*
X58364380Y-106634547D01*
X58364380Y-106539309D01*
X58316761Y-106396452D01*
X58221523Y-106301214D01*
X58126285Y-106253595D01*
X57935809Y-106205976D01*
X57792952Y-106205976D01*
X57602476Y-106253595D01*
X57507238Y-106301214D01*
X57412000Y-106396452D01*
X57364380Y-106539309D01*
X57364380Y-106634547D01*
X57412000Y-106777404D01*
X57459619Y-106825023D01*
X57364380Y-107110738D02*
X57364380Y-107682166D01*
X58364380Y-107396452D02*
X57364380Y-107396452D01*
X58316761Y-107967880D02*
X58364380Y-108110738D01*
X58364380Y-108348833D01*
X58316761Y-108444071D01*
X58269142Y-108491690D01*
X58173904Y-108539309D01*
X58078666Y-108539309D01*
X57983428Y-108491690D01*
X57935809Y-108444071D01*
X57888190Y-108348833D01*
X57840571Y-108158357D01*
X57792952Y-108063119D01*
X57745333Y-108015500D01*
X57650095Y-107967880D01*
X57554857Y-107967880D01*
X57459619Y-108015500D01*
X57412000Y-108063119D01*
X57364380Y-108158357D01*
X57364380Y-108396452D01*
X57412000Y-108539309D01*
X180554380Y-114540357D02*
X181554380Y-115207023D01*
X180554380Y-115207023D02*
X181554380Y-114540357D01*
X181506761Y-115540357D02*
X181554380Y-115683214D01*
X181554380Y-115921309D01*
X181506761Y-116016547D01*
X181459142Y-116064166D01*
X181363904Y-116111785D01*
X181268666Y-116111785D01*
X181173428Y-116064166D01*
X181125809Y-116016547D01*
X181078190Y-115921309D01*
X181030571Y-115730833D01*
X180982952Y-115635595D01*
X180935333Y-115587976D01*
X180840095Y-115540357D01*
X180744857Y-115540357D01*
X180649619Y-115587976D01*
X180602000Y-115635595D01*
X180554380Y-115730833D01*
X180554380Y-115968928D01*
X180602000Y-116111785D01*
X181554380Y-117064166D02*
X181554380Y-116492738D01*
X181554380Y-116778452D02*
X180554380Y-116778452D01*
X180697238Y-116683214D01*
X180792476Y-116587976D01*
X180840095Y-116492738D01*
X70826380Y-119874357D02*
X71826380Y-120541023D01*
X70826380Y-120541023D02*
X71826380Y-119874357D01*
X71778761Y-120874357D02*
X71826380Y-121017214D01*
X71826380Y-121255309D01*
X71778761Y-121350547D01*
X71731142Y-121398166D01*
X71635904Y-121445785D01*
X71540666Y-121445785D01*
X71445428Y-121398166D01*
X71397809Y-121350547D01*
X71350190Y-121255309D01*
X71302571Y-121064833D01*
X71254952Y-120969595D01*
X71207333Y-120921976D01*
X71112095Y-120874357D01*
X71016857Y-120874357D01*
X70921619Y-120921976D01*
X70874000Y-120969595D01*
X70826380Y-121064833D01*
X70826380Y-121302928D01*
X70874000Y-121445785D01*
X70921619Y-121826738D02*
X70874000Y-121874357D01*
X70826380Y-121969595D01*
X70826380Y-122207690D01*
X70874000Y-122302928D01*
X70921619Y-122350547D01*
X71016857Y-122398166D01*
X71112095Y-122398166D01*
X71254952Y-122350547D01*
X71826380Y-121779119D01*
X71826380Y-122398166D01*
X53189142Y-113429023D02*
X53236761Y-113381404D01*
X53284380Y-113238547D01*
X53284380Y-113143309D01*
X53236761Y-113000452D01*
X53141523Y-112905214D01*
X53046285Y-112857595D01*
X52855809Y-112809976D01*
X52712952Y-112809976D01*
X52522476Y-112857595D01*
X52427238Y-112905214D01*
X52332000Y-113000452D01*
X52284380Y-113143309D01*
X52284380Y-113238547D01*
X52332000Y-113381404D01*
X52379619Y-113429023D01*
X53284380Y-114333785D02*
X53284380Y-113857595D01*
X52284380Y-113857595D01*
X53284380Y-115190928D02*
X53284380Y-114619500D01*
X53284380Y-114905214D02*
X52284380Y-114905214D01*
X52427238Y-114809976D01*
X52522476Y-114714738D01*
X52570095Y-114619500D01*
X60841000Y-120493404D02*
X60793380Y-120398166D01*
X60793380Y-120255309D01*
X60841000Y-120112452D01*
X60936238Y-120017214D01*
X61031476Y-119969595D01*
X61221952Y-119921976D01*
X61364809Y-119921976D01*
X61555285Y-119969595D01*
X61650523Y-120017214D01*
X61745761Y-120112452D01*
X61793380Y-120255309D01*
X61793380Y-120350547D01*
X61745761Y-120493404D01*
X61698142Y-120541023D01*
X61364809Y-120541023D01*
X61364809Y-120350547D01*
X61793380Y-120969595D02*
X60793380Y-120969595D01*
X61793380Y-121541023D01*
X60793380Y-121541023D01*
X61793380Y-122017214D02*
X60793380Y-122017214D01*
X60793380Y-122255309D01*
X60841000Y-122398166D01*
X60936238Y-122493404D01*
X61031476Y-122541023D01*
X61221952Y-122588642D01*
X61364809Y-122588642D01*
X61555285Y-122541023D01*
X61650523Y-122493404D01*
X61745761Y-122398166D01*
X61793380Y-122255309D01*
X61793380Y-122017214D01*
X51570000Y-73249404D02*
X51522380Y-73154166D01*
X51522380Y-73011309D01*
X51570000Y-72868452D01*
X51665238Y-72773214D01*
X51760476Y-72725595D01*
X51950952Y-72677976D01*
X52093809Y-72677976D01*
X52284285Y-72725595D01*
X52379523Y-72773214D01*
X52474761Y-72868452D01*
X52522380Y-73011309D01*
X52522380Y-73106547D01*
X52474761Y-73249404D01*
X52427142Y-73297023D01*
X52093809Y-73297023D01*
X52093809Y-73106547D01*
X51617619Y-73677976D02*
X51570000Y-73725595D01*
X51522380Y-73820833D01*
X51522380Y-74058928D01*
X51570000Y-74154166D01*
X51617619Y-74201785D01*
X51712857Y-74249404D01*
X51808095Y-74249404D01*
X51950952Y-74201785D01*
X52522380Y-73630357D01*
X52522380Y-74249404D01*
X56142000Y-113381404D02*
X56094380Y-113286166D01*
X56094380Y-113143309D01*
X56142000Y-113000452D01*
X56237238Y-112905214D01*
X56332476Y-112857595D01*
X56522952Y-112809976D01*
X56665809Y-112809976D01*
X56856285Y-112857595D01*
X56951523Y-112905214D01*
X57046761Y-113000452D01*
X57094380Y-113143309D01*
X57094380Y-113238547D01*
X57046761Y-113381404D01*
X56999142Y-113429023D01*
X56665809Y-113429023D01*
X56665809Y-113238547D01*
X57094380Y-113857595D02*
X56094380Y-113857595D01*
X57094380Y-114429023D01*
X56094380Y-114429023D01*
X57094380Y-114905214D02*
X56094380Y-114905214D01*
X56094380Y-115143309D01*
X56142000Y-115286166D01*
X56237238Y-115381404D01*
X56332476Y-115429023D01*
X56522952Y-115476642D01*
X56665809Y-115476642D01*
X56856285Y-115429023D01*
X56951523Y-115381404D01*
X57046761Y-115286166D01*
X57094380Y-115143309D01*
X57094380Y-114905214D01*
X149931380Y-114508595D02*
X148931380Y-114508595D01*
X148931380Y-114746690D01*
X148979000Y-114889547D01*
X149074238Y-114984785D01*
X149169476Y-115032404D01*
X149359952Y-115080023D01*
X149502809Y-115080023D01*
X149693285Y-115032404D01*
X149788523Y-114984785D01*
X149883761Y-114889547D01*
X149931380Y-114746690D01*
X149931380Y-114508595D01*
X149645666Y-115460976D02*
X149645666Y-115937166D01*
X149931380Y-115365738D02*
X148931380Y-115699071D01*
X149931380Y-116032404D01*
X149931380Y-116889547D02*
X149931380Y-116318119D01*
X149931380Y-116603833D02*
X148931380Y-116603833D01*
X149074238Y-116508595D01*
X149169476Y-116413357D01*
X149217095Y-116318119D01*
X56650000Y-73249404D02*
X56602380Y-73154166D01*
X56602380Y-73011309D01*
X56650000Y-72868452D01*
X56745238Y-72773214D01*
X56840476Y-72725595D01*
X57030952Y-72677976D01*
X57173809Y-72677976D01*
X57364285Y-72725595D01*
X57459523Y-72773214D01*
X57554761Y-72868452D01*
X57602380Y-73011309D01*
X57602380Y-73106547D01*
X57554761Y-73249404D01*
X57507142Y-73297023D01*
X57173809Y-73297023D01*
X57173809Y-73106547D01*
X56602380Y-73916071D02*
X56602380Y-74011309D01*
X56650000Y-74106547D01*
X56697619Y-74154166D01*
X56792857Y-74201785D01*
X56983333Y-74249404D01*
X57221428Y-74249404D01*
X57411904Y-74201785D01*
X57507142Y-74154166D01*
X57554761Y-74106547D01*
X57602380Y-74011309D01*
X57602380Y-73916071D01*
X57554761Y-73820833D01*
X57507142Y-73773214D01*
X57411904Y-73725595D01*
X57221428Y-73677976D01*
X56983333Y-73677976D01*
X56792857Y-73725595D01*
X56697619Y-73773214D01*
X56650000Y-73820833D01*
X56602380Y-73916071D01*
%TO.C,C2*%
X72366142Y-82764333D02*
X72413761Y-82716714D01*
X72461380Y-82573857D01*
X72461380Y-82478619D01*
X72413761Y-82335761D01*
X72318523Y-82240523D01*
X72223285Y-82192904D01*
X72032809Y-82145285D01*
X71889952Y-82145285D01*
X71699476Y-82192904D01*
X71604238Y-82240523D01*
X71509000Y-82335761D01*
X71461380Y-82478619D01*
X71461380Y-82573857D01*
X71509000Y-82716714D01*
X71556619Y-82764333D01*
X71556619Y-83145285D02*
X71509000Y-83192904D01*
X71461380Y-83288142D01*
X71461380Y-83526238D01*
X71509000Y-83621476D01*
X71556619Y-83669095D01*
X71651857Y-83716714D01*
X71747095Y-83716714D01*
X71889952Y-83669095D01*
X72461380Y-83097666D01*
X72461380Y-83716714D01*
%TO.C,C28*%
X71884347Y-102967632D02*
X71931966Y-103015251D01*
X72074823Y-103062870D01*
X72170061Y-103062870D01*
X72312918Y-103015251D01*
X72408156Y-102920013D01*
X72455775Y-102824775D01*
X72503394Y-102634299D01*
X72503394Y-102491442D01*
X72455775Y-102300966D01*
X72408156Y-102205728D01*
X72312918Y-102110490D01*
X72170061Y-102062870D01*
X72074823Y-102062870D01*
X71931966Y-102110490D01*
X71884347Y-102158109D01*
X71503394Y-102158109D02*
X71455775Y-102110490D01*
X71360537Y-102062870D01*
X71122442Y-102062870D01*
X71027204Y-102110490D01*
X70979585Y-102158109D01*
X70931966Y-102253347D01*
X70931966Y-102348585D01*
X70979585Y-102491442D01*
X71551013Y-103062870D01*
X70931966Y-103062870D01*
X70360537Y-102491442D02*
X70455775Y-102443823D01*
X70503394Y-102396204D01*
X70551013Y-102300966D01*
X70551013Y-102253347D01*
X70503394Y-102158109D01*
X70455775Y-102110490D01*
X70360537Y-102062870D01*
X70170061Y-102062870D01*
X70074823Y-102110490D01*
X70027204Y-102158109D01*
X69979585Y-102253347D01*
X69979585Y-102300966D01*
X70027204Y-102396204D01*
X70074823Y-102443823D01*
X70170061Y-102491442D01*
X70360537Y-102491442D01*
X70455775Y-102539061D01*
X70503394Y-102586680D01*
X70551013Y-102681918D01*
X70551013Y-102872394D01*
X70503394Y-102967632D01*
X70455775Y-103015251D01*
X70360537Y-103062870D01*
X70170061Y-103062870D01*
X70074823Y-103015251D01*
X70027204Y-102967632D01*
X69979585Y-102872394D01*
X69979585Y-102681918D01*
X70027204Y-102586680D01*
X70074823Y-102539061D01*
X70170061Y-102491442D01*
%TO.C,C29*%
X61570847Y-90267632D02*
X61618466Y-90315251D01*
X61761323Y-90362870D01*
X61856561Y-90362870D01*
X61999418Y-90315251D01*
X62094656Y-90220013D01*
X62142275Y-90124775D01*
X62189894Y-89934299D01*
X62189894Y-89791442D01*
X62142275Y-89600966D01*
X62094656Y-89505728D01*
X61999418Y-89410490D01*
X61856561Y-89362870D01*
X61761323Y-89362870D01*
X61618466Y-89410490D01*
X61570847Y-89458109D01*
X61189894Y-89458109D02*
X61142275Y-89410490D01*
X61047037Y-89362870D01*
X60808942Y-89362870D01*
X60713704Y-89410490D01*
X60666085Y-89458109D01*
X60618466Y-89553347D01*
X60618466Y-89648585D01*
X60666085Y-89791442D01*
X61237513Y-90362870D01*
X60618466Y-90362870D01*
X60142275Y-90362870D02*
X59951799Y-90362870D01*
X59856561Y-90315251D01*
X59808942Y-90267632D01*
X59713704Y-90124775D01*
X59666085Y-89934299D01*
X59666085Y-89553347D01*
X59713704Y-89458109D01*
X59761323Y-89410490D01*
X59856561Y-89362870D01*
X60047037Y-89362870D01*
X60142275Y-89410490D01*
X60189894Y-89458109D01*
X60237513Y-89553347D01*
X60237513Y-89791442D01*
X60189894Y-89886680D01*
X60142275Y-89934299D01*
X60047037Y-89981918D01*
X59856561Y-89981918D01*
X59761323Y-89934299D01*
X59713704Y-89886680D01*
X59666085Y-89791442D01*
%TO.C,C30*%
X71884347Y-100935632D02*
X71931966Y-100983251D01*
X72074823Y-101030870D01*
X72170061Y-101030870D01*
X72312918Y-100983251D01*
X72408156Y-100888013D01*
X72455775Y-100792775D01*
X72503394Y-100602299D01*
X72503394Y-100459442D01*
X72455775Y-100268966D01*
X72408156Y-100173728D01*
X72312918Y-100078490D01*
X72170061Y-100030870D01*
X72074823Y-100030870D01*
X71931966Y-100078490D01*
X71884347Y-100126109D01*
X71551013Y-100030870D02*
X70931966Y-100030870D01*
X71265299Y-100411823D01*
X71122442Y-100411823D01*
X71027204Y-100459442D01*
X70979585Y-100507061D01*
X70931966Y-100602299D01*
X70931966Y-100840394D01*
X70979585Y-100935632D01*
X71027204Y-100983251D01*
X71122442Y-101030870D01*
X71408156Y-101030870D01*
X71503394Y-100983251D01*
X71551013Y-100935632D01*
X70312918Y-100030870D02*
X70217680Y-100030870D01*
X70122442Y-100078490D01*
X70074823Y-100126109D01*
X70027204Y-100221347D01*
X69979585Y-100411823D01*
X69979585Y-100649918D01*
X70027204Y-100840394D01*
X70074823Y-100935632D01*
X70122442Y-100983251D01*
X70217680Y-101030870D01*
X70312918Y-101030870D01*
X70408156Y-100983251D01*
X70455775Y-100935632D01*
X70503394Y-100840394D01*
X70551013Y-100649918D01*
X70551013Y-100411823D01*
X70503394Y-100221347D01*
X70455775Y-100126109D01*
X70408156Y-100078490D01*
X70312918Y-100030870D01*
%TO.C,C31*%
X59692347Y-101697632D02*
X59739966Y-101745251D01*
X59882823Y-101792870D01*
X59978061Y-101792870D01*
X60120918Y-101745251D01*
X60216156Y-101650013D01*
X60263775Y-101554775D01*
X60311394Y-101364299D01*
X60311394Y-101221442D01*
X60263775Y-101030966D01*
X60216156Y-100935728D01*
X60120918Y-100840490D01*
X59978061Y-100792870D01*
X59882823Y-100792870D01*
X59739966Y-100840490D01*
X59692347Y-100888109D01*
X59359013Y-100792870D02*
X58739966Y-100792870D01*
X59073299Y-101173823D01*
X58930442Y-101173823D01*
X58835204Y-101221442D01*
X58787585Y-101269061D01*
X58739966Y-101364299D01*
X58739966Y-101602394D01*
X58787585Y-101697632D01*
X58835204Y-101745251D01*
X58930442Y-101792870D01*
X59216156Y-101792870D01*
X59311394Y-101745251D01*
X59359013Y-101697632D01*
X57787585Y-101792870D02*
X58359013Y-101792870D01*
X58073299Y-101792870D02*
X58073299Y-100792870D01*
X58168537Y-100935728D01*
X58263775Y-101030966D01*
X58359013Y-101078585D01*
%TO.C,C33*%
X57374632Y-96125632D02*
X57422251Y-96078013D01*
X57469870Y-95935156D01*
X57469870Y-95839918D01*
X57422251Y-95697061D01*
X57327013Y-95601823D01*
X57231775Y-95554204D01*
X57041299Y-95506585D01*
X56898442Y-95506585D01*
X56707966Y-95554204D01*
X56612728Y-95601823D01*
X56517490Y-95697061D01*
X56469870Y-95839918D01*
X56469870Y-95935156D01*
X56517490Y-96078013D01*
X56565109Y-96125632D01*
X56469870Y-96458966D02*
X56469870Y-97078013D01*
X56850823Y-96744680D01*
X56850823Y-96887537D01*
X56898442Y-96982775D01*
X56946061Y-97030394D01*
X57041299Y-97078013D01*
X57279394Y-97078013D01*
X57374632Y-97030394D01*
X57422251Y-96982775D01*
X57469870Y-96887537D01*
X57469870Y-96601823D01*
X57422251Y-96506585D01*
X57374632Y-96458966D01*
X56469870Y-97411347D02*
X56469870Y-98030394D01*
X56850823Y-97697061D01*
X56850823Y-97839918D01*
X56898442Y-97935156D01*
X56946061Y-97982775D01*
X57041299Y-98030394D01*
X57279394Y-98030394D01*
X57374632Y-97982775D01*
X57422251Y-97935156D01*
X57469870Y-97839918D01*
X57469870Y-97554204D01*
X57422251Y-97458966D01*
X57374632Y-97411347D01*
%TO.C,J17*%
X38689870Y-80464966D02*
X39404156Y-80464966D01*
X39547013Y-80417347D01*
X39642251Y-80322109D01*
X39689870Y-80179251D01*
X39689870Y-80084013D01*
X39689870Y-81464966D02*
X39689870Y-80893537D01*
X39689870Y-81179251D02*
X38689870Y-81179251D01*
X38832728Y-81084013D01*
X38927966Y-80988775D01*
X38975585Y-80893537D01*
X38689870Y-81798299D02*
X38689870Y-82464966D01*
X39689870Y-82036394D01*
%TO.C,J18*%
X34879870Y-80464966D02*
X35594156Y-80464966D01*
X35737013Y-80417347D01*
X35832251Y-80322109D01*
X35879870Y-80179251D01*
X35879870Y-80084013D01*
X35879870Y-81464966D02*
X35879870Y-80893537D01*
X35879870Y-81179251D02*
X34879870Y-81179251D01*
X35022728Y-81084013D01*
X35117966Y-80988775D01*
X35165585Y-80893537D01*
X35308442Y-82036394D02*
X35260823Y-81941156D01*
X35213204Y-81893537D01*
X35117966Y-81845918D01*
X35070347Y-81845918D01*
X34975109Y-81893537D01*
X34927490Y-81941156D01*
X34879870Y-82036394D01*
X34879870Y-82226870D01*
X34927490Y-82322109D01*
X34975109Y-82369728D01*
X35070347Y-82417347D01*
X35117966Y-82417347D01*
X35213204Y-82369728D01*
X35260823Y-82322109D01*
X35308442Y-82226870D01*
X35308442Y-82036394D01*
X35356061Y-81941156D01*
X35403680Y-81893537D01*
X35498918Y-81845918D01*
X35689394Y-81845918D01*
X35784632Y-81893537D01*
X35832251Y-81941156D01*
X35879870Y-82036394D01*
X35879870Y-82226870D01*
X35832251Y-82322109D01*
X35784632Y-82369728D01*
X35689394Y-82417347D01*
X35498918Y-82417347D01*
X35403680Y-82369728D01*
X35356061Y-82322109D01*
X35308442Y-82226870D01*
%TO.C,J19*%
X33609870Y-80464966D02*
X34324156Y-80464966D01*
X34467013Y-80417347D01*
X34562251Y-80322109D01*
X34609870Y-80179251D01*
X34609870Y-80084013D01*
X34609870Y-81464966D02*
X34609870Y-80893537D01*
X34609870Y-81179251D02*
X33609870Y-81179251D01*
X33752728Y-81084013D01*
X33847966Y-80988775D01*
X33895585Y-80893537D01*
X34609870Y-81941156D02*
X34609870Y-82131632D01*
X34562251Y-82226870D01*
X34514632Y-82274490D01*
X34371775Y-82369728D01*
X34181299Y-82417347D01*
X33800347Y-82417347D01*
X33705109Y-82369728D01*
X33657490Y-82322109D01*
X33609870Y-82226870D01*
X33609870Y-82036394D01*
X33657490Y-81941156D01*
X33705109Y-81893537D01*
X33800347Y-81845918D01*
X34038442Y-81845918D01*
X34133680Y-81893537D01*
X34181299Y-81941156D01*
X34228918Y-82036394D01*
X34228918Y-82226870D01*
X34181299Y-82322109D01*
X34133680Y-82369728D01*
X34038442Y-82417347D01*
%TO.C,JP3*%
X59517870Y-92125156D02*
X60232156Y-92125156D01*
X60375013Y-92077537D01*
X60470251Y-91982299D01*
X60517870Y-91839442D01*
X60517870Y-91744204D01*
X60517870Y-92601347D02*
X59517870Y-92601347D01*
X59517870Y-92982299D01*
X59565490Y-93077537D01*
X59613109Y-93125156D01*
X59708347Y-93172775D01*
X59851204Y-93172775D01*
X59946442Y-93125156D01*
X59994061Y-93077537D01*
X60041680Y-92982299D01*
X60041680Y-92601347D01*
X59517870Y-93506109D02*
X59517870Y-94125156D01*
X59898823Y-93791823D01*
X59898823Y-93934680D01*
X59946442Y-94029918D01*
X59994061Y-94077537D01*
X60089299Y-94125156D01*
X60327394Y-94125156D01*
X60422632Y-94077537D01*
X60470251Y-94029918D01*
X60517870Y-93934680D01*
X60517870Y-93648966D01*
X60470251Y-93553728D01*
X60422632Y-93506109D01*
X61787870Y-99684204D02*
X61787870Y-99112775D01*
X61787870Y-99398490D02*
X60787870Y-99398490D01*
X60930728Y-99303251D01*
X61025966Y-99208013D01*
X61073585Y-99112775D01*
X60787870Y-93865156D02*
X60787870Y-94484204D01*
X61168823Y-94150870D01*
X61168823Y-94293728D01*
X61216442Y-94388966D01*
X61264061Y-94436585D01*
X61359299Y-94484204D01*
X61597394Y-94484204D01*
X61692632Y-94436585D01*
X61740251Y-94388966D01*
X61787870Y-94293728D01*
X61787870Y-94008013D01*
X61740251Y-93912775D01*
X61692632Y-93865156D01*
%TO.C,R8*%
X77281870Y-82631823D02*
X76805680Y-82298490D01*
X77281870Y-82060394D02*
X76281870Y-82060394D01*
X76281870Y-82441347D01*
X76329490Y-82536585D01*
X76377109Y-82584204D01*
X76472347Y-82631823D01*
X76615204Y-82631823D01*
X76710442Y-82584204D01*
X76758061Y-82536585D01*
X76805680Y-82441347D01*
X76805680Y-82060394D01*
X76710442Y-83203251D02*
X76662823Y-83108013D01*
X76615204Y-83060394D01*
X76519966Y-83012775D01*
X76472347Y-83012775D01*
X76377109Y-83060394D01*
X76329490Y-83108013D01*
X76281870Y-83203251D01*
X76281870Y-83393728D01*
X76329490Y-83488966D01*
X76377109Y-83536585D01*
X76472347Y-83584204D01*
X76519966Y-83584204D01*
X76615204Y-83536585D01*
X76662823Y-83488966D01*
X76710442Y-83393728D01*
X76710442Y-83203251D01*
X76758061Y-83108013D01*
X76805680Y-83060394D01*
X76900918Y-83012775D01*
X77091394Y-83012775D01*
X77186632Y-83060394D01*
X77234251Y-83108013D01*
X77281870Y-83203251D01*
X77281870Y-83393728D01*
X77234251Y-83488966D01*
X77186632Y-83536585D01*
X77091394Y-83584204D01*
X76900918Y-83584204D01*
X76805680Y-83536585D01*
X76758061Y-83488966D01*
X76710442Y-83393728D01*
%TO.C,R9*%
X70429380Y-82764333D02*
X69953190Y-82431000D01*
X70429380Y-82192904D02*
X69429380Y-82192904D01*
X69429380Y-82573857D01*
X69477000Y-82669095D01*
X69524619Y-82716714D01*
X69619857Y-82764333D01*
X69762714Y-82764333D01*
X69857952Y-82716714D01*
X69905571Y-82669095D01*
X69953190Y-82573857D01*
X69953190Y-82192904D01*
X70429380Y-83240523D02*
X70429380Y-83431000D01*
X70381761Y-83526238D01*
X70334142Y-83573857D01*
X70191285Y-83669095D01*
X70000809Y-83716714D01*
X69619857Y-83716714D01*
X69524619Y-83669095D01*
X69477000Y-83621476D01*
X69429380Y-83526238D01*
X69429380Y-83335761D01*
X69477000Y-83240523D01*
X69524619Y-83192904D01*
X69619857Y-83145285D01*
X69857952Y-83145285D01*
X69953190Y-83192904D01*
X70000809Y-83240523D01*
X70048428Y-83335761D01*
X70048428Y-83526238D01*
X70000809Y-83621476D01*
X69953190Y-83669095D01*
X69857952Y-83716714D01*
%TO.C,R20*%
X54421870Y-101205632D02*
X53945680Y-100872299D01*
X54421870Y-100634204D02*
X53421870Y-100634204D01*
X53421870Y-101015156D01*
X53469490Y-101110394D01*
X53517109Y-101158013D01*
X53612347Y-101205632D01*
X53755204Y-101205632D01*
X53850442Y-101158013D01*
X53898061Y-101110394D01*
X53945680Y-101015156D01*
X53945680Y-100634204D01*
X53517109Y-101586585D02*
X53469490Y-101634204D01*
X53421870Y-101729442D01*
X53421870Y-101967537D01*
X53469490Y-102062775D01*
X53517109Y-102110394D01*
X53612347Y-102158013D01*
X53707585Y-102158013D01*
X53850442Y-102110394D01*
X54421870Y-101538966D01*
X54421870Y-102158013D01*
X53421870Y-102777061D02*
X53421870Y-102872299D01*
X53469490Y-102967537D01*
X53517109Y-103015156D01*
X53612347Y-103062775D01*
X53802823Y-103110394D01*
X54040918Y-103110394D01*
X54231394Y-103062775D01*
X54326632Y-103015156D01*
X54374251Y-102967537D01*
X54421870Y-102872299D01*
X54421870Y-102777061D01*
X54374251Y-102681823D01*
X54326632Y-102634204D01*
X54231394Y-102586585D01*
X54040918Y-102538966D01*
X53802823Y-102538966D01*
X53612347Y-102586585D01*
X53517109Y-102634204D01*
X53469490Y-102681823D01*
X53421870Y-102777061D01*
%TO.C,R21*%
X51040347Y-87320380D02*
X51373680Y-86844190D01*
X51611775Y-87320380D02*
X51611775Y-86320380D01*
X51230823Y-86320380D01*
X51135585Y-86368000D01*
X51087966Y-86415619D01*
X51040347Y-86510857D01*
X51040347Y-86653714D01*
X51087966Y-86748952D01*
X51135585Y-86796571D01*
X51230823Y-86844190D01*
X51611775Y-86844190D01*
X50659394Y-86415619D02*
X50611775Y-86368000D01*
X50516537Y-86320380D01*
X50278442Y-86320380D01*
X50183204Y-86368000D01*
X50135585Y-86415619D01*
X50087966Y-86510857D01*
X50087966Y-86606095D01*
X50135585Y-86748952D01*
X50707013Y-87320380D01*
X50087966Y-87320380D01*
X49135585Y-87320380D02*
X49707013Y-87320380D01*
X49421299Y-87320380D02*
X49421299Y-86320380D01*
X49516537Y-86463238D01*
X49611775Y-86558476D01*
X49707013Y-86606095D01*
%TO.C,R22*%
X46500347Y-87320380D02*
X46833680Y-86844190D01*
X47071775Y-87320380D02*
X47071775Y-86320380D01*
X46690823Y-86320380D01*
X46595585Y-86368000D01*
X46547966Y-86415619D01*
X46500347Y-86510857D01*
X46500347Y-86653714D01*
X46547966Y-86748952D01*
X46595585Y-86796571D01*
X46690823Y-86844190D01*
X47071775Y-86844190D01*
X46119394Y-86415619D02*
X46071775Y-86368000D01*
X45976537Y-86320380D01*
X45738442Y-86320380D01*
X45643204Y-86368000D01*
X45595585Y-86415619D01*
X45547966Y-86510857D01*
X45547966Y-86606095D01*
X45595585Y-86748952D01*
X46167013Y-87320380D01*
X45547966Y-87320380D01*
X45167013Y-86415619D02*
X45119394Y-86368000D01*
X45024156Y-86320380D01*
X44786061Y-86320380D01*
X44690823Y-86368000D01*
X44643204Y-86415619D01*
X44595585Y-86510857D01*
X44595585Y-86606095D01*
X44643204Y-86748952D01*
X45214632Y-87320380D01*
X44595585Y-87320380D01*
%TO.C,TP1*%
X37419870Y-80012585D02*
X37419870Y-80584013D01*
X38419870Y-80298299D02*
X37419870Y-80298299D01*
X38419870Y-80917347D02*
X37419870Y-80917347D01*
X37419870Y-81298299D01*
X37467490Y-81393537D01*
X37515109Y-81441156D01*
X37610347Y-81488775D01*
X37753204Y-81488775D01*
X37848442Y-81441156D01*
X37896061Y-81393537D01*
X37943680Y-81298299D01*
X37943680Y-80917347D01*
X38419870Y-82441156D02*
X38419870Y-81869728D01*
X38419870Y-82155442D02*
X37419870Y-82155442D01*
X37562728Y-82060204D01*
X37657966Y-81964966D01*
X37705585Y-81869728D01*
%TO.C,TP2*%
X36149870Y-80012585D02*
X36149870Y-80584013D01*
X37149870Y-80298299D02*
X36149870Y-80298299D01*
X37149870Y-80917347D02*
X36149870Y-80917347D01*
X36149870Y-81298299D01*
X36197490Y-81393537D01*
X36245109Y-81441156D01*
X36340347Y-81488775D01*
X36483204Y-81488775D01*
X36578442Y-81441156D01*
X36626061Y-81393537D01*
X36673680Y-81298299D01*
X36673680Y-80917347D01*
X36245109Y-81869728D02*
X36197490Y-81917347D01*
X36149870Y-82012585D01*
X36149870Y-82250680D01*
X36197490Y-82345918D01*
X36245109Y-82393537D01*
X36340347Y-82441156D01*
X36435585Y-82441156D01*
X36578442Y-82393537D01*
X37149870Y-81822109D01*
X37149870Y-82441156D01*
%TO.C,JP2*%
X65978823Y-94420870D02*
X65978823Y-95135156D01*
X66026442Y-95278013D01*
X66121680Y-95373251D01*
X66264537Y-95420870D01*
X66359775Y-95420870D01*
X65502632Y-95420870D02*
X65502632Y-94420870D01*
X65121680Y-94420870D01*
X65026442Y-94468490D01*
X64978823Y-94516109D01*
X64931204Y-94611347D01*
X64931204Y-94754204D01*
X64978823Y-94849442D01*
X65026442Y-94897061D01*
X65121680Y-94944680D01*
X65502632Y-94944680D01*
X64550251Y-94516109D02*
X64502632Y-94468490D01*
X64407394Y-94420870D01*
X64169299Y-94420870D01*
X64074061Y-94468490D01*
X64026442Y-94516109D01*
X63978823Y-94611347D01*
X63978823Y-94706585D01*
X64026442Y-94849442D01*
X64597870Y-95420870D01*
X63978823Y-95420870D01*
X62878823Y-96220870D02*
X62259775Y-96220870D01*
X62593109Y-96601823D01*
X62450251Y-96601823D01*
X62355013Y-96649442D01*
X62307394Y-96697061D01*
X62259775Y-96792299D01*
X62259775Y-97030394D01*
X62307394Y-97125632D01*
X62355013Y-97173251D01*
X62450251Y-97220870D01*
X62735966Y-97220870D01*
X62831204Y-97173251D01*
X62878823Y-97125632D01*
X67459775Y-97220870D02*
X68031204Y-97220870D01*
X67745490Y-97220870D02*
X67745490Y-96220870D01*
X67840728Y-96363728D01*
X67935966Y-96458966D01*
X68031204Y-96506585D01*
%TO.C,C1*%
X79218632Y-82631823D02*
X79266251Y-82584204D01*
X79313870Y-82441347D01*
X79313870Y-82346109D01*
X79266251Y-82203251D01*
X79171013Y-82108013D01*
X79075775Y-82060394D01*
X78885299Y-82012775D01*
X78742442Y-82012775D01*
X78551966Y-82060394D01*
X78456728Y-82108013D01*
X78361490Y-82203251D01*
X78313870Y-82346109D01*
X78313870Y-82441347D01*
X78361490Y-82584204D01*
X78409109Y-82631823D01*
X79313870Y-83584204D02*
X79313870Y-83012775D01*
X79313870Y-83298490D02*
X78313870Y-83298490D01*
X78456728Y-83203251D01*
X78551966Y-83108013D01*
X78599585Y-83012775D01*
%TO.C,C23*%
X59692347Y-102967632D02*
X59739966Y-103015251D01*
X59882823Y-103062870D01*
X59978061Y-103062870D01*
X60120918Y-103015251D01*
X60216156Y-102920013D01*
X60263775Y-102824775D01*
X60311394Y-102634299D01*
X60311394Y-102491442D01*
X60263775Y-102300966D01*
X60216156Y-102205728D01*
X60120918Y-102110490D01*
X59978061Y-102062870D01*
X59882823Y-102062870D01*
X59739966Y-102110490D01*
X59692347Y-102158109D01*
X59311394Y-102158109D02*
X59263775Y-102110490D01*
X59168537Y-102062870D01*
X58930442Y-102062870D01*
X58835204Y-102110490D01*
X58787585Y-102158109D01*
X58739966Y-102253347D01*
X58739966Y-102348585D01*
X58787585Y-102491442D01*
X59359013Y-103062870D01*
X58739966Y-103062870D01*
X58406632Y-102062870D02*
X57787585Y-102062870D01*
X58120918Y-102443823D01*
X57978061Y-102443823D01*
X57882823Y-102491442D01*
X57835204Y-102539061D01*
X57787585Y-102634299D01*
X57787585Y-102872394D01*
X57835204Y-102967632D01*
X57882823Y-103015251D01*
X57978061Y-103062870D01*
X58263775Y-103062870D01*
X58359013Y-103015251D01*
X58406632Y-102967632D01*
%TO.C,C11*%
X73154347Y-106269632D02*
X73201966Y-106317251D01*
X73344823Y-106364870D01*
X73440061Y-106364870D01*
X73582918Y-106317251D01*
X73678156Y-106222013D01*
X73725775Y-106126775D01*
X73773394Y-105936299D01*
X73773394Y-105793442D01*
X73725775Y-105602966D01*
X73678156Y-105507728D01*
X73582918Y-105412490D01*
X73440061Y-105364870D01*
X73344823Y-105364870D01*
X73201966Y-105412490D01*
X73154347Y-105460109D01*
X72201966Y-106364870D02*
X72773394Y-106364870D01*
X72487680Y-106364870D02*
X72487680Y-105364870D01*
X72582918Y-105507728D01*
X72678156Y-105602966D01*
X72773394Y-105650585D01*
X71249585Y-106364870D02*
X71821013Y-106364870D01*
X71535299Y-106364870D02*
X71535299Y-105364870D01*
X71630537Y-105507728D01*
X71725775Y-105602966D01*
X71821013Y-105650585D01*
%TO.C,C14*%
X179173142Y-98671142D02*
X179220761Y-98623523D01*
X179268380Y-98480666D01*
X179268380Y-98385428D01*
X179220761Y-98242571D01*
X179125523Y-98147333D01*
X179030285Y-98099714D01*
X178839809Y-98052095D01*
X178696952Y-98052095D01*
X178506476Y-98099714D01*
X178411238Y-98147333D01*
X178316000Y-98242571D01*
X178268380Y-98385428D01*
X178268380Y-98480666D01*
X178316000Y-98623523D01*
X178363619Y-98671142D01*
X179268380Y-99623523D02*
X179268380Y-99052095D01*
X179268380Y-99337809D02*
X178268380Y-99337809D01*
X178411238Y-99242571D01*
X178506476Y-99147333D01*
X178554095Y-99052095D01*
X178601714Y-100480666D02*
X179268380Y-100480666D01*
X178220761Y-100242571D02*
X178935047Y-100004476D01*
X178935047Y-100623523D01*
%TO.C,C15*%
X217273142Y-98671142D02*
X217320761Y-98623523D01*
X217368380Y-98480666D01*
X217368380Y-98385428D01*
X217320761Y-98242571D01*
X217225523Y-98147333D01*
X217130285Y-98099714D01*
X216939809Y-98052095D01*
X216796952Y-98052095D01*
X216606476Y-98099714D01*
X216511238Y-98147333D01*
X216416000Y-98242571D01*
X216368380Y-98385428D01*
X216368380Y-98480666D01*
X216416000Y-98623523D01*
X216463619Y-98671142D01*
X217368380Y-99623523D02*
X217368380Y-99052095D01*
X217368380Y-99337809D02*
X216368380Y-99337809D01*
X216511238Y-99242571D01*
X216606476Y-99147333D01*
X216654095Y-99052095D01*
X216368380Y-100528285D02*
X216368380Y-100052095D01*
X216844571Y-100004476D01*
X216796952Y-100052095D01*
X216749333Y-100147333D01*
X216749333Y-100385428D01*
X216796952Y-100480666D01*
X216844571Y-100528285D01*
X216939809Y-100575904D01*
X217177904Y-100575904D01*
X217273142Y-100528285D01*
X217320761Y-100480666D01*
X217368380Y-100385428D01*
X217368380Y-100147333D01*
X217320761Y-100052095D01*
X217273142Y-100004476D01*
%TO.C,C16*%
X114149142Y-97655142D02*
X114196761Y-97607523D01*
X114244380Y-97464666D01*
X114244380Y-97369428D01*
X114196761Y-97226571D01*
X114101523Y-97131333D01*
X114006285Y-97083714D01*
X113815809Y-97036095D01*
X113672952Y-97036095D01*
X113482476Y-97083714D01*
X113387238Y-97131333D01*
X113292000Y-97226571D01*
X113244380Y-97369428D01*
X113244380Y-97464666D01*
X113292000Y-97607523D01*
X113339619Y-97655142D01*
X114244380Y-98607523D02*
X114244380Y-98036095D01*
X114244380Y-98321809D02*
X113244380Y-98321809D01*
X113387238Y-98226571D01*
X113482476Y-98131333D01*
X113530095Y-98036095D01*
X113244380Y-99464666D02*
X113244380Y-99274190D01*
X113292000Y-99178952D01*
X113339619Y-99131333D01*
X113482476Y-99036095D01*
X113672952Y-98988476D01*
X114053904Y-98988476D01*
X114149142Y-99036095D01*
X114196761Y-99083714D01*
X114244380Y-99178952D01*
X114244380Y-99369428D01*
X114196761Y-99464666D01*
X114149142Y-99512285D01*
X114053904Y-99559904D01*
X113815809Y-99559904D01*
X113720571Y-99512285D01*
X113672952Y-99464666D01*
X113625333Y-99369428D01*
X113625333Y-99178952D01*
X113672952Y-99083714D01*
X113720571Y-99036095D01*
X113815809Y-98988476D01*
%TO.C,C20*%
X180951142Y-98671142D02*
X180998761Y-98623523D01*
X181046380Y-98480666D01*
X181046380Y-98385428D01*
X180998761Y-98242571D01*
X180903523Y-98147333D01*
X180808285Y-98099714D01*
X180617809Y-98052095D01*
X180474952Y-98052095D01*
X180284476Y-98099714D01*
X180189238Y-98147333D01*
X180094000Y-98242571D01*
X180046380Y-98385428D01*
X180046380Y-98480666D01*
X180094000Y-98623523D01*
X180141619Y-98671142D01*
X180141619Y-99052095D02*
X180094000Y-99099714D01*
X180046380Y-99194952D01*
X180046380Y-99433047D01*
X180094000Y-99528285D01*
X180141619Y-99575904D01*
X180236857Y-99623523D01*
X180332095Y-99623523D01*
X180474952Y-99575904D01*
X181046380Y-99004476D01*
X181046380Y-99623523D01*
X180046380Y-100242571D02*
X180046380Y-100337809D01*
X180094000Y-100433047D01*
X180141619Y-100480666D01*
X180236857Y-100528285D01*
X180427333Y-100575904D01*
X180665428Y-100575904D01*
X180855904Y-100528285D01*
X180951142Y-100480666D01*
X180998761Y-100433047D01*
X181046380Y-100337809D01*
X181046380Y-100242571D01*
X180998761Y-100147333D01*
X180951142Y-100099714D01*
X180855904Y-100052095D01*
X180665428Y-100004476D01*
X180427333Y-100004476D01*
X180236857Y-100052095D01*
X180141619Y-100099714D01*
X180094000Y-100147333D01*
X180046380Y-100242571D01*
%TO.C,C21*%
X218924142Y-98671142D02*
X218971761Y-98623523D01*
X219019380Y-98480666D01*
X219019380Y-98385428D01*
X218971761Y-98242571D01*
X218876523Y-98147333D01*
X218781285Y-98099714D01*
X218590809Y-98052095D01*
X218447952Y-98052095D01*
X218257476Y-98099714D01*
X218162238Y-98147333D01*
X218067000Y-98242571D01*
X218019380Y-98385428D01*
X218019380Y-98480666D01*
X218067000Y-98623523D01*
X218114619Y-98671142D01*
X218114619Y-99052095D02*
X218067000Y-99099714D01*
X218019380Y-99194952D01*
X218019380Y-99433047D01*
X218067000Y-99528285D01*
X218114619Y-99575904D01*
X218209857Y-99623523D01*
X218305095Y-99623523D01*
X218447952Y-99575904D01*
X219019380Y-99004476D01*
X219019380Y-99623523D01*
X219019380Y-100575904D02*
X219019380Y-100004476D01*
X219019380Y-100290190D02*
X218019380Y-100290190D01*
X218162238Y-100194952D01*
X218257476Y-100099714D01*
X218305095Y-100004476D01*
%TO.C,C35*%
X115419142Y-97655142D02*
X115466761Y-97607523D01*
X115514380Y-97464666D01*
X115514380Y-97369428D01*
X115466761Y-97226571D01*
X115371523Y-97131333D01*
X115276285Y-97083714D01*
X115085809Y-97036095D01*
X114942952Y-97036095D01*
X114752476Y-97083714D01*
X114657238Y-97131333D01*
X114562000Y-97226571D01*
X114514380Y-97369428D01*
X114514380Y-97464666D01*
X114562000Y-97607523D01*
X114609619Y-97655142D01*
X114514380Y-97988476D02*
X114514380Y-98607523D01*
X114895333Y-98274190D01*
X114895333Y-98417047D01*
X114942952Y-98512285D01*
X114990571Y-98559904D01*
X115085809Y-98607523D01*
X115323904Y-98607523D01*
X115419142Y-98559904D01*
X115466761Y-98512285D01*
X115514380Y-98417047D01*
X115514380Y-98131333D01*
X115466761Y-98036095D01*
X115419142Y-97988476D01*
X114514380Y-99512285D02*
X114514380Y-99036095D01*
X114990571Y-98988476D01*
X114942952Y-99036095D01*
X114895333Y-99131333D01*
X114895333Y-99369428D01*
X114942952Y-99464666D01*
X114990571Y-99512285D01*
X115085809Y-99559904D01*
X115323904Y-99559904D01*
X115419142Y-99512285D01*
X115466761Y-99464666D01*
X115514380Y-99369428D01*
X115514380Y-99131333D01*
X115466761Y-99036095D01*
X115419142Y-98988476D01*
%TO.C,C36*%
X170283142Y-93253142D02*
X170330761Y-93205523D01*
X170378380Y-93062666D01*
X170378380Y-92967428D01*
X170330761Y-92824571D01*
X170235523Y-92729333D01*
X170140285Y-92681714D01*
X169949809Y-92634095D01*
X169806952Y-92634095D01*
X169616476Y-92681714D01*
X169521238Y-92729333D01*
X169426000Y-92824571D01*
X169378380Y-92967428D01*
X169378380Y-93062666D01*
X169426000Y-93205523D01*
X169473619Y-93253142D01*
X169378380Y-93586476D02*
X169378380Y-94205523D01*
X169759333Y-93872190D01*
X169759333Y-94015047D01*
X169806952Y-94110285D01*
X169854571Y-94157904D01*
X169949809Y-94205523D01*
X170187904Y-94205523D01*
X170283142Y-94157904D01*
X170330761Y-94110285D01*
X170378380Y-94015047D01*
X170378380Y-93729333D01*
X170330761Y-93634095D01*
X170283142Y-93586476D01*
X169378380Y-95062666D02*
X169378380Y-94872190D01*
X169426000Y-94776952D01*
X169473619Y-94729333D01*
X169616476Y-94634095D01*
X169806952Y-94586476D01*
X170187904Y-94586476D01*
X170283142Y-94634095D01*
X170330761Y-94681714D01*
X170378380Y-94776952D01*
X170378380Y-94967428D01*
X170330761Y-95062666D01*
X170283142Y-95110285D01*
X170187904Y-95157904D01*
X169949809Y-95157904D01*
X169854571Y-95110285D01*
X169806952Y-95062666D01*
X169759333Y-94967428D01*
X169759333Y-94776952D01*
X169806952Y-94681714D01*
X169854571Y-94634095D01*
X169949809Y-94586476D01*
%TO.C,C37*%
X208256142Y-93298642D02*
X208303761Y-93251023D01*
X208351380Y-93108166D01*
X208351380Y-93012928D01*
X208303761Y-92870071D01*
X208208523Y-92774833D01*
X208113285Y-92727214D01*
X207922809Y-92679595D01*
X207779952Y-92679595D01*
X207589476Y-92727214D01*
X207494238Y-92774833D01*
X207399000Y-92870071D01*
X207351380Y-93012928D01*
X207351380Y-93108166D01*
X207399000Y-93251023D01*
X207446619Y-93298642D01*
X207351380Y-93631976D02*
X207351380Y-94251023D01*
X207732333Y-93917690D01*
X207732333Y-94060547D01*
X207779952Y-94155785D01*
X207827571Y-94203404D01*
X207922809Y-94251023D01*
X208160904Y-94251023D01*
X208256142Y-94203404D01*
X208303761Y-94155785D01*
X208351380Y-94060547D01*
X208351380Y-93774833D01*
X208303761Y-93679595D01*
X208256142Y-93631976D01*
X207351380Y-94584357D02*
X207351380Y-95251023D01*
X208351380Y-94822452D01*
%TO.C,C38*%
X112879142Y-97655142D02*
X112926761Y-97607523D01*
X112974380Y-97464666D01*
X112974380Y-97369428D01*
X112926761Y-97226571D01*
X112831523Y-97131333D01*
X112736285Y-97083714D01*
X112545809Y-97036095D01*
X112402952Y-97036095D01*
X112212476Y-97083714D01*
X112117238Y-97131333D01*
X112022000Y-97226571D01*
X111974380Y-97369428D01*
X111974380Y-97464666D01*
X112022000Y-97607523D01*
X112069619Y-97655142D01*
X111974380Y-97988476D02*
X111974380Y-98607523D01*
X112355333Y-98274190D01*
X112355333Y-98417047D01*
X112402952Y-98512285D01*
X112450571Y-98559904D01*
X112545809Y-98607523D01*
X112783904Y-98607523D01*
X112879142Y-98559904D01*
X112926761Y-98512285D01*
X112974380Y-98417047D01*
X112974380Y-98131333D01*
X112926761Y-98036095D01*
X112879142Y-97988476D01*
X112402952Y-99178952D02*
X112355333Y-99083714D01*
X112307714Y-99036095D01*
X112212476Y-98988476D01*
X112164857Y-98988476D01*
X112069619Y-99036095D01*
X112022000Y-99083714D01*
X111974380Y-99178952D01*
X111974380Y-99369428D01*
X112022000Y-99464666D01*
X112069619Y-99512285D01*
X112164857Y-99559904D01*
X112212476Y-99559904D01*
X112307714Y-99512285D01*
X112355333Y-99464666D01*
X112402952Y-99369428D01*
X112402952Y-99178952D01*
X112450571Y-99083714D01*
X112498190Y-99036095D01*
X112593428Y-98988476D01*
X112783904Y-98988476D01*
X112879142Y-99036095D01*
X112926761Y-99083714D01*
X112974380Y-99178952D01*
X112974380Y-99369428D01*
X112926761Y-99464666D01*
X112879142Y-99512285D01*
X112783904Y-99559904D01*
X112593428Y-99559904D01*
X112498190Y-99512285D01*
X112450571Y-99464666D01*
X112402952Y-99369428D01*
%TO.C,C39*%
X111609142Y-97655142D02*
X111656761Y-97607523D01*
X111704380Y-97464666D01*
X111704380Y-97369428D01*
X111656761Y-97226571D01*
X111561523Y-97131333D01*
X111466285Y-97083714D01*
X111275809Y-97036095D01*
X111132952Y-97036095D01*
X110942476Y-97083714D01*
X110847238Y-97131333D01*
X110752000Y-97226571D01*
X110704380Y-97369428D01*
X110704380Y-97464666D01*
X110752000Y-97607523D01*
X110799619Y-97655142D01*
X110704380Y-97988476D02*
X110704380Y-98607523D01*
X111085333Y-98274190D01*
X111085333Y-98417047D01*
X111132952Y-98512285D01*
X111180571Y-98559904D01*
X111275809Y-98607523D01*
X111513904Y-98607523D01*
X111609142Y-98559904D01*
X111656761Y-98512285D01*
X111704380Y-98417047D01*
X111704380Y-98131333D01*
X111656761Y-98036095D01*
X111609142Y-97988476D01*
X111704380Y-99083714D02*
X111704380Y-99274190D01*
X111656761Y-99369428D01*
X111609142Y-99417047D01*
X111466285Y-99512285D01*
X111275809Y-99559904D01*
X110894857Y-99559904D01*
X110799619Y-99512285D01*
X110752000Y-99464666D01*
X110704380Y-99369428D01*
X110704380Y-99178952D01*
X110752000Y-99083714D01*
X110799619Y-99036095D01*
X110894857Y-98988476D01*
X111132952Y-98988476D01*
X111228190Y-99036095D01*
X111275809Y-99083714D01*
X111323428Y-99178952D01*
X111323428Y-99369428D01*
X111275809Y-99464666D01*
X111228190Y-99512285D01*
X111132952Y-99559904D01*
%TO.C,C40*%
X132945142Y-97401142D02*
X132992761Y-97353523D01*
X133040380Y-97210666D01*
X133040380Y-97115428D01*
X132992761Y-96972571D01*
X132897523Y-96877333D01*
X132802285Y-96829714D01*
X132611809Y-96782095D01*
X132468952Y-96782095D01*
X132278476Y-96829714D01*
X132183238Y-96877333D01*
X132088000Y-96972571D01*
X132040380Y-97115428D01*
X132040380Y-97210666D01*
X132088000Y-97353523D01*
X132135619Y-97401142D01*
X132373714Y-98258285D02*
X133040380Y-98258285D01*
X131992761Y-98020190D02*
X132707047Y-97782095D01*
X132707047Y-98401142D01*
X132040380Y-98972571D02*
X132040380Y-99067809D01*
X132088000Y-99163047D01*
X132135619Y-99210666D01*
X132230857Y-99258285D01*
X132421333Y-99305904D01*
X132659428Y-99305904D01*
X132849904Y-99258285D01*
X132945142Y-99210666D01*
X132992761Y-99163047D01*
X133040380Y-99067809D01*
X133040380Y-98972571D01*
X132992761Y-98877333D01*
X132945142Y-98829714D01*
X132849904Y-98782095D01*
X132659428Y-98734476D01*
X132421333Y-98734476D01*
X132230857Y-98782095D01*
X132135619Y-98829714D01*
X132088000Y-98877333D01*
X132040380Y-98972571D01*
%TO.C,C41*%
X167743142Y-92702142D02*
X167790761Y-92654523D01*
X167838380Y-92511666D01*
X167838380Y-92416428D01*
X167790761Y-92273571D01*
X167695523Y-92178333D01*
X167600285Y-92130714D01*
X167409809Y-92083095D01*
X167266952Y-92083095D01*
X167076476Y-92130714D01*
X166981238Y-92178333D01*
X166886000Y-92273571D01*
X166838380Y-92416428D01*
X166838380Y-92511666D01*
X166886000Y-92654523D01*
X166933619Y-92702142D01*
X167171714Y-93559285D02*
X167838380Y-93559285D01*
X166790761Y-93321190D02*
X167505047Y-93083095D01*
X167505047Y-93702142D01*
X167838380Y-94606904D02*
X167838380Y-94035476D01*
X167838380Y-94321190D02*
X166838380Y-94321190D01*
X166981238Y-94225952D01*
X167076476Y-94130714D01*
X167124095Y-94035476D01*
%TO.C,C42*%
X205843142Y-92790642D02*
X205890761Y-92743023D01*
X205938380Y-92600166D01*
X205938380Y-92504928D01*
X205890761Y-92362071D01*
X205795523Y-92266833D01*
X205700285Y-92219214D01*
X205509809Y-92171595D01*
X205366952Y-92171595D01*
X205176476Y-92219214D01*
X205081238Y-92266833D01*
X204986000Y-92362071D01*
X204938380Y-92504928D01*
X204938380Y-92600166D01*
X204986000Y-92743023D01*
X205033619Y-92790642D01*
X205271714Y-93647785D02*
X205938380Y-93647785D01*
X204890761Y-93409690D02*
X205605047Y-93171595D01*
X205605047Y-93790642D01*
X205033619Y-94123976D02*
X204986000Y-94171595D01*
X204938380Y-94266833D01*
X204938380Y-94504928D01*
X204986000Y-94600166D01*
X205033619Y-94647785D01*
X205128857Y-94695404D01*
X205224095Y-94695404D01*
X205366952Y-94647785D01*
X205938380Y-94076357D01*
X205938380Y-94695404D01*
%TO.C,R13*%
X181173380Y-90146142D02*
X180697190Y-89812809D01*
X181173380Y-89574714D02*
X180173380Y-89574714D01*
X180173380Y-89955666D01*
X180221000Y-90050904D01*
X180268619Y-90098523D01*
X180363857Y-90146142D01*
X180506714Y-90146142D01*
X180601952Y-90098523D01*
X180649571Y-90050904D01*
X180697190Y-89955666D01*
X180697190Y-89574714D01*
X181173380Y-91098523D02*
X181173380Y-90527095D01*
X181173380Y-90812809D02*
X180173380Y-90812809D01*
X180316238Y-90717571D01*
X180411476Y-90622333D01*
X180459095Y-90527095D01*
X180173380Y-91431857D02*
X180173380Y-92050904D01*
X180554333Y-91717571D01*
X180554333Y-91860428D01*
X180601952Y-91955666D01*
X180649571Y-92003285D01*
X180744809Y-92050904D01*
X180982904Y-92050904D01*
X181078142Y-92003285D01*
X181125761Y-91955666D01*
X181173380Y-91860428D01*
X181173380Y-91574714D01*
X181125761Y-91479476D01*
X181078142Y-91431857D01*
%TO.C,R16*%
X178887380Y-90146142D02*
X178411190Y-89812809D01*
X178887380Y-89574714D02*
X177887380Y-89574714D01*
X177887380Y-89955666D01*
X177935000Y-90050904D01*
X177982619Y-90098523D01*
X178077857Y-90146142D01*
X178220714Y-90146142D01*
X178315952Y-90098523D01*
X178363571Y-90050904D01*
X178411190Y-89955666D01*
X178411190Y-89574714D01*
X178887380Y-91098523D02*
X178887380Y-90527095D01*
X178887380Y-90812809D02*
X177887380Y-90812809D01*
X178030238Y-90717571D01*
X178125476Y-90622333D01*
X178173095Y-90527095D01*
X177887380Y-91955666D02*
X177887380Y-91765190D01*
X177935000Y-91669952D01*
X177982619Y-91622333D01*
X178125476Y-91527095D01*
X178315952Y-91479476D01*
X178696904Y-91479476D01*
X178792142Y-91527095D01*
X178839761Y-91574714D01*
X178887380Y-91669952D01*
X178887380Y-91860428D01*
X178839761Y-91955666D01*
X178792142Y-92003285D01*
X178696904Y-92050904D01*
X178458809Y-92050904D01*
X178363571Y-92003285D01*
X178315952Y-91955666D01*
X178268333Y-91860428D01*
X178268333Y-91669952D01*
X178315952Y-91574714D01*
X178363571Y-91527095D01*
X178458809Y-91479476D01*
%TO.C,R17*%
X219019380Y-90178142D02*
X218543190Y-89844809D01*
X219019380Y-89606714D02*
X218019380Y-89606714D01*
X218019380Y-89987666D01*
X218067000Y-90082904D01*
X218114619Y-90130523D01*
X218209857Y-90178142D01*
X218352714Y-90178142D01*
X218447952Y-90130523D01*
X218495571Y-90082904D01*
X218543190Y-89987666D01*
X218543190Y-89606714D01*
X219019380Y-91130523D02*
X219019380Y-90559095D01*
X219019380Y-90844809D02*
X218019380Y-90844809D01*
X218162238Y-90749571D01*
X218257476Y-90654333D01*
X218305095Y-90559095D01*
X218019380Y-91463857D02*
X218019380Y-92130523D01*
X219019380Y-91701952D01*
%TO.C,R30*%
X216987380Y-90178142D02*
X216511190Y-89844809D01*
X216987380Y-89606714D02*
X215987380Y-89606714D01*
X215987380Y-89987666D01*
X216035000Y-90082904D01*
X216082619Y-90130523D01*
X216177857Y-90178142D01*
X216320714Y-90178142D01*
X216415952Y-90130523D01*
X216463571Y-90082904D01*
X216511190Y-89987666D01*
X216511190Y-89606714D01*
X215987380Y-90511476D02*
X215987380Y-91130523D01*
X216368333Y-90797190D01*
X216368333Y-90940047D01*
X216415952Y-91035285D01*
X216463571Y-91082904D01*
X216558809Y-91130523D01*
X216796904Y-91130523D01*
X216892142Y-91082904D01*
X216939761Y-91035285D01*
X216987380Y-90940047D01*
X216987380Y-90654333D01*
X216939761Y-90559095D01*
X216892142Y-90511476D01*
X215987380Y-91749571D02*
X215987380Y-91844809D01*
X216035000Y-91940047D01*
X216082619Y-91987666D01*
X216177857Y-92035285D01*
X216368333Y-92082904D01*
X216606428Y-92082904D01*
X216796904Y-92035285D01*
X216892142Y-91987666D01*
X216939761Y-91940047D01*
X216987380Y-91844809D01*
X216987380Y-91749571D01*
X216939761Y-91654333D01*
X216892142Y-91606714D01*
X216796904Y-91559095D01*
X216606428Y-91511476D01*
X216368333Y-91511476D01*
X216177857Y-91559095D01*
X216082619Y-91606714D01*
X216035000Y-91654333D01*
X215987380Y-91749571D01*
%TO.C,R31*%
X118054380Y-97655142D02*
X117578190Y-97321809D01*
X118054380Y-97083714D02*
X117054380Y-97083714D01*
X117054380Y-97464666D01*
X117102000Y-97559904D01*
X117149619Y-97607523D01*
X117244857Y-97655142D01*
X117387714Y-97655142D01*
X117482952Y-97607523D01*
X117530571Y-97559904D01*
X117578190Y-97464666D01*
X117578190Y-97083714D01*
X117054380Y-97988476D02*
X117054380Y-98607523D01*
X117435333Y-98274190D01*
X117435333Y-98417047D01*
X117482952Y-98512285D01*
X117530571Y-98559904D01*
X117625809Y-98607523D01*
X117863904Y-98607523D01*
X117959142Y-98559904D01*
X118006761Y-98512285D01*
X118054380Y-98417047D01*
X118054380Y-98131333D01*
X118006761Y-98036095D01*
X117959142Y-97988476D01*
X118054380Y-99559904D02*
X118054380Y-98988476D01*
X118054380Y-99274190D02*
X117054380Y-99274190D01*
X117197238Y-99178952D01*
X117292476Y-99083714D01*
X117340095Y-98988476D01*
%TO.C,R32*%
X116784380Y-97655142D02*
X116308190Y-97321809D01*
X116784380Y-97083714D02*
X115784380Y-97083714D01*
X115784380Y-97464666D01*
X115832000Y-97559904D01*
X115879619Y-97607523D01*
X115974857Y-97655142D01*
X116117714Y-97655142D01*
X116212952Y-97607523D01*
X116260571Y-97559904D01*
X116308190Y-97464666D01*
X116308190Y-97083714D01*
X115784380Y-97988476D02*
X115784380Y-98607523D01*
X116165333Y-98274190D01*
X116165333Y-98417047D01*
X116212952Y-98512285D01*
X116260571Y-98559904D01*
X116355809Y-98607523D01*
X116593904Y-98607523D01*
X116689142Y-98559904D01*
X116736761Y-98512285D01*
X116784380Y-98417047D01*
X116784380Y-98131333D01*
X116736761Y-98036095D01*
X116689142Y-97988476D01*
X115879619Y-98988476D02*
X115832000Y-99036095D01*
X115784380Y-99131333D01*
X115784380Y-99369428D01*
X115832000Y-99464666D01*
X115879619Y-99512285D01*
X115974857Y-99559904D01*
X116070095Y-99559904D01*
X116212952Y-99512285D01*
X116784380Y-98940857D01*
X116784380Y-99559904D01*
%TO.C,C8*%
X143359142Y-99147333D02*
X143406761Y-99099714D01*
X143454380Y-98956857D01*
X143454380Y-98861619D01*
X143406761Y-98718761D01*
X143311523Y-98623523D01*
X143216285Y-98575904D01*
X143025809Y-98528285D01*
X142882952Y-98528285D01*
X142692476Y-98575904D01*
X142597238Y-98623523D01*
X142502000Y-98718761D01*
X142454380Y-98861619D01*
X142454380Y-98956857D01*
X142502000Y-99099714D01*
X142549619Y-99147333D01*
X142882952Y-99718761D02*
X142835333Y-99623523D01*
X142787714Y-99575904D01*
X142692476Y-99528285D01*
X142644857Y-99528285D01*
X142549619Y-99575904D01*
X142502000Y-99623523D01*
X142454380Y-99718761D01*
X142454380Y-99909238D01*
X142502000Y-100004476D01*
X142549619Y-100052095D01*
X142644857Y-100099714D01*
X142692476Y-100099714D01*
X142787714Y-100052095D01*
X142835333Y-100004476D01*
X142882952Y-99909238D01*
X142882952Y-99718761D01*
X142930571Y-99623523D01*
X142978190Y-99575904D01*
X143073428Y-99528285D01*
X143263904Y-99528285D01*
X143359142Y-99575904D01*
X143406761Y-99623523D01*
X143454380Y-99718761D01*
X143454380Y-99909238D01*
X143406761Y-100004476D01*
X143359142Y-100052095D01*
X143263904Y-100099714D01*
X143073428Y-100099714D01*
X142978190Y-100052095D01*
X142930571Y-100004476D01*
X142882952Y-99909238D01*
%TO.C,C9*%
X141708142Y-99147333D02*
X141755761Y-99099714D01*
X141803380Y-98956857D01*
X141803380Y-98861619D01*
X141755761Y-98718761D01*
X141660523Y-98623523D01*
X141565285Y-98575904D01*
X141374809Y-98528285D01*
X141231952Y-98528285D01*
X141041476Y-98575904D01*
X140946238Y-98623523D01*
X140851000Y-98718761D01*
X140803380Y-98861619D01*
X140803380Y-98956857D01*
X140851000Y-99099714D01*
X140898619Y-99147333D01*
X141803380Y-99623523D02*
X141803380Y-99814000D01*
X141755761Y-99909238D01*
X141708142Y-99956857D01*
X141565285Y-100052095D01*
X141374809Y-100099714D01*
X140993857Y-100099714D01*
X140898619Y-100052095D01*
X140851000Y-100004476D01*
X140803380Y-99909238D01*
X140803380Y-99718761D01*
X140851000Y-99623523D01*
X140898619Y-99575904D01*
X140993857Y-99528285D01*
X141231952Y-99528285D01*
X141327190Y-99575904D01*
X141374809Y-99623523D01*
X141422428Y-99718761D01*
X141422428Y-99909238D01*
X141374809Y-100004476D01*
X141327190Y-100052095D01*
X141231952Y-100099714D01*
%TO.C,C10*%
X135485142Y-97401142D02*
X135532761Y-97353523D01*
X135580380Y-97210666D01*
X135580380Y-97115428D01*
X135532761Y-96972571D01*
X135437523Y-96877333D01*
X135342285Y-96829714D01*
X135151809Y-96782095D01*
X135008952Y-96782095D01*
X134818476Y-96829714D01*
X134723238Y-96877333D01*
X134628000Y-96972571D01*
X134580380Y-97115428D01*
X134580380Y-97210666D01*
X134628000Y-97353523D01*
X134675619Y-97401142D01*
X135580380Y-98353523D02*
X135580380Y-97782095D01*
X135580380Y-98067809D02*
X134580380Y-98067809D01*
X134723238Y-97972571D01*
X134818476Y-97877333D01*
X134866095Y-97782095D01*
X134580380Y-98972571D02*
X134580380Y-99067809D01*
X134628000Y-99163047D01*
X134675619Y-99210666D01*
X134770857Y-99258285D01*
X134961333Y-99305904D01*
X135199428Y-99305904D01*
X135389904Y-99258285D01*
X135485142Y-99210666D01*
X135532761Y-99163047D01*
X135580380Y-99067809D01*
X135580380Y-98972571D01*
X135532761Y-98877333D01*
X135485142Y-98829714D01*
X135389904Y-98782095D01*
X135199428Y-98734476D01*
X134961333Y-98734476D01*
X134770857Y-98782095D01*
X134675619Y-98829714D01*
X134628000Y-98877333D01*
X134580380Y-98972571D01*
%TO.C,C12*%
X119893142Y-92088642D02*
X119940761Y-92041023D01*
X119988380Y-91898166D01*
X119988380Y-91802928D01*
X119940761Y-91660071D01*
X119845523Y-91564833D01*
X119750285Y-91517214D01*
X119559809Y-91469595D01*
X119416952Y-91469595D01*
X119226476Y-91517214D01*
X119131238Y-91564833D01*
X119036000Y-91660071D01*
X118988380Y-91802928D01*
X118988380Y-91898166D01*
X119036000Y-92041023D01*
X119083619Y-92088642D01*
X119988380Y-93041023D02*
X119988380Y-92469595D01*
X119988380Y-92755309D02*
X118988380Y-92755309D01*
X119131238Y-92660071D01*
X119226476Y-92564833D01*
X119274095Y-92469595D01*
X119083619Y-93421976D02*
X119036000Y-93469595D01*
X118988380Y-93564833D01*
X118988380Y-93802928D01*
X119036000Y-93898166D01*
X119083619Y-93945785D01*
X119178857Y-93993404D01*
X119274095Y-93993404D01*
X119416952Y-93945785D01*
X119988380Y-93374357D01*
X119988380Y-93993404D01*
%TO.C,R12*%
X142438380Y-90162142D02*
X141962190Y-89828809D01*
X142438380Y-89590714D02*
X141438380Y-89590714D01*
X141438380Y-89971666D01*
X141486000Y-90066904D01*
X141533619Y-90114523D01*
X141628857Y-90162142D01*
X141771714Y-90162142D01*
X141866952Y-90114523D01*
X141914571Y-90066904D01*
X141962190Y-89971666D01*
X141962190Y-89590714D01*
X142438380Y-91114523D02*
X142438380Y-90543095D01*
X142438380Y-90828809D02*
X141438380Y-90828809D01*
X141581238Y-90733571D01*
X141676476Y-90638333D01*
X141724095Y-90543095D01*
X141533619Y-91495476D02*
X141486000Y-91543095D01*
X141438380Y-91638333D01*
X141438380Y-91876428D01*
X141486000Y-91971666D01*
X141533619Y-92019285D01*
X141628857Y-92066904D01*
X141724095Y-92066904D01*
X141866952Y-92019285D01*
X142438380Y-91447857D01*
X142438380Y-92066904D01*
%TO.C,R29*%
X140152380Y-90162142D02*
X139676190Y-89828809D01*
X140152380Y-89590714D02*
X139152380Y-89590714D01*
X139152380Y-89971666D01*
X139200000Y-90066904D01*
X139247619Y-90114523D01*
X139342857Y-90162142D01*
X139485714Y-90162142D01*
X139580952Y-90114523D01*
X139628571Y-90066904D01*
X139676190Y-89971666D01*
X139676190Y-89590714D01*
X139247619Y-90543095D02*
X139200000Y-90590714D01*
X139152380Y-90685952D01*
X139152380Y-90924047D01*
X139200000Y-91019285D01*
X139247619Y-91066904D01*
X139342857Y-91114523D01*
X139438095Y-91114523D01*
X139580952Y-91066904D01*
X140152380Y-90495476D01*
X140152380Y-91114523D01*
X140152380Y-91590714D02*
X140152380Y-91781190D01*
X140104761Y-91876428D01*
X140057142Y-91924047D01*
X139914285Y-92019285D01*
X139723809Y-92066904D01*
X139342857Y-92066904D01*
X139247619Y-92019285D01*
X139200000Y-91971666D01*
X139152380Y-91876428D01*
X139152380Y-91685952D01*
X139200000Y-91590714D01*
X139247619Y-91543095D01*
X139342857Y-91495476D01*
X139580952Y-91495476D01*
X139676190Y-91543095D01*
X139723809Y-91590714D01*
X139771428Y-91685952D01*
X139771428Y-91876428D01*
X139723809Y-91971666D01*
X139676190Y-92019285D01*
X139580952Y-92066904D01*
%TO.C,J14*%
X190512619Y-108019904D02*
X190512619Y-108591333D01*
X190550714Y-108705619D01*
X190626904Y-108781809D01*
X190741190Y-108819904D01*
X190817380Y-108819904D01*
X189712619Y-108819904D02*
X190169761Y-108819904D01*
X189941190Y-108819904D02*
X189941190Y-108019904D01*
X190017380Y-108134190D01*
X190093571Y-108210380D01*
X190169761Y-108248476D01*
X189026904Y-108286571D02*
X189026904Y-108819904D01*
X189217380Y-107981809D02*
X189407857Y-108553238D01*
X188912619Y-108553238D01*
%TO.C,J15*%
X228739619Y-108146904D02*
X228739619Y-108718333D01*
X228777714Y-108832619D01*
X228853904Y-108908809D01*
X228968190Y-108946904D01*
X229044380Y-108946904D01*
X227939619Y-108946904D02*
X228396761Y-108946904D01*
X228168190Y-108946904D02*
X228168190Y-108146904D01*
X228244380Y-108261190D01*
X228320571Y-108337380D01*
X228396761Y-108375476D01*
X227215809Y-108146904D02*
X227596761Y-108146904D01*
X227634857Y-108527857D01*
X227596761Y-108489761D01*
X227520571Y-108451666D01*
X227330095Y-108451666D01*
X227253904Y-108489761D01*
X227215809Y-108527857D01*
X227177714Y-108604047D01*
X227177714Y-108794523D01*
X227215809Y-108870714D01*
X227253904Y-108908809D01*
X227330095Y-108946904D01*
X227520571Y-108946904D01*
X227596761Y-108908809D01*
X227634857Y-108870714D01*
%TO.C,J16*%
X114947619Y-84143904D02*
X114947619Y-84715333D01*
X114985714Y-84829619D01*
X115061904Y-84905809D01*
X115176190Y-84943904D01*
X115252380Y-84943904D01*
X114147619Y-84943904D02*
X114604761Y-84943904D01*
X114376190Y-84943904D02*
X114376190Y-84143904D01*
X114452380Y-84258190D01*
X114528571Y-84334380D01*
X114604761Y-84372476D01*
X113461904Y-84143904D02*
X113614285Y-84143904D01*
X113690476Y-84182000D01*
X113728571Y-84220095D01*
X113804761Y-84334380D01*
X113842857Y-84486761D01*
X113842857Y-84791523D01*
X113804761Y-84867714D01*
X113766666Y-84905809D01*
X113690476Y-84943904D01*
X113538095Y-84943904D01*
X113461904Y-84905809D01*
X113423809Y-84867714D01*
X113385714Y-84791523D01*
X113385714Y-84601047D01*
X113423809Y-84524857D01*
X113461904Y-84486761D01*
X113538095Y-84448666D01*
X113690476Y-84448666D01*
X113766666Y-84486761D01*
X113804761Y-84524857D01*
X113842857Y-84601047D01*
%TO.C,J20*%
X114947619Y-93795904D02*
X114947619Y-94367333D01*
X114985714Y-94481619D01*
X115061904Y-94557809D01*
X115176190Y-94595904D01*
X115252380Y-94595904D01*
X114604761Y-93872095D02*
X114566666Y-93834000D01*
X114490476Y-93795904D01*
X114300000Y-93795904D01*
X114223809Y-93834000D01*
X114185714Y-93872095D01*
X114147619Y-93948285D01*
X114147619Y-94024476D01*
X114185714Y-94138761D01*
X114642857Y-94595904D01*
X114147619Y-94595904D01*
X113652380Y-93795904D02*
X113576190Y-93795904D01*
X113500000Y-93834000D01*
X113461904Y-93872095D01*
X113423809Y-93948285D01*
X113385714Y-94100666D01*
X113385714Y-94291142D01*
X113423809Y-94443523D01*
X113461904Y-94519714D01*
X113500000Y-94557809D01*
X113576190Y-94595904D01*
X113652380Y-94595904D01*
X113728571Y-94557809D01*
X113766666Y-94519714D01*
X113804761Y-94443523D01*
X113842857Y-94291142D01*
X113842857Y-94100666D01*
X113804761Y-93948285D01*
X113766666Y-93872095D01*
X113728571Y-93834000D01*
X113652380Y-93795904D01*
%TO.C,J21*%
X114947619Y-109543904D02*
X114947619Y-110115333D01*
X114985714Y-110229619D01*
X115061904Y-110305809D01*
X115176190Y-110343904D01*
X115252380Y-110343904D01*
X114604761Y-109620095D02*
X114566666Y-109582000D01*
X114490476Y-109543904D01*
X114300000Y-109543904D01*
X114223809Y-109582000D01*
X114185714Y-109620095D01*
X114147619Y-109696285D01*
X114147619Y-109772476D01*
X114185714Y-109886761D01*
X114642857Y-110343904D01*
X114147619Y-110343904D01*
X113385714Y-110343904D02*
X113842857Y-110343904D01*
X113614285Y-110343904D02*
X113614285Y-109543904D01*
X113690476Y-109658190D01*
X113766666Y-109734380D01*
X113842857Y-109772476D01*
%TO.C,J13*%
X152412619Y-108019904D02*
X152412619Y-108591333D01*
X152450714Y-108705619D01*
X152526904Y-108781809D01*
X152641190Y-108819904D01*
X152717380Y-108819904D01*
X151612619Y-108819904D02*
X152069761Y-108819904D01*
X151841190Y-108819904D02*
X151841190Y-108019904D01*
X151917380Y-108134190D01*
X151993571Y-108210380D01*
X152069761Y-108248476D01*
X151345952Y-108019904D02*
X150850714Y-108019904D01*
X151117380Y-108324666D01*
X151003095Y-108324666D01*
X150926904Y-108362761D01*
X150888809Y-108400857D01*
X150850714Y-108477047D01*
X150850714Y-108667523D01*
X150888809Y-108743714D01*
X150926904Y-108781809D01*
X151003095Y-108819904D01*
X151231666Y-108819904D01*
X151307857Y-108781809D01*
X151345952Y-108743714D01*
%TO.C,TP3*%
X147565904Y-109561380D02*
X146994476Y-109561380D01*
X147280190Y-110561380D02*
X147280190Y-109561380D01*
X146661142Y-110561380D02*
X146661142Y-109561380D01*
X146280190Y-109561380D01*
X146184952Y-109609000D01*
X146137333Y-109656619D01*
X146089714Y-109751857D01*
X146089714Y-109894714D01*
X146137333Y-109989952D01*
X146184952Y-110037571D01*
X146280190Y-110085190D01*
X146661142Y-110085190D01*
X145756380Y-109561380D02*
X145137333Y-109561380D01*
X145470666Y-109942333D01*
X145327809Y-109942333D01*
X145232571Y-109989952D01*
X145184952Y-110037571D01*
X145137333Y-110132809D01*
X145137333Y-110370904D01*
X145184952Y-110466142D01*
X145232571Y-110513761D01*
X145327809Y-110561380D01*
X145613523Y-110561380D01*
X145708761Y-110513761D01*
X145756380Y-110466142D01*
%TO.C,TP4*%
X150740904Y-109561380D02*
X150169476Y-109561380D01*
X150455190Y-110561380D02*
X150455190Y-109561380D01*
X149836142Y-110561380D02*
X149836142Y-109561380D01*
X149455190Y-109561380D01*
X149359952Y-109609000D01*
X149312333Y-109656619D01*
X149264714Y-109751857D01*
X149264714Y-109894714D01*
X149312333Y-109989952D01*
X149359952Y-110037571D01*
X149455190Y-110085190D01*
X149836142Y-110085190D01*
X148407571Y-109894714D02*
X148407571Y-110561380D01*
X148645666Y-109513761D02*
X148883761Y-110228047D01*
X148264714Y-110228047D01*
%TO.C,TP5*%
X144390904Y-109561380D02*
X143819476Y-109561380D01*
X144105190Y-110561380D02*
X144105190Y-109561380D01*
X143486142Y-110561380D02*
X143486142Y-109561380D01*
X143105190Y-109561380D01*
X143009952Y-109609000D01*
X142962333Y-109656619D01*
X142914714Y-109751857D01*
X142914714Y-109894714D01*
X142962333Y-109989952D01*
X143009952Y-110037571D01*
X143105190Y-110085190D01*
X143486142Y-110085190D01*
X142009952Y-109561380D02*
X142486142Y-109561380D01*
X142533761Y-110037571D01*
X142486142Y-109989952D01*
X142390904Y-109942333D01*
X142152809Y-109942333D01*
X142057571Y-109989952D01*
X142009952Y-110037571D01*
X141962333Y-110132809D01*
X141962333Y-110370904D01*
X142009952Y-110466142D01*
X142057571Y-110513761D01*
X142152809Y-110561380D01*
X142390904Y-110561380D01*
X142486142Y-110513761D01*
X142533761Y-110466142D01*
%TO.C,TP6*%
X141215904Y-109561380D02*
X140644476Y-109561380D01*
X140930190Y-110561380D02*
X140930190Y-109561380D01*
X140311142Y-110561380D02*
X140311142Y-109561380D01*
X139930190Y-109561380D01*
X139834952Y-109609000D01*
X139787333Y-109656619D01*
X139739714Y-109751857D01*
X139739714Y-109894714D01*
X139787333Y-109989952D01*
X139834952Y-110037571D01*
X139930190Y-110085190D01*
X140311142Y-110085190D01*
X138882571Y-109561380D02*
X139073047Y-109561380D01*
X139168285Y-109609000D01*
X139215904Y-109656619D01*
X139311142Y-109799476D01*
X139358761Y-109989952D01*
X139358761Y-110370904D01*
X139311142Y-110466142D01*
X139263523Y-110513761D01*
X139168285Y-110561380D01*
X138977809Y-110561380D01*
X138882571Y-110513761D01*
X138834952Y-110466142D01*
X138787333Y-110370904D01*
X138787333Y-110132809D01*
X138834952Y-110037571D01*
X138882571Y-109989952D01*
X138977809Y-109942333D01*
X139168285Y-109942333D01*
X139263523Y-109989952D01*
X139311142Y-110037571D01*
X139358761Y-110132809D01*
%TO.C,TP7*%
X134865904Y-109561380D02*
X134294476Y-109561380D01*
X134580190Y-110561380D02*
X134580190Y-109561380D01*
X133961142Y-110561380D02*
X133961142Y-109561380D01*
X133580190Y-109561380D01*
X133484952Y-109609000D01*
X133437333Y-109656619D01*
X133389714Y-109751857D01*
X133389714Y-109894714D01*
X133437333Y-109989952D01*
X133484952Y-110037571D01*
X133580190Y-110085190D01*
X133961142Y-110085190D01*
X133056380Y-109561380D02*
X132389714Y-109561380D01*
X132818285Y-110561380D01*
%TO.C,TP8*%
X137913904Y-109561380D02*
X137342476Y-109561380D01*
X137628190Y-110561380D02*
X137628190Y-109561380D01*
X137009142Y-110561380D02*
X137009142Y-109561380D01*
X136628190Y-109561380D01*
X136532952Y-109609000D01*
X136485333Y-109656619D01*
X136437714Y-109751857D01*
X136437714Y-109894714D01*
X136485333Y-109989952D01*
X136532952Y-110037571D01*
X136628190Y-110085190D01*
X137009142Y-110085190D01*
X135866285Y-109989952D02*
X135961523Y-109942333D01*
X136009142Y-109894714D01*
X136056761Y-109799476D01*
X136056761Y-109751857D01*
X136009142Y-109656619D01*
X135961523Y-109609000D01*
X135866285Y-109561380D01*
X135675809Y-109561380D01*
X135580571Y-109609000D01*
X135532952Y-109656619D01*
X135485333Y-109751857D01*
X135485333Y-109799476D01*
X135532952Y-109894714D01*
X135580571Y-109942333D01*
X135675809Y-109989952D01*
X135866285Y-109989952D01*
X135961523Y-110037571D01*
X136009142Y-110085190D01*
X136056761Y-110180428D01*
X136056761Y-110370904D01*
X136009142Y-110466142D01*
X135961523Y-110513761D01*
X135866285Y-110561380D01*
X135675809Y-110561380D01*
X135580571Y-110513761D01*
X135532952Y-110466142D01*
X135485333Y-110370904D01*
X135485333Y-110180428D01*
X135532952Y-110085190D01*
X135580571Y-110037571D01*
X135675809Y-109989952D01*
%TO.C,TP9*%
X186046904Y-109561380D02*
X185475476Y-109561380D01*
X185761190Y-110561380D02*
X185761190Y-109561380D01*
X185142142Y-110561380D02*
X185142142Y-109561380D01*
X184761190Y-109561380D01*
X184665952Y-109609000D01*
X184618333Y-109656619D01*
X184570714Y-109751857D01*
X184570714Y-109894714D01*
X184618333Y-109989952D01*
X184665952Y-110037571D01*
X184761190Y-110085190D01*
X185142142Y-110085190D01*
X184094523Y-110561380D02*
X183904047Y-110561380D01*
X183808809Y-110513761D01*
X183761190Y-110466142D01*
X183665952Y-110323285D01*
X183618333Y-110132809D01*
X183618333Y-109751857D01*
X183665952Y-109656619D01*
X183713571Y-109609000D01*
X183808809Y-109561380D01*
X183999285Y-109561380D01*
X184094523Y-109609000D01*
X184142142Y-109656619D01*
X184189761Y-109751857D01*
X184189761Y-109989952D01*
X184142142Y-110085190D01*
X184094523Y-110132809D01*
X183999285Y-110180428D01*
X183808809Y-110180428D01*
X183713571Y-110132809D01*
X183665952Y-110085190D01*
X183618333Y-109989952D01*
%TO.C,TP10*%
X190587095Y-109561380D02*
X190015666Y-109561380D01*
X190301380Y-110561380D02*
X190301380Y-109561380D01*
X189682333Y-110561380D02*
X189682333Y-109561380D01*
X189301380Y-109561380D01*
X189206142Y-109609000D01*
X189158523Y-109656619D01*
X189110904Y-109751857D01*
X189110904Y-109894714D01*
X189158523Y-109989952D01*
X189206142Y-110037571D01*
X189301380Y-110085190D01*
X189682333Y-110085190D01*
X188158523Y-110561380D02*
X188729952Y-110561380D01*
X188444238Y-110561380D02*
X188444238Y-109561380D01*
X188539476Y-109704238D01*
X188634714Y-109799476D01*
X188729952Y-109847095D01*
X187539476Y-109561380D02*
X187444238Y-109561380D01*
X187349000Y-109609000D01*
X187301380Y-109656619D01*
X187253761Y-109751857D01*
X187206142Y-109942333D01*
X187206142Y-110180428D01*
X187253761Y-110370904D01*
X187301380Y-110466142D01*
X187349000Y-110513761D01*
X187444238Y-110561380D01*
X187539476Y-110561380D01*
X187634714Y-110513761D01*
X187682333Y-110466142D01*
X187729952Y-110370904D01*
X187777571Y-110180428D01*
X187777571Y-109942333D01*
X187729952Y-109751857D01*
X187682333Y-109656619D01*
X187634714Y-109609000D01*
X187539476Y-109561380D01*
%TO.C,TP11*%
X183094095Y-109561380D02*
X182522666Y-109561380D01*
X182808380Y-110561380D02*
X182808380Y-109561380D01*
X182189333Y-110561380D02*
X182189333Y-109561380D01*
X181808380Y-109561380D01*
X181713142Y-109609000D01*
X181665523Y-109656619D01*
X181617904Y-109751857D01*
X181617904Y-109894714D01*
X181665523Y-109989952D01*
X181713142Y-110037571D01*
X181808380Y-110085190D01*
X182189333Y-110085190D01*
X180665523Y-110561380D02*
X181236952Y-110561380D01*
X180951238Y-110561380D02*
X180951238Y-109561380D01*
X181046476Y-109704238D01*
X181141714Y-109799476D01*
X181236952Y-109847095D01*
X179713142Y-110561380D02*
X180284571Y-110561380D01*
X179998857Y-110561380D02*
X179998857Y-109561380D01*
X180094095Y-109704238D01*
X180189333Y-109799476D01*
X180284571Y-109847095D01*
%TO.C,TP12*%
X179411095Y-109561380D02*
X178839666Y-109561380D01*
X179125380Y-110561380D02*
X179125380Y-109561380D01*
X178506333Y-110561380D02*
X178506333Y-109561380D01*
X178125380Y-109561380D01*
X178030142Y-109609000D01*
X177982523Y-109656619D01*
X177934904Y-109751857D01*
X177934904Y-109894714D01*
X177982523Y-109989952D01*
X178030142Y-110037571D01*
X178125380Y-110085190D01*
X178506333Y-110085190D01*
X176982523Y-110561380D02*
X177553952Y-110561380D01*
X177268238Y-110561380D02*
X177268238Y-109561380D01*
X177363476Y-109704238D01*
X177458714Y-109799476D01*
X177553952Y-109847095D01*
X176601571Y-109656619D02*
X176553952Y-109609000D01*
X176458714Y-109561380D01*
X176220619Y-109561380D01*
X176125380Y-109609000D01*
X176077761Y-109656619D01*
X176030142Y-109751857D01*
X176030142Y-109847095D01*
X176077761Y-109989952D01*
X176649190Y-110561380D01*
X176030142Y-110561380D01*
%TO.C,TP13*%
X171664095Y-109561380D02*
X171092666Y-109561380D01*
X171378380Y-110561380D02*
X171378380Y-109561380D01*
X170759333Y-110561380D02*
X170759333Y-109561380D01*
X170378380Y-109561380D01*
X170283142Y-109609000D01*
X170235523Y-109656619D01*
X170187904Y-109751857D01*
X170187904Y-109894714D01*
X170235523Y-109989952D01*
X170283142Y-110037571D01*
X170378380Y-110085190D01*
X170759333Y-110085190D01*
X169235523Y-110561380D02*
X169806952Y-110561380D01*
X169521238Y-110561380D02*
X169521238Y-109561380D01*
X169616476Y-109704238D01*
X169711714Y-109799476D01*
X169806952Y-109847095D01*
X168902190Y-109561380D02*
X168283142Y-109561380D01*
X168616476Y-109942333D01*
X168473619Y-109942333D01*
X168378380Y-109989952D01*
X168330761Y-110037571D01*
X168283142Y-110132809D01*
X168283142Y-110370904D01*
X168330761Y-110466142D01*
X168378380Y-110513761D01*
X168473619Y-110561380D01*
X168759333Y-110561380D01*
X168854571Y-110513761D01*
X168902190Y-110466142D01*
%TO.C,TP15*%
X225258095Y-109561380D02*
X224686666Y-109561380D01*
X224972380Y-110561380D02*
X224972380Y-109561380D01*
X224353333Y-110561380D02*
X224353333Y-109561380D01*
X223972380Y-109561380D01*
X223877142Y-109609000D01*
X223829523Y-109656619D01*
X223781904Y-109751857D01*
X223781904Y-109894714D01*
X223829523Y-109989952D01*
X223877142Y-110037571D01*
X223972380Y-110085190D01*
X224353333Y-110085190D01*
X222829523Y-110561380D02*
X223400952Y-110561380D01*
X223115238Y-110561380D02*
X223115238Y-109561380D01*
X223210476Y-109704238D01*
X223305714Y-109799476D01*
X223400952Y-109847095D01*
X221924761Y-109561380D02*
X222400952Y-109561380D01*
X222448571Y-110037571D01*
X222400952Y-109989952D01*
X222305714Y-109942333D01*
X222067619Y-109942333D01*
X221972380Y-109989952D01*
X221924761Y-110037571D01*
X221877142Y-110132809D01*
X221877142Y-110370904D01*
X221924761Y-110466142D01*
X221972380Y-110513761D01*
X222067619Y-110561380D01*
X222305714Y-110561380D01*
X222400952Y-110513761D01*
X222448571Y-110466142D01*
%TO.C,TP16*%
X228941095Y-109561380D02*
X228369666Y-109561380D01*
X228655380Y-110561380D02*
X228655380Y-109561380D01*
X228036333Y-110561380D02*
X228036333Y-109561380D01*
X227655380Y-109561380D01*
X227560142Y-109609000D01*
X227512523Y-109656619D01*
X227464904Y-109751857D01*
X227464904Y-109894714D01*
X227512523Y-109989952D01*
X227560142Y-110037571D01*
X227655380Y-110085190D01*
X228036333Y-110085190D01*
X226512523Y-110561380D02*
X227083952Y-110561380D01*
X226798238Y-110561380D02*
X226798238Y-109561380D01*
X226893476Y-109704238D01*
X226988714Y-109799476D01*
X227083952Y-109847095D01*
X225655380Y-109561380D02*
X225845857Y-109561380D01*
X225941095Y-109609000D01*
X225988714Y-109656619D01*
X226083952Y-109799476D01*
X226131571Y-109989952D01*
X226131571Y-110370904D01*
X226083952Y-110466142D01*
X226036333Y-110513761D01*
X225941095Y-110561380D01*
X225750619Y-110561380D01*
X225655380Y-110513761D01*
X225607761Y-110466142D01*
X225560142Y-110370904D01*
X225560142Y-110132809D01*
X225607761Y-110037571D01*
X225655380Y-109989952D01*
X225750619Y-109942333D01*
X225941095Y-109942333D01*
X226036333Y-109989952D01*
X226083952Y-110037571D01*
X226131571Y-110132809D01*
%TO.C,TP17*%
X221575095Y-109561380D02*
X221003666Y-109561380D01*
X221289380Y-110561380D02*
X221289380Y-109561380D01*
X220670333Y-110561380D02*
X220670333Y-109561380D01*
X220289380Y-109561380D01*
X220194142Y-109609000D01*
X220146523Y-109656619D01*
X220098904Y-109751857D01*
X220098904Y-109894714D01*
X220146523Y-109989952D01*
X220194142Y-110037571D01*
X220289380Y-110085190D01*
X220670333Y-110085190D01*
X219146523Y-110561380D02*
X219717952Y-110561380D01*
X219432238Y-110561380D02*
X219432238Y-109561380D01*
X219527476Y-109704238D01*
X219622714Y-109799476D01*
X219717952Y-109847095D01*
X218813190Y-109561380D02*
X218146523Y-109561380D01*
X218575095Y-110561380D01*
%TO.C,TP18*%
X217638095Y-109561380D02*
X217066666Y-109561380D01*
X217352380Y-110561380D02*
X217352380Y-109561380D01*
X216733333Y-110561380D02*
X216733333Y-109561380D01*
X216352380Y-109561380D01*
X216257142Y-109609000D01*
X216209523Y-109656619D01*
X216161904Y-109751857D01*
X216161904Y-109894714D01*
X216209523Y-109989952D01*
X216257142Y-110037571D01*
X216352380Y-110085190D01*
X216733333Y-110085190D01*
X215209523Y-110561380D02*
X215780952Y-110561380D01*
X215495238Y-110561380D02*
X215495238Y-109561380D01*
X215590476Y-109704238D01*
X215685714Y-109799476D01*
X215780952Y-109847095D01*
X214638095Y-109989952D02*
X214733333Y-109942333D01*
X214780952Y-109894714D01*
X214828571Y-109799476D01*
X214828571Y-109751857D01*
X214780952Y-109656619D01*
X214733333Y-109609000D01*
X214638095Y-109561380D01*
X214447619Y-109561380D01*
X214352380Y-109609000D01*
X214304761Y-109656619D01*
X214257142Y-109751857D01*
X214257142Y-109799476D01*
X214304761Y-109894714D01*
X214352380Y-109942333D01*
X214447619Y-109989952D01*
X214638095Y-109989952D01*
X214733333Y-110037571D01*
X214780952Y-110085190D01*
X214828571Y-110180428D01*
X214828571Y-110370904D01*
X214780952Y-110466142D01*
X214733333Y-110513761D01*
X214638095Y-110561380D01*
X214447619Y-110561380D01*
X214352380Y-110513761D01*
X214304761Y-110466142D01*
X214257142Y-110370904D01*
X214257142Y-110180428D01*
X214304761Y-110085190D01*
X214352380Y-110037571D01*
X214447619Y-109989952D01*
%TO.C,TP19*%
X210018095Y-109561380D02*
X209446666Y-109561380D01*
X209732380Y-110561380D02*
X209732380Y-109561380D01*
X209113333Y-110561380D02*
X209113333Y-109561380D01*
X208732380Y-109561380D01*
X208637142Y-109609000D01*
X208589523Y-109656619D01*
X208541904Y-109751857D01*
X208541904Y-109894714D01*
X208589523Y-109989952D01*
X208637142Y-110037571D01*
X208732380Y-110085190D01*
X209113333Y-110085190D01*
X207589523Y-110561380D02*
X208160952Y-110561380D01*
X207875238Y-110561380D02*
X207875238Y-109561380D01*
X207970476Y-109704238D01*
X208065714Y-109799476D01*
X208160952Y-109847095D01*
X207113333Y-110561380D02*
X206922857Y-110561380D01*
X206827619Y-110513761D01*
X206780000Y-110466142D01*
X206684761Y-110323285D01*
X206637142Y-110132809D01*
X206637142Y-109751857D01*
X206684761Y-109656619D01*
X206732380Y-109609000D01*
X206827619Y-109561380D01*
X207018095Y-109561380D01*
X207113333Y-109609000D01*
X207160952Y-109656619D01*
X207208571Y-109751857D01*
X207208571Y-109989952D01*
X207160952Y-110085190D01*
X207113333Y-110132809D01*
X207018095Y-110180428D01*
X206827619Y-110180428D01*
X206732380Y-110132809D01*
X206684761Y-110085190D01*
X206637142Y-109989952D01*
%TO.C,TP20*%
X213828095Y-109561380D02*
X213256666Y-109561380D01*
X213542380Y-110561380D02*
X213542380Y-109561380D01*
X212923333Y-110561380D02*
X212923333Y-109561380D01*
X212542380Y-109561380D01*
X212447142Y-109609000D01*
X212399523Y-109656619D01*
X212351904Y-109751857D01*
X212351904Y-109894714D01*
X212399523Y-109989952D01*
X212447142Y-110037571D01*
X212542380Y-110085190D01*
X212923333Y-110085190D01*
X211970952Y-109656619D02*
X211923333Y-109609000D01*
X211828095Y-109561380D01*
X211590000Y-109561380D01*
X211494761Y-109609000D01*
X211447142Y-109656619D01*
X211399523Y-109751857D01*
X211399523Y-109847095D01*
X211447142Y-109989952D01*
X212018571Y-110561380D01*
X211399523Y-110561380D01*
X210780476Y-109561380D02*
X210685238Y-109561380D01*
X210590000Y-109609000D01*
X210542380Y-109656619D01*
X210494761Y-109751857D01*
X210447142Y-109942333D01*
X210447142Y-110180428D01*
X210494761Y-110370904D01*
X210542380Y-110466142D01*
X210590000Y-110513761D01*
X210685238Y-110561380D01*
X210780476Y-110561380D01*
X210875714Y-110513761D01*
X210923333Y-110466142D01*
X210970952Y-110370904D01*
X211018571Y-110180428D01*
X211018571Y-109942333D01*
X210970952Y-109751857D01*
X210923333Y-109656619D01*
X210875714Y-109609000D01*
X210780476Y-109561380D01*
%TO.C,TP14*%
X175474095Y-109561380D02*
X174902666Y-109561380D01*
X175188380Y-110561380D02*
X175188380Y-109561380D01*
X174569333Y-110561380D02*
X174569333Y-109561380D01*
X174188380Y-109561380D01*
X174093142Y-109609000D01*
X174045523Y-109656619D01*
X173997904Y-109751857D01*
X173997904Y-109894714D01*
X174045523Y-109989952D01*
X174093142Y-110037571D01*
X174188380Y-110085190D01*
X174569333Y-110085190D01*
X173045523Y-110561380D02*
X173616952Y-110561380D01*
X173331238Y-110561380D02*
X173331238Y-109561380D01*
X173426476Y-109704238D01*
X173521714Y-109799476D01*
X173616952Y-109847095D01*
X172188380Y-109894714D02*
X172188380Y-110561380D01*
X172426476Y-109513761D02*
X172664571Y-110228047D01*
X172045523Y-110228047D01*
%TO.C,TP22*%
X267168095Y-109688380D02*
X266596666Y-109688380D01*
X266882380Y-110688380D02*
X266882380Y-109688380D01*
X266263333Y-110688380D02*
X266263333Y-109688380D01*
X265882380Y-109688380D01*
X265787142Y-109736000D01*
X265739523Y-109783619D01*
X265691904Y-109878857D01*
X265691904Y-110021714D01*
X265739523Y-110116952D01*
X265787142Y-110164571D01*
X265882380Y-110212190D01*
X266263333Y-110212190D01*
X265310952Y-109783619D02*
X265263333Y-109736000D01*
X265168095Y-109688380D01*
X264930000Y-109688380D01*
X264834761Y-109736000D01*
X264787142Y-109783619D01*
X264739523Y-109878857D01*
X264739523Y-109974095D01*
X264787142Y-110116952D01*
X265358571Y-110688380D01*
X264739523Y-110688380D01*
X264358571Y-109783619D02*
X264310952Y-109736000D01*
X264215714Y-109688380D01*
X263977619Y-109688380D01*
X263882380Y-109736000D01*
X263834761Y-109783619D01*
X263787142Y-109878857D01*
X263787142Y-109974095D01*
X263834761Y-110116952D01*
X264406190Y-110688380D01*
X263787142Y-110688380D01*
%TO.C,C45*%
X243943142Y-92702142D02*
X243990761Y-92654523D01*
X244038380Y-92511666D01*
X244038380Y-92416428D01*
X243990761Y-92273571D01*
X243895523Y-92178333D01*
X243800285Y-92130714D01*
X243609809Y-92083095D01*
X243466952Y-92083095D01*
X243276476Y-92130714D01*
X243181238Y-92178333D01*
X243086000Y-92273571D01*
X243038380Y-92416428D01*
X243038380Y-92511666D01*
X243086000Y-92654523D01*
X243133619Y-92702142D01*
X243371714Y-93559285D02*
X244038380Y-93559285D01*
X242990761Y-93321190D02*
X243705047Y-93083095D01*
X243705047Y-93702142D01*
X243038380Y-94559285D02*
X243038380Y-94083095D01*
X243514571Y-94035476D01*
X243466952Y-94083095D01*
X243419333Y-94178333D01*
X243419333Y-94416428D01*
X243466952Y-94511666D01*
X243514571Y-94559285D01*
X243609809Y-94606904D01*
X243847904Y-94606904D01*
X243943142Y-94559285D01*
X243990761Y-94511666D01*
X244038380Y-94416428D01*
X244038380Y-94178333D01*
X243990761Y-94083095D01*
X243943142Y-94035476D01*
%TO.C,R34*%
X254960380Y-90035142D02*
X254484190Y-89701809D01*
X254960380Y-89463714D02*
X253960380Y-89463714D01*
X253960380Y-89844666D01*
X254008000Y-89939904D01*
X254055619Y-89987523D01*
X254150857Y-90035142D01*
X254293714Y-90035142D01*
X254388952Y-89987523D01*
X254436571Y-89939904D01*
X254484190Y-89844666D01*
X254484190Y-89463714D01*
X253960380Y-90368476D02*
X253960380Y-90987523D01*
X254341333Y-90654190D01*
X254341333Y-90797047D01*
X254388952Y-90892285D01*
X254436571Y-90939904D01*
X254531809Y-90987523D01*
X254769904Y-90987523D01*
X254865142Y-90939904D01*
X254912761Y-90892285D01*
X254960380Y-90797047D01*
X254960380Y-90511333D01*
X254912761Y-90416095D01*
X254865142Y-90368476D01*
X254293714Y-91844666D02*
X254960380Y-91844666D01*
X253912761Y-91606571D02*
X254627047Y-91368476D01*
X254627047Y-91987523D01*
%TO.C,TP25*%
X247610095Y-109688380D02*
X247038666Y-109688380D01*
X247324380Y-110688380D02*
X247324380Y-109688380D01*
X246705333Y-110688380D02*
X246705333Y-109688380D01*
X246324380Y-109688380D01*
X246229142Y-109736000D01*
X246181523Y-109783619D01*
X246133904Y-109878857D01*
X246133904Y-110021714D01*
X246181523Y-110116952D01*
X246229142Y-110164571D01*
X246324380Y-110212190D01*
X246705333Y-110212190D01*
X245752952Y-109783619D02*
X245705333Y-109736000D01*
X245610095Y-109688380D01*
X245372000Y-109688380D01*
X245276761Y-109736000D01*
X245229142Y-109783619D01*
X245181523Y-109878857D01*
X245181523Y-109974095D01*
X245229142Y-110116952D01*
X245800571Y-110688380D01*
X245181523Y-110688380D01*
X244276761Y-109688380D02*
X244752952Y-109688380D01*
X244800571Y-110164571D01*
X244752952Y-110116952D01*
X244657714Y-110069333D01*
X244419619Y-110069333D01*
X244324380Y-110116952D01*
X244276761Y-110164571D01*
X244229142Y-110259809D01*
X244229142Y-110497904D01*
X244276761Y-110593142D01*
X244324380Y-110640761D01*
X244419619Y-110688380D01*
X244657714Y-110688380D01*
X244752952Y-110640761D01*
X244800571Y-110593142D01*
%TO.C,C44*%
X255373142Y-98671142D02*
X255420761Y-98623523D01*
X255468380Y-98480666D01*
X255468380Y-98385428D01*
X255420761Y-98242571D01*
X255325523Y-98147333D01*
X255230285Y-98099714D01*
X255039809Y-98052095D01*
X254896952Y-98052095D01*
X254706476Y-98099714D01*
X254611238Y-98147333D01*
X254516000Y-98242571D01*
X254468380Y-98385428D01*
X254468380Y-98480666D01*
X254516000Y-98623523D01*
X254563619Y-98671142D01*
X254801714Y-99528285D02*
X255468380Y-99528285D01*
X254420761Y-99290190D02*
X255135047Y-99052095D01*
X255135047Y-99671142D01*
X254801714Y-100480666D02*
X255468380Y-100480666D01*
X254420761Y-100242571D02*
X255135047Y-100004476D01*
X255135047Y-100623523D01*
%TO.C,R33*%
X257093980Y-90035142D02*
X256617790Y-89701809D01*
X257093980Y-89463714D02*
X256093980Y-89463714D01*
X256093980Y-89844666D01*
X256141600Y-89939904D01*
X256189219Y-89987523D01*
X256284457Y-90035142D01*
X256427314Y-90035142D01*
X256522552Y-89987523D01*
X256570171Y-89939904D01*
X256617790Y-89844666D01*
X256617790Y-89463714D01*
X256093980Y-90368476D02*
X256093980Y-90987523D01*
X256474933Y-90654190D01*
X256474933Y-90797047D01*
X256522552Y-90892285D01*
X256570171Y-90939904D01*
X256665409Y-90987523D01*
X256903504Y-90987523D01*
X256998742Y-90939904D01*
X257046361Y-90892285D01*
X257093980Y-90797047D01*
X257093980Y-90511333D01*
X257046361Y-90416095D01*
X256998742Y-90368476D01*
X256093980Y-91320857D02*
X256093980Y-91939904D01*
X256474933Y-91606571D01*
X256474933Y-91749428D01*
X256522552Y-91844666D01*
X256570171Y-91892285D01*
X256665409Y-91939904D01*
X256903504Y-91939904D01*
X256998742Y-91892285D01*
X257046361Y-91844666D01*
X257093980Y-91749428D01*
X257093980Y-91463714D01*
X257046361Y-91368476D01*
X256998742Y-91320857D01*
%TO.C,TP26*%
X251166095Y-109688380D02*
X250594666Y-109688380D01*
X250880380Y-110688380D02*
X250880380Y-109688380D01*
X250261333Y-110688380D02*
X250261333Y-109688380D01*
X249880380Y-109688380D01*
X249785142Y-109736000D01*
X249737523Y-109783619D01*
X249689904Y-109878857D01*
X249689904Y-110021714D01*
X249737523Y-110116952D01*
X249785142Y-110164571D01*
X249880380Y-110212190D01*
X250261333Y-110212190D01*
X249308952Y-109783619D02*
X249261333Y-109736000D01*
X249166095Y-109688380D01*
X248928000Y-109688380D01*
X248832761Y-109736000D01*
X248785142Y-109783619D01*
X248737523Y-109878857D01*
X248737523Y-109974095D01*
X248785142Y-110116952D01*
X249356571Y-110688380D01*
X248737523Y-110688380D01*
X247880380Y-109688380D02*
X248070857Y-109688380D01*
X248166095Y-109736000D01*
X248213714Y-109783619D01*
X248308952Y-109926476D01*
X248356571Y-110116952D01*
X248356571Y-110497904D01*
X248308952Y-110593142D01*
X248261333Y-110640761D01*
X248166095Y-110688380D01*
X247975619Y-110688380D01*
X247880380Y-110640761D01*
X247832761Y-110593142D01*
X247785142Y-110497904D01*
X247785142Y-110259809D01*
X247832761Y-110164571D01*
X247880380Y-110116952D01*
X247975619Y-110069333D01*
X248166095Y-110069333D01*
X248261333Y-110116952D01*
X248308952Y-110164571D01*
X248356571Y-110259809D01*
%TO.C,TP24*%
X254976095Y-109722380D02*
X254404666Y-109722380D01*
X254690380Y-110722380D02*
X254690380Y-109722380D01*
X254071333Y-110722380D02*
X254071333Y-109722380D01*
X253690380Y-109722380D01*
X253595142Y-109770000D01*
X253547523Y-109817619D01*
X253499904Y-109912857D01*
X253499904Y-110055714D01*
X253547523Y-110150952D01*
X253595142Y-110198571D01*
X253690380Y-110246190D01*
X254071333Y-110246190D01*
X253118952Y-109817619D02*
X253071333Y-109770000D01*
X252976095Y-109722380D01*
X252738000Y-109722380D01*
X252642761Y-109770000D01*
X252595142Y-109817619D01*
X252547523Y-109912857D01*
X252547523Y-110008095D01*
X252595142Y-110150952D01*
X253166571Y-110722380D01*
X252547523Y-110722380D01*
X251690380Y-110055714D02*
X251690380Y-110722380D01*
X251928476Y-109674761D02*
X252166571Y-110389047D01*
X251547523Y-110389047D01*
%TO.C,TP23*%
X259040095Y-109722380D02*
X258468666Y-109722380D01*
X258754380Y-110722380D02*
X258754380Y-109722380D01*
X258135333Y-110722380D02*
X258135333Y-109722380D01*
X257754380Y-109722380D01*
X257659142Y-109770000D01*
X257611523Y-109817619D01*
X257563904Y-109912857D01*
X257563904Y-110055714D01*
X257611523Y-110150952D01*
X257659142Y-110198571D01*
X257754380Y-110246190D01*
X258135333Y-110246190D01*
X257182952Y-109817619D02*
X257135333Y-109770000D01*
X257040095Y-109722380D01*
X256802000Y-109722380D01*
X256706761Y-109770000D01*
X256659142Y-109817619D01*
X256611523Y-109912857D01*
X256611523Y-110008095D01*
X256659142Y-110150952D01*
X257230571Y-110722380D01*
X256611523Y-110722380D01*
X256278190Y-109722380D02*
X255659142Y-109722380D01*
X255992476Y-110103333D01*
X255849619Y-110103333D01*
X255754380Y-110150952D01*
X255706761Y-110198571D01*
X255659142Y-110293809D01*
X255659142Y-110531904D01*
X255706761Y-110627142D01*
X255754380Y-110674761D01*
X255849619Y-110722380D01*
X256135333Y-110722380D01*
X256230571Y-110674761D01*
X256278190Y-110627142D01*
%TO.C,J22*%
X114947619Y-120211904D02*
X114947619Y-120783333D01*
X114985714Y-120897619D01*
X115061904Y-120973809D01*
X115176190Y-121011904D01*
X115252380Y-121011904D01*
X114604761Y-120288095D02*
X114566666Y-120250000D01*
X114490476Y-120211904D01*
X114300000Y-120211904D01*
X114223809Y-120250000D01*
X114185714Y-120288095D01*
X114147619Y-120364285D01*
X114147619Y-120440476D01*
X114185714Y-120554761D01*
X114642857Y-121011904D01*
X114147619Y-121011904D01*
X113842857Y-120288095D02*
X113804761Y-120250000D01*
X113728571Y-120211904D01*
X113538095Y-120211904D01*
X113461904Y-120250000D01*
X113423809Y-120288095D01*
X113385714Y-120364285D01*
X113385714Y-120440476D01*
X113423809Y-120554761D01*
X113880952Y-121011904D01*
X113385714Y-121011904D01*
%TO.C,TP21*%
X263104095Y-109688380D02*
X262532666Y-109688380D01*
X262818380Y-110688380D02*
X262818380Y-109688380D01*
X262199333Y-110688380D02*
X262199333Y-109688380D01*
X261818380Y-109688380D01*
X261723142Y-109736000D01*
X261675523Y-109783619D01*
X261627904Y-109878857D01*
X261627904Y-110021714D01*
X261675523Y-110116952D01*
X261723142Y-110164571D01*
X261818380Y-110212190D01*
X262199333Y-110212190D01*
X261246952Y-109783619D02*
X261199333Y-109736000D01*
X261104095Y-109688380D01*
X260866000Y-109688380D01*
X260770761Y-109736000D01*
X260723142Y-109783619D01*
X260675523Y-109878857D01*
X260675523Y-109974095D01*
X260723142Y-110116952D01*
X261294571Y-110688380D01*
X260675523Y-110688380D01*
X259723142Y-110688380D02*
X260294571Y-110688380D01*
X260008857Y-110688380D02*
X260008857Y-109688380D01*
X260104095Y-109831238D01*
X260199333Y-109926476D01*
X260294571Y-109974095D01*
%TO.C,J23*%
X266839619Y-108273904D02*
X266839619Y-108845333D01*
X266877714Y-108959619D01*
X266953904Y-109035809D01*
X267068190Y-109073904D01*
X267144380Y-109073904D01*
X266496761Y-108350095D02*
X266458666Y-108312000D01*
X266382476Y-108273904D01*
X266192000Y-108273904D01*
X266115809Y-108312000D01*
X266077714Y-108350095D01*
X266039619Y-108426285D01*
X266039619Y-108502476D01*
X266077714Y-108616761D01*
X266534857Y-109073904D01*
X266039619Y-109073904D01*
X265772952Y-108273904D02*
X265277714Y-108273904D01*
X265544380Y-108578666D01*
X265430095Y-108578666D01*
X265353904Y-108616761D01*
X265315809Y-108654857D01*
X265277714Y-108731047D01*
X265277714Y-108921523D01*
X265315809Y-108997714D01*
X265353904Y-109035809D01*
X265430095Y-109073904D01*
X265658666Y-109073904D01*
X265734857Y-109035809D01*
X265772952Y-108997714D01*
%TO.C,C46*%
X256897142Y-98671142D02*
X256944761Y-98623523D01*
X256992380Y-98480666D01*
X256992380Y-98385428D01*
X256944761Y-98242571D01*
X256849523Y-98147333D01*
X256754285Y-98099714D01*
X256563809Y-98052095D01*
X256420952Y-98052095D01*
X256230476Y-98099714D01*
X256135238Y-98147333D01*
X256040000Y-98242571D01*
X255992380Y-98385428D01*
X255992380Y-98480666D01*
X256040000Y-98623523D01*
X256087619Y-98671142D01*
X256325714Y-99528285D02*
X256992380Y-99528285D01*
X255944761Y-99290190D02*
X256659047Y-99052095D01*
X256659047Y-99671142D01*
X255992380Y-100480666D02*
X255992380Y-100290190D01*
X256040000Y-100194952D01*
X256087619Y-100147333D01*
X256230476Y-100052095D01*
X256420952Y-100004476D01*
X256801904Y-100004476D01*
X256897142Y-100052095D01*
X256944761Y-100099714D01*
X256992380Y-100194952D01*
X256992380Y-100385428D01*
X256944761Y-100480666D01*
X256897142Y-100528285D01*
X256801904Y-100575904D01*
X256563809Y-100575904D01*
X256468571Y-100528285D01*
X256420952Y-100480666D01*
X256373333Y-100385428D01*
X256373333Y-100194952D01*
X256420952Y-100099714D01*
X256468571Y-100052095D01*
X256563809Y-100004476D01*
%TO.C,C47*%
X246356142Y-92702142D02*
X246403761Y-92654523D01*
X246451380Y-92511666D01*
X246451380Y-92416428D01*
X246403761Y-92273571D01*
X246308523Y-92178333D01*
X246213285Y-92130714D01*
X246022809Y-92083095D01*
X245879952Y-92083095D01*
X245689476Y-92130714D01*
X245594238Y-92178333D01*
X245499000Y-92273571D01*
X245451380Y-92416428D01*
X245451380Y-92511666D01*
X245499000Y-92654523D01*
X245546619Y-92702142D01*
X245784714Y-93559285D02*
X246451380Y-93559285D01*
X245403761Y-93321190D02*
X246118047Y-93083095D01*
X246118047Y-93702142D01*
X245451380Y-93987857D02*
X245451380Y-94654523D01*
X246451380Y-94225952D01*
D11*
%TO.C,C2*%
X72513490Y-86107723D02*
X72513490Y-86400257D01*
X71493490Y-86107723D02*
X71493490Y-86400257D01*
%TO.C,C28*%
X67692723Y-102100490D02*
X67985257Y-102100490D01*
X67692723Y-103120490D02*
X67985257Y-103120490D01*
%TO.C,C29*%
X61074257Y-87876490D02*
X60781723Y-87876490D01*
X61074257Y-88896490D02*
X60781723Y-88896490D01*
%TO.C,C30*%
X67699738Y-101313490D02*
X68222242Y-101313490D01*
X67699738Y-99843490D02*
X68222242Y-99843490D01*
%TO.C,C31*%
X62305723Y-101342490D02*
X62598257Y-101342490D01*
X62305723Y-100322490D02*
X62598257Y-100322490D01*
%TO.C,C33*%
X59530490Y-97051242D02*
X59530490Y-96528738D01*
X58060490Y-97051242D02*
X58060490Y-96528738D01*
%TO.C,J17*%
X50987490Y-80578490D02*
X50987490Y-82478490D01*
X52887490Y-82478490D02*
X52887490Y-80578490D01*
X52887490Y-80578490D02*
X50987490Y-80578490D01*
X50987490Y-82478490D02*
X52887490Y-82478490D01*
%TO.C,J18*%
X43367490Y-80578490D02*
X43367490Y-82478490D01*
X43367490Y-82478490D02*
X45267490Y-82478490D01*
X45267490Y-82478490D02*
X45267490Y-80578490D01*
X45267490Y-80578490D02*
X43367490Y-80578490D01*
%TO.C,J19*%
X40827490Y-82478490D02*
X42727490Y-82478490D01*
X42727490Y-80578490D02*
X40827490Y-80578490D01*
X42727490Y-82478490D02*
X42727490Y-80578490D01*
X40827490Y-80578490D02*
X40827490Y-82478490D01*
%TO.C,JP3*%
X62335490Y-98198490D02*
X62335490Y-95398490D01*
X61035490Y-98848490D02*
X61635490Y-98848490D01*
X61635490Y-94748490D02*
X61035490Y-94748490D01*
X60335490Y-95398490D02*
X60335490Y-98198490D01*
X61035490Y-94748490D02*
G75*
G03*
X60335490Y-95448490I-1J-699999D01*
G01*
X60335490Y-98148490D02*
G75*
G03*
X61035490Y-98848490I699999J-1D01*
G01*
X61635490Y-98848490D02*
G75*
G03*
X62335490Y-98148490I1J699999D01*
G01*
X62335490Y-95448490D02*
G75*
G03*
X61635490Y-94748490I-699999J1D01*
G01*
%TO.C,R8*%
X77564490Y-86311554D02*
X77564490Y-85857426D01*
X76094490Y-86311554D02*
X76094490Y-85857426D01*
%TO.C,R9*%
X69236490Y-86311554D02*
X69236490Y-85857426D01*
X70706490Y-86311554D02*
X70706490Y-85857426D01*
%TO.C,R20*%
X54758490Y-101605426D02*
X54758490Y-102059554D01*
X56228490Y-101605426D02*
X56228490Y-102059554D01*
%TO.C,R21*%
X50624554Y-85819490D02*
X50170426Y-85819490D01*
X50624554Y-84349490D02*
X50170426Y-84349490D01*
%TO.C,R22*%
X45630426Y-84349490D02*
X46084554Y-84349490D01*
X45630426Y-85819490D02*
X46084554Y-85819490D01*
%TO.C,TP1*%
X48697490Y-82228490D02*
X50097490Y-82228490D01*
X50097490Y-82228490D02*
X50097490Y-80828490D01*
X48697490Y-80828490D02*
X48697490Y-82228490D01*
X50097490Y-80828490D02*
X48697490Y-80828490D01*
%TO.C,TP2*%
X46157490Y-80828490D02*
X46157490Y-82228490D01*
X47557490Y-80828490D02*
X46157490Y-80828490D01*
X47557490Y-82228490D02*
X47557490Y-80828490D01*
X46157490Y-82228490D02*
X47557490Y-82228490D01*
%TO.C,JP2*%
X63095490Y-96468490D02*
X63095490Y-97068490D01*
X67195490Y-97068490D02*
X67195490Y-96468490D01*
X66545490Y-95768490D02*
X63745490Y-95768490D01*
X63745490Y-97768490D02*
X66545490Y-97768490D01*
X67195490Y-96468490D02*
G75*
G03*
X66495490Y-95768490I-699999J1D01*
G01*
X63795490Y-95768490D02*
G75*
G03*
X63095490Y-96468490I-1J-699999D01*
G01*
X66495490Y-97768490D02*
G75*
G03*
X67195490Y-97068490I1J699999D01*
G01*
X63095490Y-97068490D02*
G75*
G03*
X63795490Y-97768490I699999J-1D01*
G01*
%TO.C,C1*%
X79371490Y-86107723D02*
X79371490Y-86400257D01*
X78351490Y-86107723D02*
X78351490Y-86400257D01*
%TO.C,C23*%
X62305723Y-102100490D02*
X62598257Y-102100490D01*
X62305723Y-103120490D02*
X62598257Y-103120490D01*
%TO.C,C11*%
X72794242Y-104869490D02*
X72271738Y-104869490D01*
X72794242Y-103399490D02*
X72271738Y-103399490D01*
%TO.C,C14*%
X176782000Y-99460267D02*
X176782000Y-99167733D01*
X177802000Y-99460267D02*
X177802000Y-99167733D01*
%TO.C,C15*%
X215902000Y-99433767D02*
X215902000Y-99141233D01*
X214882000Y-99433767D02*
X214882000Y-99141233D01*
%TO.C,C16*%
X103888000Y-98978767D02*
X103888000Y-98686233D01*
X102868000Y-98978767D02*
X102868000Y-98686233D01*
%TO.C,C20*%
X182501000Y-99460267D02*
X182501000Y-99167733D01*
X181481000Y-99460267D02*
X181481000Y-99167733D01*
%TO.C,C21*%
X219454000Y-99460267D02*
X219454000Y-99167733D01*
X220474000Y-99460267D02*
X220474000Y-99167733D01*
%TO.C,C35*%
X104646000Y-98978767D02*
X104646000Y-98686233D01*
X105666000Y-98978767D02*
X105666000Y-98686233D01*
%TO.C,C36*%
X170661000Y-97169248D02*
X170661000Y-97691752D01*
X169191000Y-97169248D02*
X169191000Y-97691752D01*
%TO.C,C37*%
X207164000Y-97257748D02*
X207164000Y-97780252D01*
X208634000Y-97257748D02*
X208634000Y-97780252D01*
%TO.C,C38*%
X102081000Y-98961752D02*
X102081000Y-98439248D01*
X100611000Y-98961752D02*
X100611000Y-98439248D01*
%TO.C,C39*%
X99716000Y-98920752D02*
X99716000Y-97498248D01*
X97896000Y-98920752D02*
X97896000Y-97498248D01*
%TO.C,C40*%
X131678000Y-94652752D02*
X131678000Y-93230248D01*
X133498000Y-94652752D02*
X133498000Y-93230248D01*
%TO.C,C41*%
X166476000Y-96659248D02*
X166476000Y-98081752D01*
X168296000Y-96659248D02*
X168296000Y-98081752D01*
%TO.C,C42*%
X204576000Y-96824748D02*
X204576000Y-98247252D01*
X206396000Y-96824748D02*
X206396000Y-98247252D01*
%TO.C,R13*%
X181456000Y-93879936D02*
X181456000Y-94334064D01*
X179986000Y-93879936D02*
X179986000Y-94334064D01*
%TO.C,R16*%
X177700000Y-93879936D02*
X177700000Y-94334064D01*
X179170000Y-93879936D02*
X179170000Y-94334064D01*
%TO.C,R17*%
X219302000Y-93879936D02*
X219302000Y-94334064D01*
X217832000Y-93879936D02*
X217832000Y-94334064D01*
%TO.C,R30*%
X215673000Y-93911936D02*
X215673000Y-94366064D01*
X217143000Y-93911936D02*
X217143000Y-94366064D01*
%TO.C,R31*%
X108739000Y-98922064D02*
X108739000Y-98467936D01*
X110209000Y-98922064D02*
X110209000Y-98467936D01*
%TO.C,R32*%
X106453000Y-98906064D02*
X106453000Y-98451936D01*
X107923000Y-98906064D02*
X107923000Y-98451936D01*
%TO.C,C8*%
X144909000Y-99460267D02*
X144909000Y-99167733D01*
X143889000Y-99460267D02*
X143889000Y-99167733D01*
%TO.C,C9*%
X140337000Y-99460267D02*
X140337000Y-99167733D01*
X139317000Y-99460267D02*
X139317000Y-99167733D01*
%TO.C,C10*%
X135863000Y-94749252D02*
X135863000Y-94226748D01*
X134393000Y-94749252D02*
X134393000Y-94226748D01*
%TO.C,C12*%
X117121000Y-92992752D02*
X117121000Y-92470248D01*
X118591000Y-92992752D02*
X118591000Y-92470248D01*
%TO.C,R12*%
X141251000Y-93879936D02*
X141251000Y-94334064D01*
X142721000Y-93879936D02*
X142721000Y-94334064D01*
%TO.C,R29*%
X138965000Y-93895936D02*
X138965000Y-94350064D01*
X140435000Y-93895936D02*
X140435000Y-94350064D01*
D12*
%TO.C,J14*%
X172738000Y-107756000D02*
X170828000Y-107756000D01*
X170828000Y-107756000D02*
X170828000Y-102556000D01*
X185218000Y-107756000D02*
X188328000Y-107756000D01*
X170828000Y-102556000D02*
X174038000Y-102556000D01*
X188328000Y-107756000D02*
X188328000Y-102556000D01*
X188328000Y-102556000D02*
X186418000Y-102556000D01*
X186718000Y-101956000D02*
G75*
G03*
X186718000Y-101956000I-100000J0D01*
G01*
%TO.C,J15*%
X208928000Y-107756000D02*
X208928000Y-102556000D01*
X226428000Y-107756000D02*
X226428000Y-102556000D01*
X223318000Y-107756000D02*
X226428000Y-107756000D01*
X210838000Y-107756000D02*
X208928000Y-107756000D01*
X208928000Y-102556000D02*
X212138000Y-102556000D01*
X226428000Y-102556000D02*
X224518000Y-102556000D01*
X224818000Y-101956000D02*
G75*
G03*
X224818000Y-101956000I-100000J0D01*
G01*
%TO.C,J16*%
X95263000Y-78771000D02*
X98473000Y-78771000D01*
X112763000Y-78771000D02*
X110853000Y-78771000D01*
X95263000Y-83971000D02*
X95263000Y-78771000D01*
X109653000Y-83971000D02*
X112763000Y-83971000D01*
X97173000Y-83971000D02*
X95263000Y-83971000D01*
X112763000Y-83971000D02*
X112763000Y-78771000D01*
X111153000Y-78171000D02*
G75*
G03*
X111153000Y-78171000I-100000J0D01*
G01*
%TO.C,J20*%
X112763000Y-88423000D02*
X110853000Y-88423000D01*
X95263000Y-93623000D02*
X95263000Y-88423000D01*
X95263000Y-88423000D02*
X98473000Y-88423000D01*
X112763000Y-93623000D02*
X112763000Y-88423000D01*
X97173000Y-93623000D02*
X95263000Y-93623000D01*
X109653000Y-93623000D02*
X112763000Y-93623000D01*
X111153000Y-87823000D02*
G75*
G03*
X111153000Y-87823000I-100000J0D01*
G01*
%TO.C,J21*%
X109653000Y-109244000D02*
X112763000Y-109244000D01*
X112763000Y-109244000D02*
X112763000Y-104044000D01*
X97173000Y-109244000D02*
X95263000Y-109244000D01*
X95263000Y-109244000D02*
X95263000Y-104044000D01*
X112763000Y-104044000D02*
X110853000Y-104044000D01*
X95263000Y-104044000D02*
X98473000Y-104044000D01*
X111153000Y-103444000D02*
G75*
G03*
X111153000Y-103444000I-100000J0D01*
G01*
%TO.C,J13*%
X150228000Y-102556000D02*
X148318000Y-102556000D01*
X150228000Y-107756000D02*
X150228000Y-102556000D01*
X134638000Y-107756000D02*
X132728000Y-107756000D01*
X147118000Y-107756000D02*
X150228000Y-107756000D01*
X132728000Y-107756000D02*
X132728000Y-102556000D01*
X132728000Y-102556000D02*
X135938000Y-102556000D01*
X148618000Y-101956000D02*
G75*
G03*
X148618000Y-101956000I-100000J0D01*
G01*
D11*
%TO.C,TP3*%
X147504000Y-112268000D02*
G75*
G03*
X147504000Y-112268000I-1200000J0D01*
G01*
%TO.C,TP4*%
X150679000Y-112268000D02*
G75*
G03*
X150679000Y-112268000I-1200000J0D01*
G01*
%TO.C,TP5*%
X144329000Y-112268000D02*
G75*
G03*
X144329000Y-112268000I-1200000J0D01*
G01*
%TO.C,TP6*%
X141154000Y-112268000D02*
G75*
G03*
X141154000Y-112268000I-1200000J0D01*
G01*
%TO.C,TP7*%
X134804000Y-112268000D02*
G75*
G03*
X134804000Y-112268000I-1200000J0D01*
G01*
%TO.C,TP8*%
X137979000Y-112268000D02*
G75*
G03*
X137979000Y-112268000I-1200000J0D01*
G01*
%TO.C,TP9*%
X185604000Y-112268000D02*
G75*
G03*
X185604000Y-112268000I-1200000J0D01*
G01*
%TO.C,TP10*%
X188779000Y-112268000D02*
G75*
G03*
X188779000Y-112268000I-1200000J0D01*
G01*
%TO.C,TP11*%
X182429000Y-112268000D02*
G75*
G03*
X182429000Y-112268000I-1200000J0D01*
G01*
%TO.C,TP12*%
X179254000Y-112268000D02*
G75*
G03*
X179254000Y-112268000I-1200000J0D01*
G01*
%TO.C,TP13*%
X172904000Y-112268000D02*
G75*
G03*
X172904000Y-112268000I-1200000J0D01*
G01*
%TO.C,TP15*%
X223704000Y-112268000D02*
G75*
G03*
X223704000Y-112268000I-1200000J0D01*
G01*
%TO.C,TP16*%
X226879000Y-112268000D02*
G75*
G03*
X226879000Y-112268000I-1200000J0D01*
G01*
%TO.C,TP17*%
X220529000Y-112268000D02*
G75*
G03*
X220529000Y-112268000I-1200000J0D01*
G01*
%TO.C,TP18*%
X217354000Y-112268000D02*
G75*
G03*
X217354000Y-112268000I-1200000J0D01*
G01*
%TO.C,TP19*%
X211004000Y-112268000D02*
G75*
G03*
X211004000Y-112268000I-1200000J0D01*
G01*
%TO.C,TP20*%
X214179000Y-112268000D02*
G75*
G03*
X214179000Y-112268000I-1200000J0D01*
G01*
%TO.C,TP14*%
X176079000Y-112268000D02*
G75*
G03*
X176079000Y-112268000I-1200000J0D01*
G01*
%TO.C,TP22*%
X264979000Y-112268000D02*
G75*
G03*
X264979000Y-112268000I-1200000J0D01*
G01*
%TO.C,C45*%
X244496000Y-96824748D02*
X244496000Y-98247252D01*
X242676000Y-96824748D02*
X242676000Y-98247252D01*
%TO.C,R34*%
X255243000Y-93863936D02*
X255243000Y-94318064D01*
X253773000Y-93863936D02*
X253773000Y-94318064D01*
%TO.C,TP25*%
X249104000Y-112268000D02*
G75*
G03*
X249104000Y-112268000I-1200000J0D01*
G01*
%TO.C,C44*%
X252982000Y-99359767D02*
X252982000Y-99067233D01*
X254002000Y-99359767D02*
X254002000Y-99067233D01*
%TO.C,R33*%
X257402000Y-93879936D02*
X257402000Y-94334064D01*
X255932000Y-93879936D02*
X255932000Y-94334064D01*
%TO.C,TP26*%
X252279000Y-112268000D02*
G75*
G03*
X252279000Y-112268000I-1200000J0D01*
G01*
%TO.C,TP24*%
X255454000Y-112268000D02*
G75*
G03*
X255454000Y-112268000I-1200000J0D01*
G01*
%TO.C,TP23*%
X258629000Y-112268000D02*
G75*
G03*
X258629000Y-112268000I-1200000J0D01*
G01*
D12*
%TO.C,J22*%
X112763000Y-114875000D02*
X110853000Y-114875000D01*
X112763000Y-120075000D02*
X112763000Y-114875000D01*
X95263000Y-114875000D02*
X98473000Y-114875000D01*
X97173000Y-120075000D02*
X95263000Y-120075000D01*
X109653000Y-120075000D02*
X112763000Y-120075000D01*
X95263000Y-120075000D02*
X95263000Y-114875000D01*
X111153000Y-114275000D02*
G75*
G03*
X111153000Y-114275000I-100000J0D01*
G01*
D11*
%TO.C,TP21*%
X261804000Y-112268000D02*
G75*
G03*
X261804000Y-112268000I-1200000J0D01*
G01*
D12*
%TO.C,J23*%
X248938000Y-107883000D02*
X247028000Y-107883000D01*
X247028000Y-102683000D02*
X250238000Y-102683000D01*
X247028000Y-107883000D02*
X247028000Y-102683000D01*
X264528000Y-102683000D02*
X262618000Y-102683000D01*
X261418000Y-107883000D02*
X264528000Y-107883000D01*
X264528000Y-107883000D02*
X264528000Y-102683000D01*
X262918000Y-102083000D02*
G75*
G03*
X262918000Y-102083000I-100000J0D01*
G01*
D11*
%TO.C,C46*%
X257554000Y-99460267D02*
X257554000Y-99167733D01*
X258574000Y-99460267D02*
X258574000Y-99167733D01*
%TO.C,C47*%
X246734000Y-97274748D02*
X246734000Y-97797252D01*
X245264000Y-97274748D02*
X245264000Y-97797252D01*
%TD*%
M02*
