%TF.GenerationSoftware,KiCad,Pcbnew,(6.0.2)*%
%TF.CreationDate,2022-03-24T09:24:23+01:00*%
%TF.ProjectId,GestureControl,47657374-7572-4654-936f-6e74726f6c2e,V0.21*%
%TF.SameCoordinates,PX1268e40PY7fa82d0*%
%TF.FileFunction,Profile,NP*%
%FSLAX46Y46*%
G04 Gerber Fmt 4.6, Leading zero omitted, Abs format (unit mm)*
G04 Created by KiCad (PCBNEW (6.0.2)) date 2022-03-24 09:24:23*
%MOMM*%
%LPD*%
G01*
G04 APERTURE LIST*
%TA.AperFunction,Profile*%
%ADD10C,0.050000*%
%TD*%
G04 APERTURE END LIST*
D10*
X254190500Y19700000D02*
X254254000Y49022000D01*
X190500Y10810000D02*
X254000Y57912000D01*
X48490500Y5000000D02*
G75*
G03*
X48490500Y7000000I0J1000000D01*
G01*
X104330500Y19700000D02*
G75*
G03*
X108140500Y15890000I3809999J-1D01*
G01*
X123610500Y15890000D02*
G75*
G03*
X123610500Y13890000I0J-1000000D01*
G01*
X142430500Y19700000D02*
G75*
G03*
X146240500Y15890000I3809999J-1D01*
G01*
X174136914Y15890000D02*
G75*
G03*
X177946914Y19656414I43337J3766414D01*
G01*
X5490500Y7000000D02*
X4000500Y7000000D01*
X31990500Y7000000D02*
G75*
G03*
X32047473Y5001624I0J-1000000D01*
G01*
X228866500Y15890000D02*
X244866500Y15890000D01*
X194766500Y13890000D02*
X161710500Y13890000D01*
X218586914Y24736414D02*
G75*
G03*
X216046914Y24736414I-1270000J-19D01*
G01*
X156710500Y13890000D02*
G75*
G03*
X156710500Y15890000I0J1000000D01*
G01*
X97980500Y7000000D02*
G75*
G03*
X101790500Y10810000I1J3809999D01*
G01*
X199766500Y13890000D02*
X223866500Y13890000D01*
X244866500Y13890000D02*
X228866500Y13890000D01*
X161710500Y15890000D02*
G75*
G03*
X161710500Y13890000I0J-1000000D01*
G01*
X91490500Y5000000D02*
X75047473Y5001624D01*
X228866500Y15890000D02*
G75*
G03*
X228866500Y13890000I0J-1000000D01*
G01*
X118610500Y13890000D02*
X104330500Y13890000D01*
X180486914Y24736414D02*
G75*
G03*
X177946914Y24736414I-1270000J-19D01*
G01*
X184296914Y15890000D02*
X194766500Y15890000D01*
X254190500Y13890000D02*
X254190500Y0D01*
X223866500Y13890000D02*
G75*
G03*
X223866500Y15890000I0J1000000D01*
G01*
X123610500Y15890000D02*
X136080500Y15890000D01*
X136080500Y15890000D02*
G75*
G03*
X139890500Y19700000I1J3809999D01*
G01*
X249866500Y15890000D02*
G75*
G03*
X249866500Y13890000I0J-1000000D01*
G01*
X212236914Y15890000D02*
G75*
G03*
X216046914Y19656414I43337J3766414D01*
G01*
X190500Y0D02*
X190500Y5000000D01*
X244866500Y13890000D02*
G75*
G03*
X244866500Y15890000I0J1000000D01*
G01*
X218586914Y24736414D02*
X218586914Y19656414D01*
X190500Y10810000D02*
G75*
G03*
X4000500Y7000000I3809999J-1D01*
G01*
X91490500Y5000000D02*
G75*
G03*
X91490500Y7000000I0J1000000D01*
G01*
X142430500Y24780000D02*
X142430500Y19700000D01*
X108140500Y15890000D02*
X118610500Y15890000D01*
X48490500Y5000000D02*
X32047473Y5001624D01*
X142430500Y24780000D02*
G75*
G03*
X139890500Y24780000I-1270000J-19D01*
G01*
X156710500Y13890000D02*
X123610500Y13890000D01*
X194766500Y13890000D02*
G75*
G03*
X194766500Y15890000I0J1000000D01*
G01*
X254190500Y13890000D02*
X249866500Y13890000D01*
X74990500Y7000000D02*
G75*
G03*
X75047473Y5001624I0J-1000000D01*
G01*
X216046914Y19656414D02*
X216046914Y24736414D01*
X10490500Y7000000D02*
G75*
G03*
X10547473Y5001624I0J-1000000D01*
G01*
X222632500Y15890000D02*
X223866500Y15890000D01*
X97980500Y7000000D02*
X96490500Y7000000D01*
X104330500Y24780019D02*
G75*
G03*
X101790500Y24780019I-1270000J-19D01*
G01*
X101790500Y10810000D02*
X101790500Y24780019D01*
X139890500Y19700000D02*
X139890500Y24780000D01*
X250380500Y15890000D02*
X249866500Y15890000D01*
X103330500Y5000000D02*
G75*
G03*
X104330500Y6000000I1J999999D01*
G01*
X69990500Y5000000D02*
G75*
G03*
X69990500Y7000000I0J1000000D01*
G01*
X104330500Y24780019D02*
X104330500Y19700000D01*
X103330500Y5000000D02*
X96547473Y5001624D01*
X146240500Y15890000D02*
X156710500Y15890000D01*
X48490500Y7000000D02*
X31990500Y7000000D01*
X180486914Y19656414D02*
G75*
G03*
X184296914Y15890000I3766661J-2D01*
G01*
X96490500Y7000000D02*
G75*
G03*
X96547473Y5001624I0J-1000000D01*
G01*
X53490500Y7000000D02*
G75*
G03*
X53547473Y5001624I0J-1000000D01*
G01*
X91490500Y7000000D02*
X74990500Y7000000D01*
X177946914Y19656414D02*
X177946914Y24736414D01*
X118610500Y13890000D02*
G75*
G03*
X118610500Y15890000I0J1000000D01*
G01*
X26990500Y5000000D02*
X10547473Y5001624D01*
X199766500Y15890000D02*
G75*
G03*
X199766500Y13890000I0J-1000000D01*
G01*
X69990500Y7000000D02*
X53490500Y7000000D01*
X250380500Y15890000D02*
G75*
G03*
X254190500Y19700000I1J3809999D01*
G01*
X26990500Y5000000D02*
G75*
G03*
X26990500Y7000000I0J1000000D01*
G01*
X174136914Y15890000D02*
X161710500Y15890000D01*
X254190500Y0D02*
X190500Y0D01*
X69990500Y5000000D02*
X53547473Y5001624D01*
X212236914Y15890000D02*
X199766500Y15890000D01*
X104330500Y13890000D02*
X104330500Y6000000D01*
X26990500Y7000000D02*
X10490500Y7000000D01*
X180486914Y24736414D02*
X180486914Y19656414D01*
X218586913Y19656414D02*
G75*
G03*
X222632500Y15890000I3776044J-3D01*
G01*
X5490500Y5000000D02*
G75*
G03*
X5490500Y7000000I0J1000000D01*
G01*
X5490500Y5000000D02*
X190500Y5000000D01*
X75110973Y63720376D02*
G75*
G03*
X75054000Y61722000I-56973J-998376D01*
G01*
X118674000Y52832000D02*
X108204000Y52832000D01*
X249930000Y54832000D02*
X254254000Y54832000D01*
X32110973Y63720376D02*
X48554000Y63722000D01*
X123674000Y54832000D02*
X156774000Y54832000D01*
X194830000Y52832000D02*
G75*
G03*
X194830000Y54832000I0J1000000D01*
G01*
X139954000Y43942000D02*
G75*
G03*
X142494000Y43942000I1270000J19D01*
G01*
X142494000Y49022000D02*
X142494000Y43942000D01*
X91554000Y61722000D02*
G75*
G03*
X91554000Y63722000I0J1000000D01*
G01*
X218650414Y49065586D02*
X218650414Y43985586D01*
X254000Y63722000D02*
X254000Y68722000D01*
X136144000Y52832000D02*
X123674000Y52832000D01*
X139954000Y49022000D02*
G75*
G03*
X136144000Y52832000I-3809999J1D01*
G01*
X4064000Y61722000D02*
G75*
G03*
X254000Y57912000I-1J-3809999D01*
G01*
X244930000Y52832000D02*
G75*
G03*
X244930000Y54832000I0J1000000D01*
G01*
X249930000Y54832000D02*
G75*
G03*
X249930000Y52832000I0J-1000000D01*
G01*
X216110414Y49065586D02*
G75*
G03*
X212300414Y52832000I-3766663J0D01*
G01*
X228930000Y54832000D02*
X244930000Y54832000D01*
X156774000Y52832000D02*
G75*
G03*
X156774000Y54832000I0J1000000D01*
G01*
X161774000Y54832000D02*
G75*
G03*
X161774000Y52832000I0J-1000000D01*
G01*
X101854000Y57912000D02*
G75*
G03*
X98044000Y61722000I-3809999J1D01*
G01*
X223930000Y54832000D02*
X199830000Y54832000D01*
X216110414Y43985586D02*
G75*
G03*
X218650414Y43985586I1270000J19D01*
G01*
X228930000Y54832000D02*
G75*
G03*
X228930000Y52832000I0J-1000000D01*
G01*
X75110973Y63720376D02*
X91554000Y63722000D01*
X223930000Y52832000D02*
G75*
G03*
X223930000Y54832000I0J1000000D01*
G01*
X104394000Y54832000D02*
X118674000Y54832000D01*
X254254000Y68722000D02*
X254254000Y54832000D01*
X194830000Y52832000D02*
X184360414Y52832000D01*
X178010414Y43985586D02*
G75*
G03*
X180550414Y43985586I1270000J19D01*
G01*
X48554000Y61722000D02*
G75*
G03*
X48554000Y63722000I0J1000000D01*
G01*
X146304000Y52832000D02*
G75*
G03*
X142494000Y49022000I-1J-3809999D01*
G01*
X4064000Y61722000D02*
X5554000Y61722000D01*
X108204000Y52832000D02*
G75*
G03*
X104394000Y49022000I-1J-3809999D01*
G01*
X123674000Y54832000D02*
G75*
G03*
X123674000Y52832000I0J-1000000D01*
G01*
X32110973Y63720376D02*
G75*
G03*
X32054000Y61722000I-56973J-998376D01*
G01*
X161774000Y54832000D02*
X194830000Y54832000D01*
X244930000Y52832000D02*
X228930000Y52832000D01*
X178010414Y49065586D02*
G75*
G03*
X174200414Y52832000I-3766663J0D01*
G01*
X10554000Y61722000D02*
X27054000Y61722000D01*
X254000Y63722000D02*
X5554000Y63722000D01*
X161774000Y52832000D02*
X174200414Y52832000D01*
X199830000Y52832000D02*
X212300414Y52832000D01*
X75054000Y61722000D02*
X91554000Y61722000D01*
X53610973Y63720376D02*
X70054000Y63722000D01*
X254000Y68722000D02*
X254254000Y68722000D01*
X27054000Y61722000D02*
G75*
G03*
X27054000Y63722000I0J1000000D01*
G01*
X254254000Y49022000D02*
G75*
G03*
X250444000Y52832000I-3809999J1D01*
G01*
X96610973Y63720376D02*
G75*
G03*
X96554000Y61722000I-56973J-998376D01*
G01*
X5554000Y61722000D02*
G75*
G03*
X5554000Y63722000I0J1000000D01*
G01*
X118674000Y52832000D02*
G75*
G03*
X118674000Y54832000I0J1000000D01*
G01*
X184360414Y52832000D02*
G75*
G03*
X180550414Y49065586I-43339J-3766412D01*
G01*
X53554000Y61722000D02*
X70054000Y61722000D01*
X222504000Y52832000D02*
G75*
G03*
X218650414Y49065586I-86192J-3766408D01*
G01*
X199830000Y54832000D02*
G75*
G03*
X199830000Y52832000I0J-1000000D01*
G01*
X10610973Y63720376D02*
X27054000Y63722000D01*
X178010414Y43985586D02*
X178010414Y49065586D01*
X32054000Y61722000D02*
X48554000Y61722000D01*
X104394000Y62722000D02*
X104394000Y54832000D01*
X180550414Y49065586D02*
X180550414Y43985586D01*
X53610973Y63720376D02*
G75*
G03*
X53554000Y61722000I-56973J-998376D01*
G01*
X156774000Y52832000D02*
X146304000Y52832000D01*
X249930000Y52832000D02*
X250444000Y52832000D01*
X139954000Y43942000D02*
X139954000Y49022000D01*
X10610973Y63720376D02*
G75*
G03*
X10554000Y61722000I-56973J-998376D01*
G01*
X101854000Y43941981D02*
X101854000Y57912000D01*
X96554000Y61722000D02*
X98044000Y61722000D01*
X70054000Y61722000D02*
G75*
G03*
X70054000Y63722000I0J1000000D01*
G01*
X104394000Y62722000D02*
G75*
G03*
X103394000Y63722000I-999999J1D01*
G01*
X104394000Y49022000D02*
X104394000Y43941981D01*
X96610973Y63720376D02*
X103394000Y63722000D01*
X223930000Y52832000D02*
X222504000Y52832000D01*
X216110414Y43985586D02*
X216110414Y49065586D01*
X101854000Y43941981D02*
G75*
G03*
X104394000Y43941981I1270000J19D01*
G01*
M02*
