%TF.GenerationSoftware,KiCad,Pcbnew,(6.0.2)*%
%TF.CreationDate,2022-03-17T10:44:44+01:00*%
%TF.ProjectId,GestureControl,47657374-7572-4654-936f-6e74726f6c2e,V0.1*%
%TF.SameCoordinates,Original*%
%TF.FileFunction,Profile,NP*%
%FSLAX46Y46*%
G04 Gerber Fmt 4.6, Leading zero omitted, Abs format (unit mm)*
G04 Created by KiCad (PCBNEW (6.0.2)) date 2022-03-17 10:44:44*
%MOMM*%
%LPD*%
G01*
G04 APERTURE LIST*
%TA.AperFunction,Profile*%
%ADD10C,0.050000*%
%TD*%
%TA.AperFunction,Profile*%
%ADD11C,0.548634*%
%TD*%
G04 APERTURE END LIST*
D10*
X155448000Y-117856000D02*
G75*
G03*
X159258000Y-114046000I1J3809999D01*
G01*
X155448000Y-81026000D02*
X127508000Y-81026000D01*
X127508000Y-117856000D02*
X155448000Y-117856000D01*
X193548000Y-81026000D02*
X165608000Y-81026000D01*
X197358000Y-84836000D02*
G75*
G03*
X193548000Y-81026000I-3809999J1D01*
G01*
X165608000Y-117856000D02*
X193548000Y-117856000D01*
X193548000Y-117856000D02*
G75*
G03*
X197358000Y-114046000I1J3809999D01*
G01*
X161798000Y-114046000D02*
G75*
G03*
X165608000Y-117856000I3809999J-1D01*
G01*
X165608000Y-81026000D02*
G75*
G03*
X161798000Y-84836000I-1J-3809999D01*
G01*
X235458000Y-84836000D02*
G75*
G03*
X231648000Y-81026000I-3809999J1D01*
G01*
X203708000Y-117856000D02*
X231648000Y-117856000D01*
X231648000Y-117856000D02*
G75*
G03*
X235458000Y-114046000I1J3809999D01*
G01*
X199898000Y-114046000D02*
G75*
G03*
X203708000Y-117856000I3809999J-1D01*
G01*
X203708000Y-81026000D02*
G75*
G03*
X199898000Y-84836000I-1J-3809999D01*
G01*
X231648000Y-81026000D02*
X203708000Y-81026000D01*
X117348000Y-126746000D02*
G75*
G03*
X121158000Y-122936000I1J3809999D01*
G01*
D11*
X160802317Y-104140000D02*
G75*
G03*
X160802317Y-104140000I-274317J0D01*
G01*
X160802317Y-106172000D02*
G75*
G03*
X160802317Y-106172000I-274317J0D01*
G01*
X122702317Y-106172000D02*
G75*
G03*
X122702317Y-106172000I-274317J0D01*
G01*
D10*
X161798000Y-108966000D02*
G75*
G03*
X159258000Y-108966000I-1270000J0D01*
G01*
X199898000Y-108966000D02*
G75*
G03*
X197358000Y-108966000I-1270000J0D01*
G01*
X32512000Y-72136000D02*
X117348000Y-72136000D01*
X241808000Y-117856000D02*
X269748000Y-117856000D01*
X32512000Y-72136000D02*
X23495000Y-72136000D01*
X123698000Y-108966000D02*
G75*
G03*
X121158000Y-108966000I-1270000J0D01*
G01*
D11*
X198902317Y-92725634D02*
G75*
G03*
X198902317Y-92725634I-274317J0D01*
G01*
D10*
X159258000Y-89916000D02*
X159258000Y-84836000D01*
X237998000Y-114046000D02*
X237998000Y-108966000D01*
X23876000Y-126746000D02*
X23495000Y-126746000D01*
X197358000Y-89916000D02*
G75*
G03*
X199898000Y-89916000I1270000J0D01*
G01*
X159258000Y-108966000D02*
X159258000Y-114046000D01*
X121158000Y-75946000D02*
G75*
G03*
X117348000Y-72136000I-3809999J1D01*
G01*
X197358000Y-89916000D02*
X197358000Y-84836000D01*
D11*
X237002317Y-98552000D02*
G75*
G03*
X237002317Y-98552000I-274317J0D01*
G01*
X237002317Y-94757634D02*
G75*
G03*
X237002317Y-94757634I-274317J0D01*
G01*
D10*
X121158000Y-89916000D02*
G75*
G03*
X123698000Y-89916000I1270000J0D01*
G01*
D11*
X160802317Y-94757634D02*
G75*
G03*
X160802317Y-94757634I-274317J0D01*
G01*
D10*
X235458000Y-89916000D02*
G75*
G03*
X237998000Y-89916000I1270000J0D01*
G01*
D11*
X122702317Y-96774000D02*
G75*
G03*
X122702317Y-96774000I-274317J0D01*
G01*
D10*
X237998000Y-108966000D02*
G75*
G03*
X235458000Y-108966000I-1270000J0D01*
G01*
D11*
X122702317Y-92710000D02*
G75*
G03*
X122702317Y-92710000I-274317J0D01*
G01*
X198902317Y-98552000D02*
G75*
G03*
X198902317Y-98552000I-274317J0D01*
G01*
X198902317Y-102108000D02*
G75*
G03*
X198902317Y-102108000I-274317J0D01*
G01*
X160802317Y-92725634D02*
G75*
G03*
X160802317Y-92725634I-274317J0D01*
G01*
D10*
X32512000Y-126746000D02*
X23876000Y-126746000D01*
X123698000Y-108966000D02*
X123698000Y-114046000D01*
D11*
X122702317Y-104140000D02*
G75*
G03*
X122702317Y-104140000I-274317J0D01*
G01*
D10*
X273558000Y-114046000D02*
X273558000Y-84836000D01*
D11*
X237002317Y-96774000D02*
G75*
G03*
X237002317Y-96774000I-274317J0D01*
G01*
D10*
X121158000Y-75946000D02*
X121158000Y-89916000D01*
X235458000Y-89916000D02*
X235458000Y-84836000D01*
X159258000Y-89916000D02*
G75*
G03*
X161798000Y-89916000I1270000J0D01*
G01*
D11*
X160802317Y-98806000D02*
G75*
G03*
X160802317Y-98806000I-274317J0D01*
G01*
D10*
X237998000Y-114046000D02*
G75*
G03*
X241808000Y-117856000I3809999J-1D01*
G01*
X161798000Y-84836000D02*
X161798000Y-89916000D01*
X19685000Y-122936000D02*
G75*
G03*
X23495000Y-126746000I3809999J-1D01*
G01*
X117348000Y-126746000D02*
X32512000Y-126746000D01*
X199898000Y-84836000D02*
X199898000Y-89916000D01*
X19685000Y-122936000D02*
X19685000Y-75946000D01*
X199898000Y-114046000D02*
X199898000Y-108966000D01*
D11*
X237002317Y-92725634D02*
G75*
G03*
X237002317Y-92725634I-274317J0D01*
G01*
D10*
X241808000Y-81026000D02*
G75*
G03*
X237998000Y-84836000I-1J-3809999D01*
G01*
X123698000Y-114046000D02*
G75*
G03*
X127508000Y-117856000I3809999J-1D01*
G01*
X127508000Y-81026000D02*
G75*
G03*
X123698000Y-84836000I-1J-3809999D01*
G01*
D11*
X160802317Y-102108000D02*
G75*
G03*
X160802317Y-102108000I-274317J0D01*
G01*
X198902317Y-104140000D02*
G75*
G03*
X198902317Y-104140000I-274317J0D01*
G01*
D10*
X121158000Y-108966000D02*
X121158000Y-122936000D01*
D11*
X122702317Y-98806000D02*
G75*
G03*
X122702317Y-98806000I-274317J0D01*
G01*
D10*
X235458000Y-108966000D02*
X235458000Y-114046000D01*
X269748000Y-117856000D02*
G75*
G03*
X273558000Y-114046000I1J3809999D01*
G01*
D11*
X237002317Y-102108000D02*
G75*
G03*
X237002317Y-102108000I-274317J0D01*
G01*
D10*
X269748000Y-81026000D02*
X241808000Y-81026000D01*
D11*
X122702317Y-102108000D02*
G75*
G03*
X122702317Y-102108000I-274317J0D01*
G01*
X198902317Y-94757634D02*
G75*
G03*
X198902317Y-94757634I-274317J0D01*
G01*
D10*
X161798000Y-114046000D02*
X161798000Y-108966000D01*
X159258000Y-84836000D02*
G75*
G03*
X155448000Y-81026000I-3809999J1D01*
G01*
D11*
X198902317Y-106172000D02*
G75*
G03*
X198902317Y-106172000I-274317J0D01*
G01*
D10*
X123698000Y-84836000D02*
X123698000Y-89916000D01*
D11*
X160802317Y-96774000D02*
G75*
G03*
X160802317Y-96774000I-274317J0D01*
G01*
X122702317Y-94742000D02*
G75*
G03*
X122702317Y-94742000I-274317J0D01*
G01*
X237002317Y-106172000D02*
G75*
G03*
X237002317Y-106172000I-274317J0D01*
G01*
D10*
X197358000Y-108966000D02*
X197358000Y-114046000D01*
X23495000Y-72136000D02*
G75*
G03*
X19685000Y-75946000I-1J-3809999D01*
G01*
X237998000Y-84836000D02*
X237998000Y-89916000D01*
D11*
X198902317Y-96774000D02*
G75*
G03*
X198902317Y-96774000I-274317J0D01*
G01*
X237002317Y-104140000D02*
G75*
G03*
X237002317Y-104140000I-274317J0D01*
G01*
D10*
X273558000Y-84836000D02*
G75*
G03*
X269748000Y-81026000I-3809999J1D01*
G01*
M02*
