%TF.GenerationSoftware,KiCad,Pcbnew,(5.1.10)-1*%
%TF.CreationDate,2022-02-24T08:52:08+01:00*%
%TF.ProjectId,GestureControl,47657374-7572-4654-936f-6e74726f6c2e,V0.1*%
%TF.SameCoordinates,Original*%
%TF.FileFunction,Paste,Top*%
%TF.FilePolarity,Positive*%
%FSLAX46Y46*%
G04 Gerber Fmt 4.6, Leading zero omitted, Abs format (unit mm)*
G04 Created by KiCad (PCBNEW (5.1.10)-1) date 2022-02-24 08:52:08*
%MOMM*%
%LPD*%
G01*
G04 APERTURE LIST*
%ADD10R,0.807999X0.458000*%
%ADD11R,0.508000X0.508000*%
%ADD12R,2.000000X4.500000*%
%ADD13R,1.300000X1.550000*%
%ADD14R,1.800000X3.500000*%
%ADD15R,1.900000X1.300000*%
%ADD16R,1.550000X1.300000*%
G04 APERTURE END LIST*
D10*
%TO.C,U5*%
X109120800Y-117169999D03*
X109120800Y-116370001D03*
X109120800Y-115570000D03*
X109120800Y-114769999D03*
X109120800Y-113970001D03*
D11*
X110236000Y-113969800D03*
D10*
X111351200Y-113970001D03*
X111351200Y-114769999D03*
X111351200Y-115570000D03*
X111351200Y-116370001D03*
X111351200Y-117169999D03*
D11*
X110236000Y-117170200D03*
%TD*%
D10*
%TO.C,U4*%
X181510800Y-117169999D03*
X181510800Y-116370001D03*
X181510800Y-115570000D03*
X181510800Y-114769999D03*
X181510800Y-113970001D03*
D11*
X182626000Y-113969800D03*
D10*
X183741200Y-113970001D03*
X183741200Y-114769999D03*
X183741200Y-115570000D03*
X183741200Y-116370001D03*
X183741200Y-117169999D03*
D11*
X182626000Y-117170200D03*
%TD*%
D10*
%TO.C,U3*%
X145950800Y-117169999D03*
X145950800Y-116370001D03*
X145950800Y-115570000D03*
X145950800Y-114769999D03*
X145950800Y-113970001D03*
D11*
X147066000Y-113969800D03*
D10*
X148181200Y-113970001D03*
X148181200Y-114769999D03*
X148181200Y-115570000D03*
X148181200Y-116370001D03*
X148181200Y-117169999D03*
D11*
X147066000Y-117170200D03*
%TD*%
%TO.C,U7*%
G36*
G01*
X150204000Y-78889000D02*
X150204000Y-80289000D01*
G75*
G02*
X150129000Y-80364000I-75000J0D01*
G01*
X149979000Y-80364000D01*
G75*
G02*
X149904000Y-80289000I0J75000D01*
G01*
X149904000Y-78889000D01*
G75*
G02*
X149979000Y-78814000I75000J0D01*
G01*
X150129000Y-78814000D01*
G75*
G02*
X150204000Y-78889000I0J-75000D01*
G01*
G37*
G36*
G01*
X149704000Y-78889000D02*
X149704000Y-80289000D01*
G75*
G02*
X149629000Y-80364000I-75000J0D01*
G01*
X149479000Y-80364000D01*
G75*
G02*
X149404000Y-80289000I0J75000D01*
G01*
X149404000Y-78889000D01*
G75*
G02*
X149479000Y-78814000I75000J0D01*
G01*
X149629000Y-78814000D01*
G75*
G02*
X149704000Y-78889000I0J-75000D01*
G01*
G37*
G36*
G01*
X149204000Y-78889000D02*
X149204000Y-80289000D01*
G75*
G02*
X149129000Y-80364000I-75000J0D01*
G01*
X148979000Y-80364000D01*
G75*
G02*
X148904000Y-80289000I0J75000D01*
G01*
X148904000Y-78889000D01*
G75*
G02*
X148979000Y-78814000I75000J0D01*
G01*
X149129000Y-78814000D01*
G75*
G02*
X149204000Y-78889000I0J-75000D01*
G01*
G37*
G36*
G01*
X148704000Y-78889000D02*
X148704000Y-80289000D01*
G75*
G02*
X148629000Y-80364000I-75000J0D01*
G01*
X148479000Y-80364000D01*
G75*
G02*
X148404000Y-80289000I0J75000D01*
G01*
X148404000Y-78889000D01*
G75*
G02*
X148479000Y-78814000I75000J0D01*
G01*
X148629000Y-78814000D01*
G75*
G02*
X148704000Y-78889000I0J-75000D01*
G01*
G37*
G36*
G01*
X148204000Y-78889000D02*
X148204000Y-80289000D01*
G75*
G02*
X148129000Y-80364000I-75000J0D01*
G01*
X147979000Y-80364000D01*
G75*
G02*
X147904000Y-80289000I0J75000D01*
G01*
X147904000Y-78889000D01*
G75*
G02*
X147979000Y-78814000I75000J0D01*
G01*
X148129000Y-78814000D01*
G75*
G02*
X148204000Y-78889000I0J-75000D01*
G01*
G37*
G36*
G01*
X147704000Y-78889000D02*
X147704000Y-80289000D01*
G75*
G02*
X147629000Y-80364000I-75000J0D01*
G01*
X147479000Y-80364000D01*
G75*
G02*
X147404000Y-80289000I0J75000D01*
G01*
X147404000Y-78889000D01*
G75*
G02*
X147479000Y-78814000I75000J0D01*
G01*
X147629000Y-78814000D01*
G75*
G02*
X147704000Y-78889000I0J-75000D01*
G01*
G37*
G36*
G01*
X147204000Y-78889000D02*
X147204000Y-80289000D01*
G75*
G02*
X147129000Y-80364000I-75000J0D01*
G01*
X146979000Y-80364000D01*
G75*
G02*
X146904000Y-80289000I0J75000D01*
G01*
X146904000Y-78889000D01*
G75*
G02*
X146979000Y-78814000I75000J0D01*
G01*
X147129000Y-78814000D01*
G75*
G02*
X147204000Y-78889000I0J-75000D01*
G01*
G37*
G36*
G01*
X146704000Y-78889000D02*
X146704000Y-80289000D01*
G75*
G02*
X146629000Y-80364000I-75000J0D01*
G01*
X146479000Y-80364000D01*
G75*
G02*
X146404000Y-80289000I0J75000D01*
G01*
X146404000Y-78889000D01*
G75*
G02*
X146479000Y-78814000I75000J0D01*
G01*
X146629000Y-78814000D01*
G75*
G02*
X146704000Y-78889000I0J-75000D01*
G01*
G37*
G36*
G01*
X146204000Y-78889000D02*
X146204000Y-80289000D01*
G75*
G02*
X146129000Y-80364000I-75000J0D01*
G01*
X145979000Y-80364000D01*
G75*
G02*
X145904000Y-80289000I0J75000D01*
G01*
X145904000Y-78889000D01*
G75*
G02*
X145979000Y-78814000I75000J0D01*
G01*
X146129000Y-78814000D01*
G75*
G02*
X146204000Y-78889000I0J-75000D01*
G01*
G37*
G36*
G01*
X145704000Y-78889000D02*
X145704000Y-80289000D01*
G75*
G02*
X145629000Y-80364000I-75000J0D01*
G01*
X145479000Y-80364000D01*
G75*
G02*
X145404000Y-80289000I0J75000D01*
G01*
X145404000Y-78889000D01*
G75*
G02*
X145479000Y-78814000I75000J0D01*
G01*
X145629000Y-78814000D01*
G75*
G02*
X145704000Y-78889000I0J-75000D01*
G01*
G37*
G36*
G01*
X145204000Y-78889000D02*
X145204000Y-80289000D01*
G75*
G02*
X145129000Y-80364000I-75000J0D01*
G01*
X144979000Y-80364000D01*
G75*
G02*
X144904000Y-80289000I0J75000D01*
G01*
X144904000Y-78889000D01*
G75*
G02*
X144979000Y-78814000I75000J0D01*
G01*
X145129000Y-78814000D01*
G75*
G02*
X145204000Y-78889000I0J-75000D01*
G01*
G37*
G36*
G01*
X144704000Y-78889000D02*
X144704000Y-80289000D01*
G75*
G02*
X144629000Y-80364000I-75000J0D01*
G01*
X144479000Y-80364000D01*
G75*
G02*
X144404000Y-80289000I0J75000D01*
G01*
X144404000Y-78889000D01*
G75*
G02*
X144479000Y-78814000I75000J0D01*
G01*
X144629000Y-78814000D01*
G75*
G02*
X144704000Y-78889000I0J-75000D01*
G01*
G37*
G36*
G01*
X144204000Y-78889000D02*
X144204000Y-80289000D01*
G75*
G02*
X144129000Y-80364000I-75000J0D01*
G01*
X143979000Y-80364000D01*
G75*
G02*
X143904000Y-80289000I0J75000D01*
G01*
X143904000Y-78889000D01*
G75*
G02*
X143979000Y-78814000I75000J0D01*
G01*
X144129000Y-78814000D01*
G75*
G02*
X144204000Y-78889000I0J-75000D01*
G01*
G37*
G36*
G01*
X143704000Y-78889000D02*
X143704000Y-80289000D01*
G75*
G02*
X143629000Y-80364000I-75000J0D01*
G01*
X143479000Y-80364000D01*
G75*
G02*
X143404000Y-80289000I0J75000D01*
G01*
X143404000Y-78889000D01*
G75*
G02*
X143479000Y-78814000I75000J0D01*
G01*
X143629000Y-78814000D01*
G75*
G02*
X143704000Y-78889000I0J-75000D01*
G01*
G37*
G36*
G01*
X143204000Y-78889000D02*
X143204000Y-80289000D01*
G75*
G02*
X143129000Y-80364000I-75000J0D01*
G01*
X142979000Y-80364000D01*
G75*
G02*
X142904000Y-80289000I0J75000D01*
G01*
X142904000Y-78889000D01*
G75*
G02*
X142979000Y-78814000I75000J0D01*
G01*
X143129000Y-78814000D01*
G75*
G02*
X143204000Y-78889000I0J-75000D01*
G01*
G37*
G36*
G01*
X142704000Y-78889000D02*
X142704000Y-80289000D01*
G75*
G02*
X142629000Y-80364000I-75000J0D01*
G01*
X142479000Y-80364000D01*
G75*
G02*
X142404000Y-80289000I0J75000D01*
G01*
X142404000Y-78889000D01*
G75*
G02*
X142479000Y-78814000I75000J0D01*
G01*
X142629000Y-78814000D01*
G75*
G02*
X142704000Y-78889000I0J-75000D01*
G01*
G37*
G36*
G01*
X141404000Y-77589000D02*
X141404000Y-77739000D01*
G75*
G02*
X141329000Y-77814000I-75000J0D01*
G01*
X139929000Y-77814000D01*
G75*
G02*
X139854000Y-77739000I0J75000D01*
G01*
X139854000Y-77589000D01*
G75*
G02*
X139929000Y-77514000I75000J0D01*
G01*
X141329000Y-77514000D01*
G75*
G02*
X141404000Y-77589000I0J-75000D01*
G01*
G37*
G36*
G01*
X141404000Y-77089000D02*
X141404000Y-77239000D01*
G75*
G02*
X141329000Y-77314000I-75000J0D01*
G01*
X139929000Y-77314000D01*
G75*
G02*
X139854000Y-77239000I0J75000D01*
G01*
X139854000Y-77089000D01*
G75*
G02*
X139929000Y-77014000I75000J0D01*
G01*
X141329000Y-77014000D01*
G75*
G02*
X141404000Y-77089000I0J-75000D01*
G01*
G37*
G36*
G01*
X141404000Y-76589000D02*
X141404000Y-76739000D01*
G75*
G02*
X141329000Y-76814000I-75000J0D01*
G01*
X139929000Y-76814000D01*
G75*
G02*
X139854000Y-76739000I0J75000D01*
G01*
X139854000Y-76589000D01*
G75*
G02*
X139929000Y-76514000I75000J0D01*
G01*
X141329000Y-76514000D01*
G75*
G02*
X141404000Y-76589000I0J-75000D01*
G01*
G37*
G36*
G01*
X141404000Y-76089000D02*
X141404000Y-76239000D01*
G75*
G02*
X141329000Y-76314000I-75000J0D01*
G01*
X139929000Y-76314000D01*
G75*
G02*
X139854000Y-76239000I0J75000D01*
G01*
X139854000Y-76089000D01*
G75*
G02*
X139929000Y-76014000I75000J0D01*
G01*
X141329000Y-76014000D01*
G75*
G02*
X141404000Y-76089000I0J-75000D01*
G01*
G37*
G36*
G01*
X141404000Y-75589000D02*
X141404000Y-75739000D01*
G75*
G02*
X141329000Y-75814000I-75000J0D01*
G01*
X139929000Y-75814000D01*
G75*
G02*
X139854000Y-75739000I0J75000D01*
G01*
X139854000Y-75589000D01*
G75*
G02*
X139929000Y-75514000I75000J0D01*
G01*
X141329000Y-75514000D01*
G75*
G02*
X141404000Y-75589000I0J-75000D01*
G01*
G37*
G36*
G01*
X141404000Y-75089000D02*
X141404000Y-75239000D01*
G75*
G02*
X141329000Y-75314000I-75000J0D01*
G01*
X139929000Y-75314000D01*
G75*
G02*
X139854000Y-75239000I0J75000D01*
G01*
X139854000Y-75089000D01*
G75*
G02*
X139929000Y-75014000I75000J0D01*
G01*
X141329000Y-75014000D01*
G75*
G02*
X141404000Y-75089000I0J-75000D01*
G01*
G37*
G36*
G01*
X141404000Y-74589000D02*
X141404000Y-74739000D01*
G75*
G02*
X141329000Y-74814000I-75000J0D01*
G01*
X139929000Y-74814000D01*
G75*
G02*
X139854000Y-74739000I0J75000D01*
G01*
X139854000Y-74589000D01*
G75*
G02*
X139929000Y-74514000I75000J0D01*
G01*
X141329000Y-74514000D01*
G75*
G02*
X141404000Y-74589000I0J-75000D01*
G01*
G37*
G36*
G01*
X141404000Y-74089000D02*
X141404000Y-74239000D01*
G75*
G02*
X141329000Y-74314000I-75000J0D01*
G01*
X139929000Y-74314000D01*
G75*
G02*
X139854000Y-74239000I0J75000D01*
G01*
X139854000Y-74089000D01*
G75*
G02*
X139929000Y-74014000I75000J0D01*
G01*
X141329000Y-74014000D01*
G75*
G02*
X141404000Y-74089000I0J-75000D01*
G01*
G37*
G36*
G01*
X141404000Y-73589000D02*
X141404000Y-73739000D01*
G75*
G02*
X141329000Y-73814000I-75000J0D01*
G01*
X139929000Y-73814000D01*
G75*
G02*
X139854000Y-73739000I0J75000D01*
G01*
X139854000Y-73589000D01*
G75*
G02*
X139929000Y-73514000I75000J0D01*
G01*
X141329000Y-73514000D01*
G75*
G02*
X141404000Y-73589000I0J-75000D01*
G01*
G37*
G36*
G01*
X141404000Y-73089000D02*
X141404000Y-73239000D01*
G75*
G02*
X141329000Y-73314000I-75000J0D01*
G01*
X139929000Y-73314000D01*
G75*
G02*
X139854000Y-73239000I0J75000D01*
G01*
X139854000Y-73089000D01*
G75*
G02*
X139929000Y-73014000I75000J0D01*
G01*
X141329000Y-73014000D01*
G75*
G02*
X141404000Y-73089000I0J-75000D01*
G01*
G37*
G36*
G01*
X141404000Y-72589000D02*
X141404000Y-72739000D01*
G75*
G02*
X141329000Y-72814000I-75000J0D01*
G01*
X139929000Y-72814000D01*
G75*
G02*
X139854000Y-72739000I0J75000D01*
G01*
X139854000Y-72589000D01*
G75*
G02*
X139929000Y-72514000I75000J0D01*
G01*
X141329000Y-72514000D01*
G75*
G02*
X141404000Y-72589000I0J-75000D01*
G01*
G37*
G36*
G01*
X141404000Y-72089000D02*
X141404000Y-72239000D01*
G75*
G02*
X141329000Y-72314000I-75000J0D01*
G01*
X139929000Y-72314000D01*
G75*
G02*
X139854000Y-72239000I0J75000D01*
G01*
X139854000Y-72089000D01*
G75*
G02*
X139929000Y-72014000I75000J0D01*
G01*
X141329000Y-72014000D01*
G75*
G02*
X141404000Y-72089000I0J-75000D01*
G01*
G37*
G36*
G01*
X141404000Y-71589000D02*
X141404000Y-71739000D01*
G75*
G02*
X141329000Y-71814000I-75000J0D01*
G01*
X139929000Y-71814000D01*
G75*
G02*
X139854000Y-71739000I0J75000D01*
G01*
X139854000Y-71589000D01*
G75*
G02*
X139929000Y-71514000I75000J0D01*
G01*
X141329000Y-71514000D01*
G75*
G02*
X141404000Y-71589000I0J-75000D01*
G01*
G37*
G36*
G01*
X141404000Y-71089000D02*
X141404000Y-71239000D01*
G75*
G02*
X141329000Y-71314000I-75000J0D01*
G01*
X139929000Y-71314000D01*
G75*
G02*
X139854000Y-71239000I0J75000D01*
G01*
X139854000Y-71089000D01*
G75*
G02*
X139929000Y-71014000I75000J0D01*
G01*
X141329000Y-71014000D01*
G75*
G02*
X141404000Y-71089000I0J-75000D01*
G01*
G37*
G36*
G01*
X141404000Y-70589000D02*
X141404000Y-70739000D01*
G75*
G02*
X141329000Y-70814000I-75000J0D01*
G01*
X139929000Y-70814000D01*
G75*
G02*
X139854000Y-70739000I0J75000D01*
G01*
X139854000Y-70589000D01*
G75*
G02*
X139929000Y-70514000I75000J0D01*
G01*
X141329000Y-70514000D01*
G75*
G02*
X141404000Y-70589000I0J-75000D01*
G01*
G37*
G36*
G01*
X141404000Y-70089000D02*
X141404000Y-70239000D01*
G75*
G02*
X141329000Y-70314000I-75000J0D01*
G01*
X139929000Y-70314000D01*
G75*
G02*
X139854000Y-70239000I0J75000D01*
G01*
X139854000Y-70089000D01*
G75*
G02*
X139929000Y-70014000I75000J0D01*
G01*
X141329000Y-70014000D01*
G75*
G02*
X141404000Y-70089000I0J-75000D01*
G01*
G37*
G36*
G01*
X142704000Y-67539000D02*
X142704000Y-68939000D01*
G75*
G02*
X142629000Y-69014000I-75000J0D01*
G01*
X142479000Y-69014000D01*
G75*
G02*
X142404000Y-68939000I0J75000D01*
G01*
X142404000Y-67539000D01*
G75*
G02*
X142479000Y-67464000I75000J0D01*
G01*
X142629000Y-67464000D01*
G75*
G02*
X142704000Y-67539000I0J-75000D01*
G01*
G37*
G36*
G01*
X143204000Y-67539000D02*
X143204000Y-68939000D01*
G75*
G02*
X143129000Y-69014000I-75000J0D01*
G01*
X142979000Y-69014000D01*
G75*
G02*
X142904000Y-68939000I0J75000D01*
G01*
X142904000Y-67539000D01*
G75*
G02*
X142979000Y-67464000I75000J0D01*
G01*
X143129000Y-67464000D01*
G75*
G02*
X143204000Y-67539000I0J-75000D01*
G01*
G37*
G36*
G01*
X143704000Y-67539000D02*
X143704000Y-68939000D01*
G75*
G02*
X143629000Y-69014000I-75000J0D01*
G01*
X143479000Y-69014000D01*
G75*
G02*
X143404000Y-68939000I0J75000D01*
G01*
X143404000Y-67539000D01*
G75*
G02*
X143479000Y-67464000I75000J0D01*
G01*
X143629000Y-67464000D01*
G75*
G02*
X143704000Y-67539000I0J-75000D01*
G01*
G37*
G36*
G01*
X144204000Y-67539000D02*
X144204000Y-68939000D01*
G75*
G02*
X144129000Y-69014000I-75000J0D01*
G01*
X143979000Y-69014000D01*
G75*
G02*
X143904000Y-68939000I0J75000D01*
G01*
X143904000Y-67539000D01*
G75*
G02*
X143979000Y-67464000I75000J0D01*
G01*
X144129000Y-67464000D01*
G75*
G02*
X144204000Y-67539000I0J-75000D01*
G01*
G37*
G36*
G01*
X144704000Y-67539000D02*
X144704000Y-68939000D01*
G75*
G02*
X144629000Y-69014000I-75000J0D01*
G01*
X144479000Y-69014000D01*
G75*
G02*
X144404000Y-68939000I0J75000D01*
G01*
X144404000Y-67539000D01*
G75*
G02*
X144479000Y-67464000I75000J0D01*
G01*
X144629000Y-67464000D01*
G75*
G02*
X144704000Y-67539000I0J-75000D01*
G01*
G37*
G36*
G01*
X145204000Y-67539000D02*
X145204000Y-68939000D01*
G75*
G02*
X145129000Y-69014000I-75000J0D01*
G01*
X144979000Y-69014000D01*
G75*
G02*
X144904000Y-68939000I0J75000D01*
G01*
X144904000Y-67539000D01*
G75*
G02*
X144979000Y-67464000I75000J0D01*
G01*
X145129000Y-67464000D01*
G75*
G02*
X145204000Y-67539000I0J-75000D01*
G01*
G37*
G36*
G01*
X145704000Y-67539000D02*
X145704000Y-68939000D01*
G75*
G02*
X145629000Y-69014000I-75000J0D01*
G01*
X145479000Y-69014000D01*
G75*
G02*
X145404000Y-68939000I0J75000D01*
G01*
X145404000Y-67539000D01*
G75*
G02*
X145479000Y-67464000I75000J0D01*
G01*
X145629000Y-67464000D01*
G75*
G02*
X145704000Y-67539000I0J-75000D01*
G01*
G37*
G36*
G01*
X146204000Y-67539000D02*
X146204000Y-68939000D01*
G75*
G02*
X146129000Y-69014000I-75000J0D01*
G01*
X145979000Y-69014000D01*
G75*
G02*
X145904000Y-68939000I0J75000D01*
G01*
X145904000Y-67539000D01*
G75*
G02*
X145979000Y-67464000I75000J0D01*
G01*
X146129000Y-67464000D01*
G75*
G02*
X146204000Y-67539000I0J-75000D01*
G01*
G37*
G36*
G01*
X146704000Y-67539000D02*
X146704000Y-68939000D01*
G75*
G02*
X146629000Y-69014000I-75000J0D01*
G01*
X146479000Y-69014000D01*
G75*
G02*
X146404000Y-68939000I0J75000D01*
G01*
X146404000Y-67539000D01*
G75*
G02*
X146479000Y-67464000I75000J0D01*
G01*
X146629000Y-67464000D01*
G75*
G02*
X146704000Y-67539000I0J-75000D01*
G01*
G37*
G36*
G01*
X147204000Y-67539000D02*
X147204000Y-68939000D01*
G75*
G02*
X147129000Y-69014000I-75000J0D01*
G01*
X146979000Y-69014000D01*
G75*
G02*
X146904000Y-68939000I0J75000D01*
G01*
X146904000Y-67539000D01*
G75*
G02*
X146979000Y-67464000I75000J0D01*
G01*
X147129000Y-67464000D01*
G75*
G02*
X147204000Y-67539000I0J-75000D01*
G01*
G37*
G36*
G01*
X147704000Y-67539000D02*
X147704000Y-68939000D01*
G75*
G02*
X147629000Y-69014000I-75000J0D01*
G01*
X147479000Y-69014000D01*
G75*
G02*
X147404000Y-68939000I0J75000D01*
G01*
X147404000Y-67539000D01*
G75*
G02*
X147479000Y-67464000I75000J0D01*
G01*
X147629000Y-67464000D01*
G75*
G02*
X147704000Y-67539000I0J-75000D01*
G01*
G37*
G36*
G01*
X148204000Y-67539000D02*
X148204000Y-68939000D01*
G75*
G02*
X148129000Y-69014000I-75000J0D01*
G01*
X147979000Y-69014000D01*
G75*
G02*
X147904000Y-68939000I0J75000D01*
G01*
X147904000Y-67539000D01*
G75*
G02*
X147979000Y-67464000I75000J0D01*
G01*
X148129000Y-67464000D01*
G75*
G02*
X148204000Y-67539000I0J-75000D01*
G01*
G37*
G36*
G01*
X148704000Y-67539000D02*
X148704000Y-68939000D01*
G75*
G02*
X148629000Y-69014000I-75000J0D01*
G01*
X148479000Y-69014000D01*
G75*
G02*
X148404000Y-68939000I0J75000D01*
G01*
X148404000Y-67539000D01*
G75*
G02*
X148479000Y-67464000I75000J0D01*
G01*
X148629000Y-67464000D01*
G75*
G02*
X148704000Y-67539000I0J-75000D01*
G01*
G37*
G36*
G01*
X149204000Y-67539000D02*
X149204000Y-68939000D01*
G75*
G02*
X149129000Y-69014000I-75000J0D01*
G01*
X148979000Y-69014000D01*
G75*
G02*
X148904000Y-68939000I0J75000D01*
G01*
X148904000Y-67539000D01*
G75*
G02*
X148979000Y-67464000I75000J0D01*
G01*
X149129000Y-67464000D01*
G75*
G02*
X149204000Y-67539000I0J-75000D01*
G01*
G37*
G36*
G01*
X149704000Y-67539000D02*
X149704000Y-68939000D01*
G75*
G02*
X149629000Y-69014000I-75000J0D01*
G01*
X149479000Y-69014000D01*
G75*
G02*
X149404000Y-68939000I0J75000D01*
G01*
X149404000Y-67539000D01*
G75*
G02*
X149479000Y-67464000I75000J0D01*
G01*
X149629000Y-67464000D01*
G75*
G02*
X149704000Y-67539000I0J-75000D01*
G01*
G37*
G36*
G01*
X150204000Y-67539000D02*
X150204000Y-68939000D01*
G75*
G02*
X150129000Y-69014000I-75000J0D01*
G01*
X149979000Y-69014000D01*
G75*
G02*
X149904000Y-68939000I0J75000D01*
G01*
X149904000Y-67539000D01*
G75*
G02*
X149979000Y-67464000I75000J0D01*
G01*
X150129000Y-67464000D01*
G75*
G02*
X150204000Y-67539000I0J-75000D01*
G01*
G37*
G36*
G01*
X152754000Y-70089000D02*
X152754000Y-70239000D01*
G75*
G02*
X152679000Y-70314000I-75000J0D01*
G01*
X151279000Y-70314000D01*
G75*
G02*
X151204000Y-70239000I0J75000D01*
G01*
X151204000Y-70089000D01*
G75*
G02*
X151279000Y-70014000I75000J0D01*
G01*
X152679000Y-70014000D01*
G75*
G02*
X152754000Y-70089000I0J-75000D01*
G01*
G37*
G36*
G01*
X152754000Y-70589000D02*
X152754000Y-70739000D01*
G75*
G02*
X152679000Y-70814000I-75000J0D01*
G01*
X151279000Y-70814000D01*
G75*
G02*
X151204000Y-70739000I0J75000D01*
G01*
X151204000Y-70589000D01*
G75*
G02*
X151279000Y-70514000I75000J0D01*
G01*
X152679000Y-70514000D01*
G75*
G02*
X152754000Y-70589000I0J-75000D01*
G01*
G37*
G36*
G01*
X152754000Y-71089000D02*
X152754000Y-71239000D01*
G75*
G02*
X152679000Y-71314000I-75000J0D01*
G01*
X151279000Y-71314000D01*
G75*
G02*
X151204000Y-71239000I0J75000D01*
G01*
X151204000Y-71089000D01*
G75*
G02*
X151279000Y-71014000I75000J0D01*
G01*
X152679000Y-71014000D01*
G75*
G02*
X152754000Y-71089000I0J-75000D01*
G01*
G37*
G36*
G01*
X152754000Y-71589000D02*
X152754000Y-71739000D01*
G75*
G02*
X152679000Y-71814000I-75000J0D01*
G01*
X151279000Y-71814000D01*
G75*
G02*
X151204000Y-71739000I0J75000D01*
G01*
X151204000Y-71589000D01*
G75*
G02*
X151279000Y-71514000I75000J0D01*
G01*
X152679000Y-71514000D01*
G75*
G02*
X152754000Y-71589000I0J-75000D01*
G01*
G37*
G36*
G01*
X152754000Y-72089000D02*
X152754000Y-72239000D01*
G75*
G02*
X152679000Y-72314000I-75000J0D01*
G01*
X151279000Y-72314000D01*
G75*
G02*
X151204000Y-72239000I0J75000D01*
G01*
X151204000Y-72089000D01*
G75*
G02*
X151279000Y-72014000I75000J0D01*
G01*
X152679000Y-72014000D01*
G75*
G02*
X152754000Y-72089000I0J-75000D01*
G01*
G37*
G36*
G01*
X152754000Y-72589000D02*
X152754000Y-72739000D01*
G75*
G02*
X152679000Y-72814000I-75000J0D01*
G01*
X151279000Y-72814000D01*
G75*
G02*
X151204000Y-72739000I0J75000D01*
G01*
X151204000Y-72589000D01*
G75*
G02*
X151279000Y-72514000I75000J0D01*
G01*
X152679000Y-72514000D01*
G75*
G02*
X152754000Y-72589000I0J-75000D01*
G01*
G37*
G36*
G01*
X152754000Y-73089000D02*
X152754000Y-73239000D01*
G75*
G02*
X152679000Y-73314000I-75000J0D01*
G01*
X151279000Y-73314000D01*
G75*
G02*
X151204000Y-73239000I0J75000D01*
G01*
X151204000Y-73089000D01*
G75*
G02*
X151279000Y-73014000I75000J0D01*
G01*
X152679000Y-73014000D01*
G75*
G02*
X152754000Y-73089000I0J-75000D01*
G01*
G37*
G36*
G01*
X152754000Y-73589000D02*
X152754000Y-73739000D01*
G75*
G02*
X152679000Y-73814000I-75000J0D01*
G01*
X151279000Y-73814000D01*
G75*
G02*
X151204000Y-73739000I0J75000D01*
G01*
X151204000Y-73589000D01*
G75*
G02*
X151279000Y-73514000I75000J0D01*
G01*
X152679000Y-73514000D01*
G75*
G02*
X152754000Y-73589000I0J-75000D01*
G01*
G37*
G36*
G01*
X152754000Y-74089000D02*
X152754000Y-74239000D01*
G75*
G02*
X152679000Y-74314000I-75000J0D01*
G01*
X151279000Y-74314000D01*
G75*
G02*
X151204000Y-74239000I0J75000D01*
G01*
X151204000Y-74089000D01*
G75*
G02*
X151279000Y-74014000I75000J0D01*
G01*
X152679000Y-74014000D01*
G75*
G02*
X152754000Y-74089000I0J-75000D01*
G01*
G37*
G36*
G01*
X152754000Y-74589000D02*
X152754000Y-74739000D01*
G75*
G02*
X152679000Y-74814000I-75000J0D01*
G01*
X151279000Y-74814000D01*
G75*
G02*
X151204000Y-74739000I0J75000D01*
G01*
X151204000Y-74589000D01*
G75*
G02*
X151279000Y-74514000I75000J0D01*
G01*
X152679000Y-74514000D01*
G75*
G02*
X152754000Y-74589000I0J-75000D01*
G01*
G37*
G36*
G01*
X152754000Y-75089000D02*
X152754000Y-75239000D01*
G75*
G02*
X152679000Y-75314000I-75000J0D01*
G01*
X151279000Y-75314000D01*
G75*
G02*
X151204000Y-75239000I0J75000D01*
G01*
X151204000Y-75089000D01*
G75*
G02*
X151279000Y-75014000I75000J0D01*
G01*
X152679000Y-75014000D01*
G75*
G02*
X152754000Y-75089000I0J-75000D01*
G01*
G37*
G36*
G01*
X152754000Y-75589000D02*
X152754000Y-75739000D01*
G75*
G02*
X152679000Y-75814000I-75000J0D01*
G01*
X151279000Y-75814000D01*
G75*
G02*
X151204000Y-75739000I0J75000D01*
G01*
X151204000Y-75589000D01*
G75*
G02*
X151279000Y-75514000I75000J0D01*
G01*
X152679000Y-75514000D01*
G75*
G02*
X152754000Y-75589000I0J-75000D01*
G01*
G37*
G36*
G01*
X152754000Y-76089000D02*
X152754000Y-76239000D01*
G75*
G02*
X152679000Y-76314000I-75000J0D01*
G01*
X151279000Y-76314000D01*
G75*
G02*
X151204000Y-76239000I0J75000D01*
G01*
X151204000Y-76089000D01*
G75*
G02*
X151279000Y-76014000I75000J0D01*
G01*
X152679000Y-76014000D01*
G75*
G02*
X152754000Y-76089000I0J-75000D01*
G01*
G37*
G36*
G01*
X152754000Y-76589000D02*
X152754000Y-76739000D01*
G75*
G02*
X152679000Y-76814000I-75000J0D01*
G01*
X151279000Y-76814000D01*
G75*
G02*
X151204000Y-76739000I0J75000D01*
G01*
X151204000Y-76589000D01*
G75*
G02*
X151279000Y-76514000I75000J0D01*
G01*
X152679000Y-76514000D01*
G75*
G02*
X152754000Y-76589000I0J-75000D01*
G01*
G37*
G36*
G01*
X152754000Y-77089000D02*
X152754000Y-77239000D01*
G75*
G02*
X152679000Y-77314000I-75000J0D01*
G01*
X151279000Y-77314000D01*
G75*
G02*
X151204000Y-77239000I0J75000D01*
G01*
X151204000Y-77089000D01*
G75*
G02*
X151279000Y-77014000I75000J0D01*
G01*
X152679000Y-77014000D01*
G75*
G02*
X152754000Y-77089000I0J-75000D01*
G01*
G37*
G36*
G01*
X152754000Y-77589000D02*
X152754000Y-77739000D01*
G75*
G02*
X152679000Y-77814000I-75000J0D01*
G01*
X151279000Y-77814000D01*
G75*
G02*
X151204000Y-77739000I0J75000D01*
G01*
X151204000Y-77589000D01*
G75*
G02*
X151279000Y-77514000I75000J0D01*
G01*
X152679000Y-77514000D01*
G75*
G02*
X152754000Y-77589000I0J-75000D01*
G01*
G37*
%TD*%
%TO.C,C28*%
G36*
G01*
X144343000Y-61705500D02*
X144343000Y-61230500D01*
G75*
G02*
X144580500Y-60993000I237500J0D01*
G01*
X145180500Y-60993000D01*
G75*
G02*
X145418000Y-61230500I0J-237500D01*
G01*
X145418000Y-61705500D01*
G75*
G02*
X145180500Y-61943000I-237500J0D01*
G01*
X144580500Y-61943000D01*
G75*
G02*
X144343000Y-61705500I0J237500D01*
G01*
G37*
G36*
G01*
X142618000Y-61705500D02*
X142618000Y-61230500D01*
G75*
G02*
X142855500Y-60993000I237500J0D01*
G01*
X143455500Y-60993000D01*
G75*
G02*
X143693000Y-61230500I0J-237500D01*
G01*
X143693000Y-61705500D01*
G75*
G02*
X143455500Y-61943000I-237500J0D01*
G01*
X142855500Y-61943000D01*
G75*
G02*
X142618000Y-61705500I0J237500D01*
G01*
G37*
%TD*%
%TO.C,C32*%
G36*
G01*
X149410000Y-84107000D02*
X149410000Y-85057000D01*
G75*
G02*
X149160000Y-85307000I-250000J0D01*
G01*
X148485000Y-85307000D01*
G75*
G02*
X148235000Y-85057000I0J250000D01*
G01*
X148235000Y-84107000D01*
G75*
G02*
X148485000Y-83857000I250000J0D01*
G01*
X149160000Y-83857000D01*
G75*
G02*
X149410000Y-84107000I0J-250000D01*
G01*
G37*
G36*
G01*
X151485000Y-84107000D02*
X151485000Y-85057000D01*
G75*
G02*
X151235000Y-85307000I-250000J0D01*
G01*
X150560000Y-85307000D01*
G75*
G02*
X150310000Y-85057000I0J250000D01*
G01*
X150310000Y-84107000D01*
G75*
G02*
X150560000Y-83857000I250000J0D01*
G01*
X151235000Y-83857000D01*
G75*
G02*
X151485000Y-84107000I0J-250000D01*
G01*
G37*
%TD*%
%TO.C,C27*%
G36*
G01*
X156193500Y-76129000D02*
X155718500Y-76129000D01*
G75*
G02*
X155481000Y-75891500I0J237500D01*
G01*
X155481000Y-75291500D01*
G75*
G02*
X155718500Y-75054000I237500J0D01*
G01*
X156193500Y-75054000D01*
G75*
G02*
X156431000Y-75291500I0J-237500D01*
G01*
X156431000Y-75891500D01*
G75*
G02*
X156193500Y-76129000I-237500J0D01*
G01*
G37*
G36*
G01*
X156193500Y-77854000D02*
X155718500Y-77854000D01*
G75*
G02*
X155481000Y-77616500I0J237500D01*
G01*
X155481000Y-77016500D01*
G75*
G02*
X155718500Y-76779000I237500J0D01*
G01*
X156193500Y-76779000D01*
G75*
G02*
X156431000Y-77016500I0J-237500D01*
G01*
X156431000Y-77616500D01*
G75*
G02*
X156193500Y-77854000I-237500J0D01*
G01*
G37*
%TD*%
%TO.C,C24*%
G36*
G01*
X155718500Y-71445000D02*
X156193500Y-71445000D01*
G75*
G02*
X156431000Y-71682500I0J-237500D01*
G01*
X156431000Y-72282500D01*
G75*
G02*
X156193500Y-72520000I-237500J0D01*
G01*
X155718500Y-72520000D01*
G75*
G02*
X155481000Y-72282500I0J237500D01*
G01*
X155481000Y-71682500D01*
G75*
G02*
X155718500Y-71445000I237500J0D01*
G01*
G37*
G36*
G01*
X155718500Y-69720000D02*
X156193500Y-69720000D01*
G75*
G02*
X156431000Y-69957500I0J-237500D01*
G01*
X156431000Y-70557500D01*
G75*
G02*
X156193500Y-70795000I-237500J0D01*
G01*
X155718500Y-70795000D01*
G75*
G02*
X155481000Y-70557500I0J237500D01*
G01*
X155481000Y-69957500D01*
G75*
G02*
X155718500Y-69720000I237500J0D01*
G01*
G37*
%TD*%
D12*
%TO.C,Y1*%
X150114000Y-89476000D03*
X150114000Y-97976000D03*
%TD*%
%TO.C,C13*%
G36*
G01*
X179357000Y-121840500D02*
X180307000Y-121840500D01*
G75*
G02*
X180557000Y-122090500I0J-250000D01*
G01*
X180557000Y-122765500D01*
G75*
G02*
X180307000Y-123015500I-250000J0D01*
G01*
X179357000Y-123015500D01*
G75*
G02*
X179107000Y-122765500I0J250000D01*
G01*
X179107000Y-122090500D01*
G75*
G02*
X179357000Y-121840500I250000J0D01*
G01*
G37*
G36*
G01*
X179357000Y-119765500D02*
X180307000Y-119765500D01*
G75*
G02*
X180557000Y-120015500I0J-250000D01*
G01*
X180557000Y-120690500D01*
G75*
G02*
X180307000Y-120940500I-250000J0D01*
G01*
X179357000Y-120940500D01*
G75*
G02*
X179107000Y-120690500I0J250000D01*
G01*
X179107000Y-120015500D01*
G75*
G02*
X179357000Y-119765500I250000J0D01*
G01*
G37*
%TD*%
%TO.C,C11*%
G36*
G01*
X181626500Y-120266000D02*
X182101500Y-120266000D01*
G75*
G02*
X182339000Y-120503500I0J-237500D01*
G01*
X182339000Y-121103500D01*
G75*
G02*
X182101500Y-121341000I-237500J0D01*
G01*
X181626500Y-121341000D01*
G75*
G02*
X181389000Y-121103500I0J237500D01*
G01*
X181389000Y-120503500D01*
G75*
G02*
X181626500Y-120266000I237500J0D01*
G01*
G37*
G36*
G01*
X181626500Y-121991000D02*
X182101500Y-121991000D01*
G75*
G02*
X182339000Y-122228500I0J-237500D01*
G01*
X182339000Y-122828500D01*
G75*
G02*
X182101500Y-123066000I-237500J0D01*
G01*
X181626500Y-123066000D01*
G75*
G02*
X181389000Y-122828500I0J237500D01*
G01*
X181389000Y-122228500D01*
G75*
G02*
X181626500Y-121991000I237500J0D01*
G01*
G37*
%TD*%
D13*
%TO.C,SW2*%
X131608000Y-99225000D03*
X136108000Y-99225000D03*
X136108000Y-91275000D03*
X131608000Y-91275000D03*
%TD*%
%TO.C,R15*%
G36*
G01*
X180905999Y-107636000D02*
X181806001Y-107636000D01*
G75*
G02*
X182056000Y-107885999I0J-249999D01*
G01*
X182056000Y-108586001D01*
G75*
G02*
X181806001Y-108836000I-249999J0D01*
G01*
X180905999Y-108836000D01*
G75*
G02*
X180656000Y-108586001I0J249999D01*
G01*
X180656000Y-107885999D01*
G75*
G02*
X180905999Y-107636000I249999J0D01*
G01*
G37*
G36*
G01*
X180905999Y-109636000D02*
X181806001Y-109636000D01*
G75*
G02*
X182056000Y-109885999I0J-249999D01*
G01*
X182056000Y-110586001D01*
G75*
G02*
X181806001Y-110836000I-249999J0D01*
G01*
X180905999Y-110836000D01*
G75*
G02*
X180656000Y-110586001I0J249999D01*
G01*
X180656000Y-109885999D01*
G75*
G02*
X180905999Y-109636000I249999J0D01*
G01*
G37*
%TD*%
%TO.C,C9*%
G36*
G01*
X147908000Y-121964500D02*
X148383000Y-121964500D01*
G75*
G02*
X148620500Y-122202000I0J-237500D01*
G01*
X148620500Y-122802000D01*
G75*
G02*
X148383000Y-123039500I-237500J0D01*
G01*
X147908000Y-123039500D01*
G75*
G02*
X147670500Y-122802000I0J237500D01*
G01*
X147670500Y-122202000D01*
G75*
G02*
X147908000Y-121964500I237500J0D01*
G01*
G37*
G36*
G01*
X147908000Y-120239500D02*
X148383000Y-120239500D01*
G75*
G02*
X148620500Y-120477000I0J-237500D01*
G01*
X148620500Y-121077000D01*
G75*
G02*
X148383000Y-121314500I-237500J0D01*
G01*
X147908000Y-121314500D01*
G75*
G02*
X147670500Y-121077000I0J237500D01*
G01*
X147670500Y-120477000D01*
G75*
G02*
X147908000Y-120239500I237500J0D01*
G01*
G37*
%TD*%
%TO.C,D4*%
G36*
G01*
X126305000Y-87433999D02*
X126305000Y-88334001D01*
G75*
G02*
X126055001Y-88584000I-249999J0D01*
G01*
X125404999Y-88584000D01*
G75*
G02*
X125155000Y-88334001I0J249999D01*
G01*
X125155000Y-87433999D01*
G75*
G02*
X125404999Y-87184000I249999J0D01*
G01*
X126055001Y-87184000D01*
G75*
G02*
X126305000Y-87433999I0J-249999D01*
G01*
G37*
G36*
G01*
X128355000Y-87433999D02*
X128355000Y-88334001D01*
G75*
G02*
X128105001Y-88584000I-249999J0D01*
G01*
X127454999Y-88584000D01*
G75*
G02*
X127205000Y-88334001I0J249999D01*
G01*
X127205000Y-87433999D01*
G75*
G02*
X127454999Y-87184000I249999J0D01*
G01*
X128105001Y-87184000D01*
G75*
G02*
X128355000Y-87433999I0J-249999D01*
G01*
G37*
%TD*%
%TO.C,C15*%
G36*
G01*
X109236500Y-122017500D02*
X109711500Y-122017500D01*
G75*
G02*
X109949000Y-122255000I0J-237500D01*
G01*
X109949000Y-122855000D01*
G75*
G02*
X109711500Y-123092500I-237500J0D01*
G01*
X109236500Y-123092500D01*
G75*
G02*
X108999000Y-122855000I0J237500D01*
G01*
X108999000Y-122255000D01*
G75*
G02*
X109236500Y-122017500I237500J0D01*
G01*
G37*
G36*
G01*
X109236500Y-120292500D02*
X109711500Y-120292500D01*
G75*
G02*
X109949000Y-120530000I0J-237500D01*
G01*
X109949000Y-121130000D01*
G75*
G02*
X109711500Y-121367500I-237500J0D01*
G01*
X109236500Y-121367500D01*
G75*
G02*
X108999000Y-121130000I0J237500D01*
G01*
X108999000Y-120530000D01*
G75*
G02*
X109236500Y-120292500I237500J0D01*
G01*
G37*
%TD*%
%TO.C,D3*%
G36*
G01*
X126305000Y-89719999D02*
X126305000Y-90620001D01*
G75*
G02*
X126055001Y-90870000I-249999J0D01*
G01*
X125404999Y-90870000D01*
G75*
G02*
X125155000Y-90620001I0J249999D01*
G01*
X125155000Y-89719999D01*
G75*
G02*
X125404999Y-89470000I249999J0D01*
G01*
X126055001Y-89470000D01*
G75*
G02*
X126305000Y-89719999I0J-249999D01*
G01*
G37*
G36*
G01*
X128355000Y-89719999D02*
X128355000Y-90620001D01*
G75*
G02*
X128105001Y-90870000I-249999J0D01*
G01*
X127454999Y-90870000D01*
G75*
G02*
X127205000Y-90620001I0J249999D01*
G01*
X127205000Y-89719999D01*
G75*
G02*
X127454999Y-89470000I249999J0D01*
G01*
X128105001Y-89470000D01*
G75*
G02*
X128355000Y-89719999I0J-249999D01*
G01*
G37*
%TD*%
D14*
%TO.C,D7*%
X126746000Y-59650000D03*
X126746000Y-54650000D03*
%TD*%
%TO.C,C3*%
G36*
G01*
X148886000Y-54830000D02*
X147786000Y-54830000D01*
G75*
G02*
X147536000Y-54580000I0J250000D01*
G01*
X147536000Y-51580000D01*
G75*
G02*
X147786000Y-51330000I250000J0D01*
G01*
X148886000Y-51330000D01*
G75*
G02*
X149136000Y-51580000I0J-250000D01*
G01*
X149136000Y-54580000D01*
G75*
G02*
X148886000Y-54830000I-250000J0D01*
G01*
G37*
G36*
G01*
X148886000Y-60430000D02*
X147786000Y-60430000D01*
G75*
G02*
X147536000Y-60180000I0J250000D01*
G01*
X147536000Y-57180000D01*
G75*
G02*
X147786000Y-56930000I250000J0D01*
G01*
X148886000Y-56930000D01*
G75*
G02*
X149136000Y-57180000I0J-250000D01*
G01*
X149136000Y-60180000D01*
G75*
G02*
X148886000Y-60430000I-250000J0D01*
G01*
G37*
%TD*%
%TO.C,R11*%
G36*
G01*
X166786000Y-46424001D02*
X166786000Y-45523999D01*
G75*
G02*
X167035999Y-45274000I249999J0D01*
G01*
X167736001Y-45274000D01*
G75*
G02*
X167986000Y-45523999I0J-249999D01*
G01*
X167986000Y-46424001D01*
G75*
G02*
X167736001Y-46674000I-249999J0D01*
G01*
X167035999Y-46674000D01*
G75*
G02*
X166786000Y-46424001I0J249999D01*
G01*
G37*
G36*
G01*
X164786000Y-46424001D02*
X164786000Y-45523999D01*
G75*
G02*
X165035999Y-45274000I249999J0D01*
G01*
X165736001Y-45274000D01*
G75*
G02*
X165986000Y-45523999I0J-249999D01*
G01*
X165986000Y-46424001D01*
G75*
G02*
X165736001Y-46674000I-249999J0D01*
G01*
X165035999Y-46674000D01*
G75*
G02*
X164786000Y-46424001I0J249999D01*
G01*
G37*
%TD*%
%TO.C,C10*%
G36*
G01*
X149639000Y-121840500D02*
X150589000Y-121840500D01*
G75*
G02*
X150839000Y-122090500I0J-250000D01*
G01*
X150839000Y-122765500D01*
G75*
G02*
X150589000Y-123015500I-250000J0D01*
G01*
X149639000Y-123015500D01*
G75*
G02*
X149389000Y-122765500I0J250000D01*
G01*
X149389000Y-122090500D01*
G75*
G02*
X149639000Y-121840500I250000J0D01*
G01*
G37*
G36*
G01*
X149639000Y-119765500D02*
X150589000Y-119765500D01*
G75*
G02*
X150839000Y-120015500I0J-250000D01*
G01*
X150839000Y-120690500D01*
G75*
G02*
X150589000Y-120940500I-250000J0D01*
G01*
X149639000Y-120940500D01*
G75*
G02*
X149389000Y-120690500I0J250000D01*
G01*
X149389000Y-120015500D01*
G75*
G02*
X149639000Y-119765500I250000J0D01*
G01*
G37*
%TD*%
%TO.C,C16*%
G36*
G01*
X112809000Y-121840500D02*
X113759000Y-121840500D01*
G75*
G02*
X114009000Y-122090500I0J-250000D01*
G01*
X114009000Y-122765500D01*
G75*
G02*
X113759000Y-123015500I-250000J0D01*
G01*
X112809000Y-123015500D01*
G75*
G02*
X112559000Y-122765500I0J250000D01*
G01*
X112559000Y-122090500D01*
G75*
G02*
X112809000Y-121840500I250000J0D01*
G01*
G37*
G36*
G01*
X112809000Y-119765500D02*
X113759000Y-119765500D01*
G75*
G02*
X114009000Y-120015500I0J-250000D01*
G01*
X114009000Y-120690500D01*
G75*
G02*
X113759000Y-120940500I-250000J0D01*
G01*
X112809000Y-120940500D01*
G75*
G02*
X112559000Y-120690500I0J250000D01*
G01*
X112559000Y-120015500D01*
G75*
G02*
X112809000Y-119765500I250000J0D01*
G01*
G37*
%TD*%
%TO.C,C31*%
G36*
G01*
X149635500Y-82312500D02*
X149635500Y-82787500D01*
G75*
G02*
X149398000Y-83025000I-237500J0D01*
G01*
X148798000Y-83025000D01*
G75*
G02*
X148560500Y-82787500I0J237500D01*
G01*
X148560500Y-82312500D01*
G75*
G02*
X148798000Y-82075000I237500J0D01*
G01*
X149398000Y-82075000D01*
G75*
G02*
X149635500Y-82312500I0J-237500D01*
G01*
G37*
G36*
G01*
X151360500Y-82312500D02*
X151360500Y-82787500D01*
G75*
G02*
X151123000Y-83025000I-237500J0D01*
G01*
X150523000Y-83025000D01*
G75*
G02*
X150285500Y-82787500I0J237500D01*
G01*
X150285500Y-82312500D01*
G75*
G02*
X150523000Y-82075000I237500J0D01*
G01*
X151123000Y-82075000D01*
G75*
G02*
X151360500Y-82312500I0J-237500D01*
G01*
G37*
%TD*%
%TO.C,C29*%
G36*
G01*
X136635500Y-77145000D02*
X136160500Y-77145000D01*
G75*
G02*
X135923000Y-76907500I0J237500D01*
G01*
X135923000Y-76307500D01*
G75*
G02*
X136160500Y-76070000I237500J0D01*
G01*
X136635500Y-76070000D01*
G75*
G02*
X136873000Y-76307500I0J-237500D01*
G01*
X136873000Y-76907500D01*
G75*
G02*
X136635500Y-77145000I-237500J0D01*
G01*
G37*
G36*
G01*
X136635500Y-78870000D02*
X136160500Y-78870000D01*
G75*
G02*
X135923000Y-78632500I0J237500D01*
G01*
X135923000Y-78032500D01*
G75*
G02*
X136160500Y-77795000I237500J0D01*
G01*
X136635500Y-77795000D01*
G75*
G02*
X136873000Y-78032500I0J-237500D01*
G01*
X136873000Y-78632500D01*
G75*
G02*
X136635500Y-78870000I-237500J0D01*
G01*
G37*
%TD*%
%TO.C,R12*%
G36*
G01*
X147631999Y-109604000D02*
X148532001Y-109604000D01*
G75*
G02*
X148782000Y-109853999I0J-249999D01*
G01*
X148782000Y-110554001D01*
G75*
G02*
X148532001Y-110804000I-249999J0D01*
G01*
X147631999Y-110804000D01*
G75*
G02*
X147382000Y-110554001I0J249999D01*
G01*
X147382000Y-109853999D01*
G75*
G02*
X147631999Y-109604000I249999J0D01*
G01*
G37*
G36*
G01*
X147631999Y-107604000D02*
X148532001Y-107604000D01*
G75*
G02*
X148782000Y-107853999I0J-249999D01*
G01*
X148782000Y-108554001D01*
G75*
G02*
X148532001Y-108804000I-249999J0D01*
G01*
X147631999Y-108804000D01*
G75*
G02*
X147382000Y-108554001I0J249999D01*
G01*
X147382000Y-107853999D01*
G75*
G02*
X147631999Y-107604000I249999J0D01*
G01*
G37*
%TD*%
%TO.C,R10*%
G36*
G01*
X166786000Y-48964001D02*
X166786000Y-48063999D01*
G75*
G02*
X167035999Y-47814000I249999J0D01*
G01*
X167736001Y-47814000D01*
G75*
G02*
X167986000Y-48063999I0J-249999D01*
G01*
X167986000Y-48964001D01*
G75*
G02*
X167736001Y-49214000I-249999J0D01*
G01*
X167035999Y-49214000D01*
G75*
G02*
X166786000Y-48964001I0J249999D01*
G01*
G37*
G36*
G01*
X164786000Y-48964001D02*
X164786000Y-48063999D01*
G75*
G02*
X165035999Y-47814000I249999J0D01*
G01*
X165736001Y-47814000D01*
G75*
G02*
X165986000Y-48063999I0J-249999D01*
G01*
X165986000Y-48964001D01*
G75*
G02*
X165736001Y-49214000I-249999J0D01*
G01*
X165035999Y-49214000D01*
G75*
G02*
X164786000Y-48964001I0J249999D01*
G01*
G37*
%TD*%
%TO.C,R14*%
G36*
G01*
X183191999Y-107636000D02*
X184092001Y-107636000D01*
G75*
G02*
X184342000Y-107885999I0J-249999D01*
G01*
X184342000Y-108586001D01*
G75*
G02*
X184092001Y-108836000I-249999J0D01*
G01*
X183191999Y-108836000D01*
G75*
G02*
X182942000Y-108586001I0J249999D01*
G01*
X182942000Y-107885999D01*
G75*
G02*
X183191999Y-107636000I249999J0D01*
G01*
G37*
G36*
G01*
X183191999Y-109636000D02*
X184092001Y-109636000D01*
G75*
G02*
X184342000Y-109885999I0J-249999D01*
G01*
X184342000Y-110586001D01*
G75*
G02*
X184092001Y-110836000I-249999J0D01*
G01*
X183191999Y-110836000D01*
G75*
G02*
X182942000Y-110586001I0J249999D01*
G01*
X182942000Y-109885999D01*
G75*
G02*
X183191999Y-109636000I249999J0D01*
G01*
G37*
%TD*%
%TO.C,R13*%
G36*
G01*
X145345999Y-109636000D02*
X146246001Y-109636000D01*
G75*
G02*
X146496000Y-109885999I0J-249999D01*
G01*
X146496000Y-110586001D01*
G75*
G02*
X146246001Y-110836000I-249999J0D01*
G01*
X145345999Y-110836000D01*
G75*
G02*
X145096000Y-110586001I0J249999D01*
G01*
X145096000Y-109885999D01*
G75*
G02*
X145345999Y-109636000I249999J0D01*
G01*
G37*
G36*
G01*
X145345999Y-107636000D02*
X146246001Y-107636000D01*
G75*
G02*
X146496000Y-107885999I0J-249999D01*
G01*
X146496000Y-108586001D01*
G75*
G02*
X146246001Y-108836000I-249999J0D01*
G01*
X145345999Y-108836000D01*
G75*
G02*
X145096000Y-108586001I0J249999D01*
G01*
X145096000Y-107885999D01*
G75*
G02*
X145345999Y-107636000I249999J0D01*
G01*
G37*
%TD*%
%TO.C,C26*%
G36*
G01*
X134857500Y-77145000D02*
X134382500Y-77145000D01*
G75*
G02*
X134145000Y-76907500I0J237500D01*
G01*
X134145000Y-76307500D01*
G75*
G02*
X134382500Y-76070000I237500J0D01*
G01*
X134857500Y-76070000D01*
G75*
G02*
X135095000Y-76307500I0J-237500D01*
G01*
X135095000Y-76907500D01*
G75*
G02*
X134857500Y-77145000I-237500J0D01*
G01*
G37*
G36*
G01*
X134857500Y-78870000D02*
X134382500Y-78870000D01*
G75*
G02*
X134145000Y-78632500I0J237500D01*
G01*
X134145000Y-78032500D01*
G75*
G02*
X134382500Y-77795000I237500J0D01*
G01*
X134857500Y-77795000D01*
G75*
G02*
X135095000Y-78032500I0J-237500D01*
G01*
X135095000Y-78632500D01*
G75*
G02*
X134857500Y-78870000I-237500J0D01*
G01*
G37*
%TD*%
%TO.C,C5*%
G36*
G01*
X128236000Y-73110000D02*
X128236000Y-74210000D01*
G75*
G02*
X127986000Y-74460000I-250000J0D01*
G01*
X124986000Y-74460000D01*
G75*
G02*
X124736000Y-74210000I0J250000D01*
G01*
X124736000Y-73110000D01*
G75*
G02*
X124986000Y-72860000I250000J0D01*
G01*
X127986000Y-72860000D01*
G75*
G02*
X128236000Y-73110000I0J-250000D01*
G01*
G37*
G36*
G01*
X133836000Y-73110000D02*
X133836000Y-74210000D01*
G75*
G02*
X133586000Y-74460000I-250000J0D01*
G01*
X130586000Y-74460000D01*
G75*
G02*
X130336000Y-74210000I0J250000D01*
G01*
X130336000Y-73110000D01*
G75*
G02*
X130586000Y-72860000I250000J0D01*
G01*
X133586000Y-72860000D01*
G75*
G02*
X133836000Y-73110000I0J-250000D01*
G01*
G37*
%TD*%
%TO.C,D5*%
G36*
G01*
X126305000Y-85147999D02*
X126305000Y-86048001D01*
G75*
G02*
X126055001Y-86298000I-249999J0D01*
G01*
X125404999Y-86298000D01*
G75*
G02*
X125155000Y-86048001I0J249999D01*
G01*
X125155000Y-85147999D01*
G75*
G02*
X125404999Y-84898000I249999J0D01*
G01*
X126055001Y-84898000D01*
G75*
G02*
X126305000Y-85147999I0J-249999D01*
G01*
G37*
G36*
G01*
X128355000Y-85147999D02*
X128355000Y-86048001D01*
G75*
G02*
X128105001Y-86298000I-249999J0D01*
G01*
X127454999Y-86298000D01*
G75*
G02*
X127205000Y-86048001I0J249999D01*
G01*
X127205000Y-85147999D01*
G75*
G02*
X127454999Y-84898000I249999J0D01*
G01*
X128105001Y-84898000D01*
G75*
G02*
X128355000Y-85147999I0J-249999D01*
G01*
G37*
%TD*%
%TO.C,C4*%
G36*
G01*
X141266000Y-54830000D02*
X140166000Y-54830000D01*
G75*
G02*
X139916000Y-54580000I0J250000D01*
G01*
X139916000Y-51580000D01*
G75*
G02*
X140166000Y-51330000I250000J0D01*
G01*
X141266000Y-51330000D01*
G75*
G02*
X141516000Y-51580000I0J-250000D01*
G01*
X141516000Y-54580000D01*
G75*
G02*
X141266000Y-54830000I-250000J0D01*
G01*
G37*
G36*
G01*
X141266000Y-60430000D02*
X140166000Y-60430000D01*
G75*
G02*
X139916000Y-60180000I0J250000D01*
G01*
X139916000Y-57180000D01*
G75*
G02*
X140166000Y-56930000I250000J0D01*
G01*
X141266000Y-56930000D01*
G75*
G02*
X141516000Y-57180000I0J-250000D01*
G01*
X141516000Y-60180000D01*
G75*
G02*
X141266000Y-60430000I-250000J0D01*
G01*
G37*
%TD*%
%TO.C,R17*%
G36*
G01*
X108515999Y-109636000D02*
X109416001Y-109636000D01*
G75*
G02*
X109666000Y-109885999I0J-249999D01*
G01*
X109666000Y-110586001D01*
G75*
G02*
X109416001Y-110836000I-249999J0D01*
G01*
X108515999Y-110836000D01*
G75*
G02*
X108266000Y-110586001I0J249999D01*
G01*
X108266000Y-109885999D01*
G75*
G02*
X108515999Y-109636000I249999J0D01*
G01*
G37*
G36*
G01*
X108515999Y-107636000D02*
X109416001Y-107636000D01*
G75*
G02*
X109666000Y-107885999I0J-249999D01*
G01*
X109666000Y-108586001D01*
G75*
G02*
X109416001Y-108836000I-249999J0D01*
G01*
X108515999Y-108836000D01*
G75*
G02*
X108266000Y-108586001I0J249999D01*
G01*
X108266000Y-107885999D01*
G75*
G02*
X108515999Y-107636000I249999J0D01*
G01*
G37*
%TD*%
D15*
%TO.C,Y2*%
X145618000Y-89706000D03*
X145618000Y-95206000D03*
X142418000Y-95206000D03*
X142418000Y-89706000D03*
%TD*%
D13*
%TO.C,SW1*%
X157008000Y-99225000D03*
X161508000Y-99225000D03*
X161508000Y-91275000D03*
X157008000Y-91275000D03*
%TD*%
%TO.C,C30*%
G36*
G01*
X144489500Y-63975000D02*
X144489500Y-63025000D01*
G75*
G02*
X144739500Y-62775000I250000J0D01*
G01*
X145414500Y-62775000D01*
G75*
G02*
X145664500Y-63025000I0J-250000D01*
G01*
X145664500Y-63975000D01*
G75*
G02*
X145414500Y-64225000I-250000J0D01*
G01*
X144739500Y-64225000D01*
G75*
G02*
X144489500Y-63975000I0J250000D01*
G01*
G37*
G36*
G01*
X142414500Y-63975000D02*
X142414500Y-63025000D01*
G75*
G02*
X142664500Y-62775000I250000J0D01*
G01*
X143339500Y-62775000D01*
G75*
G02*
X143589500Y-63025000I0J-250000D01*
G01*
X143589500Y-63975000D01*
G75*
G02*
X143339500Y-64225000I-250000J0D01*
G01*
X142664500Y-64225000D01*
G75*
G02*
X142414500Y-63975000I0J250000D01*
G01*
G37*
%TD*%
%TO.C,R16*%
G36*
G01*
X110801999Y-109604000D02*
X111702001Y-109604000D01*
G75*
G02*
X111952000Y-109853999I0J-249999D01*
G01*
X111952000Y-110554001D01*
G75*
G02*
X111702001Y-110804000I-249999J0D01*
G01*
X110801999Y-110804000D01*
G75*
G02*
X110552000Y-110554001I0J249999D01*
G01*
X110552000Y-109853999D01*
G75*
G02*
X110801999Y-109604000I249999J0D01*
G01*
G37*
G36*
G01*
X110801999Y-107604000D02*
X111702001Y-107604000D01*
G75*
G02*
X111952000Y-107853999I0J-249999D01*
G01*
X111952000Y-108554001D01*
G75*
G02*
X111702001Y-108804000I-249999J0D01*
G01*
X110801999Y-108804000D01*
G75*
G02*
X110552000Y-108554001I0J249999D01*
G01*
X110552000Y-107853999D01*
G75*
G02*
X110801999Y-107604000I249999J0D01*
G01*
G37*
%TD*%
%TO.C,D1*%
G36*
G01*
X126287000Y-94291999D02*
X126287000Y-95192001D01*
G75*
G02*
X126037001Y-95442000I-249999J0D01*
G01*
X125386999Y-95442000D01*
G75*
G02*
X125137000Y-95192001I0J249999D01*
G01*
X125137000Y-94291999D01*
G75*
G02*
X125386999Y-94042000I249999J0D01*
G01*
X126037001Y-94042000D01*
G75*
G02*
X126287000Y-94291999I0J-249999D01*
G01*
G37*
G36*
G01*
X128337000Y-94291999D02*
X128337000Y-95192001D01*
G75*
G02*
X128087001Y-95442000I-249999J0D01*
G01*
X127436999Y-95442000D01*
G75*
G02*
X127187000Y-95192001I0J249999D01*
G01*
X127187000Y-94291999D01*
G75*
G02*
X127436999Y-94042000I249999J0D01*
G01*
X128087001Y-94042000D01*
G75*
G02*
X128337000Y-94291999I0J-249999D01*
G01*
G37*
%TD*%
%TO.C,C14*%
G36*
G01*
X111014500Y-121991000D02*
X111489500Y-121991000D01*
G75*
G02*
X111727000Y-122228500I0J-237500D01*
G01*
X111727000Y-122828500D01*
G75*
G02*
X111489500Y-123066000I-237500J0D01*
G01*
X111014500Y-123066000D01*
G75*
G02*
X110777000Y-122828500I0J237500D01*
G01*
X110777000Y-122228500D01*
G75*
G02*
X111014500Y-121991000I237500J0D01*
G01*
G37*
G36*
G01*
X111014500Y-120266000D02*
X111489500Y-120266000D01*
G75*
G02*
X111727000Y-120503500I0J-237500D01*
G01*
X111727000Y-121103500D01*
G75*
G02*
X111489500Y-121341000I-237500J0D01*
G01*
X111014500Y-121341000D01*
G75*
G02*
X110777000Y-121103500I0J237500D01*
G01*
X110777000Y-120503500D01*
G75*
G02*
X111014500Y-120266000I237500J0D01*
G01*
G37*
%TD*%
%TO.C,C8*%
G36*
G01*
X146066500Y-121991000D02*
X146541500Y-121991000D01*
G75*
G02*
X146779000Y-122228500I0J-237500D01*
G01*
X146779000Y-122828500D01*
G75*
G02*
X146541500Y-123066000I-237500J0D01*
G01*
X146066500Y-123066000D01*
G75*
G02*
X145829000Y-122828500I0J237500D01*
G01*
X145829000Y-122228500D01*
G75*
G02*
X146066500Y-121991000I237500J0D01*
G01*
G37*
G36*
G01*
X146066500Y-120266000D02*
X146541500Y-120266000D01*
G75*
G02*
X146779000Y-120503500I0J-237500D01*
G01*
X146779000Y-121103500D01*
G75*
G02*
X146541500Y-121341000I-237500J0D01*
G01*
X146066500Y-121341000D01*
G75*
G02*
X145829000Y-121103500I0J237500D01*
G01*
X145829000Y-120503500D01*
G75*
G02*
X146066500Y-120266000I237500J0D01*
G01*
G37*
%TD*%
%TO.C,C25*%
G36*
G01*
X157496500Y-71445000D02*
X157971500Y-71445000D01*
G75*
G02*
X158209000Y-71682500I0J-237500D01*
G01*
X158209000Y-72282500D01*
G75*
G02*
X157971500Y-72520000I-237500J0D01*
G01*
X157496500Y-72520000D01*
G75*
G02*
X157259000Y-72282500I0J237500D01*
G01*
X157259000Y-71682500D01*
G75*
G02*
X157496500Y-71445000I237500J0D01*
G01*
G37*
G36*
G01*
X157496500Y-69720000D02*
X157971500Y-69720000D01*
G75*
G02*
X158209000Y-69957500I0J-237500D01*
G01*
X158209000Y-70557500D01*
G75*
G02*
X157971500Y-70795000I-237500J0D01*
G01*
X157496500Y-70795000D01*
G75*
G02*
X157259000Y-70557500I0J237500D01*
G01*
X157259000Y-69957500D01*
G75*
G02*
X157496500Y-69720000I237500J0D01*
G01*
G37*
%TD*%
%TO.C,C7*%
G36*
G01*
X133646000Y-54830000D02*
X132546000Y-54830000D01*
G75*
G02*
X132296000Y-54580000I0J250000D01*
G01*
X132296000Y-51580000D01*
G75*
G02*
X132546000Y-51330000I250000J0D01*
G01*
X133646000Y-51330000D01*
G75*
G02*
X133896000Y-51580000I0J-250000D01*
G01*
X133896000Y-54580000D01*
G75*
G02*
X133646000Y-54830000I-250000J0D01*
G01*
G37*
G36*
G01*
X133646000Y-60430000D02*
X132546000Y-60430000D01*
G75*
G02*
X132296000Y-60180000I0J250000D01*
G01*
X132296000Y-57180000D01*
G75*
G02*
X132546000Y-56930000I250000J0D01*
G01*
X133646000Y-56930000D01*
G75*
G02*
X133896000Y-57180000I0J-250000D01*
G01*
X133896000Y-60180000D01*
G75*
G02*
X133646000Y-60430000I-250000J0D01*
G01*
G37*
%TD*%
%TO.C,C12*%
G36*
G01*
X183404500Y-121991000D02*
X183879500Y-121991000D01*
G75*
G02*
X184117000Y-122228500I0J-237500D01*
G01*
X184117000Y-122828500D01*
G75*
G02*
X183879500Y-123066000I-237500J0D01*
G01*
X183404500Y-123066000D01*
G75*
G02*
X183167000Y-122828500I0J237500D01*
G01*
X183167000Y-122228500D01*
G75*
G02*
X183404500Y-121991000I237500J0D01*
G01*
G37*
G36*
G01*
X183404500Y-120266000D02*
X183879500Y-120266000D01*
G75*
G02*
X184117000Y-120503500I0J-237500D01*
G01*
X184117000Y-121103500D01*
G75*
G02*
X183879500Y-121341000I-237500J0D01*
G01*
X183404500Y-121341000D01*
G75*
G02*
X183167000Y-121103500I0J237500D01*
G01*
X183167000Y-120503500D01*
G75*
G02*
X183404500Y-120266000I237500J0D01*
G01*
G37*
%TD*%
%TO.C,C6*%
G36*
G01*
X128236000Y-65490000D02*
X128236000Y-66590000D01*
G75*
G02*
X127986000Y-66840000I-250000J0D01*
G01*
X124986000Y-66840000D01*
G75*
G02*
X124736000Y-66590000I0J250000D01*
G01*
X124736000Y-65490000D01*
G75*
G02*
X124986000Y-65240000I250000J0D01*
G01*
X127986000Y-65240000D01*
G75*
G02*
X128236000Y-65490000I0J-250000D01*
G01*
G37*
G36*
G01*
X133836000Y-65490000D02*
X133836000Y-66590000D01*
G75*
G02*
X133586000Y-66840000I-250000J0D01*
G01*
X130586000Y-66840000D01*
G75*
G02*
X130336000Y-66590000I0J250000D01*
G01*
X130336000Y-65490000D01*
G75*
G02*
X130586000Y-65240000I250000J0D01*
G01*
X133586000Y-65240000D01*
G75*
G02*
X133836000Y-65490000I0J-250000D01*
G01*
G37*
%TD*%
D16*
%TO.C,SW3*%
X165011000Y-56098000D03*
X165011000Y-51598000D03*
X157061000Y-51598000D03*
X157061000Y-56098000D03*
%TD*%
%TO.C,C23*%
G36*
G01*
X149576500Y-63991500D02*
X149576500Y-63516500D01*
G75*
G02*
X149814000Y-63279000I237500J0D01*
G01*
X150414000Y-63279000D01*
G75*
G02*
X150651500Y-63516500I0J-237500D01*
G01*
X150651500Y-63991500D01*
G75*
G02*
X150414000Y-64229000I-237500J0D01*
G01*
X149814000Y-64229000D01*
G75*
G02*
X149576500Y-63991500I0J237500D01*
G01*
G37*
G36*
G01*
X147851500Y-63991500D02*
X147851500Y-63516500D01*
G75*
G02*
X148089000Y-63279000I237500J0D01*
G01*
X148689000Y-63279000D01*
G75*
G02*
X148926500Y-63516500I0J-237500D01*
G01*
X148926500Y-63991500D01*
G75*
G02*
X148689000Y-64229000I-237500J0D01*
G01*
X148089000Y-64229000D01*
G75*
G02*
X147851500Y-63991500I0J237500D01*
G01*
G37*
%TD*%
%TO.C,D2*%
G36*
G01*
X126305000Y-92005999D02*
X126305000Y-92906001D01*
G75*
G02*
X126055001Y-93156000I-249999J0D01*
G01*
X125404999Y-93156000D01*
G75*
G02*
X125155000Y-92906001I0J249999D01*
G01*
X125155000Y-92005999D01*
G75*
G02*
X125404999Y-91756000I249999J0D01*
G01*
X126055001Y-91756000D01*
G75*
G02*
X126305000Y-92005999I0J-249999D01*
G01*
G37*
G36*
G01*
X128355000Y-92005999D02*
X128355000Y-92906001D01*
G75*
G02*
X128105001Y-93156000I-249999J0D01*
G01*
X127454999Y-93156000D01*
G75*
G02*
X127205000Y-92906001I0J249999D01*
G01*
X127205000Y-92005999D01*
G75*
G02*
X127454999Y-91756000I249999J0D01*
G01*
X128105001Y-91756000D01*
G75*
G02*
X128355000Y-92005999I0J-249999D01*
G01*
G37*
%TD*%
%TO.C,SW4*%
X165011000Y-64480000D03*
X165011000Y-59980000D03*
X157061000Y-59980000D03*
X157061000Y-64480000D03*
%TD*%
%TO.C,U6*%
G36*
G01*
X150204000Y-78889000D02*
X150204000Y-80289000D01*
G75*
G02*
X150129000Y-80364000I-75000J0D01*
G01*
X149979000Y-80364000D01*
G75*
G02*
X149904000Y-80289000I0J75000D01*
G01*
X149904000Y-78889000D01*
G75*
G02*
X149979000Y-78814000I75000J0D01*
G01*
X150129000Y-78814000D01*
G75*
G02*
X150204000Y-78889000I0J-75000D01*
G01*
G37*
G36*
G01*
X149704000Y-78889000D02*
X149704000Y-80289000D01*
G75*
G02*
X149629000Y-80364000I-75000J0D01*
G01*
X149479000Y-80364000D01*
G75*
G02*
X149404000Y-80289000I0J75000D01*
G01*
X149404000Y-78889000D01*
G75*
G02*
X149479000Y-78814000I75000J0D01*
G01*
X149629000Y-78814000D01*
G75*
G02*
X149704000Y-78889000I0J-75000D01*
G01*
G37*
G36*
G01*
X149204000Y-78889000D02*
X149204000Y-80289000D01*
G75*
G02*
X149129000Y-80364000I-75000J0D01*
G01*
X148979000Y-80364000D01*
G75*
G02*
X148904000Y-80289000I0J75000D01*
G01*
X148904000Y-78889000D01*
G75*
G02*
X148979000Y-78814000I75000J0D01*
G01*
X149129000Y-78814000D01*
G75*
G02*
X149204000Y-78889000I0J-75000D01*
G01*
G37*
G36*
G01*
X148704000Y-78889000D02*
X148704000Y-80289000D01*
G75*
G02*
X148629000Y-80364000I-75000J0D01*
G01*
X148479000Y-80364000D01*
G75*
G02*
X148404000Y-80289000I0J75000D01*
G01*
X148404000Y-78889000D01*
G75*
G02*
X148479000Y-78814000I75000J0D01*
G01*
X148629000Y-78814000D01*
G75*
G02*
X148704000Y-78889000I0J-75000D01*
G01*
G37*
G36*
G01*
X148204000Y-78889000D02*
X148204000Y-80289000D01*
G75*
G02*
X148129000Y-80364000I-75000J0D01*
G01*
X147979000Y-80364000D01*
G75*
G02*
X147904000Y-80289000I0J75000D01*
G01*
X147904000Y-78889000D01*
G75*
G02*
X147979000Y-78814000I75000J0D01*
G01*
X148129000Y-78814000D01*
G75*
G02*
X148204000Y-78889000I0J-75000D01*
G01*
G37*
G36*
G01*
X147704000Y-78889000D02*
X147704000Y-80289000D01*
G75*
G02*
X147629000Y-80364000I-75000J0D01*
G01*
X147479000Y-80364000D01*
G75*
G02*
X147404000Y-80289000I0J75000D01*
G01*
X147404000Y-78889000D01*
G75*
G02*
X147479000Y-78814000I75000J0D01*
G01*
X147629000Y-78814000D01*
G75*
G02*
X147704000Y-78889000I0J-75000D01*
G01*
G37*
G36*
G01*
X147204000Y-78889000D02*
X147204000Y-80289000D01*
G75*
G02*
X147129000Y-80364000I-75000J0D01*
G01*
X146979000Y-80364000D01*
G75*
G02*
X146904000Y-80289000I0J75000D01*
G01*
X146904000Y-78889000D01*
G75*
G02*
X146979000Y-78814000I75000J0D01*
G01*
X147129000Y-78814000D01*
G75*
G02*
X147204000Y-78889000I0J-75000D01*
G01*
G37*
G36*
G01*
X146704000Y-78889000D02*
X146704000Y-80289000D01*
G75*
G02*
X146629000Y-80364000I-75000J0D01*
G01*
X146479000Y-80364000D01*
G75*
G02*
X146404000Y-80289000I0J75000D01*
G01*
X146404000Y-78889000D01*
G75*
G02*
X146479000Y-78814000I75000J0D01*
G01*
X146629000Y-78814000D01*
G75*
G02*
X146704000Y-78889000I0J-75000D01*
G01*
G37*
G36*
G01*
X146204000Y-78889000D02*
X146204000Y-80289000D01*
G75*
G02*
X146129000Y-80364000I-75000J0D01*
G01*
X145979000Y-80364000D01*
G75*
G02*
X145904000Y-80289000I0J75000D01*
G01*
X145904000Y-78889000D01*
G75*
G02*
X145979000Y-78814000I75000J0D01*
G01*
X146129000Y-78814000D01*
G75*
G02*
X146204000Y-78889000I0J-75000D01*
G01*
G37*
G36*
G01*
X145704000Y-78889000D02*
X145704000Y-80289000D01*
G75*
G02*
X145629000Y-80364000I-75000J0D01*
G01*
X145479000Y-80364000D01*
G75*
G02*
X145404000Y-80289000I0J75000D01*
G01*
X145404000Y-78889000D01*
G75*
G02*
X145479000Y-78814000I75000J0D01*
G01*
X145629000Y-78814000D01*
G75*
G02*
X145704000Y-78889000I0J-75000D01*
G01*
G37*
G36*
G01*
X145204000Y-78889000D02*
X145204000Y-80289000D01*
G75*
G02*
X145129000Y-80364000I-75000J0D01*
G01*
X144979000Y-80364000D01*
G75*
G02*
X144904000Y-80289000I0J75000D01*
G01*
X144904000Y-78889000D01*
G75*
G02*
X144979000Y-78814000I75000J0D01*
G01*
X145129000Y-78814000D01*
G75*
G02*
X145204000Y-78889000I0J-75000D01*
G01*
G37*
G36*
G01*
X144704000Y-78889000D02*
X144704000Y-80289000D01*
G75*
G02*
X144629000Y-80364000I-75000J0D01*
G01*
X144479000Y-80364000D01*
G75*
G02*
X144404000Y-80289000I0J75000D01*
G01*
X144404000Y-78889000D01*
G75*
G02*
X144479000Y-78814000I75000J0D01*
G01*
X144629000Y-78814000D01*
G75*
G02*
X144704000Y-78889000I0J-75000D01*
G01*
G37*
G36*
G01*
X144204000Y-78889000D02*
X144204000Y-80289000D01*
G75*
G02*
X144129000Y-80364000I-75000J0D01*
G01*
X143979000Y-80364000D01*
G75*
G02*
X143904000Y-80289000I0J75000D01*
G01*
X143904000Y-78889000D01*
G75*
G02*
X143979000Y-78814000I75000J0D01*
G01*
X144129000Y-78814000D01*
G75*
G02*
X144204000Y-78889000I0J-75000D01*
G01*
G37*
G36*
G01*
X143704000Y-78889000D02*
X143704000Y-80289000D01*
G75*
G02*
X143629000Y-80364000I-75000J0D01*
G01*
X143479000Y-80364000D01*
G75*
G02*
X143404000Y-80289000I0J75000D01*
G01*
X143404000Y-78889000D01*
G75*
G02*
X143479000Y-78814000I75000J0D01*
G01*
X143629000Y-78814000D01*
G75*
G02*
X143704000Y-78889000I0J-75000D01*
G01*
G37*
G36*
G01*
X143204000Y-78889000D02*
X143204000Y-80289000D01*
G75*
G02*
X143129000Y-80364000I-75000J0D01*
G01*
X142979000Y-80364000D01*
G75*
G02*
X142904000Y-80289000I0J75000D01*
G01*
X142904000Y-78889000D01*
G75*
G02*
X142979000Y-78814000I75000J0D01*
G01*
X143129000Y-78814000D01*
G75*
G02*
X143204000Y-78889000I0J-75000D01*
G01*
G37*
G36*
G01*
X142704000Y-78889000D02*
X142704000Y-80289000D01*
G75*
G02*
X142629000Y-80364000I-75000J0D01*
G01*
X142479000Y-80364000D01*
G75*
G02*
X142404000Y-80289000I0J75000D01*
G01*
X142404000Y-78889000D01*
G75*
G02*
X142479000Y-78814000I75000J0D01*
G01*
X142629000Y-78814000D01*
G75*
G02*
X142704000Y-78889000I0J-75000D01*
G01*
G37*
G36*
G01*
X141404000Y-77589000D02*
X141404000Y-77739000D01*
G75*
G02*
X141329000Y-77814000I-75000J0D01*
G01*
X139929000Y-77814000D01*
G75*
G02*
X139854000Y-77739000I0J75000D01*
G01*
X139854000Y-77589000D01*
G75*
G02*
X139929000Y-77514000I75000J0D01*
G01*
X141329000Y-77514000D01*
G75*
G02*
X141404000Y-77589000I0J-75000D01*
G01*
G37*
G36*
G01*
X141404000Y-77089000D02*
X141404000Y-77239000D01*
G75*
G02*
X141329000Y-77314000I-75000J0D01*
G01*
X139929000Y-77314000D01*
G75*
G02*
X139854000Y-77239000I0J75000D01*
G01*
X139854000Y-77089000D01*
G75*
G02*
X139929000Y-77014000I75000J0D01*
G01*
X141329000Y-77014000D01*
G75*
G02*
X141404000Y-77089000I0J-75000D01*
G01*
G37*
G36*
G01*
X141404000Y-76589000D02*
X141404000Y-76739000D01*
G75*
G02*
X141329000Y-76814000I-75000J0D01*
G01*
X139929000Y-76814000D01*
G75*
G02*
X139854000Y-76739000I0J75000D01*
G01*
X139854000Y-76589000D01*
G75*
G02*
X139929000Y-76514000I75000J0D01*
G01*
X141329000Y-76514000D01*
G75*
G02*
X141404000Y-76589000I0J-75000D01*
G01*
G37*
G36*
G01*
X141404000Y-76089000D02*
X141404000Y-76239000D01*
G75*
G02*
X141329000Y-76314000I-75000J0D01*
G01*
X139929000Y-76314000D01*
G75*
G02*
X139854000Y-76239000I0J75000D01*
G01*
X139854000Y-76089000D01*
G75*
G02*
X139929000Y-76014000I75000J0D01*
G01*
X141329000Y-76014000D01*
G75*
G02*
X141404000Y-76089000I0J-75000D01*
G01*
G37*
G36*
G01*
X141404000Y-75589000D02*
X141404000Y-75739000D01*
G75*
G02*
X141329000Y-75814000I-75000J0D01*
G01*
X139929000Y-75814000D01*
G75*
G02*
X139854000Y-75739000I0J75000D01*
G01*
X139854000Y-75589000D01*
G75*
G02*
X139929000Y-75514000I75000J0D01*
G01*
X141329000Y-75514000D01*
G75*
G02*
X141404000Y-75589000I0J-75000D01*
G01*
G37*
G36*
G01*
X141404000Y-75089000D02*
X141404000Y-75239000D01*
G75*
G02*
X141329000Y-75314000I-75000J0D01*
G01*
X139929000Y-75314000D01*
G75*
G02*
X139854000Y-75239000I0J75000D01*
G01*
X139854000Y-75089000D01*
G75*
G02*
X139929000Y-75014000I75000J0D01*
G01*
X141329000Y-75014000D01*
G75*
G02*
X141404000Y-75089000I0J-75000D01*
G01*
G37*
G36*
G01*
X141404000Y-74589000D02*
X141404000Y-74739000D01*
G75*
G02*
X141329000Y-74814000I-75000J0D01*
G01*
X139929000Y-74814000D01*
G75*
G02*
X139854000Y-74739000I0J75000D01*
G01*
X139854000Y-74589000D01*
G75*
G02*
X139929000Y-74514000I75000J0D01*
G01*
X141329000Y-74514000D01*
G75*
G02*
X141404000Y-74589000I0J-75000D01*
G01*
G37*
G36*
G01*
X141404000Y-74089000D02*
X141404000Y-74239000D01*
G75*
G02*
X141329000Y-74314000I-75000J0D01*
G01*
X139929000Y-74314000D01*
G75*
G02*
X139854000Y-74239000I0J75000D01*
G01*
X139854000Y-74089000D01*
G75*
G02*
X139929000Y-74014000I75000J0D01*
G01*
X141329000Y-74014000D01*
G75*
G02*
X141404000Y-74089000I0J-75000D01*
G01*
G37*
G36*
G01*
X141404000Y-73589000D02*
X141404000Y-73739000D01*
G75*
G02*
X141329000Y-73814000I-75000J0D01*
G01*
X139929000Y-73814000D01*
G75*
G02*
X139854000Y-73739000I0J75000D01*
G01*
X139854000Y-73589000D01*
G75*
G02*
X139929000Y-73514000I75000J0D01*
G01*
X141329000Y-73514000D01*
G75*
G02*
X141404000Y-73589000I0J-75000D01*
G01*
G37*
G36*
G01*
X141404000Y-73089000D02*
X141404000Y-73239000D01*
G75*
G02*
X141329000Y-73314000I-75000J0D01*
G01*
X139929000Y-73314000D01*
G75*
G02*
X139854000Y-73239000I0J75000D01*
G01*
X139854000Y-73089000D01*
G75*
G02*
X139929000Y-73014000I75000J0D01*
G01*
X141329000Y-73014000D01*
G75*
G02*
X141404000Y-73089000I0J-75000D01*
G01*
G37*
G36*
G01*
X141404000Y-72589000D02*
X141404000Y-72739000D01*
G75*
G02*
X141329000Y-72814000I-75000J0D01*
G01*
X139929000Y-72814000D01*
G75*
G02*
X139854000Y-72739000I0J75000D01*
G01*
X139854000Y-72589000D01*
G75*
G02*
X139929000Y-72514000I75000J0D01*
G01*
X141329000Y-72514000D01*
G75*
G02*
X141404000Y-72589000I0J-75000D01*
G01*
G37*
G36*
G01*
X141404000Y-72089000D02*
X141404000Y-72239000D01*
G75*
G02*
X141329000Y-72314000I-75000J0D01*
G01*
X139929000Y-72314000D01*
G75*
G02*
X139854000Y-72239000I0J75000D01*
G01*
X139854000Y-72089000D01*
G75*
G02*
X139929000Y-72014000I75000J0D01*
G01*
X141329000Y-72014000D01*
G75*
G02*
X141404000Y-72089000I0J-75000D01*
G01*
G37*
G36*
G01*
X141404000Y-71589000D02*
X141404000Y-71739000D01*
G75*
G02*
X141329000Y-71814000I-75000J0D01*
G01*
X139929000Y-71814000D01*
G75*
G02*
X139854000Y-71739000I0J75000D01*
G01*
X139854000Y-71589000D01*
G75*
G02*
X139929000Y-71514000I75000J0D01*
G01*
X141329000Y-71514000D01*
G75*
G02*
X141404000Y-71589000I0J-75000D01*
G01*
G37*
G36*
G01*
X141404000Y-71089000D02*
X141404000Y-71239000D01*
G75*
G02*
X141329000Y-71314000I-75000J0D01*
G01*
X139929000Y-71314000D01*
G75*
G02*
X139854000Y-71239000I0J75000D01*
G01*
X139854000Y-71089000D01*
G75*
G02*
X139929000Y-71014000I75000J0D01*
G01*
X141329000Y-71014000D01*
G75*
G02*
X141404000Y-71089000I0J-75000D01*
G01*
G37*
G36*
G01*
X141404000Y-70589000D02*
X141404000Y-70739000D01*
G75*
G02*
X141329000Y-70814000I-75000J0D01*
G01*
X139929000Y-70814000D01*
G75*
G02*
X139854000Y-70739000I0J75000D01*
G01*
X139854000Y-70589000D01*
G75*
G02*
X139929000Y-70514000I75000J0D01*
G01*
X141329000Y-70514000D01*
G75*
G02*
X141404000Y-70589000I0J-75000D01*
G01*
G37*
G36*
G01*
X141404000Y-70089000D02*
X141404000Y-70239000D01*
G75*
G02*
X141329000Y-70314000I-75000J0D01*
G01*
X139929000Y-70314000D01*
G75*
G02*
X139854000Y-70239000I0J75000D01*
G01*
X139854000Y-70089000D01*
G75*
G02*
X139929000Y-70014000I75000J0D01*
G01*
X141329000Y-70014000D01*
G75*
G02*
X141404000Y-70089000I0J-75000D01*
G01*
G37*
G36*
G01*
X142704000Y-67539000D02*
X142704000Y-68939000D01*
G75*
G02*
X142629000Y-69014000I-75000J0D01*
G01*
X142479000Y-69014000D01*
G75*
G02*
X142404000Y-68939000I0J75000D01*
G01*
X142404000Y-67539000D01*
G75*
G02*
X142479000Y-67464000I75000J0D01*
G01*
X142629000Y-67464000D01*
G75*
G02*
X142704000Y-67539000I0J-75000D01*
G01*
G37*
G36*
G01*
X143204000Y-67539000D02*
X143204000Y-68939000D01*
G75*
G02*
X143129000Y-69014000I-75000J0D01*
G01*
X142979000Y-69014000D01*
G75*
G02*
X142904000Y-68939000I0J75000D01*
G01*
X142904000Y-67539000D01*
G75*
G02*
X142979000Y-67464000I75000J0D01*
G01*
X143129000Y-67464000D01*
G75*
G02*
X143204000Y-67539000I0J-75000D01*
G01*
G37*
G36*
G01*
X143704000Y-67539000D02*
X143704000Y-68939000D01*
G75*
G02*
X143629000Y-69014000I-75000J0D01*
G01*
X143479000Y-69014000D01*
G75*
G02*
X143404000Y-68939000I0J75000D01*
G01*
X143404000Y-67539000D01*
G75*
G02*
X143479000Y-67464000I75000J0D01*
G01*
X143629000Y-67464000D01*
G75*
G02*
X143704000Y-67539000I0J-75000D01*
G01*
G37*
G36*
G01*
X144204000Y-67539000D02*
X144204000Y-68939000D01*
G75*
G02*
X144129000Y-69014000I-75000J0D01*
G01*
X143979000Y-69014000D01*
G75*
G02*
X143904000Y-68939000I0J75000D01*
G01*
X143904000Y-67539000D01*
G75*
G02*
X143979000Y-67464000I75000J0D01*
G01*
X144129000Y-67464000D01*
G75*
G02*
X144204000Y-67539000I0J-75000D01*
G01*
G37*
G36*
G01*
X144704000Y-67539000D02*
X144704000Y-68939000D01*
G75*
G02*
X144629000Y-69014000I-75000J0D01*
G01*
X144479000Y-69014000D01*
G75*
G02*
X144404000Y-68939000I0J75000D01*
G01*
X144404000Y-67539000D01*
G75*
G02*
X144479000Y-67464000I75000J0D01*
G01*
X144629000Y-67464000D01*
G75*
G02*
X144704000Y-67539000I0J-75000D01*
G01*
G37*
G36*
G01*
X145204000Y-67539000D02*
X145204000Y-68939000D01*
G75*
G02*
X145129000Y-69014000I-75000J0D01*
G01*
X144979000Y-69014000D01*
G75*
G02*
X144904000Y-68939000I0J75000D01*
G01*
X144904000Y-67539000D01*
G75*
G02*
X144979000Y-67464000I75000J0D01*
G01*
X145129000Y-67464000D01*
G75*
G02*
X145204000Y-67539000I0J-75000D01*
G01*
G37*
G36*
G01*
X145704000Y-67539000D02*
X145704000Y-68939000D01*
G75*
G02*
X145629000Y-69014000I-75000J0D01*
G01*
X145479000Y-69014000D01*
G75*
G02*
X145404000Y-68939000I0J75000D01*
G01*
X145404000Y-67539000D01*
G75*
G02*
X145479000Y-67464000I75000J0D01*
G01*
X145629000Y-67464000D01*
G75*
G02*
X145704000Y-67539000I0J-75000D01*
G01*
G37*
G36*
G01*
X146204000Y-67539000D02*
X146204000Y-68939000D01*
G75*
G02*
X146129000Y-69014000I-75000J0D01*
G01*
X145979000Y-69014000D01*
G75*
G02*
X145904000Y-68939000I0J75000D01*
G01*
X145904000Y-67539000D01*
G75*
G02*
X145979000Y-67464000I75000J0D01*
G01*
X146129000Y-67464000D01*
G75*
G02*
X146204000Y-67539000I0J-75000D01*
G01*
G37*
G36*
G01*
X146704000Y-67539000D02*
X146704000Y-68939000D01*
G75*
G02*
X146629000Y-69014000I-75000J0D01*
G01*
X146479000Y-69014000D01*
G75*
G02*
X146404000Y-68939000I0J75000D01*
G01*
X146404000Y-67539000D01*
G75*
G02*
X146479000Y-67464000I75000J0D01*
G01*
X146629000Y-67464000D01*
G75*
G02*
X146704000Y-67539000I0J-75000D01*
G01*
G37*
G36*
G01*
X147204000Y-67539000D02*
X147204000Y-68939000D01*
G75*
G02*
X147129000Y-69014000I-75000J0D01*
G01*
X146979000Y-69014000D01*
G75*
G02*
X146904000Y-68939000I0J75000D01*
G01*
X146904000Y-67539000D01*
G75*
G02*
X146979000Y-67464000I75000J0D01*
G01*
X147129000Y-67464000D01*
G75*
G02*
X147204000Y-67539000I0J-75000D01*
G01*
G37*
G36*
G01*
X147704000Y-67539000D02*
X147704000Y-68939000D01*
G75*
G02*
X147629000Y-69014000I-75000J0D01*
G01*
X147479000Y-69014000D01*
G75*
G02*
X147404000Y-68939000I0J75000D01*
G01*
X147404000Y-67539000D01*
G75*
G02*
X147479000Y-67464000I75000J0D01*
G01*
X147629000Y-67464000D01*
G75*
G02*
X147704000Y-67539000I0J-75000D01*
G01*
G37*
G36*
G01*
X148204000Y-67539000D02*
X148204000Y-68939000D01*
G75*
G02*
X148129000Y-69014000I-75000J0D01*
G01*
X147979000Y-69014000D01*
G75*
G02*
X147904000Y-68939000I0J75000D01*
G01*
X147904000Y-67539000D01*
G75*
G02*
X147979000Y-67464000I75000J0D01*
G01*
X148129000Y-67464000D01*
G75*
G02*
X148204000Y-67539000I0J-75000D01*
G01*
G37*
G36*
G01*
X148704000Y-67539000D02*
X148704000Y-68939000D01*
G75*
G02*
X148629000Y-69014000I-75000J0D01*
G01*
X148479000Y-69014000D01*
G75*
G02*
X148404000Y-68939000I0J75000D01*
G01*
X148404000Y-67539000D01*
G75*
G02*
X148479000Y-67464000I75000J0D01*
G01*
X148629000Y-67464000D01*
G75*
G02*
X148704000Y-67539000I0J-75000D01*
G01*
G37*
G36*
G01*
X149204000Y-67539000D02*
X149204000Y-68939000D01*
G75*
G02*
X149129000Y-69014000I-75000J0D01*
G01*
X148979000Y-69014000D01*
G75*
G02*
X148904000Y-68939000I0J75000D01*
G01*
X148904000Y-67539000D01*
G75*
G02*
X148979000Y-67464000I75000J0D01*
G01*
X149129000Y-67464000D01*
G75*
G02*
X149204000Y-67539000I0J-75000D01*
G01*
G37*
G36*
G01*
X149704000Y-67539000D02*
X149704000Y-68939000D01*
G75*
G02*
X149629000Y-69014000I-75000J0D01*
G01*
X149479000Y-69014000D01*
G75*
G02*
X149404000Y-68939000I0J75000D01*
G01*
X149404000Y-67539000D01*
G75*
G02*
X149479000Y-67464000I75000J0D01*
G01*
X149629000Y-67464000D01*
G75*
G02*
X149704000Y-67539000I0J-75000D01*
G01*
G37*
G36*
G01*
X150204000Y-67539000D02*
X150204000Y-68939000D01*
G75*
G02*
X150129000Y-69014000I-75000J0D01*
G01*
X149979000Y-69014000D01*
G75*
G02*
X149904000Y-68939000I0J75000D01*
G01*
X149904000Y-67539000D01*
G75*
G02*
X149979000Y-67464000I75000J0D01*
G01*
X150129000Y-67464000D01*
G75*
G02*
X150204000Y-67539000I0J-75000D01*
G01*
G37*
G36*
G01*
X152754000Y-70089000D02*
X152754000Y-70239000D01*
G75*
G02*
X152679000Y-70314000I-75000J0D01*
G01*
X151279000Y-70314000D01*
G75*
G02*
X151204000Y-70239000I0J75000D01*
G01*
X151204000Y-70089000D01*
G75*
G02*
X151279000Y-70014000I75000J0D01*
G01*
X152679000Y-70014000D01*
G75*
G02*
X152754000Y-70089000I0J-75000D01*
G01*
G37*
G36*
G01*
X152754000Y-70589000D02*
X152754000Y-70739000D01*
G75*
G02*
X152679000Y-70814000I-75000J0D01*
G01*
X151279000Y-70814000D01*
G75*
G02*
X151204000Y-70739000I0J75000D01*
G01*
X151204000Y-70589000D01*
G75*
G02*
X151279000Y-70514000I75000J0D01*
G01*
X152679000Y-70514000D01*
G75*
G02*
X152754000Y-70589000I0J-75000D01*
G01*
G37*
G36*
G01*
X152754000Y-71089000D02*
X152754000Y-71239000D01*
G75*
G02*
X152679000Y-71314000I-75000J0D01*
G01*
X151279000Y-71314000D01*
G75*
G02*
X151204000Y-71239000I0J75000D01*
G01*
X151204000Y-71089000D01*
G75*
G02*
X151279000Y-71014000I75000J0D01*
G01*
X152679000Y-71014000D01*
G75*
G02*
X152754000Y-71089000I0J-75000D01*
G01*
G37*
G36*
G01*
X152754000Y-71589000D02*
X152754000Y-71739000D01*
G75*
G02*
X152679000Y-71814000I-75000J0D01*
G01*
X151279000Y-71814000D01*
G75*
G02*
X151204000Y-71739000I0J75000D01*
G01*
X151204000Y-71589000D01*
G75*
G02*
X151279000Y-71514000I75000J0D01*
G01*
X152679000Y-71514000D01*
G75*
G02*
X152754000Y-71589000I0J-75000D01*
G01*
G37*
G36*
G01*
X152754000Y-72089000D02*
X152754000Y-72239000D01*
G75*
G02*
X152679000Y-72314000I-75000J0D01*
G01*
X151279000Y-72314000D01*
G75*
G02*
X151204000Y-72239000I0J75000D01*
G01*
X151204000Y-72089000D01*
G75*
G02*
X151279000Y-72014000I75000J0D01*
G01*
X152679000Y-72014000D01*
G75*
G02*
X152754000Y-72089000I0J-75000D01*
G01*
G37*
G36*
G01*
X152754000Y-72589000D02*
X152754000Y-72739000D01*
G75*
G02*
X152679000Y-72814000I-75000J0D01*
G01*
X151279000Y-72814000D01*
G75*
G02*
X151204000Y-72739000I0J75000D01*
G01*
X151204000Y-72589000D01*
G75*
G02*
X151279000Y-72514000I75000J0D01*
G01*
X152679000Y-72514000D01*
G75*
G02*
X152754000Y-72589000I0J-75000D01*
G01*
G37*
G36*
G01*
X152754000Y-73089000D02*
X152754000Y-73239000D01*
G75*
G02*
X152679000Y-73314000I-75000J0D01*
G01*
X151279000Y-73314000D01*
G75*
G02*
X151204000Y-73239000I0J75000D01*
G01*
X151204000Y-73089000D01*
G75*
G02*
X151279000Y-73014000I75000J0D01*
G01*
X152679000Y-73014000D01*
G75*
G02*
X152754000Y-73089000I0J-75000D01*
G01*
G37*
G36*
G01*
X152754000Y-73589000D02*
X152754000Y-73739000D01*
G75*
G02*
X152679000Y-73814000I-75000J0D01*
G01*
X151279000Y-73814000D01*
G75*
G02*
X151204000Y-73739000I0J75000D01*
G01*
X151204000Y-73589000D01*
G75*
G02*
X151279000Y-73514000I75000J0D01*
G01*
X152679000Y-73514000D01*
G75*
G02*
X152754000Y-73589000I0J-75000D01*
G01*
G37*
G36*
G01*
X152754000Y-74089000D02*
X152754000Y-74239000D01*
G75*
G02*
X152679000Y-74314000I-75000J0D01*
G01*
X151279000Y-74314000D01*
G75*
G02*
X151204000Y-74239000I0J75000D01*
G01*
X151204000Y-74089000D01*
G75*
G02*
X151279000Y-74014000I75000J0D01*
G01*
X152679000Y-74014000D01*
G75*
G02*
X152754000Y-74089000I0J-75000D01*
G01*
G37*
G36*
G01*
X152754000Y-74589000D02*
X152754000Y-74739000D01*
G75*
G02*
X152679000Y-74814000I-75000J0D01*
G01*
X151279000Y-74814000D01*
G75*
G02*
X151204000Y-74739000I0J75000D01*
G01*
X151204000Y-74589000D01*
G75*
G02*
X151279000Y-74514000I75000J0D01*
G01*
X152679000Y-74514000D01*
G75*
G02*
X152754000Y-74589000I0J-75000D01*
G01*
G37*
G36*
G01*
X152754000Y-75089000D02*
X152754000Y-75239000D01*
G75*
G02*
X152679000Y-75314000I-75000J0D01*
G01*
X151279000Y-75314000D01*
G75*
G02*
X151204000Y-75239000I0J75000D01*
G01*
X151204000Y-75089000D01*
G75*
G02*
X151279000Y-75014000I75000J0D01*
G01*
X152679000Y-75014000D01*
G75*
G02*
X152754000Y-75089000I0J-75000D01*
G01*
G37*
G36*
G01*
X152754000Y-75589000D02*
X152754000Y-75739000D01*
G75*
G02*
X152679000Y-75814000I-75000J0D01*
G01*
X151279000Y-75814000D01*
G75*
G02*
X151204000Y-75739000I0J75000D01*
G01*
X151204000Y-75589000D01*
G75*
G02*
X151279000Y-75514000I75000J0D01*
G01*
X152679000Y-75514000D01*
G75*
G02*
X152754000Y-75589000I0J-75000D01*
G01*
G37*
G36*
G01*
X152754000Y-76089000D02*
X152754000Y-76239000D01*
G75*
G02*
X152679000Y-76314000I-75000J0D01*
G01*
X151279000Y-76314000D01*
G75*
G02*
X151204000Y-76239000I0J75000D01*
G01*
X151204000Y-76089000D01*
G75*
G02*
X151279000Y-76014000I75000J0D01*
G01*
X152679000Y-76014000D01*
G75*
G02*
X152754000Y-76089000I0J-75000D01*
G01*
G37*
G36*
G01*
X152754000Y-76589000D02*
X152754000Y-76739000D01*
G75*
G02*
X152679000Y-76814000I-75000J0D01*
G01*
X151279000Y-76814000D01*
G75*
G02*
X151204000Y-76739000I0J75000D01*
G01*
X151204000Y-76589000D01*
G75*
G02*
X151279000Y-76514000I75000J0D01*
G01*
X152679000Y-76514000D01*
G75*
G02*
X152754000Y-76589000I0J-75000D01*
G01*
G37*
G36*
G01*
X152754000Y-77089000D02*
X152754000Y-77239000D01*
G75*
G02*
X152679000Y-77314000I-75000J0D01*
G01*
X151279000Y-77314000D01*
G75*
G02*
X151204000Y-77239000I0J75000D01*
G01*
X151204000Y-77089000D01*
G75*
G02*
X151279000Y-77014000I75000J0D01*
G01*
X152679000Y-77014000D01*
G75*
G02*
X152754000Y-77089000I0J-75000D01*
G01*
G37*
G36*
G01*
X152754000Y-77589000D02*
X152754000Y-77739000D01*
G75*
G02*
X152679000Y-77814000I-75000J0D01*
G01*
X151279000Y-77814000D01*
G75*
G02*
X151204000Y-77739000I0J75000D01*
G01*
X151204000Y-77589000D01*
G75*
G02*
X151279000Y-77514000I75000J0D01*
G01*
X152679000Y-77514000D01*
G75*
G02*
X152754000Y-77589000I0J-75000D01*
G01*
G37*
%TD*%
M02*
