%TF.GenerationSoftware,KiCad,Pcbnew,(5.1.10)-1*%
%TF.CreationDate,2022-03-04T09:48:17+01:00*%
%TF.ProjectId,GestureControl,47657374-7572-4654-936f-6e74726f6c2e,V0.1*%
%TF.SameCoordinates,Original*%
%TF.FileFunction,Soldermask,Top*%
%TF.FilePolarity,Negative*%
%FSLAX46Y46*%
G04 Gerber Fmt 4.6, Leading zero omitted, Abs format (unit mm)*
G04 Created by KiCad (PCBNEW (5.1.10)-1) date 2022-03-04 09:48:17*
%MOMM*%
%LPD*%
G01*
G04 APERTURE LIST*
%ADD10C,3.200000*%
%ADD11R,0.807999X0.458000*%
%ADD12R,0.508000X0.508000*%
%ADD13O,1.700000X1.700000*%
%ADD14R,1.700000X1.700000*%
%ADD15R,0.650000X2.000000*%
%ADD16R,2.400000X4.200000*%
%ADD17R,1.000000X1.500000*%
%ADD18R,3.500000X1.800000*%
%ADD19R,4.500000X2.000000*%
%ADD20R,1.300000X1.900000*%
%ADD21R,1.300000X1.550000*%
%ADD22O,3.600000X1.800000*%
G04 APERTURE END LIST*
D10*
%TO.C,H16*%
X251206000Y-143383000D03*
%TD*%
%TO.C,H15*%
X251206000Y-117983000D03*
%TD*%
%TO.C,H14*%
X225806000Y-143383000D03*
%TD*%
%TO.C,H13*%
X225806000Y-117983000D03*
%TD*%
%TO.C,H2*%
X149606000Y-143383000D03*
%TD*%
%TO.C,H12*%
X187706000Y-117983000D03*
%TD*%
%TO.C,H11*%
X187706000Y-143383000D03*
%TD*%
%TO.C,H10*%
X111506000Y-108458000D03*
%TD*%
%TO.C,H9*%
X138176000Y-152908000D03*
%TD*%
%TO.C,H8*%
X111506000Y-152908000D03*
%TD*%
%TO.C,H7*%
X138176000Y-108458000D03*
%TD*%
%TO.C,H6*%
X213106000Y-143383000D03*
%TD*%
%TO.C,H5*%
X213106000Y-117983000D03*
%TD*%
%TO.C,H4*%
X149606000Y-117983000D03*
%TD*%
%TO.C,H3*%
X175006000Y-143383000D03*
%TD*%
%TO.C,H1*%
X175006000Y-117983000D03*
%TD*%
D11*
%TO.C,U8*%
X237390800Y-132282999D03*
X237390800Y-131483001D03*
X237390800Y-130683000D03*
X237390800Y-129882999D03*
X237390800Y-129083001D03*
D12*
X238506000Y-129082800D03*
D11*
X239621200Y-129083001D03*
X239621200Y-129882999D03*
X239621200Y-130683000D03*
X239621200Y-131483001D03*
X239621200Y-132282999D03*
D12*
X238506000Y-132283200D03*
%TD*%
D11*
%TO.C,U5*%
X199290800Y-132282999D03*
X199290800Y-131483001D03*
X199290800Y-130683000D03*
X199290800Y-129882999D03*
X199290800Y-129083001D03*
D12*
X200406000Y-129082800D03*
D11*
X201521200Y-129083001D03*
X201521200Y-129882999D03*
X201521200Y-130683000D03*
X201521200Y-131483001D03*
X201521200Y-132282999D03*
D12*
X200406000Y-132283200D03*
%TD*%
D11*
%TO.C,U4*%
X161825800Y-132282999D03*
X161825800Y-131483001D03*
X161825800Y-130683000D03*
X161825800Y-129882999D03*
X161825800Y-129083001D03*
D12*
X162941000Y-129082800D03*
D11*
X164056200Y-129083001D03*
X164056200Y-129882999D03*
X164056200Y-130683000D03*
X164056200Y-131483001D03*
X164056200Y-132282999D03*
D12*
X162941000Y-132283200D03*
%TD*%
D11*
%TO.C,U3*%
X123725800Y-132282999D03*
X123725800Y-131483001D03*
X123725800Y-130683000D03*
X123725800Y-129882999D03*
X123725800Y-129083001D03*
D12*
X124841000Y-129082800D03*
D11*
X125956200Y-129083001D03*
X125956200Y-129882999D03*
X125956200Y-130683000D03*
X125956200Y-131483001D03*
X125956200Y-132282999D03*
D12*
X124841000Y-132283200D03*
%TD*%
%TO.C,C13*%
G36*
G01*
X101076999Y-151737500D02*
X102377001Y-151737500D01*
G75*
G02*
X102627000Y-151987499I0J-249999D01*
G01*
X102627000Y-152812501D01*
G75*
G02*
X102377001Y-153062500I-249999J0D01*
G01*
X101076999Y-153062500D01*
G75*
G02*
X100827000Y-152812501I0J249999D01*
G01*
X100827000Y-151987499D01*
G75*
G02*
X101076999Y-151737500I249999J0D01*
G01*
G37*
G36*
G01*
X101076999Y-148612500D02*
X102377001Y-148612500D01*
G75*
G02*
X102627000Y-148862499I0J-249999D01*
G01*
X102627000Y-149687501D01*
G75*
G02*
X102377001Y-149937500I-249999J0D01*
G01*
X101076999Y-149937500D01*
G75*
G02*
X100827000Y-149687501I0J249999D01*
G01*
X100827000Y-148862499D01*
G75*
G02*
X101076999Y-148612500I249999J0D01*
G01*
G37*
%TD*%
D13*
%TO.C,J12*%
X54737000Y-131572000D03*
D14*
X52197000Y-131572000D03*
%TD*%
D13*
%TO.C,J11*%
X54737000Y-135382000D03*
D14*
X52197000Y-135382000D03*
%TD*%
D15*
%TO.C,U1*%
X95123000Y-145474000D03*
X94173000Y-145474000D03*
X93223000Y-145474000D03*
X93223000Y-142054000D03*
X94173000Y-142054000D03*
X95123000Y-142054000D03*
%TD*%
%TO.C,R27*%
G36*
G01*
X90608999Y-145942000D02*
X91509001Y-145942000D01*
G75*
G02*
X91759000Y-146191999I0J-249999D01*
G01*
X91759000Y-146892001D01*
G75*
G02*
X91509001Y-147142000I-249999J0D01*
G01*
X90608999Y-147142000D01*
G75*
G02*
X90359000Y-146892001I0J249999D01*
G01*
X90359000Y-146191999D01*
G75*
G02*
X90608999Y-145942000I249999J0D01*
G01*
G37*
G36*
G01*
X90608999Y-143942000D02*
X91509001Y-143942000D01*
G75*
G02*
X91759000Y-144191999I0J-249999D01*
G01*
X91759000Y-144892001D01*
G75*
G02*
X91509001Y-145142000I-249999J0D01*
G01*
X90608999Y-145142000D01*
G75*
G02*
X90359000Y-144892001I0J249999D01*
G01*
X90359000Y-144191999D01*
G75*
G02*
X90608999Y-143942000I249999J0D01*
G01*
G37*
%TD*%
%TO.C,R25*%
G36*
G01*
X91509001Y-141094000D02*
X90608999Y-141094000D01*
G75*
G02*
X90359000Y-140844001I0J249999D01*
G01*
X90359000Y-140143999D01*
G75*
G02*
X90608999Y-139894000I249999J0D01*
G01*
X91509001Y-139894000D01*
G75*
G02*
X91759000Y-140143999I0J-249999D01*
G01*
X91759000Y-140844001D01*
G75*
G02*
X91509001Y-141094000I-249999J0D01*
G01*
G37*
G36*
G01*
X91509001Y-143094000D02*
X90608999Y-143094000D01*
G75*
G02*
X90359000Y-142844001I0J249999D01*
G01*
X90359000Y-142143999D01*
G75*
G02*
X90608999Y-141894000I249999J0D01*
G01*
X91509001Y-141894000D01*
G75*
G02*
X91759000Y-142143999I0J-249999D01*
G01*
X91759000Y-142844001D01*
G75*
G02*
X91509001Y-143094000I-249999J0D01*
G01*
G37*
%TD*%
%TO.C,R23*%
G36*
G01*
X95319001Y-137252000D02*
X94418999Y-137252000D01*
G75*
G02*
X94169000Y-137002001I0J249999D01*
G01*
X94169000Y-136301999D01*
G75*
G02*
X94418999Y-136052000I249999J0D01*
G01*
X95319001Y-136052000D01*
G75*
G02*
X95569000Y-136301999I0J-249999D01*
G01*
X95569000Y-137002001D01*
G75*
G02*
X95319001Y-137252000I-249999J0D01*
G01*
G37*
G36*
G01*
X95319001Y-139252000D02*
X94418999Y-139252000D01*
G75*
G02*
X94169000Y-139002001I0J249999D01*
G01*
X94169000Y-138301999D01*
G75*
G02*
X94418999Y-138052000I249999J0D01*
G01*
X95319001Y-138052000D01*
G75*
G02*
X95569000Y-138301999I0J-249999D01*
G01*
X95569000Y-139002001D01*
G75*
G02*
X95319001Y-139252000I-249999J0D01*
G01*
G37*
%TD*%
%TO.C,R18*%
G36*
G01*
X90747001Y-136998000D02*
X89846999Y-136998000D01*
G75*
G02*
X89597000Y-136748001I0J249999D01*
G01*
X89597000Y-136047999D01*
G75*
G02*
X89846999Y-135798000I249999J0D01*
G01*
X90747001Y-135798000D01*
G75*
G02*
X90997000Y-136047999I0J-249999D01*
G01*
X90997000Y-136748001D01*
G75*
G02*
X90747001Y-136998000I-249999J0D01*
G01*
G37*
G36*
G01*
X90747001Y-138998000D02*
X89846999Y-138998000D01*
G75*
G02*
X89597000Y-138748001I0J249999D01*
G01*
X89597000Y-138047999D01*
G75*
G02*
X89846999Y-137798000I249999J0D01*
G01*
X90747001Y-137798000D01*
G75*
G02*
X90997000Y-138047999I0J-249999D01*
G01*
X90997000Y-138748001D01*
G75*
G02*
X90747001Y-138998000I-249999J0D01*
G01*
G37*
%TD*%
%TO.C,R14*%
G36*
G01*
X98809000Y-149802001D02*
X98809000Y-148901999D01*
G75*
G02*
X99058999Y-148652000I249999J0D01*
G01*
X99759001Y-148652000D01*
G75*
G02*
X100009000Y-148901999I0J-249999D01*
G01*
X100009000Y-149802001D01*
G75*
G02*
X99759001Y-150052000I-249999J0D01*
G01*
X99058999Y-150052000D01*
G75*
G02*
X98809000Y-149802001I0J249999D01*
G01*
G37*
G36*
G01*
X96809000Y-149802001D02*
X96809000Y-148901999D01*
G75*
G02*
X97058999Y-148652000I249999J0D01*
G01*
X97759001Y-148652000D01*
G75*
G02*
X98009000Y-148901999I0J-249999D01*
G01*
X98009000Y-149802001D01*
G75*
G02*
X97759001Y-150052000I-249999J0D01*
G01*
X97058999Y-150052000D01*
G75*
G02*
X96809000Y-149802001I0J249999D01*
G01*
G37*
%TD*%
D16*
%TO.C,L1*%
X102453000Y-142494000D03*
X97953000Y-142494000D03*
%TD*%
D17*
%TO.C,JP1*%
X95011000Y-149352000D03*
X93711000Y-149352000D03*
%TD*%
D18*
%TO.C,D7*%
X103465000Y-137668000D03*
X98465000Y-137668000D03*
%TD*%
%TO.C,C5*%
G36*
G01*
X92599500Y-137839500D02*
X93074500Y-137839500D01*
G75*
G02*
X93312000Y-138077000I0J-237500D01*
G01*
X93312000Y-138677000D01*
G75*
G02*
X93074500Y-138914500I-237500J0D01*
G01*
X92599500Y-138914500D01*
G75*
G02*
X92362000Y-138677000I0J237500D01*
G01*
X92362000Y-138077000D01*
G75*
G02*
X92599500Y-137839500I237500J0D01*
G01*
G37*
G36*
G01*
X92599500Y-136114500D02*
X93074500Y-136114500D01*
G75*
G02*
X93312000Y-136352000I0J-237500D01*
G01*
X93312000Y-136952000D01*
G75*
G02*
X93074500Y-137189500I-237500J0D01*
G01*
X92599500Y-137189500D01*
G75*
G02*
X92362000Y-136952000I0J237500D01*
G01*
X92362000Y-136352000D01*
G75*
G02*
X92599500Y-136114500I237500J0D01*
G01*
G37*
%TD*%
%TO.C,C3*%
G36*
G01*
X99871500Y-147462001D02*
X99871500Y-146161999D01*
G75*
G02*
X100121499Y-145912000I249999J0D01*
G01*
X100946501Y-145912000D01*
G75*
G02*
X101196500Y-146161999I0J-249999D01*
G01*
X101196500Y-147462001D01*
G75*
G02*
X100946501Y-147712000I-249999J0D01*
G01*
X100121499Y-147712000D01*
G75*
G02*
X99871500Y-147462001I0J249999D01*
G01*
G37*
G36*
G01*
X96746500Y-147462001D02*
X96746500Y-146161999D01*
G75*
G02*
X96996499Y-145912000I249999J0D01*
G01*
X97821501Y-145912000D01*
G75*
G02*
X98071500Y-146161999I0J-249999D01*
G01*
X98071500Y-147462001D01*
G75*
G02*
X97821501Y-147712000I-249999J0D01*
G01*
X96996499Y-147712000D01*
G75*
G02*
X96746500Y-147462001I0J249999D01*
G01*
G37*
%TD*%
D13*
%TO.C,J8*%
X52197000Y-123952000D03*
X54737000Y-123952000D03*
X57277000Y-123952000D03*
X59817000Y-123952000D03*
X62357000Y-123952000D03*
D14*
X64897000Y-123952000D03*
%TD*%
D19*
%TO.C,Y1*%
X76513000Y-142748000D03*
X68013000Y-142748000D03*
%TD*%
D13*
%TO.C,J10*%
X54991000Y-110490000D03*
X57531000Y-110490000D03*
X60071000Y-110490000D03*
D14*
X62611000Y-110490000D03*
%TD*%
D13*
%TO.C,J7*%
X54737000Y-120142000D03*
X57277000Y-120142000D03*
X59817000Y-120142000D03*
X62357000Y-120142000D03*
X64897000Y-120142000D03*
D14*
X67437000Y-120142000D03*
%TD*%
D20*
%TO.C,Y2*%
X63583000Y-140030000D03*
X58083000Y-140030000D03*
X58083000Y-136830000D03*
X63583000Y-136830000D03*
%TD*%
%TO.C,U7*%
G36*
G01*
X68050000Y-133948000D02*
X66650000Y-133948000D01*
G75*
G02*
X66575000Y-133873000I0J75000D01*
G01*
X66575000Y-133723000D01*
G75*
G02*
X66650000Y-133648000I75000J0D01*
G01*
X68050000Y-133648000D01*
G75*
G02*
X68125000Y-133723000I0J-75000D01*
G01*
X68125000Y-133873000D01*
G75*
G02*
X68050000Y-133948000I-75000J0D01*
G01*
G37*
G36*
G01*
X68050000Y-133448000D02*
X66650000Y-133448000D01*
G75*
G02*
X66575000Y-133373000I0J75000D01*
G01*
X66575000Y-133223000D01*
G75*
G02*
X66650000Y-133148000I75000J0D01*
G01*
X68050000Y-133148000D01*
G75*
G02*
X68125000Y-133223000I0J-75000D01*
G01*
X68125000Y-133373000D01*
G75*
G02*
X68050000Y-133448000I-75000J0D01*
G01*
G37*
G36*
G01*
X68050000Y-132948000D02*
X66650000Y-132948000D01*
G75*
G02*
X66575000Y-132873000I0J75000D01*
G01*
X66575000Y-132723000D01*
G75*
G02*
X66650000Y-132648000I75000J0D01*
G01*
X68050000Y-132648000D01*
G75*
G02*
X68125000Y-132723000I0J-75000D01*
G01*
X68125000Y-132873000D01*
G75*
G02*
X68050000Y-132948000I-75000J0D01*
G01*
G37*
G36*
G01*
X68050000Y-132448000D02*
X66650000Y-132448000D01*
G75*
G02*
X66575000Y-132373000I0J75000D01*
G01*
X66575000Y-132223000D01*
G75*
G02*
X66650000Y-132148000I75000J0D01*
G01*
X68050000Y-132148000D01*
G75*
G02*
X68125000Y-132223000I0J-75000D01*
G01*
X68125000Y-132373000D01*
G75*
G02*
X68050000Y-132448000I-75000J0D01*
G01*
G37*
G36*
G01*
X68050000Y-131948000D02*
X66650000Y-131948000D01*
G75*
G02*
X66575000Y-131873000I0J75000D01*
G01*
X66575000Y-131723000D01*
G75*
G02*
X66650000Y-131648000I75000J0D01*
G01*
X68050000Y-131648000D01*
G75*
G02*
X68125000Y-131723000I0J-75000D01*
G01*
X68125000Y-131873000D01*
G75*
G02*
X68050000Y-131948000I-75000J0D01*
G01*
G37*
G36*
G01*
X68050000Y-131448000D02*
X66650000Y-131448000D01*
G75*
G02*
X66575000Y-131373000I0J75000D01*
G01*
X66575000Y-131223000D01*
G75*
G02*
X66650000Y-131148000I75000J0D01*
G01*
X68050000Y-131148000D01*
G75*
G02*
X68125000Y-131223000I0J-75000D01*
G01*
X68125000Y-131373000D01*
G75*
G02*
X68050000Y-131448000I-75000J0D01*
G01*
G37*
G36*
G01*
X68050000Y-130948000D02*
X66650000Y-130948000D01*
G75*
G02*
X66575000Y-130873000I0J75000D01*
G01*
X66575000Y-130723000D01*
G75*
G02*
X66650000Y-130648000I75000J0D01*
G01*
X68050000Y-130648000D01*
G75*
G02*
X68125000Y-130723000I0J-75000D01*
G01*
X68125000Y-130873000D01*
G75*
G02*
X68050000Y-130948000I-75000J0D01*
G01*
G37*
G36*
G01*
X68050000Y-130448000D02*
X66650000Y-130448000D01*
G75*
G02*
X66575000Y-130373000I0J75000D01*
G01*
X66575000Y-130223000D01*
G75*
G02*
X66650000Y-130148000I75000J0D01*
G01*
X68050000Y-130148000D01*
G75*
G02*
X68125000Y-130223000I0J-75000D01*
G01*
X68125000Y-130373000D01*
G75*
G02*
X68050000Y-130448000I-75000J0D01*
G01*
G37*
G36*
G01*
X68050000Y-129948000D02*
X66650000Y-129948000D01*
G75*
G02*
X66575000Y-129873000I0J75000D01*
G01*
X66575000Y-129723000D01*
G75*
G02*
X66650000Y-129648000I75000J0D01*
G01*
X68050000Y-129648000D01*
G75*
G02*
X68125000Y-129723000I0J-75000D01*
G01*
X68125000Y-129873000D01*
G75*
G02*
X68050000Y-129948000I-75000J0D01*
G01*
G37*
G36*
G01*
X68050000Y-129448000D02*
X66650000Y-129448000D01*
G75*
G02*
X66575000Y-129373000I0J75000D01*
G01*
X66575000Y-129223000D01*
G75*
G02*
X66650000Y-129148000I75000J0D01*
G01*
X68050000Y-129148000D01*
G75*
G02*
X68125000Y-129223000I0J-75000D01*
G01*
X68125000Y-129373000D01*
G75*
G02*
X68050000Y-129448000I-75000J0D01*
G01*
G37*
G36*
G01*
X68050000Y-128948000D02*
X66650000Y-128948000D01*
G75*
G02*
X66575000Y-128873000I0J75000D01*
G01*
X66575000Y-128723000D01*
G75*
G02*
X66650000Y-128648000I75000J0D01*
G01*
X68050000Y-128648000D01*
G75*
G02*
X68125000Y-128723000I0J-75000D01*
G01*
X68125000Y-128873000D01*
G75*
G02*
X68050000Y-128948000I-75000J0D01*
G01*
G37*
G36*
G01*
X68050000Y-128448000D02*
X66650000Y-128448000D01*
G75*
G02*
X66575000Y-128373000I0J75000D01*
G01*
X66575000Y-128223000D01*
G75*
G02*
X66650000Y-128148000I75000J0D01*
G01*
X68050000Y-128148000D01*
G75*
G02*
X68125000Y-128223000I0J-75000D01*
G01*
X68125000Y-128373000D01*
G75*
G02*
X68050000Y-128448000I-75000J0D01*
G01*
G37*
G36*
G01*
X68050000Y-127948000D02*
X66650000Y-127948000D01*
G75*
G02*
X66575000Y-127873000I0J75000D01*
G01*
X66575000Y-127723000D01*
G75*
G02*
X66650000Y-127648000I75000J0D01*
G01*
X68050000Y-127648000D01*
G75*
G02*
X68125000Y-127723000I0J-75000D01*
G01*
X68125000Y-127873000D01*
G75*
G02*
X68050000Y-127948000I-75000J0D01*
G01*
G37*
G36*
G01*
X68050000Y-127448000D02*
X66650000Y-127448000D01*
G75*
G02*
X66575000Y-127373000I0J75000D01*
G01*
X66575000Y-127223000D01*
G75*
G02*
X66650000Y-127148000I75000J0D01*
G01*
X68050000Y-127148000D01*
G75*
G02*
X68125000Y-127223000I0J-75000D01*
G01*
X68125000Y-127373000D01*
G75*
G02*
X68050000Y-127448000I-75000J0D01*
G01*
G37*
G36*
G01*
X68050000Y-126948000D02*
X66650000Y-126948000D01*
G75*
G02*
X66575000Y-126873000I0J75000D01*
G01*
X66575000Y-126723000D01*
G75*
G02*
X66650000Y-126648000I75000J0D01*
G01*
X68050000Y-126648000D01*
G75*
G02*
X68125000Y-126723000I0J-75000D01*
G01*
X68125000Y-126873000D01*
G75*
G02*
X68050000Y-126948000I-75000J0D01*
G01*
G37*
G36*
G01*
X68050000Y-126448000D02*
X66650000Y-126448000D01*
G75*
G02*
X66575000Y-126373000I0J75000D01*
G01*
X66575000Y-126223000D01*
G75*
G02*
X66650000Y-126148000I75000J0D01*
G01*
X68050000Y-126148000D01*
G75*
G02*
X68125000Y-126223000I0J-75000D01*
G01*
X68125000Y-126373000D01*
G75*
G02*
X68050000Y-126448000I-75000J0D01*
G01*
G37*
G36*
G01*
X69350000Y-125148000D02*
X69200000Y-125148000D01*
G75*
G02*
X69125000Y-125073000I0J75000D01*
G01*
X69125000Y-123673000D01*
G75*
G02*
X69200000Y-123598000I75000J0D01*
G01*
X69350000Y-123598000D01*
G75*
G02*
X69425000Y-123673000I0J-75000D01*
G01*
X69425000Y-125073000D01*
G75*
G02*
X69350000Y-125148000I-75000J0D01*
G01*
G37*
G36*
G01*
X69850000Y-125148000D02*
X69700000Y-125148000D01*
G75*
G02*
X69625000Y-125073000I0J75000D01*
G01*
X69625000Y-123673000D01*
G75*
G02*
X69700000Y-123598000I75000J0D01*
G01*
X69850000Y-123598000D01*
G75*
G02*
X69925000Y-123673000I0J-75000D01*
G01*
X69925000Y-125073000D01*
G75*
G02*
X69850000Y-125148000I-75000J0D01*
G01*
G37*
G36*
G01*
X70350000Y-125148000D02*
X70200000Y-125148000D01*
G75*
G02*
X70125000Y-125073000I0J75000D01*
G01*
X70125000Y-123673000D01*
G75*
G02*
X70200000Y-123598000I75000J0D01*
G01*
X70350000Y-123598000D01*
G75*
G02*
X70425000Y-123673000I0J-75000D01*
G01*
X70425000Y-125073000D01*
G75*
G02*
X70350000Y-125148000I-75000J0D01*
G01*
G37*
G36*
G01*
X70850000Y-125148000D02*
X70700000Y-125148000D01*
G75*
G02*
X70625000Y-125073000I0J75000D01*
G01*
X70625000Y-123673000D01*
G75*
G02*
X70700000Y-123598000I75000J0D01*
G01*
X70850000Y-123598000D01*
G75*
G02*
X70925000Y-123673000I0J-75000D01*
G01*
X70925000Y-125073000D01*
G75*
G02*
X70850000Y-125148000I-75000J0D01*
G01*
G37*
G36*
G01*
X71350000Y-125148000D02*
X71200000Y-125148000D01*
G75*
G02*
X71125000Y-125073000I0J75000D01*
G01*
X71125000Y-123673000D01*
G75*
G02*
X71200000Y-123598000I75000J0D01*
G01*
X71350000Y-123598000D01*
G75*
G02*
X71425000Y-123673000I0J-75000D01*
G01*
X71425000Y-125073000D01*
G75*
G02*
X71350000Y-125148000I-75000J0D01*
G01*
G37*
G36*
G01*
X71850000Y-125148000D02*
X71700000Y-125148000D01*
G75*
G02*
X71625000Y-125073000I0J75000D01*
G01*
X71625000Y-123673000D01*
G75*
G02*
X71700000Y-123598000I75000J0D01*
G01*
X71850000Y-123598000D01*
G75*
G02*
X71925000Y-123673000I0J-75000D01*
G01*
X71925000Y-125073000D01*
G75*
G02*
X71850000Y-125148000I-75000J0D01*
G01*
G37*
G36*
G01*
X72350000Y-125148000D02*
X72200000Y-125148000D01*
G75*
G02*
X72125000Y-125073000I0J75000D01*
G01*
X72125000Y-123673000D01*
G75*
G02*
X72200000Y-123598000I75000J0D01*
G01*
X72350000Y-123598000D01*
G75*
G02*
X72425000Y-123673000I0J-75000D01*
G01*
X72425000Y-125073000D01*
G75*
G02*
X72350000Y-125148000I-75000J0D01*
G01*
G37*
G36*
G01*
X72850000Y-125148000D02*
X72700000Y-125148000D01*
G75*
G02*
X72625000Y-125073000I0J75000D01*
G01*
X72625000Y-123673000D01*
G75*
G02*
X72700000Y-123598000I75000J0D01*
G01*
X72850000Y-123598000D01*
G75*
G02*
X72925000Y-123673000I0J-75000D01*
G01*
X72925000Y-125073000D01*
G75*
G02*
X72850000Y-125148000I-75000J0D01*
G01*
G37*
G36*
G01*
X73350000Y-125148000D02*
X73200000Y-125148000D01*
G75*
G02*
X73125000Y-125073000I0J75000D01*
G01*
X73125000Y-123673000D01*
G75*
G02*
X73200000Y-123598000I75000J0D01*
G01*
X73350000Y-123598000D01*
G75*
G02*
X73425000Y-123673000I0J-75000D01*
G01*
X73425000Y-125073000D01*
G75*
G02*
X73350000Y-125148000I-75000J0D01*
G01*
G37*
G36*
G01*
X73850000Y-125148000D02*
X73700000Y-125148000D01*
G75*
G02*
X73625000Y-125073000I0J75000D01*
G01*
X73625000Y-123673000D01*
G75*
G02*
X73700000Y-123598000I75000J0D01*
G01*
X73850000Y-123598000D01*
G75*
G02*
X73925000Y-123673000I0J-75000D01*
G01*
X73925000Y-125073000D01*
G75*
G02*
X73850000Y-125148000I-75000J0D01*
G01*
G37*
G36*
G01*
X74350000Y-125148000D02*
X74200000Y-125148000D01*
G75*
G02*
X74125000Y-125073000I0J75000D01*
G01*
X74125000Y-123673000D01*
G75*
G02*
X74200000Y-123598000I75000J0D01*
G01*
X74350000Y-123598000D01*
G75*
G02*
X74425000Y-123673000I0J-75000D01*
G01*
X74425000Y-125073000D01*
G75*
G02*
X74350000Y-125148000I-75000J0D01*
G01*
G37*
G36*
G01*
X74850000Y-125148000D02*
X74700000Y-125148000D01*
G75*
G02*
X74625000Y-125073000I0J75000D01*
G01*
X74625000Y-123673000D01*
G75*
G02*
X74700000Y-123598000I75000J0D01*
G01*
X74850000Y-123598000D01*
G75*
G02*
X74925000Y-123673000I0J-75000D01*
G01*
X74925000Y-125073000D01*
G75*
G02*
X74850000Y-125148000I-75000J0D01*
G01*
G37*
G36*
G01*
X75350000Y-125148000D02*
X75200000Y-125148000D01*
G75*
G02*
X75125000Y-125073000I0J75000D01*
G01*
X75125000Y-123673000D01*
G75*
G02*
X75200000Y-123598000I75000J0D01*
G01*
X75350000Y-123598000D01*
G75*
G02*
X75425000Y-123673000I0J-75000D01*
G01*
X75425000Y-125073000D01*
G75*
G02*
X75350000Y-125148000I-75000J0D01*
G01*
G37*
G36*
G01*
X75850000Y-125148000D02*
X75700000Y-125148000D01*
G75*
G02*
X75625000Y-125073000I0J75000D01*
G01*
X75625000Y-123673000D01*
G75*
G02*
X75700000Y-123598000I75000J0D01*
G01*
X75850000Y-123598000D01*
G75*
G02*
X75925000Y-123673000I0J-75000D01*
G01*
X75925000Y-125073000D01*
G75*
G02*
X75850000Y-125148000I-75000J0D01*
G01*
G37*
G36*
G01*
X76350000Y-125148000D02*
X76200000Y-125148000D01*
G75*
G02*
X76125000Y-125073000I0J75000D01*
G01*
X76125000Y-123673000D01*
G75*
G02*
X76200000Y-123598000I75000J0D01*
G01*
X76350000Y-123598000D01*
G75*
G02*
X76425000Y-123673000I0J-75000D01*
G01*
X76425000Y-125073000D01*
G75*
G02*
X76350000Y-125148000I-75000J0D01*
G01*
G37*
G36*
G01*
X76850000Y-125148000D02*
X76700000Y-125148000D01*
G75*
G02*
X76625000Y-125073000I0J75000D01*
G01*
X76625000Y-123673000D01*
G75*
G02*
X76700000Y-123598000I75000J0D01*
G01*
X76850000Y-123598000D01*
G75*
G02*
X76925000Y-123673000I0J-75000D01*
G01*
X76925000Y-125073000D01*
G75*
G02*
X76850000Y-125148000I-75000J0D01*
G01*
G37*
G36*
G01*
X79400000Y-126448000D02*
X78000000Y-126448000D01*
G75*
G02*
X77925000Y-126373000I0J75000D01*
G01*
X77925000Y-126223000D01*
G75*
G02*
X78000000Y-126148000I75000J0D01*
G01*
X79400000Y-126148000D01*
G75*
G02*
X79475000Y-126223000I0J-75000D01*
G01*
X79475000Y-126373000D01*
G75*
G02*
X79400000Y-126448000I-75000J0D01*
G01*
G37*
G36*
G01*
X79400000Y-126948000D02*
X78000000Y-126948000D01*
G75*
G02*
X77925000Y-126873000I0J75000D01*
G01*
X77925000Y-126723000D01*
G75*
G02*
X78000000Y-126648000I75000J0D01*
G01*
X79400000Y-126648000D01*
G75*
G02*
X79475000Y-126723000I0J-75000D01*
G01*
X79475000Y-126873000D01*
G75*
G02*
X79400000Y-126948000I-75000J0D01*
G01*
G37*
G36*
G01*
X79400000Y-127448000D02*
X78000000Y-127448000D01*
G75*
G02*
X77925000Y-127373000I0J75000D01*
G01*
X77925000Y-127223000D01*
G75*
G02*
X78000000Y-127148000I75000J0D01*
G01*
X79400000Y-127148000D01*
G75*
G02*
X79475000Y-127223000I0J-75000D01*
G01*
X79475000Y-127373000D01*
G75*
G02*
X79400000Y-127448000I-75000J0D01*
G01*
G37*
G36*
G01*
X79400000Y-127948000D02*
X78000000Y-127948000D01*
G75*
G02*
X77925000Y-127873000I0J75000D01*
G01*
X77925000Y-127723000D01*
G75*
G02*
X78000000Y-127648000I75000J0D01*
G01*
X79400000Y-127648000D01*
G75*
G02*
X79475000Y-127723000I0J-75000D01*
G01*
X79475000Y-127873000D01*
G75*
G02*
X79400000Y-127948000I-75000J0D01*
G01*
G37*
G36*
G01*
X79400000Y-128448000D02*
X78000000Y-128448000D01*
G75*
G02*
X77925000Y-128373000I0J75000D01*
G01*
X77925000Y-128223000D01*
G75*
G02*
X78000000Y-128148000I75000J0D01*
G01*
X79400000Y-128148000D01*
G75*
G02*
X79475000Y-128223000I0J-75000D01*
G01*
X79475000Y-128373000D01*
G75*
G02*
X79400000Y-128448000I-75000J0D01*
G01*
G37*
G36*
G01*
X79400000Y-128948000D02*
X78000000Y-128948000D01*
G75*
G02*
X77925000Y-128873000I0J75000D01*
G01*
X77925000Y-128723000D01*
G75*
G02*
X78000000Y-128648000I75000J0D01*
G01*
X79400000Y-128648000D01*
G75*
G02*
X79475000Y-128723000I0J-75000D01*
G01*
X79475000Y-128873000D01*
G75*
G02*
X79400000Y-128948000I-75000J0D01*
G01*
G37*
G36*
G01*
X79400000Y-129448000D02*
X78000000Y-129448000D01*
G75*
G02*
X77925000Y-129373000I0J75000D01*
G01*
X77925000Y-129223000D01*
G75*
G02*
X78000000Y-129148000I75000J0D01*
G01*
X79400000Y-129148000D01*
G75*
G02*
X79475000Y-129223000I0J-75000D01*
G01*
X79475000Y-129373000D01*
G75*
G02*
X79400000Y-129448000I-75000J0D01*
G01*
G37*
G36*
G01*
X79400000Y-129948000D02*
X78000000Y-129948000D01*
G75*
G02*
X77925000Y-129873000I0J75000D01*
G01*
X77925000Y-129723000D01*
G75*
G02*
X78000000Y-129648000I75000J0D01*
G01*
X79400000Y-129648000D01*
G75*
G02*
X79475000Y-129723000I0J-75000D01*
G01*
X79475000Y-129873000D01*
G75*
G02*
X79400000Y-129948000I-75000J0D01*
G01*
G37*
G36*
G01*
X79400000Y-130448000D02*
X78000000Y-130448000D01*
G75*
G02*
X77925000Y-130373000I0J75000D01*
G01*
X77925000Y-130223000D01*
G75*
G02*
X78000000Y-130148000I75000J0D01*
G01*
X79400000Y-130148000D01*
G75*
G02*
X79475000Y-130223000I0J-75000D01*
G01*
X79475000Y-130373000D01*
G75*
G02*
X79400000Y-130448000I-75000J0D01*
G01*
G37*
G36*
G01*
X79400000Y-130948000D02*
X78000000Y-130948000D01*
G75*
G02*
X77925000Y-130873000I0J75000D01*
G01*
X77925000Y-130723000D01*
G75*
G02*
X78000000Y-130648000I75000J0D01*
G01*
X79400000Y-130648000D01*
G75*
G02*
X79475000Y-130723000I0J-75000D01*
G01*
X79475000Y-130873000D01*
G75*
G02*
X79400000Y-130948000I-75000J0D01*
G01*
G37*
G36*
G01*
X79400000Y-131448000D02*
X78000000Y-131448000D01*
G75*
G02*
X77925000Y-131373000I0J75000D01*
G01*
X77925000Y-131223000D01*
G75*
G02*
X78000000Y-131148000I75000J0D01*
G01*
X79400000Y-131148000D01*
G75*
G02*
X79475000Y-131223000I0J-75000D01*
G01*
X79475000Y-131373000D01*
G75*
G02*
X79400000Y-131448000I-75000J0D01*
G01*
G37*
G36*
G01*
X79400000Y-131948000D02*
X78000000Y-131948000D01*
G75*
G02*
X77925000Y-131873000I0J75000D01*
G01*
X77925000Y-131723000D01*
G75*
G02*
X78000000Y-131648000I75000J0D01*
G01*
X79400000Y-131648000D01*
G75*
G02*
X79475000Y-131723000I0J-75000D01*
G01*
X79475000Y-131873000D01*
G75*
G02*
X79400000Y-131948000I-75000J0D01*
G01*
G37*
G36*
G01*
X79400000Y-132448000D02*
X78000000Y-132448000D01*
G75*
G02*
X77925000Y-132373000I0J75000D01*
G01*
X77925000Y-132223000D01*
G75*
G02*
X78000000Y-132148000I75000J0D01*
G01*
X79400000Y-132148000D01*
G75*
G02*
X79475000Y-132223000I0J-75000D01*
G01*
X79475000Y-132373000D01*
G75*
G02*
X79400000Y-132448000I-75000J0D01*
G01*
G37*
G36*
G01*
X79400000Y-132948000D02*
X78000000Y-132948000D01*
G75*
G02*
X77925000Y-132873000I0J75000D01*
G01*
X77925000Y-132723000D01*
G75*
G02*
X78000000Y-132648000I75000J0D01*
G01*
X79400000Y-132648000D01*
G75*
G02*
X79475000Y-132723000I0J-75000D01*
G01*
X79475000Y-132873000D01*
G75*
G02*
X79400000Y-132948000I-75000J0D01*
G01*
G37*
G36*
G01*
X79400000Y-133448000D02*
X78000000Y-133448000D01*
G75*
G02*
X77925000Y-133373000I0J75000D01*
G01*
X77925000Y-133223000D01*
G75*
G02*
X78000000Y-133148000I75000J0D01*
G01*
X79400000Y-133148000D01*
G75*
G02*
X79475000Y-133223000I0J-75000D01*
G01*
X79475000Y-133373000D01*
G75*
G02*
X79400000Y-133448000I-75000J0D01*
G01*
G37*
G36*
G01*
X79400000Y-133948000D02*
X78000000Y-133948000D01*
G75*
G02*
X77925000Y-133873000I0J75000D01*
G01*
X77925000Y-133723000D01*
G75*
G02*
X78000000Y-133648000I75000J0D01*
G01*
X79400000Y-133648000D01*
G75*
G02*
X79475000Y-133723000I0J-75000D01*
G01*
X79475000Y-133873000D01*
G75*
G02*
X79400000Y-133948000I-75000J0D01*
G01*
G37*
G36*
G01*
X76850000Y-136498000D02*
X76700000Y-136498000D01*
G75*
G02*
X76625000Y-136423000I0J75000D01*
G01*
X76625000Y-135023000D01*
G75*
G02*
X76700000Y-134948000I75000J0D01*
G01*
X76850000Y-134948000D01*
G75*
G02*
X76925000Y-135023000I0J-75000D01*
G01*
X76925000Y-136423000D01*
G75*
G02*
X76850000Y-136498000I-75000J0D01*
G01*
G37*
G36*
G01*
X76350000Y-136498000D02*
X76200000Y-136498000D01*
G75*
G02*
X76125000Y-136423000I0J75000D01*
G01*
X76125000Y-135023000D01*
G75*
G02*
X76200000Y-134948000I75000J0D01*
G01*
X76350000Y-134948000D01*
G75*
G02*
X76425000Y-135023000I0J-75000D01*
G01*
X76425000Y-136423000D01*
G75*
G02*
X76350000Y-136498000I-75000J0D01*
G01*
G37*
G36*
G01*
X75850000Y-136498000D02*
X75700000Y-136498000D01*
G75*
G02*
X75625000Y-136423000I0J75000D01*
G01*
X75625000Y-135023000D01*
G75*
G02*
X75700000Y-134948000I75000J0D01*
G01*
X75850000Y-134948000D01*
G75*
G02*
X75925000Y-135023000I0J-75000D01*
G01*
X75925000Y-136423000D01*
G75*
G02*
X75850000Y-136498000I-75000J0D01*
G01*
G37*
G36*
G01*
X75350000Y-136498000D02*
X75200000Y-136498000D01*
G75*
G02*
X75125000Y-136423000I0J75000D01*
G01*
X75125000Y-135023000D01*
G75*
G02*
X75200000Y-134948000I75000J0D01*
G01*
X75350000Y-134948000D01*
G75*
G02*
X75425000Y-135023000I0J-75000D01*
G01*
X75425000Y-136423000D01*
G75*
G02*
X75350000Y-136498000I-75000J0D01*
G01*
G37*
G36*
G01*
X74850000Y-136498000D02*
X74700000Y-136498000D01*
G75*
G02*
X74625000Y-136423000I0J75000D01*
G01*
X74625000Y-135023000D01*
G75*
G02*
X74700000Y-134948000I75000J0D01*
G01*
X74850000Y-134948000D01*
G75*
G02*
X74925000Y-135023000I0J-75000D01*
G01*
X74925000Y-136423000D01*
G75*
G02*
X74850000Y-136498000I-75000J0D01*
G01*
G37*
G36*
G01*
X74350000Y-136498000D02*
X74200000Y-136498000D01*
G75*
G02*
X74125000Y-136423000I0J75000D01*
G01*
X74125000Y-135023000D01*
G75*
G02*
X74200000Y-134948000I75000J0D01*
G01*
X74350000Y-134948000D01*
G75*
G02*
X74425000Y-135023000I0J-75000D01*
G01*
X74425000Y-136423000D01*
G75*
G02*
X74350000Y-136498000I-75000J0D01*
G01*
G37*
G36*
G01*
X73850000Y-136498000D02*
X73700000Y-136498000D01*
G75*
G02*
X73625000Y-136423000I0J75000D01*
G01*
X73625000Y-135023000D01*
G75*
G02*
X73700000Y-134948000I75000J0D01*
G01*
X73850000Y-134948000D01*
G75*
G02*
X73925000Y-135023000I0J-75000D01*
G01*
X73925000Y-136423000D01*
G75*
G02*
X73850000Y-136498000I-75000J0D01*
G01*
G37*
G36*
G01*
X73350000Y-136498000D02*
X73200000Y-136498000D01*
G75*
G02*
X73125000Y-136423000I0J75000D01*
G01*
X73125000Y-135023000D01*
G75*
G02*
X73200000Y-134948000I75000J0D01*
G01*
X73350000Y-134948000D01*
G75*
G02*
X73425000Y-135023000I0J-75000D01*
G01*
X73425000Y-136423000D01*
G75*
G02*
X73350000Y-136498000I-75000J0D01*
G01*
G37*
G36*
G01*
X72850000Y-136498000D02*
X72700000Y-136498000D01*
G75*
G02*
X72625000Y-136423000I0J75000D01*
G01*
X72625000Y-135023000D01*
G75*
G02*
X72700000Y-134948000I75000J0D01*
G01*
X72850000Y-134948000D01*
G75*
G02*
X72925000Y-135023000I0J-75000D01*
G01*
X72925000Y-136423000D01*
G75*
G02*
X72850000Y-136498000I-75000J0D01*
G01*
G37*
G36*
G01*
X72350000Y-136498000D02*
X72200000Y-136498000D01*
G75*
G02*
X72125000Y-136423000I0J75000D01*
G01*
X72125000Y-135023000D01*
G75*
G02*
X72200000Y-134948000I75000J0D01*
G01*
X72350000Y-134948000D01*
G75*
G02*
X72425000Y-135023000I0J-75000D01*
G01*
X72425000Y-136423000D01*
G75*
G02*
X72350000Y-136498000I-75000J0D01*
G01*
G37*
G36*
G01*
X71850000Y-136498000D02*
X71700000Y-136498000D01*
G75*
G02*
X71625000Y-136423000I0J75000D01*
G01*
X71625000Y-135023000D01*
G75*
G02*
X71700000Y-134948000I75000J0D01*
G01*
X71850000Y-134948000D01*
G75*
G02*
X71925000Y-135023000I0J-75000D01*
G01*
X71925000Y-136423000D01*
G75*
G02*
X71850000Y-136498000I-75000J0D01*
G01*
G37*
G36*
G01*
X71350000Y-136498000D02*
X71200000Y-136498000D01*
G75*
G02*
X71125000Y-136423000I0J75000D01*
G01*
X71125000Y-135023000D01*
G75*
G02*
X71200000Y-134948000I75000J0D01*
G01*
X71350000Y-134948000D01*
G75*
G02*
X71425000Y-135023000I0J-75000D01*
G01*
X71425000Y-136423000D01*
G75*
G02*
X71350000Y-136498000I-75000J0D01*
G01*
G37*
G36*
G01*
X70850000Y-136498000D02*
X70700000Y-136498000D01*
G75*
G02*
X70625000Y-136423000I0J75000D01*
G01*
X70625000Y-135023000D01*
G75*
G02*
X70700000Y-134948000I75000J0D01*
G01*
X70850000Y-134948000D01*
G75*
G02*
X70925000Y-135023000I0J-75000D01*
G01*
X70925000Y-136423000D01*
G75*
G02*
X70850000Y-136498000I-75000J0D01*
G01*
G37*
G36*
G01*
X70350000Y-136498000D02*
X70200000Y-136498000D01*
G75*
G02*
X70125000Y-136423000I0J75000D01*
G01*
X70125000Y-135023000D01*
G75*
G02*
X70200000Y-134948000I75000J0D01*
G01*
X70350000Y-134948000D01*
G75*
G02*
X70425000Y-135023000I0J-75000D01*
G01*
X70425000Y-136423000D01*
G75*
G02*
X70350000Y-136498000I-75000J0D01*
G01*
G37*
G36*
G01*
X69850000Y-136498000D02*
X69700000Y-136498000D01*
G75*
G02*
X69625000Y-136423000I0J75000D01*
G01*
X69625000Y-135023000D01*
G75*
G02*
X69700000Y-134948000I75000J0D01*
G01*
X69850000Y-134948000D01*
G75*
G02*
X69925000Y-135023000I0J-75000D01*
G01*
X69925000Y-136423000D01*
G75*
G02*
X69850000Y-136498000I-75000J0D01*
G01*
G37*
G36*
G01*
X69350000Y-136498000D02*
X69200000Y-136498000D01*
G75*
G02*
X69125000Y-136423000I0J75000D01*
G01*
X69125000Y-135023000D01*
G75*
G02*
X69200000Y-134948000I75000J0D01*
G01*
X69350000Y-134948000D01*
G75*
G02*
X69425000Y-135023000I0J-75000D01*
G01*
X69425000Y-136423000D01*
G75*
G02*
X69350000Y-136498000I-75000J0D01*
G01*
G37*
%TD*%
%TO.C,U6*%
G36*
G01*
X68050000Y-133948000D02*
X66650000Y-133948000D01*
G75*
G02*
X66575000Y-133873000I0J75000D01*
G01*
X66575000Y-133723000D01*
G75*
G02*
X66650000Y-133648000I75000J0D01*
G01*
X68050000Y-133648000D01*
G75*
G02*
X68125000Y-133723000I0J-75000D01*
G01*
X68125000Y-133873000D01*
G75*
G02*
X68050000Y-133948000I-75000J0D01*
G01*
G37*
G36*
G01*
X68050000Y-133448000D02*
X66650000Y-133448000D01*
G75*
G02*
X66575000Y-133373000I0J75000D01*
G01*
X66575000Y-133223000D01*
G75*
G02*
X66650000Y-133148000I75000J0D01*
G01*
X68050000Y-133148000D01*
G75*
G02*
X68125000Y-133223000I0J-75000D01*
G01*
X68125000Y-133373000D01*
G75*
G02*
X68050000Y-133448000I-75000J0D01*
G01*
G37*
G36*
G01*
X68050000Y-132948000D02*
X66650000Y-132948000D01*
G75*
G02*
X66575000Y-132873000I0J75000D01*
G01*
X66575000Y-132723000D01*
G75*
G02*
X66650000Y-132648000I75000J0D01*
G01*
X68050000Y-132648000D01*
G75*
G02*
X68125000Y-132723000I0J-75000D01*
G01*
X68125000Y-132873000D01*
G75*
G02*
X68050000Y-132948000I-75000J0D01*
G01*
G37*
G36*
G01*
X68050000Y-132448000D02*
X66650000Y-132448000D01*
G75*
G02*
X66575000Y-132373000I0J75000D01*
G01*
X66575000Y-132223000D01*
G75*
G02*
X66650000Y-132148000I75000J0D01*
G01*
X68050000Y-132148000D01*
G75*
G02*
X68125000Y-132223000I0J-75000D01*
G01*
X68125000Y-132373000D01*
G75*
G02*
X68050000Y-132448000I-75000J0D01*
G01*
G37*
G36*
G01*
X68050000Y-131948000D02*
X66650000Y-131948000D01*
G75*
G02*
X66575000Y-131873000I0J75000D01*
G01*
X66575000Y-131723000D01*
G75*
G02*
X66650000Y-131648000I75000J0D01*
G01*
X68050000Y-131648000D01*
G75*
G02*
X68125000Y-131723000I0J-75000D01*
G01*
X68125000Y-131873000D01*
G75*
G02*
X68050000Y-131948000I-75000J0D01*
G01*
G37*
G36*
G01*
X68050000Y-131448000D02*
X66650000Y-131448000D01*
G75*
G02*
X66575000Y-131373000I0J75000D01*
G01*
X66575000Y-131223000D01*
G75*
G02*
X66650000Y-131148000I75000J0D01*
G01*
X68050000Y-131148000D01*
G75*
G02*
X68125000Y-131223000I0J-75000D01*
G01*
X68125000Y-131373000D01*
G75*
G02*
X68050000Y-131448000I-75000J0D01*
G01*
G37*
G36*
G01*
X68050000Y-130948000D02*
X66650000Y-130948000D01*
G75*
G02*
X66575000Y-130873000I0J75000D01*
G01*
X66575000Y-130723000D01*
G75*
G02*
X66650000Y-130648000I75000J0D01*
G01*
X68050000Y-130648000D01*
G75*
G02*
X68125000Y-130723000I0J-75000D01*
G01*
X68125000Y-130873000D01*
G75*
G02*
X68050000Y-130948000I-75000J0D01*
G01*
G37*
G36*
G01*
X68050000Y-130448000D02*
X66650000Y-130448000D01*
G75*
G02*
X66575000Y-130373000I0J75000D01*
G01*
X66575000Y-130223000D01*
G75*
G02*
X66650000Y-130148000I75000J0D01*
G01*
X68050000Y-130148000D01*
G75*
G02*
X68125000Y-130223000I0J-75000D01*
G01*
X68125000Y-130373000D01*
G75*
G02*
X68050000Y-130448000I-75000J0D01*
G01*
G37*
G36*
G01*
X68050000Y-129948000D02*
X66650000Y-129948000D01*
G75*
G02*
X66575000Y-129873000I0J75000D01*
G01*
X66575000Y-129723000D01*
G75*
G02*
X66650000Y-129648000I75000J0D01*
G01*
X68050000Y-129648000D01*
G75*
G02*
X68125000Y-129723000I0J-75000D01*
G01*
X68125000Y-129873000D01*
G75*
G02*
X68050000Y-129948000I-75000J0D01*
G01*
G37*
G36*
G01*
X68050000Y-129448000D02*
X66650000Y-129448000D01*
G75*
G02*
X66575000Y-129373000I0J75000D01*
G01*
X66575000Y-129223000D01*
G75*
G02*
X66650000Y-129148000I75000J0D01*
G01*
X68050000Y-129148000D01*
G75*
G02*
X68125000Y-129223000I0J-75000D01*
G01*
X68125000Y-129373000D01*
G75*
G02*
X68050000Y-129448000I-75000J0D01*
G01*
G37*
G36*
G01*
X68050000Y-128948000D02*
X66650000Y-128948000D01*
G75*
G02*
X66575000Y-128873000I0J75000D01*
G01*
X66575000Y-128723000D01*
G75*
G02*
X66650000Y-128648000I75000J0D01*
G01*
X68050000Y-128648000D01*
G75*
G02*
X68125000Y-128723000I0J-75000D01*
G01*
X68125000Y-128873000D01*
G75*
G02*
X68050000Y-128948000I-75000J0D01*
G01*
G37*
G36*
G01*
X68050000Y-128448000D02*
X66650000Y-128448000D01*
G75*
G02*
X66575000Y-128373000I0J75000D01*
G01*
X66575000Y-128223000D01*
G75*
G02*
X66650000Y-128148000I75000J0D01*
G01*
X68050000Y-128148000D01*
G75*
G02*
X68125000Y-128223000I0J-75000D01*
G01*
X68125000Y-128373000D01*
G75*
G02*
X68050000Y-128448000I-75000J0D01*
G01*
G37*
G36*
G01*
X68050000Y-127948000D02*
X66650000Y-127948000D01*
G75*
G02*
X66575000Y-127873000I0J75000D01*
G01*
X66575000Y-127723000D01*
G75*
G02*
X66650000Y-127648000I75000J0D01*
G01*
X68050000Y-127648000D01*
G75*
G02*
X68125000Y-127723000I0J-75000D01*
G01*
X68125000Y-127873000D01*
G75*
G02*
X68050000Y-127948000I-75000J0D01*
G01*
G37*
G36*
G01*
X68050000Y-127448000D02*
X66650000Y-127448000D01*
G75*
G02*
X66575000Y-127373000I0J75000D01*
G01*
X66575000Y-127223000D01*
G75*
G02*
X66650000Y-127148000I75000J0D01*
G01*
X68050000Y-127148000D01*
G75*
G02*
X68125000Y-127223000I0J-75000D01*
G01*
X68125000Y-127373000D01*
G75*
G02*
X68050000Y-127448000I-75000J0D01*
G01*
G37*
G36*
G01*
X68050000Y-126948000D02*
X66650000Y-126948000D01*
G75*
G02*
X66575000Y-126873000I0J75000D01*
G01*
X66575000Y-126723000D01*
G75*
G02*
X66650000Y-126648000I75000J0D01*
G01*
X68050000Y-126648000D01*
G75*
G02*
X68125000Y-126723000I0J-75000D01*
G01*
X68125000Y-126873000D01*
G75*
G02*
X68050000Y-126948000I-75000J0D01*
G01*
G37*
G36*
G01*
X68050000Y-126448000D02*
X66650000Y-126448000D01*
G75*
G02*
X66575000Y-126373000I0J75000D01*
G01*
X66575000Y-126223000D01*
G75*
G02*
X66650000Y-126148000I75000J0D01*
G01*
X68050000Y-126148000D01*
G75*
G02*
X68125000Y-126223000I0J-75000D01*
G01*
X68125000Y-126373000D01*
G75*
G02*
X68050000Y-126448000I-75000J0D01*
G01*
G37*
G36*
G01*
X69350000Y-125148000D02*
X69200000Y-125148000D01*
G75*
G02*
X69125000Y-125073000I0J75000D01*
G01*
X69125000Y-123673000D01*
G75*
G02*
X69200000Y-123598000I75000J0D01*
G01*
X69350000Y-123598000D01*
G75*
G02*
X69425000Y-123673000I0J-75000D01*
G01*
X69425000Y-125073000D01*
G75*
G02*
X69350000Y-125148000I-75000J0D01*
G01*
G37*
G36*
G01*
X69850000Y-125148000D02*
X69700000Y-125148000D01*
G75*
G02*
X69625000Y-125073000I0J75000D01*
G01*
X69625000Y-123673000D01*
G75*
G02*
X69700000Y-123598000I75000J0D01*
G01*
X69850000Y-123598000D01*
G75*
G02*
X69925000Y-123673000I0J-75000D01*
G01*
X69925000Y-125073000D01*
G75*
G02*
X69850000Y-125148000I-75000J0D01*
G01*
G37*
G36*
G01*
X70350000Y-125148000D02*
X70200000Y-125148000D01*
G75*
G02*
X70125000Y-125073000I0J75000D01*
G01*
X70125000Y-123673000D01*
G75*
G02*
X70200000Y-123598000I75000J0D01*
G01*
X70350000Y-123598000D01*
G75*
G02*
X70425000Y-123673000I0J-75000D01*
G01*
X70425000Y-125073000D01*
G75*
G02*
X70350000Y-125148000I-75000J0D01*
G01*
G37*
G36*
G01*
X70850000Y-125148000D02*
X70700000Y-125148000D01*
G75*
G02*
X70625000Y-125073000I0J75000D01*
G01*
X70625000Y-123673000D01*
G75*
G02*
X70700000Y-123598000I75000J0D01*
G01*
X70850000Y-123598000D01*
G75*
G02*
X70925000Y-123673000I0J-75000D01*
G01*
X70925000Y-125073000D01*
G75*
G02*
X70850000Y-125148000I-75000J0D01*
G01*
G37*
G36*
G01*
X71350000Y-125148000D02*
X71200000Y-125148000D01*
G75*
G02*
X71125000Y-125073000I0J75000D01*
G01*
X71125000Y-123673000D01*
G75*
G02*
X71200000Y-123598000I75000J0D01*
G01*
X71350000Y-123598000D01*
G75*
G02*
X71425000Y-123673000I0J-75000D01*
G01*
X71425000Y-125073000D01*
G75*
G02*
X71350000Y-125148000I-75000J0D01*
G01*
G37*
G36*
G01*
X71850000Y-125148000D02*
X71700000Y-125148000D01*
G75*
G02*
X71625000Y-125073000I0J75000D01*
G01*
X71625000Y-123673000D01*
G75*
G02*
X71700000Y-123598000I75000J0D01*
G01*
X71850000Y-123598000D01*
G75*
G02*
X71925000Y-123673000I0J-75000D01*
G01*
X71925000Y-125073000D01*
G75*
G02*
X71850000Y-125148000I-75000J0D01*
G01*
G37*
G36*
G01*
X72350000Y-125148000D02*
X72200000Y-125148000D01*
G75*
G02*
X72125000Y-125073000I0J75000D01*
G01*
X72125000Y-123673000D01*
G75*
G02*
X72200000Y-123598000I75000J0D01*
G01*
X72350000Y-123598000D01*
G75*
G02*
X72425000Y-123673000I0J-75000D01*
G01*
X72425000Y-125073000D01*
G75*
G02*
X72350000Y-125148000I-75000J0D01*
G01*
G37*
G36*
G01*
X72850000Y-125148000D02*
X72700000Y-125148000D01*
G75*
G02*
X72625000Y-125073000I0J75000D01*
G01*
X72625000Y-123673000D01*
G75*
G02*
X72700000Y-123598000I75000J0D01*
G01*
X72850000Y-123598000D01*
G75*
G02*
X72925000Y-123673000I0J-75000D01*
G01*
X72925000Y-125073000D01*
G75*
G02*
X72850000Y-125148000I-75000J0D01*
G01*
G37*
G36*
G01*
X73350000Y-125148000D02*
X73200000Y-125148000D01*
G75*
G02*
X73125000Y-125073000I0J75000D01*
G01*
X73125000Y-123673000D01*
G75*
G02*
X73200000Y-123598000I75000J0D01*
G01*
X73350000Y-123598000D01*
G75*
G02*
X73425000Y-123673000I0J-75000D01*
G01*
X73425000Y-125073000D01*
G75*
G02*
X73350000Y-125148000I-75000J0D01*
G01*
G37*
G36*
G01*
X73850000Y-125148000D02*
X73700000Y-125148000D01*
G75*
G02*
X73625000Y-125073000I0J75000D01*
G01*
X73625000Y-123673000D01*
G75*
G02*
X73700000Y-123598000I75000J0D01*
G01*
X73850000Y-123598000D01*
G75*
G02*
X73925000Y-123673000I0J-75000D01*
G01*
X73925000Y-125073000D01*
G75*
G02*
X73850000Y-125148000I-75000J0D01*
G01*
G37*
G36*
G01*
X74350000Y-125148000D02*
X74200000Y-125148000D01*
G75*
G02*
X74125000Y-125073000I0J75000D01*
G01*
X74125000Y-123673000D01*
G75*
G02*
X74200000Y-123598000I75000J0D01*
G01*
X74350000Y-123598000D01*
G75*
G02*
X74425000Y-123673000I0J-75000D01*
G01*
X74425000Y-125073000D01*
G75*
G02*
X74350000Y-125148000I-75000J0D01*
G01*
G37*
G36*
G01*
X74850000Y-125148000D02*
X74700000Y-125148000D01*
G75*
G02*
X74625000Y-125073000I0J75000D01*
G01*
X74625000Y-123673000D01*
G75*
G02*
X74700000Y-123598000I75000J0D01*
G01*
X74850000Y-123598000D01*
G75*
G02*
X74925000Y-123673000I0J-75000D01*
G01*
X74925000Y-125073000D01*
G75*
G02*
X74850000Y-125148000I-75000J0D01*
G01*
G37*
G36*
G01*
X75350000Y-125148000D02*
X75200000Y-125148000D01*
G75*
G02*
X75125000Y-125073000I0J75000D01*
G01*
X75125000Y-123673000D01*
G75*
G02*
X75200000Y-123598000I75000J0D01*
G01*
X75350000Y-123598000D01*
G75*
G02*
X75425000Y-123673000I0J-75000D01*
G01*
X75425000Y-125073000D01*
G75*
G02*
X75350000Y-125148000I-75000J0D01*
G01*
G37*
G36*
G01*
X75850000Y-125148000D02*
X75700000Y-125148000D01*
G75*
G02*
X75625000Y-125073000I0J75000D01*
G01*
X75625000Y-123673000D01*
G75*
G02*
X75700000Y-123598000I75000J0D01*
G01*
X75850000Y-123598000D01*
G75*
G02*
X75925000Y-123673000I0J-75000D01*
G01*
X75925000Y-125073000D01*
G75*
G02*
X75850000Y-125148000I-75000J0D01*
G01*
G37*
G36*
G01*
X76350000Y-125148000D02*
X76200000Y-125148000D01*
G75*
G02*
X76125000Y-125073000I0J75000D01*
G01*
X76125000Y-123673000D01*
G75*
G02*
X76200000Y-123598000I75000J0D01*
G01*
X76350000Y-123598000D01*
G75*
G02*
X76425000Y-123673000I0J-75000D01*
G01*
X76425000Y-125073000D01*
G75*
G02*
X76350000Y-125148000I-75000J0D01*
G01*
G37*
G36*
G01*
X76850000Y-125148000D02*
X76700000Y-125148000D01*
G75*
G02*
X76625000Y-125073000I0J75000D01*
G01*
X76625000Y-123673000D01*
G75*
G02*
X76700000Y-123598000I75000J0D01*
G01*
X76850000Y-123598000D01*
G75*
G02*
X76925000Y-123673000I0J-75000D01*
G01*
X76925000Y-125073000D01*
G75*
G02*
X76850000Y-125148000I-75000J0D01*
G01*
G37*
G36*
G01*
X79400000Y-126448000D02*
X78000000Y-126448000D01*
G75*
G02*
X77925000Y-126373000I0J75000D01*
G01*
X77925000Y-126223000D01*
G75*
G02*
X78000000Y-126148000I75000J0D01*
G01*
X79400000Y-126148000D01*
G75*
G02*
X79475000Y-126223000I0J-75000D01*
G01*
X79475000Y-126373000D01*
G75*
G02*
X79400000Y-126448000I-75000J0D01*
G01*
G37*
G36*
G01*
X79400000Y-126948000D02*
X78000000Y-126948000D01*
G75*
G02*
X77925000Y-126873000I0J75000D01*
G01*
X77925000Y-126723000D01*
G75*
G02*
X78000000Y-126648000I75000J0D01*
G01*
X79400000Y-126648000D01*
G75*
G02*
X79475000Y-126723000I0J-75000D01*
G01*
X79475000Y-126873000D01*
G75*
G02*
X79400000Y-126948000I-75000J0D01*
G01*
G37*
G36*
G01*
X79400000Y-127448000D02*
X78000000Y-127448000D01*
G75*
G02*
X77925000Y-127373000I0J75000D01*
G01*
X77925000Y-127223000D01*
G75*
G02*
X78000000Y-127148000I75000J0D01*
G01*
X79400000Y-127148000D01*
G75*
G02*
X79475000Y-127223000I0J-75000D01*
G01*
X79475000Y-127373000D01*
G75*
G02*
X79400000Y-127448000I-75000J0D01*
G01*
G37*
G36*
G01*
X79400000Y-127948000D02*
X78000000Y-127948000D01*
G75*
G02*
X77925000Y-127873000I0J75000D01*
G01*
X77925000Y-127723000D01*
G75*
G02*
X78000000Y-127648000I75000J0D01*
G01*
X79400000Y-127648000D01*
G75*
G02*
X79475000Y-127723000I0J-75000D01*
G01*
X79475000Y-127873000D01*
G75*
G02*
X79400000Y-127948000I-75000J0D01*
G01*
G37*
G36*
G01*
X79400000Y-128448000D02*
X78000000Y-128448000D01*
G75*
G02*
X77925000Y-128373000I0J75000D01*
G01*
X77925000Y-128223000D01*
G75*
G02*
X78000000Y-128148000I75000J0D01*
G01*
X79400000Y-128148000D01*
G75*
G02*
X79475000Y-128223000I0J-75000D01*
G01*
X79475000Y-128373000D01*
G75*
G02*
X79400000Y-128448000I-75000J0D01*
G01*
G37*
G36*
G01*
X79400000Y-128948000D02*
X78000000Y-128948000D01*
G75*
G02*
X77925000Y-128873000I0J75000D01*
G01*
X77925000Y-128723000D01*
G75*
G02*
X78000000Y-128648000I75000J0D01*
G01*
X79400000Y-128648000D01*
G75*
G02*
X79475000Y-128723000I0J-75000D01*
G01*
X79475000Y-128873000D01*
G75*
G02*
X79400000Y-128948000I-75000J0D01*
G01*
G37*
G36*
G01*
X79400000Y-129448000D02*
X78000000Y-129448000D01*
G75*
G02*
X77925000Y-129373000I0J75000D01*
G01*
X77925000Y-129223000D01*
G75*
G02*
X78000000Y-129148000I75000J0D01*
G01*
X79400000Y-129148000D01*
G75*
G02*
X79475000Y-129223000I0J-75000D01*
G01*
X79475000Y-129373000D01*
G75*
G02*
X79400000Y-129448000I-75000J0D01*
G01*
G37*
G36*
G01*
X79400000Y-129948000D02*
X78000000Y-129948000D01*
G75*
G02*
X77925000Y-129873000I0J75000D01*
G01*
X77925000Y-129723000D01*
G75*
G02*
X78000000Y-129648000I75000J0D01*
G01*
X79400000Y-129648000D01*
G75*
G02*
X79475000Y-129723000I0J-75000D01*
G01*
X79475000Y-129873000D01*
G75*
G02*
X79400000Y-129948000I-75000J0D01*
G01*
G37*
G36*
G01*
X79400000Y-130448000D02*
X78000000Y-130448000D01*
G75*
G02*
X77925000Y-130373000I0J75000D01*
G01*
X77925000Y-130223000D01*
G75*
G02*
X78000000Y-130148000I75000J0D01*
G01*
X79400000Y-130148000D01*
G75*
G02*
X79475000Y-130223000I0J-75000D01*
G01*
X79475000Y-130373000D01*
G75*
G02*
X79400000Y-130448000I-75000J0D01*
G01*
G37*
G36*
G01*
X79400000Y-130948000D02*
X78000000Y-130948000D01*
G75*
G02*
X77925000Y-130873000I0J75000D01*
G01*
X77925000Y-130723000D01*
G75*
G02*
X78000000Y-130648000I75000J0D01*
G01*
X79400000Y-130648000D01*
G75*
G02*
X79475000Y-130723000I0J-75000D01*
G01*
X79475000Y-130873000D01*
G75*
G02*
X79400000Y-130948000I-75000J0D01*
G01*
G37*
G36*
G01*
X79400000Y-131448000D02*
X78000000Y-131448000D01*
G75*
G02*
X77925000Y-131373000I0J75000D01*
G01*
X77925000Y-131223000D01*
G75*
G02*
X78000000Y-131148000I75000J0D01*
G01*
X79400000Y-131148000D01*
G75*
G02*
X79475000Y-131223000I0J-75000D01*
G01*
X79475000Y-131373000D01*
G75*
G02*
X79400000Y-131448000I-75000J0D01*
G01*
G37*
G36*
G01*
X79400000Y-131948000D02*
X78000000Y-131948000D01*
G75*
G02*
X77925000Y-131873000I0J75000D01*
G01*
X77925000Y-131723000D01*
G75*
G02*
X78000000Y-131648000I75000J0D01*
G01*
X79400000Y-131648000D01*
G75*
G02*
X79475000Y-131723000I0J-75000D01*
G01*
X79475000Y-131873000D01*
G75*
G02*
X79400000Y-131948000I-75000J0D01*
G01*
G37*
G36*
G01*
X79400000Y-132448000D02*
X78000000Y-132448000D01*
G75*
G02*
X77925000Y-132373000I0J75000D01*
G01*
X77925000Y-132223000D01*
G75*
G02*
X78000000Y-132148000I75000J0D01*
G01*
X79400000Y-132148000D01*
G75*
G02*
X79475000Y-132223000I0J-75000D01*
G01*
X79475000Y-132373000D01*
G75*
G02*
X79400000Y-132448000I-75000J0D01*
G01*
G37*
G36*
G01*
X79400000Y-132948000D02*
X78000000Y-132948000D01*
G75*
G02*
X77925000Y-132873000I0J75000D01*
G01*
X77925000Y-132723000D01*
G75*
G02*
X78000000Y-132648000I75000J0D01*
G01*
X79400000Y-132648000D01*
G75*
G02*
X79475000Y-132723000I0J-75000D01*
G01*
X79475000Y-132873000D01*
G75*
G02*
X79400000Y-132948000I-75000J0D01*
G01*
G37*
G36*
G01*
X79400000Y-133448000D02*
X78000000Y-133448000D01*
G75*
G02*
X77925000Y-133373000I0J75000D01*
G01*
X77925000Y-133223000D01*
G75*
G02*
X78000000Y-133148000I75000J0D01*
G01*
X79400000Y-133148000D01*
G75*
G02*
X79475000Y-133223000I0J-75000D01*
G01*
X79475000Y-133373000D01*
G75*
G02*
X79400000Y-133448000I-75000J0D01*
G01*
G37*
G36*
G01*
X79400000Y-133948000D02*
X78000000Y-133948000D01*
G75*
G02*
X77925000Y-133873000I0J75000D01*
G01*
X77925000Y-133723000D01*
G75*
G02*
X78000000Y-133648000I75000J0D01*
G01*
X79400000Y-133648000D01*
G75*
G02*
X79475000Y-133723000I0J-75000D01*
G01*
X79475000Y-133873000D01*
G75*
G02*
X79400000Y-133948000I-75000J0D01*
G01*
G37*
G36*
G01*
X76850000Y-136498000D02*
X76700000Y-136498000D01*
G75*
G02*
X76625000Y-136423000I0J75000D01*
G01*
X76625000Y-135023000D01*
G75*
G02*
X76700000Y-134948000I75000J0D01*
G01*
X76850000Y-134948000D01*
G75*
G02*
X76925000Y-135023000I0J-75000D01*
G01*
X76925000Y-136423000D01*
G75*
G02*
X76850000Y-136498000I-75000J0D01*
G01*
G37*
G36*
G01*
X76350000Y-136498000D02*
X76200000Y-136498000D01*
G75*
G02*
X76125000Y-136423000I0J75000D01*
G01*
X76125000Y-135023000D01*
G75*
G02*
X76200000Y-134948000I75000J0D01*
G01*
X76350000Y-134948000D01*
G75*
G02*
X76425000Y-135023000I0J-75000D01*
G01*
X76425000Y-136423000D01*
G75*
G02*
X76350000Y-136498000I-75000J0D01*
G01*
G37*
G36*
G01*
X75850000Y-136498000D02*
X75700000Y-136498000D01*
G75*
G02*
X75625000Y-136423000I0J75000D01*
G01*
X75625000Y-135023000D01*
G75*
G02*
X75700000Y-134948000I75000J0D01*
G01*
X75850000Y-134948000D01*
G75*
G02*
X75925000Y-135023000I0J-75000D01*
G01*
X75925000Y-136423000D01*
G75*
G02*
X75850000Y-136498000I-75000J0D01*
G01*
G37*
G36*
G01*
X75350000Y-136498000D02*
X75200000Y-136498000D01*
G75*
G02*
X75125000Y-136423000I0J75000D01*
G01*
X75125000Y-135023000D01*
G75*
G02*
X75200000Y-134948000I75000J0D01*
G01*
X75350000Y-134948000D01*
G75*
G02*
X75425000Y-135023000I0J-75000D01*
G01*
X75425000Y-136423000D01*
G75*
G02*
X75350000Y-136498000I-75000J0D01*
G01*
G37*
G36*
G01*
X74850000Y-136498000D02*
X74700000Y-136498000D01*
G75*
G02*
X74625000Y-136423000I0J75000D01*
G01*
X74625000Y-135023000D01*
G75*
G02*
X74700000Y-134948000I75000J0D01*
G01*
X74850000Y-134948000D01*
G75*
G02*
X74925000Y-135023000I0J-75000D01*
G01*
X74925000Y-136423000D01*
G75*
G02*
X74850000Y-136498000I-75000J0D01*
G01*
G37*
G36*
G01*
X74350000Y-136498000D02*
X74200000Y-136498000D01*
G75*
G02*
X74125000Y-136423000I0J75000D01*
G01*
X74125000Y-135023000D01*
G75*
G02*
X74200000Y-134948000I75000J0D01*
G01*
X74350000Y-134948000D01*
G75*
G02*
X74425000Y-135023000I0J-75000D01*
G01*
X74425000Y-136423000D01*
G75*
G02*
X74350000Y-136498000I-75000J0D01*
G01*
G37*
G36*
G01*
X73850000Y-136498000D02*
X73700000Y-136498000D01*
G75*
G02*
X73625000Y-136423000I0J75000D01*
G01*
X73625000Y-135023000D01*
G75*
G02*
X73700000Y-134948000I75000J0D01*
G01*
X73850000Y-134948000D01*
G75*
G02*
X73925000Y-135023000I0J-75000D01*
G01*
X73925000Y-136423000D01*
G75*
G02*
X73850000Y-136498000I-75000J0D01*
G01*
G37*
G36*
G01*
X73350000Y-136498000D02*
X73200000Y-136498000D01*
G75*
G02*
X73125000Y-136423000I0J75000D01*
G01*
X73125000Y-135023000D01*
G75*
G02*
X73200000Y-134948000I75000J0D01*
G01*
X73350000Y-134948000D01*
G75*
G02*
X73425000Y-135023000I0J-75000D01*
G01*
X73425000Y-136423000D01*
G75*
G02*
X73350000Y-136498000I-75000J0D01*
G01*
G37*
G36*
G01*
X72850000Y-136498000D02*
X72700000Y-136498000D01*
G75*
G02*
X72625000Y-136423000I0J75000D01*
G01*
X72625000Y-135023000D01*
G75*
G02*
X72700000Y-134948000I75000J0D01*
G01*
X72850000Y-134948000D01*
G75*
G02*
X72925000Y-135023000I0J-75000D01*
G01*
X72925000Y-136423000D01*
G75*
G02*
X72850000Y-136498000I-75000J0D01*
G01*
G37*
G36*
G01*
X72350000Y-136498000D02*
X72200000Y-136498000D01*
G75*
G02*
X72125000Y-136423000I0J75000D01*
G01*
X72125000Y-135023000D01*
G75*
G02*
X72200000Y-134948000I75000J0D01*
G01*
X72350000Y-134948000D01*
G75*
G02*
X72425000Y-135023000I0J-75000D01*
G01*
X72425000Y-136423000D01*
G75*
G02*
X72350000Y-136498000I-75000J0D01*
G01*
G37*
G36*
G01*
X71850000Y-136498000D02*
X71700000Y-136498000D01*
G75*
G02*
X71625000Y-136423000I0J75000D01*
G01*
X71625000Y-135023000D01*
G75*
G02*
X71700000Y-134948000I75000J0D01*
G01*
X71850000Y-134948000D01*
G75*
G02*
X71925000Y-135023000I0J-75000D01*
G01*
X71925000Y-136423000D01*
G75*
G02*
X71850000Y-136498000I-75000J0D01*
G01*
G37*
G36*
G01*
X71350000Y-136498000D02*
X71200000Y-136498000D01*
G75*
G02*
X71125000Y-136423000I0J75000D01*
G01*
X71125000Y-135023000D01*
G75*
G02*
X71200000Y-134948000I75000J0D01*
G01*
X71350000Y-134948000D01*
G75*
G02*
X71425000Y-135023000I0J-75000D01*
G01*
X71425000Y-136423000D01*
G75*
G02*
X71350000Y-136498000I-75000J0D01*
G01*
G37*
G36*
G01*
X70850000Y-136498000D02*
X70700000Y-136498000D01*
G75*
G02*
X70625000Y-136423000I0J75000D01*
G01*
X70625000Y-135023000D01*
G75*
G02*
X70700000Y-134948000I75000J0D01*
G01*
X70850000Y-134948000D01*
G75*
G02*
X70925000Y-135023000I0J-75000D01*
G01*
X70925000Y-136423000D01*
G75*
G02*
X70850000Y-136498000I-75000J0D01*
G01*
G37*
G36*
G01*
X70350000Y-136498000D02*
X70200000Y-136498000D01*
G75*
G02*
X70125000Y-136423000I0J75000D01*
G01*
X70125000Y-135023000D01*
G75*
G02*
X70200000Y-134948000I75000J0D01*
G01*
X70350000Y-134948000D01*
G75*
G02*
X70425000Y-135023000I0J-75000D01*
G01*
X70425000Y-136423000D01*
G75*
G02*
X70350000Y-136498000I-75000J0D01*
G01*
G37*
G36*
G01*
X69850000Y-136498000D02*
X69700000Y-136498000D01*
G75*
G02*
X69625000Y-136423000I0J75000D01*
G01*
X69625000Y-135023000D01*
G75*
G02*
X69700000Y-134948000I75000J0D01*
G01*
X69850000Y-134948000D01*
G75*
G02*
X69925000Y-135023000I0J-75000D01*
G01*
X69925000Y-136423000D01*
G75*
G02*
X69850000Y-136498000I-75000J0D01*
G01*
G37*
G36*
G01*
X69350000Y-136498000D02*
X69200000Y-136498000D01*
G75*
G02*
X69125000Y-136423000I0J75000D01*
G01*
X69125000Y-135023000D01*
G75*
G02*
X69200000Y-134948000I75000J0D01*
G01*
X69350000Y-134948000D01*
G75*
G02*
X69425000Y-135023000I0J-75000D01*
G01*
X69425000Y-136423000D01*
G75*
G02*
X69350000Y-136498000I-75000J0D01*
G01*
G37*
%TD*%
D21*
%TO.C,SW2*%
X79665000Y-118275000D03*
X84165000Y-118275000D03*
X84165000Y-110325000D03*
X79665000Y-110325000D03*
%TD*%
%TO.C,SW1*%
X86523000Y-118275000D03*
X91023000Y-118275000D03*
X91023000Y-110325000D03*
X86523000Y-110325000D03*
%TD*%
%TO.C,R11*%
G36*
G01*
X53155001Y-139030000D02*
X52254999Y-139030000D01*
G75*
G02*
X52005000Y-138780001I0J249999D01*
G01*
X52005000Y-138079999D01*
G75*
G02*
X52254999Y-137830000I249999J0D01*
G01*
X53155001Y-137830000D01*
G75*
G02*
X53405000Y-138079999I0J-249999D01*
G01*
X53405000Y-138780001D01*
G75*
G02*
X53155001Y-139030000I-249999J0D01*
G01*
G37*
G36*
G01*
X53155001Y-141030000D02*
X52254999Y-141030000D01*
G75*
G02*
X52005000Y-140780001I0J249999D01*
G01*
X52005000Y-140079999D01*
G75*
G02*
X52254999Y-139830000I249999J0D01*
G01*
X53155001Y-139830000D01*
G75*
G02*
X53405000Y-140079999I0J-249999D01*
G01*
X53405000Y-140780001D01*
G75*
G02*
X53155001Y-141030000I-249999J0D01*
G01*
G37*
%TD*%
%TO.C,R10*%
G36*
G01*
X55441001Y-139030000D02*
X54540999Y-139030000D01*
G75*
G02*
X54291000Y-138780001I0J249999D01*
G01*
X54291000Y-138079999D01*
G75*
G02*
X54540999Y-137830000I249999J0D01*
G01*
X55441001Y-137830000D01*
G75*
G02*
X55691000Y-138079999I0J-249999D01*
G01*
X55691000Y-138780001D01*
G75*
G02*
X55441001Y-139030000I-249999J0D01*
G01*
G37*
G36*
G01*
X55441001Y-141030000D02*
X54540999Y-141030000D01*
G75*
G02*
X54291000Y-140780001I0J249999D01*
G01*
X54291000Y-140079999D01*
G75*
G02*
X54540999Y-139830000I249999J0D01*
G01*
X55441001Y-139830000D01*
G75*
G02*
X55691000Y-140079999I0J-249999D01*
G01*
X55691000Y-140780001D01*
G75*
G02*
X55441001Y-141030000I-249999J0D01*
G01*
G37*
%TD*%
%TO.C,R7*%
G36*
G01*
X82769000Y-119945999D02*
X82769000Y-120846001D01*
G75*
G02*
X82519001Y-121096000I-249999J0D01*
G01*
X81818999Y-121096000D01*
G75*
G02*
X81569000Y-120846001I0J249999D01*
G01*
X81569000Y-119945999D01*
G75*
G02*
X81818999Y-119696000I249999J0D01*
G01*
X82519001Y-119696000D01*
G75*
G02*
X82769000Y-119945999I0J-249999D01*
G01*
G37*
G36*
G01*
X84769000Y-119945999D02*
X84769000Y-120846001D01*
G75*
G02*
X84519001Y-121096000I-249999J0D01*
G01*
X83818999Y-121096000D01*
G75*
G02*
X83569000Y-120846001I0J249999D01*
G01*
X83569000Y-119945999D01*
G75*
G02*
X83818999Y-119696000I249999J0D01*
G01*
X84519001Y-119696000D01*
G75*
G02*
X84769000Y-119945999I0J-249999D01*
G01*
G37*
%TD*%
%TO.C,R6*%
G36*
G01*
X90459000Y-120846001D02*
X90459000Y-119945999D01*
G75*
G02*
X90708999Y-119696000I249999J0D01*
G01*
X91409001Y-119696000D01*
G75*
G02*
X91659000Y-119945999I0J-249999D01*
G01*
X91659000Y-120846001D01*
G75*
G02*
X91409001Y-121096000I-249999J0D01*
G01*
X90708999Y-121096000D01*
G75*
G02*
X90459000Y-120846001I0J249999D01*
G01*
G37*
G36*
G01*
X88459000Y-120846001D02*
X88459000Y-119945999D01*
G75*
G02*
X88708999Y-119696000I249999J0D01*
G01*
X89409001Y-119696000D01*
G75*
G02*
X89659000Y-119945999I0J-249999D01*
G01*
X89659000Y-120846001D01*
G75*
G02*
X89409001Y-121096000I-249999J0D01*
G01*
X88708999Y-121096000D01*
G75*
G02*
X88459000Y-120846001I0J249999D01*
G01*
G37*
%TD*%
%TO.C,R5*%
G36*
G01*
X94469000Y-119945999D02*
X94469000Y-120846001D01*
G75*
G02*
X94219001Y-121096000I-249999J0D01*
G01*
X93518999Y-121096000D01*
G75*
G02*
X93269000Y-120846001I0J249999D01*
G01*
X93269000Y-119945999D01*
G75*
G02*
X93518999Y-119696000I249999J0D01*
G01*
X94219001Y-119696000D01*
G75*
G02*
X94469000Y-119945999I0J-249999D01*
G01*
G37*
G36*
G01*
X96469000Y-119945999D02*
X96469000Y-120846001D01*
G75*
G02*
X96219001Y-121096000I-249999J0D01*
G01*
X95518999Y-121096000D01*
G75*
G02*
X95269000Y-120846001I0J249999D01*
G01*
X95269000Y-119945999D01*
G75*
G02*
X95518999Y-119696000I249999J0D01*
G01*
X96219001Y-119696000D01*
G75*
G02*
X96469000Y-119945999I0J-249999D01*
G01*
G37*
%TD*%
%TO.C,R4*%
G36*
G01*
X94453000Y-122231999D02*
X94453000Y-123132001D01*
G75*
G02*
X94203001Y-123382000I-249999J0D01*
G01*
X93502999Y-123382000D01*
G75*
G02*
X93253000Y-123132001I0J249999D01*
G01*
X93253000Y-122231999D01*
G75*
G02*
X93502999Y-121982000I249999J0D01*
G01*
X94203001Y-121982000D01*
G75*
G02*
X94453000Y-122231999I0J-249999D01*
G01*
G37*
G36*
G01*
X96453000Y-122231999D02*
X96453000Y-123132001D01*
G75*
G02*
X96203001Y-123382000I-249999J0D01*
G01*
X95502999Y-123382000D01*
G75*
G02*
X95253000Y-123132001I0J249999D01*
G01*
X95253000Y-122231999D01*
G75*
G02*
X95502999Y-121982000I249999J0D01*
G01*
X96203001Y-121982000D01*
G75*
G02*
X96453000Y-122231999I0J-249999D01*
G01*
G37*
%TD*%
%TO.C,R3*%
G36*
G01*
X94453000Y-124517999D02*
X94453000Y-125418001D01*
G75*
G02*
X94203001Y-125668000I-249999J0D01*
G01*
X93502999Y-125668000D01*
G75*
G02*
X93253000Y-125418001I0J249999D01*
G01*
X93253000Y-124517999D01*
G75*
G02*
X93502999Y-124268000I249999J0D01*
G01*
X94203001Y-124268000D01*
G75*
G02*
X94453000Y-124517999I0J-249999D01*
G01*
G37*
G36*
G01*
X96453000Y-124517999D02*
X96453000Y-125418001D01*
G75*
G02*
X96203001Y-125668000I-249999J0D01*
G01*
X95502999Y-125668000D01*
G75*
G02*
X95253000Y-125418001I0J249999D01*
G01*
X95253000Y-124517999D01*
G75*
G02*
X95502999Y-124268000I249999J0D01*
G01*
X96203001Y-124268000D01*
G75*
G02*
X96453000Y-124517999I0J-249999D01*
G01*
G37*
%TD*%
%TO.C,R2*%
G36*
G01*
X94453000Y-126803999D02*
X94453000Y-127704001D01*
G75*
G02*
X94203001Y-127954000I-249999J0D01*
G01*
X93502999Y-127954000D01*
G75*
G02*
X93253000Y-127704001I0J249999D01*
G01*
X93253000Y-126803999D01*
G75*
G02*
X93502999Y-126554000I249999J0D01*
G01*
X94203001Y-126554000D01*
G75*
G02*
X94453000Y-126803999I0J-249999D01*
G01*
G37*
G36*
G01*
X96453000Y-126803999D02*
X96453000Y-127704001D01*
G75*
G02*
X96203001Y-127954000I-249999J0D01*
G01*
X95502999Y-127954000D01*
G75*
G02*
X95253000Y-127704001I0J249999D01*
G01*
X95253000Y-126803999D01*
G75*
G02*
X95502999Y-126554000I249999J0D01*
G01*
X96203001Y-126554000D01*
G75*
G02*
X96453000Y-126803999I0J-249999D01*
G01*
G37*
%TD*%
%TO.C,R1*%
G36*
G01*
X94485000Y-129089999D02*
X94485000Y-129990001D01*
G75*
G02*
X94235001Y-130240000I-249999J0D01*
G01*
X93534999Y-130240000D01*
G75*
G02*
X93285000Y-129990001I0J249999D01*
G01*
X93285000Y-129089999D01*
G75*
G02*
X93534999Y-128840000I249999J0D01*
G01*
X94235001Y-128840000D01*
G75*
G02*
X94485000Y-129089999I0J-249999D01*
G01*
G37*
G36*
G01*
X96485000Y-129089999D02*
X96485000Y-129990001D01*
G75*
G02*
X96235001Y-130240000I-249999J0D01*
G01*
X95534999Y-130240000D01*
G75*
G02*
X95285000Y-129990001I0J249999D01*
G01*
X95285000Y-129089999D01*
G75*
G02*
X95534999Y-128840000I249999J0D01*
G01*
X96235001Y-128840000D01*
G75*
G02*
X96485000Y-129089999I0J-249999D01*
G01*
G37*
%TD*%
D13*
%TO.C,J9*%
X85979000Y-130302000D03*
X85979000Y-132842000D03*
X85979000Y-135382000D03*
D14*
X85979000Y-137922000D03*
%TD*%
D22*
%TO.C,J2*%
X54229000Y-153868000D03*
G36*
G01*
X52679000Y-149468000D02*
X55779000Y-149468000D01*
G75*
G02*
X56029000Y-149718000I0J-250000D01*
G01*
X56029000Y-151018000D01*
G75*
G02*
X55779000Y-151268000I-250000J0D01*
G01*
X52679000Y-151268000D01*
G75*
G02*
X52429000Y-151018000I0J250000D01*
G01*
X52429000Y-149718000D01*
G75*
G02*
X52679000Y-149468000I250000J0D01*
G01*
G37*
%TD*%
D13*
%TO.C,J1*%
X54737000Y-127762000D03*
X57277000Y-127762000D03*
X59817000Y-127762000D03*
D14*
X62357000Y-127762000D03*
%TD*%
%TO.C,D5*%
G36*
G01*
X98483000Y-119945999D02*
X98483000Y-120846001D01*
G75*
G02*
X98233001Y-121096000I-249999J0D01*
G01*
X97582999Y-121096000D01*
G75*
G02*
X97333000Y-120846001I0J249999D01*
G01*
X97333000Y-119945999D01*
G75*
G02*
X97582999Y-119696000I249999J0D01*
G01*
X98233001Y-119696000D01*
G75*
G02*
X98483000Y-119945999I0J-249999D01*
G01*
G37*
G36*
G01*
X100533000Y-119945999D02*
X100533000Y-120846001D01*
G75*
G02*
X100283001Y-121096000I-249999J0D01*
G01*
X99632999Y-121096000D01*
G75*
G02*
X99383000Y-120846001I0J249999D01*
G01*
X99383000Y-119945999D01*
G75*
G02*
X99632999Y-119696000I249999J0D01*
G01*
X100283001Y-119696000D01*
G75*
G02*
X100533000Y-119945999I0J-249999D01*
G01*
G37*
%TD*%
%TO.C,D4*%
G36*
G01*
X98492000Y-122231999D02*
X98492000Y-123132001D01*
G75*
G02*
X98242001Y-123382000I-249999J0D01*
G01*
X97591999Y-123382000D01*
G75*
G02*
X97342000Y-123132001I0J249999D01*
G01*
X97342000Y-122231999D01*
G75*
G02*
X97591999Y-121982000I249999J0D01*
G01*
X98242001Y-121982000D01*
G75*
G02*
X98492000Y-122231999I0J-249999D01*
G01*
G37*
G36*
G01*
X100542000Y-122231999D02*
X100542000Y-123132001D01*
G75*
G02*
X100292001Y-123382000I-249999J0D01*
G01*
X99641999Y-123382000D01*
G75*
G02*
X99392000Y-123132001I0J249999D01*
G01*
X99392000Y-122231999D01*
G75*
G02*
X99641999Y-121982000I249999J0D01*
G01*
X100292001Y-121982000D01*
G75*
G02*
X100542000Y-122231999I0J-249999D01*
G01*
G37*
%TD*%
%TO.C,D3*%
G36*
G01*
X98492000Y-124517999D02*
X98492000Y-125418001D01*
G75*
G02*
X98242001Y-125668000I-249999J0D01*
G01*
X97591999Y-125668000D01*
G75*
G02*
X97342000Y-125418001I0J249999D01*
G01*
X97342000Y-124517999D01*
G75*
G02*
X97591999Y-124268000I249999J0D01*
G01*
X98242001Y-124268000D01*
G75*
G02*
X98492000Y-124517999I0J-249999D01*
G01*
G37*
G36*
G01*
X100542000Y-124517999D02*
X100542000Y-125418001D01*
G75*
G02*
X100292001Y-125668000I-249999J0D01*
G01*
X99641999Y-125668000D01*
G75*
G02*
X99392000Y-125418001I0J249999D01*
G01*
X99392000Y-124517999D01*
G75*
G02*
X99641999Y-124268000I249999J0D01*
G01*
X100292001Y-124268000D01*
G75*
G02*
X100542000Y-124517999I0J-249999D01*
G01*
G37*
%TD*%
%TO.C,D2*%
G36*
G01*
X98492000Y-126803999D02*
X98492000Y-127704001D01*
G75*
G02*
X98242001Y-127954000I-249999J0D01*
G01*
X97591999Y-127954000D01*
G75*
G02*
X97342000Y-127704001I0J249999D01*
G01*
X97342000Y-126803999D01*
G75*
G02*
X97591999Y-126554000I249999J0D01*
G01*
X98242001Y-126554000D01*
G75*
G02*
X98492000Y-126803999I0J-249999D01*
G01*
G37*
G36*
G01*
X100542000Y-126803999D02*
X100542000Y-127704001D01*
G75*
G02*
X100292001Y-127954000I-249999J0D01*
G01*
X99641999Y-127954000D01*
G75*
G02*
X99392000Y-127704001I0J249999D01*
G01*
X99392000Y-126803999D01*
G75*
G02*
X99641999Y-126554000I249999J0D01*
G01*
X100292001Y-126554000D01*
G75*
G02*
X100542000Y-126803999I0J-249999D01*
G01*
G37*
%TD*%
%TO.C,D1*%
G36*
G01*
X98474000Y-129089999D02*
X98474000Y-129990001D01*
G75*
G02*
X98224001Y-130240000I-249999J0D01*
G01*
X97573999Y-130240000D01*
G75*
G02*
X97324000Y-129990001I0J249999D01*
G01*
X97324000Y-129089999D01*
G75*
G02*
X97573999Y-128840000I249999J0D01*
G01*
X98224001Y-128840000D01*
G75*
G02*
X98474000Y-129089999I0J-249999D01*
G01*
G37*
G36*
G01*
X100524000Y-129089999D02*
X100524000Y-129990001D01*
G75*
G02*
X100274001Y-130240000I-249999J0D01*
G01*
X99623999Y-130240000D01*
G75*
G02*
X99374000Y-129990001I0J249999D01*
G01*
X99374000Y-129089999D01*
G75*
G02*
X99623999Y-128840000I249999J0D01*
G01*
X100274001Y-128840000D01*
G75*
G02*
X100524000Y-129089999I0J-249999D01*
G01*
G37*
%TD*%
%TO.C,C32*%
G36*
G01*
X81694000Y-123872500D02*
X82644000Y-123872500D01*
G75*
G02*
X82894000Y-124122500I0J-250000D01*
G01*
X82894000Y-124797500D01*
G75*
G02*
X82644000Y-125047500I-250000J0D01*
G01*
X81694000Y-125047500D01*
G75*
G02*
X81444000Y-124797500I0J250000D01*
G01*
X81444000Y-124122500D01*
G75*
G02*
X81694000Y-123872500I250000J0D01*
G01*
G37*
G36*
G01*
X81694000Y-121797500D02*
X82644000Y-121797500D01*
G75*
G02*
X82894000Y-122047500I0J-250000D01*
G01*
X82894000Y-122722500D01*
G75*
G02*
X82644000Y-122972500I-250000J0D01*
G01*
X81694000Y-122972500D01*
G75*
G02*
X81444000Y-122722500I0J250000D01*
G01*
X81444000Y-122047500D01*
G75*
G02*
X81694000Y-121797500I250000J0D01*
G01*
G37*
%TD*%
%TO.C,C27*%
G36*
G01*
X79899500Y-124123500D02*
X80374500Y-124123500D01*
G75*
G02*
X80612000Y-124361000I0J-237500D01*
G01*
X80612000Y-124961000D01*
G75*
G02*
X80374500Y-125198500I-237500J0D01*
G01*
X79899500Y-125198500D01*
G75*
G02*
X79662000Y-124961000I0J237500D01*
G01*
X79662000Y-124361000D01*
G75*
G02*
X79899500Y-124123500I237500J0D01*
G01*
G37*
G36*
G01*
X79899500Y-122398500D02*
X80374500Y-122398500D01*
G75*
G02*
X80612000Y-122636000I0J-237500D01*
G01*
X80612000Y-123236000D01*
G75*
G02*
X80374500Y-123473500I-237500J0D01*
G01*
X79899500Y-123473500D01*
G75*
G02*
X79662000Y-123236000I0J237500D01*
G01*
X79662000Y-122636000D01*
G75*
G02*
X79899500Y-122398500I237500J0D01*
G01*
G37*
%TD*%
%TO.C,C26*%
G36*
G01*
X80661500Y-133521500D02*
X81136500Y-133521500D01*
G75*
G02*
X81374000Y-133759000I0J-237500D01*
G01*
X81374000Y-134359000D01*
G75*
G02*
X81136500Y-134596500I-237500J0D01*
G01*
X80661500Y-134596500D01*
G75*
G02*
X80424000Y-134359000I0J237500D01*
G01*
X80424000Y-133759000D01*
G75*
G02*
X80661500Y-133521500I237500J0D01*
G01*
G37*
G36*
G01*
X80661500Y-131796500D02*
X81136500Y-131796500D01*
G75*
G02*
X81374000Y-132034000I0J-237500D01*
G01*
X81374000Y-132634000D01*
G75*
G02*
X81136500Y-132871500I-237500J0D01*
G01*
X80661500Y-132871500D01*
G75*
G02*
X80424000Y-132634000I0J237500D01*
G01*
X80424000Y-132034000D01*
G75*
G02*
X80661500Y-131796500I237500J0D01*
G01*
G37*
%TD*%
%TO.C,C25*%
G36*
G01*
X66704500Y-137938500D02*
X66704500Y-138413500D01*
G75*
G02*
X66467000Y-138651000I-237500J0D01*
G01*
X65867000Y-138651000D01*
G75*
G02*
X65629500Y-138413500I0J237500D01*
G01*
X65629500Y-137938500D01*
G75*
G02*
X65867000Y-137701000I237500J0D01*
G01*
X66467000Y-137701000D01*
G75*
G02*
X66704500Y-137938500I0J-237500D01*
G01*
G37*
G36*
G01*
X68429500Y-137938500D02*
X68429500Y-138413500D01*
G75*
G02*
X68192000Y-138651000I-237500J0D01*
G01*
X67592000Y-138651000D01*
G75*
G02*
X67354500Y-138413500I0J237500D01*
G01*
X67354500Y-137938500D01*
G75*
G02*
X67592000Y-137701000I237500J0D01*
G01*
X68192000Y-137701000D01*
G75*
G02*
X68429500Y-137938500I0J-237500D01*
G01*
G37*
%TD*%
%TO.C,C24*%
G36*
G01*
X66704500Y-136160500D02*
X66704500Y-136635500D01*
G75*
G02*
X66467000Y-136873000I-237500J0D01*
G01*
X65867000Y-136873000D01*
G75*
G02*
X65629500Y-136635500I0J237500D01*
G01*
X65629500Y-136160500D01*
G75*
G02*
X65867000Y-135923000I237500J0D01*
G01*
X66467000Y-135923000D01*
G75*
G02*
X66704500Y-136160500I0J-237500D01*
G01*
G37*
G36*
G01*
X68429500Y-136160500D02*
X68429500Y-136635500D01*
G75*
G02*
X68192000Y-136873000I-237500J0D01*
G01*
X67592000Y-136873000D01*
G75*
G02*
X67354500Y-136635500I0J237500D01*
G01*
X67354500Y-136160500D01*
G75*
G02*
X67592000Y-135923000I237500J0D01*
G01*
X68192000Y-135923000D01*
G75*
G02*
X68429500Y-136160500I0J-237500D01*
G01*
G37*
%TD*%
%TO.C,C22*%
G36*
G01*
X62174000Y-134857500D02*
X62174000Y-134382500D01*
G75*
G02*
X62411500Y-134145000I237500J0D01*
G01*
X63011500Y-134145000D01*
G75*
G02*
X63249000Y-134382500I0J-237500D01*
G01*
X63249000Y-134857500D01*
G75*
G02*
X63011500Y-135095000I-237500J0D01*
G01*
X62411500Y-135095000D01*
G75*
G02*
X62174000Y-134857500I0J237500D01*
G01*
G37*
G36*
G01*
X60449000Y-134857500D02*
X60449000Y-134382500D01*
G75*
G02*
X60686500Y-134145000I237500J0D01*
G01*
X61286500Y-134145000D01*
G75*
G02*
X61524000Y-134382500I0J-237500D01*
G01*
X61524000Y-134857500D01*
G75*
G02*
X61286500Y-135095000I-237500J0D01*
G01*
X60686500Y-135095000D01*
G75*
G02*
X60449000Y-134857500I0J237500D01*
G01*
G37*
%TD*%
%TO.C,C19*%
G36*
G01*
X62327500Y-142477500D02*
X62327500Y-142002500D01*
G75*
G02*
X62565000Y-141765000I237500J0D01*
G01*
X63165000Y-141765000D01*
G75*
G02*
X63402500Y-142002500I0J-237500D01*
G01*
X63402500Y-142477500D01*
G75*
G02*
X63165000Y-142715000I-237500J0D01*
G01*
X62565000Y-142715000D01*
G75*
G02*
X62327500Y-142477500I0J237500D01*
G01*
G37*
G36*
G01*
X60602500Y-142477500D02*
X60602500Y-142002500D01*
G75*
G02*
X60840000Y-141765000I237500J0D01*
G01*
X61440000Y-141765000D01*
G75*
G02*
X61677500Y-142002500I0J-237500D01*
G01*
X61677500Y-142477500D01*
G75*
G02*
X61440000Y-142715000I-237500J0D01*
G01*
X60840000Y-142715000D01*
G75*
G02*
X60602500Y-142477500I0J237500D01*
G01*
G37*
%TD*%
%TO.C,C18*%
G36*
G01*
X73866500Y-146337000D02*
X73866500Y-147287000D01*
G75*
G02*
X73616500Y-147537000I-250000J0D01*
G01*
X72941500Y-147537000D01*
G75*
G02*
X72691500Y-147287000I0J250000D01*
G01*
X72691500Y-146337000D01*
G75*
G02*
X72941500Y-146087000I250000J0D01*
G01*
X73616500Y-146087000D01*
G75*
G02*
X73866500Y-146337000I0J-250000D01*
G01*
G37*
G36*
G01*
X75941500Y-146337000D02*
X75941500Y-147287000D01*
G75*
G02*
X75691500Y-147537000I-250000J0D01*
G01*
X75016500Y-147537000D01*
G75*
G02*
X74766500Y-147287000I0J250000D01*
G01*
X74766500Y-146337000D01*
G75*
G02*
X75016500Y-146087000I250000J0D01*
G01*
X75691500Y-146087000D01*
G75*
G02*
X75941500Y-146337000I0J-250000D01*
G01*
G37*
%TD*%
%TO.C,C17*%
G36*
G01*
X70659500Y-147287000D02*
X70659500Y-146337000D01*
G75*
G02*
X70909500Y-146087000I250000J0D01*
G01*
X71584500Y-146087000D01*
G75*
G02*
X71834500Y-146337000I0J-250000D01*
G01*
X71834500Y-147287000D01*
G75*
G02*
X71584500Y-147537000I-250000J0D01*
G01*
X70909500Y-147537000D01*
G75*
G02*
X70659500Y-147287000I0J250000D01*
G01*
G37*
G36*
G01*
X68584500Y-147287000D02*
X68584500Y-146337000D01*
G75*
G02*
X68834500Y-146087000I250000J0D01*
G01*
X69509500Y-146087000D01*
G75*
G02*
X69759500Y-146337000I0J-250000D01*
G01*
X69759500Y-147287000D01*
G75*
G02*
X69509500Y-147537000I-250000J0D01*
G01*
X68834500Y-147537000D01*
G75*
G02*
X68584500Y-147287000I0J250000D01*
G01*
G37*
%TD*%
%TO.C,C7*%
G36*
G01*
X62899000Y-150156000D02*
X62899000Y-149056000D01*
G75*
G02*
X63149000Y-148806000I250000J0D01*
G01*
X66149000Y-148806000D01*
G75*
G02*
X66399000Y-149056000I0J-250000D01*
G01*
X66399000Y-150156000D01*
G75*
G02*
X66149000Y-150406000I-250000J0D01*
G01*
X63149000Y-150406000D01*
G75*
G02*
X62899000Y-150156000I0J250000D01*
G01*
G37*
G36*
G01*
X57299000Y-150156000D02*
X57299000Y-149056000D01*
G75*
G02*
X57549000Y-148806000I250000J0D01*
G01*
X60549000Y-148806000D01*
G75*
G02*
X60799000Y-149056000I0J-250000D01*
G01*
X60799000Y-150156000D01*
G75*
G02*
X60549000Y-150406000I-250000J0D01*
G01*
X57549000Y-150406000D01*
G75*
G02*
X57299000Y-150156000I0J250000D01*
G01*
G37*
%TD*%
D13*
%TO.C,J6*%
X76581000Y-106934000D03*
X79121000Y-106934000D03*
X81661000Y-106934000D03*
X84201000Y-106934000D03*
X86741000Y-106934000D03*
X89281000Y-106934000D03*
X91821000Y-106934000D03*
D14*
X94361000Y-106934000D03*
%TD*%
D13*
%TO.C,J5*%
X49657000Y-106934000D03*
X52197000Y-106934000D03*
X54737000Y-106934000D03*
X57277000Y-106934000D03*
X59817000Y-106934000D03*
X62357000Y-106934000D03*
X64897000Y-106934000D03*
X67437000Y-106934000D03*
X69977000Y-106934000D03*
D14*
X72517000Y-106934000D03*
%TD*%
D13*
%TO.C,J4*%
X94361000Y-155194000D03*
X91821000Y-155194000D03*
X89281000Y-155194000D03*
X86741000Y-155194000D03*
X84201000Y-155194000D03*
D14*
X81661000Y-155194000D03*
%TD*%
D13*
%TO.C,J3*%
X76581000Y-155194000D03*
X74041000Y-155194000D03*
X71501000Y-155194000D03*
X68961000Y-155194000D03*
X66421000Y-155194000D03*
X63881000Y-155194000D03*
X61341000Y-155194000D03*
D14*
X58801000Y-155194000D03*
%TD*%
M02*
