%TF.GenerationSoftware,KiCad,Pcbnew,5.1.12-84ad8e8a86~92~ubuntu20.04.1*%
%TF.CreationDate,2022-02-24T18:35:21+01:00*%
%TF.ProjectId,GestureControl,47657374-7572-4654-936f-6e74726f6c2e,V0.1*%
%TF.SameCoordinates,Original*%
%TF.FileFunction,Legend,Top*%
%TF.FilePolarity,Positive*%
%FSLAX46Y46*%
G04 Gerber Fmt 4.6, Leading zero omitted, Abs format (unit mm)*
G04 Created by KiCad (PCBNEW 5.1.12-84ad8e8a86~92~ubuntu20.04.1) date 2022-02-24 18:35:21*
%MOMM*%
%LPD*%
G01*
G04 APERTURE LIST*
%ADD10C,0.200000*%
%ADD11C,0.300000*%
%ADD12C,0.120000*%
%ADD13C,0.100000*%
%ADD14C,0.150000*%
G04 APERTURE END LIST*
D10*
X126113904Y-40902000D02*
X126018666Y-40854380D01*
X125875809Y-40854380D01*
X125732952Y-40902000D01*
X125637714Y-40997238D01*
X125590095Y-41092476D01*
X125542476Y-41282952D01*
X125542476Y-41425809D01*
X125590095Y-41616285D01*
X125637714Y-41711523D01*
X125732952Y-41806761D01*
X125875809Y-41854380D01*
X125971047Y-41854380D01*
X126113904Y-41806761D01*
X126161523Y-41759142D01*
X126161523Y-41425809D01*
X125971047Y-41425809D01*
X126590095Y-41854380D02*
X126590095Y-40854380D01*
X127161523Y-41854380D01*
X127161523Y-40854380D01*
X127637714Y-41854380D02*
X127637714Y-40854380D01*
X127875809Y-40854380D01*
X128018666Y-40902000D01*
X128113904Y-40997238D01*
X128161523Y-41092476D01*
X128209142Y-41282952D01*
X128209142Y-41425809D01*
X128161523Y-41616285D01*
X128113904Y-41711523D01*
X128018666Y-41806761D01*
X127875809Y-41854380D01*
X127637714Y-41854380D01*
X163245523Y-51919142D02*
X163197904Y-51966761D01*
X163055047Y-52014380D01*
X162959809Y-52014380D01*
X162816952Y-51966761D01*
X162721714Y-51871523D01*
X162674095Y-51776285D01*
X162626476Y-51585809D01*
X162626476Y-51442952D01*
X162674095Y-51252476D01*
X162721714Y-51157238D01*
X162816952Y-51062000D01*
X162959809Y-51014380D01*
X163055047Y-51014380D01*
X163197904Y-51062000D01*
X163245523Y-51109619D01*
X164150285Y-52014380D02*
X163674095Y-52014380D01*
X163674095Y-51014380D01*
X164436000Y-51109619D02*
X164483619Y-51062000D01*
X164578857Y-51014380D01*
X164816952Y-51014380D01*
X164912190Y-51062000D01*
X164959809Y-51109619D01*
X165007428Y-51204857D01*
X165007428Y-51300095D01*
X164959809Y-51442952D01*
X164388380Y-52014380D01*
X165007428Y-52014380D01*
X162674095Y-54554380D02*
X162674095Y-53554380D01*
X162912190Y-53554380D01*
X163055047Y-53602000D01*
X163150285Y-53697238D01*
X163197904Y-53792476D01*
X163245523Y-53982952D01*
X163245523Y-54125809D01*
X163197904Y-54316285D01*
X163150285Y-54411523D01*
X163055047Y-54506761D01*
X162912190Y-54554380D01*
X162674095Y-54554380D01*
X163626476Y-54268666D02*
X164102666Y-54268666D01*
X163531238Y-54554380D02*
X163864571Y-53554380D01*
X164197904Y-54554380D01*
X164483619Y-53649619D02*
X164531238Y-53602000D01*
X164626476Y-53554380D01*
X164864571Y-53554380D01*
X164959809Y-53602000D01*
X165007428Y-53649619D01*
X165055047Y-53744857D01*
X165055047Y-53840095D01*
X165007428Y-53982952D01*
X164436000Y-54554380D01*
X165055047Y-54554380D01*
X162943904Y-58428000D02*
X162848666Y-58380380D01*
X162705809Y-58380380D01*
X162562952Y-58428000D01*
X162467714Y-58523238D01*
X162420095Y-58618476D01*
X162372476Y-58808952D01*
X162372476Y-58951809D01*
X162420095Y-59142285D01*
X162467714Y-59237523D01*
X162562952Y-59332761D01*
X162705809Y-59380380D01*
X162801047Y-59380380D01*
X162943904Y-59332761D01*
X162991523Y-59285142D01*
X162991523Y-58951809D01*
X162801047Y-58951809D01*
X163420095Y-59380380D02*
X163420095Y-58380380D01*
X163991523Y-59380380D01*
X163991523Y-58380380D01*
X164467714Y-59380380D02*
X164467714Y-58380380D01*
X164705809Y-58380380D01*
X164848666Y-58428000D01*
X164943904Y-58523238D01*
X164991523Y-58618476D01*
X165039142Y-58808952D01*
X165039142Y-58951809D01*
X164991523Y-59142285D01*
X164943904Y-59237523D01*
X164848666Y-59332761D01*
X164705809Y-59380380D01*
X164467714Y-59380380D01*
X162928095Y-56459428D02*
X163690000Y-56459428D01*
X163309047Y-56840380D02*
X163309047Y-56078476D01*
X164070952Y-55840380D02*
X164690000Y-55840380D01*
X164356666Y-56221333D01*
X164499523Y-56221333D01*
X164594761Y-56268952D01*
X164642380Y-56316571D01*
X164690000Y-56411809D01*
X164690000Y-56649904D01*
X164642380Y-56745142D01*
X164594761Y-56792761D01*
X164499523Y-56840380D01*
X164213809Y-56840380D01*
X164118571Y-56792761D01*
X164070952Y-56745142D01*
X142406857Y-60634571D02*
X142549714Y-60682190D01*
X142597333Y-60729809D01*
X142644952Y-60825047D01*
X142644952Y-60967904D01*
X142597333Y-61063142D01*
X142549714Y-61110761D01*
X142454476Y-61158380D01*
X142073523Y-61158380D01*
X142073523Y-60158380D01*
X142406857Y-60158380D01*
X142502095Y-60206000D01*
X142549714Y-60253619D01*
X142597333Y-60348857D01*
X142597333Y-60444095D01*
X142549714Y-60539333D01*
X142502095Y-60586952D01*
X142406857Y-60634571D01*
X142073523Y-60634571D01*
X143264000Y-60158380D02*
X143454476Y-60158380D01*
X143549714Y-60206000D01*
X143644952Y-60301238D01*
X143692571Y-60491714D01*
X143692571Y-60825047D01*
X143644952Y-61015523D01*
X143549714Y-61110761D01*
X143454476Y-61158380D01*
X143264000Y-61158380D01*
X143168761Y-61110761D01*
X143073523Y-61015523D01*
X143025904Y-60825047D01*
X143025904Y-60491714D01*
X143073523Y-60301238D01*
X143168761Y-60206000D01*
X143264000Y-60158380D01*
X144311619Y-60158380D02*
X144502095Y-60158380D01*
X144597333Y-60206000D01*
X144692571Y-60301238D01*
X144740190Y-60491714D01*
X144740190Y-60825047D01*
X144692571Y-61015523D01*
X144597333Y-61110761D01*
X144502095Y-61158380D01*
X144311619Y-61158380D01*
X144216380Y-61110761D01*
X144121142Y-61015523D01*
X144073523Y-60825047D01*
X144073523Y-60491714D01*
X144121142Y-60301238D01*
X144216380Y-60206000D01*
X144311619Y-60158380D01*
X145025904Y-60158380D02*
X145597333Y-60158380D01*
X145311619Y-61158380D02*
X145311619Y-60158380D01*
X134834380Y-61158380D02*
X134501047Y-60682190D01*
X134262952Y-61158380D02*
X134262952Y-60158380D01*
X134643904Y-60158380D01*
X134739142Y-60206000D01*
X134786761Y-60253619D01*
X134834380Y-60348857D01*
X134834380Y-60491714D01*
X134786761Y-60586952D01*
X134739142Y-60634571D01*
X134643904Y-60682190D01*
X134262952Y-60682190D01*
X135215333Y-61110761D02*
X135358190Y-61158380D01*
X135596285Y-61158380D01*
X135691523Y-61110761D01*
X135739142Y-61063142D01*
X135786761Y-60967904D01*
X135786761Y-60872666D01*
X135739142Y-60777428D01*
X135691523Y-60729809D01*
X135596285Y-60682190D01*
X135405809Y-60634571D01*
X135310571Y-60586952D01*
X135262952Y-60539333D01*
X135215333Y-60444095D01*
X135215333Y-60348857D01*
X135262952Y-60253619D01*
X135310571Y-60206000D01*
X135405809Y-60158380D01*
X135643904Y-60158380D01*
X135786761Y-60206000D01*
X136072476Y-60158380D02*
X136643904Y-60158380D01*
X136358190Y-61158380D02*
X136358190Y-60158380D01*
X161980571Y-64984190D02*
X161980571Y-65317523D01*
X162504380Y-65317523D02*
X161504380Y-65317523D01*
X161504380Y-64841333D01*
X161504380Y-64603238D02*
X161504380Y-64031809D01*
X162504380Y-64317523D02*
X161504380Y-64317523D01*
X162504380Y-63698476D02*
X161504380Y-63698476D01*
X161504380Y-63460380D01*
X161552000Y-63317523D01*
X161647238Y-63222285D01*
X161742476Y-63174666D01*
X161932952Y-63127047D01*
X162075809Y-63127047D01*
X162266285Y-63174666D01*
X162361523Y-63222285D01*
X162456761Y-63317523D01*
X162504380Y-63460380D01*
X162504380Y-63698476D01*
X162504380Y-62698476D02*
X161504380Y-62698476D01*
X161186761Y-65158380D02*
X161234380Y-65015523D01*
X161234380Y-64777428D01*
X161186761Y-64682190D01*
X161139142Y-64634571D01*
X161043904Y-64586952D01*
X160948666Y-64586952D01*
X160853428Y-64634571D01*
X160805809Y-64682190D01*
X160758190Y-64777428D01*
X160710571Y-64967904D01*
X160662952Y-65063142D01*
X160615333Y-65110761D01*
X160520095Y-65158380D01*
X160424857Y-65158380D01*
X160329619Y-65110761D01*
X160282000Y-65063142D01*
X160234380Y-64967904D01*
X160234380Y-64729809D01*
X160282000Y-64586952D01*
X160710571Y-64158380D02*
X160710571Y-63825047D01*
X161234380Y-63682190D02*
X161234380Y-64158380D01*
X160234380Y-64158380D01*
X160234380Y-63682190D01*
X161234380Y-62682190D02*
X160758190Y-63015523D01*
X161234380Y-63253619D02*
X160234380Y-63253619D01*
X160234380Y-62872666D01*
X160282000Y-62777428D01*
X160329619Y-62729809D01*
X160424857Y-62682190D01*
X160567714Y-62682190D01*
X160662952Y-62729809D01*
X160710571Y-62777428D01*
X160758190Y-62872666D01*
X160758190Y-63253619D01*
X161234380Y-62253619D02*
X160234380Y-62253619D01*
X160948666Y-61825047D02*
X160948666Y-61348857D01*
X161234380Y-61920285D02*
X160234380Y-61586952D01*
X161234380Y-61253619D01*
X161234380Y-60444095D02*
X161234380Y-60920285D01*
X160234380Y-60920285D01*
X160234380Y-59444095D02*
X161234380Y-59206000D01*
X160520095Y-59015523D01*
X161234380Y-58825047D01*
X160234380Y-58586952D01*
X161234380Y-58206000D02*
X160234380Y-58206000D01*
X161234380Y-57158380D02*
X160758190Y-57491714D01*
X161234380Y-57729809D02*
X160234380Y-57729809D01*
X160234380Y-57348857D01*
X160282000Y-57253619D01*
X160329619Y-57206000D01*
X160424857Y-57158380D01*
X160567714Y-57158380D01*
X160662952Y-57206000D01*
X160710571Y-57253619D01*
X160758190Y-57348857D01*
X160758190Y-57729809D01*
X160710571Y-56729809D02*
X160710571Y-56396476D01*
X161234380Y-56253619D02*
X161234380Y-56729809D01*
X160234380Y-56729809D01*
X160234380Y-56253619D01*
X159964380Y-65245904D02*
X158964380Y-65245904D01*
X159059619Y-64817333D02*
X159012000Y-64769714D01*
X158964380Y-64674476D01*
X158964380Y-64436380D01*
X159012000Y-64341142D01*
X159059619Y-64293523D01*
X159154857Y-64245904D01*
X159250095Y-64245904D01*
X159392952Y-64293523D01*
X159964380Y-64864952D01*
X159964380Y-64245904D01*
X159869142Y-63245904D02*
X159916761Y-63293523D01*
X159964380Y-63436380D01*
X159964380Y-63531619D01*
X159916761Y-63674476D01*
X159821523Y-63769714D01*
X159726285Y-63817333D01*
X159535809Y-63864952D01*
X159392952Y-63864952D01*
X159202476Y-63817333D01*
X159107238Y-63769714D01*
X159012000Y-63674476D01*
X158964380Y-63531619D01*
X158964380Y-63436380D01*
X159012000Y-63293523D01*
X159059619Y-63245904D01*
X159964380Y-61579238D02*
X159964380Y-62055428D01*
X158964380Y-62055428D01*
X159869142Y-60674476D02*
X159916761Y-60722095D01*
X159964380Y-60864952D01*
X159964380Y-60960190D01*
X159916761Y-61103047D01*
X159821523Y-61198285D01*
X159726285Y-61245904D01*
X159535809Y-61293523D01*
X159392952Y-61293523D01*
X159202476Y-61245904D01*
X159107238Y-61198285D01*
X159012000Y-61103047D01*
X158964380Y-60960190D01*
X158964380Y-60864952D01*
X159012000Y-60722095D01*
X159059619Y-60674476D01*
X159964380Y-60245904D02*
X158964380Y-60245904D01*
X158964380Y-60007809D01*
X159012000Y-59864952D01*
X159107238Y-59769714D01*
X159202476Y-59722095D01*
X159392952Y-59674476D01*
X159535809Y-59674476D01*
X159726285Y-59722095D01*
X159821523Y-59769714D01*
X159916761Y-59864952D01*
X159964380Y-60007809D01*
X159964380Y-60245904D01*
X167076380Y-49585142D02*
X166076380Y-49585142D01*
X166171619Y-49156571D02*
X166124000Y-49108952D01*
X166076380Y-49013714D01*
X166076380Y-48775619D01*
X166124000Y-48680380D01*
X166171619Y-48632761D01*
X166266857Y-48585142D01*
X166362095Y-48585142D01*
X166504952Y-48632761D01*
X167076380Y-49204190D01*
X167076380Y-48585142D01*
X166981142Y-47585142D02*
X167028761Y-47632761D01*
X167076380Y-47775619D01*
X167076380Y-47870857D01*
X167028761Y-48013714D01*
X166933523Y-48108952D01*
X166838285Y-48156571D01*
X166647809Y-48204190D01*
X166504952Y-48204190D01*
X166314476Y-48156571D01*
X166219238Y-48108952D01*
X166124000Y-48013714D01*
X166076380Y-47870857D01*
X166076380Y-47775619D01*
X166124000Y-47632761D01*
X166171619Y-47585142D01*
X167028761Y-46442285D02*
X167076380Y-46299428D01*
X167076380Y-46061333D01*
X167028761Y-45966095D01*
X166981142Y-45918476D01*
X166885904Y-45870857D01*
X166790666Y-45870857D01*
X166695428Y-45918476D01*
X166647809Y-45966095D01*
X166600190Y-46061333D01*
X166552571Y-46251809D01*
X166504952Y-46347047D01*
X166457333Y-46394666D01*
X166362095Y-46442285D01*
X166266857Y-46442285D01*
X166171619Y-46394666D01*
X166124000Y-46347047D01*
X166076380Y-46251809D01*
X166076380Y-46013714D01*
X166124000Y-45870857D01*
X167076380Y-45299428D02*
X167028761Y-45394666D01*
X166933523Y-45442285D01*
X166076380Y-45442285D01*
X167076380Y-44489904D02*
X166552571Y-44489904D01*
X166457333Y-44537523D01*
X166409714Y-44632761D01*
X166409714Y-44823238D01*
X166457333Y-44918476D01*
X167028761Y-44489904D02*
X167076380Y-44585142D01*
X167076380Y-44823238D01*
X167028761Y-44918476D01*
X166933523Y-44966095D01*
X166838285Y-44966095D01*
X166743047Y-44918476D01*
X166695428Y-44823238D01*
X166695428Y-44585142D01*
X166647809Y-44489904D01*
X166409714Y-44108952D02*
X167076380Y-43870857D01*
X166409714Y-43632761D01*
X167028761Y-42870857D02*
X167076380Y-42966095D01*
X167076380Y-43156571D01*
X167028761Y-43251809D01*
X166933523Y-43299428D01*
X166552571Y-43299428D01*
X166457333Y-43251809D01*
X166409714Y-43156571D01*
X166409714Y-42966095D01*
X166457333Y-42870857D01*
X166552571Y-42823238D01*
X166647809Y-42823238D01*
X166743047Y-43299428D01*
D11*
X136351714Y-106184000D02*
X136208857Y-106112571D01*
X135994571Y-106112571D01*
X135780285Y-106184000D01*
X135637428Y-106326857D01*
X135566000Y-106469714D01*
X135494571Y-106755428D01*
X135494571Y-106969714D01*
X135566000Y-107255428D01*
X135637428Y-107398285D01*
X135780285Y-107541142D01*
X135994571Y-107612571D01*
X136137428Y-107612571D01*
X136351714Y-107541142D01*
X136423142Y-107469714D01*
X136423142Y-106969714D01*
X136137428Y-106969714D01*
X137637428Y-107541142D02*
X137494571Y-107612571D01*
X137208857Y-107612571D01*
X137066000Y-107541142D01*
X136994571Y-107398285D01*
X136994571Y-106826857D01*
X137066000Y-106684000D01*
X137208857Y-106612571D01*
X137494571Y-106612571D01*
X137637428Y-106684000D01*
X137708857Y-106826857D01*
X137708857Y-106969714D01*
X136994571Y-107112571D01*
X138280285Y-107541142D02*
X138423142Y-107612571D01*
X138708857Y-107612571D01*
X138851714Y-107541142D01*
X138923142Y-107398285D01*
X138923142Y-107326857D01*
X138851714Y-107184000D01*
X138708857Y-107112571D01*
X138494571Y-107112571D01*
X138351714Y-107041142D01*
X138280285Y-106898285D01*
X138280285Y-106826857D01*
X138351714Y-106684000D01*
X138494571Y-106612571D01*
X138708857Y-106612571D01*
X138851714Y-106684000D01*
X139351714Y-106612571D02*
X139923142Y-106612571D01*
X139566000Y-106112571D02*
X139566000Y-107398285D01*
X139637428Y-107541142D01*
X139780285Y-107612571D01*
X139923142Y-107612571D01*
X141066000Y-106612571D02*
X141066000Y-107612571D01*
X140423142Y-106612571D02*
X140423142Y-107398285D01*
X140494571Y-107541142D01*
X140637428Y-107612571D01*
X140851714Y-107612571D01*
X140994571Y-107541142D01*
X141066000Y-107469714D01*
X141780285Y-107612571D02*
X141780285Y-106612571D01*
X141780285Y-106898285D02*
X141851714Y-106755428D01*
X141923142Y-106684000D01*
X142066000Y-106612571D01*
X142208857Y-106612571D01*
X143280285Y-107541142D02*
X143137428Y-107612571D01*
X142851714Y-107612571D01*
X142708857Y-107541142D01*
X142637428Y-107398285D01*
X142637428Y-106826857D01*
X142708857Y-106684000D01*
X142851714Y-106612571D01*
X143137428Y-106612571D01*
X143280285Y-106684000D01*
X143351714Y-106826857D01*
X143351714Y-106969714D01*
X142637428Y-107112571D01*
X145994571Y-107469714D02*
X145923142Y-107541142D01*
X145708857Y-107612571D01*
X145566000Y-107612571D01*
X145351714Y-107541142D01*
X145208857Y-107398285D01*
X145137428Y-107255428D01*
X145066000Y-106969714D01*
X145066000Y-106755428D01*
X145137428Y-106469714D01*
X145208857Y-106326857D01*
X145351714Y-106184000D01*
X145566000Y-106112571D01*
X145708857Y-106112571D01*
X145923142Y-106184000D01*
X145994571Y-106255428D01*
X146851714Y-107612571D02*
X146708857Y-107541142D01*
X146637428Y-107469714D01*
X146566000Y-107326857D01*
X146566000Y-106898285D01*
X146637428Y-106755428D01*
X146708857Y-106684000D01*
X146851714Y-106612571D01*
X147066000Y-106612571D01*
X147208857Y-106684000D01*
X147280285Y-106755428D01*
X147351714Y-106898285D01*
X147351714Y-107326857D01*
X147280285Y-107469714D01*
X147208857Y-107541142D01*
X147066000Y-107612571D01*
X146851714Y-107612571D01*
X147994571Y-106612571D02*
X147994571Y-107612571D01*
X147994571Y-106755428D02*
X148066000Y-106684000D01*
X148208857Y-106612571D01*
X148423142Y-106612571D01*
X148566000Y-106684000D01*
X148637428Y-106826857D01*
X148637428Y-107612571D01*
X149137428Y-106612571D02*
X149708857Y-106612571D01*
X149351714Y-106112571D02*
X149351714Y-107398285D01*
X149423142Y-107541142D01*
X149566000Y-107612571D01*
X149708857Y-107612571D01*
X150208857Y-107612571D02*
X150208857Y-106612571D01*
X150208857Y-106898285D02*
X150280285Y-106755428D01*
X150351714Y-106684000D01*
X150494571Y-106612571D01*
X150637428Y-106612571D01*
X151351714Y-107612571D02*
X151208857Y-107541142D01*
X151137428Y-107469714D01*
X151066000Y-107326857D01*
X151066000Y-106898285D01*
X151137428Y-106755428D01*
X151208857Y-106684000D01*
X151351714Y-106612571D01*
X151566000Y-106612571D01*
X151708857Y-106684000D01*
X151780285Y-106755428D01*
X151851714Y-106898285D01*
X151851714Y-107326857D01*
X151780285Y-107469714D01*
X151708857Y-107541142D01*
X151566000Y-107612571D01*
X151351714Y-107612571D01*
X152708857Y-107612571D02*
X152566000Y-107541142D01*
X152494571Y-107398285D01*
X152494571Y-106112571D01*
X154208857Y-106112571D02*
X154708857Y-107612571D01*
X155208857Y-106112571D01*
X155994571Y-106112571D02*
X156137428Y-106112571D01*
X156280285Y-106184000D01*
X156351714Y-106255428D01*
X156423142Y-106398285D01*
X156494571Y-106684000D01*
X156494571Y-107041142D01*
X156423142Y-107326857D01*
X156351714Y-107469714D01*
X156280285Y-107541142D01*
X156137428Y-107612571D01*
X155994571Y-107612571D01*
X155851714Y-107541142D01*
X155780285Y-107469714D01*
X155708857Y-107326857D01*
X155637428Y-107041142D01*
X155637428Y-106684000D01*
X155708857Y-106398285D01*
X155780285Y-106255428D01*
X155851714Y-106184000D01*
X155994571Y-106112571D01*
X157137428Y-107469714D02*
X157208857Y-107541142D01*
X157137428Y-107612571D01*
X157066000Y-107541142D01*
X157137428Y-107469714D01*
X157137428Y-107612571D01*
X158637428Y-107612571D02*
X157780285Y-107612571D01*
X158208857Y-107612571D02*
X158208857Y-106112571D01*
X158066000Y-106326857D01*
X157923142Y-106469714D01*
X157780285Y-106541142D01*
X131994571Y-109898571D02*
X131994571Y-108398571D01*
X132494571Y-109470000D01*
X132994571Y-108398571D01*
X132994571Y-109898571D01*
X134351714Y-109898571D02*
X134351714Y-109112857D01*
X134280285Y-108970000D01*
X134137428Y-108898571D01*
X133851714Y-108898571D01*
X133708857Y-108970000D01*
X134351714Y-109827142D02*
X134208857Y-109898571D01*
X133851714Y-109898571D01*
X133708857Y-109827142D01*
X133637428Y-109684285D01*
X133637428Y-109541428D01*
X133708857Y-109398571D01*
X133851714Y-109327142D01*
X134208857Y-109327142D01*
X134351714Y-109255714D01*
X135708857Y-109898571D02*
X135708857Y-108398571D01*
X135708857Y-109827142D02*
X135566000Y-109898571D01*
X135280285Y-109898571D01*
X135137428Y-109827142D01*
X135066000Y-109755714D01*
X134994571Y-109612857D01*
X134994571Y-109184285D01*
X135066000Y-109041428D01*
X135137428Y-108970000D01*
X135280285Y-108898571D01*
X135566000Y-108898571D01*
X135708857Y-108970000D01*
X136994571Y-109827142D02*
X136851714Y-109898571D01*
X136566000Y-109898571D01*
X136423142Y-109827142D01*
X136351714Y-109684285D01*
X136351714Y-109112857D01*
X136423142Y-108970000D01*
X136566000Y-108898571D01*
X136851714Y-108898571D01*
X136994571Y-108970000D01*
X137066000Y-109112857D01*
X137066000Y-109255714D01*
X136351714Y-109398571D01*
X139351714Y-109112857D02*
X139566000Y-109184285D01*
X139637428Y-109255714D01*
X139708857Y-109398571D01*
X139708857Y-109612857D01*
X139637428Y-109755714D01*
X139566000Y-109827142D01*
X139423142Y-109898571D01*
X138851714Y-109898571D01*
X138851714Y-108398571D01*
X139351714Y-108398571D01*
X139494571Y-108470000D01*
X139566000Y-108541428D01*
X139637428Y-108684285D01*
X139637428Y-108827142D01*
X139566000Y-108970000D01*
X139494571Y-109041428D01*
X139351714Y-109112857D01*
X138851714Y-109112857D01*
X140208857Y-108898571D02*
X140566000Y-109898571D01*
X140923142Y-108898571D02*
X140566000Y-109898571D01*
X140423142Y-110255714D01*
X140351714Y-110327142D01*
X140208857Y-110398571D01*
X141494571Y-109755714D02*
X141566000Y-109827142D01*
X141494571Y-109898571D01*
X141423142Y-109827142D01*
X141494571Y-109755714D01*
X141494571Y-109898571D01*
X141494571Y-108970000D02*
X141566000Y-109041428D01*
X141494571Y-109112857D01*
X141423142Y-109041428D01*
X141494571Y-108970000D01*
X141494571Y-109112857D01*
X144208857Y-109898571D02*
X143708857Y-109184285D01*
X143351714Y-109898571D02*
X143351714Y-108398571D01*
X143923142Y-108398571D01*
X144066000Y-108470000D01*
X144137428Y-108541428D01*
X144208857Y-108684285D01*
X144208857Y-108898571D01*
X144137428Y-109041428D01*
X144066000Y-109112857D01*
X143923142Y-109184285D01*
X143351714Y-109184285D01*
X145066000Y-109898571D02*
X144923142Y-109827142D01*
X144851714Y-109755714D01*
X144780285Y-109612857D01*
X144780285Y-109184285D01*
X144851714Y-109041428D01*
X144923142Y-108970000D01*
X145066000Y-108898571D01*
X145280285Y-108898571D01*
X145423142Y-108970000D01*
X145494571Y-109041428D01*
X145566000Y-109184285D01*
X145566000Y-109612857D01*
X145494571Y-109755714D01*
X145423142Y-109827142D01*
X145280285Y-109898571D01*
X145066000Y-109898571D01*
X146208857Y-109898571D02*
X146208857Y-108398571D01*
X146208857Y-108970000D02*
X146351714Y-108898571D01*
X146637428Y-108898571D01*
X146780285Y-108970000D01*
X146851714Y-109041428D01*
X146923142Y-109184285D01*
X146923142Y-109612857D01*
X146851714Y-109755714D01*
X146780285Y-109827142D01*
X146637428Y-109898571D01*
X146351714Y-109898571D01*
X146208857Y-109827142D01*
X147566000Y-109898571D02*
X147566000Y-108398571D01*
X147566000Y-108970000D02*
X147708857Y-108898571D01*
X147994571Y-108898571D01*
X148137428Y-108970000D01*
X148208857Y-109041428D01*
X148280285Y-109184285D01*
X148280285Y-109612857D01*
X148208857Y-109755714D01*
X148137428Y-109827142D01*
X147994571Y-109898571D01*
X147708857Y-109898571D01*
X147566000Y-109827142D01*
X149494571Y-109827142D02*
X149351714Y-109898571D01*
X149066000Y-109898571D01*
X148923142Y-109827142D01*
X148851714Y-109684285D01*
X148851714Y-109112857D01*
X148923142Y-108970000D01*
X149066000Y-108898571D01*
X149351714Y-108898571D01*
X149494571Y-108970000D01*
X149566000Y-109112857D01*
X149566000Y-109255714D01*
X148851714Y-109398571D01*
X151351714Y-109112857D02*
X151851714Y-109112857D01*
X152066000Y-109898571D02*
X151351714Y-109898571D01*
X151351714Y-108398571D01*
X152066000Y-108398571D01*
X152923142Y-109898571D02*
X152780285Y-109827142D01*
X152708857Y-109684285D01*
X152708857Y-108398571D01*
X153423142Y-109827142D02*
X153566000Y-109898571D01*
X153851714Y-109898571D01*
X153994571Y-109827142D01*
X154066000Y-109684285D01*
X154066000Y-109612857D01*
X153994571Y-109470000D01*
X153851714Y-109398571D01*
X153637428Y-109398571D01*
X153494571Y-109327142D01*
X153423142Y-109184285D01*
X153423142Y-109112857D01*
X153494571Y-108970000D01*
X153637428Y-108898571D01*
X153851714Y-108898571D01*
X153994571Y-108970000D01*
X155280285Y-109827142D02*
X155137428Y-109898571D01*
X154851714Y-109898571D01*
X154708857Y-109827142D01*
X154637428Y-109684285D01*
X154637428Y-109112857D01*
X154708857Y-108970000D01*
X154851714Y-108898571D01*
X155137428Y-108898571D01*
X155280285Y-108970000D01*
X155351714Y-109112857D01*
X155351714Y-109255714D01*
X154637428Y-109398571D01*
X155994571Y-109898571D02*
X155994571Y-108898571D01*
X155994571Y-109184285D02*
X156066000Y-109041428D01*
X156137428Y-108970000D01*
X156280285Y-108898571D01*
X156423142Y-108898571D01*
X156923142Y-109898571D02*
X156923142Y-108898571D01*
X156923142Y-109041428D02*
X156994571Y-108970000D01*
X157137428Y-108898571D01*
X157351714Y-108898571D01*
X157494571Y-108970000D01*
X157566000Y-109112857D01*
X157566000Y-109898571D01*
X157566000Y-109112857D02*
X157637428Y-108970000D01*
X157780285Y-108898571D01*
X157994571Y-108898571D01*
X158137428Y-108970000D01*
X158208857Y-109112857D01*
X158208857Y-109898571D01*
X159566000Y-109898571D02*
X159566000Y-109112857D01*
X159494571Y-108970000D01*
X159351714Y-108898571D01*
X159066000Y-108898571D01*
X158923142Y-108970000D01*
X159566000Y-109827142D02*
X159423142Y-109898571D01*
X159066000Y-109898571D01*
X158923142Y-109827142D01*
X158851714Y-109684285D01*
X158851714Y-109541428D01*
X158923142Y-109398571D01*
X159066000Y-109327142D01*
X159423142Y-109327142D01*
X159566000Y-109255714D01*
X160280285Y-108898571D02*
X160280285Y-109898571D01*
X160280285Y-109041428D02*
X160351714Y-108970000D01*
X160494571Y-108898571D01*
X160708857Y-108898571D01*
X160851714Y-108970000D01*
X160923142Y-109112857D01*
X160923142Y-109898571D01*
X161566000Y-109827142D02*
X161708857Y-109898571D01*
X161994571Y-109898571D01*
X162137428Y-109827142D01*
X162208857Y-109684285D01*
X162208857Y-109612857D01*
X162137428Y-109470000D01*
X161994571Y-109398571D01*
X161780285Y-109398571D01*
X161637428Y-109327142D01*
X161566000Y-109184285D01*
X161566000Y-109112857D01*
X161637428Y-108970000D01*
X161780285Y-108898571D01*
X161994571Y-108898571D01*
X162137428Y-108970000D01*
D12*
%TO.C,C10*%
X149379000Y-119859248D02*
X149379000Y-120381752D01*
X150849000Y-119859248D02*
X150849000Y-120381752D01*
%TO.C,J10*%
X167954000Y-60258000D02*
X166624000Y-60258000D01*
X167954000Y-58928000D02*
X167954000Y-60258000D01*
X167954000Y-57658000D02*
X165294000Y-57658000D01*
X165294000Y-57658000D02*
X165294000Y-49978000D01*
X167954000Y-57658000D02*
X167954000Y-49978000D01*
X167954000Y-49978000D02*
X165294000Y-49978000D01*
%TO.C,J8*%
X154492000Y-62544000D02*
X153162000Y-62544000D01*
X154492000Y-61214000D02*
X154492000Y-62544000D01*
X154492000Y-59944000D02*
X151832000Y-59944000D01*
X151832000Y-59944000D02*
X151832000Y-49724000D01*
X154492000Y-59944000D02*
X154492000Y-49724000D01*
X154492000Y-49724000D02*
X151832000Y-49724000D01*
%TO.C,J7*%
X158302000Y-65084000D02*
X156972000Y-65084000D01*
X158302000Y-63754000D02*
X158302000Y-65084000D01*
X158302000Y-62484000D02*
X155642000Y-62484000D01*
X155642000Y-62484000D02*
X155642000Y-49724000D01*
X158302000Y-62484000D02*
X158302000Y-49724000D01*
X158302000Y-49724000D02*
X155642000Y-49724000D01*
%TO.C,Y2*%
X131704000Y-65256000D02*
X135504000Y-65256000D01*
X137804000Y-65256000D02*
X137204000Y-65256000D01*
X137804000Y-68856000D02*
X137204000Y-68856000D01*
X137804000Y-65256000D02*
X137804000Y-66556000D01*
X137804000Y-67556000D02*
X137804000Y-68856000D01*
X135504000Y-68856000D02*
X131704000Y-68856000D01*
X129404000Y-65256000D02*
X130004000Y-65256000D01*
X129404000Y-68856000D02*
X129404000Y-65256000D01*
X130004000Y-68856000D02*
X129404000Y-68856000D01*
X137804000Y-66556000D02*
G75*
G03*
X137804000Y-67556000I0J-500000D01*
G01*
%TO.C,Y1*%
X131054000Y-71786000D02*
X131054000Y-84386000D01*
X136154000Y-71786000D02*
X131054000Y-71786000D01*
X136154000Y-84386000D02*
X136154000Y-71786000D01*
%TO.C,U7*%
X141956000Y-65182000D02*
X140616000Y-65182000D01*
X141956000Y-64232000D02*
X141956000Y-65182000D01*
X142906000Y-64232000D02*
X141956000Y-64232000D01*
X152176000Y-64232000D02*
X152176000Y-65182000D01*
X151226000Y-64232000D02*
X152176000Y-64232000D01*
X141956000Y-74452000D02*
X141956000Y-73502000D01*
X142906000Y-74452000D02*
X141956000Y-74452000D01*
X152176000Y-74452000D02*
X152176000Y-73502000D01*
X151226000Y-74452000D02*
X152176000Y-74452000D01*
%TO.C,U6*%
X141956000Y-65182000D02*
X140616000Y-65182000D01*
X141956000Y-64232000D02*
X141956000Y-65182000D01*
X142906000Y-64232000D02*
X141956000Y-64232000D01*
X152176000Y-64232000D02*
X152176000Y-65182000D01*
X151226000Y-64232000D02*
X152176000Y-64232000D01*
X141956000Y-74452000D02*
X141956000Y-73502000D01*
X142906000Y-74452000D02*
X141956000Y-74452000D01*
X152176000Y-74452000D02*
X152176000Y-73502000D01*
X151226000Y-74452000D02*
X152176000Y-74452000D01*
%TO.C,SW4*%
X138358000Y-58094000D02*
X138358000Y-51634000D01*
X133828000Y-58094000D02*
X136428000Y-58094000D01*
X131898000Y-58094000D02*
X131898000Y-51634000D01*
X133828000Y-51634000D02*
X136428000Y-51634000D01*
X131928000Y-58094000D02*
X131898000Y-58094000D01*
X138358000Y-58094000D02*
X138328000Y-58094000D01*
X138358000Y-51634000D02*
X138328000Y-51634000D01*
X131898000Y-51634000D02*
X131928000Y-51634000D01*
%TO.C,SW3*%
X145724000Y-58094000D02*
X145724000Y-51634000D01*
X141194000Y-58094000D02*
X143794000Y-58094000D01*
X139264000Y-58094000D02*
X139264000Y-51634000D01*
X141194000Y-51634000D02*
X143794000Y-51634000D01*
X139294000Y-58094000D02*
X139264000Y-58094000D01*
X145724000Y-58094000D02*
X145694000Y-58094000D01*
X145724000Y-51634000D02*
X145694000Y-51634000D01*
X139264000Y-51634000D02*
X139294000Y-51634000D01*
%TO.C,SW2*%
X166044000Y-75002000D02*
X159584000Y-75002000D01*
X166044000Y-79532000D02*
X166044000Y-76932000D01*
X166044000Y-81462000D02*
X159584000Y-81462000D01*
X159584000Y-79532000D02*
X159584000Y-76932000D01*
X166044000Y-81432000D02*
X166044000Y-81462000D01*
X166044000Y-75002000D02*
X166044000Y-75032000D01*
X159584000Y-75002000D02*
X159584000Y-75032000D01*
X159584000Y-81462000D02*
X159584000Y-81432000D01*
%TO.C,SW1*%
X166044000Y-81860000D02*
X159584000Y-81860000D01*
X166044000Y-86390000D02*
X166044000Y-83790000D01*
X166044000Y-88320000D02*
X159584000Y-88320000D01*
X159584000Y-86390000D02*
X159584000Y-83790000D01*
X166044000Y-88290000D02*
X166044000Y-88320000D01*
X166044000Y-81860000D02*
X166044000Y-81890000D01*
X159584000Y-81860000D02*
X159584000Y-81890000D01*
X159584000Y-88320000D02*
X159584000Y-88290000D01*
%TO.C,R7*%
X157453000Y-79713064D02*
X157453000Y-79258936D01*
X155983000Y-79713064D02*
X155983000Y-79258936D01*
%TO.C,R6*%
X155983000Y-86148936D02*
X155983000Y-86603064D01*
X157453000Y-86148936D02*
X157453000Y-86603064D01*
%TO.C,R5*%
X157453000Y-91413064D02*
X157453000Y-90958936D01*
X155983000Y-91413064D02*
X155983000Y-90958936D01*
%TO.C,R4*%
X155167000Y-91397064D02*
X155167000Y-90942936D01*
X153697000Y-91397064D02*
X153697000Y-90942936D01*
%TO.C,R3*%
X152881000Y-91397064D02*
X152881000Y-90942936D01*
X151411000Y-91397064D02*
X151411000Y-90942936D01*
%TO.C,R2*%
X150595000Y-91397064D02*
X150595000Y-90942936D01*
X149125000Y-91397064D02*
X149125000Y-90942936D01*
%TO.C,R1*%
X148309000Y-91429064D02*
X148309000Y-90974936D01*
X146839000Y-91429064D02*
X146839000Y-90974936D01*
%TO.C,J9*%
X137100000Y-75124000D02*
X138430000Y-75124000D01*
X137100000Y-76454000D02*
X137100000Y-75124000D01*
X137100000Y-77724000D02*
X139760000Y-77724000D01*
X139760000Y-77724000D02*
X139760000Y-85404000D01*
X137100000Y-77724000D02*
X137100000Y-85404000D01*
X137100000Y-85404000D02*
X139760000Y-85404000D01*
%TO.C,J2*%
X127046000Y-53146000D02*
X126446000Y-53146000D01*
X126746000Y-52546000D02*
X127046000Y-53146000D01*
X126446000Y-53146000D02*
X126746000Y-52546000D01*
X129306000Y-45746000D02*
X120686000Y-45746000D01*
X125696000Y-51856000D02*
X124296000Y-51856000D01*
X120686000Y-51856000D02*
X122196000Y-51856000D01*
X129306000Y-51856000D02*
X127796000Y-51856000D01*
X120686000Y-42436000D02*
X120686000Y-51856000D01*
X129306000Y-42436000D02*
X120686000Y-42436000D01*
X129306000Y-51856000D02*
X129306000Y-42436000D01*
%TO.C,J1*%
X150682000Y-60004000D02*
X149352000Y-60004000D01*
X150682000Y-58674000D02*
X150682000Y-60004000D01*
X150682000Y-57404000D02*
X148022000Y-57404000D01*
X148022000Y-57404000D02*
X148022000Y-49724000D01*
X150682000Y-57404000D02*
X150682000Y-49724000D01*
X150682000Y-49724000D02*
X148022000Y-49724000D01*
%TO.C,D5*%
X157678000Y-97110000D02*
X157678000Y-94250000D01*
X155758000Y-97110000D02*
X157678000Y-97110000D01*
X155758000Y-94250000D02*
X155758000Y-97110000D01*
%TO.C,D4*%
X155392000Y-97119000D02*
X155392000Y-94259000D01*
X153472000Y-97119000D02*
X155392000Y-97119000D01*
X153472000Y-94259000D02*
X153472000Y-97119000D01*
%TO.C,D3*%
X153106000Y-97119000D02*
X153106000Y-94259000D01*
X151186000Y-97119000D02*
X153106000Y-97119000D01*
X151186000Y-94259000D02*
X151186000Y-97119000D01*
%TO.C,D2*%
X150820000Y-97119000D02*
X150820000Y-94259000D01*
X148900000Y-97119000D02*
X150820000Y-97119000D01*
X148900000Y-94259000D02*
X148900000Y-97119000D01*
%TO.C,D1*%
X148534000Y-97101000D02*
X148534000Y-94241000D01*
X146614000Y-97101000D02*
X148534000Y-97101000D01*
X146614000Y-94241000D02*
X146614000Y-97101000D01*
%TO.C,C32*%
X153952752Y-77751000D02*
X153430248Y-77751000D01*
X153952752Y-79221000D02*
X153430248Y-79221000D01*
%TO.C,C27*%
X153461767Y-75944000D02*
X153169233Y-75944000D01*
X153461767Y-76964000D02*
X153169233Y-76964000D01*
%TO.C,C26*%
X144063767Y-76706000D02*
X143771233Y-76706000D01*
X144063767Y-77726000D02*
X143771233Y-77726000D01*
%TO.C,C25*%
X139702000Y-64254767D02*
X139702000Y-63962233D01*
X138682000Y-64254767D02*
X138682000Y-63962233D01*
%TO.C,C24*%
X140460000Y-61829733D02*
X140460000Y-62122267D01*
X141480000Y-61829733D02*
X141480000Y-62122267D01*
%TO.C,C7*%
X129749250Y-53868250D02*
X128961750Y-53868250D01*
X129355500Y-53474500D02*
X129355500Y-54262000D01*
X125162437Y-54502000D02*
X124098000Y-55566437D01*
X129853563Y-54502000D02*
X130918000Y-55566437D01*
X129853563Y-54502000D02*
X128568000Y-54502000D01*
X125162437Y-54502000D02*
X126448000Y-54502000D01*
X124098000Y-55566437D02*
X124098000Y-61322000D01*
X130918000Y-55566437D02*
X130918000Y-61322000D01*
X130918000Y-61322000D02*
X128568000Y-61322000D01*
X124098000Y-61322000D02*
X126448000Y-61322000D01*
%TO.C,C6*%
X124988250Y-95040750D02*
X124988250Y-95828250D01*
X124594500Y-95434500D02*
X125382000Y-95434500D01*
X125622000Y-99627563D02*
X126686437Y-100692000D01*
X125622000Y-94936437D02*
X126686437Y-93872000D01*
X125622000Y-94936437D02*
X125622000Y-96222000D01*
X125622000Y-99627563D02*
X125622000Y-98342000D01*
X126686437Y-100692000D02*
X132442000Y-100692000D01*
X126686437Y-93872000D02*
X132442000Y-93872000D01*
X132442000Y-93872000D02*
X132442000Y-96222000D01*
X132442000Y-100692000D02*
X132442000Y-98342000D01*
%TO.C,C5*%
X135402250Y-95040750D02*
X135402250Y-95828250D01*
X135008500Y-95434500D02*
X135796000Y-95434500D01*
X136036000Y-99627563D02*
X137100437Y-100692000D01*
X136036000Y-94936437D02*
X137100437Y-93872000D01*
X136036000Y-94936437D02*
X136036000Y-96222000D01*
X136036000Y-99627563D02*
X136036000Y-98342000D01*
X137100437Y-100692000D02*
X142856000Y-100692000D01*
X137100437Y-93872000D02*
X142856000Y-93872000D01*
X142856000Y-93872000D02*
X142856000Y-96222000D01*
X142856000Y-100692000D02*
X142856000Y-98342000D01*
%TO.C,C4*%
X124988250Y-87674750D02*
X124988250Y-88462250D01*
X124594500Y-88068500D02*
X125382000Y-88068500D01*
X125622000Y-92261563D02*
X126686437Y-93326000D01*
X125622000Y-87570437D02*
X126686437Y-86506000D01*
X125622000Y-87570437D02*
X125622000Y-88856000D01*
X125622000Y-92261563D02*
X125622000Y-90976000D01*
X126686437Y-93326000D02*
X132442000Y-93326000D01*
X126686437Y-86506000D02*
X132442000Y-86506000D01*
X132442000Y-86506000D02*
X132442000Y-88856000D01*
X132442000Y-93326000D02*
X132442000Y-90976000D01*
%TO.C,C3*%
X135402250Y-87674750D02*
X135402250Y-88462250D01*
X135008500Y-88068500D02*
X135796000Y-88068500D01*
X136036000Y-92261563D02*
X137100437Y-93326000D01*
X136036000Y-87570437D02*
X137100437Y-86506000D01*
X136036000Y-87570437D02*
X136036000Y-88856000D01*
X136036000Y-92261563D02*
X136036000Y-90976000D01*
X137100437Y-93326000D02*
X142856000Y-93326000D01*
X137100437Y-86506000D02*
X142856000Y-86506000D01*
X142856000Y-86506000D02*
X142856000Y-88856000D01*
X142856000Y-93326000D02*
X142856000Y-90976000D01*
%TO.C,U5*%
X111582200Y-117919500D02*
X111582200Y-117731739D01*
X111582200Y-113220500D02*
X108889800Y-113220500D01*
X108889800Y-113220500D02*
X108889800Y-113408261D01*
X108889800Y-117919500D02*
X111582200Y-117919500D01*
X111582200Y-113408261D02*
X111582200Y-113220500D01*
X108889800Y-117731739D02*
X108889800Y-117919500D01*
D13*
G36*
X108462801Y-115760500D02*
G01*
X108208801Y-115760500D01*
X108208801Y-115379500D01*
X108462801Y-115379500D01*
X108462801Y-115760500D01*
G37*
X108462801Y-115760500D02*
X108208801Y-115760500D01*
X108208801Y-115379500D01*
X108462801Y-115379500D01*
X108462801Y-115760500D01*
D12*
%TO.C,U4*%
X183972200Y-117919500D02*
X183972200Y-117731739D01*
X183972200Y-113220500D02*
X181279800Y-113220500D01*
X181279800Y-113220500D02*
X181279800Y-113408261D01*
X181279800Y-117919500D02*
X183972200Y-117919500D01*
X183972200Y-113408261D02*
X183972200Y-113220500D01*
X181279800Y-117731739D02*
X181279800Y-117919500D01*
D13*
G36*
X180852801Y-115760500D02*
G01*
X180598801Y-115760500D01*
X180598801Y-115379500D01*
X180852801Y-115379500D01*
X180852801Y-115760500D01*
G37*
X180852801Y-115760500D02*
X180598801Y-115760500D01*
X180598801Y-115379500D01*
X180852801Y-115379500D01*
X180852801Y-115760500D01*
D12*
%TO.C,U3*%
X148412200Y-117919500D02*
X148412200Y-117731739D01*
X148412200Y-113220500D02*
X145719800Y-113220500D01*
X145719800Y-113220500D02*
X145719800Y-113408261D01*
X145719800Y-117919500D02*
X148412200Y-117919500D01*
X148412200Y-113408261D02*
X148412200Y-113220500D01*
X145719800Y-117731739D02*
X145719800Y-117919500D01*
D13*
G36*
X145292801Y-115760500D02*
G01*
X145038801Y-115760500D01*
X145038801Y-115379500D01*
X145292801Y-115379500D01*
X145292801Y-115760500D01*
G37*
X145292801Y-115760500D02*
X145038801Y-115760500D01*
X145038801Y-115379500D01*
X145292801Y-115379500D01*
X145292801Y-115760500D01*
D12*
%TO.C,C13*%
X179097000Y-119859248D02*
X179097000Y-120381752D01*
X180567000Y-119859248D02*
X180567000Y-120381752D01*
%TO.C,C11*%
X182374000Y-120249733D02*
X182374000Y-120542267D01*
X181354000Y-120249733D02*
X181354000Y-120542267D01*
%TO.C,R15*%
X178096936Y-113311000D02*
X178551064Y-113311000D01*
X178096936Y-114781000D02*
X178551064Y-114781000D01*
%TO.C,C9*%
X147635500Y-120223233D02*
X147635500Y-120515767D01*
X148655500Y-120223233D02*
X148655500Y-120515767D01*
%TO.C,C15*%
X108964000Y-120276233D02*
X108964000Y-120568767D01*
X109984000Y-120276233D02*
X109984000Y-120568767D01*
%TO.C,C16*%
X112549000Y-119859248D02*
X112549000Y-120381752D01*
X114019000Y-119859248D02*
X114019000Y-120381752D01*
%TO.C,R12*%
X151595064Y-113311000D02*
X151140936Y-113311000D01*
X151595064Y-114781000D02*
X151140936Y-114781000D01*
%TO.C,R14*%
X187155064Y-114781000D02*
X186700936Y-114781000D01*
X187155064Y-113311000D02*
X186700936Y-113311000D01*
%TO.C,R13*%
X142536936Y-114781000D02*
X142991064Y-114781000D01*
X142536936Y-113311000D02*
X142991064Y-113311000D01*
%TO.C,R17*%
X105706936Y-114781000D02*
X106161064Y-114781000D01*
X105706936Y-113311000D02*
X106161064Y-113311000D01*
%TO.C,R16*%
X114765064Y-113311000D02*
X114310936Y-113311000D01*
X114765064Y-114781000D02*
X114310936Y-114781000D01*
%TO.C,C14*%
X110742000Y-120249733D02*
X110742000Y-120542267D01*
X111762000Y-120249733D02*
X111762000Y-120542267D01*
%TO.C,C8*%
X145794000Y-120249733D02*
X145794000Y-120542267D01*
X146814000Y-120249733D02*
X146814000Y-120542267D01*
%TO.C,C12*%
X183132000Y-120249733D02*
X183132000Y-120542267D01*
X184152000Y-120249733D02*
X184152000Y-120542267D01*
%TO.C,J6*%
X171510000Y-71568000D02*
X168850000Y-71568000D01*
X171510000Y-89408000D02*
X171510000Y-71568000D01*
X168850000Y-89408000D02*
X168850000Y-71568000D01*
X171510000Y-89408000D02*
X168850000Y-89408000D01*
X171510000Y-90678000D02*
X171510000Y-92008000D01*
X171510000Y-92008000D02*
X170180000Y-92008000D01*
%TO.C,J5*%
X171510000Y-44644000D02*
X168850000Y-44644000D01*
X171510000Y-67564000D02*
X171510000Y-44644000D01*
X168850000Y-67564000D02*
X168850000Y-44644000D01*
X171510000Y-67564000D02*
X168850000Y-67564000D01*
X171510000Y-68834000D02*
X171510000Y-70164000D01*
X171510000Y-70164000D02*
X170180000Y-70164000D01*
%TO.C,J4*%
X120590000Y-92008000D02*
X123250000Y-92008000D01*
X120590000Y-79248000D02*
X120590000Y-92008000D01*
X123250000Y-79248000D02*
X123250000Y-92008000D01*
X120590000Y-79248000D02*
X123250000Y-79248000D01*
X120590000Y-77978000D02*
X120590000Y-76648000D01*
X120590000Y-76648000D02*
X121920000Y-76648000D01*
%TO.C,J3*%
X120590000Y-74228000D02*
X123250000Y-74228000D01*
X120590000Y-56388000D02*
X120590000Y-74228000D01*
X123250000Y-56388000D02*
X123250000Y-74228000D01*
X120590000Y-56388000D02*
X123250000Y-56388000D01*
X120590000Y-55118000D02*
X120590000Y-53788000D01*
X120590000Y-53788000D02*
X121920000Y-53788000D01*
%TO.C,C10*%
D14*
X154789142Y-120530857D02*
X154836761Y-120578476D01*
X154884380Y-120721333D01*
X154884380Y-120816571D01*
X154836761Y-120959428D01*
X154741523Y-121054666D01*
X154646285Y-121102285D01*
X154455809Y-121149904D01*
X154312952Y-121149904D01*
X154122476Y-121102285D01*
X154027238Y-121054666D01*
X153932000Y-120959428D01*
X153884380Y-120816571D01*
X153884380Y-120721333D01*
X153932000Y-120578476D01*
X153979619Y-120530857D01*
X154884380Y-119578476D02*
X154884380Y-120149904D01*
X154884380Y-119864190D02*
X153884380Y-119864190D01*
X154027238Y-119959428D01*
X154122476Y-120054666D01*
X154170095Y-120149904D01*
X153884380Y-118959428D02*
X153884380Y-118864190D01*
X153932000Y-118768952D01*
X153979619Y-118721333D01*
X154074857Y-118673714D01*
X154265333Y-118626095D01*
X154503428Y-118626095D01*
X154693904Y-118673714D01*
X154789142Y-118721333D01*
X154836761Y-118768952D01*
X154884380Y-118864190D01*
X154884380Y-118959428D01*
X154836761Y-119054666D01*
X154789142Y-119102285D01*
X154693904Y-119149904D01*
X154503428Y-119197523D01*
X154265333Y-119197523D01*
X154074857Y-119149904D01*
X153979619Y-119102285D01*
X153932000Y-119054666D01*
X153884380Y-118959428D01*
%TO.C,J10*%
X165814476Y-60710380D02*
X165814476Y-61424666D01*
X165766857Y-61567523D01*
X165671619Y-61662761D01*
X165528761Y-61710380D01*
X165433523Y-61710380D01*
X166814476Y-61710380D02*
X166243047Y-61710380D01*
X166528761Y-61710380D02*
X166528761Y-60710380D01*
X166433523Y-60853238D01*
X166338285Y-60948476D01*
X166243047Y-60996095D01*
X167433523Y-60710380D02*
X167528761Y-60710380D01*
X167624000Y-60758000D01*
X167671619Y-60805619D01*
X167719238Y-60900857D01*
X167766857Y-61091333D01*
X167766857Y-61329428D01*
X167719238Y-61519904D01*
X167671619Y-61615142D01*
X167624000Y-61662761D01*
X167528761Y-61710380D01*
X167433523Y-61710380D01*
X167338285Y-61662761D01*
X167290666Y-61615142D01*
X167243047Y-61519904D01*
X167195428Y-61329428D01*
X167195428Y-61091333D01*
X167243047Y-60900857D01*
X167290666Y-60805619D01*
X167338285Y-60758000D01*
X167433523Y-60710380D01*
%TO.C,J8*%
X152828666Y-62996380D02*
X152828666Y-63710666D01*
X152781047Y-63853523D01*
X152685809Y-63948761D01*
X152542952Y-63996380D01*
X152447714Y-63996380D01*
X153447714Y-63424952D02*
X153352476Y-63377333D01*
X153304857Y-63329714D01*
X153257238Y-63234476D01*
X153257238Y-63186857D01*
X153304857Y-63091619D01*
X153352476Y-63044000D01*
X153447714Y-62996380D01*
X153638190Y-62996380D01*
X153733428Y-63044000D01*
X153781047Y-63091619D01*
X153828666Y-63186857D01*
X153828666Y-63234476D01*
X153781047Y-63329714D01*
X153733428Y-63377333D01*
X153638190Y-63424952D01*
X153447714Y-63424952D01*
X153352476Y-63472571D01*
X153304857Y-63520190D01*
X153257238Y-63615428D01*
X153257238Y-63805904D01*
X153304857Y-63901142D01*
X153352476Y-63948761D01*
X153447714Y-63996380D01*
X153638190Y-63996380D01*
X153733428Y-63948761D01*
X153781047Y-63901142D01*
X153828666Y-63805904D01*
X153828666Y-63615428D01*
X153781047Y-63520190D01*
X153733428Y-63472571D01*
X153638190Y-63424952D01*
%TO.C,J7*%
X156638666Y-65536380D02*
X156638666Y-66250666D01*
X156591047Y-66393523D01*
X156495809Y-66488761D01*
X156352952Y-66536380D01*
X156257714Y-66536380D01*
X157019619Y-65536380D02*
X157686285Y-65536380D01*
X157257714Y-66536380D01*
%TO.C,Y2*%
X127793809Y-65000190D02*
X127793809Y-65476380D01*
X127460476Y-64476380D02*
X127793809Y-65000190D01*
X128127142Y-64476380D01*
X128412857Y-64571619D02*
X128460476Y-64524000D01*
X128555714Y-64476380D01*
X128793809Y-64476380D01*
X128889047Y-64524000D01*
X128936666Y-64571619D01*
X128984285Y-64666857D01*
X128984285Y-64762095D01*
X128936666Y-64904952D01*
X128365238Y-65476380D01*
X128984285Y-65476380D01*
%TO.C,Y1*%
X130024190Y-78962190D02*
X130500380Y-78962190D01*
X129500380Y-79295523D02*
X130024190Y-78962190D01*
X129500380Y-78628857D01*
X130500380Y-77771714D02*
X130500380Y-78343142D01*
X130500380Y-78057428D02*
X129500380Y-78057428D01*
X129643238Y-78152666D01*
X129738476Y-78247904D01*
X129786095Y-78343142D01*
%TO.C,U7*%
X154178095Y-72604380D02*
X154178095Y-73413904D01*
X154225714Y-73509142D01*
X154273333Y-73556761D01*
X154368571Y-73604380D01*
X154559047Y-73604380D01*
X154654285Y-73556761D01*
X154701904Y-73509142D01*
X154749523Y-73413904D01*
X154749523Y-72604380D01*
X155130476Y-72604380D02*
X155797142Y-72604380D01*
X155368571Y-73604380D01*
%TO.C,U6*%
X154178095Y-71334380D02*
X154178095Y-72143904D01*
X154225714Y-72239142D01*
X154273333Y-72286761D01*
X154368571Y-72334380D01*
X154559047Y-72334380D01*
X154654285Y-72286761D01*
X154701904Y-72239142D01*
X154749523Y-72143904D01*
X154749523Y-71334380D01*
X155654285Y-71334380D02*
X155463809Y-71334380D01*
X155368571Y-71382000D01*
X155320952Y-71429619D01*
X155225714Y-71572476D01*
X155178095Y-71762952D01*
X155178095Y-72143904D01*
X155225714Y-72239142D01*
X155273333Y-72286761D01*
X155368571Y-72334380D01*
X155559047Y-72334380D01*
X155654285Y-72286761D01*
X155701904Y-72239142D01*
X155749523Y-72143904D01*
X155749523Y-71905809D01*
X155701904Y-71810571D01*
X155654285Y-71762952D01*
X155559047Y-71715333D01*
X155368571Y-71715333D01*
X155273333Y-71762952D01*
X155225714Y-71810571D01*
X155178095Y-71905809D01*
%TO.C,SW4*%
X133794666Y-51204761D02*
X133937523Y-51252380D01*
X134175619Y-51252380D01*
X134270857Y-51204761D01*
X134318476Y-51157142D01*
X134366095Y-51061904D01*
X134366095Y-50966666D01*
X134318476Y-50871428D01*
X134270857Y-50823809D01*
X134175619Y-50776190D01*
X133985142Y-50728571D01*
X133889904Y-50680952D01*
X133842285Y-50633333D01*
X133794666Y-50538095D01*
X133794666Y-50442857D01*
X133842285Y-50347619D01*
X133889904Y-50300000D01*
X133985142Y-50252380D01*
X134223238Y-50252380D01*
X134366095Y-50300000D01*
X134699428Y-50252380D02*
X134937523Y-51252380D01*
X135128000Y-50538095D01*
X135318476Y-51252380D01*
X135556571Y-50252380D01*
X136366095Y-50585714D02*
X136366095Y-51252380D01*
X136128000Y-50204761D02*
X135889904Y-50919047D01*
X136508952Y-50919047D01*
%TO.C,SW3*%
X141160666Y-51204761D02*
X141303523Y-51252380D01*
X141541619Y-51252380D01*
X141636857Y-51204761D01*
X141684476Y-51157142D01*
X141732095Y-51061904D01*
X141732095Y-50966666D01*
X141684476Y-50871428D01*
X141636857Y-50823809D01*
X141541619Y-50776190D01*
X141351142Y-50728571D01*
X141255904Y-50680952D01*
X141208285Y-50633333D01*
X141160666Y-50538095D01*
X141160666Y-50442857D01*
X141208285Y-50347619D01*
X141255904Y-50300000D01*
X141351142Y-50252380D01*
X141589238Y-50252380D01*
X141732095Y-50300000D01*
X142065428Y-50252380D02*
X142303523Y-51252380D01*
X142494000Y-50538095D01*
X142684476Y-51252380D01*
X142922571Y-50252380D01*
X143208285Y-50252380D02*
X143827333Y-50252380D01*
X143494000Y-50633333D01*
X143636857Y-50633333D01*
X143732095Y-50680952D01*
X143779714Y-50728571D01*
X143827333Y-50823809D01*
X143827333Y-51061904D01*
X143779714Y-51157142D01*
X143732095Y-51204761D01*
X143636857Y-51252380D01*
X143351142Y-51252380D01*
X143255904Y-51204761D01*
X143208285Y-51157142D01*
%TO.C,SW2*%
X161480666Y-74826761D02*
X161623523Y-74874380D01*
X161861619Y-74874380D01*
X161956857Y-74826761D01*
X162004476Y-74779142D01*
X162052095Y-74683904D01*
X162052095Y-74588666D01*
X162004476Y-74493428D01*
X161956857Y-74445809D01*
X161861619Y-74398190D01*
X161671142Y-74350571D01*
X161575904Y-74302952D01*
X161528285Y-74255333D01*
X161480666Y-74160095D01*
X161480666Y-74064857D01*
X161528285Y-73969619D01*
X161575904Y-73922000D01*
X161671142Y-73874380D01*
X161909238Y-73874380D01*
X162052095Y-73922000D01*
X162385428Y-73874380D02*
X162623523Y-74874380D01*
X162814000Y-74160095D01*
X163004476Y-74874380D01*
X163242571Y-73874380D01*
X163575904Y-73969619D02*
X163623523Y-73922000D01*
X163718761Y-73874380D01*
X163956857Y-73874380D01*
X164052095Y-73922000D01*
X164099714Y-73969619D01*
X164147333Y-74064857D01*
X164147333Y-74160095D01*
X164099714Y-74302952D01*
X163528285Y-74874380D01*
X164147333Y-74874380D01*
%TO.C,SW1*%
X161480666Y-89544761D02*
X161623523Y-89592380D01*
X161861619Y-89592380D01*
X161956857Y-89544761D01*
X162004476Y-89497142D01*
X162052095Y-89401904D01*
X162052095Y-89306666D01*
X162004476Y-89211428D01*
X161956857Y-89163809D01*
X161861619Y-89116190D01*
X161671142Y-89068571D01*
X161575904Y-89020952D01*
X161528285Y-88973333D01*
X161480666Y-88878095D01*
X161480666Y-88782857D01*
X161528285Y-88687619D01*
X161575904Y-88640000D01*
X161671142Y-88592380D01*
X161909238Y-88592380D01*
X162052095Y-88640000D01*
X162385428Y-88592380D02*
X162623523Y-89592380D01*
X162814000Y-88878095D01*
X163004476Y-89592380D01*
X163242571Y-88592380D01*
X164147333Y-89592380D02*
X163575904Y-89592380D01*
X163861619Y-89592380D02*
X163861619Y-88592380D01*
X163766380Y-88735238D01*
X163671142Y-88830476D01*
X163575904Y-88878095D01*
%TO.C,R7*%
X155392380Y-81192666D02*
X154916190Y-81526000D01*
X155392380Y-81764095D02*
X154392380Y-81764095D01*
X154392380Y-81383142D01*
X154440000Y-81287904D01*
X154487619Y-81240285D01*
X154582857Y-81192666D01*
X154725714Y-81192666D01*
X154820952Y-81240285D01*
X154868571Y-81287904D01*
X154916190Y-81383142D01*
X154916190Y-81764095D01*
X154392380Y-80859333D02*
X154392380Y-80192666D01*
X155392380Y-80621238D01*
%TO.C,R6*%
X155392380Y-86526666D02*
X154916190Y-86860000D01*
X155392380Y-87098095D02*
X154392380Y-87098095D01*
X154392380Y-86717142D01*
X154440000Y-86621904D01*
X154487619Y-86574285D01*
X154582857Y-86526666D01*
X154725714Y-86526666D01*
X154820952Y-86574285D01*
X154868571Y-86621904D01*
X154916190Y-86717142D01*
X154916190Y-87098095D01*
X154392380Y-85669523D02*
X154392380Y-85860000D01*
X154440000Y-85955238D01*
X154487619Y-86002857D01*
X154630476Y-86098095D01*
X154820952Y-86145714D01*
X155201904Y-86145714D01*
X155297142Y-86098095D01*
X155344761Y-86050476D01*
X155392380Y-85955238D01*
X155392380Y-85764761D01*
X155344761Y-85669523D01*
X155297142Y-85621904D01*
X155201904Y-85574285D01*
X154963809Y-85574285D01*
X154868571Y-85621904D01*
X154820952Y-85669523D01*
X154773333Y-85764761D01*
X154773333Y-85955238D01*
X154820952Y-86050476D01*
X154868571Y-86098095D01*
X154963809Y-86145714D01*
%TO.C,R5*%
X153106380Y-88304666D02*
X152630190Y-88638000D01*
X153106380Y-88876095D02*
X152106380Y-88876095D01*
X152106380Y-88495142D01*
X152154000Y-88399904D01*
X152201619Y-88352285D01*
X152296857Y-88304666D01*
X152439714Y-88304666D01*
X152534952Y-88352285D01*
X152582571Y-88399904D01*
X152630190Y-88495142D01*
X152630190Y-88876095D01*
X152106380Y-87399904D02*
X152106380Y-87876095D01*
X152582571Y-87923714D01*
X152534952Y-87876095D01*
X152487333Y-87780857D01*
X152487333Y-87542761D01*
X152534952Y-87447523D01*
X152582571Y-87399904D01*
X152677809Y-87352285D01*
X152915904Y-87352285D01*
X153011142Y-87399904D01*
X153058761Y-87447523D01*
X153106380Y-87542761D01*
X153106380Y-87780857D01*
X153058761Y-87876095D01*
X153011142Y-87923714D01*
%TO.C,R4*%
X151836380Y-88304666D02*
X151360190Y-88638000D01*
X151836380Y-88876095D02*
X150836380Y-88876095D01*
X150836380Y-88495142D01*
X150884000Y-88399904D01*
X150931619Y-88352285D01*
X151026857Y-88304666D01*
X151169714Y-88304666D01*
X151264952Y-88352285D01*
X151312571Y-88399904D01*
X151360190Y-88495142D01*
X151360190Y-88876095D01*
X151169714Y-87447523D02*
X151836380Y-87447523D01*
X150788761Y-87685619D02*
X151503047Y-87923714D01*
X151503047Y-87304666D01*
%TO.C,R3*%
X150566380Y-88304666D02*
X150090190Y-88638000D01*
X150566380Y-88876095D02*
X149566380Y-88876095D01*
X149566380Y-88495142D01*
X149614000Y-88399904D01*
X149661619Y-88352285D01*
X149756857Y-88304666D01*
X149899714Y-88304666D01*
X149994952Y-88352285D01*
X150042571Y-88399904D01*
X150090190Y-88495142D01*
X150090190Y-88876095D01*
X149566380Y-87971333D02*
X149566380Y-87352285D01*
X149947333Y-87685619D01*
X149947333Y-87542761D01*
X149994952Y-87447523D01*
X150042571Y-87399904D01*
X150137809Y-87352285D01*
X150375904Y-87352285D01*
X150471142Y-87399904D01*
X150518761Y-87447523D01*
X150566380Y-87542761D01*
X150566380Y-87828476D01*
X150518761Y-87923714D01*
X150471142Y-87971333D01*
%TO.C,R2*%
X149296380Y-88304666D02*
X148820190Y-88638000D01*
X149296380Y-88876095D02*
X148296380Y-88876095D01*
X148296380Y-88495142D01*
X148344000Y-88399904D01*
X148391619Y-88352285D01*
X148486857Y-88304666D01*
X148629714Y-88304666D01*
X148724952Y-88352285D01*
X148772571Y-88399904D01*
X148820190Y-88495142D01*
X148820190Y-88876095D01*
X148391619Y-87923714D02*
X148344000Y-87876095D01*
X148296380Y-87780857D01*
X148296380Y-87542761D01*
X148344000Y-87447523D01*
X148391619Y-87399904D01*
X148486857Y-87352285D01*
X148582095Y-87352285D01*
X148724952Y-87399904D01*
X149296380Y-87971333D01*
X149296380Y-87352285D01*
%TO.C,R1*%
X148026380Y-88304666D02*
X147550190Y-88638000D01*
X148026380Y-88876095D02*
X147026380Y-88876095D01*
X147026380Y-88495142D01*
X147074000Y-88399904D01*
X147121619Y-88352285D01*
X147216857Y-88304666D01*
X147359714Y-88304666D01*
X147454952Y-88352285D01*
X147502571Y-88399904D01*
X147550190Y-88495142D01*
X147550190Y-88876095D01*
X148026380Y-87352285D02*
X148026380Y-87923714D01*
X148026380Y-87638000D02*
X147026380Y-87638000D01*
X147169238Y-87733238D01*
X147264476Y-87828476D01*
X147312095Y-87923714D01*
%TO.C,J9*%
X138096666Y-73576380D02*
X138096666Y-74290666D01*
X138049047Y-74433523D01*
X137953809Y-74528761D01*
X137810952Y-74576380D01*
X137715714Y-74576380D01*
X138620476Y-74576380D02*
X138810952Y-74576380D01*
X138906190Y-74528761D01*
X138953809Y-74481142D01*
X139049047Y-74338285D01*
X139096666Y-74147809D01*
X139096666Y-73766857D01*
X139049047Y-73671619D01*
X139001428Y-73624000D01*
X138906190Y-73576380D01*
X138715714Y-73576380D01*
X138620476Y-73624000D01*
X138572857Y-73671619D01*
X138525238Y-73766857D01*
X138525238Y-74004952D01*
X138572857Y-74100190D01*
X138620476Y-74147809D01*
X138715714Y-74195428D01*
X138906190Y-74195428D01*
X139001428Y-74147809D01*
X139049047Y-74100190D01*
X139096666Y-74004952D01*
%TO.C,J2*%
X120824666Y-40346380D02*
X120824666Y-41060666D01*
X120777047Y-41203523D01*
X120681809Y-41298761D01*
X120538952Y-41346380D01*
X120443714Y-41346380D01*
X121253238Y-40441619D02*
X121300857Y-40394000D01*
X121396095Y-40346380D01*
X121634190Y-40346380D01*
X121729428Y-40394000D01*
X121777047Y-40441619D01*
X121824666Y-40536857D01*
X121824666Y-40632095D01*
X121777047Y-40774952D01*
X121205619Y-41346380D01*
X121824666Y-41346380D01*
%TO.C,J1*%
X149018666Y-60412380D02*
X149018666Y-61126666D01*
X148971047Y-61269523D01*
X148875809Y-61364761D01*
X148732952Y-61412380D01*
X148637714Y-61412380D01*
X150018666Y-61412380D02*
X149447238Y-61412380D01*
X149732952Y-61412380D02*
X149732952Y-60412380D01*
X149637714Y-60555238D01*
X149542476Y-60650476D01*
X149447238Y-60698095D01*
%TO.C,H4*%
X103124095Y-97852380D02*
X103124095Y-96852380D01*
X103124095Y-97328571D02*
X103695523Y-97328571D01*
X103695523Y-97852380D02*
X103695523Y-96852380D01*
X104600285Y-97185714D02*
X104600285Y-97852380D01*
X104362190Y-96804761D02*
X104124095Y-97519047D01*
X104743142Y-97519047D01*
%TO.C,H1*%
X189013095Y-97852380D02*
X189013095Y-96852380D01*
X189013095Y-97328571D02*
X189584523Y-97328571D01*
X189584523Y-97852380D02*
X189584523Y-96852380D01*
X190584523Y-97852380D02*
X190013095Y-97852380D01*
X190298809Y-97852380D02*
X190298809Y-96852380D01*
X190203571Y-96995238D01*
X190108333Y-97090476D01*
X190013095Y-97138095D01*
%TO.C,D5*%
X152852380Y-99036095D02*
X151852380Y-99036095D01*
X151852380Y-98798000D01*
X151900000Y-98655142D01*
X151995238Y-98559904D01*
X152090476Y-98512285D01*
X152280952Y-98464666D01*
X152423809Y-98464666D01*
X152614285Y-98512285D01*
X152709523Y-98559904D01*
X152804761Y-98655142D01*
X152852380Y-98798000D01*
X152852380Y-99036095D01*
X151852380Y-97559904D02*
X151852380Y-98036095D01*
X152328571Y-98083714D01*
X152280952Y-98036095D01*
X152233333Y-97940857D01*
X152233333Y-97702761D01*
X152280952Y-97607523D01*
X152328571Y-97559904D01*
X152423809Y-97512285D01*
X152661904Y-97512285D01*
X152757142Y-97559904D01*
X152804761Y-97607523D01*
X152852380Y-97702761D01*
X152852380Y-97940857D01*
X152804761Y-98036095D01*
X152757142Y-98083714D01*
%TO.C,D4*%
X151582380Y-99036095D02*
X150582380Y-99036095D01*
X150582380Y-98798000D01*
X150630000Y-98655142D01*
X150725238Y-98559904D01*
X150820476Y-98512285D01*
X151010952Y-98464666D01*
X151153809Y-98464666D01*
X151344285Y-98512285D01*
X151439523Y-98559904D01*
X151534761Y-98655142D01*
X151582380Y-98798000D01*
X151582380Y-99036095D01*
X150915714Y-97607523D02*
X151582380Y-97607523D01*
X150534761Y-97845619D02*
X151249047Y-98083714D01*
X151249047Y-97464666D01*
%TO.C,D3*%
X150312380Y-99036095D02*
X149312380Y-99036095D01*
X149312380Y-98798000D01*
X149360000Y-98655142D01*
X149455238Y-98559904D01*
X149550476Y-98512285D01*
X149740952Y-98464666D01*
X149883809Y-98464666D01*
X150074285Y-98512285D01*
X150169523Y-98559904D01*
X150264761Y-98655142D01*
X150312380Y-98798000D01*
X150312380Y-99036095D01*
X149312380Y-98131333D02*
X149312380Y-97512285D01*
X149693333Y-97845619D01*
X149693333Y-97702761D01*
X149740952Y-97607523D01*
X149788571Y-97559904D01*
X149883809Y-97512285D01*
X150121904Y-97512285D01*
X150217142Y-97559904D01*
X150264761Y-97607523D01*
X150312380Y-97702761D01*
X150312380Y-97988476D01*
X150264761Y-98083714D01*
X150217142Y-98131333D01*
%TO.C,D2*%
X149042380Y-99036095D02*
X148042380Y-99036095D01*
X148042380Y-98798000D01*
X148090000Y-98655142D01*
X148185238Y-98559904D01*
X148280476Y-98512285D01*
X148470952Y-98464666D01*
X148613809Y-98464666D01*
X148804285Y-98512285D01*
X148899523Y-98559904D01*
X148994761Y-98655142D01*
X149042380Y-98798000D01*
X149042380Y-99036095D01*
X148137619Y-98083714D02*
X148090000Y-98036095D01*
X148042380Y-97940857D01*
X148042380Y-97702761D01*
X148090000Y-97607523D01*
X148137619Y-97559904D01*
X148232857Y-97512285D01*
X148328095Y-97512285D01*
X148470952Y-97559904D01*
X149042380Y-98131333D01*
X149042380Y-97512285D01*
%TO.C,D1*%
X147772380Y-99036095D02*
X146772380Y-99036095D01*
X146772380Y-98798000D01*
X146820000Y-98655142D01*
X146915238Y-98559904D01*
X147010476Y-98512285D01*
X147200952Y-98464666D01*
X147343809Y-98464666D01*
X147534285Y-98512285D01*
X147629523Y-98559904D01*
X147724761Y-98655142D01*
X147772380Y-98798000D01*
X147772380Y-99036095D01*
X147772380Y-97512285D02*
X147772380Y-98083714D01*
X147772380Y-97798000D02*
X146772380Y-97798000D01*
X146915238Y-97893238D01*
X147010476Y-97988476D01*
X147058095Y-98083714D01*
%TO.C,C32*%
X149725142Y-81129142D02*
X149677523Y-81176761D01*
X149534666Y-81224380D01*
X149439428Y-81224380D01*
X149296571Y-81176761D01*
X149201333Y-81081523D01*
X149153714Y-80986285D01*
X149106095Y-80795809D01*
X149106095Y-80652952D01*
X149153714Y-80462476D01*
X149201333Y-80367238D01*
X149296571Y-80272000D01*
X149439428Y-80224380D01*
X149534666Y-80224380D01*
X149677523Y-80272000D01*
X149725142Y-80319619D01*
X150058476Y-80224380D02*
X150677523Y-80224380D01*
X150344190Y-80605333D01*
X150487047Y-80605333D01*
X150582285Y-80652952D01*
X150629904Y-80700571D01*
X150677523Y-80795809D01*
X150677523Y-81033904D01*
X150629904Y-81129142D01*
X150582285Y-81176761D01*
X150487047Y-81224380D01*
X150201333Y-81224380D01*
X150106095Y-81176761D01*
X150058476Y-81129142D01*
X151058476Y-80319619D02*
X151106095Y-80272000D01*
X151201333Y-80224380D01*
X151439428Y-80224380D01*
X151534666Y-80272000D01*
X151582285Y-80319619D01*
X151629904Y-80414857D01*
X151629904Y-80510095D01*
X151582285Y-80652952D01*
X151010857Y-81224380D01*
X151629904Y-81224380D01*
%TO.C,C27*%
X149725142Y-79605142D02*
X149677523Y-79652761D01*
X149534666Y-79700380D01*
X149439428Y-79700380D01*
X149296571Y-79652761D01*
X149201333Y-79557523D01*
X149153714Y-79462285D01*
X149106095Y-79271809D01*
X149106095Y-79128952D01*
X149153714Y-78938476D01*
X149201333Y-78843238D01*
X149296571Y-78748000D01*
X149439428Y-78700380D01*
X149534666Y-78700380D01*
X149677523Y-78748000D01*
X149725142Y-78795619D01*
X150106095Y-78795619D02*
X150153714Y-78748000D01*
X150248952Y-78700380D01*
X150487047Y-78700380D01*
X150582285Y-78748000D01*
X150629904Y-78795619D01*
X150677523Y-78890857D01*
X150677523Y-78986095D01*
X150629904Y-79128952D01*
X150058476Y-79700380D01*
X150677523Y-79700380D01*
X151010857Y-78700380D02*
X151677523Y-78700380D01*
X151248952Y-79700380D01*
%TO.C,C26*%
X146677142Y-77573142D02*
X146629523Y-77620761D01*
X146486666Y-77668380D01*
X146391428Y-77668380D01*
X146248571Y-77620761D01*
X146153333Y-77525523D01*
X146105714Y-77430285D01*
X146058095Y-77239809D01*
X146058095Y-77096952D01*
X146105714Y-76906476D01*
X146153333Y-76811238D01*
X146248571Y-76716000D01*
X146391428Y-76668380D01*
X146486666Y-76668380D01*
X146629523Y-76716000D01*
X146677142Y-76763619D01*
X147058095Y-76763619D02*
X147105714Y-76716000D01*
X147200952Y-76668380D01*
X147439047Y-76668380D01*
X147534285Y-76716000D01*
X147581904Y-76763619D01*
X147629523Y-76858857D01*
X147629523Y-76954095D01*
X147581904Y-77096952D01*
X147010476Y-77668380D01*
X147629523Y-77668380D01*
X148486666Y-76668380D02*
X148296190Y-76668380D01*
X148200952Y-76716000D01*
X148153333Y-76763619D01*
X148058095Y-76906476D01*
X148010476Y-77096952D01*
X148010476Y-77477904D01*
X148058095Y-77573142D01*
X148105714Y-77620761D01*
X148200952Y-77668380D01*
X148391428Y-77668380D01*
X148486666Y-77620761D01*
X148534285Y-77573142D01*
X148581904Y-77477904D01*
X148581904Y-77239809D01*
X148534285Y-77144571D01*
X148486666Y-77096952D01*
X148391428Y-77049333D01*
X148200952Y-77049333D01*
X148105714Y-77096952D01*
X148058095Y-77144571D01*
X148010476Y-77239809D01*
%TO.C,C25*%
X137009142Y-63380857D02*
X137056761Y-63428476D01*
X137104380Y-63571333D01*
X137104380Y-63666571D01*
X137056761Y-63809428D01*
X136961523Y-63904666D01*
X136866285Y-63952285D01*
X136675809Y-63999904D01*
X136532952Y-63999904D01*
X136342476Y-63952285D01*
X136247238Y-63904666D01*
X136152000Y-63809428D01*
X136104380Y-63666571D01*
X136104380Y-63571333D01*
X136152000Y-63428476D01*
X136199619Y-63380857D01*
X136199619Y-62999904D02*
X136152000Y-62952285D01*
X136104380Y-62857047D01*
X136104380Y-62618952D01*
X136152000Y-62523714D01*
X136199619Y-62476095D01*
X136294857Y-62428476D01*
X136390095Y-62428476D01*
X136532952Y-62476095D01*
X137104380Y-63047523D01*
X137104380Y-62428476D01*
X136104380Y-61523714D02*
X136104380Y-61999904D01*
X136580571Y-62047523D01*
X136532952Y-61999904D01*
X136485333Y-61904666D01*
X136485333Y-61666571D01*
X136532952Y-61571333D01*
X136580571Y-61523714D01*
X136675809Y-61476095D01*
X136913904Y-61476095D01*
X137009142Y-61523714D01*
X137056761Y-61571333D01*
X137104380Y-61666571D01*
X137104380Y-61904666D01*
X137056761Y-61999904D01*
X137009142Y-62047523D01*
%TO.C,C24*%
X138279142Y-62364857D02*
X138326761Y-62412476D01*
X138374380Y-62555333D01*
X138374380Y-62650571D01*
X138326761Y-62793428D01*
X138231523Y-62888666D01*
X138136285Y-62936285D01*
X137945809Y-62983904D01*
X137802952Y-62983904D01*
X137612476Y-62936285D01*
X137517238Y-62888666D01*
X137422000Y-62793428D01*
X137374380Y-62650571D01*
X137374380Y-62555333D01*
X137422000Y-62412476D01*
X137469619Y-62364857D01*
X137469619Y-61983904D02*
X137422000Y-61936285D01*
X137374380Y-61841047D01*
X137374380Y-61602952D01*
X137422000Y-61507714D01*
X137469619Y-61460095D01*
X137564857Y-61412476D01*
X137660095Y-61412476D01*
X137802952Y-61460095D01*
X138374380Y-62031523D01*
X138374380Y-61412476D01*
X137707714Y-60555333D02*
X138374380Y-60555333D01*
X137326761Y-60793428D02*
X138041047Y-61031523D01*
X138041047Y-60412476D01*
%TO.C,C7*%
X132215142Y-58078666D02*
X132262761Y-58126285D01*
X132310380Y-58269142D01*
X132310380Y-58364380D01*
X132262761Y-58507238D01*
X132167523Y-58602476D01*
X132072285Y-58650095D01*
X131881809Y-58697714D01*
X131738952Y-58697714D01*
X131548476Y-58650095D01*
X131453238Y-58602476D01*
X131358000Y-58507238D01*
X131310380Y-58364380D01*
X131310380Y-58269142D01*
X131358000Y-58126285D01*
X131405619Y-58078666D01*
X131310380Y-57745333D02*
X131310380Y-57078666D01*
X132310380Y-57507238D01*
%TO.C,C6*%
X124801333Y-101195142D02*
X124753714Y-101242761D01*
X124610857Y-101290380D01*
X124515619Y-101290380D01*
X124372761Y-101242761D01*
X124277523Y-101147523D01*
X124229904Y-101052285D01*
X124182285Y-100861809D01*
X124182285Y-100718952D01*
X124229904Y-100528476D01*
X124277523Y-100433238D01*
X124372761Y-100338000D01*
X124515619Y-100290380D01*
X124610857Y-100290380D01*
X124753714Y-100338000D01*
X124801333Y-100385619D01*
X125658476Y-100290380D02*
X125468000Y-100290380D01*
X125372761Y-100338000D01*
X125325142Y-100385619D01*
X125229904Y-100528476D01*
X125182285Y-100718952D01*
X125182285Y-101099904D01*
X125229904Y-101195142D01*
X125277523Y-101242761D01*
X125372761Y-101290380D01*
X125563238Y-101290380D01*
X125658476Y-101242761D01*
X125706095Y-101195142D01*
X125753714Y-101099904D01*
X125753714Y-100861809D01*
X125706095Y-100766571D01*
X125658476Y-100718952D01*
X125563238Y-100671333D01*
X125372761Y-100671333D01*
X125277523Y-100718952D01*
X125229904Y-100766571D01*
X125182285Y-100861809D01*
%TO.C,C5*%
X134961333Y-101195142D02*
X134913714Y-101242761D01*
X134770857Y-101290380D01*
X134675619Y-101290380D01*
X134532761Y-101242761D01*
X134437523Y-101147523D01*
X134389904Y-101052285D01*
X134342285Y-100861809D01*
X134342285Y-100718952D01*
X134389904Y-100528476D01*
X134437523Y-100433238D01*
X134532761Y-100338000D01*
X134675619Y-100290380D01*
X134770857Y-100290380D01*
X134913714Y-100338000D01*
X134961333Y-100385619D01*
X135866095Y-100290380D02*
X135389904Y-100290380D01*
X135342285Y-100766571D01*
X135389904Y-100718952D01*
X135485142Y-100671333D01*
X135723238Y-100671333D01*
X135818476Y-100718952D01*
X135866095Y-100766571D01*
X135913714Y-100861809D01*
X135913714Y-101099904D01*
X135866095Y-101195142D01*
X135818476Y-101242761D01*
X135723238Y-101290380D01*
X135485142Y-101290380D01*
X135389904Y-101242761D01*
X135342285Y-101195142D01*
%TO.C,C4*%
X124547333Y-86717142D02*
X124499714Y-86764761D01*
X124356857Y-86812380D01*
X124261619Y-86812380D01*
X124118761Y-86764761D01*
X124023523Y-86669523D01*
X123975904Y-86574285D01*
X123928285Y-86383809D01*
X123928285Y-86240952D01*
X123975904Y-86050476D01*
X124023523Y-85955238D01*
X124118761Y-85860000D01*
X124261619Y-85812380D01*
X124356857Y-85812380D01*
X124499714Y-85860000D01*
X124547333Y-85907619D01*
X125404476Y-86145714D02*
X125404476Y-86812380D01*
X125166380Y-85764761D02*
X124928285Y-86479047D01*
X125547333Y-86479047D01*
%TO.C,C3*%
X135215333Y-86717142D02*
X135167714Y-86764761D01*
X135024857Y-86812380D01*
X134929619Y-86812380D01*
X134786761Y-86764761D01*
X134691523Y-86669523D01*
X134643904Y-86574285D01*
X134596285Y-86383809D01*
X134596285Y-86240952D01*
X134643904Y-86050476D01*
X134691523Y-85955238D01*
X134786761Y-85860000D01*
X134929619Y-85812380D01*
X135024857Y-85812380D01*
X135167714Y-85860000D01*
X135215333Y-85907619D01*
X135548666Y-85812380D02*
X136167714Y-85812380D01*
X135834380Y-86193333D01*
X135977238Y-86193333D01*
X136072476Y-86240952D01*
X136120095Y-86288571D01*
X136167714Y-86383809D01*
X136167714Y-86621904D01*
X136120095Y-86717142D01*
X136072476Y-86764761D01*
X135977238Y-86812380D01*
X135691523Y-86812380D01*
X135596285Y-86764761D01*
X135548666Y-86717142D01*
%TO.C,U5*%
X106172095Y-113244380D02*
X106172095Y-114053904D01*
X106219714Y-114149142D01*
X106267333Y-114196761D01*
X106362571Y-114244380D01*
X106553047Y-114244380D01*
X106648285Y-114196761D01*
X106695904Y-114149142D01*
X106743523Y-114053904D01*
X106743523Y-113244380D01*
X107695904Y-113244380D02*
X107219714Y-113244380D01*
X107172095Y-113720571D01*
X107219714Y-113672952D01*
X107314952Y-113625333D01*
X107553047Y-113625333D01*
X107648285Y-113672952D01*
X107695904Y-113720571D01*
X107743523Y-113815809D01*
X107743523Y-114053904D01*
X107695904Y-114149142D01*
X107648285Y-114196761D01*
X107553047Y-114244380D01*
X107314952Y-114244380D01*
X107219714Y-114196761D01*
X107172095Y-114149142D01*
X102712190Y-111720380D02*
X103045523Y-112720380D01*
X103378857Y-111720380D01*
X104188380Y-112720380D02*
X103712190Y-112720380D01*
X103712190Y-111720380D01*
X104997904Y-111720380D02*
X104521714Y-111720380D01*
X104474095Y-112196571D01*
X104521714Y-112148952D01*
X104616952Y-112101333D01*
X104855047Y-112101333D01*
X104950285Y-112148952D01*
X104997904Y-112196571D01*
X105045523Y-112291809D01*
X105045523Y-112529904D01*
X104997904Y-112625142D01*
X104950285Y-112672761D01*
X104855047Y-112720380D01*
X104616952Y-112720380D01*
X104521714Y-112672761D01*
X104474095Y-112625142D01*
X105378857Y-111720380D02*
X105997904Y-111720380D01*
X105664571Y-112101333D01*
X105807428Y-112101333D01*
X105902666Y-112148952D01*
X105950285Y-112196571D01*
X105997904Y-112291809D01*
X105997904Y-112529904D01*
X105950285Y-112625142D01*
X105902666Y-112672761D01*
X105807428Y-112720380D01*
X105521714Y-112720380D01*
X105426476Y-112672761D01*
X105378857Y-112625142D01*
X106902666Y-112720380D02*
X106426476Y-112720380D01*
X106426476Y-111720380D01*
X107140761Y-111720380D02*
X107759809Y-111720380D01*
X107426476Y-112101333D01*
X107569333Y-112101333D01*
X107664571Y-112148952D01*
X107712190Y-112196571D01*
X107759809Y-112291809D01*
X107759809Y-112529904D01*
X107712190Y-112625142D01*
X107664571Y-112672761D01*
X107569333Y-112720380D01*
X107283619Y-112720380D01*
X107188380Y-112672761D01*
X107140761Y-112625142D01*
X108759809Y-112625142D02*
X108712190Y-112672761D01*
X108569333Y-112720380D01*
X108474095Y-112720380D01*
X108331238Y-112672761D01*
X108235999Y-112577523D01*
X108188380Y-112482285D01*
X108140761Y-112291809D01*
X108140761Y-112148952D01*
X108188380Y-111958476D01*
X108235999Y-111863238D01*
X108331238Y-111768000D01*
X108474095Y-111720380D01*
X108569333Y-111720380D01*
X108712190Y-111768000D01*
X108759809Y-111815619D01*
X109093142Y-111720380D02*
X109759809Y-112720380D01*
X109759809Y-111720380D02*
X109093142Y-112720380D01*
X109997904Y-111720380D02*
X110331238Y-112720380D01*
X110664571Y-111720380D01*
X111188380Y-111720380D02*
X111283619Y-111720380D01*
X111378857Y-111768000D01*
X111426476Y-111815619D01*
X111474095Y-111910857D01*
X111521714Y-112101333D01*
X111521714Y-112339428D01*
X111474095Y-112529904D01*
X111426476Y-112625142D01*
X111378857Y-112672761D01*
X111283619Y-112720380D01*
X111188380Y-112720380D01*
X111093142Y-112672761D01*
X111045523Y-112625142D01*
X110997904Y-112529904D01*
X110950285Y-112339428D01*
X110950285Y-112101333D01*
X110997904Y-111910857D01*
X111045523Y-111815619D01*
X111093142Y-111768000D01*
X111188380Y-111720380D01*
X111950285Y-112720380D02*
X111950285Y-111720380D01*
X112188380Y-111720380D01*
X112331238Y-111768000D01*
X112426476Y-111863238D01*
X112474095Y-111958476D01*
X112521714Y-112148952D01*
X112521714Y-112291809D01*
X112474095Y-112482285D01*
X112426476Y-112577523D01*
X112331238Y-112672761D01*
X112188380Y-112720380D01*
X111950285Y-112720380D01*
X112950285Y-112720380D02*
X112950285Y-111720380D01*
X112950285Y-112196571D02*
X113521714Y-112196571D01*
X113521714Y-112720380D02*
X113521714Y-111720380D01*
X113759809Y-112815619D02*
X114521714Y-112815619D01*
X115235999Y-112720380D02*
X114759809Y-112720380D01*
X114759809Y-111720380D01*
X115569333Y-112196571D02*
X115902666Y-112196571D01*
X116045523Y-112720380D02*
X115569333Y-112720380D01*
X115569333Y-111720380D01*
X116045523Y-111720380D01*
X116807428Y-112196571D02*
X116474095Y-112196571D01*
X116474095Y-112720380D02*
X116474095Y-111720380D01*
X116950285Y-111720380D01*
X117188380Y-111720380D02*
X117759809Y-111720380D01*
X117474095Y-112720380D02*
X117474095Y-111720380D01*
X109288380Y-118059200D02*
X109526476Y-118059200D01*
X109431238Y-118297295D02*
X109526476Y-118059200D01*
X109431238Y-117821104D01*
X109716952Y-118202057D02*
X109526476Y-118059200D01*
X109716952Y-117916342D01*
X109288380Y-118059200D02*
X109526476Y-118059200D01*
X109431238Y-118297295D02*
X109526476Y-118059200D01*
X109431238Y-117821104D01*
X109716952Y-118202057D02*
X109526476Y-118059200D01*
X109716952Y-117916342D01*
%TO.C,U4*%
X187198095Y-109942380D02*
X187198095Y-110751904D01*
X187245714Y-110847142D01*
X187293333Y-110894761D01*
X187388571Y-110942380D01*
X187579047Y-110942380D01*
X187674285Y-110894761D01*
X187721904Y-110847142D01*
X187769523Y-110751904D01*
X187769523Y-109942380D01*
X188674285Y-110275714D02*
X188674285Y-110942380D01*
X188436190Y-109894761D02*
X188198095Y-110609047D01*
X188817142Y-110609047D01*
X174626000Y-111466380D02*
X174959333Y-112466380D01*
X175292666Y-111466380D01*
X176102190Y-112466380D02*
X175626000Y-112466380D01*
X175626000Y-111466380D01*
X176911714Y-111466380D02*
X176435523Y-111466380D01*
X176387904Y-111942571D01*
X176435523Y-111894952D01*
X176530761Y-111847333D01*
X176768857Y-111847333D01*
X176864095Y-111894952D01*
X176911714Y-111942571D01*
X176959333Y-112037809D01*
X176959333Y-112275904D01*
X176911714Y-112371142D01*
X176864095Y-112418761D01*
X176768857Y-112466380D01*
X176530761Y-112466380D01*
X176435523Y-112418761D01*
X176387904Y-112371142D01*
X177292666Y-111466380D02*
X177911714Y-111466380D01*
X177578380Y-111847333D01*
X177721238Y-111847333D01*
X177816476Y-111894952D01*
X177864095Y-111942571D01*
X177911714Y-112037809D01*
X177911714Y-112275904D01*
X177864095Y-112371142D01*
X177816476Y-112418761D01*
X177721238Y-112466380D01*
X177435523Y-112466380D01*
X177340285Y-112418761D01*
X177292666Y-112371142D01*
X178816476Y-112466380D02*
X178340285Y-112466380D01*
X178340285Y-111466380D01*
X179054571Y-111466380D02*
X179673619Y-111466380D01*
X179340285Y-111847333D01*
X179483142Y-111847333D01*
X179578380Y-111894952D01*
X179626000Y-111942571D01*
X179673619Y-112037809D01*
X179673619Y-112275904D01*
X179626000Y-112371142D01*
X179578380Y-112418761D01*
X179483142Y-112466380D01*
X179197428Y-112466380D01*
X179102190Y-112418761D01*
X179054571Y-112371142D01*
X180673619Y-112371142D02*
X180626000Y-112418761D01*
X180483142Y-112466380D01*
X180387904Y-112466380D01*
X180245047Y-112418761D01*
X180149809Y-112323523D01*
X180102190Y-112228285D01*
X180054571Y-112037809D01*
X180054571Y-111894952D01*
X180102190Y-111704476D01*
X180149809Y-111609238D01*
X180245047Y-111514000D01*
X180387904Y-111466380D01*
X180483142Y-111466380D01*
X180626000Y-111514000D01*
X180673619Y-111561619D01*
X181006952Y-111466380D02*
X181673619Y-112466380D01*
X181673619Y-111466380D02*
X181006952Y-112466380D01*
X181911714Y-111466380D02*
X182245047Y-112466380D01*
X182578380Y-111466380D01*
X183102190Y-111466380D02*
X183197428Y-111466380D01*
X183292666Y-111514000D01*
X183340285Y-111561619D01*
X183387904Y-111656857D01*
X183435523Y-111847333D01*
X183435523Y-112085428D01*
X183387904Y-112275904D01*
X183340285Y-112371142D01*
X183292666Y-112418761D01*
X183197428Y-112466380D01*
X183102190Y-112466380D01*
X183006952Y-112418761D01*
X182959333Y-112371142D01*
X182911714Y-112275904D01*
X182864095Y-112085428D01*
X182864095Y-111847333D01*
X182911714Y-111656857D01*
X182959333Y-111561619D01*
X183006952Y-111514000D01*
X183102190Y-111466380D01*
X183864095Y-112466380D02*
X183864095Y-111466380D01*
X184102190Y-111466380D01*
X184245047Y-111514000D01*
X184340285Y-111609238D01*
X184387904Y-111704476D01*
X184435523Y-111894952D01*
X184435523Y-112037809D01*
X184387904Y-112228285D01*
X184340285Y-112323523D01*
X184245047Y-112418761D01*
X184102190Y-112466380D01*
X183864095Y-112466380D01*
X184864095Y-112466380D02*
X184864095Y-111466380D01*
X184864095Y-111942571D02*
X185435523Y-111942571D01*
X185435523Y-112466380D02*
X185435523Y-111466380D01*
X185673619Y-112561619D02*
X186435523Y-112561619D01*
X187245047Y-112466380D02*
X186911714Y-111990190D01*
X186673619Y-112466380D02*
X186673619Y-111466380D01*
X187054571Y-111466380D01*
X187149809Y-111514000D01*
X187197428Y-111561619D01*
X187245047Y-111656857D01*
X187245047Y-111799714D01*
X187197428Y-111894952D01*
X187149809Y-111942571D01*
X187054571Y-111990190D01*
X186673619Y-111990190D01*
X187673619Y-112466380D02*
X187673619Y-111466380D01*
X188673619Y-111514000D02*
X188578380Y-111466380D01*
X188435523Y-111466380D01*
X188292666Y-111514000D01*
X188197428Y-111609238D01*
X188149809Y-111704476D01*
X188102190Y-111894952D01*
X188102190Y-112037809D01*
X188149809Y-112228285D01*
X188197428Y-112323523D01*
X188292666Y-112418761D01*
X188435523Y-112466380D01*
X188530761Y-112466380D01*
X188673619Y-112418761D01*
X188721238Y-112371142D01*
X188721238Y-112037809D01*
X188530761Y-112037809D01*
X189149809Y-112466380D02*
X189149809Y-111466380D01*
X189149809Y-111942571D02*
X189721238Y-111942571D01*
X189721238Y-112466380D02*
X189721238Y-111466380D01*
X190054571Y-111466380D02*
X190626000Y-111466380D01*
X190340285Y-112466380D02*
X190340285Y-111466380D01*
X181678380Y-118059200D02*
X181916476Y-118059200D01*
X181821238Y-118297295D02*
X181916476Y-118059200D01*
X181821238Y-117821104D01*
X182106952Y-118202057D02*
X181916476Y-118059200D01*
X182106952Y-117916342D01*
X181678380Y-118059200D02*
X181916476Y-118059200D01*
X181821238Y-118297295D02*
X181916476Y-118059200D01*
X181821238Y-117821104D01*
X182106952Y-118202057D02*
X181916476Y-118059200D01*
X182106952Y-117916342D01*
%TO.C,U3*%
X142494095Y-113244380D02*
X142494095Y-114053904D01*
X142541714Y-114149142D01*
X142589333Y-114196761D01*
X142684571Y-114244380D01*
X142875047Y-114244380D01*
X142970285Y-114196761D01*
X143017904Y-114149142D01*
X143065523Y-114053904D01*
X143065523Y-113244380D01*
X143446476Y-113244380D02*
X144065523Y-113244380D01*
X143732190Y-113625333D01*
X143875047Y-113625333D01*
X143970285Y-113672952D01*
X144017904Y-113720571D01*
X144065523Y-113815809D01*
X144065523Y-114053904D01*
X144017904Y-114149142D01*
X143970285Y-114196761D01*
X143875047Y-114244380D01*
X143589333Y-114244380D01*
X143494095Y-114196761D01*
X143446476Y-114149142D01*
X138399333Y-111720380D02*
X138732666Y-112720380D01*
X139066000Y-111720380D01*
X139875523Y-112720380D02*
X139399333Y-112720380D01*
X139399333Y-111720380D01*
X140685047Y-111720380D02*
X140208857Y-111720380D01*
X140161238Y-112196571D01*
X140208857Y-112148952D01*
X140304095Y-112101333D01*
X140542190Y-112101333D01*
X140637428Y-112148952D01*
X140685047Y-112196571D01*
X140732666Y-112291809D01*
X140732666Y-112529904D01*
X140685047Y-112625142D01*
X140637428Y-112672761D01*
X140542190Y-112720380D01*
X140304095Y-112720380D01*
X140208857Y-112672761D01*
X140161238Y-112625142D01*
X141066000Y-111720380D02*
X141685047Y-111720380D01*
X141351714Y-112101333D01*
X141494571Y-112101333D01*
X141589809Y-112148952D01*
X141637428Y-112196571D01*
X141685047Y-112291809D01*
X141685047Y-112529904D01*
X141637428Y-112625142D01*
X141589809Y-112672761D01*
X141494571Y-112720380D01*
X141208857Y-112720380D01*
X141113619Y-112672761D01*
X141066000Y-112625142D01*
X142589809Y-112720380D02*
X142113619Y-112720380D01*
X142113619Y-111720380D01*
X142827904Y-111720380D02*
X143446952Y-111720380D01*
X143113619Y-112101333D01*
X143256476Y-112101333D01*
X143351714Y-112148952D01*
X143399333Y-112196571D01*
X143446952Y-112291809D01*
X143446952Y-112529904D01*
X143399333Y-112625142D01*
X143351714Y-112672761D01*
X143256476Y-112720380D01*
X142970761Y-112720380D01*
X142875523Y-112672761D01*
X142827904Y-112625142D01*
X144446952Y-112625142D02*
X144399333Y-112672761D01*
X144256476Y-112720380D01*
X144161238Y-112720380D01*
X144018380Y-112672761D01*
X143923142Y-112577523D01*
X143875523Y-112482285D01*
X143827904Y-112291809D01*
X143827904Y-112148952D01*
X143875523Y-111958476D01*
X143923142Y-111863238D01*
X144018380Y-111768000D01*
X144161238Y-111720380D01*
X144256476Y-111720380D01*
X144399333Y-111768000D01*
X144446952Y-111815619D01*
X144780285Y-111720380D02*
X145446952Y-112720380D01*
X145446952Y-111720380D02*
X144780285Y-112720380D01*
X145685047Y-111720380D02*
X146018380Y-112720380D01*
X146351714Y-111720380D01*
X146875523Y-111720380D02*
X146970761Y-111720380D01*
X147066000Y-111768000D01*
X147113619Y-111815619D01*
X147161238Y-111910857D01*
X147208857Y-112101333D01*
X147208857Y-112339428D01*
X147161238Y-112529904D01*
X147113619Y-112625142D01*
X147066000Y-112672761D01*
X146970761Y-112720380D01*
X146875523Y-112720380D01*
X146780285Y-112672761D01*
X146732666Y-112625142D01*
X146685047Y-112529904D01*
X146637428Y-112339428D01*
X146637428Y-112101333D01*
X146685047Y-111910857D01*
X146732666Y-111815619D01*
X146780285Y-111768000D01*
X146875523Y-111720380D01*
X147637428Y-112720380D02*
X147637428Y-111720380D01*
X147875523Y-111720380D01*
X148018380Y-111768000D01*
X148113619Y-111863238D01*
X148161238Y-111958476D01*
X148208857Y-112148952D01*
X148208857Y-112291809D01*
X148161238Y-112482285D01*
X148113619Y-112577523D01*
X148018380Y-112672761D01*
X147875523Y-112720380D01*
X147637428Y-112720380D01*
X148637428Y-112720380D02*
X148637428Y-111720380D01*
X148637428Y-112196571D02*
X149208857Y-112196571D01*
X149208857Y-112720380D02*
X149208857Y-111720380D01*
X149446952Y-112815619D02*
X150208857Y-112815619D01*
X151018380Y-112625142D02*
X150970761Y-112672761D01*
X150827904Y-112720380D01*
X150732666Y-112720380D01*
X150589809Y-112672761D01*
X150494571Y-112577523D01*
X150446952Y-112482285D01*
X150399333Y-112291809D01*
X150399333Y-112148952D01*
X150446952Y-111958476D01*
X150494571Y-111863238D01*
X150589809Y-111768000D01*
X150732666Y-111720380D01*
X150827904Y-111720380D01*
X150970761Y-111768000D01*
X151018380Y-111815619D01*
X151446952Y-112196571D02*
X151780285Y-112196571D01*
X151923142Y-112720380D02*
X151446952Y-112720380D01*
X151446952Y-111720380D01*
X151923142Y-111720380D01*
X152351714Y-112720380D02*
X152351714Y-111720380D01*
X152923142Y-112720380D01*
X152923142Y-111720380D01*
X153256476Y-111720380D02*
X153827904Y-111720380D01*
X153542190Y-112720380D02*
X153542190Y-111720380D01*
X154161238Y-112196571D02*
X154494571Y-112196571D01*
X154637428Y-112720380D02*
X154161238Y-112720380D01*
X154161238Y-111720380D01*
X154637428Y-111720380D01*
X155637428Y-112720380D02*
X155304095Y-112244190D01*
X155065999Y-112720380D02*
X155065999Y-111720380D01*
X155446952Y-111720380D01*
X155542190Y-111768000D01*
X155589809Y-111815619D01*
X155637428Y-111910857D01*
X155637428Y-112053714D01*
X155589809Y-112148952D01*
X155542190Y-112196571D01*
X155446952Y-112244190D01*
X155065999Y-112244190D01*
X146118380Y-118059200D02*
X146356476Y-118059200D01*
X146261238Y-118297295D02*
X146356476Y-118059200D01*
X146261238Y-117821104D01*
X146546952Y-118202057D02*
X146356476Y-118059200D01*
X146546952Y-117916342D01*
X146118380Y-118059200D02*
X146356476Y-118059200D01*
X146261238Y-118297295D02*
X146356476Y-118059200D01*
X146261238Y-117821104D01*
X146546952Y-118202057D02*
X146356476Y-118059200D01*
X146546952Y-117916342D01*
%TO.C,H3*%
X162814095Y-116902380D02*
X162814095Y-115902380D01*
X162814095Y-116378571D02*
X163385523Y-116378571D01*
X163385523Y-116902380D02*
X163385523Y-115902380D01*
X163766476Y-115902380D02*
X164385523Y-115902380D01*
X164052190Y-116283333D01*
X164195047Y-116283333D01*
X164290285Y-116330952D01*
X164337904Y-116378571D01*
X164385523Y-116473809D01*
X164385523Y-116711904D01*
X164337904Y-116807142D01*
X164290285Y-116854761D01*
X164195047Y-116902380D01*
X163909333Y-116902380D01*
X163814095Y-116854761D01*
X163766476Y-116807142D01*
%TO.C,C13*%
X175871142Y-120784857D02*
X175918761Y-120832476D01*
X175966380Y-120975333D01*
X175966380Y-121070571D01*
X175918761Y-121213428D01*
X175823523Y-121308666D01*
X175728285Y-121356285D01*
X175537809Y-121403904D01*
X175394952Y-121403904D01*
X175204476Y-121356285D01*
X175109238Y-121308666D01*
X175014000Y-121213428D01*
X174966380Y-121070571D01*
X174966380Y-120975333D01*
X175014000Y-120832476D01*
X175061619Y-120784857D01*
X175966380Y-119832476D02*
X175966380Y-120403904D01*
X175966380Y-120118190D02*
X174966380Y-120118190D01*
X175109238Y-120213428D01*
X175204476Y-120308666D01*
X175252095Y-120403904D01*
X174966380Y-119499142D02*
X174966380Y-118880095D01*
X175347333Y-119213428D01*
X175347333Y-119070571D01*
X175394952Y-118975333D01*
X175442571Y-118927714D01*
X175537809Y-118880095D01*
X175775904Y-118880095D01*
X175871142Y-118927714D01*
X175918761Y-118975333D01*
X175966380Y-119070571D01*
X175966380Y-119356285D01*
X175918761Y-119451523D01*
X175871142Y-119499142D01*
%TO.C,C11*%
X177141142Y-120784857D02*
X177188761Y-120832476D01*
X177236380Y-120975333D01*
X177236380Y-121070571D01*
X177188761Y-121213428D01*
X177093523Y-121308666D01*
X176998285Y-121356285D01*
X176807809Y-121403904D01*
X176664952Y-121403904D01*
X176474476Y-121356285D01*
X176379238Y-121308666D01*
X176284000Y-121213428D01*
X176236380Y-121070571D01*
X176236380Y-120975333D01*
X176284000Y-120832476D01*
X176331619Y-120784857D01*
X177236380Y-119832476D02*
X177236380Y-120403904D01*
X177236380Y-120118190D02*
X176236380Y-120118190D01*
X176379238Y-120213428D01*
X176474476Y-120308666D01*
X176522095Y-120403904D01*
X177236380Y-118880095D02*
X177236380Y-119451523D01*
X177236380Y-119165809D02*
X176236380Y-119165809D01*
X176379238Y-119261047D01*
X176474476Y-119356285D01*
X176522095Y-119451523D01*
%TO.C,R15*%
X174109142Y-114498380D02*
X173775809Y-114022190D01*
X173537714Y-114498380D02*
X173537714Y-113498380D01*
X173918666Y-113498380D01*
X174013904Y-113546000D01*
X174061523Y-113593619D01*
X174109142Y-113688857D01*
X174109142Y-113831714D01*
X174061523Y-113926952D01*
X174013904Y-113974571D01*
X173918666Y-114022190D01*
X173537714Y-114022190D01*
X175061523Y-114498380D02*
X174490095Y-114498380D01*
X174775809Y-114498380D02*
X174775809Y-113498380D01*
X174680571Y-113641238D01*
X174585333Y-113736476D01*
X174490095Y-113784095D01*
X175966285Y-113498380D02*
X175490095Y-113498380D01*
X175442476Y-113974571D01*
X175490095Y-113926952D01*
X175585333Y-113879333D01*
X175823428Y-113879333D01*
X175918666Y-113926952D01*
X175966285Y-113974571D01*
X176013904Y-114069809D01*
X176013904Y-114307904D01*
X175966285Y-114403142D01*
X175918666Y-114450761D01*
X175823428Y-114498380D01*
X175585333Y-114498380D01*
X175490095Y-114450761D01*
X175442476Y-114403142D01*
%TO.C,C9*%
X153519142Y-120562666D02*
X153566761Y-120610285D01*
X153614380Y-120753142D01*
X153614380Y-120848380D01*
X153566761Y-120991238D01*
X153471523Y-121086476D01*
X153376285Y-121134095D01*
X153185809Y-121181714D01*
X153042952Y-121181714D01*
X152852476Y-121134095D01*
X152757238Y-121086476D01*
X152662000Y-120991238D01*
X152614380Y-120848380D01*
X152614380Y-120753142D01*
X152662000Y-120610285D01*
X152709619Y-120562666D01*
X153614380Y-120086476D02*
X153614380Y-119896000D01*
X153566761Y-119800761D01*
X153519142Y-119753142D01*
X153376285Y-119657904D01*
X153185809Y-119610285D01*
X152804857Y-119610285D01*
X152709619Y-119657904D01*
X152662000Y-119705523D01*
X152614380Y-119800761D01*
X152614380Y-119991238D01*
X152662000Y-120086476D01*
X152709619Y-120134095D01*
X152804857Y-120181714D01*
X153042952Y-120181714D01*
X153138190Y-120134095D01*
X153185809Y-120086476D01*
X153233428Y-119991238D01*
X153233428Y-119800761D01*
X153185809Y-119705523D01*
X153138190Y-119657904D01*
X153042952Y-119610285D01*
%TO.C,C15*%
X115419142Y-120784857D02*
X115466761Y-120832476D01*
X115514380Y-120975333D01*
X115514380Y-121070571D01*
X115466761Y-121213428D01*
X115371523Y-121308666D01*
X115276285Y-121356285D01*
X115085809Y-121403904D01*
X114942952Y-121403904D01*
X114752476Y-121356285D01*
X114657238Y-121308666D01*
X114562000Y-121213428D01*
X114514380Y-121070571D01*
X114514380Y-120975333D01*
X114562000Y-120832476D01*
X114609619Y-120784857D01*
X115514380Y-119832476D02*
X115514380Y-120403904D01*
X115514380Y-120118190D02*
X114514380Y-120118190D01*
X114657238Y-120213428D01*
X114752476Y-120308666D01*
X114800095Y-120403904D01*
X114514380Y-118927714D02*
X114514380Y-119403904D01*
X114990571Y-119451523D01*
X114942952Y-119403904D01*
X114895333Y-119308666D01*
X114895333Y-119070571D01*
X114942952Y-118975333D01*
X114990571Y-118927714D01*
X115085809Y-118880095D01*
X115323904Y-118880095D01*
X115419142Y-118927714D01*
X115466761Y-118975333D01*
X115514380Y-119070571D01*
X115514380Y-119308666D01*
X115466761Y-119403904D01*
X115419142Y-119451523D01*
%TO.C,C16*%
X117959142Y-120784857D02*
X118006761Y-120832476D01*
X118054380Y-120975333D01*
X118054380Y-121070571D01*
X118006761Y-121213428D01*
X117911523Y-121308666D01*
X117816285Y-121356285D01*
X117625809Y-121403904D01*
X117482952Y-121403904D01*
X117292476Y-121356285D01*
X117197238Y-121308666D01*
X117102000Y-121213428D01*
X117054380Y-121070571D01*
X117054380Y-120975333D01*
X117102000Y-120832476D01*
X117149619Y-120784857D01*
X118054380Y-119832476D02*
X118054380Y-120403904D01*
X118054380Y-120118190D02*
X117054380Y-120118190D01*
X117197238Y-120213428D01*
X117292476Y-120308666D01*
X117340095Y-120403904D01*
X117054380Y-118975333D02*
X117054380Y-119165809D01*
X117102000Y-119261047D01*
X117149619Y-119308666D01*
X117292476Y-119403904D01*
X117482952Y-119451523D01*
X117863904Y-119451523D01*
X117959142Y-119403904D01*
X118006761Y-119356285D01*
X118054380Y-119261047D01*
X118054380Y-119070571D01*
X118006761Y-118975333D01*
X117959142Y-118927714D01*
X117863904Y-118880095D01*
X117625809Y-118880095D01*
X117530571Y-118927714D01*
X117482952Y-118975333D01*
X117435333Y-119070571D01*
X117435333Y-119261047D01*
X117482952Y-119356285D01*
X117530571Y-119403904D01*
X117625809Y-119451523D01*
%TO.C,R12*%
X154265142Y-114498380D02*
X153931809Y-114022190D01*
X153693714Y-114498380D02*
X153693714Y-113498380D01*
X154074666Y-113498380D01*
X154169904Y-113546000D01*
X154217523Y-113593619D01*
X154265142Y-113688857D01*
X154265142Y-113831714D01*
X154217523Y-113926952D01*
X154169904Y-113974571D01*
X154074666Y-114022190D01*
X153693714Y-114022190D01*
X155217523Y-114498380D02*
X154646095Y-114498380D01*
X154931809Y-114498380D02*
X154931809Y-113498380D01*
X154836571Y-113641238D01*
X154741333Y-113736476D01*
X154646095Y-113784095D01*
X155598476Y-113593619D02*
X155646095Y-113546000D01*
X155741333Y-113498380D01*
X155979428Y-113498380D01*
X156074666Y-113546000D01*
X156122285Y-113593619D01*
X156169904Y-113688857D01*
X156169904Y-113784095D01*
X156122285Y-113926952D01*
X155550857Y-114498380D01*
X156169904Y-114498380D01*
%TO.C,R14*%
X189857142Y-114498380D02*
X189523809Y-114022190D01*
X189285714Y-114498380D02*
X189285714Y-113498380D01*
X189666666Y-113498380D01*
X189761904Y-113546000D01*
X189809523Y-113593619D01*
X189857142Y-113688857D01*
X189857142Y-113831714D01*
X189809523Y-113926952D01*
X189761904Y-113974571D01*
X189666666Y-114022190D01*
X189285714Y-114022190D01*
X190809523Y-114498380D02*
X190238095Y-114498380D01*
X190523809Y-114498380D02*
X190523809Y-113498380D01*
X190428571Y-113641238D01*
X190333333Y-113736476D01*
X190238095Y-113784095D01*
X191666666Y-113831714D02*
X191666666Y-114498380D01*
X191428571Y-113450761D02*
X191190476Y-114165047D01*
X191809523Y-114165047D01*
%TO.C,H2*%
X103124095Y-116902380D02*
X103124095Y-115902380D01*
X103124095Y-116378571D02*
X103695523Y-116378571D01*
X103695523Y-116902380D02*
X103695523Y-115902380D01*
X104124095Y-115997619D02*
X104171714Y-115950000D01*
X104266952Y-115902380D01*
X104505047Y-115902380D01*
X104600285Y-115950000D01*
X104647904Y-115997619D01*
X104695523Y-116092857D01*
X104695523Y-116188095D01*
X104647904Y-116330952D01*
X104076476Y-116902380D01*
X104695523Y-116902380D01*
%TO.C,R13*%
X138549142Y-114498380D02*
X138215809Y-114022190D01*
X137977714Y-114498380D02*
X137977714Y-113498380D01*
X138358666Y-113498380D01*
X138453904Y-113546000D01*
X138501523Y-113593619D01*
X138549142Y-113688857D01*
X138549142Y-113831714D01*
X138501523Y-113926952D01*
X138453904Y-113974571D01*
X138358666Y-114022190D01*
X137977714Y-114022190D01*
X139501523Y-114498380D02*
X138930095Y-114498380D01*
X139215809Y-114498380D02*
X139215809Y-113498380D01*
X139120571Y-113641238D01*
X139025333Y-113736476D01*
X138930095Y-113784095D01*
X139834857Y-113498380D02*
X140453904Y-113498380D01*
X140120571Y-113879333D01*
X140263428Y-113879333D01*
X140358666Y-113926952D01*
X140406285Y-113974571D01*
X140453904Y-114069809D01*
X140453904Y-114307904D01*
X140406285Y-114403142D01*
X140358666Y-114450761D01*
X140263428Y-114498380D01*
X139977714Y-114498380D01*
X139882476Y-114450761D01*
X139834857Y-114403142D01*
%TO.C,H5*%
X189013095Y-116902380D02*
X189013095Y-115902380D01*
X189013095Y-116378571D02*
X189584523Y-116378571D01*
X189584523Y-116902380D02*
X189584523Y-115902380D01*
X190536904Y-115902380D02*
X190060714Y-115902380D01*
X190013095Y-116378571D01*
X190060714Y-116330952D01*
X190155952Y-116283333D01*
X190394047Y-116283333D01*
X190489285Y-116330952D01*
X190536904Y-116378571D01*
X190584523Y-116473809D01*
X190584523Y-116711904D01*
X190536904Y-116807142D01*
X190489285Y-116854761D01*
X190394047Y-116902380D01*
X190155952Y-116902380D01*
X190060714Y-116854761D01*
X190013095Y-116807142D01*
%TO.C,R17*%
X101719142Y-114498380D02*
X101385809Y-114022190D01*
X101147714Y-114498380D02*
X101147714Y-113498380D01*
X101528666Y-113498380D01*
X101623904Y-113546000D01*
X101671523Y-113593619D01*
X101719142Y-113688857D01*
X101719142Y-113831714D01*
X101671523Y-113926952D01*
X101623904Y-113974571D01*
X101528666Y-114022190D01*
X101147714Y-114022190D01*
X102671523Y-114498380D02*
X102100095Y-114498380D01*
X102385809Y-114498380D02*
X102385809Y-113498380D01*
X102290571Y-113641238D01*
X102195333Y-113736476D01*
X102100095Y-113784095D01*
X103004857Y-113498380D02*
X103671523Y-113498380D01*
X103242952Y-114498380D01*
%TO.C,R16*%
X117435142Y-114498380D02*
X117101809Y-114022190D01*
X116863714Y-114498380D02*
X116863714Y-113498380D01*
X117244666Y-113498380D01*
X117339904Y-113546000D01*
X117387523Y-113593619D01*
X117435142Y-113688857D01*
X117435142Y-113831714D01*
X117387523Y-113926952D01*
X117339904Y-113974571D01*
X117244666Y-114022190D01*
X116863714Y-114022190D01*
X118387523Y-114498380D02*
X117816095Y-114498380D01*
X118101809Y-114498380D02*
X118101809Y-113498380D01*
X118006571Y-113641238D01*
X117911333Y-113736476D01*
X117816095Y-113784095D01*
X119244666Y-113498380D02*
X119054190Y-113498380D01*
X118958952Y-113546000D01*
X118911333Y-113593619D01*
X118816095Y-113736476D01*
X118768476Y-113926952D01*
X118768476Y-114307904D01*
X118816095Y-114403142D01*
X118863714Y-114450761D01*
X118958952Y-114498380D01*
X119149428Y-114498380D01*
X119244666Y-114450761D01*
X119292285Y-114403142D01*
X119339904Y-114307904D01*
X119339904Y-114069809D01*
X119292285Y-113974571D01*
X119244666Y-113926952D01*
X119149428Y-113879333D01*
X118958952Y-113879333D01*
X118863714Y-113926952D01*
X118816095Y-113974571D01*
X118768476Y-114069809D01*
%TO.C,C14*%
X116689142Y-120784857D02*
X116736761Y-120832476D01*
X116784380Y-120975333D01*
X116784380Y-121070571D01*
X116736761Y-121213428D01*
X116641523Y-121308666D01*
X116546285Y-121356285D01*
X116355809Y-121403904D01*
X116212952Y-121403904D01*
X116022476Y-121356285D01*
X115927238Y-121308666D01*
X115832000Y-121213428D01*
X115784380Y-121070571D01*
X115784380Y-120975333D01*
X115832000Y-120832476D01*
X115879619Y-120784857D01*
X116784380Y-119832476D02*
X116784380Y-120403904D01*
X116784380Y-120118190D02*
X115784380Y-120118190D01*
X115927238Y-120213428D01*
X116022476Y-120308666D01*
X116070095Y-120403904D01*
X116117714Y-118975333D02*
X116784380Y-118975333D01*
X115736761Y-119213428D02*
X116451047Y-119451523D01*
X116451047Y-118832476D01*
%TO.C,C8*%
X152249142Y-120562666D02*
X152296761Y-120610285D01*
X152344380Y-120753142D01*
X152344380Y-120848380D01*
X152296761Y-120991238D01*
X152201523Y-121086476D01*
X152106285Y-121134095D01*
X151915809Y-121181714D01*
X151772952Y-121181714D01*
X151582476Y-121134095D01*
X151487238Y-121086476D01*
X151392000Y-120991238D01*
X151344380Y-120848380D01*
X151344380Y-120753142D01*
X151392000Y-120610285D01*
X151439619Y-120562666D01*
X151772952Y-119991238D02*
X151725333Y-120086476D01*
X151677714Y-120134095D01*
X151582476Y-120181714D01*
X151534857Y-120181714D01*
X151439619Y-120134095D01*
X151392000Y-120086476D01*
X151344380Y-119991238D01*
X151344380Y-119800761D01*
X151392000Y-119705523D01*
X151439619Y-119657904D01*
X151534857Y-119610285D01*
X151582476Y-119610285D01*
X151677714Y-119657904D01*
X151725333Y-119705523D01*
X151772952Y-119800761D01*
X151772952Y-119991238D01*
X151820571Y-120086476D01*
X151868190Y-120134095D01*
X151963428Y-120181714D01*
X152153904Y-120181714D01*
X152249142Y-120134095D01*
X152296761Y-120086476D01*
X152344380Y-119991238D01*
X152344380Y-119800761D01*
X152296761Y-119705523D01*
X152249142Y-119657904D01*
X152153904Y-119610285D01*
X151963428Y-119610285D01*
X151868190Y-119657904D01*
X151820571Y-119705523D01*
X151772952Y-119800761D01*
%TO.C,H6*%
X128524095Y-116902380D02*
X128524095Y-115902380D01*
X128524095Y-116378571D02*
X129095523Y-116378571D01*
X129095523Y-116902380D02*
X129095523Y-115902380D01*
X130000285Y-115902380D02*
X129809809Y-115902380D01*
X129714571Y-115950000D01*
X129666952Y-115997619D01*
X129571714Y-116140476D01*
X129524095Y-116330952D01*
X129524095Y-116711904D01*
X129571714Y-116807142D01*
X129619333Y-116854761D01*
X129714571Y-116902380D01*
X129905047Y-116902380D01*
X130000285Y-116854761D01*
X130047904Y-116807142D01*
X130095523Y-116711904D01*
X130095523Y-116473809D01*
X130047904Y-116378571D01*
X130000285Y-116330952D01*
X129905047Y-116283333D01*
X129714571Y-116283333D01*
X129619333Y-116330952D01*
X129571714Y-116378571D01*
X129524095Y-116473809D01*
%TO.C,C12*%
X178411142Y-120784857D02*
X178458761Y-120832476D01*
X178506380Y-120975333D01*
X178506380Y-121070571D01*
X178458761Y-121213428D01*
X178363523Y-121308666D01*
X178268285Y-121356285D01*
X178077809Y-121403904D01*
X177934952Y-121403904D01*
X177744476Y-121356285D01*
X177649238Y-121308666D01*
X177554000Y-121213428D01*
X177506380Y-121070571D01*
X177506380Y-120975333D01*
X177554000Y-120832476D01*
X177601619Y-120784857D01*
X178506380Y-119832476D02*
X178506380Y-120403904D01*
X178506380Y-120118190D02*
X177506380Y-120118190D01*
X177649238Y-120213428D01*
X177744476Y-120308666D01*
X177792095Y-120403904D01*
X177601619Y-119451523D02*
X177554000Y-119403904D01*
X177506380Y-119308666D01*
X177506380Y-119070571D01*
X177554000Y-118975333D01*
X177601619Y-118927714D01*
X177696857Y-118880095D01*
X177792095Y-118880095D01*
X177934952Y-118927714D01*
X178506380Y-119499142D01*
X178506380Y-118880095D01*
%TO.C,J6*%
X172386666Y-92924380D02*
X172386666Y-93638666D01*
X172339047Y-93781523D01*
X172243809Y-93876761D01*
X172100952Y-93924380D01*
X172005714Y-93924380D01*
X173291428Y-92924380D02*
X173100952Y-92924380D01*
X173005714Y-92972000D01*
X172958095Y-93019619D01*
X172862857Y-93162476D01*
X172815238Y-93352952D01*
X172815238Y-93733904D01*
X172862857Y-93829142D01*
X172910476Y-93876761D01*
X173005714Y-93924380D01*
X173196190Y-93924380D01*
X173291428Y-93876761D01*
X173339047Y-93829142D01*
X173386666Y-93733904D01*
X173386666Y-93495809D01*
X173339047Y-93400571D01*
X173291428Y-93352952D01*
X173196190Y-93305333D01*
X173005714Y-93305333D01*
X172910476Y-93352952D01*
X172862857Y-93400571D01*
X172815238Y-93495809D01*
%TO.C,J5*%
X169846666Y-43140380D02*
X169846666Y-43854666D01*
X169799047Y-43997523D01*
X169703809Y-44092761D01*
X169560952Y-44140380D01*
X169465714Y-44140380D01*
X170799047Y-43140380D02*
X170322857Y-43140380D01*
X170275238Y-43616571D01*
X170322857Y-43568952D01*
X170418095Y-43521333D01*
X170656190Y-43521333D01*
X170751428Y-43568952D01*
X170799047Y-43616571D01*
X170846666Y-43711809D01*
X170846666Y-43949904D01*
X170799047Y-44045142D01*
X170751428Y-44092761D01*
X170656190Y-44140380D01*
X170418095Y-44140380D01*
X170322857Y-44092761D01*
X170275238Y-44045142D01*
%TO.C,J4*%
X121586666Y-75100380D02*
X121586666Y-75814666D01*
X121539047Y-75957523D01*
X121443809Y-76052761D01*
X121300952Y-76100380D01*
X121205714Y-76100380D01*
X122491428Y-75433714D02*
X122491428Y-76100380D01*
X122253333Y-75052761D02*
X122015238Y-75767047D01*
X122634285Y-75767047D01*
%TO.C,J3*%
X121586666Y-52240380D02*
X121586666Y-52954666D01*
X121539047Y-53097523D01*
X121443809Y-53192761D01*
X121300952Y-53240380D01*
X121205714Y-53240380D01*
X121967619Y-52240380D02*
X122586666Y-52240380D01*
X122253333Y-52621333D01*
X122396190Y-52621333D01*
X122491428Y-52668952D01*
X122539047Y-52716571D01*
X122586666Y-52811809D01*
X122586666Y-53049904D01*
X122539047Y-53145142D01*
X122491428Y-53192761D01*
X122396190Y-53240380D01*
X122110476Y-53240380D01*
X122015238Y-53192761D01*
X121967619Y-53145142D01*
%TD*%
M02*
