%TF.GenerationSoftware,KiCad,Pcbnew,(5.1.10)-1*%
%TF.CreationDate,2022-02-25T12:42:34+01:00*%
%TF.ProjectId,GestureControl,47657374-7572-4654-936f-6e74726f6c2e,V0.1*%
%TF.SameCoordinates,Original*%
%TF.FileFunction,Copper,L1,Top*%
%TF.FilePolarity,Positive*%
%FSLAX46Y46*%
G04 Gerber Fmt 4.6, Leading zero omitted, Abs format (unit mm)*
G04 Created by KiCad (PCBNEW (5.1.10)-1) date 2022-02-25 12:42:34*
%MOMM*%
%LPD*%
G01*
G04 APERTURE LIST*
%TA.AperFunction,SMDPad,CuDef*%
%ADD10R,0.807999X0.458000*%
%TD*%
%TA.AperFunction,SMDPad,CuDef*%
%ADD11R,0.508000X0.508000*%
%TD*%
%TA.AperFunction,ComponentPad*%
%ADD12O,1.700000X1.700000*%
%TD*%
%TA.AperFunction,ComponentPad*%
%ADD13R,1.700000X1.700000*%
%TD*%
%TA.AperFunction,SMDPad,CuDef*%
%ADD14R,2.000000X4.500000*%
%TD*%
%TA.AperFunction,SMDPad,CuDef*%
%ADD15R,1.300000X1.900000*%
%TD*%
%TA.AperFunction,SMDPad,CuDef*%
%ADD16R,1.300000X1.550000*%
%TD*%
%TA.AperFunction,SMDPad,CuDef*%
%ADD17R,1.550000X1.300000*%
%TD*%
%TA.AperFunction,ComponentPad*%
%ADD18O,1.800000X3.600000*%
%TD*%
%TA.AperFunction,ViaPad*%
%ADD19C,0.800000*%
%TD*%
%TA.AperFunction,Conductor*%
%ADD20C,0.250000*%
%TD*%
%TA.AperFunction,Conductor*%
%ADD21C,0.500000*%
%TD*%
%TA.AperFunction,Conductor*%
%ADD22C,1.000000*%
%TD*%
G04 APERTURE END LIST*
D10*
%TO.P,U13,1*%
%TO.N,+3V3*%
X145343600Y-108787999D03*
%TO.P,U13,2*%
%TO.N,GND*%
X145343600Y-107988001D03*
%TO.P,U13,3*%
X145343600Y-107188000D03*
%TO.P,U13,4*%
X145343600Y-106387999D03*
%TO.P,U13,5*%
%TO.N,XSHUT_1*%
X145343600Y-105588001D03*
D11*
%TO.P,U13,6*%
%TO.N,GND*%
X146458800Y-105587800D03*
D10*
%TO.P,U13,7*%
%TO.N,GPIOI_1*%
X147574000Y-105588001D03*
%TO.P,U13,8*%
%TO.N,Net-(U12-Pad8)*%
X147574000Y-106387999D03*
%TO.P,U13,9*%
%TO.N,SDA1*%
X147574000Y-107188000D03*
%TO.P,U13,10*%
%TO.N,SCL1*%
X147574000Y-107988001D03*
%TO.P,U13,11*%
%TO.N,+3V3*%
X147574000Y-108787999D03*
D11*
%TO.P,U13,12*%
%TO.N,GND*%
X146458800Y-108788200D03*
%TD*%
D10*
%TO.P,U12,1*%
%TO.N,+3V3*%
X145343600Y-125844000D03*
%TO.P,U12,2*%
%TO.N,GND*%
X145343600Y-125044002D03*
%TO.P,U12,3*%
X145343600Y-124244001D03*
%TO.P,U12,4*%
X145343600Y-123444000D03*
%TO.P,U12,5*%
%TO.N,XSHUT_1*%
X145343600Y-122644002D03*
D11*
%TO.P,U12,6*%
%TO.N,GND*%
X146458800Y-122643801D03*
D10*
%TO.P,U12,7*%
%TO.N,GPIOI_1*%
X147574000Y-122644002D03*
%TO.P,U12,8*%
%TO.N,Net-(U12-Pad8)*%
X147574000Y-123444000D03*
%TO.P,U12,9*%
%TO.N,SDA1*%
X147574000Y-124244001D03*
%TO.P,U12,10*%
%TO.N,SCL1*%
X147574000Y-125044002D03*
%TO.P,U12,11*%
%TO.N,+3V3*%
X147574000Y-125844000D03*
D11*
%TO.P,U12,12*%
%TO.N,GND*%
X146458800Y-125844201D03*
%TD*%
D10*
%TO.P,U11,1*%
%TO.N,+3V3*%
X115470800Y-108787999D03*
%TO.P,U11,2*%
%TO.N,GND*%
X115470800Y-107988001D03*
%TO.P,U11,3*%
X115470800Y-107188000D03*
%TO.P,U11,4*%
X115470800Y-106387999D03*
%TO.P,U11,5*%
%TO.N,XSHUT_0*%
X115470800Y-105588001D03*
D11*
%TO.P,U11,6*%
%TO.N,GND*%
X116586000Y-105587800D03*
D10*
%TO.P,U11,7*%
%TO.N,GPIOI_0*%
X117701200Y-105588001D03*
%TO.P,U11,8*%
%TO.N,Net-(U11-Pad8)*%
X117701200Y-106387999D03*
%TO.P,U11,9*%
%TO.N,SDA1*%
X117701200Y-107188000D03*
%TO.P,U11,10*%
%TO.N,SCL1*%
X117701200Y-107988001D03*
%TO.P,U11,11*%
%TO.N,+3V3*%
X117701200Y-108787999D03*
D11*
%TO.P,U11,12*%
%TO.N,GND*%
X116586000Y-108788200D03*
%TD*%
D10*
%TO.P,U10,1*%
%TO.N,+3V3*%
X176430800Y-108749998D03*
%TO.P,U10,2*%
%TO.N,GND*%
X176430800Y-107950000D03*
%TO.P,U10,3*%
X176430800Y-107149999D03*
%TO.P,U10,4*%
X176430800Y-106349998D03*
%TO.P,U10,5*%
%TO.N,XSHUT_2*%
X176430800Y-105550000D03*
D11*
%TO.P,U10,6*%
%TO.N,GND*%
X177546000Y-105549799D03*
D10*
%TO.P,U10,7*%
%TO.N,GPIOI_2*%
X178661200Y-105550000D03*
%TO.P,U10,8*%
%TO.N,Net-(U10-Pad8)*%
X178661200Y-106349998D03*
%TO.P,U10,9*%
%TO.N,SDA1*%
X178661200Y-107149999D03*
%TO.P,U10,10*%
%TO.N,SCL1*%
X178661200Y-107950000D03*
%TO.P,U10,11*%
%TO.N,+3V3*%
X178661200Y-108749998D03*
D11*
%TO.P,U10,12*%
%TO.N,GND*%
X177546000Y-108750199D03*
%TD*%
D10*
%TO.P,U9,1*%
%TO.N,+3V3*%
X115470800Y-125805999D03*
%TO.P,U9,2*%
%TO.N,GND*%
X115470800Y-125006001D03*
%TO.P,U9,3*%
X115470800Y-124206000D03*
%TO.P,U9,4*%
X115470800Y-123405999D03*
%TO.P,U9,5*%
%TO.N,XSHUT_0*%
X115470800Y-122606001D03*
D11*
%TO.P,U9,6*%
%TO.N,GND*%
X116586000Y-122605800D03*
D10*
%TO.P,U9,7*%
%TO.N,GPIOI_0*%
X117701200Y-122606001D03*
%TO.P,U9,8*%
%TO.N,Net-(U11-Pad8)*%
X117701200Y-123405999D03*
%TO.P,U9,9*%
%TO.N,SDA1*%
X117701200Y-124206000D03*
%TO.P,U9,10*%
%TO.N,SCL1*%
X117701200Y-125006001D03*
%TO.P,U9,11*%
%TO.N,+3V3*%
X117701200Y-125805999D03*
D11*
%TO.P,U9,12*%
%TO.N,GND*%
X116586000Y-125806200D03*
%TD*%
D10*
%TO.P,U8,1*%
%TO.N,+3V3*%
X176430800Y-125805999D03*
%TO.P,U8,2*%
%TO.N,GND*%
X176430800Y-125006001D03*
%TO.P,U8,3*%
X176430800Y-124206000D03*
%TO.P,U8,4*%
X176430800Y-123405999D03*
%TO.P,U8,5*%
%TO.N,XSHUT_2*%
X176430800Y-122606001D03*
D11*
%TO.P,U8,6*%
%TO.N,GND*%
X177546000Y-122605800D03*
D10*
%TO.P,U8,7*%
%TO.N,GPIOI_2*%
X178661200Y-122606001D03*
%TO.P,U8,8*%
%TO.N,Net-(U10-Pad8)*%
X178661200Y-123405999D03*
%TO.P,U8,9*%
%TO.N,SDA1*%
X178661200Y-124206000D03*
%TO.P,U8,10*%
%TO.N,SCL1*%
X178661200Y-125006001D03*
%TO.P,U8,11*%
%TO.N,+3V3*%
X178661200Y-125805999D03*
D11*
%TO.P,U8,12*%
%TO.N,GND*%
X177546000Y-125806200D03*
%TD*%
D10*
%TO.P,U3,1*%
%TO.N,+3V3*%
X145343600Y-117245998D03*
%TO.P,U3,2*%
%TO.N,GND*%
X145343600Y-116446000D03*
%TO.P,U3,3*%
X145343600Y-115645999D03*
%TO.P,U3,4*%
X145343600Y-114845998D03*
%TO.P,U3,5*%
%TO.N,XSHUT_1*%
X145343600Y-114046000D03*
D11*
%TO.P,U3,6*%
%TO.N,GND*%
X146458800Y-114045799D03*
D10*
%TO.P,U3,7*%
%TO.N,GPIOI_1*%
X147574000Y-114046000D03*
%TO.P,U3,8*%
%TO.N,Net-(U12-Pad8)*%
X147574000Y-114845998D03*
%TO.P,U3,9*%
%TO.N,SDA1*%
X147574000Y-115645999D03*
%TO.P,U3,10*%
%TO.N,SCL1*%
X147574000Y-116446000D03*
%TO.P,U3,11*%
%TO.N,+3V3*%
X147574000Y-117245998D03*
D11*
%TO.P,U3,12*%
%TO.N,GND*%
X146458800Y-117246199D03*
%TD*%
D10*
%TO.P,U5,1*%
%TO.N,+3V3*%
X115470800Y-117169999D03*
%TO.P,U5,2*%
%TO.N,GND*%
X115470800Y-116370001D03*
%TO.P,U5,3*%
X115470800Y-115570000D03*
%TO.P,U5,4*%
X115470800Y-114769999D03*
%TO.P,U5,5*%
%TO.N,XSHUT_0*%
X115470800Y-113970001D03*
D11*
%TO.P,U5,6*%
%TO.N,GND*%
X116586000Y-113969800D03*
D10*
%TO.P,U5,7*%
%TO.N,GPIOI_0*%
X117701200Y-113970001D03*
%TO.P,U5,8*%
%TO.N,Net-(U11-Pad8)*%
X117701200Y-114769999D03*
%TO.P,U5,9*%
%TO.N,SDA1*%
X117701200Y-115570000D03*
%TO.P,U5,10*%
%TO.N,SCL1*%
X117701200Y-116370001D03*
%TO.P,U5,11*%
%TO.N,+3V3*%
X117701200Y-117169999D03*
D11*
%TO.P,U5,12*%
%TO.N,GND*%
X116586000Y-117170200D03*
%TD*%
D12*
%TO.P,J8,6*%
%TO.N,/STM32L151RET6TR/SW0*%
X153162000Y-48514000D03*
%TO.P,J8,5*%
%TO.N,/STM32L151RET6TR/RST*%
X153162000Y-51054000D03*
%TO.P,J8,4*%
%TO.N,/STM32L151RET6TR/SWDAT*%
X153162000Y-53594000D03*
%TO.P,J8,3*%
%TO.N,GND*%
X153162000Y-56134000D03*
%TO.P,J8,2*%
%TO.N,/STM32L151RET6TR/SWCLK*%
X153162000Y-58674000D03*
D13*
%TO.P,J8,1*%
%TO.N,+3V3*%
X153162000Y-61214000D03*
%TD*%
D14*
%TO.P,Y1,2*%
%TO.N,/STM32L151RET6TR/OSM_OUT*%
X133604000Y-82736000D03*
%TO.P,Y1,1*%
%TO.N,/STM32L151RET6TR/MCO*%
X133604000Y-74236000D03*
%TD*%
%TO.P,C34,2*%
%TO.N,GND*%
%TA.AperFunction,SMDPad,CuDef*%
G36*
G01*
X142457500Y-103345000D02*
X142457500Y-102395000D01*
G75*
G02*
X142707500Y-102145000I250000J0D01*
G01*
X143382500Y-102145000D01*
G75*
G02*
X143632500Y-102395000I0J-250000D01*
G01*
X143632500Y-103345000D01*
G75*
G02*
X143382500Y-103595000I-250000J0D01*
G01*
X142707500Y-103595000D01*
G75*
G02*
X142457500Y-103345000I0J250000D01*
G01*
G37*
%TD.AperFunction*%
%TO.P,C34,1*%
%TO.N,+3V3*%
%TA.AperFunction,SMDPad,CuDef*%
G36*
G01*
X140382500Y-103345000D02*
X140382500Y-102395000D01*
G75*
G02*
X140632500Y-102145000I250000J0D01*
G01*
X141307500Y-102145000D01*
G75*
G02*
X141557500Y-102395000I0J-250000D01*
G01*
X141557500Y-103345000D01*
G75*
G02*
X141307500Y-103595000I-250000J0D01*
G01*
X140632500Y-103595000D01*
G75*
G02*
X140382500Y-103345000I0J250000D01*
G01*
G37*
%TD.AperFunction*%
%TD*%
D12*
%TO.P,J10,4*%
%TO.N,SCL2*%
X166624000Y-51308000D03*
%TO.P,J10,3*%
%TO.N,SDA2*%
X166624000Y-53848000D03*
%TO.P,J10,2*%
%TO.N,+3V3*%
X166624000Y-56388000D03*
D13*
%TO.P,J10,1*%
%TO.N,GND*%
X166624000Y-58928000D03*
%TD*%
D12*
%TO.P,J7,6*%
%TO.N,/STM32L151RET6TR/FTDI_RTS*%
X156972000Y-51054000D03*
%TO.P,J7,5*%
%TO.N,/STM32L151RET6TR/FTDI_RXD*%
X156972000Y-53594000D03*
%TO.P,J7,4*%
%TO.N,/STM32L151RET6TR/FTDI_TXD*%
X156972000Y-56134000D03*
%TO.P,J7,3*%
%TO.N,+5V*%
X156972000Y-58674000D03*
%TO.P,J7,2*%
%TO.N,/STM32L151RET6TR/FTDI_CTS*%
X156972000Y-61214000D03*
D13*
%TO.P,J7,1*%
%TO.N,GND*%
X156972000Y-63754000D03*
%TD*%
D15*
%TO.P,Y2,4*%
%TO.N,/STM32L151RET6TR/OS32_OUT*%
X136354000Y-68656000D03*
%TO.P,Y2,3*%
%TO.N,GND*%
X130854000Y-68656000D03*
%TO.P,Y2,2*%
X130854000Y-65456000D03*
%TO.P,Y2,1*%
%TO.N,/STM32L151RET6TR/OS32_IN*%
X136354000Y-65456000D03*
%TD*%
%TO.P,U7,64*%
%TO.N,+3V3*%
%TA.AperFunction,SMDPad,CuDef*%
G36*
G01*
X143166000Y-64367000D02*
X143166000Y-62967000D01*
G75*
G02*
X143241000Y-62892000I75000J0D01*
G01*
X143391000Y-62892000D01*
G75*
G02*
X143466000Y-62967000I0J-75000D01*
G01*
X143466000Y-64367000D01*
G75*
G02*
X143391000Y-64442000I-75000J0D01*
G01*
X143241000Y-64442000D01*
G75*
G02*
X143166000Y-64367000I0J75000D01*
G01*
G37*
%TD.AperFunction*%
%TO.P,U7,63*%
%TO.N,GND*%
%TA.AperFunction,SMDPad,CuDef*%
G36*
G01*
X143666000Y-64367000D02*
X143666000Y-62967000D01*
G75*
G02*
X143741000Y-62892000I75000J0D01*
G01*
X143891000Y-62892000D01*
G75*
G02*
X143966000Y-62967000I0J-75000D01*
G01*
X143966000Y-64367000D01*
G75*
G02*
X143891000Y-64442000I-75000J0D01*
G01*
X143741000Y-64442000D01*
G75*
G02*
X143666000Y-64367000I0J75000D01*
G01*
G37*
%TD.AperFunction*%
%TO.P,U7,62*%
%TO.N,SDA1*%
%TA.AperFunction,SMDPad,CuDef*%
G36*
G01*
X144166000Y-64367000D02*
X144166000Y-62967000D01*
G75*
G02*
X144241000Y-62892000I75000J0D01*
G01*
X144391000Y-62892000D01*
G75*
G02*
X144466000Y-62967000I0J-75000D01*
G01*
X144466000Y-64367000D01*
G75*
G02*
X144391000Y-64442000I-75000J0D01*
G01*
X144241000Y-64442000D01*
G75*
G02*
X144166000Y-64367000I0J75000D01*
G01*
G37*
%TD.AperFunction*%
%TO.P,U7,61*%
%TO.N,SCL1*%
%TA.AperFunction,SMDPad,CuDef*%
G36*
G01*
X144666000Y-64367000D02*
X144666000Y-62967000D01*
G75*
G02*
X144741000Y-62892000I75000J0D01*
G01*
X144891000Y-62892000D01*
G75*
G02*
X144966000Y-62967000I0J-75000D01*
G01*
X144966000Y-64367000D01*
G75*
G02*
X144891000Y-64442000I-75000J0D01*
G01*
X144741000Y-64442000D01*
G75*
G02*
X144666000Y-64367000I0J75000D01*
G01*
G37*
%TD.AperFunction*%
%TO.P,U7,60*%
%TO.N,/STM32L151RET6TR/BOOT*%
%TA.AperFunction,SMDPad,CuDef*%
G36*
G01*
X145166000Y-64367000D02*
X145166000Y-62967000D01*
G75*
G02*
X145241000Y-62892000I75000J0D01*
G01*
X145391000Y-62892000D01*
G75*
G02*
X145466000Y-62967000I0J-75000D01*
G01*
X145466000Y-64367000D01*
G75*
G02*
X145391000Y-64442000I-75000J0D01*
G01*
X145241000Y-64442000D01*
G75*
G02*
X145166000Y-64367000I0J75000D01*
G01*
G37*
%TD.AperFunction*%
%TO.P,U7,59*%
%TO.N,/STM32L151RET6TR/FTDI_RXD*%
%TA.AperFunction,SMDPad,CuDef*%
G36*
G01*
X145666000Y-64367000D02*
X145666000Y-62967000D01*
G75*
G02*
X145741000Y-62892000I75000J0D01*
G01*
X145891000Y-62892000D01*
G75*
G02*
X145966000Y-62967000I0J-75000D01*
G01*
X145966000Y-64367000D01*
G75*
G02*
X145891000Y-64442000I-75000J0D01*
G01*
X145741000Y-64442000D01*
G75*
G02*
X145666000Y-64367000I0J75000D01*
G01*
G37*
%TD.AperFunction*%
%TO.P,U7,58*%
%TO.N,/STM32L151RET6TR/FTDI_TXD*%
%TA.AperFunction,SMDPad,CuDef*%
G36*
G01*
X146166000Y-64367000D02*
X146166000Y-62967000D01*
G75*
G02*
X146241000Y-62892000I75000J0D01*
G01*
X146391000Y-62892000D01*
G75*
G02*
X146466000Y-62967000I0J-75000D01*
G01*
X146466000Y-64367000D01*
G75*
G02*
X146391000Y-64442000I-75000J0D01*
G01*
X146241000Y-64442000D01*
G75*
G02*
X146166000Y-64367000I0J75000D01*
G01*
G37*
%TD.AperFunction*%
%TO.P,U7,57*%
%TO.N,N/C*%
%TA.AperFunction,SMDPad,CuDef*%
G36*
G01*
X146666000Y-64367000D02*
X146666000Y-62967000D01*
G75*
G02*
X146741000Y-62892000I75000J0D01*
G01*
X146891000Y-62892000D01*
G75*
G02*
X146966000Y-62967000I0J-75000D01*
G01*
X146966000Y-64367000D01*
G75*
G02*
X146891000Y-64442000I-75000J0D01*
G01*
X146741000Y-64442000D01*
G75*
G02*
X146666000Y-64367000I0J75000D01*
G01*
G37*
%TD.AperFunction*%
%TO.P,U7,56*%
%TA.AperFunction,SMDPad,CuDef*%
G36*
G01*
X147166000Y-64367000D02*
X147166000Y-62967000D01*
G75*
G02*
X147241000Y-62892000I75000J0D01*
G01*
X147391000Y-62892000D01*
G75*
G02*
X147466000Y-62967000I0J-75000D01*
G01*
X147466000Y-64367000D01*
G75*
G02*
X147391000Y-64442000I-75000J0D01*
G01*
X147241000Y-64442000D01*
G75*
G02*
X147166000Y-64367000I0J75000D01*
G01*
G37*
%TD.AperFunction*%
%TO.P,U7,55*%
%TO.N,/STM32L151RET6TR/SW0*%
%TA.AperFunction,SMDPad,CuDef*%
G36*
G01*
X147666000Y-64367000D02*
X147666000Y-62967000D01*
G75*
G02*
X147741000Y-62892000I75000J0D01*
G01*
X147891000Y-62892000D01*
G75*
G02*
X147966000Y-62967000I0J-75000D01*
G01*
X147966000Y-64367000D01*
G75*
G02*
X147891000Y-64442000I-75000J0D01*
G01*
X147741000Y-64442000D01*
G75*
G02*
X147666000Y-64367000I0J75000D01*
G01*
G37*
%TD.AperFunction*%
%TO.P,U7,54*%
%TO.N,N/C*%
%TA.AperFunction,SMDPad,CuDef*%
G36*
G01*
X148166000Y-64367000D02*
X148166000Y-62967000D01*
G75*
G02*
X148241000Y-62892000I75000J0D01*
G01*
X148391000Y-62892000D01*
G75*
G02*
X148466000Y-62967000I0J-75000D01*
G01*
X148466000Y-64367000D01*
G75*
G02*
X148391000Y-64442000I-75000J0D01*
G01*
X148241000Y-64442000D01*
G75*
G02*
X148166000Y-64367000I0J75000D01*
G01*
G37*
%TD.AperFunction*%
%TO.P,U7,53*%
%TA.AperFunction,SMDPad,CuDef*%
G36*
G01*
X148666000Y-64367000D02*
X148666000Y-62967000D01*
G75*
G02*
X148741000Y-62892000I75000J0D01*
G01*
X148891000Y-62892000D01*
G75*
G02*
X148966000Y-62967000I0J-75000D01*
G01*
X148966000Y-64367000D01*
G75*
G02*
X148891000Y-64442000I-75000J0D01*
G01*
X148741000Y-64442000D01*
G75*
G02*
X148666000Y-64367000I0J75000D01*
G01*
G37*
%TD.AperFunction*%
%TO.P,U7,52*%
%TA.AperFunction,SMDPad,CuDef*%
G36*
G01*
X149166000Y-64367000D02*
X149166000Y-62967000D01*
G75*
G02*
X149241000Y-62892000I75000J0D01*
G01*
X149391000Y-62892000D01*
G75*
G02*
X149466000Y-62967000I0J-75000D01*
G01*
X149466000Y-64367000D01*
G75*
G02*
X149391000Y-64442000I-75000J0D01*
G01*
X149241000Y-64442000D01*
G75*
G02*
X149166000Y-64367000I0J75000D01*
G01*
G37*
%TD.AperFunction*%
%TO.P,U7,51*%
%TA.AperFunction,SMDPad,CuDef*%
G36*
G01*
X149666000Y-64367000D02*
X149666000Y-62967000D01*
G75*
G02*
X149741000Y-62892000I75000J0D01*
G01*
X149891000Y-62892000D01*
G75*
G02*
X149966000Y-62967000I0J-75000D01*
G01*
X149966000Y-64367000D01*
G75*
G02*
X149891000Y-64442000I-75000J0D01*
G01*
X149741000Y-64442000D01*
G75*
G02*
X149666000Y-64367000I0J75000D01*
G01*
G37*
%TD.AperFunction*%
%TO.P,U7,50*%
%TA.AperFunction,SMDPad,CuDef*%
G36*
G01*
X150166000Y-64367000D02*
X150166000Y-62967000D01*
G75*
G02*
X150241000Y-62892000I75000J0D01*
G01*
X150391000Y-62892000D01*
G75*
G02*
X150466000Y-62967000I0J-75000D01*
G01*
X150466000Y-64367000D01*
G75*
G02*
X150391000Y-64442000I-75000J0D01*
G01*
X150241000Y-64442000D01*
G75*
G02*
X150166000Y-64367000I0J75000D01*
G01*
G37*
%TD.AperFunction*%
%TO.P,U7,49*%
%TO.N,/STM32L151RET6TR/SWCLK*%
%TA.AperFunction,SMDPad,CuDef*%
G36*
G01*
X150666000Y-64367000D02*
X150666000Y-62967000D01*
G75*
G02*
X150741000Y-62892000I75000J0D01*
G01*
X150891000Y-62892000D01*
G75*
G02*
X150966000Y-62967000I0J-75000D01*
G01*
X150966000Y-64367000D01*
G75*
G02*
X150891000Y-64442000I-75000J0D01*
G01*
X150741000Y-64442000D01*
G75*
G02*
X150666000Y-64367000I0J75000D01*
G01*
G37*
%TD.AperFunction*%
%TO.P,U7,48*%
%TO.N,+3V3*%
%TA.AperFunction,SMDPad,CuDef*%
G36*
G01*
X151966000Y-65667000D02*
X151966000Y-65517000D01*
G75*
G02*
X152041000Y-65442000I75000J0D01*
G01*
X153441000Y-65442000D01*
G75*
G02*
X153516000Y-65517000I0J-75000D01*
G01*
X153516000Y-65667000D01*
G75*
G02*
X153441000Y-65742000I-75000J0D01*
G01*
X152041000Y-65742000D01*
G75*
G02*
X151966000Y-65667000I0J75000D01*
G01*
G37*
%TD.AperFunction*%
%TO.P,U7,47*%
%TO.N,GND*%
%TA.AperFunction,SMDPad,CuDef*%
G36*
G01*
X151966000Y-66167000D02*
X151966000Y-66017000D01*
G75*
G02*
X152041000Y-65942000I75000J0D01*
G01*
X153441000Y-65942000D01*
G75*
G02*
X153516000Y-66017000I0J-75000D01*
G01*
X153516000Y-66167000D01*
G75*
G02*
X153441000Y-66242000I-75000J0D01*
G01*
X152041000Y-66242000D01*
G75*
G02*
X151966000Y-66167000I0J75000D01*
G01*
G37*
%TD.AperFunction*%
%TO.P,U7,46*%
%TO.N,/STM32L151RET6TR/SWDAT*%
%TA.AperFunction,SMDPad,CuDef*%
G36*
G01*
X151966000Y-66667000D02*
X151966000Y-66517000D01*
G75*
G02*
X152041000Y-66442000I75000J0D01*
G01*
X153441000Y-66442000D01*
G75*
G02*
X153516000Y-66517000I0J-75000D01*
G01*
X153516000Y-66667000D01*
G75*
G02*
X153441000Y-66742000I-75000J0D01*
G01*
X152041000Y-66742000D01*
G75*
G02*
X151966000Y-66667000I0J75000D01*
G01*
G37*
%TD.AperFunction*%
%TO.P,U7,45*%
%TO.N,/STM32L151RET6TR/FTDI_RTS*%
%TA.AperFunction,SMDPad,CuDef*%
G36*
G01*
X151966000Y-67167000D02*
X151966000Y-67017000D01*
G75*
G02*
X152041000Y-66942000I75000J0D01*
G01*
X153441000Y-66942000D01*
G75*
G02*
X153516000Y-67017000I0J-75000D01*
G01*
X153516000Y-67167000D01*
G75*
G02*
X153441000Y-67242000I-75000J0D01*
G01*
X152041000Y-67242000D01*
G75*
G02*
X151966000Y-67167000I0J75000D01*
G01*
G37*
%TD.AperFunction*%
%TO.P,U7,44*%
%TO.N,/STM32L151RET6TR/FTDI_CTS*%
%TA.AperFunction,SMDPad,CuDef*%
G36*
G01*
X151966000Y-67667000D02*
X151966000Y-67517000D01*
G75*
G02*
X152041000Y-67442000I75000J0D01*
G01*
X153441000Y-67442000D01*
G75*
G02*
X153516000Y-67517000I0J-75000D01*
G01*
X153516000Y-67667000D01*
G75*
G02*
X153441000Y-67742000I-75000J0D01*
G01*
X152041000Y-67742000D01*
G75*
G02*
X151966000Y-67667000I0J75000D01*
G01*
G37*
%TD.AperFunction*%
%TO.P,U7,43*%
%TO.N,/STM32L151RET6TR/PA10*%
%TA.AperFunction,SMDPad,CuDef*%
G36*
G01*
X151966000Y-68167000D02*
X151966000Y-68017000D01*
G75*
G02*
X152041000Y-67942000I75000J0D01*
G01*
X153441000Y-67942000D01*
G75*
G02*
X153516000Y-68017000I0J-75000D01*
G01*
X153516000Y-68167000D01*
G75*
G02*
X153441000Y-68242000I-75000J0D01*
G01*
X152041000Y-68242000D01*
G75*
G02*
X151966000Y-68167000I0J75000D01*
G01*
G37*
%TD.AperFunction*%
%TO.P,U7,42*%
%TO.N,/STM32L151RET6TR/PA9*%
%TA.AperFunction,SMDPad,CuDef*%
G36*
G01*
X151966000Y-68667000D02*
X151966000Y-68517000D01*
G75*
G02*
X152041000Y-68442000I75000J0D01*
G01*
X153441000Y-68442000D01*
G75*
G02*
X153516000Y-68517000I0J-75000D01*
G01*
X153516000Y-68667000D01*
G75*
G02*
X153441000Y-68742000I-75000J0D01*
G01*
X152041000Y-68742000D01*
G75*
G02*
X151966000Y-68667000I0J75000D01*
G01*
G37*
%TD.AperFunction*%
%TO.P,U7,41*%
%TO.N,/STM32L151RET6TR/PIN41*%
%TA.AperFunction,SMDPad,CuDef*%
G36*
G01*
X151966000Y-69167000D02*
X151966000Y-69017000D01*
G75*
G02*
X152041000Y-68942000I75000J0D01*
G01*
X153441000Y-68942000D01*
G75*
G02*
X153516000Y-69017000I0J-75000D01*
G01*
X153516000Y-69167000D01*
G75*
G02*
X153441000Y-69242000I-75000J0D01*
G01*
X152041000Y-69242000D01*
G75*
G02*
X151966000Y-69167000I0J75000D01*
G01*
G37*
%TD.AperFunction*%
%TO.P,U7,40*%
%TO.N,SDA2*%
%TA.AperFunction,SMDPad,CuDef*%
G36*
G01*
X151966000Y-69667000D02*
X151966000Y-69517000D01*
G75*
G02*
X152041000Y-69442000I75000J0D01*
G01*
X153441000Y-69442000D01*
G75*
G02*
X153516000Y-69517000I0J-75000D01*
G01*
X153516000Y-69667000D01*
G75*
G02*
X153441000Y-69742000I-75000J0D01*
G01*
X152041000Y-69742000D01*
G75*
G02*
X151966000Y-69667000I0J75000D01*
G01*
G37*
%TD.AperFunction*%
%TO.P,U7,39*%
%TO.N,/STM32L151RET6TR/PC8*%
%TA.AperFunction,SMDPad,CuDef*%
G36*
G01*
X151966000Y-70167000D02*
X151966000Y-70017000D01*
G75*
G02*
X152041000Y-69942000I75000J0D01*
G01*
X153441000Y-69942000D01*
G75*
G02*
X153516000Y-70017000I0J-75000D01*
G01*
X153516000Y-70167000D01*
G75*
G02*
X153441000Y-70242000I-75000J0D01*
G01*
X152041000Y-70242000D01*
G75*
G02*
X151966000Y-70167000I0J75000D01*
G01*
G37*
%TD.AperFunction*%
%TO.P,U7,38*%
%TO.N,/STM32L151RET6TR/PC7*%
%TA.AperFunction,SMDPad,CuDef*%
G36*
G01*
X151966000Y-70667000D02*
X151966000Y-70517000D01*
G75*
G02*
X152041000Y-70442000I75000J0D01*
G01*
X153441000Y-70442000D01*
G75*
G02*
X153516000Y-70517000I0J-75000D01*
G01*
X153516000Y-70667000D01*
G75*
G02*
X153441000Y-70742000I-75000J0D01*
G01*
X152041000Y-70742000D01*
G75*
G02*
X151966000Y-70667000I0J75000D01*
G01*
G37*
%TD.AperFunction*%
%TO.P,U7,37*%
%TO.N,/STM32L151RET6TR/PC6*%
%TA.AperFunction,SMDPad,CuDef*%
G36*
G01*
X151966000Y-71167000D02*
X151966000Y-71017000D01*
G75*
G02*
X152041000Y-70942000I75000J0D01*
G01*
X153441000Y-70942000D01*
G75*
G02*
X153516000Y-71017000I0J-75000D01*
G01*
X153516000Y-71167000D01*
G75*
G02*
X153441000Y-71242000I-75000J0D01*
G01*
X152041000Y-71242000D01*
G75*
G02*
X151966000Y-71167000I0J75000D01*
G01*
G37*
%TD.AperFunction*%
%TO.P,U7,36*%
%TO.N,/STM32L151RET6TR/PB15*%
%TA.AperFunction,SMDPad,CuDef*%
G36*
G01*
X151966000Y-71667000D02*
X151966000Y-71517000D01*
G75*
G02*
X152041000Y-71442000I75000J0D01*
G01*
X153441000Y-71442000D01*
G75*
G02*
X153516000Y-71517000I0J-75000D01*
G01*
X153516000Y-71667000D01*
G75*
G02*
X153441000Y-71742000I-75000J0D01*
G01*
X152041000Y-71742000D01*
G75*
G02*
X151966000Y-71667000I0J75000D01*
G01*
G37*
%TD.AperFunction*%
%TO.P,U7,35*%
%TO.N,/STM32L151RET6TR/PB14*%
%TA.AperFunction,SMDPad,CuDef*%
G36*
G01*
X151966000Y-72167000D02*
X151966000Y-72017000D01*
G75*
G02*
X152041000Y-71942000I75000J0D01*
G01*
X153441000Y-71942000D01*
G75*
G02*
X153516000Y-72017000I0J-75000D01*
G01*
X153516000Y-72167000D01*
G75*
G02*
X153441000Y-72242000I-75000J0D01*
G01*
X152041000Y-72242000D01*
G75*
G02*
X151966000Y-72167000I0J75000D01*
G01*
G37*
%TD.AperFunction*%
%TO.P,U7,34*%
%TO.N,/STM32L151RET6TR/PB13*%
%TA.AperFunction,SMDPad,CuDef*%
G36*
G01*
X151966000Y-72667000D02*
X151966000Y-72517000D01*
G75*
G02*
X152041000Y-72442000I75000J0D01*
G01*
X153441000Y-72442000D01*
G75*
G02*
X153516000Y-72517000I0J-75000D01*
G01*
X153516000Y-72667000D01*
G75*
G02*
X153441000Y-72742000I-75000J0D01*
G01*
X152041000Y-72742000D01*
G75*
G02*
X151966000Y-72667000I0J75000D01*
G01*
G37*
%TD.AperFunction*%
%TO.P,U7,33*%
%TO.N,/STM32L151RET6TR/PB12*%
%TA.AperFunction,SMDPad,CuDef*%
G36*
G01*
X151966000Y-73167000D02*
X151966000Y-73017000D01*
G75*
G02*
X152041000Y-72942000I75000J0D01*
G01*
X153441000Y-72942000D01*
G75*
G02*
X153516000Y-73017000I0J-75000D01*
G01*
X153516000Y-73167000D01*
G75*
G02*
X153441000Y-73242000I-75000J0D01*
G01*
X152041000Y-73242000D01*
G75*
G02*
X151966000Y-73167000I0J75000D01*
G01*
G37*
%TD.AperFunction*%
%TO.P,U7,32*%
%TO.N,+3V3*%
%TA.AperFunction,SMDPad,CuDef*%
G36*
G01*
X150666000Y-75717000D02*
X150666000Y-74317000D01*
G75*
G02*
X150741000Y-74242000I75000J0D01*
G01*
X150891000Y-74242000D01*
G75*
G02*
X150966000Y-74317000I0J-75000D01*
G01*
X150966000Y-75717000D01*
G75*
G02*
X150891000Y-75792000I-75000J0D01*
G01*
X150741000Y-75792000D01*
G75*
G02*
X150666000Y-75717000I0J75000D01*
G01*
G37*
%TD.AperFunction*%
%TO.P,U7,31*%
%TO.N,GND*%
%TA.AperFunction,SMDPad,CuDef*%
G36*
G01*
X150166000Y-75717000D02*
X150166000Y-74317000D01*
G75*
G02*
X150241000Y-74242000I75000J0D01*
G01*
X150391000Y-74242000D01*
G75*
G02*
X150466000Y-74317000I0J-75000D01*
G01*
X150466000Y-75717000D01*
G75*
G02*
X150391000Y-75792000I-75000J0D01*
G01*
X150241000Y-75792000D01*
G75*
G02*
X150166000Y-75717000I0J75000D01*
G01*
G37*
%TD.AperFunction*%
%TO.P,U7,30*%
%TO.N,/STM32L151RET6TR/PIN30*%
%TA.AperFunction,SMDPad,CuDef*%
G36*
G01*
X149666000Y-75717000D02*
X149666000Y-74317000D01*
G75*
G02*
X149741000Y-74242000I75000J0D01*
G01*
X149891000Y-74242000D01*
G75*
G02*
X149966000Y-74317000I0J-75000D01*
G01*
X149966000Y-75717000D01*
G75*
G02*
X149891000Y-75792000I-75000J0D01*
G01*
X149741000Y-75792000D01*
G75*
G02*
X149666000Y-75717000I0J75000D01*
G01*
G37*
%TD.AperFunction*%
%TO.P,U7,29*%
%TO.N,/STM32L151RET6TR/PIN29*%
%TA.AperFunction,SMDPad,CuDef*%
G36*
G01*
X149166000Y-75717000D02*
X149166000Y-74317000D01*
G75*
G02*
X149241000Y-74242000I75000J0D01*
G01*
X149391000Y-74242000D01*
G75*
G02*
X149466000Y-74317000I0J-75000D01*
G01*
X149466000Y-75717000D01*
G75*
G02*
X149391000Y-75792000I-75000J0D01*
G01*
X149241000Y-75792000D01*
G75*
G02*
X149166000Y-75717000I0J75000D01*
G01*
G37*
%TD.AperFunction*%
%TO.P,U7,28*%
%TO.N,SW_2*%
%TA.AperFunction,SMDPad,CuDef*%
G36*
G01*
X148666000Y-75717000D02*
X148666000Y-74317000D01*
G75*
G02*
X148741000Y-74242000I75000J0D01*
G01*
X148891000Y-74242000D01*
G75*
G02*
X148966000Y-74317000I0J-75000D01*
G01*
X148966000Y-75717000D01*
G75*
G02*
X148891000Y-75792000I-75000J0D01*
G01*
X148741000Y-75792000D01*
G75*
G02*
X148666000Y-75717000I0J75000D01*
G01*
G37*
%TD.AperFunction*%
%TO.P,U7,27*%
%TO.N,SW_1*%
%TA.AperFunction,SMDPad,CuDef*%
G36*
G01*
X148166000Y-75717000D02*
X148166000Y-74317000D01*
G75*
G02*
X148241000Y-74242000I75000J0D01*
G01*
X148391000Y-74242000D01*
G75*
G02*
X148466000Y-74317000I0J-75000D01*
G01*
X148466000Y-75717000D01*
G75*
G02*
X148391000Y-75792000I-75000J0D01*
G01*
X148241000Y-75792000D01*
G75*
G02*
X148166000Y-75717000I0J75000D01*
G01*
G37*
%TD.AperFunction*%
%TO.P,U7,26*%
%TO.N,LED_5*%
%TA.AperFunction,SMDPad,CuDef*%
G36*
G01*
X147666000Y-75717000D02*
X147666000Y-74317000D01*
G75*
G02*
X147741000Y-74242000I75000J0D01*
G01*
X147891000Y-74242000D01*
G75*
G02*
X147966000Y-74317000I0J-75000D01*
G01*
X147966000Y-75717000D01*
G75*
G02*
X147891000Y-75792000I-75000J0D01*
G01*
X147741000Y-75792000D01*
G75*
G02*
X147666000Y-75717000I0J75000D01*
G01*
G37*
%TD.AperFunction*%
%TO.P,U7,25*%
%TO.N,GPIOI_2*%
%TA.AperFunction,SMDPad,CuDef*%
G36*
G01*
X147166000Y-75717000D02*
X147166000Y-74317000D01*
G75*
G02*
X147241000Y-74242000I75000J0D01*
G01*
X147391000Y-74242000D01*
G75*
G02*
X147466000Y-74317000I0J-75000D01*
G01*
X147466000Y-75717000D01*
G75*
G02*
X147391000Y-75792000I-75000J0D01*
G01*
X147241000Y-75792000D01*
G75*
G02*
X147166000Y-75717000I0J75000D01*
G01*
G37*
%TD.AperFunction*%
%TO.P,U7,24*%
%TO.N,GPIOI_1*%
%TA.AperFunction,SMDPad,CuDef*%
G36*
G01*
X146666000Y-75717000D02*
X146666000Y-74317000D01*
G75*
G02*
X146741000Y-74242000I75000J0D01*
G01*
X146891000Y-74242000D01*
G75*
G02*
X146966000Y-74317000I0J-75000D01*
G01*
X146966000Y-75717000D01*
G75*
G02*
X146891000Y-75792000I-75000J0D01*
G01*
X146741000Y-75792000D01*
G75*
G02*
X146666000Y-75717000I0J75000D01*
G01*
G37*
%TD.AperFunction*%
%TO.P,U7,23*%
%TO.N,LED_4*%
%TA.AperFunction,SMDPad,CuDef*%
G36*
G01*
X146166000Y-75717000D02*
X146166000Y-74317000D01*
G75*
G02*
X146241000Y-74242000I75000J0D01*
G01*
X146391000Y-74242000D01*
G75*
G02*
X146466000Y-74317000I0J-75000D01*
G01*
X146466000Y-75717000D01*
G75*
G02*
X146391000Y-75792000I-75000J0D01*
G01*
X146241000Y-75792000D01*
G75*
G02*
X146166000Y-75717000I0J75000D01*
G01*
G37*
%TD.AperFunction*%
%TO.P,U7,22*%
%TO.N,LED_3*%
%TA.AperFunction,SMDPad,CuDef*%
G36*
G01*
X145666000Y-75717000D02*
X145666000Y-74317000D01*
G75*
G02*
X145741000Y-74242000I75000J0D01*
G01*
X145891000Y-74242000D01*
G75*
G02*
X145966000Y-74317000I0J-75000D01*
G01*
X145966000Y-75717000D01*
G75*
G02*
X145891000Y-75792000I-75000J0D01*
G01*
X145741000Y-75792000D01*
G75*
G02*
X145666000Y-75717000I0J75000D01*
G01*
G37*
%TD.AperFunction*%
%TO.P,U7,21*%
%TO.N,N/C*%
%TA.AperFunction,SMDPad,CuDef*%
G36*
G01*
X145166000Y-75717000D02*
X145166000Y-74317000D01*
G75*
G02*
X145241000Y-74242000I75000J0D01*
G01*
X145391000Y-74242000D01*
G75*
G02*
X145466000Y-74317000I0J-75000D01*
G01*
X145466000Y-75717000D01*
G75*
G02*
X145391000Y-75792000I-75000J0D01*
G01*
X145241000Y-75792000D01*
G75*
G02*
X145166000Y-75717000I0J75000D01*
G01*
G37*
%TD.AperFunction*%
%TO.P,U7,20*%
%TA.AperFunction,SMDPad,CuDef*%
G36*
G01*
X144666000Y-75717000D02*
X144666000Y-74317000D01*
G75*
G02*
X144741000Y-74242000I75000J0D01*
G01*
X144891000Y-74242000D01*
G75*
G02*
X144966000Y-74317000I0J-75000D01*
G01*
X144966000Y-75717000D01*
G75*
G02*
X144891000Y-75792000I-75000J0D01*
G01*
X144741000Y-75792000D01*
G75*
G02*
X144666000Y-75717000I0J75000D01*
G01*
G37*
%TD.AperFunction*%
%TO.P,U7,19*%
%TO.N,+3V3*%
%TA.AperFunction,SMDPad,CuDef*%
G36*
G01*
X144166000Y-75717000D02*
X144166000Y-74317000D01*
G75*
G02*
X144241000Y-74242000I75000J0D01*
G01*
X144391000Y-74242000D01*
G75*
G02*
X144466000Y-74317000I0J-75000D01*
G01*
X144466000Y-75717000D01*
G75*
G02*
X144391000Y-75792000I-75000J0D01*
G01*
X144241000Y-75792000D01*
G75*
G02*
X144166000Y-75717000I0J75000D01*
G01*
G37*
%TD.AperFunction*%
%TO.P,U7,18*%
%TO.N,GND*%
%TA.AperFunction,SMDPad,CuDef*%
G36*
G01*
X143666000Y-75717000D02*
X143666000Y-74317000D01*
G75*
G02*
X143741000Y-74242000I75000J0D01*
G01*
X143891000Y-74242000D01*
G75*
G02*
X143966000Y-74317000I0J-75000D01*
G01*
X143966000Y-75717000D01*
G75*
G02*
X143891000Y-75792000I-75000J0D01*
G01*
X143741000Y-75792000D01*
G75*
G02*
X143666000Y-75717000I0J75000D01*
G01*
G37*
%TD.AperFunction*%
%TO.P,U7,17*%
%TO.N,/STM32L151RET6TR/UART_RX*%
%TA.AperFunction,SMDPad,CuDef*%
G36*
G01*
X143166000Y-75717000D02*
X143166000Y-74317000D01*
G75*
G02*
X143241000Y-74242000I75000J0D01*
G01*
X143391000Y-74242000D01*
G75*
G02*
X143466000Y-74317000I0J-75000D01*
G01*
X143466000Y-75717000D01*
G75*
G02*
X143391000Y-75792000I-75000J0D01*
G01*
X143241000Y-75792000D01*
G75*
G02*
X143166000Y-75717000I0J75000D01*
G01*
G37*
%TD.AperFunction*%
%TO.P,U7,16*%
%TO.N,/STM32L151RET6TR/UART_TX*%
%TA.AperFunction,SMDPad,CuDef*%
G36*
G01*
X140616000Y-73167000D02*
X140616000Y-73017000D01*
G75*
G02*
X140691000Y-72942000I75000J0D01*
G01*
X142091000Y-72942000D01*
G75*
G02*
X142166000Y-73017000I0J-75000D01*
G01*
X142166000Y-73167000D01*
G75*
G02*
X142091000Y-73242000I-75000J0D01*
G01*
X140691000Y-73242000D01*
G75*
G02*
X140616000Y-73167000I0J75000D01*
G01*
G37*
%TD.AperFunction*%
%TO.P,U7,15*%
%TO.N,LED_2*%
%TA.AperFunction,SMDPad,CuDef*%
G36*
G01*
X140616000Y-72667000D02*
X140616000Y-72517000D01*
G75*
G02*
X140691000Y-72442000I75000J0D01*
G01*
X142091000Y-72442000D01*
G75*
G02*
X142166000Y-72517000I0J-75000D01*
G01*
X142166000Y-72667000D01*
G75*
G02*
X142091000Y-72742000I-75000J0D01*
G01*
X140691000Y-72742000D01*
G75*
G02*
X140616000Y-72667000I0J75000D01*
G01*
G37*
%TD.AperFunction*%
%TO.P,U7,14*%
%TO.N,LED_1*%
%TA.AperFunction,SMDPad,CuDef*%
G36*
G01*
X140616000Y-72167000D02*
X140616000Y-72017000D01*
G75*
G02*
X140691000Y-71942000I75000J0D01*
G01*
X142091000Y-71942000D01*
G75*
G02*
X142166000Y-72017000I0J-75000D01*
G01*
X142166000Y-72167000D01*
G75*
G02*
X142091000Y-72242000I-75000J0D01*
G01*
X140691000Y-72242000D01*
G75*
G02*
X140616000Y-72167000I0J75000D01*
G01*
G37*
%TD.AperFunction*%
%TO.P,U7,13*%
%TO.N,+3V3*%
%TA.AperFunction,SMDPad,CuDef*%
G36*
G01*
X140616000Y-71667000D02*
X140616000Y-71517000D01*
G75*
G02*
X140691000Y-71442000I75000J0D01*
G01*
X142091000Y-71442000D01*
G75*
G02*
X142166000Y-71517000I0J-75000D01*
G01*
X142166000Y-71667000D01*
G75*
G02*
X142091000Y-71742000I-75000J0D01*
G01*
X140691000Y-71742000D01*
G75*
G02*
X140616000Y-71667000I0J75000D01*
G01*
G37*
%TD.AperFunction*%
%TO.P,U7,12*%
%TO.N,GND*%
%TA.AperFunction,SMDPad,CuDef*%
G36*
G01*
X140616000Y-71167000D02*
X140616000Y-71017000D01*
G75*
G02*
X140691000Y-70942000I75000J0D01*
G01*
X142091000Y-70942000D01*
G75*
G02*
X142166000Y-71017000I0J-75000D01*
G01*
X142166000Y-71167000D01*
G75*
G02*
X142091000Y-71242000I-75000J0D01*
G01*
X140691000Y-71242000D01*
G75*
G02*
X140616000Y-71167000I0J75000D01*
G01*
G37*
%TD.AperFunction*%
%TO.P,U7,11*%
%TO.N,GPIOI_0*%
%TA.AperFunction,SMDPad,CuDef*%
G36*
G01*
X140616000Y-70667000D02*
X140616000Y-70517000D01*
G75*
G02*
X140691000Y-70442000I75000J0D01*
G01*
X142091000Y-70442000D01*
G75*
G02*
X142166000Y-70517000I0J-75000D01*
G01*
X142166000Y-70667000D01*
G75*
G02*
X142091000Y-70742000I-75000J0D01*
G01*
X140691000Y-70742000D01*
G75*
G02*
X140616000Y-70667000I0J75000D01*
G01*
G37*
%TD.AperFunction*%
%TO.P,U7,10*%
%TO.N,XSHUT_2*%
%TA.AperFunction,SMDPad,CuDef*%
G36*
G01*
X140616000Y-70167000D02*
X140616000Y-70017000D01*
G75*
G02*
X140691000Y-69942000I75000J0D01*
G01*
X142091000Y-69942000D01*
G75*
G02*
X142166000Y-70017000I0J-75000D01*
G01*
X142166000Y-70167000D01*
G75*
G02*
X142091000Y-70242000I-75000J0D01*
G01*
X140691000Y-70242000D01*
G75*
G02*
X140616000Y-70167000I0J75000D01*
G01*
G37*
%TD.AperFunction*%
%TO.P,U7,9*%
%TO.N,XSHUT_1*%
%TA.AperFunction,SMDPad,CuDef*%
G36*
G01*
X140616000Y-69667000D02*
X140616000Y-69517000D01*
G75*
G02*
X140691000Y-69442000I75000J0D01*
G01*
X142091000Y-69442000D01*
G75*
G02*
X142166000Y-69517000I0J-75000D01*
G01*
X142166000Y-69667000D01*
G75*
G02*
X142091000Y-69742000I-75000J0D01*
G01*
X140691000Y-69742000D01*
G75*
G02*
X140616000Y-69667000I0J75000D01*
G01*
G37*
%TD.AperFunction*%
%TO.P,U7,8*%
%TO.N,XSHUT_0*%
%TA.AperFunction,SMDPad,CuDef*%
G36*
G01*
X140616000Y-69167000D02*
X140616000Y-69017000D01*
G75*
G02*
X140691000Y-68942000I75000J0D01*
G01*
X142091000Y-68942000D01*
G75*
G02*
X142166000Y-69017000I0J-75000D01*
G01*
X142166000Y-69167000D01*
G75*
G02*
X142091000Y-69242000I-75000J0D01*
G01*
X140691000Y-69242000D01*
G75*
G02*
X140616000Y-69167000I0J75000D01*
G01*
G37*
%TD.AperFunction*%
%TO.P,U7,7*%
%TO.N,/STM32L151RET6TR/RST*%
%TA.AperFunction,SMDPad,CuDef*%
G36*
G01*
X140616000Y-68667000D02*
X140616000Y-68517000D01*
G75*
G02*
X140691000Y-68442000I75000J0D01*
G01*
X142091000Y-68442000D01*
G75*
G02*
X142166000Y-68517000I0J-75000D01*
G01*
X142166000Y-68667000D01*
G75*
G02*
X142091000Y-68742000I-75000J0D01*
G01*
X140691000Y-68742000D01*
G75*
G02*
X140616000Y-68667000I0J75000D01*
G01*
G37*
%TD.AperFunction*%
%TO.P,U7,6*%
%TO.N,/STM32L151RET6TR/OSM_OUT*%
%TA.AperFunction,SMDPad,CuDef*%
G36*
G01*
X140616000Y-68167000D02*
X140616000Y-68017000D01*
G75*
G02*
X140691000Y-67942000I75000J0D01*
G01*
X142091000Y-67942000D01*
G75*
G02*
X142166000Y-68017000I0J-75000D01*
G01*
X142166000Y-68167000D01*
G75*
G02*
X142091000Y-68242000I-75000J0D01*
G01*
X140691000Y-68242000D01*
G75*
G02*
X140616000Y-68167000I0J75000D01*
G01*
G37*
%TD.AperFunction*%
%TO.P,U7,5*%
%TO.N,/STM32L151RET6TR/MCO*%
%TA.AperFunction,SMDPad,CuDef*%
G36*
G01*
X140616000Y-67667000D02*
X140616000Y-67517000D01*
G75*
G02*
X140691000Y-67442000I75000J0D01*
G01*
X142091000Y-67442000D01*
G75*
G02*
X142166000Y-67517000I0J-75000D01*
G01*
X142166000Y-67667000D01*
G75*
G02*
X142091000Y-67742000I-75000J0D01*
G01*
X140691000Y-67742000D01*
G75*
G02*
X140616000Y-67667000I0J75000D01*
G01*
G37*
%TD.AperFunction*%
%TO.P,U7,4*%
%TO.N,/STM32L151RET6TR/OS32_OUT*%
%TA.AperFunction,SMDPad,CuDef*%
G36*
G01*
X140616000Y-67167000D02*
X140616000Y-67017000D01*
G75*
G02*
X140691000Y-66942000I75000J0D01*
G01*
X142091000Y-66942000D01*
G75*
G02*
X142166000Y-67017000I0J-75000D01*
G01*
X142166000Y-67167000D01*
G75*
G02*
X142091000Y-67242000I-75000J0D01*
G01*
X140691000Y-67242000D01*
G75*
G02*
X140616000Y-67167000I0J75000D01*
G01*
G37*
%TD.AperFunction*%
%TO.P,U7,3*%
%TO.N,/STM32L151RET6TR/OS32_IN*%
%TA.AperFunction,SMDPad,CuDef*%
G36*
G01*
X140616000Y-66667000D02*
X140616000Y-66517000D01*
G75*
G02*
X140691000Y-66442000I75000J0D01*
G01*
X142091000Y-66442000D01*
G75*
G02*
X142166000Y-66517000I0J-75000D01*
G01*
X142166000Y-66667000D01*
G75*
G02*
X142091000Y-66742000I-75000J0D01*
G01*
X140691000Y-66742000D01*
G75*
G02*
X140616000Y-66667000I0J75000D01*
G01*
G37*
%TD.AperFunction*%
%TO.P,U7,2*%
%TO.N,N/C*%
%TA.AperFunction,SMDPad,CuDef*%
G36*
G01*
X140616000Y-66167000D02*
X140616000Y-66017000D01*
G75*
G02*
X140691000Y-65942000I75000J0D01*
G01*
X142091000Y-65942000D01*
G75*
G02*
X142166000Y-66017000I0J-75000D01*
G01*
X142166000Y-66167000D01*
G75*
G02*
X142091000Y-66242000I-75000J0D01*
G01*
X140691000Y-66242000D01*
G75*
G02*
X140616000Y-66167000I0J75000D01*
G01*
G37*
%TD.AperFunction*%
%TO.P,U7,1*%
%TO.N,+3V3*%
%TA.AperFunction,SMDPad,CuDef*%
G36*
G01*
X140616000Y-65667000D02*
X140616000Y-65517000D01*
G75*
G02*
X140691000Y-65442000I75000J0D01*
G01*
X142091000Y-65442000D01*
G75*
G02*
X142166000Y-65517000I0J-75000D01*
G01*
X142166000Y-65667000D01*
G75*
G02*
X142091000Y-65742000I-75000J0D01*
G01*
X140691000Y-65742000D01*
G75*
G02*
X140616000Y-65667000I0J75000D01*
G01*
G37*
%TD.AperFunction*%
%TD*%
%TO.P,U6,64*%
%TO.N,+3V3*%
%TA.AperFunction,SMDPad,CuDef*%
G36*
G01*
X143166000Y-64367000D02*
X143166000Y-62967000D01*
G75*
G02*
X143241000Y-62892000I75000J0D01*
G01*
X143391000Y-62892000D01*
G75*
G02*
X143466000Y-62967000I0J-75000D01*
G01*
X143466000Y-64367000D01*
G75*
G02*
X143391000Y-64442000I-75000J0D01*
G01*
X143241000Y-64442000D01*
G75*
G02*
X143166000Y-64367000I0J75000D01*
G01*
G37*
%TD.AperFunction*%
%TO.P,U6,63*%
%TO.N,GND*%
%TA.AperFunction,SMDPad,CuDef*%
G36*
G01*
X143666000Y-64367000D02*
X143666000Y-62967000D01*
G75*
G02*
X143741000Y-62892000I75000J0D01*
G01*
X143891000Y-62892000D01*
G75*
G02*
X143966000Y-62967000I0J-75000D01*
G01*
X143966000Y-64367000D01*
G75*
G02*
X143891000Y-64442000I-75000J0D01*
G01*
X143741000Y-64442000D01*
G75*
G02*
X143666000Y-64367000I0J75000D01*
G01*
G37*
%TD.AperFunction*%
%TO.P,U6,62*%
%TO.N,SDA1*%
%TA.AperFunction,SMDPad,CuDef*%
G36*
G01*
X144166000Y-64367000D02*
X144166000Y-62967000D01*
G75*
G02*
X144241000Y-62892000I75000J0D01*
G01*
X144391000Y-62892000D01*
G75*
G02*
X144466000Y-62967000I0J-75000D01*
G01*
X144466000Y-64367000D01*
G75*
G02*
X144391000Y-64442000I-75000J0D01*
G01*
X144241000Y-64442000D01*
G75*
G02*
X144166000Y-64367000I0J75000D01*
G01*
G37*
%TD.AperFunction*%
%TO.P,U6,61*%
%TO.N,SCL1*%
%TA.AperFunction,SMDPad,CuDef*%
G36*
G01*
X144666000Y-64367000D02*
X144666000Y-62967000D01*
G75*
G02*
X144741000Y-62892000I75000J0D01*
G01*
X144891000Y-62892000D01*
G75*
G02*
X144966000Y-62967000I0J-75000D01*
G01*
X144966000Y-64367000D01*
G75*
G02*
X144891000Y-64442000I-75000J0D01*
G01*
X144741000Y-64442000D01*
G75*
G02*
X144666000Y-64367000I0J75000D01*
G01*
G37*
%TD.AperFunction*%
%TO.P,U6,60*%
%TO.N,/STM32L151RET6TR/BOOT*%
%TA.AperFunction,SMDPad,CuDef*%
G36*
G01*
X145166000Y-64367000D02*
X145166000Y-62967000D01*
G75*
G02*
X145241000Y-62892000I75000J0D01*
G01*
X145391000Y-62892000D01*
G75*
G02*
X145466000Y-62967000I0J-75000D01*
G01*
X145466000Y-64367000D01*
G75*
G02*
X145391000Y-64442000I-75000J0D01*
G01*
X145241000Y-64442000D01*
G75*
G02*
X145166000Y-64367000I0J75000D01*
G01*
G37*
%TD.AperFunction*%
%TO.P,U6,59*%
%TO.N,/STM32L151RET6TR/FTDI_RXD*%
%TA.AperFunction,SMDPad,CuDef*%
G36*
G01*
X145666000Y-64367000D02*
X145666000Y-62967000D01*
G75*
G02*
X145741000Y-62892000I75000J0D01*
G01*
X145891000Y-62892000D01*
G75*
G02*
X145966000Y-62967000I0J-75000D01*
G01*
X145966000Y-64367000D01*
G75*
G02*
X145891000Y-64442000I-75000J0D01*
G01*
X145741000Y-64442000D01*
G75*
G02*
X145666000Y-64367000I0J75000D01*
G01*
G37*
%TD.AperFunction*%
%TO.P,U6,58*%
%TO.N,/STM32L151RET6TR/FTDI_TXD*%
%TA.AperFunction,SMDPad,CuDef*%
G36*
G01*
X146166000Y-64367000D02*
X146166000Y-62967000D01*
G75*
G02*
X146241000Y-62892000I75000J0D01*
G01*
X146391000Y-62892000D01*
G75*
G02*
X146466000Y-62967000I0J-75000D01*
G01*
X146466000Y-64367000D01*
G75*
G02*
X146391000Y-64442000I-75000J0D01*
G01*
X146241000Y-64442000D01*
G75*
G02*
X146166000Y-64367000I0J75000D01*
G01*
G37*
%TD.AperFunction*%
%TO.P,U6,57*%
%TO.N,N/C*%
%TA.AperFunction,SMDPad,CuDef*%
G36*
G01*
X146666000Y-64367000D02*
X146666000Y-62967000D01*
G75*
G02*
X146741000Y-62892000I75000J0D01*
G01*
X146891000Y-62892000D01*
G75*
G02*
X146966000Y-62967000I0J-75000D01*
G01*
X146966000Y-64367000D01*
G75*
G02*
X146891000Y-64442000I-75000J0D01*
G01*
X146741000Y-64442000D01*
G75*
G02*
X146666000Y-64367000I0J75000D01*
G01*
G37*
%TD.AperFunction*%
%TO.P,U6,56*%
%TA.AperFunction,SMDPad,CuDef*%
G36*
G01*
X147166000Y-64367000D02*
X147166000Y-62967000D01*
G75*
G02*
X147241000Y-62892000I75000J0D01*
G01*
X147391000Y-62892000D01*
G75*
G02*
X147466000Y-62967000I0J-75000D01*
G01*
X147466000Y-64367000D01*
G75*
G02*
X147391000Y-64442000I-75000J0D01*
G01*
X147241000Y-64442000D01*
G75*
G02*
X147166000Y-64367000I0J75000D01*
G01*
G37*
%TD.AperFunction*%
%TO.P,U6,55*%
%TO.N,/STM32L151RET6TR/SW0*%
%TA.AperFunction,SMDPad,CuDef*%
G36*
G01*
X147666000Y-64367000D02*
X147666000Y-62967000D01*
G75*
G02*
X147741000Y-62892000I75000J0D01*
G01*
X147891000Y-62892000D01*
G75*
G02*
X147966000Y-62967000I0J-75000D01*
G01*
X147966000Y-64367000D01*
G75*
G02*
X147891000Y-64442000I-75000J0D01*
G01*
X147741000Y-64442000D01*
G75*
G02*
X147666000Y-64367000I0J75000D01*
G01*
G37*
%TD.AperFunction*%
%TO.P,U6,54*%
%TO.N,N/C*%
%TA.AperFunction,SMDPad,CuDef*%
G36*
G01*
X148166000Y-64367000D02*
X148166000Y-62967000D01*
G75*
G02*
X148241000Y-62892000I75000J0D01*
G01*
X148391000Y-62892000D01*
G75*
G02*
X148466000Y-62967000I0J-75000D01*
G01*
X148466000Y-64367000D01*
G75*
G02*
X148391000Y-64442000I-75000J0D01*
G01*
X148241000Y-64442000D01*
G75*
G02*
X148166000Y-64367000I0J75000D01*
G01*
G37*
%TD.AperFunction*%
%TO.P,U6,53*%
%TA.AperFunction,SMDPad,CuDef*%
G36*
G01*
X148666000Y-64367000D02*
X148666000Y-62967000D01*
G75*
G02*
X148741000Y-62892000I75000J0D01*
G01*
X148891000Y-62892000D01*
G75*
G02*
X148966000Y-62967000I0J-75000D01*
G01*
X148966000Y-64367000D01*
G75*
G02*
X148891000Y-64442000I-75000J0D01*
G01*
X148741000Y-64442000D01*
G75*
G02*
X148666000Y-64367000I0J75000D01*
G01*
G37*
%TD.AperFunction*%
%TO.P,U6,52*%
%TA.AperFunction,SMDPad,CuDef*%
G36*
G01*
X149166000Y-64367000D02*
X149166000Y-62967000D01*
G75*
G02*
X149241000Y-62892000I75000J0D01*
G01*
X149391000Y-62892000D01*
G75*
G02*
X149466000Y-62967000I0J-75000D01*
G01*
X149466000Y-64367000D01*
G75*
G02*
X149391000Y-64442000I-75000J0D01*
G01*
X149241000Y-64442000D01*
G75*
G02*
X149166000Y-64367000I0J75000D01*
G01*
G37*
%TD.AperFunction*%
%TO.P,U6,51*%
%TA.AperFunction,SMDPad,CuDef*%
G36*
G01*
X149666000Y-64367000D02*
X149666000Y-62967000D01*
G75*
G02*
X149741000Y-62892000I75000J0D01*
G01*
X149891000Y-62892000D01*
G75*
G02*
X149966000Y-62967000I0J-75000D01*
G01*
X149966000Y-64367000D01*
G75*
G02*
X149891000Y-64442000I-75000J0D01*
G01*
X149741000Y-64442000D01*
G75*
G02*
X149666000Y-64367000I0J75000D01*
G01*
G37*
%TD.AperFunction*%
%TO.P,U6,50*%
%TA.AperFunction,SMDPad,CuDef*%
G36*
G01*
X150166000Y-64367000D02*
X150166000Y-62967000D01*
G75*
G02*
X150241000Y-62892000I75000J0D01*
G01*
X150391000Y-62892000D01*
G75*
G02*
X150466000Y-62967000I0J-75000D01*
G01*
X150466000Y-64367000D01*
G75*
G02*
X150391000Y-64442000I-75000J0D01*
G01*
X150241000Y-64442000D01*
G75*
G02*
X150166000Y-64367000I0J75000D01*
G01*
G37*
%TD.AperFunction*%
%TO.P,U6,49*%
%TO.N,/STM32L151RET6TR/SWCLK*%
%TA.AperFunction,SMDPad,CuDef*%
G36*
G01*
X150666000Y-64367000D02*
X150666000Y-62967000D01*
G75*
G02*
X150741000Y-62892000I75000J0D01*
G01*
X150891000Y-62892000D01*
G75*
G02*
X150966000Y-62967000I0J-75000D01*
G01*
X150966000Y-64367000D01*
G75*
G02*
X150891000Y-64442000I-75000J0D01*
G01*
X150741000Y-64442000D01*
G75*
G02*
X150666000Y-64367000I0J75000D01*
G01*
G37*
%TD.AperFunction*%
%TO.P,U6,48*%
%TO.N,+3V3*%
%TA.AperFunction,SMDPad,CuDef*%
G36*
G01*
X151966000Y-65667000D02*
X151966000Y-65517000D01*
G75*
G02*
X152041000Y-65442000I75000J0D01*
G01*
X153441000Y-65442000D01*
G75*
G02*
X153516000Y-65517000I0J-75000D01*
G01*
X153516000Y-65667000D01*
G75*
G02*
X153441000Y-65742000I-75000J0D01*
G01*
X152041000Y-65742000D01*
G75*
G02*
X151966000Y-65667000I0J75000D01*
G01*
G37*
%TD.AperFunction*%
%TO.P,U6,47*%
%TO.N,GND*%
%TA.AperFunction,SMDPad,CuDef*%
G36*
G01*
X151966000Y-66167000D02*
X151966000Y-66017000D01*
G75*
G02*
X152041000Y-65942000I75000J0D01*
G01*
X153441000Y-65942000D01*
G75*
G02*
X153516000Y-66017000I0J-75000D01*
G01*
X153516000Y-66167000D01*
G75*
G02*
X153441000Y-66242000I-75000J0D01*
G01*
X152041000Y-66242000D01*
G75*
G02*
X151966000Y-66167000I0J75000D01*
G01*
G37*
%TD.AperFunction*%
%TO.P,U6,46*%
%TO.N,/STM32L151RET6TR/SWDAT*%
%TA.AperFunction,SMDPad,CuDef*%
G36*
G01*
X151966000Y-66667000D02*
X151966000Y-66517000D01*
G75*
G02*
X152041000Y-66442000I75000J0D01*
G01*
X153441000Y-66442000D01*
G75*
G02*
X153516000Y-66517000I0J-75000D01*
G01*
X153516000Y-66667000D01*
G75*
G02*
X153441000Y-66742000I-75000J0D01*
G01*
X152041000Y-66742000D01*
G75*
G02*
X151966000Y-66667000I0J75000D01*
G01*
G37*
%TD.AperFunction*%
%TO.P,U6,45*%
%TO.N,/STM32L151RET6TR/FTDI_RTS*%
%TA.AperFunction,SMDPad,CuDef*%
G36*
G01*
X151966000Y-67167000D02*
X151966000Y-67017000D01*
G75*
G02*
X152041000Y-66942000I75000J0D01*
G01*
X153441000Y-66942000D01*
G75*
G02*
X153516000Y-67017000I0J-75000D01*
G01*
X153516000Y-67167000D01*
G75*
G02*
X153441000Y-67242000I-75000J0D01*
G01*
X152041000Y-67242000D01*
G75*
G02*
X151966000Y-67167000I0J75000D01*
G01*
G37*
%TD.AperFunction*%
%TO.P,U6,44*%
%TO.N,/STM32L151RET6TR/FTDI_CTS*%
%TA.AperFunction,SMDPad,CuDef*%
G36*
G01*
X151966000Y-67667000D02*
X151966000Y-67517000D01*
G75*
G02*
X152041000Y-67442000I75000J0D01*
G01*
X153441000Y-67442000D01*
G75*
G02*
X153516000Y-67517000I0J-75000D01*
G01*
X153516000Y-67667000D01*
G75*
G02*
X153441000Y-67742000I-75000J0D01*
G01*
X152041000Y-67742000D01*
G75*
G02*
X151966000Y-67667000I0J75000D01*
G01*
G37*
%TD.AperFunction*%
%TO.P,U6,43*%
%TO.N,/STM32L151RET6TR/PA10*%
%TA.AperFunction,SMDPad,CuDef*%
G36*
G01*
X151966000Y-68167000D02*
X151966000Y-68017000D01*
G75*
G02*
X152041000Y-67942000I75000J0D01*
G01*
X153441000Y-67942000D01*
G75*
G02*
X153516000Y-68017000I0J-75000D01*
G01*
X153516000Y-68167000D01*
G75*
G02*
X153441000Y-68242000I-75000J0D01*
G01*
X152041000Y-68242000D01*
G75*
G02*
X151966000Y-68167000I0J75000D01*
G01*
G37*
%TD.AperFunction*%
%TO.P,U6,42*%
%TO.N,/STM32L151RET6TR/PA9*%
%TA.AperFunction,SMDPad,CuDef*%
G36*
G01*
X151966000Y-68667000D02*
X151966000Y-68517000D01*
G75*
G02*
X152041000Y-68442000I75000J0D01*
G01*
X153441000Y-68442000D01*
G75*
G02*
X153516000Y-68517000I0J-75000D01*
G01*
X153516000Y-68667000D01*
G75*
G02*
X153441000Y-68742000I-75000J0D01*
G01*
X152041000Y-68742000D01*
G75*
G02*
X151966000Y-68667000I0J75000D01*
G01*
G37*
%TD.AperFunction*%
%TO.P,U6,41*%
%TO.N,/STM32L151RET6TR/PIN41*%
%TA.AperFunction,SMDPad,CuDef*%
G36*
G01*
X151966000Y-69167000D02*
X151966000Y-69017000D01*
G75*
G02*
X152041000Y-68942000I75000J0D01*
G01*
X153441000Y-68942000D01*
G75*
G02*
X153516000Y-69017000I0J-75000D01*
G01*
X153516000Y-69167000D01*
G75*
G02*
X153441000Y-69242000I-75000J0D01*
G01*
X152041000Y-69242000D01*
G75*
G02*
X151966000Y-69167000I0J75000D01*
G01*
G37*
%TD.AperFunction*%
%TO.P,U6,40*%
%TO.N,SDA2*%
%TA.AperFunction,SMDPad,CuDef*%
G36*
G01*
X151966000Y-69667000D02*
X151966000Y-69517000D01*
G75*
G02*
X152041000Y-69442000I75000J0D01*
G01*
X153441000Y-69442000D01*
G75*
G02*
X153516000Y-69517000I0J-75000D01*
G01*
X153516000Y-69667000D01*
G75*
G02*
X153441000Y-69742000I-75000J0D01*
G01*
X152041000Y-69742000D01*
G75*
G02*
X151966000Y-69667000I0J75000D01*
G01*
G37*
%TD.AperFunction*%
%TO.P,U6,39*%
%TO.N,/STM32L151RET6TR/PC8*%
%TA.AperFunction,SMDPad,CuDef*%
G36*
G01*
X151966000Y-70167000D02*
X151966000Y-70017000D01*
G75*
G02*
X152041000Y-69942000I75000J0D01*
G01*
X153441000Y-69942000D01*
G75*
G02*
X153516000Y-70017000I0J-75000D01*
G01*
X153516000Y-70167000D01*
G75*
G02*
X153441000Y-70242000I-75000J0D01*
G01*
X152041000Y-70242000D01*
G75*
G02*
X151966000Y-70167000I0J75000D01*
G01*
G37*
%TD.AperFunction*%
%TO.P,U6,38*%
%TO.N,/STM32L151RET6TR/PC7*%
%TA.AperFunction,SMDPad,CuDef*%
G36*
G01*
X151966000Y-70667000D02*
X151966000Y-70517000D01*
G75*
G02*
X152041000Y-70442000I75000J0D01*
G01*
X153441000Y-70442000D01*
G75*
G02*
X153516000Y-70517000I0J-75000D01*
G01*
X153516000Y-70667000D01*
G75*
G02*
X153441000Y-70742000I-75000J0D01*
G01*
X152041000Y-70742000D01*
G75*
G02*
X151966000Y-70667000I0J75000D01*
G01*
G37*
%TD.AperFunction*%
%TO.P,U6,37*%
%TO.N,/STM32L151RET6TR/PC6*%
%TA.AperFunction,SMDPad,CuDef*%
G36*
G01*
X151966000Y-71167000D02*
X151966000Y-71017000D01*
G75*
G02*
X152041000Y-70942000I75000J0D01*
G01*
X153441000Y-70942000D01*
G75*
G02*
X153516000Y-71017000I0J-75000D01*
G01*
X153516000Y-71167000D01*
G75*
G02*
X153441000Y-71242000I-75000J0D01*
G01*
X152041000Y-71242000D01*
G75*
G02*
X151966000Y-71167000I0J75000D01*
G01*
G37*
%TD.AperFunction*%
%TO.P,U6,36*%
%TO.N,/STM32L151RET6TR/PB15*%
%TA.AperFunction,SMDPad,CuDef*%
G36*
G01*
X151966000Y-71667000D02*
X151966000Y-71517000D01*
G75*
G02*
X152041000Y-71442000I75000J0D01*
G01*
X153441000Y-71442000D01*
G75*
G02*
X153516000Y-71517000I0J-75000D01*
G01*
X153516000Y-71667000D01*
G75*
G02*
X153441000Y-71742000I-75000J0D01*
G01*
X152041000Y-71742000D01*
G75*
G02*
X151966000Y-71667000I0J75000D01*
G01*
G37*
%TD.AperFunction*%
%TO.P,U6,35*%
%TO.N,/STM32L151RET6TR/PB14*%
%TA.AperFunction,SMDPad,CuDef*%
G36*
G01*
X151966000Y-72167000D02*
X151966000Y-72017000D01*
G75*
G02*
X152041000Y-71942000I75000J0D01*
G01*
X153441000Y-71942000D01*
G75*
G02*
X153516000Y-72017000I0J-75000D01*
G01*
X153516000Y-72167000D01*
G75*
G02*
X153441000Y-72242000I-75000J0D01*
G01*
X152041000Y-72242000D01*
G75*
G02*
X151966000Y-72167000I0J75000D01*
G01*
G37*
%TD.AperFunction*%
%TO.P,U6,34*%
%TO.N,/STM32L151RET6TR/PB13*%
%TA.AperFunction,SMDPad,CuDef*%
G36*
G01*
X151966000Y-72667000D02*
X151966000Y-72517000D01*
G75*
G02*
X152041000Y-72442000I75000J0D01*
G01*
X153441000Y-72442000D01*
G75*
G02*
X153516000Y-72517000I0J-75000D01*
G01*
X153516000Y-72667000D01*
G75*
G02*
X153441000Y-72742000I-75000J0D01*
G01*
X152041000Y-72742000D01*
G75*
G02*
X151966000Y-72667000I0J75000D01*
G01*
G37*
%TD.AperFunction*%
%TO.P,U6,33*%
%TO.N,/STM32L151RET6TR/PB12*%
%TA.AperFunction,SMDPad,CuDef*%
G36*
G01*
X151966000Y-73167000D02*
X151966000Y-73017000D01*
G75*
G02*
X152041000Y-72942000I75000J0D01*
G01*
X153441000Y-72942000D01*
G75*
G02*
X153516000Y-73017000I0J-75000D01*
G01*
X153516000Y-73167000D01*
G75*
G02*
X153441000Y-73242000I-75000J0D01*
G01*
X152041000Y-73242000D01*
G75*
G02*
X151966000Y-73167000I0J75000D01*
G01*
G37*
%TD.AperFunction*%
%TO.P,U6,32*%
%TO.N,+3V3*%
%TA.AperFunction,SMDPad,CuDef*%
G36*
G01*
X150666000Y-75717000D02*
X150666000Y-74317000D01*
G75*
G02*
X150741000Y-74242000I75000J0D01*
G01*
X150891000Y-74242000D01*
G75*
G02*
X150966000Y-74317000I0J-75000D01*
G01*
X150966000Y-75717000D01*
G75*
G02*
X150891000Y-75792000I-75000J0D01*
G01*
X150741000Y-75792000D01*
G75*
G02*
X150666000Y-75717000I0J75000D01*
G01*
G37*
%TD.AperFunction*%
%TO.P,U6,31*%
%TO.N,GND*%
%TA.AperFunction,SMDPad,CuDef*%
G36*
G01*
X150166000Y-75717000D02*
X150166000Y-74317000D01*
G75*
G02*
X150241000Y-74242000I75000J0D01*
G01*
X150391000Y-74242000D01*
G75*
G02*
X150466000Y-74317000I0J-75000D01*
G01*
X150466000Y-75717000D01*
G75*
G02*
X150391000Y-75792000I-75000J0D01*
G01*
X150241000Y-75792000D01*
G75*
G02*
X150166000Y-75717000I0J75000D01*
G01*
G37*
%TD.AperFunction*%
%TO.P,U6,30*%
%TO.N,/STM32L151RET6TR/PIN30*%
%TA.AperFunction,SMDPad,CuDef*%
G36*
G01*
X149666000Y-75717000D02*
X149666000Y-74317000D01*
G75*
G02*
X149741000Y-74242000I75000J0D01*
G01*
X149891000Y-74242000D01*
G75*
G02*
X149966000Y-74317000I0J-75000D01*
G01*
X149966000Y-75717000D01*
G75*
G02*
X149891000Y-75792000I-75000J0D01*
G01*
X149741000Y-75792000D01*
G75*
G02*
X149666000Y-75717000I0J75000D01*
G01*
G37*
%TD.AperFunction*%
%TO.P,U6,29*%
%TO.N,/STM32L151RET6TR/PIN29*%
%TA.AperFunction,SMDPad,CuDef*%
G36*
G01*
X149166000Y-75717000D02*
X149166000Y-74317000D01*
G75*
G02*
X149241000Y-74242000I75000J0D01*
G01*
X149391000Y-74242000D01*
G75*
G02*
X149466000Y-74317000I0J-75000D01*
G01*
X149466000Y-75717000D01*
G75*
G02*
X149391000Y-75792000I-75000J0D01*
G01*
X149241000Y-75792000D01*
G75*
G02*
X149166000Y-75717000I0J75000D01*
G01*
G37*
%TD.AperFunction*%
%TO.P,U6,28*%
%TO.N,SW_2*%
%TA.AperFunction,SMDPad,CuDef*%
G36*
G01*
X148666000Y-75717000D02*
X148666000Y-74317000D01*
G75*
G02*
X148741000Y-74242000I75000J0D01*
G01*
X148891000Y-74242000D01*
G75*
G02*
X148966000Y-74317000I0J-75000D01*
G01*
X148966000Y-75717000D01*
G75*
G02*
X148891000Y-75792000I-75000J0D01*
G01*
X148741000Y-75792000D01*
G75*
G02*
X148666000Y-75717000I0J75000D01*
G01*
G37*
%TD.AperFunction*%
%TO.P,U6,27*%
%TO.N,SW_1*%
%TA.AperFunction,SMDPad,CuDef*%
G36*
G01*
X148166000Y-75717000D02*
X148166000Y-74317000D01*
G75*
G02*
X148241000Y-74242000I75000J0D01*
G01*
X148391000Y-74242000D01*
G75*
G02*
X148466000Y-74317000I0J-75000D01*
G01*
X148466000Y-75717000D01*
G75*
G02*
X148391000Y-75792000I-75000J0D01*
G01*
X148241000Y-75792000D01*
G75*
G02*
X148166000Y-75717000I0J75000D01*
G01*
G37*
%TD.AperFunction*%
%TO.P,U6,26*%
%TO.N,LED_5*%
%TA.AperFunction,SMDPad,CuDef*%
G36*
G01*
X147666000Y-75717000D02*
X147666000Y-74317000D01*
G75*
G02*
X147741000Y-74242000I75000J0D01*
G01*
X147891000Y-74242000D01*
G75*
G02*
X147966000Y-74317000I0J-75000D01*
G01*
X147966000Y-75717000D01*
G75*
G02*
X147891000Y-75792000I-75000J0D01*
G01*
X147741000Y-75792000D01*
G75*
G02*
X147666000Y-75717000I0J75000D01*
G01*
G37*
%TD.AperFunction*%
%TO.P,U6,25*%
%TO.N,GPIOI_2*%
%TA.AperFunction,SMDPad,CuDef*%
G36*
G01*
X147166000Y-75717000D02*
X147166000Y-74317000D01*
G75*
G02*
X147241000Y-74242000I75000J0D01*
G01*
X147391000Y-74242000D01*
G75*
G02*
X147466000Y-74317000I0J-75000D01*
G01*
X147466000Y-75717000D01*
G75*
G02*
X147391000Y-75792000I-75000J0D01*
G01*
X147241000Y-75792000D01*
G75*
G02*
X147166000Y-75717000I0J75000D01*
G01*
G37*
%TD.AperFunction*%
%TO.P,U6,24*%
%TO.N,GPIOI_1*%
%TA.AperFunction,SMDPad,CuDef*%
G36*
G01*
X146666000Y-75717000D02*
X146666000Y-74317000D01*
G75*
G02*
X146741000Y-74242000I75000J0D01*
G01*
X146891000Y-74242000D01*
G75*
G02*
X146966000Y-74317000I0J-75000D01*
G01*
X146966000Y-75717000D01*
G75*
G02*
X146891000Y-75792000I-75000J0D01*
G01*
X146741000Y-75792000D01*
G75*
G02*
X146666000Y-75717000I0J75000D01*
G01*
G37*
%TD.AperFunction*%
%TO.P,U6,23*%
%TO.N,LED_4*%
%TA.AperFunction,SMDPad,CuDef*%
G36*
G01*
X146166000Y-75717000D02*
X146166000Y-74317000D01*
G75*
G02*
X146241000Y-74242000I75000J0D01*
G01*
X146391000Y-74242000D01*
G75*
G02*
X146466000Y-74317000I0J-75000D01*
G01*
X146466000Y-75717000D01*
G75*
G02*
X146391000Y-75792000I-75000J0D01*
G01*
X146241000Y-75792000D01*
G75*
G02*
X146166000Y-75717000I0J75000D01*
G01*
G37*
%TD.AperFunction*%
%TO.P,U6,22*%
%TO.N,LED_3*%
%TA.AperFunction,SMDPad,CuDef*%
G36*
G01*
X145666000Y-75717000D02*
X145666000Y-74317000D01*
G75*
G02*
X145741000Y-74242000I75000J0D01*
G01*
X145891000Y-74242000D01*
G75*
G02*
X145966000Y-74317000I0J-75000D01*
G01*
X145966000Y-75717000D01*
G75*
G02*
X145891000Y-75792000I-75000J0D01*
G01*
X145741000Y-75792000D01*
G75*
G02*
X145666000Y-75717000I0J75000D01*
G01*
G37*
%TD.AperFunction*%
%TO.P,U6,21*%
%TO.N,N/C*%
%TA.AperFunction,SMDPad,CuDef*%
G36*
G01*
X145166000Y-75717000D02*
X145166000Y-74317000D01*
G75*
G02*
X145241000Y-74242000I75000J0D01*
G01*
X145391000Y-74242000D01*
G75*
G02*
X145466000Y-74317000I0J-75000D01*
G01*
X145466000Y-75717000D01*
G75*
G02*
X145391000Y-75792000I-75000J0D01*
G01*
X145241000Y-75792000D01*
G75*
G02*
X145166000Y-75717000I0J75000D01*
G01*
G37*
%TD.AperFunction*%
%TO.P,U6,20*%
%TA.AperFunction,SMDPad,CuDef*%
G36*
G01*
X144666000Y-75717000D02*
X144666000Y-74317000D01*
G75*
G02*
X144741000Y-74242000I75000J0D01*
G01*
X144891000Y-74242000D01*
G75*
G02*
X144966000Y-74317000I0J-75000D01*
G01*
X144966000Y-75717000D01*
G75*
G02*
X144891000Y-75792000I-75000J0D01*
G01*
X144741000Y-75792000D01*
G75*
G02*
X144666000Y-75717000I0J75000D01*
G01*
G37*
%TD.AperFunction*%
%TO.P,U6,19*%
%TO.N,+3V3*%
%TA.AperFunction,SMDPad,CuDef*%
G36*
G01*
X144166000Y-75717000D02*
X144166000Y-74317000D01*
G75*
G02*
X144241000Y-74242000I75000J0D01*
G01*
X144391000Y-74242000D01*
G75*
G02*
X144466000Y-74317000I0J-75000D01*
G01*
X144466000Y-75717000D01*
G75*
G02*
X144391000Y-75792000I-75000J0D01*
G01*
X144241000Y-75792000D01*
G75*
G02*
X144166000Y-75717000I0J75000D01*
G01*
G37*
%TD.AperFunction*%
%TO.P,U6,18*%
%TO.N,GND*%
%TA.AperFunction,SMDPad,CuDef*%
G36*
G01*
X143666000Y-75717000D02*
X143666000Y-74317000D01*
G75*
G02*
X143741000Y-74242000I75000J0D01*
G01*
X143891000Y-74242000D01*
G75*
G02*
X143966000Y-74317000I0J-75000D01*
G01*
X143966000Y-75717000D01*
G75*
G02*
X143891000Y-75792000I-75000J0D01*
G01*
X143741000Y-75792000D01*
G75*
G02*
X143666000Y-75717000I0J75000D01*
G01*
G37*
%TD.AperFunction*%
%TO.P,U6,17*%
%TO.N,/STM32L151RET6TR/UART_RX*%
%TA.AperFunction,SMDPad,CuDef*%
G36*
G01*
X143166000Y-75717000D02*
X143166000Y-74317000D01*
G75*
G02*
X143241000Y-74242000I75000J0D01*
G01*
X143391000Y-74242000D01*
G75*
G02*
X143466000Y-74317000I0J-75000D01*
G01*
X143466000Y-75717000D01*
G75*
G02*
X143391000Y-75792000I-75000J0D01*
G01*
X143241000Y-75792000D01*
G75*
G02*
X143166000Y-75717000I0J75000D01*
G01*
G37*
%TD.AperFunction*%
%TO.P,U6,16*%
%TO.N,/STM32L151RET6TR/UART_TX*%
%TA.AperFunction,SMDPad,CuDef*%
G36*
G01*
X140616000Y-73167000D02*
X140616000Y-73017000D01*
G75*
G02*
X140691000Y-72942000I75000J0D01*
G01*
X142091000Y-72942000D01*
G75*
G02*
X142166000Y-73017000I0J-75000D01*
G01*
X142166000Y-73167000D01*
G75*
G02*
X142091000Y-73242000I-75000J0D01*
G01*
X140691000Y-73242000D01*
G75*
G02*
X140616000Y-73167000I0J75000D01*
G01*
G37*
%TD.AperFunction*%
%TO.P,U6,15*%
%TO.N,LED_2*%
%TA.AperFunction,SMDPad,CuDef*%
G36*
G01*
X140616000Y-72667000D02*
X140616000Y-72517000D01*
G75*
G02*
X140691000Y-72442000I75000J0D01*
G01*
X142091000Y-72442000D01*
G75*
G02*
X142166000Y-72517000I0J-75000D01*
G01*
X142166000Y-72667000D01*
G75*
G02*
X142091000Y-72742000I-75000J0D01*
G01*
X140691000Y-72742000D01*
G75*
G02*
X140616000Y-72667000I0J75000D01*
G01*
G37*
%TD.AperFunction*%
%TO.P,U6,14*%
%TO.N,LED_1*%
%TA.AperFunction,SMDPad,CuDef*%
G36*
G01*
X140616000Y-72167000D02*
X140616000Y-72017000D01*
G75*
G02*
X140691000Y-71942000I75000J0D01*
G01*
X142091000Y-71942000D01*
G75*
G02*
X142166000Y-72017000I0J-75000D01*
G01*
X142166000Y-72167000D01*
G75*
G02*
X142091000Y-72242000I-75000J0D01*
G01*
X140691000Y-72242000D01*
G75*
G02*
X140616000Y-72167000I0J75000D01*
G01*
G37*
%TD.AperFunction*%
%TO.P,U6,13*%
%TO.N,+3V3*%
%TA.AperFunction,SMDPad,CuDef*%
G36*
G01*
X140616000Y-71667000D02*
X140616000Y-71517000D01*
G75*
G02*
X140691000Y-71442000I75000J0D01*
G01*
X142091000Y-71442000D01*
G75*
G02*
X142166000Y-71517000I0J-75000D01*
G01*
X142166000Y-71667000D01*
G75*
G02*
X142091000Y-71742000I-75000J0D01*
G01*
X140691000Y-71742000D01*
G75*
G02*
X140616000Y-71667000I0J75000D01*
G01*
G37*
%TD.AperFunction*%
%TO.P,U6,12*%
%TO.N,GND*%
%TA.AperFunction,SMDPad,CuDef*%
G36*
G01*
X140616000Y-71167000D02*
X140616000Y-71017000D01*
G75*
G02*
X140691000Y-70942000I75000J0D01*
G01*
X142091000Y-70942000D01*
G75*
G02*
X142166000Y-71017000I0J-75000D01*
G01*
X142166000Y-71167000D01*
G75*
G02*
X142091000Y-71242000I-75000J0D01*
G01*
X140691000Y-71242000D01*
G75*
G02*
X140616000Y-71167000I0J75000D01*
G01*
G37*
%TD.AperFunction*%
%TO.P,U6,11*%
%TO.N,GPIOI_0*%
%TA.AperFunction,SMDPad,CuDef*%
G36*
G01*
X140616000Y-70667000D02*
X140616000Y-70517000D01*
G75*
G02*
X140691000Y-70442000I75000J0D01*
G01*
X142091000Y-70442000D01*
G75*
G02*
X142166000Y-70517000I0J-75000D01*
G01*
X142166000Y-70667000D01*
G75*
G02*
X142091000Y-70742000I-75000J0D01*
G01*
X140691000Y-70742000D01*
G75*
G02*
X140616000Y-70667000I0J75000D01*
G01*
G37*
%TD.AperFunction*%
%TO.P,U6,10*%
%TO.N,XSHUT_2*%
%TA.AperFunction,SMDPad,CuDef*%
G36*
G01*
X140616000Y-70167000D02*
X140616000Y-70017000D01*
G75*
G02*
X140691000Y-69942000I75000J0D01*
G01*
X142091000Y-69942000D01*
G75*
G02*
X142166000Y-70017000I0J-75000D01*
G01*
X142166000Y-70167000D01*
G75*
G02*
X142091000Y-70242000I-75000J0D01*
G01*
X140691000Y-70242000D01*
G75*
G02*
X140616000Y-70167000I0J75000D01*
G01*
G37*
%TD.AperFunction*%
%TO.P,U6,9*%
%TO.N,XSHUT_1*%
%TA.AperFunction,SMDPad,CuDef*%
G36*
G01*
X140616000Y-69667000D02*
X140616000Y-69517000D01*
G75*
G02*
X140691000Y-69442000I75000J0D01*
G01*
X142091000Y-69442000D01*
G75*
G02*
X142166000Y-69517000I0J-75000D01*
G01*
X142166000Y-69667000D01*
G75*
G02*
X142091000Y-69742000I-75000J0D01*
G01*
X140691000Y-69742000D01*
G75*
G02*
X140616000Y-69667000I0J75000D01*
G01*
G37*
%TD.AperFunction*%
%TO.P,U6,8*%
%TO.N,XSHUT_0*%
%TA.AperFunction,SMDPad,CuDef*%
G36*
G01*
X140616000Y-69167000D02*
X140616000Y-69017000D01*
G75*
G02*
X140691000Y-68942000I75000J0D01*
G01*
X142091000Y-68942000D01*
G75*
G02*
X142166000Y-69017000I0J-75000D01*
G01*
X142166000Y-69167000D01*
G75*
G02*
X142091000Y-69242000I-75000J0D01*
G01*
X140691000Y-69242000D01*
G75*
G02*
X140616000Y-69167000I0J75000D01*
G01*
G37*
%TD.AperFunction*%
%TO.P,U6,7*%
%TO.N,/STM32L151RET6TR/RST*%
%TA.AperFunction,SMDPad,CuDef*%
G36*
G01*
X140616000Y-68667000D02*
X140616000Y-68517000D01*
G75*
G02*
X140691000Y-68442000I75000J0D01*
G01*
X142091000Y-68442000D01*
G75*
G02*
X142166000Y-68517000I0J-75000D01*
G01*
X142166000Y-68667000D01*
G75*
G02*
X142091000Y-68742000I-75000J0D01*
G01*
X140691000Y-68742000D01*
G75*
G02*
X140616000Y-68667000I0J75000D01*
G01*
G37*
%TD.AperFunction*%
%TO.P,U6,6*%
%TO.N,/STM32L151RET6TR/OSM_OUT*%
%TA.AperFunction,SMDPad,CuDef*%
G36*
G01*
X140616000Y-68167000D02*
X140616000Y-68017000D01*
G75*
G02*
X140691000Y-67942000I75000J0D01*
G01*
X142091000Y-67942000D01*
G75*
G02*
X142166000Y-68017000I0J-75000D01*
G01*
X142166000Y-68167000D01*
G75*
G02*
X142091000Y-68242000I-75000J0D01*
G01*
X140691000Y-68242000D01*
G75*
G02*
X140616000Y-68167000I0J75000D01*
G01*
G37*
%TD.AperFunction*%
%TO.P,U6,5*%
%TO.N,/STM32L151RET6TR/MCO*%
%TA.AperFunction,SMDPad,CuDef*%
G36*
G01*
X140616000Y-67667000D02*
X140616000Y-67517000D01*
G75*
G02*
X140691000Y-67442000I75000J0D01*
G01*
X142091000Y-67442000D01*
G75*
G02*
X142166000Y-67517000I0J-75000D01*
G01*
X142166000Y-67667000D01*
G75*
G02*
X142091000Y-67742000I-75000J0D01*
G01*
X140691000Y-67742000D01*
G75*
G02*
X140616000Y-67667000I0J75000D01*
G01*
G37*
%TD.AperFunction*%
%TO.P,U6,4*%
%TO.N,/STM32L151RET6TR/OS32_OUT*%
%TA.AperFunction,SMDPad,CuDef*%
G36*
G01*
X140616000Y-67167000D02*
X140616000Y-67017000D01*
G75*
G02*
X140691000Y-66942000I75000J0D01*
G01*
X142091000Y-66942000D01*
G75*
G02*
X142166000Y-67017000I0J-75000D01*
G01*
X142166000Y-67167000D01*
G75*
G02*
X142091000Y-67242000I-75000J0D01*
G01*
X140691000Y-67242000D01*
G75*
G02*
X140616000Y-67167000I0J75000D01*
G01*
G37*
%TD.AperFunction*%
%TO.P,U6,3*%
%TO.N,/STM32L151RET6TR/OS32_IN*%
%TA.AperFunction,SMDPad,CuDef*%
G36*
G01*
X140616000Y-66667000D02*
X140616000Y-66517000D01*
G75*
G02*
X140691000Y-66442000I75000J0D01*
G01*
X142091000Y-66442000D01*
G75*
G02*
X142166000Y-66517000I0J-75000D01*
G01*
X142166000Y-66667000D01*
G75*
G02*
X142091000Y-66742000I-75000J0D01*
G01*
X140691000Y-66742000D01*
G75*
G02*
X140616000Y-66667000I0J75000D01*
G01*
G37*
%TD.AperFunction*%
%TO.P,U6,2*%
%TO.N,N/C*%
%TA.AperFunction,SMDPad,CuDef*%
G36*
G01*
X140616000Y-66167000D02*
X140616000Y-66017000D01*
G75*
G02*
X140691000Y-65942000I75000J0D01*
G01*
X142091000Y-65942000D01*
G75*
G02*
X142166000Y-66017000I0J-75000D01*
G01*
X142166000Y-66167000D01*
G75*
G02*
X142091000Y-66242000I-75000J0D01*
G01*
X140691000Y-66242000D01*
G75*
G02*
X140616000Y-66167000I0J75000D01*
G01*
G37*
%TD.AperFunction*%
%TO.P,U6,1*%
%TO.N,+3V3*%
%TA.AperFunction,SMDPad,CuDef*%
G36*
G01*
X140616000Y-65667000D02*
X140616000Y-65517000D01*
G75*
G02*
X140691000Y-65442000I75000J0D01*
G01*
X142091000Y-65442000D01*
G75*
G02*
X142166000Y-65517000I0J-75000D01*
G01*
X142166000Y-65667000D01*
G75*
G02*
X142091000Y-65742000I-75000J0D01*
G01*
X140691000Y-65742000D01*
G75*
G02*
X140616000Y-65667000I0J75000D01*
G01*
G37*
%TD.AperFunction*%
%TD*%
D16*
%TO.P,SW4,2*%
%TO.N,/STM32L151RET6TR/RST*%
X137378000Y-50889000D03*
%TO.P,SW4,1*%
%TO.N,GND*%
X132878000Y-50889000D03*
X132878000Y-58839000D03*
%TO.P,SW4,2*%
%TO.N,/STM32L151RET6TR/RST*%
X137378000Y-58839000D03*
%TD*%
%TO.P,SW3,2*%
%TO.N,/STM32L151RET6TR/BOOT*%
X144744000Y-50889000D03*
%TO.P,SW3,1*%
%TO.N,+3V3*%
X140244000Y-50889000D03*
X140244000Y-58839000D03*
%TO.P,SW3,2*%
%TO.N,/STM32L151RET6TR/BOOT*%
X144744000Y-58839000D03*
%TD*%
D17*
%TO.P,SW2,2*%
%TO.N,+3V3*%
X158839000Y-75982000D03*
%TO.P,SW2,1*%
%TO.N,SW_2*%
X158839000Y-80482000D03*
X166789000Y-80482000D03*
%TO.P,SW2,2*%
%TO.N,+3V3*%
X166789000Y-75982000D03*
%TD*%
%TO.P,SW1,2*%
%TO.N,+3V3*%
X158839000Y-82840000D03*
%TO.P,SW1,1*%
%TO.N,SW_1*%
X158839000Y-87340000D03*
X166789000Y-87340000D03*
%TO.P,SW1,2*%
%TO.N,+3V3*%
X166789000Y-82840000D03*
%TD*%
%TO.P,R7,2*%
%TO.N,GND*%
%TA.AperFunction,SMDPad,CuDef*%
G36*
G01*
X157168001Y-79086000D02*
X156267999Y-79086000D01*
G75*
G02*
X156018000Y-78836001I0J249999D01*
G01*
X156018000Y-78135999D01*
G75*
G02*
X156267999Y-77886000I249999J0D01*
G01*
X157168001Y-77886000D01*
G75*
G02*
X157418000Y-78135999I0J-249999D01*
G01*
X157418000Y-78836001D01*
G75*
G02*
X157168001Y-79086000I-249999J0D01*
G01*
G37*
%TD.AperFunction*%
%TO.P,R7,1*%
%TO.N,SW_2*%
%TA.AperFunction,SMDPad,CuDef*%
G36*
G01*
X157168001Y-81086000D02*
X156267999Y-81086000D01*
G75*
G02*
X156018000Y-80836001I0J249999D01*
G01*
X156018000Y-80135999D01*
G75*
G02*
X156267999Y-79886000I249999J0D01*
G01*
X157168001Y-79886000D01*
G75*
G02*
X157418000Y-80135999I0J-249999D01*
G01*
X157418000Y-80836001D01*
G75*
G02*
X157168001Y-81086000I-249999J0D01*
G01*
G37*
%TD.AperFunction*%
%TD*%
%TO.P,R6,2*%
%TO.N,SW_1*%
%TA.AperFunction,SMDPad,CuDef*%
G36*
G01*
X156267999Y-86776000D02*
X157168001Y-86776000D01*
G75*
G02*
X157418000Y-87025999I0J-249999D01*
G01*
X157418000Y-87726001D01*
G75*
G02*
X157168001Y-87976000I-249999J0D01*
G01*
X156267999Y-87976000D01*
G75*
G02*
X156018000Y-87726001I0J249999D01*
G01*
X156018000Y-87025999D01*
G75*
G02*
X156267999Y-86776000I249999J0D01*
G01*
G37*
%TD.AperFunction*%
%TO.P,R6,1*%
%TO.N,GND*%
%TA.AperFunction,SMDPad,CuDef*%
G36*
G01*
X156267999Y-84776000D02*
X157168001Y-84776000D01*
G75*
G02*
X157418000Y-85025999I0J-249999D01*
G01*
X157418000Y-85726001D01*
G75*
G02*
X157168001Y-85976000I-249999J0D01*
G01*
X156267999Y-85976000D01*
G75*
G02*
X156018000Y-85726001I0J249999D01*
G01*
X156018000Y-85025999D01*
G75*
G02*
X156267999Y-84776000I249999J0D01*
G01*
G37*
%TD.AperFunction*%
%TD*%
%TO.P,R5,2*%
%TO.N,LED_5*%
%TA.AperFunction,SMDPad,CuDef*%
G36*
G01*
X157168001Y-90786000D02*
X156267999Y-90786000D01*
G75*
G02*
X156018000Y-90536001I0J249999D01*
G01*
X156018000Y-89835999D01*
G75*
G02*
X156267999Y-89586000I249999J0D01*
G01*
X157168001Y-89586000D01*
G75*
G02*
X157418000Y-89835999I0J-249999D01*
G01*
X157418000Y-90536001D01*
G75*
G02*
X157168001Y-90786000I-249999J0D01*
G01*
G37*
%TD.AperFunction*%
%TO.P,R5,1*%
%TO.N,Net-(D5-Pad2)*%
%TA.AperFunction,SMDPad,CuDef*%
G36*
G01*
X157168001Y-92786000D02*
X156267999Y-92786000D01*
G75*
G02*
X156018000Y-92536001I0J249999D01*
G01*
X156018000Y-91835999D01*
G75*
G02*
X156267999Y-91586000I249999J0D01*
G01*
X157168001Y-91586000D01*
G75*
G02*
X157418000Y-91835999I0J-249999D01*
G01*
X157418000Y-92536001D01*
G75*
G02*
X157168001Y-92786000I-249999J0D01*
G01*
G37*
%TD.AperFunction*%
%TD*%
%TO.P,R4,2*%
%TO.N,LED_4*%
%TA.AperFunction,SMDPad,CuDef*%
G36*
G01*
X154882001Y-90770000D02*
X153981999Y-90770000D01*
G75*
G02*
X153732000Y-90520001I0J249999D01*
G01*
X153732000Y-89819999D01*
G75*
G02*
X153981999Y-89570000I249999J0D01*
G01*
X154882001Y-89570000D01*
G75*
G02*
X155132000Y-89819999I0J-249999D01*
G01*
X155132000Y-90520001D01*
G75*
G02*
X154882001Y-90770000I-249999J0D01*
G01*
G37*
%TD.AperFunction*%
%TO.P,R4,1*%
%TO.N,Net-(D4-Pad2)*%
%TA.AperFunction,SMDPad,CuDef*%
G36*
G01*
X154882001Y-92770000D02*
X153981999Y-92770000D01*
G75*
G02*
X153732000Y-92520001I0J249999D01*
G01*
X153732000Y-91819999D01*
G75*
G02*
X153981999Y-91570000I249999J0D01*
G01*
X154882001Y-91570000D01*
G75*
G02*
X155132000Y-91819999I0J-249999D01*
G01*
X155132000Y-92520001D01*
G75*
G02*
X154882001Y-92770000I-249999J0D01*
G01*
G37*
%TD.AperFunction*%
%TD*%
%TO.P,R3,2*%
%TO.N,LED_3*%
%TA.AperFunction,SMDPad,CuDef*%
G36*
G01*
X152596001Y-90770000D02*
X151695999Y-90770000D01*
G75*
G02*
X151446000Y-90520001I0J249999D01*
G01*
X151446000Y-89819999D01*
G75*
G02*
X151695999Y-89570000I249999J0D01*
G01*
X152596001Y-89570000D01*
G75*
G02*
X152846000Y-89819999I0J-249999D01*
G01*
X152846000Y-90520001D01*
G75*
G02*
X152596001Y-90770000I-249999J0D01*
G01*
G37*
%TD.AperFunction*%
%TO.P,R3,1*%
%TO.N,Net-(D3-Pad2)*%
%TA.AperFunction,SMDPad,CuDef*%
G36*
G01*
X152596001Y-92770000D02*
X151695999Y-92770000D01*
G75*
G02*
X151446000Y-92520001I0J249999D01*
G01*
X151446000Y-91819999D01*
G75*
G02*
X151695999Y-91570000I249999J0D01*
G01*
X152596001Y-91570000D01*
G75*
G02*
X152846000Y-91819999I0J-249999D01*
G01*
X152846000Y-92520001D01*
G75*
G02*
X152596001Y-92770000I-249999J0D01*
G01*
G37*
%TD.AperFunction*%
%TD*%
%TO.P,R2,2*%
%TO.N,LED_2*%
%TA.AperFunction,SMDPad,CuDef*%
G36*
G01*
X150310001Y-90770000D02*
X149409999Y-90770000D01*
G75*
G02*
X149160000Y-90520001I0J249999D01*
G01*
X149160000Y-89819999D01*
G75*
G02*
X149409999Y-89570000I249999J0D01*
G01*
X150310001Y-89570000D01*
G75*
G02*
X150560000Y-89819999I0J-249999D01*
G01*
X150560000Y-90520001D01*
G75*
G02*
X150310001Y-90770000I-249999J0D01*
G01*
G37*
%TD.AperFunction*%
%TO.P,R2,1*%
%TO.N,Net-(D2-Pad2)*%
%TA.AperFunction,SMDPad,CuDef*%
G36*
G01*
X150310001Y-92770000D02*
X149409999Y-92770000D01*
G75*
G02*
X149160000Y-92520001I0J249999D01*
G01*
X149160000Y-91819999D01*
G75*
G02*
X149409999Y-91570000I249999J0D01*
G01*
X150310001Y-91570000D01*
G75*
G02*
X150560000Y-91819999I0J-249999D01*
G01*
X150560000Y-92520001D01*
G75*
G02*
X150310001Y-92770000I-249999J0D01*
G01*
G37*
%TD.AperFunction*%
%TD*%
%TO.P,R1,2*%
%TO.N,LED_1*%
%TA.AperFunction,SMDPad,CuDef*%
G36*
G01*
X148024001Y-90802000D02*
X147123999Y-90802000D01*
G75*
G02*
X146874000Y-90552001I0J249999D01*
G01*
X146874000Y-89851999D01*
G75*
G02*
X147123999Y-89602000I249999J0D01*
G01*
X148024001Y-89602000D01*
G75*
G02*
X148274000Y-89851999I0J-249999D01*
G01*
X148274000Y-90552001D01*
G75*
G02*
X148024001Y-90802000I-249999J0D01*
G01*
G37*
%TD.AperFunction*%
%TO.P,R1,1*%
%TO.N,Net-(D1-Pad2)*%
%TA.AperFunction,SMDPad,CuDef*%
G36*
G01*
X148024001Y-92802000D02*
X147123999Y-92802000D01*
G75*
G02*
X146874000Y-92552001I0J249999D01*
G01*
X146874000Y-91851999D01*
G75*
G02*
X147123999Y-91602000I249999J0D01*
G01*
X148024001Y-91602000D01*
G75*
G02*
X148274000Y-91851999I0J-249999D01*
G01*
X148274000Y-92552001D01*
G75*
G02*
X148024001Y-92802000I-249999J0D01*
G01*
G37*
%TD.AperFunction*%
%TD*%
D12*
%TO.P,J9,4*%
%TO.N,/STM32L151RET6TR/UART_RX*%
X138430000Y-84074000D03*
%TO.P,J9,3*%
%TO.N,/STM32L151RET6TR/UART_TX*%
X138430000Y-81534000D03*
%TO.P,J9,2*%
%TO.N,+3V3*%
X138430000Y-78994000D03*
D13*
%TO.P,J9,1*%
%TO.N,GND*%
X138430000Y-76454000D03*
%TD*%
D18*
%TO.P,J2,2*%
%TO.N,Net-(D6-Pad2)*%
X123246000Y-50546000D03*
%TO.P,J2,1*%
%TO.N,GND*%
%TA.AperFunction,ComponentPad*%
G36*
G01*
X127646000Y-48996000D02*
X127646000Y-52096000D01*
G75*
G02*
X127396000Y-52346000I-250000J0D01*
G01*
X126096000Y-52346000D01*
G75*
G02*
X125846000Y-52096000I0J250000D01*
G01*
X125846000Y-48996000D01*
G75*
G02*
X126096000Y-48746000I250000J0D01*
G01*
X127396000Y-48746000D01*
G75*
G02*
X127646000Y-48996000I0J-250000D01*
G01*
G37*
%TD.AperFunction*%
%TD*%
D12*
%TO.P,J1,4*%
%TO.N,SCL1*%
X149352000Y-51054000D03*
%TO.P,J1,3*%
%TO.N,SDA1*%
X149352000Y-53594000D03*
%TO.P,J1,2*%
%TO.N,+5V*%
X149352000Y-56134000D03*
D13*
%TO.P,J1,1*%
%TO.N,GND*%
X149352000Y-58674000D03*
%TD*%
%TO.P,D5,2*%
%TO.N,Net-(D5-Pad2)*%
%TA.AperFunction,SMDPad,CuDef*%
G36*
G01*
X157168001Y-94800000D02*
X156267999Y-94800000D01*
G75*
G02*
X156018000Y-94550001I0J249999D01*
G01*
X156018000Y-93899999D01*
G75*
G02*
X156267999Y-93650000I249999J0D01*
G01*
X157168001Y-93650000D01*
G75*
G02*
X157418000Y-93899999I0J-249999D01*
G01*
X157418000Y-94550001D01*
G75*
G02*
X157168001Y-94800000I-249999J0D01*
G01*
G37*
%TD.AperFunction*%
%TO.P,D5,1*%
%TO.N,GND*%
%TA.AperFunction,SMDPad,CuDef*%
G36*
G01*
X157168001Y-96850000D02*
X156267999Y-96850000D01*
G75*
G02*
X156018000Y-96600001I0J249999D01*
G01*
X156018000Y-95949999D01*
G75*
G02*
X156267999Y-95700000I249999J0D01*
G01*
X157168001Y-95700000D01*
G75*
G02*
X157418000Y-95949999I0J-249999D01*
G01*
X157418000Y-96600001D01*
G75*
G02*
X157168001Y-96850000I-249999J0D01*
G01*
G37*
%TD.AperFunction*%
%TD*%
%TO.P,D4,2*%
%TO.N,Net-(D4-Pad2)*%
%TA.AperFunction,SMDPad,CuDef*%
G36*
G01*
X154882001Y-94809000D02*
X153981999Y-94809000D01*
G75*
G02*
X153732000Y-94559001I0J249999D01*
G01*
X153732000Y-93908999D01*
G75*
G02*
X153981999Y-93659000I249999J0D01*
G01*
X154882001Y-93659000D01*
G75*
G02*
X155132000Y-93908999I0J-249999D01*
G01*
X155132000Y-94559001D01*
G75*
G02*
X154882001Y-94809000I-249999J0D01*
G01*
G37*
%TD.AperFunction*%
%TO.P,D4,1*%
%TO.N,GND*%
%TA.AperFunction,SMDPad,CuDef*%
G36*
G01*
X154882001Y-96859000D02*
X153981999Y-96859000D01*
G75*
G02*
X153732000Y-96609001I0J249999D01*
G01*
X153732000Y-95958999D01*
G75*
G02*
X153981999Y-95709000I249999J0D01*
G01*
X154882001Y-95709000D01*
G75*
G02*
X155132000Y-95958999I0J-249999D01*
G01*
X155132000Y-96609001D01*
G75*
G02*
X154882001Y-96859000I-249999J0D01*
G01*
G37*
%TD.AperFunction*%
%TD*%
%TO.P,D3,2*%
%TO.N,Net-(D3-Pad2)*%
%TA.AperFunction,SMDPad,CuDef*%
G36*
G01*
X152596001Y-94809000D02*
X151695999Y-94809000D01*
G75*
G02*
X151446000Y-94559001I0J249999D01*
G01*
X151446000Y-93908999D01*
G75*
G02*
X151695999Y-93659000I249999J0D01*
G01*
X152596001Y-93659000D01*
G75*
G02*
X152846000Y-93908999I0J-249999D01*
G01*
X152846000Y-94559001D01*
G75*
G02*
X152596001Y-94809000I-249999J0D01*
G01*
G37*
%TD.AperFunction*%
%TO.P,D3,1*%
%TO.N,GND*%
%TA.AperFunction,SMDPad,CuDef*%
G36*
G01*
X152596001Y-96859000D02*
X151695999Y-96859000D01*
G75*
G02*
X151446000Y-96609001I0J249999D01*
G01*
X151446000Y-95958999D01*
G75*
G02*
X151695999Y-95709000I249999J0D01*
G01*
X152596001Y-95709000D01*
G75*
G02*
X152846000Y-95958999I0J-249999D01*
G01*
X152846000Y-96609001D01*
G75*
G02*
X152596001Y-96859000I-249999J0D01*
G01*
G37*
%TD.AperFunction*%
%TD*%
%TO.P,D2,2*%
%TO.N,Net-(D2-Pad2)*%
%TA.AperFunction,SMDPad,CuDef*%
G36*
G01*
X150310001Y-94809000D02*
X149409999Y-94809000D01*
G75*
G02*
X149160000Y-94559001I0J249999D01*
G01*
X149160000Y-93908999D01*
G75*
G02*
X149409999Y-93659000I249999J0D01*
G01*
X150310001Y-93659000D01*
G75*
G02*
X150560000Y-93908999I0J-249999D01*
G01*
X150560000Y-94559001D01*
G75*
G02*
X150310001Y-94809000I-249999J0D01*
G01*
G37*
%TD.AperFunction*%
%TO.P,D2,1*%
%TO.N,GND*%
%TA.AperFunction,SMDPad,CuDef*%
G36*
G01*
X150310001Y-96859000D02*
X149409999Y-96859000D01*
G75*
G02*
X149160000Y-96609001I0J249999D01*
G01*
X149160000Y-95958999D01*
G75*
G02*
X149409999Y-95709000I249999J0D01*
G01*
X150310001Y-95709000D01*
G75*
G02*
X150560000Y-95958999I0J-249999D01*
G01*
X150560000Y-96609001D01*
G75*
G02*
X150310001Y-96859000I-249999J0D01*
G01*
G37*
%TD.AperFunction*%
%TD*%
%TO.P,D1,2*%
%TO.N,Net-(D1-Pad2)*%
%TA.AperFunction,SMDPad,CuDef*%
G36*
G01*
X148024001Y-94791000D02*
X147123999Y-94791000D01*
G75*
G02*
X146874000Y-94541001I0J249999D01*
G01*
X146874000Y-93890999D01*
G75*
G02*
X147123999Y-93641000I249999J0D01*
G01*
X148024001Y-93641000D01*
G75*
G02*
X148274000Y-93890999I0J-249999D01*
G01*
X148274000Y-94541001D01*
G75*
G02*
X148024001Y-94791000I-249999J0D01*
G01*
G37*
%TD.AperFunction*%
%TO.P,D1,1*%
%TO.N,GND*%
%TA.AperFunction,SMDPad,CuDef*%
G36*
G01*
X148024001Y-96841000D02*
X147123999Y-96841000D01*
G75*
G02*
X146874000Y-96591001I0J249999D01*
G01*
X146874000Y-95940999D01*
G75*
G02*
X147123999Y-95691000I249999J0D01*
G01*
X148024001Y-95691000D01*
G75*
G02*
X148274000Y-95940999I0J-249999D01*
G01*
X148274000Y-96591001D01*
G75*
G02*
X148024001Y-96841000I-249999J0D01*
G01*
G37*
%TD.AperFunction*%
%TD*%
%TO.P,C32,2*%
%TO.N,GND*%
%TA.AperFunction,SMDPad,CuDef*%
G36*
G01*
X153241500Y-78011000D02*
X153241500Y-78961000D01*
G75*
G02*
X152991500Y-79211000I-250000J0D01*
G01*
X152316500Y-79211000D01*
G75*
G02*
X152066500Y-78961000I0J250000D01*
G01*
X152066500Y-78011000D01*
G75*
G02*
X152316500Y-77761000I250000J0D01*
G01*
X152991500Y-77761000D01*
G75*
G02*
X153241500Y-78011000I0J-250000D01*
G01*
G37*
%TD.AperFunction*%
%TO.P,C32,1*%
%TO.N,+3V3*%
%TA.AperFunction,SMDPad,CuDef*%
G36*
G01*
X155316500Y-78011000D02*
X155316500Y-78961000D01*
G75*
G02*
X155066500Y-79211000I-250000J0D01*
G01*
X154391500Y-79211000D01*
G75*
G02*
X154141500Y-78961000I0J250000D01*
G01*
X154141500Y-78011000D01*
G75*
G02*
X154391500Y-77761000I250000J0D01*
G01*
X155066500Y-77761000D01*
G75*
G02*
X155316500Y-78011000I0J-250000D01*
G01*
G37*
%TD.AperFunction*%
%TD*%
%TO.P,C27,2*%
%TO.N,GND*%
%TA.AperFunction,SMDPad,CuDef*%
G36*
G01*
X152990500Y-76216500D02*
X152990500Y-76691500D01*
G75*
G02*
X152753000Y-76929000I-237500J0D01*
G01*
X152153000Y-76929000D01*
G75*
G02*
X151915500Y-76691500I0J237500D01*
G01*
X151915500Y-76216500D01*
G75*
G02*
X152153000Y-75979000I237500J0D01*
G01*
X152753000Y-75979000D01*
G75*
G02*
X152990500Y-76216500I0J-237500D01*
G01*
G37*
%TD.AperFunction*%
%TO.P,C27,1*%
%TO.N,+3V3*%
%TA.AperFunction,SMDPad,CuDef*%
G36*
G01*
X154715500Y-76216500D02*
X154715500Y-76691500D01*
G75*
G02*
X154478000Y-76929000I-237500J0D01*
G01*
X153878000Y-76929000D01*
G75*
G02*
X153640500Y-76691500I0J237500D01*
G01*
X153640500Y-76216500D01*
G75*
G02*
X153878000Y-75979000I237500J0D01*
G01*
X154478000Y-75979000D01*
G75*
G02*
X154715500Y-76216500I0J-237500D01*
G01*
G37*
%TD.AperFunction*%
%TD*%
%TO.P,C26,2*%
%TO.N,GND*%
%TA.AperFunction,SMDPad,CuDef*%
G36*
G01*
X143592500Y-76978500D02*
X143592500Y-77453500D01*
G75*
G02*
X143355000Y-77691000I-237500J0D01*
G01*
X142755000Y-77691000D01*
G75*
G02*
X142517500Y-77453500I0J237500D01*
G01*
X142517500Y-76978500D01*
G75*
G02*
X142755000Y-76741000I237500J0D01*
G01*
X143355000Y-76741000D01*
G75*
G02*
X143592500Y-76978500I0J-237500D01*
G01*
G37*
%TD.AperFunction*%
%TO.P,C26,1*%
%TO.N,+3V3*%
%TA.AperFunction,SMDPad,CuDef*%
G36*
G01*
X145317500Y-76978500D02*
X145317500Y-77453500D01*
G75*
G02*
X145080000Y-77691000I-237500J0D01*
G01*
X144480000Y-77691000D01*
G75*
G02*
X144242500Y-77453500I0J237500D01*
G01*
X144242500Y-76978500D01*
G75*
G02*
X144480000Y-76741000I237500J0D01*
G01*
X145080000Y-76741000D01*
G75*
G02*
X145317500Y-76978500I0J-237500D01*
G01*
G37*
%TD.AperFunction*%
%TD*%
%TO.P,C25,2*%
%TO.N,GND*%
%TA.AperFunction,SMDPad,CuDef*%
G36*
G01*
X139429500Y-63783500D02*
X138954500Y-63783500D01*
G75*
G02*
X138717000Y-63546000I0J237500D01*
G01*
X138717000Y-62946000D01*
G75*
G02*
X138954500Y-62708500I237500J0D01*
G01*
X139429500Y-62708500D01*
G75*
G02*
X139667000Y-62946000I0J-237500D01*
G01*
X139667000Y-63546000D01*
G75*
G02*
X139429500Y-63783500I-237500J0D01*
G01*
G37*
%TD.AperFunction*%
%TO.P,C25,1*%
%TO.N,+3V3*%
%TA.AperFunction,SMDPad,CuDef*%
G36*
G01*
X139429500Y-65508500D02*
X138954500Y-65508500D01*
G75*
G02*
X138717000Y-65271000I0J237500D01*
G01*
X138717000Y-64671000D01*
G75*
G02*
X138954500Y-64433500I237500J0D01*
G01*
X139429500Y-64433500D01*
G75*
G02*
X139667000Y-64671000I0J-237500D01*
G01*
X139667000Y-65271000D01*
G75*
G02*
X139429500Y-65508500I-237500J0D01*
G01*
G37*
%TD.AperFunction*%
%TD*%
%TO.P,C24,2*%
%TO.N,GND*%
%TA.AperFunction,SMDPad,CuDef*%
G36*
G01*
X140732500Y-62301000D02*
X141207500Y-62301000D01*
G75*
G02*
X141445000Y-62538500I0J-237500D01*
G01*
X141445000Y-63138500D01*
G75*
G02*
X141207500Y-63376000I-237500J0D01*
G01*
X140732500Y-63376000D01*
G75*
G02*
X140495000Y-63138500I0J237500D01*
G01*
X140495000Y-62538500D01*
G75*
G02*
X140732500Y-62301000I237500J0D01*
G01*
G37*
%TD.AperFunction*%
%TO.P,C24,1*%
%TO.N,+3V3*%
%TA.AperFunction,SMDPad,CuDef*%
G36*
G01*
X140732500Y-60576000D02*
X141207500Y-60576000D01*
G75*
G02*
X141445000Y-60813500I0J-237500D01*
G01*
X141445000Y-61413500D01*
G75*
G02*
X141207500Y-61651000I-237500J0D01*
G01*
X140732500Y-61651000D01*
G75*
G02*
X140495000Y-61413500I0J237500D01*
G01*
X140495000Y-60813500D01*
G75*
G02*
X140732500Y-60576000I237500J0D01*
G01*
G37*
%TD.AperFunction*%
%TD*%
%TO.P,C22,2*%
%TO.N,/STM32L151RET6TR/OS32_IN*%
%TA.AperFunction,SMDPad,CuDef*%
G36*
G01*
X128253500Y-65053500D02*
X127778500Y-65053500D01*
G75*
G02*
X127541000Y-64816000I0J237500D01*
G01*
X127541000Y-64216000D01*
G75*
G02*
X127778500Y-63978500I237500J0D01*
G01*
X128253500Y-63978500D01*
G75*
G02*
X128491000Y-64216000I0J-237500D01*
G01*
X128491000Y-64816000D01*
G75*
G02*
X128253500Y-65053500I-237500J0D01*
G01*
G37*
%TD.AperFunction*%
%TO.P,C22,1*%
%TO.N,GND*%
%TA.AperFunction,SMDPad,CuDef*%
G36*
G01*
X128253500Y-66778500D02*
X127778500Y-66778500D01*
G75*
G02*
X127541000Y-66541000I0J237500D01*
G01*
X127541000Y-65941000D01*
G75*
G02*
X127778500Y-65703500I237500J0D01*
G01*
X128253500Y-65703500D01*
G75*
G02*
X128491000Y-65941000I0J-237500D01*
G01*
X128491000Y-66541000D01*
G75*
G02*
X128253500Y-66778500I-237500J0D01*
G01*
G37*
%TD.AperFunction*%
%TD*%
%TO.P,C19,2*%
%TO.N,/STM32L151RET6TR/OS32_OUT*%
%TA.AperFunction,SMDPad,CuDef*%
G36*
G01*
X127778500Y-69312500D02*
X128253500Y-69312500D01*
G75*
G02*
X128491000Y-69550000I0J-237500D01*
G01*
X128491000Y-70150000D01*
G75*
G02*
X128253500Y-70387500I-237500J0D01*
G01*
X127778500Y-70387500D01*
G75*
G02*
X127541000Y-70150000I0J237500D01*
G01*
X127541000Y-69550000D01*
G75*
G02*
X127778500Y-69312500I237500J0D01*
G01*
G37*
%TD.AperFunction*%
%TO.P,C19,1*%
%TO.N,GND*%
%TA.AperFunction,SMDPad,CuDef*%
G36*
G01*
X127778500Y-67587500D02*
X128253500Y-67587500D01*
G75*
G02*
X128491000Y-67825000I0J-237500D01*
G01*
X128491000Y-68425000D01*
G75*
G02*
X128253500Y-68662500I-237500J0D01*
G01*
X127778500Y-68662500D01*
G75*
G02*
X127541000Y-68425000I0J237500D01*
G01*
X127541000Y-67825000D01*
G75*
G02*
X127778500Y-67587500I237500J0D01*
G01*
G37*
%TD.AperFunction*%
%TD*%
%TO.P,C18,2*%
%TO.N,GND*%
%TA.AperFunction,SMDPad,CuDef*%
G36*
G01*
X130015000Y-78776500D02*
X129065000Y-78776500D01*
G75*
G02*
X128815000Y-78526500I0J250000D01*
G01*
X128815000Y-77851500D01*
G75*
G02*
X129065000Y-77601500I250000J0D01*
G01*
X130015000Y-77601500D01*
G75*
G02*
X130265000Y-77851500I0J-250000D01*
G01*
X130265000Y-78526500D01*
G75*
G02*
X130015000Y-78776500I-250000J0D01*
G01*
G37*
%TD.AperFunction*%
%TO.P,C18,1*%
%TO.N,/STM32L151RET6TR/OSM_OUT*%
%TA.AperFunction,SMDPad,CuDef*%
G36*
G01*
X130015000Y-80851500D02*
X129065000Y-80851500D01*
G75*
G02*
X128815000Y-80601500I0J250000D01*
G01*
X128815000Y-79926500D01*
G75*
G02*
X129065000Y-79676500I250000J0D01*
G01*
X130015000Y-79676500D01*
G75*
G02*
X130265000Y-79926500I0J-250000D01*
G01*
X130265000Y-80601500D01*
G75*
G02*
X130015000Y-80851500I-250000J0D01*
G01*
G37*
%TD.AperFunction*%
%TD*%
%TO.P,C17,2*%
%TO.N,GND*%
%TA.AperFunction,SMDPad,CuDef*%
G36*
G01*
X129065000Y-75358500D02*
X130015000Y-75358500D01*
G75*
G02*
X130265000Y-75608500I0J-250000D01*
G01*
X130265000Y-76283500D01*
G75*
G02*
X130015000Y-76533500I-250000J0D01*
G01*
X129065000Y-76533500D01*
G75*
G02*
X128815000Y-76283500I0J250000D01*
G01*
X128815000Y-75608500D01*
G75*
G02*
X129065000Y-75358500I250000J0D01*
G01*
G37*
%TD.AperFunction*%
%TO.P,C17,1*%
%TO.N,/STM32L151RET6TR/MCO*%
%TA.AperFunction,SMDPad,CuDef*%
G36*
G01*
X129065000Y-73283500D02*
X130015000Y-73283500D01*
G75*
G02*
X130265000Y-73533500I0J-250000D01*
G01*
X130265000Y-74208500D01*
G75*
G02*
X130015000Y-74458500I-250000J0D01*
G01*
X129065000Y-74458500D01*
G75*
G02*
X128815000Y-74208500I0J250000D01*
G01*
X128815000Y-73533500D01*
G75*
G02*
X129065000Y-73283500I250000J0D01*
G01*
G37*
%TD.AperFunction*%
%TD*%
%TO.P,C7,2*%
%TO.N,GND*%
%TA.AperFunction,SMDPad,CuDef*%
G36*
G01*
X126958000Y-58962000D02*
X128058000Y-58962000D01*
G75*
G02*
X128308000Y-59212000I0J-250000D01*
G01*
X128308000Y-62212000D01*
G75*
G02*
X128058000Y-62462000I-250000J0D01*
G01*
X126958000Y-62462000D01*
G75*
G02*
X126708000Y-62212000I0J250000D01*
G01*
X126708000Y-59212000D01*
G75*
G02*
X126958000Y-58962000I250000J0D01*
G01*
G37*
%TD.AperFunction*%
%TO.P,C7,1*%
%TO.N,VCC*%
%TA.AperFunction,SMDPad,CuDef*%
G36*
G01*
X126958000Y-53362000D02*
X128058000Y-53362000D01*
G75*
G02*
X128308000Y-53612000I0J-250000D01*
G01*
X128308000Y-56612000D01*
G75*
G02*
X128058000Y-56862000I-250000J0D01*
G01*
X126958000Y-56862000D01*
G75*
G02*
X126708000Y-56612000I0J250000D01*
G01*
X126708000Y-53612000D01*
G75*
G02*
X126958000Y-53362000I250000J0D01*
G01*
G37*
%TD.AperFunction*%
%TD*%
%TO.P,C6,2*%
%TO.N,GND*%
%TA.AperFunction,SMDPad,CuDef*%
G36*
G01*
X130082000Y-97832000D02*
X130082000Y-96732000D01*
G75*
G02*
X130332000Y-96482000I250000J0D01*
G01*
X133332000Y-96482000D01*
G75*
G02*
X133582000Y-96732000I0J-250000D01*
G01*
X133582000Y-97832000D01*
G75*
G02*
X133332000Y-98082000I-250000J0D01*
G01*
X130332000Y-98082000D01*
G75*
G02*
X130082000Y-97832000I0J250000D01*
G01*
G37*
%TD.AperFunction*%
%TO.P,C6,1*%
%TO.N,Net-(C6-Pad1)*%
%TA.AperFunction,SMDPad,CuDef*%
G36*
G01*
X124482000Y-97832000D02*
X124482000Y-96732000D01*
G75*
G02*
X124732000Y-96482000I250000J0D01*
G01*
X127732000Y-96482000D01*
G75*
G02*
X127982000Y-96732000I0J-250000D01*
G01*
X127982000Y-97832000D01*
G75*
G02*
X127732000Y-98082000I-250000J0D01*
G01*
X124732000Y-98082000D01*
G75*
G02*
X124482000Y-97832000I0J250000D01*
G01*
G37*
%TD.AperFunction*%
%TD*%
%TO.P,C5,2*%
%TO.N,GND*%
%TA.AperFunction,SMDPad,CuDef*%
G36*
G01*
X140496000Y-97832000D02*
X140496000Y-96732000D01*
G75*
G02*
X140746000Y-96482000I250000J0D01*
G01*
X143746000Y-96482000D01*
G75*
G02*
X143996000Y-96732000I0J-250000D01*
G01*
X143996000Y-97832000D01*
G75*
G02*
X143746000Y-98082000I-250000J0D01*
G01*
X140746000Y-98082000D01*
G75*
G02*
X140496000Y-97832000I0J250000D01*
G01*
G37*
%TD.AperFunction*%
%TO.P,C5,1*%
%TO.N,+3V3*%
%TA.AperFunction,SMDPad,CuDef*%
G36*
G01*
X134896000Y-97832000D02*
X134896000Y-96732000D01*
G75*
G02*
X135146000Y-96482000I250000J0D01*
G01*
X138146000Y-96482000D01*
G75*
G02*
X138396000Y-96732000I0J-250000D01*
G01*
X138396000Y-97832000D01*
G75*
G02*
X138146000Y-98082000I-250000J0D01*
G01*
X135146000Y-98082000D01*
G75*
G02*
X134896000Y-97832000I0J250000D01*
G01*
G37*
%TD.AperFunction*%
%TD*%
%TO.P,C4,2*%
%TO.N,GND*%
%TA.AperFunction,SMDPad,CuDef*%
G36*
G01*
X130082000Y-90466000D02*
X130082000Y-89366000D01*
G75*
G02*
X130332000Y-89116000I250000J0D01*
G01*
X133332000Y-89116000D01*
G75*
G02*
X133582000Y-89366000I0J-250000D01*
G01*
X133582000Y-90466000D01*
G75*
G02*
X133332000Y-90716000I-250000J0D01*
G01*
X130332000Y-90716000D01*
G75*
G02*
X130082000Y-90466000I0J250000D01*
G01*
G37*
%TD.AperFunction*%
%TO.P,C4,1*%
%TO.N,VCC*%
%TA.AperFunction,SMDPad,CuDef*%
G36*
G01*
X124482000Y-90466000D02*
X124482000Y-89366000D01*
G75*
G02*
X124732000Y-89116000I250000J0D01*
G01*
X127732000Y-89116000D01*
G75*
G02*
X127982000Y-89366000I0J-250000D01*
G01*
X127982000Y-90466000D01*
G75*
G02*
X127732000Y-90716000I-250000J0D01*
G01*
X124732000Y-90716000D01*
G75*
G02*
X124482000Y-90466000I0J250000D01*
G01*
G37*
%TD.AperFunction*%
%TD*%
%TO.P,C3,2*%
%TO.N,GND*%
%TA.AperFunction,SMDPad,CuDef*%
G36*
G01*
X140496000Y-90466000D02*
X140496000Y-89366000D01*
G75*
G02*
X140746000Y-89116000I250000J0D01*
G01*
X143746000Y-89116000D01*
G75*
G02*
X143996000Y-89366000I0J-250000D01*
G01*
X143996000Y-90466000D01*
G75*
G02*
X143746000Y-90716000I-250000J0D01*
G01*
X140746000Y-90716000D01*
G75*
G02*
X140496000Y-90466000I0J250000D01*
G01*
G37*
%TD.AperFunction*%
%TO.P,C3,1*%
%TO.N,+5V*%
%TA.AperFunction,SMDPad,CuDef*%
G36*
G01*
X134896000Y-90466000D02*
X134896000Y-89366000D01*
G75*
G02*
X135146000Y-89116000I250000J0D01*
G01*
X138146000Y-89116000D01*
G75*
G02*
X138396000Y-89366000I0J-250000D01*
G01*
X138396000Y-90466000D01*
G75*
G02*
X138146000Y-90716000I-250000J0D01*
G01*
X135146000Y-90716000D01*
G75*
G02*
X134896000Y-90466000I0J250000D01*
G01*
G37*
%TD.AperFunction*%
%TD*%
D10*
%TO.P,U4,1*%
%TO.N,+3V3*%
X176430800Y-117296999D03*
%TO.P,U4,2*%
%TO.N,GND*%
X176430800Y-116497001D03*
%TO.P,U4,3*%
X176430800Y-115697000D03*
%TO.P,U4,4*%
X176430800Y-114896999D03*
%TO.P,U4,5*%
%TO.N,XSHUT_2*%
X176430800Y-114097001D03*
D11*
%TO.P,U4,6*%
%TO.N,GND*%
X177546000Y-114096800D03*
D10*
%TO.P,U4,7*%
%TO.N,GPIOI_2*%
X178661200Y-114097001D03*
%TO.P,U4,8*%
%TO.N,Net-(U10-Pad8)*%
X178661200Y-114896999D03*
%TO.P,U4,9*%
%TO.N,SDA1*%
X178661200Y-115697000D03*
%TO.P,U4,10*%
%TO.N,SCL1*%
X178661200Y-116497001D03*
%TO.P,U4,11*%
%TO.N,+3V3*%
X178661200Y-117296999D03*
D11*
%TO.P,U4,12*%
%TO.N,GND*%
X177546000Y-117297200D03*
%TD*%
D12*
%TO.P,J6,8*%
%TO.N,XSHUT_1*%
X170180000Y-72898000D03*
%TO.P,J6,7*%
%TO.N,LED_2*%
X170180000Y-75438000D03*
%TO.P,J6,6*%
%TO.N,LED_3*%
X170180000Y-77978000D03*
%TO.P,J6,5*%
%TO.N,XSHUT_2*%
X170180000Y-80518000D03*
%TO.P,J6,4*%
%TO.N,LED_4*%
X170180000Y-83058000D03*
%TO.P,J6,3*%
%TO.N,LED_5*%
X170180000Y-85598000D03*
%TO.P,J6,2*%
%TO.N,N/C*%
X170180000Y-88138000D03*
D13*
%TO.P,J6,1*%
X170180000Y-90678000D03*
%TD*%
D12*
%TO.P,J5,10*%
%TO.N,SCL1*%
X170180000Y-45974000D03*
%TO.P,J5,9*%
%TO.N,SDA1*%
X170180000Y-48514000D03*
%TO.P,J5,8*%
%TO.N,+3V3*%
X170180000Y-51054000D03*
%TO.P,J5,7*%
%TO.N,GND*%
X170180000Y-53594000D03*
%TO.P,J5,6*%
%TO.N,N/C*%
X170180000Y-56134000D03*
%TO.P,J5,5*%
X170180000Y-58674000D03*
%TO.P,J5,4*%
X170180000Y-61214000D03*
%TO.P,J5,3*%
X170180000Y-63754000D03*
%TO.P,J5,2*%
%TO.N,LED_1*%
X170180000Y-66294000D03*
D13*
%TO.P,J5,1*%
%TO.N,XSHUT_0*%
X170180000Y-68834000D03*
%TD*%
D12*
%TO.P,J4,6*%
%TO.N,N/C*%
X121920000Y-90678000D03*
%TO.P,J4,5*%
X121920000Y-88138000D03*
%TO.P,J4,4*%
X121920000Y-85598000D03*
%TO.P,J4,3*%
%TO.N,GPIOI_2*%
X121920000Y-83058000D03*
%TO.P,J4,2*%
%TO.N,GPIOI_1*%
X121920000Y-80518000D03*
D13*
%TO.P,J4,1*%
%TO.N,GPIOI_0*%
X121920000Y-77978000D03*
%TD*%
D12*
%TO.P,J3,8*%
%TO.N,N/C*%
X121920000Y-72898000D03*
%TO.P,J3,7*%
%TO.N,GND*%
X121920000Y-70358000D03*
%TO.P,J3,6*%
X121920000Y-67818000D03*
%TO.P,J3,5*%
%TO.N,+5V*%
X121920000Y-65278000D03*
%TO.P,J3,4*%
%TO.N,+3V3*%
X121920000Y-62738000D03*
%TO.P,J3,3*%
%TO.N,N/C*%
X121920000Y-60198000D03*
%TO.P,J3,2*%
X121920000Y-57658000D03*
D13*
%TO.P,J3,1*%
X121920000Y-55118000D03*
%TD*%
D19*
%TO.N,GND*%
X132842000Y-52832000D03*
X138684000Y-52832000D03*
X129286000Y-60706000D03*
X124553000Y-60706000D03*
X130556000Y-60706000D03*
X145288000Y-89916000D03*
X143764000Y-92710000D03*
X131826000Y-88138000D03*
X137160000Y-94654000D03*
X142246000Y-94990000D03*
X131832000Y-94482000D03*
X143510000Y-78994000D03*
X147066000Y-73152000D03*
X151384000Y-77470000D03*
X154432000Y-98298000D03*
X155448000Y-83820000D03*
X139262051Y-71420701D03*
X139192000Y-61468000D03*
X127542000Y-76962000D03*
X125442000Y-64516000D03*
X113030000Y-111760000D03*
X113030000Y-129540000D03*
X113030000Y-120650000D03*
X113030000Y-124460000D03*
X113030000Y-115570000D03*
X113030000Y-106680000D03*
X142240000Y-120650000D03*
X142240000Y-129540000D03*
X142240000Y-124460000D03*
X142240000Y-106680000D03*
X142240000Y-115570000D03*
X142240000Y-111760000D03*
X173990000Y-124460000D03*
X173990000Y-106680000D03*
X173990000Y-111760000D03*
X173990000Y-129540000D03*
X173990000Y-120650000D03*
X173990000Y-115570000D03*
X142875000Y-100965000D03*
X142246000Y-100336000D03*
%TO.N,VCC*%
X125603000Y-55499000D03*
X125603000Y-56769000D03*
X126492000Y-84582000D03*
X129032000Y-49276000D03*
X129032000Y-50800000D03*
X126492000Y-82804000D03*
%TO.N,+3V3*%
X139446000Y-97282000D03*
X143256000Y-71628000D03*
X138684000Y-54864000D03*
X138938000Y-60452000D03*
X156718000Y-76200000D03*
X156718000Y-83058000D03*
X144780000Y-78994000D03*
X140716000Y-64262000D03*
X155702000Y-66802000D03*
X143256000Y-86614000D03*
X142240000Y-84582000D03*
X143256000Y-85344000D03*
X143256000Y-88138000D03*
X158242000Y-57404000D03*
X159258000Y-50292000D03*
X139446000Y-102870000D03*
X121920000Y-127000000D03*
X121920000Y-118110000D03*
X182880000Y-118110000D03*
X182880000Y-125730000D03*
X182880000Y-109220000D03*
X151130000Y-125730000D03*
X151130000Y-109220000D03*
X151130000Y-118110000D03*
X121920000Y-109220000D03*
X137795000Y-102870000D03*
%TO.N,XSHUT_1*%
X167386000Y-74676000D03*
X142240000Y-114300000D03*
%TO.N,GPIOI_1*%
X147574000Y-80264000D03*
X127542000Y-80518000D03*
X151130000Y-114300000D03*
X150495000Y-103505000D03*
X153035000Y-105410000D03*
%TO.N,XSHUT_2*%
X148082000Y-73660000D03*
X149275002Y-78054998D03*
X165354000Y-81534000D03*
X173990000Y-114300000D03*
%TO.N,GPIOI_2*%
X148590000Y-81026000D03*
X131572000Y-83058000D03*
X182880000Y-114300000D03*
X160020000Y-96520000D03*
X179070000Y-103505000D03*
%TO.N,XSHUT_0*%
X113030000Y-114300000D03*
%TO.N,GPIOI_0*%
X138430000Y-70866000D03*
X130302000Y-72390000D03*
X121920000Y-114300000D03*
X120015000Y-103505000D03*
X121920000Y-105410000D03*
%TO.N,LED_3*%
X148082000Y-85344000D03*
%TO.N,LED_4*%
X149606000Y-85344000D03*
%TO.N,LED_5*%
X152990405Y-85261595D03*
%TO.N,LED_1*%
X145034000Y-85344000D03*
%TO.N,LED_2*%
X146558000Y-85344000D03*
%TO.N,SW_1*%
X160782000Y-86106000D03*
%TO.N,SW_2*%
X155702000Y-76962000D03*
%TO.N,+5V*%
X135128000Y-93980000D03*
X135128000Y-99060000D03*
%TO.N,Net-(C6-Pad1)*%
X129032000Y-97028000D03*
%TO.N,/STM32L151RET6TR/BOOT*%
X144744000Y-52614000D03*
%TO.N,/STM32L151RET6TR/RST*%
X138589010Y-68841990D03*
X137668000Y-63500000D03*
X137378000Y-54828000D03*
X148082000Y-52324000D03*
%TO.N,SCL1*%
X144018000Y-55118000D03*
X182880000Y-116840000D03*
X151130000Y-116840000D03*
X121920000Y-116840000D03*
X181610000Y-106680000D03*
X150495000Y-106680000D03*
X120650000Y-106680000D03*
X120650000Y-123825000D03*
X150225003Y-123825000D03*
X181610000Y-123825000D03*
X107950000Y-107315000D03*
X109220000Y-108585000D03*
X109220000Y-111125000D03*
%TO.N,SDA1*%
X138933347Y-59431347D03*
X182880000Y-115570000D03*
X151130000Y-115570000D03*
X121920000Y-115570000D03*
X180340000Y-106680000D03*
X149225000Y-106680000D03*
X119380000Y-106680000D03*
X119380000Y-123825000D03*
X149225000Y-123825000D03*
X180340000Y-123825000D03*
%TO.N,/STM32L151RET6TR/FTDI_RTS*%
X153670000Y-64262000D03*
X146558000Y-65786000D03*
%TO.N,/STM32L151RET6TR/FTDI_CTS*%
X145542000Y-66040000D03*
%TO.N,/STM32L151RET6TR/SW0*%
X151384000Y-58928000D03*
X151384000Y-53340000D03*
%TO.N,/STM32L151RET6TR/UART_RX*%
X140970000Y-79756000D03*
X141986000Y-75184000D03*
%TO.N,/STM32L151RET6TR/UART_TX*%
X141478000Y-73914000D03*
X140208000Y-76708000D03*
%TO.N,SCL2*%
X155194000Y-68834000D03*
X162560000Y-52832000D03*
%TO.N,SDA2*%
X162560000Y-55372000D03*
X157226000Y-69596000D03*
%TO.N,/STM32L151RET6TR/PIN41*%
X151130000Y-69088000D03*
%TO.N,/STM32L151RET6TR/PIN29*%
X147066000Y-72136000D03*
%TO.N,/STM32L151RET6TR/PIN30*%
X147066000Y-71120000D03*
%TO.N,/STM32L151RET6TR/PB12*%
X162560000Y-73152000D03*
%TO.N,/STM32L151RET6TR/PB13*%
X162560000Y-70612000D03*
%TO.N,/STM32L151RET6TR/PB14*%
X162560000Y-68072000D03*
%TO.N,/STM32L151RET6TR/PB15*%
X162560000Y-65532000D03*
%TO.N,/STM32L151RET6TR/PC6*%
X162560000Y-62992000D03*
%TO.N,/STM32L151RET6TR/PC7*%
X162560000Y-60452000D03*
%TO.N,/STM32L151RET6TR/PC8*%
X162560000Y-57912000D03*
%TO.N,/STM32L151RET6TR/PA9*%
X162560000Y-50292000D03*
%TO.N,/STM32L151RET6TR/PA10*%
X162814000Y-47752000D03*
%TD*%
D20*
%TO.N,GND*%
X115785801Y-114896999D02*
X115470800Y-114896999D01*
X115785801Y-116497001D02*
X115470800Y-116497001D01*
X177546000Y-117297200D02*
X177584010Y-117335210D01*
X156718000Y-64008000D02*
X156972000Y-63754000D01*
X132842000Y-50925000D02*
X132878000Y-50889000D01*
X132842000Y-52832000D02*
X132842000Y-50925000D01*
X132878000Y-52868000D02*
X132842000Y-52832000D01*
X132878000Y-58839000D02*
X132878000Y-52868000D01*
X129534000Y-60712000D02*
X129540000Y-60706000D01*
X127508000Y-60712000D02*
X129534000Y-60712000D01*
X124559000Y-60712000D02*
X124553000Y-60706000D01*
X127508000Y-60712000D02*
X125724000Y-60712000D01*
X125724000Y-60712000D02*
X124559000Y-60712000D01*
X129286000Y-60706000D02*
X130048000Y-60706000D01*
X130048000Y-60706000D02*
X130556000Y-60706000D01*
X130556000Y-60706000D02*
X130556000Y-60706000D01*
X154441000Y-96275000D02*
X154432000Y-96284000D01*
X156718000Y-96275000D02*
X154441000Y-96275000D01*
X152146000Y-96284000D02*
X154432000Y-96284000D01*
D21*
X145288000Y-89916000D02*
X142246000Y-89916000D01*
X142246000Y-97282000D02*
X142246000Y-94990000D01*
X131832000Y-97282000D02*
X131832000Y-94482000D01*
X140995990Y-96031990D02*
X142246000Y-97282000D01*
X131832000Y-97282000D02*
X133082010Y-96031990D01*
X131832000Y-88144000D02*
X131826000Y-88138000D01*
X131832000Y-89916000D02*
X131832000Y-88144000D01*
X137140010Y-94673990D02*
X137160000Y-94654000D01*
X137140010Y-96031990D02*
X137140010Y-94673990D01*
X137160000Y-95250000D02*
X136378010Y-96031990D01*
X137160000Y-94654000D02*
X137160000Y-95250000D01*
X136378010Y-96031990D02*
X137140010Y-96031990D01*
X133082010Y-96031990D02*
X136378010Y-96031990D01*
X137160000Y-95289980D02*
X137902010Y-96031990D01*
X137160000Y-94654000D02*
X137160000Y-95289980D01*
X137902010Y-96031990D02*
X140995990Y-96031990D01*
X137140010Y-96031990D02*
X137902010Y-96031990D01*
X142246000Y-94990000D02*
X142246000Y-89916000D01*
X131832000Y-94482000D02*
X131832000Y-89916000D01*
D20*
X156718000Y-78486000D02*
X156718000Y-77978000D01*
X143791010Y-76479990D02*
X143055000Y-77216000D01*
X143791010Y-75664990D02*
X143791010Y-76479990D01*
X143816000Y-75640000D02*
X143791010Y-75664990D01*
X143816000Y-75017000D02*
X143816000Y-75640000D01*
X143055000Y-78539000D02*
X143510000Y-78994000D01*
X143055000Y-77216000D02*
X143055000Y-78539000D01*
X143556692Y-64767010D02*
X143075308Y-64767010D01*
X143816000Y-64507702D02*
X143556692Y-64767010D01*
X143816000Y-63667000D02*
X143816000Y-64507702D01*
X130854000Y-68656000D02*
X130854000Y-65456000D01*
X130878500Y-68680500D02*
X130854000Y-68656000D01*
X155609010Y-65116990D02*
X156972000Y-63754000D01*
X151875308Y-65116990D02*
X155609010Y-65116990D01*
X151640990Y-65351308D02*
X151875308Y-65116990D01*
X151640990Y-65832692D02*
X151640990Y-65351308D01*
X151900298Y-66092000D02*
X151640990Y-65832692D01*
X152741000Y-66092000D02*
X151900298Y-66092000D01*
X152299500Y-78428500D02*
X152357000Y-78486000D01*
X150912298Y-76454000D02*
X152453000Y-76454000D01*
X150316000Y-75857702D02*
X150912298Y-76454000D01*
X150316000Y-75017000D02*
X150316000Y-75857702D01*
X152654000Y-78486000D02*
X152654000Y-76454000D01*
X152654000Y-76454000D02*
X152453000Y-76454000D01*
X155667990Y-79536010D02*
X156718000Y-78486000D01*
X153704010Y-79536010D02*
X155667990Y-79536010D01*
X152654000Y-78486000D02*
X153704010Y-79536010D01*
X152400000Y-76454000D02*
X151384000Y-77470000D01*
X152453000Y-76454000D02*
X152400000Y-76454000D01*
X147320000Y-96266000D02*
X147574000Y-96266000D01*
X143764000Y-92710000D02*
X147320000Y-96266000D01*
X147592000Y-96284000D02*
X147574000Y-96266000D01*
X149860000Y-96284000D02*
X147592000Y-96284000D01*
X152146000Y-96284000D02*
X149860000Y-96284000D01*
X154432000Y-96284000D02*
X154432000Y-98298000D01*
X156718000Y-85090000D02*
X155448000Y-83820000D01*
X156718000Y-85376000D02*
X156718000Y-85090000D01*
X139590752Y-71092000D02*
X139262051Y-71420701D01*
X141391000Y-71092000D02*
X139590752Y-71092000D01*
X139192000Y-61468000D02*
X139192000Y-63246000D01*
X142361010Y-64767010D02*
X143556692Y-64767010D01*
X140970000Y-63376000D02*
X142361010Y-64767010D01*
X140970000Y-62838500D02*
X140970000Y-63376000D01*
X139599500Y-62838500D02*
X139192000Y-63246000D01*
X140970000Y-62838500D02*
X139599500Y-62838500D01*
X129540000Y-75946000D02*
X129540000Y-78189000D01*
X128558000Y-75946000D02*
X127542000Y-76962000D01*
X129540000Y-75946000D02*
X128558000Y-75946000D01*
X128769000Y-78189000D02*
X127542000Y-76962000D01*
X129540000Y-78189000D02*
X128769000Y-78189000D01*
X128016000Y-68125000D02*
X128016000Y-66241000D01*
X128801000Y-65456000D02*
X128016000Y-66241000D01*
X130854000Y-65456000D02*
X128801000Y-65456000D01*
X128547000Y-68656000D02*
X128016000Y-68125000D01*
X130854000Y-68656000D02*
X128547000Y-68656000D01*
D21*
X127167000Y-66241000D02*
X125442000Y-64516000D01*
X128016000Y-66241000D02*
X127167000Y-66241000D01*
D20*
X176430800Y-114896999D02*
X174663001Y-114896999D01*
X176430800Y-116497001D02*
X174917001Y-116497001D01*
X176745801Y-114896999D02*
X176430800Y-114896999D01*
X177546000Y-114096800D02*
X176745801Y-114896999D01*
X176745801Y-116497001D02*
X176430800Y-116497001D01*
X177546000Y-117297200D02*
X176745801Y-116497001D01*
X176430800Y-123405999D02*
X175044001Y-123405999D01*
X176745801Y-125006001D02*
X176430800Y-125006001D01*
X177546000Y-125806200D02*
X176745801Y-125006001D01*
X176745801Y-123405999D02*
X176430800Y-123405999D01*
X177546000Y-122605800D02*
X176745801Y-123405999D01*
X176430800Y-107950000D02*
X175260000Y-107950000D01*
X176745801Y-107950000D02*
X176430800Y-107950000D01*
X177546000Y-108750199D02*
X176745801Y-107950000D01*
X176745801Y-106349998D02*
X176430800Y-106349998D01*
X177546000Y-105549799D02*
X176745801Y-106349998D01*
X145658601Y-125044002D02*
X145343600Y-125044002D01*
X146458800Y-125844201D02*
X145658601Y-125044002D01*
X145658601Y-123444000D02*
X145343600Y-123444000D01*
X146458800Y-122643801D02*
X145658601Y-123444000D01*
X145658601Y-116446000D02*
X145343600Y-116446000D01*
X146458800Y-117246199D02*
X145658601Y-116446000D01*
X145658601Y-114845998D02*
X145343600Y-114845998D01*
X146458800Y-114045799D02*
X145658601Y-114845998D01*
X144386000Y-116446000D02*
X145343600Y-116446000D01*
X145343600Y-107988001D02*
X143548001Y-107988001D01*
X115470800Y-125006001D02*
X113576001Y-125006001D01*
X115470800Y-123405999D02*
X114084001Y-123405999D01*
X115470800Y-116370001D02*
X113830001Y-116370001D01*
X115470800Y-114769999D02*
X113830001Y-114769999D01*
X115785801Y-116370001D02*
X115470800Y-116370001D01*
X116586000Y-117170200D02*
X115785801Y-116370001D01*
X115785801Y-114769999D02*
X115470800Y-114769999D01*
X116586000Y-113969800D02*
X115785801Y-114769999D01*
X115785801Y-125006001D02*
X115470800Y-125006001D01*
X116586000Y-125806200D02*
X115785801Y-125006001D01*
X115785801Y-123405999D02*
X115470800Y-123405999D01*
X116586000Y-122605800D02*
X115785801Y-123405999D01*
X146458800Y-108788200D02*
X145620600Y-107950000D01*
X145381601Y-107950000D02*
X145343600Y-107988001D01*
X145620600Y-107950000D02*
X145381601Y-107950000D01*
X145658601Y-106387999D02*
X145343600Y-106387999D01*
X146458800Y-105587800D02*
X145658601Y-106387999D01*
X115785801Y-107988001D02*
X115470800Y-107988001D01*
X116586000Y-108788200D02*
X115785801Y-107988001D01*
X115785801Y-106387999D02*
X115470800Y-106387999D01*
X116586000Y-105587800D02*
X115785801Y-106387999D01*
X115470800Y-107988001D02*
X114338001Y-107988001D01*
X115470800Y-107188000D02*
X113538000Y-107188000D01*
X114084001Y-123405999D02*
X113030000Y-124460000D01*
X113322001Y-106387999D02*
X113030000Y-106680000D01*
X114338001Y-107988001D02*
X113030000Y-106680000D01*
X115470800Y-106387999D02*
X113322001Y-106387999D01*
X113830001Y-114769999D02*
X113030000Y-115570000D01*
X113830001Y-116370001D02*
X113030000Y-115570000D01*
X115470800Y-115570000D02*
X113030000Y-115570000D01*
X115470800Y-124206000D02*
X113284000Y-124206000D01*
X113576001Y-125006001D02*
X113030000Y-124460000D01*
X113284000Y-124206000D02*
X113030000Y-124460000D01*
X113538000Y-107188000D02*
X113030000Y-106680000D01*
X143116000Y-116446000D02*
X144386000Y-116446000D01*
X142240000Y-115570000D02*
X143116000Y-116446000D01*
X145343600Y-115645999D02*
X142315999Y-115645999D01*
X142315999Y-115645999D02*
X142240000Y-115570000D01*
X145343600Y-114845998D02*
X142964002Y-114845998D01*
X142964002Y-114845998D02*
X142240000Y-115570000D01*
X143548001Y-107988001D02*
X142240000Y-106680000D01*
X145343600Y-124244001D02*
X142455999Y-124244001D01*
X142455999Y-124244001D02*
X142240000Y-124460000D01*
X145343600Y-125044002D02*
X142824002Y-125044002D01*
X142824002Y-125044002D02*
X142240000Y-124460000D01*
X142240000Y-106680000D02*
X142748000Y-107188000D01*
X145343600Y-107188000D02*
X142748000Y-107188000D01*
X145343600Y-106387999D02*
X142532001Y-106387999D01*
X142532001Y-106387999D02*
X142240000Y-106680000D01*
X145343600Y-123444000D02*
X143256000Y-123444000D01*
X143256000Y-123444000D02*
X142240000Y-124460000D01*
X175044001Y-123405999D02*
X173990000Y-124460000D01*
X174917001Y-116497001D02*
X173990000Y-115570000D01*
X175260000Y-107950000D02*
X173990000Y-106680000D01*
X176430800Y-115697000D02*
X174117000Y-115697000D01*
X176430800Y-106349998D02*
X174320002Y-106349998D01*
X174663001Y-114896999D02*
X173990000Y-115570000D01*
X174117000Y-115697000D02*
X173990000Y-115570000D01*
X176430800Y-107149999D02*
X174459999Y-107149999D01*
X174320002Y-106349998D02*
X173990000Y-106680000D01*
X174459999Y-107149999D02*
X173990000Y-106680000D01*
X176430800Y-125006001D02*
X174536001Y-125006001D01*
X176430800Y-124206000D02*
X174244000Y-124206000D01*
X174244000Y-124206000D02*
X173990000Y-124460000D01*
X174536001Y-125006001D02*
X173990000Y-124460000D01*
D22*
X143045000Y-101135000D02*
X142875000Y-100965000D01*
X143045000Y-102870000D02*
X143045000Y-101135000D01*
X142246000Y-100336000D02*
X142246000Y-100336000D01*
X142246000Y-97282000D02*
X142246000Y-100336000D01*
X142246000Y-100336000D02*
X142875000Y-100965000D01*
D21*
%TO.N,VCC*%
X127508000Y-55112000D02*
X129032000Y-53588000D01*
X129032000Y-53588000D02*
X129032000Y-50800000D01*
X125990000Y-55112000D02*
X125603000Y-55499000D01*
X127508000Y-55112000D02*
X125990000Y-55112000D01*
X125603000Y-55499000D02*
X125603000Y-56769000D01*
X126492000Y-89656000D02*
X126232000Y-89916000D01*
X126492000Y-84582000D02*
X126492000Y-89656000D01*
D20*
%TO.N,+3V3*%
X141253682Y-61214000D02*
X140970000Y-61214000D01*
D21*
X139446000Y-97282000D02*
X136646000Y-97282000D01*
D20*
X139813000Y-65592000D02*
X139192000Y-64971000D01*
X141391000Y-65592000D02*
X139813000Y-65592000D01*
X152741000Y-65592000D02*
X154037000Y-65592000D01*
X143220000Y-71592000D02*
X141391000Y-71592000D01*
X143256000Y-71628000D02*
X143220000Y-71592000D01*
X140244000Y-53304000D02*
X138684000Y-54864000D01*
X140244000Y-50889000D02*
X140244000Y-53304000D01*
X140244000Y-58839000D02*
X140320000Y-58839000D01*
X140244000Y-59146000D02*
X138938000Y-60452000D01*
X140244000Y-58839000D02*
X140244000Y-59146000D01*
X166789000Y-75982000D02*
X158839000Y-75982000D01*
X156936000Y-75982000D02*
X156718000Y-76200000D01*
X158839000Y-75982000D02*
X156936000Y-75982000D01*
X158839000Y-82840000D02*
X166789000Y-82840000D01*
X156936000Y-82840000D02*
X156718000Y-83058000D01*
X158839000Y-82840000D02*
X156936000Y-82840000D01*
X144316000Y-76752000D02*
X144780000Y-77216000D01*
X144316000Y-75017000D02*
X144316000Y-76752000D01*
X144780000Y-77216000D02*
X144780000Y-78994000D01*
X139901000Y-64262000D02*
X139192000Y-64971000D01*
X140716000Y-64262000D02*
X139901000Y-64262000D01*
X154492000Y-65592000D02*
X155702000Y-66802000D01*
X154037000Y-65592000D02*
X154492000Y-65592000D01*
X152741000Y-75017000D02*
X154178000Y-76454000D01*
X150816000Y-75017000D02*
X152741000Y-75017000D01*
X154729000Y-77005000D02*
X154178000Y-76454000D01*
X154729000Y-78486000D02*
X154729000Y-77005000D01*
X154432000Y-76200000D02*
X154178000Y-76454000D01*
X156718000Y-76200000D02*
X154432000Y-76200000D01*
X140244000Y-60387500D02*
X140970000Y-61113500D01*
X140244000Y-58839000D02*
X140244000Y-60387500D01*
X143316000Y-62639908D02*
X143316000Y-63667000D01*
X141789592Y-61113500D02*
X143316000Y-62639908D01*
X140970000Y-61113500D02*
X141789592Y-61113500D01*
X176430800Y-108749998D02*
X177010002Y-109329200D01*
X176430800Y-125805999D02*
X177010002Y-126385201D01*
X145922802Y-126423202D02*
X150436798Y-126423202D01*
X145343600Y-125844000D02*
X145922802Y-126423202D01*
X145343600Y-108787999D02*
X145922802Y-109367201D01*
X115470800Y-125805999D02*
X116050002Y-126385201D01*
X117701200Y-125805999D02*
X120725999Y-125805999D01*
X115470800Y-117169999D02*
X116410801Y-118110000D01*
X117701200Y-117169999D02*
X120979999Y-117169999D01*
X145343600Y-117245998D02*
X146207602Y-118110000D01*
X147574000Y-117245998D02*
X150265998Y-117245998D01*
X176430800Y-117296999D02*
X177243801Y-118110000D01*
X116410801Y-118110000D02*
X121920000Y-118110000D01*
X121305201Y-126385201D02*
X121920000Y-127000000D01*
X116050002Y-126385201D02*
X121305201Y-126385201D01*
X120725999Y-125805999D02*
X121920000Y-127000000D01*
X120979999Y-117169999D02*
X121920000Y-118110000D01*
X182770800Y-109329200D02*
X182880000Y-109220000D01*
X177010002Y-109329200D02*
X182770800Y-109329200D01*
X178661200Y-108749998D02*
X182409998Y-108749998D01*
X182409998Y-108749998D02*
X182880000Y-109220000D01*
X178661200Y-125805999D02*
X182804001Y-125805999D01*
X182804001Y-125805999D02*
X182880000Y-125730000D01*
X178661200Y-117296999D02*
X182066999Y-117296999D01*
X177243801Y-118110000D02*
X182880000Y-118110000D01*
X182066999Y-117296999D02*
X182880000Y-118110000D01*
X182224799Y-126385201D02*
X182880000Y-125730000D01*
X177010002Y-126385201D02*
X182224799Y-126385201D01*
X150436798Y-126423202D02*
X151130000Y-125730000D01*
X146207602Y-118110000D02*
X151130000Y-118110000D01*
X147574000Y-125844000D02*
X151016000Y-125844000D01*
X151016000Y-125844000D02*
X151130000Y-125730000D01*
X150265998Y-117245998D02*
X151130000Y-118110000D01*
X145922802Y-109367201D02*
X150982799Y-109367201D01*
X147574000Y-108787999D02*
X150697999Y-108787999D01*
X150982799Y-109367201D02*
X151130000Y-109220000D01*
X150697999Y-108787999D02*
X151130000Y-109220000D01*
X121772799Y-109367201D02*
X121920000Y-109220000D01*
X116050002Y-109367201D02*
X121772799Y-109367201D01*
X121487999Y-108787999D02*
X121920000Y-109220000D01*
X115470800Y-108787999D02*
X116050002Y-109367201D01*
X117701200Y-108787999D02*
X121487999Y-108787999D01*
D22*
X140970000Y-102870000D02*
X139446000Y-102870000D01*
X139446000Y-102870000D02*
X137795000Y-102870000D01*
D20*
%TO.N,XSHUT_1*%
X143069408Y-69592000D02*
X142998000Y-69592000D01*
X142998000Y-69592000D02*
X142244000Y-69592000D01*
X142244000Y-69592000D02*
X141391000Y-69592000D01*
X142744000Y-69592000D02*
X143069408Y-69592000D01*
X142244000Y-69592000D02*
X142744000Y-69592000D01*
X142793990Y-69641990D02*
X142744000Y-69592000D01*
X143872407Y-70394999D02*
X143119399Y-69641991D01*
X151908580Y-74566990D02*
X147736589Y-70394999D01*
X154828170Y-74566990D02*
X151908580Y-74566990D01*
X143119399Y-69641991D02*
X142793990Y-69641990D01*
X155191180Y-74930000D02*
X154828170Y-74566990D01*
X165862000Y-74930000D02*
X155191180Y-74930000D01*
X166116000Y-74676000D02*
X165862000Y-74930000D01*
X147736589Y-70394999D02*
X143872407Y-70394999D01*
X167386000Y-74676000D02*
X166116000Y-74676000D01*
X145343600Y-114046000D02*
X144780000Y-114046000D01*
X145343600Y-122644002D02*
X145343600Y-119943600D01*
X141514999Y-116114999D02*
X141514999Y-115025001D01*
X145343600Y-119943600D02*
X141514999Y-116114999D01*
X141514999Y-115025001D02*
X142240000Y-114300000D01*
X145343600Y-114046000D02*
X142494000Y-114046000D01*
X142494000Y-114046000D02*
X142240000Y-114300000D01*
X142258997Y-105588001D02*
X141514999Y-106331999D01*
X145343600Y-105588001D02*
X142258997Y-105588001D01*
X141514999Y-106331999D02*
X141514999Y-113574999D01*
X141514999Y-113574999D02*
X142240000Y-114300000D01*
X145922802Y-105008799D02*
X145343600Y-105588001D01*
X152167611Y-105008799D02*
X145922802Y-105008799D01*
X153221400Y-103955010D02*
X152167611Y-105008799D01*
X155761400Y-103955010D02*
X153221400Y-103955010D01*
X155791010Y-103925400D02*
X155761400Y-103955010D01*
X168910000Y-91010800D02*
X155995400Y-103925400D01*
X168910000Y-75946000D02*
X168910000Y-91010800D01*
X169004999Y-75851001D02*
X168910000Y-75946000D01*
X169004999Y-74073001D02*
X169004999Y-75851001D01*
X155995400Y-103925400D02*
X155791010Y-103925400D01*
X170180000Y-72898000D02*
X169004999Y-74073001D01*
%TO.N,GPIOI_1*%
X146816000Y-79506000D02*
X146816000Y-75017000D01*
X147574000Y-80264000D02*
X146816000Y-79506000D01*
X127542000Y-80518000D02*
X121920000Y-80518000D01*
X147574000Y-114046000D02*
X148082000Y-114046000D01*
X151130000Y-114300000D02*
X152400000Y-113030000D01*
X152400000Y-113030000D02*
X152400000Y-106680000D01*
X151308001Y-105588001D02*
X147574000Y-105588001D01*
X150876000Y-114046000D02*
X147574000Y-114046000D01*
X151130000Y-114300000D02*
X150876000Y-114046000D01*
X151855001Y-115025001D02*
X151130000Y-114300000D01*
X151855001Y-119017000D02*
X151855001Y-115025001D01*
X148227999Y-122644002D02*
X151855001Y-119017000D01*
X147574000Y-122644002D02*
X148227999Y-122644002D01*
X152400000Y-106045000D02*
X151765000Y-106045000D01*
X153035000Y-105410000D02*
X152400000Y-106045000D01*
X151765000Y-106045000D02*
X151308001Y-105588001D01*
X152400000Y-106045000D02*
X152400000Y-106680000D01*
X120744999Y-81693001D02*
X121920000Y-80518000D01*
X120744999Y-101694999D02*
X120744999Y-81693001D01*
X122970010Y-103920010D02*
X120744999Y-101694999D01*
X137575010Y-103920010D02*
X122970010Y-103920010D01*
X138303990Y-104648990D02*
X137575010Y-103920010D01*
X144145000Y-104648990D02*
X138303990Y-104648990D01*
X144873980Y-103920010D02*
X144145000Y-104648990D01*
X150079990Y-103920010D02*
X144873980Y-103920010D01*
X150495000Y-103505000D02*
X150079990Y-103920010D01*
%TO.N,XSHUT_2*%
X147864999Y-73877001D02*
X148082000Y-73660000D01*
X146717999Y-73877001D02*
X147864999Y-73877001D01*
X142932998Y-70092000D02*
X146717999Y-73877001D01*
X141391000Y-70092000D02*
X142932998Y-70092000D01*
X149275002Y-78054998D02*
X152754004Y-81534000D01*
X152754004Y-81534000D02*
X165354000Y-81534000D01*
X176430800Y-122606001D02*
X176430800Y-119083802D01*
X176430800Y-114097001D02*
X174192999Y-114097001D01*
X174192999Y-114097001D02*
X173990000Y-114300000D01*
X173990000Y-114300000D02*
X173264999Y-115025001D01*
X176430800Y-119083802D02*
X173264999Y-115918001D01*
X173264999Y-115918001D02*
X173264999Y-115025001D01*
X176430800Y-105550000D02*
X174046998Y-105550000D01*
X174046998Y-105550000D02*
X173264999Y-106331999D01*
X173264999Y-113574999D02*
X173990000Y-114300000D01*
X173264999Y-106331999D02*
X173264999Y-113574999D01*
X170180000Y-80518000D02*
X171355001Y-81693001D01*
X171355001Y-100474201D02*
X176430800Y-105550000D01*
X171355001Y-95344999D02*
X171355001Y-100474201D01*
X171355001Y-81693001D02*
X171355001Y-95344999D01*
%TO.N,GPIOI_2*%
X148590000Y-80206998D02*
X148590000Y-81026000D01*
X147316000Y-78932998D02*
X148590000Y-80206998D01*
X147316000Y-75017000D02*
X147316000Y-78932998D01*
X152109001Y-84545001D02*
X152109001Y-85432591D01*
X148590000Y-81026000D02*
X152109001Y-84545001D01*
X155692990Y-94788180D02*
X156154810Y-95250000D01*
X155692990Y-89016580D02*
X155692990Y-94788180D01*
X152109001Y-85432591D02*
X155692990Y-89016580D01*
X158750000Y-95250000D02*
X160274000Y-96774000D01*
X156154810Y-95250000D02*
X158750000Y-95250000D01*
X121920000Y-83058000D02*
X123952000Y-83058000D01*
X123952000Y-83058000D02*
X125476000Y-81534000D01*
X125476000Y-81534000D02*
X128016000Y-81534000D01*
X129540000Y-83058000D02*
X131572000Y-83058000D01*
X128016000Y-81534000D02*
X129540000Y-83058000D01*
X183605001Y-113574999D02*
X182880000Y-114300000D01*
X182677001Y-114097001D02*
X182880000Y-114300000D01*
X178661200Y-114097001D02*
X182677001Y-114097001D01*
X183605001Y-107224999D02*
X183605001Y-113574999D01*
X181930002Y-105550000D02*
X183605001Y-107224999D01*
X178661200Y-105550000D02*
X181930002Y-105550000D01*
X183605001Y-118458001D02*
X183605001Y-115025001D01*
X179457001Y-122606001D02*
X183605001Y-118458001D01*
X183605001Y-115025001D02*
X182880000Y-114300000D01*
X178661200Y-122606001D02*
X179457001Y-122606001D01*
X160274000Y-96774000D02*
X160020000Y-96520000D01*
X179070000Y-105141200D02*
X178661200Y-105550000D01*
X179070000Y-103505000D02*
X179070000Y-105141200D01*
%TO.N,XSHUT_0*%
X169080000Y-68834000D02*
X168337795Y-69576205D01*
X170180000Y-68834000D02*
X169080000Y-68834000D01*
X168337795Y-73216205D02*
X167958205Y-73595795D01*
X168337795Y-73087795D02*
X168337795Y-73216205D01*
X167958205Y-73595795D02*
X168337795Y-73595795D01*
X168337795Y-69576205D02*
X168337795Y-73087795D01*
X168337795Y-73087795D02*
X168337795Y-73595795D01*
X168337795Y-73975385D02*
X167958205Y-73595795D01*
X168337795Y-73978205D02*
X168337795Y-73975385D01*
X168337795Y-73595795D02*
X168337795Y-73978205D01*
X143260000Y-69092000D02*
X141391000Y-69092000D01*
X152094980Y-74116980D02*
X147922989Y-69944989D01*
X155014570Y-74116980D02*
X152094980Y-74116980D01*
X155261600Y-74364010D02*
X155014570Y-74116980D01*
X144112989Y-69944989D02*
X143260000Y-69092000D01*
X165791580Y-74364010D02*
X155261600Y-74364010D01*
X147922989Y-69944989D02*
X144112989Y-69944989D01*
X166559795Y-73595795D02*
X165791580Y-74364010D01*
X167958205Y-73595795D02*
X166559795Y-73595795D01*
X113359999Y-113970001D02*
X113030000Y-114300000D01*
X115470800Y-113970001D02*
X113359999Y-113970001D01*
X113048997Y-105588001D02*
X115470800Y-105588001D01*
X112304999Y-106331999D02*
X113048997Y-105588001D01*
X112304999Y-113574999D02*
X112304999Y-106331999D01*
X113030000Y-114300000D02*
X112304999Y-113574999D01*
X112304999Y-115025001D02*
X113030000Y-114300000D01*
X112304999Y-115918001D02*
X112304999Y-115025001D01*
X115470800Y-119083802D02*
X112304999Y-115918001D01*
X115470800Y-122606001D02*
X115470800Y-119083802D01*
X116500012Y-104558789D02*
X115470800Y-105588001D01*
X137565789Y-104558789D02*
X116500012Y-104558789D01*
X138106000Y-105099000D02*
X137565789Y-104558789D01*
X145154811Y-104558789D02*
X144614600Y-105099000D01*
X153035000Y-103505000D02*
X151981211Y-104558789D01*
X144614600Y-105099000D02*
X138106000Y-105099000D01*
X155575000Y-103505000D02*
X153035000Y-103505000D01*
X151981211Y-104558789D02*
X145154811Y-104558789D01*
X168337795Y-90742205D02*
X155575000Y-103505000D01*
X168337795Y-73978205D02*
X168337795Y-90742205D01*
%TO.N,GPIOI_0*%
X138704000Y-70592000D02*
X138430000Y-70866000D01*
X141391000Y-70592000D02*
X138704000Y-70592000D01*
X127508000Y-72390000D02*
X121920000Y-77978000D01*
X130302000Y-72390000D02*
X127508000Y-72390000D01*
X120142000Y-79756000D02*
X120142000Y-98552000D01*
X121920000Y-77978000D02*
X120142000Y-79756000D01*
X121590001Y-113970001D02*
X121920000Y-114300000D01*
X117701200Y-113970001D02*
X121590001Y-113970001D01*
X118497001Y-122606001D02*
X117701200Y-122606001D01*
X122645001Y-118458001D02*
X118497001Y-122606001D01*
X122645001Y-115025001D02*
X122645001Y-118458001D01*
X121920000Y-114300000D02*
X122645001Y-115025001D01*
X122645001Y-113574999D02*
X121920000Y-114300000D01*
X122645001Y-107601999D02*
X122645001Y-113574999D01*
X120631003Y-105588001D02*
X122645001Y-107601999D01*
X117701200Y-105588001D02*
X120631003Y-105588001D01*
X120142000Y-103378000D02*
X120015000Y-103505000D01*
X120142000Y-98552000D02*
X120142000Y-103378000D01*
X120809004Y-105410000D02*
X120631003Y-105588001D01*
X121920000Y-105410000D02*
X120809004Y-105410000D01*
%TO.N,LED_3*%
X145816000Y-75017000D02*
X145816000Y-81046000D01*
X146558000Y-83820000D02*
X148082000Y-85344000D01*
X146558000Y-81788000D02*
X146558000Y-83820000D01*
X145816000Y-81046000D02*
X146558000Y-81788000D01*
X148082000Y-86106000D02*
X152146000Y-90170000D01*
X148082000Y-85344000D02*
X148082000Y-86106000D01*
%TO.N,LED_4*%
X146316000Y-75017000D02*
X146316000Y-80276000D01*
X148590000Y-84328000D02*
X149606000Y-85344000D01*
X148590000Y-82550000D02*
X148590000Y-84328000D01*
X146316000Y-80276000D02*
X148590000Y-82550000D01*
X149606000Y-85344000D02*
X154432000Y-90170000D01*
%TO.N,LED_5*%
X147816000Y-76950000D02*
X147816000Y-75017000D01*
X147816000Y-77259220D02*
X147816000Y-76950000D01*
X152908000Y-85179190D02*
X152990405Y-85261595D01*
X152908000Y-83566000D02*
X152908000Y-85179190D01*
X147816000Y-78474000D02*
X152908000Y-83566000D01*
X156718000Y-88989190D02*
X156718000Y-90186000D01*
X147816000Y-76950000D02*
X147816000Y-78474000D01*
X152990405Y-85261595D02*
X156718000Y-88989190D01*
%TO.N,LED_1*%
X139840980Y-74945390D02*
X139840980Y-72664908D01*
X141027990Y-76132400D02*
X139840980Y-74945390D01*
X141027990Y-78221402D02*
X141027990Y-76132400D01*
X140413888Y-72092000D02*
X141391000Y-72092000D01*
X139840980Y-72664908D02*
X140413888Y-72092000D01*
X141986000Y-79179412D02*
X141512294Y-78705706D01*
X141512294Y-78705706D02*
X141027990Y-78221402D01*
X145068294Y-85309706D02*
X145034000Y-85344000D01*
X145068294Y-82261706D02*
X145068294Y-85309706D01*
X141512294Y-78705706D02*
X145068294Y-82261706D01*
X145034000Y-87662000D02*
X147574000Y-90202000D01*
X145034000Y-85344000D02*
X145034000Y-87662000D01*
%TO.N,LED_2*%
X143100499Y-79657501D02*
X144272000Y-80829002D01*
X141478000Y-78035002D02*
X143100499Y-79657501D01*
X140290990Y-74758990D02*
X140290990Y-72851308D01*
X141478000Y-75946000D02*
X140290990Y-74758990D01*
X140550298Y-72592000D02*
X141391000Y-72592000D01*
X140290990Y-72851308D02*
X140550298Y-72592000D01*
X141478000Y-78035002D02*
X141478000Y-75946000D01*
X145518304Y-84304304D02*
X146558000Y-85344000D01*
X145518304Y-82075306D02*
X145518304Y-84304304D01*
X145005499Y-81562501D02*
X145518304Y-82075306D01*
X145005499Y-81562501D02*
X141478000Y-78035002D01*
X146558000Y-86868000D02*
X149860000Y-90170000D01*
X146558000Y-85344000D02*
X146558000Y-86868000D01*
%TO.N,SW_1*%
X158803000Y-87376000D02*
X158839000Y-87340000D01*
X156718000Y-87376000D02*
X158803000Y-87376000D01*
X154722999Y-85380999D02*
X156718000Y-87376000D01*
X154722999Y-85380999D02*
X154722999Y-84618999D01*
X148316000Y-78212000D02*
X148316000Y-76180000D01*
X154722999Y-84618999D02*
X148316000Y-78212000D01*
X148316000Y-75017000D02*
X148316000Y-76180000D01*
X161508000Y-86832000D02*
X160782000Y-86106000D01*
X161508000Y-87340000D02*
X161508000Y-86832000D01*
X158839000Y-87340000D02*
X161508000Y-87340000D01*
X161508000Y-87340000D02*
X166789000Y-87340000D01*
%TO.N,SW_2*%
X158835000Y-80486000D02*
X158839000Y-80482000D01*
X156718000Y-80486000D02*
X158835000Y-80486000D01*
X166789000Y-80482000D02*
X158839000Y-80482000D01*
X156807190Y-76962000D02*
X155702000Y-76962000D01*
X158839000Y-78993810D02*
X156807190Y-76962000D01*
X158839000Y-80482000D02*
X158839000Y-78993810D01*
X148816000Y-76570690D02*
X148816000Y-75017000D01*
X152731310Y-80486000D02*
X148816000Y-76570690D01*
X156718000Y-80486000D02*
X152731310Y-80486000D01*
%TO.N,Net-(D1-Pad2)*%
X147574000Y-92202000D02*
X147574000Y-94216000D01*
%TO.N,Net-(D2-Pad2)*%
X149860000Y-92170000D02*
X149860000Y-94234000D01*
%TO.N,Net-(D3-Pad2)*%
X152146000Y-92170000D02*
X152146000Y-94234000D01*
%TO.N,Net-(D4-Pad2)*%
X154432000Y-92170000D02*
X154432000Y-94234000D01*
%TO.N,Net-(D5-Pad2)*%
X156718000Y-92186000D02*
X156718000Y-94225000D01*
D21*
%TO.N,+5V*%
X136646000Y-90699997D02*
X135128000Y-92217997D01*
X136646000Y-89916000D02*
X136646000Y-90699997D01*
X135128000Y-92217997D02*
X135128000Y-93980000D01*
%TO.N,Net-(C6-Pad1)*%
X126486000Y-97028000D02*
X126232000Y-97282000D01*
X129032000Y-97028000D02*
X126486000Y-97028000D01*
D20*
%TO.N,/STM32L151RET6TR/MCO*%
X133604000Y-73591002D02*
X133604000Y-74236000D01*
X137414000Y-69781002D02*
X133604000Y-73591002D01*
X137819020Y-67666980D02*
X137414000Y-68072000D01*
X140359020Y-67666980D02*
X137819020Y-67666980D01*
X140434000Y-67592000D02*
X140359020Y-67666980D01*
X141391000Y-67592000D02*
X140434000Y-67592000D01*
X137414000Y-68072000D02*
X137414000Y-69781002D01*
X133239000Y-73871000D02*
X133604000Y-74236000D01*
X129540000Y-73871000D02*
X133239000Y-73871000D01*
%TO.N,/STM32L151RET6TR/OSM_OUT*%
X135890000Y-80450000D02*
X133604000Y-82736000D01*
X137864010Y-68383990D02*
X137864010Y-70161990D01*
X138131010Y-68116990D02*
X137864010Y-68383990D01*
X141179010Y-68116990D02*
X138131010Y-68116990D01*
X141204000Y-68092000D02*
X141179010Y-68116990D01*
X137864010Y-70161990D02*
X135890000Y-72136000D01*
X141391000Y-68092000D02*
X141204000Y-68092000D01*
X135890000Y-78486000D02*
X135890000Y-80450000D01*
X135890000Y-72136000D02*
X135890000Y-78486000D01*
X131132000Y-80264000D02*
X133604000Y-82736000D01*
X129540000Y-80264000D02*
X131132000Y-80264000D01*
%TO.N,/STM32L151RET6TR/OS32_OUT*%
X136354000Y-67862000D02*
X136354000Y-68656000D01*
X137099010Y-67116990D02*
X136354000Y-67862000D01*
X140909010Y-67116990D02*
X137099010Y-67116990D01*
X140934000Y-67092000D02*
X140909010Y-67116990D01*
X141391000Y-67092000D02*
X140934000Y-67092000D01*
X128097001Y-69931001D02*
X128016000Y-69850000D01*
X135078999Y-69931001D02*
X128097001Y-69931001D01*
X136354000Y-68656000D02*
X135078999Y-69931001D01*
%TO.N,/STM32L151RET6TR/BOOT*%
X145316000Y-59411000D02*
X144744000Y-58839000D01*
X145316000Y-63667000D02*
X145316000Y-59411000D01*
X144744000Y-58839000D02*
X144744000Y-52614000D01*
X144744000Y-52614000D02*
X144744000Y-50889000D01*
%TO.N,/STM32L151RET6TR/RST*%
X138839000Y-68592000D02*
X138589010Y-68841990D01*
X141391000Y-68592000D02*
X138839000Y-68592000D01*
X137668000Y-59129000D02*
X137378000Y-58839000D01*
X137668000Y-63500000D02*
X137668000Y-59129000D01*
X137378000Y-54828000D02*
X137378000Y-50889000D01*
X137378000Y-58839000D02*
X137378000Y-54828000D01*
X138478001Y-49788999D02*
X137378000Y-50889000D01*
X145546999Y-49788999D02*
X138478001Y-49788999D01*
X148082000Y-52324000D02*
X145546999Y-49788999D01*
%TO.N,/STM32L151RET6TR/OS32_IN*%
X136354000Y-65742000D02*
X136354000Y-65456000D01*
X137204000Y-66592000D02*
X136354000Y-65742000D01*
X141391000Y-66592000D02*
X137204000Y-66592000D01*
X128351001Y-64180999D02*
X128016000Y-64516000D01*
X135078999Y-64180999D02*
X128351001Y-64180999D01*
X136354000Y-65456000D02*
X135078999Y-64180999D01*
%TO.N,SCL1*%
X143768999Y-55367001D02*
X144018000Y-55118000D01*
X143768999Y-59874001D02*
X143768999Y-55367001D01*
X144816000Y-60921002D02*
X143768999Y-59874001D01*
X144816000Y-63667000D02*
X144816000Y-60921002D01*
X182537001Y-116497001D02*
X182880000Y-116840000D01*
X178661200Y-116497001D02*
X182537001Y-116497001D01*
X150736000Y-116446000D02*
X151130000Y-116840000D01*
X147574000Y-116446000D02*
X150736000Y-116446000D01*
X121450001Y-116370001D02*
X121920000Y-116840000D01*
X117701200Y-116370001D02*
X121450001Y-116370001D01*
X180340000Y-107950000D02*
X181610000Y-106680000D01*
X178661200Y-107950000D02*
X180340000Y-107950000D01*
X149186999Y-107988001D02*
X150495000Y-106680000D01*
X147574000Y-107988001D02*
X149186999Y-107988001D01*
X119341999Y-107988001D02*
X120650000Y-106680000D01*
X117701200Y-107988001D02*
X119341999Y-107988001D01*
X119468999Y-125006001D02*
X120650000Y-123825000D01*
X117701200Y-125006001D02*
X119468999Y-125006001D01*
X149079000Y-125044002D02*
X150225003Y-123897999D01*
X150225003Y-123897999D02*
X150225003Y-123825000D01*
X147574000Y-125044002D02*
X149079000Y-125044002D01*
X180428999Y-125006001D02*
X181610000Y-123825000D01*
X178661200Y-125006001D02*
X180428999Y-125006001D01*
X107950000Y-107315000D02*
X109220000Y-108585000D01*
X109220000Y-111125000D02*
X109220000Y-108585000D01*
%TO.N,SDA1*%
X142594294Y-59335706D02*
X144316000Y-61057412D01*
X144316000Y-61057412D02*
X144316000Y-63667000D01*
X142594294Y-59179292D02*
X142594294Y-59335706D01*
X141154001Y-57738999D02*
X142594294Y-59179292D01*
X139333999Y-57738999D02*
X141154001Y-57738999D01*
X138933347Y-58139651D02*
X139333999Y-57738999D01*
X138933347Y-59431347D02*
X138933347Y-58139651D01*
X182753000Y-115697000D02*
X182880000Y-115570000D01*
X178661200Y-115697000D02*
X182753000Y-115697000D01*
X151054001Y-115645999D02*
X151130000Y-115570000D01*
X147574000Y-115645999D02*
X151054001Y-115645999D01*
X117701200Y-115570000D02*
X121920000Y-115570000D01*
X179870001Y-107149999D02*
X180340000Y-106680000D01*
X178661200Y-107149999D02*
X179870001Y-107149999D01*
X148717000Y-107188000D02*
X149225000Y-106680000D01*
X147574000Y-107188000D02*
X148717000Y-107188000D01*
X118872000Y-107188000D02*
X119380000Y-106680000D01*
X117701200Y-107188000D02*
X118872000Y-107188000D01*
X118999000Y-124206000D02*
X119380000Y-123825000D01*
X117701200Y-124206000D02*
X118999000Y-124206000D01*
X148805999Y-124244001D02*
X149225000Y-123825000D01*
X147574000Y-124244001D02*
X148805999Y-124244001D01*
X179959000Y-124206000D02*
X180340000Y-123825000D01*
X178661200Y-124206000D02*
X179959000Y-124206000D01*
%TO.N,/STM32L151RET6TR/FTDI_RTS*%
X159512000Y-60706000D02*
X157639001Y-62578999D01*
X159512000Y-52070000D02*
X159512000Y-60706000D01*
X158496000Y-51054000D02*
X159512000Y-52070000D01*
X156972000Y-51054000D02*
X158496000Y-51054000D01*
X153670000Y-64262000D02*
X154686000Y-64262000D01*
X154686000Y-64262000D02*
X155448000Y-63500000D01*
X155448000Y-63500000D02*
X155448000Y-62992000D01*
X155448000Y-62992000D02*
X155861001Y-62578999D01*
X157639001Y-62578999D02*
X155861001Y-62578999D01*
X147864000Y-67092000D02*
X146558000Y-65786000D01*
X152741000Y-67092000D02*
X147864000Y-67092000D01*
%TO.N,/STM32L151RET6TR/FTDI_RXD*%
X156972000Y-54063002D02*
X156972000Y-53594000D01*
X156464000Y-54102000D02*
X156972000Y-53594000D01*
X154393002Y-54102000D02*
X156464000Y-54102000D01*
X153726001Y-54769001D02*
X154393002Y-54102000D01*
X145796000Y-62806298D02*
X145796000Y-57950998D01*
X148977997Y-54769001D02*
X153726001Y-54769001D01*
X145816000Y-62826298D02*
X145796000Y-62806298D01*
X145796000Y-57950998D02*
X148977997Y-54769001D01*
X145816000Y-63667000D02*
X145816000Y-62826298D01*
%TO.N,/STM32L151RET6TR/FTDI_TXD*%
X155702000Y-57404000D02*
X156972000Y-56134000D01*
X148336998Y-57404000D02*
X155702000Y-57404000D01*
X146316000Y-59424998D02*
X148336998Y-57404000D01*
X146316000Y-63667000D02*
X146316000Y-59424998D01*
%TO.N,/STM32L151RET6TR/FTDI_CTS*%
X152741000Y-67592000D02*
X147544998Y-67592000D01*
X147094000Y-67592000D02*
X145542000Y-66040000D01*
X147544998Y-67592000D02*
X147094000Y-67592000D01*
%TO.N,/STM32L151RET6TR/SW0*%
X151383002Y-58928000D02*
X151384000Y-58928000D01*
X147816000Y-62495002D02*
X151383002Y-58928000D01*
X147816000Y-63667000D02*
X147816000Y-62495002D01*
X151384000Y-50292000D02*
X153162000Y-48514000D01*
X151384000Y-53340000D02*
X151384000Y-50292000D01*
%TO.N,/STM32L151RET6TR/SWCLK*%
X153162000Y-58928998D02*
X153162000Y-58674000D01*
X150816000Y-61274998D02*
X153162000Y-58928998D01*
X150816000Y-63667000D02*
X150816000Y-61274998D01*
%TO.N,/STM32L151RET6TR/SWDAT*%
X151763888Y-66592000D02*
X152741000Y-66592000D01*
X153162000Y-53594000D02*
X154337001Y-52418999D01*
X158967001Y-53849999D02*
X158967001Y-58418001D01*
X157536001Y-52418999D02*
X158967001Y-53849999D01*
X157346003Y-60038999D02*
X156407999Y-60038999D01*
X154337001Y-52418999D02*
X157536001Y-52418999D01*
X158967001Y-58418001D02*
X157346003Y-60038999D01*
X151865944Y-64489944D02*
X151190981Y-65164907D01*
X154337001Y-62109997D02*
X154337001Y-62324001D01*
X156407999Y-60038999D02*
X154337001Y-62109997D01*
X154337001Y-62324001D02*
X152171058Y-64489944D01*
X151190981Y-65164907D02*
X151190980Y-66019092D01*
X152171058Y-64489944D02*
X151865944Y-64489944D01*
X151190980Y-66019092D02*
X151763888Y-66592000D01*
%TO.N,/STM32L151RET6TR/UART_RX*%
X140658009Y-80067991D02*
X140970000Y-79756000D01*
X140658009Y-81845991D02*
X140658009Y-80067991D01*
X138430000Y-84074000D02*
X140658009Y-81845991D01*
X143149000Y-75184000D02*
X143316000Y-75017000D01*
X141986000Y-75184000D02*
X143149000Y-75184000D01*
%TO.N,/STM32L151RET6TR/UART_TX*%
X141391000Y-73827000D02*
X141478000Y-73914000D01*
X141391000Y-73092000D02*
X141391000Y-73827000D01*
X140208000Y-79756000D02*
X138430000Y-81534000D01*
X140208000Y-76708000D02*
X140208000Y-79756000D01*
%TO.N,SCL2*%
X161834999Y-53557001D02*
X162560000Y-52832000D01*
X161834999Y-55335001D02*
X161834999Y-53557001D01*
X160897980Y-61352020D02*
X160897980Y-60590020D01*
X160193970Y-63072030D02*
X160193970Y-62056030D01*
X160897980Y-60590020D02*
X160897982Y-56272018D01*
X159431973Y-63834027D02*
X160193970Y-63072030D01*
X159431972Y-67769618D02*
X159431973Y-63834027D01*
X160897982Y-56272018D02*
X161834999Y-55335001D01*
X158679580Y-68522010D02*
X159431972Y-67769618D01*
X155505990Y-68522010D02*
X158679580Y-68522010D01*
X160193970Y-62056030D02*
X160897980Y-61352020D01*
X155194000Y-68834000D02*
X155505990Y-68522010D01*
%TO.N,SDA2*%
X161834999Y-58000591D02*
X161834999Y-56097001D01*
X161347990Y-61661190D02*
X161347990Y-58487600D01*
X161347990Y-58487600D02*
X161834999Y-58000591D01*
X160643980Y-62365200D02*
X161347990Y-61661190D01*
X161834999Y-56097001D02*
X162560000Y-55372000D01*
X160643980Y-63384020D02*
X160643980Y-62365200D01*
X159881981Y-64146019D02*
X160643980Y-63384020D01*
X159881981Y-67956019D02*
X159881981Y-64146019D01*
X158246000Y-69592000D02*
X159881981Y-67956019D01*
X152741000Y-69592000D02*
X158246000Y-69592000D01*
%TO.N,/STM32L151RET6TR/PIN41*%
X151134000Y-69092000D02*
X151130000Y-69088000D01*
X152741000Y-69092000D02*
X151134000Y-69092000D01*
%TO.N,/STM32L151RET6TR/PIN29*%
X149316000Y-73820315D02*
X149316000Y-75017000D01*
X147631685Y-72136000D02*
X149316000Y-73820315D01*
X147066000Y-72136000D02*
X147631685Y-72136000D01*
%TO.N,/STM32L151RET6TR/PIN30*%
X149816000Y-74176298D02*
X149816000Y-75017000D01*
X149816000Y-73304315D02*
X149816000Y-75017000D01*
X147631685Y-71120000D02*
X149816000Y-73304315D01*
X147066000Y-71120000D02*
X147631685Y-71120000D01*
%TO.N,/STM32L151RET6TR/PB12*%
X162500000Y-73092000D02*
X162560000Y-73152000D01*
X159960000Y-73092000D02*
X162500000Y-73092000D01*
X154833630Y-73174040D02*
X159877960Y-73174040D01*
X159877960Y-73174040D02*
X159960000Y-73092000D01*
X154751590Y-73092000D02*
X154833630Y-73174040D01*
X152741000Y-73092000D02*
X154751590Y-73092000D01*
%TO.N,/STM32L151RET6TR/PB13*%
X158927590Y-72592000D02*
X160580000Y-72592000D01*
X160580000Y-72592000D02*
X162560000Y-70612000D01*
X155020030Y-72724030D02*
X158795560Y-72724030D01*
X158795560Y-72724030D02*
X158927590Y-72592000D01*
X154888000Y-72592000D02*
X155020030Y-72724030D01*
X152741000Y-72592000D02*
X154888000Y-72592000D01*
%TO.N,/STM32L151RET6TR/PB14*%
X162560000Y-69088000D02*
X162560000Y-68072000D01*
X159556000Y-72092000D02*
X162560000Y-69088000D01*
X158791180Y-72092000D02*
X159556000Y-72092000D01*
X158609160Y-72274020D02*
X158791180Y-72092000D01*
X155206430Y-72274020D02*
X158609160Y-72274020D01*
X155024410Y-72092000D02*
X155206430Y-72274020D01*
X152741000Y-72092000D02*
X155024410Y-72092000D01*
%TO.N,/STM32L151RET6TR/PB15*%
X161769499Y-66322501D02*
X162560000Y-65532000D01*
X158676760Y-71570010D02*
X159315990Y-71570010D01*
X161769499Y-69116501D02*
X161769499Y-66322501D01*
X158422760Y-71824010D02*
X158676760Y-71570010D01*
X155392830Y-71824010D02*
X158422760Y-71824010D01*
X159315990Y-71570010D02*
X161769499Y-69116501D01*
X155160820Y-71592000D02*
X155392830Y-71824010D01*
X152741000Y-71592000D02*
X155160820Y-71592000D01*
%TO.N,/STM32L151RET6TR/PC6*%
X161290000Y-65278000D02*
X162560000Y-64008000D01*
X161290000Y-68834000D02*
X161290000Y-65278000D01*
X159004000Y-71120000D02*
X161290000Y-68834000D01*
X158490360Y-71120000D02*
X159004000Y-71120000D01*
X158236360Y-71374000D02*
X158490360Y-71120000D01*
X155579230Y-71374000D02*
X158236360Y-71374000D01*
X155297230Y-71092000D02*
X155579230Y-71374000D01*
X162560000Y-64008000D02*
X162560000Y-62992000D01*
X152741000Y-71092000D02*
X155297230Y-71092000D01*
%TO.N,/STM32L151RET6TR/PC7*%
X160782000Y-68580000D02*
X160782000Y-64770000D01*
X158770000Y-70592000D02*
X160782000Y-68580000D01*
X158381950Y-70592000D02*
X158770000Y-70592000D01*
X161544000Y-64008000D02*
X161544000Y-62738000D01*
X158202939Y-70771011D02*
X158381950Y-70592000D01*
X155612651Y-70771011D02*
X158202939Y-70771011D01*
X162560000Y-61722000D02*
X162560000Y-60452000D01*
X161544000Y-62738000D02*
X162560000Y-61722000D01*
X155433640Y-70592000D02*
X155612651Y-70771011D01*
X160782000Y-64770000D02*
X161544000Y-64008000D01*
X152741000Y-70592000D02*
X155433640Y-70592000D01*
%TO.N,/STM32L151RET6TR/PC8*%
X153174000Y-70092000D02*
X152741000Y-70092000D01*
X162560000Y-57912000D02*
X161798000Y-58674000D01*
X153198990Y-70067010D02*
X153174000Y-70092000D01*
X161798000Y-58674000D02*
X161798000Y-61847590D01*
X161798000Y-61847590D02*
X161093990Y-62551600D01*
X161093990Y-62551600D02*
X161093990Y-63696010D01*
X155545060Y-70067010D02*
X153198990Y-70067010D01*
X161093990Y-63696010D02*
X160331990Y-64458010D01*
X160331990Y-64458010D02*
X160331990Y-68268010D01*
X160331990Y-68268010D02*
X158458010Y-70141990D01*
X158195550Y-70141990D02*
X158458010Y-70141990D01*
X158016539Y-70321001D02*
X158195550Y-70141990D01*
X155799051Y-70321001D02*
X158016539Y-70321001D01*
X155545060Y-70067010D02*
X155799051Y-70321001D01*
%TO.N,/STM32L151RET6TR/PA9*%
X160447971Y-54944029D02*
X161384989Y-54007011D01*
X161384989Y-51467011D02*
X162560000Y-50292000D01*
X159743960Y-61869630D02*
X160447971Y-61165619D01*
X159743960Y-62885630D02*
X159743960Y-61869630D01*
X161384989Y-54007011D02*
X161384989Y-51467011D01*
X158981963Y-67583217D02*
X158981964Y-66525964D01*
X160447971Y-61165619D02*
X160447971Y-54944029D01*
X158493180Y-68072000D02*
X158981963Y-67583217D01*
X158981964Y-66525964D02*
X158981964Y-63647626D01*
X154882998Y-68072000D02*
X158493180Y-68072000D01*
X154362998Y-68592000D02*
X154882998Y-68072000D01*
X158981964Y-63647626D02*
X159743960Y-62885630D01*
X152741000Y-68592000D02*
X154362998Y-68592000D01*
%TO.N,/STM32L151RET6TR/PA10*%
X162560000Y-49218998D02*
X162560000Y-48006000D01*
X159997961Y-51781037D02*
X162560000Y-49218998D01*
X159997961Y-60979219D02*
X159997961Y-51781037D01*
X162560000Y-48006000D02*
X162814000Y-47752000D01*
X158496000Y-67310000D02*
X158496000Y-63246000D01*
X158184010Y-67621990D02*
X158496000Y-67310000D01*
X159293950Y-62448050D02*
X159293951Y-61683229D01*
X154696598Y-67621990D02*
X158184010Y-67621990D01*
X158496000Y-63246000D02*
X159293950Y-62448050D01*
X154226588Y-68092000D02*
X154696598Y-67621990D01*
X159293951Y-61683229D02*
X159997961Y-60979219D01*
X152741000Y-68092000D02*
X154226588Y-68092000D01*
%TD*%
M02*
