%TF.GenerationSoftware,KiCad,Pcbnew,(5.1.10)-1*%
%TF.CreationDate,2022-02-24T08:52:08+01:00*%
%TF.ProjectId,GestureControl,47657374-7572-4654-936f-6e74726f6c2e,V0.1*%
%TF.SameCoordinates,Original*%
%TF.FileFunction,Legend,Bot*%
%TF.FilePolarity,Positive*%
%FSLAX46Y46*%
G04 Gerber Fmt 4.6, Leading zero omitted, Abs format (unit mm)*
G04 Created by KiCad (PCBNEW (5.1.10)-1) date 2022-02-24 08:52:08*
%MOMM*%
%LPD*%
G01*
G04 APERTURE LIST*
%ADD10C,0.120000*%
%ADD11C,0.150000*%
G04 APERTURE END LIST*
D10*
X147828000Y-53594000D02*
X148082000Y-53594000D01*
X148082000Y-61468000D02*
X147828000Y-61468000D01*
X148082000Y-53594000D02*
X148082000Y-61468000D01*
X140970000Y-62738000D02*
X141478000Y-62738000D01*
X140970000Y-62230000D02*
X140970000Y-62738000D01*
X140970000Y-62738000D02*
X140970000Y-62230000D01*
X141986000Y-61468000D02*
X140970000Y-62738000D01*
X141986000Y-61468000D02*
X141986000Y-53594000D01*
X147828000Y-61468000D02*
X141986000Y-61468000D01*
X145034000Y-53594000D02*
X145034000Y-61468000D01*
X141986000Y-53594000D02*
X147828000Y-53594000D01*
X128016000Y-98044000D02*
X128524000Y-98044000D01*
X128016000Y-106426000D02*
X128016000Y-98044000D01*
X133604000Y-106426000D02*
X128016000Y-106426000D01*
X133604000Y-98044000D02*
X133604000Y-106426000D01*
X128524000Y-98044000D02*
X133604000Y-98044000D01*
%TO.C,J19*%
X134686000Y-72324000D02*
X136586000Y-72324000D01*
X136586000Y-72324000D02*
X136586000Y-70424000D01*
X136586000Y-70424000D02*
X134686000Y-70424000D01*
X134686000Y-70424000D02*
X134686000Y-72324000D01*
%TO.C,J18*%
X134686000Y-69784000D02*
X136586000Y-69784000D01*
X136586000Y-69784000D02*
X136586000Y-67884000D01*
X136586000Y-67884000D02*
X134686000Y-67884000D01*
X134686000Y-67884000D02*
X134686000Y-69784000D01*
%TO.C,J17*%
X134686000Y-67244000D02*
X136586000Y-67244000D01*
X136586000Y-67244000D02*
X136586000Y-65344000D01*
X136586000Y-65344000D02*
X134686000Y-65344000D01*
X134686000Y-65344000D02*
X134686000Y-67244000D01*
%TO.C,J16*%
X134686000Y-64704000D02*
X136586000Y-64704000D01*
X136586000Y-64704000D02*
X136586000Y-62804000D01*
X136586000Y-62804000D02*
X134686000Y-62804000D01*
X134686000Y-62804000D02*
X134686000Y-64704000D01*
%TO.C,J15*%
X134686000Y-62164000D02*
X136586000Y-62164000D01*
X136586000Y-62164000D02*
X136586000Y-60264000D01*
X136586000Y-60264000D02*
X134686000Y-60264000D01*
X134686000Y-60264000D02*
X134686000Y-62164000D01*
%TO.C,J14*%
X137226000Y-69784000D02*
X139126000Y-69784000D01*
X139126000Y-69784000D02*
X139126000Y-67884000D01*
X139126000Y-67884000D02*
X137226000Y-67884000D01*
X137226000Y-67884000D02*
X137226000Y-69784000D01*
%TO.C,J13*%
X137226000Y-67244000D02*
X139126000Y-67244000D01*
X139126000Y-67244000D02*
X139126000Y-65344000D01*
X139126000Y-65344000D02*
X137226000Y-65344000D01*
X137226000Y-65344000D02*
X137226000Y-67244000D01*
%TO.C,J12*%
X137226000Y-64704000D02*
X139126000Y-64704000D01*
X139126000Y-64704000D02*
X139126000Y-62804000D01*
X139126000Y-62804000D02*
X137226000Y-62804000D01*
X137226000Y-62804000D02*
X137226000Y-64704000D01*
%TO.C,J11*%
X137226000Y-62164000D02*
X139126000Y-62164000D01*
X139126000Y-62164000D02*
X139126000Y-60264000D01*
X139126000Y-60264000D02*
X137226000Y-60264000D01*
X137226000Y-60264000D02*
X137226000Y-62164000D01*
%TO.C,R8*%
X159014936Y-90451000D02*
X159469064Y-90451000D01*
X159014936Y-91921000D02*
X159469064Y-91921000D01*
%TO.C,R4*%
X126534936Y-87149000D02*
X126989064Y-87149000D01*
X126534936Y-88619000D02*
X126989064Y-88619000D01*
%TO.C,C2*%
X133611233Y-92708000D02*
X133903767Y-92708000D01*
X133611233Y-93728000D02*
X133903767Y-93728000D01*
%TO.C,R5*%
X126534936Y-84863000D02*
X126989064Y-84863000D01*
X126534936Y-86333000D02*
X126989064Y-86333000D01*
%TO.C,R1*%
X126534936Y-94007000D02*
X126989064Y-94007000D01*
X126534936Y-95477000D02*
X126989064Y-95477000D01*
%TO.C,C18*%
X149591752Y-90143000D02*
X149069248Y-90143000D01*
X149591752Y-88673000D02*
X149069248Y-88673000D01*
%TO.C,C22*%
X141984000Y-92702767D02*
X141984000Y-92410233D01*
X143004000Y-92702767D02*
X143004000Y-92410233D01*
%TO.C,C21*%
X158494000Y-62376267D02*
X158494000Y-62083733D01*
X159514000Y-62376267D02*
X159514000Y-62083733D01*
%TO.C,C33*%
X142721000Y-71642248D02*
X142721000Y-72164752D01*
X141251000Y-71642248D02*
X141251000Y-72164752D01*
%TO.C,R21*%
X166158936Y-47779000D02*
X166613064Y-47779000D01*
X166158936Y-49249000D02*
X166613064Y-49249000D01*
%TO.C,R22*%
X166158936Y-45239000D02*
X166613064Y-45239000D01*
X166158936Y-46709000D02*
X166613064Y-46709000D01*
%TO.C,D6*%
X129876000Y-42800000D02*
X122976000Y-42800000D01*
X129876000Y-46100000D02*
X122976000Y-46100000D01*
X129876000Y-42800000D02*
X129876000Y-46100000D01*
%TO.C,JP2*%
X147082000Y-70990000D02*
X147082000Y-73790000D01*
X147782000Y-74440000D02*
X148382000Y-74440000D01*
X149082000Y-73790000D02*
X149082000Y-70990000D01*
X148382000Y-70340000D02*
X147782000Y-70340000D01*
X147782000Y-70340000D02*
G75*
G03*
X147082000Y-71040000I0J-700000D01*
G01*
X149082000Y-71040000D02*
G75*
G03*
X148382000Y-70340000I-700000J0D01*
G01*
X148382000Y-74440000D02*
G75*
G03*
X149082000Y-73740000I0J700000D01*
G01*
X147082000Y-73740000D02*
G75*
G03*
X147782000Y-74440000I700000J0D01*
G01*
%TO.C,R20*%
X164111000Y-55329064D02*
X164111000Y-54874936D01*
X165581000Y-55329064D02*
X165581000Y-54874936D01*
%TO.C,C20*%
X156462000Y-55364767D02*
X156462000Y-55072233D01*
X157482000Y-55364767D02*
X157482000Y-55072233D01*
%TO.C,U2*%
X125876000Y-59400000D02*
X125876000Y-65410000D01*
X132696000Y-61650000D02*
X132696000Y-65410000D01*
X125876000Y-65410000D02*
X127136000Y-65410000D01*
X132696000Y-65410000D02*
X131436000Y-65410000D01*
%TO.C,C1*%
X159011233Y-92708000D02*
X159303767Y-92708000D01*
X159011233Y-93728000D02*
X159303767Y-93728000D01*
%TO.C,R2*%
X126534936Y-91721000D02*
X126989064Y-91721000D01*
X126534936Y-93191000D02*
X126989064Y-93191000D01*
%TO.C,R7*%
X134101064Y-95985000D02*
X133646936Y-95985000D01*
X134101064Y-94515000D02*
X133646936Y-94515000D01*
%TO.C,U1*%
X125876000Y-69560000D02*
X125876000Y-75570000D01*
X132696000Y-71810000D02*
X132696000Y-75570000D01*
X125876000Y-75570000D02*
X127136000Y-75570000D01*
X132696000Y-75570000D02*
X131436000Y-75570000D01*
%TO.C,R3*%
X126534936Y-89435000D02*
X126989064Y-89435000D01*
X126534936Y-90905000D02*
X126989064Y-90905000D01*
%TO.C,R6*%
X159046936Y-94515000D02*
X159501064Y-94515000D01*
X159046936Y-95985000D02*
X159501064Y-95985000D01*
%TO.C,R9*%
X133646936Y-90451000D02*
X134101064Y-90451000D01*
X133646936Y-91921000D02*
X134101064Y-91921000D01*
%TO.C,C19*%
X145032000Y-92702767D02*
X145032000Y-92410233D01*
X146052000Y-92702767D02*
X146052000Y-92410233D01*
%TO.C,C17*%
X149634752Y-98525000D02*
X149112248Y-98525000D01*
X149634752Y-97055000D02*
X149112248Y-97055000D01*
%TO.C,JP3*%
X143526000Y-70990000D02*
X143526000Y-73790000D01*
X144226000Y-74440000D02*
X144826000Y-74440000D01*
X145526000Y-73790000D02*
X145526000Y-70990000D01*
X144826000Y-70340000D02*
X144226000Y-70340000D01*
X144226000Y-70340000D02*
G75*
G03*
X143526000Y-71040000I0J-700000D01*
G01*
X145526000Y-71040000D02*
G75*
G03*
X144826000Y-70340000I-700000J0D01*
G01*
X144826000Y-74440000D02*
G75*
G03*
X145526000Y-73740000I0J700000D01*
G01*
X143526000Y-73740000D02*
G75*
G03*
X144226000Y-74440000I700000J0D01*
G01*
%TO.C,TP2*%
X169480000Y-39178000D02*
X169480000Y-40578000D01*
X170880000Y-39178000D02*
X169480000Y-39178000D01*
X170880000Y-40578000D02*
X170880000Y-39178000D01*
X169480000Y-40578000D02*
X170880000Y-40578000D01*
%TO.C,TP1*%
X166940000Y-39178000D02*
X166940000Y-40578000D01*
X168340000Y-39178000D02*
X166940000Y-39178000D01*
X168340000Y-40578000D02*
X168340000Y-39178000D01*
X166940000Y-40578000D02*
X168340000Y-40578000D01*
%TO.C,J19*%
D11*
X144319523Y-60158380D02*
X144319523Y-60872666D01*
X144367142Y-61015523D01*
X144462380Y-61110761D01*
X144605238Y-61158380D01*
X144700476Y-61158380D01*
X143319523Y-61158380D02*
X143890952Y-61158380D01*
X143605238Y-61158380D02*
X143605238Y-60158380D01*
X143700476Y-60301238D01*
X143795714Y-60396476D01*
X143890952Y-60444095D01*
X142843333Y-61158380D02*
X142652857Y-61158380D01*
X142557619Y-61110761D01*
X142510000Y-61063142D01*
X142414761Y-60920285D01*
X142367142Y-60729809D01*
X142367142Y-60348857D01*
X142414761Y-60253619D01*
X142462380Y-60206000D01*
X142557619Y-60158380D01*
X142748095Y-60158380D01*
X142843333Y-60206000D01*
X142890952Y-60253619D01*
X142938571Y-60348857D01*
X142938571Y-60586952D01*
X142890952Y-60682190D01*
X142843333Y-60729809D01*
X142748095Y-60777428D01*
X142557619Y-60777428D01*
X142462380Y-60729809D01*
X142414761Y-60682190D01*
X142367142Y-60586952D01*
%TO.C,J18*%
X144319523Y-58634380D02*
X144319523Y-59348666D01*
X144367142Y-59491523D01*
X144462380Y-59586761D01*
X144605238Y-59634380D01*
X144700476Y-59634380D01*
X143319523Y-59634380D02*
X143890952Y-59634380D01*
X143605238Y-59634380D02*
X143605238Y-58634380D01*
X143700476Y-58777238D01*
X143795714Y-58872476D01*
X143890952Y-58920095D01*
X142748095Y-59062952D02*
X142843333Y-59015333D01*
X142890952Y-58967714D01*
X142938571Y-58872476D01*
X142938571Y-58824857D01*
X142890952Y-58729619D01*
X142843333Y-58682000D01*
X142748095Y-58634380D01*
X142557619Y-58634380D01*
X142462380Y-58682000D01*
X142414761Y-58729619D01*
X142367142Y-58824857D01*
X142367142Y-58872476D01*
X142414761Y-58967714D01*
X142462380Y-59015333D01*
X142557619Y-59062952D01*
X142748095Y-59062952D01*
X142843333Y-59110571D01*
X142890952Y-59158190D01*
X142938571Y-59253428D01*
X142938571Y-59443904D01*
X142890952Y-59539142D01*
X142843333Y-59586761D01*
X142748095Y-59634380D01*
X142557619Y-59634380D01*
X142462380Y-59586761D01*
X142414761Y-59539142D01*
X142367142Y-59443904D01*
X142367142Y-59253428D01*
X142414761Y-59158190D01*
X142462380Y-59110571D01*
X142557619Y-59062952D01*
%TO.C,J17*%
X144319523Y-57110380D02*
X144319523Y-57824666D01*
X144367142Y-57967523D01*
X144462380Y-58062761D01*
X144605238Y-58110380D01*
X144700476Y-58110380D01*
X143319523Y-58110380D02*
X143890952Y-58110380D01*
X143605238Y-58110380D02*
X143605238Y-57110380D01*
X143700476Y-57253238D01*
X143795714Y-57348476D01*
X143890952Y-57396095D01*
X142986190Y-57110380D02*
X142319523Y-57110380D01*
X142748095Y-58110380D01*
%TO.C,J16*%
X144319523Y-55586380D02*
X144319523Y-56300666D01*
X144367142Y-56443523D01*
X144462380Y-56538761D01*
X144605238Y-56586380D01*
X144700476Y-56586380D01*
X143319523Y-56586380D02*
X143890952Y-56586380D01*
X143605238Y-56586380D02*
X143605238Y-55586380D01*
X143700476Y-55729238D01*
X143795714Y-55824476D01*
X143890952Y-55872095D01*
X142462380Y-55586380D02*
X142652857Y-55586380D01*
X142748095Y-55634000D01*
X142795714Y-55681619D01*
X142890952Y-55824476D01*
X142938571Y-56014952D01*
X142938571Y-56395904D01*
X142890952Y-56491142D01*
X142843333Y-56538761D01*
X142748095Y-56586380D01*
X142557619Y-56586380D01*
X142462380Y-56538761D01*
X142414761Y-56491142D01*
X142367142Y-56395904D01*
X142367142Y-56157809D01*
X142414761Y-56062571D01*
X142462380Y-56014952D01*
X142557619Y-55967333D01*
X142748095Y-55967333D01*
X142843333Y-56014952D01*
X142890952Y-56062571D01*
X142938571Y-56157809D01*
%TO.C,J15*%
X144319523Y-54062380D02*
X144319523Y-54776666D01*
X144367142Y-54919523D01*
X144462380Y-55014761D01*
X144605238Y-55062380D01*
X144700476Y-55062380D01*
X143319523Y-55062380D02*
X143890952Y-55062380D01*
X143605238Y-55062380D02*
X143605238Y-54062380D01*
X143700476Y-54205238D01*
X143795714Y-54300476D01*
X143890952Y-54348095D01*
X142414761Y-54062380D02*
X142890952Y-54062380D01*
X142938571Y-54538571D01*
X142890952Y-54490952D01*
X142795714Y-54443333D01*
X142557619Y-54443333D01*
X142462380Y-54490952D01*
X142414761Y-54538571D01*
X142367142Y-54633809D01*
X142367142Y-54871904D01*
X142414761Y-54967142D01*
X142462380Y-55014761D01*
X142557619Y-55062380D01*
X142795714Y-55062380D01*
X142890952Y-55014761D01*
X142938571Y-54967142D01*
%TO.C,J14*%
X147367523Y-58634380D02*
X147367523Y-59348666D01*
X147415142Y-59491523D01*
X147510380Y-59586761D01*
X147653238Y-59634380D01*
X147748476Y-59634380D01*
X146367523Y-59634380D02*
X146938952Y-59634380D01*
X146653238Y-59634380D02*
X146653238Y-58634380D01*
X146748476Y-58777238D01*
X146843714Y-58872476D01*
X146938952Y-58920095D01*
X145510380Y-58967714D02*
X145510380Y-59634380D01*
X145748476Y-58586761D02*
X145986571Y-59301047D01*
X145367523Y-59301047D01*
%TO.C,J13*%
X147367523Y-57110380D02*
X147367523Y-57824666D01*
X147415142Y-57967523D01*
X147510380Y-58062761D01*
X147653238Y-58110380D01*
X147748476Y-58110380D01*
X146367523Y-58110380D02*
X146938952Y-58110380D01*
X146653238Y-58110380D02*
X146653238Y-57110380D01*
X146748476Y-57253238D01*
X146843714Y-57348476D01*
X146938952Y-57396095D01*
X146034190Y-57110380D02*
X145415142Y-57110380D01*
X145748476Y-57491333D01*
X145605619Y-57491333D01*
X145510380Y-57538952D01*
X145462761Y-57586571D01*
X145415142Y-57681809D01*
X145415142Y-57919904D01*
X145462761Y-58015142D01*
X145510380Y-58062761D01*
X145605619Y-58110380D01*
X145891333Y-58110380D01*
X145986571Y-58062761D01*
X146034190Y-58015142D01*
%TO.C,J12*%
X147367523Y-55586380D02*
X147367523Y-56300666D01*
X147415142Y-56443523D01*
X147510380Y-56538761D01*
X147653238Y-56586380D01*
X147748476Y-56586380D01*
X146367523Y-56586380D02*
X146938952Y-56586380D01*
X146653238Y-56586380D02*
X146653238Y-55586380D01*
X146748476Y-55729238D01*
X146843714Y-55824476D01*
X146938952Y-55872095D01*
X145986571Y-55681619D02*
X145938952Y-55634000D01*
X145843714Y-55586380D01*
X145605619Y-55586380D01*
X145510380Y-55634000D01*
X145462761Y-55681619D01*
X145415142Y-55776857D01*
X145415142Y-55872095D01*
X145462761Y-56014952D01*
X146034190Y-56586380D01*
X145415142Y-56586380D01*
%TO.C,J11*%
X147367523Y-54062380D02*
X147367523Y-54776666D01*
X147415142Y-54919523D01*
X147510380Y-55014761D01*
X147653238Y-55062380D01*
X147748476Y-55062380D01*
X146367523Y-55062380D02*
X146938952Y-55062380D01*
X146653238Y-55062380D02*
X146653238Y-54062380D01*
X146748476Y-54205238D01*
X146843714Y-54300476D01*
X146938952Y-54348095D01*
X145415142Y-55062380D02*
X145986571Y-55062380D01*
X145700857Y-55062380D02*
X145700857Y-54062380D01*
X145796095Y-54205238D01*
X145891333Y-54300476D01*
X145986571Y-54348095D01*
%TO.C,R8*%
X162472666Y-91638380D02*
X162806000Y-91162190D01*
X163044095Y-91638380D02*
X163044095Y-90638380D01*
X162663142Y-90638380D01*
X162567904Y-90686000D01*
X162520285Y-90733619D01*
X162472666Y-90828857D01*
X162472666Y-90971714D01*
X162520285Y-91066952D01*
X162567904Y-91114571D01*
X162663142Y-91162190D01*
X163044095Y-91162190D01*
X161901238Y-91066952D02*
X161996476Y-91019333D01*
X162044095Y-90971714D01*
X162091714Y-90876476D01*
X162091714Y-90828857D01*
X162044095Y-90733619D01*
X161996476Y-90686000D01*
X161901238Y-90638380D01*
X161710761Y-90638380D01*
X161615523Y-90686000D01*
X161567904Y-90733619D01*
X161520285Y-90828857D01*
X161520285Y-90876476D01*
X161567904Y-90971714D01*
X161615523Y-91019333D01*
X161710761Y-91066952D01*
X161901238Y-91066952D01*
X161996476Y-91114571D01*
X162044095Y-91162190D01*
X162091714Y-91257428D01*
X162091714Y-91447904D01*
X162044095Y-91543142D01*
X161996476Y-91590761D01*
X161901238Y-91638380D01*
X161710761Y-91638380D01*
X161615523Y-91590761D01*
X161567904Y-91543142D01*
X161520285Y-91447904D01*
X161520285Y-91257428D01*
X161567904Y-91162190D01*
X161615523Y-91114571D01*
X161710761Y-91066952D01*
%TO.C,R4*%
X129706666Y-101036380D02*
X130040000Y-100560190D01*
X130278095Y-101036380D02*
X130278095Y-100036380D01*
X129897142Y-100036380D01*
X129801904Y-100084000D01*
X129754285Y-100131619D01*
X129706666Y-100226857D01*
X129706666Y-100369714D01*
X129754285Y-100464952D01*
X129801904Y-100512571D01*
X129897142Y-100560190D01*
X130278095Y-100560190D01*
X128849523Y-100369714D02*
X128849523Y-101036380D01*
X129087619Y-99988761D02*
X129325714Y-100703047D01*
X128706666Y-100703047D01*
%TO.C,C2*%
X132246666Y-103989142D02*
X132294285Y-104036761D01*
X132437142Y-104084380D01*
X132532380Y-104084380D01*
X132675238Y-104036761D01*
X132770476Y-103941523D01*
X132818095Y-103846285D01*
X132865714Y-103655809D01*
X132865714Y-103512952D01*
X132818095Y-103322476D01*
X132770476Y-103227238D01*
X132675238Y-103132000D01*
X132532380Y-103084380D01*
X132437142Y-103084380D01*
X132294285Y-103132000D01*
X132246666Y-103179619D01*
X131865714Y-103179619D02*
X131818095Y-103132000D01*
X131722857Y-103084380D01*
X131484761Y-103084380D01*
X131389523Y-103132000D01*
X131341904Y-103179619D01*
X131294285Y-103274857D01*
X131294285Y-103370095D01*
X131341904Y-103512952D01*
X131913333Y-104084380D01*
X131294285Y-104084380D01*
%TO.C,R5*%
X129706666Y-99512380D02*
X130040000Y-99036190D01*
X130278095Y-99512380D02*
X130278095Y-98512380D01*
X129897142Y-98512380D01*
X129801904Y-98560000D01*
X129754285Y-98607619D01*
X129706666Y-98702857D01*
X129706666Y-98845714D01*
X129754285Y-98940952D01*
X129801904Y-98988571D01*
X129897142Y-99036190D01*
X130278095Y-99036190D01*
X128801904Y-98512380D02*
X129278095Y-98512380D01*
X129325714Y-98988571D01*
X129278095Y-98940952D01*
X129182857Y-98893333D01*
X128944761Y-98893333D01*
X128849523Y-98940952D01*
X128801904Y-98988571D01*
X128754285Y-99083809D01*
X128754285Y-99321904D01*
X128801904Y-99417142D01*
X128849523Y-99464761D01*
X128944761Y-99512380D01*
X129182857Y-99512380D01*
X129278095Y-99464761D01*
X129325714Y-99417142D01*
%TO.C,R1*%
X129706666Y-105608380D02*
X130040000Y-105132190D01*
X130278095Y-105608380D02*
X130278095Y-104608380D01*
X129897142Y-104608380D01*
X129801904Y-104656000D01*
X129754285Y-104703619D01*
X129706666Y-104798857D01*
X129706666Y-104941714D01*
X129754285Y-105036952D01*
X129801904Y-105084571D01*
X129897142Y-105132190D01*
X130278095Y-105132190D01*
X128754285Y-105608380D02*
X129325714Y-105608380D01*
X129040000Y-105608380D02*
X129040000Y-104608380D01*
X129135238Y-104751238D01*
X129230476Y-104846476D01*
X129325714Y-104894095D01*
%TO.C,C18*%
X153550857Y-89765142D02*
X153598476Y-89812761D01*
X153741333Y-89860380D01*
X153836571Y-89860380D01*
X153979428Y-89812761D01*
X154074666Y-89717523D01*
X154122285Y-89622285D01*
X154169904Y-89431809D01*
X154169904Y-89288952D01*
X154122285Y-89098476D01*
X154074666Y-89003238D01*
X153979428Y-88908000D01*
X153836571Y-88860380D01*
X153741333Y-88860380D01*
X153598476Y-88908000D01*
X153550857Y-88955619D01*
X152598476Y-89860380D02*
X153169904Y-89860380D01*
X152884190Y-89860380D02*
X152884190Y-88860380D01*
X152979428Y-89003238D01*
X153074666Y-89098476D01*
X153169904Y-89146095D01*
X152027047Y-89288952D02*
X152122285Y-89241333D01*
X152169904Y-89193714D01*
X152217523Y-89098476D01*
X152217523Y-89050857D01*
X152169904Y-88955619D01*
X152122285Y-88908000D01*
X152027047Y-88860380D01*
X151836571Y-88860380D01*
X151741333Y-88908000D01*
X151693714Y-88955619D01*
X151646095Y-89050857D01*
X151646095Y-89098476D01*
X151693714Y-89193714D01*
X151741333Y-89241333D01*
X151836571Y-89288952D01*
X152027047Y-89288952D01*
X152122285Y-89336571D01*
X152169904Y-89384190D01*
X152217523Y-89479428D01*
X152217523Y-89669904D01*
X152169904Y-89765142D01*
X152122285Y-89812761D01*
X152027047Y-89860380D01*
X151836571Y-89860380D01*
X151741333Y-89812761D01*
X151693714Y-89765142D01*
X151646095Y-89669904D01*
X151646095Y-89479428D01*
X151693714Y-89384190D01*
X151741333Y-89336571D01*
X151836571Y-89288952D01*
%TO.C,C22*%
X144281142Y-91913642D02*
X144328761Y-91866023D01*
X144376380Y-91723166D01*
X144376380Y-91627928D01*
X144328761Y-91485071D01*
X144233523Y-91389833D01*
X144138285Y-91342214D01*
X143947809Y-91294595D01*
X143804952Y-91294595D01*
X143614476Y-91342214D01*
X143519238Y-91389833D01*
X143424000Y-91485071D01*
X143376380Y-91627928D01*
X143376380Y-91723166D01*
X143424000Y-91866023D01*
X143471619Y-91913642D01*
X143471619Y-92294595D02*
X143424000Y-92342214D01*
X143376380Y-92437452D01*
X143376380Y-92675547D01*
X143424000Y-92770785D01*
X143471619Y-92818404D01*
X143566857Y-92866023D01*
X143662095Y-92866023D01*
X143804952Y-92818404D01*
X144376380Y-92246976D01*
X144376380Y-92866023D01*
X143471619Y-93246976D02*
X143424000Y-93294595D01*
X143376380Y-93389833D01*
X143376380Y-93627928D01*
X143424000Y-93723166D01*
X143471619Y-93770785D01*
X143566857Y-93818404D01*
X143662095Y-93818404D01*
X143804952Y-93770785D01*
X144376380Y-93199357D01*
X144376380Y-93818404D01*
%TO.C,C21*%
X160791142Y-61587142D02*
X160838761Y-61539523D01*
X160886380Y-61396666D01*
X160886380Y-61301428D01*
X160838761Y-61158571D01*
X160743523Y-61063333D01*
X160648285Y-61015714D01*
X160457809Y-60968095D01*
X160314952Y-60968095D01*
X160124476Y-61015714D01*
X160029238Y-61063333D01*
X159934000Y-61158571D01*
X159886380Y-61301428D01*
X159886380Y-61396666D01*
X159934000Y-61539523D01*
X159981619Y-61587142D01*
X159981619Y-61968095D02*
X159934000Y-62015714D01*
X159886380Y-62110952D01*
X159886380Y-62349047D01*
X159934000Y-62444285D01*
X159981619Y-62491904D01*
X160076857Y-62539523D01*
X160172095Y-62539523D01*
X160314952Y-62491904D01*
X160886380Y-61920476D01*
X160886380Y-62539523D01*
X160886380Y-63491904D02*
X160886380Y-62920476D01*
X160886380Y-63206190D02*
X159886380Y-63206190D01*
X160029238Y-63110952D01*
X160124476Y-63015714D01*
X160172095Y-62920476D01*
%TO.C,C33*%
X142343142Y-74795142D02*
X142390761Y-74747523D01*
X142438380Y-74604666D01*
X142438380Y-74509428D01*
X142390761Y-74366571D01*
X142295523Y-74271333D01*
X142200285Y-74223714D01*
X142009809Y-74176095D01*
X141866952Y-74176095D01*
X141676476Y-74223714D01*
X141581238Y-74271333D01*
X141486000Y-74366571D01*
X141438380Y-74509428D01*
X141438380Y-74604666D01*
X141486000Y-74747523D01*
X141533619Y-74795142D01*
X141438380Y-75128476D02*
X141438380Y-75747523D01*
X141819333Y-75414190D01*
X141819333Y-75557047D01*
X141866952Y-75652285D01*
X141914571Y-75699904D01*
X142009809Y-75747523D01*
X142247904Y-75747523D01*
X142343142Y-75699904D01*
X142390761Y-75652285D01*
X142438380Y-75557047D01*
X142438380Y-75271333D01*
X142390761Y-75176095D01*
X142343142Y-75128476D01*
X141438380Y-76080857D02*
X141438380Y-76699904D01*
X141819333Y-76366571D01*
X141819333Y-76509428D01*
X141866952Y-76604666D01*
X141914571Y-76652285D01*
X142009809Y-76699904D01*
X142247904Y-76699904D01*
X142343142Y-76652285D01*
X142390761Y-76604666D01*
X142438380Y-76509428D01*
X142438380Y-76223714D01*
X142390761Y-76128476D01*
X142343142Y-76080857D01*
%TO.C,R21*%
X167028857Y-50616380D02*
X167362190Y-50140190D01*
X167600285Y-50616380D02*
X167600285Y-49616380D01*
X167219333Y-49616380D01*
X167124095Y-49664000D01*
X167076476Y-49711619D01*
X167028857Y-49806857D01*
X167028857Y-49949714D01*
X167076476Y-50044952D01*
X167124095Y-50092571D01*
X167219333Y-50140190D01*
X167600285Y-50140190D01*
X166647904Y-49711619D02*
X166600285Y-49664000D01*
X166505047Y-49616380D01*
X166266952Y-49616380D01*
X166171714Y-49664000D01*
X166124095Y-49711619D01*
X166076476Y-49806857D01*
X166076476Y-49902095D01*
X166124095Y-50044952D01*
X166695523Y-50616380D01*
X166076476Y-50616380D01*
X165124095Y-50616380D02*
X165695523Y-50616380D01*
X165409809Y-50616380D02*
X165409809Y-49616380D01*
X165505047Y-49759238D01*
X165600285Y-49854476D01*
X165695523Y-49902095D01*
%TO.C,R22*%
X167028857Y-48076380D02*
X167362190Y-47600190D01*
X167600285Y-48076380D02*
X167600285Y-47076380D01*
X167219333Y-47076380D01*
X167124095Y-47124000D01*
X167076476Y-47171619D01*
X167028857Y-47266857D01*
X167028857Y-47409714D01*
X167076476Y-47504952D01*
X167124095Y-47552571D01*
X167219333Y-47600190D01*
X167600285Y-47600190D01*
X166647904Y-47171619D02*
X166600285Y-47124000D01*
X166505047Y-47076380D01*
X166266952Y-47076380D01*
X166171714Y-47124000D01*
X166124095Y-47171619D01*
X166076476Y-47266857D01*
X166076476Y-47362095D01*
X166124095Y-47504952D01*
X166695523Y-48076380D01*
X166076476Y-48076380D01*
X165695523Y-47171619D02*
X165647904Y-47124000D01*
X165552666Y-47076380D01*
X165314571Y-47076380D01*
X165219333Y-47124000D01*
X165171714Y-47171619D01*
X165124095Y-47266857D01*
X165124095Y-47362095D01*
X165171714Y-47504952D01*
X165743142Y-48076380D01*
X165124095Y-48076380D01*
%TO.C,D6*%
X126214095Y-42402380D02*
X126214095Y-41402380D01*
X125976000Y-41402380D01*
X125833142Y-41450000D01*
X125737904Y-41545238D01*
X125690285Y-41640476D01*
X125642666Y-41830952D01*
X125642666Y-41973809D01*
X125690285Y-42164285D01*
X125737904Y-42259523D01*
X125833142Y-42354761D01*
X125976000Y-42402380D01*
X126214095Y-42402380D01*
X124785523Y-41402380D02*
X124976000Y-41402380D01*
X125071238Y-41450000D01*
X125118857Y-41497619D01*
X125214095Y-41640476D01*
X125261714Y-41830952D01*
X125261714Y-42211904D01*
X125214095Y-42307142D01*
X125166476Y-42354761D01*
X125071238Y-42402380D01*
X124880761Y-42402380D01*
X124785523Y-42354761D01*
X124737904Y-42307142D01*
X124690285Y-42211904D01*
X124690285Y-41973809D01*
X124737904Y-41878571D01*
X124785523Y-41830952D01*
X124880761Y-41783333D01*
X125071238Y-41783333D01*
X125166476Y-41830952D01*
X125214095Y-41878571D01*
X125261714Y-41973809D01*
%TO.C,JP2*%
X147534380Y-76128666D02*
X148248666Y-76128666D01*
X148391523Y-76081047D01*
X148486761Y-75985809D01*
X148534380Y-75842952D01*
X148534380Y-75747714D01*
X148534380Y-76604857D02*
X147534380Y-76604857D01*
X147534380Y-76985809D01*
X147582000Y-77081047D01*
X147629619Y-77128666D01*
X147724857Y-77176285D01*
X147867714Y-77176285D01*
X147962952Y-77128666D01*
X148010571Y-77081047D01*
X148058190Y-76985809D01*
X148058190Y-76604857D01*
X147629619Y-77557238D02*
X147582000Y-77604857D01*
X147534380Y-77700095D01*
X147534380Y-77938190D01*
X147582000Y-78033428D01*
X147629619Y-78081047D01*
X147724857Y-78128666D01*
X147820095Y-78128666D01*
X147962952Y-78081047D01*
X148534380Y-77509619D01*
X148534380Y-78128666D01*
X148534380Y-70075714D02*
X148534380Y-69504285D01*
X148534380Y-69790000D02*
X147534380Y-69790000D01*
X147677238Y-69694761D01*
X147772476Y-69599523D01*
X147820095Y-69504285D01*
X147534380Y-74656666D02*
X147534380Y-75275714D01*
X147915333Y-74942380D01*
X147915333Y-75085238D01*
X147962952Y-75180476D01*
X148010571Y-75228095D01*
X148105809Y-75275714D01*
X148343904Y-75275714D01*
X148439142Y-75228095D01*
X148486761Y-75180476D01*
X148534380Y-75085238D01*
X148534380Y-74799523D01*
X148486761Y-74704285D01*
X148439142Y-74656666D01*
%TO.C,R20*%
X166948380Y-54459142D02*
X166472190Y-54125809D01*
X166948380Y-53887714D02*
X165948380Y-53887714D01*
X165948380Y-54268666D01*
X165996000Y-54363904D01*
X166043619Y-54411523D01*
X166138857Y-54459142D01*
X166281714Y-54459142D01*
X166376952Y-54411523D01*
X166424571Y-54363904D01*
X166472190Y-54268666D01*
X166472190Y-53887714D01*
X166043619Y-54840095D02*
X165996000Y-54887714D01*
X165948380Y-54982952D01*
X165948380Y-55221047D01*
X165996000Y-55316285D01*
X166043619Y-55363904D01*
X166138857Y-55411523D01*
X166234095Y-55411523D01*
X166376952Y-55363904D01*
X166948380Y-54792476D01*
X166948380Y-55411523D01*
X165948380Y-56030571D02*
X165948380Y-56125809D01*
X165996000Y-56221047D01*
X166043619Y-56268666D01*
X166138857Y-56316285D01*
X166329333Y-56363904D01*
X166567428Y-56363904D01*
X166757904Y-56316285D01*
X166853142Y-56268666D01*
X166900761Y-56221047D01*
X166948380Y-56125809D01*
X166948380Y-56030571D01*
X166900761Y-55935333D01*
X166853142Y-55887714D01*
X166757904Y-55840095D01*
X166567428Y-55792476D01*
X166329333Y-55792476D01*
X166138857Y-55840095D01*
X166043619Y-55887714D01*
X165996000Y-55935333D01*
X165948380Y-56030571D01*
%TO.C,C20*%
X158759142Y-54575642D02*
X158806761Y-54528023D01*
X158854380Y-54385166D01*
X158854380Y-54289928D01*
X158806761Y-54147071D01*
X158711523Y-54051833D01*
X158616285Y-54004214D01*
X158425809Y-53956595D01*
X158282952Y-53956595D01*
X158092476Y-54004214D01*
X157997238Y-54051833D01*
X157902000Y-54147071D01*
X157854380Y-54289928D01*
X157854380Y-54385166D01*
X157902000Y-54528023D01*
X157949619Y-54575642D01*
X157949619Y-54956595D02*
X157902000Y-55004214D01*
X157854380Y-55099452D01*
X157854380Y-55337547D01*
X157902000Y-55432785D01*
X157949619Y-55480404D01*
X158044857Y-55528023D01*
X158140095Y-55528023D01*
X158282952Y-55480404D01*
X158854380Y-54908976D01*
X158854380Y-55528023D01*
X157854380Y-56147071D02*
X157854380Y-56242309D01*
X157902000Y-56337547D01*
X157949619Y-56385166D01*
X158044857Y-56432785D01*
X158235333Y-56480404D01*
X158473428Y-56480404D01*
X158663904Y-56432785D01*
X158759142Y-56385166D01*
X158806761Y-56337547D01*
X158854380Y-56242309D01*
X158854380Y-56147071D01*
X158806761Y-56051833D01*
X158759142Y-56004214D01*
X158663904Y-55956595D01*
X158473428Y-55908976D01*
X158235333Y-55908976D01*
X158044857Y-55956595D01*
X157949619Y-56004214D01*
X157902000Y-56051833D01*
X157854380Y-56147071D01*
%TO.C,U2*%
X124238380Y-62738095D02*
X125047904Y-62738095D01*
X125143142Y-62785714D01*
X125190761Y-62833333D01*
X125238380Y-62928571D01*
X125238380Y-63119047D01*
X125190761Y-63214285D01*
X125143142Y-63261904D01*
X125047904Y-63309523D01*
X124238380Y-63309523D01*
X124333619Y-63738095D02*
X124286000Y-63785714D01*
X124238380Y-63880952D01*
X124238380Y-64119047D01*
X124286000Y-64214285D01*
X124333619Y-64261904D01*
X124428857Y-64309523D01*
X124524095Y-64309523D01*
X124666952Y-64261904D01*
X125238380Y-63690476D01*
X125238380Y-64309523D01*
%TO.C,C1*%
X162472666Y-93575142D02*
X162520285Y-93622761D01*
X162663142Y-93670380D01*
X162758380Y-93670380D01*
X162901238Y-93622761D01*
X162996476Y-93527523D01*
X163044095Y-93432285D01*
X163091714Y-93241809D01*
X163091714Y-93098952D01*
X163044095Y-92908476D01*
X162996476Y-92813238D01*
X162901238Y-92718000D01*
X162758380Y-92670380D01*
X162663142Y-92670380D01*
X162520285Y-92718000D01*
X162472666Y-92765619D01*
X161520285Y-93670380D02*
X162091714Y-93670380D01*
X161806000Y-93670380D02*
X161806000Y-92670380D01*
X161901238Y-92813238D01*
X161996476Y-92908476D01*
X162091714Y-92956095D01*
%TO.C,R2*%
X129706666Y-104084380D02*
X130040000Y-103608190D01*
X130278095Y-104084380D02*
X130278095Y-103084380D01*
X129897142Y-103084380D01*
X129801904Y-103132000D01*
X129754285Y-103179619D01*
X129706666Y-103274857D01*
X129706666Y-103417714D01*
X129754285Y-103512952D01*
X129801904Y-103560571D01*
X129897142Y-103608190D01*
X130278095Y-103608190D01*
X129325714Y-103179619D02*
X129278095Y-103132000D01*
X129182857Y-103084380D01*
X128944761Y-103084380D01*
X128849523Y-103132000D01*
X128801904Y-103179619D01*
X128754285Y-103274857D01*
X128754285Y-103370095D01*
X128801904Y-103512952D01*
X129373333Y-104084380D01*
X128754285Y-104084380D01*
%TO.C,R7*%
X132246666Y-105608380D02*
X132580000Y-105132190D01*
X132818095Y-105608380D02*
X132818095Y-104608380D01*
X132437142Y-104608380D01*
X132341904Y-104656000D01*
X132294285Y-104703619D01*
X132246666Y-104798857D01*
X132246666Y-104941714D01*
X132294285Y-105036952D01*
X132341904Y-105084571D01*
X132437142Y-105132190D01*
X132818095Y-105132190D01*
X131913333Y-104608380D02*
X131246666Y-104608380D01*
X131675238Y-105608380D01*
%TO.C,U1*%
X124238380Y-72898095D02*
X125047904Y-72898095D01*
X125143142Y-72945714D01*
X125190761Y-72993333D01*
X125238380Y-73088571D01*
X125238380Y-73279047D01*
X125190761Y-73374285D01*
X125143142Y-73421904D01*
X125047904Y-73469523D01*
X124238380Y-73469523D01*
X125238380Y-74469523D02*
X125238380Y-73898095D01*
X125238380Y-74183809D02*
X124238380Y-74183809D01*
X124381238Y-74088571D01*
X124476476Y-73993333D01*
X124524095Y-73898095D01*
%TO.C,R3*%
X129706666Y-102560380D02*
X130040000Y-102084190D01*
X130278095Y-102560380D02*
X130278095Y-101560380D01*
X129897142Y-101560380D01*
X129801904Y-101608000D01*
X129754285Y-101655619D01*
X129706666Y-101750857D01*
X129706666Y-101893714D01*
X129754285Y-101988952D01*
X129801904Y-102036571D01*
X129897142Y-102084190D01*
X130278095Y-102084190D01*
X129373333Y-101560380D02*
X128754285Y-101560380D01*
X129087619Y-101941333D01*
X128944761Y-101941333D01*
X128849523Y-101988952D01*
X128801904Y-102036571D01*
X128754285Y-102131809D01*
X128754285Y-102369904D01*
X128801904Y-102465142D01*
X128849523Y-102512761D01*
X128944761Y-102560380D01*
X129230476Y-102560380D01*
X129325714Y-102512761D01*
X129373333Y-102465142D01*
%TO.C,R6*%
X162472666Y-95702380D02*
X162806000Y-95226190D01*
X163044095Y-95702380D02*
X163044095Y-94702380D01*
X162663142Y-94702380D01*
X162567904Y-94750000D01*
X162520285Y-94797619D01*
X162472666Y-94892857D01*
X162472666Y-95035714D01*
X162520285Y-95130952D01*
X162567904Y-95178571D01*
X162663142Y-95226190D01*
X163044095Y-95226190D01*
X161615523Y-94702380D02*
X161806000Y-94702380D01*
X161901238Y-94750000D01*
X161948857Y-94797619D01*
X162044095Y-94940476D01*
X162091714Y-95130952D01*
X162091714Y-95511904D01*
X162044095Y-95607142D01*
X161996476Y-95654761D01*
X161901238Y-95702380D01*
X161710761Y-95702380D01*
X161615523Y-95654761D01*
X161567904Y-95607142D01*
X161520285Y-95511904D01*
X161520285Y-95273809D01*
X161567904Y-95178571D01*
X161615523Y-95130952D01*
X161710761Y-95083333D01*
X161901238Y-95083333D01*
X161996476Y-95130952D01*
X162044095Y-95178571D01*
X162091714Y-95273809D01*
%TO.C,R9*%
X132246666Y-102560380D02*
X132580000Y-102084190D01*
X132818095Y-102560380D02*
X132818095Y-101560380D01*
X132437142Y-101560380D01*
X132341904Y-101608000D01*
X132294285Y-101655619D01*
X132246666Y-101750857D01*
X132246666Y-101893714D01*
X132294285Y-101988952D01*
X132341904Y-102036571D01*
X132437142Y-102084190D01*
X132818095Y-102084190D01*
X131770476Y-102560380D02*
X131580000Y-102560380D01*
X131484761Y-102512761D01*
X131437142Y-102465142D01*
X131341904Y-102322285D01*
X131294285Y-102131809D01*
X131294285Y-101750857D01*
X131341904Y-101655619D01*
X131389523Y-101608000D01*
X131484761Y-101560380D01*
X131675238Y-101560380D01*
X131770476Y-101608000D01*
X131818095Y-101655619D01*
X131865714Y-101750857D01*
X131865714Y-101988952D01*
X131818095Y-102084190D01*
X131770476Y-102131809D01*
X131675238Y-102179428D01*
X131484761Y-102179428D01*
X131389523Y-102131809D01*
X131341904Y-102084190D01*
X131294285Y-101988952D01*
%TO.C,C19*%
X145899142Y-95369142D02*
X145946761Y-95321523D01*
X145994380Y-95178666D01*
X145994380Y-95083428D01*
X145946761Y-94940571D01*
X145851523Y-94845333D01*
X145756285Y-94797714D01*
X145565809Y-94750095D01*
X145422952Y-94750095D01*
X145232476Y-94797714D01*
X145137238Y-94845333D01*
X145042000Y-94940571D01*
X144994380Y-95083428D01*
X144994380Y-95178666D01*
X145042000Y-95321523D01*
X145089619Y-95369142D01*
X145994380Y-96321523D02*
X145994380Y-95750095D01*
X145994380Y-96035809D02*
X144994380Y-96035809D01*
X145137238Y-95940571D01*
X145232476Y-95845333D01*
X145280095Y-95750095D01*
X145994380Y-96797714D02*
X145994380Y-96988190D01*
X145946761Y-97083428D01*
X145899142Y-97131047D01*
X145756285Y-97226285D01*
X145565809Y-97273904D01*
X145184857Y-97273904D01*
X145089619Y-97226285D01*
X145042000Y-97178666D01*
X144994380Y-97083428D01*
X144994380Y-96892952D01*
X145042000Y-96797714D01*
X145089619Y-96750095D01*
X145184857Y-96702476D01*
X145422952Y-96702476D01*
X145518190Y-96750095D01*
X145565809Y-96797714D01*
X145613428Y-96892952D01*
X145613428Y-97083428D01*
X145565809Y-97178666D01*
X145518190Y-97226285D01*
X145422952Y-97273904D01*
%TO.C,C17*%
X153550857Y-98147142D02*
X153598476Y-98194761D01*
X153741333Y-98242380D01*
X153836571Y-98242380D01*
X153979428Y-98194761D01*
X154074666Y-98099523D01*
X154122285Y-98004285D01*
X154169904Y-97813809D01*
X154169904Y-97670952D01*
X154122285Y-97480476D01*
X154074666Y-97385238D01*
X153979428Y-97290000D01*
X153836571Y-97242380D01*
X153741333Y-97242380D01*
X153598476Y-97290000D01*
X153550857Y-97337619D01*
X152598476Y-98242380D02*
X153169904Y-98242380D01*
X152884190Y-98242380D02*
X152884190Y-97242380D01*
X152979428Y-97385238D01*
X153074666Y-97480476D01*
X153169904Y-97528095D01*
X152265142Y-97242380D02*
X151598476Y-97242380D01*
X152027047Y-98242380D01*
%TO.C,JP3*%
X143978380Y-76128666D02*
X144692666Y-76128666D01*
X144835523Y-76081047D01*
X144930761Y-75985809D01*
X144978380Y-75842952D01*
X144978380Y-75747714D01*
X144978380Y-76604857D02*
X143978380Y-76604857D01*
X143978380Y-76985809D01*
X144026000Y-77081047D01*
X144073619Y-77128666D01*
X144168857Y-77176285D01*
X144311714Y-77176285D01*
X144406952Y-77128666D01*
X144454571Y-77081047D01*
X144502190Y-76985809D01*
X144502190Y-76604857D01*
X143978380Y-77509619D02*
X143978380Y-78128666D01*
X144359333Y-77795333D01*
X144359333Y-77938190D01*
X144406952Y-78033428D01*
X144454571Y-78081047D01*
X144549809Y-78128666D01*
X144787904Y-78128666D01*
X144883142Y-78081047D01*
X144930761Y-78033428D01*
X144978380Y-77938190D01*
X144978380Y-77652476D01*
X144930761Y-77557238D01*
X144883142Y-77509619D01*
X144978380Y-70075714D02*
X144978380Y-69504285D01*
X144978380Y-69790000D02*
X143978380Y-69790000D01*
X144121238Y-69694761D01*
X144216476Y-69599523D01*
X144264095Y-69504285D01*
X143978380Y-74656666D02*
X143978380Y-75275714D01*
X144359333Y-74942380D01*
X144359333Y-75085238D01*
X144406952Y-75180476D01*
X144454571Y-75228095D01*
X144549809Y-75275714D01*
X144787904Y-75275714D01*
X144883142Y-75228095D01*
X144930761Y-75180476D01*
X144978380Y-75085238D01*
X144978380Y-74799523D01*
X144930761Y-74704285D01*
X144883142Y-74656666D01*
%TO.C,TP2*%
X171441904Y-40778380D02*
X170870476Y-40778380D01*
X171156190Y-41778380D02*
X171156190Y-40778380D01*
X170537142Y-41778380D02*
X170537142Y-40778380D01*
X170156190Y-40778380D01*
X170060952Y-40826000D01*
X170013333Y-40873619D01*
X169965714Y-40968857D01*
X169965714Y-41111714D01*
X170013333Y-41206952D01*
X170060952Y-41254571D01*
X170156190Y-41302190D01*
X170537142Y-41302190D01*
X169584761Y-40873619D02*
X169537142Y-40826000D01*
X169441904Y-40778380D01*
X169203809Y-40778380D01*
X169108571Y-40826000D01*
X169060952Y-40873619D01*
X169013333Y-40968857D01*
X169013333Y-41064095D01*
X169060952Y-41206952D01*
X169632380Y-41778380D01*
X169013333Y-41778380D01*
%TO.C,TP1*%
X168901904Y-40778380D02*
X168330476Y-40778380D01*
X168616190Y-41778380D02*
X168616190Y-40778380D01*
X167997142Y-41778380D02*
X167997142Y-40778380D01*
X167616190Y-40778380D01*
X167520952Y-40826000D01*
X167473333Y-40873619D01*
X167425714Y-40968857D01*
X167425714Y-41111714D01*
X167473333Y-41206952D01*
X167520952Y-41254571D01*
X167616190Y-41302190D01*
X167997142Y-41302190D01*
X166473333Y-41778380D02*
X167044761Y-41778380D01*
X166759047Y-41778380D02*
X166759047Y-40778380D01*
X166854285Y-40921238D01*
X166949523Y-41016476D01*
X167044761Y-41064095D01*
%TD*%
M02*
