M48
; DRILL file {KiCad (5.1.10)-1} date 03/04/22 09:48:13
; FORMAT={-:-/ absolute / inch / decimal}
; #@! TF.CreationDate,2022-03-04T09:48:13+01:00
; #@! TF.GenerationSoftware,Kicad,Pcbnew,(5.1.10)-1
; #@! TF.FileFunction,Plated,1,4,PTH
FMAT,2
INCH
T1C0.0157
T2C0.0394
T3C0.0472
%
G90
G05
T1
X2.025Y-4.5
X2.075Y-5.59
X2.125Y-4.51
X2.125Y-5.83
X2.175Y-5.59
X2.225Y-4.51
X2.245Y-4.95
X2.255Y-5.23
X2.2552Y-5.2702
X2.285Y-5.13
X2.285Y-5.31
X2.285Y-5.59
X2.325Y-4.51
X2.425Y-4.51
X2.445Y-5.89
X2.465Y-4.95
X2.495Y-5.2
X2.545Y-5.82
X2.545Y-5.96
X2.565Y-5.33
X2.635Y-5.31
X2.655Y-4.935
X2.675Y-4.86
X2.7098Y-5.9702
X2.71Y-5.285
X2.715Y-5.24
X2.7249Y-4.8349
X2.725Y-4.645
X2.735Y-5.14
X2.7419Y-5.04
X2.745Y-5.18
X2.755Y-5.28
X2.765Y-4.835
X2.775Y-4.76
X2.7862Y-5.8938
X2.82Y-5.93
X2.825Y-5.15
X2.845Y-5.85
X2.855Y-4.8
X2.865Y-4.96
X2.865Y-5.44
X2.885Y-4.72
X2.925Y-5.27
X2.945Y-5.12
X2.965Y-5.27
X2.9735Y-4.98
X2.985Y-5.12
X3.0049Y-4.9515
X3.025Y-5.12
X3.06Y-4.9
X3.0984Y-4.9334
X3.12Y-6.0923
X3.1364Y-4.7414
X3.175Y-4.78
X3.18Y-5.68
X3.1815Y-5.63
X3.185Y-4.35
X3.195Y-4.95
X3.21Y-5.94
X3.225Y-5.24
X3.235Y-5.2
X3.25Y-5.94
X3.2902Y-5.9398
X3.3122Y-5.5822
X3.315Y-4.59
X3.3304Y-5.9396
X3.34Y-5.61
X3.345Y-4.4
X3.385Y-4.4
X3.405Y-4.72
X3.445Y-4.79
X3.535Y-4.66
X3.5715Y-5.8965
X3.605Y-5.1
X3.61Y-5.435
X3.61Y-5.47
X3.625Y-5.91
X3.6325Y-4.8925
X3.6325Y-4.9525
X3.635Y-5.01
X3.6367Y-5.784
X3.645Y-4.35
X3.645Y-4.66
X3.6485Y-4.74
X3.655Y-5.66
X3.745Y-5.97
X3.897Y-5.77
X3.9Y-6.0
X3.905Y-5.35
X3.995Y-4.92
X4.015Y-5.31
X4.035Y-5.78
X4.0644Y-5.7212
X4.065Y-5.31
X4.075Y-6.0
X4.125Y-5.31
X4.125Y-5.54
X4.125Y-5.64
X4.175Y-5.54
X4.175Y-5.59
X4.2398Y-5.3402
X4.24Y-5.25
X4.2527Y-5.9427
X4.3Y-5.31
X4.62Y-5.61
X4.67Y-4.42
X4.68Y-5.4
X4.69Y-5.85
X4.71Y-4.95
X4.74Y-4.24
X4.74Y-5.21
X4.74Y-5.85
X4.78Y-5.21
X4.79Y-4.62
X4.79Y-5.59
X4.79Y-5.85
X4.82Y-5.21
X4.84Y-5.85
X4.85Y-4.24
X4.87Y-4.74
X4.89Y-4.62
X4.89Y-5.59
X4.89Y-5.85
X4.92Y-5.02
X4.94Y-4.24
X4.94Y-5.41
X4.94Y-5.85
X4.99Y-5.6
X4.99Y-6.04
X5.01Y-5.21
X5.04Y-4.24
X5.04Y-5.0
X5.04Y-5.85
X5.07Y-5.21
X5.09Y-5.6
X5.09Y-6.04
X5.12Y-4.24
X5.13Y-5.0
X5.13Y-5.21
X5.14Y-5.85
X5.39Y-5.3583
X5.39Y-5.47
X5.43Y-5.34
X5.43Y-5.47
X5.46Y-4.81
X5.47Y-5.32
X5.47Y-5.47
X5.51Y-5.2915
X5.51Y-5.47
X5.54Y-4.895
X5.56Y-4.97
X5.74Y-4.895
X6.04Y-4.8
X6.04Y-5.05
X6.14Y-4.85
X6.14Y-5.05
X6.14Y-5.28
X6.15Y-5.36
X6.1548Y-5.1548
X6.2Y-5.68
X6.21Y-5.57
X6.255Y-4.815
X6.3072Y-4.8135
X6.3098Y-5.1398
X6.31Y-5.18
X6.38Y-4.8135
X6.42Y-5.37
X6.43Y-5.01
X6.43Y-5.57
X6.44Y-4.8135
X6.47Y-4.93
X6.47Y-5.01
X6.47Y-5.57
X6.52Y-5.12
X6.52Y-5.18
X6.56Y-5.2
X6.57Y-5.57
X6.59Y-4.55
X6.59Y-4.68
X6.59Y-4.68
X6.6Y-5.1
X6.625Y-5.175
X6.69Y-5.28
X7.04Y-4.895
X7.24Y-4.895
X7.54Y-4.8
X7.54Y-5.05
X7.64Y-4.85
X7.64Y-5.05
X7.64Y-5.28
X7.6585Y-5.1285
X7.66Y-5.36
X7.7Y-5.57
X7.7Y-5.68
X7.76Y-4.77
X7.7798Y-5.1398
X7.78Y-5.18
X7.82Y-4.77
X7.88Y-4.77
X7.9Y-5.01
X7.91Y-5.37
X7.93Y-5.57
X7.94Y-4.91
X7.94Y-4.99
X7.97Y-5.57
X8.0Y-5.18
X8.02Y-5.07
X8.0511Y-5.1889
X8.06Y-5.57
X8.1Y-4.55
X8.1Y-4.68
X8.14Y-5.17
X8.19Y-5.28
X8.54Y-4.895
X8.74Y-4.895
X9.04Y-4.81
X9.04Y-5.06
X9.14Y-4.86
X9.14Y-5.06
X9.14Y-5.28
X9.1665Y-5.36
X9.2Y-5.68
X9.21Y-5.56
X9.26Y-4.77
X9.26Y-5.02
X9.2896Y-5.1896
X9.2944Y-5.1444
X9.31Y-4.77
X9.39Y-5.01
X9.41Y-5.37
X9.43Y-5.56
X9.44Y-4.97
X9.47Y-5.56
X9.5Y-5.19
X9.51Y-5.06
X9.5411Y-5.1889
X9.56Y-5.55
X9.58Y-5.13
X9.59Y-4.55
X9.59Y-4.68
X9.61Y-5.19
T2
X1.955Y-4.21
X2.055Y-4.21
X2.055Y-4.88
X2.055Y-5.18
X2.055Y-5.33
X2.155Y-4.21
X2.155Y-4.73
X2.155Y-4.88
X2.155Y-5.03
X2.155Y-5.18
X2.155Y-5.33
X2.165Y-4.35
X2.255Y-4.21
X2.255Y-4.73
X2.255Y-4.88
X2.255Y-5.03
X2.265Y-4.35
X2.315Y-6.11
X2.355Y-4.21
X2.355Y-4.73
X2.355Y-4.88
X2.355Y-5.03
X2.365Y-4.35
X2.415Y-6.11
X2.455Y-4.21
X2.455Y-4.73
X2.455Y-4.88
X2.455Y-5.03
X2.465Y-4.35
X2.515Y-6.11
X2.555Y-4.21
X2.555Y-4.73
X2.555Y-4.88
X2.615Y-6.11
X2.655Y-4.21
X2.655Y-4.73
X2.715Y-6.11
X2.755Y-4.21
X2.815Y-6.11
X2.855Y-4.21
X2.915Y-6.11
X3.015Y-4.21
X3.015Y-6.11
X3.115Y-4.21
X3.215Y-4.21
X3.215Y-6.11
X3.315Y-4.21
X3.315Y-6.11
X3.385Y-5.13
X3.385Y-5.23
X3.385Y-5.33
X3.385Y-5.43
X3.415Y-4.21
X3.415Y-6.11
X3.515Y-4.21
X3.515Y-6.11
X3.615Y-4.21
X3.615Y-6.11
X3.715Y-4.21
X3.715Y-6.11
T3
X2.135Y-5.92
X2.135Y-6.0578
T0
M30
