M48
; DRILL file {KiCad (6.0.2)} date Thu Mar 24 13:25:49 2022
; FORMAT={-:-/ absolute / inch / decimal}
; #@! TF.CreationDate,2022-03-24T13:25:49+01:00
; #@! TF.GenerationSoftware,Kicad,Pcbnew,(6.0.2)
; #@! TF.FileFunction,MixedPlating,1,4
FMAT,2
INCH
; #@! TA.AperFunction,Plated,PTH,ViaDrill
T1C0.0157
; #@! TA.AperFunction,Plated,PTH,ComponentDrill
T2C0.0394
; #@! TA.AperFunction,Plated,PTH,ComponentDrill
T3C0.0472
; #@! TA.AperFunction,NonPlated,NPTH,ComponentDrill
T4C0.0394
; #@! TA.AperFunction,NonPlated,NPTH,ComponentDrill
T5C0.1260
; #@! TA.AperFunction,NonPlated,NPTH,ComponentDrill
T6C0.1772
%
G90
G05
T1
X0.0524Y0.6393
X0.0524Y0.5803
X0.0524Y0.5212
X0.0524Y0.4582
X0.0524Y0.407
X0.08Y0.3637
X0.0879Y0.2811
X0.0879Y0.2417
X0.0879Y0.1918
X0.0879Y0.1524
X0.0879Y0.113
X0.1076Y0.6393
X0.1076Y0.5803
X0.1076Y0.5212
X0.1076Y0.4582
X0.1394Y2.5175
X0.1394Y2.4825
X0.1394Y2.4475
X0.143Y0.1918
X0.143Y0.1524
X0.143Y0.113
X0.1706Y0.6393
X0.1706Y0.5803
X0.1706Y0.5212
X0.1706Y0.4582
X0.202Y0.1918
X0.202Y0.1524
X0.202Y0.113
X0.2094Y2.5725
X0.2494Y2.5725
X0.2994Y1.9225
X0.2994Y1.8775
X0.3044Y2.0625
X0.345Y2.0625
X0.3464Y1.9215
X0.3464Y1.8775
X0.3869Y2.0625
X0.3944Y1.9225
X0.3944Y1.8775
X0.4244Y2.5675
X0.4244Y2.5275
X0.4644Y2.5675
X0.4644Y2.5275
X0.4934Y2.2166
X0.5044Y2.5675
X0.5044Y2.5275
X0.5555Y0.567
X0.5565Y1.9496
X0.5603Y0.5291
X0.5635Y0.693
X0.5635Y0.6137
X0.6423Y0.6924
X0.6423Y0.6137
X0.655Y2.1
X0.655Y2.06
X0.655Y2.02
X0.6902Y0.5291
X0.721Y0.6924
X0.721Y0.6137
X0.775Y2.1
X0.775Y2.06
X0.775Y2.02
X0.7754Y1.4905
X0.7754Y1.4432
X0.7754Y1.396
X0.835Y1.93
X0.8848Y2.0002
X0.9093Y0.6558
X0.925Y0.8999
X0.9848Y1.9902
X1.035Y1.99
X1.04Y0.92
X1.04Y0.775
X1.065Y1.52
X1.07Y0.885
X1.0848Y1.9902
X1.09Y0.7294
X1.1148Y1.2702
X1.115Y1.23
X1.121Y1.185
X1.135Y1.99
X1.1448Y0.9102
X1.1647Y1.5203
X1.1848Y1.9902
X1.2Y1.06
X1.2035Y0.9635
X1.22Y0.715
X1.23Y0.58
X1.235Y1.99
X1.2471Y1.7187
X1.265Y0.85
X1.2848Y1.9902
X1.295Y1.35
X1.305Y0.63
X1.305Y0.52
X1.31Y0.785
X1.3244Y1.9544
X1.36Y0.57
X1.395Y2.045
X1.4Y0.48
X1.41Y0.675
X1.43Y0.55
X1.44Y1.228
X1.455Y1.98
X1.4644Y1.0968
X1.465Y1.1873
X1.515Y0.655
X1.515Y0.55
X1.515Y0.48
X1.5156Y1.0968
X1.5194Y1.9544
X1.52Y1.75
X1.52Y1.7
X1.555Y1.0968
X1.555Y2.395
X1.57Y1.215
X1.57Y2.125
X1.572Y1.264
X1.59Y1.51
X1.59Y1.45
X1.5924Y1.3724
X1.6Y2.35
X1.605Y1.985
X1.6123Y1.675
X1.615Y1.87
X1.615Y0.655
X1.615Y0.55
X1.615Y0.48
X1.62Y1.75
X1.62Y1.265
X1.636Y2.2044
X1.655Y2.1168
X1.6613Y1.4708
X1.67Y1.345
X1.6725Y0.6675
X1.69Y1.885
X1.6908Y1.4314
X1.6961Y2.2212
X1.7048Y0.6502
X1.7109Y2.1453
X1.715Y1.805
X1.715Y1.755
X1.715Y0.55
X1.715Y0.48
X1.7161Y1.705
X1.7248Y1.0602
X1.73Y1.98
X1.7375Y0.6675
X1.75Y1.92
X1.7848Y1.2302
X1.785Y1.3
X1.795Y1.465
X1.795Y1.425
X1.8Y1.5495
X1.81Y2.46
X1.825Y1.315
X1.835Y1.23
X1.85Y0.555
X1.85Y0.475
X1.8848Y1.3802
X1.895Y0.35
X1.8954Y0.6546
X1.9Y1.51
X1.914Y1.606
X1.916Y1.656
X1.9198Y1.5598
X1.9248Y0.6808
X1.925Y0.41
X1.945Y1.19
X1.9506Y1.7047
X1.955Y0.655
X1.955Y0.35
X1.958Y1.76
X1.966Y1.6485
X1.9708Y1.806
X1.995Y0.41
X1.9952Y0.6798
X2.01Y2.07
X2.01Y1.1598
X2.0156Y1.7936
X2.0195Y1.7109
X2.02Y1.487
X2.035Y0.475
X2.0865Y1.5292
X2.0865Y0.5535
X2.09Y0.67
X2.0928Y1.2222
X2.0943Y1.7976
X2.0943Y1.2897
X2.0983Y1.7109
X2.1337Y1.5771
X2.1534Y1.6531
X2.165Y0.67
X2.165Y0.5535
X2.24Y0.67
X2.3048Y1.4901
X2.305Y0.67
X2.3144Y1.5767
X2.3148Y1.6702
X2.316Y1.436
X2.3187Y0.4747
X2.3195Y1.3102
X2.3857Y0.4747
X2.3909Y1.8435
X2.3975Y0.5535
X2.4605Y0.5535
X2.47Y1.2115
X2.485Y1.72
X2.485Y1.625
X2.485Y1.445
X2.485Y1.355
X2.512Y1.24
X2.545Y1.735
X2.565Y0.445
X2.565Y0.33
X2.57Y0.734
X2.57Y0.55
X2.58Y1.135
X2.6094Y0.55
X2.612Y0.734
X2.655Y1.67
X2.655Y1.585
X2.655Y1.4879
X2.655Y1.4
X2.655Y1.31
X2.655Y0.475
X2.655Y0.36
X2.655Y0.275
X2.6888Y1.7739
X2.705Y1.135
X2.76Y1.17
X2.84Y1.97
X2.84Y1.755
X2.84Y1.67
X2.84Y1.585
X2.84Y1.485
X2.84Y1.4
X2.84Y1.31
X2.84Y1.14
X2.84Y0.35
X2.84Y0.275
X2.855Y1.205
X2.86Y1.8441
X2.9762Y1.8645
X2.99Y0.425
X2.99Y0.35
X2.99Y0.275
X3.02Y1.37
X3.02Y1.29
X3.02Y1.07
X3.02Y1.02
X3.05Y1.66
X3.05Y1.55
X3.065Y1.465
X3.08Y0.76
X3.08Y0.7
X3.09Y2.18
X3.09Y2.135
X3.09Y2.08
X3.09Y1.8
X3.09Y1.75
X3.1Y1.1786
X3.1Y1.1386
X3.1Y1.0786
X3.11Y1.68
X3.11Y0.65
X3.1376Y2.6125
X3.1376Y2.5141
X3.1376Y2.4141
X3.1376Y2.3141
X3.14Y1.47
X3.14Y0.425
X3.14Y0.35
X3.14Y0.275
X3.21Y1.885
X3.21Y1.685
X3.21Y1.07
X3.21Y0.8886
X3.21Y0.645
X3.2131Y1.775
X3.23Y1.48
X3.2376Y2.6141
X3.2376Y2.5141
X3.2376Y2.4141
X3.2376Y2.3141
X3.24Y1.29
X3.255Y0.425
X3.26Y1.685
X3.26Y0.65
X3.285Y0.35
X3.285Y0.275
X3.3086Y2.1536
X3.3086Y1.1572
X3.31Y1.885
X3.31Y1.685
X3.31Y1.255
X3.31Y1.07
X3.31Y0.8886
X3.31Y0.645
X3.3376Y2.6141
X3.3376Y2.5141
X3.3376Y2.4141
X3.3376Y2.3141
X3.34Y1.465
X3.345Y0.405
X3.3566Y1.6944
X3.36Y0.65
X3.365Y1.255
X3.4086Y2.1536
X3.4086Y1.1572
X3.41Y1.0686
X3.41Y0.415
X3.425Y0.37
X3.425Y0.32
X3.4278Y1.2918
X3.4376Y2.6141
X3.4376Y2.5141
X3.4376Y2.4141
X3.4376Y2.3141
X3.46Y1.485
X3.46Y0.65
X3.4713Y1.6863
X3.5086Y2.1536
X3.5086Y1.1572
X3.51Y0.465
X3.52Y0.37
X3.52Y0.32
X3.55Y1.485
X3.56Y1.685
X3.56Y1.29
X3.56Y1.0536
X3.56Y0.65
X3.565Y0.495
X3.585Y0.54
X3.59Y0.395
X3.62Y0.715
X3.64Y0.825
X3.66Y1.42
X3.66Y1.31
X3.66Y1.19
X3.67Y0.47
X3.675Y0.62
X3.735Y0.535
X3.74Y0.705
X3.745Y0.825
X3.75Y1.605
X3.78Y1.575
X3.795Y0.94
X3.82Y1.66
X3.825Y0.62
X3.85Y0.995
X3.85Y0.825
X3.85Y0.705
X3.88Y1.715
X3.885Y0.9
X3.9526Y1.707
X3.9526Y1.6204
X3.9526Y1.5417
X3.9526Y1.459
X3.9526Y1.36
X3.955Y0.975
X3.98Y1.25
X3.985Y1.09
X4.1573Y1.707
X4.1573Y1.6204
X4.1573Y1.5417
X4.1573Y1.459
X4.1573Y1.36
X4.16Y1.25
X4.16Y1.09
X4.16Y0.99
X4.26Y1.09
X4.26Y0.99
X4.29Y1.58
X4.34Y1.58
X4.36Y1.09
X4.36Y0.99
X4.39Y1.44
X4.425Y1.325
X4.46Y0.99
X4.49Y1.645
X4.49Y1.345
X4.55Y1.405
X4.56Y1.28
X4.565Y1.645
X4.565Y1.52
X4.585Y0.955
X4.62Y1.44
X4.625Y1.52
X4.64Y1.645
X4.68Y1.13
X4.6971Y1.4124
X4.705Y1.32
X4.74Y1.475
X4.785Y1.22
X4.785Y1.13
X4.795Y1.475
X4.8344Y1.38
X4.835Y1.46
X4.835Y1.33
X4.8836Y1.2186
X4.885Y1.13
X4.91Y1.52
X4.965Y1.4
X4.9836Y1.2186
X4.985Y1.295
X4.985Y1.13
X5.09Y1.645
X5.09Y1.52
X5.12Y1.35
X5.12Y1.26
X5.12Y1.18
X5.165Y1.645
X5.165Y1.52
X5.2Y1.19
X5.2Y0.97
X5.24Y1.645
X5.24Y1.52
X5.47Y1.7
X5.47Y1.62
X5.47Y1.54
X5.47Y1.45
X5.47Y1.35
X5.47Y1.26
X5.47Y1.17
X5.47Y1.09
X5.65Y1.7
X5.65Y1.62
X5.65Y1.54
X5.65Y1.45
X5.65Y1.35
X5.65Y1.26
X5.65Y1.17
X5.65Y1.09
X5.75Y1.58
X5.76Y1.38
X5.81Y1.58
X5.84Y1.32
X5.88Y1.17
X5.88Y1.09
X5.88Y0.99
X5.94Y1.34
X5.985Y1.63
X5.99Y1.17
X5.99Y1.09
X6.0Y1.38
X6.025Y1.525
X6.04Y1.29
X6.04Y1.17
X6.08Y0.94
X6.095Y1.64
X6.095Y1.525
X6.16Y1.64
X6.16Y1.525
X6.16Y1.4
X6.175Y1.325
X6.185Y1.13
X6.205Y1.525
X6.2836Y1.2186
X6.285Y1.13
X6.3136Y1.4736
X6.335Y1.13
X6.355Y1.47
X6.3836Y1.2186
X6.385Y1.13
X6.43Y1.525
X6.435Y1.135
X6.45Y1.325
X6.46Y1.4
X6.4836Y1.2186
X6.485Y1.135
X6.6Y1.43
X6.6Y1.35
X6.6Y1.27
X6.6Y1.19
X6.62Y1.635
X6.62Y1.525
X6.69Y1.635
X6.69Y1.525
X6.74Y1.17
X6.74Y0.99
X6.755Y1.635
X6.755Y1.525
X6.94Y1.09
X6.95Y1.67
X6.95Y1.42
X6.95Y1.34
X6.95Y1.25
X6.95Y1.17
X6.97Y1.71
X7.0Y1.62
X7.0Y1.54
X7.0Y1.09
X7.11Y1.62
X7.12Y1.54
X7.15Y1.71
X7.15Y1.42
X7.15Y1.34
X7.15Y1.25
X7.15Y1.17
X7.15Y1.09
X7.17Y1.67
X7.21Y1.58
X7.21Y1.09
X7.26Y1.24
X7.265Y1.37
X7.275Y1.58
X7.28Y1.01
X7.33Y1.315
X7.36Y1.17
X7.36Y1.09
X7.36Y1.01
X7.425Y1.34
X7.44Y1.17
X7.44Y1.01
X7.48Y1.39
X7.51Y1.64
X7.51Y1.52
X7.54Y1.35
X7.54Y1.27
X7.58Y1.64
X7.58Y1.52
X7.585Y0.95
X7.645Y1.64
X7.645Y1.52
X7.67Y1.395
X7.67Y1.325
X7.685Y1.1115
X7.695Y1.525
X7.72Y1.4381
X7.7836Y1.2186
X7.785Y1.13
X7.81Y1.465
X7.854Y1.47
X7.8836Y1.2186
X7.885Y1.13
X7.9Y1.44
X7.91Y1.64
X7.91Y1.525
X7.95Y1.395
X7.95Y1.31
X7.9836Y1.2186
X7.985Y1.135
X8.1Y1.64
X8.1Y1.525
X8.1Y1.345
X8.1Y1.265
X8.1Y1.185
X8.1Y1.095
X8.15Y1.64
X8.15Y1.525
X8.16Y1.17
X8.16Y1.01
X8.22Y1.64
X8.22Y1.525
X8.24Y1.17
X8.24Y1.09
X8.24Y1.01
X8.285Y1.64
X8.285Y1.525
X8.32Y1.17
X8.32Y1.01
X8.4Y1.09
X8.46Y1.69
X8.46Y1.47
X8.46Y1.39
X8.46Y1.3
X8.46Y1.21
X8.47Y1.09
X8.505Y1.615
X8.505Y1.545
X8.615Y1.615
X8.615Y1.545
X8.64Y1.09
X8.65Y1.47
X8.65Y1.39
X8.65Y1.3
X8.66Y1.69
X8.67Y1.21
X8.71Y1.58
X8.71Y1.09
X8.765Y1.37
X8.775Y1.58
X8.82Y0.99
X8.83Y1.315
X8.845Y1.095
X8.9Y0.99
X8.925Y1.34
X8.98Y1.39
X8.98Y0.99
X9.01Y1.095
X9.06Y1.57
X9.06Y1.51
X9.06Y1.43
X9.06Y1.35
X9.06Y1.27
X9.085Y0.95
X9.17Y1.395
X9.17Y1.325
X9.185Y1.125
X9.19Y1.525
X9.22Y1.4381
X9.2836Y1.2186
X9.285Y1.12
X9.31Y1.465
X9.34Y1.13
X9.354Y1.464
X9.3836Y1.2186
X9.385Y1.13
X9.4Y1.44
X9.44Y1.63
X9.44Y1.55
X9.44Y1.13
X9.45Y1.395
X9.45Y1.31
X9.4836Y1.2186
X9.485Y1.13
X9.6Y1.63
X9.6Y1.55
X9.6Y1.31
X9.6Y1.22
X9.6Y1.13
T2
X0.6604Y0.1998
X0.6604Y0.0998
X0.6609Y2.5998
X0.6609Y2.4998
X0.7604Y0.1998
X0.7604Y0.0998
X0.7609Y2.5998
X0.7609Y2.4998
X0.8604Y0.1998
X0.8604Y0.0998
X0.8609Y2.5998
X0.8609Y2.4998
X0.9148Y1.6202
X0.9148Y1.3202
X0.9148Y1.1702
X0.915Y1.7702
X0.915Y1.4702
X0.9604Y0.1998
X0.9604Y0.0998
X0.9609Y2.5998
X0.9609Y2.4998
X1.0148Y1.6202
X1.0148Y1.3202
X1.0148Y1.1702
X1.015Y1.7702
X1.015Y1.4702
X1.0604Y0.1998
X1.0604Y0.0998
X1.0609Y2.5998
X1.0609Y2.4998
X1.1148Y1.6202
X1.115Y1.7702
X1.115Y1.4702
X1.1604Y0.1998
X1.1604Y0.0998
X1.1609Y2.5998
X1.1609Y2.4998
X1.195Y2.15
X1.2148Y1.6202
X1.215Y1.7702
X1.215Y1.4702
X1.2604Y0.1998
X1.2604Y0.0998
X1.2609Y2.5998
X1.2609Y2.4998
X1.295Y2.15
X1.3148Y1.6202
X1.315Y1.7702
X1.3604Y0.1998
X1.3604Y0.0998
X1.3609Y2.5998
X1.3609Y2.4998
X1.395Y2.15
X1.4148Y1.6202
X1.415Y1.7702
X1.4604Y0.1998
X1.4604Y0.0998
X1.4609Y2.5998
X1.4609Y2.4998
X1.495Y2.15
X1.5604Y0.1998
X1.5604Y0.0998
X1.5609Y2.5998
X1.5609Y2.4998
X1.6604Y0.1998
X1.6604Y0.0998
X1.6609Y2.5998
X1.6609Y2.4998
X1.7604Y0.1998
X1.7604Y0.0998
X1.7609Y2.5998
X1.7609Y2.4998
X1.8604Y0.1998
X1.8604Y0.0998
X1.8609Y2.5998
X1.8609Y2.4998
X1.9604Y0.1998
X1.9604Y0.0998
X1.9609Y2.5998
X1.9609Y2.4998
X2.0604Y0.1998
X2.0604Y0.0998
X2.0609Y2.5998
X2.0609Y2.4998
X2.1604Y0.1998
X2.1604Y0.0998
X2.1609Y2.5998
X2.1609Y2.4998
X2.2448Y1.3702
X2.2448Y1.2702
X2.2448Y1.1702
X2.2448Y1.0702
X2.2604Y0.1998
X2.2604Y0.0998
X2.2609Y2.5998
X2.2609Y2.4998
X2.3604Y0.1998
X2.3604Y0.0998
X2.3609Y2.5998
X2.3609Y2.4998
X2.4604Y0.1998
X2.4604Y0.0998
X2.4609Y2.5998
X2.4609Y2.4998
T3
X0.36Y1.44
X0.36Y1.3022
T4
X4.06Y1.62
X4.06Y1.54
X4.06Y1.46
X4.06Y1.355
X4.06Y1.25
X4.06Y1.17
X4.06Y1.09
X5.56Y1.62
X5.56Y1.54
X5.56Y1.46
X5.56Y1.355
X5.56Y1.25
X5.56Y1.17
X5.56Y1.09
X7.06Y1.62
X7.06Y1.54
X7.06Y1.46
X7.06Y1.355
X7.06Y1.25
X7.06Y1.17
X7.06Y1.09
X8.56Y1.62
X8.56Y1.54
X8.56Y1.46
X8.56Y1.35
X8.56Y1.25
X8.56Y1.17
X8.56Y1.09
T5
X2.81Y2.23
X2.81Y0.48
X3.86Y2.23
X3.86Y0.48
X4.31Y1.855
X4.31Y0.855
X5.31Y1.855
X5.31Y0.855
X5.81Y1.855
X5.81Y0.855
X6.81Y1.855
X6.81Y0.855
X7.31Y1.855
X7.31Y0.855
X8.31Y1.855
X8.31Y0.855
X8.81Y1.855
X8.81Y0.855
X9.81Y1.855
X9.81Y0.855
T6
X0.52Y1.69
X0.52Y1.06
T0
M30
