%TF.GenerationSoftware,KiCad,Pcbnew,(6.0.2)*%
%TF.CreationDate,2022-03-24T13:25:50+01:00*%
%TF.ProjectId,GestureControl,47657374-7572-4654-936f-6e74726f6c2e,V0.3*%
%TF.SameCoordinates,PX1268e40PY7fa82d0*%
%TF.FileFunction,Paste,Top*%
%TF.FilePolarity,Positive*%
%FSLAX46Y46*%
G04 Gerber Fmt 4.6, Leading zero omitted, Abs format (unit mm)*
G04 Created by KiCad (PCBNEW (6.0.2)) date 2022-03-24 13:25:50*
%MOMM*%
%LPD*%
G01*
G04 APERTURE LIST*
G04 Aperture macros list*
%AMRoundRect*
0 Rectangle with rounded corners*
0 $1 Rounding radius*
0 $2 $3 $4 $5 $6 $7 $8 $9 X,Y pos of 4 corners*
0 Add a 4 corners polygon primitive as box body*
4,1,4,$2,$3,$4,$5,$6,$7,$8,$9,$2,$3,0*
0 Add four circle primitives for the rounded corners*
1,1,$1+$1,$2,$3*
1,1,$1+$1,$4,$5*
1,1,$1+$1,$6,$7*
1,1,$1+$1,$8,$9*
0 Add four rect primitives between the rounded corners*
20,1,$1+$1,$2,$3,$4,$5,0*
20,1,$1+$1,$4,$5,$6,$7,0*
20,1,$1+$1,$6,$7,$8,$9,0*
20,1,$1+$1,$8,$9,$2,$3,0*%
%AMFreePoly0*
4,1,85,0.032093,0.369917,0.152523,0.368341,0.408529,0.326647,0.655562,0.247572,0.888192,0.132851,1.101311,-0.014995,1.290235,-0.192717,1.450816,-0.396412,1.579524,-0.621606,1.673533,-0.863350,1.730778,-1.116334,1.750000,-1.375000,1.747602,-1.466588,1.714868,-1.723894,1.644462,-1.973535,1.537930,-2.210028,1.397612,-2.428176,1.226591,-2.623188,1.028624,-2.790780,0.808060,-2.927269,
0.569744,-3.029658,0.318912,-3.095696,0.061074,-3.123934,-0.198106,-3.113751,-0.452933,-3.065370,-0.697811,-2.979855,-0.927359,-2.859084,-1.136534,-2.705710,-1.320742,-2.523103,-1.475935,-2.315274,-1.598705,-2.086789,-1.686353,-1.842667,-1.736956,-1.588271,-1.747874,-1.360970,-1.004741,-1.360970,-0.988331,-1.556393,-0.934276,-1.744906,-0.844634,-1.919330,-0.722821,-2.073020,-0.573475,-2.200123,
-0.402286,-2.295797,-0.215774,-2.356398,-0.021044,-2.379619,0.174488,-2.364573,0.363374,-2.311835,0.538420,-2.223414,0.692957,-2.102676,0.821099,-1.954222,0.917966,-1.783705,0.979868,-1.597621,1.004447,-1.403057,1.004839,-1.375000,0.985702,-1.179826,0.929020,-0.992086,0.836952,-0.818931,0.713004,-0.666956,0.561899,-0.541951,0.389391,-0.448676,0.202051,-0.390685,0.021074,-0.371662,
0.000000,-0.375000,-0.016747,-0.372348,-0.188288,-0.387959,-0.376419,-0.443330,-0.550213,-0.534187,-0.703049,-0.657070,-0.829106,-0.807299,-0.923583,-0.979152,-0.982881,-1.166082,-1.004741,-1.360970,-1.747874,-1.360970,-1.749400,-1.329190,-1.723414,-1.071116,-1.659566,-0.819717,-1.559261,-0.580517,-1.424702,-0.358770,-1.258845,-0.159348,-1.065333,0.013368,-0.848417,0.155584,-0.612863,0.264176,
-0.363845,0.336758,-0.106835,0.371736,-0.027193,0.370693,0.000000,0.375000,0.032093,0.369917,0.032093,0.369917,$1*%
G04 Aperture macros list end*
%TA.AperFunction,Profile*%
%ADD10C,0.050000*%
%TD*%
%ADD11RoundRect,0.237500X-0.237500X0.300000X-0.237500X-0.300000X0.237500X-0.300000X0.237500X0.300000X0*%
%ADD12RoundRect,0.250000X1.500000X0.550000X-1.500000X0.550000X-1.500000X-0.550000X1.500000X-0.550000X0*%
%ADD13RoundRect,0.250000X-0.337500X-0.475000X0.337500X-0.475000X0.337500X0.475000X-0.337500X0.475000X0*%
%ADD14RoundRect,0.250000X0.337500X0.475000X-0.337500X0.475000X-0.337500X-0.475000X0.337500X-0.475000X0*%
%ADD15RoundRect,0.237500X-0.300000X-0.237500X0.300000X-0.237500X0.300000X0.237500X-0.300000X0.237500X0*%
%ADD16RoundRect,0.237500X0.300000X0.237500X-0.300000X0.237500X-0.300000X-0.237500X0.300000X-0.237500X0*%
%ADD17RoundRect,0.237500X0.237500X-0.300000X0.237500X0.300000X-0.237500X0.300000X-0.237500X-0.300000X0*%
%ADD18RoundRect,0.249999X0.325001X0.450001X-0.325001X0.450001X-0.325001X-0.450001X0.325001X-0.450001X0*%
%ADD19R,1.800000X3.500000*%
%ADD20RoundRect,0.249999X0.350001X0.450001X-0.350001X0.450001X-0.350001X-0.450001X0.350001X-0.450001X0*%
%ADD21RoundRect,0.249999X0.450001X-0.350001X0.450001X0.350001X-0.450001X0.350001X-0.450001X-0.350001X0*%
%ADD22RoundRect,0.249999X-0.350001X-0.450001X0.350001X-0.450001X0.350001X0.450001X-0.350001X0.450001X0*%
%ADD23R,1.300000X1.550000*%
%ADD24RoundRect,0.075000X0.075000X-0.700000X0.075000X0.700000X-0.075000X0.700000X-0.075000X-0.700000X0*%
%ADD25RoundRect,0.075000X0.700000X-0.075000X0.700000X0.075000X-0.700000X0.075000X-0.700000X-0.075000X0*%
%ADD26R,1.300000X1.900000*%
%ADD27R,4.500000X2.000000*%
%ADD28RoundRect,0.249999X0.412501X0.650001X-0.412501X0.650001X-0.412501X-0.650001X0.412501X-0.650001X0*%
%ADD29RoundRect,0.249999X0.650001X-0.412501X0.650001X0.412501X-0.650001X0.412501X-0.650001X-0.412501X0*%
%ADD30RoundRect,0.249999X-0.412501X-0.650001X0.412501X-0.650001X0.412501X0.650001X-0.412501X0.650001X0*%
%ADD31R,3.500000X1.800000*%
%ADD32R,2.400000X4.200000*%
%ADD33R,4.200000X2.400000*%
%ADD34R,2.000000X0.650000*%
%ADD35R,0.650000X2.000000*%
%ADD36R,0.807999X0.458000*%
%ADD37R,0.508000X0.508000*%
%ADD38RoundRect,0.250000X0.565685X0.070711X0.070711X0.565685X-0.565685X-0.070711X-0.070711X-0.565685X0*%
%ADD39FreePoly0,0.000000*%
%ADD40C,1.000000*%
%ADD41RoundRect,0.250000X-0.550000X1.500000X-0.550000X-1.500000X0.550000X-1.500000X0.550000X1.500000X0*%
G04 APERTURE END LIST*
D10*
X75110973Y70070376D02*
G75*
G03*
X75054000Y68072000I-56973J-998376D01*
G01*
X118674000Y52832000D02*
X108204000Y52832000D01*
X249930000Y54832000D02*
X254254000Y54832000D01*
X250380500Y15890000D02*
X249866500Y15890000D01*
X118610500Y13890000D02*
G75*
G03*
X118610500Y15890000I0J1000000D01*
G01*
X97980500Y508000D02*
G75*
G03*
X101790500Y4318000I1J3809999D01*
G01*
X104330500Y13890000D02*
X104330500Y-492000D01*
X32110973Y70070376D02*
X48554000Y70072000D01*
X222632500Y15890000D02*
X223866500Y15890000D01*
X123674000Y54832000D02*
X156774000Y54832000D01*
X194830000Y52832000D02*
G75*
G03*
X194830000Y54832000I0J1000000D01*
G01*
X139890500Y19700000D02*
X139890500Y24780000D01*
X139954000Y43942000D02*
G75*
G03*
X142494000Y43942000I1270000J19D01*
G01*
X244866500Y13890000D02*
X228866500Y13890000D01*
X180486915Y19656414D02*
G75*
G03*
X184296914Y15890000I3766659J-4D01*
G01*
X142494000Y49022000D02*
X142494000Y43942000D01*
X91554000Y68072000D02*
G75*
G03*
X91554000Y70072000I0J1000000D01*
G01*
X218650414Y49065586D02*
X218650414Y43985586D01*
X250380500Y15890000D02*
G75*
G03*
X254190500Y19700000I1J3809999D01*
G01*
X254000Y70072000D02*
X254000Y75072000D01*
X174136914Y15890000D02*
X161710500Y15890000D01*
X142430500Y24780000D02*
X142430500Y19700000D01*
X136144000Y52832000D02*
X123674000Y52832000D01*
X139954000Y49022000D02*
G75*
G03*
X136144000Y52832000I-3809999J1D01*
G01*
X103330500Y-1492000D02*
X96547473Y-1490376D01*
X4064000Y68072000D02*
G75*
G03*
X254000Y64262000I-1J-3809999D01*
G01*
X142430500Y24780000D02*
G75*
G03*
X139890500Y24780000I-1270000J-19D01*
G01*
X104330500Y24780019D02*
G75*
G03*
X101790500Y24780019I-1270000J-19D01*
G01*
X244866500Y13890000D02*
G75*
G03*
X244866500Y15890000I0J1000000D01*
G01*
X26990500Y508000D02*
X10490500Y508000D01*
X244930000Y52832000D02*
G75*
G03*
X244930000Y54832000I0J1000000D01*
G01*
X53490500Y508000D02*
G75*
G03*
X53547473Y-1490376I0J-1000000D01*
G01*
X142430500Y19700000D02*
G75*
G03*
X146240500Y15890000I3809999J-1D01*
G01*
X249930000Y54832000D02*
G75*
G03*
X249930000Y52832000I0J-1000000D01*
G01*
X216110414Y49065586D02*
G75*
G03*
X212300414Y52832000I-3766663J0D01*
G01*
X228930000Y54832000D02*
X244930000Y54832000D01*
X118610500Y13890000D02*
X104330500Y13890000D01*
X180486914Y24736414D02*
X180486914Y19656414D01*
X156774000Y52832000D02*
G75*
G03*
X156774000Y54832000I0J1000000D01*
G01*
X161774000Y54832000D02*
G75*
G03*
X161774000Y52832000I0J-1000000D01*
G01*
X101854000Y64262000D02*
G75*
G03*
X98044000Y68072000I-3809999J1D01*
G01*
X223930000Y54832000D02*
X199830000Y54832000D01*
X194766500Y13890000D02*
G75*
G03*
X194766500Y15890000I0J1000000D01*
G01*
X104330500Y24780019D02*
X104330500Y19700000D01*
X216110414Y43985586D02*
G75*
G03*
X218650414Y43985586I1270000J19D01*
G01*
X48490500Y-1492000D02*
X32047473Y-1490376D01*
X228930000Y54832000D02*
G75*
G03*
X228930000Y52832000I0J-1000000D01*
G01*
X177946914Y19656414D02*
X177946914Y24736414D01*
X69990500Y-1492000D02*
G75*
G03*
X69990500Y508000I0J1000000D01*
G01*
X254190500Y13890000D02*
X254190500Y-6492000D01*
X91490500Y-1492000D02*
X75047473Y-1490376D01*
X75110973Y70070376D02*
X91554000Y70072000D01*
X212236914Y15890000D02*
G75*
G03*
X216046914Y19656414I43337J3766414D01*
G01*
X223930000Y52832000D02*
G75*
G03*
X223930000Y54832000I0J1000000D01*
G01*
X104394000Y54832000D02*
X118674000Y54832000D01*
X254254000Y75072000D02*
X254254000Y54832000D01*
X91490500Y-1492000D02*
G75*
G03*
X91490500Y508000I0J1000000D01*
G01*
X146240500Y15890000D02*
X156710500Y15890000D01*
X194830000Y52832000D02*
X184360414Y52832000D01*
X218586914Y24736414D02*
X218586914Y19656414D01*
X178010414Y43985586D02*
G75*
G03*
X180550414Y43985586I1270000J19D01*
G01*
X48554000Y68072000D02*
G75*
G03*
X48554000Y70072000I0J1000000D01*
G01*
X146304000Y52832000D02*
G75*
G03*
X142494000Y49022000I-1J-3809999D01*
G01*
X4064000Y68072000D02*
X5554000Y68072000D01*
X96490500Y508000D02*
G75*
G03*
X96547473Y-1490376I0J-1000000D01*
G01*
X108204000Y52832000D02*
G75*
G03*
X104394000Y49022000I-1J-3809999D01*
G01*
X123674000Y54832000D02*
G75*
G03*
X123674000Y52832000I0J-1000000D01*
G01*
X32110973Y70070376D02*
G75*
G03*
X32054000Y68072000I-56973J-998376D01*
G01*
X5490500Y508000D02*
X4000500Y508000D01*
X161774000Y54832000D02*
X194830000Y54832000D01*
X244930000Y52832000D02*
X228930000Y52832000D01*
X178010414Y49065586D02*
G75*
G03*
X174200414Y52832000I-3766663J0D01*
G01*
X10554000Y68072000D02*
X27054000Y68072000D01*
X254000Y70072000D02*
X5554000Y70072000D01*
X69990500Y508000D02*
X53490500Y508000D01*
X161774000Y52832000D02*
X174200414Y52832000D01*
X180486914Y24736414D02*
G75*
G03*
X177946914Y24736414I-1270000J-19D01*
G01*
X254190500Y19700000D02*
X254254000Y49022000D01*
X199830000Y52832000D02*
X212300414Y52832000D01*
X97980500Y508000D02*
X96490500Y508000D01*
X218586913Y19656414D02*
G75*
G03*
X222632500Y15890000I3776044J-3D01*
G01*
X75054000Y68072000D02*
X91554000Y68072000D01*
X53610973Y70070376D02*
X70054000Y70072000D01*
X5490500Y-1492000D02*
G75*
G03*
X5490500Y508000I0J1000000D01*
G01*
X254000Y75072000D02*
X254254000Y75072000D01*
X254190500Y13890000D02*
X249866500Y13890000D01*
X228866500Y15890000D02*
G75*
G03*
X228866500Y13890000I0J-1000000D01*
G01*
X91490500Y508000D02*
X74990500Y508000D01*
X161710500Y15890000D02*
G75*
G03*
X161710500Y13890000I0J-1000000D01*
G01*
X156710500Y13890000D02*
G75*
G03*
X156710500Y15890000I0J1000000D01*
G01*
X123610500Y15890000D02*
G75*
G03*
X123610500Y13890000I0J-1000000D01*
G01*
X27054000Y68072000D02*
G75*
G03*
X27054000Y70072000I0J1000000D01*
G01*
X254254000Y49022000D02*
G75*
G03*
X250444000Y52832000I-3809999J1D01*
G01*
X96610973Y70070376D02*
G75*
G03*
X96554000Y68072000I-56973J-998376D01*
G01*
X199766500Y15890000D02*
G75*
G03*
X199766500Y13890000I0J-1000000D01*
G01*
X5554000Y68072000D02*
G75*
G03*
X5554000Y70072000I0J1000000D01*
G01*
X48490500Y508000D02*
X31990500Y508000D01*
X118674000Y52832000D02*
G75*
G03*
X118674000Y54832000I0J1000000D01*
G01*
X184296914Y15890000D02*
X194766500Y15890000D01*
X184360414Y52832000D02*
G75*
G03*
X180550414Y49065586I-43339J-3766412D01*
G01*
X53554000Y68072000D02*
X70054000Y68072000D01*
X103330500Y-1492000D02*
G75*
G03*
X104330500Y-492000I1J999999D01*
G01*
X222504000Y52832000D02*
G75*
G03*
X218650414Y49065586I-86192J-3766408D01*
G01*
X223866500Y13890000D02*
G75*
G03*
X223866500Y15890000I0J1000000D01*
G01*
X104330500Y19700000D02*
G75*
G03*
X108140500Y15890000I3809999J-1D01*
G01*
X199766500Y13890000D02*
X223866500Y13890000D01*
X190500Y4318000D02*
G75*
G03*
X4000500Y508000I3809999J-1D01*
G01*
X101790500Y4318000D02*
X101790500Y24780019D01*
X199830000Y54832000D02*
G75*
G03*
X199830000Y52832000I0J-1000000D01*
G01*
X10610973Y70070376D02*
X27054000Y70072000D01*
X69990500Y-1492000D02*
X53547473Y-1490376D01*
X249866500Y15890000D02*
G75*
G03*
X249866500Y13890000I0J-1000000D01*
G01*
X178010414Y43985586D02*
X178010414Y49065586D01*
X32054000Y68072000D02*
X48554000Y68072000D01*
X104394000Y69072000D02*
X104394000Y54832000D01*
X180550414Y49065586D02*
X180550414Y43985586D01*
X53610973Y70070376D02*
G75*
G03*
X53554000Y68072000I-56973J-998376D01*
G01*
X156774000Y52832000D02*
X146304000Y52832000D01*
X74990500Y508000D02*
G75*
G03*
X75047473Y-1490376I0J-1000000D01*
G01*
X174136914Y15890000D02*
G75*
G03*
X177946914Y19656414I43337J3766414D01*
G01*
X249930000Y52832000D02*
X250444000Y52832000D01*
X228866500Y15890000D02*
X244866500Y15890000D01*
X136080500Y15890000D02*
G75*
G03*
X139890500Y19700000I1J3809999D01*
G01*
X190500Y-6492000D02*
X190500Y-1492000D01*
X108140500Y15890000D02*
X118610500Y15890000D01*
X139954000Y43942000D02*
X139954000Y49022000D01*
X5490500Y-1492000D02*
X190500Y-1492000D01*
X216046914Y19656414D02*
X216046914Y24736414D01*
X194766500Y13890000D02*
X161710500Y13890000D01*
X26990500Y-1492000D02*
X10547473Y-1490376D01*
X10610973Y70070376D02*
G75*
G03*
X10554000Y68072000I-56973J-998376D01*
G01*
X254190500Y-6492000D02*
X190500Y-6492000D01*
X218586914Y24736414D02*
G75*
G03*
X216046914Y24736414I-1270000J-19D01*
G01*
X101854000Y43941981D02*
X101854000Y64262000D01*
X48490500Y-1492000D02*
G75*
G03*
X48490500Y508000I0J1000000D01*
G01*
X96554000Y68072000D02*
X98044000Y68072000D01*
X26990500Y-1492000D02*
G75*
G03*
X26990500Y508000I0J1000000D01*
G01*
X70054000Y68072000D02*
G75*
G03*
X70054000Y70072000I0J1000000D01*
G01*
X104394000Y69072000D02*
G75*
G03*
X103394000Y70072000I-999999J1D01*
G01*
X156710500Y13890000D02*
X123610500Y13890000D01*
X104394000Y49022000D02*
X104394000Y43941981D01*
X10490500Y508000D02*
G75*
G03*
X10547473Y-1490376I0J-1000000D01*
G01*
X190500Y4318000D02*
X254000Y64262000D01*
X96610973Y70070376D02*
X103394000Y70072000D01*
X31990500Y508000D02*
G75*
G03*
X32047473Y-1490376I0J-1000000D01*
G01*
X212236914Y15890000D02*
X199766500Y15890000D01*
X223930000Y52832000D02*
X222504000Y52832000D01*
X123610500Y15890000D02*
X136080500Y15890000D01*
X216110414Y43985586D02*
X216110414Y49065586D01*
X101854000Y43941981D02*
G75*
G03*
X104394000Y43941981I1270000J19D01*
G01*
D11*
%TO.C,C2*%
X53096000Y48920500D03*
X53096000Y47195500D03*
%TD*%
D12*
%TO.C,C7*%
X8332000Y18339000D03*
X2732000Y18339000D03*
%TD*%
D13*
%TO.C,C17*%
X40210490Y18293510D03*
X42285490Y18293510D03*
%TD*%
D14*
%TO.C,C18*%
X46392490Y18293510D03*
X44317490Y18293510D03*
%TD*%
D15*
%TO.C,C19*%
X32178490Y22865510D03*
X33903490Y22865510D03*
%TD*%
%TO.C,C22*%
X32024990Y30485510D03*
X33749990Y30485510D03*
%TD*%
D16*
%TO.C,C24*%
X38930490Y28958000D03*
X37205490Y28958000D03*
%TD*%
%TO.C,C25*%
X38930490Y26758000D03*
X37205490Y26758000D03*
%TD*%
D11*
%TO.C,C26*%
X51937490Y32771510D03*
X51937490Y31046510D03*
%TD*%
D15*
%TO.C,C27*%
X51233500Y40058000D03*
X52958500Y40058000D03*
%TD*%
D17*
%TO.C,C29*%
X39878000Y42825500D03*
X39878000Y44550500D03*
%TD*%
D13*
%TO.C,C32*%
X51258500Y41958000D03*
X53333500Y41958000D03*
%TD*%
D18*
%TO.C,D1*%
X66145490Y33279510D03*
X64095490Y33279510D03*
%TD*%
%TO.C,D2*%
X66163490Y35565510D03*
X64113490Y35565510D03*
%TD*%
%TO.C,D3*%
X66163490Y37851510D03*
X64113490Y37851510D03*
%TD*%
%TO.C,D5*%
X66154490Y42423510D03*
X64104490Y42423510D03*
%TD*%
D19*
%TO.C,D6*%
X15996000Y37558000D03*
X15996000Y32558000D03*
%TD*%
D20*
%TO.C,R1*%
X62081490Y33279510D03*
X60081490Y33279510D03*
%TD*%
%TO.C,R2*%
X62049490Y35565510D03*
X60049490Y35565510D03*
%TD*%
%TO.C,R3*%
X62049490Y37851510D03*
X60049490Y37851510D03*
%TD*%
%TO.C,R4*%
X62049490Y40137510D03*
X60049490Y40137510D03*
%TD*%
%TO.C,R5*%
X62065490Y42423510D03*
X60065490Y42423510D03*
%TD*%
%TO.C,R6*%
X70396000Y50958000D03*
X68396000Y50958000D03*
%TD*%
%TO.C,R7*%
X52996000Y50958000D03*
X50996000Y50958000D03*
%TD*%
D21*
%TO.C,R8*%
X70231000Y46879000D03*
X70231000Y48879000D03*
%TD*%
%TO.C,R9*%
X51196000Y46858000D03*
X51196000Y48858000D03*
%TD*%
%TO.C,R10*%
X26029490Y24675510D03*
X26029490Y26675510D03*
%TD*%
%TO.C,R11*%
X23743490Y24675510D03*
X23743490Y26675510D03*
%TD*%
D22*
%TO.C,R20*%
X29496000Y34290000D03*
X31496000Y34290000D03*
%TD*%
D23*
%TO.C,SW1*%
X66385000Y46825000D03*
X66385000Y54775000D03*
X61885000Y46825000D03*
X61885000Y54775000D03*
%TD*%
%TO.C,SW2*%
X55027000Y46825000D03*
X55027000Y54775000D03*
X59527000Y46825000D03*
X59527000Y54775000D03*
%TD*%
D24*
%TO.C,U6*%
X40313490Y29382510D03*
X40813490Y29382510D03*
X41313490Y29382510D03*
X41813490Y29382510D03*
X42313490Y29382510D03*
X42813490Y29382510D03*
X43313490Y29382510D03*
X43813490Y29382510D03*
X44313490Y29382510D03*
X44813490Y29382510D03*
X45313490Y29382510D03*
X45813490Y29382510D03*
X46313490Y29382510D03*
X46813490Y29382510D03*
X47313490Y29382510D03*
X47813490Y29382510D03*
D25*
X49738490Y31307510D03*
X49738490Y31807510D03*
X49738490Y32307510D03*
X49738490Y32807510D03*
X49738490Y33307510D03*
X49738490Y33807510D03*
X49738490Y34307510D03*
X49738490Y34807510D03*
X49738490Y35307510D03*
X49738490Y35807510D03*
X49738490Y36307510D03*
X49738490Y36807510D03*
X49738490Y37307510D03*
X49738490Y37807510D03*
X49738490Y38307510D03*
X49738490Y38807510D03*
D24*
X47813490Y40732510D03*
X47313490Y40732510D03*
X46813490Y40732510D03*
X46313490Y40732510D03*
X45813490Y40732510D03*
X45313490Y40732510D03*
X44813490Y40732510D03*
X44313490Y40732510D03*
X43813490Y40732510D03*
X43313490Y40732510D03*
X42813490Y40732510D03*
X42313490Y40732510D03*
X41813490Y40732510D03*
X41313490Y40732510D03*
X40813490Y40732510D03*
X40313490Y40732510D03*
D25*
X38388490Y38807510D03*
X38388490Y38307510D03*
X38388490Y37807510D03*
X38388490Y37307510D03*
X38388490Y36807510D03*
X38388490Y36307510D03*
X38388490Y35807510D03*
X38388490Y35307510D03*
X38388490Y34807510D03*
X38388490Y34307510D03*
X38388490Y33807510D03*
X38388490Y33307510D03*
X38388490Y32807510D03*
X38388490Y32307510D03*
X38388490Y31807510D03*
X38388490Y31307510D03*
%TD*%
D26*
%TO.C,Y2*%
X34621490Y28275510D03*
X29121490Y28275510D03*
X29121490Y25075510D03*
X34621490Y25075510D03*
%TD*%
D18*
%TO.C,D4*%
X66163490Y40137510D03*
X64113490Y40137510D03*
%TD*%
D11*
%TO.C,C1*%
X68296000Y48920500D03*
X68296000Y47195500D03*
%TD*%
D27*
%TO.C,Y1*%
X39051490Y22357510D03*
X47551490Y22357510D03*
%TD*%
D28*
%TO.C,C3*%
X9194500Y13439000D03*
X6069500Y13439000D03*
%TD*%
D29*
%TO.C,C4*%
X11938000Y59524500D03*
X11938000Y62649500D03*
%TD*%
D17*
%TO.C,C5*%
X17932000Y9976500D03*
X17932000Y11701500D03*
%TD*%
D15*
%TO.C,C6*%
X4201500Y51117500D03*
X5926500Y51117500D03*
%TD*%
D29*
%TO.C,C13*%
X4032000Y6576500D03*
X4032000Y9701500D03*
%TD*%
D30*
%TO.C,C34*%
X2104500Y63055500D03*
X5229500Y63055500D03*
%TD*%
D31*
%TO.C,D7*%
X12432000Y9839000D03*
X7432000Y9839000D03*
%TD*%
D19*
%TO.C,D8*%
X8112000Y58460000D03*
X8112000Y63460000D03*
%TD*%
D32*
%TO.C,L1*%
X12961000Y5219000D03*
X8461000Y5219000D03*
%TD*%
D33*
%TO.C,L2*%
X3413000Y55689500D03*
X3413000Y60189500D03*
%TD*%
D22*
%TO.C,R14*%
X10032000Y16239000D03*
X12032000Y16239000D03*
%TD*%
D20*
%TO.C,R15*%
X13573000Y57404000D03*
X11573000Y57404000D03*
%TD*%
%TO.C,R18*%
X21632000Y12839000D03*
X19632000Y12839000D03*
%TD*%
%TO.C,R19*%
X13573000Y55245000D03*
X11573000Y55245000D03*
%TD*%
D21*
%TO.C,R23*%
X16132000Y7939000D03*
X16132000Y9939000D03*
%TD*%
D20*
%TO.C,R24*%
X5921000Y53022500D03*
X3921000Y53022500D03*
%TD*%
D22*
%TO.C,R25*%
X19632000Y14839000D03*
X21632000Y14839000D03*
%TD*%
%TO.C,R26*%
X11573000Y53086000D03*
X13573000Y53086000D03*
%TD*%
%TO.C,R27*%
X19632000Y16839000D03*
X21632000Y16839000D03*
%TD*%
%TO.C,R28*%
X11573000Y50927000D03*
X13573000Y50927000D03*
%TD*%
D34*
%TO.C,U1*%
X15842000Y12489000D03*
X15842000Y13439000D03*
X15842000Y14389000D03*
X12422000Y14389000D03*
X12422000Y13439000D03*
X12422000Y12489000D03*
%TD*%
D35*
%TO.C,U2*%
X7829000Y50677500D03*
X8779000Y50677500D03*
X9729000Y50677500D03*
X9729000Y54097500D03*
X8779000Y54097500D03*
X7829000Y54097500D03*
%TD*%
D36*
%TO.C,U3*%
X83593800Y32817001D03*
X83593800Y33616999D03*
X83593800Y34417000D03*
X83593800Y35217001D03*
X83593800Y36016999D03*
D37*
X84709000Y36017200D03*
D36*
X85824200Y36016999D03*
X85824200Y35217001D03*
X85824200Y34417000D03*
X85824200Y33616999D03*
X85824200Y32817001D03*
D37*
X84709000Y32816800D03*
%TD*%
D36*
%TO.C,U4*%
X121693800Y32817001D03*
X121693800Y33616999D03*
X121693800Y34417000D03*
X121693800Y35217001D03*
X121693800Y36016999D03*
D37*
X122809000Y36017200D03*
D36*
X123924200Y36016999D03*
X123924200Y35217001D03*
X123924200Y34417000D03*
X123924200Y33616999D03*
X123924200Y32817001D03*
D37*
X122809000Y32816800D03*
%TD*%
D36*
%TO.C,U5*%
X159158800Y32817001D03*
X159158800Y33616999D03*
X159158800Y34417000D03*
X159158800Y35217001D03*
X159158800Y36016999D03*
D37*
X160274000Y36017200D03*
D36*
X161389200Y36016999D03*
X161389200Y35217001D03*
X161389200Y34417000D03*
X161389200Y33616999D03*
X161389200Y32817001D03*
D37*
X160274000Y32816800D03*
%TD*%
D36*
%TO.C,U8*%
X197258800Y32817001D03*
X197258800Y33616999D03*
X197258800Y34417000D03*
X197258800Y35217001D03*
X197258800Y36016999D03*
D37*
X198374000Y36017200D03*
D36*
X199489200Y36016999D03*
X199489200Y35217001D03*
X199489200Y34417000D03*
X199489200Y33616999D03*
X199489200Y32817001D03*
D37*
X198374000Y32816800D03*
%TD*%
D24*
%TO.C,U7*%
X40313490Y29382510D03*
X40813490Y29382510D03*
X41313490Y29382510D03*
X41813490Y29382510D03*
X42313490Y29382510D03*
X42813490Y29382510D03*
X43313490Y29382510D03*
X43813490Y29382510D03*
X44313490Y29382510D03*
X44813490Y29382510D03*
X45313490Y29382510D03*
X45813490Y29382510D03*
X46313490Y29382510D03*
X46813490Y29382510D03*
X47313490Y29382510D03*
X47813490Y29382510D03*
D25*
X49738490Y31307510D03*
X49738490Y31807510D03*
X49738490Y32307510D03*
X49738490Y32807510D03*
X49738490Y33307510D03*
X49738490Y33807510D03*
X49738490Y34307510D03*
X49738490Y34807510D03*
X49738490Y35307510D03*
X49738490Y35807510D03*
X49738490Y36307510D03*
X49738490Y36807510D03*
X49738490Y37307510D03*
X49738490Y37807510D03*
X49738490Y38307510D03*
X49738490Y38807510D03*
D24*
X47813490Y40732510D03*
X47313490Y40732510D03*
X46813490Y40732510D03*
X46313490Y40732510D03*
X45813490Y40732510D03*
X45313490Y40732510D03*
X44813490Y40732510D03*
X44313490Y40732510D03*
X43813490Y40732510D03*
X43313490Y40732510D03*
X42813490Y40732510D03*
X42313490Y40732510D03*
X41813490Y40732510D03*
X41313490Y40732510D03*
X40813490Y40732510D03*
X40313490Y40732510D03*
D25*
X38388490Y38807510D03*
X38388490Y38307510D03*
X38388490Y37807510D03*
X38388490Y37307510D03*
X38388490Y36807510D03*
X38388490Y36307510D03*
X38388490Y35807510D03*
X38388490Y35307510D03*
X38388490Y34807510D03*
X38388490Y34307510D03*
X38388490Y33807510D03*
X38388490Y33307510D03*
X38388490Y32807510D03*
X38388490Y32307510D03*
X38388490Y31807510D03*
X38388490Y31307510D03*
%TD*%
D14*
%TO.C,C48*%
X34544000Y18415000D03*
X32469000Y18415000D03*
%TD*%
D38*
%TO.C,R35*%
X30806107Y20120893D03*
X29391893Y21535107D03*
%TD*%
D39*
%TO.C,REF\u002A\u002A*%
X247806000Y60193000D03*
D40*
X247806000Y58818000D03*
%TD*%
D39*
%TO.C,REF\u002A\u002A*%
X67818000Y25759000D03*
D40*
X67818000Y24384000D03*
%TD*%
D36*
%TO.C,U9*%
X235358800Y32817001D03*
X235358800Y33616999D03*
X235358800Y34417000D03*
X235358800Y35217001D03*
X235358800Y36016999D03*
D37*
X236474000Y36017200D03*
D36*
X237589200Y36016999D03*
X237589200Y35217001D03*
X237589200Y34417000D03*
X237589200Y33616999D03*
X237589200Y32817001D03*
D37*
X236474000Y32816800D03*
%TD*%
D39*
%TO.C,REF\u002A\u002A*%
X236601000Y11662000D03*
D40*
X236601000Y10287000D03*
%TD*%
D13*
%TO.C,C49*%
X29696500Y16129000D03*
X31771500Y16129000D03*
%TD*%
D41*
%TO.C,C43*%
X18161000Y58057700D03*
X18161000Y52457700D03*
%TD*%
D38*
%TO.C,R36*%
X29227214Y18524786D03*
X27813000Y19939000D03*
%TD*%
D39*
%TO.C,REF\u002A\u002A*%
X108106000Y60193000D03*
D40*
X108106000Y58818000D03*
%TD*%
M02*
