<?xml version="1.0" standalone="no"?>
<!DOCTYPE svg PUBLIC "-//W3C//DTD SVG 20010904//EN"
 "http://www.w3.org/TR/2001/REC-SVG-20010904/DTD/svg10.dtd">
<svg version="1.0" xmlns="http://www.w3.org/2000/svg"
 width="1080.000000pt" height="1080.000000pt" viewBox="0 0 1080.000000 1080.000000"
 preserveAspectRatio="xMidYMid meet">
<metadata>
Created by potrace 1.14, written by Peter Selinger 2001-2017
</metadata>
<g transform="translate(0.000000,1080.000000) scale(0.100000,-0.100000)"
fill="#000000" stroke="none">
<path d="M2636 8618 c-9 -5 -21 -6 -26 -3 -6 3 -10 1 -10 -4 0 -6 -7 -11 -17
-11 -63 0 -238 -140 -266 -212 -3 -10 -11 -18 -17 -18 -6 0 -8 -5 -5 -10 4 -6
1 -17 -5 -25 -16 -19 -38 -150 -33 -198 3 -35 2 -37 -18 -27 -11 6 -23 18 -26
26 -3 7 -9 12 -13 9 -4 -3 -13 2 -20 10 -7 8 -19 15 -26 15 -8 0 -14 5 -14 10
0 6 -9 10 -19 10 -11 0 -22 4 -26 9 -7 12 -103 32 -169 35 -57 3 -152 -14
-208 -38 -21 -9 -41 -16 -44 -15 -3 0 -14 -10 -25 -22 -10 -12 -19 -18 -19
-13 0 5 -13 -6 -30 -24 -16 -18 -30 -30 -30 -26 0 4 -20 -19 -44 -52 -25 -32
-44 -61 -43 -64 0 -3 -7 -23 -16 -44 -10 -22 -19 -52 -20 -66 -2 -14 -6 -30
-8 -35 -3 -6 -5 -514 -4 -1130 l1 -1120 -38 -37 c-21 -21 -35 -38 -31 -38 3 0
-3 -11 -16 -24 -19 -20 -47 -81 -69 -151 -11 -35 -12 -1276 -1 -1296 7 -13 6
-19 -1 -19 -6 0 -9 -4 -6 -9 3 -5 8 -26 12 -47 3 -22 8 -52 10 -69 3 -16 7
-43 10 -60 2 -16 11 -55 19 -85 9 -30 18 -68 21 -83 3 -15 13 -44 22 -65 8
-20 15 -40 14 -44 -1 -5 3 -8 9 -8 5 0 8 -4 5 -9 -3 -4 8 -36 24 -70 17 -34
30 -66 30 -71 0 -6 4 -10 9 -10 5 0 11 -8 13 -17 8 -29 12 -37 28 -56 8 -10
13 -20 12 -24 -2 -3 0 -9 5 -12 11 -7 73 -97 73 -105 0 -3 12 -18 28 -35 15
-16 38 -44 52 -62 29 -38 161 -169 215 -214 21 -16 42 -35 49 -41 24 -22 193
-134 203 -134 6 0 16 -7 23 -15 7 -8 16 -13 20 -10 5 3 10 2 12 -2 4 -11 87
-53 104 -53 8 0 14 -4 14 -8 0 -7 114 -53 132 -52 5 0 24 -9 44 -20 19 -11 32
-15 28 -8 -6 10 -5 10 8 0 9 -7 20 -12 24 -11 5 1 16 -1 24 -4 8 -4 35 -11 60
-17 25 -6 53 -13 64 -15 10 -2 39 -7 65 -10 25 -4 60 -8 76 -11 17 -2 64 -5
106 -8 42 -2 81 -5 85 -8 5 -2 23 -3 39 -2 17 2 71 5 120 8 77 5 130 11 130
16 0 1 23 3 50 6 64 5 77 8 92 17 7 5 13 6 13 3 0 -3 11 -1 25 4 14 5 37 12
51 14 30 6 90 24 119 36 35 15 60 23 78 26 10 2 30 12 44 21 15 10 28 17 30
16 1 -1 24 8 50 20 27 11 51 20 56 19 4 -1 7 1 7 6 0 4 21 19 47 32 26 14 54
31 61 38 7 6 18 12 23 12 5 0 15 5 22 10 7 6 28 24 47 40 19 16 38 30 42 30 5
0 16 8 27 18 10 9 44 39 75 66 67 58 176 163 176 171 0 5 24 36 50 64 30 33
70 90 70 100 0 6 5 11 10 11 6 0 10 6 10 14 0 8 6 21 14 29 8 7 34 52 57 98
24 46 46 86 49 89 6 6 12 29 13 48 0 6 4 12 9 12 4 0 8 6 8 14 0 7 8 31 17 52
9 22 18 44 19 49 3 10 11 44 19 75 2 8 4 15 5 15 1 0 3 11 6 25 2 14 7 32 10
40 4 8 8 29 10 45 2 17 7 44 10 60 10 55 14 119 17 270 2 83 7 156 11 163 4 7
4 12 -1 12 -10 0 -10 771 1 788 4 6 3 12 -1 12 -11 0 -10 130 0 148 5 6 5 12
0 12 -10 0 -10 771 1 788 4 6 3 12 -1 12 -11 0 -10 130 0 148 5 6 5 12 0 12
-10 0 -10 771 1 788 4 6 3 12 -1 12 -10 0 -10 130 0 146 3 6 4 14 0 18 -3 3
-8 23 -10 44 -13 129 -119 283 -232 337 -22 11 -41 23 -41 28 0 4 -9 7 -21 7
-11 0 -29 5 -40 11 -12 6 -45 11 -75 12 -30 1 -54 5 -54 9 0 4 -12 3 -26 -2
-14 -6 -23 -6 -20 -1 8 12 -114 -16 -146 -35 -16 -8 -28 -12 -28 -8 0 4 -9 -1
-21 -12 -12 -10 -23 -17 -25 -14 -2 3 -13 -3 -24 -12 -11 -10 -25 -18 -31 -18
-5 0 -7 -5 -3 -11 4 -7 -1 -10 -12 -7 -18 3 -30 58 -12 58 5 0 6 6 2 12 -11
17 -12 178 -1 178 4 0 5 6 0 13 -11 18 -12 37 -2 37 6 0 7 5 3 11 -11 18 -13
69 -2 69 5 0 6 5 2 12 -4 6 -9 49 -10 95 -2 46 -8 92 -14 103 -5 10 -10 28
-10 39 0 12 -4 21 -9 21 -5 0 -15 15 -22 33 -40 96 -194 215 -303 234 -82 14
-183 13 -236 -2 -30 -8 -63 -17 -72 -19 -29 -8 -108 -57 -108 -69 0 -6 -3 -8
-6 -5 -3 4 -18 -7 -34 -24 -33 -34 -42 -32 -61 14 -7 18 -20 42 -29 52 -30 38
-123 126 -132 126 -6 0 -23 9 -39 21 -16 11 -29 18 -29 16 0 -3 -22 3 -50 14
-27 10 -50 16 -50 13 0 -4 -6 -2 -13 4 -15 12 -159 12 -181 0z m136 -132 c18
1 37 -1 43 -4 5 -4 18 -8 28 -9 31 -5 94 -41 130 -75 39 -37 89 -113 80 -122
-3 -3 0 -13 8 -22 12 -14 14 -226 15 -1323 0 -718 -2 -1312 -4 -1319 -3 -9
-14 -6 -36 12 -18 13 -61 34 -97 47 -58 20 -86 22 -294 24 -126 2 -235 3 -242
4 -15 1 -16 2529 -1 2549 6 6 8 12 4 12 -4 0 5 21 20 47 30 55 86 112 129 133
17 8 32 17 35 20 8 9 90 31 98 27 4 -3 16 -1 27 3 11 4 21 4 23 1 1 -4 17 -6
34 -5z m884 -147 c8 -6 14 -9 14 -5 0 4 13 0 30 -9 16 -8 32 -15 35 -15 16 1
115 -100 115 -117 0 -7 5 -13 10 -13 6 0 10 -9 10 -20 0 -11 4 -20 8 -20 5 0
9 -6 10 -12 4 -44 11 -93 12 -93 1 0 3 -10 4 -22 2 -13 -1 -23 -6 -23 -5 0 -7
-4 -3 -9 10 -17 13 -71 3 -71 -5 0 -7 -4 -3 -9 10 -17 13 -71 3 -71 -5 0 -7
-4 -3 -9 10 -17 13 -71 3 -71 -5 0 -7 -4 -3 -9 10 -17 13 -71 3 -71 -5 0 -7
-4 -3 -9 10 -17 13 -71 3 -71 -5 0 -7 -4 -3 -9 10 -17 13 -71 3 -71 -5 0 -7
-4 -3 -9 10 -17 13 -71 3 -71 -5 0 -7 -4 -3 -9 10 -17 13 -71 3 -71 -5 0 -7
-4 -3 -9 10 -17 13 -71 3 -71 -5 0 -7 -4 -3 -9 10 -17 13 -71 3 -71 -5 0 -7
-4 -3 -9 10 -17 13 -71 3 -71 -5 0 -7 -4 -3 -9 10 -17 13 -71 3 -71 -5 0 -6
-5 -2 -11 8 -14 8 -354 -1 -368 -3 -6 -3 -11 2 -11 9 0 9 -200 0 -224 -4 -9
-3 -16 1 -16 8 0 7 -202 -1 -224 -4 -9 -3 -16 1 -16 8 0 7 -202 -1 -224 -4 -9
-3 -16 1 -16 8 0 7 -202 -1 -224 -4 -9 -3 -16 1 -16 8 0 7 -202 -1 -224 -4 -9
-3 -16 1 -16 8 0 7 -202 -1 -224 -4 -9 -3 -16 2 -16 4 0 6 -12 4 -27 -6 -37
12 -83 32 -83 8 0 15 -6 16 -12 0 -10 2 -10 5 -1 3 7 12 9 19 7 8 -3 25 5 38
18 21 21 23 31 22 126 0 64 3 102 10 102 6 0 7 3 0 8 -13 9 -13 95 0 104 7 5
7 8 0 8 -6 0 -11 20 -11 45 0 25 4 45 9 45 4 0 4 8 -1 18 -11 21 -10 62 1 80
5 6 5 12 0 12 -4 0 -9 18 -9 40 -1 22 3 40 8 40 5 0 6 6 1 13 -11 18 -12 37
-2 37 6 0 7 5 3 12 -12 19 -11 128 1 128 7 0 7 3 0 8 -14 9 -14 195 0 204 6 5
6 8 0 8 -13 0 -14 150 0 150 7 0 7 3 0 8 -13 9 -13 95 0 104 7 5 7 8 0 8 -6 0
-11 20 -11 45 0 25 4 45 9 45 4 0 4 8 -1 18 -11 21 -10 62 1 80 5 6 5 12 0 12
-4 0 -9 18 -9 40 -1 22 3 40 8 40 5 0 6 6 1 13 -11 18 -12 37 -2 37 6 0 7 5 3
12 -12 19 -11 128 1 128 7 0 7 3 0 8 -12 9 -15 92 -3 92 5 0 6 6 1 12 -11 19
-10 172 2 180 6 5 5 8 -4 8 -10 0 -11 3 -2 14 7 8 8 17 3 20 -27 16 29 167 84
226 29 31 109 81 124 78 3 -1 16 4 29 11 26 15 171 22 171 9 0 -4 3 -7 8 -6
12 5 92 -25 92 -34 0 -4 6 -8 14 -8 7 0 35 -20 62 -45 26 -25 44 -45 39 -45
-4 0 -1 -8 7 -17 21 -26 38 -72 43 -121 2 -23 7 -47 10 -52 3 -5 1 -11 -5 -15
-6 -4 -7 -12 -3 -18 10 -16 10 -37 1 -64 -4 -13 -4 -23 1 -23 9 0 7 -43 -4
-59 -3 -6 -2 -11 2 -11 10 0 8 -94 -3 -111 -4 -7 -3 -10 3 -6 7 5 8 -4 3 -28
-4 -19 -5 -35 -1 -35 4 0 7 -9 7 -20 0 -11 -4 -20 -9 -20 -4 0 -5 -6 0 -12 9
-16 10 -76 2 -103 -4 -11 -3 -29 1 -40 4 -11 3 -30 -1 -43 -5 -13 -5 -21 0
-18 5 4 6 -9 1 -29 -4 -19 -5 -35 -1 -35 4 0 7 -9 7 -20 0 -11 -4 -20 -9 -20
-4 0 -5 -6 0 -12 10 -17 10 -77 1 -106 -5 -14 -4 -21 1 -17 6 3 6 -6 1 -25 -5
-16 -5 -30 -1 -30 9 0 6 -43 -4 -59 -3 -6 -2 -11 3 -11 9 0 7 -64 -3 -80 -3
-6 -2 -10 3 -10 10 0 8 -42 -3 -59 -3 -6 -2 -11 2 -11 5 0 8 -15 6 -32 -5 -43
-5 -48 0 -80 2 -16 0 -28 -5 -28 -5 0 -6 -6 -1 -12 10 -17 10 -77 1 -106 -5
-13 -4 -21 1 -18 5 4 6 -9 1 -29 -4 -19 -5 -35 -1 -35 4 0 7 -9 7 -20 0 -11
-4 -20 -9 -20 -4 0 -5 -6 0 -12 10 -17 10 -77 1 -106 -5 -15 -4 -21 2 -17 7 4
7 -2 1 -18 -6 -14 -7 -27 -5 -30 10 -10 11 -57 2 -57 -5 0 -6 -6 -1 -12 10
-16 10 -36 1 -70 -3 -16 -3 -28 1 -28 9 0 6 -43 -4 -59 -3 -6 -2 -11 3 -11 9
0 7 -64 -3 -80 -3 -6 -2 -10 3 -10 10 0 8 -42 -3 -59 -3 -6 -2 -11 2 -11 10 0
8 -94 -3 -111 -4 -7 -3 -10 3 -6 7 5 8 -4 3 -28 -4 -19 -5 -35 -1 -35 4 0 7
-9 7 -20 0 -11 -4 -20 -9 -20 -4 0 -5 -6 0 -12 9 -16 10 -76 2 -103 -4 -11 -3
-29 1 -40 4 -11 3 -30 -1 -43 -5 -13 -5 -21 0 -18 5 4 6 -9 1 -29 -4 -19 -5
-35 -1 -35 4 0 7 -9 7 -20 0 -11 -4 -20 -9 -20 -6 0 -6 -5 0 -12 12 -18 8
-109 -5 -117 -6 -4 -217 -7 -468 -6 -293 0 -458 -4 -462 -10 -4 -5 -8 -36 -8
-67 -1 -52 1 -58 20 -59 11 0 223 -1 469 -1 497 -1 470 3 457 -69 -4 -21 -4
-39 -1 -39 9 0 5 -59 -3 -68 -4 -3 -163 -6 -354 -7 l-347 0 -3 -66 -3 -66 351
1 350 1 -7 -45 c-3 -25 -7 -53 -7 -62 0 -10 -4 -18 -9 -18 -4 0 -7 -6 -6 -12
5 -42 0 -48 -46 -45 -26 2 -45 -2 -45 -8 0 -6 -3 -7 -8 0 -4 6 -79 10 -187 10
l-180 0 -5 -55 c-8 -92 -26 -86 211 -85 115 0 209 -1 209 -4 0 -14 -45 -127
-52 -129 -5 -2 -6 -8 -2 -13 3 -5 0 -9 -5 -9 -6 0 -10 -3 -9 -7 3 -11 -53
-117 -66 -125 -6 -5 -7 -8 -1 -8 7 0 7 -3 0 -8 -5 -4 -28 -34 -50 -67 -66
-100 -175 -220 -275 -304 -57 -47 -70 -58 -96 -77 -15 -10 -35 -27 -46 -36
-10 -10 -18 -15 -18 -12 0 3 -15 -5 -32 -18 -18 -13 -42 -28 -53 -34 -104 -56
-208 -104 -224 -104 -6 0 -11 -5 -11 -12 0 -6 -3 -9 -6 -5 -3 3 -29 -3 -58
-15 -28 -11 -58 -21 -66 -23 -8 -2 -35 -8 -60 -15 -25 -7 -52 -14 -60 -15 -8
-2 -15 -4 -15 -5 0 -1 -13 -3 -30 -5 -16 -2 -43 -6 -60 -10 -16 -3 -53 -8 -81
-9 -29 -2 -56 -6 -61 -8 -8 -4 -298 -2 -298 2 0 1 -13 4 -30 5 -60 7 -147 23
-200 36 -22 6 -47 13 -55 14 -8 2 -48 15 -89 29 -41 14 -78 23 -83 20 -4 -3
-8 -1 -8 5 0 5 -10 13 -22 17 -74 23 -283 140 -355 199 -7 6 -27 21 -44 35
-18 14 -46 37 -63 53 l-31 27 67 -1 c38 -1 71 1 74 4 4 3 15 2 25 -4 11 -5 19
-6 19 -2 0 4 34 6 76 3 42 -3 78 -2 81 2 2 5 13 3 24 -2 14 -8 19 -7 19 1 0 8
4 8 13 1 8 -7 18 -7 27 -2 9 5 19 5 27 -2 7 -6 13 -7 13 -2 0 5 34 7 76 4 42
-3 78 -2 80 2 3 4 11 5 19 2 16 -7 21 21 17 86 l-4 46 -391 -1 -391 0 -21 23
c-41 46 -50 58 -66 82 -9 14 -23 37 -32 51 l-17 26 327 -1 c181 -1 335 2 343
5 14 6 18 48 11 119 -1 13 -50 15 -380 15 l-379 -1 -16 33 c-9 18 -16 35 -16
38 0 3 -9 22 -20 42 -38 72 -56 68 301 68 176 0 324 2 328 5 13 9 20 39 11 45
-7 4 -6 13 0 25 6 12 7 21 0 25 -5 3 -7 12 -3 20 3 8 1 15 -3 16 -54 4 -84 2
-84 -6 0 -7 -3 -7 -8 0 -4 6 -20 10 -37 10 -16 0 -33 -4 -37 -10 -5 -7 -8 -7
-8 0 0 6 -94 9 -265 8 -257 -2 -265 -1 -265 17 0 29 -1 34 -9 45 -8 11 -14 49
-15 103 -1 17 -4 32 -7 32 -4 0 -7 10 -6 23 0 12 -1 56 -3 98 -1 42 0 82 4 88
4 6 4 11 -1 11 -9 0 -8 122 1 146 3 7 1 14 -5 14 -6 0 -6 7 1 19 6 12 6 22 1
25 -5 3 -5 21 -1 40 4 19 5 37 2 40 -7 8 -5 133 3 146 3 5 3 10 -2 10 -9 0 -8
82 1 105 3 8 2 15 -2 15 -8 0 -7 83 2 105 3 8 1 17 -3 20 -5 3 -5 20 -1 39 4
19 5 37 2 40 -7 8 -5 133 3 146 3 5 3 10 -2 10 -16 0 1 200 19 211 7 5 9 9 5
9 -5 0 3 21 19 47 27 47 81 100 96 96 4 -2 8 2 8 8 0 5 4 8 9 4 5 -3 12 -1 15
4 10 15 109 44 166 47 30 1 56 3 58 4 7 6 49 3 60 -4 6 -4 20 -3 29 2 10 6 26
6 39 2 12 -5 25 -6 28 -2 9 8 46 10 46 1 0 -4 15 -4 33 1 18 4 43 3 55 -1 12
-5 23 -5 26 -1 6 10 48 8 64 -2 6 -4 20 -3 29 2 10 6 26 6 39 2 12 -5 25 -6
28 -2 9 8 46 10 46 1 0 -4 15 -4 33 1 18 4 43 3 55 -1 12 -5 23 -5 26 -1 6 10
48 8 64 -2 6 -4 20 -3 29 2 10 6 26 6 39 2 12 -5 25 -6 28 -2 9 8 46 10 46 1
0 -4 15 -4 33 1 18 4 43 3 55 -1 12 -5 24 -4 26 0 3 5 16 7 28 5 13 -2 41 -6
63 -9 22 -4 44 -10 50 -16 5 -5 16 -9 25 -9 9 0 26 -9 38 -20 12 -11 24 -20
27 -20 15 0 71 -76 74 -100 0 -8 2 -67 4 -131 3 -118 -13 -205 -46 -246 -53
-65 -115 -107 -173 -117 -16 -2 -30 -5 -31 -5 -2 -1 -4 -1 -5 0 -2 0 -16 -4
-31 -10 -20 -8 -26 -8 -21 0 4 8 1 8 -12 2 -11 -5 -29 -8 -42 -7 -30 2 -72
-48 -65 -77 12 -43 33 -54 111 -54 39 0 72 3 72 7 0 3 7 5 17 4 26 -4 147 42
181 69 58 45 132 130 132 152 0 7 4 13 10 13 5 0 9 3 9 8 -1 4 0 9 1 12 1 3 3
12 5 20 2 8 6 25 9 38 3 12 8 32 11 45 3 12 6 687 7 1500 0 1388 1 1481 18
1525 10 25 23 48 29 50 6 2 11 10 11 17 0 37 131 128 200 140 19 3 36 7 37 9
8 8 138 -5 149 -15z m-1646 -251 c94 -26 180 -102 222 -197 21 -46 21 -55 22
-1114 1 -689 -2 -1071 -8 -1075 -6 -3 -132 -7 -281 -8 -148 -1 -279 -4 -290
-7 -11 -3 -39 -12 -61 -20 l-42 -14 0 1091 c0 600 3 1096 6 1101 4 6 7 16 9
24 3 26 25 71 34 71 5 0 8 4 6 9 -7 28 169 151 195 135 4 -3 8 -1 8 5 0 9 145
8 180 -1z"/>
<path d="M5511 6949 c-73 -44 -271 -455 -346 -719 -50 -173 -88 -355 -101
-480 -3 -30 -7 -71 -9 -90 -7 -51 -6 -477 0 -530 42 -337 109 -608 206 -827
11 -23 19 -45 19 -48 0 -12 117 -242 159 -312 49 -82 79 -106 136 -108 60 -2
102 22 126 72 26 55 20 84 -37 184 -147 259 -268 585 -309 839 -3 19 -8 49
-11 65 -34 190 -39 589 -9 755 2 14 11 66 19 115 30 173 87 365 163 546 43
104 60 140 156 320 36 69 45 94 40 120 -6 39 -35 84 -65 100 -35 19 -105 18
-137 -2z"/>
<path d="M6205 6627 c-35 -19 -52 -40 -108 -135 -122 -203 -227 -479 -263
-692 -19 -109 -24 -144 -30 -205 -40 -440 68 -912 295 -1288 70 -117 89 -132
161 -132 51 0 63 4 89 29 30 29 48 80 42 121 -1 11 -21 52 -44 90 -227 386
-308 735 -273 1175 4 51 9 96 11 100 2 3 6 23 9 45 31 197 132 456 252 651 63
102 64 161 4 219 -31 30 -109 42 -145 22z"/>
<path d="M6887 6305 c-44 -15 -51 -22 -115 -116 -117 -172 -191 -364 -231
-599 -9 -55 -8 -347 2 -386 3 -12 8 -37 11 -55 3 -19 8 -46 11 -62 36 -185
209 -521 293 -570 93 -55 211 21 198 127 -3 24 -22 64 -49 105 -135 198 -196
381 -202 611 -3 122 0 165 19 279 18 112 94 285 182 416 41 61 54 90 56 121 3
93 -86 160 -175 129z"/>
<path d="M7780 6010 c-194 -35 -362 -160 -449 -332 -51 -103 -68 -179 -65
-288 3 -98 6 -118 37 -203 55 -151 176 -277 331 -347 95 -42 155 -53 274 -48
90 4 120 10 187 37 178 70 318 220 369 395 l12 41 382 2 c376 2 383 2 418 24
63 39 82 120 41 180 -43 65 -60 69 -352 68 -143 0 -312 0 -376 0 l-117 1 -6
36 c-4 19 -25 70 -47 112 -74 144 -225 265 -384 307 -72 19 -193 26 -255 15z"/>
</g>
</svg>
