%TF.GenerationSoftware,KiCad,Pcbnew,(6.0.2)*%
%TF.CreationDate,2022-03-24T13:25:50+01:00*%
%TF.ProjectId,GestureControl,47657374-7572-4654-936f-6e74726f6c2e,V0.3*%
%TF.SameCoordinates,PX1268e40PY7fa82d0*%
%TF.FileFunction,Legend,Bot*%
%TF.FilePolarity,Positive*%
%FSLAX46Y46*%
G04 Gerber Fmt 4.6, Leading zero omitted, Abs format (unit mm)*
G04 Created by KiCad (PCBNEW (6.0.2)) date 2022-03-24 13:25:50*
%MOMM*%
%LPD*%
G01*
G04 APERTURE LIST*
%ADD10C,0.120000*%
%TA.AperFunction,Profile*%
%ADD11C,0.050000*%
%TD*%
%ADD12C,0.200000*%
%ADD13C,0.150000*%
G04 APERTURE END LIST*
D10*
X59690000Y43434000D02*
X59944000Y43434000D01*
X52324000Y40132000D02*
X51562000Y40386000D01*
X51816000Y41148000D02*
X51562000Y40386000D01*
X38100000Y48768000D02*
X38100000Y53086000D01*
X35306000Y51816000D02*
X34544000Y52324000D01*
X35306000Y52832000D02*
X34544000Y52324000D01*
X32766000Y24638000D02*
X32766000Y27940000D01*
X39370000Y21336000D02*
X40640000Y21336000D01*
X51562000Y40386000D02*
X52324000Y40132000D01*
X32766000Y18034000D02*
X38100000Y18034000D01*
X46990000Y48768000D02*
X38100000Y48768000D01*
X38100000Y18034000D02*
X38100000Y21336000D01*
X40640000Y21336000D02*
X40640000Y24638000D01*
X65532000Y43434000D02*
X65532000Y31242000D01*
X32766000Y21336000D02*
X32766000Y18034000D01*
X59690000Y31242000D02*
X59690000Y43434000D01*
X59690000Y43434000D02*
X51562000Y40386000D01*
X38100000Y53086000D02*
X46990000Y53086000D01*
X40640000Y27940000D02*
X40640000Y24638000D01*
X59944000Y43434000D02*
X71120000Y43434000D01*
X31496000Y33274000D02*
X32004000Y33020000D01*
X38100000Y52324000D02*
X34544000Y52324000D01*
X34544000Y52324000D02*
X35306000Y52832000D01*
X40640000Y24638000D02*
X32766000Y24638000D01*
X71120000Y43434000D02*
X71120000Y31242000D01*
X59944000Y31242000D02*
X59690000Y31242000D01*
X32766000Y21336000D02*
X39370000Y21336000D01*
X32766000Y27940000D02*
X40640000Y27940000D01*
X71120000Y31242000D02*
X59944000Y31242000D01*
X46990000Y53086000D02*
X46990000Y48768000D01*
X32766000Y24638000D02*
X32766000Y21336000D01*
X34544000Y52324000D02*
X35306000Y51816000D01*
X32766000Y27940000D02*
X31496000Y33274000D01*
X31496000Y33274000D02*
X31242000Y32766000D01*
D11*
X75110973Y70070376D02*
G75*
G03*
X75054000Y68072000I-56973J-998376D01*
G01*
X118674000Y52832000D02*
X108204000Y52832000D01*
X249930000Y54832000D02*
X254254000Y54832000D01*
X250380500Y15890000D02*
X249866500Y15890000D01*
X118610500Y13890000D02*
G75*
G03*
X118610500Y15890000I0J1000000D01*
G01*
X97980500Y508000D02*
G75*
G03*
X101790500Y4318000I1J3809999D01*
G01*
X104330500Y13890000D02*
X104330500Y-492000D01*
X32110973Y70070376D02*
X48554000Y70072000D01*
X222632500Y15890000D02*
X223866500Y15890000D01*
X123674000Y54832000D02*
X156774000Y54832000D01*
X194830000Y52832000D02*
G75*
G03*
X194830000Y54832000I0J1000000D01*
G01*
X139890500Y19700000D02*
X139890500Y24780000D01*
X139954000Y43942000D02*
G75*
G03*
X142494000Y43942000I1270000J19D01*
G01*
X244866500Y13890000D02*
X228866500Y13890000D01*
X180486915Y19656414D02*
G75*
G03*
X184296914Y15890000I3766659J-4D01*
G01*
X142494000Y49022000D02*
X142494000Y43942000D01*
X91554000Y68072000D02*
G75*
G03*
X91554000Y70072000I0J1000000D01*
G01*
X218650414Y49065586D02*
X218650414Y43985586D01*
X250380500Y15890000D02*
G75*
G03*
X254190500Y19700000I1J3809999D01*
G01*
X254000Y70072000D02*
X254000Y75072000D01*
X174136914Y15890000D02*
X161710500Y15890000D01*
X142430500Y24780000D02*
X142430500Y19700000D01*
X136144000Y52832000D02*
X123674000Y52832000D01*
X139954000Y49022000D02*
G75*
G03*
X136144000Y52832000I-3809999J1D01*
G01*
X103330500Y-1492000D02*
X96547473Y-1490376D01*
X4064000Y68072000D02*
G75*
G03*
X254000Y64262000I-1J-3809999D01*
G01*
X142430500Y24780000D02*
G75*
G03*
X139890500Y24780000I-1270000J-19D01*
G01*
X104330500Y24780019D02*
G75*
G03*
X101790500Y24780019I-1270000J-19D01*
G01*
X244866500Y13890000D02*
G75*
G03*
X244866500Y15890000I0J1000000D01*
G01*
X26990500Y508000D02*
X10490500Y508000D01*
X244930000Y52832000D02*
G75*
G03*
X244930000Y54832000I0J1000000D01*
G01*
X53490500Y508000D02*
G75*
G03*
X53547473Y-1490376I0J-1000000D01*
G01*
X142430500Y19700000D02*
G75*
G03*
X146240500Y15890000I3809999J-1D01*
G01*
X249930000Y54832000D02*
G75*
G03*
X249930000Y52832000I0J-1000000D01*
G01*
X216110414Y49065586D02*
G75*
G03*
X212300414Y52832000I-3766663J0D01*
G01*
X228930000Y54832000D02*
X244930000Y54832000D01*
X118610500Y13890000D02*
X104330500Y13890000D01*
X180486914Y24736414D02*
X180486914Y19656414D01*
X156774000Y52832000D02*
G75*
G03*
X156774000Y54832000I0J1000000D01*
G01*
X161774000Y54832000D02*
G75*
G03*
X161774000Y52832000I0J-1000000D01*
G01*
X101854000Y64262000D02*
G75*
G03*
X98044000Y68072000I-3809999J1D01*
G01*
X223930000Y54832000D02*
X199830000Y54832000D01*
X194766500Y13890000D02*
G75*
G03*
X194766500Y15890000I0J1000000D01*
G01*
X104330500Y24780019D02*
X104330500Y19700000D01*
X216110414Y43985586D02*
G75*
G03*
X218650414Y43985586I1270000J19D01*
G01*
X48490500Y-1492000D02*
X32047473Y-1490376D01*
X228930000Y54832000D02*
G75*
G03*
X228930000Y52832000I0J-1000000D01*
G01*
X177946914Y19656414D02*
X177946914Y24736414D01*
X69990500Y-1492000D02*
G75*
G03*
X69990500Y508000I0J1000000D01*
G01*
X254190500Y13890000D02*
X254190500Y-6492000D01*
X91490500Y-1492000D02*
X75047473Y-1490376D01*
X75110973Y70070376D02*
X91554000Y70072000D01*
X212236914Y15890000D02*
G75*
G03*
X216046914Y19656414I43337J3766414D01*
G01*
X223930000Y52832000D02*
G75*
G03*
X223930000Y54832000I0J1000000D01*
G01*
X104394000Y54832000D02*
X118674000Y54832000D01*
X254254000Y75072000D02*
X254254000Y54832000D01*
X91490500Y-1492000D02*
G75*
G03*
X91490500Y508000I0J1000000D01*
G01*
X146240500Y15890000D02*
X156710500Y15890000D01*
X194830000Y52832000D02*
X184360414Y52832000D01*
X218586914Y24736414D02*
X218586914Y19656414D01*
X178010414Y43985586D02*
G75*
G03*
X180550414Y43985586I1270000J19D01*
G01*
X48554000Y68072000D02*
G75*
G03*
X48554000Y70072000I0J1000000D01*
G01*
X146304000Y52832000D02*
G75*
G03*
X142494000Y49022000I-1J-3809999D01*
G01*
X4064000Y68072000D02*
X5554000Y68072000D01*
X96490500Y508000D02*
G75*
G03*
X96547473Y-1490376I0J-1000000D01*
G01*
X108204000Y52832000D02*
G75*
G03*
X104394000Y49022000I-1J-3809999D01*
G01*
X123674000Y54832000D02*
G75*
G03*
X123674000Y52832000I0J-1000000D01*
G01*
X32110973Y70070376D02*
G75*
G03*
X32054000Y68072000I-56973J-998376D01*
G01*
X5490500Y508000D02*
X4000500Y508000D01*
X161774000Y54832000D02*
X194830000Y54832000D01*
X244930000Y52832000D02*
X228930000Y52832000D01*
X178010414Y49065586D02*
G75*
G03*
X174200414Y52832000I-3766663J0D01*
G01*
X10554000Y68072000D02*
X27054000Y68072000D01*
X254000Y70072000D02*
X5554000Y70072000D01*
X69990500Y508000D02*
X53490500Y508000D01*
X161774000Y52832000D02*
X174200414Y52832000D01*
X180486914Y24736414D02*
G75*
G03*
X177946914Y24736414I-1270000J-19D01*
G01*
X254190500Y19700000D02*
X254254000Y49022000D01*
X199830000Y52832000D02*
X212300414Y52832000D01*
X97980500Y508000D02*
X96490500Y508000D01*
X218586913Y19656414D02*
G75*
G03*
X222632500Y15890000I3776044J-3D01*
G01*
X75054000Y68072000D02*
X91554000Y68072000D01*
X53610973Y70070376D02*
X70054000Y70072000D01*
X5490500Y-1492000D02*
G75*
G03*
X5490500Y508000I0J1000000D01*
G01*
X254000Y75072000D02*
X254254000Y75072000D01*
X254190500Y13890000D02*
X249866500Y13890000D01*
X228866500Y15890000D02*
G75*
G03*
X228866500Y13890000I0J-1000000D01*
G01*
X91490500Y508000D02*
X74990500Y508000D01*
X161710500Y15890000D02*
G75*
G03*
X161710500Y13890000I0J-1000000D01*
G01*
X156710500Y13890000D02*
G75*
G03*
X156710500Y15890000I0J1000000D01*
G01*
X123610500Y15890000D02*
G75*
G03*
X123610500Y13890000I0J-1000000D01*
G01*
X27054000Y68072000D02*
G75*
G03*
X27054000Y70072000I0J1000000D01*
G01*
X254254000Y49022000D02*
G75*
G03*
X250444000Y52832000I-3809999J1D01*
G01*
X96610973Y70070376D02*
G75*
G03*
X96554000Y68072000I-56973J-998376D01*
G01*
X199766500Y15890000D02*
G75*
G03*
X199766500Y13890000I0J-1000000D01*
G01*
X5554000Y68072000D02*
G75*
G03*
X5554000Y70072000I0J1000000D01*
G01*
X48490500Y508000D02*
X31990500Y508000D01*
X118674000Y52832000D02*
G75*
G03*
X118674000Y54832000I0J1000000D01*
G01*
X184296914Y15890000D02*
X194766500Y15890000D01*
X184360414Y52832000D02*
G75*
G03*
X180550414Y49065586I-43339J-3766412D01*
G01*
X53554000Y68072000D02*
X70054000Y68072000D01*
X103330500Y-1492000D02*
G75*
G03*
X104330500Y-492000I1J999999D01*
G01*
X222504000Y52832000D02*
G75*
G03*
X218650414Y49065586I-86192J-3766408D01*
G01*
X223866500Y13890000D02*
G75*
G03*
X223866500Y15890000I0J1000000D01*
G01*
X104330500Y19700000D02*
G75*
G03*
X108140500Y15890000I3809999J-1D01*
G01*
X199766500Y13890000D02*
X223866500Y13890000D01*
X190500Y4318000D02*
G75*
G03*
X4000500Y508000I3809999J-1D01*
G01*
X101790500Y4318000D02*
X101790500Y24780019D01*
X199830000Y54832000D02*
G75*
G03*
X199830000Y52832000I0J-1000000D01*
G01*
X10610973Y70070376D02*
X27054000Y70072000D01*
X69990500Y-1492000D02*
X53547473Y-1490376D01*
X249866500Y15890000D02*
G75*
G03*
X249866500Y13890000I0J-1000000D01*
G01*
X178010414Y43985586D02*
X178010414Y49065586D01*
X32054000Y68072000D02*
X48554000Y68072000D01*
X104394000Y69072000D02*
X104394000Y54832000D01*
X180550414Y49065586D02*
X180550414Y43985586D01*
X53610973Y70070376D02*
G75*
G03*
X53554000Y68072000I-56973J-998376D01*
G01*
X156774000Y52832000D02*
X146304000Y52832000D01*
X74990500Y508000D02*
G75*
G03*
X75047473Y-1490376I0J-1000000D01*
G01*
X174136914Y15890000D02*
G75*
G03*
X177946914Y19656414I43337J3766414D01*
G01*
X249930000Y52832000D02*
X250444000Y52832000D01*
X228866500Y15890000D02*
X244866500Y15890000D01*
X136080500Y15890000D02*
G75*
G03*
X139890500Y19700000I1J3809999D01*
G01*
X190500Y-6492000D02*
X190500Y-1492000D01*
X108140500Y15890000D02*
X118610500Y15890000D01*
X139954000Y43942000D02*
X139954000Y49022000D01*
X5490500Y-1492000D02*
X190500Y-1492000D01*
X216046914Y19656414D02*
X216046914Y24736414D01*
X194766500Y13890000D02*
X161710500Y13890000D01*
X26990500Y-1492000D02*
X10547473Y-1490376D01*
X10610973Y70070376D02*
G75*
G03*
X10554000Y68072000I-56973J-998376D01*
G01*
X254190500Y-6492000D02*
X190500Y-6492000D01*
X218586914Y24736414D02*
G75*
G03*
X216046914Y24736414I-1270000J-19D01*
G01*
X101854000Y43941981D02*
X101854000Y64262000D01*
X48490500Y-1492000D02*
G75*
G03*
X48490500Y508000I0J1000000D01*
G01*
X96554000Y68072000D02*
X98044000Y68072000D01*
X26990500Y-1492000D02*
G75*
G03*
X26990500Y508000I0J1000000D01*
G01*
X70054000Y68072000D02*
G75*
G03*
X70054000Y70072000I0J1000000D01*
G01*
X104394000Y69072000D02*
G75*
G03*
X103394000Y70072000I-999999J1D01*
G01*
X156710500Y13890000D02*
X123610500Y13890000D01*
X104394000Y49022000D02*
X104394000Y43941981D01*
X10490500Y508000D02*
G75*
G03*
X10547473Y-1490376I0J-1000000D01*
G01*
X190500Y4318000D02*
X254000Y64262000D01*
X96610973Y70070376D02*
X103394000Y70072000D01*
X31990500Y508000D02*
G75*
G03*
X32047473Y-1490376I0J-1000000D01*
G01*
X212236914Y15890000D02*
X199766500Y15890000D01*
X223930000Y52832000D02*
X222504000Y52832000D01*
X123610500Y15890000D02*
X136080500Y15890000D01*
X216110414Y43985586D02*
X216110414Y49065586D01*
X101854000Y43941981D02*
G75*
G03*
X104394000Y43941981I1270000J19D01*
G01*
D12*
X20788142Y33599429D02*
X20645285Y33551810D01*
X20597666Y33504191D01*
X20550047Y33408953D01*
X20550047Y33266096D01*
X20597666Y33170858D01*
X20645285Y33123239D01*
X20740523Y33075620D01*
X21121476Y33075620D01*
X21121476Y34075620D01*
X20788142Y34075620D01*
X20692904Y34028000D01*
X20645285Y33980381D01*
X20597666Y33885143D01*
X20597666Y33789905D01*
X20645285Y33694667D01*
X20692904Y33647048D01*
X20788142Y33599429D01*
X21121476Y33599429D01*
X19931000Y34075620D02*
X19740523Y34075620D01*
X19645285Y34028000D01*
X19550047Y33932762D01*
X19502428Y33742286D01*
X19502428Y33408953D01*
X19550047Y33218477D01*
X19645285Y33123239D01*
X19740523Y33075620D01*
X19931000Y33075620D01*
X20026238Y33123239D01*
X20121476Y33218477D01*
X20169095Y33408953D01*
X20169095Y33742286D01*
X20121476Y33932762D01*
X20026238Y34028000D01*
X19931000Y34075620D01*
X18883380Y34075620D02*
X18692904Y34075620D01*
X18597666Y34028000D01*
X18502428Y33932762D01*
X18454809Y33742286D01*
X18454809Y33408953D01*
X18502428Y33218477D01*
X18597666Y33123239D01*
X18692904Y33075620D01*
X18883380Y33075620D01*
X18978619Y33123239D01*
X19073857Y33218477D01*
X19121476Y33408953D01*
X19121476Y33742286D01*
X19073857Y33932762D01*
X18978619Y34028000D01*
X18883380Y34075620D01*
X18169095Y34075620D02*
X17597666Y34075620D01*
X17883380Y33075620D02*
X17883380Y34075620D01*
X39650380Y52717905D02*
X38650380Y52717905D01*
X38650380Y52336953D01*
X38698000Y52241715D01*
X38745619Y52194096D01*
X38840857Y52146477D01*
X38983714Y52146477D01*
X39078952Y52194096D01*
X39126571Y52241715D01*
X39174190Y52336953D01*
X39174190Y52717905D01*
X39364666Y51765524D02*
X39364666Y51289334D01*
X39650380Y51860762D02*
X38650380Y51527429D01*
X39650380Y51194096D01*
X39650380Y50336953D02*
X39650380Y50908381D01*
X39650380Y50622667D02*
X38650380Y50622667D01*
X38793238Y50717905D01*
X38888476Y50813143D01*
X38936095Y50908381D01*
X38650380Y49717905D02*
X38650380Y49622667D01*
X38698000Y49527429D01*
X38745619Y49479810D01*
X38840857Y49432191D01*
X39031333Y49384572D01*
X39269428Y49384572D01*
X39459904Y49432191D01*
X39555142Y49479810D01*
X39602761Y49527429D01*
X39650380Y49622667D01*
X39650380Y49717905D01*
X39602761Y49813143D01*
X39555142Y49860762D01*
X39459904Y49908381D01*
X39269428Y49956000D01*
X39031333Y49956000D01*
X38840857Y49908381D01*
X38745619Y49860762D01*
X38698000Y49813143D01*
X38650380Y49717905D01*
X41260380Y52717905D02*
X40260380Y52717905D01*
X40260380Y52336953D01*
X40308000Y52241715D01*
X40355619Y52194096D01*
X40450857Y52146477D01*
X40593714Y52146477D01*
X40688952Y52194096D01*
X40736571Y52241715D01*
X40784190Y52336953D01*
X40784190Y52717905D01*
X40974666Y51765524D02*
X40974666Y51289334D01*
X41260380Y51860762D02*
X40260380Y51527429D01*
X41260380Y51194096D01*
X41260380Y50813143D02*
X41260380Y50622667D01*
X41212761Y50527429D01*
X41165142Y50479810D01*
X41022285Y50384572D01*
X40831809Y50336953D01*
X40450857Y50336953D01*
X40355619Y50384572D01*
X40308000Y50432191D01*
X40260380Y50527429D01*
X40260380Y50717905D01*
X40308000Y50813143D01*
X40355619Y50860762D01*
X40450857Y50908381D01*
X40688952Y50908381D01*
X40784190Y50860762D01*
X40831809Y50813143D01*
X40879428Y50717905D01*
X40879428Y50527429D01*
X40831809Y50432191D01*
X40784190Y50384572D01*
X40688952Y50336953D01*
X42822761Y52765524D02*
X42870380Y52622667D01*
X42870380Y52384572D01*
X42822761Y52289334D01*
X42775142Y52241715D01*
X42679904Y52194096D01*
X42584666Y52194096D01*
X42489428Y52241715D01*
X42441809Y52289334D01*
X42394190Y52384572D01*
X42346571Y52575048D01*
X42298952Y52670286D01*
X42251333Y52717905D01*
X42156095Y52765524D01*
X42060857Y52765524D01*
X41965619Y52717905D01*
X41918000Y52670286D01*
X41870380Y52575048D01*
X41870380Y52336953D01*
X41918000Y52194096D01*
X42775142Y51194096D02*
X42822761Y51241715D01*
X42870380Y51384572D01*
X42870380Y51479810D01*
X42822761Y51622667D01*
X42727523Y51717905D01*
X42632285Y51765524D01*
X42441809Y51813143D01*
X42298952Y51813143D01*
X42108476Y51765524D01*
X42013238Y51717905D01*
X41918000Y51622667D01*
X41870380Y51479810D01*
X41870380Y51384572D01*
X41918000Y51241715D01*
X41965619Y51194096D01*
X42870380Y50289334D02*
X42870380Y50765524D01*
X41870380Y50765524D01*
X41965619Y50003620D02*
X41918000Y49956000D01*
X41870380Y49860762D01*
X41870380Y49622667D01*
X41918000Y49527429D01*
X41965619Y49479810D01*
X42060857Y49432191D01*
X42156095Y49432191D01*
X42298952Y49479810D01*
X42870380Y50051239D01*
X42870380Y49432191D01*
X44432761Y52765524D02*
X44480380Y52622667D01*
X44480380Y52384572D01*
X44432761Y52289334D01*
X44385142Y52241715D01*
X44289904Y52194096D01*
X44194666Y52194096D01*
X44099428Y52241715D01*
X44051809Y52289334D01*
X44004190Y52384572D01*
X43956571Y52575048D01*
X43908952Y52670286D01*
X43861333Y52717905D01*
X43766095Y52765524D01*
X43670857Y52765524D01*
X43575619Y52717905D01*
X43528000Y52670286D01*
X43480380Y52575048D01*
X43480380Y52336953D01*
X43528000Y52194096D01*
X44480380Y51765524D02*
X43480380Y51765524D01*
X43480380Y51527429D01*
X43528000Y51384572D01*
X43623238Y51289334D01*
X43718476Y51241715D01*
X43908952Y51194096D01*
X44051809Y51194096D01*
X44242285Y51241715D01*
X44337523Y51289334D01*
X44432761Y51384572D01*
X44480380Y51527429D01*
X44480380Y51765524D01*
X44194666Y50813143D02*
X44194666Y50336953D01*
X44480380Y50908381D02*
X43480380Y50575048D01*
X44480380Y50241715D01*
X43575619Y49956000D02*
X43528000Y49908381D01*
X43480380Y49813143D01*
X43480380Y49575048D01*
X43528000Y49479810D01*
X43575619Y49432191D01*
X43670857Y49384572D01*
X43766095Y49384572D01*
X43908952Y49432191D01*
X44480380Y50003620D01*
X44480380Y49384572D01*
X46090380Y52717905D02*
X45090380Y52717905D01*
X45090380Y52336953D01*
X45138000Y52241715D01*
X45185619Y52194096D01*
X45280857Y52146477D01*
X45423714Y52146477D01*
X45518952Y52194096D01*
X45566571Y52241715D01*
X45614190Y52336953D01*
X45614190Y52717905D01*
X45995142Y51146477D02*
X46042761Y51194096D01*
X46090380Y51336953D01*
X46090380Y51432191D01*
X46042761Y51575048D01*
X45947523Y51670286D01*
X45852285Y51717905D01*
X45661809Y51765524D01*
X45518952Y51765524D01*
X45328476Y51717905D01*
X45233238Y51670286D01*
X45138000Y51575048D01*
X45090380Y51432191D01*
X45090380Y51336953D01*
X45138000Y51194096D01*
X45185619Y51146477D01*
X45518952Y50575048D02*
X45471333Y50670286D01*
X45423714Y50717905D01*
X45328476Y50765524D01*
X45280857Y50765524D01*
X45185619Y50717905D01*
X45138000Y50670286D01*
X45090380Y50575048D01*
X45090380Y50384572D01*
X45138000Y50289334D01*
X45185619Y50241715D01*
X45280857Y50194096D01*
X45328476Y50194096D01*
X45423714Y50241715D01*
X45471333Y50289334D01*
X45518952Y50384572D01*
X45518952Y50575048D01*
X45566571Y50670286D01*
X45614190Y50717905D01*
X45709428Y50765524D01*
X45899904Y50765524D01*
X45995142Y50717905D01*
X46042761Y50670286D01*
X46090380Y50575048D01*
X46090380Y50384572D01*
X46042761Y50289334D01*
X45995142Y50241715D01*
X45899904Y50194096D01*
X45709428Y50194096D01*
X45614190Y50241715D01*
X45566571Y50289334D01*
X45518952Y50384572D01*
D13*
X39378000Y27080596D02*
X39330380Y27175834D01*
X39330380Y27318691D01*
X39378000Y27461548D01*
X39473238Y27556786D01*
X39568476Y27604405D01*
X39758952Y27652024D01*
X39901809Y27652024D01*
X40092285Y27604405D01*
X40187523Y27556786D01*
X40282761Y27461548D01*
X40330380Y27318691D01*
X40330380Y27223453D01*
X40282761Y27080596D01*
X40235142Y27032977D01*
X39901809Y27032977D01*
X39901809Y27223453D01*
X40330380Y26604405D02*
X39330380Y26604405D01*
X40330380Y26032977D01*
X39330380Y26032977D01*
X40330380Y25556786D02*
X39330380Y25556786D01*
X39330380Y25318691D01*
X39378000Y25175834D01*
X39473238Y25080596D01*
X39568476Y25032977D01*
X39758952Y24985358D01*
X39901809Y24985358D01*
X40092285Y25032977D01*
X40187523Y25080596D01*
X40282761Y25175834D01*
X40330380Y25318691D01*
X40330380Y25556786D01*
X26947666Y35234620D02*
X26947666Y36234620D01*
X26709571Y36234620D01*
X26566714Y36187000D01*
X26471476Y36091762D01*
X26423857Y35996524D01*
X26376238Y35806048D01*
X26376238Y35663191D01*
X26423857Y35472715D01*
X26471476Y35377477D01*
X26566714Y35282239D01*
X26709571Y35234620D01*
X26947666Y35234620D01*
X25995285Y35520334D02*
X25519095Y35520334D01*
X26090523Y35234620D02*
X25757190Y36234620D01*
X25423857Y35234620D01*
X24566714Y35234620D02*
X25138142Y35234620D01*
X24852428Y35234620D02*
X24852428Y36234620D01*
X24947666Y36091762D01*
X25042904Y35996524D01*
X25138142Y35948905D01*
X39949428Y24302405D02*
X39949428Y23540500D01*
X40330380Y23921453D02*
X39568476Y23921453D01*
X39330380Y23159548D02*
X39330380Y22540500D01*
X39711333Y22873834D01*
X39711333Y22730977D01*
X39758952Y22635739D01*
X39806571Y22588120D01*
X39901809Y22540500D01*
X40139904Y22540500D01*
X40235142Y22588120D01*
X40282761Y22635739D01*
X40330380Y22730977D01*
X40330380Y23016691D01*
X40282761Y23111929D01*
X40235142Y23159548D01*
X158123000Y18698596D02*
X158075380Y18793834D01*
X158075380Y18936691D01*
X158123000Y19079548D01*
X158218238Y19174786D01*
X158313476Y19222405D01*
X158503952Y19270024D01*
X158646809Y19270024D01*
X158837285Y19222405D01*
X158932523Y19174786D01*
X159027761Y19079548D01*
X159075380Y18936691D01*
X159075380Y18841453D01*
X159027761Y18698596D01*
X158980142Y18650977D01*
X158646809Y18650977D01*
X158646809Y18841453D01*
X159075380Y17698596D02*
X159075380Y18270024D01*
X159075380Y17984310D02*
X158075380Y17984310D01*
X158218238Y18079548D01*
X158313476Y18174786D01*
X158361095Y18270024D01*
X241530142Y18650977D02*
X241577761Y18698596D01*
X241625380Y18841453D01*
X241625380Y18936691D01*
X241577761Y19079548D01*
X241482523Y19174786D01*
X241387285Y19222405D01*
X241196809Y19270024D01*
X241053952Y19270024D01*
X240863476Y19222405D01*
X240768238Y19174786D01*
X240673000Y19079548D01*
X240625380Y18936691D01*
X240625380Y18841453D01*
X240673000Y18698596D01*
X240720619Y18650977D01*
X241625380Y17746215D02*
X241625380Y18222405D01*
X240625380Y18222405D01*
X241625380Y16889072D02*
X241625380Y17460500D01*
X241625380Y17174786D02*
X240625380Y17174786D01*
X240768238Y17270024D01*
X240863476Y17365262D01*
X240911095Y17460500D01*
X38965142Y23730977D02*
X39012761Y23778596D01*
X39060380Y23921453D01*
X39060380Y24016691D01*
X39012761Y24159548D01*
X38917523Y24254786D01*
X38822285Y24302405D01*
X38631809Y24350024D01*
X38488952Y24350024D01*
X38298476Y24302405D01*
X38203238Y24254786D01*
X38108000Y24159548D01*
X38060380Y24016691D01*
X38060380Y23921453D01*
X38108000Y23778596D01*
X38155619Y23730977D01*
X39060380Y22826215D02*
X39060380Y23302405D01*
X38060380Y23302405D01*
X39060380Y22492881D02*
X38060380Y22492881D01*
X39060380Y21921453D02*
X38488952Y22350024D01*
X38060380Y21921453D02*
X38631809Y22492881D01*
X190444428Y19095405D02*
X190444428Y18333500D01*
X123277380Y19444643D02*
X124277380Y18777977D01*
X123277380Y18777977D02*
X124277380Y19444643D01*
X124229761Y18444643D02*
X124277380Y18301786D01*
X124277380Y18063691D01*
X124229761Y17968453D01*
X124182142Y17920834D01*
X124086904Y17873215D01*
X123991666Y17873215D01*
X123896428Y17920834D01*
X123848809Y17968453D01*
X123801190Y18063691D01*
X123753571Y18254167D01*
X123705952Y18349405D01*
X123658333Y18397024D01*
X123563095Y18444643D01*
X123467857Y18444643D01*
X123372619Y18397024D01*
X123325000Y18349405D01*
X123277380Y18254167D01*
X123277380Y18016072D01*
X123325000Y17873215D01*
X124277380Y16920834D02*
X124277380Y17492262D01*
X124277380Y17206548D02*
X123277380Y17206548D01*
X123420238Y17301786D01*
X123515476Y17397024D01*
X123563095Y17492262D01*
D12*
X67295380Y42589715D02*
X67295380Y43065905D01*
X66295380Y43065905D01*
X67295380Y41732572D02*
X67295380Y42304000D01*
X67295380Y42018286D02*
X66295380Y42018286D01*
X66438238Y42113524D01*
X66533476Y42208762D01*
X66581095Y42304000D01*
X66295380Y40827810D02*
X66295380Y41304000D01*
X66771571Y41351620D01*
X66723952Y41304000D01*
X66676333Y41208762D01*
X66676333Y40970667D01*
X66723952Y40875429D01*
X66771571Y40827810D01*
X66866809Y40780191D01*
X67104904Y40780191D01*
X67200142Y40827810D01*
X67247761Y40875429D01*
X67295380Y40970667D01*
X67295380Y41208762D01*
X67247761Y41304000D01*
X67200142Y41351620D01*
X67295380Y39827810D02*
X67295380Y40399239D01*
X67295380Y40113524D02*
X66295380Y40113524D01*
X66438238Y40208762D01*
X66533476Y40304000D01*
X66581095Y40399239D01*
X67295380Y38827810D02*
X66819190Y39161143D01*
X67295380Y39399239D02*
X66295380Y39399239D01*
X66295380Y39018286D01*
X66343000Y38923048D01*
X66390619Y38875429D01*
X66485857Y38827810D01*
X66628714Y38827810D01*
X66723952Y38875429D01*
X66771571Y38923048D01*
X66819190Y39018286D01*
X66819190Y39399239D01*
X66771571Y38399239D02*
X66771571Y38065905D01*
X67295380Y37923048D02*
X67295380Y38399239D01*
X66295380Y38399239D01*
X66295380Y37923048D01*
X66295380Y37637334D02*
X66295380Y37065905D01*
X67295380Y37351620D02*
X66295380Y37351620D01*
X67295380Y36827810D02*
X66628714Y36304000D01*
X66628714Y36827810D02*
X67295380Y36304000D01*
X67676333Y34875429D02*
X67628714Y34923048D01*
X67485857Y35018286D01*
X67390619Y35065905D01*
X67247761Y35113524D01*
X67009666Y35161143D01*
X66819190Y35161143D01*
X66581095Y35113524D01*
X66438238Y35065905D01*
X66343000Y35018286D01*
X66200142Y34923048D01*
X66152523Y34875429D01*
X66295380Y34494477D02*
X67104904Y34494477D01*
X67200142Y34446858D01*
X67247761Y34399239D01*
X67295380Y34304000D01*
X67295380Y34113524D01*
X67247761Y34018286D01*
X67200142Y33970667D01*
X67104904Y33923048D01*
X66295380Y33923048D01*
X66295380Y33018286D02*
X66295380Y33208762D01*
X66343000Y33304000D01*
X66390619Y33351620D01*
X66533476Y33446858D01*
X66723952Y33494477D01*
X67104904Y33494477D01*
X67200142Y33446858D01*
X67247761Y33399239D01*
X67295380Y33304000D01*
X67295380Y33113524D01*
X67247761Y33018286D01*
X67200142Y32970667D01*
X67104904Y32923048D01*
X66866809Y32923048D01*
X66771571Y32970667D01*
X66723952Y33018286D01*
X66676333Y33113524D01*
X66676333Y33304000D01*
X66723952Y33399239D01*
X66771571Y33446858D01*
X66866809Y33494477D01*
X67676333Y32589715D02*
X67628714Y32542096D01*
X67485857Y32446858D01*
X67390619Y32399239D01*
X67247761Y32351620D01*
X67009666Y32304000D01*
X66819190Y32304000D01*
X66581095Y32351620D01*
X66438238Y32399239D01*
X66343000Y32446858D01*
X66200142Y32542096D01*
X66152523Y32589715D01*
X67200142Y31827810D02*
X67247761Y31780191D01*
X67295380Y31827810D01*
X67247761Y31875429D01*
X67200142Y31827810D01*
X67295380Y31827810D01*
X66676333Y31827810D02*
X66723952Y31780191D01*
X66771571Y31827810D01*
X66723952Y31875429D01*
X66676333Y31827810D01*
X66771571Y31827810D01*
X67905380Y42780191D02*
X68619666Y42780191D01*
X68762523Y42827810D01*
X68857761Y42923048D01*
X68905380Y43065905D01*
X68905380Y43161143D01*
X68905380Y42304000D02*
X67905380Y42304000D01*
X67905380Y41923048D01*
X67953000Y41827810D01*
X68000619Y41780191D01*
X68095857Y41732572D01*
X68238714Y41732572D01*
X68333952Y41780191D01*
X68381571Y41827810D01*
X68429190Y41923048D01*
X68429190Y42304000D01*
X67905380Y41399239D02*
X67905380Y40780191D01*
X68286333Y41113524D01*
X68286333Y40970667D01*
X68333952Y40875429D01*
X68381571Y40827810D01*
X68476809Y40780191D01*
X68714904Y40780191D01*
X68810142Y40827810D01*
X68857761Y40875429D01*
X68905380Y40970667D01*
X68905380Y41256381D01*
X68857761Y41351620D01*
X68810142Y41399239D01*
X68524428Y39589715D02*
X68524428Y38827810D01*
X68238714Y38351620D02*
X68524428Y37589715D01*
X68810142Y38351620D01*
X68000619Y36399239D02*
X67953000Y36351620D01*
X67905380Y36256381D01*
X67905380Y36018286D01*
X67953000Y35923048D01*
X68000619Y35875429D01*
X68095857Y35827810D01*
X68191095Y35827810D01*
X68333952Y35875429D01*
X68905380Y36446858D01*
X68905380Y35827810D01*
X68524428Y35399239D02*
X68524428Y34637334D01*
X67905380Y34256381D02*
X67905380Y33637334D01*
X68286333Y33970667D01*
X68286333Y33827810D01*
X68333952Y33732572D01*
X68381571Y33684953D01*
X68476809Y33637334D01*
X68714904Y33637334D01*
X68810142Y33684953D01*
X68857761Y33732572D01*
X68905380Y33827810D01*
X68905380Y34113524D01*
X68857761Y34208762D01*
X68810142Y34256381D01*
X68857761Y33161143D02*
X68905380Y33161143D01*
X69000619Y33208762D01*
X69048238Y33256381D01*
X69515380Y42780191D02*
X70229666Y42780191D01*
X70372523Y42827810D01*
X70467761Y42923048D01*
X70515380Y43065905D01*
X70515380Y43161143D01*
X70515380Y42304000D02*
X69515380Y42304000D01*
X69515380Y41923048D01*
X69563000Y41827810D01*
X69610619Y41780191D01*
X69705857Y41732572D01*
X69848714Y41732572D01*
X69943952Y41780191D01*
X69991571Y41827810D01*
X70039190Y41923048D01*
X70039190Y42304000D01*
X69610619Y41351620D02*
X69563000Y41304000D01*
X69515380Y41208762D01*
X69515380Y40970667D01*
X69563000Y40875429D01*
X69610619Y40827810D01*
X69705857Y40780191D01*
X69801095Y40780191D01*
X69943952Y40827810D01*
X70515380Y41399239D01*
X70515380Y40780191D01*
X70134428Y39589715D02*
X70134428Y38827810D01*
X69848714Y38351620D02*
X70134428Y37589715D01*
X70420142Y38351620D01*
X70515380Y35827810D02*
X70515380Y36399239D01*
X70515380Y36113524D02*
X69515380Y36113524D01*
X69658238Y36208762D01*
X69753476Y36304000D01*
X69801095Y36399239D01*
X70134428Y35399239D02*
X70134428Y34637334D01*
X69610619Y34208762D02*
X69563000Y34161143D01*
X69515380Y34065905D01*
X69515380Y33827810D01*
X69563000Y33732572D01*
X69610619Y33684953D01*
X69705857Y33637334D01*
X69801095Y33637334D01*
X69943952Y33684953D01*
X70515380Y34256381D01*
X70515380Y33637334D01*
D13*
X244800380Y19222405D02*
X243800380Y19222405D01*
X243800380Y18984310D01*
X243848000Y18841453D01*
X243943238Y18746215D01*
X244038476Y18698596D01*
X244228952Y18650977D01*
X244371809Y18650977D01*
X244562285Y18698596D01*
X244657523Y18746215D01*
X244752761Y18841453D01*
X244800380Y18984310D01*
X244800380Y19222405D01*
X244514666Y18270024D02*
X244514666Y17793834D01*
X244800380Y18365262D02*
X243800380Y18031929D01*
X244800380Y17698596D01*
X244800380Y16841453D02*
X244800380Y17412881D01*
X244800380Y17127167D02*
X243800380Y17127167D01*
X243943238Y17222405D01*
X244038476Y17317643D01*
X244086095Y17412881D01*
X33932761Y24350024D02*
X33980380Y24207167D01*
X33980380Y23969072D01*
X33932761Y23873834D01*
X33885142Y23826215D01*
X33789904Y23778596D01*
X33694666Y23778596D01*
X33599428Y23826215D01*
X33551809Y23873834D01*
X33504190Y23969072D01*
X33456571Y24159548D01*
X33408952Y24254786D01*
X33361333Y24302405D01*
X33266095Y24350024D01*
X33170857Y24350024D01*
X33075619Y24302405D01*
X33028000Y24254786D01*
X32980380Y24159548D01*
X32980380Y23921453D01*
X33028000Y23778596D01*
X32980380Y23445262D02*
X33980380Y23207167D01*
X33266095Y23016691D01*
X33980380Y22826215D01*
X32980380Y22588120D01*
X32980380Y22016691D02*
X32980380Y21921453D01*
X33028000Y21826215D01*
X33075619Y21778596D01*
X33170857Y21730977D01*
X33361333Y21683358D01*
X33599428Y21683358D01*
X33789904Y21730977D01*
X33885142Y21778596D01*
X33932761Y21826215D01*
X33980380Y21921453D01*
X33980380Y22016691D01*
X33932761Y22111929D01*
X33885142Y22159548D01*
X33789904Y22207167D01*
X33599428Y22254786D01*
X33361333Y22254786D01*
X33170857Y22207167D01*
X33075619Y22159548D01*
X33028000Y22111929D01*
X32980380Y22016691D01*
X36520380Y24302405D02*
X35520380Y24302405D01*
X35520380Y24064310D01*
X35568000Y23921453D01*
X35663238Y23826215D01*
X35758476Y23778596D01*
X35948952Y23730977D01*
X36091809Y23730977D01*
X36282285Y23778596D01*
X36377523Y23826215D01*
X36472761Y23921453D01*
X36520380Y24064310D01*
X36520380Y24302405D01*
X36234666Y23350024D02*
X36234666Y22873834D01*
X36520380Y23445262D02*
X35520380Y23111929D01*
X36520380Y22778596D01*
X35520380Y22588120D02*
X35520380Y22016691D01*
X36520380Y22302405D02*
X35520380Y22302405D01*
X206700380Y19222405D02*
X205700380Y19222405D01*
X205700380Y18984310D01*
X205748000Y18841453D01*
X205843238Y18746215D01*
X205938476Y18698596D01*
X206128952Y18650977D01*
X206271809Y18650977D01*
X206462285Y18698596D01*
X206557523Y18746215D01*
X206652761Y18841453D01*
X206700380Y18984310D01*
X206700380Y19222405D01*
X206414666Y18270024D02*
X206414666Y17793834D01*
X206700380Y18365262D02*
X205700380Y18031929D01*
X206700380Y17698596D01*
X206700380Y16841453D02*
X206700380Y17412881D01*
X206700380Y17127167D02*
X205700380Y17127167D01*
X205843238Y17222405D01*
X205938476Y17317643D01*
X205986095Y17412881D01*
X35250380Y23730977D02*
X34774190Y24064310D01*
X35250380Y24302405D02*
X34250380Y24302405D01*
X34250380Y23921453D01*
X34298000Y23826215D01*
X34345619Y23778596D01*
X34440857Y23730977D01*
X34583714Y23730977D01*
X34678952Y23778596D01*
X34726571Y23826215D01*
X34774190Y23921453D01*
X34774190Y24302405D01*
X35202761Y23350024D02*
X35250380Y23207167D01*
X35250380Y22969072D01*
X35202761Y22873834D01*
X35155142Y22826215D01*
X35059904Y22778596D01*
X34964666Y22778596D01*
X34869428Y22826215D01*
X34821809Y22873834D01*
X34774190Y22969072D01*
X34726571Y23159548D01*
X34678952Y23254786D01*
X34631333Y23302405D01*
X34536095Y23350024D01*
X34440857Y23350024D01*
X34345619Y23302405D01*
X34298000Y23254786D01*
X34250380Y23159548D01*
X34250380Y22921453D01*
X34298000Y22778596D01*
X34250380Y22492881D02*
X34250380Y21921453D01*
X35250380Y22207167D02*
X34250380Y22207167D01*
X231100380Y19317643D02*
X231100380Y18698596D01*
X231481333Y19031929D01*
X231481333Y18889072D01*
X231528952Y18793834D01*
X231576571Y18746215D01*
X231671809Y18698596D01*
X231909904Y18698596D01*
X232005142Y18746215D01*
X232052761Y18793834D01*
X232100380Y18889072D01*
X232100380Y19174786D01*
X232052761Y19270024D01*
X232005142Y19317643D01*
X231100380Y18412881D02*
X232100380Y18079548D01*
X231100380Y17746215D01*
X231100380Y17508120D02*
X231100380Y16889072D01*
X231481333Y17222405D01*
X231481333Y17079548D01*
X231528952Y16984310D01*
X231576571Y16936691D01*
X231671809Y16889072D01*
X231909904Y16889072D01*
X232005142Y16936691D01*
X232052761Y16984310D01*
X232100380Y17079548D01*
X232100380Y17365262D01*
X232052761Y17460500D01*
X232005142Y17508120D01*
D12*
X60929571Y42732572D02*
X60929571Y43065905D01*
X61453380Y43065905D02*
X60453380Y43065905D01*
X60453380Y42589715D01*
X60786714Y41780191D02*
X61453380Y41780191D01*
X60405761Y42018286D02*
X61120047Y42256381D01*
X61120047Y41637334D01*
X60453380Y41065905D02*
X60453380Y40970667D01*
X60501000Y40875429D01*
X60548619Y40827810D01*
X60643857Y40780191D01*
X60834333Y40732572D01*
X61072428Y40732572D01*
X61262904Y40780191D01*
X61358142Y40827810D01*
X61405761Y40875429D01*
X61453380Y40970667D01*
X61453380Y41065905D01*
X61405761Y41161143D01*
X61358142Y41208762D01*
X61262904Y41256381D01*
X61072428Y41304000D01*
X60834333Y41304000D01*
X60643857Y41256381D01*
X60548619Y41208762D01*
X60501000Y41161143D01*
X60453380Y41065905D01*
X61453380Y39780191D02*
X61453380Y40351620D01*
X61453380Y40065905D02*
X60453380Y40065905D01*
X60596238Y40161143D01*
X60691476Y40256381D01*
X60739095Y40351620D01*
X61453380Y38780191D02*
X60977190Y39113524D01*
X61453380Y39351620D02*
X60453380Y39351620D01*
X60453380Y38970667D01*
X60501000Y38875429D01*
X60548619Y38827810D01*
X60643857Y38780191D01*
X60786714Y38780191D01*
X60881952Y38827810D01*
X60929571Y38875429D01*
X60977190Y38970667D01*
X60977190Y39351620D01*
X60929571Y38351620D02*
X60929571Y38018286D01*
X61453380Y37875429D02*
X61453380Y38351620D01*
X60453380Y38351620D01*
X60453380Y37875429D01*
X60453380Y37589715D02*
X60453380Y37018286D01*
X61453380Y37304000D02*
X60453380Y37304000D01*
X61453380Y36780191D02*
X60786714Y36256381D01*
X60786714Y36780191D02*
X61453380Y36256381D01*
X61834333Y34827810D02*
X61786714Y34875429D01*
X61643857Y34970667D01*
X61548619Y35018286D01*
X61405761Y35065905D01*
X61167666Y35113524D01*
X60977190Y35113524D01*
X60739095Y35065905D01*
X60596238Y35018286D01*
X60501000Y34970667D01*
X60358142Y34875429D01*
X60310523Y34827810D01*
X60453380Y34446858D02*
X61262904Y34446858D01*
X61358142Y34399239D01*
X61405761Y34351620D01*
X61453380Y34256381D01*
X61453380Y34065905D01*
X61405761Y33970667D01*
X61358142Y33923048D01*
X61262904Y33875429D01*
X60453380Y33875429D01*
X60453380Y33494477D02*
X60453380Y32827810D01*
X61453380Y33256381D01*
X61834333Y32542096D02*
X61786714Y32494477D01*
X61643857Y32399239D01*
X61548619Y32351620D01*
X61405761Y32304000D01*
X61167666Y32256381D01*
X60977190Y32256381D01*
X60739095Y32304000D01*
X60596238Y32351620D01*
X60501000Y32399239D01*
X60358142Y32494477D01*
X60310523Y32542096D01*
X61358142Y31780191D02*
X61405761Y31732572D01*
X61453380Y31780191D01*
X61405761Y31827810D01*
X61358142Y31780191D01*
X61453380Y31780191D01*
X60834333Y31780191D02*
X60881952Y31732572D01*
X60929571Y31780191D01*
X60881952Y31827810D01*
X60834333Y31780191D01*
X60929571Y31780191D01*
X62063380Y42780191D02*
X62777666Y42780191D01*
X62920523Y42827810D01*
X63015761Y42923048D01*
X63063380Y43065905D01*
X63063380Y43161143D01*
X63063380Y42304000D02*
X62063380Y42304000D01*
X62063380Y41923048D01*
X62111000Y41827810D01*
X62158619Y41780191D01*
X62253857Y41732572D01*
X62396714Y41732572D01*
X62491952Y41780191D01*
X62539571Y41827810D01*
X62587190Y41923048D01*
X62587190Y42304000D01*
X62063380Y41399239D02*
X62063380Y40780191D01*
X62444333Y41113524D01*
X62444333Y40970667D01*
X62491952Y40875429D01*
X62539571Y40827810D01*
X62634809Y40780191D01*
X62872904Y40780191D01*
X62968142Y40827810D01*
X63015761Y40875429D01*
X63063380Y40970667D01*
X63063380Y41256381D01*
X63015761Y41351620D01*
X62968142Y41399239D01*
X62682428Y39589715D02*
X62682428Y38827810D01*
X62396714Y38351620D02*
X62682428Y37589715D01*
X62968142Y38351620D01*
X63063380Y35827810D02*
X63063380Y36399239D01*
X63063380Y36113524D02*
X62063380Y36113524D01*
X62206238Y36208762D01*
X62301476Y36304000D01*
X62349095Y36399239D01*
X62682428Y35399239D02*
X62682428Y34637334D01*
X62158619Y34208762D02*
X62111000Y34161143D01*
X62063380Y34065905D01*
X62063380Y33827810D01*
X62111000Y33732572D01*
X62158619Y33684953D01*
X62253857Y33637334D01*
X62349095Y33637334D01*
X62491952Y33684953D01*
X63063380Y34256381D01*
X63063380Y33637334D01*
X63015761Y33161143D02*
X63063380Y33161143D01*
X63158619Y33208762D01*
X63206238Y33256381D01*
X63673380Y42780191D02*
X64387666Y42780191D01*
X64530523Y42827810D01*
X64625761Y42923048D01*
X64673380Y43065905D01*
X64673380Y43161143D01*
X64673380Y42304000D02*
X63673380Y42304000D01*
X63673380Y41923048D01*
X63721000Y41827810D01*
X63768619Y41780191D01*
X63863857Y41732572D01*
X64006714Y41732572D01*
X64101952Y41780191D01*
X64149571Y41827810D01*
X64197190Y41923048D01*
X64197190Y42304000D01*
X63768619Y41351620D02*
X63721000Y41304000D01*
X63673380Y41208762D01*
X63673380Y40970667D01*
X63721000Y40875429D01*
X63768619Y40827810D01*
X63863857Y40780191D01*
X63959095Y40780191D01*
X64101952Y40827810D01*
X64673380Y41399239D01*
X64673380Y40780191D01*
X64292428Y39589715D02*
X64292428Y38827810D01*
X64006714Y38351620D02*
X64292428Y37589715D01*
X64578142Y38351620D01*
X63768619Y36399239D02*
X63721000Y36351620D01*
X63673380Y36256381D01*
X63673380Y36018286D01*
X63721000Y35923048D01*
X63768619Y35875429D01*
X63863857Y35827810D01*
X63959095Y35827810D01*
X64101952Y35875429D01*
X64673380Y36446858D01*
X64673380Y35827810D01*
X64292428Y35399239D02*
X64292428Y34637334D01*
X63673380Y34256381D02*
X63673380Y33637334D01*
X64054333Y33970667D01*
X64054333Y33827810D01*
X64101952Y33732572D01*
X64149571Y33684953D01*
X64244809Y33637334D01*
X64482904Y33637334D01*
X64578142Y33684953D01*
X64625761Y33732572D01*
X64673380Y33827810D01*
X64673380Y34113524D01*
X64625761Y34208762D01*
X64578142Y34256381D01*
X21176904Y36758620D02*
X21176904Y37758620D01*
X20748333Y37663381D02*
X20700714Y37711000D01*
X20605476Y37758620D01*
X20367380Y37758620D01*
X20272142Y37711000D01*
X20224523Y37663381D01*
X20176904Y37568143D01*
X20176904Y37472905D01*
X20224523Y37330048D01*
X20795952Y36758620D01*
X20176904Y36758620D01*
X19176904Y36853858D02*
X19224523Y36806239D01*
X19367380Y36758620D01*
X19462619Y36758620D01*
X19605476Y36806239D01*
X19700714Y36901477D01*
X19748333Y36996715D01*
X19795952Y37187191D01*
X19795952Y37330048D01*
X19748333Y37520524D01*
X19700714Y37615762D01*
X19605476Y37711000D01*
X19462619Y37758620D01*
X19367380Y37758620D01*
X19224523Y37711000D01*
X19176904Y37663381D01*
X17510238Y36758620D02*
X17986428Y36758620D01*
X17986428Y37758620D01*
X16605476Y36853858D02*
X16653095Y36806239D01*
X16795952Y36758620D01*
X16891190Y36758620D01*
X17034047Y36806239D01*
X17129285Y36901477D01*
X17176904Y36996715D01*
X17224523Y37187191D01*
X17224523Y37330048D01*
X17176904Y37520524D01*
X17129285Y37615762D01*
X17034047Y37711000D01*
X16891190Y37758620D01*
X16795952Y37758620D01*
X16653095Y37711000D01*
X16605476Y37663381D01*
X16176904Y36758620D02*
X16176904Y37758620D01*
X15938809Y37758620D01*
X15795952Y37711000D01*
X15700714Y37615762D01*
X15653095Y37520524D01*
X15605476Y37330048D01*
X15605476Y37187191D01*
X15653095Y36996715D01*
X15700714Y36901477D01*
X15795952Y36806239D01*
X15938809Y36758620D01*
X16176904Y36758620D01*
D13*
X165330142Y18650977D02*
X165377761Y18698596D01*
X165425380Y18841453D01*
X165425380Y18936691D01*
X165377761Y19079548D01*
X165282523Y19174786D01*
X165187285Y19222405D01*
X164996809Y19270024D01*
X164853952Y19270024D01*
X164663476Y19222405D01*
X164568238Y19174786D01*
X164473000Y19079548D01*
X164425380Y18936691D01*
X164425380Y18841453D01*
X164473000Y18698596D01*
X164520619Y18650977D01*
X165425380Y17746215D02*
X165425380Y18222405D01*
X164425380Y18222405D01*
X165425380Y16889072D02*
X165425380Y17460500D01*
X165425380Y17174786D02*
X164425380Y17174786D01*
X164568238Y17270024D01*
X164663476Y17365262D01*
X164711095Y17460500D01*
D12*
X75001380Y52165286D02*
X75001380Y52736715D01*
X75001380Y52451000D02*
X74001380Y52451000D01*
X74144238Y52546239D01*
X74239476Y52641477D01*
X74287095Y52736715D01*
D13*
X36838000Y23778596D02*
X36790380Y23873834D01*
X36790380Y24016691D01*
X36838000Y24159548D01*
X36933238Y24254786D01*
X37028476Y24302405D01*
X37218952Y24350024D01*
X37361809Y24350024D01*
X37552285Y24302405D01*
X37647523Y24254786D01*
X37742761Y24159548D01*
X37790380Y24016691D01*
X37790380Y23921453D01*
X37742761Y23778596D01*
X37695142Y23730977D01*
X37361809Y23730977D01*
X37361809Y23921453D01*
X37790380Y23302405D02*
X36790380Y23302405D01*
X37790380Y22730977D01*
X36790380Y22730977D01*
X37790380Y22254786D02*
X36790380Y22254786D01*
X36790380Y22016691D01*
X36838000Y21873834D01*
X36933238Y21778596D01*
X37028476Y21730977D01*
X37218952Y21683358D01*
X37361809Y21683358D01*
X37552285Y21730977D01*
X37647523Y21778596D01*
X37742761Y21873834D01*
X37790380Y22016691D01*
X37790380Y22254786D01*
X116927380Y19444643D02*
X116927380Y18825596D01*
X117308333Y19158929D01*
X117308333Y19016072D01*
X117355952Y18920834D01*
X117403571Y18873215D01*
X117498809Y18825596D01*
X117736904Y18825596D01*
X117832142Y18873215D01*
X117879761Y18920834D01*
X117927380Y19016072D01*
X117927380Y19301786D01*
X117879761Y19397024D01*
X117832142Y19444643D01*
X116927380Y18539881D02*
X117927380Y18206548D01*
X116927380Y17873215D01*
X116927380Y17635120D02*
X116927380Y17016072D01*
X117308333Y17349405D01*
X117308333Y17206548D01*
X117355952Y17111310D01*
X117403571Y17063691D01*
X117498809Y17016072D01*
X117736904Y17016072D01*
X117832142Y17063691D01*
X117879761Y17111310D01*
X117927380Y17206548D01*
X117927380Y17492262D01*
X117879761Y17587500D01*
X117832142Y17635120D01*
X35250380Y27032977D02*
X34774190Y27366310D01*
X35250380Y27604405D02*
X34250380Y27604405D01*
X34250380Y27223453D01*
X34298000Y27128215D01*
X34345619Y27080596D01*
X34440857Y27032977D01*
X34583714Y27032977D01*
X34678952Y27080596D01*
X34726571Y27128215D01*
X34774190Y27223453D01*
X34774190Y27604405D01*
X34250380Y26699643D02*
X35250380Y26032977D01*
X34250380Y26032977D02*
X35250380Y26699643D01*
X228544428Y19095405D02*
X228544428Y18333500D01*
X193000380Y19317643D02*
X193000380Y18698596D01*
X193381333Y19031929D01*
X193381333Y18889072D01*
X193428952Y18793834D01*
X193476571Y18746215D01*
X193571809Y18698596D01*
X193809904Y18698596D01*
X193905142Y18746215D01*
X193952761Y18793834D01*
X194000380Y18889072D01*
X194000380Y19174786D01*
X193952761Y19270024D01*
X193905142Y19317643D01*
X193000380Y18412881D02*
X194000380Y18079548D01*
X193000380Y17746215D01*
X193000380Y17508120D02*
X193000380Y16889072D01*
X193381333Y17222405D01*
X193381333Y17079548D01*
X193428952Y16984310D01*
X193476571Y16936691D01*
X193571809Y16889072D01*
X193809904Y16889072D01*
X193905142Y16936691D01*
X193952761Y16984310D01*
X194000380Y17079548D01*
X194000380Y17365262D01*
X193952761Y17460500D01*
X193905142Y17508120D01*
D12*
X20486619Y29265620D02*
X20819952Y29741810D01*
X21058047Y29265620D02*
X21058047Y30265620D01*
X20677095Y30265620D01*
X20581857Y30218000D01*
X20534238Y30170381D01*
X20486619Y30075143D01*
X20486619Y29932286D01*
X20534238Y29837048D01*
X20581857Y29789429D01*
X20677095Y29741810D01*
X21058047Y29741810D01*
X20105666Y29313239D02*
X19962809Y29265620D01*
X19724714Y29265620D01*
X19629476Y29313239D01*
X19581857Y29360858D01*
X19534238Y29456096D01*
X19534238Y29551334D01*
X19581857Y29646572D01*
X19629476Y29694191D01*
X19724714Y29741810D01*
X19915190Y29789429D01*
X20010428Y29837048D01*
X20058047Y29884667D01*
X20105666Y29979905D01*
X20105666Y30075143D01*
X20058047Y30170381D01*
X20010428Y30218000D01*
X19915190Y30265620D01*
X19677095Y30265620D01*
X19534238Y30218000D01*
X19248523Y30265620D02*
X18677095Y30265620D01*
X18962809Y29265620D02*
X18962809Y30265620D01*
D13*
X154900380Y19317643D02*
X154900380Y18698596D01*
X155281333Y19031929D01*
X155281333Y18889072D01*
X155328952Y18793834D01*
X155376571Y18746215D01*
X155471809Y18698596D01*
X155709904Y18698596D01*
X155805142Y18746215D01*
X155852761Y18793834D01*
X155900380Y18889072D01*
X155900380Y19174786D01*
X155852761Y19270024D01*
X155805142Y19317643D01*
X154900380Y18412881D02*
X155900380Y18079548D01*
X154900380Y17746215D01*
X154900380Y17508120D02*
X154900380Y16889072D01*
X155281333Y17222405D01*
X155281333Y17079548D01*
X155328952Y16984310D01*
X155376571Y16936691D01*
X155471809Y16889072D01*
X155709904Y16889072D01*
X155805142Y16936691D01*
X155852761Y16984310D01*
X155900380Y17079548D01*
X155900380Y17365262D01*
X155852761Y17460500D01*
X155805142Y17508120D01*
X114371428Y19222405D02*
X114371428Y18460500D01*
X35520380Y27747262D02*
X35520380Y27175834D01*
X36520380Y27461548D02*
X35520380Y27461548D01*
X35520380Y26937739D02*
X36520380Y26271072D01*
X35520380Y26271072D02*
X36520380Y26937739D01*
X196223000Y18698596D02*
X196175380Y18793834D01*
X196175380Y18936691D01*
X196223000Y19079548D01*
X196318238Y19174786D01*
X196413476Y19222405D01*
X196603952Y19270024D01*
X196746809Y19270024D01*
X196937285Y19222405D01*
X197032523Y19174786D01*
X197127761Y19079548D01*
X197175380Y18936691D01*
X197175380Y18841453D01*
X197127761Y18698596D01*
X197080142Y18650977D01*
X196746809Y18650977D01*
X196746809Y18841453D01*
X197175380Y17698596D02*
X197175380Y18270024D01*
X197175380Y17984310D02*
X196175380Y17984310D01*
X196318238Y18079548D01*
X196413476Y18174786D01*
X196461095Y18270024D01*
D12*
X74334714Y16192524D02*
X75001380Y16192524D01*
X73953761Y16430620D02*
X74668047Y16668715D01*
X74668047Y16049667D01*
D13*
X234323000Y18698596D02*
X234275380Y18793834D01*
X234275380Y18936691D01*
X234323000Y19079548D01*
X234418238Y19174786D01*
X234513476Y19222405D01*
X234703952Y19270024D01*
X234846809Y19270024D01*
X235037285Y19222405D01*
X235132523Y19174786D01*
X235227761Y19079548D01*
X235275380Y18936691D01*
X235275380Y18841453D01*
X235227761Y18698596D01*
X235180142Y18650977D01*
X234846809Y18650977D01*
X234846809Y18841453D01*
X235275380Y17698596D02*
X235275380Y18270024D01*
X235275380Y17984310D02*
X234275380Y17984310D01*
X234418238Y18079548D01*
X234513476Y18174786D01*
X234561095Y18270024D01*
X23812428Y35329858D02*
X23860047Y35282239D01*
X24002904Y35234620D01*
X24098142Y35234620D01*
X24241000Y35282239D01*
X24336238Y35377477D01*
X24383857Y35472715D01*
X24431476Y35663191D01*
X24431476Y35806048D01*
X24383857Y35996524D01*
X24336238Y36091762D01*
X24241000Y36187000D01*
X24098142Y36234620D01*
X24002904Y36234620D01*
X23860047Y36187000D01*
X23812428Y36139381D01*
X22907666Y35234620D02*
X23383857Y35234620D01*
X23383857Y36234620D01*
X22050523Y35234620D02*
X22621952Y35234620D01*
X22336238Y35234620D02*
X22336238Y36234620D01*
X22431476Y36091762D01*
X22526714Y35996524D01*
X22621952Y35948905D01*
D12*
X74001380Y27511334D02*
X74001380Y26892286D01*
X74382333Y27225620D01*
X74382333Y27082762D01*
X74429952Y26987524D01*
X74477571Y26939905D01*
X74572809Y26892286D01*
X74810904Y26892286D01*
X74906142Y26939905D01*
X74953761Y26987524D01*
X75001380Y27082762D01*
X75001380Y27368477D01*
X74953761Y27463715D01*
X74906142Y27511334D01*
D13*
X35250380Y21000405D02*
X34250380Y21000405D01*
X34250380Y20762310D01*
X34298000Y20619453D01*
X34393238Y20524215D01*
X34488476Y20476596D01*
X34678952Y20428977D01*
X34821809Y20428977D01*
X35012285Y20476596D01*
X35107523Y20524215D01*
X35202761Y20619453D01*
X35250380Y20762310D01*
X35250380Y21000405D01*
X34964666Y20048024D02*
X34964666Y19571834D01*
X35250380Y20143262D02*
X34250380Y19809929D01*
X35250380Y19476596D01*
X35250380Y18619453D02*
X35250380Y19190881D01*
X35250380Y18905167D02*
X34250380Y18905167D01*
X34393238Y19000405D01*
X34488476Y19095643D01*
X34536095Y19190881D01*
X168600380Y19222405D02*
X167600380Y19222405D01*
X167600380Y18984310D01*
X167648000Y18841453D01*
X167743238Y18746215D01*
X167838476Y18698596D01*
X168028952Y18650977D01*
X168171809Y18650977D01*
X168362285Y18698596D01*
X168457523Y18746215D01*
X168552761Y18841453D01*
X168600380Y18984310D01*
X168600380Y19222405D01*
X168314666Y18270024D02*
X168314666Y17793834D01*
X168600380Y18365262D02*
X167600380Y18031929D01*
X168600380Y17698596D01*
X168600380Y16841453D02*
X168600380Y17412881D01*
X168600380Y17127167D02*
X167600380Y17127167D01*
X167743238Y17222405D01*
X167838476Y17317643D01*
X167886095Y17412881D01*
X152344428Y19095405D02*
X152344428Y18333500D01*
X199350380Y19317643D02*
X200350380Y18650977D01*
X199350380Y18650977D02*
X200350380Y19317643D01*
X200302761Y18317643D02*
X200350380Y18174786D01*
X200350380Y17936691D01*
X200302761Y17841453D01*
X200255142Y17793834D01*
X200159904Y17746215D01*
X200064666Y17746215D01*
X199969428Y17793834D01*
X199921809Y17841453D01*
X199874190Y17936691D01*
X199826571Y18127167D01*
X199778952Y18222405D01*
X199731333Y18270024D01*
X199636095Y18317643D01*
X199540857Y18317643D01*
X199445619Y18270024D01*
X199398000Y18222405D01*
X199350380Y18127167D01*
X199350380Y17889072D01*
X199398000Y17746215D01*
X200350380Y16793834D02*
X200350380Y17365262D01*
X200350380Y17079548D02*
X199350380Y17079548D01*
X199493238Y17174786D01*
X199588476Y17270024D01*
X199636095Y17365262D01*
X37409428Y27604405D02*
X37409428Y26842500D01*
X37790380Y27223453D02*
X37028476Y27223453D01*
X36790380Y25890120D02*
X36790380Y26366310D01*
X37266571Y26413929D01*
X37218952Y26366310D01*
X37171333Y26271072D01*
X37171333Y26032977D01*
X37218952Y25937739D01*
X37266571Y25890120D01*
X37361809Y25842500D01*
X37599904Y25842500D01*
X37695142Y25890120D01*
X37742761Y25937739D01*
X37790380Y26032977D01*
X37790380Y26271072D01*
X37742761Y26366310D01*
X37695142Y26413929D01*
X237450380Y19317643D02*
X238450380Y18650977D01*
X237450380Y18650977D02*
X238450380Y19317643D01*
X238402761Y18317643D02*
X238450380Y18174786D01*
X238450380Y17936691D01*
X238402761Y17841453D01*
X238355142Y17793834D01*
X238259904Y17746215D01*
X238164666Y17746215D01*
X238069428Y17793834D01*
X238021809Y17841453D01*
X237974190Y17936691D01*
X237926571Y18127167D01*
X237878952Y18222405D01*
X237831333Y18270024D01*
X237736095Y18317643D01*
X237640857Y18317643D01*
X237545619Y18270024D01*
X237498000Y18222405D01*
X237450380Y18127167D01*
X237450380Y17889072D01*
X237498000Y17746215D01*
X238450380Y16793834D02*
X238450380Y17365262D01*
X238450380Y17079548D02*
X237450380Y17079548D01*
X237593238Y17174786D01*
X237688476Y17270024D01*
X237736095Y17365262D01*
X127357142Y18777977D02*
X127404761Y18825596D01*
X127452380Y18968453D01*
X127452380Y19063691D01*
X127404761Y19206548D01*
X127309523Y19301786D01*
X127214285Y19349405D01*
X127023809Y19397024D01*
X126880952Y19397024D01*
X126690476Y19349405D01*
X126595238Y19301786D01*
X126500000Y19206548D01*
X126452380Y19063691D01*
X126452380Y18968453D01*
X126500000Y18825596D01*
X126547619Y18777977D01*
X127452380Y17873215D02*
X127452380Y18349405D01*
X126452380Y18349405D01*
X127452380Y17016072D02*
X127452380Y17587500D01*
X127452380Y17301786D02*
X126452380Y17301786D01*
X126595238Y17397024D01*
X126690476Y17492262D01*
X126738095Y17587500D01*
D12*
X21232523Y41421239D02*
X21089666Y41373620D01*
X20851571Y41373620D01*
X20756333Y41421239D01*
X20708714Y41468858D01*
X20661095Y41564096D01*
X20661095Y41659334D01*
X20708714Y41754572D01*
X20756333Y41802191D01*
X20851571Y41849810D01*
X21042047Y41897429D01*
X21137285Y41945048D01*
X21184904Y41992667D01*
X21232523Y42087905D01*
X21232523Y42183143D01*
X21184904Y42278381D01*
X21137285Y42326000D01*
X21042047Y42373620D01*
X20803952Y42373620D01*
X20661095Y42326000D01*
X20232523Y41897429D02*
X19899190Y41897429D01*
X19756333Y41373620D02*
X20232523Y41373620D01*
X20232523Y42373620D01*
X19756333Y42373620D01*
X18756333Y41373620D02*
X19089666Y41849810D01*
X19327761Y41373620D02*
X19327761Y42373620D01*
X18946809Y42373620D01*
X18851571Y42326000D01*
X18803952Y42278381D01*
X18756333Y42183143D01*
X18756333Y42040286D01*
X18803952Y41945048D01*
X18851571Y41897429D01*
X18946809Y41849810D01*
X19327761Y41849810D01*
X18327761Y41373620D02*
X18327761Y42373620D01*
X17899190Y41659334D02*
X17423000Y41659334D01*
X17994428Y41373620D02*
X17661095Y42373620D01*
X17327761Y41373620D01*
X16518238Y41373620D02*
X16994428Y41373620D01*
X16994428Y42373620D01*
X20542047Y40763620D02*
X20303952Y39763620D01*
X20113476Y40477905D01*
X19923000Y39763620D01*
X19684904Y40763620D01*
X19303952Y39763620D02*
X19303952Y40763620D01*
X18256333Y39763620D02*
X18589666Y40239810D01*
X18827761Y39763620D02*
X18827761Y40763620D01*
X18446809Y40763620D01*
X18351571Y40716000D01*
X18303952Y40668381D01*
X18256333Y40573143D01*
X18256333Y40430286D01*
X18303952Y40335048D01*
X18351571Y40287429D01*
X18446809Y40239810D01*
X18827761Y40239810D01*
X17827761Y40287429D02*
X17494428Y40287429D01*
X17351571Y39763620D02*
X17827761Y39763620D01*
X17827761Y40763620D01*
X17351571Y40763620D01*
D13*
X120150000Y18825596D02*
X120102380Y18920834D01*
X120102380Y19063691D01*
X120150000Y19206548D01*
X120245238Y19301786D01*
X120340476Y19349405D01*
X120530952Y19397024D01*
X120673809Y19397024D01*
X120864285Y19349405D01*
X120959523Y19301786D01*
X121054761Y19206548D01*
X121102380Y19063691D01*
X121102380Y18968453D01*
X121054761Y18825596D01*
X121007142Y18777977D01*
X120673809Y18777977D01*
X120673809Y18968453D01*
X121102380Y17825596D02*
X121102380Y18397024D01*
X121102380Y18111310D02*
X120102380Y18111310D01*
X120245238Y18206548D01*
X120340476Y18301786D01*
X120388095Y18397024D01*
D12*
X74096619Y43084715D02*
X74049000Y43037096D01*
X74001380Y42941858D01*
X74001380Y42703762D01*
X74049000Y42608524D01*
X74096619Y42560905D01*
X74191857Y42513286D01*
X74287095Y42513286D01*
X74429952Y42560905D01*
X75001380Y43132334D01*
X75001380Y42513286D01*
X20788190Y44902429D02*
X21121523Y44902429D01*
X21121523Y44378620D02*
X21121523Y45378620D01*
X20645333Y45378620D01*
X20407238Y45378620D02*
X19835809Y45378620D01*
X20121523Y44378620D02*
X20121523Y45378620D01*
X19502476Y44378620D02*
X19502476Y45378620D01*
X19264380Y45378620D01*
X19121523Y45331000D01*
X19026285Y45235762D01*
X18978666Y45140524D01*
X18931047Y44950048D01*
X18931047Y44807191D01*
X18978666Y44616715D01*
X19026285Y44521477D01*
X19121523Y44426239D01*
X19264380Y44378620D01*
X19502476Y44378620D01*
X18502476Y44378620D02*
X18502476Y45378620D01*
D13*
X203430142Y18650977D02*
X203477761Y18698596D01*
X203525380Y18841453D01*
X203525380Y18936691D01*
X203477761Y19079548D01*
X203382523Y19174786D01*
X203287285Y19222405D01*
X203096809Y19270024D01*
X202953952Y19270024D01*
X202763476Y19222405D01*
X202668238Y19174786D01*
X202573000Y19079548D01*
X202525380Y18936691D01*
X202525380Y18841453D01*
X202573000Y18698596D01*
X202620619Y18650977D01*
X203525380Y17746215D02*
X203525380Y18222405D01*
X202525380Y18222405D01*
X203525380Y16889072D02*
X203525380Y17460500D01*
X203525380Y17174786D02*
X202525380Y17174786D01*
X202668238Y17270024D01*
X202763476Y17365262D01*
X202811095Y17460500D01*
X33980380Y27032977D02*
X33504190Y27366310D01*
X33980380Y27604405D02*
X32980380Y27604405D01*
X32980380Y27223453D01*
X33028000Y27128215D01*
X33075619Y27080596D01*
X33170857Y27032977D01*
X33313714Y27032977D01*
X33408952Y27080596D01*
X33456571Y27128215D01*
X33504190Y27223453D01*
X33504190Y27604405D01*
X32980380Y26747262D02*
X32980380Y26175834D01*
X33980380Y26461548D02*
X32980380Y26461548D01*
X33932761Y25890120D02*
X33980380Y25747262D01*
X33980380Y25509167D01*
X33932761Y25413929D01*
X33885142Y25366310D01*
X33789904Y25318691D01*
X33694666Y25318691D01*
X33599428Y25366310D01*
X33551809Y25413929D01*
X33504190Y25509167D01*
X33456571Y25699643D01*
X33408952Y25794881D01*
X33361333Y25842500D01*
X33266095Y25890120D01*
X33170857Y25890120D01*
X33075619Y25842500D01*
X33028000Y25794881D01*
X32980380Y25699643D01*
X32980380Y25461548D01*
X33028000Y25318691D01*
X36139428Y21000405D02*
X36139428Y20238500D01*
X36520380Y20619453D02*
X35758476Y20619453D01*
X35520380Y19286120D02*
X35520380Y19762310D01*
X35996571Y19809929D01*
X35948952Y19762310D01*
X35901333Y19667072D01*
X35901333Y19428977D01*
X35948952Y19333739D01*
X35996571Y19286120D01*
X36091809Y19238500D01*
X36329904Y19238500D01*
X36425142Y19286120D01*
X36472761Y19333739D01*
X36520380Y19428977D01*
X36520380Y19667072D01*
X36472761Y19762310D01*
X36425142Y19809929D01*
X38965142Y27032977D02*
X39012761Y27080596D01*
X39060380Y27223453D01*
X39060380Y27318691D01*
X39012761Y27461548D01*
X38917523Y27556786D01*
X38822285Y27604405D01*
X38631809Y27652024D01*
X38488952Y27652024D01*
X38298476Y27604405D01*
X38203238Y27556786D01*
X38108000Y27461548D01*
X38060380Y27318691D01*
X38060380Y27223453D01*
X38108000Y27080596D01*
X38155619Y27032977D01*
X38060380Y26747262D02*
X38060380Y26175834D01*
X39060380Y26461548D02*
X38060380Y26461548D01*
X39012761Y25890120D02*
X39060380Y25747262D01*
X39060380Y25509167D01*
X39012761Y25413929D01*
X38965142Y25366310D01*
X38869904Y25318691D01*
X38774666Y25318691D01*
X38679428Y25366310D01*
X38631809Y25413929D01*
X38584190Y25509167D01*
X38536571Y25699643D01*
X38488952Y25794881D01*
X38441333Y25842500D01*
X38346095Y25890120D01*
X38250857Y25890120D01*
X38155619Y25842500D01*
X38108000Y25794881D01*
X38060380Y25699643D01*
X38060380Y25461548D01*
X38108000Y25318691D01*
X161250380Y19317643D02*
X162250380Y18650977D01*
X161250380Y18650977D02*
X162250380Y19317643D01*
X162202761Y18317643D02*
X162250380Y18174786D01*
X162250380Y17936691D01*
X162202761Y17841453D01*
X162155142Y17793834D01*
X162059904Y17746215D01*
X161964666Y17746215D01*
X161869428Y17793834D01*
X161821809Y17841453D01*
X161774190Y17936691D01*
X161726571Y18127167D01*
X161678952Y18222405D01*
X161631333Y18270024D01*
X161536095Y18317643D01*
X161440857Y18317643D01*
X161345619Y18270024D01*
X161298000Y18222405D01*
X161250380Y18127167D01*
X161250380Y17889072D01*
X161298000Y17746215D01*
X162250380Y16793834D02*
X162250380Y17365262D01*
X162250380Y17079548D02*
X161250380Y17079548D01*
X161393238Y17174786D01*
X161488476Y17270024D01*
X161536095Y17365262D01*
X33885142Y20428977D02*
X33932761Y20476596D01*
X33980380Y20619453D01*
X33980380Y20714691D01*
X33932761Y20857548D01*
X33837523Y20952786D01*
X33742285Y21000405D01*
X33551809Y21048024D01*
X33408952Y21048024D01*
X33218476Y21000405D01*
X33123238Y20952786D01*
X33028000Y20857548D01*
X32980380Y20714691D01*
X32980380Y20619453D01*
X33028000Y20476596D01*
X33075619Y20428977D01*
X33980380Y19524215D02*
X33980380Y20000405D01*
X32980380Y20000405D01*
X33980380Y18667072D02*
X33980380Y19238500D01*
X33980380Y18952786D02*
X32980380Y18952786D01*
X33123238Y19048024D01*
X33218476Y19143262D01*
X33266095Y19238500D01*
X36838000Y20476596D02*
X36790380Y20571834D01*
X36790380Y20714691D01*
X36838000Y20857548D01*
X36933238Y20952786D01*
X37028476Y21000405D01*
X37218952Y21048024D01*
X37361809Y21048024D01*
X37552285Y21000405D01*
X37647523Y20952786D01*
X37742761Y20857548D01*
X37790380Y20714691D01*
X37790380Y20619453D01*
X37742761Y20476596D01*
X37695142Y20428977D01*
X37361809Y20428977D01*
X37361809Y20619453D01*
X37790380Y20000405D02*
X36790380Y20000405D01*
X37790380Y19428977D01*
X36790380Y19428977D01*
X37790380Y18952786D02*
X36790380Y18952786D01*
X36790380Y18714691D01*
X36838000Y18571834D01*
X36933238Y18476596D01*
X37028476Y18428977D01*
X37218952Y18381358D01*
X37361809Y18381358D01*
X37552285Y18428977D01*
X37647523Y18476596D01*
X37742761Y18571834D01*
X37790380Y18714691D01*
X37790380Y18952786D01*
X130627380Y19349405D02*
X129627380Y19349405D01*
X129627380Y19111310D01*
X129675000Y18968453D01*
X129770238Y18873215D01*
X129865476Y18825596D01*
X130055952Y18777977D01*
X130198809Y18777977D01*
X130389285Y18825596D01*
X130484523Y18873215D01*
X130579761Y18968453D01*
X130627380Y19111310D01*
X130627380Y19349405D01*
X130341666Y18397024D02*
X130341666Y17920834D01*
X130627380Y18492262D02*
X129627380Y18158929D01*
X130627380Y17825596D01*
X130627380Y16968453D02*
X130627380Y17539881D01*
X130627380Y17254167D02*
X129627380Y17254167D01*
X129770238Y17349405D01*
X129865476Y17444643D01*
X129913095Y17539881D01*
%TO.C,J25*%
X13468380Y65574524D02*
X14182666Y65574524D01*
X14325523Y65622143D01*
X14420761Y65717381D01*
X14468380Y65860239D01*
X14468380Y65955477D01*
X13563619Y65145953D02*
X13516000Y65098334D01*
X13468380Y65003096D01*
X13468380Y64765000D01*
X13516000Y64669762D01*
X13563619Y64622143D01*
X13658857Y64574524D01*
X13754095Y64574524D01*
X13896952Y64622143D01*
X14468380Y65193572D01*
X14468380Y64574524D01*
X13468380Y63669762D02*
X13468380Y64145953D01*
X13944571Y64193572D01*
X13896952Y64145953D01*
X13849333Y64050715D01*
X13849333Y63812620D01*
X13896952Y63717381D01*
X13944571Y63669762D01*
X14039809Y63622143D01*
X14277904Y63622143D01*
X14373142Y63669762D01*
X14420761Y63717381D01*
X14468380Y63812620D01*
X14468380Y64050715D01*
X14420761Y64145953D01*
X14373142Y64193572D01*
%TO.C,J24*%
X13456380Y4614524D02*
X14170666Y4614524D01*
X14313523Y4662143D01*
X14408761Y4757381D01*
X14456380Y4900239D01*
X14456380Y4995477D01*
X13551619Y4185953D02*
X13504000Y4138334D01*
X13456380Y4043096D01*
X13456380Y3805000D01*
X13504000Y3709762D01*
X13551619Y3662143D01*
X13646857Y3614524D01*
X13742095Y3614524D01*
X13884952Y3662143D01*
X14456380Y4233572D01*
X14456380Y3614524D01*
X13789714Y2757381D02*
X14456380Y2757381D01*
X13408761Y2995477D02*
X14123047Y3233572D01*
X14123047Y2614524D01*
%TO.C,C28*%
X49338857Y27750858D02*
X49386476Y27703239D01*
X49529333Y27655620D01*
X49624571Y27655620D01*
X49767428Y27703239D01*
X49862666Y27798477D01*
X49910285Y27893715D01*
X49957904Y28084191D01*
X49957904Y28227048D01*
X49910285Y28417524D01*
X49862666Y28512762D01*
X49767428Y28608000D01*
X49624571Y28655620D01*
X49529333Y28655620D01*
X49386476Y28608000D01*
X49338857Y28560381D01*
X48957904Y28560381D02*
X48910285Y28608000D01*
X48815047Y28655620D01*
X48576952Y28655620D01*
X48481714Y28608000D01*
X48434095Y28560381D01*
X48386476Y28465143D01*
X48386476Y28369905D01*
X48434095Y28227048D01*
X49005523Y27655620D01*
X48386476Y27655620D01*
X47815047Y28227048D02*
X47910285Y28274667D01*
X47957904Y28322286D01*
X48005523Y28417524D01*
X48005523Y28465143D01*
X47957904Y28560381D01*
X47910285Y28608000D01*
X47815047Y28655620D01*
X47624571Y28655620D01*
X47529333Y28608000D01*
X47481714Y28560381D01*
X47434095Y28465143D01*
X47434095Y28417524D01*
X47481714Y28322286D01*
X47529333Y28274667D01*
X47624571Y28227048D01*
X47815047Y28227048D01*
X47910285Y28179429D01*
X47957904Y28131810D01*
X48005523Y28036572D01*
X48005523Y27846096D01*
X47957904Y27750858D01*
X47910285Y27703239D01*
X47815047Y27655620D01*
X47624571Y27655620D01*
X47529333Y27703239D01*
X47481714Y27750858D01*
X47434095Y27846096D01*
X47434095Y28036572D01*
X47481714Y28131810D01*
X47529333Y28179429D01*
X47624571Y28227048D01*
%TO.C,C30*%
X49338857Y29250858D02*
X49386476Y29203239D01*
X49529333Y29155620D01*
X49624571Y29155620D01*
X49767428Y29203239D01*
X49862666Y29298477D01*
X49910285Y29393715D01*
X49957904Y29584191D01*
X49957904Y29727048D01*
X49910285Y29917524D01*
X49862666Y30012762D01*
X49767428Y30108000D01*
X49624571Y30155620D01*
X49529333Y30155620D01*
X49386476Y30108000D01*
X49338857Y30060381D01*
X49005523Y30155620D02*
X48386476Y30155620D01*
X48719809Y29774667D01*
X48576952Y29774667D01*
X48481714Y29727048D01*
X48434095Y29679429D01*
X48386476Y29584191D01*
X48386476Y29346096D01*
X48434095Y29250858D01*
X48481714Y29203239D01*
X48576952Y29155620D01*
X48862666Y29155620D01*
X48957904Y29203239D01*
X49005523Y29250858D01*
X47767428Y30155620D02*
X47672190Y30155620D01*
X47576952Y30108000D01*
X47529333Y30060381D01*
X47481714Y29965143D01*
X47434095Y29774667D01*
X47434095Y29536572D01*
X47481714Y29346096D01*
X47529333Y29250858D01*
X47576952Y29203239D01*
X47672190Y29155620D01*
X47767428Y29155620D01*
X47862666Y29203239D01*
X47910285Y29250858D01*
X47957904Y29346096D01*
X48005523Y29536572D01*
X48005523Y29774667D01*
X47957904Y29965143D01*
X47910285Y30060381D01*
X47862666Y30108000D01*
X47767428Y30155620D01*
%TO.C,C31*%
X43838857Y29250858D02*
X43886476Y29203239D01*
X44029333Y29155620D01*
X44124571Y29155620D01*
X44267428Y29203239D01*
X44362666Y29298477D01*
X44410285Y29393715D01*
X44457904Y29584191D01*
X44457904Y29727048D01*
X44410285Y29917524D01*
X44362666Y30012762D01*
X44267428Y30108000D01*
X44124571Y30155620D01*
X44029333Y30155620D01*
X43886476Y30108000D01*
X43838857Y30060381D01*
X43505523Y30155620D02*
X42886476Y30155620D01*
X43219809Y29774667D01*
X43076952Y29774667D01*
X42981714Y29727048D01*
X42934095Y29679429D01*
X42886476Y29584191D01*
X42886476Y29346096D01*
X42934095Y29250858D01*
X42981714Y29203239D01*
X43076952Y29155620D01*
X43362666Y29155620D01*
X43457904Y29203239D01*
X43505523Y29250858D01*
X41934095Y29155620D02*
X42505523Y29155620D01*
X42219809Y29155620D02*
X42219809Y30155620D01*
X42315047Y30012762D01*
X42410285Y29917524D01*
X42505523Y29869905D01*
%TO.C,C33*%
X41917857Y34567858D02*
X41965476Y34520239D01*
X42108333Y34472620D01*
X42203571Y34472620D01*
X42346428Y34520239D01*
X42441666Y34615477D01*
X42489285Y34710715D01*
X42536904Y34901191D01*
X42536904Y35044048D01*
X42489285Y35234524D01*
X42441666Y35329762D01*
X42346428Y35425000D01*
X42203571Y35472620D01*
X42108333Y35472620D01*
X41965476Y35425000D01*
X41917857Y35377381D01*
X41584523Y35472620D02*
X40965476Y35472620D01*
X41298809Y35091667D01*
X41155952Y35091667D01*
X41060714Y35044048D01*
X41013095Y34996429D01*
X40965476Y34901191D01*
X40965476Y34663096D01*
X41013095Y34567858D01*
X41060714Y34520239D01*
X41155952Y34472620D01*
X41441666Y34472620D01*
X41536904Y34520239D01*
X41584523Y34567858D01*
X40632142Y35472620D02*
X40013095Y35472620D01*
X40346428Y35091667D01*
X40203571Y35091667D01*
X40108333Y35044048D01*
X40060714Y34996429D01*
X40013095Y34901191D01*
X40013095Y34663096D01*
X40060714Y34567858D01*
X40108333Y34520239D01*
X40203571Y34472620D01*
X40489285Y34472620D01*
X40584523Y34520239D01*
X40632142Y34567858D01*
%TO.C,J17*%
X19385870Y53393034D02*
X20100156Y53393034D01*
X20243013Y53440653D01*
X20338251Y53535891D01*
X20385870Y53678749D01*
X20385870Y53773987D01*
X20385870Y52393034D02*
X20385870Y52964463D01*
X20385870Y52678749D02*
X19385870Y52678749D01*
X19528728Y52773987D01*
X19623966Y52869225D01*
X19671585Y52964463D01*
X19385870Y52059701D02*
X19385870Y51393034D01*
X20385870Y51821606D01*
%TO.C,J18*%
X15575870Y53393034D02*
X16290156Y53393034D01*
X16433013Y53440653D01*
X16528251Y53535891D01*
X16575870Y53678749D01*
X16575870Y53773987D01*
X16575870Y52393034D02*
X16575870Y52964463D01*
X16575870Y52678749D02*
X15575870Y52678749D01*
X15718728Y52773987D01*
X15813966Y52869225D01*
X15861585Y52964463D01*
X16004442Y51821606D02*
X15956823Y51916844D01*
X15909204Y51964463D01*
X15813966Y52012082D01*
X15766347Y52012082D01*
X15671109Y51964463D01*
X15623490Y51916844D01*
X15575870Y51821606D01*
X15575870Y51631130D01*
X15623490Y51535891D01*
X15671109Y51488272D01*
X15766347Y51440653D01*
X15813966Y51440653D01*
X15909204Y51488272D01*
X15956823Y51535891D01*
X16004442Y51631130D01*
X16004442Y51821606D01*
X16052061Y51916844D01*
X16099680Y51964463D01*
X16194918Y52012082D01*
X16385394Y52012082D01*
X16480632Y51964463D01*
X16528251Y51916844D01*
X16575870Y51821606D01*
X16575870Y51631130D01*
X16528251Y51535891D01*
X16480632Y51488272D01*
X16385394Y51440653D01*
X16194918Y51440653D01*
X16099680Y51488272D01*
X16052061Y51535891D01*
X16004442Y51631130D01*
%TO.C,J19*%
X14305870Y53393034D02*
X15020156Y53393034D01*
X15163013Y53440653D01*
X15258251Y53535891D01*
X15305870Y53678749D01*
X15305870Y53773987D01*
X15305870Y52393034D02*
X15305870Y52964463D01*
X15305870Y52678749D02*
X14305870Y52678749D01*
X14448728Y52773987D01*
X14543966Y52869225D01*
X14591585Y52964463D01*
X15305870Y51916844D02*
X15305870Y51726368D01*
X15258251Y51631130D01*
X15210632Y51583510D01*
X15067775Y51488272D01*
X14877299Y51440653D01*
X14496347Y51440653D01*
X14401109Y51488272D01*
X14353490Y51535891D01*
X14305870Y51631130D01*
X14305870Y51821606D01*
X14353490Y51916844D01*
X14401109Y51964463D01*
X14496347Y52012082D01*
X14734442Y52012082D01*
X14829680Y51964463D01*
X14877299Y51916844D01*
X14924918Y51821606D01*
X14924918Y51631130D01*
X14877299Y51535891D01*
X14829680Y51488272D01*
X14734442Y51440653D01*
%TO.C,JP3*%
X48728380Y39187334D02*
X49442666Y39187334D01*
X49585523Y39234953D01*
X49680761Y39330191D01*
X49728380Y39473048D01*
X49728380Y39568286D01*
X49728380Y38711143D02*
X48728380Y38711143D01*
X48728380Y38330191D01*
X48776000Y38234953D01*
X48823619Y38187334D01*
X48918857Y38139715D01*
X49061714Y38139715D01*
X49156952Y38187334D01*
X49204571Y38234953D01*
X49252190Y38330191D01*
X49252190Y38711143D01*
X48728380Y37806381D02*
X48728380Y37187334D01*
X49109333Y37520667D01*
X49109333Y37377810D01*
X49156952Y37282572D01*
X49204571Y37234953D01*
X49299809Y37187334D01*
X49537904Y37187334D01*
X49633142Y37234953D01*
X49680761Y37282572D01*
X49728380Y37377810D01*
X49728380Y37663524D01*
X49680761Y37758762D01*
X49633142Y37806381D01*
X47569380Y35468286D02*
X47569380Y36039715D01*
X47569380Y35754000D02*
X46569380Y35754000D01*
X46712238Y35849239D01*
X46807476Y35944477D01*
X46855095Y36039715D01*
X46569380Y41287334D02*
X46569380Y40668286D01*
X46950333Y41001620D01*
X46950333Y40858762D01*
X46997952Y40763524D01*
X47045571Y40715905D01*
X47140809Y40668286D01*
X47378904Y40668286D01*
X47474142Y40715905D01*
X47521761Y40763524D01*
X47569380Y40858762D01*
X47569380Y41144477D01*
X47521761Y41239715D01*
X47474142Y41287334D01*
%TO.C,R21*%
X31736347Y46537620D02*
X32069680Y47013810D01*
X32307775Y46537620D02*
X32307775Y47537620D01*
X31926823Y47537620D01*
X31831585Y47490000D01*
X31783966Y47442381D01*
X31736347Y47347143D01*
X31736347Y47204286D01*
X31783966Y47109048D01*
X31831585Y47061429D01*
X31926823Y47013810D01*
X32307775Y47013810D01*
X31355394Y47442381D02*
X31307775Y47490000D01*
X31212537Y47537620D01*
X30974442Y47537620D01*
X30879204Y47490000D01*
X30831585Y47442381D01*
X30783966Y47347143D01*
X30783966Y47251905D01*
X30831585Y47109048D01*
X31403013Y46537620D01*
X30783966Y46537620D01*
X29831585Y46537620D02*
X30403013Y46537620D01*
X30117299Y46537620D02*
X30117299Y47537620D01*
X30212537Y47394762D01*
X30307775Y47299524D01*
X30403013Y47251905D01*
%TO.C,R22*%
X27196347Y46537620D02*
X27529680Y47013810D01*
X27767775Y46537620D02*
X27767775Y47537620D01*
X27386823Y47537620D01*
X27291585Y47490000D01*
X27243966Y47442381D01*
X27196347Y47347143D01*
X27196347Y47204286D01*
X27243966Y47109048D01*
X27291585Y47061429D01*
X27386823Y47013810D01*
X27767775Y47013810D01*
X26815394Y47442381D02*
X26767775Y47490000D01*
X26672537Y47537620D01*
X26434442Y47537620D01*
X26339204Y47490000D01*
X26291585Y47442381D01*
X26243966Y47347143D01*
X26243966Y47251905D01*
X26291585Y47109048D01*
X26863013Y46537620D01*
X26243966Y46537620D01*
X25863013Y47442381D02*
X25815394Y47490000D01*
X25720156Y47537620D01*
X25482061Y47537620D01*
X25386823Y47490000D01*
X25339204Y47442381D01*
X25291585Y47347143D01*
X25291585Y47251905D01*
X25339204Y47109048D01*
X25910632Y46537620D01*
X25291585Y46537620D01*
%TO.C,TP1*%
X18115870Y53845415D02*
X18115870Y53273987D01*
X19115870Y53559701D02*
X18115870Y53559701D01*
X19115870Y52940653D02*
X18115870Y52940653D01*
X18115870Y52559701D01*
X18163490Y52464463D01*
X18211109Y52416844D01*
X18306347Y52369225D01*
X18449204Y52369225D01*
X18544442Y52416844D01*
X18592061Y52464463D01*
X18639680Y52559701D01*
X18639680Y52940653D01*
X19115870Y51416844D02*
X19115870Y51988272D01*
X19115870Y51702558D02*
X18115870Y51702558D01*
X18258728Y51797796D01*
X18353966Y51893034D01*
X18401585Y51988272D01*
%TO.C,TP2*%
X16845870Y53845415D02*
X16845870Y53273987D01*
X17845870Y53559701D02*
X16845870Y53559701D01*
X17845870Y52940653D02*
X16845870Y52940653D01*
X16845870Y52559701D01*
X16893490Y52464463D01*
X16941109Y52416844D01*
X17036347Y52369225D01*
X17179204Y52369225D01*
X17274442Y52416844D01*
X17322061Y52464463D01*
X17369680Y52559701D01*
X17369680Y52940653D01*
X16941109Y51988272D02*
X16893490Y51940653D01*
X16845870Y51845415D01*
X16845870Y51607320D01*
X16893490Y51512082D01*
X16941109Y51464463D01*
X17036347Y51416844D01*
X17131585Y51416844D01*
X17274442Y51464463D01*
X17845870Y52035891D01*
X17845870Y51416844D01*
%TO.C,JP2*%
X41870380Y39187334D02*
X42584666Y39187334D01*
X42727523Y39234953D01*
X42822761Y39330191D01*
X42870380Y39473048D01*
X42870380Y39568286D01*
X42870380Y38711143D02*
X41870380Y38711143D01*
X41870380Y38330191D01*
X41918000Y38234953D01*
X41965619Y38187334D01*
X42060857Y38139715D01*
X42203714Y38139715D01*
X42298952Y38187334D01*
X42346571Y38234953D01*
X42394190Y38330191D01*
X42394190Y38711143D01*
X41965619Y37758762D02*
X41918000Y37711143D01*
X41870380Y37615905D01*
X41870380Y37377810D01*
X41918000Y37282572D01*
X41965619Y37234953D01*
X42060857Y37187334D01*
X42156095Y37187334D01*
X42298952Y37234953D01*
X42870380Y37806381D01*
X42870380Y37187334D01*
X43775380Y41287334D02*
X43775380Y40668286D01*
X44156333Y41001620D01*
X44156333Y40858762D01*
X44203952Y40763524D01*
X44251571Y40715905D01*
X44346809Y40668286D01*
X44584904Y40668286D01*
X44680142Y40715905D01*
X44727761Y40763524D01*
X44775380Y40858762D01*
X44775380Y41144477D01*
X44727761Y41239715D01*
X44680142Y41287334D01*
X44775380Y35468286D02*
X44775380Y36039715D01*
X44775380Y35754000D02*
X43775380Y35754000D01*
X43918238Y35849239D01*
X44013476Y35944477D01*
X44061095Y36039715D01*
%TO.C,C23*%
X43838857Y27750858D02*
X43886476Y27703239D01*
X44029333Y27655620D01*
X44124571Y27655620D01*
X44267428Y27703239D01*
X44362666Y27798477D01*
X44410285Y27893715D01*
X44457904Y28084191D01*
X44457904Y28227048D01*
X44410285Y28417524D01*
X44362666Y28512762D01*
X44267428Y28608000D01*
X44124571Y28655620D01*
X44029333Y28655620D01*
X43886476Y28608000D01*
X43838857Y28560381D01*
X43457904Y28560381D02*
X43410285Y28608000D01*
X43315047Y28655620D01*
X43076952Y28655620D01*
X42981714Y28608000D01*
X42934095Y28560381D01*
X42886476Y28465143D01*
X42886476Y28369905D01*
X42934095Y28227048D01*
X43505523Y27655620D01*
X42886476Y27655620D01*
X42553142Y28655620D02*
X41934095Y28655620D01*
X42267428Y28274667D01*
X42124571Y28274667D01*
X42029333Y28227048D01*
X41981714Y28179429D01*
X41934095Y28084191D01*
X41934095Y27846096D01*
X41981714Y27750858D01*
X42029333Y27703239D01*
X42124571Y27655620D01*
X42410285Y27655620D01*
X42505523Y27703239D01*
X42553142Y27750858D01*
%TO.C,C11*%
X53850347Y27588368D02*
X53897966Y27540749D01*
X54040823Y27493130D01*
X54136061Y27493130D01*
X54278918Y27540749D01*
X54374156Y27635987D01*
X54421775Y27731225D01*
X54469394Y27921701D01*
X54469394Y28064558D01*
X54421775Y28255034D01*
X54374156Y28350272D01*
X54278918Y28445510D01*
X54136061Y28493130D01*
X54040823Y28493130D01*
X53897966Y28445510D01*
X53850347Y28397891D01*
X52897966Y27493130D02*
X53469394Y27493130D01*
X53183680Y27493130D02*
X53183680Y28493130D01*
X53278918Y28350272D01*
X53374156Y28255034D01*
X53469394Y28207415D01*
X51945585Y27493130D02*
X52517013Y27493130D01*
X52231299Y27493130D02*
X52231299Y28493130D01*
X52326537Y28350272D01*
X52421775Y28255034D01*
X52517013Y28207415D01*
%TO.C,C14*%
X159869142Y35186858D02*
X159916761Y35234477D01*
X159964380Y35377334D01*
X159964380Y35472572D01*
X159916761Y35615429D01*
X159821523Y35710667D01*
X159726285Y35758286D01*
X159535809Y35805905D01*
X159392952Y35805905D01*
X159202476Y35758286D01*
X159107238Y35710667D01*
X159012000Y35615429D01*
X158964380Y35472572D01*
X158964380Y35377334D01*
X159012000Y35234477D01*
X159059619Y35186858D01*
X159964380Y34234477D02*
X159964380Y34805905D01*
X159964380Y34520191D02*
X158964380Y34520191D01*
X159107238Y34615429D01*
X159202476Y34710667D01*
X159250095Y34805905D01*
X159297714Y33377334D02*
X159964380Y33377334D01*
X158916761Y33615429D02*
X159631047Y33853524D01*
X159631047Y33234477D01*
%TO.C,C15*%
X197969142Y35186858D02*
X198016761Y35234477D01*
X198064380Y35377334D01*
X198064380Y35472572D01*
X198016761Y35615429D01*
X197921523Y35710667D01*
X197826285Y35758286D01*
X197635809Y35805905D01*
X197492952Y35805905D01*
X197302476Y35758286D01*
X197207238Y35710667D01*
X197112000Y35615429D01*
X197064380Y35472572D01*
X197064380Y35377334D01*
X197112000Y35234477D01*
X197159619Y35186858D01*
X198064380Y34234477D02*
X198064380Y34805905D01*
X198064380Y34520191D02*
X197064380Y34520191D01*
X197207238Y34615429D01*
X197302476Y34710667D01*
X197350095Y34805905D01*
X197064380Y33329715D02*
X197064380Y33805905D01*
X197540571Y33853524D01*
X197492952Y33805905D01*
X197445333Y33710667D01*
X197445333Y33472572D01*
X197492952Y33377334D01*
X197540571Y33329715D01*
X197635809Y33282096D01*
X197873904Y33282096D01*
X197969142Y33329715D01*
X198016761Y33377334D01*
X198064380Y33472572D01*
X198064380Y33710667D01*
X198016761Y33805905D01*
X197969142Y33853524D01*
%TO.C,C16*%
X94845142Y36202858D02*
X94892761Y36250477D01*
X94940380Y36393334D01*
X94940380Y36488572D01*
X94892761Y36631429D01*
X94797523Y36726667D01*
X94702285Y36774286D01*
X94511809Y36821905D01*
X94368952Y36821905D01*
X94178476Y36774286D01*
X94083238Y36726667D01*
X93988000Y36631429D01*
X93940380Y36488572D01*
X93940380Y36393334D01*
X93988000Y36250477D01*
X94035619Y36202858D01*
X94940380Y35250477D02*
X94940380Y35821905D01*
X94940380Y35536191D02*
X93940380Y35536191D01*
X94083238Y35631429D01*
X94178476Y35726667D01*
X94226095Y35821905D01*
X93940380Y34393334D02*
X93940380Y34583810D01*
X93988000Y34679048D01*
X94035619Y34726667D01*
X94178476Y34821905D01*
X94368952Y34869524D01*
X94749904Y34869524D01*
X94845142Y34821905D01*
X94892761Y34774286D01*
X94940380Y34679048D01*
X94940380Y34488572D01*
X94892761Y34393334D01*
X94845142Y34345715D01*
X94749904Y34298096D01*
X94511809Y34298096D01*
X94416571Y34345715D01*
X94368952Y34393334D01*
X94321333Y34488572D01*
X94321333Y34679048D01*
X94368952Y34774286D01*
X94416571Y34821905D01*
X94511809Y34869524D01*
%TO.C,C20*%
X161647142Y35186858D02*
X161694761Y35234477D01*
X161742380Y35377334D01*
X161742380Y35472572D01*
X161694761Y35615429D01*
X161599523Y35710667D01*
X161504285Y35758286D01*
X161313809Y35805905D01*
X161170952Y35805905D01*
X160980476Y35758286D01*
X160885238Y35710667D01*
X160790000Y35615429D01*
X160742380Y35472572D01*
X160742380Y35377334D01*
X160790000Y35234477D01*
X160837619Y35186858D01*
X160837619Y34805905D02*
X160790000Y34758286D01*
X160742380Y34663048D01*
X160742380Y34424953D01*
X160790000Y34329715D01*
X160837619Y34282096D01*
X160932857Y34234477D01*
X161028095Y34234477D01*
X161170952Y34282096D01*
X161742380Y34853524D01*
X161742380Y34234477D01*
X160742380Y33615429D02*
X160742380Y33520191D01*
X160790000Y33424953D01*
X160837619Y33377334D01*
X160932857Y33329715D01*
X161123333Y33282096D01*
X161361428Y33282096D01*
X161551904Y33329715D01*
X161647142Y33377334D01*
X161694761Y33424953D01*
X161742380Y33520191D01*
X161742380Y33615429D01*
X161694761Y33710667D01*
X161647142Y33758286D01*
X161551904Y33805905D01*
X161361428Y33853524D01*
X161123333Y33853524D01*
X160932857Y33805905D01*
X160837619Y33758286D01*
X160790000Y33710667D01*
X160742380Y33615429D01*
%TO.C,C21*%
X199620142Y35186858D02*
X199667761Y35234477D01*
X199715380Y35377334D01*
X199715380Y35472572D01*
X199667761Y35615429D01*
X199572523Y35710667D01*
X199477285Y35758286D01*
X199286809Y35805905D01*
X199143952Y35805905D01*
X198953476Y35758286D01*
X198858238Y35710667D01*
X198763000Y35615429D01*
X198715380Y35472572D01*
X198715380Y35377334D01*
X198763000Y35234477D01*
X198810619Y35186858D01*
X198810619Y34805905D02*
X198763000Y34758286D01*
X198715380Y34663048D01*
X198715380Y34424953D01*
X198763000Y34329715D01*
X198810619Y34282096D01*
X198905857Y34234477D01*
X199001095Y34234477D01*
X199143952Y34282096D01*
X199715380Y34853524D01*
X199715380Y34234477D01*
X199715380Y33282096D02*
X199715380Y33853524D01*
X199715380Y33567810D02*
X198715380Y33567810D01*
X198858238Y33663048D01*
X198953476Y33758286D01*
X199001095Y33853524D01*
%TO.C,C35*%
X96115142Y36202858D02*
X96162761Y36250477D01*
X96210380Y36393334D01*
X96210380Y36488572D01*
X96162761Y36631429D01*
X96067523Y36726667D01*
X95972285Y36774286D01*
X95781809Y36821905D01*
X95638952Y36821905D01*
X95448476Y36774286D01*
X95353238Y36726667D01*
X95258000Y36631429D01*
X95210380Y36488572D01*
X95210380Y36393334D01*
X95258000Y36250477D01*
X95305619Y36202858D01*
X95210380Y35869524D02*
X95210380Y35250477D01*
X95591333Y35583810D01*
X95591333Y35440953D01*
X95638952Y35345715D01*
X95686571Y35298096D01*
X95781809Y35250477D01*
X96019904Y35250477D01*
X96115142Y35298096D01*
X96162761Y35345715D01*
X96210380Y35440953D01*
X96210380Y35726667D01*
X96162761Y35821905D01*
X96115142Y35869524D01*
X95210380Y34345715D02*
X95210380Y34821905D01*
X95686571Y34869524D01*
X95638952Y34821905D01*
X95591333Y34726667D01*
X95591333Y34488572D01*
X95638952Y34393334D01*
X95686571Y34345715D01*
X95781809Y34298096D01*
X96019904Y34298096D01*
X96115142Y34345715D01*
X96162761Y34393334D01*
X96210380Y34488572D01*
X96210380Y34726667D01*
X96162761Y34821905D01*
X96115142Y34869524D01*
%TO.C,C36*%
X150979142Y40604858D02*
X151026761Y40652477D01*
X151074380Y40795334D01*
X151074380Y40890572D01*
X151026761Y41033429D01*
X150931523Y41128667D01*
X150836285Y41176286D01*
X150645809Y41223905D01*
X150502952Y41223905D01*
X150312476Y41176286D01*
X150217238Y41128667D01*
X150122000Y41033429D01*
X150074380Y40890572D01*
X150074380Y40795334D01*
X150122000Y40652477D01*
X150169619Y40604858D01*
X150074380Y40271524D02*
X150074380Y39652477D01*
X150455333Y39985810D01*
X150455333Y39842953D01*
X150502952Y39747715D01*
X150550571Y39700096D01*
X150645809Y39652477D01*
X150883904Y39652477D01*
X150979142Y39700096D01*
X151026761Y39747715D01*
X151074380Y39842953D01*
X151074380Y40128667D01*
X151026761Y40223905D01*
X150979142Y40271524D01*
X150074380Y38795334D02*
X150074380Y38985810D01*
X150122000Y39081048D01*
X150169619Y39128667D01*
X150312476Y39223905D01*
X150502952Y39271524D01*
X150883904Y39271524D01*
X150979142Y39223905D01*
X151026761Y39176286D01*
X151074380Y39081048D01*
X151074380Y38890572D01*
X151026761Y38795334D01*
X150979142Y38747715D01*
X150883904Y38700096D01*
X150645809Y38700096D01*
X150550571Y38747715D01*
X150502952Y38795334D01*
X150455333Y38890572D01*
X150455333Y39081048D01*
X150502952Y39176286D01*
X150550571Y39223905D01*
X150645809Y39271524D01*
%TO.C,C37*%
X188952142Y40559358D02*
X188999761Y40606977D01*
X189047380Y40749834D01*
X189047380Y40845072D01*
X188999761Y40987929D01*
X188904523Y41083167D01*
X188809285Y41130786D01*
X188618809Y41178405D01*
X188475952Y41178405D01*
X188285476Y41130786D01*
X188190238Y41083167D01*
X188095000Y40987929D01*
X188047380Y40845072D01*
X188047380Y40749834D01*
X188095000Y40606977D01*
X188142619Y40559358D01*
X188047380Y40226024D02*
X188047380Y39606977D01*
X188428333Y39940310D01*
X188428333Y39797453D01*
X188475952Y39702215D01*
X188523571Y39654596D01*
X188618809Y39606977D01*
X188856904Y39606977D01*
X188952142Y39654596D01*
X188999761Y39702215D01*
X189047380Y39797453D01*
X189047380Y40083167D01*
X188999761Y40178405D01*
X188952142Y40226024D01*
X188047380Y39273643D02*
X188047380Y38606977D01*
X189047380Y39035548D01*
%TO.C,C38*%
X93575142Y36202858D02*
X93622761Y36250477D01*
X93670380Y36393334D01*
X93670380Y36488572D01*
X93622761Y36631429D01*
X93527523Y36726667D01*
X93432285Y36774286D01*
X93241809Y36821905D01*
X93098952Y36821905D01*
X92908476Y36774286D01*
X92813238Y36726667D01*
X92718000Y36631429D01*
X92670380Y36488572D01*
X92670380Y36393334D01*
X92718000Y36250477D01*
X92765619Y36202858D01*
X92670380Y35869524D02*
X92670380Y35250477D01*
X93051333Y35583810D01*
X93051333Y35440953D01*
X93098952Y35345715D01*
X93146571Y35298096D01*
X93241809Y35250477D01*
X93479904Y35250477D01*
X93575142Y35298096D01*
X93622761Y35345715D01*
X93670380Y35440953D01*
X93670380Y35726667D01*
X93622761Y35821905D01*
X93575142Y35869524D01*
X93098952Y34679048D02*
X93051333Y34774286D01*
X93003714Y34821905D01*
X92908476Y34869524D01*
X92860857Y34869524D01*
X92765619Y34821905D01*
X92718000Y34774286D01*
X92670380Y34679048D01*
X92670380Y34488572D01*
X92718000Y34393334D01*
X92765619Y34345715D01*
X92860857Y34298096D01*
X92908476Y34298096D01*
X93003714Y34345715D01*
X93051333Y34393334D01*
X93098952Y34488572D01*
X93098952Y34679048D01*
X93146571Y34774286D01*
X93194190Y34821905D01*
X93289428Y34869524D01*
X93479904Y34869524D01*
X93575142Y34821905D01*
X93622761Y34774286D01*
X93670380Y34679048D01*
X93670380Y34488572D01*
X93622761Y34393334D01*
X93575142Y34345715D01*
X93479904Y34298096D01*
X93289428Y34298096D01*
X93194190Y34345715D01*
X93146571Y34393334D01*
X93098952Y34488572D01*
%TO.C,C39*%
X92305142Y36202858D02*
X92352761Y36250477D01*
X92400380Y36393334D01*
X92400380Y36488572D01*
X92352761Y36631429D01*
X92257523Y36726667D01*
X92162285Y36774286D01*
X91971809Y36821905D01*
X91828952Y36821905D01*
X91638476Y36774286D01*
X91543238Y36726667D01*
X91448000Y36631429D01*
X91400380Y36488572D01*
X91400380Y36393334D01*
X91448000Y36250477D01*
X91495619Y36202858D01*
X91400380Y35869524D02*
X91400380Y35250477D01*
X91781333Y35583810D01*
X91781333Y35440953D01*
X91828952Y35345715D01*
X91876571Y35298096D01*
X91971809Y35250477D01*
X92209904Y35250477D01*
X92305142Y35298096D01*
X92352761Y35345715D01*
X92400380Y35440953D01*
X92400380Y35726667D01*
X92352761Y35821905D01*
X92305142Y35869524D01*
X92400380Y34774286D02*
X92400380Y34583810D01*
X92352761Y34488572D01*
X92305142Y34440953D01*
X92162285Y34345715D01*
X91971809Y34298096D01*
X91590857Y34298096D01*
X91495619Y34345715D01*
X91448000Y34393334D01*
X91400380Y34488572D01*
X91400380Y34679048D01*
X91448000Y34774286D01*
X91495619Y34821905D01*
X91590857Y34869524D01*
X91828952Y34869524D01*
X91924190Y34821905D01*
X91971809Y34774286D01*
X92019428Y34679048D01*
X92019428Y34488572D01*
X91971809Y34393334D01*
X91924190Y34345715D01*
X91828952Y34298096D01*
%TO.C,C40*%
X111863142Y41448358D02*
X111910761Y41495977D01*
X111958380Y41638834D01*
X111958380Y41734072D01*
X111910761Y41876929D01*
X111815523Y41972167D01*
X111720285Y42019786D01*
X111529809Y42067405D01*
X111386952Y42067405D01*
X111196476Y42019786D01*
X111101238Y41972167D01*
X111006000Y41876929D01*
X110958380Y41734072D01*
X110958380Y41638834D01*
X111006000Y41495977D01*
X111053619Y41448358D01*
X111291714Y40591215D02*
X111958380Y40591215D01*
X110910761Y40829310D02*
X111625047Y41067405D01*
X111625047Y40448358D01*
X110958380Y39876929D02*
X110958380Y39781691D01*
X111006000Y39686453D01*
X111053619Y39638834D01*
X111148857Y39591215D01*
X111339333Y39543596D01*
X111577428Y39543596D01*
X111767904Y39591215D01*
X111863142Y39638834D01*
X111910761Y39686453D01*
X111958380Y39781691D01*
X111958380Y39876929D01*
X111910761Y39972167D01*
X111863142Y40019786D01*
X111767904Y40067405D01*
X111577428Y40115024D01*
X111339333Y40115024D01*
X111148857Y40067405D01*
X111053619Y40019786D01*
X111006000Y39972167D01*
X110958380Y39876929D01*
%TO.C,C41*%
X148439142Y41155858D02*
X148486761Y41203477D01*
X148534380Y41346334D01*
X148534380Y41441572D01*
X148486761Y41584429D01*
X148391523Y41679667D01*
X148296285Y41727286D01*
X148105809Y41774905D01*
X147962952Y41774905D01*
X147772476Y41727286D01*
X147677238Y41679667D01*
X147582000Y41584429D01*
X147534380Y41441572D01*
X147534380Y41346334D01*
X147582000Y41203477D01*
X147629619Y41155858D01*
X147867714Y40298715D02*
X148534380Y40298715D01*
X147486761Y40536810D02*
X148201047Y40774905D01*
X148201047Y40155858D01*
X148534380Y39251096D02*
X148534380Y39822524D01*
X148534380Y39536810D02*
X147534380Y39536810D01*
X147677238Y39632048D01*
X147772476Y39727286D01*
X147820095Y39822524D01*
%TO.C,C42*%
X186539142Y41067358D02*
X186586761Y41114977D01*
X186634380Y41257834D01*
X186634380Y41353072D01*
X186586761Y41495929D01*
X186491523Y41591167D01*
X186396285Y41638786D01*
X186205809Y41686405D01*
X186062952Y41686405D01*
X185872476Y41638786D01*
X185777238Y41591167D01*
X185682000Y41495929D01*
X185634380Y41353072D01*
X185634380Y41257834D01*
X185682000Y41114977D01*
X185729619Y41067358D01*
X185967714Y40210215D02*
X186634380Y40210215D01*
X185586761Y40448310D02*
X186301047Y40686405D01*
X186301047Y40067358D01*
X185729619Y39734024D02*
X185682000Y39686405D01*
X185634380Y39591167D01*
X185634380Y39353072D01*
X185682000Y39257834D01*
X185729619Y39210215D01*
X185824857Y39162596D01*
X185920095Y39162596D01*
X186062952Y39210215D01*
X186634380Y39781643D01*
X186634380Y39162596D01*
%TO.C,R13*%
X161869380Y43711858D02*
X161393190Y44045191D01*
X161869380Y44283286D02*
X160869380Y44283286D01*
X160869380Y43902334D01*
X160917000Y43807096D01*
X160964619Y43759477D01*
X161059857Y43711858D01*
X161202714Y43711858D01*
X161297952Y43759477D01*
X161345571Y43807096D01*
X161393190Y43902334D01*
X161393190Y44283286D01*
X161869380Y42759477D02*
X161869380Y43330905D01*
X161869380Y43045191D02*
X160869380Y43045191D01*
X161012238Y43140429D01*
X161107476Y43235667D01*
X161155095Y43330905D01*
X160869380Y42426143D02*
X160869380Y41807096D01*
X161250333Y42140429D01*
X161250333Y41997572D01*
X161297952Y41902334D01*
X161345571Y41854715D01*
X161440809Y41807096D01*
X161678904Y41807096D01*
X161774142Y41854715D01*
X161821761Y41902334D01*
X161869380Y41997572D01*
X161869380Y42283286D01*
X161821761Y42378524D01*
X161774142Y42426143D01*
%TO.C,R16*%
X159583380Y43711858D02*
X159107190Y44045191D01*
X159583380Y44283286D02*
X158583380Y44283286D01*
X158583380Y43902334D01*
X158631000Y43807096D01*
X158678619Y43759477D01*
X158773857Y43711858D01*
X158916714Y43711858D01*
X159011952Y43759477D01*
X159059571Y43807096D01*
X159107190Y43902334D01*
X159107190Y44283286D01*
X159583380Y42759477D02*
X159583380Y43330905D01*
X159583380Y43045191D02*
X158583380Y43045191D01*
X158726238Y43140429D01*
X158821476Y43235667D01*
X158869095Y43330905D01*
X158583380Y41902334D02*
X158583380Y42092810D01*
X158631000Y42188048D01*
X158678619Y42235667D01*
X158821476Y42330905D01*
X159011952Y42378524D01*
X159392904Y42378524D01*
X159488142Y42330905D01*
X159535761Y42283286D01*
X159583380Y42188048D01*
X159583380Y41997572D01*
X159535761Y41902334D01*
X159488142Y41854715D01*
X159392904Y41807096D01*
X159154809Y41807096D01*
X159059571Y41854715D01*
X159011952Y41902334D01*
X158964333Y41997572D01*
X158964333Y42188048D01*
X159011952Y42283286D01*
X159059571Y42330905D01*
X159154809Y42378524D01*
%TO.C,R17*%
X199715380Y43679858D02*
X199239190Y44013191D01*
X199715380Y44251286D02*
X198715380Y44251286D01*
X198715380Y43870334D01*
X198763000Y43775096D01*
X198810619Y43727477D01*
X198905857Y43679858D01*
X199048714Y43679858D01*
X199143952Y43727477D01*
X199191571Y43775096D01*
X199239190Y43870334D01*
X199239190Y44251286D01*
X199715380Y42727477D02*
X199715380Y43298905D01*
X199715380Y43013191D02*
X198715380Y43013191D01*
X198858238Y43108429D01*
X198953476Y43203667D01*
X199001095Y43298905D01*
X198715380Y42394143D02*
X198715380Y41727477D01*
X199715380Y42156048D01*
%TO.C,R30*%
X197683380Y43679858D02*
X197207190Y44013191D01*
X197683380Y44251286D02*
X196683380Y44251286D01*
X196683380Y43870334D01*
X196731000Y43775096D01*
X196778619Y43727477D01*
X196873857Y43679858D01*
X197016714Y43679858D01*
X197111952Y43727477D01*
X197159571Y43775096D01*
X197207190Y43870334D01*
X197207190Y44251286D01*
X196683380Y43346524D02*
X196683380Y42727477D01*
X197064333Y43060810D01*
X197064333Y42917953D01*
X197111952Y42822715D01*
X197159571Y42775096D01*
X197254809Y42727477D01*
X197492904Y42727477D01*
X197588142Y42775096D01*
X197635761Y42822715D01*
X197683380Y42917953D01*
X197683380Y43203667D01*
X197635761Y43298905D01*
X197588142Y43346524D01*
X196683380Y42108429D02*
X196683380Y42013191D01*
X196731000Y41917953D01*
X196778619Y41870334D01*
X196873857Y41822715D01*
X197064333Y41775096D01*
X197302428Y41775096D01*
X197492904Y41822715D01*
X197588142Y41870334D01*
X197635761Y41917953D01*
X197683380Y42013191D01*
X197683380Y42108429D01*
X197635761Y42203667D01*
X197588142Y42251286D01*
X197492904Y42298905D01*
X197302428Y42346524D01*
X197064333Y42346524D01*
X196873857Y42298905D01*
X196778619Y42251286D01*
X196731000Y42203667D01*
X196683380Y42108429D01*
%TO.C,R31*%
X98750380Y36202858D02*
X98274190Y36536191D01*
X98750380Y36774286D02*
X97750380Y36774286D01*
X97750380Y36393334D01*
X97798000Y36298096D01*
X97845619Y36250477D01*
X97940857Y36202858D01*
X98083714Y36202858D01*
X98178952Y36250477D01*
X98226571Y36298096D01*
X98274190Y36393334D01*
X98274190Y36774286D01*
X97750380Y35869524D02*
X97750380Y35250477D01*
X98131333Y35583810D01*
X98131333Y35440953D01*
X98178952Y35345715D01*
X98226571Y35298096D01*
X98321809Y35250477D01*
X98559904Y35250477D01*
X98655142Y35298096D01*
X98702761Y35345715D01*
X98750380Y35440953D01*
X98750380Y35726667D01*
X98702761Y35821905D01*
X98655142Y35869524D01*
X98750380Y34298096D02*
X98750380Y34869524D01*
X98750380Y34583810D02*
X97750380Y34583810D01*
X97893238Y34679048D01*
X97988476Y34774286D01*
X98036095Y34869524D01*
%TO.C,R32*%
X97480380Y36202858D02*
X97004190Y36536191D01*
X97480380Y36774286D02*
X96480380Y36774286D01*
X96480380Y36393334D01*
X96528000Y36298096D01*
X96575619Y36250477D01*
X96670857Y36202858D01*
X96813714Y36202858D01*
X96908952Y36250477D01*
X96956571Y36298096D01*
X97004190Y36393334D01*
X97004190Y36774286D01*
X96480380Y35869524D02*
X96480380Y35250477D01*
X96861333Y35583810D01*
X96861333Y35440953D01*
X96908952Y35345715D01*
X96956571Y35298096D01*
X97051809Y35250477D01*
X97289904Y35250477D01*
X97385142Y35298096D01*
X97432761Y35345715D01*
X97480380Y35440953D01*
X97480380Y35726667D01*
X97432761Y35821905D01*
X97385142Y35869524D01*
X96575619Y34869524D02*
X96528000Y34821905D01*
X96480380Y34726667D01*
X96480380Y34488572D01*
X96528000Y34393334D01*
X96575619Y34345715D01*
X96670857Y34298096D01*
X96766095Y34298096D01*
X96908952Y34345715D01*
X97480380Y34917143D01*
X97480380Y34298096D01*
%TO.C,C8*%
X124055142Y34710667D02*
X124102761Y34758286D01*
X124150380Y34901143D01*
X124150380Y34996381D01*
X124102761Y35139239D01*
X124007523Y35234477D01*
X123912285Y35282096D01*
X123721809Y35329715D01*
X123578952Y35329715D01*
X123388476Y35282096D01*
X123293238Y35234477D01*
X123198000Y35139239D01*
X123150380Y34996381D01*
X123150380Y34901143D01*
X123198000Y34758286D01*
X123245619Y34710667D01*
X123578952Y34139239D02*
X123531333Y34234477D01*
X123483714Y34282096D01*
X123388476Y34329715D01*
X123340857Y34329715D01*
X123245619Y34282096D01*
X123198000Y34234477D01*
X123150380Y34139239D01*
X123150380Y33948762D01*
X123198000Y33853524D01*
X123245619Y33805905D01*
X123340857Y33758286D01*
X123388476Y33758286D01*
X123483714Y33805905D01*
X123531333Y33853524D01*
X123578952Y33948762D01*
X123578952Y34139239D01*
X123626571Y34234477D01*
X123674190Y34282096D01*
X123769428Y34329715D01*
X123959904Y34329715D01*
X124055142Y34282096D01*
X124102761Y34234477D01*
X124150380Y34139239D01*
X124150380Y33948762D01*
X124102761Y33853524D01*
X124055142Y33805905D01*
X123959904Y33758286D01*
X123769428Y33758286D01*
X123674190Y33805905D01*
X123626571Y33853524D01*
X123578952Y33948762D01*
%TO.C,C9*%
X122404142Y34710667D02*
X122451761Y34758286D01*
X122499380Y34901143D01*
X122499380Y34996381D01*
X122451761Y35139239D01*
X122356523Y35234477D01*
X122261285Y35282096D01*
X122070809Y35329715D01*
X121927952Y35329715D01*
X121737476Y35282096D01*
X121642238Y35234477D01*
X121547000Y35139239D01*
X121499380Y34996381D01*
X121499380Y34901143D01*
X121547000Y34758286D01*
X121594619Y34710667D01*
X122499380Y34234477D02*
X122499380Y34044000D01*
X122451761Y33948762D01*
X122404142Y33901143D01*
X122261285Y33805905D01*
X122070809Y33758286D01*
X121689857Y33758286D01*
X121594619Y33805905D01*
X121547000Y33853524D01*
X121499380Y33948762D01*
X121499380Y34139239D01*
X121547000Y34234477D01*
X121594619Y34282096D01*
X121689857Y34329715D01*
X121927952Y34329715D01*
X122023190Y34282096D01*
X122070809Y34234477D01*
X122118428Y34139239D01*
X122118428Y33948762D01*
X122070809Y33853524D01*
X122023190Y33805905D01*
X121927952Y33758286D01*
%TO.C,C10*%
X114276142Y40901858D02*
X114323761Y40949477D01*
X114371380Y41092334D01*
X114371380Y41187572D01*
X114323761Y41330429D01*
X114228523Y41425667D01*
X114133285Y41473286D01*
X113942809Y41520905D01*
X113799952Y41520905D01*
X113609476Y41473286D01*
X113514238Y41425667D01*
X113419000Y41330429D01*
X113371380Y41187572D01*
X113371380Y41092334D01*
X113419000Y40949477D01*
X113466619Y40901858D01*
X114371380Y39949477D02*
X114371380Y40520905D01*
X114371380Y40235191D02*
X113371380Y40235191D01*
X113514238Y40330429D01*
X113609476Y40425667D01*
X113657095Y40520905D01*
X113371380Y39330429D02*
X113371380Y39235191D01*
X113419000Y39139953D01*
X113466619Y39092334D01*
X113561857Y39044715D01*
X113752333Y38997096D01*
X113990428Y38997096D01*
X114180904Y39044715D01*
X114276142Y39092334D01*
X114323761Y39139953D01*
X114371380Y39235191D01*
X114371380Y39330429D01*
X114323761Y39425667D01*
X114276142Y39473286D01*
X114180904Y39520905D01*
X113990428Y39568524D01*
X113752333Y39568524D01*
X113561857Y39520905D01*
X113466619Y39473286D01*
X113419000Y39425667D01*
X113371380Y39330429D01*
%TO.C,C12*%
X100589142Y41769358D02*
X100636761Y41816977D01*
X100684380Y41959834D01*
X100684380Y42055072D01*
X100636761Y42197929D01*
X100541523Y42293167D01*
X100446285Y42340786D01*
X100255809Y42388405D01*
X100112952Y42388405D01*
X99922476Y42340786D01*
X99827238Y42293167D01*
X99732000Y42197929D01*
X99684380Y42055072D01*
X99684380Y41959834D01*
X99732000Y41816977D01*
X99779619Y41769358D01*
X100684380Y40816977D02*
X100684380Y41388405D01*
X100684380Y41102691D02*
X99684380Y41102691D01*
X99827238Y41197929D01*
X99922476Y41293167D01*
X99970095Y41388405D01*
X99779619Y40436024D02*
X99732000Y40388405D01*
X99684380Y40293167D01*
X99684380Y40055072D01*
X99732000Y39959834D01*
X99779619Y39912215D01*
X99874857Y39864596D01*
X99970095Y39864596D01*
X100112952Y39912215D01*
X100684380Y40483643D01*
X100684380Y39864596D01*
%TO.C,R12*%
X123134380Y43695858D02*
X122658190Y44029191D01*
X123134380Y44267286D02*
X122134380Y44267286D01*
X122134380Y43886334D01*
X122182000Y43791096D01*
X122229619Y43743477D01*
X122324857Y43695858D01*
X122467714Y43695858D01*
X122562952Y43743477D01*
X122610571Y43791096D01*
X122658190Y43886334D01*
X122658190Y44267286D01*
X123134380Y42743477D02*
X123134380Y43314905D01*
X123134380Y43029191D02*
X122134380Y43029191D01*
X122277238Y43124429D01*
X122372476Y43219667D01*
X122420095Y43314905D01*
X122229619Y42362524D02*
X122182000Y42314905D01*
X122134380Y42219667D01*
X122134380Y41981572D01*
X122182000Y41886334D01*
X122229619Y41838715D01*
X122324857Y41791096D01*
X122420095Y41791096D01*
X122562952Y41838715D01*
X123134380Y42410143D01*
X123134380Y41791096D01*
%TO.C,R29*%
X120848380Y43695858D02*
X120372190Y44029191D01*
X120848380Y44267286D02*
X119848380Y44267286D01*
X119848380Y43886334D01*
X119896000Y43791096D01*
X119943619Y43743477D01*
X120038857Y43695858D01*
X120181714Y43695858D01*
X120276952Y43743477D01*
X120324571Y43791096D01*
X120372190Y43886334D01*
X120372190Y44267286D01*
X119943619Y43314905D02*
X119896000Y43267286D01*
X119848380Y43172048D01*
X119848380Y42933953D01*
X119896000Y42838715D01*
X119943619Y42791096D01*
X120038857Y42743477D01*
X120134095Y42743477D01*
X120276952Y42791096D01*
X120848380Y43362524D01*
X120848380Y42743477D01*
X120848380Y42267286D02*
X120848380Y42076810D01*
X120800761Y41981572D01*
X120753142Y41933953D01*
X120610285Y41838715D01*
X120419809Y41791096D01*
X120038857Y41791096D01*
X119943619Y41838715D01*
X119896000Y41886334D01*
X119848380Y41981572D01*
X119848380Y42172048D01*
X119896000Y42267286D01*
X119943619Y42314905D01*
X120038857Y42362524D01*
X120276952Y42362524D01*
X120372190Y42314905D01*
X120419809Y42267286D01*
X120467428Y42172048D01*
X120467428Y41981572D01*
X120419809Y41886334D01*
X120372190Y41838715D01*
X120276952Y41791096D01*
%TO.C,J14*%
X171208619Y25838096D02*
X171208619Y25266667D01*
X171246714Y25152381D01*
X171322904Y25076191D01*
X171437190Y25038096D01*
X171513380Y25038096D01*
X170408619Y25038096D02*
X170865761Y25038096D01*
X170637190Y25038096D02*
X170637190Y25838096D01*
X170713380Y25723810D01*
X170789571Y25647620D01*
X170865761Y25609524D01*
X169722904Y25571429D02*
X169722904Y25038096D01*
X169913380Y25876191D02*
X170103857Y25304762D01*
X169608619Y25304762D01*
%TO.C,J15*%
X209435619Y25711096D02*
X209435619Y25139667D01*
X209473714Y25025381D01*
X209549904Y24949191D01*
X209664190Y24911096D01*
X209740380Y24911096D01*
X208635619Y24911096D02*
X209092761Y24911096D01*
X208864190Y24911096D02*
X208864190Y25711096D01*
X208940380Y25596810D01*
X209016571Y25520620D01*
X209092761Y25482524D01*
X207911809Y25711096D02*
X208292761Y25711096D01*
X208330857Y25330143D01*
X208292761Y25368239D01*
X208216571Y25406334D01*
X208026095Y25406334D01*
X207949904Y25368239D01*
X207911809Y25330143D01*
X207873714Y25253953D01*
X207873714Y25063477D01*
X207911809Y24987286D01*
X207949904Y24949191D01*
X208026095Y24911096D01*
X208216571Y24911096D01*
X208292761Y24949191D01*
X208330857Y24987286D01*
%TO.C,J16*%
X95643619Y49714096D02*
X95643619Y49142667D01*
X95681714Y49028381D01*
X95757904Y48952191D01*
X95872190Y48914096D01*
X95948380Y48914096D01*
X94843619Y48914096D02*
X95300761Y48914096D01*
X95072190Y48914096D02*
X95072190Y49714096D01*
X95148380Y49599810D01*
X95224571Y49523620D01*
X95300761Y49485524D01*
X94157904Y49714096D02*
X94310285Y49714096D01*
X94386476Y49676000D01*
X94424571Y49637905D01*
X94500761Y49523620D01*
X94538857Y49371239D01*
X94538857Y49066477D01*
X94500761Y48990286D01*
X94462666Y48952191D01*
X94386476Y48914096D01*
X94234095Y48914096D01*
X94157904Y48952191D01*
X94119809Y48990286D01*
X94081714Y49066477D01*
X94081714Y49256953D01*
X94119809Y49333143D01*
X94157904Y49371239D01*
X94234095Y49409334D01*
X94386476Y49409334D01*
X94462666Y49371239D01*
X94500761Y49333143D01*
X94538857Y49256953D01*
%TO.C,J20*%
X95643619Y40062096D02*
X95643619Y39490667D01*
X95681714Y39376381D01*
X95757904Y39300191D01*
X95872190Y39262096D01*
X95948380Y39262096D01*
X95300761Y39985905D02*
X95262666Y40024000D01*
X95186476Y40062096D01*
X94996000Y40062096D01*
X94919809Y40024000D01*
X94881714Y39985905D01*
X94843619Y39909715D01*
X94843619Y39833524D01*
X94881714Y39719239D01*
X95338857Y39262096D01*
X94843619Y39262096D01*
X94348380Y40062096D02*
X94272190Y40062096D01*
X94196000Y40024000D01*
X94157904Y39985905D01*
X94119809Y39909715D01*
X94081714Y39757334D01*
X94081714Y39566858D01*
X94119809Y39414477D01*
X94157904Y39338286D01*
X94196000Y39300191D01*
X94272190Y39262096D01*
X94348380Y39262096D01*
X94424571Y39300191D01*
X94462666Y39338286D01*
X94500761Y39414477D01*
X94538857Y39566858D01*
X94538857Y39757334D01*
X94500761Y39909715D01*
X94462666Y39985905D01*
X94424571Y40024000D01*
X94348380Y40062096D01*
%TO.C,J21*%
X95643619Y24314096D02*
X95643619Y23742667D01*
X95681714Y23628381D01*
X95757904Y23552191D01*
X95872190Y23514096D01*
X95948380Y23514096D01*
X95300761Y24237905D02*
X95262666Y24276000D01*
X95186476Y24314096D01*
X94996000Y24314096D01*
X94919809Y24276000D01*
X94881714Y24237905D01*
X94843619Y24161715D01*
X94843619Y24085524D01*
X94881714Y23971239D01*
X95338857Y23514096D01*
X94843619Y23514096D01*
X94081714Y23514096D02*
X94538857Y23514096D01*
X94310285Y23514096D02*
X94310285Y24314096D01*
X94386476Y24199810D01*
X94462666Y24123620D01*
X94538857Y24085524D01*
%TO.C,J13*%
X133108619Y25838096D02*
X133108619Y25266667D01*
X133146714Y25152381D01*
X133222904Y25076191D01*
X133337190Y25038096D01*
X133413380Y25038096D01*
X132308619Y25038096D02*
X132765761Y25038096D01*
X132537190Y25038096D02*
X132537190Y25838096D01*
X132613380Y25723810D01*
X132689571Y25647620D01*
X132765761Y25609524D01*
X132041952Y25838096D02*
X131546714Y25838096D01*
X131813380Y25533334D01*
X131699095Y25533334D01*
X131622904Y25495239D01*
X131584809Y25457143D01*
X131546714Y25380953D01*
X131546714Y25190477D01*
X131584809Y25114286D01*
X131622904Y25076191D01*
X131699095Y25038096D01*
X131927666Y25038096D01*
X132003857Y25076191D01*
X132041952Y25114286D01*
%TO.C,TP3*%
X128261904Y24296620D02*
X127690476Y24296620D01*
X127976190Y23296620D02*
X127976190Y24296620D01*
X127357142Y23296620D02*
X127357142Y24296620D01*
X126976190Y24296620D01*
X126880952Y24249000D01*
X126833333Y24201381D01*
X126785714Y24106143D01*
X126785714Y23963286D01*
X126833333Y23868048D01*
X126880952Y23820429D01*
X126976190Y23772810D01*
X127357142Y23772810D01*
X126452380Y24296620D02*
X125833333Y24296620D01*
X126166666Y23915667D01*
X126023809Y23915667D01*
X125928571Y23868048D01*
X125880952Y23820429D01*
X125833333Y23725191D01*
X125833333Y23487096D01*
X125880952Y23391858D01*
X125928571Y23344239D01*
X126023809Y23296620D01*
X126309523Y23296620D01*
X126404761Y23344239D01*
X126452380Y23391858D01*
%TO.C,TP4*%
X131436904Y24296620D02*
X130865476Y24296620D01*
X131151190Y23296620D02*
X131151190Y24296620D01*
X130532142Y23296620D02*
X130532142Y24296620D01*
X130151190Y24296620D01*
X130055952Y24249000D01*
X130008333Y24201381D01*
X129960714Y24106143D01*
X129960714Y23963286D01*
X130008333Y23868048D01*
X130055952Y23820429D01*
X130151190Y23772810D01*
X130532142Y23772810D01*
X129103571Y23963286D02*
X129103571Y23296620D01*
X129341666Y24344239D02*
X129579761Y23629953D01*
X128960714Y23629953D01*
%TO.C,TP5*%
X125086904Y24296620D02*
X124515476Y24296620D01*
X124801190Y23296620D02*
X124801190Y24296620D01*
X124182142Y23296620D02*
X124182142Y24296620D01*
X123801190Y24296620D01*
X123705952Y24249000D01*
X123658333Y24201381D01*
X123610714Y24106143D01*
X123610714Y23963286D01*
X123658333Y23868048D01*
X123705952Y23820429D01*
X123801190Y23772810D01*
X124182142Y23772810D01*
X122705952Y24296620D02*
X123182142Y24296620D01*
X123229761Y23820429D01*
X123182142Y23868048D01*
X123086904Y23915667D01*
X122848809Y23915667D01*
X122753571Y23868048D01*
X122705952Y23820429D01*
X122658333Y23725191D01*
X122658333Y23487096D01*
X122705952Y23391858D01*
X122753571Y23344239D01*
X122848809Y23296620D01*
X123086904Y23296620D01*
X123182142Y23344239D01*
X123229761Y23391858D01*
%TO.C,TP6*%
X121911904Y24296620D02*
X121340476Y24296620D01*
X121626190Y23296620D02*
X121626190Y24296620D01*
X121007142Y23296620D02*
X121007142Y24296620D01*
X120626190Y24296620D01*
X120530952Y24249000D01*
X120483333Y24201381D01*
X120435714Y24106143D01*
X120435714Y23963286D01*
X120483333Y23868048D01*
X120530952Y23820429D01*
X120626190Y23772810D01*
X121007142Y23772810D01*
X119578571Y24296620D02*
X119769047Y24296620D01*
X119864285Y24249000D01*
X119911904Y24201381D01*
X120007142Y24058524D01*
X120054761Y23868048D01*
X120054761Y23487096D01*
X120007142Y23391858D01*
X119959523Y23344239D01*
X119864285Y23296620D01*
X119673809Y23296620D01*
X119578571Y23344239D01*
X119530952Y23391858D01*
X119483333Y23487096D01*
X119483333Y23725191D01*
X119530952Y23820429D01*
X119578571Y23868048D01*
X119673809Y23915667D01*
X119864285Y23915667D01*
X119959523Y23868048D01*
X120007142Y23820429D01*
X120054761Y23725191D01*
%TO.C,TP7*%
X115561904Y24296620D02*
X114990476Y24296620D01*
X115276190Y23296620D02*
X115276190Y24296620D01*
X114657142Y23296620D02*
X114657142Y24296620D01*
X114276190Y24296620D01*
X114180952Y24249000D01*
X114133333Y24201381D01*
X114085714Y24106143D01*
X114085714Y23963286D01*
X114133333Y23868048D01*
X114180952Y23820429D01*
X114276190Y23772810D01*
X114657142Y23772810D01*
X113752380Y24296620D02*
X113085714Y24296620D01*
X113514285Y23296620D01*
%TO.C,TP8*%
X118609904Y24296620D02*
X118038476Y24296620D01*
X118324190Y23296620D02*
X118324190Y24296620D01*
X117705142Y23296620D02*
X117705142Y24296620D01*
X117324190Y24296620D01*
X117228952Y24249000D01*
X117181333Y24201381D01*
X117133714Y24106143D01*
X117133714Y23963286D01*
X117181333Y23868048D01*
X117228952Y23820429D01*
X117324190Y23772810D01*
X117705142Y23772810D01*
X116562285Y23868048D02*
X116657523Y23915667D01*
X116705142Y23963286D01*
X116752761Y24058524D01*
X116752761Y24106143D01*
X116705142Y24201381D01*
X116657523Y24249000D01*
X116562285Y24296620D01*
X116371809Y24296620D01*
X116276571Y24249000D01*
X116228952Y24201381D01*
X116181333Y24106143D01*
X116181333Y24058524D01*
X116228952Y23963286D01*
X116276571Y23915667D01*
X116371809Y23868048D01*
X116562285Y23868048D01*
X116657523Y23820429D01*
X116705142Y23772810D01*
X116752761Y23677572D01*
X116752761Y23487096D01*
X116705142Y23391858D01*
X116657523Y23344239D01*
X116562285Y23296620D01*
X116371809Y23296620D01*
X116276571Y23344239D01*
X116228952Y23391858D01*
X116181333Y23487096D01*
X116181333Y23677572D01*
X116228952Y23772810D01*
X116276571Y23820429D01*
X116371809Y23868048D01*
%TO.C,TP9*%
X166742904Y24296620D02*
X166171476Y24296620D01*
X166457190Y23296620D02*
X166457190Y24296620D01*
X165838142Y23296620D02*
X165838142Y24296620D01*
X165457190Y24296620D01*
X165361952Y24249000D01*
X165314333Y24201381D01*
X165266714Y24106143D01*
X165266714Y23963286D01*
X165314333Y23868048D01*
X165361952Y23820429D01*
X165457190Y23772810D01*
X165838142Y23772810D01*
X164790523Y23296620D02*
X164600047Y23296620D01*
X164504809Y23344239D01*
X164457190Y23391858D01*
X164361952Y23534715D01*
X164314333Y23725191D01*
X164314333Y24106143D01*
X164361952Y24201381D01*
X164409571Y24249000D01*
X164504809Y24296620D01*
X164695285Y24296620D01*
X164790523Y24249000D01*
X164838142Y24201381D01*
X164885761Y24106143D01*
X164885761Y23868048D01*
X164838142Y23772810D01*
X164790523Y23725191D01*
X164695285Y23677572D01*
X164504809Y23677572D01*
X164409571Y23725191D01*
X164361952Y23772810D01*
X164314333Y23868048D01*
%TO.C,TP10*%
X171283095Y24296620D02*
X170711666Y24296620D01*
X170997380Y23296620D02*
X170997380Y24296620D01*
X170378333Y23296620D02*
X170378333Y24296620D01*
X169997380Y24296620D01*
X169902142Y24249000D01*
X169854523Y24201381D01*
X169806904Y24106143D01*
X169806904Y23963286D01*
X169854523Y23868048D01*
X169902142Y23820429D01*
X169997380Y23772810D01*
X170378333Y23772810D01*
X168854523Y23296620D02*
X169425952Y23296620D01*
X169140238Y23296620D02*
X169140238Y24296620D01*
X169235476Y24153762D01*
X169330714Y24058524D01*
X169425952Y24010905D01*
X168235476Y24296620D02*
X168140238Y24296620D01*
X168045000Y24249000D01*
X167997380Y24201381D01*
X167949761Y24106143D01*
X167902142Y23915667D01*
X167902142Y23677572D01*
X167949761Y23487096D01*
X167997380Y23391858D01*
X168045000Y23344239D01*
X168140238Y23296620D01*
X168235476Y23296620D01*
X168330714Y23344239D01*
X168378333Y23391858D01*
X168425952Y23487096D01*
X168473571Y23677572D01*
X168473571Y23915667D01*
X168425952Y24106143D01*
X168378333Y24201381D01*
X168330714Y24249000D01*
X168235476Y24296620D01*
%TO.C,TP11*%
X163790095Y24296620D02*
X163218666Y24296620D01*
X163504380Y23296620D02*
X163504380Y24296620D01*
X162885333Y23296620D02*
X162885333Y24296620D01*
X162504380Y24296620D01*
X162409142Y24249000D01*
X162361523Y24201381D01*
X162313904Y24106143D01*
X162313904Y23963286D01*
X162361523Y23868048D01*
X162409142Y23820429D01*
X162504380Y23772810D01*
X162885333Y23772810D01*
X161361523Y23296620D02*
X161932952Y23296620D01*
X161647238Y23296620D02*
X161647238Y24296620D01*
X161742476Y24153762D01*
X161837714Y24058524D01*
X161932952Y24010905D01*
X160409142Y23296620D02*
X160980571Y23296620D01*
X160694857Y23296620D02*
X160694857Y24296620D01*
X160790095Y24153762D01*
X160885333Y24058524D01*
X160980571Y24010905D01*
%TO.C,TP12*%
X160107095Y24296620D02*
X159535666Y24296620D01*
X159821380Y23296620D02*
X159821380Y24296620D01*
X159202333Y23296620D02*
X159202333Y24296620D01*
X158821380Y24296620D01*
X158726142Y24249000D01*
X158678523Y24201381D01*
X158630904Y24106143D01*
X158630904Y23963286D01*
X158678523Y23868048D01*
X158726142Y23820429D01*
X158821380Y23772810D01*
X159202333Y23772810D01*
X157678523Y23296620D02*
X158249952Y23296620D01*
X157964238Y23296620D02*
X157964238Y24296620D01*
X158059476Y24153762D01*
X158154714Y24058524D01*
X158249952Y24010905D01*
X157297571Y24201381D02*
X157249952Y24249000D01*
X157154714Y24296620D01*
X156916619Y24296620D01*
X156821380Y24249000D01*
X156773761Y24201381D01*
X156726142Y24106143D01*
X156726142Y24010905D01*
X156773761Y23868048D01*
X157345190Y23296620D01*
X156726142Y23296620D01*
%TO.C,TP13*%
X152360095Y24296620D02*
X151788666Y24296620D01*
X152074380Y23296620D02*
X152074380Y24296620D01*
X151455333Y23296620D02*
X151455333Y24296620D01*
X151074380Y24296620D01*
X150979142Y24249000D01*
X150931523Y24201381D01*
X150883904Y24106143D01*
X150883904Y23963286D01*
X150931523Y23868048D01*
X150979142Y23820429D01*
X151074380Y23772810D01*
X151455333Y23772810D01*
X149931523Y23296620D02*
X150502952Y23296620D01*
X150217238Y23296620D02*
X150217238Y24296620D01*
X150312476Y24153762D01*
X150407714Y24058524D01*
X150502952Y24010905D01*
X149598190Y24296620D02*
X148979142Y24296620D01*
X149312476Y23915667D01*
X149169619Y23915667D01*
X149074380Y23868048D01*
X149026761Y23820429D01*
X148979142Y23725191D01*
X148979142Y23487096D01*
X149026761Y23391858D01*
X149074380Y23344239D01*
X149169619Y23296620D01*
X149455333Y23296620D01*
X149550571Y23344239D01*
X149598190Y23391858D01*
%TO.C,TP15*%
X205954095Y24296620D02*
X205382666Y24296620D01*
X205668380Y23296620D02*
X205668380Y24296620D01*
X205049333Y23296620D02*
X205049333Y24296620D01*
X204668380Y24296620D01*
X204573142Y24249000D01*
X204525523Y24201381D01*
X204477904Y24106143D01*
X204477904Y23963286D01*
X204525523Y23868048D01*
X204573142Y23820429D01*
X204668380Y23772810D01*
X205049333Y23772810D01*
X203525523Y23296620D02*
X204096952Y23296620D01*
X203811238Y23296620D02*
X203811238Y24296620D01*
X203906476Y24153762D01*
X204001714Y24058524D01*
X204096952Y24010905D01*
X202620761Y24296620D02*
X203096952Y24296620D01*
X203144571Y23820429D01*
X203096952Y23868048D01*
X203001714Y23915667D01*
X202763619Y23915667D01*
X202668380Y23868048D01*
X202620761Y23820429D01*
X202573142Y23725191D01*
X202573142Y23487096D01*
X202620761Y23391858D01*
X202668380Y23344239D01*
X202763619Y23296620D01*
X203001714Y23296620D01*
X203096952Y23344239D01*
X203144571Y23391858D01*
%TO.C,TP16*%
X209637095Y24296620D02*
X209065666Y24296620D01*
X209351380Y23296620D02*
X209351380Y24296620D01*
X208732333Y23296620D02*
X208732333Y24296620D01*
X208351380Y24296620D01*
X208256142Y24249000D01*
X208208523Y24201381D01*
X208160904Y24106143D01*
X208160904Y23963286D01*
X208208523Y23868048D01*
X208256142Y23820429D01*
X208351380Y23772810D01*
X208732333Y23772810D01*
X207208523Y23296620D02*
X207779952Y23296620D01*
X207494238Y23296620D02*
X207494238Y24296620D01*
X207589476Y24153762D01*
X207684714Y24058524D01*
X207779952Y24010905D01*
X206351380Y24296620D02*
X206541857Y24296620D01*
X206637095Y24249000D01*
X206684714Y24201381D01*
X206779952Y24058524D01*
X206827571Y23868048D01*
X206827571Y23487096D01*
X206779952Y23391858D01*
X206732333Y23344239D01*
X206637095Y23296620D01*
X206446619Y23296620D01*
X206351380Y23344239D01*
X206303761Y23391858D01*
X206256142Y23487096D01*
X206256142Y23725191D01*
X206303761Y23820429D01*
X206351380Y23868048D01*
X206446619Y23915667D01*
X206637095Y23915667D01*
X206732333Y23868048D01*
X206779952Y23820429D01*
X206827571Y23725191D01*
%TO.C,TP17*%
X202271095Y24296620D02*
X201699666Y24296620D01*
X201985380Y23296620D02*
X201985380Y24296620D01*
X201366333Y23296620D02*
X201366333Y24296620D01*
X200985380Y24296620D01*
X200890142Y24249000D01*
X200842523Y24201381D01*
X200794904Y24106143D01*
X200794904Y23963286D01*
X200842523Y23868048D01*
X200890142Y23820429D01*
X200985380Y23772810D01*
X201366333Y23772810D01*
X199842523Y23296620D02*
X200413952Y23296620D01*
X200128238Y23296620D02*
X200128238Y24296620D01*
X200223476Y24153762D01*
X200318714Y24058524D01*
X200413952Y24010905D01*
X199509190Y24296620D02*
X198842523Y24296620D01*
X199271095Y23296620D01*
%TO.C,TP18*%
X198334095Y24296620D02*
X197762666Y24296620D01*
X198048380Y23296620D02*
X198048380Y24296620D01*
X197429333Y23296620D02*
X197429333Y24296620D01*
X197048380Y24296620D01*
X196953142Y24249000D01*
X196905523Y24201381D01*
X196857904Y24106143D01*
X196857904Y23963286D01*
X196905523Y23868048D01*
X196953142Y23820429D01*
X197048380Y23772810D01*
X197429333Y23772810D01*
X195905523Y23296620D02*
X196476952Y23296620D01*
X196191238Y23296620D02*
X196191238Y24296620D01*
X196286476Y24153762D01*
X196381714Y24058524D01*
X196476952Y24010905D01*
X195334095Y23868048D02*
X195429333Y23915667D01*
X195476952Y23963286D01*
X195524571Y24058524D01*
X195524571Y24106143D01*
X195476952Y24201381D01*
X195429333Y24249000D01*
X195334095Y24296620D01*
X195143619Y24296620D01*
X195048380Y24249000D01*
X195000761Y24201381D01*
X194953142Y24106143D01*
X194953142Y24058524D01*
X195000761Y23963286D01*
X195048380Y23915667D01*
X195143619Y23868048D01*
X195334095Y23868048D01*
X195429333Y23820429D01*
X195476952Y23772810D01*
X195524571Y23677572D01*
X195524571Y23487096D01*
X195476952Y23391858D01*
X195429333Y23344239D01*
X195334095Y23296620D01*
X195143619Y23296620D01*
X195048380Y23344239D01*
X195000761Y23391858D01*
X194953142Y23487096D01*
X194953142Y23677572D01*
X195000761Y23772810D01*
X195048380Y23820429D01*
X195143619Y23868048D01*
%TO.C,TP19*%
X190714095Y24296620D02*
X190142666Y24296620D01*
X190428380Y23296620D02*
X190428380Y24296620D01*
X189809333Y23296620D02*
X189809333Y24296620D01*
X189428380Y24296620D01*
X189333142Y24249000D01*
X189285523Y24201381D01*
X189237904Y24106143D01*
X189237904Y23963286D01*
X189285523Y23868048D01*
X189333142Y23820429D01*
X189428380Y23772810D01*
X189809333Y23772810D01*
X188285523Y23296620D02*
X188856952Y23296620D01*
X188571238Y23296620D02*
X188571238Y24296620D01*
X188666476Y24153762D01*
X188761714Y24058524D01*
X188856952Y24010905D01*
X187809333Y23296620D02*
X187618857Y23296620D01*
X187523619Y23344239D01*
X187476000Y23391858D01*
X187380761Y23534715D01*
X187333142Y23725191D01*
X187333142Y24106143D01*
X187380761Y24201381D01*
X187428380Y24249000D01*
X187523619Y24296620D01*
X187714095Y24296620D01*
X187809333Y24249000D01*
X187856952Y24201381D01*
X187904571Y24106143D01*
X187904571Y23868048D01*
X187856952Y23772810D01*
X187809333Y23725191D01*
X187714095Y23677572D01*
X187523619Y23677572D01*
X187428380Y23725191D01*
X187380761Y23772810D01*
X187333142Y23868048D01*
%TO.C,TP20*%
X194524095Y24296620D02*
X193952666Y24296620D01*
X194238380Y23296620D02*
X194238380Y24296620D01*
X193619333Y23296620D02*
X193619333Y24296620D01*
X193238380Y24296620D01*
X193143142Y24249000D01*
X193095523Y24201381D01*
X193047904Y24106143D01*
X193047904Y23963286D01*
X193095523Y23868048D01*
X193143142Y23820429D01*
X193238380Y23772810D01*
X193619333Y23772810D01*
X192666952Y24201381D02*
X192619333Y24249000D01*
X192524095Y24296620D01*
X192286000Y24296620D01*
X192190761Y24249000D01*
X192143142Y24201381D01*
X192095523Y24106143D01*
X192095523Y24010905D01*
X192143142Y23868048D01*
X192714571Y23296620D01*
X192095523Y23296620D01*
X191476476Y24296620D02*
X191381238Y24296620D01*
X191286000Y24249000D01*
X191238380Y24201381D01*
X191190761Y24106143D01*
X191143142Y23915667D01*
X191143142Y23677572D01*
X191190761Y23487096D01*
X191238380Y23391858D01*
X191286000Y23344239D01*
X191381238Y23296620D01*
X191476476Y23296620D01*
X191571714Y23344239D01*
X191619333Y23391858D01*
X191666952Y23487096D01*
X191714571Y23677572D01*
X191714571Y23915667D01*
X191666952Y24106143D01*
X191619333Y24201381D01*
X191571714Y24249000D01*
X191476476Y24296620D01*
%TO.C,TP14*%
X156170095Y24296620D02*
X155598666Y24296620D01*
X155884380Y23296620D02*
X155884380Y24296620D01*
X155265333Y23296620D02*
X155265333Y24296620D01*
X154884380Y24296620D01*
X154789142Y24249000D01*
X154741523Y24201381D01*
X154693904Y24106143D01*
X154693904Y23963286D01*
X154741523Y23868048D01*
X154789142Y23820429D01*
X154884380Y23772810D01*
X155265333Y23772810D01*
X153741523Y23296620D02*
X154312952Y23296620D01*
X154027238Y23296620D02*
X154027238Y24296620D01*
X154122476Y24153762D01*
X154217714Y24058524D01*
X154312952Y24010905D01*
X152884380Y23963286D02*
X152884380Y23296620D01*
X153122476Y24344239D02*
X153360571Y23629953D01*
X152741523Y23629953D01*
%TO.C,TP22*%
X247864095Y24169620D02*
X247292666Y24169620D01*
X247578380Y23169620D02*
X247578380Y24169620D01*
X246959333Y23169620D02*
X246959333Y24169620D01*
X246578380Y24169620D01*
X246483142Y24122000D01*
X246435523Y24074381D01*
X246387904Y23979143D01*
X246387904Y23836286D01*
X246435523Y23741048D01*
X246483142Y23693429D01*
X246578380Y23645810D01*
X246959333Y23645810D01*
X246006952Y24074381D02*
X245959333Y24122000D01*
X245864095Y24169620D01*
X245626000Y24169620D01*
X245530761Y24122000D01*
X245483142Y24074381D01*
X245435523Y23979143D01*
X245435523Y23883905D01*
X245483142Y23741048D01*
X246054571Y23169620D01*
X245435523Y23169620D01*
X245054571Y24074381D02*
X245006952Y24122000D01*
X244911714Y24169620D01*
X244673619Y24169620D01*
X244578380Y24122000D01*
X244530761Y24074381D01*
X244483142Y23979143D01*
X244483142Y23883905D01*
X244530761Y23741048D01*
X245102190Y23169620D01*
X244483142Y23169620D01*
%TO.C,C45*%
X224639142Y41155858D02*
X224686761Y41203477D01*
X224734380Y41346334D01*
X224734380Y41441572D01*
X224686761Y41584429D01*
X224591523Y41679667D01*
X224496285Y41727286D01*
X224305809Y41774905D01*
X224162952Y41774905D01*
X223972476Y41727286D01*
X223877238Y41679667D01*
X223782000Y41584429D01*
X223734380Y41441572D01*
X223734380Y41346334D01*
X223782000Y41203477D01*
X223829619Y41155858D01*
X224067714Y40298715D02*
X224734380Y40298715D01*
X223686761Y40536810D02*
X224401047Y40774905D01*
X224401047Y40155858D01*
X223734380Y39298715D02*
X223734380Y39774905D01*
X224210571Y39822524D01*
X224162952Y39774905D01*
X224115333Y39679667D01*
X224115333Y39441572D01*
X224162952Y39346334D01*
X224210571Y39298715D01*
X224305809Y39251096D01*
X224543904Y39251096D01*
X224639142Y39298715D01*
X224686761Y39346334D01*
X224734380Y39441572D01*
X224734380Y39679667D01*
X224686761Y39774905D01*
X224639142Y39822524D01*
%TO.C,R34*%
X235656380Y43822858D02*
X235180190Y44156191D01*
X235656380Y44394286D02*
X234656380Y44394286D01*
X234656380Y44013334D01*
X234704000Y43918096D01*
X234751619Y43870477D01*
X234846857Y43822858D01*
X234989714Y43822858D01*
X235084952Y43870477D01*
X235132571Y43918096D01*
X235180190Y44013334D01*
X235180190Y44394286D01*
X234656380Y43489524D02*
X234656380Y42870477D01*
X235037333Y43203810D01*
X235037333Y43060953D01*
X235084952Y42965715D01*
X235132571Y42918096D01*
X235227809Y42870477D01*
X235465904Y42870477D01*
X235561142Y42918096D01*
X235608761Y42965715D01*
X235656380Y43060953D01*
X235656380Y43346667D01*
X235608761Y43441905D01*
X235561142Y43489524D01*
X234989714Y42013334D02*
X235656380Y42013334D01*
X234608761Y42251429D02*
X235323047Y42489524D01*
X235323047Y41870477D01*
%TO.C,TP25*%
X228306095Y24169620D02*
X227734666Y24169620D01*
X228020380Y23169620D02*
X228020380Y24169620D01*
X227401333Y23169620D02*
X227401333Y24169620D01*
X227020380Y24169620D01*
X226925142Y24122000D01*
X226877523Y24074381D01*
X226829904Y23979143D01*
X226829904Y23836286D01*
X226877523Y23741048D01*
X226925142Y23693429D01*
X227020380Y23645810D01*
X227401333Y23645810D01*
X226448952Y24074381D02*
X226401333Y24122000D01*
X226306095Y24169620D01*
X226068000Y24169620D01*
X225972761Y24122000D01*
X225925142Y24074381D01*
X225877523Y23979143D01*
X225877523Y23883905D01*
X225925142Y23741048D01*
X226496571Y23169620D01*
X225877523Y23169620D01*
X224972761Y24169620D02*
X225448952Y24169620D01*
X225496571Y23693429D01*
X225448952Y23741048D01*
X225353714Y23788667D01*
X225115619Y23788667D01*
X225020380Y23741048D01*
X224972761Y23693429D01*
X224925142Y23598191D01*
X224925142Y23360096D01*
X224972761Y23264858D01*
X225020380Y23217239D01*
X225115619Y23169620D01*
X225353714Y23169620D01*
X225448952Y23217239D01*
X225496571Y23264858D01*
%TO.C,C44*%
X236069142Y35186858D02*
X236116761Y35234477D01*
X236164380Y35377334D01*
X236164380Y35472572D01*
X236116761Y35615429D01*
X236021523Y35710667D01*
X235926285Y35758286D01*
X235735809Y35805905D01*
X235592952Y35805905D01*
X235402476Y35758286D01*
X235307238Y35710667D01*
X235212000Y35615429D01*
X235164380Y35472572D01*
X235164380Y35377334D01*
X235212000Y35234477D01*
X235259619Y35186858D01*
X235497714Y34329715D02*
X236164380Y34329715D01*
X235116761Y34567810D02*
X235831047Y34805905D01*
X235831047Y34186858D01*
X235497714Y33377334D02*
X236164380Y33377334D01*
X235116761Y33615429D02*
X235831047Y33853524D01*
X235831047Y33234477D01*
%TO.C,R33*%
X237789980Y43822858D02*
X237313790Y44156191D01*
X237789980Y44394286D02*
X236789980Y44394286D01*
X236789980Y44013334D01*
X236837600Y43918096D01*
X236885219Y43870477D01*
X236980457Y43822858D01*
X237123314Y43822858D01*
X237218552Y43870477D01*
X237266171Y43918096D01*
X237313790Y44013334D01*
X237313790Y44394286D01*
X236789980Y43489524D02*
X236789980Y42870477D01*
X237170933Y43203810D01*
X237170933Y43060953D01*
X237218552Y42965715D01*
X237266171Y42918096D01*
X237361409Y42870477D01*
X237599504Y42870477D01*
X237694742Y42918096D01*
X237742361Y42965715D01*
X237789980Y43060953D01*
X237789980Y43346667D01*
X237742361Y43441905D01*
X237694742Y43489524D01*
X236789980Y42537143D02*
X236789980Y41918096D01*
X237170933Y42251429D01*
X237170933Y42108572D01*
X237218552Y42013334D01*
X237266171Y41965715D01*
X237361409Y41918096D01*
X237599504Y41918096D01*
X237694742Y41965715D01*
X237742361Y42013334D01*
X237789980Y42108572D01*
X237789980Y42394286D01*
X237742361Y42489524D01*
X237694742Y42537143D01*
%TO.C,R38*%
X41092380Y43060858D02*
X40616190Y43394191D01*
X41092380Y43632286D02*
X40092380Y43632286D01*
X40092380Y43251334D01*
X40140000Y43156096D01*
X40187619Y43108477D01*
X40282857Y43060858D01*
X40425714Y43060858D01*
X40520952Y43108477D01*
X40568571Y43156096D01*
X40616190Y43251334D01*
X40616190Y43632286D01*
X40092380Y42727524D02*
X40092380Y42108477D01*
X40473333Y42441810D01*
X40473333Y42298953D01*
X40520952Y42203715D01*
X40568571Y42156096D01*
X40663809Y42108477D01*
X40901904Y42108477D01*
X40997142Y42156096D01*
X41044761Y42203715D01*
X41092380Y42298953D01*
X41092380Y42584667D01*
X41044761Y42679905D01*
X40997142Y42727524D01*
X40520952Y41537048D02*
X40473333Y41632286D01*
X40425714Y41679905D01*
X40330476Y41727524D01*
X40282857Y41727524D01*
X40187619Y41679905D01*
X40140000Y41632286D01*
X40092380Y41537048D01*
X40092380Y41346572D01*
X40140000Y41251334D01*
X40187619Y41203715D01*
X40282857Y41156096D01*
X40330476Y41156096D01*
X40425714Y41203715D01*
X40473333Y41251334D01*
X40520952Y41346572D01*
X40520952Y41537048D01*
X40568571Y41632286D01*
X40616190Y41679905D01*
X40711428Y41727524D01*
X40901904Y41727524D01*
X40997142Y41679905D01*
X41044761Y41632286D01*
X41092380Y41537048D01*
X41092380Y41346572D01*
X41044761Y41251334D01*
X40997142Y41203715D01*
X40901904Y41156096D01*
X40711428Y41156096D01*
X40616190Y41203715D01*
X40568571Y41251334D01*
X40520952Y41346572D01*
%TO.C,R37*%
X46045380Y43441858D02*
X45569190Y43775191D01*
X46045380Y44013286D02*
X45045380Y44013286D01*
X45045380Y43632334D01*
X45093000Y43537096D01*
X45140619Y43489477D01*
X45235857Y43441858D01*
X45378714Y43441858D01*
X45473952Y43489477D01*
X45521571Y43537096D01*
X45569190Y43632334D01*
X45569190Y44013286D01*
X45045380Y43108524D02*
X45045380Y42489477D01*
X45426333Y42822810D01*
X45426333Y42679953D01*
X45473952Y42584715D01*
X45521571Y42537096D01*
X45616809Y42489477D01*
X45854904Y42489477D01*
X45950142Y42537096D01*
X45997761Y42584715D01*
X46045380Y42679953D01*
X46045380Y42965667D01*
X45997761Y43060905D01*
X45950142Y43108524D01*
X45045380Y42156143D02*
X45045380Y41489477D01*
X46045380Y41918048D01*
%TO.C,TP26*%
X231862095Y24169620D02*
X231290666Y24169620D01*
X231576380Y23169620D02*
X231576380Y24169620D01*
X230957333Y23169620D02*
X230957333Y24169620D01*
X230576380Y24169620D01*
X230481142Y24122000D01*
X230433523Y24074381D01*
X230385904Y23979143D01*
X230385904Y23836286D01*
X230433523Y23741048D01*
X230481142Y23693429D01*
X230576380Y23645810D01*
X230957333Y23645810D01*
X230004952Y24074381D02*
X229957333Y24122000D01*
X229862095Y24169620D01*
X229624000Y24169620D01*
X229528761Y24122000D01*
X229481142Y24074381D01*
X229433523Y23979143D01*
X229433523Y23883905D01*
X229481142Y23741048D01*
X230052571Y23169620D01*
X229433523Y23169620D01*
X228576380Y24169620D02*
X228766857Y24169620D01*
X228862095Y24122000D01*
X228909714Y24074381D01*
X229004952Y23931524D01*
X229052571Y23741048D01*
X229052571Y23360096D01*
X229004952Y23264858D01*
X228957333Y23217239D01*
X228862095Y23169620D01*
X228671619Y23169620D01*
X228576380Y23217239D01*
X228528761Y23264858D01*
X228481142Y23360096D01*
X228481142Y23598191D01*
X228528761Y23693429D01*
X228576380Y23741048D01*
X228671619Y23788667D01*
X228862095Y23788667D01*
X228957333Y23741048D01*
X229004952Y23693429D01*
X229052571Y23598191D01*
%TO.C,TP24*%
X235672095Y24135620D02*
X235100666Y24135620D01*
X235386380Y23135620D02*
X235386380Y24135620D01*
X234767333Y23135620D02*
X234767333Y24135620D01*
X234386380Y24135620D01*
X234291142Y24088000D01*
X234243523Y24040381D01*
X234195904Y23945143D01*
X234195904Y23802286D01*
X234243523Y23707048D01*
X234291142Y23659429D01*
X234386380Y23611810D01*
X234767333Y23611810D01*
X233814952Y24040381D02*
X233767333Y24088000D01*
X233672095Y24135620D01*
X233434000Y24135620D01*
X233338761Y24088000D01*
X233291142Y24040381D01*
X233243523Y23945143D01*
X233243523Y23849905D01*
X233291142Y23707048D01*
X233862571Y23135620D01*
X233243523Y23135620D01*
X232386380Y23802286D02*
X232386380Y23135620D01*
X232624476Y24183239D02*
X232862571Y23468953D01*
X232243523Y23468953D01*
%TO.C,TP23*%
X239736095Y24135620D02*
X239164666Y24135620D01*
X239450380Y23135620D02*
X239450380Y24135620D01*
X238831333Y23135620D02*
X238831333Y24135620D01*
X238450380Y24135620D01*
X238355142Y24088000D01*
X238307523Y24040381D01*
X238259904Y23945143D01*
X238259904Y23802286D01*
X238307523Y23707048D01*
X238355142Y23659429D01*
X238450380Y23611810D01*
X238831333Y23611810D01*
X237878952Y24040381D02*
X237831333Y24088000D01*
X237736095Y24135620D01*
X237498000Y24135620D01*
X237402761Y24088000D01*
X237355142Y24040381D01*
X237307523Y23945143D01*
X237307523Y23849905D01*
X237355142Y23707048D01*
X237926571Y23135620D01*
X237307523Y23135620D01*
X236974190Y24135620D02*
X236355142Y24135620D01*
X236688476Y23754667D01*
X236545619Y23754667D01*
X236450380Y23707048D01*
X236402761Y23659429D01*
X236355142Y23564191D01*
X236355142Y23326096D01*
X236402761Y23230858D01*
X236450380Y23183239D01*
X236545619Y23135620D01*
X236831333Y23135620D01*
X236926571Y23183239D01*
X236974190Y23230858D01*
%TO.C,J22*%
X95643619Y13646096D02*
X95643619Y13074667D01*
X95681714Y12960381D01*
X95757904Y12884191D01*
X95872190Y12846096D01*
X95948380Y12846096D01*
X95300761Y13569905D02*
X95262666Y13608000D01*
X95186476Y13646096D01*
X94996000Y13646096D01*
X94919809Y13608000D01*
X94881714Y13569905D01*
X94843619Y13493715D01*
X94843619Y13417524D01*
X94881714Y13303239D01*
X95338857Y12846096D01*
X94843619Y12846096D01*
X94538857Y13569905D02*
X94500761Y13608000D01*
X94424571Y13646096D01*
X94234095Y13646096D01*
X94157904Y13608000D01*
X94119809Y13569905D01*
X94081714Y13493715D01*
X94081714Y13417524D01*
X94119809Y13303239D01*
X94576952Y12846096D01*
X94081714Y12846096D01*
%TO.C,C50*%
X45794142Y47400358D02*
X45841761Y47447977D01*
X45889380Y47590834D01*
X45889380Y47686072D01*
X45841761Y47828929D01*
X45746523Y47924167D01*
X45651285Y47971786D01*
X45460809Y48019405D01*
X45317952Y48019405D01*
X45127476Y47971786D01*
X45032238Y47924167D01*
X44937000Y47828929D01*
X44889380Y47686072D01*
X44889380Y47590834D01*
X44937000Y47447977D01*
X44984619Y47400358D01*
X44889380Y46495596D02*
X44889380Y46971786D01*
X45365571Y47019405D01*
X45317952Y46971786D01*
X45270333Y46876548D01*
X45270333Y46638453D01*
X45317952Y46543215D01*
X45365571Y46495596D01*
X45460809Y46447977D01*
X45698904Y46447977D01*
X45794142Y46495596D01*
X45841761Y46543215D01*
X45889380Y46638453D01*
X45889380Y46876548D01*
X45841761Y46971786D01*
X45794142Y47019405D01*
X44889380Y45828929D02*
X44889380Y45733691D01*
X44937000Y45638453D01*
X44984619Y45590834D01*
X45079857Y45543215D01*
X45270333Y45495596D01*
X45508428Y45495596D01*
X45698904Y45543215D01*
X45794142Y45590834D01*
X45841761Y45638453D01*
X45889380Y45733691D01*
X45889380Y45828929D01*
X45841761Y45924167D01*
X45794142Y45971786D01*
X45698904Y46019405D01*
X45508428Y46067024D01*
X45270333Y46067024D01*
X45079857Y46019405D01*
X44984619Y45971786D01*
X44937000Y45924167D01*
X44889380Y45828929D01*
%TO.C,C51*%
X41790857Y47267858D02*
X41838476Y47220239D01*
X41981333Y47172620D01*
X42076571Y47172620D01*
X42219428Y47220239D01*
X42314666Y47315477D01*
X42362285Y47410715D01*
X42409904Y47601191D01*
X42409904Y47744048D01*
X42362285Y47934524D01*
X42314666Y48029762D01*
X42219428Y48125000D01*
X42076571Y48172620D01*
X41981333Y48172620D01*
X41838476Y48125000D01*
X41790857Y48077381D01*
X40886095Y48172620D02*
X41362285Y48172620D01*
X41409904Y47696429D01*
X41362285Y47744048D01*
X41267047Y47791667D01*
X41028952Y47791667D01*
X40933714Y47744048D01*
X40886095Y47696429D01*
X40838476Y47601191D01*
X40838476Y47363096D01*
X40886095Y47267858D01*
X40933714Y47220239D01*
X41028952Y47172620D01*
X41267047Y47172620D01*
X41362285Y47220239D01*
X41409904Y47267858D01*
X39886095Y47172620D02*
X40457523Y47172620D01*
X40171809Y47172620D02*
X40171809Y48172620D01*
X40267047Y48029762D01*
X40362285Y47934524D01*
X40457523Y47886905D01*
%TO.C,TP21*%
X243800095Y24169620D02*
X243228666Y24169620D01*
X243514380Y23169620D02*
X243514380Y24169620D01*
X242895333Y23169620D02*
X242895333Y24169620D01*
X242514380Y24169620D01*
X242419142Y24122000D01*
X242371523Y24074381D01*
X242323904Y23979143D01*
X242323904Y23836286D01*
X242371523Y23741048D01*
X242419142Y23693429D01*
X242514380Y23645810D01*
X242895333Y23645810D01*
X241942952Y24074381D02*
X241895333Y24122000D01*
X241800095Y24169620D01*
X241562000Y24169620D01*
X241466761Y24122000D01*
X241419142Y24074381D01*
X241371523Y23979143D01*
X241371523Y23883905D01*
X241419142Y23741048D01*
X241990571Y23169620D01*
X241371523Y23169620D01*
X240419142Y23169620D02*
X240990571Y23169620D01*
X240704857Y23169620D02*
X240704857Y24169620D01*
X240800095Y24026762D01*
X240895333Y23931524D01*
X240990571Y23883905D01*
%TO.C,J23*%
X247535619Y25584096D02*
X247535619Y25012667D01*
X247573714Y24898381D01*
X247649904Y24822191D01*
X247764190Y24784096D01*
X247840380Y24784096D01*
X247192761Y25507905D02*
X247154666Y25546000D01*
X247078476Y25584096D01*
X246888000Y25584096D01*
X246811809Y25546000D01*
X246773714Y25507905D01*
X246735619Y25431715D01*
X246735619Y25355524D01*
X246773714Y25241239D01*
X247230857Y24784096D01*
X246735619Y24784096D01*
X246468952Y25584096D02*
X245973714Y25584096D01*
X246240380Y25279334D01*
X246126095Y25279334D01*
X246049904Y25241239D01*
X246011809Y25203143D01*
X245973714Y25126953D01*
X245973714Y24936477D01*
X246011809Y24860286D01*
X246049904Y24822191D01*
X246126095Y24784096D01*
X246354666Y24784096D01*
X246430857Y24822191D01*
X246468952Y24860286D01*
%TO.C,C46*%
X237593142Y35186858D02*
X237640761Y35234477D01*
X237688380Y35377334D01*
X237688380Y35472572D01*
X237640761Y35615429D01*
X237545523Y35710667D01*
X237450285Y35758286D01*
X237259809Y35805905D01*
X237116952Y35805905D01*
X236926476Y35758286D01*
X236831238Y35710667D01*
X236736000Y35615429D01*
X236688380Y35472572D01*
X236688380Y35377334D01*
X236736000Y35234477D01*
X236783619Y35186858D01*
X237021714Y34329715D02*
X237688380Y34329715D01*
X236640761Y34567810D02*
X237355047Y34805905D01*
X237355047Y34186858D01*
X236688380Y33377334D02*
X236688380Y33567810D01*
X236736000Y33663048D01*
X236783619Y33710667D01*
X236926476Y33805905D01*
X237116952Y33853524D01*
X237497904Y33853524D01*
X237593142Y33805905D01*
X237640761Y33758286D01*
X237688380Y33663048D01*
X237688380Y33472572D01*
X237640761Y33377334D01*
X237593142Y33329715D01*
X237497904Y33282096D01*
X237259809Y33282096D01*
X237164571Y33329715D01*
X237116952Y33377334D01*
X237069333Y33472572D01*
X237069333Y33663048D01*
X237116952Y33758286D01*
X237164571Y33805905D01*
X237259809Y33853524D01*
%TO.C,C47*%
X227052142Y41155858D02*
X227099761Y41203477D01*
X227147380Y41346334D01*
X227147380Y41441572D01*
X227099761Y41584429D01*
X227004523Y41679667D01*
X226909285Y41727286D01*
X226718809Y41774905D01*
X226575952Y41774905D01*
X226385476Y41727286D01*
X226290238Y41679667D01*
X226195000Y41584429D01*
X226147380Y41441572D01*
X226147380Y41346334D01*
X226195000Y41203477D01*
X226242619Y41155858D01*
X226480714Y40298715D02*
X227147380Y40298715D01*
X226099761Y40536810D02*
X226814047Y40774905D01*
X226814047Y40155858D01*
X226147380Y39870143D02*
X226147380Y39203477D01*
X227147380Y39632048D01*
D10*
%TO.C,J25*%
X18056000Y64765000D02*
X18056000Y62165000D01*
X15456000Y67365000D02*
X15456000Y64765000D01*
X15456000Y63495000D02*
X15456000Y62165000D01*
X63836000Y67365000D02*
X63836000Y62165000D01*
X15456000Y64765000D02*
X18056000Y64765000D01*
X18056000Y62165000D02*
X63836000Y62165000D01*
X15456000Y62165000D02*
X16786000Y62165000D01*
X15456000Y67365000D02*
X63836000Y67365000D01*
%TO.C,J24*%
X18044000Y3805000D02*
X18044000Y1205000D01*
X15444000Y6405000D02*
X15444000Y3805000D01*
X15444000Y2535000D02*
X15444000Y1205000D01*
X63824000Y6405000D02*
X63824000Y1205000D01*
X15444000Y3805000D02*
X18044000Y3805000D01*
X18044000Y1205000D02*
X63824000Y1205000D01*
X15444000Y1205000D02*
X16774000Y1205000D01*
X15444000Y6405000D02*
X63824000Y6405000D01*
%TO.C,C28*%
X48388723Y31757510D02*
X48681257Y31757510D01*
X48388723Y30737510D02*
X48681257Y30737510D01*
%TO.C,C30*%
X48395738Y32544510D02*
X48918242Y32544510D01*
X48395738Y34014510D02*
X48918242Y34014510D01*
%TO.C,C31*%
X43001723Y32515510D02*
X43294257Y32515510D01*
X43001723Y33535510D02*
X43294257Y33535510D01*
%TO.C,C33*%
X44965252Y35533000D02*
X44442748Y35533000D01*
X44965252Y34063000D02*
X44442748Y34063000D01*
%TO.C,J17*%
X31683490Y53279510D02*
X31683490Y51379510D01*
X33583490Y51379510D02*
X33583490Y53279510D01*
X33583490Y53279510D02*
X31683490Y53279510D01*
X31683490Y51379510D02*
X33583490Y51379510D01*
%TO.C,J18*%
X24063490Y53279510D02*
X24063490Y51379510D01*
X24063490Y51379510D02*
X25963490Y51379510D01*
X25963490Y51379510D02*
X25963490Y53279510D01*
X25963490Y53279510D02*
X24063490Y53279510D01*
%TO.C,J19*%
X21523490Y51379510D02*
X23423490Y51379510D01*
X23423490Y53279510D02*
X21523490Y53279510D01*
X23423490Y51379510D02*
X23423490Y53279510D01*
X21523490Y53279510D02*
X21523490Y51379510D01*
%TO.C,JP3*%
X48117000Y36954000D02*
X48117000Y39754000D01*
X46817000Y36304000D02*
X47417000Y36304000D01*
X47417000Y40404000D02*
X46817000Y40404000D01*
X46117000Y39754000D02*
X46117000Y36954000D01*
X46817000Y40404000D02*
G75*
G03*
X46117000Y39704000I-1J-699999D01*
G01*
X46117000Y37004000D02*
G75*
G03*
X46817000Y36304000I699999J-1D01*
G01*
X47417000Y36304000D02*
G75*
G03*
X48117000Y37004000I1J699999D01*
G01*
X48117000Y39704000D02*
G75*
G03*
X47417000Y40404000I-699999J1D01*
G01*
%TO.C,R21*%
X31320554Y48038510D02*
X30866426Y48038510D01*
X31320554Y49508510D02*
X30866426Y49508510D01*
%TO.C,R22*%
X26326426Y49508510D02*
X26780554Y49508510D01*
X26326426Y48038510D02*
X26780554Y48038510D01*
%TO.C,TP1*%
X29393490Y51629510D02*
X30793490Y51629510D01*
X30793490Y51629510D02*
X30793490Y53029510D01*
X29393490Y53029510D02*
X29393490Y51629510D01*
X30793490Y53029510D02*
X29393490Y53029510D01*
%TO.C,TP2*%
X26853490Y53029510D02*
X26853490Y51629510D01*
X28253490Y53029510D02*
X26853490Y53029510D01*
X28253490Y51629510D02*
X28253490Y53029510D01*
X26853490Y51629510D02*
X28253490Y51629510D01*
%TO.C,JP2*%
X44623000Y40404000D02*
X44023000Y40404000D01*
X44023000Y36304000D02*
X44623000Y36304000D01*
X45323000Y36954000D02*
X45323000Y39754000D01*
X43323000Y39754000D02*
X43323000Y36954000D01*
X44623000Y36304000D02*
G75*
G03*
X45323000Y37004000I1J699999D01*
G01*
X45323000Y39704000D02*
G75*
G03*
X44623000Y40404000I-699999J1D01*
G01*
X43323000Y37004000D02*
G75*
G03*
X44023000Y36304000I699999J-1D01*
G01*
X44023000Y40404000D02*
G75*
G03*
X43323000Y39704000I-1J-699999D01*
G01*
%TO.C,C23*%
X43001723Y31757510D02*
X43294257Y31757510D01*
X43001723Y30737510D02*
X43294257Y30737510D01*
%TO.C,C11*%
X53490242Y28988510D02*
X52967738Y28988510D01*
X53490242Y30458510D02*
X52967738Y30458510D01*
%TO.C,C14*%
X157478000Y34397733D02*
X157478000Y34690267D01*
X158498000Y34397733D02*
X158498000Y34690267D01*
%TO.C,C15*%
X196598000Y34424233D02*
X196598000Y34716767D01*
X195578000Y34424233D02*
X195578000Y34716767D01*
%TO.C,C16*%
X84584000Y34879233D02*
X84584000Y35171767D01*
X83564000Y34879233D02*
X83564000Y35171767D01*
%TO.C,C20*%
X163197000Y34397733D02*
X163197000Y34690267D01*
X162177000Y34397733D02*
X162177000Y34690267D01*
%TO.C,C21*%
X200150000Y34397733D02*
X200150000Y34690267D01*
X201170000Y34397733D02*
X201170000Y34690267D01*
%TO.C,C35*%
X85342000Y34879233D02*
X85342000Y35171767D01*
X86362000Y34879233D02*
X86362000Y35171767D01*
%TO.C,C36*%
X151357000Y36688752D02*
X151357000Y36166248D01*
X149887000Y36688752D02*
X149887000Y36166248D01*
%TO.C,C37*%
X187860000Y36600252D02*
X187860000Y36077748D01*
X189330000Y36600252D02*
X189330000Y36077748D01*
%TO.C,C38*%
X82777000Y34896248D02*
X82777000Y35418752D01*
X81307000Y34896248D02*
X81307000Y35418752D01*
%TO.C,C39*%
X80412000Y34937248D02*
X80412000Y36359752D01*
X78592000Y34937248D02*
X78592000Y36359752D01*
%TO.C,C40*%
X112416000Y37414252D02*
X112416000Y35991748D01*
X110596000Y37414252D02*
X110596000Y35991748D01*
%TO.C,C41*%
X147172000Y37198752D02*
X147172000Y35776248D01*
X148992000Y37198752D02*
X148992000Y35776248D01*
%TO.C,C42*%
X185272000Y37033252D02*
X185272000Y35610748D01*
X187092000Y37033252D02*
X187092000Y35610748D01*
%TO.C,R13*%
X162152000Y39978064D02*
X162152000Y39523936D01*
X160682000Y39978064D02*
X160682000Y39523936D01*
%TO.C,R16*%
X158396000Y39978064D02*
X158396000Y39523936D01*
X159866000Y39978064D02*
X159866000Y39523936D01*
%TO.C,R17*%
X199998000Y39978064D02*
X199998000Y39523936D01*
X198528000Y39978064D02*
X198528000Y39523936D01*
%TO.C,R30*%
X196369000Y39946064D02*
X196369000Y39491936D01*
X197839000Y39946064D02*
X197839000Y39491936D01*
%TO.C,R31*%
X89435000Y34935936D02*
X89435000Y35390064D01*
X90905000Y34935936D02*
X90905000Y35390064D01*
%TO.C,R32*%
X87149000Y34951936D02*
X87149000Y35406064D01*
X88619000Y34951936D02*
X88619000Y35406064D01*
%TO.C,C8*%
X125605000Y34397733D02*
X125605000Y34690267D01*
X124585000Y34397733D02*
X124585000Y34690267D01*
%TO.C,C9*%
X121033000Y34397733D02*
X121033000Y34690267D01*
X120013000Y34397733D02*
X120013000Y34690267D01*
%TO.C,C10*%
X113184000Y36964252D02*
X113184000Y36441748D01*
X114654000Y36964252D02*
X114654000Y36441748D01*
%TO.C,C12*%
X97817000Y40865248D02*
X97817000Y41387752D01*
X99287000Y40865248D02*
X99287000Y41387752D01*
%TO.C,R12*%
X121947000Y39978064D02*
X121947000Y39523936D01*
X123417000Y39978064D02*
X123417000Y39523936D01*
%TO.C,R29*%
X119661000Y39962064D02*
X119661000Y39507936D01*
X121131000Y39962064D02*
X121131000Y39507936D01*
D12*
%TO.C,J14*%
X153434000Y26102000D02*
X151524000Y26102000D01*
X151524000Y26102000D02*
X151524000Y31302000D01*
X165914000Y26102000D02*
X169024000Y26102000D01*
X151524000Y31302000D02*
X154734000Y31302000D01*
X169024000Y26102000D02*
X169024000Y31302000D01*
X169024000Y31302000D02*
X167114000Y31302000D01*
X167414000Y31902000D02*
G75*
G03*
X167414000Y31902000I-100000J0D01*
G01*
%TO.C,J15*%
X189624000Y26102000D02*
X189624000Y31302000D01*
X207124000Y26102000D02*
X207124000Y31302000D01*
X204014000Y26102000D02*
X207124000Y26102000D01*
X191534000Y26102000D02*
X189624000Y26102000D01*
X189624000Y31302000D02*
X192834000Y31302000D01*
X207124000Y31302000D02*
X205214000Y31302000D01*
X205514000Y31902000D02*
G75*
G03*
X205514000Y31902000I-100000J0D01*
G01*
%TO.C,J16*%
X75959000Y55087000D02*
X79169000Y55087000D01*
X93459000Y55087000D02*
X91549000Y55087000D01*
X75959000Y49887000D02*
X75959000Y55087000D01*
X90349000Y49887000D02*
X93459000Y49887000D01*
X77869000Y49887000D02*
X75959000Y49887000D01*
X93459000Y49887000D02*
X93459000Y55087000D01*
X91849000Y55687000D02*
G75*
G03*
X91849000Y55687000I-100000J0D01*
G01*
%TO.C,J20*%
X93459000Y45435000D02*
X91549000Y45435000D01*
X75959000Y40235000D02*
X75959000Y45435000D01*
X75959000Y45435000D02*
X79169000Y45435000D01*
X93459000Y40235000D02*
X93459000Y45435000D01*
X77869000Y40235000D02*
X75959000Y40235000D01*
X90349000Y40235000D02*
X93459000Y40235000D01*
X91849000Y46035000D02*
G75*
G03*
X91849000Y46035000I-100000J0D01*
G01*
%TO.C,J21*%
X90349000Y24614000D02*
X93459000Y24614000D01*
X93459000Y24614000D02*
X93459000Y29814000D01*
X77869000Y24614000D02*
X75959000Y24614000D01*
X75959000Y24614000D02*
X75959000Y29814000D01*
X93459000Y29814000D02*
X91549000Y29814000D01*
X75959000Y29814000D02*
X79169000Y29814000D01*
X91849000Y30414000D02*
G75*
G03*
X91849000Y30414000I-100000J0D01*
G01*
%TO.C,J13*%
X130924000Y31302000D02*
X129014000Y31302000D01*
X130924000Y26102000D02*
X130924000Y31302000D01*
X115334000Y26102000D02*
X113424000Y26102000D01*
X127814000Y26102000D02*
X130924000Y26102000D01*
X113424000Y26102000D02*
X113424000Y31302000D01*
X113424000Y31302000D02*
X116634000Y31302000D01*
X129314000Y31902000D02*
G75*
G03*
X129314000Y31902000I-100000J0D01*
G01*
D10*
%TO.C,TP3*%
X128200000Y21590000D02*
G75*
G03*
X128200000Y21590000I-1200000J0D01*
G01*
%TO.C,TP4*%
X131375000Y21590000D02*
G75*
G03*
X131375000Y21590000I-1200000J0D01*
G01*
%TO.C,TP5*%
X125025000Y21590000D02*
G75*
G03*
X125025000Y21590000I-1200000J0D01*
G01*
%TO.C,TP6*%
X121850000Y21590000D02*
G75*
G03*
X121850000Y21590000I-1200000J0D01*
G01*
%TO.C,TP7*%
X115500000Y21590000D02*
G75*
G03*
X115500000Y21590000I-1200000J0D01*
G01*
%TO.C,TP8*%
X118675000Y21590000D02*
G75*
G03*
X118675000Y21590000I-1200000J0D01*
G01*
%TO.C,TP9*%
X166300000Y21590000D02*
G75*
G03*
X166300000Y21590000I-1200000J0D01*
G01*
%TO.C,TP10*%
X169475000Y21590000D02*
G75*
G03*
X169475000Y21590000I-1200000J0D01*
G01*
%TO.C,TP11*%
X163125000Y21590000D02*
G75*
G03*
X163125000Y21590000I-1200000J0D01*
G01*
%TO.C,TP12*%
X159950000Y21590000D02*
G75*
G03*
X159950000Y21590000I-1200000J0D01*
G01*
%TO.C,TP13*%
X153600000Y21590000D02*
G75*
G03*
X153600000Y21590000I-1200000J0D01*
G01*
%TO.C,TP15*%
X204400000Y21590000D02*
G75*
G03*
X204400000Y21590000I-1200000J0D01*
G01*
%TO.C,TP16*%
X207575000Y21590000D02*
G75*
G03*
X207575000Y21590000I-1200000J0D01*
G01*
%TO.C,TP17*%
X201225000Y21590000D02*
G75*
G03*
X201225000Y21590000I-1200000J0D01*
G01*
%TO.C,TP18*%
X198050000Y21590000D02*
G75*
G03*
X198050000Y21590000I-1200000J0D01*
G01*
%TO.C,TP19*%
X191700000Y21590000D02*
G75*
G03*
X191700000Y21590000I-1200000J0D01*
G01*
%TO.C,TP20*%
X194875000Y21590000D02*
G75*
G03*
X194875000Y21590000I-1200000J0D01*
G01*
%TO.C,TP14*%
X156775000Y21590000D02*
G75*
G03*
X156775000Y21590000I-1200000J0D01*
G01*
%TO.C,TP22*%
X245675000Y21590000D02*
G75*
G03*
X245675000Y21590000I-1200000J0D01*
G01*
%TO.C,C45*%
X225192000Y37033252D02*
X225192000Y35610748D01*
X223372000Y37033252D02*
X223372000Y35610748D01*
%TO.C,R34*%
X235939000Y39994064D02*
X235939000Y39539936D01*
X234469000Y39994064D02*
X234469000Y39539936D01*
%TO.C,TP25*%
X229800000Y21590000D02*
G75*
G03*
X229800000Y21590000I-1200000J0D01*
G01*
%TO.C,C44*%
X233678000Y34498233D02*
X233678000Y34790767D01*
X234698000Y34498233D02*
X234698000Y34790767D01*
%TO.C,R33*%
X238098000Y39978064D02*
X238098000Y39523936D01*
X236628000Y39978064D02*
X236628000Y39523936D01*
%TO.C,R38*%
X42899000Y42174936D02*
X42899000Y42629064D01*
X41429000Y42174936D02*
X41429000Y42629064D01*
%TO.C,R37*%
X47852000Y43042064D02*
X47852000Y42587936D01*
X46382000Y43042064D02*
X46382000Y42587936D01*
%TO.C,TP26*%
X232975000Y21590000D02*
G75*
G03*
X232975000Y21590000I-1200000J0D01*
G01*
%TO.C,TP24*%
X236150000Y21590000D02*
G75*
G03*
X236150000Y21590000I-1200000J0D01*
G01*
%TO.C,TP23*%
X239325000Y21590000D02*
G75*
G03*
X239325000Y21590000I-1200000J0D01*
G01*
D12*
%TO.C,J22*%
X93459000Y18983000D02*
X91549000Y18983000D01*
X93459000Y13783000D02*
X93459000Y18983000D01*
X75959000Y18983000D02*
X79169000Y18983000D01*
X77869000Y13783000D02*
X75959000Y13783000D01*
X90349000Y13783000D02*
X93459000Y13783000D01*
X75959000Y13783000D02*
X75959000Y18983000D01*
X91849000Y19583000D02*
G75*
G03*
X91849000Y19583000I-100000J0D01*
G01*
D10*
%TO.C,C50*%
X46382000Y47018752D02*
X46382000Y46496248D01*
X47852000Y47018752D02*
X47852000Y46496248D01*
%TO.C,C51*%
X40886748Y45239000D02*
X41409252Y45239000D01*
X40886748Y46709000D02*
X41409252Y46709000D01*
%TO.C,TP21*%
X242500000Y21590000D02*
G75*
G03*
X242500000Y21590000I-1200000J0D01*
G01*
D12*
%TO.C,J23*%
X229634000Y25975000D02*
X227724000Y25975000D01*
X227724000Y31175000D02*
X230934000Y31175000D01*
X227724000Y25975000D02*
X227724000Y31175000D01*
X245224000Y31175000D02*
X243314000Y31175000D01*
X242114000Y25975000D02*
X245224000Y25975000D01*
X245224000Y25975000D02*
X245224000Y31175000D01*
X243614000Y31775000D02*
G75*
G03*
X243614000Y31775000I-100000J0D01*
G01*
D10*
%TO.C,C46*%
X238250000Y34397733D02*
X238250000Y34690267D01*
X239270000Y34397733D02*
X239270000Y34690267D01*
%TO.C,C47*%
X227430000Y36583252D02*
X227430000Y36060748D01*
X225960000Y36583252D02*
X225960000Y36060748D01*
%TD*%
M02*
